<?xml version="1.0" encoding="UTF-8"?>
<!DOCTYPE svg PUBLIC "-//W3C//DTD SVG 1.1//EN" "http://www.w3.org/Graphics/SVG/1.1/DTD/svg11.dtd">
<!-- Creator: CorelDRAW -->
<svg xmlns="http://www.w3.org/2000/svg" xml:space="preserve" width="210mm" height="297mm" version="1.1" style="shape-rendering:geometricPrecision; text-rendering:geometricPrecision; image-rendering:optimizeQuality; fill-rule:evenodd; clip-rule:evenodd"
viewBox="0 0 21000 29700"
 xmlns:xlink="http://www.w3.org/1999/xlink">
 <defs>
  <style type="text/css">
   <![CDATA[
    .str3 {stroke:black;stroke-width:10;stroke-miterlimit:3.864;stroke-opacity:0.501961}
    .str5 {stroke:black;stroke-width:50;stroke-miterlimit:22.9256}
    .str2 {stroke:#003399;stroke-width:20;stroke-miterlimit:22.9256}
    .str4 {stroke:#3F3E3F;stroke-width:10;stroke-miterlimit:3.864}
    .str0 {stroke:#000066;stroke-width:10;stroke-miterlimit:22.9256}
    .str1 {stroke:#003399;stroke-width:10;stroke-miterlimit:22.9256}
    .str6 {stroke:black;stroke-width:7.62;stroke-miterlimit:22.9256}
    .fil10 {fill:none}
    .fil3 {fill:none;fill-rule:nonzero}
    .fil0 {fill:#A2D9F7}
    .fil7 {fill:#FEFEFE;fill-rule:nonzero}
    .fil6 {fill:#D9DADA;fill-rule:nonzero}
    .fil9 {fill:#434242;fill-rule:nonzero}
    .fil8 {fill:#2B2A29;fill-rule:nonzero}
    .fil2 {fill:#A2D9F7;fill-rule:nonzero}
    .fil5 {fill:black;fill-rule:nonzero}
    .fil1 {fill:white;fill-rule:nonzero}
    .fil4 {fill:#FEFEFE;fill-rule:nonzero;fill-opacity:0.501961}
   ]]>
  </style>
 </defs>
 <g id="Plan_x0020_1">
  <metadata id="CorelCorpID_0Corel-Layer"/>
  <rect class="fil0" x="1016.1" y="1012.45" width="18825.37" height="21622.01"/>
  <path class="fil1 str0" d="M18350.25 1636.24c-5.71,5.71 -13.03,8.15 -13.03,16.29 0,46.41 9.77,72.48 9.77,118.91 0,48.04 -13.03,79.8 -45.61,115.64l-91.21 0c-13.04,17.93 -21.19,39.1 -44,39.1 -26.06,0 -37.45,-19.55 -63.51,-19.55 -24.44,0 -31.77,21.99 -48.87,39.08 -32.57,32.58 -62.7,39.9 -107.5,48.87 -63.54,12.23 -100.18,16.29 -164.53,16.29 -181.59,0 -269.55,-109.95 -451.17,-120.53 -40.74,-1.62 -61.09,-22.81 -101.79,-22.81l-83.9 0 -26.06 -6.51 -35.84 0c0,44.8 -12.21,70.86 -22.79,114.02 50.47,22.8 82.24,35.83 130.3,65.15 29.32,17.93 36.65,41.54 65.15,58.64 40.71,25.26 69.23,43.16 91.22,84.7 23.61,43.99 6.51,87.96 42.35,123.79 48.06,48.06 110.76,65.16 110.76,132.76l0 96.09c0,69.24 91.21,83.08 91.21,152.3 0,28.51 -14.67,58.64 -43.15,58.64l-86.34 0c-29.32,0 -43.97,13.84 -72.48,19.54 -37.48,7.33 -78.19,20.36 -78.19,58.64 0,70.86 153.11,26.87 153.11,97.73 0,18.74 -20.35,22.81 -29.32,39.1 -17.93,32.57 -22.79,57.02 -22.79,94.47 -30.14,0 -71.68,-0.81 -71.68,29.32 0,36.64 16.29,60.27 42.35,84.7 12.22,11.41 30.13,5.71 39.09,19.54 8.97,14.67 0.81,28.51 3.26,45.61 4.07,24.44 25.26,40.73 50.49,42.35l99.37 -13.03c50.47,3.26 78.18,16.29 128.66,16.29 0,43.15 -8.13,67.6 -8.13,110.76 0,29.32 10.58,65.16 39.9,65.16 45.61,0 70.86,0.8 116.47,0.8 -13.03,-56.99 -24.44,-89.57 -24.44,-148.21l0 -83.9 75.75 0c16.29,0 25.23,9.78 41.52,9.78 43.18,0 92.86,-18.74 92.86,-61.9 0,-35.02 -37.48,-52.12 -72.48,-52.12l-66.79 0c-34.2,0 -48.06,-29.32 -82.26,-29.32 -47.25,0 -67.6,30.97 -114.01,39.09 -48.87,8.16 -81.44,-5.7 -127.05,13.03 -3.26,-4.87 -9.78,-6.51 -9.78,-13.03 0,-52.93 8.14,-83.06 22.81,-133.56 8.97,-32.58 27.68,-61.9 61.9,-61.9 21.99,0 29.31,16.29 48.86,26.07 31.76,15.47 55.38,19.54 81.44,45.6 25.25,-43.16 38.29,-69.21 58.64,-114.02 22.8,-48.86 52.93,-91.21 107.5,-91.21 51.32,0 77.38,26.06 128.67,26.06 53.76,0 82.27,-16.29 136.01,-16.29l64.35 0 329.02 -48.87c-7.32,-30.93 -26.06,-42.34 -48.86,-65.15 -43.97,-43.96 -71.67,-78.99 -71.67,-140.88l0 -74.12 -19.54 -153.12c8.15,-52.93 74.92,-39.09 110.76,-78.18 38.28,-41.54 39.08,-78.99 68.41,-127.05 16.28,-26.87 43.15,-28.51 58.64,-55.38 35.02,-60.26 46.41,-99.35 68.41,-166.14l0 -16.29c-20.36,6.52 -25.26,22.81 -42.36,35.84 -35.02,27.7 -65.95,29.31 -110.76,35.83 -9.77,-29.32 4.07,-53.74 -13.03,-78.19 -14.64,-21.16 -39.9,-10.57 -65.15,-16.28 -25.25,-5.71 -29.32,-29.33 -48.87,-45.62 -48.05,-41.54 -85.5,-64.34 -107.5,-123.78 -8.96,-24.42 -10.58,-45.61 -32.57,-58.64zm879.57 4404.38c13.03,78.19 55.38,114.02 55.38,192.21 0,41.54 -23.62,84.69 -65.16,84.69 -49.67,0 -64.34,-51.31 -81.44,-97.73 -19.54,-52.12 -33.38,-81.44 -42.35,-136.82 -36.64,41.54 -22.8,85.51 -48.86,133.57 -15.48,28.51 -42.35,39.9 -42.35,72.48l0 128.69c0,48.86 -49.68,71.66 -97.73,78.99 -35.84,5.7 -58.64,19.54 -81.44,48.86 -13.03,17.1 -20.36,35.84 -42.35,35.84 -15.49,0 -19.55,-16.29 -26.07,-30.13 -17.93,-1.65 -27.7,0.81 -45.61,0.81 -30.12,0 -54.57,-5.71 -71.66,-29.32 -20.36,-27.68 -21.19,-55.38 -50.51,-74.93l0 129.5c0,10.58 -4.87,17.1 -8.13,26.87 -24.44,-3.25 -48.06,-9.77 -55.38,-32.58 -9.78,-27.68 -0.81,-47.22 -9.78,-74.92 -4.89,-16.29 -24.44,-17.1 -32.57,-32.58 -11.42,-22 -17.1,-48.87 -42.35,-48.87 -20.35,0 -26.06,26.07 -26.06,46.42l0 184.88c39.9,0 63.51,-0.81 100.98,13.03 24.43,8.97 30.94,30.96 55.39,39.09 50.48,17.1 82.24,15.48 133.56,32.58 -15.48,48.06 -27.7,81.44 -68.41,110.76 -27.7,19.54 -64.35,3.26 -81.44,32.58 -35.03,59.44 -31.77,101.79 -55.38,166.14 -10.58,29.32 -29.32,43.99 -29.32,75.74l0 102.62c0,41.54 -41.55,69.22 -83.09,69.22 -43.15,0 -66.76,-22.8 -109.92,-22.8l-70.06 0c-36.64,0 -55.37,-16.29 -92.02,-19.55l0 -94.47 -16.28 -114.02c4.86,-65.15 26.05,-100.98 26.05,-166.14 -43.16,10.58 -68.41,17.93 -107.5,39.09 -47.25,26.07 -70.05,65.15 -124.6,65.15l-79.82 0c-49.67,0 -62.71,47.25 -95.29,84.71 -21.99,25.25 -35.02,40.73 -65.15,55.37 -16.29,8.16 -39.09,8.16 -39.09,26.07 0,29.32 32.58,39.09 32.58,68.41 0,16.28 -20.36,18.74 -35.84,22.8 -17.93,4.91 -26.87,17.93 -45.61,19.55 -26.06,2.45 -51.31,-2.45 -65.15,19.55 -15.48,24.44 -13.84,45.61 -26.06,71.66 -15.48,34.22 -36.64,48.06 -55.38,81.45 -29.32,51.31 -57.02,86.34 -114.02,100.99 -46.41,12.21 -71.67,27.7 -107.51,58.63 -22.8,19.55 -42.34,35.03 -42.34,65.16 0,38.28 19.54,57.83 19.54,96.11 0,10.58 -4.07,17.91 -6.51,27.68 -22.81,-8.97 -40.74,-5.71 -65.16,-9.77 -22.8,-4.07 -31.76,-26.07 -55.38,-26.07 -51.32,0 -70.05,43.16 -117.27,61.9 -35.84,14.67 -57.83,21.19 -94.48,32.57 -27.7,8.16 -34.21,42.36 -63.53,42.36 -22.81,0 -23.61,-28.52 -37.46,-45.61 -19.54,-23.61 -55.37,-26.87 -55.37,-58.64 0,-40.71 23.61,-67.6 58.63,-87.96 57.83,-43.16 64.35,-89.57 104.25,-149.85 32.57,-49.67 61.9,-70.86 87.96,-123.79 61.09,-122.99 81.44,-199.53 127.05,-329.03 21.99,-63.51 47.22,-96.08 71.66,-159.62 2.46,5.71 4.88,9.77 9.78,13.03 3.26,33.38 -1.64,54.57 13.03,84.69 64.34,-51.31 74.92,-105.86 136.82,-159.62 61.9,-53.74 132.76,-52.12 172.66,-123.79 21.16,-38.29 54.57,-48.87 97.73,-58.64 34.19,-7.32 45.61,-33.39 68.41,-58.64 36.64,-39.9 64.35,-57.83 97.73,-100.99 22.81,-29.31 27.67,-71.67 65.15,-71.67 49.67,0 72.48,35.84 122.15,35.84 47.25,0 79.83,-30.94 96.11,-74.93 13.04,-35.02 18.75,-78.18 56.19,-78.18 17.11,0 27.71,2.45 44.81,1.64 -2.45,-34.22 -34.22,-41.54 -52.13,-70.05 -32.58,-50.49 -42.35,-89.57 -42.35,-149.86 0,-53.73 29.32,-82.25 29.32,-136.01l0 -79.8c0,-22.8 -26.06,-30.97 -26.06,-53.76l0 -96.09c0,-78.19 -110.76,-90.41 -110.76,-168.6 0,-56.18 15.48,-93.66 55.38,-133.56 30.93,-30.96 54.57,-44.8 78.18,-81.45 11.39,-18.73 9.78,-48.86 32.58,-48.86 7.32,0 12.22,2.45 19.55,3.26l0 41.54c0,87.96 -45.61,134.37 -45.61,222.33 0,37.45 43.16,41.55 71.67,65.16 17.9,14.64 16.28,35.02 16.28,58.63 22.81,0 35.84,6.52 58.65,6.52 55.37,0 61.08,-63.54 97.73,-104.25 63.51,-63.54 110.76,-83.08 153.11,-159.62 43.96,-78.19 39.09,-135.21 48.86,-224.79 5.71,-53.76 13.03,-84.69 13.03,-138.46 0,-106.67 -16.29,-165.3 -29.32,-272 -13.84,-112.4 -9.77,-181.62 -58.63,-283.42 -47.25,-99.37 -70.87,-160.44 -78.19,-270.38 -4.9,-78.19 -32.57,-120.54 -78.19,-185.7 -14.67,-21.99 -28.5,-32.57 -42.34,-55.37 -8.16,-13.85 -13.03,-29.32 -29.32,-29.32 -26.87,0 -29.32,35.02 -29.32,61.89 0,29.32 -3.26,45.61 -3.26,74.93 0,18.73 2.45,45.6 -16.29,45.6 -26.06,0 -20.35,-36.64 -26.06,-61.89 -3.25,-16.29 -13.03,-24.45 -13.03,-41.54l0 -73.28c0,-35.04 5.71,-59.48 -9.77,-90.41 -10.59,-21.19 -30.13,-25.26 -52.13,-32.58 -33.38,-11.41 -53.76,-21.19 -89.59,-22.81 -0.81,-16.29 0,-25.25 0,-41.54 0,-35.02 39.92,-42.35 73.3,-52.93 -20.35,-51.31 15.49,-111.56 -32.57,-136.82 -27.7,-14.67 -51.32,-3.26 -81.44,-13.03 17.9,-36.64 45.61,-55.38 84.7,-55.38 63.51,0 73.28,87.96 136.82,87.96 41.54,0 26.87,-62.71 29.32,-104.25 43.16,0 107.5,13.84 107.5,-29.32 0,-30.13 -35.83,-35.02 -48.86,-61.89 -21.19,-43.16 -52.93,-71.68 -100.99,-71.68 -42.35,0 -38.29,56.19 -55.38,94.48 -36.64,-36.65 -39.9,-74.12 -87.96,-97.73 16.29,-30.13 48.06,-26.87 81.44,-35.83 47.22,-13.03 87.96,-28.52 110.76,-71.68 40.72,46.42 43.97,88.77 78.19,140.09 28.51,43.15 65.96,48.05 110.76,74.92 51.32,30.13 61.09,78.99 117.28,97.74 56.18,18.73 99.34,8.96 146.59,45.6 21.17,16.29 40.71,19.55 55.38,42.35 23.61,37.45 30.13,69.22 68.41,91.21 22.81,13.04 41.54,10.58 65.16,22.81 58.63,30.93 75.73,72.48 107.5,130.31 34.19,61.89 78.18,94.47 78.18,165.33l0 193.82c0,58.64 3.26,96.92 35.84,145.78 24.42,37.46 60.25,42.36 81.44,81.45 -31.77,15.48 -73.31,4.87 -84.7,39.09 -8.15,24.42 -3.25,40.71 -3.25,66.77 0,30.15 -9.78,55.38 9.77,76.57 17.09,18.74 40.7,4.87 65.15,13.03 35.03,11.39 50.48,34.19 74.93,61.9 61.89,69.21 94.47,114.02 123.79,201.97 37.47,112.38 56.18,178.37 100.99,286.67 20.35,48.87 42.35,66.78 58.63,117.28 7.33,46.42 31.77,67.6 58.65,104.25 17.09,23.61 24.44,48.86 52.12,58.64 26.06,8.97 43.15,9.77 68.41,19.55 -16.29,35.82 -48.87,48.86 -48.87,87.95 0,46.42 22.81,70.86 22.81,117.28 0,47.22 -41.54,62.7 -55.39,107.5 -12.22,39.09 -11.38,91.21 -52.11,91.21 -52.94,0 -60.26,-65.15 -68.42,-117.27 -8.96,-56.19 -15.48,-110.76 -68.41,-130.31 -25.26,-8.96 -31.76,-35.83 -58.64,-35.83 -39.09,0 -23.61,58.63 -26.06,97.73 -1.61,21.99 0,36.64 -9.77,55.38 -7.33,14.64 -32.58,12.22 -32.58,29.32 0,47.22 40.74,62.7 55.39,107.5 -6.52,3.26 -11.4,9.77 -19.55,9.77 -19.55,0 -29.32,-13.03 -48.87,-13.03 -21.19,0 -16.29,30.94 -16.29,52.13 0,21.99 3.26,34.19 19.55,48.86zm-1254.21 1021.28c0,-18.73 13.03,-27.7 13.03,-46.41 0,-9.39 -3.67,-20.38 -13.03,-20.38 -32.58,0 -63.54,21.99 -63.54,54.57 0,18.74 11.42,28.1 11.42,46.83l0 35.03c0,11.81 9.36,21.58 21.16,21.58 6.52,0 8.16,-6.93 14.67,-8.13 15.07,-2.87 24.03,-1.64 39.1,-1.64l0 -19.13c0,-25.68 -15.88,-37.87 -22.81,-62.32zm-35.83 154.74c-37.48,2.45 -59.45,0.81 -96.93,0.81 -21.16,0 -28.51,-23.61 -49.67,-23.61 -12.22,0 -15.48,13.03 -22.8,22.8 -14.68,19.55 -27.71,29.32 -42.35,48.87 -29.32,38.28 -68.42,34.22 -110.76,58.64 6.51,18.74 13.03,31.77 13.03,52.12 0,58.64 -30.96,92.86 -74.93,130.31 -17.93,15.47 -21.19,42.35 -45.61,42.35 -40.73,0 -65.15,-11.39 -97.72,-35.84 -4.07,7.32 -9.78,12.22 -9.78,21.19 0,26.06 16.29,39.9 16.29,65.96l0 66.77c0,69.25 -69.22,84.7 -97.74,147.43 18.75,0.81 28.52,-1.64 47.23,-1.64 24.45,0 34.22,17.93 53.76,32.58 9.78,7.32 26.88,1.64 29.32,13.03 5.71,27.7 -3.26,44.8 -3.26,73.31 0,25.23 -6.51,53.74 16.29,63.51 24.43,9.78 43.16,-0.81 68.42,6.52 31.77,9.77 38.28,45.6 71.67,45.6 50.47,0 107.5,-21.16 107.5,-71.67 0,-27.68 -16.29,-39.09 -26.06,-65.15 -13.04,-35.03 -13.04,-58.64 -13.04,-96.09 0,-51.32 30.13,-75.76 42.36,-125.44 9.77,-39.08 4.87,-94.47 45.61,-94.47 26.87,0 39.08,22.81 65.95,22.81l111.58 0 0 -93.67c0,-54.54 39.11,-76.54 70.04,-121.34 8.97,-13.83 26.07,-18.74 26.07,-35.83 0,-34.19 -42.35,-37.45 -55.38,-68.41 -12.23,-29.32 -12.23,-65.96 -39.09,-81.45zm-788.36 732.98c-35.84,-20.35 -57.83,-39.09 -99.38,-39.09 -26.05,0 -28.48,33.39 -50.48,45.61 -30.96,17.93 -57.02,9.77 -92.85,9.77 -65.96,0 -103.42,-16.29 -169.4,-16.29 -34.19,0 -65.15,10.58 -76.54,42.35 -4.9,13.84 -2.46,26.07 -9.78,39.1 -27.7,45.6 -70.05,61.89 -123.79,61.89 -2.44,36.64 17.1,62.71 0,94.47 -19.55,35.84 -57.02,34.22 -84.7,65.16l13.03 45.6c-4.07,21.19 -9.77,33.39 -13.03,55.39l55.38 13.03c17.91,-3.26 27.68,-6.52 45.61,-6.52 46.42,0 58.63,56.19 58.63,102.63 0,11.39 -5.06,17.29 -16.45,17.29 -35.83,0 -38.12,-35.22 -71.5,-51.51 16.29,45.61 62.7,48.87 84.7,91.21 12.22,23.62 14.65,39.9 22.8,65.16l13.03 -3.26c0,-22.8 7.33,-36.64 13.03,-58.64 4.07,-16.29 9.78,-35.83 26.87,-35.83l60.29 0c18.71,0 33.38,-17.1 33.38,-35.83 0,-51.32 -48.87,-70.87 -48.87,-122.16 0,-8.96 4.07,-17.93 13.03,-17.93 30.94,0 46.42,19.55 74.93,29.33 35.83,12.21 78.19,21.18 78.19,59.44l0 41.54c11.39,1.64 17.9,3.26 29.32,3.26l0 114.82c0,20.39 -14.67,28.52 -19.55,48.07 -12.23,46.41 -16.29,74.12 -16.29,122.17 0,34.19 43.16,37.45 52.13,70.03 7.32,28.51 5.7,68.41 35.83,68.41 14.64,0 22.8,-3.26 35.83,-9.78 13.03,64.35 16.29,103.44 16.29,169.4 50.48,-7.32 79.8,-5.71 130.31,0l0 -35.02c0,-47.23 -48.87,-64.32 -48.87,-111.57 0,-25.25 27.68,-29.32 39.1,-52.12 10.57,-21.17 16.29,-45.61 39.9,-45.61l20.38 0 0 95.28c0,43.18 46.41,54.57 53.73,96.92 6.52,39.09 -0.8,94.48 39.1,94.48 37.48,0 65.15,-35.03 65.15,-72.48l0 -60.28c0,-44.78 -51.31,-53.74 -58.64,-98.54 27.71,-11.39 44.8,-22.8 74.93,-22.8 7.32,0 10.58,6.51 16.29,9.77l29.32 0c1.64,-13.03 3.25,-20.35 3.25,-33.38 0,-54.58 -15.48,-85.51 -35.83,-136.02 -11.39,-27.68 -29.32,-42.35 -29.32,-72.48l0 -115.66c0,-30.93 8.97,-56.99 -13.03,-78.99 -16.29,-16.29 -35.84,-25.25 -35.84,-48.86 0,-46.42 19.55,-71.68 19.55,-118.09l0 -79.83c0,-33.38 -35.83,-44.77 -68.41,-52.93 -32.58,-8.13 -28.52,-58.63 -61.9,-58.63 -47.22,0 -60.27,55.37 -107.5,55.37 -7.32,0 -6.52,-10.57 -9.78,-16.28 17.11,-17.1 13.85,-35.03 26.07,-55.38 15.48,-26.06 28.51,-37.46 42.35,-65.16zm381.15 1342.17c0,-30.13 1.64,-47.25 1.64,-77.38 0,-53.74 -4.09,-124.6 -57.83,-124.6l-28.52 0c-1.64,8.97 -3.25,13.03 -3.25,22 0,16.29 6.51,23.61 9.77,39.9 9.77,43.96 -10.58,82.25 22.81,110.76 17.9,14.65 39.09,13.03 55.38,29.32zm-1413.83 -1332.4c4.89,-14.67 3.25,-23.61 3.25,-39.09 0,-57.02 -37.47,-81.44 -71.67,-127.04 -21.99,17.09 -29.32,39.9 -29.32,68.41 0,31.76 28.52,43.96 35.84,74.92 7.32,29.32 7.32,52.13 29.32,71.67 14.64,-13.03 28.51,-30.12 32.58,-48.87zm-863.29 837.23c0,28.51 15.48,58.63 43.99,58.63 29.32,0 45.6,-9.76 73.28,-19.54 44.8,-15.48 94.48,-30.12 94.48,-78.19 0,-35.02 -8.14,-66.79 -39.1,-81.43 -14.64,-6.52 -23.61,9.77 -35.83,19.54 -22,17.1 -35.83,29.32 -58.64,45.61 -30.13,21.16 -78.18,17.9 -78.18,55.38zm1970.89 1632.1c0,17.09 17.1,23.61 22.81,39.09 8.15,20.35 15.48,42.35 37.48,42.35 30.12,0 39.09,-29.32 53.73,-55.38 26.87,-48.87 45.61,-80.63 45.61,-136.82 0,-15.49 -13.83,-26.87 -29.32,-26.07 -13.03,0.82 -15.48,16.29 -26.06,22.81 -22.81,14.65 -32.57,33.38 -42.35,58.64 -11.39,29.31 -61.9,23.61 -61.9,55.38zm-35.83 814.42c0,-10.58 -8.96,-19.55 -19.54,-19.55 -15.49,0 -17.93,19.55 -32.58,22.8 -44.8,9.78 -71.67,13.04 -117.28,13.04l0 32.57c17.9,17.93 35.84,20.36 55.38,35.83 30.13,23.62 34.19,54.58 68.41,71.68 23.61,-60.26 45.61,-92.83 45.61,-156.37zm-81.44 219.89c0,-37.47 -37.48,-54.57 -74.93,-60.28 0,35.84 3.26,64.35 29.32,87.99 17.1,15.45 13.84,40.7 35.83,48.86 8.97,-28.51 9.78,-46.44 9.78,-76.57zm-13082.84 9243.67c-8.16,-8.16 -14.67,-13.03 -26.07,-13.03 -54.57,0 -64.34,66.79 -71.66,120.54 -7.33,54.57 -29.32,83.88 -29.32,139.26l0 23.61 25.25 0c54.55,0 34.19,-79.79 65.96,-123.79 34.19,-47.22 45.61,-87.95 35.84,-146.59zm-48.87 332.28c-8.16,-13.03 -19.55,-19.54 -35.84,-19.54 -34.22,0 -39.9,41.54 -45.6,74.92 -3.26,22 -17.1,34.22 -22.81,55.39 -8.15,30.12 0,49.67 -3.25,81.44 8.96,0.8 13.83,3.25 22.8,3.25 31.77,0 35.84,-38.28 58.64,-58.64 39.9,-36.64 43.15,-84.7 26.06,-136.82zm-32.58 282.61c0,-8.97 -2.45,-13.04 -3.26,-22l-25.25 0c-39.9,0 -17.91,60.28 -30.13,97.73 -8.15,25.25 -35.83,31.77 -35.83,58.64 0,38.28 28.51,54.57 55.38,81.44 30.13,-34.19 16.29,-70.03 26.07,-114.02 8.96,-39.09 13.02,-61.89 13.02,-101.79zm-159.62 632.8c-1.64,14.67 -3.26,21.99 -3.26,36.64 0,27.71 13.03,41.54 22.81,67.61 9.77,26.06 20.35,53.76 48.86,55.37 13.03,-42.34 16.29,-69.21 16.29,-114.02 0,-20.35 14.67,-43.15 -3.26,-52.11 -27.68,-14.68 -49.68,6.51 -81.44,6.51zm10874.13 -7945.48c22,15.48 38.28,28.51 45.61,55.38 6.52,24.44 -7.33,43.16 3.26,65.15 17.1,35.03 50.5,39.09 84.7,58.64 75.73,43.99 93.66,111.57 107.5,199.53l120.54 0c0,-25.23 -19.55,-35 -26.07,-59.45 -14.64,-53.73 -13.03,-86.31 -13.03,-141.7 0,-30.96 -8.96,-51.31 3.26,-79.82 5.71,-14.65 23.61,-14.65 29.32,-29.32 13.03,-35.02 26.06,-57 26.06,-95.28l0 -367.31 27.71 -299.71 0 -233.74c0,-43.97 -40.74,-61.9 -40.74,-105.86l0 -79.83c0,-36.65 -52.93,-30.94 -71.66,-62.7l-94.48 -4.07c-23.61,42.35 -9.78,85.51 -48.86,114.83 -35.84,26.87 -83.06,11.38 -107.51,48.86 -21.16,32.58 -3.26,62.7 -9.77,100.99 -9.77,54.57 -23.61,84.7 -35.84,140.08 -3.26,15.48 -16.29,22 -16.29,38.28l0 128.67c0,29.32 -17.93,43.16 -26.06,70.86 -30.96,99.35 -68.41,153.11 -68.41,256.55l0 99.34c0,83.09 30.93,157.18 110.76,181.63zm-3625.8 2400.91c-5.71,37.47 -9.77,84.7 -47.25,84.7 -10.57,0 -17.09,-6.52 -27.67,-6.52 -63.54,0 -70.86,91.22 -134.38,91.22l-63.53 0c-22.81,0 -30.94,26.06 -53.74,26.06l-67.61 0c0,31.77 -11.41,48.86 -26.05,78.19l-78.19 0c-2.45,30.12 3.26,50.5 -6.52,78.18 -22.8,61.08 -73.3,74.12 -110.76,127.05 -16.29,22.8 -45.6,27.7 -45.6,55.37 0,41.55 9.77,64.36 9.77,105.9 0,60.25 -22.8,92.83 -22.8,153.11 0,30.93 47.22,22.8 65.15,47.22 20.35,27.7 43.97,37.48 78.18,45.61 28.51,6.51 30.13,37.47 52.13,55.38 35.02,29.32 70.86,17.93 117.27,22.8 42.35,4.07 58.64,42.35 100.99,42.35 53.74,0 42.35,-74.12 61.9,-123.79 13.03,-32.58 50.48,-23.62 84.7,-29.32 27.67,-4.87 50.48,-7.33 68.4,-29.32 16.29,-20.35 -4.89,-43.16 3.26,-68.41 7.33,-22.8 22,-42.35 46.42,-42.35l77.37 0c26.07,-23.61 58.65,-33.38 58.65,-68.41 0,-26.06 -31.78,-28.51 -42.36,-52.12 -19.54,-43.16 -26.06,-72.48 -26.06,-120.54 0,-19.55 27.7,-17.09 39.1,-32.58 29.32,-40.7 0.8,-80.63 9.77,-130.31 3.26,-19.54 25.25,-21.99 42.35,-32.57 28.51,-17.1 40.73,-33.38 61.89,-58.64 14.68,-17.09 42.36,-19.55 42.36,-42.34 0,-23.62 -23.61,-30.94 -32.58,-52.13 -14.65,-33.38 -17.91,-65.96 -52.13,-78.18 -35.02,-12.23 -60.25,2.44 -94.47,-13.03 -33.38,-14.65 -51.31,-30.13 -87.96,-32.58zm4945.16 -625.48c-14.67,-8.16 -25.25,-16.28 -42.35,-16.28 -28.51,0 -20.35,40.73 -26.06,68.41 -4.9,23.61 -21.99,31.76 -39.09,48.86 -29.32,29.32 -52.93,52.12 -94.47,52.12 -144.15,0 -210.94,-107.5 -355.09,-107.5 -39.09,0 -57.02,27.7 -84.7,55.38 -24.45,24.45 -55.38,36.65 -55.38,71.67 0,33.39 17.9,50.51 17.9,83.89l0 171.02c0,26.06 7.35,42.35 1.65,67.6 -4.91,21.19 -19.55,31.77 -19.55,53.77 0,38.26 35.03,53.73 35.03,92.02l0 206.04c-40.74,34.22 -54.58,70.05 -54.58,122.17 0,104.26 130.31,128.67 130.31,232.92 0,35.83 -39.9,47.25 -74.93,55.38 -20.35,4.9 -27.7,22.8 -48.86,22.8 -48.06,0 -46.42,-64.35 -91.21,-81.44 -15.49,-5.7 -26.07,-5.7 -42.36,-9.78 0,52.94 17.1,81.45 26.07,133.57 3.26,21.19 -1.64,34.22 3.26,55.38 5.7,22.8 33.38,18.74 55.37,26.06 22.81,7.33 31.78,24.45 42.35,45.61 22,41.54 22.81,70.86 22.81,117.28 69.22,34.22 63.51,92.86 100.99,159.63 39.09,70.04 96.92,82.24 149.85,143.33 53.74,61.9 71.67,107.51 104.25,182.43 12.22,28.51 26.05,42.36 35.83,71.67 10.58,33.38 16.29,74.93 52.12,74.93 45.61,0 61.89,-45.61 107.51,-45.61 43.96,0 58.64,48.87 102.6,48.87 44.8,0 54.57,-44.81 83.08,-78.19 27.7,-32.57 52.13,-44.8 87.96,-68.41 29.32,-19.55 44.8,-42.35 79.82,-42.35 28.49,0 41.52,22 70.03,22.8 63.54,3.26 109.15,-10.58 162.89,22.81 74.92,46.41 94.47,111.56 182.42,133.56 1.65,-5.71 6.52,-9.77 6.52,-16.29 0,-27.68 -35.02,-26.86 -52.12,-48.86 -24.42,-31.77 -42.35,-48.86 -58.64,-84.7 -24.42,-53.74 -26.06,-87.15 -39.09,-146.6 4.9,0 7.32,-3.26 12.22,-3.26 39.1,0 57,20.36 95.29,29.32 58.63,14.68 96.11,8.97 149.85,35.84 30.96,15.48 35.83,46.42 68.41,58.64 52.12,19.54 90.41,1.64 140.08,26.06 33.38,16.29 34.22,51.31 65.15,71.67 30.96,20.36 57.02,19.54 94.47,19.54 17.93,0 22,-21.99 26.06,-39.08 46.42,22.79 39.1,91.21 88.77,91.21 9.78,0 15.48,-2.45 25.25,-3.26l0 -41.54c0,-12.2 -8.12,-18.71 -8.12,-30.94l0 -152.3c-34.22,12.22 -39.1,41.54 -70.06,58.64 -22.8,13.03 -41.54,9.77 -68.41,9.77 -38.29,0 -46.42,-48.06 -48.86,-86.32 15.47,-1.64 23.61,-1.64 39.09,-1.64 0.81,-8.96 3.25,-13.83 3.25,-22.8 0,-26.06 -39.9,-16.29 -58.63,-32.58 -27.69,-24.42 -52.13,-43.96 -52.13,-81.44 0,-11.39 12.23,-15.48 19.55,-22.8 42.35,-42.35 107.5,-48.06 107.5,-107.51 0,-16.29 -9.77,-32.58 -26.06,-32.58 -17.9,0 -27.68,6.52 -45.61,6.52 -40.7,0 -61.9,-22.8 -102.6,-22.8 -43.99,0 -73.31,42.35 -73.31,86.34 0,42.35 13.03,66.77 13.03,109.12 0,23.61 -13.84,48.86 -37.45,48.86 -71.67,0 -25.25,-156.36 -96.92,-156.36l-63.54 0c-24.42,0 -35.83,-16.29 -59.44,-22.81 -30.14,-8.97 -48.87,-6.51 -79.81,-6.51 -54.57,0 -87.14,35.02 -115.66,81.44 -16.29,26.06 -33.38,36.64 -42.34,65.15 -13.85,41.54 -6.52,70.86 -22.81,110.76 -59.45,0 -108.32,8.97 -149.86,-32.57 -36.64,-36.65 -37.44,-73.29 -58.63,-120.54 -35.84,-78.99 -78.99,-112.38 -120.53,-188.94 -19.55,-35.84 -52.13,-51.32 -52.13,-92.03l0 -83.08c0,-32.58 16.29,-49.67 16.29,-82.25 0,-26.06 -24.45,-34.19 -32.58,-58.64 -8.16,-24.42 -9.77,-40.71 -9.77,-66.77 0,-57.02 12.22,-88.79 19.54,-144.98 4.07,-31.77 7.32,-68.41 39.1,-74.92 48.05,-9.78 77.37,-35.03 100.99,-78.19 21.99,-40.71 -9.78,-80.63 19.54,-117.27 30.96,-39.1 36.64,-70.04 58.64,-114.02 16.29,-32.58 42.35,-48.06 42.35,-84.71 0,-38.28 -39.9,-47.22 -71.67,-68.4 -58.64,-39.1 -99.34,-61.9 -133.56,-123.8 -39.9,-71.66 -35.84,-127.05 -35.84,-209.3l0 -64.34c23.61,-8.13 22.81,-35.03 22.81,-60.26 0,-25.25 7.32,-60.28 -13.04,-73.31zm1198.83 1505.05l-4.9 13.03 0 98.54c0,35.84 -11.39,57.02 -11.39,92.85l0 72.48c8.96,0.82 13.03,3.26 22,3.26 60.25,0 114.83,-43.96 114.83,-104.24 0,-33.39 -14.65,-51.32 -32.58,-78.19 -28.52,-41.54 -36.64,-89.57 -87.96,-97.73zm-853.51 651.54c-16.29,-0.81 -25.26,-3.26 -41.54,-3.26 -32.58,0 -65.96,19.55 -65.96,52.13 0,19.54 24.41,19.54 42.34,26.05 22.81,8.16 30.94,28.52 55.38,32.58 14.68,-37.45 13.04,-67.6 9.78,-107.5zm-504.94 166.14c-26.07,16.28 -32.58,41.54 -61.9,52.12 -35.03,13.03 -67.6,17.93 -81.44,52.13l3.25 13.03c9.78,1.64 16.29,3.26 26.07,3.26 16.29,0 25.25,-3.26 41.54,-3.26 48.03,0 68.41,38.28 101.8,71.66 39.9,39.9 40.7,80.64 65.15,130.31 18.74,38.28 40.71,53.77 71.67,84.7 34.22,34.22 43.16,84.7 91.21,84.7 25.25,0 26.07,-32.57 35.84,-55.38 22.8,-51.31 29.31,-85.51 29.31,-141.7 0,-61.89 -32.57,-92.85 -32.57,-154.75 0,-26.06 16.29,-39.09 16.29,-65.15 0,-24.42 -27.68,-26.87 -45.61,-42.35 -23.61,-20.36 -37.45,-42.35 -69.22,-42.35 -57.8,-3.66 -141.9,-18.79 -191.39,13.03zm1286.78 107.51c-27.7,0 -26.06,-40.74 -52.12,-48.87 -55.38,-17.1 -91.22,-4.07 -149.85,-13.03 -0.81,4.87 -6.52,7.32 -6.52,13.03 0,59.44 52.13,83.08 52.13,142.52l0 105.06 13.02 26.06c41.55,-16.28 40.71,-58.64 52.13,-100.98 5.71,-22 8.13,-48.87 30.93,-48.87 18.74,0 26.9,14.67 37.47,29.32 15.49,21.99 41.55,19.55 69.22,19.55l79.83 0c17.9,0 26.07,16.28 43.97,16.28l25.25 0c-6.51,-39.09 -19.54,-61.89 -52.12,-84.7 -22.81,-15.47 -43.16,-6.51 -68.41,-16.29 -25.26,-9.77 -37.45,-26.05 -65.16,-26.05 -6.51,0 -3.26,-13.03 -9.77,-13.03zm-518.78 436.52l-73.31 0c-37.46,0 -57.81,-9.77 -95.29,-9.77 -39.08,0 -70.02,-1.64 -97.73,26.06 22,12.22 34.22,21.19 52.13,39.09l67.6 0c55.38,0 70.86,67.61 70.86,122.99l0 186.49 -14.67 97.73 0 153.12 13.03 9.77c17.93,-43.97 42.35,-62.71 78.18,-94.48 28.51,-25.25 38.29,-48.86 68.41,-71.67 35.84,-27.67 76.57,-12.22 107.51,-45.61 42.35,-46.41 41.54,-92.83 58.64,-153.1 15.47,-53.75 97.73,-51.32 97.73,-107.5 0,-47.23 4.89,-114.02 -42.36,-114.02 -24.41,0 -30.93,32.57 -55.37,32.57 -35,0 -46.42,-39.09 -81.44,-39.09 -22.81,0 -26.06,32.57 -48.87,32.57 -31.74,0 -56.19,-10.58 -74.92,-35.83 -9.78,-13.03 -13.85,-29.32 -30.13,-29.32zm1119.83 -186.5c0,-14.67 0.8,-23.61 0,-38.28 -13.04,-0.82 -21.2,-3.26 -34.22,-3.26 -20.36,0 -20.36,27.7 -32.58,42.34 -19.55,22.81 -41.52,29.32 -71.68,29.32 -48.86,0 -76.54,-13.03 -125.4,-13.03 -22,0 -53.76,-5.68 -53.76,16.29 0,35.84 37.47,43.99 55.38,74.93 15.48,26.06 12.22,65.15 42.34,65.15 29.33,0 44,-16.29 73.32,-16.29 38.28,0 51.31,38.29 63.51,74.93 17.12,51.32 61.89,70.05 61.89,123.79 0,39.09 -19.54,58.64 -19.54,97.74 0,26.89 39.09,22.79 52.15,45.6 14.64,25.26 19.55,42.35 32.57,68.42 46.42,-17.91 33.39,-74.1 71.67,-107.51 30.94,-26.87 81.44,-26.87 81.44,-68.41 0,-40.71 -36.66,-54.55 -58.63,-87.96 -27.7,-42.35 -48.87,-65.16 -84.71,-100.99 -27.7,-27.68 -13.85,-59.44 -19.54,-97.72 -6.51,-42.36 -34.21,-61.9 -34.21,-105.06zm-223.97 -106.69l-67.6 0c-1.62,5.71 -6.52,9.77 -6.52,16.29 0,26.87 28.51,35.03 32.58,61.9l28.51 0c14.67,0 16.29,-20.36 30.12,-22.81 17.93,-3.26 45.61,-0.8 45.61,-19.55 0,-27.67 -35,-35.83 -62.7,-35.83zm-1038.39 -31.76c0,-29.32 -17.09,-52.93 -45.61,-59.45 -4.9,21.97 -13.03,35.84 -13.03,58.64 0,76.55 6.52,120.53 42.35,192.2 8.14,-8.15 16.29,-14.67 16.29,-26.86l0 -164.53zm228.04 -7.33c0,-3.26 3.26,-5.71 3.26,-8.97 0,-25.25 -7.32,-56.19 -32.58,-56.19 -13.84,0 -17.1,14.65 -29.32,19.55 -20.35,8.13 -33.39,6.52 -55.38,6.52 -1.64,8.13 -4.06,12.22 -6.51,19.54 33.38,16.29 51.31,35.84 88.76,35.84 9.77,0 15.48,-2.45 25.25,-3.26 0.81,-4.87 6.52,-7.33 6.52,-13.03zm-1153.22 1017.21c0,-60.29 -22,-131.12 -82.25,-131.12l-33.41 0 0 43.16c0,24.42 12.22,37.45 17.93,61.09 9.77,39.9 11.39,70.02 39.09,100.99 -26.06,32.57 -68.41,39.9 -68.41,81.44 0,36.64 29.32,52.93 29.32,89.57 0,87.15 -23.61,145.79 -84.7,206.88 -39.09,39.09 -65.96,59.44 -91.22,110.76 -65.15,130.31 -123.79,182.43 -188.94,312.73 -18.74,38.29 -45.61,49.68 -68.41,84.71 -39.09,58.63 -65.15,87.95 -104.25,146.59 -32.58,49.67 -61.89,71.67 -104.24,114.02 -78.19,78.19 -91.22,156.37 -91.22,266.32l0 26.87c7.32,0.81 11.39,3.26 18.74,3.26 31.74,0 42.35,-28.52 62.7,-52.13 17.91,-20.35 30.13,-32.57 45.61,-55.37 45.61,-66.8 80.64,-100.18 114.02,-172.66 17.9,-39.09 23.61,-65.15 52.12,-97.73 13.03,-15.48 30.13,-16.29 45.61,-29.32 52.12,-45.61 77.38,-78.99 107.5,-140.08 17.91,-36.65 29.33,-61.09 39.1,-100.99 6.51,-27.71 0,-47.25 13.03,-71.67 21.99,-39.09 56.18,-43.16 87.96,-74.92 65.96,-65.97 100.18,-107.51 149.85,-185.69 17.9,-29.33 42.35,-44 42.35,-78.99l0 -70.86c88.76,-80.64 127.05,-161.27 127.05,-280.97l0 -25.26c-29.32,-4.9 -45.61,-9.77 -74.93,-9.77 -2.45,-27.71 0,-43.16 0,-70.86zm1410.58 -317.63l0 197.11c0,62.7 1.64,102.6 -26.06,158.79 -26.07,52.95 -97.73,57.83 -97.73,117.28 0,23.63 20.35,31.76 32.57,52.12 30.94,52.12 57,89.6 117.27,100.98 70.06,13.87 92.86,74.93 162.89,74.93 37.48,0 61.9,-37.45 61.9,-74.93 0,-37.44 -40.71,-43.96 -61.9,-74.92 -30.13,-43.96 -39.09,-77.35 -39.09,-130.31 0,-91.21 9.77,-142.5 35.83,-231.29 11.42,-39.1 2.46,-63.51 9.78,-104.25 4.89,-29.32 19.54,-42.35 32.58,-68.41 30.96,-61.9 33.38,-103.44 39.08,-172.66 -54.57,-17.9 -89.57,-5.71 -146.59,3.26 -20.36,3.26 -34.19,-2.45 -52.12,6.52 -30.94,15.47 -35.84,44.79 -45.61,78.18 -7.33,26.87 -22.8,39.9 -22.8,67.6zm-114.02 186.51l0 -67.61c0,-13.83 -5.71,-22.8 -13.03,-33.38 -43.16,43.16 -97.73,60.25 -97.73,120.53 0,43.16 30.93,65.97 68.41,87.96 24.42,-42.35 30.94,-60.25 42.35,-107.5zm498.42 -430.02c-19.54,0 -28.51,19.55 -32.57,39.1l6.51 35.83 0 69.22c0,61.09 -30.96,92.05 -52.12,149.04 -35.03,93.67 -48.86,152.31 -48.86,252.48 0,73.3 1.61,119.71 29.31,187.31 0,-93.66 32.58,-144.15 42.35,-237.81 3.26,-33.38 0,-53.74 9.78,-84.7 13.83,-41.54 42.34,-57 58.63,-97.73 38.29,-93.67 52.13,-153.11 52.13,-254.1 0,-20.35 3.25,-39.9 -13.03,-52.12 -16.29,-12.23 -31.77,-6.52 -52.13,-6.52zm195.46 374.64c-57.82,39.09 -97.72,81.44 -97.72,151.49 0,36.65 2.44,86.32 39.08,86.32 44.8,0 60.26,-39.09 100.99,-55.38 58.64,-24.42 117.28,-50.48 117.28,-114.02 0,-39.1 -27.68,-55.38 -48.86,-87.96 -8.14,-12.22 -13.84,-26.06 -29.33,-26.06 -26.83,0 -48.06,23.34 -81.44,45.61zm-162.88 -1159.73c0,25.25 23.61,33.38 35.83,55.37 35.03,63.54 56.19,114.83 123.8,140.08 51.31,18.74 74.92,40.74 123.79,65.15 30.13,14.68 68.41,21.19 68.41,55.39 0,26.87 -30.13,30.12 -42.36,55.38 48.87,36.64 92.03,28.51 153.12,35.83 35.83,4.07 52.12,29.32 87.95,29.32 48.87,0 71.68,-32.58 120.54,-32.58l9.77 -13.03c-110.76,-55.37 -169.39,-133.56 -169.39,-251.65l0 -99.36c0,-22.81 -9.78,-35.01 -16.29,-56.19 -6.52,-22.81 -0.81,-48.06 -22.81,-58.65 -24.41,-12.21 -45.6,-8.15 -68.41,-22.8 -28.51,-17.93 -27.68,-57.83 -61.9,-61.89 -17.09,-1.64 -26.86,10.58 -42.34,16.29 -60.26,22.8 -97.74,31.76 -156.37,58.63 -26.87,12.23 -40.71,29.32 -68.42,39.1 -31.76,11.39 -74.92,11.39 -74.92,45.61zm765.56 1081.54l-77.38 0c-23.62,0 -39.9,22 -39.9,45.61 0,53.77 45.6,70.86 65.15,120.53 11.39,29.33 0,49.68 3.26,81.44 4.06,36.65 16.29,57.03 16.29,93.67l0 29.32c-14.67,0 -23.61,0.81 -38.28,0.81 -26.07,0 -39.9,-9.78 -65.97,-9.78 -20.35,0 -45.61,5.71 -45.61,26.07 0,21.18 16.29,30.96 16.29,52.12 0,22.8 -16.29,45.61 -39.09,45.61 -48.86,0 -71.67,-39.09 -120.54,-39.09 -18.73,0 -35.83,13.83 -35.83,32.57 0,77.38 35.83,118.09 35.83,195.47 0,45.6 0,107.5 -45.6,107.5 -29.32,0 -39.9,-29.32 -69.22,-29.32l-38.28 0 0 108.31c0,48.06 -49.68,57.83 -84.71,90.4 -55.37,52.13 -71.66,94.47 -127.05,149.86l-3.25 -16.29 6.51 -22.81 0 -90.4c0,-26.06 -16.28,-37.45 -29.31,-59.44 -18.75,-31.78 -38.29,-58.65 -74.94,-58.65 -68.4,0 -109.14,17.1 -169.39,48.87 -14.67,7.32 -12.23,24.45 -19.55,39.09 -10.58,21.19 -30.12,26.87 -39.09,48.87 -14.67,35.83 -3.26,61.89 -3.26,100.99 0,68.4 -71.67,100.18 -140.07,107.5 -44,4.9 -57.03,41.54 -84.71,74.93 -36.64,43.98 -84.7,61.89 -84.7,118.92 0,19.54 17.91,26.86 17.91,46.41l0 102.61c0,102.62 -70.03,150.68 -70.03,253.28 0,28.51 -4.07,68.41 24.42,68.41 37.48,0 44.8,-43.16 57.02,-78.18 20.36,-56.99 32.58,-88.76 48.86,-146.6 13.85,-49.67 47.23,-68.41 71.68,-114.02 22.8,-43.15 16.29,-77.37 16.29,-127.05 5.7,-0.8 7.32,-6.51 13.02,-6.51 35.03,0 54.58,16.29 89.58,16.29 23.64,0 45.61,4.9 60.28,-13.03 14.65,-18.74 3.25,-37.45 3.25,-61.9l38.29 0c59.44,0 23.61,127.05 83.05,127.05l83.9 0c0.81,-7.32 3.25,-11.39 3.25,-18.74 0,-31.73 -39.08,-40.7 -39.08,-72.47 0,-26.06 19.54,-39.09 19.54,-65.16 0,-20.35 -17.1,-26.87 -26.06,-45.6l13.03 -6.52 58.64 9.78 136.02 0c27.67,0 40.7,16.28 65.95,26.05 49.68,20.36 85.51,15.49 136.83,35.84 -12.22,35.02 -37.48,44.8 -61.9,71.67 -29.32,32.58 -35.83,61.9 -48.86,104.25 -10.58,34.22 -29.33,52.12 -29.33,87.95 0,39.09 58.65,41.54 58.65,80.64l0 135.18c0,40.73 52.11,35.83 87.95,54.57 68.42,35.83 114.02,45.61 190.56,45.61 109.96,0 193.85,-24.42 259,-114.02 30.96,30.96 26.06,66.8 26.06,110.76 0,28.51 23.61,52.13 52.13,52.13 19.55,0 25.25,-21.17 32.57,-39.1 14.68,-33.38 22.81,-54.57 35.84,-87.96 21.19,-52.93 52.12,-79.79 52.12,-136.82 0,-43.16 -7.32,-73.28 -32.57,-107.5 -29.33,-39.1 -78.19,-51.32 -78.19,-100.99 0,-30.12 18.74,-43.97 29.32,-71.67 14.67,-38.28 12.22,-64.35 22.8,-104.25 8.97,-33.38 25.26,-49.67 39.1,-81.44 10.58,-24.42 15.47,-55.38 42.34,-55.38 20.36,0 18.74,25.26 29.32,42.35 29.32,48.06 38.29,81.44 71.68,127.05 44.79,61.89 73.3,96.11 97.73,169.4l13.03 -143.34 0 -81.44c-30.13,-19.54 -71.68,-26.06 -71.68,-62.7l0 -31.77c22.81,0 34.22,-15.48 55.39,-22.81 39.08,-13.02 64.34,-21.16 97.73,-45.6 17.09,-12.23 13.83,-30.94 19.54,-52.13 7.32,-28.51 16.29,-43.96 16.29,-73.28 0,-36.67 -19.54,-54.57 -29.32,-89.6 -7.32,-25.26 3.26,-42.35 -3.26,-68.41 -16.28,-66.77 -59.44,-90.41 -97.72,-146.6 -13.04,-19.54 -11.4,-38.28 -16.29,-61.89 -8.97,-39.9 -22,-60.26 -26.07,-100.99 -1.62,-22.81 0,-40.71 -13.03,-58.64 -17.09,-24.42 -58.63,-21.99 -58.63,-52.93l0 -83.08c0,-41.52 -9.78,-67.58 -32.58,-101.8 -17.1,-26.06 -45.61,-21.16 -71.67,-39.09 -29.32,-20.35 -30.94,-51.31 -61.9,-68.42 -37.45,-21.15 -70.86,-10.57 -107.5,-32.57 -32.58,-19.54 -49.67,-51.32 -61.89,-87.96zm-1355.2 1889.46c-8.16,0 -12.22,4.07 -19.55,6.51 -1.64,20.35 3.26,36.64 -9.77,52.13 -13.03,16.29 -42.35,13.83 -42.35,35.83 0,16.29 8.13,23.61 13.03,39.09 4.07,12.23 -1.64,27.7 9.78,32.58 17.9,8.16 31.76,6.52 52.12,6.52 26.86,0 37.45,-26.87 45.61,-52.13 12.93,-36.7 35.74,-120.53 -48.87,-120.53zm-325.77 475.62c-35.84,0 -55.38,9.77 -91.21,9.77 0,49.67 -40.74,67.6 -48.87,117.28 7.32,2.45 11.39,6.51 19.55,6.51 31.76,0 45.61,-23.61 74.92,-35.83 58.64,-24.42 127.86,-18.74 143.34,-81.44 -36.64,-12.22 -59.45,-16.29 -97.73,-16.29zm-514.72 654.8c7.33,2.44 11.42,6.51 19.55,6.51 12.23,0 13.84,-15.48 22.81,-22.8 29.32,-25.26 39.9,-49.68 71.66,-71.68 31.78,-21.99 61.09,-30.12 78.19,-65.15l0 -22.8c-48.06,-4.07 -74.12,25.25 -107.5,58.64 -39.9,39.9 -71.67,62.7 -84.71,117.28zm3658.38 -205.24c0,69.22 26.06,105.89 26.06,175.1l0 118.09 6.52 13.03 16.29 0c32.57,-29.32 43.99,-55.38 78.18,-81.45 21.99,-16.28 58.64,-17.89 58.64,-46.41l0 -66.79c0,-67.58 -67.6,-85.51 -94.48,-147.4 -7.32,-17.93 -21.99,-22 -35.82,-35.84 -9.78,-9.77 -16.29,-29.32 -29.33,-22.81 -34.21,17.91 -26.06,56.19 -26.06,94.48zm-2987.98 -20873.51c7.42,4.32 14.73,9.14 23.49,14.59 67.6,41.54 88.79,94.47 162.88,123.79 66.8,26.06 109.96,30.93 172.66,68.41 35.84,21.16 52.95,52.12 94.47,52.12 45.61,0 72.5,-26.86 97.73,-65.15 55.38,27.68 61.09,78.19 97.73,127.05 35.03,47.23 68.42,77.37 68.42,136.82 0,8.13 -6.52,13.03 -9.78,19.55 -54.55,-48.87 -85.51,-79 -140.08,-127.05 -18.71,-16.29 -23.61,-42.35 -48.87,-42.35 -26.05,0 -28.48,33.39 -52.12,42.35 -45.61,17.09 -74.92,22.8 -123.79,22.8l0 54.57c0,43.16 22.81,65.15 39.1,105.06 14.67,37.45 11.41,64.35 29.31,100.99 10.61,21.99 32.58,30.93 32.58,55.38 0,5.71 -5.68,8.13 -6.52,13.03 -78.18,-19.55 -105.86,-70.06 -175.91,-110.76 -34.2,-19.55 -66.77,-22.81 -84.7,-58.64 -24.42,-49.67 -16.29,-86.34 -42.35,-133.56 -18.71,-35.04 -52.13,-47.25 -55.38,-87.97 -44.77,-75.73 -109.12,-80.63 -162.88,-149.84 -35.03,-44.81 -20.36,-88.77 -45.61,-140.09 -1.83,-3.76 -14.5,-21.61 -12.12,-21.11l141.74 0.01zm2227.59 -0.02l-146.62 0.01c-6.28,11.75 -11.65,24.62 -11.65,40.65 0,21.19 8.13,32.57 16.29,52.12l-13.03 52.13 0 69.22c0,21.99 16.29,30.96 22.8,51.31 8.13,26.87 7.33,65.15 35.84,65.15 22,0 16.29,-30.12 19.54,-52.12 4.88,-33.38 3.26,-51.32 6.52,-84.7 4.88,-48.06 13.03,-75.73 35.84,-117.28 14.9,-27.12 26.32,-52.09 34.47,-76.49zm849.88 21622.09c24.52,-36.76 11.49,-68.52 34.3,-103.55 30.14,-47.23 65.15,-71.67 65.15,-127.85l0 -83.9 -13.04 -3.25c-69.22,62.72 -133.56,85.53 -169.39,172.65 -13.84,35.02 -26.06,55.38 -39.1,91.21 -6.87,19.29 -12.45,38.57 -20.35,54.6l142.43 0.09zm-428.8 -0.09l241.88 0c0.47,-29.37 -3.54,-54.83 -3.54,-90.43 0,-109.92 -71.67,-163.69 -71.67,-273.64 0,-28.49 20.36,-43.16 16.28,-71.67 0,-34.2 0,-64.32 -26.06,-84.7l-22.8 0 0 137.65c0,31.75 -29.32,41.52 -42.35,70.84 -37.48,85.54 -91.21,127.05 -91.21,219.91 0,35.46 -6.1,63.54 -0.53,92.04zm-11966.19 0.02c-37.02,-40.71 -80.2,-72.52 -80.2,-135.22 0,-26.9 0.4,-42.35 0.4,-69.24 -0.91,-4.54 -1.78,-6.29 -2.24,-10.82 -0.34,-3.26 0.46,-5.11 0,-8.34 -0.58,-3.96 -2.19,-5.71 -3.7,-9.33 -2.46,-5.79 -3.73,-9.38 -6.05,-15.3 -1.48,-3.96 -3.03,-6.38 -4.64,-10.22 -1.75,-4.19 -2.45,-6.98 -4.17,-11.15 -2.92,-7.09 -4.77,-11.26 -6.72,-18.71 -1.18,-4.75 -3.62,-7.07 -5.6,-11.6 -1.96,-4.43 -2.66,-7.19 -4.64,-11.59 -1.04,-2.46 -1.98,-4.07 -2.79,-6.52 -1.51,-4.17 -3.37,-6.49 -5.11,-10.69 -2.09,-4.87 -1.98,-8.26 -2.79,-13.47 -0.36,-2.32 -1.18,-3.59 -1.38,-6.03 -1.3,-10.34 -1.98,-16.12 -4.2,-26.24 -1.4,-6.15 -2.89,-9.51 -5.58,-15.35 -2.08,-4.74 -4.97,-6.25 -7.42,-11.15 -41.67,-4.64 -66.12,-15.25 -109.28,-15.25 -25.25,0 -39.9,0.84 -65.15,3.26 -15.48,1.65 -17.1,22.8 -32.58,22.8 -14.67,0 -21.18,-11.38 -32.58,-19.54l0 -65.96c0,-141.7 -39.09,-220.72 -39.09,-362.42 0,-67.6 -11.41,-109.14 6.52,-174.29 13.84,-52.12 49.67,-70.03 68.41,-120.53 21.99,-59.45 -2.45,-102.61 16.29,-162.89 12.22,-40.7 35.83,-61.06 35.83,-104.24 0,-43.16 -7.32,-74.94 16.29,-110.77 7.32,-11.39 25.26,-6.51 29.32,-19.54 22.81,-65.15 68.41,-95.29 68.41,-164.5 0,-55.38 5.71,-91.22 -16.29,-141.72 -9.77,-23.62 -22.8,-38.26 -22.8,-64.32l0 -70.06c0,-68.41 48.86,-100.17 48.86,-168.59 0,-20.35 -1.64,-35.84 -13.03,-52.12 -17.93,-24.42 -52.12,-28.49 -52.12,-58.64 0,-32.58 11.39,-51.29 11.39,-83.86l0 -121.37 26.89 0c35.84,0 50.48,27.7 85.51,35.83 42.35,9.77 67.61,16.29 110.77,16.29 47.22,0 74.11,-13.03 121.33,-13.03 4.9,0 7.33,3.25 12.23,3.25l0 38.29c0,89.6 -32.58,139.27 -32.58,228.84 0,34.22 13.84,53.77 26.07,84.7 5.7,14.68 11.38,32.58 27.67,32.58 69.25,0 108.34,-10.58 177.56,-16.29l61.08 0c17.91,0 31.75,1.65 46.42,-6.51 25.25,-14.65 25.25,-55.38 55.38,-55.38 90.41,0 113.21,110.76 203.6,110.76 13.02,0 21.18,-6.52 34.22,-6.52 26.86,0 13.02,40.74 13.02,67.61l71.67 0.8c119.72,17.94 174.27,100.18 224.78,208.5 9.78,21.19 14.65,39.92 35.84,48.86 20.35,8.97 43.96,4.09 55.38,22.81 16.28,25.25 0.81,49.69 9.77,78.18 14.65,43.99 35.84,67.6 35.84,114.02 0,9.77 -6.52,16.29 -6.52,26.06 0,5.71 5.7,8.97 6.52,14.67 26.06,-1.64 39.9,1.62 65.96,1.62 34.22,0 71.66,-3.26 80.63,-35.84 12.22,-45.6 1.61,-110.76 48.86,-110.76 35.84,0 29.33,49.7 35.84,84.71 2.45,16.28 9.77,25.25 9.77,42.34 0,26.9 -0.81,44.8 -13.03,68.42 -13.03,24.44 -55.38,17.93 -55.38,45.6 0,17.93 24.42,17.12 32.58,32.58 13.03,22.8 21.99,48.87 48.87,48.87 43.15,0 54.57,-52.13 97.73,-52.13 38.28,0 53.73,35.84 92.01,35.84 21.19,0 32.58,-3.26 53.77,-3.26 67.58,0 99.35,44.8 166.95,48.86 65.96,4.09 159.63,-10.58 159.63,55.38 0,45.61 -36.64,63.54 -48.87,107.51 -13.03,44.79 -3.26,72.5 -3.26,118.91 0,73.29 -0.8,116.47 19.55,187.31 6.52,24.44 29.32,33.41 29.32,58.64 0,67.6 -91.21,79.82 -91.21,147.42 0,4.88 3.26,7.33 3.26,12.2 54.57,-13.02 89.56,-9.77 143.33,-26.06 34.19,-10.58 47.23,-30.12 74.93,-52.12 52.93,-42.35 78.99,-78.18 107.5,-140.08 48.86,-105.05 120.54,-139.25 205.23,-218.27 37.45,-34.19 91.22,-45.6 91.22,-97.73 0,-11.39 -13.03,-14.65 -13.03,-26.06 0,-26.87 35.83,-22.8 61.9,-29.32 39.9,-9.77 70.02,-6.52 104.24,-29.31 18.74,-12.2 39.1,-21.97 39.1,-44.78l0 -54.57c-20.36,-0.81 -31.78,-1.64 -52.13,0 -0.81,-16.29 -3.26,-25.26 -3.26,-41.54 0,-16.29 11.39,-25.26 19.55,-38.29 10.58,7.35 18.73,13.03 32.58,13.03 17.9,0 26.87,-14.65 35.83,-29.32 18.74,-30.13 39.09,-48.86 39.09,-84.7 0,-33.38 -22.8,-49.67 -22.8,-83.06 0,-24.44 31.77,-25.25 55.38,-30.96 32.57,-8.13 52.12,-12.19 84.7,-16.29 57.83,-8.12 91.21,-16.29 146.6,-35.83 60.25,-21.16 66.76,-80.61 123.79,-110.76 31.76,-16.29 45.6,-34.19 78.18,-48.86 26.06,-11.4 52.13,6.51 71.67,-13.04 30.93,-30.93 2.45,-70.02 19.54,-110.76 8.14,-20.35 25.26,-23.61 42.36,-35.83 58.63,-43.97 75.73,-90.38 133.56,-136.83 54.57,-43.96 98.54,-54.54 143.33,-107.5 17.11,-20.35 1.62,-43.16 9.78,-68.41 11.39,-35.83 48.87,-46.41 48.87,-84.7 0,-26.06 -13.04,-39.09 -13.04,-65.15 0,-21.16 13.04,-32.58 13.04,-53.74 0,-78.18 -39.1,-118.08 -39.1,-196.27 0,-8.16 2.45,-12.22 3.26,-20.38 17.91,-17.9 55.38,-9.77 55.38,-35.83 0,-40.71 -48.87,-52.13 -48.87,-92.83 0,-35.03 21.17,-52.93 42.36,-79.83 15.47,-19.55 42.35,-23.61 42.35,-48.86 0,-27.68 -33.39,-32.58 -42.35,-58.65 -21.19,-61.05 -22.81,-100.98 -52.13,-159.62 -24.44,-48.87 -48.86,-74.09 -48.86,-127.86l0 -43.96c0,-26.07 3.26,-40.74 3.26,-66.8 0,-48.86 -24.45,-74.92 -42.35,-119.72 -26.87,-66.78 -49.68,-102.61 -84.7,-166.15 -48.87,-87.95 -60.28,-148.21 -74.93,-247.58 -11.42,-80.61 -74.93,-104.25 -123.8,-169.4 -21.99,-30.13 -36.64,-48.03 -58.63,-78.19 -14.67,-19.54 -30.13,-24.41 -48.87,-39.08 -73.3,-57.01 -104.24,-107.51 -185.68,-153.12 -18.74,-9.77 -23.61,-29.32 -42.36,-39.09 -53.75,-30.13 -87.15,-48.86 -146.59,-65.15 -65.96,-17.91 -115.66,-7.33 -169.4,-48.87 -20.35,-15.45 -21.19,-38.26 -42.35,-52.12 -40.74,-26.87 -68.41,-38.26 -107.5,-68.41 -19.55,-14.65 -22.8,-35.84 -45.61,-45.61 -28.51,-12.19 -53.76,2.45 -78.19,-16.29 -39.9,-30.94 -39.9,-72.48 -55.37,-120.53 -13.84,-41.52 2.44,-87.13 -35.84,-107.5 -62.7,-33.39 -105.05,-48.04 -153.11,-100.99 -58.64,-19.55 -64.35,-70.84 -107.51,-114.03 -43.15,-43.15 -104.24,-56.99 -104.24,-118.08l0 -329.02c0,-56.19 53.74,-72.48 94.47,-109.96 56.19,-52.12 101,-74.09 133.57,-143.34 26.06,-55.37 26.86,-92.02 45.61,-149.85 20.35,-61.9 100.98,-67.58 100.98,-132.73l0 -65.99 -13.03 -55.38 0 -22.8c121.35,0 228.04,-55.38 260.62,-172.65 15.48,-56.19 21.99,-90.39 45.61,-143.34 8.96,-19.55 17.09,-31.75 22.8,-52.13 8.13,-29.32 11.39,-68.41 42.35,-68.41 40.7,0 63.51,9.78 104.24,9.78 54.58,0 127.05,-5.69 127.05,-60.26 0,-30.13 -32.57,-39.9 -32.57,-70.05 0,-16.29 16.28,-26.07 32.57,-26.07 34.19,0 52.13,37.48 52.13,71.67 52.12,0 74.92,42.35 127.05,42.35 24.42,0 33.38,-21.16 52.12,-35.83l13.03 3.25 0 15.49c0,30.12 -17.93,45.6 -26.06,74.12l109.95 0c43.16,0 46.42,-50.51 65.97,-89.61 13.03,14.68 15.47,28.52 29.31,42.36 18.74,-13.04 22.81,-30.94 42.35,-42.36l13.03 3.26 0 81.45 -12.22 45.6 0 183.27c0,38.25 1.65,71.67 31.77,93.64 30.93,22.8 78.18,22.8 78.18,61.89 0,19.55 -9.77,30.16 -9.77,49.7 0,9.78 2.45,15.46 3.26,25.23l22.8 3.26c36.64,-24.42 69.22,-11.39 110.76,-22.81 19.55,-5.68 25.25,-20.35 42.36,-29.32 35.83,-19.54 78.18,-31.74 78.18,-73.28 0,-26.06 -22.81,-34.22 -39.1,-53.77 -20.35,-24.41 -39.08,-34.19 -68.41,-48.86 -22,-10.58 -48.86,-14.65 -48.86,-39.09 0,-21.97 15.48,-31.75 22.8,-52.13 8.14,-23.61 3.26,-40.7 9.78,-65.15 4.87,-18.71 19.54,-24.42 26.06,-42.35 17.09,-46.42 8.96,-93.64 52.12,-117.28 65.15,-36.64 107.5,-49.67 172.66,-87.95 36.64,-21.16 71.66,-30.94 81.44,-71.67 27.68,-20.35 40.71,-34.2 74.93,-42.35 38.28,-8.94 81.44,-18.71 81.44,-57.81 0,-10.6 -2.45,-16.28 -3.26,-26.89l87.96 0c20.35,-20.35 39.9,-24.42 58.64,-45.61 15.48,-17.9 21.16,-39.09 45.6,-42.35 40.71,-5.68 72.48,5.71 100.99,-22.8 20.36,-20.35 17.1,-46.42 39.09,-65.16 44.8,-38.25 82.26,-49.67 123.8,-91.21 15.48,-15.46 8.13,-35.84 16.28,-55.38 16.29,-37.45 49.68,-55.38 91.22,-55.38 26.06,0 40.71,9.77 66.77,9.77 44.8,0 102.63,-7.32 102.63,-52.13 0,-60.25 -16.29,-92.83 -35.84,-149.84 -17.09,-50.49 -26.86,-82.26 -61.89,-123.8l3.25 -13.03c141.7,21.19 144.96,224.78 286.68,224.78 18.74,0 20.35,-23.61 29.32,-39.09 12.22,-19.55 35.83,-25.23 35.83,-48.86 0,-10.59 -9.76,-15.46 -9.76,-26.07 0,-21.16 8.12,-34.19 22.79,-48.86l81.45 0c5.7,-46.42 5.7,-107.51 52.12,-107.51 16.29,0 22.8,16.29 39.09,16.29 35.84,0 54.57,-26.87 74.93,-55.37 17.9,-25.23 38.29,-35.84 61.9,-55.39 15.47,-13.03 21.99,-29.32 42.34,-29.32 28.52,0 39.1,29.32 67.61,29.32 41.51,0 65.15,-1.62 106.67,0 -0.81,-30.12 -4.07,-48.03 0,-78.18l75.76 0c16.29,0 24.42,6.52 40.7,6.52 11.42,0 17.1,-2.43 28.52,-3.26 3.26,-35.84 30.13,-52.93 61.89,-68.42 31.77,-15.45 44.8,-37.45 78.18,-48.86 15.49,-4.87 30.14,0.84 42.36,-9.77 24.42,-21.17 15.48,-49.68 22.8,-81.45 6.52,-27.67 19.55,-43.16 19.55,-71.67 0,-35 -43.99,-38.26 -55.38,-71.66 38.29,-25.23 53.73,-52.13 68.41,-94.48 12.22,-35.83 20.35,-78.18 58.64,-78.18 23.61,0 23.61,39.09 47.22,39.09 30.96,0 24.45,-42.35 34.22,-71.67 13.03,-40.71 74.93,-38.25 74.93,-81.44 0,-10.58 -9.78,-15.46 -9.78,-26.06 0,-14.65 4.88,-32.58 19.55,-32.58 19.55,0 29.31,13.03 48.86,13.03 24.42,0 31.78,-23.61 48.87,-39.09 18.73,-17.09 39.09,-29.32 39.09,-55.38 0,-19.55 -22.8,-26.06 -22.8,-45.61 0,-55.38 84.7,-58.64 84.7,-114.01 0,-28.49 -41.54,-22.81 -58.64,-45.61 11.39,-14.65 35.03,-11.4 39.09,-29.33 10.58,-42.34 13.03,-90.37 55.38,-97.73 46.42,-8.13 73.29,3.26 120.54,0l3.26 -13.03c-4.91,-17.09 -9.78,-27.67 -9.78,-45.6 21.16,-43.16 35.83,-73.28 65.15,-110.76 21.17,-27.68 49.68,-26.88 81.44,-42.35 11.39,-5.68 26.07,-6.52 26.07,-19.55 0,-40.71 -91.22,-11.39 -91.22,-52.12 0,-26.06 8.14,-50.49 32.58,-58.64 19.55,-6.52 45.6,-8.13 45.6,-29.32 0,-24.42 -22.79,-35.83 -45.6,-42.35 21.16,-39.9 45.6,-74.93 91.21,-74.93 25.25,0 34.19,26.06 59.45,26.06l25.25 0 0 -39.9c0,-40.7 -52.12,-49.67 -52.12,-90.4 0,-49.68 13.03,-80.61 -3.25,-127.05 -6.52,-18.72 -29.33,-21.97 -29.33,-42.35 0,-17.91 27.68,-15.45 32.58,-32.58 8.13,-26.87 6.52,-44.77 6.52,-73.28 0,-56.19 -52.13,-77.38 -52.13,-133.57 0,-31.76 5.71,-63.54 35.84,-73.31 28.51,-8.94 56.99,-8.13 68.41,-35.83 26.87,-65.96 59.44,-100.99 61.9,-172.66 2.44,-83.06 30.12,-125.41 55.37,-205.23 20.36,-64.33 16.29,-105.06 16.29,-172.66 0,-35.01 -21.18,-51.29 -39.09,-81.44l3.26 -13.03c37.45,-5.69 50.48,-39.9 61.9,-74.93 8.96,-26.06 22.8,-39.09 22.8,-66.77 0,-22.8 -6.51,-37.47 -22.8,-53.76l0 -32.58c36.64,-4.06 55.37,-22.81 81.44,-48.87 31.77,18.74 32.58,48.06 48.86,81.45 39.9,-8.94 61.9,-42.36 61.9,-83.06 0,-48.87 -39.09,-71.67 -39.09,-120.53 0,-49.68 26.06,-75.74 26.06,-125.44 0,-49.67 -34.22,-70.84 -58.64,-114.02l3.26 -13.03c43.96,6.52 66.77,19.54 110.76,19.54 6.52,0 10.58,-4.87 16.29,-6.51l-6.52 -107.51c-17.93,-30.12 -35.03,-48.86 -65.15,-65.15 -11.42,-5.68 -13.04,-19.54 -26.06,-19.54 -26.06,0 -35.03,22.8 -55.38,39.09l-13.04 -9.77c20.36,-35 41.54,-48.87 71.68,-74.93 9.76,-8.13 26.05,-11.39 26.05,-25.22l0 -26.9c-60.27,0 -98.53,4.09 -153.1,-22.81 -56.19,-27.67 -84.71,-65.15 -146.6,-65.15 -58.64,0 -87.96,38.28 -123.79,84.7 -15.49,20.38 -19.55,48.87 -45.61,48.87 -20.36,0 -25.25,-20.36 -42.35,-29.32 -28.51,-15.46 -50.51,-6.52 -83.08,-6.52 -23.62,0 -37.45,9.77 -61.06,9.77 -4.91,0 -7.35,-3.25 -12.23,-3.25 20.35,-57.81 57,-76.55 91.21,-127.05 41.54,-61.07 52.94,-104.25 81.45,-172.66 25.25,-61.06 61.09,-87.96 114.02,-127.05 19.54,-14.65 32.57,-26.06 55.38,-35.83 30.94,-13.84 74.92,-13.03 74.92,-47.23 0,-64.35 -73.31,-72.47 -130.3,-102.63 -52.13,-26.87 -79.83,-58.63 -138.47,-58.63 -50.48,0 -78.18,6.51 -128.66,6.51 -98.54,0 -153.11,-26.87 -247.59,-55.38 26.07,-33.39 58.64,-35.84 100.99,-45.61 19.55,-4.07 29.32,-19.54 49.67,-19.54l63.54 0c48.87,0 72.48,-21.97 121.34,-29.32 52.13,-8.14 83.9,-9.78 130.31,-32.58 -30.12,-56.19 -82.25,-61.06 -140.08,-87.96 -56.19,-26.06 -79.82,-64.32 -140.08,-81.44 -39.09,-11.39 -65.15,2.45 -104.25,-9.77 -48.86,-15.46 -55.37,-57 -94.47,-91.22 -30.96,-26.87 -53.76,-35.83 -84.7,-61.89 -70.86,-60.26 -149.05,-71.67 -175.91,-159.63 -14.68,-48.03 -39.9,-72.47 -74.93,-107.51 -37.47,-37.44 -48.05,-72.47 -94.47,-100.98 -9.77,-5.68 -22.8,-4.07 -29.32,-13.03 -39.09,-49.68 -78.18,-70.84 -140.08,-84.7 -42.35,-9.78 -69.22,-2.43 -110.76,-13.03 -34.22,-8.94 -40.74,-42.36 -74.93,-52.13 -42.35,-13.02 -71.67,-4.06 -114.01,-19.54 -35.84,-13.03 -52.13,-45.61 -52.13,-83.87l0 -128.69c0,-64.35 -16.29,-100.99 -16.29,-165.33 13.84,-13.84 37.45,-14.65 42.35,-32.58 8.96,-30.13 10.58,-50.48 26.07,-78.18 15.47,-28.49 45.6,-38.26 45.6,-71.68 0,-13.02 -2.45,-19.54 -3.26,-32.57 -30.13,-4.87 -61.89,-18.71 -61.89,-48.87 0,-20.35 15.47,-39.09 35.83,-39.09 43.16,0 64.35,26.06 107.51,26.06 43.16,0 61.89,-50.48 61.89,-93.63 0,-31.77 -2.45,-48.87 0,-80.64 17.91,-0.8 27.68,-0.8 45.61,0 0,-43.16 25.25,-64.34 32.57,-107.5l-68.41 0c8.97,-40.74 57,-30.96 87.96,-57.03 37.45,-31.74 55.38,-61.89 61.9,-110.76l84.7 0c0,-35.83 -17.1,-62.7 3.25,-91.21 17.91,-25.23 43.16,-32.58 74.93,-32.58 53.74,0 95.28,0.84 133.56,39.1l13.04 -6.52c16.29,-6.52 29.32,-15.45 29.32,-32.58 0,-79.8 -52.13,-118.89 -52.13,-198.71 0,-21.17 12.23,-30.94 22.81,-48.87l-3.26 -13.03c-57.03,8.16 -87.15,29.32 -144.15,29.32 -36.67,0 -57.02,-0.81 -93.66,-0.81 0,19.55 -5.71,32.57 -19.55,46.42l-61.89 0 -26.07 6.51 -104.24 0c0,-13.03 6.52,-19.54 6.52,-32.58 0,-5.68 -4.07,-8.13 -6.52,-13.03l-65.15 0 -26.06 6.52 -83.9 0c-27.68,0 -41.54,-13.03 -69.22,-13.03 -28.51,0 -42.35,18.74 -65.15,35.83 -52.93,40.74 -83.08,81.44 -149.85,81.44l0 61.09c0,69.22 -42.36,107.5 -97.73,147.4 -29.32,21.19 -13.85,57.03 -32.58,87.97 -8.97,15.47 -21.99,21.18 -35.84,32.57 -9.77,8.15 -13.03,22.8 -26.87,22.8l-66.79 0c-12.22,0 -17.1,-9.77 -26.87,-16.29 -32.57,-21.15 -55.38,-28.48 -87.96,-48.86 -39.09,-24.42 -89.59,-25.23 -94.47,-71.67 -4.9,-43.16 -15.48,-65.96 -26.06,-107.5 -11.42,-43.16 -33.39,-84.7 -78.18,-84.7 -78.19,0 -118.92,42.35 -197.11,42.35 -79.8,0 -122.96,-19.55 -200.33,-39.09 -55.38,-13.84 -93.67,-15.46 -136.83,-52.13 -30.96,-26.06 -36.64,-52.12 -48.86,-91.21 -10.58,-35.01 -22.8,-54.55 -22.8,-91.22 0,-43.15 10.58,-81.44 48.86,-100.98 76.55,-39.9 135.18,-17.91 221.53,-22.81 21.99,-0.8 33.38,-8.94 55.37,-9.77 26.07,-0.81 56.19,4.09 65.16,-19.55 11.38,-28.49 7.32,-48.03 13.03,-78.18 10.58,-55.39 26.06,-85.51 39.09,-140.08 7.32,-33.39 0.81,-54.55 6.52,-87.96 9.77,-52.13 47.22,-70.84 74.92,-117.28 29.32,-49.67 43.97,-78.19 74.93,-127.05 19.55,-30.93 42.35,-42.35 58.63,-74.93 23.62,-47.22 31.78,-76.54 61.9,-120.52 31.77,-46.42 40.71,-78.19 78.19,-120.54 18.74,-21.16 45.61,-30.13 45.61,-58.64 0,-24.42 -32.58,-25.23 -55.39,-32.58 4.88,-21.16 17.1,-30.13 32.58,-45.6 13.03,-13.03 6.52,-30.13 16.29,-45.61 28.51,-43.97 70.03,-55.38 122.15,-55.38 61.9,0 96.11,13.02 158.01,13.02 16.29,0 27.68,0.84 42.35,-6.5 22,-10.59 17.91,-45.61 42.35,-45.61 28.51,0 17.9,43.99 35.83,65.15 17.1,20.38 39.1,30.15 39.1,57.02 0,87.15 -30.96,134.37 -58.64,216.62 -23.62,68.41 -16.29,114.02 -16.29,186.52l0 76.55c0,67.6 14.64,105.89 19.55,173.46 3.26,42.35 8.13,66.8 19.54,107.5 7.33,27.71 13.03,61.9 42.35,61.9 39.1,0 63.51,-19.54 84.7,-52.12 47.23,-26.87 75.74,-50.48 94.47,-100.99 16.29,-42.34 17.91,-74.09 48.87,-107.5 72.48,-78.18 99.35,-134.37 166.14,-218.27 35.83,-45.61 61.09,-67.58 100.99,-110.76 35.83,-39.09 51.31,-81.44 104.25,-91.21 35.02,-5.68 60.25,-2.42 91.21,-19.55 65.16,-35.83 91.21,-97.73 166.14,-97.73 40.71,0 55.38,31.77 87.96,55.38 17.91,13.03 33.38,8.97 52.13,19.55 11.38,6.51 13.02,22.8 26.05,22.8 100.99,0 141.7,-94.47 242.69,-94.47 47.25,0 72.5,20.38 112.4,45.6 55.38,35.84 91.21,74.94 91.21,140.09 0,46.44 -8.15,79.01 -42.34,110.76 -17.93,16.29 -49.68,5.71 -58.64,29.32 -11.42,30.15 -2.45,53.76 -19.54,81.44 -20.36,33.41 -23.62,57.83 -39.1,94.47 -5.71,13.86 -16.29,20.38 -16.29,35.84 0,22.8 19.55,42.35 42.35,42.35 32.58,0 50.48,-9.78 83.06,-9.78 69.24,0 97.73,46.44 158.01,81.44 16.28,8.97 22.8,26.07 42.35,26.07 73.28,0 69.22,-96.09 81.44,-169.41 13.84,10.61 20.36,20.39 29.32,35.84l90.41 0c38.26,0 56.99,22.81 95.28,22.81 61.89,0 78.18,-74.94 140.07,-74.94 36.65,0 49.68,34.22 68.42,65.16 15.48,25.25 26.87,39.92 42.35,65.15 36.64,58.64 62.7,89.61 97.73,149.86 -1.65,9.77 2.45,17.12 0,26.06 -24.44,-1.62 -37.47,-13.03 -61.9,-13.03 -35.83,0 -48.05,32.58 -74.92,55.38 -26.06,22.8 -40.74,43.18 -42.35,78.19 -0.81,24.44 -29.33,30.96 -29.33,55.37 0,35.84 40.72,40.74 74.94,52.13 3.25,-23.61 3.25,-55.39 26.86,-55.39l38.29 0c0,48.07 36.64,66.8 61.9,107.51 25.25,40.73 13.83,107.51 61.89,107.51 20.35,0 31.77,-13.03 52.12,-13.03 24.42,0 24.42,30.96 35.83,52.11 13.04,23.64 35.84,34.22 35.84,61.9 0,35.83 -19.55,55.38 -39.09,84.7 -6.51,10.61 -19.54,13.03 -19.54,26.07 0,57.82 35.83,85.53 35.83,143.33 0,21.19 -16.29,30.96 -16.29,52.12 0,53.77 47.22,70.06 84.7,107.51 20.35,20.38 20.35,42.35 32.58,68.41 6.51,15.48 23.61,17.12 39.09,22.8 13.03,4.91 18.74,16.29 32.58,16.29 35.83,0 52.12,-25.23 81.44,-45.6 30.12,-21.17 62.7,-34.2 65.15,-71.68 0.81,-15.45 -4.9,-26.87 3.26,-39.08 21.16,-30.14 57,-15.46 91.22,-29.33 26.06,-10.57 32.57,-31.74 55.37,-48.86 23.62,-17.1 58.64,-15.46 61.9,-45.61 5.7,-48.03 13.03,-88.76 55.38,-110.76 35.83,-18.71 66.77,-5.69 100.99,-26.06 21.16,-12.2 29.32,-27.68 48.86,-42.35 20.36,-14.64 45.61,-21.97 45.61,-48.04l0 -69.24 64.35 0c13.03,0 20.35,6.52 33.38,6.52 35.84,0 68.41,-26.07 68.41,-61.9 0,-113.19 -24.44,-180.79 -78.18,-280.16 -17.93,-33.38 -8.97,-64.32 -35.84,-91.21l-52.12 0c0,22.8 -3.25,37.47 -9.77,58.63 -32.58,-8.12 -24.44,-48.86 -29.32,-81.44 -5.71,-36.64 -14.67,-57.81 -22.81,-94.47 -19.54,-85.51 -53.76,-126.21 -100.98,-201.98 -27.71,-44.77 -31.77,-79.8 -71.67,-114.02 -76.57,-65.15 -144.98,-64.31 -224.78,-123.78 -22.8,-17.11 -32.58,-35.01 -55.38,-52.13 -52.93,-59.45 -72.48,-105.86 -146.6,-133.57 -49.67,-17.9 -81.44,-25.22 -123.79,-55.37 -39.9,-28.49 -58.64,-61.07 -107.5,-68.42 -82.25,-13.03 -123.8,-44.77 -205.24,-68.41 -55.37,-16.29 -88.77,-26.06 -143.34,-42.35 -26.86,-8.13 -61.89,-10.58 -61.89,-39.09 0,-23.61 19.55,-35 19.55,-58.64 0,-30.12 -48.87,-31.74 -48.87,-61.9 0,-97.73 14.65,-156.36 55.38,-244.32 22.8,-48.87 54.58,-68.41 71.67,-120.53 28.51,-85.51 76.54,-120.54 104.25,-205.24 8.13,-26.06 8.13,-45.6 22.8,-68.41 10.58,-16.29 30.13,-11.39 45.61,-22.8 22.8,-17.1 29.31,-39.9 29.31,-68.41 0,-22.81 -19.54,-31.75 -19.54,-54.55l0 -125.43c0,-48.06 -46.42,-74.94 -94.47,-80.64 0,-103.41 0.81,-161.24 0.81,-264.68 0,-17.91 11.41,-26.87 12.22,-44.8 2.45,-34.19 -4.07,-54.55 3.26,-87.96 8.96,-40.7 66.76,-30.13 81.43,-68.41 8.14,-20.35 -0.8,-34.19 3.26,-55.38 4.07,-25.23 16.29,-39.09 16.29,-65.15 0,-5.68 -5.7,-8.94 -6.51,-14.65l-84.7 0 0 -28.51c0,-13.03 6.51,-28.51 19.55,-28.51 49.67,0 77.37,16.28 127.05,16.28 34.19,0 46.41,-30.93 61.89,-61.89 -2.45,-35 -16.29,-48.03 -32.57,-78.18 -5.71,-11.39 -22.81,-13.03 -22.81,-26.06 0,-40.72 26.06,-60.26 26.06,-100.99 0,-25.23 -9.77,-39.9 -9.77,-65.16 0,-6.51 8.96,-7.32 9.77,-13.03l87.96 35.84c30.93,-3.26 51.31,-17.91 65.15,-45.61 26.06,36.67 66.77,29.32 110.76,39.09 28.52,5.71 45.61,13.03 74.93,13.03 136.01,0 206.85,-96.09 273.64,-215 39.1,-70.84 80.64,-101.8 114.02,-175.92 38.29,-83.86 88.77,-114.82 127.05,-198.72 21.17,-46.41 15.49,-79.8 22.81,-130.31 10.58,-75.73 22.8,-118.08 22.8,-194.62l0 -102.63c0,-43.16 39.9,-59.45 39.9,-102.61l0 -313.57 33.39 -224.78 0 -294c0,-58.63 -29.32,-87.15 -40.71,-145.78 0,-86.32 6.51,-135.99 6.51,-222.34 0,-54.57 -49.67,-71.66 -74.92,-119.72 -39.1,-74.09 -45.61,-122.15 -55.38,-205.23 -16.29,-134.38 -61.9,-206.04 -61.9,-340.42 0,-47.25 32.58,-70.05 32.58,-117.27 0,-47.39 -24.68,-74.99 -56.66,-100.92l-14514.95 -0.02 -0.02 17049.29c22.65,-19.45 35.31,-42.19 58.66,-68.7 22.8,-26.06 45.61,-34.19 65.15,-61.89 30.13,-41.52 54.58,-62.71 81.44,-107.51 9.78,-16.29 22.81,-26.06 22.81,-45.61 0,-26.86 -26.06,-34.19 -35.84,-58.63 -19.54,-50.48 -26.05,-83.87 -26.05,-138.44 0,-31.77 9.77,-49.68 19.54,-79.82 9.77,-30.13 8.97,-54.55 32.58,-74.94 29.32,-25.22 57.83,-22.79 91.21,-42.34 44.8,-26.06 64.35,-52.13 110.77,-74.93 96.91,-48.03 151.46,-86.32 218.26,-172.66 30.93,-39.9 33.39,-75.73 76.54,-104.24l0 92.05c0,12.19 12.22,17.09 14.67,28.48 12.22,44 30.94,68.41 65.15,97.73 34.2,29.32 53.75,61.9 99.35,61.9 55.39,0 83.09,-26.87 131.95,-52.12 32.58,-17.1 55.38,-17.1 91.22,-22.81 80.64,-13.84 122.15,-48.03 185.69,-100.99 38.28,-31.74 68.4,-37.45 110.76,-65.15 4.87,0 8.13,-3.26 13.03,-3.26 40.7,0 48.87,42.35 84.7,61.9 33.38,-67.58 37.45,-111.57 65.15,-182.44l16.29 0c23.61,26.9 29.32,65.16 65.15,65.16 18.74,0 15.48,-28.48 29.32,-39.09 39.9,-31.75 97.73,-36.64 97.73,-87.96 0,-32.58 -26.06,-46.41 -26.06,-78.99l0 -73.29c-50.5,-160.33 -170.51,-209.21 35.84,-69.24 46.41,31.77 87.15,25.25 143.34,32.58 50.47,6.51 75.73,27.7 123.79,45.6 38.28,13.87 64.34,23.64 78.18,61.9 34.19,26.89 36.64,59.47 48.86,100.99 14.65,48.86 35.03,74.12 55.39,120.53 32.57,75.76 74.11,110.76 91.21,192.2 23.61,113.22 64.34,167.79 110.76,273.65 26.06,58.64 32.58,97.73 74.93,146.6 34.19,39.09 65.96,49.69 104.25,84.7 86.31,79.01 157.17,111.59 273.64,120.53 49.67,3.26 82.25,13.87 117.27,48.86 13.85,13.87 18.74,30.16 35.84,39.1 60.25,33.41 83.89,71.66 120.53,130.3 17.1,27.71 42.36,41.54 42.36,74.93 0,34.22 -7.33,59.48 -32.58,81.45 -33.39,29.31 -94.47,20.37 -94.47,65.15 0,18.73 13.83,35.83 32.57,35.83 22.8,0 35.83,-13.03 58.64,-13.03 61.09,0 58.63,78.18 110.76,110.76 40.71,25.25 87.96,36.67 91.21,84.7 1.62,30.16 -3.25,51.31 9.78,78.18 16.29,32.58 43.15,39.1 71.67,61.9 31.77,25.25 32.57,57.03 32.57,97.73 16.29,39.1 19.55,65.16 19.55,107.5 0,93.67 -24.45,144.18 -48.86,234.56 -13.85,52.12 -35.84,79.01 -35.84,132.76l0 72.47 -19.55 159.63 0 81.44 6.52 13.03c43.16,-21.16 72.48,-33.39 97.73,-74.93 32.58,-52.12 33.38,-96.08 84.7,-130.3 32.58,83.08 27.68,133.56 42.35,221.52l41.54 0c40.71,0 61.06,-31.75 78.99,-68.41 15.49,-31.74 0,-84.71 35.84,-84.71 26.87,0 33.38,27.71 55.38,42.36 33.38,22 53.74,40.73 68.41,78.18 8.13,20.38 10.58,45.61 32.57,45.61 34.2,0 38.29,-40.71 52.13,-71.67 21.99,-48.86 52.12,-65.96 84.7,-107.5 48.05,-60.26 78.19,-96.09 143.34,-136.82 31.76,-19.55 48.05,-40.72 65.15,-74.93 8.13,-17.1 7.33,-38.26 26.06,-42.35 19.55,-4.07 35.03,4.09 52.13,-6.52 60.25,-38.26 83.05,-92.02 83.05,-163.69l0 -90.41c28.51,6.52 34.22,30.97 50.51,55.38 29.32,44.81 50.48,69.25 68.41,120.54 21.17,58.64 48.87,85.54 87.96,133.56 38.29,47.25 73.28,81.45 134.38,81.45 12.21,0 19.54,-2.42 31.76,-3.26 0,144.17 30.13,224.78 65.15,364.86 18.74,75.76 19.55,125.43 65.16,188.94 29.32,40.74 73.28,48.87 84.7,97.73 4.87,21.19 -3.26,35.03 -3.26,57.03 0,65.15 55.38,87.95 91.21,141.69 44.81,67.6 55.39,117.28 104.25,182.43 41.55,55.38 81.44,82.28 97.73,149.86 10.58,43.18 30.94,62.73 45.61,104.24 16.29,44.8 33.38,66.79 55.38,107.51 57.83,105.08 87.96,172.65 87.96,293.18 13.03,26.9 15.47,47.25 15.47,77.38l0 118.92c0,16.29 -8.96,23.62 -8.96,39.9 0,46.41 13.03,72.48 13.03,118.89 0,109.96 -19.54,170.24 -35.83,280.16 -4.9,32.58 -21.19,46.44 -29.32,78.19 -17.1,62.73 -26.06,98.56 -26.06,162.88 0,18.74 4.87,29.32 13.02,45.61 8.14,16.29 35.84,12.22 35.84,30.96 0,95.28 -27.7,146.6 -48.86,239.43 -9.77,42.35 -8.16,69.24 -22.8,110.76 -22.81,63.54 -66.8,92.05 -66.8,158.81l0 114.02c0,43.29 7.4,73.32 21.55,107.53l864.93 0.02zm6713 -0.02c9.91,-7.42 25.13,-8.65 25.13,-22.02 0,-41.52 -19.55,-64.31 -42.35,-97.73 -8.96,-13.83 -26.06,-18.71 -26.06,-35.83 0,-25.23 30.13,-26.87 42.35,-48.86 14.65,-26.07 15.48,-61.9 45.61,-61.9 24.41,0 30.93,29.32 55.37,29.32 24.43,0 30.94,-23.61 52.13,-35.84 12.22,-6.52 29.32,-8.13 29.32,-22.81 0,-65.15 22.8,-100.98 42.35,-162.87 29.32,-95.29 32.57,-157.99 97.73,-234.56 43.97,-51.29 61.89,-84.7 84.7,-146.6 16.29,-44.77 43.16,-62.7 52.12,-110.76 9.77,-52.12 0.81,-91.21 35.84,-130.3 39.09,22.8 47.22,58.64 52.12,104.24 2.45,25.26 4.06,58.64 29.32,58.64 23.61,0 45.61,-9.77 52.12,-32.58l-16.29 -87.95c2.45,-19.55 -0.8,-35 13.03,-48.87 17.9,-17.9 33.39,-9.77 58.64,-9.77 20.36,3.25 31.77,3.25 52.12,3.25 10.58,76.58 11.4,157.21 87.96,175.92 6.52,-18.71 8.97,-42.35 29.32,-42.35 22.81,0 24.42,29.32 45.61,35.84 35.03,11.41 62.7,-6.52 94.47,9.77 24.42,13.03 26.06,37.48 26.06,65.15 0,26.06 -19.54,39.1 -19.54,65.16 0,37.48 29.31,53.76 29.31,91.21l16.29 0c26.87,-36.64 45.61,-58.64 78.19,-91.21 17.9,11.41 27.67,24.44 48.86,29.31 20.35,4.91 48.87,1.65 48.87,22.81 0,43.18 -55.38,54.57 -55.38,97.73 0,22.8 13.03,45.61 35.83,45.61 74.12,0 79,-114.02 153.12,-114.02 13.03,0 15.47,16.29 22.79,26.06 16.29,21.99 30.94,40.74 58.65,42.35 34.18,2.45 54.57,3.25 87.95,9.77 74.93,15.48 121.35,61.9 140.08,136.82 -46.41,22.81 -76.57,26.07 -120.53,52.13 -21.99,13.03 -22.81,36.66 -45.61,48.86 -33.39,17.93 -61.89,9.78 -91.22,32.58 -5.7,11.41 -17.09,13.03 -29.32,13.03 -35.83,0 -55.37,-8.13 -91.21,-9.77 -13.03,39.09 -48.86,52.95 -48.86,94.47 0,34.22 43.16,35.02 74.92,45.61 57.83,18.73 92.03,27.7 153.12,32.57 -30.96,53.77 -65.97,73.31 -117.28,107.51 -38.29,25.25 -64.35,36.67 -100.99,65.15 -2.63,2.01 -3.96,5.73 -3.96,5.73l-1242.8 0z"/>
  <path class="fil2 str1" d="M5803.29 1271.38l0 119.73c0,61.89 4.9,99.34 27.7,157.17 18.71,48.06 57,69.22 57,121.34l0 102.64c0,87.95 92.86,118.08 92.86,206.03 0,49.68 4.06,83.9 -19.55,127.05 -34.22,61.9 -94.47,85.51 -94.47,156.38 0,28.5 13.84,49.67 39.09,61.89 13.84,6.51 32.57,7.32 32.57,22.8 0,51.32 -41.54,70.06 -61.89,117.28 -13.03,30.96 -5.71,54.57 -9.77,87.95 -5.71,43.16 -40.74,57.03 -71.7,87.96 -13.03,13.03 -17.9,25.26 -32.58,35.84 -29.32,21.18 -74.92,22 -74.92,58.64 0,20.35 13.03,31.77 13.03,52.12 0,9.77 -2.42,16.29 -3.26,26.06l-57.8 0c-20.39,0 -37.48,-9.77 -52.96,3.26 -50.48,42.35 -23.61,100.99 -32.58,166.14 -8.13,59.44 -19.54,98.54 -58.64,143.34 -99.34,114.01 -260.61,74.11 -329.02,211.75 -34.19,-11.39 -35,-49.67 -68.41,-61.9 -28.49,-10.58 -49.67,-1.62 -78.19,-13.03 38.29,-93.67 140.08,-77.38 221.53,-140.08 86.34,-66.77 63.53,-170.21 149.85,-234.56 83.08,-61.89 107.5,-127.05 156.37,-218.26 18.73,-35.83 44.8,-50.48 61.89,-87.95 26.06,-55.39 26.06,-94.48 26.06,-156.38 0,-41.54 -9.77,-65.96 -9.77,-107.5 0,-34.19 31.77,-44.8 55.38,-68.41 19.55,-19.54 11.42,-43.15 16.29,-71.67 8.16,-48.86 11.42,-74.92 16.29,-123.79 13.86,-128.66 39.09,-198.72 39.09,-327.38 0,-100.18 -5.68,-157.2 -26.06,-255.75 -8.94,-45.6 -32.57,-67.6 -32.57,-114.02 0,-53.73 57.83,-69.21 109.14,-84.69zm5018.46 10880.65c29.32,0 29.32,39.09 55.37,52.12 19.55,9.78 32.58,15.48 45.61,32.58 9.78,13.03 15.48,29.32 32.58,29.32 48.86,0 72.47,-28.51 110.76,-58.64 12.22,-9.77 13.84,-26.06 29.32,-26.06 29.32,0 22,41.54 32.58,68.41 17.93,43.99 29.32,70.05 29.32,117.28 0,53.76 -76.54,35.83 -130.31,42.35 -65.15,8.15 -101.79,22.8 -166.95,22.8l-54.57 0c0,-60.25 -22.81,-92.83 -22.81,-153.11 0,-39.9 2.46,-63.51 16.29,-100.99 4.07,-12.22 9.78,-26.06 22.81,-26.06zm1527.85 -322.51c44.8,0 70.05,-14.67 110.76,-32.58 13.84,-5.7 17.09,-21.99 32.58,-22.8 27.7,-0.81 42.34,4.87 70.05,6.52 0.81,17.9 0,28.51 0,46.41 0,57.83 -23.64,88.79 -50.51,139.27 -15.48,30.13 -13.84,56.19 -39.09,78.18 -43.16,38.29 -85.51,42.36 -143.34,42.36 -22.8,0 -32.58,-13.84 -52.12,-26.07 -26.06,-16.29 -41.54,-24.41 -65.15,-42.35 -42.36,-32.57 -32.58,-79.8 -32.58,-133.56 0,-45.61 19.54,-70.05 29.32,-114.02 8.13,-35.83 4.06,-84.7 40.7,-84.7 67.61,0 31.78,143.34 99.38,143.34zm-10756.87 -10248.66c20.36,0 29.32,21.99 29.32,42.35 0,22 -13.83,33.38 -16.28,55.38 -7.33,65.96 -9.78,103.43 -29.32,166.14 -4.9,17.09 -17.1,25.26 -19.55,42.35 -9.77,53.77 -12.22,88.76 -39.09,136.82 -27.7,50.51 -109.96,36.65 -114.02,94.48l35.84 247.58c0,51.31 -22.81,78.18 -52.13,120.53 0,-66.76 0,-109.95 -29.32,-169.4 -26.05,-52.93 -65.15,-77.37 -65.15,-136.82 0,-73.29 6.52,-127.05 58.64,-179.17 63.51,-63.51 110.76,-111.57 110.76,-201.17l0 -89.57c0,-28.51 -29.32,-39.1 -29.32,-67.61 0,-23.61 33.39,-18.73 55.38,-26.06 40.71,-14.64 61.09,-35.83 104.24,-35.83z"/>
  <g id="_2415087823472">
   <path class="fil3 str2" d="M5726.24 19230.68c50.51,-24.44 58.85,-74.8 85.2,-123.5 27.4,-50.66 63.53,-79.83 63.53,-138.47 0,-127.05 0,-254.1 0,-381.15 0,-110.76 -47.17,-171.08 -109.14,-262.22 -48.78,-71.73 -108.18,-135.71 -71.67,-215.01 36.55,-79.39 42.19,-128.73 52.12,-215.01 11.24,-97.75 39.15,-148.24 65.16,-241.07 8.2,-29.3 -6.28,-56.82 13.02,-78.18 26.29,-29.11 66.93,-7.76 104.25,-19.55 55.51,-17.52 81.45,-45.61 130.3,-78.18 48.87,-32.57 123.8,-30.96 123.8,-91.22 0,-120.53 -104.25,-174.3 -104.25,-294.83 0,-27.69 0,-55.38 0,-83.06 0,-39.09 90.67,18.94 97.73,-19.55 13.01,-70.92 -97.73,-86.33 -97.73,-158.01 0,-19 0,-38 0,-56.99 0,-22.87 48.42,13.93 58.64,-6.52 4.35,-8.68 15.76,-16.74 13.03,-26.06 -27.91,-95.45 -89.2,-181.61 -102.6,-280.16 -21.29,-156.55 0,-316 0,-474.01 0,-89.57 -79.83,-127.05 -79.83,-216.62 0,-40.73 61.87,-26.11 91.21,-52.12 42.31,-37.51 104.26,-52.13 104.26,-110.76 0,-83.09 -113.99,-106.47 -130.31,-188.95 -15.18,-76.69 26.05,-118.92 26.05,-197.1 0,-40.7 -3.25,-63.51 -3.25,-104.24 0,-87.97 0,-175.92 0,-263.88 0,-268.74 -75.53,-415.12 -172.66,-666.18 -47.8,-123.56 -83.38,-192.05 -143.34,-312.73 -63.85,-128.54 -84.63,-231.45 -208.49,-299.72 -162.8,-89.72 -254.73,-159.2 -358.34,-312.73 -31.59,-46.82 -72.83,-57.36 -104.25,-104.25 -77.68,-115.98 -118.91,-192.22 -228.03,-280.16 -58.63,-47.25 -115.66,-32.61 -188.95,-52.12 -128.68,-34.24 -200.36,-78.19 -333.93,-78.19 -60.25,0 -94.49,8.41 -154.72,6.52 -94.66,-2.97 -146.6,-19.55 -241.07,-19.55 -55.38,0 -80.01,32.14 -130.31,52.13 -84.88,33.73 -140.08,32.58 -231.29,32.58 -135.21,0 -187.33,-123.8 -322.52,-123.8 -32.57,0 -55.12,5.77 -78.18,26.06 -58.78,51.73 -92.85,97.74 -169.39,97.74 -87.97,0 -99.38,-115.67 -99.38,-203.62 0,-87.96 -4.88,-138.44 1.64,-226.4"/>
   <path class="fil3 str2" d="M9799.09 21527.54c-74.93,-100.99 -129.29,-157.79 -176.17,-276.81 -16.62,-42.22 -61.89,-39.09 -104.25,-52.12 -42.35,-13.04 -65.26,-35.68 -104.24,-58.64 -107.59,-63.37 -136.82,-162.89 -136.82,-286.68 0,-40.73 19.54,-63.54 19.54,-104.24 0,-47.25 -32.58,-70.06 -32.58,-117.28 0,-71.67 105.72,-42.57 162.89,-84.7 35.67,-26.27 29.04,-68.53 45.6,-110.76 33.91,-86.45 187.28,-17.22 215.01,-104.24 36.43,-114.35 -97.73,-171.04 -97.73,-289.94 0,-37.48 19.55,-57.02 19.55,-94.47 0,-53.77 -53.69,-71.7 -65.15,-123.79 -9.68,-44.01 -1.9,-71.65 -6.52,-117.28 -6.75,-66.77 -84.59,-73.36 -104.24,-136.82 -16.16,-52.15 -1.91,-87.98 0,-143.34 4.59,-133.58 -8.25,-227.99 -91.22,-332.28 -37.55,-47.19 -122.69,-25.11 -130.3,-84.7 -6.66,-52.03 94.47,-45.61 94.47,-99.38 0,-32.57 10.21,-53.4 -3.26,-83.06 -6.87,-15.11 -22.81,-13.02 -39.1,-13.02 -35.83,0 -55.37,19.54 -91.21,19.54 -60.28,0 -32.3,-99.72 -78.18,-136.82 -30.67,-24.79 -63.53,-5.25 -104.25,-6.51 -63.51,-1.98 -78.16,-68.47 -123.8,-110.76 -21.14,-19.59 -58.63,-17.94 -58.63,-47.25 0,-94.48 0,-188.95 0,-283.43 0,-47.22 -6.71,-79.68 -32.58,-118.89 -24.63,-37.34 -69.66,-23.28 -104.24,-52.12 -14.28,-11.89 -6.39,-34.28 -13.04,-52.12 -19.4,-52.17 -101.64,-42.9 -149.84,-71.67 -63.41,-37.86 -81.45,-110.76 -156.37,-110.76 -30.97,0 -48.88,13.03 -79.83,13.03 -53.76,0 -107.5,0 -161.24,0 -40.99,0 26.06,63.51 26.06,104.24 0,70.03 -114.18,52.07 -136.82,117.28 -18.08,52.05 -30.41,143.7 -78.19,117.28 -55.59,-30.74 -29.21,-136.83 -91.22,-136.83 -34.23,0 -30.96,58.64 -65.15,58.64 -68.41,0 -79.47,-147.07 -136.82,-110.76 -87.63,55.49 -78.18,195.46 -182.43,195.46 -58.64,0 -129.13,-85.23 -84.7,-123.79 91.8,-79.66 156.37,-146.6 156.37,-267.13 0,-127.05 -32.58,-198.72 -32.58,-325.77 0,-19.54 -17.53,-34.13 -13.03,-52.12 2.16,-8.69 4.35,-17.38 6.51,-26.06 8.71,-34.79 50.43,-31.01 71.68,-58.64 27.6,-35.87 78.18,-40.74 78.18,-86.34 0,-19 7.21,-39.43 0,-57 -3.4,-8.28 -17.38,-4.35 -26.06,-6.52 -154.19,-38.54 -206.86,132.03 -358.35,169.41 -92.82,22.89 -144.98,58.63 -241.07,58.63 -13.03,0 -14.57,22.41 -26.05,19.55 -8.68,-2.17 -17.38,-4.35 -26.07,-6.52 -11.17,-2.79 0,-19.54 0,-30.96 0,-22.8 19.55,-32.57 19.55,-55.37 0,-16.83 0,-33.66 0,-50.49 0,-51.17 -55.46,-65.99 -104.24,-78.18 -8.68,-2.17 -23.01,-14.93 -26.07,-6.52 -8.9,24.49 18.43,59.77 0,78.19 -18.42,18.43 -52.12,0 -78.19,0 -45.6,0 -16.28,-70.06 -16.28,-115.67 0,-43.97 -23.09,-94.5 0,-131.91 14.25,-23.1 54.29,0 81.44,0 48.87,0 32.39,-73.41 52.12,-117.28 24.22,-53.86 17.91,-136.82 78.19,-136.82 11.38,0 22.07,22.09 26.06,13.03 41.54,-94.27 152.62,-127.58 130.3,-228.04 -6.71,-30.21 -57.02,8.12 -78.18,-13.03 -22.8,-22.8 -4.99,-60.22 -26.06,-84.71 -29.39,-34.14 -83.02,-13.06 -104.25,-52.12 -29.24,-53.79 -11.77,-110.33 -58.63,-149.85 -88.32,-74.5 -104.73,-151.06 -182.44,-234.55 -31.42,-33.78 -97.73,-27.71 -97.73,-74.93 0,-68.41 67.99,-86.56 97.73,-146.59 58.22,-117.48 71.68,-198.72 71.68,-329.03 0,-66.8 -14.33,-168.26 -78.19,-153.11 -64.07,15.19 -128.14,30.41 -192.2,45.61 -134.47,31.9 -237.81,-120.54 -237.81,-257.36 0,-66.8 45.61,-99.37 45.61,-166.14 0,-27.71 -32,-32.73 -39.1,-58.64 -20.59,-75.08 -37.26,-117.31 -45.61,-195.46 -19.32,-180.84 -20.11,-292.88 -110.76,-449.56 -41.28,-71.34 -130.31,-106.2 -130.31,-188.95 0,-42.9 0,-85.79 0,-128.69 0,-56.99 19.55,-87.95 19.55,-144.95 0,-70.05 -72.01,-84.48 -110.76,-143.34 -49.19,-74.7 -32.73,-140.03 -65.15,-221.53 -27.84,-69.98 -29.31,-120.55 -71.67,-182.42 -39.06,-57.03 -99.4,-56.82 -169.4,-65.15 -107.52,-12.81 -159.63,-68.42 -234.55,-143.34 -43.98,-43.98 -83.01,-65.23 -117.28,-117.28 -53.67,-81.5 -86.35,-131.96 -156.37,-201.98 -40.72,-40.72 -91.21,-60.27 -91.21,-118.92 0,-42.35 0,-84.7 0,-127.05 0,-26.05 13.03,-40.7 13.03,-66.76 0,-57.03 -52.05,-81.66 -104.25,-104.25 -56.92,-24.64 -107.48,-1.68 -162.88,-32.58 -99.34,-55.4 -115.67,-182.43 -229.68,-182.43 -40.18,0 -80.36,0 -120.53,0 -61.9,0 -109,12.86 -157.99,-26.06 -69.91,-55.54 -70.05,-162.88 -159.63,-162.88 -118.92,0 -166.15,104.25 -285.06,104.25 -44.52,0 -89.05,0 -133.56,0 -58.63,0 -87.96,-35.84 -138.44,-65.16"/>
   <path class="fil3 str2" d="M2254.05 11184.5c112.4,0 167.78,71.67 280.15,71.67 149.86,0 224.87,-78.01 364.86,-130.31 156.44,-58.44 250.85,-91.21 416.99,-91.21 92.86,0 130.31,78.18 223.16,78.18 51.04,0 102.08,0 153.12,0 32.58,0 50.48,-13.03 83.05,-13.03 86.34,0 66.4,124.33 133.57,175.92 24.03,18.46 49.01,14.32 78.18,26.06 96.26,38.72 117.29,123.8 149.86,221.52 68.4,205.22 428.55,65.11 482.13,273.64 21.34,83.04 117.27,70.09 188.95,117.28 61.88,40.75 81.26,91.51 143.34,130.3 68.21,42.65 122.35,35.49 195.46,71.68 91.38,45.24 132,107.49 169.4,201.97 24.49,61.86 78.12,74.96 104.24,136.83 35.77,84.72 -45.59,184.5 32.58,234.55 122.09,78.17 208.74,108.96 299.71,221.52 39.32,48.67 82.93,58.75 117.27,110.76 79.66,120.64 102.52,200.42 162.89,332.28 143.21,312.78 47,646.79 351.83,807.91 77.49,40.95 65.1,-112.36 91.21,-195.46 9.87,-31.43 4.14,-66.57 32.58,-78.18 20.94,-8.56 45.6,14.68 45.6,37.47 0,133.56 0,267.13 0,400.69 0,107.5 114.02,167.76 221.52,167.76 74.94,0 133.44,22.64 188.95,-26.06 24.31,-21.31 16.22,-53.82 39.09,-78.19 52.04,-55.44 84.97,-89.33 156.37,-117.27 69.18,-27.06 62.1,94.16 104.25,156.37 26.55,39.2 55.38,71.66 104.24,71.66 78.19,0 89.73,-84.49 156.37,-123.79 60.4,-35.61 117.28,-66.77 117.28,-136.81 0,-87.97 -39.09,-135.19 -39.09,-223.14 0,-51.04 0,-102.08 0,-153.12 0,-83.08 117.27,-94.47 117.27,-177.55 0,-55.38 -52.12,-74.93 -52.12,-130.31 0,-32.57 49,-22.43 78.19,-32.57 45.73,-15.91 49.57,-63.39 58.64,-110.77 5.59,-29.18 -11.5,-55.48 6.51,-78.18 19.42,-24.5 48.99,-19.31 78.18,-32.58 132.06,-60 192.3,-120.37 319.26,-188.95 237.89,-128.49 299.67,-326.19 560.31,-410.46 41.86,-13.53 -34,-82.87 0,-110.76 49.52,-40.62 110.69,21.05 162.89,-13.03 27.62,-18.03 22.81,-57.02 52.12,-71.68 26.05,-13.03 56.98,6.46 78.19,-13.03 39.03,-35.87 29.63,-81.3 52.12,-130.3 23.1,-50.34 79.77,-61.92 91.22,-117.27 8.08,-39.11 -21.17,-71.68 0,-104.26 21.17,-32.57 78.18,-30.93 78.18,-71.66 0,-29.32 -45.08,-49.29 -26.06,-71.67 48.67,-57.25 97.42,-65.7 162.89,-104.24 53.44,-31.47 65.14,-89.61 123.79,-110.77 99.34,-35.85 162.88,-32.57 268.77,-32.57 89.57,0 141.69,-6.52 231.29,-6.52 97.73,0 151.47,-39.09 249.2,-39.09 42.35,0 50.4,58.64 91.22,58.64 62.44,0 124.88,0 187.32,0 66.77,0 26.72,109.37 79.8,149.85 76.61,58.39 188.95,60.28 188.95,156.37 0,35.83 -8.94,49.04 -21.97,81.61"/>
   <path class="fil3 str2" d="M11103.4 12182.63c22.81,-57.02 3.96,-87.41 24.56,-144.63 8.71,-24.21 34.22,-27.69 52.12,-45.6 47.24,-47.24 60.63,-89.35 97.73,-143.34 52.46,-76.31 154.33,-96.89 143.34,-188.95 -5.6,-47 -71.66,-45.6 -71.66,-91.21 0,-55.38 40.57,-91.65 91.21,-110.77 22.64,-8.54 26.06,-39.08 52.12,-39.08 45.61,0 65.02,36.08 104.24,58.63 25.92,14.91 50.63,7.91 78.19,19.55 45.71,19.29 47.31,65.1 84.7,97.73 52.17,45.54 102.63,45.61 172.66,45.61 60.28,0 92.86,-26.06 153.11,-26.06 68.41,0 99.75,80.55 165.69,71.68 42.08,-5.67 23.2,-60.31 42.81,-97.75 16.2,-30.96 51.87,-29.5 71.66,-58.63 38.84,-57.17 60.28,-91.24 84.7,-156.37 19.53,-52.13 10.05,-87.84 32.58,-136.83 14.93,-32.44 48.67,-35.99 71.66,-65.15 43.8,-55.52 45.61,-109.12 45.61,-180.79 0,-30.95 0,-61.91 0,-92.85 0,-109.15 182.43,-107.51 182.43,-216.63 0,-61.9 0,-123.79 0,-185.68 0,-94.48 41.95,-165.29 123.79,-210.14 37.07,-20.3 59.65,-8.71 91.22,-39.09 54.78,-52.69 105.89,-78.19 182.43,-78.19 83.09,0 118.92,65.16 201.98,65.16 83.08,0 118.92,-29.32 201.98,-42.35"/>
   <path class="fil3 str2" d="M4189.11 10989.04c91.22,37.47 109.46,149.85 208.49,149.85 45.07,0 90.14,0 135.21,0 86.31,0 143.27,-13.15 216.62,-58.64 55.31,-34.29 76.57,-97.73 143.34,-97.73 50.5,0 82.91,0.67 130.3,13.03 27.54,7.18 -9.65,58.02 13.03,76.57 27.73,22.69 57.03,1.62 92.87,1.62 50.47,0 78.18,-26.06 128.66,-26.06 60.28,0 32.49,89.65 58.64,143.34 34.12,70.08 109.45,69.82 156.36,130.3 26.36,33.97 39.52,111.56 74.93,84.7 33.83,-25.67 -24.8,-75.8 3.26,-107.5 24.83,-28.06 94.47,-37.48 94.47,0 0,42.35 -22.52,91.19 0,127.05 14.16,22.52 53.22,0 79.83,0 22.8,0 27.96,-25.29 47.22,-32.58 41.03,-15.51 100.1,42.64 110.76,0 4.34,-17.37 8.69,-34.76 13.03,-52.12 16.29,-65.15 89.6,71.67 156.37,71.67 39.09,0 52.12,-45.61 91.22,-45.61 63.53,0 92.87,40.6 156.36,45.61 60.29,4.75 104.15,-27.48 156.37,0 71.56,37.66 94.48,123.79 177.56,123.79 16.82,0 33.65,0 50.48,0 27.73,0 6.52,-43.97 6.52,-71.67 0,-89.58 -93.52,-107.2 -130.31,-188.94 -7.2,-15.99 1.2,-40.19 -13.03,-52.13 -26.51,-22.27 -61.9,-0.01 -91.22,-19.55 -68.4,-45.59 -113.89,-77.3 -195.45,-91.21 -52,-8.87 -86.46,2.08 -136.83,-13.03 -63.64,-19.09 -73.42,-73.18 -117.27,-123.8 -40.84,-47.12 -66.73,-83.19 -123.8,-110.76 -40.64,-19.64 -104.24,-6.51 -104.24,-52.12 0,-37.47 39.09,-50.5 39.09,-87.95 0,-40.74 -50.13,-42.6 -71.67,-74.93 -33.82,-50.75 -32.58,-94.47 -32.58,-156.37 0,-146.59 181.86,-273.94 312.74,-208.49 17.37,8.68 34.75,17.38 52.12,26.06 70.04,35.02 86.35,-110.76 162.89,-110.76 26.06,0 18.22,40.2 39.09,52.13 70.33,40.19 123.79,32.57 205.23,32.57 89.6,0 143.17,0.88 231.3,-19.55 24.28,-5.63 26.09,-35.75 52.12,-39.09 37.48,-4.8 79.77,19.51 97.74,-13.03 16.2,-29.34 9.48,-55.55 26.05,-84.7 30.67,-53.92 89.72,-50.44 123.79,-104.25 27.81,-43.9 12.44,-84.86 26.07,-136.82 12.42,-47.4 78.18,-48.86 78.18,-97.73 0,-48.86 -53.78,-60.27 -71.67,-104.25 -21.19,-52.09 -19.55,-89.59 -19.55,-146.59 0,-42.35 37.57,-63.26 78.19,-74.93 89.68,-25.77 141.73,-42.59 234.55,-45.6 107.5,-3.49 103.2,-140.57 123.79,-247.59 13.6,-70.61 16.29,-112.4 16.29,-184.07 0,-127.05 0,-254.1 0,-381.15 0,-47.22 -40.64,-65.2 -61.89,-105.86 -35.76,-68.44 -39.1,-117.28 -39.1,-195.46 0,-320.89 226.42,-612.45 547.29,-612.45 102.64,0 153.12,65.16 255.75,65.16 42.35,0 84.69,0 127.04,0 127.05,0 167.77,-143.34 294.82,-143.34 81.44,0 119.04,50.16 195.45,78.18 70.17,25.73 163.05,-24.49 188.95,45.61 40.88,110.7 26.06,187.31 26.06,306.22 0,32.58 1.92,57.17 -13.03,84.71 -16,29.47 -58.64,30.93 -58.64,65.15 0,97.73 65.15,146.6 65.15,244.32 0,83.06 -58.63,122.16 -58.63,205.24 0,58.64 75.1,60.06 117.28,97.73 49.02,43.77 -6.52,102.6 -6.52,169.4 0,136.82 71.67,206.86 71.67,343.67 0,48.87 0,97.74 0,146.6 0,141.71 175.91,174.3 175.91,315.99 0,74.93 0,149.86 0,224.78 0,43.99 29.89,63.32 45.61,102.63 20.11,50.26 42.35,104.24 97.73,104.24 86.34,0 133.47,-45.75 201.98,-97.73 25.95,-19.68 52.23,-21.11 71.66,-45.6 62,-78.1 109.15,-149.85 210.14,-149.85 42.35,0 84.69,0 127.04,0 42.36,0 63.52,26.06 105.87,26.06 96.12,0 135.47,-71.11 221.52,-110.76 80.08,-36.91 145.02,-12.95 228.04,-45.61 115.69,-45.52 192.16,-65.22 286.67,-149.86 45.56,-40.78 130.31,-29.31 130.31,-91.21 0,-32.58 -32.58,-47.25 -32.58,-79.82 0,-25.52 0,-51.04 0,-76.55 0,-105.89 151.33,-101.05 182.44,-201.98 22.61,-73.35 114.03,-76.56 136.81,-149.85 37.48,-120.52 39.73,-198.44 91.23,-312.74 15.28,-33.93 56.91,-32.66 78.18,-65.15 37.36,-57.09 51.82,-94.61 78.18,-156.37 30.65,-71.79 87.8,-91.29 117.28,-162.88 16.11,-39.16 5.85,-68.53 13.03,-110.77 20.5,-120.64 83.94,-200.86 152.36,-305.11"/>
   <path class="fil3 str2" d="M7303.45 3633.2c0,-71.67 32.58,-110.76 32.58,-182.43 0,-17.94 -22.81,-19.56 -32.58,-32.58 -24.44,-32.57 -32.58,-61.9 -32.58,-104.24 0,-63.54 76.46,-70.18 117.28,-117.28 65.02,-75.04 99.35,-128.71 136.82,-221.52 30.93,-76.57 60.35,-120.54 71.67,-201.98 6.56,-47.24 -22.81,-123.8 26.06,-123.8 39.1,0 60.29,6.52 99.37,6.52 128.67,0 200.34,-32.62 324.13,-71.67 87.94,-27.74 146.5,-31.11 221.53,-84.69 38.97,-27.85 43.99,-63.55 78.18,-97.74 73.31,-73.3 117.29,-104.26 188.94,-175.91 63.53,-63.53 110.94,-87.82 169.4,-156.37 36,-42.2 30.26,-83.21 39.1,-136.83 18.82,-114.13 93.02,-157.87 169.39,-247.57 63.69,-74.79 91.22,-169.41 190.59,-169.41 62.44,0 125.41,-8.18 187.31,0 8.91,1.18 5.24,17.22 7.86,25.82"/>
   <path class="fil3 str2" d="M1016.13 15728.14c93.71,-13.46 159.57,-54.57 267.13,-54.57 43.99,0 52.29,46.91 91.21,65.16 65.31,30.61 133.4,56.31 162.89,123.79 55.41,126.82 144.68,159.9 234.55,260.61 99.07,111.03 180.79,166.31 325.77,195.47 146.56,29.47 244.33,14.66 377.89,84.69 99.37,52.12 116.37,136.04 218.98,178.39"/>
   <path class="fil3 str2" d="M1016.13 14032.98c36.87,13.5 75.47,24.78 123.79,24.78 127.05,0 146.59,-175.91 273.65,-175.91 162.88,0 254.1,26.07 416.97,26.07 123.8,0 195.47,-26.07 319.26,-26.07 63.54,0 96.11,39.1 159.62,39.1 74.94,0 110.77,-45.61 185.7,-45.61 83.08,0 128.69,26.06 211.74,26.06 317.64,0 487,-88.4 804.65,-123.79 164.47,-18.33 286.88,3.47 410.47,-104.25 117.46,-102.37 156.37,-254.1 312.74,-254.1 89.59,0 169.4,66.8 169.4,156.37 0,29.32 -19.56,45.62 -39.1,65.15 -26.04,26.05 -26.2,63.27 -58.64,78.19 -48.98,22.51 -117.27,21.18 -117.27,74.93 0,96.11 8.1,172.75 84.7,231.29 96.04,73.39 247.59,69.08 247.59,188.95 0,10.86 0,21.71 0,32.57 0,61.65 -81.46,55.39 -130.31,91.22 -97.73,71.66 -189.05,78.12 -260.62,175.92 -44.05,60.2 -55.24,105.97 -91.21,169.39 -60.11,105.96 -156.41,134.97 -280.17,149.86 -268.76,32.32 -395.41,153.83 -631.99,280.15 -74.53,39.81 -104.25,110.76 -190.56,110.76 -44.52,0 -89.05,0 -133.56,0 -99.37,0 -151.51,45.61 -250.84,45.61 -51.04,0 -102.08,0 -153.11,0 -60.28,0 -71.69,60.29 -112.4,104.25 -81.45,87.94 -117.28,166.14 -117.28,286.68 0,66.79 32.46,102.68 58.63,162.88 22.68,52.17 13.04,91.23 32.58,143.34 63.54,169.39 121,257.77 189.4,423.91"/>
   <path class="fil3 str2" d="M6912.93 4213.06c-16.28,52.13 -26.28,83.21 -52.54,130.31 -20.95,37.58 -58.63,50.51 -58.63,94.47 0,60.28 38,87.84 52.12,146.6 16.8,69.93 6.35,117.36 32.58,182.43 17.75,44.06 41,69.99 52.12,117.27 14.93,63.47 32.58,136.83 97.73,136.83 34.22,0 50.5,-32.58 84.7,-32.58 27.7,0 32.58,37.47 60.28,37.47 83.06,0 128.66,1.62 211.75,1.62 74.92,0 83,-86.38 131.92,-143.34 69.98,-81.49 112.96,-129.91 175.92,-215 24.98,-33.79 14.67,-73.3 45.61,-104.25 55.36,-55.37 122.25,-50.45 162.88,-117.27 32.64,-53.7 37.64,-104 91.21,-136.83 148.39,-90.95 252.64,-108.84 410.47,-182.42 107.64,-50.2 143.35,-125.44 201.98,-228.04 26.05,-45.61 37.47,-104.25 91.21,-104.25 34.22,0 42.2,35.93 58.64,65.15 12.87,22.89 56.76,0.1 65.15,26.07 9.5,29.4 -30.57,73.39 0,78.18 133.92,20.97 133.8,-177.2 247.59,-247.59 112.63,-69.67 201.98,-141.72 201.98,-275.28 0,-44.52 0,-89.04 0,-133.56 0,-169.41 114.19,-237.95 169.39,-399.06 15.68,-45.75 -73.08,-31.16 -104.24,-65.15 -40.49,-44.18 -39.1,-94.47 -39.1,-156.37 0,-40.74 19.55,-63.54 19.55,-104.25 0,-32.58 -26.06,-45.61 -26.06,-78.18 0,-16.29 26.06,-16.29 26.06,-32.58 0,-61.9 -52.12,-87.95 -52.12,-149.85 0,-114.02 143.33,-140.08 143.33,-254.1 0,-53.76 -56.82,-63.69 -91.21,-104.25 -29.14,-34.36 -35.82,-76.65 -78.18,-91.21 -61.87,-21.26 -143.34,-30.96 -143.34,-97.73 0,-115.66 100.96,-151.54 188.94,-228.04 61.87,-53.79 102.54,-76.81 175.92,-110.76 35.73,-16.52 45.66,-51.9 84.7,-58.64 92.9,-16.05 157.46,-36.1 247.58,-65.15 18.07,-5.83 27.64,24.2 45.61,19.55 175.91,-45.61 351.83,-91.22 527.74,-136.83 76.73,-19.89 99.28,80.03 169.41,110.76 48.75,21.38 86.36,1.58 136.82,19.55 68.42,24.37 86.67,77.95 130.3,136.82 58.96,79.56 148.22,63.67 247.59,78.19 45.58,6.65 60.2,50.73 104.24,65.15 45.52,14.89 91.3,17.85 117.28,58.64 126.21,198.16 263.38,254.76 449.56,397.43 64.64,49.53 70.12,133.35 149.85,156.37 66.86,19.31 109.15,13.03 179.18,13.03 40.73,0 53.76,-45.61 94.47,-45.61 45.61,0 58.64,52.13 104.24,52.13 78.19,0 131.54,14.36 201.98,-19.55 39.15,-18.85 47.25,-65.15 91.22,-65.15 26.05,0 21.38,44.97 45.6,52.12 47.44,14 79.83,13.03 130.31,13.03 32.58,0 45.61,-26.06 78.18,-26.06 42.35,0 30.58,60.61 58.64,91.22 43.6,47.57 104.03,32.88 156.37,71.67 35.6,26.36 39.31,61.74 65.15,97.73 19.76,27.51 49.04,24.12 78.19,39.09 31.11,15.98 1.74,84.7 37.47,84.7 22.26,0 44.52,0 66.78,0 32.57,0 32.92,-41.83 58.63,-58.64 58.98,-38.56 120.58,1.67 182.43,-32.58 44.02,-24.37 44.18,-71.39 84.71,-97.72 57.2,-37.19 99.27,-57.09 130.3,-117.28 48.75,-94.52 108.92,-137.25 201.98,-188.95 53.53,-29.74 6.51,-117.29 58.63,-149.86 26.05,-16.28 48.87,-6.5 79.83,-6.5 32.03,0 64.06,0 96.09,0 72.14,0 0,-110.77 0,-182.44 0,-48.86 60.47,-47.03 97.73,-78.18 52.31,-43.76 88.24,-62.17 136.82,-110.76 35.7,-35.72 32.58,-76.57 32.58,-127.05 0,-48.87 -32.58,-71.68 -32.58,-120.54 0,-58.64 19.55,-91.21 19.55,-149.85 0,-50.51 -73.25,-40.78 -104.24,-78.18 -17.55,-21.17 -23.67,-43.6 -23.86,-66.71"/>
  </g>
  <path class="fil4 str3" d="M1595.62 1252.43l2290.56 0 0 1592.9 -2290.56 0 0 -1592.9z"/>
  <path class="fil5" d="M1198.37 2963.39c0,-17.45 4.47,-34.48 13.46,-51.13 8.93,-16.61 21.77,-29.59 38.43,-38.86 16.69,-9.26 34.1,-13.92 52.16,-13.92 17.92,0 35.18,4.56 51.69,13.74 16.56,9.12 29.4,21.92 38.53,38.43 9.17,16.51 13.73,33.77 13.73,51.74 0,18.01 -4.56,35.27 -13.73,51.78 -9.13,16.51 -21.97,29.35 -38.53,38.53 -16.51,9.17 -33.77,13.78 -51.69,13.78 -18.06,0 -35.47,-4.66 -52.16,-13.97 -16.66,-9.36 -29.5,-22.34 -38.43,-38.95 -8.99,-16.65 -13.46,-33.68 -13.46,-51.17zm17.22 0c0,14.62 3.76,28.88 11.24,42.7 7.48,13.83 18.2,24.65 32.13,32.46 13.92,7.81 28.41,11.71 43.46,11.71 15,0 29.35,-3.85 43.08,-11.52 13.74,-7.67 24.46,-18.39 32.13,-32.17 7.67,-13.79 11.52,-28.18 11.52,-43.18 0,-14.96 -3.85,-29.36 -11.52,-43.14 -7.67,-13.78 -18.39,-24.5 -32.13,-32.12 -13.73,-7.62 -28.08,-11.43 -43.08,-11.43 -15.05,0 -29.54,3.9 -43.46,11.66 -13.93,7.76 -24.65,18.58 -32.13,32.46 -7.48,13.87 -11.24,28.08 -11.24,42.57zm103.57 -33.35l5.08 -16.94c11.53,2.78 20.7,8.61 27.52,17.55 6.87,8.98 10.3,19.85 10.3,32.59 0,16.19 -5.22,29.31 -15.71,39.42 -10.49,10.11 -24.98,15.15 -43.55,15.15 -12.14,0 -22.68,-2.31 -31.61,-6.92 -8.99,-4.56 -15.71,-11.15 -20.28,-19.61 -4.56,-8.52 -6.82,-18.25 -6.82,-29.16 0,-12.23 2.92,-22.39 8.8,-30.48 5.88,-8.09 13.88,-13.6 23.94,-16.56l4.23 16.37c-6.91,2.77 -12.23,6.82 -15.89,12.23 -3.72,5.41 -5.55,11.71 -5.55,19 0,10.58 3.76,19.33 11.28,26.2 7.53,6.87 18.35,10.3 32.37,10.3 14.06,0 24.69,-3.24 31.89,-9.74 7.19,-6.49 10.81,-14.86 10.81,-25.16 0,-8.28 -2.39,-15.57 -7.24,-21.83 -4.8,-6.25 -11.33,-10.39 -19.57,-12.41z"/>
  <path id="1" class="fil5" d="M1403.83 2668.23l-18.58 0c14.44,9.27 21.68,22.91 21.68,40.92 0,11.67 -3.19,22.39 -9.64,32.13 -6.4,9.78 -15.38,17.35 -26.86,22.76 -11.52,5.37 -24.74,8.05 -39.69,8.05 -14.59,0 -27.8,-2.45 -39.7,-7.29 -11.86,-4.9 -20.98,-12.19 -27.29,-21.92 -6.35,-9.69 -9.5,-20.61 -9.5,-32.6 0,-8.84 1.88,-16.7 5.6,-23.56 3.72,-6.87 8.61,-12.47 14.58,-16.8l-72.67 0 0 -24.83 202.07 0 0 23.14zm-73.05 78.46c18.72,0 32.69,-3.95 41.96,-11.9 9.26,-7.91 13.87,-17.27 13.87,-28.04 0,-10.86 -4.42,-20.08 -13.26,-27.7 -8.84,-7.57 -22.34,-11.38 -40.5,-11.38 -19.94,0 -34.62,3.85 -43.98,11.61 -9.36,7.72 -14.01,17.27 -14.01,28.6 0,11.06 4.46,20.27 13.45,27.71 8.98,7.38 23.14,11.1 42.47,11.1z"/>
  <path id="2" class="fil5" d="M1343.15 2615.69l-24.83 0 0 -76.76 24.83 0 0 76.76z"/>
  <path id="3" class="fil5" d="M1403.83 2511.83l-146.47 0 0 -22.29 20.69 0c-7.15,-4.56 -12.93,-10.68 -17.26,-18.3 -4.37,-7.62 -6.54,-16.27 -6.54,-26.01 0,-10.82 2.26,-19.71 6.73,-26.62 4.52,-6.92 10.77,-11.81 18.86,-14.63 -17.07,-11.67 -25.59,-26.77 -25.59,-45.39 0,-14.58 4,-25.83 12.04,-33.63 8.05,-7.86 20.42,-11.81 37.12,-11.81l100.42 0 0 24.84 -92.19 0c-9.88,0 -17.03,0.84 -21.4,2.44 -4.38,1.6 -7.86,4.52 -10.54,8.8 -2.68,4.23 -4,9.22 -4,14.91 0,10.35 3.44,18.91 10.26,25.73 6.86,6.82 17.82,10.2 32.87,10.2l85 0 0 24.84 -95.06 0c-11.01,0 -19.29,2.02 -24.79,6.07 -5.5,4.04 -8.28,10.67 -8.28,19.85 0,6.96 1.84,13.4 5.51,19.33 3.66,5.93 9.03,10.21 16.13,12.89 7.05,2.63 17.26,3.95 30.57,3.95l75.92 0 0 24.83z"/>
  <path id="4" class="fil5" d="M1385.49 2181.07c7.85,9.22 13.35,18.11 16.6,26.62 3.25,8.52 4.84,17.64 4.84,27.43 0,16.08 -3.9,28.45 -11.75,37.11 -7.81,8.65 -17.83,12.98 -30.01,12.98 -7.15,0 -13.69,-1.65 -19.62,-4.89 -5.93,-3.29 -10.63,-7.57 -14.2,-12.84 -3.58,-5.32 -6.31,-11.24 -8.14,-17.88 -1.27,-4.89 -2.49,-12.27 -3.72,-22.1 -2.35,-20.04 -5.22,-34.86 -8.51,-44.31 -3.39,-0.1 -5.55,-0.14 -6.44,-0.14 -10.07,0 -17.17,2.35 -21.31,7.05 -5.6,6.35 -8.37,15.81 -8.37,28.32 0,11.71 2.07,20.36 6.16,25.92 4.09,5.59 11.38,9.68 21.78,12.37l-3.39 24.27c-10.4,-2.21 -18.82,-5.84 -25.21,-10.92 -6.4,-5.08 -11.29,-12.41 -14.77,-22.01 -3.44,-9.55 -5.18,-20.7 -5.18,-33.3 0,-12.51 1.46,-22.72 4.42,-30.57 2.97,-7.81 6.64,-13.6 11.11,-17.27 4.46,-3.67 10.11,-6.25 16.93,-7.76 4.23,-0.8 11.85,-1.22 22.81,-1.22l32.93 0c23,0 37.53,-0.52 43.69,-1.55 6.17,-0.99 12.05,-3.06 17.69,-6.07l0 25.96c-5.22,2.5 -11.34,4.1 -18.34,4.8zm-55.04 1.98c3.67,9.03 6.78,22.57 9.32,40.64 1.45,10.25 3.1,17.49 4.93,21.73 1.84,4.23 4.52,7.48 8,9.78 3.53,2.31 7.43,3.48 11.76,3.48 6.54,0 12.04,-2.49 16.42,-7.52 4.37,-5.04 6.58,-12.38 6.58,-22.02 0,-9.55 -2.07,-18.06 -6.25,-25.54 -4.14,-7.43 -9.84,-12.93 -17.03,-16.41 -5.6,-2.69 -13.83,-4 -24.7,-4l-9.03 -0.14z"/>
  <path id="5" class="fil5" d="M1459.99 2119.78l-202.63 0 0 -22.57 19.24 0c-7.44,-5.32 -13.03,-11.34 -16.75,-18.07 -3.72,-6.68 -5.6,-14.81 -5.6,-24.36 0,-12.51 3.2,-23.52 9.65,-33.07 6.39,-9.55 15.47,-16.74 27.14,-21.63 11.71,-4.85 24.5,-7.3 38.47,-7.3 14.91,0 28.37,2.69 40.36,8.05 11.95,5.36 21.12,13.17 27.52,23.42 6.35,10.21 9.54,20.98 9.54,32.27 0,8.28 -1.74,15.71 -5.22,22.25 -3.48,6.58 -7.85,11.94 -13.17,16.18l71.45 0 0 24.83zm-128.5 -22.57c18.77,0 32.69,-3.81 41.67,-11.39 8.99,-7.62 13.45,-16.84 13.45,-27.65 0,-11.01 -4.65,-20.42 -13.97,-28.23 -9.31,-7.85 -23.7,-11.76 -43.22,-11.76 -18.63,0 -32.55,3.81 -41.82,11.48 -9.26,7.67 -13.87,16.79 -13.87,27.42 0,10.54 4.94,19.85 14.77,27.94 9.87,8.14 24.17,12.19 42.99,12.19z"/>
  <path id="6" class="fil5" d="M1360.09 1972.7l-3.96 -24.55c9.84,-1.37 17.36,-5.22 22.63,-11.53 5.22,-6.3 7.85,-15.14 7.85,-26.43 0,-11.43 -2.3,-19.9 -6.96,-25.45 -4.61,-5.5 -10.06,-8.28 -16.32,-8.28 -5.6,0 -10.02,2.5 -13.22,7.44 -2.21,3.48 -4.98,11.94 -8.42,25.4 -4.56,18.15 -8.51,30.71 -11.85,37.77 -3.39,7 -7.99,12.32 -13.92,15.94 -5.88,3.62 -12.42,5.46 -19.57,5.46 -6.54,0 -12.56,-1.51 -18.11,-4.47 -5.55,-3.01 -10.16,-7.06 -13.83,-12.18 -2.82,-3.86 -5.22,-9.13 -7.19,-15.76 -1.98,-6.68 -2.97,-13.78 -2.97,-21.4 0,-11.48 1.65,-21.54 4.99,-30.2 3.29,-8.7 7.81,-15.1 13.45,-19.24 5.69,-4.09 13.27,-6.96 22.77,-8.51l3.38 24.27c-7.62,1.08 -13.59,4.28 -17.87,9.55 -4.28,5.27 -6.4,12.7 -6.4,22.34 0,11.34 1.88,19.47 5.65,24.32 3.76,4.84 8.18,7.29 13.21,7.29 3.2,0 6.12,-0.99 8.71,-3.01 2.63,-2.02 4.84,-5.18 6.58,-9.5 0.94,-2.5 3.06,-9.74 6.35,-21.87 4.66,-17.5 8.52,-29.73 11.48,-36.69 2.96,-6.96 7.34,-12.42 12.98,-16.37 5.69,-4 12.75,-5.98 21.21,-5.98 8.24,0 16,2.4 23.29,7.25 7.29,4.84 12.93,11.8 16.93,20.88 4,9.13 5.97,19.43 5.97,30.91 0,19 -3.95,33.53 -11.8,43.5 -7.9,9.98 -19.57,16.33 -35.04,19.1z"/>
  <path id="7" class="fil5" d="M1403.83 1814.66l-28.22 0 0 -28.22 28.22 0 0 28.22z"/>
  <path id="8" class="fil5" d="M1350.21 1647.63l3.38 -24.27c16.7,2.68 29.73,9.45 39.19,20.41 9.45,10.96 14.15,24.46 14.15,40.41 0,19.99 -6.53,36.08 -19.61,48.21 -13.08,12.18 -31.8,18.25 -56.16,18.25 -15.81,0 -29.59,-2.63 -41.39,-7.85 -11.86,-5.22 -20.75,-13.17 -26.63,-23.9 -5.92,-10.68 -8.89,-22.29 -8.89,-34.9 0,-15.85 4,-28.88 12.04,-38.95 8.05,-10.11 19.48,-16.6 34.25,-19.42l3.67 23.99c-9.83,2.3 -17.22,6.35 -22.2,12.23 -4.94,5.83 -7.44,12.88 -7.44,21.16 0,12.51 4.47,22.67 13.41,30.53 8.98,7.81 23.09,11.71 42.47,11.71 19.66,0 33.92,-3.76 42.81,-11.29 8.89,-7.57 13.35,-17.4 13.35,-29.49 0,-9.78 -2.96,-17.92 -8.93,-24.41 -5.93,-6.54 -15.1,-10.68 -27.47,-12.42z"/>
  <path id="9" class="fil5" d="M1330.59 1611.51c-27.04,0 -47.08,-7.53 -60.11,-22.63 -10.82,-12.56 -16.23,-27.94 -16.23,-46.05 0,-20.08 6.59,-36.54 19.76,-49.34 13.12,-12.75 31.33,-19.14 54.51,-19.14 18.82,0 33.59,2.82 44.36,8.46 10.77,5.65 19.14,13.88 25.12,24.7 5.97,10.77 8.93,22.58 8.93,35.32 0,20.51 -6.53,37.07 -19.66,49.72 -13.12,12.65 -32.03,18.96 -56.68,18.96zm0.05 -25.4c18.72,0 32.74,-4.1 42,-12.28 9.32,-8.23 13.97,-18.53 13.97,-31 0,-12.32 -4.65,-22.57 -14.01,-30.81 -9.36,-8.18 -23.61,-12.27 -42.76,-12.27 -18.06,0 -31.75,4.14 -41.01,12.37 -9.32,8.23 -13.97,18.48 -13.97,30.71 0,12.47 4.61,22.77 13.87,31 9.27,8.18 23.24,12.28 41.91,12.28z"/>
  <path id="10" class="fil5" d="M1403.83 1445.23l-146.47 0 0 -22.29 20.69 0c-7.15,-4.56 -12.93,-10.68 -17.26,-18.3 -4.37,-7.62 -6.54,-16.27 -6.54,-26.01 0,-10.82 2.26,-19.71 6.73,-26.62 4.52,-6.92 10.77,-11.81 18.86,-14.63 -17.07,-11.67 -25.59,-26.77 -25.59,-45.39 0,-14.58 4,-25.83 12.04,-33.63 8.05,-7.86 20.42,-11.81 37.12,-11.81l100.42 0 0 24.84 -92.19 0c-9.88,0 -17.03,0.84 -21.4,2.44 -4.38,1.6 -7.86,4.52 -10.54,8.8 -2.68,4.23 -4,9.22 -4,14.91 0,10.35 3.44,18.91 10.26,25.73 6.86,6.82 17.82,10.2 32.87,10.2l85 0 0 24.84 -95.06 0c-11.01,0 -19.29,2.02 -24.79,6.07 -5.5,4.04 -8.28,10.67 -8.28,19.85 0,6.96 1.84,13.4 5.51,19.33 3.66,5.93 9.03,10.21 16.13,12.89 7.05,2.63 17.26,3.95 30.57,3.95l75.92 0 0 24.83z"/>
  <g id="_2415087758480">
   <g>
    <path class="fil6 str4" d="M1736.26 1840.89l401.38 0 0 99.16 -401.38 0 0 -99.16z"/>
    <path class="fil7 str4" d="M2137.64 1840.89l401.38 0 0 99.16 -401.38 0 0 -99.16z"/>
    <path class="fil6 str4" d="M2539.02 1840.89l401.38 0 0 99.16 -401.38 0 0 -99.16z"/>
    <path class="fil7 str4" d="M2940.49 1840.89l401.38 0 0 99.16 -401.38 0 0 -99.16z"/>
    <path class="fil6 str4" d="M3341.88 1840.89l401.38 0 0 99.16 -401.38 0 0 -99.16z"/>
    <path class="fil7 str4" d="M3021.59 2139.83l641.97 0 0 99.16 -641.97 0 0 -99.16z"/>
    <path class="fil6 str4" d="M2379.63 2139.83l641.96 0 0 99.16 -641.96 0 0 -99.16z"/>
    <path class="fil7 str4" d="M1737.67 2139.83l641.96 0 0 99.16 -641.96 0 0 -99.16z"/>
   </g>
   <path class="fil8" d="M2369.26 1439.88l-13.47 29.28 -70.55 0 -15.47 31.28c30.81,4.52 55.04,15.81 72.79,33.98 15.23,15.64 22.82,33.99 22.82,55.15 0,12.29 -2.47,23.7 -7.47,34.11 -5,10.46 -11.29,19.4 -18.87,26.75 -7.53,7.35 -16,13.29 -25.29,17.75 -13.17,6.3 -26.69,9.47 -40.57,9.47 -13.99,0 -24.16,-2.35 -30.57,-7.11 -6.35,-4.71 -9.53,-9.94 -9.53,-15.64 0,-3.18 1.3,-6 3.94,-8.47 2.65,-2.47 6,-3.65 10,-3.65 2.94,0 5.58,0.42 7.82,1.36 2.23,0.88 6,3.23 11.4,6.99 8.59,5.94 17.35,8.88 26.17,8.88 13.4,0 25.22,-5.11 35.39,-15.29 10.12,-10.17 15.23,-22.57 15.23,-37.21 0,-14.12 -4.52,-27.34 -13.58,-39.57 -9.11,-12.29 -21.58,-21.76 -37.57,-28.4 -12.46,-5.18 -29.52,-8.18 -51.09,-9l44.8 -90.66 83.67 0z"/>
   <path id="1" class="fil8" d="M2405.24 1558.18c0,-26.64 4,-49.51 12.05,-68.74 8.06,-19.22 18.7,-33.57 32.05,-42.98 10.29,-7.47 20.99,-11.17 31.98,-11.17 17.94,0 33.99,9.11 48.22,27.34 17.81,22.64 26.69,53.27 26.69,91.96 0,27.05 -3.88,50.09 -11.7,69.03 -7.82,18.93 -17.76,32.63 -29.87,41.21 -12.11,8.53 -23.81,12.82 -35.04,12.82 -22.29,0 -40.81,-13.11 -55.62,-39.39 -12.53,-22.17 -18.76,-48.86 -18.76,-80.08zm33.87 4.23c0,32.1 3.94,58.33 11.82,78.67 6.52,17.11 16.28,25.63 29.22,25.63 6.17,0 12.58,-2.76 19.22,-8.34 6.65,-5.59 11.65,-14.88 15.11,-27.99 5.24,-19.7 7.88,-47.57 7.88,-83.43 0,-26.64 -2.76,-48.86 -8.23,-66.62 -4.11,-13.23 -9.46,-22.58 -15.99,-28.05 -4.65,-3.82 -10.35,-5.7 -16.99,-5.7 -7.76,0 -14.7,3.53 -20.76,10.52 -8.23,9.53 -13.87,24.46 -16.81,44.92 -3,20.41 -4.47,40.52 -4.47,60.39z"/>
   <path id="2" class="fil8" d="M2581.63 1558.18c0,-26.64 4,-49.51 12.05,-68.74 8.06,-19.22 18.7,-33.57 32.05,-42.98 10.29,-7.47 20.99,-11.17 31.98,-11.17 17.94,0 33.99,9.11 48.22,27.34 17.81,22.64 26.69,53.27 26.69,91.96 0,27.05 -3.88,50.09 -11.7,69.03 -7.82,18.93 -17.76,32.63 -29.87,41.21 -12.11,8.53 -23.81,12.82 -35.04,12.82 -22.29,0 -40.81,-13.11 -55.62,-39.39 -12.53,-22.17 -18.76,-48.86 -18.76,-80.08zm33.87 4.23c0,32.1 3.94,58.33 11.82,78.67 6.52,17.11 16.28,25.63 29.22,25.63 6.17,0 12.58,-2.76 19.22,-8.34 6.65,-5.59 11.65,-14.88 15.11,-27.99 5.24,-19.7 7.88,-47.57 7.88,-83.43 0,-26.64 -2.76,-48.86 -8.23,-66.62 -4.11,-13.23 -9.46,-22.58 -15.99,-28.05 -4.65,-3.82 -10.35,-5.7 -16.99,-5.7 -7.76,0 -14.7,3.53 -20.76,10.52 -8.23,9.53 -13.87,24.46 -16.81,44.92 -3,20.41 -4.47,40.52 -4.47,60.39z"/>
   <path id="3" class="fil8" d="M2891.38 1428.59l0 157.16 39.98 -36.63c8.52,-7.82 13.46,-12.76 14.81,-14.82 0.95,-1.41 1.42,-2.76 1.42,-4.17 0,-2.29 -1,-4.23 -2.89,-5.94 -1.88,-1.65 -4.99,-2.59 -9.4,-2.82l0 -5.65 68.61 0 0 5.65c-9.35,0.23 -17.17,1.7 -23.4,4.35 -6.23,2.7 -13.05,7.47 -20.52,14.29l-40.63 37.22 40.34 51.33c11.29,14.05 18.81,23.04 22.58,26.98 5.58,5.24 10.4,8.65 14.58,10.17 2.94,1.12 7.99,1.71 15.17,1.71l0 6.35 -76.73 0 0 -6.35c4.41,-0.12 7.35,-0.76 8.88,-1.94 1.58,-1.24 2.35,-2.88 2.35,-5.06 0,-2.64 -2.3,-6.88 -6.88,-12.7l-48.27 -61.79 0 52.21c0,10.23 0.7,16.93 2.11,20.17 1.47,3.17 3.47,5.46 6.12,6.88 2.64,1.35 8.35,2.11 17.17,2.23l0 6.35 -80.08 0 0 -6.35c7.99,0 14.05,-1 18.05,-2.94 2.41,-1.23 4.23,-3.17 5.46,-5.76 1.71,-3.76 2.59,-10.29 2.59,-19.52l0 -143.94c0,-18.05 -0.41,-29.1 -1.18,-33.16 -0.82,-4.05 -2.11,-6.82 -3.99,-8.35 -1.83,-1.58 -4.24,-2.35 -7.18,-2.35 -2.41,0 -6.05,1 -10.82,2.94l-2.93 -6.35 46.74 -19.4 7.94 0z"/>
   <path id="4" class="fil8" d="M3068.12 1544.89c11.41,-11.53 18.17,-18.17 20.22,-19.93 5.12,-4.36 10.65,-7.77 16.59,-10.18 5.93,-2.41 11.81,-3.64 17.63,-3.64 9.88,0 18.29,2.88 25.4,8.64 7.06,5.76 11.82,14.11 14.17,25.11 11.88,-13.88 21.88,-22.93 30.05,-27.28 8.17,-4.3 16.58,-6.47 25.22,-6.47 8.35,0 15.82,2.17 22.35,6.47 6.46,4.29 11.64,11.34 15.4,21.16 2.53,6.65 3.82,17.11 3.82,31.4l0 67.97c0,9.82 0.71,16.58 2.18,20.23 1.12,2.46 3.23,4.64 6.23,6.4 3.06,1.77 8,2.65 14.88,2.65l0 6.35 -77.26 0 0 -6.35 3.29 0c6.7,0 11.99,-1.29 15.76,-3.94 2.64,-1.82 4.52,-4.76 5.64,-8.76 0.47,-1.94 0.71,-7.47 0.71,-16.58l0 -67.91c0,-12.88 -1.53,-21.93 -4.65,-27.22 -4.52,-7.35 -11.7,-11.06 -21.63,-11.06 -6.06,0 -12.23,1.53 -18.41,4.59 -6.11,3 -13.58,8.7 -22.34,16.93l-0.35 1.94 0.7 7.41 0 75.32c0,10.7 0.59,17.4 1.77,20.05 1.23,2.59 3.46,4.82 6.76,6.58 3.29,1.77 8.93,2.65 16.87,2.65l0 6.35 -79.37 0 0 -6.35c8.64,0 14.58,-1 17.81,-3.06 3.24,-2.06 5.47,-5.17 6.7,-9.29 0.59,-1.94 0.89,-7.58 0.89,-16.93l0 -67.91c0,-12.88 -1.88,-22.17 -5.65,-27.87 -5.05,-7.41 -12.05,-11.11 -21.11,-11.11 -6.17,0 -12.28,1.7 -18.34,5.05 -9.47,5.06 -16.82,10.82 -21.93,17.17l0 84.67c0,10.29 0.7,16.93 2.12,20.05 1.41,3.06 3.52,5.35 6.35,6.94 2.76,1.53 8.4,2.29 16.93,2.29l0 6.35 -77.97 0 0 -6.35c7.24,0 12.29,-0.76 15.17,-2.29 2.89,-1.59 5.06,-4 6.59,-7.41 1.47,-3.35 2.23,-9.88 2.23,-19.58l0 -60.33c0,-17.28 -0.53,-28.45 -1.53,-33.51 -0.82,-3.82 -2.05,-6.41 -3.82,-7.82 -1.7,-1.47 -4.05,-2.18 -6.99,-2.18 -3.24,0 -7.06,0.89 -11.53,2.59l-2.58 -6.35 47.62 -19.4 7.41 0 0 33.75z"/>
   <path class="fil8" d="M2272.46 2454.46c6.64,-15.76 15.11,-27.93 25.28,-36.51 10.17,-8.59 22.87,-12.88 38.04,-12.88 18.76,0 33.11,6.06 43.1,18.23 7.59,9.05 11.41,18.75 11.41,29.1 0,16.99 -10.7,34.57 -32.11,52.68 14.41,5.65 25.29,13.64 32.7,24.11 7.35,10.41 11.05,22.7 11.05,36.81 0,20.22 -6.47,37.69 -19.34,52.5 -16.76,19.29 -41.1,28.93 -72.97,28.93 -15.76,0 -26.46,-1.94 -32.16,-5.88 -5.71,-3.88 -8.53,-8.11 -8.53,-12.58 0,-3.35 1.35,-6.23 4.06,-8.76 2.7,-2.53 5.94,-3.82 9.76,-3.82 2.88,0 5.82,0.47 8.82,1.41 1.94,0.59 6.35,2.7 13.29,6.35 6.88,3.64 11.7,5.82 14.34,6.52 4.24,1.3 8.82,1.94 13.64,1.94 11.76,0 21.93,-4.52 30.64,-13.64 8.7,-9.05 13.05,-19.81 13.05,-32.22 0,-9.05 -2,-17.93 -6.06,-26.51 -3,-6.47 -6.29,-11.35 -9.82,-14.65 -4.99,-4.58 -11.76,-8.76 -20.4,-12.52 -8.64,-3.7 -17.46,-5.58 -26.46,-5.58l-5.52 0 0 -5.3c9.11,-1.17 18.16,-4.41 27.34,-9.82 9.11,-5.4 15.75,-11.87 19.87,-19.46 4.17,-7.58 6.23,-15.87 6.23,-24.99 0,-11.81 -3.7,-21.34 -11.11,-28.63 -7.47,-7.29 -16.7,-10.94 -27.75,-10.94 -17.82,0 -32.69,9.65 -44.69,28.87l-5.7 -2.76z"/>
   <path id="1" class="fil8" d="M2443.91 2527.96c0,-26.64 4,-49.51 12.05,-68.74 8.06,-19.22 18.7,-33.57 32.05,-42.98 10.29,-7.47 20.99,-11.17 31.98,-11.17 17.94,0 33.99,9.11 48.22,27.34 17.81,22.64 26.69,53.27 26.69,91.96 0,27.05 -3.88,50.09 -11.7,69.03 -7.82,18.93 -17.76,32.63 -29.87,41.21 -12.11,8.53 -23.81,12.82 -35.04,12.82 -22.29,0 -40.81,-13.11 -55.62,-39.39 -12.53,-22.17 -18.76,-48.86 -18.76,-80.08zm33.87 4.23c0,32.1 3.94,58.33 11.82,78.67 6.52,17.11 16.28,25.63 29.22,25.63 6.17,0 12.58,-2.76 19.22,-8.34 6.65,-5.59 11.65,-14.88 15.11,-27.99 5.24,-19.7 7.88,-47.57 7.88,-83.43 0,-26.64 -2.76,-48.86 -8.23,-66.62 -4.11,-13.23 -9.46,-22.58 -15.99,-28.05 -4.65,-3.82 -10.35,-5.7 -16.99,-5.7 -7.76,0 -14.7,3.53 -20.76,10.52 -8.23,9.53 -13.87,24.46 -16.81,44.92 -3,20.41 -4.47,40.52 -4.47,60.39z"/>
   <path id="2" class="fil8" d="M2620.3 2527.96c0,-26.64 4,-49.51 12.05,-68.74 8.06,-19.22 18.7,-33.57 32.05,-42.98 10.29,-7.47 20.99,-11.17 31.98,-11.17 17.94,0 33.99,9.11 48.22,27.34 17.81,22.64 26.69,53.27 26.69,91.96 0,27.05 -3.88,50.09 -11.7,69.03 -7.82,18.93 -17.76,32.63 -29.87,41.21 -12.11,8.53 -23.81,12.82 -35.04,12.82 -22.29,0 -40.81,-13.11 -55.62,-39.39 -12.53,-22.17 -18.76,-48.86 -18.76,-80.08zm33.87 4.23c0,32.1 3.94,58.33 11.82,78.67 6.52,17.11 16.28,25.63 29.22,25.63 6.17,0 12.58,-2.76 19.22,-8.34 6.65,-5.59 11.65,-14.88 15.11,-27.99 5.24,-19.7 7.88,-47.57 7.88,-83.43 0,-26.64 -2.76,-48.86 -8.23,-66.62 -4.11,-13.23 -9.46,-22.58 -15.99,-28.05 -4.65,-3.82 -10.35,-5.7 -16.99,-5.7 -7.76,0 -14.7,3.53 -20.76,10.52 -8.23,9.53 -13.87,24.46 -16.81,44.92 -3,20.41 -4.47,40.52 -4.47,60.39z"/>
   <path id="3" class="fil8" d="M2930.4 2514.67c11.41,-11.53 18.17,-18.17 20.22,-19.93 5.12,-4.36 10.65,-7.77 16.59,-10.18 5.93,-2.41 11.81,-3.64 17.63,-3.64 9.88,0 18.29,2.88 25.4,8.64 7.06,5.76 11.82,14.11 14.17,25.11 11.88,-13.88 21.88,-22.93 30.05,-27.28 8.17,-4.3 16.58,-6.47 25.22,-6.47 8.35,0 15.82,2.17 22.35,6.47 6.46,4.29 11.64,11.34 15.4,21.16 2.53,6.65 3.82,17.11 3.82,31.4l0 67.97c0,9.82 0.71,16.58 2.18,20.23 1.12,2.46 3.23,4.64 6.23,6.4 3.06,1.77 8,2.65 14.88,2.65l0 6.35 -77.26 0 0 -6.35 3.29 0c6.7,0 11.99,-1.29 15.76,-3.94 2.64,-1.82 4.52,-4.76 5.64,-8.76 0.47,-1.94 0.71,-7.47 0.71,-16.58l0 -67.91c0,-12.88 -1.53,-21.93 -4.65,-27.22 -4.52,-7.35 -11.7,-11.06 -21.63,-11.06 -6.06,0 -12.23,1.53 -18.41,4.59 -6.11,3 -13.58,8.7 -22.34,16.93l-0.35 1.94 0.7 7.41 0 75.32c0,10.7 0.59,17.4 1.77,20.05 1.23,2.59 3.46,4.82 6.76,6.58 3.29,1.77 8.93,2.65 16.87,2.65l0 6.35 -79.37 0 0 -6.35c8.64,0 14.58,-1 17.81,-3.06 3.24,-2.06 5.47,-5.17 6.7,-9.29 0.59,-1.94 0.89,-7.58 0.89,-16.93l0 -67.91c0,-12.88 -1.88,-22.17 -5.65,-27.87 -5.05,-7.41 -12.05,-11.11 -21.11,-11.11 -6.17,0 -12.28,1.7 -18.34,5.05 -9.47,5.06 -16.82,10.82 -21.93,17.17l0 84.67c0,10.29 0.7,16.93 2.12,20.05 1.41,3.06 3.52,5.35 6.35,6.94 2.76,1.53 8.4,2.29 16.93,2.29l0 6.35 -77.97 0 0 -6.35c7.24,0 12.29,-0.76 15.17,-2.29 2.89,-1.59 5.06,-4 6.59,-7.41 1.47,-3.35 2.23,-9.88 2.23,-19.58l0 -60.33c0,-17.28 -0.53,-28.45 -1.53,-33.51 -0.82,-3.82 -2.05,-6.41 -3.82,-7.82 -1.7,-1.47 -4.05,-2.18 -6.99,-2.18 -3.24,0 -7.06,0.89 -11.53,2.59l-2.58 -6.35 47.62 -19.4 7.41 0 0 33.75z"/>
   <path id="4" class="fil8" d="M3198.04 2398.37c4.76,0 8.88,1.7 12.29,5.05 3.35,3.41 5.05,7.53 5.05,12.29 0,4.82 -1.7,9 -5.05,12.41 -3.41,3.47 -7.53,5.17 -12.29,5.17 -4.82,0 -9,-1.7 -12.41,-5.17 -3.47,-3.41 -5.17,-7.59 -5.17,-12.41 0,-4.76 1.7,-8.88 5.05,-12.29 3.41,-3.35 7.59,-5.05 12.53,-5.05zm14.17 82.55l0 127c0,9.82 0.7,16.34 2.17,19.58 1.41,3.29 3.53,5.7 6.35,7.29 2.82,1.59 8,2.41 15.47,2.41l0 6.35 -76.56 0 0 -6.35c7.65,0 12.82,-0.76 15.41,-2.23 2.64,-1.47 4.7,-3.94 6.29,-7.35 1.53,-3.41 2.29,-10 2.29,-19.7l0 -61.03c0,-16.99 -0.53,-27.99 -1.53,-33.05 -0.82,-3.64 -2.05,-6.17 -3.82,-7.58 -1.7,-1.47 -4.06,-2.18 -7,-2.18 -3.23,0 -7.11,0.89 -11.7,2.59l-2.41 -6.35 47.45 -19.4 7.59 0z"/>
  </g>
  <path class="fil3 str5" d="M1016.13 1012.46l18825.35 0 0 21622 -18825.35 0 0 -21622z"/>
  <g id="_2415087824560">
   <path class="fil4 str3" d="M4016.22 1251.9l815.93 0 0 1592.89 -815.93 0 0 -1592.89z"/>
   <path class="fil9" d="M4364.32 1688.03c-0.92,3.32 -1.63,6.35 -2.07,9.15 -0.44,2.79 -0.65,5.18 -0.65,7.22 0,5.59 1.8,9.56 5.29,11.89 3.49,2.33 9.55,3.49 18.05,3.49l4.15 0 -4.96 22.72 -78.17 0 5.29 -22.72 2.89 0c7.36,0 12.82,-1.51 16.48,-4.54 3.6,-2.97 6.32,-8.39 8.12,-16.14l37.59 -153.79c0.6,-2.74 1.14,-5.54 1.52,-8.45 0.33,-2.91 0.55,-5.77 0.55,-8.62 0,-5.36 -1.96,-9.15 -5.95,-11.36 -3.92,-2.22 -10.69,-3.32 -20.23,-3.32l-3.06 0 5.29 -22.72 72.33 0 62.14 183.5 31.31 -129.03c1.08,-4.2 1.85,-7.63 2.34,-10.31 0.49,-2.68 0.71,-4.72 0.71,-6.06 0,-5.6 -1.8,-9.56 -5.35,-11.89 -3.6,-2.33 -9.71,-3.49 -18.32,-3.49l-4.15 0 4.96 -22.72 78.5 0 -5.62 22.72 -2.84 0c-7.37,0 -12.87,1.51 -16.47,4.54 -3.66,2.97 -6.33,8.33 -8.18,15.96l-50.68 208.44 -21.54 0 -72.06 -209.48 -37.21 155.01z"/>
   <path class="fil10 str6" d="M4425.01 2711.59l0 -769.27"/>
   <path class="fil10 str6" d="M4142.96 2435.54l563.14 0"/>
   <path class="fil10 str6" d="M4280.11 2575.53l294.22 -286.81"/>
   <path class="fil10 str6" d="M4276.97 2288.48l297.98 288.85"/>
   <path class="fil10 str6" d="M4424.87 1945.05l-95.47 118.01"/>
   <path class="fil10 str6" d="M4425.49 1945.01l87.89 118.05"/>
  </g>
 </g>
</svg>
