<?xml version="1.0" encoding="UTF-8"?>
<!DOCTYPE svg PUBLIC "-//W3C//DTD SVG 1.1//EN" "http://www.w3.org/Graphics/SVG/1.1/DTD/svg11.dtd">
<!-- Creator: CorelDRAW -->
<svg xmlns="http://www.w3.org/2000/svg" xml:space="preserve" width="297mm" height="210mm" version="1.1" style="shape-rendering:geometricPrecision; text-rendering:geometricPrecision; image-rendering:optimizeQuality; fill-rule:evenodd; clip-rule:evenodd"
viewBox="0 0 29700 21000"
 xmlns:xlink="http://www.w3.org/1999/xlink">
 <defs>
  <style type="text/css">
   <![CDATA[
    .str1 {stroke:black;stroke-width:10;stroke-miterlimit:3.864;stroke-opacity:0.501961}
    .str3 {stroke:black;stroke-width:50;stroke-miterlimit:22.9256}
    .str2 {stroke:#3F3E3F;stroke-width:10;stroke-miterlimit:3.864}
    .str0 {stroke:black;stroke-width:10;stroke-miterlimit:22.9256}
    .str4 {stroke:black;stroke-width:7.62;stroke-miterlimit:22.9256}
    .fil6 {fill:none}
    .fil0 {fill:#FEFEFE}
    .fil1 {fill:#FEFEFE;fill-rule:nonzero}
    .fil4 {fill:#D9DADA;fill-rule:nonzero}
    .fil7 {fill:#434242;fill-rule:nonzero}
    .fil5 {fill:#2B2A29;fill-rule:nonzero}
    .fil3 {fill:black;fill-rule:nonzero}
    .fil2 {fill:#FEFEFE;fill-rule:nonzero;fill-opacity:0.501961}
   ]]>
  </style>
 </defs>
 <g id="Plan_x0020_1">
  <metadata id="CorelCorpID_0Corel-Layer"/>
  <rect class="fil0" x="1003.47" y="1000.15" width="27157.51" height="18984.6"/>
  <path class="fil1 str0" d="M27060.52 12219.79l-51.82 0c-17.64,0 -27.55,-13.23 -45.19,-13.23 -35.28,0 -41.91,37.5 -66.15,61.74 -17.64,17.64 -44.1,23.14 -44.1,48.51 0,17.64 13.23,26.45 13.23,44.09 0,19.87 -15.45,35.28 -35.27,35.28 -34.19,0 -54.01,-3.31 -88.2,0 -22.05,2.22 -31.96,13.23 -52.92,17.64 -19.86,4.41 -31.96,3.32 -52.91,4.41 -8.82,-37.46 -27.55,-56.23 -48.51,-88.19 -23.14,17.63 -33.09,38.59 -52.92,61.73 -15.45,17.64 -26.45,30.87 -30.86,52.92 -5.51,26.46 -4.41,47.41 -17.64,70.55 -12.14,20.96 -16.55,46.32 -39.69,52.92 -12.14,3.32 -23.14,0 -35.28,4.41 -22.05,7.73 -31.96,25.37 -52.91,35.28 -19.87,9.91 -36.38,14.32 -52.92,30.87 27.55,6.63 61.74,9.91 61.74,38.59 0,20.96 -4.41,33.06 -4.41,54.01 0,14.32 18.73,15.45 30.86,22.05l-17.64 74.96c7.73,20.96 9.92,38.6 26.46,52.92 20.96,18.73 44.1,15.45 72.75,13.23 -2.19,30.87 -2.19,48.51 0,79.38l112.46 0c27.55,-27.56 22.05,-59.52 39.69,-92.61 7.72,-15.42 24.23,-14.32 35.28,-26.46 29.77,-33.05 33.05,-65.05 44.09,-110.24 4.41,-19.83 -2.22,-39.69 13.23,-52.92 4.41,-3.31 12.14,1.1 17.64,0 13.23,-4.41 23.14,-7.72 35.28,-13.23 43,-18.73 67.24,-39.68 114.65,-39.68 41.88,0 61.74,26.45 97.02,48.5 18.73,11.05 34.18,15.45 52.91,26.46 14.33,8.82 16.55,25.37 30.87,35.28 4.41,2.22 12.14,2.22 17.64,4.41 8.82,-37.47 8.82,-61.74 22.05,-97.01 14.32,-37.47 41.91,-50.7 70.55,-79.38 49.6,-49.6 84.88,-72.74 141.12,-114.65 -56.24,-41.88 -68.34,-101.43 -57.33,-171.98 -9.91,-3.32 -15.42,-6.6 -26.46,-8.82l-44.1 22.05c-23.14,-11.01 -27.55,-30.87 -48.5,-44.1 -25.37,-16.55 -61.74,-17.64 -83.79,-39.69zm224.9 35.28c17.64,15.45 33.09,26.46 57.32,26.46 19.87,0 37.5,-11.01 39.69,-30.87 0,-6.63 -4.41,-11.04 -4.41,-17.64 0,-51.82 31.96,-73.87 48.51,-123.47 -6.6,-1.09 -11.01,-9.91 -17.64,-8.82 -35.28,6.6 -46.28,38.59 -61.74,70.56 -17.64,36.37 -31.96,57.32 -61.73,83.78zm-1869.72 383.65c-18.74,0 -27.56,-11.05 -46.32,-11.05 -11.01,0 -17.08,7.73 -24.24,15.46 -19.86,21.48 -23.71,51.25 -52.92,55.14 -25.36,3.28 -41.34,-7.2 -66.14,0 -12.67,3.28 -26.46,8.81 -26.46,22.04 0,16.51 17.64,19.83 30.87,28.65 7.72,4.97 10.47,11.57 17.64,17.64 17.63,15.45 28.64,23.14 48.5,35.28 14.33,8.82 18.21,20.39 30.87,30.86 18.2,15.46 26.46,32.53 26.46,56.77l0 40.25 -4.41 8.82c-15.45,-23.14 -20.96,-40.25 -35.28,-63.93 -7.16,-12.13 -12.13,-26.45 -26.46,-26.45 -14.88,0 -22.61,5.5 -37.5,6.59 -11.57,1.1 -26.46,1.66 -26.46,13.23 0,11.57 10.48,15.98 17.64,24.27 11.61,13.76 17.11,23.67 30.87,35.28 6.63,5.5 12.7,8.82 17.64,15.42 18.2,24.27 12.7,45.75 19.86,74.96 14.32,-4.41 24.24,-6.07 37.47,-13.23 8.29,-4.41 10.47,-11.57 17.64,-17.64 15.45,-13.22 30.33,-17.63 51.29,-17.63l17.07 0c0,15.98 5.51,25.36 11.05,39.68 2.75,6.64 6.03,10.48 8.82,17.64 3.84,9.91 4.4,24.27 15.41,24.27 16.55,0 20.96,-15.45 30.87,-28.68 9.91,-13.23 24.27,-18.73 24.27,-35.28 0,-4.97 -5.54,-6.06 -8.82,-8.82 -10.48,-8.81 -17.64,-12.66 -28.68,-19.82 -12.66,-8.29 -22.05,-12.14 -35.28,-19.86 4.41,-14.33 11.04,-23.14 11.04,-38.6 0,-26.98 -15.45,-40.78 -15.45,-67.8l0 -14.85 17.08 0c20.95,0 27.58,19.26 44.66,30.87 6.07,3.84 12.13,6.59 17.64,11 14.89,12.67 11.04,29.78 17.64,48.51 14.88,43.53 66.14,52.92 66.14,99.24 0,8.82 -12.13,8.82 -17.64,15.41 -15.41,18.21 -29.77,27.55 -37.46,50.73 4.41,2.19 7.69,6.6 13.23,6.6 5.5,0 7.69,-3.32 13.23,-4.41 10.44,-1.66 15.98,-1.09 26.46,-2.19 0,12.1 -9.95,17.08 -13.23,28.65 -4.98,15.98 -5.54,27.02 -6.64,44.09 -1.65,25.9 -10.47,39.69 -24.23,61.74 -14.36,23.14 -21.52,38.03 -30.87,63.96 -7.73,21.48 -14.36,46.28 -37.5,46.28 -12.66,0 -18.73,-9.91 -26.46,-19.82l-2.19 8.82 5.51 17.64 0 88.72c0,21.52 -9.92,33.09 -9.92,54.57 0,14.89 19.83,15.46 26.46,28.68 3.85,7.7 4.41,14.33 4.41,23.15 0,33.05 -6.06,51.82 -11.04,84.88l4.41 17.63c-7.16,22.62 -24.8,29.21 -28.65,52.92 30.31,12.14 54.02,12.14 77.16,35.28 13.23,13.23 19.29,23.14 35.28,33.09 11.04,6.6 17.63,15.42 30.86,15.42 12.67,0 17.08,-12.14 26.46,-19.83 17.08,-14.36 20.39,-30.34 28.68,-50.73 7.16,14.32 13.23,23.71 13.23,39.69 0,25.36 -6.07,40.78 -15.45,63.96 -3.85,10.44 -8.82,16.51 -8.82,28.08l0 18.2c2.75,-0.56 6.07,1.09 8.82,0 11.04,-6.07 10.48,-18.73 19.86,-26.46 24.8,-21.48 44.63,-26.46 74.97,-39.68 13.75,-5.51 21.48,-12.67 35.27,-19.83 20.92,-11.04 45.72,-13.79 48.51,-37.5l-11.04 -67.24 2.22 -14.32c23.14,7.69 34.72,15.41 57.33,24.23 8.25,3.32 12.66,8.82 22.05,8.82 13.23,0 17.07,-14.32 22.05,-26.46 3.28,-8.25 7.16,-14.32 11,-22.05 8.82,-15.98 12.67,-25.89 17.64,-44.09 8.82,-34.19 18.73,-51.83 28.68,-85.97 9.92,-33.66 6.6,-53.49 13.23,-88.2 7.69,-38.59 14.32,-58.45 22.05,-97.01 7.69,-40.25 8.82,-61.74 17.64,-101.43 3.84,-18.2 9.35,-28.68 15.42,-46.32 5.5,-15.41 9.38,-24.8 15.45,-39.68 13.23,-33.06 28.64,-48.51 50.69,-77.16 11.57,-15.45 21.48,-23.17 33.09,-39.68 11.01,-16.02 26.46,-22.62 26.46,-41.91 0,-4.41 -8.82,-2.19 -8.82,-6.6 0,-9.38 4.41,-14.89 4.41,-24.27 0,-28.65 -19.86,-43.01 -19.86,-71.65 0,-24.27 8.82,-37.5 8.82,-61.74 0,-20.95 -14.32,-40.78 -35.28,-40.78 -4.41,0 -7.16,3.28 -11.01,4.41 -25.93,7.69 -41.34,13.23 -68.36,13.23 -22.62,0 -44.1,-14.89 -44.1,-37.5 0,-7.73 4.41,-11.57 8.82,-17.64 5.5,-7.16 6.07,-14.89 13.23,-19.82 23.7,-17.11 52.91,-25.93 52.91,-55.71l0 -45.19c0,-11.57 -3.84,-24.8 -15.41,-24.8 -8.82,0 -11.04,10.48 -17.64,15.42 -14.36,10.47 -23.18,17.64 -39.69,24.27 -20.43,8.25 -33.09,13.23 -55.14,13.23 -11.57,0 -17.07,-7.73 -26.46,-13.23 -9.91,-6.07 -15.98,-11.57 -26.46,-17.64 -23.14,-14.32 -38.59,-20.96 -57.32,-39.69 -9.39,-9.38 -15.42,-17.07 -26.46,-24.27 -11.01,-7.16 -20.95,-10.44 -26.46,-22.05 -8.25,-16.51 -1.66,-29.74 -4.41,-48.5 -5.5,-1.1 -9.38,-4.94 -15.41,-4.41 -3.89,0 -4.98,3.88 -8.82,4.41 -10.48,1.12 -16.55,3.31 -26.46,0 -14.36,-4.41 -17.64,-18.74 -28.68,-28.65 -2.75,-2.22 -6.6,2.19 -11.01,2.19 -4.41,0 -6.63,4.41 -11.04,4.41 -22.61,2.22 -38.03,-2.19 -57.33,8.82 -14.32,8.29 -18.73,19.86 -28.64,33.09 -7.73,10.47 -14.36,15.98 -24.27,24.23 -13.8,11.61 -19.3,22.62 -30.87,37.5 -11.57,15.42 -24.8,20.39 -39.69,33.06 -13.79,11.6 -23.71,18.2 -35.28,33.09 -13.79,18.2 -25.36,35.28 -48.5,35.28zm-1578.69 92.6c0,13.23 8.82,26.46 22.05,26.46 23.15,0 29.78,-26.46 52.92,-26.46 20.95,0 31.96,8.82 52.92,8.82 35.27,0 55.14,-11.04 88.19,-22.05 26.46,-8.82 57.33,-16.54 57.33,-45.19 0,-19.86 -3.32,-32 -4.41,-51.82 -22.05,0 -36.37,6.59 -57.33,8.82 -35.28,4.41 -58.42,3.31 -92.6,13.23 -35.28,9.91 -55.11,25.36 -83.79,48.5 -15.41,12.14 -35.28,18.74 -35.28,39.69zm1203.86 -463.02c0,29.77 15.45,44.1 35.28,66.15 23.14,-46.29 30.86,-77.19 52.91,-123.48 12.14,-26.45 9.92,-48.5 22.05,-74.96 3.32,-7.73 12.14,-6.63 17.64,-13.23l0 -70.56c-11.01,-3.31 -19.83,-12.13 -30.87,-8.82 -34.18,12.14 -35.28,47.42 -39.69,83.79 -5.5,44.1 -19.82,67.24 -39.68,105.83 -6.6,13.23 -17.64,19.83 -17.64,35.28zm551.21 1825.62c-25.36,0 -44.09,23.15 -44.09,48.51 0,15.45 12.13,24.27 22.05,35.28 6.59,7.73 11,17.64 22.04,17.64 25.37,0 61.74,-1.1 61.74,-26.46 0,-24.24 -18.73,-35.28 -35.28,-52.92 -2.18,-3.31 3.32,-11 0,-13.23 -7.72,-6.59 -15.41,-8.82 -26.46,-8.82zm149.93 35.28c0,17.64 17.64,24.27 35.28,26.46 9.92,-25.36 9.92,-43 13.23,-70.55 4.41,-36.38 24.27,-52.92 30.87,-88.2 4.41,-23.14 1.09,-37.5 4.41,-61.74 -7.73,2.19 -17.64,-5.5 -22.05,0 -18.73,20.96 -19.83,44.1 -30.87,70.56 -18.73,45.19 -30.87,73.87 -30.87,123.47zm-207.25 -1018.64c-13.23,5.5 -22.05,8.82 -35.28,13.23 -7.73,2.22 -8.82,13.22 -17.64,13.22 -14.32,0 -17.64,-16.54 -26.46,-26.45 -4.41,-5.51 -12.13,-7.73 -17.64,-13.23 -34.18,26.46 -66.14,48.5 -66.14,92.6 0,17.64 27.55,12.14 35.28,26.46 6.59,12.14 6.59,23.14 13.22,35.28 3.32,6.63 12.14,4.41 17.64,8.82 13.23,-18.74 22.05,-34.19 35.28,-52.92 14.32,-19.83 39.69,-18.73 52.92,-39.69 11.04,-17.64 9.91,-35.27 8.82,-57.32zm-635 -119.07c-27.55,4.41 -66.15,-5.5 -66.15,22.05 0,19.86 12.14,30.87 13.23,50.73l72.78 0c-1.13,-22.05 0,-33.09 0,-55.14 0,-7.72 -18.77,-11 -19.86,-17.64zm1777.12 -1733.02c0,20.96 9.91,31.97 13.22,52.92 6.64,0 9.92,4.41 16.55,4.41 27.55,0 54.01,-16.55 54.01,-44.1 0,-23.14 -16.54,-46.32 -39.69,-44.09 -20.95,2.18 -44.09,9.91 -44.09,30.86zm410.1 868.72c7.16,22.61 14.32,34.18 19.86,57.33 10.44,-0.57 16.51,0 26.46,-2.19 8.25,-1.66 8.82,-12.14 17.64,-13.23 6.6,-1.13 11.01,1.62 17.64,2.19 0.53,-8.26 2.18,-13.23 2.18,-21.49 0,-20.39 -12.13,-30.34 -26.45,-44.66 -17.08,17.07 -33.62,20.39 -57.33,22.05zm-2028.47 2994.2l35.28 97.01c5.5,-1.09 13.22,4.41 17.63,0 29.78,-29.77 31.97,-58.42 61.74,-88.19 24.27,-24.27 35.28,-41.91 61.74,-61.74 11.04,-7.72 30.86,-7.72 30.86,-22.05 0,-16.54 -2.18,-41.91 -17.63,-39.68 -29.78,5.5 -46.29,22.05 -70.56,39.68 -19.83,14.33 -30.87,28.65 -52.92,39.69 -19.82,9.92 -33.05,8.82 -52.91,17.64 -7.73,3.32 -6.6,12.14 -13.23,17.64zm-463.02 749.65c-8.82,-14.32 -13.23,-35.28 -30.87,-35.28 -11.04,0 -16.55,8.82 -26.46,13.23 1.09,5.51 -2.22,12.14 0,17.64 4.41,7.73 13.23,6.64 17.64,13.23l-4.41 17.64c-30.87,12.14 -47.41,36.37 -52.92,70.56l17.64 4.41c44.1,-22.05 63.92,-45.19 105.83,-70.56 38.6,-23.14 79.38,-41.91 79.38,-88.19 0,-14.33 -13.23,-20.96 -22.05,-30.87 -26.46,38.59 -56.23,50.69 -83.78,88.19zm357.18 -564.44l-17.63 -8.82c-4.41,8.82 -13.23,15.45 -13.23,26.46 0,36.37 27.55,59.55 61.73,70.55 4.41,-8.82 13.23,-15.41 13.23,-26.46 0,-23.14 -26.46,-48.5 -44.1,-61.73zm-493.88 705.55c-27.56,8.82 -45.2,9.92 -74.97,13.23 1.09,29.78 0,45.19 0,74.97 12.14,4.41 17.64,13.23 30.87,13.23 14.32,0 18.73,-15.42 30.87,-22.05 11,-5.5 27.55,1.09 35.27,-8.82 11.05,-13.23 4.41,-26.46 4.41,-44.1 0,-11 -23.14,-16.54 -26.45,-26.46zm-1477.26 837.85l0 57.33 17.64 4.41c51.82,-25.37 79.37,-59.52 92.6,-114.66 -9.91,0 -20.95,-6.63 -26.46,0 -8.82,11.01 -4.41,25.37 -13.23,35.28 -18.73,19.86 -43,14.32 -70.55,17.64zm-105.83 22.05c-13.23,-2.22 -23.15,-5.5 -35.28,-8.82 -6.64,26.46 -18.74,40.78 -35.28,61.74 7.73,1.09 9.91,8.82 17.64,8.82 7.72,0 9.91,-8.82 17.64,-8.82 13.23,0 22.05,8.82 35.28,8.82 13.22,0 20.95,-9.92 30.86,-17.64 -6.59,-12.14 -22.05,-34.19 -30.86,-44.1zm-1519.15 404.59l0 169.79c0,23.14 18.73,34.15 37.5,47.38 18.73,13.23 22.04,32 30.86,52.92 8.82,19.86 18.74,31.99 22.05,52.91 5.51,26.46 3.28,46.32 13.23,70.56 2.19,5.54 0,14.36 4.41,17.64 4.41,3.31 12.1,-2.19 17.64,0 15.42,6.63 26.46,12.13 35.28,26.46 34.15,50.73 51.79,82.69 70.55,141.11 15.42,46.32 5.51,83.78 35.28,123.47 3.28,4.41 12.1,1.13 17.64,4.41 25.33,-76.06 11.01,-125.66 26.46,-202.85 3.28,-19.82 9.91,-33.05 13.23,-52.91 3.28,-20.92 8.82,-34.15 17.64,-52.92 18.73,-37.47 42.97,-50.7 61.73,-88.2 36.37,-73.83 49.6,-120.15 88.2,-194.02 55.1,-105.84 65.01,-177.49 110.24,-286.64 20.92,-50.69 44.1,-73.87 66.15,-123.47 16.51,-37.46 15.41,-65.05 22.04,-105.83 3.29,-19.83 8.82,-31.96 8.82,-52.92 0,-41.87 -26.45,-63.92 -26.45,-105.83 0,-47.41 44.09,-67.24 44.09,-114.65 0,-25.37 -31.99,-27.56 -52.91,-39.69 -12.14,-6.6 -18.77,-15.42 -30.87,-22.05 -23.18,-13.23 -34.19,-35.28 -61.74,-35.28 -19.86,0 -29.77,14.32 -44.09,26.46 -25.37,22.05 -41.91,36.37 -70.56,52.92 -41.91,24.27 -76.09,28.68 -105.83,66.14 -18.77,24.27 -23.18,43.01 -35.28,70.56 -26.46,58.42 -51.82,91.51 -97.02,136.7 -37.5,37.5 -39.68,76.06 -79.37,110.24 -36.41,30.87 -69.46,47.42 -83.79,92.61 -15.45,47.41 -11.04,78.28 -22.04,127.88 -5.54,27.55 -13.23,44.1 -22.05,70.55 -2.22,6.64 -11.04,8.82 -11.04,16.55zm-4178.22 1579.78c-28.68,0 -41.91,-22.04 -70.55,-22.04 -15.45,0 -24.27,8.82 -35.28,17.64 -5.5,4.4 -3.32,14.32 -8.82,17.63 -11.04,7.73 -22.05,7.73 -35.28,13.23 -13.23,5.51 -20.95,13.23 -35.27,13.23 -8.82,0 -5.51,-14.32 -13.23,-17.64 -18.74,-9.91 -31.97,-13.23 -52.92,-17.64l-17.64 8.82c17.64,17.64 29.78,28.68 44.1,48.51 -25.37,13.23 -40.78,22.05 -66.15,35.28 -40.78,22.05 -48.5,57.32 -83.78,88.19 -19.86,16.55 -29.78,31.96 -52.92,44.1 -39.69,22.05 -79.37,41.91 -79.37,88.19 0,35.28 30.86,51.83 30.86,87.11l0 112.43c0,63.95 52.92,93.73 110.25,122.37 58.42,28.69 83.78,79.38 149.93,79.38 26.46,0 38.59,-18.73 61.73,-30.87 25.37,-13.23 41.88,-24.23 70.56,-30.87 35.28,-8.82 59.51,-4.41 92.6,-17.64 14.33,-5.5 22.05,-16.54 35.28,-22.04 38.6,-17.64 65.05,-22.05 105.83,-35.28 25.37,-7.73 48.51,-1.1 70.56,-17.64 18.73,-13.23 22.05,-34.19 26.46,-57.33 8.82,-40.78 17.64,-63.92 22.05,-105.83 2.22,-20.96 0,-33.06 4.41,-52.92 8.82,-37.46 23.14,-56.23 35.27,-92.6 18.74,-56.23 47.42,-82.69 79.38,-132.29 22.05,-34.19 44.1,-56.24 44.1,-97.02 0,-19.82 -18.74,-25.36 -30.87,-39.68 -15.42,-17.64 -28.65,-35.28 -52.92,-35.28 -17.64,0 -20.95,22.05 -35.28,30.87 -26.45,16.54 -47.41,26.45 -79.37,26.45 -60.64,0 -89.29,-44.09 -149.93,-44.09 -14.32,0 -18.73,16.54 -30.87,22.05 -5.5,2.18 -12.13,-1.1 -17.64,0 -13.23,4.41 -20.95,13.22 -35.28,13.22zm-16174.86 -502.88c23.15,31.97 56.24,29.95 83.79,57.51 17.64,17.64 24.27,34.18 44.09,48.5 23.15,17.64 41.91,19.83 70.56,26.46 44.1,11.01 69.46,17.64 114.65,17.64 39.69,0 58.42,-22.05 97.02,-30.87 51.82,-12.13 82.69,-20.95 127.88,-48.5 29.77,-17.64 38.59,-44.1 70.55,-57.33 47.42,-19.86 77.19,-31.96 123.48,-52.92 49.6,-22.05 88.19,-55.14 88.19,-110.24 0,-17.64 -8.82,-26.46 -8.82,-44.1 0,-9.91 6.63,-16.54 6.63,-26.46 0,-9.91 -7.72,-17.64 -6.63,-26.45 2.22,-14.33 12.14,-20.96 17.64,-35.28 15.45,-38.6 8.82,-65.05 8.82,-106.93 0,-59.55 -8.82,-93.73 -2.19,-153.25 18.74,3.32 28.65,11.01 46.29,17.64 40.78,14.33 68.37,17.64 112.46,17.64 23.14,0 36.37,-2.22 59.52,-4.41 42.86,0 -83.79,29.59 -83.79,87.1l0 142.21c15.45,1.09 23.14,4.41 38.6,4.41 14.32,0 22.04,-8.82 36.37,-8.82 24.27,0 37.5,8.82 61.73,8.82 24.27,0 36.37,-19.86 48.51,-39.69 19.21,-29.63 44.1,-85 44.1,-8.82 0,17.64 3.31,31.96 -8.82,44.1 -12.14,12.13 -24.24,13.23 -35.28,26.46 -29.77,35.27 -65.05,38.59 -97.01,70.55 -26.46,26.46 -22.05,58.42 -22.05,97.02 0,24.23 -6.6,38.59 0,61.73 3.31,14.32 15.45,22.05 22.05,35.28 15.45,31.96 17.63,55.1 30.86,88.19 11.05,28.65 22.05,47.42 22.05,79.38 0,69.46 -48.5,101.42 -48.5,170.88l0 55.11c0,65.05 -39.69,97.01 -39.69,162.06 0,29.78 19.86,44.1 30.87,70.56 7.72,19.83 9.91,33.06 17.64,52.92 23.14,56.23 52.91,88.19 52.91,149.93 0,60.64 -22.05,93.69 -22.05,154.34l97.02 405.69 41.73 233.15 3917.07 0.14c40.78,-22.04 -23.11,-40.35 18.77,-61.31 66.14,-33.09 100.33,-62.83 158.75,-105.83 26.46,-19.86 46.32,-30.87 70.55,-52.92 30.87,-28.68 47.42,-51.82 79.38,-79.37 31.96,-27.56 52.91,-44.1 83.78,-74.97 24.27,-24.27 30.87,-45.19 52.92,-70.55 29.77,-34.19 49.6,-49.61 83.78,-79.38 60.65,-52.92 98.11,-81.6 145.52,-145.52 15.46,-20.96 30.87,-30.87 44.1,-52.92 30.87,-49.6 47.41,-79.37 79.38,-127.88 23.14,-35.28 38.59,-56.23 66.14,-88.19 27.55,-31.97 30.87,-61.74 61.74,-92.61 43,-43 80.47,-56.23 141.11,-66.14 6.63,17.64 11.04,39.68 30.87,39.68 22.05,0 31.96,-18.73 52.91,-22.04 19.87,-3.32 31.97,2.18 52.92,0 45.19,-5.51 66.15,-23.15 105.83,-44.1 28.68,-15.45 45.19,-28.68 66.15,-52.92 41.91,-48.51 78.28,-69.46 114.65,-123.47 3.32,-5.5 4.41,-12.14 8.82,-17.64 19.86,-24.27 41.91,-28.68 66.15,-48.51 6.63,-5.5 14.32,-5.5 17.64,-13.23 7.72,-18.73 13.23,-31.96 13.23,-52.91 0,-11.04 -8.82,-15.45 -8.82,-26.46 0,-44.1 35.27,-62.83 35.27,-106.93 0,-23.18 -4.41,-36.4 -4.41,-59.55 0,-20.95 -6.59,-34.18 0,-54.01 23.15,-69.46 74.97,-93.69 136.71,-132.29 73.87,-45.19 113.56,-82.69 194.02,-119.06 13.23,-5.5 22.05,-16.55 35.28,-22.05 66.15,-29.77 114.65,-11.04 185.21,-30.87 52.92,-15.45 70.56,-50.73 114.65,-83.78 20.96,-15.45 31.96,-28.68 48.51,-48.51 9.91,-12.14 14.32,-30.87 30.87,-30.87 24.27,0 33.09,22.05 52.91,35.28 24.28,16.55 40.79,30.87 70.56,30.87 35.28,0 54.01,-15.45 88.19,-22.05 33.1,-6.63 61.74,6.6 88.2,-13.23 28.68,-22.05 23.14,-56.23 30.87,-92.6l4.41 -17.64c25.36,51.82 38.59,82.69 79.37,123.47 12.14,-7.73 20.96,-19.86 35.28,-22.05 8.82,-1.09 16.54,4.41 26.46,4.41 17.64,0 28.68,-18.73 30.87,-35.28 3.31,-20.95 7.72,-34.18 17.63,-52.91 28.69,25.36 36.38,66.14 74.97,66.14 30.87,0 40.78,-35.28 71.65,-35.28l87.1 0c1.09,-8.82 3.32,-13.22 4.41,-22.04l-22.05 -92.61c0,-133.5 -1.92,8.82 83.79,8.82 20.95,0 18.73,-28.68 35.27,-39.69 12.14,-7.72 22.05,-11.04 35.28,-17.64 11.04,15.42 15.45,35.28 35.28,35.28 66.15,0 66.15,-105.83 132.29,-105.83 30.87,0 44.1,24.23 70.56,39.69 19.86,11 37.5,14.32 52.91,30.86 26.46,28.65 34.19,54.01 52.92,88.2 15.45,28.64 34.18,41.87 48.51,70.55 8.82,18.74 9.91,33.06 17.64,52.92 34.18,83.79 61.73,136.7 61.73,228.21 0,79.38 4.41,128.98 4.41,208.35 19.86,61.74 46.32,92.61 88.2,141.11 27.55,31.97 41.91,52.92 74.96,79.38 25.37,19.83 37.5,37.46 66.15,52.92 30.87,16.54 55.14,15.41 88.19,26.45 23.14,7.73 36.37,17.64 61.74,17.64 75.71,-38.91 8.96,-65.67 66.14,52.92 13.23,26.46 38.6,26.46 66.15,35.28 55.14,18.73 38.59,95.92 92.6,119.06 35.28,15.42 59.55,19.83 88.2,44.1 22.05,18.73 17.64,46.28 22.05,74.96 5.5,36.37 13.23,59.52 35.27,88.2 14.33,18.73 39.69,24.23 39.69,48.5 0,7.73 -7.72,11.01 -8.82,17.64 -3.31,19.83 -1.09,36.37 -13.23,52.92 -12.13,16.55 -31.96,14.32 -52.91,17.64 -6.6,1.09 -9.92,8.82 -17.64,8.82 -105.87,0 -33.35,-7.75 35.28,83.78l70.55 -136.7c8.82,37.47 30.87,54.01 35.28,92.61 4.41,41.87 7.72,65.05 17.64,105.83 5.5,22.05 6.63,37.46 17.64,57.33 11.04,19.82 23.14,31.96 30.86,52.91 11.05,29.78 13.23,49.6 22.05,79.38 15.45,52.91 41.91,74.96 57.33,127.88 17.64,60.64 8.82,102.52 26.46,163.16 8.82,33.05 29.77,51.82 29.77,87.1 0,41.87 4.55,60.08 4.55,101.95 397.89,0 4865.49,5.5 4863.27,0 -15.42,-29.78 -17.12,-66.67 -20.44,-100.86 -4.41,-40.78 -7.73,-65.05 -8.82,-105.83 -1.09,-50.73 -23.14,-82.69 -57.33,-119.06 -20.95,-23.14 -35.27,-37.5 -61.73,-57.33 -26.46,-19.86 -40.78,-36.37 -70.56,-48.51 -26.46,-11.04 -52.91,-7.72 -70.55,-30.86 -16.55,-20.96 -5.51,-44.1 -13.23,-70.56 -12.14,-43 -26.46,-67.24 -48.51,-105.83 -17.64,-31.96 -39.69,-50.73 -39.69,-88.2 0,-49.6 52.92,-59.55 70.56,-105.83 12.14,-34.18 8.82,-58.42 8.82,-95.92 0,-48.51 -5.5,-76.06 0,-124.57 19.86,-3.31 31.96,-4.41 48.51,-13.23 28.68,-14.32 29.77,-45.19 48.5,-70.55 4.41,-6.63 13.23,-6.63 17.64,-13.23 11.04,-17.64 8.82,-33.09 17.64,-52.92 5.5,-13.23 17.64,-20.95 22.05,-35.27 7.72,-23.15 -1.09,-40.79 -4.41,-66.15l91.51 0c22.05,0 40.78,-6.63 49.6,-26.46 11.04,-24.27 -5.5,-45.19 4.41,-70.55 5.5,-14.33 17.64,-19.87 26.46,-30.87 35.28,-44.1 30.87,-86.01 44.1,-141.11 16.54,3.31 26.45,8.82 44.09,8.82 19.86,0 27.56,-16.55 44.1,-26.46 18.73,-11.04 30.87,-19.86 52.92,-22.05 36.37,-4.41 60.64,-8.82 88.19,-30.87 26.46,-20.95 35.28,-44.1 66.15,-57.33 43,-18.73 70.55,-30.86 105.83,-61.73 60.64,-52.92 106.93,-70.56 185.21,-88.2 47.41,-11.04 76.06,-27.55 110.24,-61.73 24.27,-24.27 31.96,-44.1 57.33,-66.15 23.14,31.96 44.1,61.74 84.88,61.74l87.1 0c39.69,59.51 69.46,119.06 141.11,119.06 26.46,0 36.37,-26.46 48.51,-48.51 16.54,-29.77 26.45,-50.73 35.27,-83.78l17.64 -4.41c36.37,73.87 109.15,74.96 149.93,145.52 -60.64,39.69 -101.42,85.97 -101.42,158.75 0,37.46 17.64,58.42 30.87,92.6 16.54,40.79 24.27,66.15 44.09,105.84 18.74,38.59 45.2,49.6 74.97,79.37 26.46,26.46 36.37,66.15 74.96,66.15 29.78,0 47.42,-18.73 66.15,-39.69 19.86,-22.05 39.69,-39.69 39.69,-70.55 0,-15.46 -24.24,-12.14 -35.28,-22.05 -16.54,-15.46 -24.24,-31.97 -30.87,-52.92 -8.82,-27.55 -11,-45.19 -13.23,-74.97 -13.23,2.19 -22.05,8.82 -35.27,8.82 -26.46,0 -35.28,-30.86 -35.28,-57.32 0,-23.14 22.05,-31.96 30.87,-52.92 7.72,-19.86 15.45,-33.09 22.04,-52.92l17.64 -52.91c6.64,-17.64 11.05,-39.69 30.87,-39.69 24.27,0 35.28,19.83 52.92,35.28 25.36,22.05 39.69,40.78 70.55,52.91 18.74,-28.68 23.15,-54.01 52.92,-70.55 23.14,-12.14 44.1,-7.73 70.56,-13.23 35.27,-6.63 52.91,-25.36 88.19,-30.87 57.33,-9.91 97.01,2.19 149.93,-22.05 40.78,-17.64 54.01,-51.82 70.56,-92.6 26.45,13.23 40.78,30.87 70.55,30.87 29.78,0 45.19,-9.92 74.97,-13.23 27.55,-3.32 46.32,3.31 70.55,-8.82 22.05,-11.04 22.05,-36.37 26.46,-61.74 21.03,-42.06 21.82,52.92 79.38,52.92 25.36,0 37.5,-19.86 52.91,-39.69 25.37,-31.96 46.32,-46.32 79.38,-70.55 13.23,-8.82 30.87,-14.33 35.28,-30.87 36.54,-120.4 -14.45,-93.82 57.32,-22.05l8.82 -17.64 0 -109.15c0,-136.87 36.78,-119.02 79.38,-5.5 6.63,19.82 4.41,36.37 17.64,52.91 14.32,17.64 30.86,19.83 52.91,26.46l22.05 -110.24c-3.32,-25.37 -16.54,-38.59 -26.46,-61.74 -12.13,-27.55 -13.23,-48.5 -13.23,-79.37 0,-44.1 14.33,-80.47 52.92,-101.43 25.36,34.19 49.6,48.51 66.15,88.2 14.32,34.18 16.54,56.23 35.27,88.19 19.86,33.06 51.83,36.38 88.2,48.51 20.95,6.6 30.87,17.64 52.91,17.64 38.6,0 55.14,-26.46 88.2,-44.1 40.78,-22.05 63.96,-38.59 101.42,-66.14 28.68,-6.64 41.91,-19.86 70.56,-26.46 2.22,27.55 0,43 0,70.55 6.63,0 9.91,4.41 16.54,4.41 24.24,0 34.19,-18.73 54.01,-30.86 49.6,-30.87 68.37,-66.15 123.48,-83.79 13.23,40.78 9.91,97.01 52.91,97.01 17.64,0 27.55,-9.91 39.69,-22.04 27.55,-27.56 35.28,-50.73 57.33,-83.79 23.14,11.01 25.36,35.28 48.5,44.1 12.14,4.41 22.05,4.41 35.28,4.41 41.91,0 63.96,-22.05 105.83,-26.46 43.01,-4.41 71.65,-8.82 105.84,-35.28 20.95,-15.45 39.69,-15.45 57.32,-35.28 15.46,-17.63 13.23,-37.5 13.23,-61.73 0,-30.87 -11,-49.6 -17.64,-79.38 -7.72,-34.18 -6.59,-56.23 -22.04,-88.19l70.55 0c0,-27.55 2.22,-54.01 26.46,-66.15 5.5,-2.22 12.14,1.1 17.64,0 19.86,34.19 28.68,58.42 57.33,83.79 19.86,-34.19 40.78,-51.83 74.96,-70.56 29.77,-16.54 37.5,-45.19 70.56,-52.91 28.68,-6.64 52.91,-3.32 70.55,-26.46 12.14,-15.45 9.91,-28.68 13.23,-48.51 24.27,-1.09 37.5,0 61.74,0 34.18,0 36.37,-52.92 70.55,-52.92 11.04,0 15.45,13.23 26.46,13.23 26.46,0 26.46,-33.09 35.28,-57.32 9.91,-28.68 31.96,-36.38 48.51,-61.74 15.45,-24.27 11.04,-48.51 22.04,-74.97 5.51,-15.45 13.23,-35.27 30.87,-35.27 20.96,0 31.96,13.23 52.92,13.23 28.68,0 24.27,-52.92 52.92,-52.92 25.36,0 36.37,22.05 61.73,22.05 46.32,0 78.28,-37.5 83.79,-83.79 2.22,-20.95 -9.92,-33.09 -4.41,-52.91 9.91,-37.5 41.91,-48.51 66.14,-79.38 22.05,-28.68 30.87,-52.91 57.33,-79.37 37.5,-37.5 50.73,-68.37 88.19,-105.84 17.64,-17.64 37.5,-20.95 52.92,-39.68 47.41,-56.24 67.24,-94.83 79.37,-167.57l-52.91 -39.69c26.46,-19.86 61.73,-28.68 61.73,-62.83l0 -103.65c0,-28.64 -17.63,-43 -17.63,-71.65 0,-29.77 17.63,-43 26.45,-70.55 9.92,-34.19 7.73,-56.23 13.23,-92.61 36.37,28.65 47.42,60.65 88.2,83.79 20.95,-37.5 37.5,-59.55 70.55,-88.2 13.23,-11.04 24.27,-14.32 35.28,-26.45 4.41,-5.51 16.55,-5.51 17.64,-13.23 8.82,-35.28 0,-57.33 8.82,-92.61 1.09,-7.72 9.91,-9.91 13.23,-17.64l35.28 35.28c49.6,-35.28 62.83,-78.28 79.37,-136.7 3.32,-13.23 4.41,-24.27 13.23,-35.28 8.82,-11.04 25.36,-13.23 30.87,-26.46 12.13,-26.45 0,-45.19 0,-74.96 15.45,0 25.36,2.19 39.69,0 16.54,-2.22 25.36,-19.86 30.86,-35.28 8.82,-23.14 13.23,-40.78 26.46,-61.73 29.78,-45.2 68.37,-51.83 119.06,-70.56 28.69,-9.91 49.6,-14.32 70.56,-35.28 50.73,-50.73 44.1,-119.06 61.74,-189.62 0,-27.55 -2.19,-43 -2.19,-70.55 30.87,-5.51 63.92,-17.64 63.92,-48.51 0,-17.64 -3.31,-27.55 -8.82,-44.1 -2.18,-6.63 -13.23,-8.82 -13.23,-16.54l0 -89.29 8.82 -35.28c56.24,8.82 72.78,49.6 123.48,74.97 5.5,-12.14 13.22,-20.96 13.22,-35.28 0,-20.95 -5.5,-34.18 -13.22,-52.92 -2.19,-7.72 -13.23,-8.82 -13.23,-17.64 0,-46.31 20.95,-70.55 44.09,-110.24 -26.45,6.6 -44.09,5.51 -70.55,13.23 -45.19,12.14 -63.93,36.37 -105.84,57.33l-17.63 -4.41c9.91,-13.23 16.54,-25.37 30.86,-35.28 4.41,-2.22 14.33,0 17.64,-4.41 15.45,-16.55 14.33,-34.18 26.46,-52.92 29.78,-44.09 60.64,-63.96 110.24,-83.78 -17.63,-17.64 -34.18,-25.37 -52.91,-39.69 -33.06,-26.46 -47.42,-47.41 -79.38,-74.96 -23.14,-19.87 -43,-27.56 -70.55,-39.69 -19.83,-8.82 -34.19,-12.14 -52.92,-22.05 -16.55,-8.82 -19.83,-30.87 -39.69,-30.87 -61.73,0 -95.92,22.05 -154.34,39.69 -17.64,5.5 -25.36,17.64 -44.09,17.64 -30.87,0 -44.1,-23.14 -61.74,-48.51 -9.91,-14.32 -27.55,-8.82 -45.19,-8.82 -194.04,0 22.01,-70.03 89.29,-74.96 34.18,-2.23 56.23,7.72 88.19,-4.41 12.14,-4.41 16.55,-15.45 22.05,-26.46 11.04,-19.86 19.86,-35.28 35.28,-52.92 50.73,-58.42 95.92,-84.88 171.98,-97.01 34.18,-5.51 55.14,-14.32 88.19,-26.46 28.68,-9.91 57.33,-7.73 70.56,-35.28 3.31,-7.72 13.23,-8.82 13.23,-17.64 0,-37.5 -29.78,-52.91 -39.69,-88.19 -3.32,-12.14 0,-23.14 -4.41,-35.28 -6.6,-16.54 -23.14,-18.73 -35.28,-30.87 -18.73,-18.73 -29.77,-33.09 -52.92,-44.09 -26.45,-13.23 -44.09,-13.23 -70.55,-26.46 -29.78,-14.33 -45.19,-30.87 -70.56,-52.92 -45.19,-38.59 -47.41,-84.88 -57.32,-145.52 49.6,24.24 82.69,29.77 132.29,52.92 17.64,7.72 19.86,23.14 35.28,35.27 9.25,7.39 105.88,97.12 79.37,44.1 -13.23,-18.73 -18.73,-35.28 -35.28,-52.92 -26.46,-28.68 -56.23,-34.18 -88.19,-57.32l4.41 -17.64c14.32,-2.22 23.14,-3.32 37.5,-4.41l130.07 22.05c-33.06,-44.1 -40.78,-79.38 -74.97,-123.47 -28.64,-37.5 -61.73,-43.01 -101.42,-70.56 -8.82,-5.5 -14.32,-11.04 -22.05,-17.64 -6.6,-5.5 -17.64,-7.72 -17.64,-17.64 0,-14.32 13.23,-20.95 13.23,-35.28 0,-24.27 -22.05,-33.09 -35.28,-52.91 -13.23,-19.86 -20.95,-35.28 -35.28,-52.92 -31.96,-37.5 -56.23,-58.42 -97.01,-88.19 -45.19,-33.09 -46.28,-79.38 -61.74,-132.29 -7.72,-28.69 -17.63,-45.2 -26.45,-74.97 -7.73,-28.68 -11.01,-47.41 -22.05,-74.97 -6.6,-15.45 -19.83,-23.14 -22.05,-39.68 -14.32,-83.79 -14.32,-136.7 -48.51,-216.08 -20.95,-48.51 -50.69,-69.46 -74.96,-119.06 -15.42,-24.27 -20.96,-43.01 -30.87,-70.56 -9.91,-28.68 -20.96,-44.09 -35.28,-70.55 -25.36,-48.51 -51.82,-81.6 -101.42,-105.84 -26.46,-13.23 -44.1,-17.63 -70.56,-30.86 -33.05,-16.55 -51.82,-34.19 -88.19,-39.69 -40.78,-6.63 -68.34,1.09 -105.84,-17.64l8.82 -35.28c-7.72,-30.87 -26.45,-47.41 -26.45,-79.37 0,-40.78 26.45,-61.74 52.91,-92.61 30.87,-36.37 40.78,-65.05 66.15,-105.83 11.04,-18.73 18.73,-31.96 26.46,-52.92 7.72,-20.95 9.91,-45.19 30.86,-52.91 12.14,-4.41 23.15,-1.1 35.28,-4.41 7.73,-2.23 9.91,-11.05 17.64,-13.23 19.86,-6.64 35.28,-6.64 52.92,-17.64 5.5,-3.32 4.41,-12.14 8.82,-17.64 15.45,-18.73 24.27,-33.09 39.68,-52.92 15.46,-19.86 38.6,-19.86 52.92,-39.68 23.14,-31.97 34.19,-57.33 66.15,-79.38 36.37,-24.27 63.96,-26.46 105.83,-44.1 41.91,-17.64 74.97,-46.32 74.97,-92.6 0,-14.32 -13.23,-20.96 -13.23,-35.28 0,-23.14 22.05,-30.87 39.68,-44.1 17.64,-13.23 29.78,-23.14 44.1,-39.68 -13.23,-7.73 -23.14,-14.33 -35.28,-22.05 5.51,-2.22 12.14,-2.22 17.64,-4.41 2.22,0 -2.19,-8.82 0,-8.82 25.37,-9.91 44.1,3.31 70.56,-4.41 22.05,-5.5 31.96,-18.73 52.91,-26.46 34.19,-13.23 58.42,-13.23 92.61,-26.46 13.23,-5.5 22.05,-16.54 35.28,-22.05 26.45,-12.13 47.41,-8.82 74.96,-17.64 16.55,-5.5 22.05,-19.86 35.28,-30.86 26.46,-23.15 36.37,-51.83 70.56,-57.33 49.6,-8.82 77.18,-12.14 127.88,-17.64 17.64,-1.09 27.55,-8.82 44.09,-13.23 12.14,-3.31 25.37,-1.09 35.28,-8.82 5.51,-3.31 4.41,-12.13 8.82,-17.64 14.32,-17.64 20.96,-33.09 30.87,-52.91 9.91,-20.96 19.86,-34.19 26.46,-57.33 -43.01,-6.63 -67.24,-17.64 -105.84,-35.28 -41.87,-18.73 -72.74,-19.86 -105.83,-52.91 -1.09,15.41 -3.32,24.23 -4.41,39.68l-166.47 0c-29.74,0 -42.97,-17.64 -71.65,-22.04 -40.78,-6.64 -68.34,1.09 -105.84,-17.64 -37.46,-18.74 -51.82,-41.91 -88.19,-61.74 -23.14,-12.14 -40.78,-23.14 -48.51,-48.51 -6.6,-22.05 -1.09,-47.41 -22.05,-57.32 -5.5,-2.23 -11,4.41 -17.64,4.41 -22.04,1.09 -34.18,12.13 -52.91,22.05 -49.6,25.36 -66.15,58.42 -110.25,92.6 -7.72,5.5 -15.41,7.73 -22.04,13.23 -24.24,22.05 -33.06,45.19 -61.74,61.73 -37.47,22.05 -68.33,18.74 -105.83,39.69 9.91,19.83 22.05,30.87 39.68,44.1 -35.27,48.51 -82.69,51.82 -141.11,66.15 -37.46,8.81 -58.42,17.63 -97.01,17.63 -41.88,0 -68.33,-9.91 -101.42,-35.27 -25.37,-18.74 -46.29,-24.27 -74.97,-35.28 -20.96,-7.73 -39.69,-20.96 -39.69,-44.1 0,-52.92 28.68,-79.37 30.87,-132.29 0,-20.96 0,-34.18 8.82,-52.92 7.73,-15.45 22.05,-20.95 30.87,-35.27 6.63,-12.14 12.13,-24.28 22.05,-35.28 3.31,-4.41 13.23,-1.1 17.64,-4.41 7.72,-6.63 8.82,-15.45 8.82,-26.46 0,-36.37 -29.78,-51.82 -57.33,-74.97 -11.01,-8.82 -16.55,-22.04 -30.87,-26.45 -19.83,-6.64 -35.28,0 -57.33,0 -76.05,2.18 -117.96,-4.41 -194.02,-13.23 -72.75,-8.82 -119.07,-5.51 -180.8,-44.1 -22.05,-13.23 -30.87,-30.87 -44.1,-52.92 -19.83,-33.09 -34.18,-52.91 -48.51,-88.19 -12.13,-29.78 -30.86,-46.32 -30.86,-79.38 0,-65.05 25.36,-100.33 39.68,-163.16 18.74,-81.59 102.52,-84.87 141.11,-163.16 52.92,26.46 71.65,58.42 97.02,110.25 59.55,-14.33 90.41,-38.6 145.52,-66.15 28.68,-14.32 47.41,-26.46 79.37,-26.46 17.64,0 27.56,7.73 44.1,4.41 39.69,-7.72 52.92,-35.28 83.79,-61.73 29.77,-25.37 52.91,-48.51 52.91,-88.2 0,-13.23 -8.82,-22.05 -8.82,-35.28 0,-58.42 13.23,-105.83 61.74,-136.7 17.64,-11.04 34.18,-12.13 52.92,-22.05 39.68,-20.95 54.01,-49.6 92.6,-70.55 19.86,-11.04 34.18,-18.73 52.92,-30.87 70.55,-5.5 108.05,-31.96 176.39,-48.51 22.04,-5.5 44.09,-5.5 52.91,-26.45 19.86,-47.42 11.04,-84.88 39.69,-127.89 13.23,-20.95 22.05,-36.37 44.1,-48.5 19.86,-11.05 39.68,-12.14 52.91,-30.87 17.64,-24.27 25.37,-44.1 39.69,-70.56 20.96,-38.59 45.19,-54.01 66.15,-92.6 14.32,-26.46 22.05,-61.74 52.91,-61.74 38.6,0 56.24,27.55 88.2,48.51 37.5,25.36 61.73,37.46 105.83,48.51 33.09,7.72 55.14,2.18 88.2,8.82 22.04,4.41 31.96,18.73 52.91,26.45 19.86,6.6 33.09,7.73 52.92,17.64 -4.41,8.82 -13.23,15.42 -13.23,26.46 0,27.55 35.28,28.65 48.51,52.92 9.91,18.73 4.41,33.05 4.41,55.1 0,23.18 -12.14,35.28 -22.05,55.14 -34.19,63.92 -56.23,99.2 -97.02,158.75 -28.64,41.88 -48.5,66.15 -83.78,101.42 -18.73,18.74 -29.78,31.97 -48.51,48.51 -5.5,4.41 -6.59,13.23 -13.23,17.64 -12.13,8.82 -35.27,6.6 -35.27,22.05 0,22.05 17.63,30.87 17.63,52.92 0,34.18 -28.64,47.41 -39.68,79.37 -4.41,12.14 -6.6,23.14 -8.82,35.28 48.5,3.31 74.96,5.5 123.47,13.23 -14.32,35.28 -44.1,49.6 -44.1,88.19 0,22.05 14.33,33.06 22.05,52.92 -39.69,23.14 -68.33,27.55 -105.83,52.92 -7.73,4.41 -8.82,14.32 -17.64,17.63 -27.55,12.14 -66.15,13.23 -66.15,44.1 0,15.42 15.45,26.46 30.87,26.46 36.37,0 49.6,-31.96 74.97,-57.33 41.91,-41.91 81.59,-57.32 141.11,-57.32 20.95,0 34.18,-5.51 52.91,-13.23 5.51,-2.22 13.23,3.31 17.64,0 12.14,-8.82 14.33,-23.14 22.05,-35.28 19.86,-29.77 37.5,-45.19 57.33,-74.97 8.82,-14.32 12.13,-26.45 22.05,-39.68 14.32,-18.74 26.46,-33.09 48.5,-39.69 19.86,-6.63 33.09,-1.09 52.92,-4.41 46.32,-8.82 62.83,-39.69 105.83,-57.33 31.97,-13.23 56.24,-8.82 88.2,-22.04 48.51,-19.87 80.47,-49.61 92.6,-101.43 15.45,8.82 25.37,17.64 44.1,17.64 48.51,0 79.37,-8.82 123.47,-26.46 29.78,-12.13 46.32,-30.87 79.38,-30.87 27.55,0 43,17.64 70.55,17.64 54.01,0 78.28,-39.68 132.29,-39.68 22.05,0 35.28,11 52.92,22.04 28.68,18.74 45.19,40.79 52.92,74.97 5.5,-1.09 13.23,4.41 17.64,0 12.13,-12.14 13.23,-35.28 30.86,-35.28 18.74,0 28.68,13.23 44.1,22.05 44.1,27.55 74.97,38.59 123.47,57.33 14.33,5.5 20.96,15.41 36.37,15.41l126.79 0c-11,33.09 -22.05,50.73 -26.45,86.01 -4.41,40.78 3.31,65.05 4.4,105.83 1.1,35.28 0,58.42 -17.63,88.2 -23.15,38.59 -74.97,46.28 -74.97,92.6 0,22.05 25.37,25.37 44.1,35.28 40.78,22.05 68.37,38.59 97.01,74.97 -19.82,11 -30.87,25.36 -52.91,30.86 -12.14,3.32 -23.15,-3.31 -35.28,0 -37.47,9.92 -57.33,35.28 -74.97,70.56 -5.5,12.13 -7.72,23.14 -13.23,35.28 -7.72,15.41 -22.05,19.82 -35.27,30.86 -27.56,23.15 -52.92,41.88 -52.92,79.38 0,40.78 54.01,41.87 92.6,52.92 13.23,3.31 20.96,13.23 30.87,22.04 -7.73,14.33 -17.64,22.05 -17.64,38.6l0 40.78c19.86,4.41 31.96,11.01 52.92,13.23 13.23,1.09 23.14,-2.22 35.28,0 26.45,6.6 36.37,30.87 63.95,30.87 55.11,0 85.98,-13.23 141.12,-13.23 65.01,0 102.51,15.41 160.93,44.1 33.09,16.54 38.6,46.28 70.56,66.14 40.78,25.37 74.96,29.78 101.42,70.56 24.27,37.46 13.23,69.46 13.23,114.65 0,20.95 13.23,31.96 13.23,52.92 0,19.82 -16.54,28.64 -26.46,44.09 -17.64,26.46 -26.46,45.19 -44.09,70.56 -17.64,24.23 -52.92,30.87 -52.92,61.73 0,47.42 35.28,70.56 35.28,117.97 0,17.64 -3.32,27.56 -4.41,45.19l-26.46 -8.81c-3.32,9.91 -8.82,15.41 -8.82,26.45 0,18.74 17.64,25.37 17.64,44.1 0,40.78 -44.1,56.23 -44.1,97.01 0,25.37 14.32,40.79 26.46,61.74 17.64,29.78 33.09,46.29 57.33,70.56 34.18,34.18 79.37,48.5 79.37,97.01 0,19.83 -17.64,26.46 -35.28,35.28 -26.46,13.23 -45.19,20.95 -66.14,39.69 -12.14,11 -28.65,15.41 -35.28,30.86 -7.73,18.74 -6.6,34.19 -13.23,52.92 -11.01,29.77 -44.1,38.59 -44.1,70.56 0,15.41 14.32,23.14 22.05,35.27 13.23,20.96 26.46,36.37 26.46,61.74 0,38.59 -26.46,58.42 -26.46,97.01 0,14.33 7.73,23.15 13.23,35.28 8.82,20.96 12.14,35.28 26.46,52.92 13.23,16.54 31.96,23.14 35.28,44.1 1.09,12.13 -4.41,22.04 -4.41,35.27 -2.19,36.37 4.41,59.52 17.64,92.61 40.78,-24.27 50.72,-55.14 83.78,-88.2 24.27,17.64 36.37,39.69 66.15,39.69 24.27,0 33.09,-23.14 44.09,-44.1 12.14,-23.14 18.74,-37.5 35.28,-57.32 23.14,-27.56 48.51,-35.28 83.79,-44.1 12.13,24.24 17.63,43 17.63,70.55 5.51,-4.4 14.33,-2.22 17.64,-8.81 23.15,-38.6 6.64,-77.19 35.28,-110.25 14.32,-16.54 31.96,-16.54 52.92,-22.05 63.96,-17.64 97.01,-40.78 158.75,-66.14 3.31,7.72 11.04,9.91 13.23,17.64 3.31,12.13 -1.1,27.55 8.82,35.27 6.63,5.51 16.54,0 26.45,0 25.37,0 46.32,-7.72 61.74,-26.45 12.14,-14.33 15.45,-28.68 30.87,-39.69 12.13,-8.82 20.95,-18.73 35.28,-22.05 12.13,-2.22 22.05,4.41 35.27,4.41 29.78,1.09 46.32,-9.91 74.97,-17.64 37.5,-11.04 57.33,-23.14 86.01,-48.51 1.09,20.96 1.09,31.97 0,52.92 17.64,-6.63 28.64,-15.45 46.28,-22.05 27.55,-9.91 54.01,-2.22 70.56,-26.46 12.13,-17.64 5.5,-36.37 8.82,-57.32 4.41,-27.55 11.04,-45.19 22.05,-70.56 31.96,-70.55 62.82,-106.93 88.19,-180.8 7.73,-23.14 20.95,-36.37 26.46,-61.73 -20.96,0 -37.47,3.31 -52.92,-8.82 -23.14,-17.64 -23.14,-40.78 -26.46,-70.56 -3.31,-30.87 -4.41,-48.5 -4.41,-79.37 0,-45.19 0,-71.65 13.23,-114.66 8.82,-30.86 26.46,-47.41 26.46,-80.46l0 -90.42c0,-28.65 -9.91,-44.1 -13.23,-71.65 -9.91,-69.46 -17.64,-113.56 -57.32,-171.98 -33.06,-49.6 -63.93,-70.56 -92.61,-123.47 -34.18,-63.96 -57.33,-101.43 -101.42,-158.75 -19.83,-26.46 -43.01,-36.37 -57.33,-66.15 -19.83,-39.69 -25.36,-65.05 -39.69,-105.83 -24.23,-65.05 -37.46,-102.52 -70.55,-163.16 -16.55,-29.78 -35.28,-41.91 -52.92,-70.56 -17.64,-28.68 -29.77,-47.41 -52.92,-70.55 -17.63,-17.64 -30.86,-28.68 -48.5,-44.1 -62.83,-58.42 -90.38,-113.56 -171.98,-136.7 -57.33,-16.55 -88.2,-67.24 -88.2,-127.88 0,-15.45 18.74,-18.73 26.46,-30.87 11.04,-17.64 17.64,-30.87 17.64,-52.92 0,-50.73 -23.14,-77.18 -26.46,-127.88 28.68,-8.82 44.1,-23.14 70.56,-39.69 20.95,-12.13 38.59,-15.45 57.32,-30.86 31.97,-27.56 40.79,-74.97 83.79,-74.97 22.05,0 33.09,17.64 55.14,17.64 28.64,0 44.1,-12.14 68.33,-26.46 34.19,-20.95 51.82,-29.77 88.2,-44.1 22.04,-8.82 35.27,-20.95 52.91,-35.27 13.23,-11.05 26.46,-17.64 26.46,-35.28 0,-13.23 -8.82,-22.05 -8.82,-35.28 0,-24.27 30.87,-27.55 52.92,-35.28 35.28,-13.23 55.14,-25.36 88.19,-44.09 35.28,-19.87 62.83,-27.56 92.61,-57.33 17.64,-17.64 24.27,-34.19 39.68,-52.92 40.79,-48.5 81.6,-59.55 132.3,-97.01 16.54,-12.14 14.32,-31.96 13.23,-52.92 -1.1,-25.36 0,-38.59 0,-63.96 0,-45.19 5.5,-72.74 13.22,-116.84 1.1,-11.04 8.82,-18.73 8.82,-30.87 0,-37.5 -22.04,-57.32 -22.04,-94.82 0,-31.96 5.5,-51.79 13.22,-81.56 3.32,-13.23 5.51,-24.28 13.23,-35.28 8.82,-13.23 22.05,-18.73 30.87,-30.87 11.04,-14.32 12.14,-28.68 22.05,-44.1 11.04,-16.54 25.37,-18.73 35.28,-35.27 11.04,-18.74 14.32,-38.6 30.87,-52.92 17.64,-15.45 39.68,-16.55 52.91,-35.28 19.86,-26.46 28.68,-46.32 52.92,-66.15 6.63,-5.5 5.5,-14.32 13.23,-17.63 24.27,-12.14 43,6.59 70.55,4.41 34.19,-2.23 46.32,-37.5 52.92,-70.56 4.41,-23.14 13.23,-37.5 13.23,-61.74 0,-25.36 -17.64,-37.5 -17.64,-62.83 0,-19.86 3.32,-31.99 4.41,-51.82 41.91,0 66.15,-13.23 108.06,-13.23 14.32,0 20.92,11.01 33.05,17.64 17.64,9.91 31.96,13.23 52.92,13.23 41.91,0 37.5,-56.23 57.33,-92.6 19.86,-35.28 49.6,-45.19 74.96,-74.97 22.05,-25.36 27.55,-49.6 48.51,-74.96 34.18,-39.69 66.14,-55.14 97.01,-97.02 15.45,27.55 25.37,45.19 48.51,66.15 20.95,-15.45 34.18,-23.14 57.32,-35.28 33.09,-17.64 49.6,-44.1 88.2,-44.1 22.05,0 23.14,27.55 26.46,48.51 4.41,23.14 8.82,37.46 8.82,61.74 0,33.05 -6.6,51.82 -13.23,83.78l4.41 26.46c27.55,0 45.19,-7.73 70.55,0 38.6,12.13 51.83,39.69 88.2,57.32 18.73,8.82 36.37,1.1 52.91,13.23 18.74,13.23 13.23,44.1 35.28,52.92 12.14,4.41 22.05,4.41 35.28,4.41 26.46,0 35.28,-22.05 57.33,-35.28 26.45,-16.54 40.78,-34.18 70.55,-44.09 39.69,-13.23 67.24,-17.64 110.24,-17.64 60.65,0 97.02,-20.96 145.53,-57.33 26.45,-19.86 47.41,-27.55 74.96,-44.1 20.96,-12.13 31.96,-27.55 52.92,-39.68 70.55,-44.1 114.65,-69.47 180.8,-119.07 44.09,-33.09 71.64,-49.6 110.24,-88.19 25.36,-25.37 49.6,-33.09 66.14,-66.15 8.82,-18.73 -2.18,-31.96 -4.4,-52.91 41.9,0 79.37,-4.41 101.42,-39.69 17.64,-28.68 4.41,-55.14 8.82,-88.2 2.22,-14.32 8.82,-25.36 13.23,-39.68 16.54,-47.42 48.5,-66.15 83.78,-101.43 44.1,-44.09 69.46,-71.65 105.84,-121.28 3.31,0 5.5,2.22 8.81,2.22 4.41,0 4.98,-4.97 8.82,-6.63 7.73,-3.28 11.05,-8.26 17.64,-13.23 13.8,-10.44 24.27,-14.85 37.5,-26.46 20.92,-18.17 34.15,-28.08 55.11,-46.28 6.63,-5.51 9.91,-11.05 15.45,-17.64 21.48,-24.27 39.69,-34.72 57.33,-61.74 12.1,-18.2 17.63,-29.77 28.64,-48.51 10.48,-17.63 18.73,-25.89 30.87,-41.91 11.57,-15.41 14.32,-28.08 22.05,-46.28 6.63,-15.98 13.79,-24.8 22.05,-39.69 7.72,-13.23 12.66,-21.48 19.86,-35.28 4.41,-8.81 11,-11.04 15.41,-19.86 12.14,-24.23 9.07,-33.05 28.9,-50.69l0 -5460.54 -27157.51 0 0 17353.38zm27157.52 -6213.12c-6.64,0 -3.57,4.41 -10.16,4.41 -7.73,0 -12.14,-7.73 -18.74,-8.82 -13.22,-3.32 -25.36,-4.41 -35.27,-13.23 -4.41,-3.32 -1.13,-13.23 -4.41,-17.64 -14.36,-19.86 -32,-25.36 -48.51,-44.1 45.19,-60.64 40.78,-112.46 74.97,-180.8 16.51,18.74 22.26,17.71 42.12,32.04l0 -0.89 0 -1233.62c-15.45,12.13 -28.9,29.49 -28.9,50.44l0 178.58c0,63.96 -15.45,103.65 -48.5,157.66 -26.46,43 -36.41,72.74 -74.97,105.83 -45.22,38.59 -74.96,63.92 -105.83,114.65 -22.05,36.37 -41.91,52.92 -66.15,88.2 -7.72,12.13 -22.05,19.82 -22.05,35.27 0,17.64 20.92,18.74 26.46,35.28 11.01,29.78 22.05,47.41 22.05,79.38 0,9.91 -11.04,12.13 -17.64,17.64 -13.23,11 -23.17,18.73 -35.28,30.86 -18.76,18.74 -25.36,37.47 -48.5,48.51 -11.04,5.5 -23.18,3.32 -35.28,4.41 -28.68,4.41 -45.23,17.64 -74.97,17.64 -22.04,0 -36.4,-5.5 -57.32,-8.82 -28.68,-5.5 -61.74,-15.45 -61.74,-45.19 0,-19.86 4.41,-32 4.41,-51.82 0,-9.92 -3.31,-22.05 -13.23,-22.05 -68.37,0 -99.23,57.32 -167.57,57.32 -25.36,0 -36.4,-22.05 -61.73,-22.05 -52.92,0 -78.28,26.46 -127.88,44.1 -33.1,12.14 -54.05,12.14 -88.2,17.64 -65.05,9.91 -103.65,26.46 -169.79,26.46 -35.28,0 -55.1,-13.23 -90.38,-13.23 -38.6,0 -58.46,26.46 -97.02,26.46 -8.82,0 -6.63,-12.14 -13.23,-17.64 -11.04,-8.82 -15.45,-26.46 -30.86,-26.46 -22.05,0 -32,13.23 -52.92,17.64 -34.18,7.73 -55.14,6.6 -88.19,17.64 -28.69,8.82 -58.46,17.64 -61.74,48.51 -2.22,22.04 3.28,37.46 -4.41,57.32 -2.22,6.6 -12.14,4.41 -17.64,8.82 -12.14,11.01 -20.95,17.64 -35.28,26.46 -72.78,45.19 -135.61,54.01 -180.8,127.88 -36.4,59.52 -67.27,90.38 -127.88,123.47 -15.45,7.73 -18.77,20.96 -35.28,26.46 -25.36,8.82 -49.63,-3.31 -70.55,13.23 -4.41,3.32 -1.13,13.23 -4.41,17.64 -20.96,25.37 -41.91,31.96 -66.15,52.92 -19.86,16.54 -28.68,37.5 -52.91,44.09 -38.6,11.05 -67.28,-4.41 -105.84,8.82 -6.63,2.23 -4.41,13.23 -8.82,17.64l13.23 52.92c-7.72,33.09 -11.04,52.92 -11.04,87.1 0,20.96 -1.09,33.06 0,54.01 33.09,-12.13 46.32,-39.69 81.6,-39.69 25.33,0 31.96,30.87 57.32,30.87 45.2,0 66.15,-35.28 111.34,-35.28l85.97 0c16.55,0 24.27,12.14 36.41,22.05 17.64,15.45 31.96,24.27 52.92,30.87 35.27,11.04 56.19,15.45 90.38,30.87 3.31,-27.55 0,-43.01 0,-70.56 0,-30.87 17.64,-57.32 46.32,-66.14 31.96,-9.92 54.01,0 88.19,0 17.64,0 24.24,-14.33 39.69,-22.05 49.6,-24.24 78.25,-43.01 132.29,-57.33 48.51,-13.23 78.25,-18.73 127.88,-30.87 13.23,-3.31 22.05,-11 35.28,-13.23 26.46,-4.41 45.19,5.51 70.56,-4.41 37.46,-15.41 55.1,-37.46 92.6,-52.91l52.92 13.23 264.58 -132.29c40.78,19.82 61.74,48.5 106.93,48.5l87.1 0 35.28 8.82c34.15,-5.5 56.19,-2.22 88.19,-13.23 5.5,34.19 13.23,54.01 13.23,88.2 0,22.05 -22.05,28.68 -35.28,44.09 -15.45,17.64 -20.95,35.28 -35.28,52.92 -7.72,9.91 -22.04,16.55 -22.04,30.87 0,8.82 13.23,8.82 13.23,17.64 0,27.55 -35.28,34.18 -35.28,61.73 0,14.33 11,22.05 13.23,35.28 3.28,19.86 -1.13,35.28 8.82,52.92 3.28,6.63 12.1,4.41 17.64,8.82 19.82,16.54 29.73,29.77 48.5,48.51 29.74,29.77 44.1,51.82 70.56,83.78 14.32,17.64 36.37,9.91 57.32,17.64 35.28,14.32 49.6,39.69 88.2,44.1 19.82,2.22 31.96,-12.14 44.1,-26.46 8.82,-11.01 20.92,-17.64 26.45,-30.87 5.51,-13.23 4.41,-25.37 8.82,-39.69 12.1,-37.46 35.28,-52.91 52.92,-88.19 9.91,-19.83 16.51,-35.28 22.05,-57.33 7.69,-27.55 1.09,-50.69 22.05,-70.55 20.92,-19.83 44.09,-13.23 70.55,-22.05 22.05,-6.6 30.87,-26.46 52.92,-35.28 38.56,-16.55 66.36,-16.55 108.27,-16.55l0 -115.74zm-6674.36 7765.52c-3.31,-7.73 -13.23,-6.63 -17.64,-13.23 -13.23,-20.96 -17.64,-36.37 -17.64,-61.74 0,-48.5 35.28,-68.37 48.51,-114.65 3.32,-13.23 0,-22.05 0,-36.37l0 -68.37c0,-43 4.41,-68.33 22.05,-106.93 3.32,-7.72 0,-15.45 4.41,-22.04 17.64,-23.15 45.19,-13.23 70.56,-26.46 7.72,-3.32 5.5,-14.33 13.22,-17.64 31.97,-16.55 55.14,-22.05 92.61,-22.05 29.77,0 44.1,14.32 70.55,26.46 26.46,12.13 45.2,17.64 70.56,30.87 27.55,15.41 40.78,36.37 70.56,44.09 33.09,8.82 56.23,7.73 88.19,22.05 33.09,14.32 51.82,30.87 88.19,30.87 30.87,0 39.69,-33.09 57.33,-57.33 5.5,-7.72 7.73,-17.64 17.64,-17.64 25.36,0 44.1,9.92 57.33,30.87 4.41,6.6 13.23,8.82 13.23,17.64 0,46.29 -52.92,59.52 -52.92,105.83 0,17.64 13.23,26.46 13.23,44.1 0,38.6 -26.46,58.42 -26.46,97.02 0,22.04 15.45,33.05 22.05,52.91 19.86,52.92 26.42,84.32 30.83,140.51l-731.73 0.18c18.2,-24.91 10.79,-49.18 -4.66,-78.95z"/>
  <path class="fil1 str0" d="M17178.33 18856.42c-28.68,0 -41.91,-22.04 -70.55,-22.04 -15.45,0 -24.27,8.82 -35.28,17.64 -5.5,4.4 -3.32,14.32 -8.82,17.63 -11.04,7.73 -22.05,7.73 -35.28,13.23 -13.23,5.51 -20.95,13.23 -35.27,13.23 -8.82,0 -5.51,-14.32 -13.23,-17.64 -18.74,-9.91 -31.97,-13.23 -52.92,-17.64l-17.64 8.82c17.64,17.64 29.78,28.68 44.1,48.51 -25.37,13.23 -40.78,22.05 -66.15,35.28 -40.78,22.05 -48.5,57.32 -83.78,88.19 -19.86,16.55 -29.78,31.96 -52.92,44.1 -39.69,22.05 -79.37,41.91 -79.37,88.19 0,35.28 30.86,51.83 30.86,87.11l0 112.43c0,63.95 52.92,93.73 110.25,122.37 58.42,28.69 83.78,79.38 149.93,79.38 26.46,0 38.59,-18.73 61.73,-30.87 25.37,-13.23 41.88,-24.23 70.56,-30.87 35.28,-8.82 59.51,-4.41 92.6,-17.64 14.33,-5.5 22.05,-16.54 35.28,-22.04 38.6,-17.64 65.05,-22.05 105.83,-35.28 25.37,-7.73 48.51,-1.1 70.56,-17.64 18.73,-13.23 22.05,-34.19 26.46,-57.33 8.82,-40.78 17.64,-63.92 22.05,-105.83 2.22,-20.96 0,-33.06 4.41,-52.92 8.82,-37.46 23.14,-56.23 35.27,-92.6 18.74,-56.23 47.42,-82.69 79.38,-132.29 22.05,-34.19 44.1,-56.24 44.1,-97.02 0,-19.82 -18.74,-25.36 -30.87,-39.68 -15.42,-17.64 -28.65,-35.28 -52.92,-35.28 -17.64,0 -20.95,22.05 -35.28,30.87 -26.45,16.54 -47.41,26.45 -79.37,26.45 -60.64,0 -89.29,-44.09 -149.93,-44.09 -14.32,0 -18.73,16.54 -30.87,22.05 -5.5,2.18 -12.13,-1.1 -17.64,0 -13.23,4.41 -20.95,13.22 -35.28,13.22zm-899.58 -634.99c60.64,-52.92 106.93,-70.56 185.21,-88.2 47.41,-11.04 76.06,-27.55 110.24,-61.73 24.27,-24.27 31.96,-44.1 57.33,-66.15 23.14,31.96 44.1,61.74 84.88,61.74l87.1 0c39.69,59.51 69.46,119.06 141.11,119.06 26.46,0 36.37,-26.46 48.51,-48.51 16.54,-29.77 26.45,-50.73 35.27,-83.78l17.64 -4.41c36.37,73.87 109.15,74.96 149.93,145.52 -60.64,39.69 -101.42,85.97 -101.42,158.75 0,37.46 17.64,58.42 30.87,92.6 16.54,40.79 24.27,66.15 44.09,105.84 18.74,38.59 45.2,49.6 74.97,79.37 26.46,26.46 36.37,66.15 74.96,66.15 29.78,0 47.42,-18.73 66.15,-39.69 19.86,-22.05 39.69,-39.69 39.69,-70.55 0,-15.46 -24.24,-12.14 -35.28,-22.05 -16.54,-15.46 -24.24,-31.97 -30.87,-52.92 -8.82,-27.55 -11,-45.19 -13.23,-74.97 -13.23,2.19 -22.05,8.82 -35.27,8.82 -26.46,0 -35.28,-30.86 -35.28,-57.32 0,-23.14 22.05,-31.96 30.87,-52.92 7.72,-19.86 15.45,-33.09 22.04,-52.92l17.64 -52.91c6.64,-17.64 11.05,-39.69 30.87,-39.69 24.27,0 35.28,19.83 52.92,35.28 25.36,22.05 39.69,40.78 70.55,52.91 18.74,-28.68 23.15,-54.01 52.92,-70.55 23.14,-12.14 44.1,-7.73 70.56,-13.23 35.27,-6.63 52.91,-25.36 88.19,-30.87 57.33,-9.91 97.01,2.19 149.93,-22.05 40.78,-17.64 54.01,-51.82 70.56,-92.6 26.45,13.23 40.78,30.87 70.55,30.87 29.78,0 45.19,-9.92 74.97,-13.23 27.55,-3.32 46.32,3.31 70.55,-8.82 22.05,-11.04 22.05,-36.37 26.46,-61.74 21.03,-42.06 21.82,52.92 79.38,52.92 25.36,0 37.5,-19.86 52.91,-39.69 25.37,-31.96 46.32,-46.32 79.38,-70.55 13.23,-8.82 30.87,-14.33 35.28,-30.87 36.54,-120.4 -14.45,-93.82 57.32,-22.05l8.82 -17.64 0 -109.15c0,-136.87 36.78,-119.02 79.38,-5.5 6.63,19.82 4.41,36.37 17.64,52.91 14.32,17.64 30.86,19.83 52.91,26.46l22.05 -110.24c-3.32,-25.37 -16.54,-38.59 -26.46,-61.74 -12.13,-27.55 -13.23,-48.5 -13.23,-79.37 0,-44.1 14.33,-80.47 52.92,-101.43 25.36,34.19 49.6,48.51 66.15,88.2 14.32,34.18 16.54,56.23 35.27,88.19 19.86,33.06 51.83,36.38 88.2,48.51 20.95,6.6 30.87,17.64 52.91,17.64 38.6,0 55.14,-26.46 88.2,-44.1 40.78,-22.05 63.96,-38.59 101.42,-66.14 28.68,-6.64 41.91,-19.86 70.56,-26.46 2.22,27.55 0,43 0,70.55 6.63,0 9.91,4.41 16.54,4.41 24.24,0 34.19,-18.73 54.01,-30.86 49.6,-30.87 68.37,-66.15 123.48,-83.79 13.23,40.78 9.91,97.01 52.91,97.01 17.64,0 27.55,-9.91 39.69,-22.04 27.55,-27.56 35.28,-50.73 57.33,-83.79 23.14,11.01 25.36,35.28 48.5,44.1 12.14,4.41 22.05,4.41 35.28,4.41 41.91,0 63.96,-22.05 105.83,-26.46 43.01,-4.41 71.65,-8.82 105.84,-35.28 20.95,-15.45 39.69,-15.45 57.32,-35.28 15.46,-17.63 13.23,-37.5 13.23,-61.73 0,-30.87 -11,-49.6 -17.64,-79.38 -7.72,-34.18 -6.59,-56.23 -22.04,-88.19l70.55 0c0,-27.55 2.22,-54.01 26.46,-66.15 5.5,-2.22 12.14,1.1 17.64,0 19.86,34.19 28.68,58.42 57.33,83.79 19.86,-34.19 40.78,-51.83 74.96,-70.56 29.77,-16.54 37.5,-45.19 70.56,-52.91 28.68,-6.64 52.91,-3.32 70.55,-26.46 12.14,-15.45 9.91,-28.68 13.23,-48.51 24.27,-1.09 37.5,0 61.74,0 34.18,0 36.37,-52.92 70.55,-52.92 11.04,0 15.45,13.23 26.46,13.23 26.46,0 26.46,-33.09 35.28,-57.32 9.91,-28.68 31.96,-36.38 48.51,-61.74 15.45,-24.27 11.04,-48.51 22.04,-74.97 5.51,-15.45 13.23,-35.27 30.87,-35.27 20.96,0 31.96,13.23 52.92,13.23 28.68,0 24.27,-52.92 52.92,-52.92 25.36,0 36.37,22.05 61.73,22.05 46.32,0 78.28,-37.5 83.79,-83.79 2.22,-20.95 -9.92,-33.09 -4.41,-52.91 9.91,-37.5 41.91,-48.51 66.14,-79.38 22.05,-28.68 30.87,-52.91 57.33,-79.37 37.5,-37.5 50.73,-68.37 88.19,-105.84 17.64,-17.64 37.5,-20.95 52.92,-39.68 47.41,-56.24 67.24,-94.83 79.37,-167.57l-52.91 -39.69c26.46,-19.86 61.73,-28.68 61.73,-62.83l0 -103.65c0,-28.64 -17.63,-43 -17.63,-71.65 0,-29.77 17.63,-43 26.45,-70.55 9.92,-34.19 7.73,-56.23 13.23,-92.61 36.37,28.65 47.42,60.65 88.2,83.79 20.95,-37.5 37.5,-59.55 70.55,-88.2 13.23,-11.04 24.27,-14.32 35.28,-26.45 4.41,-5.51 16.55,-5.51 17.64,-13.23 8.82,-35.28 0,-57.33 8.82,-92.61 1.09,-7.72 9.91,-9.91 13.23,-17.64l35.28 35.28c49.6,-35.28 62.83,-78.28 79.37,-136.7 3.32,-13.23 4.41,-24.27 13.23,-35.28 8.82,-11.04 25.36,-13.23 30.87,-26.46 12.13,-26.45 0,-45.19 0,-74.96 15.45,0 25.36,2.19 39.69,0 16.54,-2.22 25.36,-19.86 30.86,-35.28 8.82,-23.14 13.23,-40.78 26.46,-61.73 29.78,-45.2 68.37,-51.83 119.06,-70.56 28.69,-9.91 49.6,-14.32 70.56,-35.28 50.73,-50.73 44.1,-119.06 61.74,-189.62 0,-27.55 -2.19,-43 -2.19,-70.55 30.87,-5.51 63.92,-17.64 63.92,-48.51 0,-17.64 -3.31,-27.55 -8.82,-44.1 -2.18,-6.63 -13.23,-8.82 -13.23,-16.54l0 -89.29 8.82 -35.28c56.24,8.82 72.78,49.6 123.48,74.97 5.5,-12.14 13.22,-20.96 13.22,-35.28 0,-20.95 -5.5,-34.18 -13.22,-52.92 -2.19,-7.72 -13.23,-8.82 -13.23,-17.64 0,-46.31 20.95,-70.55 44.09,-110.24 -26.45,6.6 -44.09,5.51 -70.55,13.23 -45.19,12.14 -63.93,36.37 -105.84,57.33l-17.63 -4.41c9.91,-13.23 16.54,-25.37 30.86,-35.28 4.41,-2.22 14.33,0 17.64,-4.41 15.45,-16.55 14.33,-34.18 26.46,-52.92 29.78,-44.09 60.64,-63.96 110.24,-83.78 -17.63,-17.64 -34.18,-25.37 -52.91,-39.69 -33.06,-26.46 -47.42,-47.41 -79.38,-74.96 -23.14,-19.87 -43,-27.56 -70.55,-39.69 -19.83,-8.82 -34.19,-12.14 -52.92,-22.05 -16.55,-8.82 -19.83,-30.87 -39.69,-30.87 -61.73,0 -95.92,22.05 -154.34,39.69 -17.64,5.5 -25.36,17.64 -44.09,17.64 -30.87,0 -44.1,-23.14 -61.74,-48.51 -9.91,-14.32 -27.55,-8.82 -45.19,-8.82 -194.04,0 22.01,-70.03 89.29,-74.96 34.18,-2.23 56.23,7.72 88.19,-4.41 12.14,-4.41 16.55,-15.45 22.05,-26.46 11.04,-19.86 19.86,-35.28 35.28,-52.92 50.73,-58.42 95.92,-84.88 171.98,-97.01 34.18,-5.51 55.14,-14.32 88.19,-26.46 28.68,-9.91 57.33,-7.73 70.56,-35.28 3.31,-7.72 13.23,-8.82 13.23,-17.64 0,-37.5 -29.78,-52.91 -39.69,-88.19 -3.32,-12.14 0,-23.14 -4.41,-35.28 -6.6,-16.54 -23.14,-18.73 -35.28,-30.87 -18.73,-18.73 -29.77,-33.09 -52.92,-44.09 -26.45,-13.23 -44.09,-13.23 -70.55,-26.46 -29.78,-14.33 -45.19,-30.87 -70.56,-52.92 -45.19,-38.59 -47.41,-84.88 -57.32,-145.52 49.6,24.24 82.69,29.77 132.29,52.92 17.64,7.72 19.86,23.14 35.28,35.27 9.25,7.39 105.88,97.12 79.37,44.1 -13.23,-18.73 -18.73,-35.28 -35.28,-52.92 -26.46,-28.68 -56.23,-34.18 -88.19,-57.32l4.41 -17.64c14.32,-2.22 23.14,-3.32 37.5,-4.41l130.07 22.05c-33.06,-44.1 -40.78,-79.38 -74.97,-123.47 -28.64,-37.5 -61.73,-43.01 -101.42,-70.56 -8.82,-5.5 -14.32,-11.04 -22.05,-17.64 -6.6,-5.5 -17.64,-7.72 -17.64,-17.64 0,-14.32 13.23,-20.95 13.23,-35.28 0,-24.27 -22.05,-33.09 -35.28,-52.91 -13.23,-19.86 -20.95,-35.28 -35.28,-52.92 -31.96,-37.5 -56.23,-58.42 -97.01,-88.19 -45.19,-33.09 -46.28,-79.38 -61.74,-132.29 -7.72,-28.69 -17.63,-45.2 -26.45,-74.97 -7.73,-28.68 -11.01,-47.41 -22.05,-74.97 -6.6,-15.45 -19.83,-23.14 -22.05,-39.68 -14.32,-83.79 -14.32,-136.7 -48.51,-216.08 -20.95,-48.51 -50.69,-69.46 -74.96,-119.06 -15.42,-24.27 -20.96,-43.01 -30.87,-70.56 -9.91,-28.68 -20.96,-44.09 -35.28,-70.55 -25.36,-48.51 -51.82,-81.6 -101.42,-105.84 -26.46,-13.23 -44.1,-17.63 -70.56,-30.86 -33.05,-16.55 -51.82,-34.19 -88.19,-39.69 -40.78,-6.63 -68.34,1.09 -105.84,-17.64l8.82 -35.28c-7.72,-30.87 -26.45,-47.41 -26.45,-79.37 0,-40.78 26.45,-61.74 52.91,-92.61 30.87,-36.37 40.78,-65.05 66.15,-105.83 11.04,-18.73 18.73,-31.96 26.46,-52.92 7.72,-20.95 9.91,-45.19 30.86,-52.91 12.14,-4.41 23.15,-1.1 35.28,-4.41 7.73,-2.23 9.91,-11.05 17.64,-13.23 19.86,-6.64 35.28,-6.64 52.92,-17.64 5.5,-3.32 4.41,-12.14 8.82,-17.64 15.45,-18.73 24.27,-33.09 39.68,-52.92 15.46,-19.86 38.6,-19.86 52.92,-39.68 23.14,-31.97 34.19,-57.33 66.15,-79.38 36.37,-24.27 63.96,-26.46 105.83,-44.1 41.91,-17.64 74.97,-46.32 74.97,-92.6 0,-14.32 -13.23,-20.96 -13.23,-35.28 0,-23.14 22.05,-30.87 39.68,-44.1 17.64,-13.23 29.78,-23.14 44.1,-39.68 -13.23,-7.73 -23.14,-14.33 -35.28,-22.05 5.51,-2.22 12.14,-2.22 17.64,-4.41 2.22,0 -2.19,-8.82 0,-8.82 25.37,-9.91 44.1,3.31 70.56,-4.41 22.05,-5.5 31.96,-18.73 52.91,-26.46 34.19,-13.23 58.42,-13.23 92.61,-26.46 13.23,-5.5 22.05,-16.54 35.28,-22.05 26.45,-12.13 47.41,-8.82 74.96,-17.64 16.55,-5.5 22.05,-19.86 35.28,-30.86 26.46,-23.15 36.37,-51.83 70.56,-57.33 49.6,-8.82 77.18,-12.14 127.88,-17.64 17.64,-1.09 27.55,-8.82 44.09,-13.23 12.14,-3.31 25.37,-1.09 35.28,-8.82 5.51,-3.31 4.41,-12.13 8.82,-17.64 14.32,-17.64 20.96,-33.09 30.87,-52.91 9.91,-20.96 19.86,-34.19 26.46,-57.33 -43.01,-6.63 -67.24,-17.64 -105.84,-35.28 -41.87,-18.73 -72.74,-19.86 -105.83,-52.91 -1.09,15.41 -3.32,24.23 -4.41,39.68l-166.47 0c-29.74,0 -42.97,-17.64 -71.65,-22.04 -40.78,-6.64 -68.34,1.09 -105.84,-17.64 -37.46,-18.74 -51.82,-41.91 -88.19,-61.74 -23.14,-12.14 -40.78,-23.14 -48.51,-48.51 -6.6,-22.05 -1.09,-47.41 -22.05,-57.32 -5.5,-2.23 -11,4.41 -17.64,4.41 -22.04,1.09 -34.18,12.13 -52.91,22.05 -49.6,25.36 -66.15,58.42 -110.25,92.6 -7.72,5.5 -15.41,7.73 -22.04,13.23 -24.24,22.05 -33.06,45.19 -61.74,61.73 -37.47,22.05 -68.33,18.74 -105.83,39.69 9.91,19.83 22.05,30.87 39.68,44.1 -35.27,48.51 -82.69,51.82 -141.11,66.15 -37.46,8.81 -58.42,17.63 -97.01,17.63 -41.88,0 -68.33,-9.91 -101.42,-35.27 -25.37,-18.74 -46.29,-24.27 -74.97,-35.28 -20.96,-7.73 -39.69,-20.96 -39.69,-44.1 0,-52.92 28.68,-79.37 30.87,-132.29 0,-20.96 0,-34.18 8.82,-52.92 7.73,-15.45 22.05,-20.95 30.87,-35.27 6.63,-12.14 12.13,-24.28 22.05,-35.28 3.31,-4.41 13.23,-1.1 17.64,-4.41 7.72,-6.63 8.82,-15.45 8.82,-26.46 0,-36.37 -29.78,-51.82 -57.33,-74.97 -11.01,-8.82 -16.55,-22.04 -30.87,-26.45 -19.83,-6.64 -35.28,0 -57.33,0 -76.05,2.18 -117.96,-4.41 -194.02,-13.23 -72.75,-8.82 -119.07,-5.51 -180.8,-44.1 -22.05,-13.23 -30.87,-30.87 -44.1,-52.92 -19.83,-33.09 -34.18,-52.91 -48.51,-88.19 -12.13,-29.78 -30.86,-46.32 -30.86,-79.38 0,-36.59 8.02,-63.77 17.59,-91.72l0 0 -122.83 -34.43 -233.92 -141.81c-162.58,-98.57 -256.42,168.64 -401.2,7.08 -44,-49.09 -28.17,-110.25 -103.84,-63.72 -62.27,38.3 -225.02,84.14 -283.2,25.96 -62.7,-62.7 -28.29,-189.92 -125.08,-141.6 -111.87,55.86 -644.56,265.44 -670.24,368.16 -62.22,15.55 -203.48,-161.82 -269.04,-198.24 -127.35,-72.77 -406.67,-186.11 -356.36,75.52 33.19,172.56 -180.62,202.06 -118,405.92 11.68,38.02 11.73,121.61 -7.08,155.76 -27.76,50.37 -140.59,-22.62 -186.44,51.92 -60.57,98.5 -291.85,159 -398.84,186.44 -179.17,45.95 -184.68,77.92 -228.92,254.88 -35.16,0 -94.91,-129.8 -143.96,-129.8 -1.53,4.6 -0.83,0.12 -2.36,4.72 -4.72,1.18 -61.2,103.18 -63.72,113.28 -4.56,1.14 -5.94,2.52 -7.08,7.08 -3.95,0.98 -6.03,1.57 -7.08,4.72 -34.13,0 -88.82,11.42 -115.64,4.72 -4.49,-31.46 -30.68,-75.01 -30.68,-103.84 -1.92,-0.64 -8.8,-7.52 -9.44,-9.44 -61.96,0 -157.52,51.92 -245.44,51.92 -127.51,-20.56 -238.98,59 -377.6,59 -46.97,0 -134.71,-3.52 -169.92,23.6l-174.64 134.52c-35.05,26.99 -70.64,145.07 -136.88,108.56 -110.05,-60.64 -132.22,-106.89 -271.4,-141.6 -74.7,-18.62 -107.07,-16.96 -155.76,-77.88 -16.52,-20.66 -61.23,-153.96 -68.44,-155.76 -2,-8.02 -116.45,1.5 -141.6,-2.36 -176.32,-27.12 -117.17,-73.12 -224.2,61.36 -55.71,70.01 -160.51,122.73 -238.36,148.68 0,45.72 4.78,217.19 42.48,236 67.78,33.84 224.82,27.39 271.4,-42.48l7.08 0c35.83,143.34 130.95,165.2 276.12,165.2 5.09,20.39 -2.81,23.03 -7.08,40.12 -100.62,25.15 -77.88,167.78 -77.88,261.96l2.36 2.36c49.76,0 110.09,-0.16 158.12,9.44 24.68,98.72 117.11,211.18 136.88,290.28 9.06,1.81 10.16,12.04 16.52,14.16 0,6.07 2.36,9.38 2.36,16.52 7,72.4 -78.89,75.9 -75.52,153.4l7.08 162.84 2.36 2.36c99.52,0 213.25,47.2 320.96,47.2 107.8,0 154.97,21.05 250.16,44.84l0 4.72c3.63,1.21 2.36,-0.08 2.36,4.72 -65.72,21.9 -133.1,152.18 -210.04,167.56 -13.73,54.93 182.18,178.29 84.96,243.08 -65.07,43.35 -124.1,47 -188.8,99.12 -61.07,49.21 -68.6,73.4 -155.76,56.64 -88.34,-16.98 -126.07,19.9 -165.2,113.28 -18.1,43.22 -49.66,76.76 -2.36,110.92 29.36,21.19 98.58,56.64 129.8,56.64 0,25.4 -69.06,99.5 -87.32,120.36 -27.85,39 -69.5,63.3 -89.68,108.56 -75.87,170.19 -303.23,308.27 -476.72,351.64 -30.74,122.96 -4.72,225.8 -4.72,346.92 31.87,23.9 272.92,85.97 299.72,68.44 90.36,-59.09 110.63,9.44 188.8,9.44 163.94,0 49.31,124.69 -2.36,212.4 -25.5,43.3 13.8,74.8 21.24,110.92 11.9,57.81 -30,113.76 -49.56,167.56 -49.01,106.67 -126.1,214.07 -193.52,311.52 -60.64,87.63 -46.87,105.66 25.96,162.84 135.71,106.53 87.84,171.05 273.76,96.76 65.59,-26.2 115.64,-8.8 115.64,-92.04 0,-62.19 20.8,-110.19 28.32,-162.84 123.83,-61.91 36.93,-249.4 257.24,-181.72 103.47,31.79 329.52,71.1 375.24,-66.08 76.81,0 160.7,16.52 240.72,16.52 32.28,43.04 -51.02,280.18 -54.28,351.64 -4.84,106.29 -142.82,40.11 -188.8,132.16 -32.54,65.12 -273.8,273.53 -259.6,316.24 34.54,103.87 13.8,273.12 61.36,356.36 60.62,8.66 113.48,66.08 198.24,66.08 99.29,0 165.02,75.41 240.72,122.72 88.76,28.63 104.13,187.37 136.88,257.24 22.88,48.8 71.01,115.16 44.84,167.56 -23.66,47.35 -112.55,86.13 -158.12,108.56 -93.47,45.99 -147.66,116.45 -261.96,139.24 -74.5,14.86 -161.08,84.15 -224.2,92.04 -32.16,56.28 -185.37,104.25 -198.24,155.76l99.12 63.72c45.31,36.92 65.52,38.98 120.36,54.28 31.27,8.73 63.81,26.3 92.04,42.48 68.52,39.3 157.39,64.13 231.28,82.6 -4.34,17.39 -36.88,39.58 -44.84,59 -13.42,32.77 -30.68,82.16 -30.68,118 0,37.54 15.3,98.05 4.72,129.8 53.02,37.63 98.6,95.25 153.4,129.8 33.79,21.29 79.63,78.53 120.36,82.6 17.17,24.04 44.43,37.84 56.64,70.8 16.48,44.51 20,96.63 49.56,136.88 17.39,23.69 79.99,111.45 83.55,136.39l0 0z"/>
  <path class="fil2 str1" d="M25435.08 18161.41l2130.28 0 0 1592.9 -2130.28 0 0 -1592.9z"/>
  <path class="fil3" d="M27744.09 19661.41c0,-17.45 4.47,-34.48 13.46,-51.13 8.93,-16.61 21.77,-29.59 38.43,-38.86 16.69,-9.26 34.1,-13.92 52.16,-13.92 17.92,0 35.18,4.56 51.69,13.74 16.56,9.12 29.4,21.92 38.53,38.43 9.17,16.51 13.73,33.77 13.73,51.74 0,18.01 -4.56,35.27 -13.73,51.78 -9.13,16.51 -21.97,29.35 -38.53,38.53 -16.51,9.17 -33.77,13.78 -51.69,13.78 -18.06,0 -35.47,-4.66 -52.16,-13.97 -16.66,-9.36 -29.5,-22.34 -38.43,-38.95 -8.99,-16.65 -13.46,-33.68 -13.46,-51.17zm17.22 0c0,14.62 3.76,28.88 11.24,42.7 7.48,13.83 18.2,24.65 32.13,32.46 13.92,7.81 28.41,11.71 43.46,11.71 15,0 29.35,-3.85 43.08,-11.52 13.74,-7.67 24.46,-18.39 32.13,-32.17 7.67,-13.79 11.52,-28.18 11.52,-43.18 0,-14.96 -3.85,-29.36 -11.52,-43.14 -7.67,-13.78 -18.39,-24.5 -32.13,-32.12 -13.73,-7.62 -28.08,-11.43 -43.08,-11.43 -15.05,0 -29.54,3.9 -43.46,11.66 -13.93,7.76 -24.65,18.58 -32.13,32.46 -7.48,13.87 -11.24,28.08 -11.24,42.57zm103.57 -33.35l5.08 -16.94c11.53,2.78 20.7,8.61 27.52,17.55 6.87,8.98 10.3,19.85 10.3,32.59 0,16.19 -5.22,29.31 -15.71,39.42 -10.49,10.11 -24.98,15.15 -43.55,15.15 -12.14,0 -22.68,-2.31 -31.61,-6.92 -8.99,-4.56 -15.71,-11.15 -20.28,-19.61 -4.56,-8.52 -6.82,-18.25 -6.82,-29.16 0,-12.23 2.92,-22.39 8.8,-30.48 5.88,-8.09 13.88,-13.6 23.94,-16.56l4.23 16.37c-6.91,2.77 -12.23,6.82 -15.89,12.23 -3.72,5.41 -5.55,11.71 -5.55,19 0,10.58 3.76,19.33 11.28,26.2 7.53,6.87 18.35,10.3 32.37,10.3 14.06,0 24.69,-3.24 31.89,-9.74 7.19,-6.49 10.81,-14.86 10.81,-25.16 0,-8.28 -2.39,-15.57 -7.24,-21.83 -4.8,-6.25 -11.33,-10.39 -19.57,-12.41z"/>
  <path id="1" class="fil3" d="M27949.55 19366.25l-18.58 0c14.44,9.27 21.68,22.91 21.68,40.92 0,11.67 -3.19,22.39 -9.64,32.13 -6.4,9.78 -15.38,17.35 -26.86,22.76 -11.52,5.37 -24.74,8.05 -39.69,8.05 -14.59,0 -27.8,-2.45 -39.7,-7.29 -11.86,-4.9 -20.98,-12.19 -27.29,-21.92 -6.35,-9.69 -9.5,-20.61 -9.5,-32.6 0,-8.84 1.88,-16.7 5.6,-23.56 3.72,-6.87 8.61,-12.47 14.58,-16.8l-72.67 0 0 -24.83 202.07 0 0 23.14zm-73.05 78.46c18.72,0 32.69,-3.95 41.96,-11.9 9.26,-7.91 13.87,-17.27 13.87,-28.04 0,-10.86 -4.42,-20.08 -13.26,-27.7 -8.84,-7.57 -22.34,-11.38 -40.5,-11.38 -19.94,0 -34.62,3.85 -43.98,11.61 -9.36,7.72 -14.01,17.27 -14.01,28.6 0,11.06 4.46,20.27 13.45,27.71 8.98,7.38 23.14,11.1 42.47,11.1z"/>
  <path id="2" class="fil3" d="M27888.87 19313.71l-24.83 0 0 -76.76 24.83 0 0 76.76z"/>
  <path id="3" class="fil3" d="M27949.55 19209.85l-146.47 0 0 -22.29 20.69 0c-7.15,-4.56 -12.93,-10.68 -17.26,-18.3 -4.37,-7.62 -6.54,-16.27 -6.54,-26.01 0,-10.82 2.26,-19.71 6.73,-26.62 4.52,-6.92 10.77,-11.81 18.86,-14.63 -17.07,-11.67 -25.59,-26.77 -25.59,-45.39 0,-14.58 4,-25.83 12.04,-33.63 8.05,-7.86 20.42,-11.81 37.12,-11.81l100.42 0 0 24.84 -92.19 0c-9.88,0 -17.03,0.84 -21.4,2.44 -4.38,1.6 -7.86,4.52 -10.54,8.8 -2.68,4.23 -4,9.22 -4,14.91 0,10.35 3.44,18.91 10.26,25.73 6.86,6.82 17.82,10.2 32.87,10.2l85 0 0 24.84 -95.06 0c-11.01,0 -19.29,2.02 -24.79,6.07 -5.5,4.04 -8.28,10.67 -8.28,19.85 0,6.96 1.84,13.4 5.51,19.33 3.66,5.93 9.03,10.21 16.13,12.89 7.05,2.63 17.26,3.95 30.57,3.95l75.92 0 0 24.83z"/>
  <path id="4" class="fil3" d="M27931.21 18879.09c7.85,9.22 13.35,18.11 16.6,26.62 3.25,8.52 4.84,17.64 4.84,27.43 0,16.08 -3.9,28.45 -11.75,37.11 -7.81,8.65 -17.83,12.98 -30.01,12.98 -7.15,0 -13.69,-1.65 -19.62,-4.89 -5.93,-3.29 -10.63,-7.57 -14.2,-12.84 -3.58,-5.32 -6.31,-11.24 -8.14,-17.88 -1.27,-4.89 -2.49,-12.27 -3.72,-22.1 -2.35,-20.04 -5.22,-34.86 -8.51,-44.31 -3.39,-0.1 -5.55,-0.14 -6.44,-0.14 -10.07,0 -17.17,2.35 -21.31,7.05 -5.6,6.35 -8.37,15.81 -8.37,28.32 0,11.71 2.07,20.36 6.16,25.92 4.09,5.59 11.38,9.68 21.78,12.37l-3.39 24.27c-10.4,-2.21 -18.82,-5.84 -25.21,-10.92 -6.4,-5.08 -11.29,-12.41 -14.77,-22.01 -3.44,-9.55 -5.18,-20.7 -5.18,-33.3 0,-12.51 1.46,-22.72 4.42,-30.57 2.97,-7.81 6.64,-13.6 11.11,-17.27 4.46,-3.67 10.11,-6.25 16.93,-7.76 4.23,-0.8 11.85,-1.22 22.81,-1.22l32.93 0c23,0 37.53,-0.52 43.69,-1.55 6.17,-0.99 12.05,-3.06 17.69,-6.07l0 25.96c-5.22,2.5 -11.34,4.1 -18.34,4.8zm-55.04 1.98c3.67,9.03 6.78,22.57 9.32,40.64 1.45,10.25 3.1,17.49 4.93,21.73 1.84,4.23 4.52,7.48 8,9.78 3.53,2.31 7.43,3.48 11.76,3.48 6.54,0 12.04,-2.49 16.42,-7.52 4.37,-5.04 6.58,-12.38 6.58,-22.02 0,-9.55 -2.07,-18.06 -6.25,-25.54 -4.14,-7.43 -9.84,-12.93 -17.03,-16.41 -5.6,-2.69 -13.83,-4 -24.7,-4l-9.03 -0.14z"/>
  <path id="5" class="fil3" d="M28005.71 18817.8l-202.63 0 0 -22.57 19.24 0c-7.44,-5.32 -13.03,-11.34 -16.75,-18.07 -3.72,-6.68 -5.6,-14.81 -5.6,-24.36 0,-12.51 3.2,-23.52 9.65,-33.07 6.39,-9.55 15.47,-16.74 27.14,-21.63 11.71,-4.85 24.5,-7.3 38.47,-7.3 14.91,0 28.37,2.69 40.36,8.05 11.95,5.36 21.12,13.17 27.52,23.42 6.35,10.21 9.54,20.98 9.54,32.27 0,8.28 -1.74,15.71 -5.22,22.25 -3.48,6.58 -7.85,11.94 -13.17,16.18l71.45 0 0 24.83zm-128.5 -22.57c18.77,0 32.69,-3.81 41.67,-11.39 8.99,-7.62 13.45,-16.84 13.45,-27.65 0,-11.01 -4.65,-20.42 -13.97,-28.23 -9.31,-7.85 -23.7,-11.76 -43.22,-11.76 -18.63,0 -32.55,3.81 -41.82,11.48 -9.26,7.67 -13.87,16.79 -13.87,27.42 0,10.54 4.94,19.85 14.77,27.94 9.87,8.14 24.17,12.19 42.99,12.19z"/>
  <path id="6" class="fil3" d="M27905.81 18670.72l-3.96 -24.55c9.84,-1.37 17.36,-5.22 22.63,-11.53 5.22,-6.3 7.85,-15.14 7.85,-26.43 0,-11.43 -2.3,-19.9 -6.96,-25.45 -4.61,-5.5 -10.06,-8.28 -16.32,-8.28 -5.6,0 -10.02,2.5 -13.22,7.44 -2.21,3.48 -4.98,11.94 -8.42,25.4 -4.56,18.15 -8.51,30.71 -11.85,37.77 -3.39,7 -7.99,12.32 -13.92,15.94 -5.88,3.62 -12.42,5.46 -19.57,5.46 -6.54,0 -12.56,-1.51 -18.11,-4.47 -5.55,-3.01 -10.16,-7.06 -13.83,-12.18 -2.82,-3.86 -5.22,-9.13 -7.19,-15.76 -1.98,-6.68 -2.97,-13.78 -2.97,-21.4 0,-11.48 1.65,-21.54 4.99,-30.2 3.29,-8.7 7.81,-15.1 13.45,-19.24 5.69,-4.09 13.27,-6.96 22.77,-8.51l3.38 24.27c-7.62,1.08 -13.59,4.28 -17.87,9.55 -4.28,5.27 -6.4,12.7 -6.4,22.34 0,11.34 1.88,19.47 5.65,24.32 3.76,4.84 8.18,7.29 13.21,7.29 3.2,0 6.12,-0.99 8.71,-3.01 2.63,-2.02 4.84,-5.18 6.58,-9.5 0.94,-2.5 3.06,-9.74 6.35,-21.87 4.66,-17.5 8.52,-29.73 11.48,-36.69 2.96,-6.96 7.34,-12.42 12.98,-16.37 5.69,-4 12.75,-5.98 21.21,-5.98 8.24,0 16,2.4 23.29,7.25 7.29,4.84 12.93,11.8 16.93,20.88 4,9.13 5.97,19.43 5.97,30.91 0,19 -3.95,33.53 -11.8,43.5 -7.9,9.98 -19.57,16.33 -35.04,19.1z"/>
  <path id="7" class="fil3" d="M27949.55 18512.68l-28.22 0 0 -28.22 28.22 0 0 28.22z"/>
  <path id="8" class="fil3" d="M27895.93 18345.65l3.38 -24.27c16.7,2.68 29.73,9.45 39.19,20.41 9.45,10.96 14.15,24.46 14.15,40.41 0,19.99 -6.53,36.08 -19.61,48.21 -13.08,12.18 -31.8,18.25 -56.16,18.25 -15.81,0 -29.59,-2.63 -41.39,-7.85 -11.86,-5.22 -20.75,-13.17 -26.63,-23.9 -5.92,-10.68 -8.89,-22.29 -8.89,-34.9 0,-15.85 4,-28.88 12.04,-38.95 8.05,-10.11 19.48,-16.6 34.25,-19.42l3.67 23.99c-9.83,2.3 -17.22,6.35 -22.2,12.23 -4.94,5.83 -7.44,12.88 -7.44,21.16 0,12.51 4.47,22.67 13.41,30.53 8.98,7.81 23.09,11.71 42.47,11.71 19.66,0 33.92,-3.76 42.81,-11.29 8.89,-7.57 13.35,-17.4 13.35,-29.49 0,-9.78 -2.96,-17.92 -8.93,-24.41 -5.93,-6.54 -15.1,-10.68 -27.47,-12.42z"/>
  <path id="9" class="fil3" d="M27876.31 18309.53c-27.04,0 -47.08,-7.53 -60.11,-22.63 -10.82,-12.56 -16.23,-27.94 -16.23,-46.05 0,-20.08 6.59,-36.54 19.76,-49.34 13.12,-12.75 31.33,-19.14 54.51,-19.14 18.82,0 33.59,2.82 44.36,8.46 10.77,5.65 19.14,13.88 25.12,24.7 5.97,10.77 8.93,22.58 8.93,35.32 0,20.51 -6.53,37.07 -19.66,49.72 -13.12,12.65 -32.03,18.96 -56.68,18.96zm0.05 -25.4c18.72,0 32.74,-4.1 42,-12.28 9.32,-8.23 13.97,-18.53 13.97,-31 0,-12.32 -4.65,-22.57 -14.01,-30.81 -9.36,-8.18 -23.61,-12.27 -42.76,-12.27 -18.06,0 -31.75,4.14 -41.01,12.37 -9.32,8.23 -13.97,18.48 -13.97,30.71 0,12.47 4.61,22.77 13.87,31 9.27,8.18 23.24,12.28 41.91,12.28z"/>
  <path id="10" class="fil3" d="M27949.55 18143.25l-146.47 0 0 -22.29 20.69 0c-7.15,-4.56 -12.93,-10.68 -17.26,-18.3 -4.37,-7.62 -6.54,-16.27 -6.54,-26.01 0,-10.82 2.26,-19.71 6.73,-26.62 4.52,-6.92 10.77,-11.81 18.86,-14.63 -17.07,-11.67 -25.59,-26.77 -25.59,-45.39 0,-14.58 4,-25.83 12.04,-33.63 8.05,-7.86 20.42,-11.81 37.12,-11.81l100.42 0 0 24.84 -92.19 0c-9.88,0 -17.03,0.84 -21.4,2.44 -4.38,1.6 -7.86,4.52 -10.54,8.8 -2.68,4.23 -4,9.22 -4,14.91 0,10.35 3.44,18.91 10.26,25.73 6.86,6.82 17.82,10.2 32.87,10.2l85 0 0 24.84 -95.06 0c-11.01,0 -19.29,2.02 -24.79,6.07 -5.5,4.04 -8.28,10.67 -8.28,19.85 0,6.96 1.84,13.4 5.51,19.33 3.66,5.93 9.03,10.21 16.13,12.89 7.05,2.63 17.26,3.95 30.57,3.95l75.92 0 0 24.83z"/>
  <g id="_2415173649936">
   <g>
    <path class="fil4 str2" d="M25570.4 18756.9l375.25 0 0 99.16 -375.25 0 0 -99.16z"/>
    <path class="fil1 str2" d="M25945.64 18756.9l375.25 0 0 99.16 -375.25 0 0 -99.16z"/>
    <path class="fil4 str2" d="M26320.89 18756.9l375.24 0 0 99.16 -375.24 0 0 -99.16z"/>
    <path class="fil1 str2" d="M26696.22 18756.9l375.25 0 0 99.16 -375.25 0 0 -99.16z"/>
    <path class="fil4 str2" d="M27071.48 18756.9l375.24 0 0 99.16 -375.24 0 0 -99.16z"/>
    <path class="fil1 str2" d="M26772.04 19055.84l600.17 0 0 99.16 -600.17 0 0 -99.16z"/>
    <path class="fil4 str2" d="M26171.88 19055.84l600.16 0 0 99.16 -600.16 0 0 -99.16z"/>
    <path class="fil1 str2" d="M25571.71 19055.84l600.17 0 0 99.16 -600.17 0 0 -99.16z"/>
   </g>
   <path class="fil5" d="M26106.48 18329.16l-13.47 29.28 -70.55 0 -15.47 31.28c30.81,4.52 55.04,15.81 72.79,33.98 15.23,15.64 22.82,33.99 22.82,55.15 0,12.29 -2.47,23.7 -7.47,34.11 -5,10.46 -11.29,19.4 -18.87,26.75 -7.53,7.35 -16,13.29 -25.29,17.75 -13.17,6.3 -26.69,9.47 -40.57,9.47 -13.99,0 -24.16,-2.35 -30.57,-7.11 -6.35,-4.71 -9.53,-9.94 -9.53,-15.64 0,-3.18 1.3,-6 3.94,-8.47 2.65,-2.47 6,-3.65 10,-3.65 2.94,0 5.58,0.42 7.82,1.36 2.23,0.88 6,3.23 11.4,6.99 8.59,5.94 17.35,8.88 26.17,8.88 13.4,0 25.22,-5.11 35.39,-15.29 10.12,-10.17 15.23,-22.57 15.23,-37.21 0,-14.12 -4.52,-27.34 -13.58,-39.57 -9.11,-12.29 -21.58,-21.76 -37.57,-28.4 -12.46,-5.18 -29.52,-8.18 -51.09,-9l44.8 -90.66 83.67 0z"/>
   <path id="1" class="fil5" d="M26142.46 18447.46c0,-26.64 4,-49.51 12.05,-68.74 8.06,-19.22 18.7,-33.57 32.05,-42.98 10.29,-7.47 20.99,-11.17 31.98,-11.17 17.94,0 33.99,9.11 48.22,27.34 17.81,22.64 26.69,53.27 26.69,91.96 0,27.05 -3.88,50.09 -11.7,69.03 -7.82,18.93 -17.76,32.63 -29.87,41.21 -12.11,8.53 -23.81,12.82 -35.04,12.82 -22.29,0 -40.81,-13.11 -55.62,-39.39 -12.53,-22.17 -18.76,-48.86 -18.76,-80.08zm33.87 4.23c0,32.1 3.94,58.33 11.82,78.67 6.52,17.11 16.28,25.63 29.22,25.63 6.17,0 12.58,-2.76 19.22,-8.34 6.65,-5.59 11.65,-14.88 15.11,-27.99 5.24,-19.7 7.88,-47.57 7.88,-83.43 0,-26.64 -2.76,-48.86 -8.23,-66.62 -4.11,-13.23 -9.46,-22.58 -15.99,-28.05 -4.65,-3.82 -10.35,-5.7 -16.99,-5.7 -7.76,0 -14.7,3.53 -20.76,10.52 -8.23,9.53 -13.87,24.46 -16.81,44.92 -3,20.41 -4.47,40.52 -4.47,60.39z"/>
   <path id="2" class="fil5" d="M26318.85 18447.46c0,-26.64 4,-49.51 12.05,-68.74 8.06,-19.22 18.7,-33.57 32.05,-42.98 10.29,-7.47 20.99,-11.17 31.98,-11.17 17.94,0 33.99,9.11 48.22,27.34 17.81,22.64 26.69,53.27 26.69,91.96 0,27.05 -3.88,50.09 -11.7,69.03 -7.82,18.93 -17.76,32.63 -29.87,41.21 -12.11,8.53 -23.81,12.82 -35.04,12.82 -22.29,0 -40.81,-13.11 -55.62,-39.39 -12.53,-22.17 -18.76,-48.86 -18.76,-80.08zm33.87 4.23c0,32.1 3.94,58.33 11.82,78.67 6.52,17.11 16.28,25.63 29.22,25.63 6.17,0 12.58,-2.76 19.22,-8.34 6.65,-5.59 11.65,-14.88 15.11,-27.99 5.24,-19.7 7.88,-47.57 7.88,-83.43 0,-26.64 -2.76,-48.86 -8.23,-66.62 -4.11,-13.23 -9.46,-22.58 -15.99,-28.05 -4.65,-3.82 -10.35,-5.7 -16.99,-5.7 -7.76,0 -14.7,3.53 -20.76,10.52 -8.23,9.53 -13.87,24.46 -16.81,44.92 -3,20.41 -4.47,40.52 -4.47,60.39z"/>
   <path id="3" class="fil5" d="M26628.6 18317.87l0 157.16 39.98 -36.63c8.52,-7.82 13.46,-12.76 14.81,-14.82 0.95,-1.41 1.42,-2.76 1.42,-4.17 0,-2.29 -1,-4.23 -2.89,-5.94 -1.88,-1.65 -4.99,-2.59 -9.4,-2.82l0 -5.65 68.61 0 0 5.65c-9.35,0.23 -17.17,1.7 -23.4,4.35 -6.23,2.7 -13.05,7.47 -20.52,14.29l-40.63 37.22 40.34 51.33c11.29,14.05 18.81,23.04 22.58,26.98 5.58,5.24 10.4,8.65 14.58,10.17 2.94,1.12 7.99,1.71 15.17,1.71l0 6.35 -76.73 0 0 -6.35c4.41,-0.12 7.35,-0.76 8.88,-1.94 1.58,-1.24 2.35,-2.88 2.35,-5.06 0,-2.64 -2.3,-6.88 -6.88,-12.7l-48.27 -61.79 0 52.21c0,10.23 0.7,16.93 2.11,20.17 1.47,3.17 3.47,5.46 6.12,6.88 2.64,1.35 8.35,2.11 17.17,2.23l0 6.35 -80.08 0 0 -6.35c7.99,0 14.05,-1 18.05,-2.94 2.41,-1.23 4.23,-3.17 5.46,-5.76 1.71,-3.76 2.59,-10.29 2.59,-19.52l0 -143.94c0,-18.05 -0.41,-29.1 -1.18,-33.16 -0.82,-4.05 -2.11,-6.82 -3.99,-8.35 -1.83,-1.58 -4.24,-2.35 -7.18,-2.35 -2.41,0 -6.05,1 -10.82,2.94l-2.93 -6.35 46.74 -19.4 7.94 0z"/>
   <path id="4" class="fil5" d="M26805.34 18434.17c11.41,-11.53 18.17,-18.17 20.22,-19.93 5.12,-4.36 10.65,-7.77 16.59,-10.18 5.93,-2.41 11.81,-3.64 17.63,-3.64 9.88,0 18.29,2.88 25.4,8.64 7.06,5.76 11.82,14.11 14.17,25.11 11.88,-13.88 21.88,-22.93 30.05,-27.28 8.17,-4.3 16.58,-6.47 25.22,-6.47 8.35,0 15.82,2.17 22.35,6.47 6.46,4.29 11.64,11.34 15.4,21.16 2.53,6.65 3.82,17.11 3.82,31.4l0 67.97c0,9.82 0.71,16.58 2.18,20.23 1.12,2.46 3.23,4.64 6.23,6.4 3.06,1.77 8,2.65 14.88,2.65l0 6.35 -77.26 0 0 -6.35 3.29 0c6.7,0 11.99,-1.29 15.76,-3.94 2.64,-1.82 4.52,-4.76 5.64,-8.76 0.47,-1.94 0.71,-7.47 0.71,-16.58l0 -67.91c0,-12.88 -1.53,-21.93 -4.65,-27.22 -4.52,-7.35 -11.7,-11.06 -21.63,-11.06 -6.06,0 -12.23,1.53 -18.41,4.59 -6.11,3 -13.58,8.7 -22.34,16.93l-0.35 1.94 0.7 7.41 0 75.32c0,10.7 0.59,17.4 1.77,20.05 1.23,2.59 3.46,4.82 6.76,6.58 3.29,1.77 8.93,2.65 16.87,2.65l0 6.35 -79.37 0 0 -6.35c8.64,0 14.58,-1 17.81,-3.06 3.24,-2.06 5.47,-5.17 6.7,-9.29 0.59,-1.94 0.89,-7.58 0.89,-16.93l0 -67.91c0,-12.88 -1.88,-22.17 -5.65,-27.87 -5.05,-7.41 -12.05,-11.11 -21.11,-11.11 -6.17,0 -12.28,1.7 -18.34,5.05 -9.47,5.06 -16.82,10.82 -21.93,17.17l0 84.67c0,10.29 0.7,16.93 2.12,20.05 1.41,3.06 3.52,5.35 6.35,6.94 2.76,1.53 8.4,2.29 16.93,2.29l0 6.35 -77.97 0 0 -6.35c7.24,0 12.29,-0.76 15.17,-2.29 2.89,-1.59 5.06,-4 6.59,-7.41 1.47,-3.35 2.23,-9.88 2.23,-19.58l0 -60.33c0,-17.28 -0.53,-28.45 -1.53,-33.51 -0.82,-3.82 -2.05,-6.41 -3.82,-7.82 -1.7,-1.47 -4.05,-2.18 -6.99,-2.18 -3.24,0 -7.06,0.89 -11.53,2.59l-2.58 -6.35 47.62 -19.4 7.41 0 0 33.75z"/>
   <path class="fil5" d="M26041.66 19343.84c6.64,-15.76 15.11,-27.93 25.28,-36.51 10.17,-8.59 22.87,-12.88 38.04,-12.88 18.76,0 33.11,6.06 43.1,18.23 7.59,9.05 11.41,18.75 11.41,29.1 0,16.99 -10.7,34.57 -32.11,52.68 14.41,5.65 25.29,13.64 32.7,24.11 7.35,10.41 11.05,22.7 11.05,36.81 0,20.22 -6.47,37.69 -19.34,52.5 -16.76,19.29 -41.1,28.93 -72.97,28.93 -15.76,0 -26.46,-1.94 -32.16,-5.88 -5.71,-3.88 -8.53,-8.11 -8.53,-12.58 0,-3.35 1.35,-6.23 4.06,-8.76 2.7,-2.53 5.94,-3.82 9.76,-3.82 2.88,0 5.82,0.47 8.82,1.41 1.94,0.59 6.35,2.7 13.29,6.35 6.88,3.64 11.7,5.82 14.34,6.52 4.24,1.3 8.82,1.94 13.64,1.94 11.76,0 21.93,-4.52 30.64,-13.64 8.7,-9.05 13.05,-19.81 13.05,-32.22 0,-9.05 -2,-17.93 -6.06,-26.51 -3,-6.47 -6.29,-11.35 -9.82,-14.65 -4.99,-4.58 -11.76,-8.76 -20.4,-12.52 -8.64,-3.7 -17.46,-5.58 -26.46,-5.58l-5.52 0 0 -5.3c9.11,-1.17 18.16,-4.41 27.34,-9.82 9.11,-5.4 15.75,-11.87 19.87,-19.46 4.17,-7.58 6.23,-15.87 6.23,-24.99 0,-11.81 -3.7,-21.34 -11.11,-28.63 -7.47,-7.29 -16.7,-10.94 -27.75,-10.94 -17.82,0 -32.69,9.65 -44.69,28.87l-5.7 -2.76z"/>
   <path id="1" class="fil5" d="M26213.11 19417.34c0,-26.64 4,-49.51 12.05,-68.74 8.06,-19.22 18.7,-33.57 32.05,-42.98 10.29,-7.47 20.99,-11.17 31.98,-11.17 17.94,0 33.99,9.11 48.22,27.34 17.81,22.64 26.69,53.27 26.69,91.96 0,27.05 -3.88,50.09 -11.7,69.03 -7.82,18.93 -17.76,32.63 -29.87,41.21 -12.11,8.53 -23.81,12.82 -35.04,12.82 -22.29,0 -40.81,-13.11 -55.62,-39.39 -12.53,-22.17 -18.76,-48.86 -18.76,-80.08zm33.87 4.23c0,32.1 3.94,58.33 11.82,78.67 6.52,17.11 16.28,25.63 29.22,25.63 6.17,0 12.58,-2.76 19.22,-8.34 6.65,-5.59 11.65,-14.88 15.11,-27.99 5.24,-19.7 7.88,-47.57 7.88,-83.43 0,-26.64 -2.76,-48.86 -8.23,-66.62 -4.11,-13.23 -9.46,-22.58 -15.99,-28.05 -4.65,-3.82 -10.35,-5.7 -16.99,-5.7 -7.76,0 -14.7,3.53 -20.76,10.52 -8.23,9.53 -13.87,24.46 -16.81,44.92 -3,20.41 -4.47,40.52 -4.47,60.39z"/>
   <path id="2" class="fil5" d="M26389.5 19417.34c0,-26.64 4,-49.51 12.05,-68.74 8.06,-19.22 18.7,-33.57 32.05,-42.98 10.29,-7.47 20.99,-11.17 31.98,-11.17 17.94,0 33.99,9.11 48.22,27.34 17.81,22.64 26.69,53.27 26.69,91.96 0,27.05 -3.88,50.09 -11.7,69.03 -7.82,18.93 -17.76,32.63 -29.87,41.21 -12.11,8.53 -23.81,12.82 -35.04,12.82 -22.29,0 -40.81,-13.11 -55.62,-39.39 -12.53,-22.17 -18.76,-48.86 -18.76,-80.08zm33.87 4.23c0,32.1 3.94,58.33 11.82,78.67 6.52,17.11 16.28,25.63 29.22,25.63 6.17,0 12.58,-2.76 19.22,-8.34 6.65,-5.59 11.65,-14.88 15.11,-27.99 5.24,-19.7 7.88,-47.57 7.88,-83.43 0,-26.64 -2.76,-48.86 -8.23,-66.62 -4.11,-13.23 -9.46,-22.58 -15.99,-28.05 -4.65,-3.82 -10.35,-5.7 -16.99,-5.7 -7.76,0 -14.7,3.53 -20.76,10.52 -8.23,9.53 -13.87,24.46 -16.81,44.92 -3,20.41 -4.47,40.52 -4.47,60.39z"/>
   <path id="3" class="fil5" d="M26699.6 19404.05c11.41,-11.53 18.17,-18.17 20.22,-19.93 5.12,-4.36 10.65,-7.77 16.59,-10.18 5.93,-2.41 11.81,-3.64 17.63,-3.64 9.88,0 18.29,2.88 25.4,8.64 7.06,5.76 11.82,14.11 14.17,25.11 11.88,-13.88 21.88,-22.93 30.05,-27.28 8.17,-4.3 16.58,-6.47 25.22,-6.47 8.35,0 15.82,2.17 22.35,6.47 6.46,4.29 11.64,11.34 15.4,21.16 2.53,6.65 3.82,17.11 3.82,31.4l0 67.97c0,9.82 0.71,16.58 2.18,20.23 1.12,2.46 3.23,4.64 6.23,6.4 3.06,1.77 8,2.65 14.88,2.65l0 6.35 -77.26 0 0 -6.35 3.29 0c6.7,0 11.99,-1.29 15.76,-3.94 2.64,-1.82 4.52,-4.76 5.64,-8.76 0.47,-1.94 0.71,-7.47 0.71,-16.58l0 -67.91c0,-12.88 -1.53,-21.93 -4.65,-27.22 -4.52,-7.35 -11.7,-11.06 -21.63,-11.06 -6.06,0 -12.23,1.53 -18.41,4.59 -6.11,3 -13.58,8.7 -22.34,16.93l-0.35 1.94 0.7 7.41 0 75.32c0,10.7 0.59,17.4 1.77,20.05 1.23,2.59 3.46,4.82 6.76,6.58 3.29,1.77 8.93,2.65 16.87,2.65l0 6.35 -79.37 0 0 -6.35c8.64,0 14.58,-1 17.81,-3.06 3.24,-2.06 5.47,-5.17 6.7,-9.29 0.59,-1.94 0.89,-7.58 0.89,-16.93l0 -67.91c0,-12.88 -1.88,-22.17 -5.65,-27.87 -5.05,-7.41 -12.05,-11.11 -21.11,-11.11 -6.17,0 -12.28,1.7 -18.34,5.05 -9.47,5.06 -16.82,10.82 -21.93,17.17l0 84.67c0,10.29 0.7,16.93 2.12,20.05 1.41,3.06 3.52,5.35 6.35,6.94 2.76,1.53 8.4,2.29 16.93,2.29l0 6.35 -77.97 0 0 -6.35c7.24,0 12.29,-0.76 15.17,-2.29 2.89,-1.59 5.06,-4 6.59,-7.41 1.47,-3.35 2.23,-9.88 2.23,-19.58l0 -60.33c0,-17.28 -0.53,-28.45 -1.53,-33.51 -0.82,-3.82 -2.05,-6.41 -3.82,-7.82 -1.7,-1.47 -4.05,-2.18 -6.99,-2.18 -3.24,0 -7.06,0.89 -11.53,2.59l-2.58 -6.35 47.62 -19.4 7.41 0 0 33.75z"/>
   <path id="4" class="fil5" d="M26967.24 19287.75c4.76,0 8.88,1.7 12.29,5.05 3.35,3.41 5.05,7.53 5.05,12.29 0,4.82 -1.7,9 -5.05,12.41 -3.41,3.47 -7.53,5.17 -12.29,5.17 -4.82,0 -9,-1.7 -12.41,-5.17 -3.47,-3.41 -5.17,-7.59 -5.17,-12.41 0,-4.76 1.7,-8.88 5.05,-12.29 3.41,-3.35 7.59,-5.05 12.53,-5.05zm14.17 82.55l0 127c0,9.82 0.7,16.34 2.17,19.58 1.41,3.29 3.53,5.7 6.35,7.29 2.82,1.59 8,2.41 15.47,2.41l0 6.35 -76.56 0 0 -6.35c7.65,0 12.82,-0.76 15.41,-2.23 2.64,-1.47 4.7,-3.94 6.29,-7.35 1.53,-3.41 2.29,-10 2.29,-19.7l0 -61.03c0,-16.99 -0.53,-27.99 -1.53,-33.05 -0.82,-3.64 -2.05,-6.17 -3.82,-7.58 -1.7,-1.47 -4.06,-2.18 -7,-2.18 -3.23,0 -7.11,0.89 -11.7,2.59l-2.41 -6.35 47.45 -19.4 7.59 0z"/>
  </g>
  <path class="fil6 str3" d="M1003.47 1000.15l27157.51 0 0 18984.6 -27157.51 0 0 -18984.6z"/>
  <g id="_2415173646992">
   <path class="fil2 str1" d="M24490.58 18157.99l815.93 0 0 1592.89 -815.93 0 0 -1592.89z"/>
   <path class="fil7" d="M24838.68 18594.12c-0.92,3.32 -1.63,6.35 -2.07,9.15 -0.44,2.79 -0.65,5.18 -0.65,7.22 0,5.59 1.8,9.56 5.29,11.89 3.49,2.33 9.55,3.49 18.05,3.49l4.15 0 -4.96 22.72 -78.17 0 5.29 -22.72 2.89 0c7.36,0 12.82,-1.51 16.48,-4.54 3.6,-2.97 6.32,-8.39 8.12,-16.14l37.59 -153.79c0.6,-2.74 1.14,-5.54 1.52,-8.45 0.33,-2.91 0.55,-5.77 0.55,-8.62 0,-5.36 -1.96,-9.15 -5.95,-11.36 -3.92,-2.22 -10.69,-3.32 -20.23,-3.32l-3.06 0 5.29 -22.72 72.33 0 62.14 183.5 31.31 -129.03c1.08,-4.2 1.85,-7.63 2.34,-10.31 0.49,-2.68 0.71,-4.72 0.71,-6.06 0,-5.6 -1.8,-9.56 -5.35,-11.89 -3.6,-2.33 -9.71,-3.49 -18.32,-3.49l-4.15 0 4.96 -22.72 78.5 0 -5.62 22.72 -2.84 0c-7.37,0 -12.87,1.51 -16.47,4.54 -3.66,2.97 -6.33,8.33 -8.18,15.96l-50.68 208.44 -21.54 0 -72.06 -209.48 -37.21 155.01z"/>
   <path class="fil6 str4" d="M24899.37 19617.68l0 -769.27"/>
   <path class="fil6 str4" d="M24617.32 19341.63l563.14 0"/>
   <path class="fil6 str4" d="M24754.47 19481.62l294.22 -286.81"/>
   <path class="fil6 str4" d="M24751.33 19194.57l297.98 288.85"/>
   <path class="fil6 str4" d="M24899.23 18851.14l-95.47 118.01"/>
   <path class="fil6 str4" d="M24899.85 18851.1l87.89 118.05"/>
  </g>
 </g>
</svg>
