<?xml version="1.0" encoding="UTF-8"?>
<!DOCTYPE svg PUBLIC "-//W3C//DTD SVG 1.1//EN" "http://www.w3.org/Graphics/SVG/1.1/DTD/svg11.dtd">
<!-- Creator: CorelDRAW -->
<svg xmlns="http://www.w3.org/2000/svg" xml:space="preserve" width="297mm" height="210mm" version="1.1" style="shape-rendering:geometricPrecision; text-rendering:geometricPrecision; image-rendering:optimizeQuality; fill-rule:evenodd; clip-rule:evenodd"
viewBox="0 0 29700 21000"
 xmlns:xlink="http://www.w3.org/1999/xlink">
 <defs>
  <style type="text/css">
   <![CDATA[
    .str3 {stroke:black;stroke-width:10;stroke-miterlimit:3.864;stroke-opacity:0.501961}
    .str5 {stroke:black;stroke-width:50;stroke-miterlimit:22.9256}
    .str2 {stroke:#003399;stroke-width:20;stroke-miterlimit:22.9256}
    .str4 {stroke:#3F3E3F;stroke-width:10;stroke-miterlimit:3.864}
    .str0 {stroke:#000066;stroke-width:10;stroke-miterlimit:22.9256}
    .str1 {stroke:#003399;stroke-width:10;stroke-miterlimit:22.9256}
    .str6 {stroke:black;stroke-width:7.62;stroke-miterlimit:22.9256}
    .fil9 {fill:none}
    .fil3 {fill:none;fill-rule:nonzero}
    .fil0 {fill:#FEFEFE}
    .fil2 {fill:#FEFEFE;fill-rule:nonzero}
    .fil6 {fill:#D9DADA;fill-rule:nonzero}
    .fil8 {fill:#434242;fill-rule:nonzero}
    .fil7 {fill:#2B2A29;fill-rule:nonzero}
    .fil5 {fill:black;fill-rule:nonzero}
    .fil1 {fill:white;fill-rule:nonzero}
    .fil4 {fill:#FEFEFE;fill-rule:nonzero;fill-opacity:0.501961}
   ]]>
  </style>
 </defs>
 <g id="Plan_x0020_1">
  <metadata id="CorelCorpID_0Corel-Layer"/>
  <rect class="fil0" x="1079.58" y="1111.88" width="26475.5" height="18793.07"/>
  <path class="fil1 str0" d="M8633.2 18362.81l-56.72 -28.37c-17.74,24.81 -23.63,48.45 -23.63,80.36 0,30.74 25.97,56.72 56.72,56.72 9.45,0 15.35,-7.07 23.63,-9.45 2.39,-38.99 4.73,-60.28 0,-99.26zm15981.06 943.46c-3.77,-2.2 -5.74,-4.7 -8.65,-7.94 -3.18,-3.59 -4.99,-7.9 -10.02,-7.9 -3.11,0 -3.63,4.11 -3.63,7.18 -0.2,4.53 -0.87,7.03 -1.44,11.53 -1.06,7.23 -3.82,10.97 -5.07,18 -3.02,16.56 -16.52,23.26 -16.52,40.17 0,6.83 3.06,10.66 4.31,17.27 2.19,11.69 1.81,18.57 2.87,30.45 0.57,6.27 1.82,9.71 2.88,15.8 2.19,11.53 0.72,18.19 0.72,29.92 0,17.65 6.5,27 6.5,44.65 0,6.63 -1.63,10.25 -1.43,16.91 0,0.56 1.24,0.19 1.24,0.68 0,1.51 -1.44,2.38 -1.24,3.63 0.33,1.82 1.43,3.25 2.87,4.3 3.25,2.58 6.65,1.44 10.81,2.2 4.12,0.72 6.84,1.25 10.78,2.88 6.85,2.87 10.29,6.46 15.84,11.53 3.59,3.25 6.13,7.15 11.16,7.15 4.5,0 6.85,-4.28 7.57,-8.62 0.9,-4.65 1.09,-7.37 1.43,-12.22 0.38,-6.66 2.34,-10.62 1.44,-17.28 0,-1.09 -1.44,-1.29 -1.44,-2.35l0 -64.47c0,-14.94 -2.15,-23.37 -2.15,-38.35 0,-18.53 1.47,-29.15 2.15,-47.68 -4.87,-14.79 -9.19,-22.16 -17.29,-35.09 -3.25,-5.26 -6.99,-7.03 -10.05,-12.25 -1.63,-2.92 -2.87,-6.66 -3.64,-10.1zm-23534.68 -18194.37l2285.79 0c7.11,89.81 49.31,167.82 49.31,257.63 0,63.8 -66.18,77.98 -122.9,104 -59.07,25.97 -96.88,51.98 -151.26,85.08 -54.35,33.09 -106.34,40.16 -151.26,85.09 -44.89,44.88 -47.27,89.8 -47.27,153.59 0,14.18 9.45,21.3 9.45,35.48l113.44 -66.18c59.11,28.37 85.09,70.91 132.36,113.45 44.92,40.16 73.28,73.25 85.09,132.35 7.1,42.54 0,70.9 9.45,113.45 18.91,75.62 66.17,111.06 66.17,189.08 0,28.36 -14.18,49.61 -9.45,75.62 7.11,44.9 40.19,68.53 47.27,113.46 9.45,56.71 -2.35,101.6 28.36,151.26 40.2,63.79 85.08,82.7 141.81,132.35 85.09,73.24 137.08,113.44 226.89,179.62 122.9,92.16 200.92,139.43 340.34,207.99 -16.53,73.24 -23.63,122.9 -56.72,189.08 -18.91,37.8 -42.55,66.17 -85.08,66.17 -52,0 -85.09,9.45 -132.37,-9.46 -54.33,-23.63 -63.79,-85.08 -122.89,-85.08 -37.82,0 -61.45,7.07 -94.54,18.91 -28.36,11.79 -42.54,37.81 -75.63,37.81 -33.09,0 -44.88,-37.81 -75.63,-47.26 -61.45,-18.91 -104,-18.91 -170.17,-18.91 -47.27,0 -66.18,37.82 -113.45,37.82 -40.15,0 -56.72,-28.37 -94.53,-37.82 -49.62,-14.18 -80.37,0 -132.35,0 -37.82,0 -56.73,9.45 -94.55,9.45 -28.36,0 -54.34,-14.18 -75.62,0 -23.64,16.52 -16.53,47.27 -28.37,75.63 -21.25,52 -59.07,70.91 -94.54,113.45 -44.88,51.99 -59.06,101.61 -103.99,151.26 -68.52,73.25 -141.81,70.9 -226.9,122.9 -61.44,37.82 -85.07,77.97 -132.35,132.35 -66.18,75.64 -127.62,108.73 -217.44,160.72 -75.62,42.54 -132.35,56.72 -189.08,122.9 -49.61,59.07 -89.8,122.9 -170.17,122.9 -16.51,0 -23.62,-16.56 -37.8,-18.91 9.45,-127.62 40.19,-217.44 132.35,-302.52 11.83,-9.45 11.83,-30.74 28.36,-37.82 26.02,-11.83 49.65,-16.56 75.63,-28.36 59.1,-26.02 82.74,-68.56 141.8,-94.53 104,-47.28 184.35,-75.64 236.35,-179.63l-111.06 0c-134.73,0 -207.99,47.26 -342.72,47.26 -73.25,0 -115.79,-16.56 -189.08,-28.35l28.37 -113.45c-2.35,-18.91 -7.08,-28.37 -9.46,-47.26 -104,-11.85 -167.79,-2.39 -264.71,-37.82 -44.88,-16.56 -66.17,-44.93 -103.99,-75.64 -49.62,-40.19 -92.15,-51.43 -151.26,-75.05l0 -2234.06zm22873.75 14181.63c38.68,20.62 70.25,50.89 94.38,96.04 37.81,70.91 33.09,135.91 94.53,189.08 67.35,57.89 112.27,83.91 170.17,151.26 29.53,34.25 56.72,44.89 94.54,70.9 40.16,27.19 53.17,53.17 85.08,89.81 55.55,63.8 74.46,111.06 113.46,184.35 11.79,22.47 15.35,38.99 28.35,61.46 13.01,23.63 27.19,35.42 33.09,61.44 25.98,99.27 18.91,161.89 18.91,264.71l36.64 0c46.06,0 68.52,-33.09 114.62,-33.09 33.09,0 47.27,25.99 75.63,42.55 46.1,25.97 89.81,54.33 89.81,108.71 0,24.81 -15.35,38.99 -33.09,56.73l-37.81 -9.46c-55.56,27.19 -118.18,42.55 -118.18,103.99 0,27.2 34.26,28.37 47.27,52 11.81,22.46 14.19,41.37 28.37,61.46 22.45,30.7 57.89,37.8 66.17,75.62 3.56,15.35 1.18,27.2 4.72,42.55 8.29,37.81 37.82,52 70.91,70.89 54.34,30.71 86.26,52 137.08,89.82 50.83,37.82 69.73,74.46 104,127.62 38.99,60.28 56.72,95.72 85.08,160.72 10.62,24.8 27.19,35.44 42.54,56.73 31.92,42.54 54.34,68.51 89.81,108.71 79.18,18.91 118.18,55.56 189.08,94.55 50.83,28.36 74.46,70.89 133.53,70.89 57.9,0 90.99,-4.72 148.91,-4.72 28.37,0 42.55,-17.73 62.63,-37.81 8.28,-8.29 11.8,-18.91 23.63,-18.91 49.61,0 77.97,8.28 127.63,14.18 22.46,2.34 37.81,-1.18 56.72,9.46 23.64,13 28.37,33.08 47.27,51.99 37.81,37.81 70.9,49.62 118.17,70.9 31.92,14.19 44.89,35.43 75.64,51.99 34.26,18.91 60.27,22.47 99.26,33.09 44.88,11.81 72.08,23.64 118.17,33.09 22.47,3.56 40.17,3.56 56.73,18.91 22.45,20.08 20.07,46.1 28.36,75.64 5.9,22.46 15.35,35.43 23.64,56.71 35.42,85.09 94.53,113.46 170.17,165.45 74.45,50.83 108.71,92.15 189.07,132.35 28.36,14.18 46.1,23.63 75.63,33.09 99.26,33.09 160.71,35.44 264.71,52 21.25,3.56 35.43,9.45 56.72,14.18l0 -17383.28 -3058.17 0c-35.47,146.53 -61.59,231.61 -85.23,380.53 -11.85,73.25 -37.82,113.45 -37.82,189.08 0,63.79 44.88,92.16 66.18,151.26 25.98,70.9 14.17,118.17 37.81,189.08 14.18,44.88 40.17,73.25 66.18,113.44 47.27,73.25 85.08,115.79 132.35,189.08 7.08,11.8 2.35,28.36 9.46,37.82 66.18,75.62 148.88,87.43 207.98,170.17 2.35,-49.65 9.46,-80.36 9.46,-130.02 0,-49.61 -7.11,-75.62 0,-125.24 -16.56,0 -28.36,-9.46 -44.93,-9.46 -44.89,0 -70.9,9.46 -115.79,9.46 -14.18,-78.02 -28.36,-120.55 -28.36,-198.53 0,-68.56 42.55,-103.99 56.73,-170.17 21.24,-96.92 0,-186.73 75.62,-245.8 33.09,-26.01 68.52,-16.56 113.44,-18.91 87.44,-7.1 118.19,-73.28 189.08,-122.89 87.44,-61.46 158.34,-94.55 267.05,-94.55l111.11 0c0,101.61 -7.11,172.52 47.27,255.26 18.91,30.7 47.27,33.08 75.63,56.72 118.18,101.61 132.36,210.33 236.35,330.88 47.27,54.35 73.24,92.17 113.44,151.26 16.53,25.99 23.64,54.35 47.27,75.64 35.44,33.09 70.91,35.44 113.44,56.72 77.99,37.82 125.25,63.8 189.08,122.9 49.62,44.88 113.46,70.91 113.46,141.81 0,115.79 -44.93,210.33 -151.28,255.26 -42.53,16.52 -70.89,25.97 -113.44,47.26 42.55,21.25 66.18,30.71 113.44,37.82 -49.64,70.9 -101.64,99.27 -170.15,151.26 -14.19,9.45 -14.19,28.36 -28.37,37.81 -9.45,4.73 -28.36,4.73 -37.82,9.46 -82.74,59.06 -132.35,120.52 -236.35,132.35l-189.07 -28.36c0,-59.11 -16.57,-101.64 -56.72,-141.81 -68.56,120.52 -172.56,170.17 -311.98,170.17 -33.09,0 -44.92,-33.09 -75.63,-37.82 -42.55,-7.1 -73.29,7.08 -113.44,-9.45 -70.91,-30.75 -104,-92.19 -104,-170.16 0,-28.36 16.53,-52 37.82,-66.18 21.25,-14.18 66.18,-9.46 66.18,-37.82 0,-30.74 -23.64,-47.27 -28.37,-75.62 -7.1,-47.28 -11.83,-78.02 -28.36,-122.91 -9.45,11.8 -33.09,4.73 -37.82,18.91 -21.29,59.07 -14.18,104 -37.82,160.71 -11.83,28.36 -47.26,42.55 -47.26,75.64 0,47.27 28.37,68.51 37.81,113.44 33.09,139.43 47.27,222.17 47.27,366.32 0,61.45 -9.45,94.54 -9.45,155.99 0,113.44 30.71,174.9 66.18,281.26 18.91,59.08 23.64,99.28 56.73,151.27 37.8,59.07 75.62,85.08 118.17,141.81 7.07,-44.92 0,-68.56 0,-113.45 0,-92.19 47.27,-155.99 127.62,-198.54l113.44 66.19c25.99,-26.02 37.82,-52 66.18,-75.63 14.19,-11.84 9.46,-37.82 28.37,-37.82 63.79,0 92.15,49.61 151.26,66.17 56.72,16.53 96.88,9.46 151.26,28.37 106.33,37.81 153.61,96.88 264.71,122.9l9.46 37.81c-49.66,18.91 -78.02,47.27 -132.37,47.27 -23.63,0 -35.47,-23.63 -56.71,-28.36 -63.84,-14.18 -106.38,-18.91 -172.56,-18.91 -61.45,0 -96.88,7.08 -158.33,4.73 14.17,94.54 4.73,146.53 0,241.08 47.27,4.72 73.25,9.45 120.52,9.45 75.63,0 108.72,-56.73 184.35,-56.73l73.28 0 0 59.07c0,35.48 -26.02,61.45 -56.72,73.29 -11.84,4.72 -26.01,-7.11 -37.81,0 -42.55,23.63 -49.66,66.18 -85.09,103.99 -35.47,37.81 -103.99,33.1 -103.99,85.08 0,56.73 59.06,82.7 113.44,94.55 77.98,18.91 132.36,28.36 189.08,85.08 25.98,25.98 35.44,56.72 66.18,75.63 54.34,33.09 106.33,37.81 151.26,85.08 30.71,33.09 37.82,68.53 47.27,113.46l-37.82 311.97 0 186.69c0,134.74 30.7,207.99 47.28,342.73 16.51,134.7 4.72,212.7 47.26,340.34 49.62,151.26 85.09,245.79 85.09,406.51 56.72,0 141.8,-18.91 141.8,37.81 0,37.82 -18.91,56.73 -18.91,94.54 0,68.53 30.72,106.34 47.28,170.17 33.09,113.45 33.09,189.07 66.17,302.53 18.91,70.9 47.27,113.44 47.27,189.08 -193.81,-26.03 -297.79,61.44 -482.14,122.89l0 -125.28c0,-30.7 18.9,-47.27 28.36,-73.25l-1134.46 397.07 -262.37 0c-200.88,0 -311.97,85.07 -512.85,85.07 -66.18,0 -106.38,-18.9 -170.17,-28.36 -203.26,-30.74 -330.88,-54.38 -501.05,-170.17 -103.99,-70.9 -137.08,-146.53 -226.9,-236.34 -40.2,-40.19 -80.35,-52 -113.44,-94.54 -42.55,-54.38 -56.73,-101.64 -113.45,-141.81 -61.45,-42.54 -115.83,-37.82 -191.45,-37.82l-600.33 0c-54.33,0 -73.24,-44.92 -115.79,-75.62 -75.63,-56.73 -106.38,-108.73 -170.17,-179.62 -44.92,-52 -87.47,-73.29 -122.89,-132.36 -30.75,-49.65 -16.57,-92.19 -18.91,-151.27 -7.11,-210.36 -70.91,-321.43 -104,-529.4 -2.38,-26.03 -18.9,-44.93 -18.9,-73.29l0 -193.81c0,-106.33 -9.45,-179.62 -75.64,-262.32 -52,-66.18 -99.26,-96.92 -141.8,-170.17l9.45 -37.82c28.37,-4.72 59.07,0 75.63,-18.91 30.71,-33.09 16.53,-78.01 47.27,-113.44 11.8,-14.18 9.45,-37.82 28.36,-37.82 44.88,0 77.98,25.99 94.54,66.19 16.53,40.15 -4.73,77.97 18.91,113.44 4.72,9.45 30.71,0 37.81,9.45 9.46,11.79 18.91,25.98 28.37,37.82 21.24,23.63 35.42,44.88 56.72,66.17 14.17,14.18 16.52,37.82 37.81,37.82 21.26,0 35.44,-7.11 56.73,-9.46l0 -153.64c0,-66.18 -28.37,-101.6 -28.37,-167.79 0,-70.9 23.64,-108.71 28.37,-179.62 9.45,-134.73 14.18,-212.71 56.72,-340.34 18.9,-56.72 47.27,-89.8 47.27,-151.26 0,-44.92 -7.11,-70.91 -18.91,-113.44 -7.11,-30.75 -37.81,-42.55 -37.81,-75.64 0,-28.36 30.7,-35.47 47.26,-56.72 44.89,-56.72 70.91,-94.54 122.91,-141.81 37.81,-33.09 66.17,-54.38 103.99,-85.08 14.18,-11.84 30.71,-11.84 37.81,-28.36 23.64,-44.93 23.64,-113.46 75.63,-113.46 54.35,0 77.98,37.82 132.36,37.82 77.97,0 111.06,-66.17 189.07,-66.17 33.09,0 47.27,25.98 75.63,37.81l9.46 -75.63c-103.99,-78.01 -174.9,-132.35 -304.9,-132.35l-222.17 0c-113.45,0 -167.79,-61.45 -267.05,-113.45 -182.01,-96.91 -269.44,-198.52 -387.61,-368.7 -63.84,-94.54 -87.47,-158.37 -132.35,-264.71 -44.93,-103.98 -120.56,-132.35 -179.63,-226.89 -59.1,-94.53 -94.54,-158.37 -189.08,-217.43 -85.09,-52 -144.19,-75.64 -226.89,-132.36 -56.72,-37.81 -66.17,-94.54 -103.99,-151.26 -92.2,-137.08 -155.99,-207.98 -255.26,-340.34 -28.35,-40.2 -47.26,-70.9 -75.62,-113.45 -66.18,-96.92 -132.35,-130.01 -198.54,-226.89 -35.47,-54.38 -52,-96.91 -85.09,-151.26 -54.36,-87.47 -113.44,-141.81 -113.44,-245.8 0,-23.63 11.01,-37.81 18.12,-59.1l-5807.05 0c31.91,98.09 101.27,127.62 196.98,163.09 63.79,23.64 93.37,56.73 146.53,99.26 28.37,22.47 47.28,35.44 66.19,66.18 54.33,88.64 54.33,153.61 89.8,250.54 31.92,85.08 61.46,134.7 61.46,225.71l0 153.61c0,29.53 13,46.09 18.91,74.46 22.45,98.09 59.06,146.53 103.98,236.35 9.46,20.08 10.63,35.43 18.91,56.71 20.08,48.44 37.82,79.19 37.82,132.36 0,53.16 -9.45,83.92 -14.18,137.08 -7.11,73.25 -23.64,117.01 -66.18,174.9 -35.47,47.26 -68.56,63.79 -99.26,113.44 -38.99,62.63 -70.91,94.54 -122.9,146.54 -5.91,5.89 -7.12,13.01 -14.18,18.91 -52,44.88 -98.09,52 -151.26,94.53 -55.56,44.89 -83.92,79.19 -146.55,113.45 -37.8,21.25 -54.38,44.88 -85.08,75.63 -33.09,33.09 -60.27,44.89 -94.54,75.63 -30.74,28.37 -48.44,61.45 -90.98,61.45l-111.1 0c-16.53,0 -23.64,9.45 -38.99,14.18 -33.09,10.63 -52,23.63 -80.36,42.54 -35.47,23.64 -57.9,38.99 -94.53,61.46 -34.26,21.24 -53.17,47.27 -94.55,47.27 -16.56,0 -22.46,-14.18 -38.98,-14.18l-93.37 0 -538.87 -155.99c-101.64,50.82 -171.34,53.17 -283.61,70.9 -41.37,5.89 -62.63,24.8 -103.99,33.09 -28.36,5.89 -66.18,-4.73 -94.55,4.73 -92.18,30.7 -148.91,47.27 -245.79,47.27 -141.82,0 -224.55,-37.82 -359.25,-75.64 -68.56,-18.91 -115.83,2.35 -189.08,0 -47.27,0 -75.63,-14.18 -113.44,-37.82 -33.09,-21.28 -44.92,-56.71 -85.09,-56.71 -21.29,0 -37.82,4.73 -56.72,9.45 -16.57,4.73 -18.91,28.36 -37.81,28.36 -122.91,0 -186.74,-56.72 -302.53,-94.54 -134.73,-44.92 -210.37,-75.63 -340.34,-132.35 -59.11,-23.64 -87.46,-66.18 -151.26,-66.18 -75.63,0 -113.44,37.82 -189.08,37.82 -134.73,0 -250.52,-61.46 -293.07,-189.08 -16.56,-54.38 -21.28,-96.93 -37.81,-151.26 -14.19,-44.93 -4.73,-82.74 -37.81,-113.44 -18.91,-16.58 -47.27,-18.91 -75.64,-18.91 -44.92,0 -68.56,18.91 -113.44,18.91 -134.74,0 -210.37,-35.47 -340.34,-66.19 -61.45,-14.18 -96.92,-23.63 -151.26,-56.72 -68.56,-42.54 -85.09,-108.72 -85.09,-189.08 0,-14.18 -2.38,-26.02 0,-37.81 2.35,-16.57 37.82,-9.45 37.82,-28.36 0,-16.56 -18.91,-21.29 -18.91,-37.82 -68.56,-9.45 -101.65,-56.73 -170.17,-56.73 -37.82,0 -37.82,44.9 -56.73,75.64 -14.18,25.97 -44.92,40.15 -75.62,47.27 -26.02,4.73 -47.27,-2.39 -75.64,0 -44.92,2.34 -70.89,18.9 -115.82,18.9l-222.17 0c-54.34,0 -80.36,-28.35 -134.7,-28.35 -96.92,0 -148.91,28.35 -245.8,28.35 -89.81,0 -144.19,-23.62 -226.89,-56.72 -49.65,-18.9 -78.01,-47.27 -132.35,-47.27 -66.18,0 -106.38,23.64 -170.18,37.82 -75.62,18.91 -122.89,28.36 -189.06,66.17 -73.29,42.55 -113.46,80.36 -189.08,113.45 -134.74,61.45 -238.73,21.25 -378.16,66.17 -78.01,25.99 -111.1,70.91 -179.62,113.46 -118.17,73.24 -174.9,134.7 -302.52,198.53 -47.28,23.63 -66.18,61.44 -113.46,85.08 -56.71,28.36 -94.53,37.82 -151.26,66.18 -111.09,54.34 -139.46,139.43 -236.34,217.43 -49.65,40.17 -89.81,42.55 -151.26,56.73 -80.36,18.91 -125.28,37.82 -207.98,37.82 -96.93,0 -158.38,-18.91 -245.81,-56.73 -73.29,-33.09 -108.71,-66.17 -189.08,-75.63 -44.92,-4.72 -68.55,7.07 -113.44,9.46 -134.73,9.45 -205.64,-30.74 -340.34,-47.27 -106.38,-11.84 -172.55,-14.18 -264.7,-66.18l-148.93 0c-85.07,0 -125.24,-66.17 -210.32,-66.17 -21.29,0 -28.36,21.24 -37.82,37.8 -16.56,25.99 -26.01,47.27 -37.81,75.64 -18.91,44.88 -56.73,63.79 -56.73,113.44 0,18.91 30.71,14.18 37.82,28.36 7.07,14.19 18.91,25.99 28.36,37.82 28.36,30.71 52,40.16 85.09,66.18 14.18,9.45 11.79,30.7 28.35,37.81 68.53,30.71 115.8,30.71 189.08,47.27 134.7,33.09 200.88,92.16 340.34,113.44 -37.81,37.82 -73.28,44.9 -122.9,56.73 -80.35,18.91 -125.27,47.27 -207.98,47.27 -170.17,0 -264.71,-18.91 -434.88,-18.91 -78.01,0 -115.83,52 -179.62,94.54l-28.36 37.82c16.52,0 28.36,-9.46 44.89,-9.46 54.37,0 75.62,52 125.27,66.18 42.55,11.79 73.25,11.79 113.45,28.37l9.45 37.8c-82.73,33.09 -137.08,47.28 -226.88,47.28 -222.17,0 -345.07,-47.28 -567.24,-47.28 -87.47,0 -141.8,-4.72 -226.89,9.46 -61.45,9.45 -92.19,40.16 -151.26,56.72 -75.63,21.26 -127.63,18.91 -207.99,18.91 -40.2,0 -54.37,-30.74 -85.08,-56.72 -78.02,-66.17 -132.35,-122.9 -236.35,-122.9 -66.17,0 -103.99,11.8 -170.17,18.91 -108.72,11.79 -177.28,23.63 -264.7,85.08 -111.11,80.36 -163.1,144.15 -283.61,207.98 -120.57,63.8 -248.19,96.89 -264.72,236.35 -7.11,73.25 2.35,118.17 -9.45,189.08 -9.46,59.07 -47.28,89.81 -47.28,151.26 0,28.37 23.64,44.89 47.28,56.72 56.72,30.71 104,28.36 170.17,28.36 66.18,0 106.33,-4.72 170.17,-18.91 35.43,-7.1 56.72,-28.36 94.54,-28.36 23.63,0 35.43,14.18 56.72,18.91 54.34,14.18 94.54,23.64 132.35,66.18 -59.1,59.06 -120.55,68.52 -170.16,132.35 -18.91,25.99 -47.27,42.55 -47.27,75.64 0,63.79 51.99,89.8 66.17,151.26 14.18,63.79 -9.46,103.99 -9.46,170.17 0,87.42 52,137.08 113.46,198.53 -47.28,73.25 -68.56,120.52 -104,198.53 -11.84,28.36 -37.81,42.54 -37.81,75.63 0,35.44 47.26,37.82 66.17,66.18 16.53,25.97 14.18,56.71 37.82,75.62 21.25,18.91 49.61,11.81 75.63,18.91 59.07,18.91 94.54,44.89 132.36,94.55 -40.2,16.52 -70.91,21.24 -113.46,28.35 -56.71,9.45 -92.18,37.82 -151.26,37.82 -33.08,0 -37.81,-40.2 -56.71,-66.17 -40.2,21.24 -66.19,47.26 -113.46,47.26 -21.29,0 -30.74,-18.91 -37.8,-37.81 -16.58,-40.2 -14.19,-73.29 -28.37,-113.45 -21.29,-59.11 -52,-85.08 -94.54,-132.35l-9.46 -37.82c-33.08,101.61 -30.74,165.44 -66.17,264.71 -16.56,44.88 -47.27,63.79 -75.63,103.99 -4.73,9.45 2.34,25.98 0,37.82 70.91,35.43 132.35,28.36 189.08,85.08 9.45,9.45 2.34,28.36 9.45,37.82 9.45,14.18 25.98,14.18 37.82,28.36 40.15,-28.36 51.99,-66.18 75.62,-113.44 75.64,40.15 92.17,113.44 170.17,151.26 54.35,25.97 99.27,18.91 151.26,47.26 59.08,33.09 61.46,89.81 104,141.81 42.55,54.34 85.08,89.81 85.08,160.72 0,75.62 -80.35,89.81 -132.35,141.81 49.62,56.72 70.91,103.98 85.09,179.62 4.73,25.97 -4.73,54.34 9.45,75.62 18.9,25.99 61.45,11.81 75.63,37.82 30.71,49.62 -9.46,106.34 28.36,151.26 40.16,47.27 103.99,59.08 103.99,122.9 0,59.07 -23.64,94.54 -37.81,151.27 -82.74,-40.2 -134.74,-59.11 -226.89,-66.18l-18.91 37.82 0 113.44 85.09 0 75.62 -18.91c33.09,37.82 52,85.09 103.99,85.09 49.62,0 73.26,-42.54 122.91,-47.27 103.99,-11.84 160.71,-18.91 264.7,-18.91 118.17,0 184.35,9.45 302.52,28.36l9.46 37.82c-54.38,40.16 -85.08,77.97 -151.26,94.53 -26.02,4.73 -51.99,-14.18 -75.63,0 -26.01,14.19 -23.63,56.73 -47.27,75.64 -40.2,33.09 -78.02,37.82 -132.35,37.82 -37.82,0 -56.73,-28.37 -94.55,-28.37 -75.62,0 -120.55,28.37 -189.08,56.72 -42.53,16.53 -70.89,18.91 -113.44,37.82 -16.56,7.07 -14.18,25.98 -28.36,37.82 30.71,11.8 44.89,28.36 77.98,28.36l184.34 0c33.09,0 47.27,-18.91 78.02,-28.36 70.91,-21.29 115.79,-47.28 191.42,-47.28 28.37,0 44.93,4.73 73.29,9.46 -21.29,40.16 -37.82,70.91 -37.82,118.17 0,30.71 0,52 9.46,80.36 4.73,14.18 25.97,9.45 37.82,18.91l75.62 0c0,-80.36 -11.83,-139.47 28.36,-207.99 14.19,-23.63 28.37,-47.27 56.73,-47.27 33.08,0 49.61,30.71 75.63,47.27 33.09,-33.09 56.72,-66.18 103.99,-66.18 47.27,0 63.79,44.89 85.08,85.09 16.53,33.09 42.55,47.27 66.18,75.63 51.99,61.45 106.34,66.18 170.17,113.45 21.25,-44.93 30.7,-73.29 37.82,-122.9 14.17,0 21.25,-9.45 35.43,-9.45 33.09,0 49.65,23.62 78.01,37.8 28.37,14.19 59.07,11.81 75.63,37.82 14.18,23.64 -2.38,49.62 0,75.64 14.18,92.15 44.89,144.15 85.09,226.88 42.54,87.44 106.33,127.64 198.53,160.72 42.54,14.18 73.25,25.98 113.44,47.27 42.55,21.26 63.79,56.73 113.45,56.73 47.27,0 68.53,-30.75 113.45,-37.82 42.53,-7.11 70.9,0 113.44,-9.46 47.28,-11.83 68.52,-44.92 113.45,-66.17 18.9,25.98 33.09,42.54 56.72,66.17 37.82,-37.81 59.07,-85.07 113.44,-85.07 68.53,0 96.9,54.33 151.28,94.53 92.15,-139.46 139.41,-226.9 207.97,-378.16 33.09,-75.62 59.08,-115.82 94.55,-189.08l37.81 -75.62c21.25,-44.92 33.08,-104 85.08,-104 28.37,0 49.61,16.53 75.64,18.91 118.17,18.91 189.07,14.18 302.52,56.73 30.7,9.45 47.26,25.98 75.62,37.81 85.09,35.43 141.82,35.43 226.9,66.17 111.06,40.17 151.26,108.73 264.7,141.82 59.08,16.52 106.35,14.17 151.27,56.72 35.43,33.09 42.54,73.25 66.18,113.45 47.27,77.97 85.09,118.17 141.8,189.07 68.53,87.44 129.97,125.24 226.9,179.62 42.54,23.64 68.52,40.17 113.44,56.73 44.89,16.53 63.8,66.18 113.45,66.18 16.52,0 21.25,-18.91 37.81,-18.91 66.18,-7.11 104,-28.36 170.17,-28.36 40.16,0 56.73,25.98 94.54,37.82 35.43,9.45 56.73,9.45 94.54,9.45 66.18,0 108.72,-21.29 170.17,-37.82 56.72,-16.56 94.54,-14.18 151.26,-28.36 30.71,-7.11 44.89,-28.36 75.63,-37.82 54.34,-16.56 101.61,-9.45 151.26,-37.82 18.91,-9.44 23.64,-37.8 47.28,-37.8 23.63,0 35.42,21.24 56.71,28.36 35.44,11.79 56.73,18.9 94.55,18.9 54.33,0 68.51,-63.83 85.07,-113.45 16.53,-44.92 30.72,-73.28 56.73,-113.44 49.62,-73.29 113.44,-89.81 189.08,-132.35 85.09,-49.65 137.08,-73.29 226.9,-113.45 73.24,-33.09 108.71,-85.08 189.07,-85.08 33.08,0 47.27,21.24 75.63,37.82 23.63,23.62 49.62,33.08 75.63,47.26 40.16,23.63 66.17,54.34 113.45,66.18 25.98,4.73 49.61,2.35 75.63,9.45 89.81,25.98 132.35,85.08 226.89,85.08 80.36,0 80.36,-103.99 141.8,-151.26 35.44,-28.36 68.53,-26.01 113.46,-37.82 56.71,-16.56 96.88,4.73 151.26,-18.89 54.33,-23.64 63.79,-85.09 122.89,-85.09 42.55,0 56.73,37.81 85.09,66.18 33.08,33.08 75.63,47.26 75.63,94.53 0,40.17 -21.29,66.18 -47.27,94.53 -47.26,52 -87.46,77.99 -132.35,132.37 -30.75,37.81 -44.93,73.24 -75.63,113.44 -33.09,42.54 -113.45,37.82 -113.45,94.53 0,59.08 33.09,92.17 37.82,151.27l-75.63 529.41c16.52,73.26 21.25,122.91 56.72,189.08 16.53,33.09 49.62,40.16 56.72,75.63 16.53,70.91 2.35,115.79 9.46,189.08 7.07,59.07 28.36,92.16 28.36,151.26 0,33.09 -35.47,47.27 -47.27,75.63 -14.18,33.09 -18.91,56.72 -18.91,94.54 0,54.34 30.71,82.7 47.27,132.35 16.52,54.35 14.18,92.16 18.91,151.26 4.73,66.18 28.36,104 28.36,170.17 0,101.61 -49.65,155.99 -94.54,245.81 -63.83,129.97 -111.11,203.26 -160.72,340.34 -70.9,191.41 -96.92,307.24 -189.07,491.6 -16.56,33.09 -37.82,44.88 -56.73,75.62 -37.81,56.73 -70.9,89.82 -103.99,151.27 -106.38,191.42 -122.9,323.77 -198.53,529.41 -21.29,61.45 -49.65,92.16 -75.63,151.27 -44.92,99.26 -56.72,160.71 -85.09,264.7 -37.81,137.08 -87.47,207.99 -141.8,340.34 -16.56,42.54 -28.36,73.24 -47.27,113.44 -63.84,129.97 -89.81,215.06 -122.9,359.25 -9.46,44.89 -14.18,73.26 -37.82,113.45 -59.11,94.54 -120.55,132.35 -179.62,226.89 -59.11,94.54 -113.45,137.08 -179.63,226.89 -42.53,56.73 -54.38,103.99 -113.44,141.81 -37.82,23.64 -70.91,18.91 -113.44,37.82 -99.27,44.88 -155.99,87.42 -264.72,103.99 -132.35,21.25 -205.63,75.63 -340.33,75.63 -87.47,0 -111.1,-113.45 -198.54,-113.45 -37.8,0 -56.71,23.63 -94.53,28.36 -87.47,9.46 -139.46,9.46 -226.9,18.91 -61.44,7.08 -89.8,47.27 -151.26,47.27 -94.53,0 -141.8,-47.27 -226.88,-85.09 -89.82,-40.19 -156,-42.53 -226.9,-113.44 0,106.34 -42.54,165.44 -75.63,264.71 -30.75,96.89 -28.37,160.72 -28.37,264.71 -23.62,4.72 -35.47,11.8 -56.71,18.91 -23.64,-59.11 -33.09,-104 -75.64,-151.26 -33.09,-35.47 -70.9,-42.55 -94.53,-85.09 -52,-92.19 -35.47,-167.83 -75.64,-264.71 -49.65,-37.82 -75.62,-70.91 -132.35,-104 -28.36,-16.56 -75.63,-14.17 -75.63,-47.26 0,-40.2 18.9,-66.18 47.27,-94.54l0 -75.63 -111.1 0c-108.72,0 -177.24,16.52 -276.51,-28.36 -73.28,-33.09 -111.1,-66.18 -189.07,-85.09 -16.57,42.54 -11.84,77.98 -37.82,113.45 -35.47,44.88 -92.19,30.7 -151.26,37.81 -44.92,4.73 -70.91,9.45 -113.45,18.91 -28.35,7.07 -44.93,28.36 -75.63,28.36 -16.56,0 -23.63,-16.56 -37.81,-18.91 9.45,-59.1 28.36,-89.8 28.36,-148.91 0,-18.91 -9.46,-30.71 -9.46,-49.61 -73.28,-7.12 -115.83,7.07 -189.07,0 -23.64,-2.39 -33.09,-28.36 -56.73,-28.36 -23.64,0 -47.26,0 -56.72,18.91 -7.11,14.17 9.46,28.35 9.46,44.88 0,75.63 9.45,115.83 0,191.46 -35.47,4.72 -56.73,9.45 -92.2,9.45 -134.7,0 -238.69,-54.38 -304.87,-170.17 -92.19,30.71 -139.46,77.97 -236.35,85.09 44.9,139.43 127.64,198.52 217.44,311.98 -14.18,14.18 -16.56,37.81 -37.81,37.81 -103.99,0 -122.9,-141.81 -226.89,-141.81 -28.36,0 -23.63,42.54 -47.27,56.72 -23.64,14.19 -49.65,7.08 -75.64,9.46 -26.01,2.35 -47.26,18.91 -75.62,18.91 -16.56,0 -23.64,-16.56 -37.82,-18.91 16.53,-99.26 63.79,-141.81 113.44,-226.9 -106.36,42.55 -174.89,63.8 -264.7,132.37 -54.38,42.53 -75.64,89.8 -141.81,113.44 -40.19,14.18 -68.56,7.07 -113.45,9.45 -73.28,4.73 -115.82,28.37 -189.08,28.37 -80.35,0 -118.17,-56.73 -179.61,-104 -37.82,-28.37 -68.56,-37.81 -113.45,-56.72 -125.28,-56.73 -207.99,-61.45 -340.34,-94.54 -132.35,-33.09 -215.1,-26.02 -349.79,-47.28 -115.83,-18.89 -158.37,-94.53 -264.71,-141.8 -28.36,-11.84 -42.54,-37.81 -75.63,-37.81 -28.37,0 -54.38,2.34 -75.63,18.9 -35.47,25.98 -40.2,75.64 -85.09,75.64 -78.01,0 -99.26,-75.64 -151.26,-132.36 -33.09,-35.47 -68.56,-49.65 -113.44,-66.18 -42.55,-14.18 -73.29,-16.56 -113.45,-37.82 -33.08,-16.56 -42.54,-42.53 -75.63,-56.71 -59.11,-23.64 -104,-37.82 -151.26,-85.09l0 5886.19 6862.51 0c0,-43.71 0.98,-56.72 -3.75,-100.44 -2.38,-18.9 -11.83,-28.36 -14.17,-47.27l23.62 -113.44c-5.89,-59.11 -14.18,-95.71 -42.53,-146.53 -23.64,-43.72 -52,-62.63 -89.82,-94.54 -14.18,-11.84 -29.53,-16.57 -37.81,-33.09 -24.81,-44.92 -23.63,-80.36 -23.63,-132.36 -35.48,0 -67.35,-8.28 -85.09,-37.81 -8.29,-13.01 -8.29,-24.81 -14.18,-37.82 -14.18,-29.53 -27.19,-47.27 -42.55,-75.63 -30.74,-55.55 -41.36,-95.7 -89.8,-137.08 -18.91,-15.35 -37.82,-30.74 -37.82,-56.72 0,-41.37 8.28,-65.01 18.91,-103.99 2.35,-8.28 14.18,-9.46 14.18,-18.91 0,-35.47 -42.55,-37.82 -61.45,-66.17 -22.46,-33.09 -24.81,-60.29 -47.27,-94.55l4.73 -18.91 93.37 0c37.8,0 59.06,5.91 95.7,14.18 -18.9,-57.89 -53.17,-82.74 -99.26,-122.89 -48.44,-41.37 -69.73,-75.64 -108.72,-127.63 -29.54,-40.19 -60.28,-54.38 -89.81,-94.54 -54.38,-73.29 -113.45,-94.53 -165.45,-170.17 -46.09,-67.35 -54.38,-117 -89.8,-189.08 -22.47,-44.92 -33.09,-75.62 -66.18,-113.44 -24.81,-29.53 -52,-40.2 -75.63,-70.91 -48.45,-61.44 -40.2,-118.17 -75.63,-189.07 -41.37,-82.74 -105.17,-100.44 -170.17,-165.44 -20.08,-20.09 -40.2,-27.19 -52,-52 -22.46,-46.1 -18.91,-79.18 -18.91,-131.18l0 -139.43c0,-52 -18.91,-80.35 -28.36,-131.18 -10.63,-52 -2.39,-94.53 -37.81,-132.35 -10.64,-11.84 -24.81,-14.18 -37.82,-23.64 -34.26,-27.18 -42.55,-55.55 -61.45,-94.53 -38.99,-78.02 -85.08,-130.02 -85.08,-217.44 23.63,-61.46 38.98,-98.1 70.89,-155.99 13.02,-23.64 20.09,-42.55 42.55,-56.73 23.63,-15.35 52,-23.63 52,-52 0,-11.83 -10.62,-17.73 -14.18,-28.35 -5.9,-17.74 -9.46,-28.36 -9.46,-47.27 0,-20.08 21.26,-23.64 28.37,-42.55 14.18,-37.81 18.9,-62.62 18.9,-103.99 0,-30.74 -27.19,-40.19 -42.54,-66.18 -27.18,-43.71 -46.09,-67.35 -75.64,-108.71 -31.91,-43.72 -66.17,-69.73 -66.17,-124.08 0,-17.73 3.55,-28.36 4.73,-46.09 56.72,14.18 94.53,2.35 151.26,14.18 36.64,7.06 43.71,46.09 56.73,80.35 5.89,16.53 18.9,22.47 28.35,37.82 35.44,53.17 55.56,88.64 70.91,151.26 11.8,47.27 23.63,73.25 23.63,121.73l0 153.61c0,46.09 27.19,69.73 42.55,112.27 10.62,28.36 4.73,48.44 4.73,79.19l0 129.97c0,10.62 -7.12,17.74 -4.73,27.18 8.27,33.09 29.53,47.27 47.26,75.64 41.38,67.35 77.98,99.26 113.45,170.17 27.19,55.54 59.07,81.53 108.72,118.17 49.61,36.65 69.73,69.74 113.44,113.45 42.55,42.53 56.73,75.62 99.27,118.17 62.63,62.62 105.17,102.82 141.81,184.35 15.35,35.43 13.01,61.45 18.91,99.26 7.07,42.55 18.91,68.53 18.91,112.28l0 96.88c0,16.57 16.52,23.63 23.63,36.65 28.36,46.09 51.99,67.35 80.36,113.44 31.92,52 48.44,83.91 85.09,132.35 61.44,79.19 103.98,117 170.17,189.08 29.53,31.92 50.82,52 70.89,89.82 31.93,60.27 86.26,72.07 118.17,132.35 28.37,54.33 53.18,82.7 89.82,132.35 27.18,36.65 48.44,53.17 85.08,80.36 22.47,16.52 29.54,36.64 52,51.99 41.38,28.36 73.24,36.65 113.44,66.18 0,-46.09 11.8,-73.29 33.09,-113.44 15.36,-28.37 22.47,-49.65 42.55,-75.64 17.74,-22.45 38.98,-28.36 56.72,-51.99 22.46,-30.75 33.09,-56.72 33.09,-95.71l0 -248.18c0,-61.46 13.01,-99.28 42.54,-152.44 21.25,-37.81 43.71,-55.55 61.45,-94.54 16.53,-36.64 22.46,-61.45 37.82,-99.26 22.46,-55.56 50.82,-83.92 66.17,-141.81 22.47,-83.92 14.18,-135.9 14.18,-222.16 0,-50.83 34.26,-73.29 56.73,-118.18 13,-26.02 14.18,-47.26 18.91,-75.63 4.72,-28.36 0,-49.65 14.18,-75.63 7.06,-14.18 20.08,-18.91 33.09,-28.37 27.18,-21.29 33.08,-46.09 42.53,-80.35 13.02,-47.27 4.73,-83.91 33.09,-122.9 22.47,-30.74 43.72,-43.71 70.91,-70.9 13.01,-13.01 27.19,-14.19 37.81,-28.37 14.18,-20.07 23.64,-36.64 37.82,-56.71 18.91,-27.2 23.63,-66.18 57.89,-66.18 29.53,0 44.93,4.72 74.46,2.34 1.18,7.11 9.45,13.01 9.45,21.29 0,44.88 -27.18,67.35 -51.98,103.99 -23.64,35.44 -40.2,59.07 -56.73,99.27 -27.19,68.52 -24.81,114.61 -33.09,189.08 -3.55,31.91 -9.46,49.61 -14.18,80.35 -5.9,35.44 1.18,59.07 -4.73,94.54 -5.9,36.64 -20.08,57.89 -28.36,94.54 -8.28,35.43 -3.55,59.06 -9.45,94.53 -5.9,36.65 -15.36,57.9 -23.63,94.55 -18.91,83.91 -15.37,134.7 -37.82,217.44 -5.9,22.46 -13.02,34.26 -18.91,56.72 -8.29,28.36 -17.74,43.71 -28.36,70.9 -23.64,59.07 -33.09,94.54 -61.45,151.26 -34.27,68.52 -62.62,103.99 -108.72,165.45 8.28,2.34 9.45,13 18.91,14.18 51.99,5.89 83.91,1.17 132.35,18.91 15.36,4.72 23.63,13 37.81,18.91 14.19,5.89 29.54,3.54 37.82,14.18 15.35,17.73 4.73,51.99 28.37,51.99 16.51,0 27.18,-13.01 37.8,-23.64 14.18,-14.18 25.99,-21.29 42.55,-33.08 9.45,-7.12 15.35,-18.91 28.36,-18.91 27.2,0 41.37,18.91 66.18,28.35 36.64,14.19 60.28,16.53 99.26,23.64 30.71,5.91 49.62,15.36 75.64,33.09 15.35,10.62 33.08,18.91 33.08,37.82 0,33.09 -42.54,42.54 -42.54,75.63 0,27.19 16.52,42.54 28.36,66.17 14.18,29.54 15.36,56.73 42.54,75.64 23.64,16.52 46.11,5.9 75.64,9.45 3.55,35.43 -1.18,56.72 9.45,89.81 22.46,67.35 65,92.15 108.72,146.53 50.82,62.63 80.36,101.61 122.89,170.17 17.74,29.54 25.99,47.28 47.28,75.64 13.01,51.99 13.01,89.81 47.27,127.62 20.08,22.47 25.97,44.9 52,61.46 20.08,13 37.81,20.07 47.26,42.53 25.98,61.46 4.73,106.35 23.64,170.17 7.07,24.82 27.19,35.44 42.54,56.73 21.25,29.53 43.71,42.54 61.44,75.63 20.09,36.64 22.47,72.08 56.73,94.54 20.08,13.01 35.44,16.53 56.73,28.36 52,28.36 47.27,83.91 61.44,141.81 7.08,30.71 25.95,57.89 40.12,86.25l14472.56 0c-7.06,-90.98 -17.58,-154.82 -62.46,-232.79 -13.02,-22.47 -20.09,-38.98 -37.82,-56.72 -47.27,-47.27 -80.36,-70.9 -127.62,-118.17 -24.82,-24.81 -42.55,-40.2 -66.19,-66.19 -22.46,-24.8 -47.27,-44.92 -47.27,-80.35 0,-24.8 15.35,-36.65 28.37,-56.72 13.01,-20.08 25.98,-31.92 47.27,-42.55 -20.08,-49.65 -53.17,-68.55 -94.55,-103.99 -41.36,-35.47 -67.35,-54.38 -113.44,-80.35 -99.26,-57.9 -135.91,-127.63 -241.08,-174.9 -89.8,-40.19 -138.24,-72.07 -226.88,-118.18 -59.11,-30.74 -101.65,-35.47 -155.99,-70.89 -7.12,-4.73 -9.45,-11.85 -14.18,-18.91 -20.09,-24.81 -33.09,-43.72 -33.09,-75.64 0,-22.46 3.56,-37.82 14.18,-56.71 3.55,-8.29 18.91,-8.29 18.91,-18.91 0,-24.82 -16.56,-35.47 -28.36,-56.73 -21.29,-36.64 -29.54,-62.62 -56.73,-94.53 -23.64,-27.2 -46.09,-36.65 -70.9,-61.46 -81.53,-81.53 -170.17,-82.74 -245.8,-170.17 -61.46,-70.9 -89.81,-118.17 -160.72,-179.62 -49.65,-42.55 -79.18,-72.08 -113.44,-127.62 -17.74,-29.55 -23.64,-54.38 -47.27,-80.37 -23.64,-26.01 -42.55,-41.36 -61.46,-70.89 -18.91,-29.55 -29.53,-50.84 -47.26,-80.37 -44.92,-72.07 -81.53,-106.38 -137.09,-170.17 -24.8,-29.53 -48.44,-38.98 -75.62,-66.18 -13.02,-13 -16.56,-23.62 -28.37,-37.81 -36.63,-42.54 -65,-66.18 -94.53,-113.45 -44.92,-73.28 -76.8,-112.27 -104,-193.8 -18.91,-56.72 -14.18,-94.54 -33.09,-151.26 -16.56,-50.82 -30.74,-80.36 -47.26,-132.36 -10.63,-14.18 -28.36,-34.25 -33.09,-52 -10.62,-37.8 -2.38,-62.62 -14.18,-99.26 -4.73,-14.18 -10.63,-23.63 -14.18,-37.81 -8.29,-28.37 -11.84,-66.17 -42.55,-66.17 -35.47,0 -56.72,18.9 -85.08,37.8 -16.56,10.64 -21.29,33.09 -42.54,33.09 -23.64,0 -34.26,-16.56 -56.73,-23.63 -56.72,-18.91 -96.91,9.45 -155.99,0 -36.64,-5.9 -51.99,-38.99 -61.44,-75.63 -5.91,-22.47 -14.18,-34.26 -14.18,-57.89l0 -29.58c21.24,-1.17 34.26,2.38 55.54,2.38 54.34,0 76.81,-37.8 119.35,-70.9 14.19,-10.63 17.73,-29.53 33.08,-37.81 13.02,-7.11 23.64,-9.46 37.82,-14.18 18.91,-7.11 23.64,-23.64 42.55,-33.1 21.25,-10.62 52,-9.45 52,-33.09 0,-8.27 -8.29,-11.83 -9.46,-18.89 -10.63,-63.84 -44.92,-92.2 -56.73,-156 -10.62,-59.1 -18.9,-95.7 -18.9,-155.99 -160.89,-164.94 -271.85,-380.81 -466.06,-503.06 -96.77,-60.92 -202.97,-125.25 -310.23,-168.15 -133.96,-53.57 -285.09,-38.4 -427.01,-96.87l-18.25 -18.28c-94.94,-13.54 -403.1,-259.27 -385.04,-360.06 15.08,-84.12 728.52,-236.3 844.9,-382 92.71,-116.05 117.85,-337.74 326.65,-339.96l516.43 -5.48c249.78,70.31 455.33,263.03 660.59,420.38 250.72,192.18 540.64,318.11 817.53,466.07l459.05 423.41zm1544.25 -10872.75c-18.38,36.79 -28.82,59.18 -47.99,95.97 -3.22,7.23 -1.63,14.38 -6.39,20.8 -5.6,7.19 -15.2,5.59 -20.81,12.79 -10.39,11.98 -7.97,25.59 -7.97,41.59 0,7.19 3.97,12.79 4.8,19.17 3.17,20.05 -4.8,31.99 -4.8,52.8 0,21.59 27.99,25.59 31.95,46.39 3.22,16.8 6.39,28.78 19.21,41.6 10.4,-32.79 27.2,-47.2 47.99,-73.59 20.8,-25.6 29.61,-45.61 54.38,-67.2 23.97,-20.79 38.39,-35.17 51.2,-63.95 -3.21,-0.82 -5.63,-6.42 -9.61,-6.42 -12.82,0.8 -19.21,6.42 -32.03,6.42 -11.94,0 -23.17,-3.2 -28.74,-12.81 -9.6,-15.16 -1.58,-30.41 -9.6,-46.4 -1.59,-3.17 -8.02,-3.17 -9.6,-6.39 -12.78,-22.39 -12.03,-43.98 -31.99,-60.77zm-22375.97 -498.74c-42.54,-14.17 -68.56,-21.28 -113.45,-28.35l-28.35 37.81 37.8 151.27c77.99,-25.98 113.46,-66.18 179.63,-113.45 -7.07,-11.79 0,-28.37 -9.46,-37.82 -9.45,-9.46 -54.33,-2.34 -66.17,-9.46zm-1550.43 1210.1c-59.11,30.74 -85.09,85.09 -153.64,85.09 -56.73,0 -89.82,-9.46 -146.54,-9.46 -44.89,0 -80.36,-7.07 -115.79,18.91 -37.81,28.37 -42.54,70.9 -56.72,118.17 51.99,2.38 82.7,4.73 134.7,4.73 40.2,0 61.44,2.38 101.64,0 37.82,-2.35 59.07,-28.36 96.88,-28.36 35.47,0 56.73,7.1 92.2,9.45l9.45 37.82c-70.9,47.27 -120.55,82.74 -151.26,160.71l311.98 94.54c7.1,-44.88 7.1,-68.52 0,-113.44 47.27,11.83 75.63,23.63 122.89,37.81 -4.72,-75.63 -2.33,-141.8 -56.71,-189.08 -37.82,-33.09 -82.7,-42.54 -94.55,-94.53l47.28 -94.54c-33.1,-33.09 -94.54,-40.2 -141.81,-37.82zm-378.16 860.3c-37.81,0 -63.83,18.91 -85.08,47.27 42.54,78.02 122.9,108.72 122.9,198.53 0,44.93 -14.18,70.9 -28.36,113.45l9.45 37.81c16.56,0 21.29,18.91 37.82,18.91 35.47,0 49.65,-37.81 66.17,-66.18 23.64,-40.15 28.36,-77.97 47.27,-122.89 23.64,-54.34 42.55,-89.81 47.27,-151.26 -85.09,-28.37 -127.62,-75.64 -217.44,-75.64zm642.86 973.75c-18.91,-18.91 -30.74,-37.81 -56.71,-37.81 -40.2,0 -47.28,37.81 -85.09,56.71 54.34,47.27 80.36,85.09 122.89,141.82 11.81,-7.08 30.76,2.38 37.82,-9.46 21.29,-37.81 -11.79,-106.33 -18.91,-151.26zm-482.14 -2788.89c-59.11,23.64 -96.93,40.2 -151.26,75.64l37.82 33.08 226.88 0c-23.63,-35.43 -75.62,-85.08 -113.44,-108.72zm-132.35 2855.06c-37.82,0 -59.11,-2.38 -94.55,-18.9l-28.35 49.65c66.17,-7.11 103.99,2.34 170.17,7.07 37.81,2.38 59.1,-4.73 94.53,-9.45 30.75,-4.73 85.09,4.72 85.09,-28.37 0,-30.74 -25.98,-56.71 -56.72,-56.71 -18.91,0 -21.26,21.24 -37.82,28.35 -47.27,18.91 -80.35,28.36 -132.35,28.36zm1011.56 1049.38c-42.55,-23.63 -63.84,-56.72 -113.45,-56.72 -30.74,0 -47.27,21.25 -75.63,28.36 -68.56,18.91 -125.28,47.27 -151.26,113.45 14.18,2.38 21.26,18.9 37.82,18.9 28.36,0 49.61,-16.52 75.62,-18.9 56.73,-9.45 96.89,-9.45 151.26,-28.36 11.8,-2.35 25.99,4.73 37.82,0 14.18,-4.73 28.36,-47.27 37.82,-56.73zm822.48 548.33c-28.36,0 -47.27,-18.91 -75.62,-18.91 -70.91,0 -111.11,44.92 -160.72,94.53 -26.03,26.02 -21.3,63.84 -56.73,75.64 -26.01,7.11 -49.65,0 -75.63,9.45 -101.64,37.82 -189.08,99.26 -189.08,207.99 0,59.11 2.35,101.64 28.36,151.26 7.08,16.56 16.53,37.82 37.82,37.82 56.73,0 77.97,-42.55 122.9,-75.64 23.63,-16.53 47.27,-18.91 75.63,-28.36 42.55,-14.18 80.36,-16.52 113.45,-47.27 21.25,-18.9 16.53,-47.26 28.36,-75.63 59.06,-144.15 174.9,-179.62 245.8,-321.43 -16.52,-4.72 -18.9,-28.36 -37.81,-28.36 -23.64,0 -33.09,18.91 -56.73,18.91zm-1039.92 614.49c-49.66,68.57 -85.08,118.19 -85.08,205.64 0,66.19 9.45,106.34 9.45,172.52 82.73,-33.09 92.19,-120.52 94.53,-207.99 2.38,-59.06 -18.9,-111.06 -18.9,-170.17zm6507.79 600.33l-115.83 0c-16.52,0 -23.62,11.83 -38.99,14.18 -54.33,10.62 -83.91,22.46 -137.07,37.81 -73.25,21.3 -120.52,24.81 -189.08,56.73 -90.99,42.54 -150.09,59.1 -250.52,75.63 -39,5.9 -60.29,18.91 -100.44,18.91l-96.93 0c-24.8,0 -37.82,-8.29 -62.62,-9.45 -31.91,-2.35 -49.61,0 -80.35,-4.73 -21.26,-3.56 -34.27,-14.18 -56.73,-14.18 -16.53,0 -24.8,15.35 -37.82,23.63 -46.09,30.75 -66.17,63.83 -118.17,85.08 -20.07,8.29 -36.65,5.9 -56.72,14.18 -33.09,14.18 -51.99,30.75 -75.63,56.73 -30.71,33.08 -50.83,55.55 -80.36,89.81 -22.46,26.01 -25.97,53.16 -52,75.63 -30.7,27.19 -61.44,33.08 -103.99,33.08 -33.09,0 -53.17,-9.44 -86.26,-9.44 -13,0 -18.91,3.55 -31.91,4.71 -1.18,15.37 -4.72,23.64 -4.72,39 0,29.57 14.18,46.09 18.9,74.46 7.11,43.71 15.35,69.73 23.64,113.44 5.9,29.53 7.11,50.82 23.63,75.64 14.18,21.28 30.74,29.53 51.99,42.53 33.1,20.09 42.55,46.1 75.64,66.18 73.28,44.93 128.79,43.71 207.98,75.64 23.63,9.45 35.47,23.62 52,42.53 22.46,24.82 46.09,35.47 75.63,52 20.08,10.62 33.08,23.64 56.72,23.64 48.44,0 68.56,-55.55 70.91,-103.99 1.16,-25.98 -11.81,-43.73 0,-66.18 13,-23.64 38.98,-28.37 66.18,-28.37 28.35,0 42.53,18.91 70.89,18.91 96.93,0 135.92,-69.73 226.9,-99.26 48.44,-15.36 81.53,8.28 132.35,0 31.91,-4.73 46.1,-23.63 75.64,-37.82 21.29,-10.63 38.98,-10.63 61.44,-18.9 41.38,-15.35 63.83,-33.1 104,-52 43.71,-20.08 72.08,-23.64 113.44,-47.28 66.18,-37.8 101.65,-65 170.17,-99.26 -42.54,-103.99 -118.17,-151.26 -118.17,-264.7 0,-27.2 4.73,-44.89 18.9,-66.18 3.56,-5.9 13.01,-5.9 18.91,-9.46 39,-28.36 70.91,-31.91 118.18,-42.54 48.44,-10.62 73.29,-27.18 118.17,-47.26 29.57,-13.02 49.65,-18.91 75.63,-37.82 74.46,-55.55 118.17,-85.09 189.07,-146.53 29.58,-24.82 50.83,-38.99 75.64,-70.91 10.66,-14.18 29.57,-16.56 37.82,-33.09 11.83,-22.46 14.18,-40.2 14.18,-66.17 0,-23.64 -4.73,-47.27 -28.37,-52 -9.45,-1.17 -10.62,13.01 -18.9,14.18 -25.99,5.9 -34.26,29.53 -56.73,42.54 -43.72,27.19 -64.96,53.17 -113.44,66.18 -37.82,10.63 -57.9,28.36 -94.54,42.54 -22.42,8.29 -38.99,10.62 -61.45,18.91 -21.26,8.27 -35.44,11.8 -56.73,18.91 -8.24,2.35 -10.62,14.18 -20.08,14.18zm1055.29 4377.13c-27.2,54.38 -49.65,80.36 -70.91,137.08 -7.11,20.07 -7.11,35.47 -14.18,56.72 -7.11,22.46 -16.56,33.09 -18.91,56.72 -3.55,36.65 -1.17,57.91 -4.73,94.54 -5.89,56.73 -37.8,85.08 -37.8,141.81 0,48.44 15.35,76.8 47.26,113.44 25.98,30.76 43.72,66.18 85.09,66.18 22.45,0 28.36,-25.98 33.09,-47.27 5.89,-24.8 9.45,-40.15 9.45,-66.17 -1.18,-40.16 -5.9,-65.01 0,-104 3.55,-22.45 15.35,-34.26 18.91,-56.71 10.62,-56.73 9.46,-89.82 9.46,-147.72l0 -111.09c0,-16.53 -11.81,-23.64 -14.19,-39 -2.34,-21.24 3.55,-35.43 0,-56.71 -2.34,-17.74 -31.92,-23.64 -42.54,-37.82z"/>
  <path class="fil2 str1" d="M18191.04 3870.06c-50.82,0 -80.35,53.16 -80.35,103.98 0,18.91 24.8,15.35 37.81,28.37 17.74,17.74 27.19,31.91 47.27,47.27 35.47,28.36 50.83,51.99 75.63,89.81 20.08,30.74 28.37,56.72 56.72,80.36 39,33.09 70.91,60.27 70.91,112.27l0 120.52c0,21.29 23.63,24.84 42.54,31.91 27.19,9.46 46.1,18.91 75.63,18.91 41.37,0 57.89,-37.82 99.27,-37.82 22.46,0 34.26,9.46 56.72,9.46 33.09,0 50.83,-21.25 80.36,-33.09 42.54,-17.73 80.35,-43.72 80.35,-89.81 0,-31.91 -10.62,-53.17 -33.08,-75.63 -14.18,-14.19 -18.91,-28.36 -37.82,-37.81 -29.53,-14.18 -50.82,-21.26 -75.63,-42.55 -34.26,-29.53 -51.99,-53.16 -80.35,-89.81 -28.37,-37.81 -47.28,-75.63 -94.55,-75.63 -31.91,0 -48.44,9.46 -80.35,9.46 -31.92,0 -43.71,-27.2 -61.45,-52 -9.46,-14.19 -23.64,-17.73 -37.82,-28.37 -28.36,-21.24 -46.1,-34.26 -75.63,-51.99 -24.8,-15.36 -36.65,-37.81 -66.18,-37.81zm-1205.37 2079.85l-85.07 9.45 -113.46 -23.64c-30.74,15.35 -53.17,17.73 -85.08,28.36 -76.8,24.81 -126.45,36.65 -207.98,33.09 -14.19,0 -23.64,3.56 -37.82,4.72 -14.18,1.18 -27.19,-3.54 -37.81,4.73 -23.64,18.91 -13.01,47.27 -23.64,75.64 -10.63,30.74 -36.64,42.54 -66.18,56.71 -21.28,10.64 -34.26,20.09 -56.72,28.37 -34.26,14.18 -57.9,16.56 -94.54,23.63 -29.53,5.9 -44.92,20.08 -75.63,23.64 -46.1,4.73 -73.28,-13.01 -118.17,-4.73 -14.18,2.38 -29.53,3.56 -37.82,14.18 -3.55,4.73 2.35,13.02 0,18.91 -14.18,34.26 -15.35,59.11 -28.35,94.54 -20.09,55.55 -70.91,73.28 -70.91,132.36 0,23.62 15.35,35.47 23.64,56.71 5.89,16.56 3.54,27.2 4.72,44.93 21.25,0 34.26,-2.38 55.55,-2.38 24.8,0 37.82,7.11 62.62,9.45 52,5.9 81.53,7.11 132.35,18.91 33.09,8.28 50.84,23.64 85.09,23.64 30.7,0 44.89,-23.64 75.63,-23.64 20.09,0 33.09,5.9 52,9.46 21.25,4.72 41.36,0 56.72,14.18 4.73,3.55 1.17,13 4.73,18.91 17.73,29.53 35.43,56.71 70.9,56.71 29.54,0 36.65,-33.09 61.45,-47.27 11.81,-5.9 24.81,-3.55 37.82,-4.73 35.43,-4.71 75.63,-21.24 75.63,-57.89l0 -92.19c0,-23.63 23.63,-34.26 23.63,-57.89 0,-46.11 -34.26,-85.09 -80.35,-89.82 -43.71,-4.73 -99.27,-8.28 -99.27,-51.99 0,-22.47 27.19,-23.64 47.27,-33.09 38.99,-17.74 60.28,-33.09 99.26,-52 52,-25.98 81.53,-46.09 132.36,-75.63 60.28,-34.26 93.37,-55.55 151.26,-94.54 37.81,-25.98 59.07,-43.71 66.17,-89.8zm1525.62 675.95l-92.18 0c-29.55,0 -39,36.63 -39,66.17 0,65 94.54,72.07 94.54,137.07 0,44.93 -37.81,63.84 -37.81,108.73 0,43.71 16.56,66.17 23.63,108.72 3.56,21.28 -4.73,37.81 4.73,56.72 7.11,14.18 20.08,18.91 33.09,28.37 20.11,14.18 33.09,28.35 56.72,37.8 39.02,15.36 70.9,23.64 89.81,61.46 28.37,56.72 28.37,96.92 52,155.98 14.17,37.82 41.37,55.55 51.99,94.55 3.56,13 -1.17,23.62 0,37.81 5.94,48.44 24.85,72.07 37.82,118.18 5.94,23.63 15.39,36.64 28.36,56.71 27.19,40.2 40.2,73.29 85.08,89.82 24.85,8.27 39.03,28.36 66.18,28.36 22.46,0 24.85,-24.81 37.82,-42.54 31.91,-42.55 55.55,-85.09 108.72,-85.09 33.09,0 51.99,18.91 85.09,18.91 24.83,0 40.19,-16.52 56.71,-33.09 27.2,-27.19 43.76,-44.89 66.18,-75.63 -7.07,-5.89 -5.89,-15.35 -14.18,-18.91 -22.42,-9.45 -40.16,-8.28 -61.45,-18.91 -16.52,-8.27 -21.25,-23.63 -33.08,-37.81 -25.99,-30.7 -46.06,-54.34 -52,-94.54 -7.08,-48.44 -1.18,-80.36 -14.18,-127.62 -7.08,-25.99 -23.64,-38.99 -23.64,-66.18 0,-11.81 11.83,-14.18 18.91,-23.64 15.39,-20.08 37.82,-30.7 37.82,-56.72 0,-16.52 -10.64,-24.81 -18.91,-37.81 -14.18,-21.26 -27.15,-36.65 -52,-42.55 -46.06,-11.8 -75.63,-3.56 -122.9,-9.45 -41.33,-5.9 -70.91,-11.8 -104,-37.82 -34.26,-27.18 -37.8,-60.28 -56.71,-99.26 21.28,8.27 35.47,14.18 59.1,14.18 47.26,0 73.25,-14.18 120.52,-14.18 1.21,-14.18 4.73,-22.47 4.73,-36.65 0,-30.7 -28.37,-40.16 -47.28,-62.62 -23.63,-27.19 -34.25,-48.44 -66.18,-66.17 -41.32,-22.47 -61.44,-50.83 -108.71,-56.73 -87.43,-10.62 -131.14,-47.27 -217.44,-61.44 -22.43,-3.56 -34.26,-14.18 -57.9,-14.18zm-13470.54 9973.8c-26.03,0 -34.27,26.02 -56.73,37.82 -34.26,18.91 -60.28,24.8 -99.27,33.09 -57.9,13 -108.72,44.92 -108.72,103.99 0,50.82 29.53,103.99 80.36,103.99 30.7,0 37.81,-31.92 66.18,-42.54 13.01,-4.73 24.8,-2.35 37.81,-4.73 28.37,-5.9 47.28,-11.8 75.64,-18.9 54.37,-13.02 99.26,-48.45 99.26,-104 0,-55.55 -38.99,-108.72 -94.53,-108.72z"/>
  <g id="_2414787691360">
   <path class="fil3 str2" d="M16130.1 3903.15c-16.56,-99.27 -78.99,-136.45 -132.35,-217.44 -15.16,-23.01 -17.1,-47.08 -28.36,-75.64 -24.15,-61.23 -47.27,-101.64 -47.27,-170.17 0,-59.11 54.34,-103.99 113.45,-103.99 63.79,0 96.92,18.91 160.71,18.91 87.47,0 134.86,-40.01 207.99,-85.09 68.67,-42.33 151.26,-68.56 151.26,-151.26 0,-30.74 -20.84,-47.4 -28.36,-75.62 -11.37,-42.66 -1.97,-71 -9.46,-113.46 -13.77,-78.07 -113.44,-89.8 -113.44,-170.17 0,-80.35 106.46,-75.51 170.17,-122.89 28.44,-21.16 33.1,-59.11 66.17,-75.64 23.62,-11.81 49.98,-10.73 75.63,-18.9 137.43,-43.81 146.54,-236.35 293.07,-236.35 33.09,0 45.12,27.83 75.64,37.82 99.43,32.53 174.68,21.62 264.7,75.62 28.14,16.89 38.06,46.94 66.18,66.19 61.67,42.19 113.48,42.16 189.08,47.27 63.84,4.32 101.56,-11.59 160.71,9.45 47.17,16.77 73.77,46.62 113.45,75.63 118.63,86.77 186.49,149.04 264.7,274.17 31.51,50.41 63.03,100.85 94.54,151.26 36.51,58.41 56.93,108.2 122.9,132.35 101.84,37.28 167.57,40.73 264.71,85.08 11.58,5.28 26.15,2.16 37.81,9.45 26.15,16.33 38.14,44.2 66.18,56.73 83.06,37.1 151.16,14.36 226.9,66.18 103.86,71.06 148.91,179.62 276.54,179.62 92.95,0 185.92,0 278.89,0 63.79,0 99.2,12.52 163.05,18.9 77.94,7.78 129.93,4.95 198.54,37.82 44.81,21.46 63.82,56.74 94.54,94.54 30.72,37.81 73.26,47.33 113.44,75.63 63.78,44.93 80.38,108.73 85.09,189.08 4.72,80.35 86.9,97.34 132.35,160.71 44.35,61.85 56.7,134.97 132.36,151.26 44.87,9.66 77.98,-14.03 122.89,0 30.69,9.58 42.74,35.29 66.18,56.73 59.28,54.17 108.72,75.62 189.08,75.62 33.09,0 47.35,-25.83 75.63,-37.8 33.14,-14.03 56.72,-18.91 94.54,-18.91 122.9,0 189.08,56.71 311.98,56.71 75.63,0 113.44,-37.8 189.07,-37.8 40.2,0 62.06,20.17 94.54,37.8 76.23,41.42 115.64,87.6 160.71,160.73 42.33,68.66 67.92,116.15 104,189.07 79.69,161.03 125.1,291.52 290.54,360.04"/>
   <path class="fil3 str2" d="M14891.65 5283.4c139.46,33.09 224.55,56.73 368.7,56.73 59.1,0 106.94,-30.55 122.9,-85.08 12.4,-42.38 7.11,-68.57 9.46,-113.46 2.36,-44.91 16.38,-68.58 18.91,-113.44 4.52,-80.37 6.85,-139.69 56.71,-198.53 42.28,-49.87 66.18,-103.99 132.35,-103.99 59.11,0 92.2,28.36 151.28,28.36 63.82,0 89.53,-48.19 151.26,-66.18 51.72,-15.08 88.56,-30.73 141.8,-18.91 56.72,12.6 113.44,25.23 170.17,37.82 143.02,31.77 212.72,-113.44 359.25,-113.44 75.62,0 113.44,37.81 189.08,37.81 51.99,0 80.35,-18.91 132.35,-18.91 92.2,0 134.73,66.18 226.89,66.18 118.17,0 184.34,-28.37 302.53,-28.37 80.35,0 153.59,2.41 198.53,66.19 56.65,80.38 64.42,141.47 113.44,226.88 24.23,42.19 56.46,57.11 94.53,85.09 77.73,57.09 110.81,109.12 189.08,170.17 39.89,31.1 65.37,54.94 94.55,94.53 70.07,95.14 132.2,137.32 226.88,207.99 73.12,54.58 108.58,97.22 189.08,141.81 94.37,52.27 144.5,89.48 226.9,160.71 57.01,49.3 75.62,122.91 151.26,122.91 37.81,0 56.72,-18.91 94.53,-18.91 125.29,0 177.29,113.44 302.53,113.44 37.81,0 44.95,-37.79 75.63,-56.72 49.65,-30.66 92.18,-35.98 151.26,-37.81 92.16,-2.87 151.35,-11.61 236.35,-47.27 106.45,-44.67 125.33,-139.43 170.17,-245.81 37.85,-89.77 98.85,-118.54 160.71,-189.07 72.86,-83.07 130.02,-125.26 217.44,-189.07 87.44,-63.84 125.43,-127.45 217.43,-189.08 144.33,-96.71 241.08,-179.63 415.98,-179.63 108.71,0 167.71,49.87 264.7,94.54 82.61,38.05 136.64,57.31 207.99,113.45 39.73,31.28 47.92,70.48 75.63,113.44 19.56,30.3 54.38,37.83 75.63,66.19 28.34,37.79 56.72,75.62 94.54,103.98"/>
   <path class="fil3 str2" d="M10283.52 2878.88c-73.28,51.99 -79.69,116.32 -109.35,201.78 -10.53,30.33 -30.95,49.47 -47.28,75.63 -7.27,11.65 -2.9,27.98 -9.45,37.82 -7.62,11.42 -28.01,7.38 -37.82,18.91 -44.51,52.29 -73.25,82.71 -122.9,132.35 -56.7,56.71 -99.26,104 -179.62,104 -49.61,0 -65.75,-49.86 -85.08,-94.55 -18.47,-42.73 -21.82,-75.26 -47.27,-113.44 -7.63,-11.47 -24.04,-14.18 -37.82,-14.18 -63.02,0 -126.05,0 -189.08,0 -129.96,0 -77.68,225.35 -198.52,269.43 -80.05,29.19 -145.82,-15.22 -226.89,18.91 -26.22,11.03 -9.46,47.27 -9.46,75.63 0,37.82 40.25,49.43 75.63,56.72 44.95,9.25 73.17,16.76 113.45,37.82 63.7,33.31 132.35,59.07 132.35,132.35 0,23.63 -21.93,35.23 -28.36,56.72 -7.73,25.78 -6.69,52.21 -18.91,75.64 -16.12,30.89 -47.18,40.23 -66.17,66.17 -6.97,9.51 9.45,30.73 0,37.82 -9.43,7.07 -23.64,9.45 -37.82,9.45 -42.54,0 -68.52,-9.45 -111.06,-9.45 -49.65,0 -73.42,32.88 -115.84,56.72 -71,39.93 -120.73,49.31 -189.07,94.54 -85.28,56.4 -167.62,59.2 -226.89,141.8 -18.73,26.09 -24.03,53.94 -47.27,75.64 -47.65,44.45 -92.21,47.17 -151.26,75.62 -73.28,35.32 -116.04,68.06 -189.08,104 -80.59,39.66 -160.71,85.09 -160.71,177.25 0,102.42 0,204.83 0,307.24 0,118.16 -47.28,182.01 -47.28,300.18 0,77.98 25.94,122.97 66.18,189.08 25.92,42.58 42.94,75.32 75.63,113.44 9.83,11.47 27.6,14.73 37.82,28.36 18.16,24.21 23.91,56.41 47.27,75.64 56.98,46.94 118.1,30.92 189.08,56.72 59.02,21.45 89.8,59.09 122.89,113.45 66.16,108.71 110.76,172.95 207.99,255.25 56.34,47.69 94.54,94.54 170.17,94.54 66.17,0 103.99,-28.36 170.17,-28.36 94.53,0 141.81,66.18 236.34,66.18 33.09,0 54.39,-26.04 75.64,-47.27 49.64,-49.65 66.36,-98.82 132.35,-122.9 82.9,-30.27 139.59,-30.19 226.89,-47.27 141.92,-27.78 214.96,-99.54 340.34,-170.17 42.39,-23.89 71.1,-35.1 113.44,-56.73 64.03,-32.69 94.92,-70.44 151.26,-113.44 123.27,-94.06 203.02,-137.4 321.43,-236.35 54.11,-45.23 73.3,-82.76 122.91,-132.35 68.55,-68.55 123.09,-94.3 198.53,-151.26 40.37,-30.49 63.83,-66.19 115.83,-66.19 102.42,0 204.83,0 307.24,0 77.99,0 118.29,-35.13 191.43,-56.71 30.83,-9.1 54.4,-2.38 85.08,-9.46 122.91,-28.33 193.8,-56.72 321.44,-56.72 80.35,0 130.08,-5.06 207.98,9.45 61.5,11.45 92.19,37.82 151.26,56.73"/>
   <path class="fil3 str2" d="M5568.46 3448.96c-15.35,38.98 -22.48,59.2 -40.84,94.95 -4.1,7.96 -14.8,9.7 -18.91,18.91 -25.45,56.96 -19.3,99.12 -42.55,155.99 -32.27,78.98 -68.53,115.83 -113.44,189.07 -54.32,88.62 -62.6,167.85 -151.26,222.16 -42.5,26.03 -67.3,42.72 -113.44,61.46 -29.47,11.95 -49.76,18.79 -75.64,37.81 -14.26,10.49 -28.36,18.91 -28.36,37.82 0,35.43 36.64,41.36 61.45,66.17 36.61,36.62 68.63,51.94 99.26,94.55 44.98,62.53 83.65,96.97 108.73,170.17 16.23,47.34 21.25,82.7 56.72,118.17 23.61,23.61 45.96,30.97 75.63,47.27 30.54,16.77 49.73,30.52 80.35,47.26 32.02,17.49 48.44,42.54 85.09,42.54 33.09,0 54.15,-8.89 85.08,-18.9 9.28,-2.99 14.16,-11.97 23.64,-14.19 30.67,-7.21 48.51,-19.33 80.36,-14.18 174.9,28.36 349.79,56.74 524.69,85.09 101.81,16.5 157.05,-42.96 255.25,-70.91 38.86,-11.06 66.03,-43.89 104,-28.36 29.42,12.05 9.76,53.09 18.9,85.09 19.21,67.24 47.27,106.34 47.27,177.24 0,54.38 -16.39,88.76 -42.55,134.74 -17.53,30.8 -24.76,57.99 -56.71,75.63 -57.83,31.96 -94.36,49.94 -151.26,85.08 -38.8,23.95 -65.04,36.6 -99.27,66.18 -35.47,30.67 -36.48,68.79 -75.63,94.54 -47.09,30.95 -85.09,37.81 -141.82,37.81 -40.19,0 -64.95,-1.52 -103.98,-9.45 -24.74,-5.02 -37.86,-21.19 -61.46,-28.36 -30.76,-9.34 -47.28,-22.46 -75.62,-37.82 -28.37,-15.36 -54.57,-18.8 -70.91,-47.26 -10.79,-18.79 -7.05,-36.69 -14.18,-56.73 -17.66,-49.66 -66.09,-52.21 -113.44,-75.62 -53.07,-26.22 -78.02,-66.19 -137.08,-66.19 -18.91,0 -22.25,24.04 -37.82,33.09 -12.77,7.44 -23.57,10.92 -37.82,14.19 -31.84,7.33 -50.83,15.37 -80.35,28.35 -29.52,12.97 -59.09,15.39 -75.64,42.54 -12.96,21.27 -4.72,40.17 -4.72,66.18 0,35.43 2.83,56.56 14.18,89.81 5.19,15.19 15.43,22.42 18.91,37.82 4.79,21.22 -4.73,34.26 -4.73,56.73 0,24.8 22.47,34.25 33.09,56.71"/>
   <path class="fil3 str2" d="M10028.05 9274.84c21.29,2.38 27.95,7.55 49.23,7.55 118.17,0 160.72,-113.44 278.89,-113.44 68.53,0 177.24,-59.71 177.24,9.45 0,92.18 0,184.35 0,276.51 0,101.63 -28.36,160.71 -28.36,262.37 0,44.88 9.45,68.51 9.45,113.44 0,16.52 -14.18,21.24 -14.18,37.82 0,16.52 14.81,21.27 14.18,37.8 -1.69,44.92 -14.18,68.53 -14.18,113.46 0,28.36 -4.33,49.49 4.73,75.62 12.22,35.3 45.26,37.33 75.64,56.73 54.69,34.91 98.89,45.38 151.26,85.08 94.14,71.39 103.98,172.51 103.98,293.07 0,134.7 -21.71,212.6 -56.71,340.34 -12.25,44.76 -21.31,70.9 -37.82,113.45 -28.4,73.22 -56.74,115.8 -85.09,189.07 -28.34,73.24 -48.76,120.98 -85.08,189.08 -77.1,144.61 -151.26,231.61 -151.26,397.07 0,37.8 13.55,59.17 18.91,94.53 6.45,42.64 4.73,70.93 18.91,113.44 16.54,49.62 47.26,77.99 47.26,132.37 0,21.24 -21.73,27.58 -37.81,37.8 -35.92,22.87 -61.45,28.37 -104,28.37 -23.63,0 -35.44,-18.91 -56.72,-28.37 -42.54,-18.88 -68.52,-35.47 -103.99,-66.17"/>
   <path class="fil3 str2" d="M10032.37 12373.79c-56.73,14.18 -85.1,40.2 -132.35,75.63 -28.36,21.28 -54.38,26.01 -80.36,52 -69.71,69.7 -85.08,140.63 -85.08,238.73 0,47.27 0.2,73.23 4.72,120.51 3.73,38.96 18.91,60.28 18.91,99.27 0,30.74 -13.01,47.28 -23.63,75.63 -21.27,56.72 -35.47,89.82 -35.47,150.09 0,77.6 8.96,155.72 0,232.79 -31.28,269.04 -80.34,535.71 -120.52,803.58"/>
   <path class="fil3 str2" d="M5290.89 14463.24c-4.73,30.74 -4.34,37.66 -4.34,68.41 0,179.62 85.08,271.77 85.08,451.4 0,89.81 -37.82,137.08 -37.82,226.89 0,18.91 23.78,21.27 28.37,37.82 7.19,25.97 9.45,47.26 9.45,75.63 0,47.27 -22.79,71.22 -37.82,113.44 -34.6,97.22 -56.71,158.39 -56.71,262.37 0,59.86 0,119.74 0,179.62 0,66.17 -10.67,115.19 18.91,172.52 8.24,15.99 30.15,14.49 37.8,28.36 30.14,54.68 45.34,92.05 66.18,151.26 24.07,68.4 9.46,115.82 9.46,189.08 0,137.08 -28.37,212.7 -28.37,349.79 0,28.35 9.46,47.26 9.46,75.63 0,44.92 0.25,80.59 -28.36,113.45 -35.21,40.41 -75.65,47.28 -113.45,85.08 -56.72,56.72 -52,118.19 -94.53,189.08 -35.46,59.1 -96.77,63.99 -141.82,113.44 -51.81,56.86 -76.34,108.65 -85.08,189.08 -3.07,28.27 4.78,49.68 0,75.63 -11.76,63.85 -54.74,94.35 -85.09,151.26 -45.28,84.88 -47.26,148.92 -47.26,245.8 0,21.3 -11.53,42.31 0,56.72 7.36,9.21 30.49,0.19 37.81,9.46 28.13,35.64 52,66.18 52,113.44 0,59.11 -9.54,92.21 -14.18,151.26 -11.9,151.26 25.77,236.78 14.18,387.61 -2.83,36.88 -33.09,56.73 -33.09,94.55 0,70.89 25.99,120.56 75.63,170.17 33.08,33.06 73.63,39.62 113.45,66.17 45.26,30.16 51.56,73.67 85.09,113.45 68.05,80.72 160.26,71.28 226.88,151.26 39.69,47.64 26.48,94.37 47.27,151.26 24.11,65.99 63.82,92.19 113.45,141.81 33.09,33.07 33.18,68.55 47.27,113.44 23.71,75.6 49.46,100.44 73.09,176.07"/>
   <path class="fil3 str2" d="M5276.94 15891.21c17.02,1.7 31.16,10.17 48.14,10.17 37.4,0 51,-32.33 76.5,-57.82 23.79,-23.76 46.11,-33.69 73.06,-54.38 46.11,-35.37 73.01,-61.21 115.52,-100.24 61.13,-56.14 95.29,-95.13 142.8,-163.14 15.36,-22.01 16.82,-40.93 33.96,-61.14 11.68,-13.8 25.57,-20.36 37.35,-34.04 73.17,-84.88 146.2,-115.54 258.32,-125.74 56.06,-5.1 79.79,-35.84 125.78,-67.95 44.03,-30.75 82.17,-47.31 129.78,-72.79"/>
   <path class="fil3 str2" d="M4256.07 14379.19c0,59.1 -6,94.59 14.18,150.09 12.89,35.46 42.8,42.26 70.91,66.17 74.69,63.5 87.47,129.98 155.99,198.53 31.9,31.91 43.61,57.98 70.9,94.54 31.8,42.61 60.61,63.68 80.36,113.45 14.49,36.51 28.22,66.58 66.17,80.36 27.04,9.83 48.37,10.9 75.63,18.91 12.93,3.8 28.2,1.4 37.82,9.44 4.54,3.78 1.98,13.21 4.73,18.91 12.58,26.18 14.26,47.27 18.91,75.64 8.33,50.8 8.21,81.56 18.9,132.35 8.2,39 26.69,56.89 37.81,94.54 13.66,46.25 23.26,74.63 42.55,118.17 17.34,39.15 40.46,56.6 61.45,94.54 15.6,28.21 22.23,47.41 37.81,75.63 22.22,40.29 43.81,58.97 80.36,85.08 54.45,38.88 84.93,60.86 146.39,85.66"/>
   <path class="fil3 str2" d="M14721.49 4952.52c-37.82,-9.45 -75.64,-18.91 -113.46,-28.36 -131.57,-32.88 -203.26,85.08 -340.34,85.08 -120.55,0 -194.41,-15.77 -302.52,-66.17 -16.31,-7.61 -25.87,21.33 -28.36,37.81 -9.29,61.47 2.69,101.79 -18.91,160.71 -30.38,82.86 -99.26,132.37 -189.08,132.37 -89.8,0 -137.08,-37.82 -226.88,-37.82 -16.56,0 -23.56,17.23 -37.82,18.91 -25.94,3.03 -47.35,6.48 -75.64,9.45 -106.43,11.19 -165.18,33.91 -264.7,66.17 -75.36,24.44 -123.1,25.33 -198.53,47.27 -111.29,32.39 -174.78,52.21 -274.16,113.45 -103.86,64.01 -152.36,120.9 -264.71,160.71 -11.38,4.02 -5.46,26.35 0,37.82 18.18,38.16 47.29,47.27 75.63,75.63 40.16,40.18 54.36,73.29 94.54,113.45 85.09,85.07 160.71,144.18 160.71,264.7 0,47.27 -56.63,49.8 -94.53,75.64 -14.08,9.58 -14.67,27.69 -28.37,37.81 -40.68,30.08 -85.08,51.99 -85.08,103.99 0,68.56 -4.97,130.37 47.27,170.17 47,35.8 96.95,21.2 151.26,47.27 63.84,30.64 85.13,77.99 141.81,122.9 68.54,54.33 139.42,42.67 226.89,56.73 44.86,7.21 87.09,2.64 113.45,37.81 16.16,21.55 9.46,47.27 9.46,75.63 0,28.36 0.46,49.84 -9.46,75.63 -13.7,35.66 -54.25,28.49 -75.63,56.72 -37.67,49.75 -54.38,87.49 -56.73,151.27 -4.71,127.63 -14.14,253.04 -132.35,302.52 -85.02,35.59 -115.53,87.88 -189.08,141.81 -68.25,50.06 -115.76,78.15 -189.08,122.9 -66.08,40.31 -111.09,66.18 -189.07,66.18 -37.81,0 -56.72,-28.37 -94.54,-28.37 -54.38,0 -65.89,64.53 -113.44,85.08 -39.9,17.25 -70.9,21.47 -113.46,28.37 -44.89,7.26 -87.66,9.33 -113.44,47.27 -14.36,21.15 -9.45,47.27 -9.45,75.63 0,44.93 13.92,73.39 28.36,113.45 37.54,104.07 66.47,160.61 103.99,264.7 14.45,40.08 13.69,73.48 28.36,113.45 27.85,75.8 61.32,120.62 85.09,198.54 18.75,61.48 11.71,104 18.91,170.16 6.96,63.83 18.9,101.65 18.9,165.45 0,99.26 -41.8,153.39 -56.72,250.52 -3.96,25.8 0.46,49.84 -9.45,75.63 -13.7,35.66 -47.27,54.38 -47.27,94.54 0,127.62 99.41,202.89 217.44,245.8 115.91,42.15 181.97,94.54 307.25,94.54 47.27,0 70.98,-13.68 118.17,-18.91 59.12,-6.55 94.69,3.01 151.26,-9.46 82.85,-18.25 122.9,-75.62 207.98,-75.62 80.37,0 111.07,85.08 191.43,85.08 89.82,0 179.62,0 269.43,0 101.65,0 144.21,75.64 210.37,151.26 66.17,75.62 113.26,104.24 189.07,170.17 141.6,123.13 235.22,184.68 349.8,330.88 22.67,28.92 55.94,38.37 75.63,66.18 60.65,85.63 71.45,153.2 141.81,236.35 33.61,39.74 70.96,49.58 113.44,75.63 61.5,37.72 89.2,78.36 122.9,141.8 46.63,87.8 49.86,172.26 132.36,226.9 99.46,65.86 182,85.08 302.52,85.08 73.29,0 115.8,-12.09 189.08,-18.9 28.32,-2.63 49.98,-1.28 75.62,-9.45 85.43,-27.29 122.91,-94.55 212.72,-94.55 165.44,0 248.19,101.66 363.97,217.44 40.19,40.19 52.28,86.95 103.99,113.45 40.47,20.74 71.35,20.23 113.45,37.81 144.63,60.38 177.29,177.29 255.25,311.98 26.01,44.91 59.8,65.83 85.09,113.45 14.86,27.99 17.03,51.6 37.81,75.63 9.9,11.43 26.54,8.87 37.82,18.91 73.79,65.59 111.17,132.13 207.98,151.26 94.58,18.67 158.19,7.54 245.81,47.27 89.6,40.61 118.17,132.35 217.43,132.35 63.83,0 96.92,-37.82 160.72,-37.82 80.36,0 104.14,68.36 170.16,113.45 75.77,51.77 115.84,96.93 179.63,160.72 85.08,85.08 105.46,164.99 141.8,283.61 8.57,27.95 21.66,47.21 28.37,75.64 23.97,101.55 59.11,163.1 132.36,236.34 35.46,35.46 73.29,44.93 113.44,75.63 40.19,30.73 63.64,57.02 103.99,85.08 13.98,9.73 14.71,29.8 28.36,37.82 26.58,15.63 52.01,9.46 75.64,28.36 23.61,18.9 33.09,47.29 47.26,75.63 47.26,94.53 30.26,165.63 66.18,264.71 42.04,116 103.5,173.14 198.53,255.25 44.43,38.39 65.71,78.66 113.45,113.45 39.72,28.98 73.87,46.48 113.44,75.63 95.12,70.1 127.56,149.03 217.44,226.89 87.37,75.71 167.82,94.54 283.62,94.54 130.01,0 203.19,-33.29 321.43,-85.08 92.1,-40.34 144.19,-85.09 245.8,-85.09 52,0 80.41,13.85 132.35,18.91 44.96,4.37 70.84,-2.06 113.45,9.45 44.84,12.1 68.55,33.19 113.45,47.27 75.6,23.72 120.42,38.09 189.07,75.63 32.27,17.64 55.52,37.82 76.81,58.49"/>
   <path class="fil3 str2" d="M17775.08 6474.59c-18.91,47.27 -30.68,80.41 -56.73,122.9 -63.75,104.02 -160.71,151.26 -160.71,274.16 0,87.47 47.27,130.01 47.27,217.44 0,56.73 -33.1,89.82 -66.18,132.35 -49.64,63.83 -99.55,94.03 -170.17,132.35 -94.8,51.47 -122.91,122.92 -198.53,198.54 -68.55,68.55 -137.08,115.84 -137.08,215.09 0,89.82 0,179.63 0,269.44 0,56.71 26,106.28 80.36,120.52 44.88,11.76 75.68,-3.13 122.9,0 59.1,3.92 101.36,9.92 151.26,37.81 30.44,17.02 26.38,58.42 56.72,75.63 57.11,32.38 132.36,37.82 132.36,103.99 0,75.63 -51.34,111.61 -94.55,170.17 -63.14,85.58 -87.46,141.83 -151.26,226.89 -35.45,47.28 -66.28,68.49 -103.99,113.45 -23.72,28.26 -28.77,56.16 -56.72,75.63 -50.05,34.89 -96.59,73.52 -120.22,130.24"/>
   <path class="fil3 str2" d="M18286.73 12298.66c-11.84,-51.99 -38.96,-78.52 -38.96,-132.85 0,-85.08 47.38,-125.27 66.18,-207.99 16.65,-73.26 74.83,-116.57 56.72,-189.08 -6.3,-25.21 -12.62,-50.42 -18.91,-75.62 -6.4,-25.65 8.78,-49.92 18.91,-75.64 20.6,-52.25 80.43,-51.95 113.45,-94.53 40.25,-51.94 60.95,-92.5 94.53,-151.26 42.03,-73.57 55.1,-124.92 94.54,-198.54 31.44,-58.72 103.99,-73.28 103.99,-141.8 0,-37.82 -18.9,-56.73 -18.9,-94.55 0,-92.18 96.93,-115.83 160.71,-179.62 40.19,-40.19 56.33,-76.33 103.99,-103.99 25.61,-14.87 52.37,-16.17 75.63,-37.82 45.28,-42.15 35.64,-92.17 47.28,-151.26 23.76,-120.51 16.56,-215.09 103.98,-302.52 61.46,-61.45 105.06,-113.15 189.08,-122.89 49.89,-5.79 61.14,59.63 103.99,85.07 32.75,19.46 54.38,47.28 94.55,47.28 42.53,0 61.5,-33.03 94.53,-56.73 59.15,-42.46 88.78,-136.33 160.71,-113.44 69.33,22.05 138.66,44.13 207.99,66.17 78.36,24.92 106.38,-94.54 189.08,-94.54 106.38,0 175.35,11.11 264.7,66.19 113.88,70.17 167.83,170.16 302.53,170.16 80.36,0 118.17,-35.48 198.53,-47.27"/>
   <path class="fil3 str2" d="M13520.85 6569.13c26.01,52 58.33,71.58 94.53,113.44 115.05,133.02 236.07,162.01 406.52,198.53 61.16,13.11 75.53,80.39 85.08,141.81 6.99,44.92 15.9,73.66 37.82,113.45 41.86,75.99 115.8,78.16 198.53,103.99 30.69,9.58 45.33,27.16 75.62,37.82 57.16,20.09 92.23,37.72 151.28,47.27 101.65,16.44 165.15,-8.39 264.7,18.9 46.98,12.88 68.68,51.67 113.44,66.18 42.64,13.84 68.62,-6.4 113.45,-9.45 59.15,-4.03 94.69,-2.98 151.26,9.45 61.59,13.53 117.97,19.02 141.81,75.64 13.96,33.16 -9.45,61.44 -9.45,99.26 0,89.8 66.17,151.35 151.26,174.89 25.98,7.19 47.25,-1.82 75.63,0 44.89,2.89 73.3,4.7 113.44,18.91 73.29,25.96 82.35,92.55 132.36,151.26 58.7,68.9 122.9,89.82 179.62,160.72 85.08,106.37 99.27,189.1 160.71,311.97 30.73,61.46 37.5,113.97 94.55,151.26 65.83,43.05 120.48,47.43 189.08,85.09 51.9,28.5 63.58,80.73 113.44,113.45 25.77,16.91 50.35,31.92 75.62,47.27 107.09,65 159.99,109.82 264.72,179.62 30.01,20.01 44.48,38.57 75.62,56.72 25.59,14.92 61.46,18.93 75.64,47.27 11.81,23.64 -9.46,44.94 -9.46,73.29 0,80.36 0,160.72 0,241.08 0,134.68 -7.16,219.82 28.37,347.4 16.45,59.13 40.18,94.56 66.17,151.26 25.99,56.73 35.07,97.17 66.18,151.27 77.59,134.97 130.87,224.38 160.71,378.15 17.4,89.64 6.68,146.65 28.37,236.35 13.73,56.83 37.82,92.19 37.82,151.26 0,66.18 -28.37,103.98 -28.37,170.17 0,120.56 50.19,191.05 122.9,283.61 31.26,39.78 59.02,61.53 85.09,104 56.61,92.24 107.1,136.44 179.62,217.43 29.07,32.44 54.7,53.8 94.54,75.63 106.69,58.52 135.41,146.21 189.07,255.26 21.95,44.58 54.35,66.2 75.64,113.44 33.03,73.3 43.22,129.6 85.08,198.54 38.49,63.41 84.8,83.08 141.81,132.35 82.44,71.23 125.46,127.43 207.98,198.53 71.08,61.23 85.1,122.92 151.26,189.08 35.47,35.47 71.04,49.47 113.45,75.62 68.66,42.35 108.86,75.07 189.07,94.55 85.22,20.7 139.44,2.98 226.9,9.45 103.94,7.69 163.07,40.43 264.7,56.72 89.78,14.38 136.81,27.27 226.9,47.27 16.31,3.62 21.29,18.91 37.82,18.91 23.63,0 33.09,-18.91 56.72,-18.91 23.63,0 35.29,21.93 56.72,28.36 25.82,7.74 52.42,6.33 75.63,18.91 59.53,32.29 63.78,87.53 103.99,141.81 54.31,73.33 97.23,108.56 141.81,189.08 40.47,73.11 61.13,123.27 122.91,179.62 72.93,66.53 139.43,82.81 226.88,132.35 125.25,70.95 217.44,165.44 217.44,311.98 0,113.44 -30.73,177.27 -66.18,283.61 -14.18,42.52 -37.81,66.18 -37.81,111.11 0,30.71 -3.06,73.63 -3.06,104.33"/>
   <path class="fil3 str2" d="M20431.61 10624.83c40.19,61.45 44.96,127.56 113.44,151.26 54.4,18.82 98.98,14.87 151.27,37.82 44.61,19.57 73.31,42.51 113.44,66.18 52.01,30.69 103.99,59.1 103.99,122.89 0,30.75 -18.36,47.48 -28.36,75.63 -27.79,78.21 -63.82,120.54 -122.9,179.62 -92.18,92.18 -113.44,189.08 -113.44,321.43 0,52 -4.34,82.65 9.45,132.36 9.82,35.36 35.46,47.29 56.72,75.63 56.69,75.62 116.14,103.51 198.53,151.26 125.58,72.77 188.85,123.3 311.97,198.53 47.03,28.74 42.21,95.53 94.55,113.46 30.41,10.41 52,9.44 85.08,9.44 28.36,0 49.52,-18.51 75.63,-9.44 28.23,9.8 45.21,35.37 56.73,66.17 9.7,25.89 -9.44,56.73 9.44,75.63 23.63,23.63 54.36,12.01 85.09,18.91 63.8,14.33 144.73,-33.44 170.17,28.35 57.59,139.88 56.74,236.36 103.99,378.16 9.45,28.35 28.37,42.56 28.37,73.29 0,307.25 0,614.49 0,921.75 0,30.69 -16.15,47.46 -28.37,73.25 -18.47,39 -36.4,71.67 -62.01,98.21"/>
   <path class="fil3 str2" d="M24260.42 13045.02c30.74,96.92 54.61,165.17 132.35,226.89 82.96,65.88 175.93,73.3 217.43,170.17 13.96,32.58 -42.45,52.25 -75.62,66.17 -40.06,16.8 -71.04,11.2 -113.45,18.91 -35.55,6.45 -56.72,28.36 -94.54,28.36 -113.44,0 -176.9,-41.35 -283.61,-75.63 -25.65,-8.25 -49.69,-9.42 -75.64,-18.91 -70.91,-25.92 -73.24,-104.13 -141.8,-132.35 -11.77,-4.85 -26.14,1.55 -37.82,0 -59.33,-7.9 -104.65,-32.75 -132.35,-85.08 -14.84,-28.01 -11.88,-56.7 -37.82,-75.64 -35.49,-25.92 -68.6,-2.9 -113.44,0 -63.86,4.15 -109.15,-15.83 -160.72,-47.27 -99.68,-60.75 -165.44,-103.99 -283.61,-103.99 -80.36,0 -132.34,-4.61 -207.99,18.91 -30.7,9.55 -56.21,12.23 -75.63,37.82 -32.57,42.92 -18.91,87.46 -18.91,141.8 0,80.36 1.02,131.99 28.36,207.99 15.18,42.17 47.27,66.17 47.27,113.44 0,47.28 -27.8,71.18 -47.27,113.45 -63.25,137.34 -106.26,217.51 -179.62,349.79 -51.98,93.72 -97.68,163.01 -145.95,233.99"/>
  </g>
  <path class="fil4 str3" d="M1675.2 18081.4l2400.18 0 0 1592.86 -2400.18 0 0 -1592.86z"/>
  <path class="fil5" d="M1292.85 19574.97c0,-17.45 4.47,-34.48 13.46,-51.13 8.93,-16.61 21.77,-29.59 38.43,-38.86 16.69,-9.26 34.1,-13.92 52.16,-13.92 17.92,0 35.18,4.56 51.69,13.74 16.56,9.12 29.4,21.92 38.53,38.43 9.17,16.51 13.73,33.77 13.73,51.74 0,18.01 -4.56,35.27 -13.73,51.78 -9.13,16.51 -21.97,29.35 -38.53,38.53 -16.51,9.17 -33.77,13.78 -51.69,13.78 -18.06,0 -35.47,-4.66 -52.16,-13.97 -16.66,-9.36 -29.5,-22.34 -38.43,-38.95 -8.99,-16.65 -13.46,-33.68 -13.46,-51.17zm17.22 0c0,14.62 3.76,28.88 11.24,42.7 7.48,13.83 18.2,24.65 32.13,32.46 13.92,7.81 28.41,11.71 43.46,11.71 15,0 29.35,-3.85 43.08,-11.52 13.74,-7.67 24.46,-18.39 32.13,-32.17 7.67,-13.79 11.52,-28.18 11.52,-43.18 0,-14.96 -3.85,-29.36 -11.52,-43.14 -7.67,-13.78 -18.39,-24.5 -32.13,-32.12 -13.73,-7.62 -28.08,-11.43 -43.08,-11.43 -15.05,0 -29.54,3.9 -43.46,11.66 -13.93,7.76 -24.65,18.58 -32.13,32.46 -7.48,13.87 -11.24,28.08 -11.24,42.57zm103.57 -33.35l5.08 -16.94c11.53,2.78 20.7,8.61 27.52,17.55 6.87,8.98 10.3,19.85 10.3,32.59 0,16.19 -5.22,29.31 -15.71,39.42 -10.49,10.11 -24.98,15.15 -43.55,15.15 -12.14,0 -22.68,-2.31 -31.61,-6.92 -8.99,-4.56 -15.71,-11.15 -20.28,-19.61 -4.56,-8.52 -6.82,-18.25 -6.82,-29.16 0,-12.23 2.92,-22.39 8.8,-30.48 5.88,-8.09 13.88,-13.6 23.94,-16.56l4.23 16.37c-6.91,2.77 -12.23,6.82 -15.89,12.23 -3.72,5.41 -5.55,11.71 -5.55,19 0,10.58 3.76,19.33 11.28,26.2 7.53,6.87 18.35,10.3 32.37,10.3 14.06,0 24.69,-3.24 31.89,-9.74 7.19,-6.49 10.81,-14.86 10.81,-25.16 0,-8.28 -2.39,-15.57 -7.24,-21.83 -4.8,-6.25 -11.33,-10.39 -19.57,-12.41z"/>
  <path id="1" class="fil5" d="M1498.31 19279.81l-18.58 0c14.44,9.27 21.68,22.91 21.68,40.92 0,11.67 -3.19,22.39 -9.64,32.13 -6.4,9.78 -15.38,17.35 -26.86,22.76 -11.52,5.37 -24.74,8.05 -39.69,8.05 -14.59,0 -27.8,-2.45 -39.7,-7.29 -11.86,-4.9 -20.98,-12.19 -27.29,-21.92 -6.35,-9.69 -9.5,-20.61 -9.5,-32.6 0,-8.84 1.88,-16.7 5.6,-23.56 3.72,-6.87 8.61,-12.47 14.58,-16.8l-72.67 0 0 -24.83 202.07 0 0 23.14zm-73.05 78.46c18.72,0 32.69,-3.95 41.96,-11.9 9.26,-7.91 13.87,-17.27 13.87,-28.04 0,-10.86 -4.42,-20.08 -13.26,-27.7 -8.84,-7.57 -22.34,-11.38 -40.5,-11.38 -19.94,0 -34.62,3.85 -43.98,11.61 -9.36,7.72 -14.01,17.27 -14.01,28.6 0,11.06 4.46,20.27 13.45,27.71 8.98,7.38 23.14,11.1 42.47,11.1z"/>
  <path id="2" class="fil5" d="M1437.63 19227.27l-24.83 0 0 -76.76 24.83 0 0 76.76z"/>
  <path id="3" class="fil5" d="M1498.31 19123.41l-146.47 0 0 -22.29 20.69 0c-7.15,-4.56 -12.93,-10.68 -17.26,-18.3 -4.37,-7.62 -6.54,-16.27 -6.54,-26.01 0,-10.82 2.26,-19.71 6.73,-26.62 4.52,-6.92 10.77,-11.81 18.86,-14.63 -17.07,-11.67 -25.59,-26.77 -25.59,-45.39 0,-14.58 4,-25.83 12.04,-33.63 8.05,-7.86 20.42,-11.81 37.12,-11.81l100.42 0 0 24.84 -92.19 0c-9.88,0 -17.03,0.84 -21.4,2.44 -4.38,1.6 -7.86,4.52 -10.54,8.8 -2.68,4.23 -4,9.22 -4,14.91 0,10.35 3.44,18.91 10.26,25.73 6.86,6.82 17.82,10.2 32.87,10.2l85 0 0 24.84 -95.06 0c-11.01,0 -19.29,2.02 -24.79,6.07 -5.5,4.04 -8.28,10.67 -8.28,19.85 0,6.96 1.84,13.4 5.51,19.33 3.66,5.93 9.03,10.21 16.13,12.89 7.05,2.63 17.26,3.95 30.57,3.95l75.92 0 0 24.83z"/>
  <path id="4" class="fil5" d="M1479.97 18792.65c7.85,9.22 13.35,18.11 16.6,26.62 3.25,8.52 4.84,17.64 4.84,27.43 0,16.08 -3.9,28.45 -11.75,37.11 -7.81,8.65 -17.83,12.98 -30.01,12.98 -7.15,0 -13.69,-1.65 -19.62,-4.89 -5.93,-3.29 -10.63,-7.57 -14.2,-12.84 -3.58,-5.32 -6.31,-11.24 -8.14,-17.88 -1.27,-4.89 -2.49,-12.27 -3.72,-22.1 -2.35,-20.04 -5.22,-34.86 -8.51,-44.31 -3.39,-0.1 -5.55,-0.14 -6.44,-0.14 -10.07,0 -17.17,2.35 -21.31,7.05 -5.6,6.35 -8.37,15.81 -8.37,28.32 0,11.71 2.07,20.36 6.16,25.92 4.09,5.59 11.38,9.68 21.78,12.37l-3.39 24.27c-10.4,-2.21 -18.82,-5.84 -25.21,-10.92 -6.4,-5.08 -11.29,-12.41 -14.77,-22.01 -3.44,-9.55 -5.18,-20.7 -5.18,-33.3 0,-12.51 1.46,-22.72 4.42,-30.57 2.97,-7.81 6.64,-13.6 11.11,-17.27 4.46,-3.67 10.11,-6.25 16.93,-7.76 4.23,-0.8 11.85,-1.22 22.81,-1.22l32.93 0c23,0 37.53,-0.52 43.69,-1.55 6.17,-0.99 12.05,-3.06 17.69,-6.07l0 25.96c-5.22,2.5 -11.34,4.1 -18.34,4.8zm-55.04 1.98c3.67,9.03 6.78,22.57 9.32,40.64 1.45,10.25 3.1,17.49 4.93,21.73 1.84,4.23 4.52,7.48 8,9.78 3.53,2.31 7.43,3.48 11.76,3.48 6.54,0 12.04,-2.49 16.42,-7.52 4.37,-5.04 6.58,-12.38 6.58,-22.02 0,-9.55 -2.07,-18.06 -6.25,-25.54 -4.14,-7.43 -9.84,-12.93 -17.03,-16.41 -5.6,-2.69 -13.83,-4 -24.7,-4l-9.03 -0.14z"/>
  <path id="5" class="fil5" d="M1554.47 18731.36l-202.63 0 0 -22.57 19.24 0c-7.44,-5.32 -13.03,-11.34 -16.75,-18.07 -3.72,-6.68 -5.6,-14.81 -5.6,-24.36 0,-12.51 3.2,-23.52 9.65,-33.07 6.39,-9.55 15.47,-16.74 27.14,-21.63 11.71,-4.85 24.5,-7.3 38.47,-7.3 14.91,0 28.37,2.69 40.36,8.05 11.95,5.36 21.12,13.17 27.52,23.42 6.35,10.21 9.54,20.98 9.54,32.27 0,8.28 -1.74,15.71 -5.22,22.25 -3.48,6.58 -7.85,11.94 -13.17,16.18l71.45 0 0 24.83zm-128.5 -22.57c18.77,0 32.69,-3.81 41.67,-11.39 8.99,-7.62 13.45,-16.84 13.45,-27.65 0,-11.01 -4.65,-20.42 -13.97,-28.23 -9.31,-7.85 -23.7,-11.76 -43.22,-11.76 -18.63,0 -32.55,3.81 -41.82,11.48 -9.26,7.67 -13.87,16.79 -13.87,27.42 0,10.54 4.94,19.85 14.77,27.94 9.87,8.14 24.17,12.19 42.99,12.19z"/>
  <path id="6" class="fil5" d="M1454.57 18584.28l-3.96 -24.55c9.84,-1.37 17.36,-5.22 22.63,-11.53 5.22,-6.3 7.85,-15.14 7.85,-26.43 0,-11.43 -2.3,-19.9 -6.96,-25.45 -4.61,-5.5 -10.06,-8.28 -16.32,-8.28 -5.6,0 -10.02,2.5 -13.22,7.44 -2.21,3.48 -4.98,11.94 -8.42,25.4 -4.56,18.15 -8.51,30.71 -11.85,37.77 -3.39,7 -7.99,12.32 -13.92,15.94 -5.88,3.62 -12.42,5.46 -19.57,5.46 -6.54,0 -12.56,-1.51 -18.11,-4.47 -5.55,-3.01 -10.16,-7.06 -13.83,-12.18 -2.82,-3.86 -5.22,-9.13 -7.19,-15.76 -1.98,-6.68 -2.97,-13.78 -2.97,-21.4 0,-11.48 1.65,-21.54 4.99,-30.2 3.29,-8.7 7.81,-15.1 13.45,-19.24 5.69,-4.09 13.27,-6.96 22.77,-8.51l3.38 24.27c-7.62,1.08 -13.59,4.28 -17.87,9.55 -4.28,5.27 -6.4,12.7 -6.4,22.34 0,11.34 1.88,19.47 5.65,24.32 3.76,4.84 8.18,7.29 13.21,7.29 3.2,0 6.12,-0.99 8.71,-3.01 2.63,-2.02 4.84,-5.18 6.58,-9.5 0.94,-2.5 3.06,-9.74 6.35,-21.87 4.66,-17.5 8.52,-29.73 11.48,-36.69 2.96,-6.96 7.34,-12.42 12.98,-16.37 5.69,-4 12.75,-5.98 21.21,-5.98 8.24,0 16,2.4 23.29,7.25 7.29,4.84 12.93,11.8 16.93,20.88 4,9.13 5.97,19.43 5.97,30.91 0,19 -3.95,33.53 -11.8,43.5 -7.9,9.98 -19.57,16.33 -35.04,19.1z"/>
  <path id="7" class="fil5" d="M1498.31 18426.24l-28.22 0 0 -28.22 28.22 0 0 28.22z"/>
  <path id="8" class="fil5" d="M1444.69 18259.21l3.38 -24.27c16.7,2.68 29.73,9.45 39.19,20.41 9.45,10.96 14.15,24.46 14.15,40.41 0,19.99 -6.53,36.08 -19.61,48.21 -13.08,12.18 -31.8,18.25 -56.16,18.25 -15.81,0 -29.59,-2.63 -41.39,-7.85 -11.86,-5.22 -20.75,-13.17 -26.63,-23.9 -5.92,-10.68 -8.89,-22.29 -8.89,-34.9 0,-15.85 4,-28.88 12.04,-38.95 8.05,-10.11 19.48,-16.6 34.25,-19.42l3.67 23.99c-9.83,2.3 -17.22,6.35 -22.2,12.23 -4.94,5.83 -7.44,12.88 -7.44,21.16 0,12.51 4.47,22.67 13.41,30.53 8.98,7.81 23.09,11.71 42.47,11.71 19.66,0 33.92,-3.76 42.81,-11.29 8.89,-7.57 13.35,-17.4 13.35,-29.49 0,-9.78 -2.96,-17.92 -8.93,-24.41 -5.93,-6.54 -15.1,-10.68 -27.47,-12.42z"/>
  <path id="9" class="fil5" d="M1425.07 18223.09c-27.04,0 -47.08,-7.53 -60.11,-22.63 -10.82,-12.56 -16.23,-27.94 -16.23,-46.05 0,-20.08 6.59,-36.54 19.76,-49.34 13.12,-12.75 31.33,-19.14 54.51,-19.14 18.82,0 33.59,2.82 44.36,8.46 10.77,5.65 19.14,13.88 25.12,24.7 5.97,10.77 8.93,22.58 8.93,35.32 0,20.51 -6.53,37.07 -19.66,49.72 -13.12,12.65 -32.03,18.96 -56.68,18.96zm0.05 -25.4c18.72,0 32.74,-4.1 42,-12.28 9.32,-8.23 13.97,-18.53 13.97,-31 0,-12.32 -4.65,-22.57 -14.01,-30.81 -9.36,-8.18 -23.61,-12.27 -42.76,-12.27 -18.06,0 -31.75,4.14 -41.01,12.37 -9.32,8.23 -13.97,18.48 -13.97,30.71 0,12.47 4.61,22.77 13.87,31 9.27,8.18 23.24,12.28 41.91,12.28z"/>
  <path id="10" class="fil5" d="M1498.31 18056.81l-146.47 0 0 -22.29 20.69 0c-7.15,-4.56 -12.93,-10.68 -17.26,-18.3 -4.37,-7.62 -6.54,-16.27 -6.54,-26.01 0,-10.82 2.26,-19.71 6.73,-26.62 4.52,-6.92 10.77,-11.81 18.86,-14.63 -17.07,-11.67 -25.59,-26.77 -25.59,-45.39 0,-14.58 4,-25.83 12.04,-33.63 8.05,-7.86 20.42,-11.81 37.12,-11.81l100.42 0 0 24.84 -92.19 0c-9.88,0 -17.03,0.84 -21.4,2.44 -4.38,1.6 -7.86,4.52 -10.54,8.8 -2.68,4.23 -4,9.22 -4,14.91 0,10.35 3.44,18.91 10.26,25.73 6.86,6.82 17.82,10.2 32.87,10.2l85 0 0 24.84 -95.06 0c-11.01,0 -19.29,2.02 -24.79,6.07 -5.5,4.04 -8.28,10.67 -8.28,19.85 0,6.96 1.84,13.4 5.51,19.33 3.66,5.93 9.03,10.21 16.13,12.89 7.05,2.63 17.26,3.95 30.57,3.95l75.92 0 0 24.83z"/>
  <g id="_2414787693600">
   <g>
    <path class="fil6 str4" d="M1819.06 18686l526.61 0 0 99.16 -526.61 0 0 -99.16z"/>
    <path class="fil2 str4" d="M2345.67 18686l526.6 0 0 99.16 -526.6 0 0 -99.16z"/>
    <path class="fil6 str4" d="M2872.27 18686l526.61 0 0 99.16 -526.61 0 0 -99.16z"/>
    <path class="fil2 str4" d="M3399 18686l526.61 0 0 99.16 -526.61 0 0 -99.16z"/>
    <path class="fil6 str4" d="M2663.15 18984.94l842.26 0 0 99.16 -842.26 0 0 -99.16z"/>
    <path class="fil2 str4" d="M1820.9 18984.94l842.26 0 0 99.16 -842.26 0 0 -99.16z"/>
   </g>
   <path class="fil7" d="M2504.98 18462.86l-16.34 45.39 -137.82 0 0 -6.47c40.57,-36.98 69.08,-67.14 85.61,-90.54 16.52,-23.41 24.81,-44.81 24.81,-64.21 0,-14.82 -4.53,-26.99 -13.64,-36.51 -9.06,-9.53 -19.88,-14.29 -32.52,-14.29 -11.52,0 -21.81,3.29 -30.92,9.94 -9.18,6.64 -15.88,16.4 -20.29,29.22l-6.35 0c2.88,-21.11 10.29,-37.34 22.17,-48.69 11.87,-11.28 26.75,-16.93 44.62,-16.93 18.94,0 34.81,6.12 47.51,18.29 12.7,12.17 19.05,26.51 19.05,43.09 0,11.82 -2.76,23.7 -8.29,35.52 -8.47,18.58 -22.28,38.27 -41.33,59.09 -28.64,31.16 -46.28,49.86 -53.04,56.03l60.39 0c12.29,0 20.93,-0.47 25.87,-1.35 4.94,-0.94 9.41,-2.82 13.4,-5.65 4,-2.76 7.47,-6.76 10.41,-11.93l6.7 0z"/>
   <path id="1" class="fil7" d="M2532.5 18392.66c0,-26.64 4,-49.51 12.05,-68.74 8.06,-19.22 18.7,-33.57 32.05,-42.98 10.29,-7.47 20.99,-11.17 31.98,-11.17 17.94,0 33.99,9.11 48.22,27.34 17.81,22.64 26.69,53.27 26.69,91.96 0,27.05 -3.88,50.09 -11.7,69.03 -7.82,18.93 -17.76,32.63 -29.87,41.21 -12.11,8.53 -23.81,12.82 -35.04,12.82 -22.29,0 -40.81,-13.11 -55.62,-39.39 -12.53,-22.17 -18.76,-48.86 -18.76,-80.08zm33.87 4.23c0,32.1 3.94,58.33 11.82,78.67 6.52,17.11 16.28,25.63 29.22,25.63 6.17,0 12.58,-2.76 19.22,-8.34 6.65,-5.59 11.65,-14.88 15.11,-27.99 5.24,-19.7 7.88,-47.57 7.88,-83.43 0,-26.64 -2.76,-48.86 -8.23,-66.62 -4.11,-13.23 -9.46,-22.58 -15.99,-28.05 -4.65,-3.82 -10.35,-5.7 -16.99,-5.7 -7.76,0 -14.7,3.53 -20.76,10.52 -8.23,9.53 -13.87,24.46 -16.81,44.92 -3,20.41 -4.47,40.52 -4.47,60.39z"/>
   <path id="2" class="fil7" d="M2708.89 18392.66c0,-26.64 4,-49.51 12.05,-68.74 8.06,-19.22 18.7,-33.57 32.05,-42.98 10.29,-7.47 20.99,-11.17 31.98,-11.17 17.94,0 33.99,9.11 48.22,27.34 17.81,22.64 26.69,53.27 26.69,91.96 0,27.05 -3.88,50.09 -11.7,69.03 -7.82,18.93 -17.76,32.63 -29.87,41.21 -12.11,8.53 -23.81,12.82 -35.04,12.82 -22.29,0 -40.81,-13.11 -55.62,-39.39 -12.53,-22.17 -18.76,-48.86 -18.76,-80.08zm33.87 4.23c0,32.1 3.94,58.33 11.82,78.67 6.52,17.11 16.28,25.63 29.22,25.63 6.17,0 12.58,-2.76 19.22,-8.34 6.65,-5.59 11.65,-14.88 15.11,-27.99 5.24,-19.7 7.88,-47.57 7.88,-83.43 0,-26.64 -2.76,-48.86 -8.23,-66.62 -4.11,-13.23 -9.46,-22.58 -15.99,-28.05 -4.65,-3.82 -10.35,-5.7 -16.99,-5.7 -7.76,0 -14.7,3.53 -20.76,10.52 -8.23,9.53 -13.87,24.46 -16.81,44.92 -3,20.41 -4.47,40.52 -4.47,60.39z"/>
   <path id="3" class="fil7" d="M3018.64 18263.07l0 157.16 39.98 -36.63c8.52,-7.82 13.46,-12.76 14.81,-14.82 0.95,-1.41 1.42,-2.76 1.42,-4.17 0,-2.29 -1,-4.23 -2.89,-5.94 -1.88,-1.65 -4.99,-2.59 -9.4,-2.82l0 -5.65 68.61 0 0 5.65c-9.35,0.23 -17.17,1.7 -23.4,4.35 -6.23,2.7 -13.05,7.47 -20.52,14.29l-40.63 37.22 40.34 51.33c11.29,14.05 18.81,23.04 22.58,26.98 5.58,5.24 10.4,8.65 14.58,10.17 2.94,1.12 7.99,1.71 15.17,1.71l0 6.35 -76.73 0 0 -6.35c4.41,-0.12 7.35,-0.76 8.88,-1.94 1.58,-1.24 2.35,-2.88 2.35,-5.06 0,-2.64 -2.3,-6.88 -6.88,-12.7l-48.27 -61.79 0 52.21c0,10.23 0.7,16.93 2.11,20.17 1.47,3.17 3.47,5.46 6.12,6.88 2.64,1.35 8.35,2.11 17.17,2.23l0 6.35 -80.08 0 0 -6.35c7.99,0 14.05,-1 18.05,-2.94 2.41,-1.23 4.23,-3.17 5.46,-5.76 1.71,-3.76 2.59,-10.29 2.59,-19.52l0 -143.94c0,-18.05 -0.41,-29.1 -1.18,-33.16 -0.82,-4.05 -2.11,-6.82 -3.99,-8.35 -1.83,-1.58 -4.24,-2.35 -7.18,-2.35 -2.41,0 -6.05,1 -10.82,2.94l-2.93 -6.35 46.74 -19.4 7.94 0z"/>
   <path id="4" class="fil7" d="M3195.38 18379.37c11.41,-11.53 18.17,-18.17 20.22,-19.93 5.12,-4.36 10.65,-7.77 16.59,-10.18 5.93,-2.41 11.81,-3.64 17.63,-3.64 9.88,0 18.29,2.88 25.4,8.64 7.06,5.76 11.82,14.11 14.17,25.11 11.88,-13.88 21.88,-22.93 30.05,-27.28 8.17,-4.3 16.58,-6.47 25.22,-6.47 8.35,0 15.82,2.17 22.35,6.47 6.46,4.29 11.64,11.34 15.4,21.16 2.53,6.65 3.82,17.11 3.82,31.4l0 67.97c0,9.82 0.71,16.58 2.18,20.23 1.12,2.46 3.23,4.64 6.23,6.4 3.06,1.77 8,2.65 14.88,2.65l0 6.35 -77.26 0 0 -6.35 3.29 0c6.7,0 11.99,-1.29 15.76,-3.94 2.64,-1.82 4.52,-4.76 5.64,-8.76 0.47,-1.94 0.71,-7.47 0.71,-16.58l0 -67.91c0,-12.88 -1.53,-21.93 -4.65,-27.22 -4.52,-7.35 -11.7,-11.06 -21.63,-11.06 -6.06,0 -12.23,1.53 -18.41,4.59 -6.11,3 -13.58,8.7 -22.34,16.93l-0.35 1.94 0.7 7.41 0 75.32c0,10.7 0.59,17.4 1.77,20.05 1.23,2.59 3.46,4.82 6.76,6.58 3.29,1.77 8.93,2.65 16.87,2.65l0 6.35 -79.37 0 0 -6.35c8.64,0 14.58,-1 17.81,-3.06 3.24,-2.06 5.47,-5.17 6.7,-9.29 0.59,-1.94 0.89,-7.58 0.89,-16.93l0 -67.91c0,-12.88 -1.88,-22.17 -5.65,-27.87 -5.05,-7.41 -12.05,-11.11 -21.11,-11.11 -6.17,0 -12.28,1.7 -18.34,5.05 -9.47,5.06 -16.82,10.82 -21.93,17.17l0 84.67c0,10.29 0.7,16.93 2.12,20.05 1.41,3.06 3.52,5.35 6.35,6.94 2.76,1.53 8.4,2.29 16.93,2.29l0 6.35 -77.97 0 0 -6.35c7.24,0 12.29,-0.76 15.17,-2.29 2.89,-1.59 5.06,-4 6.59,-7.41 1.47,-3.35 2.23,-9.88 2.23,-19.58l0 -60.33c0,-17.28 -0.53,-28.45 -1.53,-33.51 -0.82,-3.82 -2.05,-6.41 -3.82,-7.82 -1.7,-1.47 -4.05,-2.18 -6.99,-2.18 -3.24,0 -7.06,0.89 -11.53,2.59l-2.58 -6.35 47.62 -19.4 7.41 0 0 33.75z"/>
   <path class="fil7" d="M2227.72 19267.08l57.09 -27.52 5.71 0 0 197.2c0,13.12 0.53,21.35 1.64,24.58 1.12,3.18 3.36,5.71 6.82,7.41 3.47,1.71 10.53,2.7 21.17,2.94l0 6.35 -88.19 0 0 -6.35c11.05,-0.24 18.16,-1.18 21.34,-2.88 3.23,-1.65 5.47,-3.88 6.76,-6.7 1.24,-2.83 1.88,-11.29 1.88,-25.35l0 -126.29c0,-16.99 -0.59,-27.93 -1.7,-32.75 -0.83,-3.7 -2.3,-6.41 -4.41,-8.11 -2.18,-1.71 -4.71,-2.59 -7.71,-2.59 -4.29,0 -10.23,1.76 -17.81,5.35l-2.59 -5.29z"/>
   <path id="1" class="fil7" d="M2862.38 19349.16c11.41,-11.53 18.17,-18.17 20.22,-19.93 5.12,-4.36 10.65,-7.77 16.59,-10.18 5.93,-2.41 11.81,-3.64 17.63,-3.64 9.88,0 18.29,2.88 25.4,8.64 7.06,5.76 11.82,14.11 14.17,25.11 11.88,-13.88 21.88,-22.93 30.05,-27.28 8.17,-4.3 16.58,-6.47 25.22,-6.47 8.35,0 15.82,2.17 22.35,6.47 6.46,4.29 11.64,11.34 15.4,21.16 2.53,6.65 3.82,17.11 3.82,31.4l0 67.97c0,9.82 0.71,16.58 2.18,20.23 1.12,2.46 3.23,4.64 6.23,6.4 3.06,1.77 8,2.65 14.88,2.65l0 6.35 -77.26 0 0 -6.35 3.29 0c6.7,0 11.99,-1.29 15.76,-3.94 2.64,-1.82 4.52,-4.76 5.64,-8.76 0.47,-1.94 0.71,-7.47 0.71,-16.58l0 -67.91c0,-12.88 -1.53,-21.93 -4.65,-27.22 -4.52,-7.35 -11.7,-11.06 -21.63,-11.06 -6.06,0 -12.23,1.53 -18.41,4.59 -6.11,3 -13.58,8.7 -22.34,16.93l-0.35 1.94 0.7 7.41 0 75.32c0,10.7 0.59,17.4 1.77,20.05 1.23,2.59 3.46,4.82 6.76,6.58 3.29,1.77 8.93,2.65 16.87,2.65l0 6.35 -79.37 0 0 -6.35c8.64,0 14.58,-1 17.81,-3.06 3.24,-2.06 5.47,-5.17 6.7,-9.29 0.59,-1.94 0.89,-7.58 0.89,-16.93l0 -67.91c0,-12.88 -1.88,-22.17 -5.65,-27.87 -5.05,-7.41 -12.05,-11.11 -21.11,-11.11 -6.17,0 -12.28,1.7 -18.34,5.05 -9.47,5.06 -16.82,10.82 -21.93,17.17l0 84.67c0,10.29 0.7,16.93 2.12,20.05 1.41,3.06 3.52,5.35 6.35,6.94 2.76,1.53 8.4,2.29 16.93,2.29l0 6.35 -77.97 0 0 -6.35c7.24,0 12.29,-0.76 15.17,-2.29 2.89,-1.59 5.06,-4 6.59,-7.41 1.47,-3.35 2.23,-9.88 2.23,-19.58l0 -60.33c0,-17.28 -0.53,-28.45 -1.53,-33.51 -0.82,-3.82 -2.05,-6.41 -3.82,-7.82 -1.7,-1.47 -4.05,-2.18 -6.99,-2.18 -3.24,0 -7.06,0.89 -11.53,2.59l-2.58 -6.35 47.62 -19.4 7.41 0 0 33.75z"/>
   <path id="2" class="fil7" d="M3130.02 19232.86c4.76,0 8.88,1.7 12.29,5.05 3.35,3.41 5.05,7.53 5.05,12.29 0,4.82 -1.7,9 -5.05,12.41 -3.41,3.47 -7.53,5.17 -12.29,5.17 -4.82,0 -9,-1.7 -12.41,-5.17 -3.47,-3.41 -5.17,-7.59 -5.17,-12.41 0,-4.76 1.7,-8.88 5.05,-12.29 3.41,-3.35 7.59,-5.05 12.53,-5.05zm14.17 82.55l0 127c0,9.82 0.7,16.34 2.17,19.58 1.41,3.29 3.53,5.7 6.35,7.29 2.82,1.59 8,2.41 15.47,2.41l0 6.35 -76.56 0 0 -6.35c7.65,0 12.82,-0.76 15.41,-2.23 2.64,-1.47 4.7,-3.94 6.29,-7.35 1.53,-3.41 2.29,-10 2.29,-19.7l0 -61.03c0,-16.99 -0.53,-27.99 -1.53,-33.05 -0.82,-3.64 -2.05,-6.17 -3.82,-7.58 -1.7,-1.47 -4.06,-2.18 -7,-2.18 -3.23,0 -7.11,0.89 -11.7,2.59l-2.41 -6.35 47.45 -19.4 7.59 0z"/>
   <path id="3" class="fil7" d="M2375.89 19362.45c0,-26.64 4,-49.51 12.05,-68.74 8.06,-19.22 18.7,-33.57 32.05,-42.98 10.29,-7.47 20.99,-11.17 31.98,-11.17 17.94,0 33.99,9.11 48.22,27.34 17.81,22.64 26.69,53.27 26.69,91.96 0,27.05 -3.88,50.09 -11.7,69.03 -7.82,18.93 -17.76,32.63 -29.87,41.21 -12.11,8.53 -23.81,12.82 -35.04,12.82 -22.29,0 -40.81,-13.11 -55.62,-39.39 -12.53,-22.17 -18.76,-48.86 -18.76,-80.08zm33.87 4.23c0,32.1 3.94,58.33 11.82,78.67 6.52,17.11 16.28,25.63 29.22,25.63 6.17,0 12.58,-2.76 19.22,-8.34 6.65,-5.59 11.65,-14.88 15.11,-27.99 5.24,-19.7 7.88,-47.57 7.88,-83.43 0,-26.64 -2.76,-48.86 -8.23,-66.62 -4.11,-13.23 -9.46,-22.58 -15.99,-28.05 -4.65,-3.82 -10.35,-5.7 -16.99,-5.7 -7.76,0 -14.7,3.53 -20.76,10.52 -8.23,9.53 -13.87,24.46 -16.81,44.92 -3,20.41 -4.47,40.52 -4.47,60.39z"/>
   <path id="4" class="fil7" d="M2552.28 19362.45c0,-26.64 4,-49.51 12.05,-68.74 8.06,-19.22 18.7,-33.57 32.05,-42.98 10.29,-7.47 20.99,-11.17 31.98,-11.17 17.94,0 33.99,9.11 48.22,27.34 17.81,22.64 26.69,53.27 26.69,91.96 0,27.05 -3.88,50.09 -11.7,69.03 -7.82,18.93 -17.76,32.63 -29.87,41.21 -12.11,8.53 -23.81,12.82 -35.04,12.82 -22.29,0 -40.81,-13.11 -55.62,-39.39 -12.53,-22.17 -18.76,-48.86 -18.76,-80.08zm33.87 4.23c0,32.1 3.94,58.33 11.82,78.67 6.52,17.11 16.28,25.63 29.22,25.63 6.17,0 12.58,-2.76 19.22,-8.34 6.65,-5.59 11.65,-14.88 15.11,-27.99 5.24,-19.7 7.88,-47.57 7.88,-83.43 0,-26.64 -2.76,-48.86 -8.23,-66.62 -4.11,-13.23 -9.46,-22.58 -15.99,-28.05 -4.65,-3.82 -10.35,-5.7 -16.99,-5.7 -7.76,0 -14.7,3.53 -20.76,10.52 -8.23,9.53 -13.87,24.46 -16.81,44.92 -3,20.41 -4.47,40.52 -4.47,60.39z"/>
  </g>
  <path class="fil3 str5" d="M1079.58 1111.88l26475.5 0 0 18793.07 -26475.5 0 0 -18793.07z"/>
  <g id="_2414787689408">
   <path class="fil4 str3" d="M4216.46 18078.19l815.93 0 0 1592.89 -815.93 0 0 -1592.89z"/>
   <path class="fil8" d="M4564.56 18514.32c-0.92,3.32 -1.63,6.35 -2.07,9.15 -0.44,2.79 -0.65,5.18 -0.65,7.22 0,5.59 1.8,9.56 5.29,11.89 3.49,2.33 9.55,3.49 18.05,3.49l4.15 0 -4.96 22.72 -78.17 0 5.29 -22.72 2.89 0c7.36,0 12.82,-1.51 16.48,-4.54 3.6,-2.97 6.32,-8.39 8.12,-16.14l37.59 -153.79c0.6,-2.74 1.14,-5.54 1.52,-8.45 0.33,-2.91 0.55,-5.77 0.55,-8.62 0,-5.36 -1.96,-9.15 -5.95,-11.36 -3.92,-2.22 -10.69,-3.32 -20.23,-3.32l-3.06 0 5.29 -22.72 72.33 0 62.14 183.5 31.31 -129.03c1.08,-4.2 1.85,-7.63 2.34,-10.31 0.49,-2.68 0.71,-4.72 0.71,-6.06 0,-5.6 -1.8,-9.56 -5.35,-11.89 -3.6,-2.33 -9.71,-3.49 -18.32,-3.49l-4.15 0 4.96 -22.72 78.5 0 -5.62 22.72 -2.84 0c-7.37,0 -12.87,1.51 -16.47,4.54 -3.66,2.97 -6.33,8.33 -8.18,15.96l-50.68 208.44 -21.54 0 -72.06 -209.48 -37.21 155.01z"/>
   <path class="fil9 str6" d="M4625.25 19537.88l0 -769.27"/>
   <path class="fil9 str6" d="M4343.2 19261.83l563.14 0"/>
   <path class="fil9 str6" d="M4480.35 19401.82l294.22 -286.81"/>
   <path class="fil9 str6" d="M4477.21 19114.77l297.98 288.85"/>
   <path class="fil9 str6" d="M4625.11 18771.34l-95.47 118.01"/>
   <path class="fil9 str6" d="M4625.73 18771.3l87.89 118.05"/>
  </g>
 </g>
</svg>
