<?xml version="1.0" encoding="UTF-8"?>
<!DOCTYPE svg PUBLIC "-//W3C//DTD SVG 1.1//EN" "http://www.w3.org/Graphics/SVG/1.1/DTD/svg11.dtd">
<!-- Creator: CorelDRAW -->
<svg xmlns="http://www.w3.org/2000/svg" xml:space="preserve" width="297mm" height="210mm" version="1.1" style="shape-rendering:geometricPrecision; text-rendering:geometricPrecision; image-rendering:optimizeQuality; fill-rule:evenodd; clip-rule:evenodd"
viewBox="0 0 29700 21000"
 xmlns:xlink="http://www.w3.org/1999/xlink">
 <defs>
  <style type="text/css">
   <![CDATA[
    .str1 {stroke:black;stroke-width:10;stroke-miterlimit:3.864;stroke-opacity:0.501961}
    .str3 {stroke:black;stroke-width:50;stroke-miterlimit:22.9256}
    .str2 {stroke:#3F3E3F;stroke-width:10;stroke-miterlimit:3.864}
    .str0 {stroke:black;stroke-width:10;stroke-miterlimit:22.9256}
    .str4 {stroke:black;stroke-width:7.62;stroke-miterlimit:22.9256}
    .fil9 {fill:none}
    .fil7 {fill:none;fill-rule:nonzero}
    .fil0 {fill:#A2D9F7}
    .fil2 {fill:#FEFEFE;fill-rule:nonzero}
    .fil1 {fill:#EBECEC;fill-rule:nonzero}
    .fil5 {fill:#D9DADA;fill-rule:nonzero}
    .fil8 {fill:#434242;fill-rule:nonzero}
    .fil6 {fill:#2B2A29;fill-rule:nonzero}
    .fil4 {fill:black;fill-rule:nonzero}
    .fil3 {fill:#FEFEFE;fill-rule:nonzero;fill-opacity:0.501961}
   ]]>
  </style>
 </defs>
 <g id="Plan_x0020_1">
  <metadata id="CorelCorpID_0Corel-Layer"/>
  <rect class="fil0" x="994.31" y="1014.65" width="27246.3" height="16388.01"/>
  <path class="fil1 str0" d="M23245.77 16162.01c-1.1,12.13 -4.41,18.73 -4.41,30.87 0,54.01 61.73,68.37 114.65,79.37 49.6,9.92 73.87,27.55 123.47,39.69 19.86,-49.6 39.69,-74.97 52.92,-127.88 -6.6,0 -9.92,-4.41 -16.55,-4.41 -37.46,0 -56.19,26.46 -93.69,26.46 -70.56,0 -105.84,-52.92 -176.39,-44.1zm-1331.74 -13740.7c80.47,0 101.42,-100.33 101.42,-180.79 0,-30.87 13.23,-48.51 13.23,-79.38 0,-78.28 -163.16,-40.78 -163.16,-119.06 0,-8.82 6.6,-14.32 8.82,-22.05 30.87,0 49.6,-4.41 80.47,-4.41 65.05,0 101.42,16.55 166.48,26.46l0 69.46c0,29.74 -39.69,27.55 -57.33,49.6 -22.05,26.46 -13.23,54.01 -13.23,88.2 0,37.46 13.23,59.51 13.23,97.01 0,97.01 -88.19,136.7 -88.19,233.71 0,49.6 35.27,70.56 57.32,114.66 47.42,95.92 88.2,156.56 88.2,264.58 0,49.6 -47.42,83.79 -97.02,83.79 -67.24,0 -71.65,-82.7 -92.6,-145.53 -34.19,-103.61 -7.73,-197.34 -92.61,-264.58 -85.84,77.84 -123.47,594 -123.47,338.46 0,-52.92 -40.78,-73.88 -61.73,-122.38 -27.56,-65.05 -30.87,-109.15 -30.87,-180.8 0,-76.06 16.54,-171.98 92.6,-171.98 44.1,0 66.15,19.86 105.84,39.69 2.18,-17.64 4.41,-27.55 4.41,-45.19 0,-30.87 -13.23,-46.32 -13.23,-77.19 0,-7.73 4.41,-11.01 4.41,-18.73l17.64 -4.41c28.64,16.54 46.28,30.86 79.37,30.86zm-1322.92 1935.87c23.15,46.32 30.87,73.87 30.87,123.47 0,81.6 -13.23,142.21 35.28,207.26 39.69,52.92 92.6,61.74 158.75,61.74 41.91,0 63.96,-9.92 105.83,-17.64l0 71.65c0,113.31 99.26,152.46 -30.87,100.33l-5.5 17.64 1.09 70.55c18.74,-1.09 28.69,-4.41 47.42,-4.41 122.38,0 169.75,114.66 292.13,114.66 -15.41,38.59 -26.46,63.95 -26.46,105.83 0,72.78 44.1,104.74 57.33,176.39 14.32,79.37 14.32,126.79 39.69,202.84 38.59,116.88 27.55,218.3 127.88,291.05 24.27,37.5 57.33,56.23 74.97,97.01 -207.26,0 -337.33,24.27 -515.94,127.88 -70.56,40.78 -94.79,114.66 -176.39,114.66 -66.15,0 -81.56,-66.15 -141.11,-92.61 -104.74,-47.41 -165.38,-77.15 -246.95,-158.75 -51.82,-51.82 -65.05,-101.42 -127.88,-136.7 -55.14,-30.87 -98.11,-19.83 -158.75,-39.69 -33.09,-11 -45.19,-39.69 -80.47,-39.69 -46.32,0 -71.68,2.23 -117.97,1.1 -132.29,-101.43 -163.16,-213.86 -202.84,-375.92 -9.92,-41.88 -8.82,-69.46 -30.87,-105.84 -7.73,-13.22 -30.87,-14.32 -30.87,-30.86 0,-37.47 0,-62.83 -13.23,-97.02 7.73,-1.09 9.92,-8.82 17.64,-8.82 7.73,0 9.91,8.82 17.64,8.82 58.42,0 39.69,-87.1 39.69,-145.52 0,-46.28 -22.05,-71.65 -22.05,-117.97l0 -112.43c0,-91.51 -25.37,-142.2 -57.33,-228.21 -57.32,-153.25 -83.78,-266.8 -220.48,-357.19 -164.26,-54.01 -223.81,-146.61 -370.42,-238.12 -55.14,-34.19 -94.83,-48.51 -132.29,-101.42 -27.55,-38.6 -3.32,-81.6 -26.46,-123.48 -20.96,-37.5 -62.83,-30.87 -105.83,-30.87l0 -137.79c0,-72.78 -17.64,-114.65 -17.64,-187.43 0,-11.01 3.31,-16.55 4.41,-27.55l-17.64 8.82c-17.64,29.77 -31.96,45.19 -57.33,70.55l-17.64 -8.82c-12.13,-98.11 -2.22,-164.25 -52.91,-246.94 -50.73,-82.69 -112.47,-104.74 -194.03,-158.75 48.51,-83.79 74.96,-141.11 74.96,-238.13l-26.45 -183.02c3.31,-11 7.72,-18.73 13.22,-28.64 17.64,8.82 25.37,17.64 44.1,17.64 48.51,0 70.56,-28.69 114.65,-48.51 35.28,-15.45 74.97,-25.37 74.97,-63.96 0,-34.15 -31.96,-47.38 -61.74,-63.92 46.29,-15.46 59.52,-47.42 101.43,-70.56 29.77,-16.54 57.32,-22.05 70.55,-52.92 -19.14,-7.91 -225.58,-83.78 -124.56,-83.78 17.64,0 27.55,13.23 45.19,13.23 225.99,0 374.82,-36.37 555.62,-171.98 124.57,9.91 175.3,110.24 299.86,110.24 33.06,0 15.42,-70.55 48.51,-70.55 47.41,0 68.33,35.27 115.75,35.27l100.33 0c4.41,30.87 0,49.61 0,80.47 0,86.01 92.6,115.75 92.6,201.76 0,79.37 -26.46,123.47 -26.46,202.84 0,38.6 52.92,28.65 88.2,44.1 47.41,20.96 67.24,56.23 92.6,101.42 -6.63,0 -9.91,4.41 -16.54,4.41 -37.47,0 -54.01,-24.27 -89.29,-35.27 -63.96,-20.96 -108.06,-8.82 -176.39,-8.82 -109.15,0 -229.31,54.01 -229.31,163.16 0,61.73 101.43,61.73 101.43,123.47 0,26.46 -35.28,30.87 -61.74,30.87 -72.78,0 -135.61,-12.14 -171.98,-74.97 -19.86,49.6 -61.73,69.46 -61.73,123.47 0,23.15 26.45,25.37 44.09,39.69 40.78,33.06 71.65,45.19 119.07,66.15 40.78,17.64 54.01,48.5 74.96,88.19 26.46,50.7 82.69,41.88 141.11,48.51 0,73.87 -11.04,135.61 44.1,185.21 71.65,63.92 180.8,6.59 229.31,88.19 13.22,23.14 0,43.01 0,70.56 61.73,0 90.38,44.09 152.11,44.09 41.91,0 63.96,-14.32 105.84,-17.63l0 62.83c0,171.97 56.23,263.49 125.69,422.24 36.37,83.78 94.79,115.74 123.47,202.84zm-5053.54 2323.93c-56.23,0 -84.88,-26.46 -141.11,-26.46 -48.51,0 -55.14,56.23 -97.01,79.37 -71.65,39.69 -119.07,93.7 -119.07,176.39 0,47.42 59.52,46.32 105.84,57.33 29.77,6.63 39.69,39.69 70.55,39.69 46.29,0 59.52,-45.2 101.43,-61.74 25.36,-9.91 44.09,0 70.55,-4.41 72.78,-13.23 80.47,-89.29 114.66,-154.34 44.09,-81.56 88.19,-121.29 123.47,-207.26 -90.38,-37.5 -131.2,101.43 -229.31,101.43zm-2866.32 -88.2c-33.09,11.04 -52.91,19.86 -88.19,22.05 -26.46,2.22 -66.15,-8.82 -66.15,17.64 0,99.24 127.88,97.01 224.9,119.06 61.73,13.23 111.33,2.22 158.75,44.1 26.46,23.14 12.13,79.37 48.5,79.37 78.29,0 115.75,-57.32 194.03,-57.32 47.42,0 71.65,17.64 119.06,17.64 47.42,0 78.29,-18.74 105.84,-57.33 -89.29,-44.1 -148.84,-66.15 -248.04,-66.15l-86.01 0c-73.83,0 -103.61,-70.55 -177.48,-70.55 -38.59,0 -49.6,48.51 -88.19,48.51 -48.51,0 -79.38,-52.92 -97.02,-97.02zm-2861.91 -970.14l-88.19 -13.23c-97.02,31.97 -154.34,48.51 -255.77,48.51 -60.64,0 -67.24,-88.19 -127.88,-88.19 -37.5,0 -51.82,33.05 -88.19,39.68 -48.51,9.92 -119.06,-1.09 -119.06,48.51 0,25.37 17.63,36.37 17.63,61.74 0,17.64 -8.82,26.46 -8.82,44.09 0,50.73 65.06,50.73 101.43,83.79 89.29,82.69 167.57,93.7 282.22,136.7 59.51,22.05 105.83,9.91 158.75,44.1 81.56,52.91 87.1,171.98 185.21,171.98 49.6,0 83.78,-47.42 83.78,-97.02 0,-97.01 -39.68,-149.93 -39.68,-246.94 0,-77.15 88.19,-100.33 88.19,-177.48l0 -87.11c-59.51,-47.41 -114.65,22.05 -189.62,30.87zm-1932.56 -1098.02l-104.74 0c30.87,61.74 74.97,89.29 74.97,157.66l0 90.38c0,29.77 -30.87,39.69 -30.87,69.46 0,84.88 22.05,132.29 35.28,216.08 17.64,109.15 18.73,186.3 88.19,273.4 68.37,-34.18 54.05,-103.61 66.15,-176.39l17.64 -4.41c63.96,31.96 106.96,40.78 178.61,48.51l0 -144.43c0,-55.1 22.05,-93.7 -2.22,-142.2 -16.51,-33.06 -66.15,-34.19 -66.15,-71.65l0 -382.55c-16.51,-28.68 -31.96,-55.14 -66.14,-57.33 -27.56,-1.09 -31.97,30.87 -52.92,48.51 -45.19,38.59 -77.15,74.96 -137.8,74.96zm155.44 -771.7c-15.45,62.83 -45.19,98.11 -97.01,136.7 -33.09,24.27 -88.19,19.86 -88.19,61.74 0,54.01 7.72,83.78 17.64,136.7 6.59,36.37 52.91,41.91 52.91,79.37 0,11.05 -8.82,15.46 -8.82,26.46 0,27.55 37.47,24.27 61.74,35.28 35.28,15.45 48.51,39.69 79.37,61.74 23.15,-47.42 35.28,-79.38 35.28,-132.3 0,-111.33 -12.13,-170.88 -39.69,-282.22l17.64 -97.01c-5.5,-13.23 -23.14,-13.23 -30.87,-26.46zm-1887.36 1305.28c33.09,36.37 69.47,48.51 119.07,48.51 57.32,0 106.92,-26.46 123.47,-81.6 -27.55,0 -43.01,-2.19 -70.56,0l-4.41 -19.83 8.82 -35.28c-60.64,-45.19 -128.97,28.65 -176.39,88.2zm16332.86 12344.33c10.26,-30.98 31.6,-52 31.6,-88.62l0 -147.71c0,-60.64 74.97,-60.64 132.3,-82.69l-17.64 -4.41c-17.64,-4.41 -39.69,-7.72 -39.69,-26.46 0,-78.28 30.87,-120.15 30.87,-198.43 0,-49.61 8.82,-94.8 -30.87,-123.48 -26.46,-18.73 -50.69,-5.5 -83.78,-8.82l0 -54.01c0,-76.06 22.04,-116.87 22.04,-192.93 0,-7.73 -7.69,-11.01 -8.82,-17.64 -61.73,13.23 -116.84,-20.95 -163.16,22.05 -31.96,29.77 -2.18,89.29 -44.09,105.83 -45.19,17.64 -81.56,-3.31 -127.88,13.23 -41.88,15.45 -38.56,79.38 -83.79,79.38 -42.97,0 -54.01,-52.92 -97.01,-52.92 -39.69,0 -5.51,70.56 -35.28,97.01 -33.06,28.68 -69.43,16.55 -110.24,30.87 -34.15,12.14 -29.74,66.15 -66.15,66.15 -44.1,0 -52.92,-57.33 -97.01,-57.33 -121.25,0 -180.8,74.97 -302.05,74.97 -51.82,0 -78.28,-30.87 -130.11,-30.87 -62.83,0 -92.6,44.1 -136.7,88.19 -49.6,49.6 -92.6,69.46 -123.47,132.29 -63.92,-15.41 -90.38,-66.14 -156.53,-66.14 -59.55,0 -93.7,17.64 -153.24,17.64 -12.14,0 -19.83,-2.19 -31.97,-4.41l0 92.6c-102.51,17.64 -155.43,48.51 -257.98,48.51 -106.93,0 -155.44,-66.15 -238.13,-136.7 -94.79,-80.47 -165.34,-103.61 -251.35,-189.62 -69.43,-69.46 -112.43,-141.11 -211.67,-141.11 -25.33,0 -40.78,5.5 -66.14,2.22 60.64,-109.15 144.42,-156.56 268.99,-176.39 -16.51,-129.01 -58.42,-197.34 -119.06,-310.9 -28.65,-54.01 -69.43,-74.97 -79.38,-136.7l-17.64 13.23c-7.69,19.86 -13.23,31.96 -17.64,52.91 -108.02,-108.02 -119.06,-207.25 -229.3,-317.5 -57.33,-33.05 -82.66,-67.24 -145.52,-88.19 -52.92,-17.64 -97.02,-16.55 -127.88,-61.74 -46.29,-67.24 -20.92,-140.01 -79.38,-198.43 -101.42,-101.43 -195.12,-110.25 -308.68,-198.44 -108.02,-83.79 -146.61,-156.53 -246.94,-246.95 -27.56,48.51 -24.24,88.2 -57.33,132.29 -83.79,-253.54 -166.44,-386.96 -202.85,-648.22 -13.23,-98.11 -51.79,-146.62 -79.37,-242.54 -48.51,-167.57 -87.07,-273.4 -216.08,-388.05 -68.33,-60.65 -103.61,-100.33 -176.39,-154.34 -49.6,-36.38 -97.01,-55.11 -114.65,-114.66 -29.74,-97.01 7.72,-168.66 -39.69,-260.17 -136.7,-259.08 -238.12,-415.61 -238.12,-705.56 0,-39.68 66.14,-39.68 66.14,-79.37 0,-114.65 -169.75,-124.57 -169.75,-239.22 0,-28.68 2.18,-45.19 2.18,-73.87 -82.65,-142.21 -194.02,-158.75 -308.68,-273.4 -49.6,-49.61 -114.65,-70.56 -114.65,-141.12l0 -54.01c0,-111.33 -114.65,-152.15 -114.65,-263.49 0,-44.09 50.73,-52.91 92.6,-66.14 -56.2,-84.88 -105.83,-119.06 -158.75,-207.26 -69.43,-116.84 -77.15,-199.53 -145.52,-317.5 -141.11,-241.44 -199.53,-382.55 -348.37,-621.77 -74.96,-120.16 -62.83,-210.57 -119.06,-339.55 -19.83,-47.41 -66.15,-54.01 -92.6,-97.01 -62.83,-101.43 -76.06,-173.07 -136.71,-277.81 -73.83,-125.66 -115.74,-241.45 -260.17,-264.59 0,-144.43 -57.33,-220.48 -57.33,-364.91 0,-7.69 4.41,-2.19 4.41,-9.91 20.96,37.5 49.64,45.19 79.38,74.96 62.86,62.83 23.18,138.92 66.14,216.08 33.1,59.55 99.24,55.14 136.71,110.24 44.09,63.96 33.09,117.97 74.96,185.21 72.78,117.97 154.34,154.34 277.81,216.08l0 -329.64c0,-128.98 38.6,-199.53 88.2,-318.59 -3.28,9.91 -8.82,15.45 -8.82,26.45 0,160.98 30.87,251.36 30.87,412.33 0,59.51 6.63,97.01 -13.23,152.12 16.54,-1.09 26.46,-4.41 43,-4.41 78.28,0 133.39,13.23 190.71,66.14 23.18,20.96 8.82,52.92 26.46,79.38 61.74,93.7 132.29,143.33 132.29,255.76 0,27.56 35.28,27.56 52.92,48.51 57.33,66.15 97.01,100.33 141.11,176.39 46.32,80.47 69.46,140.02 149.93,185.21 51.82,28.68 24.27,92.6 57.33,141.11 74.96,108.05 198.44,143.33 198.44,275.62 0,39.69 -26.46,59.52 -26.46,99.21 0,63.95 54.04,86 83.78,141.11 15.45,28.68 5.54,65.05 35.28,79.37 38.59,18.73 72.78,2.22 110.24,22.05 60.64,33.09 72.78,79.38 119.06,132.29 59.55,68.37 105.84,100.33 158.75,171.98 66.15,49.6 78.29,109.15 119.07,180.8 86,147.74 145.52,242.53 145.52,413.42l0 63.92c0,101.43 60.64,146.65 105.83,237.03 35.28,70.56 22.05,128.98 70.56,189.62 104.74,128.98 181.92,183.02 291.04,308.68 48.51,56.24 36.41,123.48 97.01,167.57 56.24,40.78 114.66,38.6 154.34,97.02 51.83,76.06 35.28,144.42 79.38,224.89 44.1,79.38 74.96,132.29 74.96,223.8l0 90.39c0,55.14 81.6,45.22 110.25,91.51 45.22,72.77 76.09,111.33 136.7,171.98 47.41,47.41 109.15,28.68 158.75,74.96 28.68,26.46 11.04,62.83 17.64,101.42 40.81,238.13 281.13,309.78 281.13,550.13 0,94.79 -3.32,153.24 -3.32,248.03 -11.01,66.15 -23.14,103.65 -52.92,163.16 115.78,57.33 90.42,183.03 132.29,304.28 50.73,147.74 101.43,231.52 101.43,388.05 0,72.78 34.18,112.47 74.96,171.98 41.91,60.64 16.55,131.2 74.97,176.39 49.63,38.59 95.92,26.46 158.75,26.46 40.81,0 60.64,-30.87 101.42,-30.87 40.82,0 65.05,13.23 105.84,13.23 72.77,0 112.46,-22.05 185.2,-22.05 16.55,-134.48 92.61,-260.17 227.12,-260.17 76.06,0 111.34,52.91 187.4,52.91 58.45,0 78.28,-55.1 132.29,-74.96 70.55,-26.46 136.7,0 189.62,-52.92 54.04,-54.01 37.5,-163.16 114.65,-163.16 49.64,0 73.87,35.28 123.47,35.28 40.82,0 57.33,-30.87 97.02,-44.1 38.59,-12.13 70.55,-2.19 97.01,-30.87 35.28,-38.59 13.23,-81.56 26.46,-132.29 23.18,-84.88 61.73,-145.52 145.52,-171.98 94.83,-29.77 156.56,-25.36 251.35,-52.91 119.07,-34.19 173.11,-103.61 295.45,-123.48 62.87,-9.91 111.38,27.56 163.16,-8.82 38.6,-27.55 16.55,-82.69 57.33,-105.83 54.05,-30.87 109.15,-2.19 154.34,-44.1 30.87,-28.64 16.55,-68.33 22.05,-110.24 20.95,-145.52 97.01,-227.08 220.49,-308.68 61.73,-40.78 92.6,-97.01 167.57,-97.01 34.18,0 54.04,13.23 88.19,13.23 71.68,0 59.55,-104.74 123.47,-136.71l35.28 8.82c61.74,-15.41 120.19,11.05 158.75,-39.68 46.32,-61.74 34.18,-117.97 70.56,-185.21 23.17,-43.01 37.5,-69.46 57.32,-114.66 11.04,-24.23 12.14,-57.32 39.69,-57.32 72.78,0 112.46,22.05 185.21,22.05 73.87,0 111.37,-52.92 132.29,-123.48 41.91,-111.33 8.82,-194.02 70.55,-295.45 30.87,-51.82 79.38,-56.23 136.71,-74.96 74.96,-24.24 111.37,-47.42 185.2,-83.79 -41.87,-52.91 -88.19,-82.69 -88.19,-151.02l0 -81.6c0,-87.06 -30.87,-134.48 -30.87,-221.58 0,-56.23 24.27,-85.97 24.27,-142.2l0 -100.33c44.1,28.68 55.11,83.78 108.02,83.78 74.97,0 84.92,-85.97 114.66,-154.34 41.91,-97.01 70.55,-152.12 110.24,-251.35 59.55,-151.03 74.96,-248.04 74.96,-411.2l0 -91.51 -13.22 -52.92 -35.28 8.82c-48.51,-26.46 -56.2,-68.33 -92.61,-110.24 -33.05,-38.59 -65.01,-55.1 -83.78,-101.42 -22.05,-52.92 -3.28,-106.93 -48.51,-141.12 -33.05,-25.36 -68.33,-9.91 -110.24,-17.63 -109.12,-20.96 -169.76,-35.28 -273.4,-70.56 -97.02,-33.06 -163.16,-33.06 -255.77,-79.38 -101.42,-50.69 -131.16,-122.37 -211.66,-202.84 -83.79,-83.79 -149.94,-119.06 -202.85,-224.9 -12.1,-73.87 -30.87,-112.43 -30.87,-186.3l0 -113.56 48.51 -282.22 0 -61.74c-31.96,31.96 -74.97,15.45 -105.84,48.51 -48.5,51.82 -23.14,110.24 -57.32,171.98 -81.56,145.52 -151.03,216.07 -229.31,361.6 -65.02,120.15 -47.38,214.98 -119.06,330.72 -34.15,56.24 -81.56,65.06 -136.7,101.43 -56.2,37.5 -91.48,70.55 -158.75,70.55 -34.15,0 -35.28,-43 -66.15,-57.32 -41.87,-18.73 -71.65,-26.46 -119.06,-26.46 -95.89,0 -137.8,74.96 -233.72,74.96 -85.97,0 -106.92,-84.87 -180.79,-127.88 -73.84,-43 -142.21,4.41 -216.08,-39.68 -62.83,-37.47 -36.37,-110.25 -79.38,-167.57 80.51,-13.23 136.71,-76.06 136.71,-156.53 0,-125.7 -23.15,-228.21 -127.89,-297.68 -37.46,-24.23 -38.55,-79.37 -83.78,-79.37 -38.56,0 -83.79,14.32 -83.79,52.92 0,47.41 30.87,69.46 30.87,116.87 0,117.93 -23.14,184.08 -35.28,302.05 -3.28,5.5 -6.59,11.04 -8.81,17.64 -98.11,-120.16 -167.57,-180.8 -220.49,-326.32 -20.92,-59.51 -20.92,-98.11 -48.51,-154.34 35.28,-26.46 74.97,-43 74.97,-88.2 0,-73.87 -101.43,-85.97 -101.43,-159.84l0 -87.1c-176.39,0 -273.4,-105.83 -379.23,-246.94 19.86,0 30.87,-2.19 50.73,-4.41 -1.1,-20.96 0,-31.97 0,-52.92 0,-24.24 -31.96,-20.96 -50.73,-35.28 -35.28,-28.64 -66.15,-51.82 -66.15,-97.01 0,-44.1 -42.97,-55.11 -66.14,-92.61 -46.29,-74.96 -74.97,-119.06 -132.3,-185.21 -72.74,-83.78 -74.96,-163.15 -154.34,-242.53 -62.83,-62.83 -146.61,-68.33 -167.57,-154.34 35.28,-14.32 65.06,-17.64 88.2,-48.51 -87.07,-43 -82.66,-130.07 -105.83,-224.89 50.73,25.36 84.91,35.27 141.11,35.27 99.23,0 184.11,-15.41 233.71,-101.42 35.28,35.28 72.78,44.1 123.47,44.1 62.87,0 100.33,-6.6 158.75,-35.28 210.58,281.13 295.46,464.12 529.17,732.01 47.41,55.14 52.92,105.84 66.15,176.39 15.45,87.1 111.37,90.42 194.02,123.48 105.84,41.91 184.12,31.96 277.82,97.01 37.5,25.36 18.76,72.78 44.09,110.24 41.91,60.65 120.2,31.96 171.98,83.79 121.29,121.28 223.81,163.16 392.47,202.84 72.78,16.55 111.37,48.51 185.21,48.51 86,0 101.42,-88.19 163.16,-149.93 69.46,-69.46 119.06,-105.83 211.66,-132.29 45.23,-12.14 67.28,-44.1 114.66,-44.1 104.74,0 135.6,109.15 171.98,207.26 56.23,152.15 98.14,267.9 242.53,339.55 226.02,112.46 360.5,169.79 612.95,211.66 99.24,0 156.56,28.69 255.77,22.05 13.22,-5.5 22.04,-13.23 37.5,-13.23 57.32,0 87.1,35.28 144.42,35.28l200.63 0c88.19,0 133.38,48.51 221.58,48.51 37.5,0 51.82,-30.87 88.19,-39.69 104.74,-25.36 170.89,-1.09 273.4,-30.87 55.14,-15.41 83.79,-52.91 142.24,-52.91l90.39 0c34.18,0 19.86,-70.56 54.01,-70.56 59.55,0 81.59,61.74 141.11,61.74 27.58,0 29.77,-39.69 57.32,-39.69 44.1,0 61.74,39.69 105.84,39.69 24.27,0 24.27,-39.69 48.5,-39.69 54.05,0 78.29,39.69 132.3,39.69 93.73,0 140.01,-57.33 233.71,-57.33 71.69,0 81.6,77.19 132.29,127.88 72.78,72.78 158.75,110.25 158.75,213.89 0,206.13 177.52,363.79 383.65,363.79 34.18,0 55.14,-5.51 88.19,-13.23 1.13,7.72 8.82,9.91 8.82,17.64 0,29.77 -15.41,45.19 -17.64,74.96 6.64,0 9.95,4.41 16.55,4.41 17.64,0 27.55,-8.82 45.19,-8.82 65.05,0 79.37,68.37 119.06,119.06 99.24,124.57 189.62,211.67 348.37,211.67 112.47,0 164.29,-66.15 273.4,-92.6 -49.6,100.33 -93.69,146.61 -163.16,233.71 -56.19,70.56 -207.25,15.45 -207.25,105.83 0,46.32 47.41,56.24 79.37,88.2 49.64,49.6 68.37,90.42 119.06,136.7 47.42,44.1 58.46,84.88 92.61,141.11 35.28,57.33 91.51,57.33 145.52,97.02 31.78,23.84 58.28,45.82 82.41,67.55l0.02 -11453.42 -22398.92 0c-29.56,51.5 -90.05,53.44 -142.23,93.55 -164.25,127.89 -255.76,264.59 -463.02,264.59 -52.91,0 -92.6,-45.19 -92.6,-98.11l0 -104.74c-57.33,14.36 -141.11,-2.19 -141.11,57.33 0,123.47 105.83,175.29 105.83,298.76l0 146.62c-95.88,0 -147.71,35.28 -243.63,35.28l-103.61 0c-83.78,0 -102.55,-105.84 -186.34,-105.84 -176.38,0 -238.12,151.06 -410.1,194.03 17.64,11.04 30.87,18.77 52.92,22.05 -8.82,14.36 -22.05,20.96 -39.69,22.05l-8.82 17.64c19.86,9.95 30.87,14.36 52.92,17.64 -19.19,14.43 -27.45,37.11 -35.28,57.32 32,13.23 55.14,28.68 66.14,61.74 27.59,-35.28 55.14,-61.74 101.43,-61.74 68.37,0 95.92,66.15 164.29,66.15l108.02 0c128.97,0 149.93,186.34 278.9,176.39 -2.18,7.72 -13.23,8.82 -13.23,17.64 0,55.14 45.23,72.77 66.15,123.47 28.68,70.55 12.14,124.6 44.1,194.03 20.95,46.32 76.09,38.59 105.83,79.37 52.92,71.69 81.6,112.47 110.24,198.44 -15.41,209.48 -41.87,324.13 -92.6,529.17 -42.97,175.29 -113.52,357.18 -293.23,357.18 -126.79,0 -189.62,-79.37 -316.41,-79.37l-90.38 0c-35.27,0 -54.04,-17.64 -89.32,-17.64 -73.84,0 -115.75,26.46 -189.62,26.46 -105.83,0 -154.34,-74.97 -260.17,-74.97 -22.05,0 -30.87,22.05 -52.92,22.05 -110.24,0 -182.98,-7.69 -282.22,-57.33 -28.65,28.69 -48.51,52.92 -88.2,52.92 -93.69,0 -139.98,-61.73 -233.71,-61.73 -42.97,0 -45.19,52.91 -61.74,92.6 -17.64,44.1 -57.32,67.27 -105.83,66.15 -93.7,-3.29 -139.98,52.91 -233.72,52.91 56.24,93.73 123.48,138.93 123.48,246.95 0,31.99 -26.46,47.41 -26.46,79.37 0,48.51 22.05,74.97 22.05,123.47 0,61.74 -22.05,95.92 -22.05,157.66l0 437.66 -26.46 167.57 0 129.01c0,111.33 0,180.79 -35.28,285.5 -25.33,73.87 -74.96,106.96 -74.96,185.21 0,45.22 26.46,69.46 26.46,114.65 0,120.19 -30.87,187.43 -30.87,307.59l0 54.01c41.91,6.63 65.05,13.23 106.96,13.23 84.88,0 133.38,4.41 218.26,4.41 78.28,0 114.66,-49.6 181.9,-88.2 59.54,109.15 219.39,6.63 304.27,97.02 18.76,20.95 4.41,44.09 4.41,72.77 0,49.6 30.86,74.97 30.86,124.57l0 89.29c83.79,11.04 101.43,87.1 167.57,136.7 20.96,-87.07 56.24,-176.39 145.52,-176.39 34.19,0 54.05,8.82 88.2,8.82 45.22,0 80.5,-5.5 110.24,-39.69 24.27,-28.64 27.59,-74.96 66.15,-74.96 67.27,0 101.42,39.68 168.7,39.68l94.79 0c63.96,0 95.92,-35.27 159.84,-35.27 25.37,0 27.59,29.77 44.1,48.5 20.95,-36.37 40.81,-74.96 83.78,-74.96 45.23,0 51.83,66.14 97.02,66.14 36.4,0 57.32,-38.55 57.32,-74.96 0,-33.06 -13.23,-50.7 -13.23,-83.79 0,-71.64 45.23,-112.43 105.84,-149.93 34.18,-20.92 25.36,-83.78 66.14,-83.78 17.64,0 26.46,8.82 44.1,8.82 106.96,0 95.92,-139.98 158.75,-224.9 66.15,-88.19 167.57,-119.06 167.57,-229.3 0,-76.06 -57.33,-111.34 -57.33,-187.4 0,-146.61 44.1,-231.53 114.66,-359.41 34.18,-62.83 80.5,-72.74 114.65,-141.11 44.1,-35.28 37.5,-82.66 61.74,-132.29 23.17,-46.29 78.28,-23.14 123.47,-48.51 70.55,-39.69 100.33,-84.88 176.39,-110.24 166.47,-55.11 308.68,-153.21 308.68,-328.51 0,-79.37 -39.69,-121.28 -39.69,-200.66 0,-73.83 -18.73,-141.11 39.69,-185.21 27.58,-20.92 57.32,-2.18 88.19,-17.64 131.2,-65.01 219.39,-92.6 366.01,-92.6 194.03,0 277.81,158.75 471.84,158.75 121.28,0 111.37,-182.99 229.3,-211.67 101.43,-25.33 159.88,-54.01 233.72,-127.88 52.92,-52.91 49.64,-145.52 123.47,-145.52 100.33,0 154.34,36.41 246.95,74.97 125.69,51.82 210.57,81.59 299.86,185.2 73.87,86.01 77.18,162.07 141.11,255.77 110.24,160.97 165.38,271.21 335.14,366.01 63.96,35.27 124.6,49.63 149.93,119.06 30.87,82.69 17.64,198.44 105.83,198.44 101.42,0 149.93,-66.15 251.36,-66.15 81.59,0 109.14,70.56 176.38,114.65 30.87,19.86 70.56,27.59 70.56,65.05 0,18.74 -4.41,29.78 -4.41,48.51l0 45.19 56.23 0c30.87,0 45.19,-22.05 76.06,-22.05 88.2,0 40.82,158.75 123.47,189.62 81.6,29.78 187.43,23.18 194.03,110.25 14.36,190.74 92.61,289.94 92.61,480.65 0,63.96 -48.51,93.74 -48.51,157.66l0 67.24c8.82,26.46 -4.41,52.92 -12.1,79.38 9.91,1.12 14.32,4.41 24.23,4.41 171.98,0 286.64,-180.8 265.68,-352.78 13.23,1.13 20.96,4.41 34.19,4.41 36.37,0 57.32,-8.82 93.69,-8.82 0,-7.69 4.41,-13.23 4.41,-20.92 0,-45.23 -44.09,-62.87 -44.09,-108.06l0 -179.7c-15.42,0 -23.15,4.41 -38.56,4.41 -52.92,0 -106.97,-30.87 -106.97,-83.79 0,-63.92 4.41,-99.2 1.13,-163.16 27.56,-44.09 34.15,-76.06 34.15,-127.88l25.37 0c67.24,0 97.01,43 159.84,66.15 62.87,23.17 120.19,16.54 158.75,70.55 36.41,50.73 41.91,97.02 94.83,132.29l0 -109.11c0,-26.46 15.41,-40.82 15.41,-67.28 0,-88.19 -92.6,-108.02 -167.57,-154.34 -102.51,-63.92 -135.57,-139.98 -246.94,-185.2 -153.21,-62.83 -235.9,-113.53 -401.28,-141.11 36.4,-36.38 61.73,-56.2 83.78,-101.43l-13.23 -17.64 -95.88 0c-25.37,0 -39.69,8.82 -65.06,8.82 -82.69,0 -123.47,-45.19 -196.25,-83.78 -90.38,-48.51 -182.98,-39.69 -229.3,-132.29 -48.51,-98.11 -52.92,-163.16 -79.38,-269 -29.74,-119.06 -80.47,-197.31 -189.62,-251.35 -154.34,-77.15 -335.13,-117.94 -335.13,-291.04 0,-61.74 92.6,-66.15 92.6,-127.89 0,-29.73 -8.82,-51.78 -30.87,-70.55l-35.28 8.82c-47.37,-23.14 -67.24,-48.51 -97.01,-88.2 47.41,-23.14 52.92,-88.19 105.83,-88.19 40.82,0 60.65,22.05 101.43,26.46 3.31,-51.79 23.17,-110.24 74.96,-110.24 7.73,0 9.95,8.81 17.64,8.81 28.68,0 43.01,-17.63 71.69,-17.63 28.64,0 45.19,4.41 73.83,1.12 0,8.82 4.41,13.23 4.41,22.05 0,68.34 -22.05,106.93 -22.05,175.26 0,49.64 38.6,68.37 70.56,105.84 38.59,45.22 52.92,79.37 97.01,119.06 23.18,-47.38 37.5,-74.97 44.1,-127.88 3.32,-34.15 -3.28,-83.79 30.87,-83.79 11.04,0 15.45,13.23 26.46,13.23 27.58,0 43,-17.64 70.55,-17.64 55.14,0 33.09,79.38 57.33,127.88 32,65.06 110.24,76.1 110.24,148.84l0 112.47c0,57.32 60.64,68.33 88.2,117.93 34.18,61.74 40.81,108.06 92.6,154.34 25.36,-18.73 38.59,-44.1 70.56,-44.1 63.95,0 77.18,83.79 141.11,83.79 29.77,0 45.22,-8.82 74.96,-8.82 98.14,0 144.43,59.55 224.9,114.65 31.99,20.96 61.73,24.27 88.19,52.92 80.51,84.91 82.69,192.93 194.03,229.3 11.04,-23.14 24.27,-34.14 44.1,-48.5 91.51,91.51 184.11,114.65 233.71,233.71 88.2,212.8 39.69,362.73 101.43,586.5 16.54,59.54 77.18,62.86 132.29,88.19 24.27,11.04 15.45,44.1 35.28,61.74 19.86,17.63 46.32,6.63 70.55,17.63 44.1,20.96 43,69.47 44.1,119.07 5.54,152.15 187.43,194.03 339.55,194.03l-8.82 35.27c3.31,16.55 8.82,26.46 8.82,44.1 0,37.5 -35.28,47.41 -52.92,79.38 52.92,26.45 52.92,80.5 97.01,119.06 56.24,49.63 121.29,5.54 194.03,26.46 120.19,34.18 187.43,83.78 313.09,83.78 -44.09,22.05 -76.06,17.64 -124.56,17.64l-143.3 0c-29.78,0 -43.01,26.46 -72.78,26.46l-108.02 0c-18.77,0 -40.82,7.72 -40.82,26.46 0,37.5 36.41,48.5 48.51,83.78 20.96,59.55 28.68,97.01 44.1,158.75l-17.64 8.82c7.72,24.27 30.87,32 30.87,57.33 0,24.27 -5.51,38.59 -1.1,61.73 31.96,11.04 48.51,28.68 67.24,57.33 32,-39.69 34.19,-76.06 52.92,-123.47l17.64 -4.41 158.75 286.63c31.99,-27.55 34.18,-59.51 44.1,-101.42 50.72,50.73 66.14,91.51 123.47,132.29 16.54,-44.1 22.05,-71.65 22.05,-119.07 0,-81.56 -141.12,-72.74 -141.12,-154.34 0,-38.55 17.64,-58.42 17.64,-97.01 0,-36.37 -4.41,-56.2 -13.23,-92.6 52.92,41.91 82.7,88.19 149.94,88.19 8.81,0 9.94,-11.01 17.63,-13.23 -35.27,-71.65 -83.78,-105.83 -83.78,-185.21 0,-83.78 97.01,-90.38 167.57,-136.7 -35.28,-88.19 -116.84,-95.88 -198.44,-145.52 -65.02,-38.56 -89.29,-78.24 -149.93,-123.47 44.1,-67.24 95.92,-85.97 141.11,-154.34 -74.96,-54.01 -136.7,-101.42 -136.7,-194.03 0,-103.61 -30.87,-160.94 -30.87,-264.58 34.19,13.23 51.83,39.69 89.33,39.69 19.82,0 30.86,-4.41 50.69,-4.41 38.59,0 59.55,24.27 84.88,52.91 40.81,-35.28 88.19,-55.1 88.19,-110.24 0,-62.83 -57.32,-88.2 -57.32,-151.03 0,-16.54 2.22,-26.45 4.41,-43 41.91,24.27 66.14,52.92 114.65,52.92 33.09,0 41.91,-44.1 74.96,-44.1 32,0 34.19,48.51 66.15,48.51 56.23,0 49.64,-101.43 105.83,-101.43 52.92,0 52.92,81.6 105.84,88.2 166.47,19.86 260.17,48.51 410.1,123.47 86.01,-130.07 210.57,-146.61 366.01,-158.75 101.42,-7.69 158.75,-26.46 260.17,-26.46l0 -127.88c-102.52,0 -154.34,-50.69 -242.53,-101.42 -139.99,-81.57 -264.59,-159.85 -264.59,-321.91 0,-27.55 23.18,-36.37 35.28,-61.74l-22.05 -4.41c11.04,-47.38 22.05,-76.06 22.05,-124.56l0 -51.83c72.78,0 129.01,-3.28 176.39,-57.32 -55.1,-55.11 -101.42,-91.48 -101.42,-167.57 0,-141.11 79.37,-211.67 79.37,-352.78 0,-42.97 -6.6,-67.24 -13.23,-110.24 30.87,-11.01 50.73,0 83.79,0 33.09,0 74.96,-6.6 74.96,-39.69 0,-130.07 -27.55,-200.63 -48.5,-330.73 49.63,0 119.06,5.54 119.06,-44.1 0,-20.92 -27.55,-20.92 -35.28,-39.69 -13.23,-33.05 -8.82,-57.32 -8.82,-93.69 0,-49.6 7.73,-77.16 0,-126.79 46.32,17.64 60.64,66.14 110.24,66.14 56.24,0 60.65,-68.33 110.25,-92.6 71.68,-35.28 122.38,-39.69 202.84,-39.69 24.27,0 37.5,8.82 61.74,8.82 45.23,0 69.46,-8.82 114.65,-13.23 1.13,7.73 8.82,9.95 8.82,17.64 0,81.6 -52.91,119.06 -70.55,198.44l4.41 18.77c144.42,0 224.89,-1.13 369.32,-1.13 56.23,0 59.55,67.27 80.47,119.06 -104.71,43 -157.62,94.83 -224.9,185.21 6.63,1.13 9.95,8.82 17.64,8.82 45.23,0 69.46,-17.64 114.65,-17.64 51.83,0 97.02,8.82 123.48,52.92 19.86,34.18 -4.41,68.36 8.82,105.83 44.09,119.06 86,183.02 176.38,273.4 38.6,-65.01 41.91,-134.48 114.66,-154.34 83.78,-23.14 189.62,-31.96 189.62,-119.06 123.47,0 185.2,-55.1 308.68,-70.56 -3.29,-57.32 -26.46,-88.19 -30.87,-145.52 -79.38,26.46 -130.07,5.54 -211.67,17.64 -30.87,4.41 -47.38,26.46 -79.37,26.46 -109.12,0 -130.07,-112.43 -207.26,-189.62 -36.37,-36.37 -80.47,-13.23 -132.29,-13.23 -2.19,-11 -8.82,-15.41 -8.82,-26.46 0,-8.81 6.63,-14.32 8.82,-22.04l-4.41 -52.92 -30.87 -4.41c29.77,4.41 45.23,8.82 74.96,8.82 100.33,0 148.84,-57.33 233.72,-110.24 66.15,-40.79 112.47,-49.6 185.21,-79.38 74.96,-30.87 103.64,-88.19 185.21,-97.01 83.78,-9.92 116.87,-66.15 198.43,-83.79 155.47,-34.15 249.17,-5.5 396.88,-79.37 -35.28,61.73 -119.06,68.37 -119.06,140.01l0 98.11c-16.51,-3.28 -26.46,-8.82 -44.1,-8.82 -74.97,0 -114.65,23.18 -189.62,35.28 51.82,87.1 148.84,57.33 233.72,110.24 51.82,32 45.22,86.01 61.73,145.52 -46.28,-6.59 -71.65,0 -117.93,0 -30.87,0 -50.73,-6.59 -80.5,-13.22l-4.41 17.63c12.13,24.28 17.63,43.01 17.63,70.56 0,102.55 -102.51,144.43 -202.84,167.57l-4.41 17.64c7.72,13.23 17.64,19.86 17.64,35.28 0,24.27 -17.64,35.27 -35.28,52.91 89.32,59.55 127.88,110.25 211.67,176.39 44.09,-33.05 73.87,-61.73 130.1,-61.73 60.64,0 119.06,1.12 143.3,57.32 13.23,32 4.41,56.23 17.64,88.2 19.86,-7.69 30.87,-17.64 52.91,-17.64 177.52,0 239.26,155.47 343.96,299.86 79.38,110.24 183.02,110.24 295.45,185.21 95.92,63.96 162.07,84.91 260.18,145.52 157.65,98.14 242.53,224.89 242.53,410.1 0,175.3 -155.43,304.27 -330.73,304.27 -85.97,0 -125.66,-61.73 -211.66,-61.73 -134.48,0 -205.04,61.73 -339.55,61.73 -69.43,0 -80.47,-97.01 -149.93,-97.01 -34.15,0 -49.6,30.87 -83.79,30.87 -52.91,0 -84.88,-3.28 -132.29,-26.46 -48.51,-24.24 -60.61,-79.38 -114.65,-79.38 -30.87,0 -48.51,13.23 -79.38,13.23 -88.19,0 -81.56,-138.89 -167.57,-154.34 -88.19,-16.51 -141.11,-8.82 -229.3,-30.87 3.31,-14.32 8.82,-24.23 8.82,-39.68 0,-17.64 -12.1,-26.46 -22.05,-39.69l-17.64 -4.41c0,43 -18.73,92.6 -61.74,92.6 -65.01,0 -93.69,-48.5 -158.75,-48.5 -50.69,0 -77.15,26.46 -127.88,26.46 -41.87,0 -63.92,-17.64 -105.83,-17.64 -83.79,0 -114.65,88.19 -198.44,88.19 -22.05,0 -35.28,-8.82 -57.33,-8.82 -62.83,0 -95.88,32 -149.93,61.74 -45.19,25.36 -83.78,15.45 -123.47,48.5 -29.74,24.28 -17.64,70.56 -52.92,88.2 -97.01,48.51 -169.75,0 -277.81,17.64 -81.56,13.23 -121.25,57.32 -202.84,57.32 -24.24,0 -37.47,-3.28 -61.74,0 60.64,24.28 106.96,33.09 136.7,92.61 -54.01,26.46 -94.79,26.46 -145.52,57.32 -52.92,33.1 -51.79,114.66 -114.65,114.66 -36.37,0 -56.2,-8.82 -92.61,-8.82 -68.33,0 -104.7,26.46 -173.07,26.46l-125.66 0c-62.86,0 -97.01,13.23 -159.88,13.23 -14.32,87.1 -83.78,120.19 -83.78,207.25 0,60.64 39.68,89.33 44.09,149.93 35.28,-2.18 54.05,-22.05 89.33,-22.05l34.15 0c0,63.96 11.04,95.92 35.27,154.34l13.23 52.92c-7.69,9.95 -13.23,18.77 -17.64,30.87 62.87,24.27 76.1,71.68 123.48,119.06 -17.64,29.78 -45.19,35.28 -61.74,66.15 52.92,26.46 72.78,59.55 101.42,110.24 11.05,20.96 39.69,24.27 39.69,48.51 0,23.18 -26.46,29.77 -26.46,52.91 0,103.65 90.42,151.06 185.21,189.62 -9.91,27.59 -39.69,35.28 -39.69,65.05l0 40.79c24.28,-3.29 37.5,-13.23 61.74,-13.23 66.15,0 63.96,86 79.38,149.93 27.58,-9.92 39.68,-29.74 52.91,-57.33 41.91,20.96 68.37,39.69 115.78,39.69l104.71 0 35.28 -8.82 35.27 4.41c0,119.06 66.15,242.53 185.21,242.53 46.32,0 72.78,-13.23 119.06,-13.23 20.96,0 34.19,5.54 52.92,13.23 7.73,-13.23 17.64,-19.82 17.64,-35.27 0,-30.87 -48.51,-30.87 -48.51,-61.74 0,-40.78 44.1,-48.51 74.97,-74.97 23.18,-19.82 13.23,-66.14 44.1,-66.14 8.81,0 14.35,6.63 22.04,8.82l95.92 0c138.93,0 234.81,17.64 340.65,110.24 57.32,49.64 60.64,141.11 136.7,141.11 104.74,0 155.47,-70.55 260.17,-70.55 71.69,0 109.15,35.27 180.8,35.27 36.41,0 35.28,-46.28 48.51,-79.37 36.4,-89.29 66.14,-189.62 163.16,-189.62 47.41,0 58.45,61.74 105.83,61.74 33.09,0 44.1,-28.65 70.56,-48.51 48.5,-36.37 89.32,-39.69 149.93,-44.1 0,7.73 8.82,9.95 8.82,17.64 0,82.69 -44.1,124.6 -44.1,207.26 0,56.23 39.69,84.91 39.69,141.11 0,48.51 -48.51,66.15 -48.51,114.65 0,40.82 44.1,47.42 61.74,83.79 23.17,46.32 4.4,80.5 4.4,132.29 0,188.52 44.1,294.36 44.1,482.88 0,98.11 -57.32,148.84 -57.32,246.95 0,54.01 13.22,84.87 13.22,138.88 0,76.1 -48.5,112.47 -48.5,188.53l0 112.46c0,235.91 -169.76,448.67 -405.7,448.67 -80.47,0 -126.75,-30.87 -207.25,-30.87 -108.02,-8.82 -126.76,-149.93 -234.81,-149.93l-126.79 0 -176.39 -13.23 -100.29 0c-83.79,0 -145.53,3.32 -208.39,57.33 -105.83,92.6 -152.12,207.25 -291.04,207.25 -45.19,0 -68.33,-24.23 -110.24,-39.68 -59.52,-22.05 -101.43,-8.82 -163.16,-22.05l-83.79 -70.56c-82.66,-12.1 -134.48,-5.5 -207.26,-44.1 -35.27,-18.73 -36.37,-61.73 -74.96,-74.96 -98.11,-33.06 -160.94,-26.46 -264.58,-26.46 -101.43,0 -142.21,88.19 -243.63,88.19 -18.74,0 -28.65,-4.41 -47.42,-4.41 0,-66.14 -37.46,-111.33 -97.01,-141.11 -33.06,-16.51 -41.88,-52.91 -79.38,-52.91 -22.04,0 -30.86,17.64 -52.91,17.64 -84.88,0 -91.48,-127.89 -176.39,-127.89 -24.24,0 -38.56,8.82 -62.83,8.82l-94.79 0c-57.33,0 -48.51,-82.65 -98.14,-110.24 -70.56,-39.69 -123.48,-23.14 -202.85,-35.28 -73.84,-11 -108.02,-61.73 -182.99,-61.73 -57.32,0 -83.78,39.68 -138.92,52.91 -100.3,23.18 -168.66,-3.28 -260.18,44.1 -78.24,40.82 -100.29,101.42 -127.88,185.21 -17.64,55.14 -52.91,82.69 -52.91,141.11 0,78.28 82.69,90.42 119.06,163.16 7.72,20.95 35.28,34.18 35.28,57.33 0,76.09 -49.6,113.56 -105.84,163.16 -79.37,70.55 -132.29,127.88 -238.12,127.88 -369.29,0 -508.21,-304.27 -877.54,-361.6 -160.93,-25.33 -357.18,-11.01 -374.82,-171.98 -12.1,-105.83 -74.97,-157.62 -158.75,-220.48 -60.61,-45.2 -97.02,-88.2 -173.08,-88.2l-90.38 0c-62.86,0 -88.19,-47.38 -151.06,-57.33l-176.39 57.33c-151.02,-16.51 -205.03,-113.52 -335.13,-194.03 -94.8,-58.42 -156.53,-73.83 -255.77,-123.47 -8.82,30.87 -15.42,50.73 -22.05,83.79 -54.01,-48.51 -28.64,-136.71 -97.01,-158.75 -62.83,-20.92 -68.33,-80.47 -92.61,-141.12 -19.82,-48.5 -48.5,-74.96 -48.5,-127.88 0,-99.2 130.1,-94.79 180.8,-180.8 33.09,-56.19 15.45,-101.42 35.27,-163.16 14.36,-42.96 61.74,-54.01 61.74,-99.2 0,-30.87 -31.96,-38.59 -52.92,-59.55 -61.73,-61.73 -123.47,-101.42 -123.47,-189.61 0,-165.35 101.42,-240.32 198.44,-374.83l-79.38 -105.83c-33.05,88.19 -42.96,198.43 -136.7,198.43 -163.16,0 -194.03,-220.48 -357.19,-220.48 -126.75,0 -154.34,123.47 -264.58,189.62 -67.24,39.68 -132.29,0 -194.03,48.5 -38.55,-30.87 -50.69,-60.6 -83.78,-97.01 -59.51,-44.1 -92.61,-92.61 -167.57,-92.61 -40.78,0 -70.56,38.6 -70.56,79.38l-34.14 0c-62.87,0 -73.88,-68.33 -133.43,-88.19 -14.32,29.77 -30.86,44.09 -30.86,76.09l0 81.56c0,52.92 -71.65,48.51 -123.48,58.42 -59.51,11.04 -89.28,48.51 -149.93,48.51 -76.06,0 -84.87,-110.24 -160.93,-110.24 -213.89,0 -339.55,2.22 -544.62,70.55 -105.84,35.28 -153.21,105.83 -264.59,105.83 -78.24,0 -106.92,-79.37 -185.2,-79.37 -56.2,0 -61.74,67.27 -105.84,101.42 -70.55,54.05 -117.93,70.56 -194.02,114.66 -57.33,33.09 -82.66,88.19 -149.94,88.19 -51.78,0 -40.78,-97.01 -92.6,-97.01 -78.25,0 -79.37,97.01 -141.11,145.52 -34.15,26.46 -66.15,27.58 -101.42,52.91 -99.21,71.69 -166.44,123.48 -288.82,123.48 -72.78,0 -133.39,-16.51 -169.8,-79.38 -50.69,19.86 -82.65,22.05 -136.7,22.05 0,17.64 -2.18,26.46 -4.41,44.1 -29.74,-16.51 -35.27,-57.33 -70.55,-57.33 -40.78,0 -55.11,34.18 -92.61,48.51 -82.65,31.99 -133.38,57.32 -222.67,57.32 -136.7,0 -235.94,-123.47 -235.94,-260.17 0,-32.7 -37.7,52.92 -105.83,52.92 -7.69,0 -9.91,-3.28 -17.64,-4.41 -69.43,209.48 -141.11,317.5 -273.4,489.48 -67.24,87.1 -69.43,183.02 -171.98,224.89 -59.51,24.27 -106.93,8.82 -163.16,39.69 -30.87,16.54 -28.65,54.05 -57.33,74.96 -50.69,36.41 -83.78,54.05 -141.11,79.38 -97.01,44.1 -144.39,87.1 -220.48,163.16 -46.29,46.32 -110.25,61.74 -110.25,126.79l0 94.82c0,93.7 -46.28,138.89 -88.19,223.77 -45.19,90.42 -44.1,153.25 -44.1,253.58 0,98.11 22.05,153.24 22.05,251.35 0,171.98 -108.02,248.04 -180.8,403.47 -34.15,73.88 -60.61,114.66 -114.65,176.39 -57.33,66.15 -98.11,127.89 -186.3,127.89l-90.39 0c-151.06,0 -138.92,222.7 -283.35,264.58 -163.16,47.41 -307.55,48.51 -410.1,185.21 -6.6,90.41 -35.28,136.7 -57.33,224.89 -20.92,84.92 -20.92,154.34 -92.6,202.85 -8.68,5.93 -19.97,15.28 -26.46,20.92l0 7145.41 21483.43 0z"/>
  <path class="fil2 str0" d="M15537.57 6681.11c-56.23,0 -84.88,-26.46 -141.11,-26.46 -48.51,0 -55.14,56.23 -97.01,79.37 -71.65,39.69 -119.07,93.7 -119.07,176.39 0,47.42 59.52,46.32 105.84,57.33 29.77,6.63 39.69,39.69 70.55,39.69 46.29,0 59.52,-45.2 101.43,-61.74 25.36,-9.91 44.09,0 70.55,-4.41 72.78,-13.23 80.47,-89.29 114.66,-154.34 44.09,-81.56 88.19,-121.29 123.47,-207.26 -90.38,-37.5 -131.2,101.43 -229.31,101.43zm-9392.71 -1622.78c33.09,36.37 69.47,48.51 119.07,48.51 57.32,0 106.92,-26.46 123.47,-81.6 -27.55,0 -43.01,-2.19 -70.56,0l-4.41 -19.83 8.82 -35.28c-60.64,-45.19 -128.97,28.65 -176.39,88.2zm9525.78 1165.55l-44.86 -301.26c2.19,-41.87 6.6,-66.14 17.64,-105.83 6.6,-26.46 4.41,-52.92 26.46,-70.56 30.87,-24.23 66.14,0 108.02,0l209.48 0c110.24,-123.47 174.16,-200.62 255.76,-343.95 61.74,-105.84 70.56,-189.62 149.93,-282.23 63.93,-74.96 121.25,-103.61 202.85,-158.75 44.1,-28.64 61.74,-63.92 105.83,-97.01 48.51,-35.28 85.97,-46.28 141.11,-70.56 59.52,-26.45 85.98,-63.92 141.11,-97.01 74.97,-46.28 130.07,-63.92 211.67,-97.01 39.69,-15.42 70.56,-17.64 105.83,-44.1 22.05,-15.42 24.24,-44.1 44.1,-61.74 33.06,-30.86 79.38,-26.46 105.84,-61.73 33.05,-41.88 2.18,-92.61 26.45,-141.11 22.05,-44.1 61.74,-52.92 97.02,-88.2 72.74,-72.74 101.42,-127.88 185.21,-185.21 39.68,-26.46 77.15,-33.05 105.83,-70.55 15.42,-19.83 4.41,-50.7 17.64,-70.56 24.23,-37.46 59.51,-52.91 105.83,-52.91 28.65,0 44.1,22.04 70.56,26.45 39.68,6.64 66.14,-2.18 105.83,8.82 46.28,13.23 52.92,59.55 88.19,88.2 48.51,39.69 90.39,50.73 141.12,88.19 134.47,99.24 229.3,176.39 399.06,176.39 26.46,0 41.91,-6.6 68.37,-8.82l0 -130.07c0,-48.5 -50.73,-61.73 -79.38,-99.23 -37.5,-48.51 -44.1,-85.98 -70.55,-141.12 -26.46,-52.91 -52.92,-81.56 -52.92,-141.11 0,-88.19 60.68,-130.85 135.64,-172.76l0 0c0.66,9.63 1.05,19.77 1.05,30.57l0 137.79c43,0 84.87,-6.63 105.83,30.87 23.14,41.88 -1.09,84.88 26.46,123.48 37.46,52.91 77.15,67.23 132.29,101.42 146.61,91.51 206.16,184.11 370.42,238.12 136.7,90.39 163.16,203.94 220.48,357.19 31.96,86.01 57.33,136.7 57.33,228.21l0 112.43c0,46.32 22.05,71.69 22.05,117.97 0,58.42 18.73,145.52 -39.69,145.52 -7.73,0 -9.91,-8.82 -17.64,-8.82 -7.72,0 -9.91,7.73 -17.64,8.82 13.23,34.19 13.23,59.55 13.23,97.02 0,16.54 23.14,17.64 30.87,30.86 22.05,36.38 20.95,63.96 30.87,105.84 39.68,162.06 70.55,274.49 202.84,375.92 46.29,1.13 71.65,-1.1 117.97,-1.1 35.28,0 47.38,28.69 80.47,39.69 60.64,19.86 103.61,8.82 158.75,39.69 62.83,35.28 76.06,84.88 127.88,136.7 81.57,81.6 142.21,111.34 246.95,158.75 59.55,26.46 74.96,92.61 141.11,92.61 81.6,0 105.83,-73.88 176.39,-114.66 178.61,-103.61 308.68,-127.88 515.94,-127.88 -17.64,-40.78 -50.7,-59.51 -74.97,-97.01 -100.33,-72.75 -89.29,-174.17 -127.88,-291.05 -25.37,-76.05 -25.37,-123.47 -39.69,-202.84 -13.23,-71.65 -57.33,-103.61 -57.33,-176.39 0,-41.88 11.05,-67.24 26.46,-105.83 -20.72,0 -39.3,-3.29 -56.44,-8.75l0 0c61.74,-39.69 104.96,-88.27 179.93,-88.27 57.33,0 90.38,22.05 141.11,44.1 72.74,33.09 119.06,68.37 167.57,132.29 63.92,83.79 88.19,143.33 167.57,211.67 41.87,35.28 66.15,79.37 123.47,79.37 57.33,0 74.97,-52.91 123.47,-79.37 39.69,-22.05 68.34,-30.87 105.84,-52.92 74.96,-46.28 121.25,-88.19 211.66,-88.19 90.39,0 138.89,44.09 229.31,44.09 55.1,0 83.78,-28.64 132.29,-52.91 55.11,-26.46 88.2,-39.69 141.11,-70.56 -33.09,-57.33 -66.14,-83.78 -97.01,-141.11 -24.27,-44.1 -33.09,-77.15 -61.74,-114.65 -28.68,-37.47 -61.73,-52.92 -79.37,-97.02 -26.46,-63.92 -19.86,-110.24 -44.1,-176.39 -26.46,-74.96 -72.78,-108.02 -114.65,-176.38 -22.05,-37.47 -33.09,-66.15 -52.92,-105.84 -46.32,-94.79 -108.06,-132.29 -176.39,-211.66 -59.55,-68.34 -66.14,-127.89 -97.01,-211.67 -30.87,-83.79 -66.15,-127.88 -97.02,-211.67 -8.82,-24.23 -8.82,-46.28 -17.63,-70.55 -6.64,-17.64 -28.69,-19.83 -35.28,-35.28 -33.09,-61.74 -37.5,-108.02 -52.92,-176.39 -26.46,-112.43 -44.1,-182.99 -44.1,-299.86 0,-50.7 29.29,-86.4 46.92,-132.72l0 0c11.79,18.87 28.43,31.3 54.49,31.3 49.6,0 97.02,-34.19 97.02,-83.79 0,-13.02 -0.6,-25.36 -1.72,-37.14l0 0c13.22,26.46 19.36,45.97 41.41,63.61 74.97,61.74 182.99,-11.04 246.95,61.74 17.63,19.82 11,46.28 17.63,70.55 26.46,83.79 66.15,127.88 97.02,211.67 13.23,37.46 11.01,68.33 26.46,105.83 46.28,110.24 138.89,127.88 238.12,194.03 41.88,26.46 35.28,79.37 79.38,105.83 39.68,22.05 79.37,26.46 105.83,61.74 6.6,8.82 2.19,26.46 8.82,35.28 52.92,59.51 99.2,81.56 149.93,141.11 30.87,37.46 83.79,35.28 105.83,79.37 19.83,39.69 26.46,72.75 52.92,105.84 41.88,48.5 77.15,74.96 105.83,132.29 26.46,55.1 28.65,110.24 79.38,141.11 46.28,28.64 90.38,6.6 141.11,26.46 55.1,19.82 55.1,74.96 97.01,114.65 35.28,33.05 72.75,44.1 123.48,44.1 50.69,0 90.38,-19.86 114.65,-61.74 46.28,-81.6 26.46,-149.93 26.46,-246.94 0,-90.42 -26.46,-138.93 -26.46,-229.31 0,-35.28 11.01,-57.33 26.46,-88.19 4.41,-11.05 -8.82,-26.46 0,-35.28 24.23,-24.27 52.91,-17.64 88.19,-17.64 81.56,0 119.06,48.51 194.03,79.37 37.46,15.42 66.15,4.41 105.83,17.64 83.79,26.46 127.88,61.74 211.67,88.2 79.37,26.46 130.07,28.64 211.67,44.1 94.79,17.63 149.93,52.91 246.94,52.91 112.43,0 211.67,-17.64 264.58,-114.65 50.7,-92.61 41.88,-176.39 123.48,-246.95 149.93,-130.1 277.81,-185.2 476.25,-185.2 103.61,0 167.57,13.23 264.58,44.09 88.19,28.65 119.06,114.66 213.85,114.66l277.82 0c83.78,0 130.1,17.64 213.88,17.64 55.11,0 88.2,-13.23 141.12,-26.46 150.74,-16.41 256.22,55.49 347.98,170.21 65.54,81.95 75.38,157.34 137.65,242.57 98.35,131.09 176.99,193.36 268.78,334.29 62.27,98.36 117.97,163.9 117.97,281.91 0,131.09 -62.23,199.95 -104.85,321.2 -6.59,26.21 0,52.43 -13.12,78.67 -22.96,49.18 -68.86,65.55 -91.79,111.45 -91.79,167.18 -55.71,294.99 -85.2,488.38 -6.59,45.86 -39.33,72.07 -39.33,117.97 0,62.3 59.02,104.92 121.25,104.92 75.42,0 114.72,-39.34 190.11,-39.34 59.02,0 114.72,-6.56 147.53,39.34 39.3,52.42 13.09,98.31 13.09,163.86 0,140.97 6.56,219.61 -13.09,360.54 -16.4,111.44 -39.37,173.74 -39.37,285.19l0 465.42c0,196.67 -59.02,308.11 -59.02,504.75 0,239.25 36.09,376.94 36.09,616.2l0 1445.47c0,58.98 42.62,85.23 42.62,144.21 0,308.12 6.56,485.11 6.56,793.22 0,160.59 -118.01,235.98 -124.57,396.6 -3.28,62.26 16.37,95.04 13.09,157.3 -3.25,114.72 -40.52,180.09 -92.97,281.69l0 0c-141.96,-9.54 -227.48,-93.58 -320.83,-210.76 -39.69,-50.69 -54.01,-119.06 -119.06,-119.06 -17.64,0 -27.55,8.82 -45.19,8.82 -6.6,0 -9.91,-4.41 -16.55,-4.41 2.23,-29.77 17.64,-45.19 17.64,-74.96 0,-7.73 -7.69,-9.92 -8.82,-17.64 -33.05,7.72 -54.01,13.23 -88.19,13.23 -206.13,0 -383.65,-157.66 -383.65,-363.79 0,-103.64 -85.97,-141.11 -158.75,-213.89 -50.69,-50.69 -60.6,-127.88 -132.29,-127.88 -93.7,0 -139.98,57.33 -233.71,57.33 -54.01,0 -78.25,-39.69 -132.3,-39.69 -24.23,0 -24.23,39.69 -48.5,39.69 -44.1,0 -61.74,-39.69 -105.84,-39.69 -27.55,0 -29.74,39.69 -57.32,39.69 -59.52,0 -81.56,-61.74 -141.11,-61.74 -34.15,0 -19.83,70.56 -54.01,70.56l-90.39 0c-58.45,0 -87.1,37.5 -142.24,52.91 -102.51,29.78 -168.66,5.51 -273.4,30.87 -36.37,8.82 -50.69,39.69 -88.19,39.69 -88.2,0 -133.39,-48.51 -221.58,-48.51l-200.63 0c-57.32,0 -87.1,-35.28 -144.42,-35.28 -15.46,0 -24.28,7.73 -37.5,13.23 -99.21,6.64 -156.53,-22.05 -255.77,-22.05 -252.45,-41.87 -386.93,-99.2 -612.95,-211.66 -144.39,-71.65 -186.3,-187.4 -242.53,-339.55 -36.38,-98.11 -67.24,-207.26 -171.98,-207.26 -47.38,0 -69.43,31.96 -114.66,44.1 -92.6,26.46 -142.2,62.83 -211.66,132.29 -61.74,61.74 -77.16,149.93 -163.16,149.93 -73.84,0 -112.43,-31.96 -185.21,-48.51 -168.66,-39.68 -271.18,-81.56 -392.47,-202.84 -51.78,-51.83 -130.07,-23.14 -171.98,-83.79 -25.33,-37.46 -6.59,-84.88 -44.09,-110.24 -93.7,-65.05 -171.98,-55.1 -277.82,-97.01 -82.65,-33.06 -178.57,-36.38 -194.02,-123.48 -13.23,-70.55 -18.74,-121.25 -66.15,-176.39 -233.71,-267.89 -318.59,-450.88 -529.17,-732.01 -58.42,28.68 -95.88,35.28 -158.75,35.28 -50.69,0 -88.19,-8.82 -123.47,-44.1 -49.6,86.01 -134.48,101.42 -233.71,101.42 -56.2,0 -90.38,-9.91 -141.11,-35.27 23.17,94.82 18.76,181.89 105.83,224.89 -23.14,30.87 -52.92,34.19 -88.2,48.51 20.96,86.01 104.74,91.51 167.57,154.34 79.38,79.38 81.6,158.75 154.34,242.53 57.33,66.15 86.01,110.25 132.3,185.21 23.17,37.5 66.14,48.51 66.14,92.61 0,45.19 30.87,68.37 66.15,97.01 18.77,14.32 50.73,11.04 50.73,35.28 0,20.95 -1.1,31.96 0,52.92 -19.86,2.22 -30.87,4.41 -50.73,4.41 105.83,141.11 202.84,246.94 379.23,246.94l0 87.1c0,73.87 101.43,85.97 101.43,159.84 0,45.2 -39.69,61.74 -74.97,88.2 27.59,56.23 27.59,94.83 48.51,154.34 52.92,145.52 122.38,206.16 220.49,326.32 2.22,-6.6 5.53,-12.14 8.81,-17.64 12.14,-117.97 35.28,-184.12 35.28,-302.05 0,-47.41 -30.87,-69.46 -30.87,-116.87 0,-38.6 45.23,-52.92 83.79,-52.92 45.23,0 46.32,55.14 83.78,79.37 104.74,69.47 127.89,171.98 127.89,297.68 0,80.47 -56.2,143.3 -136.71,156.53 43.01,57.32 16.55,130.1 79.38,167.57 73.87,44.09 142.24,-3.32 216.08,39.68 73.87,43.01 94.82,127.88 180.79,127.88 95.92,0 137.83,-74.96 233.72,-74.96 47.41,0 77.19,7.73 119.06,26.46 30.87,14.32 32,57.32 66.15,57.32 67.27,0 102.55,-33.05 158.75,-70.55 55.14,-36.37 102.55,-45.19 136.7,-101.43 71.68,-115.74 54.04,-210.57 119.06,-330.72 78.28,-145.53 147.75,-216.08 229.31,-361.6 34.18,-61.74 8.82,-120.16 57.32,-171.98 30.87,-33.06 73.88,-16.55 105.84,-48.51l0 61.74 -48.51 282.22 0 113.56c0,73.87 18.77,112.43 30.87,186.3 52.91,105.84 119.06,141.11 202.85,224.9 80.5,80.47 110.24,152.15 211.66,202.84 92.61,46.32 158.75,46.32 255.77,79.38 103.64,35.28 164.28,49.6 273.4,70.56 41.91,7.72 77.19,-7.73 110.24,17.63 45.23,34.19 26.46,88.2 48.51,141.12 18.77,46.32 50.73,62.83 83.78,101.42 36.41,41.91 44.1,83.78 92.61,110.24l35.28 -8.82 13.22 52.92 0 91.51c0,163.16 -15.41,260.17 -74.96,411.2 -39.69,99.23 -68.33,154.34 -110.24,251.35 -29.74,68.37 -39.69,154.34 -114.66,154.34 -52.91,0 -63.92,-55.1 -108.02,-83.78l0 100.33c0,56.23 -24.27,85.97 -24.27,142.2 0,87.1 30.87,134.52 30.87,221.58l0 81.6c0,68.33 46.32,98.11 88.19,151.02 -73.83,36.37 -110.24,59.55 -185.2,83.79 -57.33,18.73 -105.84,23.14 -136.71,74.96 -61.73,101.43 -28.64,184.12 -70.55,295.45 -20.92,70.56 -58.42,123.48 -132.29,123.48 -72.75,0 -112.43,-22.05 -185.21,-22.05 -27.55,0 -28.65,33.09 -39.69,57.32 -19.82,45.2 -34.15,71.65 -57.32,114.66 -36.38,67.24 -24.24,123.47 -70.56,185.21 -38.56,50.73 -97.01,24.27 -158.75,39.68l-35.28 -8.82c-63.92,31.97 -51.79,136.71 -123.47,136.71 -34.15,0 -54.01,-13.23 -88.19,-13.23 -74.97,0 -105.84,56.23 -167.57,97.01 -123.48,81.6 -199.54,163.16 -220.49,308.68 -5.5,41.91 8.82,81.6 -22.05,110.24 -45.19,41.91 -100.29,13.23 -154.34,44.1 -40.78,23.14 -18.73,78.28 -57.33,105.83 -51.78,36.38 -100.29,-1.09 -163.16,8.82 -122.34,19.87 -176.38,89.29 -295.45,123.48 -94.79,27.55 -156.52,23.14 -251.35,52.91 -83.79,26.46 -122.34,87.1 -145.52,171.98 -13.23,50.73 8.82,93.7 -26.46,132.29 -26.46,28.68 -58.42,18.74 -97.01,30.87 -39.69,13.23 -56.2,44.1 -97.02,44.1 -49.6,0 -73.83,-35.28 -123.47,-35.28 -77.15,0 -60.61,109.15 -114.65,163.16 -52.92,52.92 -119.07,26.46 -189.62,52.92 -54.01,19.86 -73.84,74.96 -132.29,74.96 -76.06,0 -111.34,-52.91 -187.4,-52.91 -134.51,0 -210.57,125.69 -227.12,260.17 -72.74,0 -112.43,22.05 -185.2,22.05 -40.79,0 -65.02,-13.23 -105.84,-13.23 -40.78,0 -60.61,30.87 -101.42,30.87 -62.83,0 -109.12,12.13 -158.75,-26.46 -58.42,-45.19 -33.06,-115.75 -74.97,-176.39 -40.78,-59.51 -74.96,-99.2 -74.96,-171.98 0,-156.53 -50.7,-240.31 -101.43,-388.05 -41.87,-121.25 -16.51,-246.95 -132.29,-304.28 29.78,-59.51 41.91,-97.01 52.92,-163.16 0,-94.79 3.32,-153.24 3.32,-248.03 0,-240.35 -240.32,-312 -281.13,-550.13 -6.6,-38.59 11.04,-74.96 -17.64,-101.42 -49.6,-46.28 -111.34,-27.55 -158.75,-74.96 -60.61,-60.65 -91.48,-99.21 -136.7,-171.98 -28.65,-46.29 -110.25,-36.37 -110.25,-91.51l0 -90.39c0,-91.51 -30.86,-144.42 -74.96,-223.8 -44.1,-80.47 -27.55,-148.83 -79.38,-224.89 -39.68,-58.42 -98.1,-56.24 -154.34,-97.02 -60.6,-44.09 -48.5,-111.33 -97.01,-167.57 -109.12,-125.66 -186.3,-179.7 -291.04,-308.68 -48.51,-60.64 -35.28,-119.06 -70.56,-189.62 -45.19,-90.38 -105.83,-135.6 -105.83,-237.03l0 -63.92c0,-170.89 -59.52,-265.68 -145.52,-413.42 -40.78,-71.65 -52.92,-131.2 -119.07,-180.8 -52.91,-71.65 -99.2,-103.61 -158.75,-171.98 -46.28,-52.91 -58.42,-99.2 -119.06,-132.29 -37.46,-19.83 -71.65,-3.32 -110.24,-22.05 -29.74,-14.32 -19.83,-50.69 -35.28,-79.37 -29.74,-55.11 -83.78,-77.16 -83.78,-141.11 0,-39.69 26.46,-59.52 26.46,-99.21 0,-132.29 -123.48,-167.57 -198.44,-275.62 -33.06,-48.51 -5.51,-112.43 -57.33,-141.11 -80.47,-45.19 -103.61,-104.74 -149.93,-185.21 -44.1,-76.06 -83.78,-110.24 -141.11,-176.39 -17.64,-20.95 -52.92,-20.95 -52.92,-48.51 0,-112.43 -70.55,-162.06 -132.29,-255.76 -17.64,-26.46 -3.28,-58.42 -26.46,-79.38 -57.32,-52.91 -112.43,-66.14 -190.71,-66.14 -16.54,0 -26.46,3.32 -43,4.41 19.86,-55.11 13.23,-92.61 13.23,-152.12 0,-160.97 -30.87,-251.35 -30.87,-412.33 0,-11 5.54,-16.54 8.82,-26.45 -49.6,119.06 -88.2,189.61 -88.2,318.59l0 329.64c-123.47,-61.74 -205.03,-98.11 -277.81,-216.08 -41.87,-67.24 -30.87,-121.25 -74.96,-185.21 -37.47,-55.1 -103.61,-50.69 -136.71,-110.24 -42.96,-77.16 -3.28,-153.25 -66.14,-216.08 -29.74,-29.77 -58.42,-37.46 -79.38,-74.96 0,7.72 -4.41,2.22 -4.41,9.91 0,144.43 57.33,220.48 57.33,364.91 144.43,23.14 186.34,138.93 260.17,264.59 60.65,104.74 73.88,176.38 136.71,277.81 26.45,43 72.77,49.6 92.6,97.01 56.23,128.98 44.1,219.39 119.06,339.55 148.84,239.22 207.26,380.33 348.37,621.77 68.37,117.97 76.09,200.66 145.52,317.5 52.92,88.2 102.55,122.38 158.75,207.26 -41.87,13.23 -92.6,22.05 -92.6,66.14 0,111.34 114.65,152.16 114.65,263.49l0 23.02 0 0c-209.48,33.05 -313.06,-72.64 -520.32,-105.69 -24.27,-2.23 -44.1,-17.64 -70.55,-17.64 -57.33,0 -83.79,44.1 -141.12,44.1 -116.87,0 -169.79,-70.56 -282.22,-97.02 -123.47,-30.87 -196.25,-39.69 -317.5,-79.37 -130.1,-41.91 -216.07,-50.73 -335.14,-123.48 -72.78,-44.09 -101.42,-90.41 -167.57,-141.11 -50.73,-37.5 -88.19,-57.32 -141.11,-97.01 -77.19,-57.33 -132.29,-97.01 -167.57,-185.21 -66.14,-163.16 -48.5,-295.45 -176.39,-423.33 -24.27,-24.27 -48.5,-26.46 -70.55,-52.92 -48.51,-57.33 -88.2,-94.83 -158.75,-123.47 -90.42,-37.5 -156.56,-33.09 -246.95,-70.56 -52.91,-22.05 -83.78,-48.5 -141.11,-61.73 -114.65,-154.34 -255.76,-222.71 -449.79,-229.31 -97.01,-2.22 -156.56,2.19 -246.94,-26.46 -99.24,-33.09 -143.34,-105.83 -249.17,-105.83l-207.26 0c-59.51,0 -90.38,30.87 -143.3,52.92 -39.68,15.41 -68.36,17.64 -105.83,35.27 -57.33,28.65 -83.78,66.15 -141.11,88.2 -37.5,15.41 -68.37,11.01 -105.83,26.46 -41.91,15.41 -63.96,46.28 -105.84,61.73 -37.5,15.42 -66.14,13.23 -105.83,26.46 -52.92,17.64 -83.78,37.47 -141.11,44.1 -70.56,8.82 -108.06,-8.82 -178.61,-8.82l-207.26 0c-121.25,0 -176.39,79.37 -284.41,132.29 -86.01,41.88 -138.92,70.56 -211.67,132.29 -55.13,46.29 -101.42,63.93 -141.11,123.47 -72.77,108.03 -92.6,185.21 -176.39,282.23 -30.86,37.46 -66.14,50.69 -97.01,88.19 -88.19,103.61 -79.37,207.26 -158.75,317.5 -57.33,79.38 -114.65,108.02 -194.03,167.57 -134.51,99.2 -185.21,194.03 -299.86,317.5 -48.51,52.92 -77.19,110.24 -149.93,114.65 -196.25,15.42 -308.68,44.1 -493.89,105.84 -74.96,24.23 -136.7,39.68 -176.39,105.83 -13.23,24.24 -17.64,46.28 -35.27,70.56 -63.96,90.38 -167.57,52.91 -273.41,88.19 -72.78,24.24 -105.83,57.33 -176.39,88.19 -130.1,59.52 -218.29,59.52 -361.59,70.56 -68.37,4.41 -108.06,19.83 -176.39,26.46 -145.52,17.64 -224.9,26.46 -370.42,26.46 -147.74,0 -255.76,22.05 -370.42,-70.56 -81.59,-66.14 -105.83,-134.51 -185.2,-202.85 -94.83,-81.59 -141.11,-141.11 -229.31,-229.3 -35.28,-35.28 -48.51,-68.37 -79.37,-105.83 -50.73,-59.55 -105.84,-70.56 -176.39,-97.02 -33.09,-11.04 -52.92,-26.46 -88.2,-26.46 -61.73,0 -97.01,17.64 -158.75,17.64 -97.01,-15.45 -160.97,-2.22 -255.76,-17.64 -141.11,-22.05 -222.71,-50.73 -361.6,-79.37 -123.47,-24.27 -207.26,-26.46 -317.5,-88.2 -68.37,-37.5 -68.37,-105.83 -114.65,-167.57 -39.69,-52.91 -79.38,-74.96 -132.29,-114.65 -149.93,-112.46 -238.13,-176.39 -379.24,-299.86 -88.19,-77.19 -158.75,-114.65 -202.85,-220.49 -48.5,-121.28 -46.32,-205.07 -114.65,-317.5 -22.05,-37.5 -61.74,-41.91 -105.83,-52.91 -88.2,-22.05 -138.93,-26.46 -229.31,-26.46 -74.96,0 -123.47,-11.04 -194.03,8.82 -138.92,39.69 -191.84,132.29 -317.5,202.85 -66.14,35.27 -112.46,48.5 -176.38,88.19 -57.33,35.28 -70.56,85.97 -132.3,114.65 -63.96,28.65 -110.24,26.46 -176.39,44.1 -145.52,41.87 -235.93,61.74 -388.05,61.74 -163.16,0 -262.4,-79.38 -370.42,-202.85 -55.14,-63.96 -105.83,-94.83 -149.93,-167.57 -57.32,-92.6 -97.01,-154.34 -194.03,-202.85 -132.29,-66.14 -218.29,-103.64 -317.5,-211.66 -44.09,-48.51 -61.73,-90.42 -114.65,-132.3 -37.5,-28.68 -72.78,-37.5 -105.83,-70.55 -70.56,-70.56 -64.28,-151.36 -88.55,-250.59l0 0c10.31,-2.7 20.71,-5.57 31.19,-8.61 144.43,-41.88 132.29,-264.58 283.35,-264.58l90.39 0c88.19,0 128.97,-61.74 186.3,-127.89 54.04,-61.73 80.5,-102.51 114.65,-176.39 72.78,-155.43 180.8,-231.49 180.8,-403.47 0,-98.11 -22.05,-153.24 -22.05,-251.35 0,-100.33 -1.09,-163.16 44.1,-253.58 41.91,-84.88 88.19,-130.07 88.19,-223.77l0 -94.82c0,-65.05 63.96,-80.47 110.25,-126.79 76.09,-76.06 123.47,-119.06 220.48,-163.16 57.33,-25.33 90.42,-42.97 141.11,-79.38 28.68,-20.91 26.46,-58.42 57.33,-74.96 56.23,-30.87 103.65,-15.42 163.16,-39.69 102.55,-41.87 104.74,-137.79 171.98,-224.89 132.29,-171.98 203.97,-280 273.4,-489.48 7.73,1.13 9.95,4.41 17.64,4.41 68.13,0 105.83,-85.62 105.83,-52.92 0,136.7 99.24,260.17 235.94,260.17 89.29,0 140.02,-25.33 222.67,-57.32 37.5,-14.33 51.83,-48.51 92.61,-48.51 35.28,0 40.81,40.82 70.55,57.33 2.23,-17.64 4.41,-26.46 4.41,-44.1 54.05,0 86.01,-2.19 136.7,-22.05 36.41,62.87 97.02,79.38 169.8,79.38 122.38,0 189.61,-51.79 288.82,-123.48 35.27,-25.33 67.27,-26.45 101.42,-52.91 61.74,-48.51 62.86,-145.52 141.11,-145.52 51.82,0 40.82,97.01 92.6,97.01 67.28,0 92.61,-55.1 149.94,-88.19 76.09,-44.1 123.47,-60.61 194.02,-114.66 44.1,-34.15 49.64,-101.42 105.84,-101.42 78.28,0 106.96,79.37 185.2,79.37 111.38,0 158.75,-70.55 264.59,-105.83 205.07,-68.33 330.73,-70.55 544.62,-70.55 76.06,0 84.87,110.24 160.93,110.24 60.65,0 90.42,-37.47 149.93,-48.51 51.83,-9.91 123.48,-5.5 123.48,-58.42l0 -81.56c0,-32 16.54,-46.32 30.86,-76.09 59.55,19.86 70.56,88.19 133.43,88.19l34.14 0c0,-40.78 29.78,-79.38 70.56,-79.38 74.96,0 108.06,48.51 167.57,92.61 33.09,36.41 45.23,66.14 83.78,97.01 61.74,-48.5 126.79,-8.82 194.03,-48.5 110.24,-66.15 137.83,-189.62 264.58,-189.62 163.16,0 194.03,220.48 357.19,220.48 93.74,0 103.65,-110.24 136.7,-198.43l79.38 105.83c-97.02,134.51 -198.44,209.48 -198.44,374.83 0,88.19 61.74,127.88 123.47,189.61 20.96,20.96 52.92,28.68 52.92,59.55 0,45.19 -47.38,56.24 -61.74,99.2 -19.82,61.74 -2.18,106.97 -35.27,163.16 -50.7,86.01 -180.8,81.6 -180.8,180.8 0,52.92 28.68,79.38 48.5,127.88 24.28,60.65 29.78,120.2 92.61,141.12 68.37,22.04 43,110.24 97.01,158.75 6.63,-33.06 13.23,-52.92 22.05,-83.79 99.24,49.64 160.97,65.05 255.77,123.47 130.1,80.51 184.11,177.52 335.13,194.03l176.39 -57.33c62.87,9.95 88.2,57.33 151.06,57.33l90.38 0c76.06,0 112.47,43 173.08,88.2 83.78,62.86 146.65,114.65 158.75,220.48 17.64,160.97 213.89,146.65 374.82,171.98 369.33,57.33 508.25,361.6 877.54,361.6 105.83,0 158.75,-57.33 238.12,-127.88 56.24,-49.6 105.84,-87.07 105.84,-163.16 0,-23.15 -27.56,-36.38 -35.28,-57.33 -36.37,-72.74 -119.06,-84.88 -119.06,-163.16 0,-58.42 35.27,-85.97 52.91,-141.11 27.59,-83.79 49.64,-144.39 127.88,-185.21 91.52,-47.38 159.88,-20.92 260.18,-44.1 55.14,-13.23 81.6,-52.91 138.92,-52.91 74.97,0 109.15,50.73 182.99,61.73 79.37,12.14 132.29,-4.41 202.85,35.28 49.63,27.59 40.81,110.24 98.14,110.24l94.79 0c24.27,0 38.59,-8.82 62.83,-8.82 84.91,0 91.51,127.89 176.39,127.89 22.05,0 30.87,-17.64 52.91,-17.64 37.5,0 46.32,36.4 79.38,52.91 59.55,29.78 97.01,74.97 97.01,141.11 18.77,0 28.68,4.41 47.42,4.41 101.42,0 142.2,-88.19 243.63,-88.19 103.64,0 166.47,-6.6 264.58,26.46 38.59,13.23 39.69,56.23 74.96,74.96 72.78,38.6 124.6,32 207.26,44.1l83.79 70.56c61.73,13.23 103.64,0 163.16,22.05 41.91,15.45 65.05,39.68 110.24,39.68 138.92,0 185.21,-114.65 291.04,-207.25 62.86,-54.01 124.6,-57.33 208.39,-57.33l100.29 0 176.39 13.23 126.79 0c108.05,0 126.79,141.11 234.81,149.93 80.5,0 126.78,30.87 207.25,30.87 235.94,0 405.7,-212.76 405.7,-448.67l0 -112.46c0,-76.06 48.5,-112.43 48.5,-188.53 0,-54.01 -13.22,-84.87 -13.22,-138.88 0,-98.11 57.32,-148.84 57.32,-246.95 0,-188.52 -44.1,-294.36 -44.1,-482.88 0,-51.79 18.77,-85.97 -4.4,-132.29 -17.64,-36.37 -61.74,-42.97 -61.74,-83.79 0,-48.5 48.51,-66.14 48.51,-114.65 0,-56.2 -39.69,-84.88 -39.69,-141.11 0,-82.66 44.1,-124.57 44.1,-207.26 0,-7.69 -8.82,-9.91 -8.82,-17.64 -60.61,4.41 -101.43,7.73 -149.93,44.1 -26.46,19.86 -37.47,48.51 -70.56,48.51 -47.38,0 -58.42,-61.74 -105.83,-61.74 -76.55,0 -111.22,62.48 -140.32,132.69l0 0zm-12089.23 -2716.16c-16.54,39.68 -27.25,66.75 -33.88,108.63 -3.32,19.86 -13.23,30.86 -13.23,51.82l0 43c40.78,6.6 65.05,-2.22 105.83,-2.22 55.14,0 86.01,15.45 141.12,22.05 27.55,3.31 51.82,-5.5 70.55,13.23 9.91,9.91 4.41,25.36 13.23,35.28 6.63,7.72 15.45,8.81 26.46,8.81 18.73,0 26.46,-12.13 44.1,-17.63 56.23,-16.55 90.41,-35.28 149.93,-35.28 41.91,0 61.73,26.46 97.01,48.51 26.46,16.54 44.1,26.45 70.56,44.09 55.13,37.5 88.19,59.55 132.29,110.25 26.46,30.86 51.82,43 88.19,61.73 20.96,11.04 31.96,25.37 52.92,35.28 47.41,23.14 79.37,26.46 132.29,26.46 70.56,0 111.34,-24.24 167.57,-66.15 59.55,-44.1 109.15,-62.83 145.52,-127.88 30.87,-55.1 31.96,-97.01 44.1,-158.75 2.22,-12.14 0,-23.14 4.41,-35.28 17.64,-47.41 45.19,-66.14 74.96,-105.83 17.64,17.64 20.96,37.5 39.69,52.92 27.55,23.14 55.14,17.63 88.19,30.86 51.83,20.96 73.88,50.73 123.48,74.97 33.09,16.54 57.32,14.32 88.19,35.28 19.86,13.23 25.37,30.86 39.69,48.5 30.87,36.37 67.24,41.91 97.01,79.38 3.32,4.41 2.22,13.23 4.41,17.64 18.73,26.46 41.91,33.09 70.56,48.5 30.87,16.55 52.91,26.46 88.19,26.46 27.55,0 45.19,-7.72 70.56,-17.64 20.95,-7.72 35.28,-13.23 52.91,-26.45 19.87,-15.42 24.28,-35.28 39.69,-52.92 28.68,-30.87 48.51,-46.29 79.38,-74.97 27.55,-25.36 45.19,-45.19 61.73,-79.37 19.86,-39.69 35.28,-67.24 74.97,-88.2 15.45,-7.72 25.36,-22.04 44.1,-22.04 9.91,0 16.54,4.41 26.45,6.63 47.42,1.09 74.97,-2.22 122.38,-2.22 41.88,0 57.55,-4.76 97.24,8.47l0 0c-9.77,4.62 -19.76,9.48 -30.01,14.56 -30.87,15.46 -60.61,-3.28 -88.19,17.64 -58.42,44.1 -39.69,111.38 -39.69,185.21 0,79.38 39.69,121.29 39.69,200.66 0,175.3 -142.21,273.4 -308.68,328.51 -76.06,25.36 -105.84,70.55 -176.39,110.24 -45.19,25.37 -100.3,2.22 -123.47,48.51 -24.24,49.63 -17.64,97.01 -61.74,132.29 -34.15,68.37 -80.47,78.28 -114.65,141.11 -70.56,127.88 -114.66,212.8 -114.66,359.41 0,76.06 57.33,111.34 57.33,187.4 0,110.24 -101.42,141.11 -167.57,229.3 -62.83,84.92 -51.79,224.9 -158.75,224.9 -17.64,0 -26.46,-8.82 -44.1,-8.82 -40.78,0 -31.96,62.86 -66.14,83.78 -60.61,37.5 -105.84,78.29 -105.84,149.93 0,33.09 13.23,50.73 13.23,83.79 0,36.41 -20.92,74.96 -57.32,74.96 -45.19,0 -51.79,-66.14 -97.02,-66.14 -42.97,0 -62.83,38.59 -83.78,74.96 -16.51,-18.73 -18.73,-48.5 -44.1,-48.5 -63.92,0 -95.88,35.27 -159.84,35.27l-94.79 0c-67.28,0 -101.43,-39.68 -168.7,-39.68 -38.56,0 -41.88,46.32 -66.15,74.96 -29.74,34.19 -65.02,39.69 -110.24,39.69 -34.15,0 -54.01,-8.82 -88.2,-8.82 -89.28,0 -124.56,89.32 -145.52,176.39 -66.14,-49.6 -83.78,-125.66 -167.57,-136.7l0 -89.29c0,-49.6 -30.86,-74.97 -30.86,-124.57 0,-28.68 14.35,-51.82 -4.41,-72.77 -84.88,-90.39 -244.73,12.13 -304.27,-97.02 -67.24,38.6 -103.62,88.2 -181.9,88.2 -84.88,0 -133.38,-4.41 -218.26,-4.41 -41.91,0 -65.05,-6.6 -106.96,-13.23l0 -54.01c0,-120.16 30.87,-187.4 30.87,-307.59 0,-45.19 -26.46,-69.43 -26.46,-114.65 0,-78.25 49.63,-111.34 74.96,-185.21 35.28,-104.71 35.28,-174.17 35.28,-285.5l0 -129.01 26.46 -167.57 0 -437.66c0,-61.74 22.05,-95.92 22.05,-157.66 0,-48.5 -22.05,-74.96 -22.05,-123.47 0,-31.96 26.46,-47.38 26.46,-79.37 0,-108.02 -67.24,-153.22 -123.48,-246.95 93.74,0 140.02,-56.2 233.72,-52.91 48.51,1.12 88.19,-22.05 105.83,-66.15 16.55,-39.69 18.77,-92.6 61.74,-92.6 93.73,0 140.02,61.73 233.71,61.73 39.69,0 59.55,-24.23 88.2,-52.92 10.08,5.04 19.89,9.65 29.48,13.86l0 0z"/>
  <path class="fil3 str1" d="M1595.62 15579.11l3529.52 0 0 1592.86 -3529.52 0 0 -1592.86z"/>
  <path class="fil4" d="M1213.27 17072.68c0,-17.45 4.47,-34.48 13.46,-51.13 8.93,-16.61 21.77,-29.59 38.43,-38.86 16.69,-9.26 34.1,-13.92 52.16,-13.92 17.92,0 35.18,4.56 51.69,13.74 16.56,9.12 29.4,21.92 38.53,38.43 9.17,16.51 13.73,33.77 13.73,51.74 0,18.01 -4.56,35.27 -13.73,51.78 -9.13,16.51 -21.97,29.35 -38.53,38.53 -16.51,9.17 -33.77,13.78 -51.69,13.78 -18.06,0 -35.47,-4.66 -52.16,-13.97 -16.66,-9.36 -29.5,-22.34 -38.43,-38.95 -8.99,-16.65 -13.46,-33.68 -13.46,-51.17zm17.22 0c0,14.62 3.76,28.88 11.24,42.7 7.48,13.83 18.2,24.65 32.13,32.46 13.92,7.81 28.41,11.71 43.46,11.71 15,0 29.35,-3.85 43.08,-11.52 13.74,-7.67 24.46,-18.39 32.13,-32.17 7.67,-13.79 11.52,-28.18 11.52,-43.18 0,-14.96 -3.85,-29.36 -11.52,-43.14 -7.67,-13.78 -18.39,-24.5 -32.13,-32.12 -13.73,-7.62 -28.08,-11.43 -43.08,-11.43 -15.05,0 -29.54,3.9 -43.46,11.66 -13.93,7.76 -24.65,18.58 -32.13,32.46 -7.48,13.87 -11.24,28.08 -11.24,42.57zm103.57 -33.35l5.08 -16.94c11.53,2.78 20.7,8.61 27.52,17.55 6.87,8.98 10.3,19.85 10.3,32.59 0,16.19 -5.22,29.31 -15.71,39.42 -10.49,10.11 -24.98,15.15 -43.55,15.15 -12.14,0 -22.68,-2.31 -31.61,-6.92 -8.99,-4.56 -15.71,-11.15 -20.28,-19.61 -4.56,-8.52 -6.82,-18.25 -6.82,-29.16 0,-12.23 2.92,-22.39 8.8,-30.48 5.88,-8.09 13.88,-13.6 23.94,-16.56l4.23 16.37c-6.91,2.77 -12.23,6.82 -15.89,12.23 -3.72,5.41 -5.55,11.71 -5.55,19 0,10.58 3.76,19.33 11.28,26.2 7.53,6.87 18.35,10.3 32.37,10.3 14.06,0 24.69,-3.24 31.89,-9.74 7.19,-6.49 10.81,-14.86 10.81,-25.16 0,-8.28 -2.39,-15.57 -7.24,-21.83 -4.8,-6.25 -11.33,-10.39 -19.57,-12.41z"/>
  <path id="1" class="fil4" d="M1418.73 16777.52l-18.58 0c14.44,9.27 21.68,22.91 21.68,40.92 0,11.67 -3.19,22.39 -9.64,32.13 -6.4,9.78 -15.38,17.35 -26.86,22.76 -11.52,5.37 -24.74,8.05 -39.69,8.05 -14.59,0 -27.8,-2.45 -39.7,-7.29 -11.86,-4.9 -20.98,-12.19 -27.29,-21.92 -6.35,-9.69 -9.5,-20.61 -9.5,-32.6 0,-8.84 1.88,-16.7 5.6,-23.56 3.72,-6.87 8.61,-12.47 14.58,-16.8l-72.67 0 0 -24.83 202.07 0 0 23.14zm-73.05 78.46c18.72,0 32.69,-3.95 41.96,-11.9 9.26,-7.91 13.87,-17.27 13.87,-28.04 0,-10.86 -4.42,-20.08 -13.26,-27.7 -8.84,-7.57 -22.34,-11.38 -40.5,-11.38 -19.94,0 -34.62,3.85 -43.98,11.61 -9.36,7.72 -14.01,17.27 -14.01,28.6 0,11.06 4.46,20.27 13.45,27.71 8.98,7.38 23.14,11.1 42.47,11.1z"/>
  <path id="2" class="fil4" d="M1358.05 16724.98l-24.83 0 0 -76.76 24.83 0 0 76.76z"/>
  <path id="3" class="fil4" d="M1418.73 16621.12l-146.47 0 0 -22.29 20.69 0c-7.15,-4.56 -12.93,-10.68 -17.26,-18.3 -4.37,-7.62 -6.54,-16.27 -6.54,-26.01 0,-10.82 2.26,-19.71 6.73,-26.62 4.52,-6.92 10.77,-11.81 18.86,-14.63 -17.07,-11.67 -25.59,-26.77 -25.59,-45.39 0,-14.58 4,-25.83 12.04,-33.63 8.05,-7.86 20.42,-11.81 37.12,-11.81l100.42 0 0 24.84 -92.19 0c-9.88,0 -17.03,0.84 -21.4,2.44 -4.38,1.6 -7.86,4.52 -10.54,8.8 -2.68,4.23 -4,9.22 -4,14.91 0,10.35 3.44,18.91 10.26,25.73 6.86,6.82 17.82,10.2 32.87,10.2l85 0 0 24.84 -95.06 0c-11.01,0 -19.29,2.02 -24.79,6.07 -5.5,4.04 -8.28,10.67 -8.28,19.85 0,6.96 1.84,13.4 5.51,19.33 3.66,5.93 9.03,10.21 16.13,12.89 7.05,2.63 17.26,3.95 30.57,3.95l75.92 0 0 24.83z"/>
  <path id="4" class="fil4" d="M1400.39 16290.36c7.85,9.22 13.35,18.11 16.6,26.62 3.25,8.52 4.84,17.64 4.84,27.43 0,16.08 -3.9,28.45 -11.75,37.11 -7.81,8.65 -17.83,12.98 -30.01,12.98 -7.15,0 -13.69,-1.65 -19.62,-4.89 -5.93,-3.29 -10.63,-7.57 -14.2,-12.84 -3.58,-5.32 -6.31,-11.24 -8.14,-17.88 -1.27,-4.89 -2.49,-12.27 -3.72,-22.1 -2.35,-20.04 -5.22,-34.86 -8.51,-44.31 -3.39,-0.1 -5.55,-0.14 -6.44,-0.14 -10.07,0 -17.17,2.35 -21.31,7.05 -5.6,6.35 -8.37,15.81 -8.37,28.32 0,11.71 2.07,20.36 6.16,25.92 4.09,5.59 11.38,9.68 21.78,12.37l-3.39 24.27c-10.4,-2.21 -18.82,-5.84 -25.21,-10.92 -6.4,-5.08 -11.29,-12.41 -14.77,-22.01 -3.44,-9.55 -5.18,-20.7 -5.18,-33.3 0,-12.51 1.46,-22.72 4.42,-30.57 2.97,-7.81 6.64,-13.6 11.11,-17.27 4.46,-3.67 10.11,-6.25 16.93,-7.76 4.23,-0.8 11.85,-1.22 22.81,-1.22l32.93 0c23,0 37.53,-0.52 43.69,-1.55 6.17,-0.99 12.05,-3.06 17.69,-6.07l0 25.96c-5.22,2.5 -11.34,4.1 -18.34,4.8zm-55.04 1.98c3.67,9.03 6.78,22.57 9.32,40.64 1.45,10.25 3.1,17.49 4.93,21.73 1.84,4.23 4.52,7.48 8,9.78 3.53,2.31 7.43,3.48 11.76,3.48 6.54,0 12.04,-2.49 16.42,-7.52 4.37,-5.04 6.58,-12.38 6.58,-22.02 0,-9.55 -2.07,-18.06 -6.25,-25.54 -4.14,-7.43 -9.84,-12.93 -17.03,-16.41 -5.6,-2.69 -13.83,-4 -24.7,-4l-9.03 -0.14z"/>
  <path id="5" class="fil4" d="M1474.89 16229.07l-202.63 0 0 -22.57 19.24 0c-7.44,-5.32 -13.03,-11.34 -16.75,-18.07 -3.72,-6.68 -5.6,-14.81 -5.6,-24.36 0,-12.51 3.2,-23.52 9.65,-33.07 6.39,-9.55 15.47,-16.74 27.14,-21.63 11.71,-4.85 24.5,-7.3 38.47,-7.3 14.91,0 28.37,2.69 40.36,8.05 11.95,5.36 21.12,13.17 27.52,23.42 6.35,10.21 9.54,20.98 9.54,32.27 0,8.28 -1.74,15.71 -5.22,22.25 -3.48,6.58 -7.85,11.94 -13.17,16.18l71.45 0 0 24.83zm-128.5 -22.57c18.77,0 32.69,-3.81 41.67,-11.39 8.99,-7.62 13.45,-16.84 13.45,-27.65 0,-11.01 -4.65,-20.42 -13.97,-28.23 -9.31,-7.85 -23.7,-11.76 -43.22,-11.76 -18.63,0 -32.55,3.81 -41.82,11.48 -9.26,7.67 -13.87,16.79 -13.87,27.42 0,10.54 4.94,19.85 14.77,27.94 9.87,8.14 24.17,12.19 42.99,12.19z"/>
  <path id="6" class="fil4" d="M1374.99 16081.99l-3.96 -24.55c9.84,-1.37 17.36,-5.22 22.63,-11.53 5.22,-6.3 7.85,-15.14 7.85,-26.43 0,-11.43 -2.3,-19.9 -6.96,-25.45 -4.61,-5.5 -10.06,-8.28 -16.32,-8.28 -5.6,0 -10.02,2.5 -13.22,7.44 -2.21,3.48 -4.98,11.94 -8.42,25.4 -4.56,18.15 -8.51,30.71 -11.85,37.77 -3.39,7 -7.99,12.32 -13.92,15.94 -5.88,3.62 -12.42,5.46 -19.57,5.46 -6.54,0 -12.56,-1.51 -18.11,-4.47 -5.55,-3.01 -10.16,-7.06 -13.83,-12.18 -2.82,-3.86 -5.22,-9.13 -7.19,-15.76 -1.98,-6.68 -2.97,-13.78 -2.97,-21.4 0,-11.48 1.65,-21.54 4.99,-30.2 3.29,-8.7 7.81,-15.1 13.45,-19.24 5.69,-4.09 13.27,-6.96 22.77,-8.51l3.38 24.27c-7.62,1.08 -13.59,4.28 -17.87,9.55 -4.28,5.27 -6.4,12.7 -6.4,22.34 0,11.34 1.88,19.47 5.65,24.32 3.76,4.84 8.18,7.29 13.21,7.29 3.2,0 6.12,-0.99 8.71,-3.01 2.63,-2.02 4.84,-5.18 6.58,-9.5 0.94,-2.5 3.06,-9.74 6.35,-21.87 4.66,-17.5 8.52,-29.73 11.48,-36.69 2.96,-6.96 7.34,-12.42 12.98,-16.37 5.69,-4 12.75,-5.98 21.21,-5.98 8.24,0 16,2.4 23.29,7.25 7.29,4.84 12.93,11.8 16.93,20.88 4,9.13 5.97,19.43 5.97,30.91 0,19 -3.95,33.53 -11.8,43.5 -7.9,9.98 -19.57,16.33 -35.04,19.1z"/>
  <path id="7" class="fil4" d="M1418.73 15923.95l-28.22 0 0 -28.22 28.22 0 0 28.22z"/>
  <path id="8" class="fil4" d="M1365.11 15756.92l3.38 -24.27c16.7,2.68 29.73,9.45 39.19,20.41 9.45,10.96 14.15,24.46 14.15,40.41 0,19.99 -6.53,36.08 -19.61,48.21 -13.08,12.18 -31.8,18.25 -56.16,18.25 -15.81,0 -29.59,-2.63 -41.39,-7.85 -11.86,-5.22 -20.75,-13.17 -26.63,-23.9 -5.92,-10.68 -8.89,-22.29 -8.89,-34.9 0,-15.85 4,-28.88 12.04,-38.95 8.05,-10.11 19.48,-16.6 34.25,-19.42l3.67 23.99c-9.83,2.3 -17.22,6.35 -22.2,12.23 -4.94,5.83 -7.44,12.88 -7.44,21.16 0,12.51 4.47,22.67 13.41,30.53 8.98,7.81 23.09,11.71 42.47,11.71 19.66,0 33.92,-3.76 42.81,-11.29 8.89,-7.57 13.35,-17.4 13.35,-29.49 0,-9.78 -2.96,-17.92 -8.93,-24.41 -5.93,-6.54 -15.1,-10.68 -27.47,-12.42z"/>
  <path id="9" class="fil4" d="M1345.49 15720.8c-27.04,0 -47.08,-7.53 -60.11,-22.63 -10.82,-12.56 -16.23,-27.94 -16.23,-46.05 0,-20.08 6.59,-36.54 19.76,-49.34 13.12,-12.75 31.33,-19.14 54.51,-19.14 18.82,0 33.59,2.82 44.36,8.46 10.77,5.65 19.14,13.88 25.12,24.7 5.97,10.77 8.93,22.58 8.93,35.32 0,20.51 -6.53,37.07 -19.66,49.72 -13.12,12.65 -32.03,18.96 -56.68,18.96zm0.05 -25.4c18.72,0 32.74,-4.1 42,-12.28 9.32,-8.23 13.97,-18.53 13.97,-31 0,-12.32 -4.65,-22.57 -14.01,-30.81 -9.36,-8.18 -23.61,-12.27 -42.76,-12.27 -18.06,0 -31.75,4.14 -41.01,12.37 -9.32,8.23 -13.97,18.48 -13.97,30.71 0,12.47 4.61,22.77 13.87,31 9.27,8.18 23.24,12.28 41.91,12.28z"/>
  <path id="10" class="fil4" d="M1418.73 15554.52l-146.47 0 0 -22.29 20.69 0c-7.15,-4.56 -12.93,-10.68 -17.26,-18.3 -4.37,-7.62 -6.54,-16.27 -6.54,-26.01 0,-10.82 2.26,-19.71 6.73,-26.62 4.52,-6.92 10.77,-11.81 18.86,-14.63 -17.07,-11.67 -25.59,-26.77 -25.59,-45.39 0,-14.58 4,-25.83 12.04,-33.63 8.05,-7.86 20.42,-11.81 37.12,-11.81l100.42 0 0 24.84 -92.19 0c-9.88,0 -17.03,0.84 -21.4,2.44 -4.38,1.6 -7.86,4.52 -10.54,8.8 -2.68,4.23 -4,9.22 -4,14.91 0,10.35 3.44,18.91 10.26,25.73 6.86,6.82 17.82,10.2 32.87,10.2l85 0 0 24.84 -95.06 0c-11.01,0 -19.29,2.02 -24.79,6.07 -5.5,4.04 -8.28,10.67 -8.28,19.85 0,6.96 1.84,13.4 5.51,19.33 3.66,5.93 9.03,10.21 16.13,12.89 7.05,2.63 17.26,3.95 30.57,3.95l75.92 0 0 24.83z"/>
  <g id="_2414649233552">
   <g>
    <path class="fil5 str2" d="M1741.9 16185.4l648.92 0 0 99.16 -648.92 0 0 -99.16z"/>
    <path class="fil2 str2" d="M2390.82 16185.4l648.92 0 0 99.16 -648.92 0 0 -99.16z"/>
    <path class="fil5 str2" d="M3039.74 16185.4l648.92 0 0 99.16 -648.92 0 0 -99.16z"/>
    <path class="fil2 str2" d="M3688.81 16185.4l648.92 0 0 99.16 -648.92 0 0 -99.16z"/>
    <path class="fil5 str2" d="M4337.75 16185.4l648.92 0 0 99.16 -648.92 0 0 -99.16z"/>
    <path class="fil2 str2" d="M3819.93 16484.34l1037.89 0 0 99.16 -1037.89 0 0 -99.16z"/>
    <path class="fil5 str2" d="M2782.05 16484.34l1037.88 0 0 99.16 -1037.88 0 0 -99.16z"/>
    <path class="fil2 str2" d="M1744.17 16484.34l1037.89 0 0 99.16 -1037.89 0 0 -99.16z"/>
   </g>
   <path class="fil6" d="M2783.37 15791.91l57.09 -27.52 5.71 0 0 197.2c0,13.12 0.53,21.35 1.64,24.58 1.12,3.18 3.36,5.71 6.82,7.41 3.47,1.71 10.53,2.7 21.17,2.94l0 6.35 -88.19 0 0 -6.35c11.05,-0.24 18.16,-1.18 21.34,-2.88 3.23,-1.65 5.47,-3.88 6.76,-6.7 1.24,-2.83 1.88,-11.29 1.88,-25.35l0 -126.29c0,-16.99 -0.59,-27.93 -1.7,-32.75 -0.83,-3.7 -2.3,-6.41 -4.41,-8.11 -2.18,-1.71 -4.71,-2.59 -7.71,-2.59 -4.29,0 -10.23,1.76 -17.81,5.35l-2.59 -5.29z"/>
   <path id="1" class="fil6" d="M3594.07 15757.69l0 157.16 39.98 -36.63c8.52,-7.82 13.46,-12.76 14.81,-14.82 0.95,-1.41 1.42,-2.76 1.42,-4.17 0,-2.29 -1,-4.23 -2.89,-5.94 -1.88,-1.65 -4.99,-2.59 -9.4,-2.82l0 -5.65 68.61 0 0 5.65c-9.35,0.23 -17.17,1.7 -23.4,4.35 -6.23,2.7 -13.05,7.47 -20.52,14.29l-40.63 37.22 40.34 51.33c11.29,14.05 18.81,23.04 22.58,26.98 5.58,5.24 10.4,8.65 14.58,10.17 2.94,1.12 7.99,1.71 15.17,1.71l0 6.35 -76.73 0 0 -6.35c4.41,-0.12 7.35,-0.76 8.88,-1.94 1.58,-1.24 2.35,-2.88 2.35,-5.06 0,-2.64 -2.3,-6.88 -6.88,-12.7l-48.27 -61.79 0 52.21c0,10.23 0.7,16.93 2.11,20.17 1.47,3.17 3.47,5.46 6.12,6.88 2.64,1.35 8.35,2.11 17.17,2.23l0 6.35 -80.08 0 0 -6.35c7.99,0 14.05,-1 18.05,-2.94 2.41,-1.23 4.23,-3.17 5.46,-5.76 1.71,-3.76 2.59,-10.29 2.59,-19.52l0 -143.94c0,-18.05 -0.41,-29.1 -1.18,-33.16 -0.82,-4.05 -2.11,-6.82 -3.99,-8.35 -1.83,-1.58 -4.24,-2.35 -7.18,-2.35 -2.41,0 -6.05,1 -10.82,2.94l-2.93 -6.35 46.74 -19.4 7.94 0z"/>
   <path id="2" class="fil6" d="M3770.81 15873.99c11.41,-11.53 18.17,-18.17 20.22,-19.93 5.12,-4.36 10.65,-7.77 16.59,-10.18 5.93,-2.41 11.81,-3.64 17.63,-3.64 9.88,0 18.29,2.88 25.4,8.64 7.06,5.76 11.82,14.11 14.17,25.11 11.88,-13.88 21.88,-22.93 30.05,-27.28 8.17,-4.3 16.58,-6.47 25.22,-6.47 8.35,0 15.82,2.17 22.35,6.47 6.46,4.29 11.64,11.34 15.4,21.16 2.53,6.65 3.82,17.11 3.82,31.4l0 67.97c0,9.82 0.71,16.58 2.18,20.23 1.12,2.46 3.23,4.64 6.23,6.4 3.06,1.77 8,2.65 14.88,2.65l0 6.35 -77.26 0 0 -6.35 3.29 0c6.7,0 11.99,-1.29 15.76,-3.94 2.64,-1.82 4.52,-4.76 5.64,-8.76 0.47,-1.94 0.71,-7.47 0.71,-16.58l0 -67.91c0,-12.88 -1.53,-21.93 -4.65,-27.22 -4.52,-7.35 -11.7,-11.06 -21.63,-11.06 -6.06,0 -12.23,1.53 -18.41,4.59 -6.11,3 -13.58,8.7 -22.34,16.93l-0.35 1.94 0.7 7.41 0 75.32c0,10.7 0.59,17.4 1.77,20.05 1.23,2.59 3.46,4.82 6.76,6.58 3.29,1.77 8.93,2.65 16.87,2.65l0 6.35 -79.37 0 0 -6.35c8.64,0 14.58,-1 17.81,-3.06 3.24,-2.06 5.47,-5.17 6.7,-9.29 0.59,-1.94 0.89,-7.58 0.89,-16.93l0 -67.91c0,-12.88 -1.88,-22.17 -5.65,-27.87 -5.05,-7.41 -12.05,-11.11 -21.11,-11.11 -6.17,0 -12.28,1.7 -18.34,5.05 -9.47,5.06 -16.82,10.82 -21.93,17.17l0 84.67c0,10.29 0.7,16.93 2.12,20.05 1.41,3.06 3.52,5.35 6.35,6.94 2.76,1.53 8.4,2.29 16.93,2.29l0 6.35 -77.97 0 0 -6.35c7.24,0 12.29,-0.76 15.17,-2.29 2.89,-1.59 5.06,-4 6.59,-7.41 1.47,-3.35 2.23,-9.88 2.23,-19.58l0 -60.33c0,-17.28 -0.53,-28.45 -1.53,-33.51 -0.82,-3.82 -2.05,-6.41 -3.82,-7.82 -1.7,-1.47 -4.05,-2.18 -6.99,-2.18 -3.24,0 -7.06,0.89 -11.53,2.59l-2.58 -6.35 47.62 -19.4 7.41 0 0 33.75z"/>
   <path id="3" class="fil6" d="M2931.54 15887.28c0,-26.64 4,-49.51 12.05,-68.74 8.06,-19.22 18.7,-33.57 32.05,-42.98 10.29,-7.47 20.99,-11.17 31.98,-11.17 17.94,0 33.99,9.11 48.22,27.34 17.81,22.64 26.69,53.27 26.69,91.96 0,27.05 -3.88,50.09 -11.7,69.03 -7.82,18.93 -17.76,32.63 -29.87,41.21 -12.11,8.53 -23.81,12.82 -35.04,12.82 -22.29,0 -40.81,-13.11 -55.62,-39.39 -12.53,-22.17 -18.76,-48.86 -18.76,-80.08zm33.87 4.23c0,32.1 3.94,58.33 11.82,78.67 6.52,17.11 16.28,25.63 29.22,25.63 6.17,0 12.58,-2.76 19.22,-8.34 6.65,-5.59 11.65,-14.88 15.11,-27.99 5.24,-19.7 7.88,-47.57 7.88,-83.43 0,-26.64 -2.76,-48.86 -8.23,-66.62 -4.11,-13.23 -9.46,-22.58 -15.99,-28.05 -4.65,-3.82 -10.35,-5.7 -16.99,-5.7 -7.76,0 -14.7,3.53 -20.76,10.52 -8.23,9.53 -13.87,24.46 -16.81,44.92 -3,20.41 -4.47,40.52 -4.47,60.39z"/>
   <path id="4" class="fil6" d="M3107.93 15887.28c0,-26.64 4,-49.51 12.05,-68.74 8.06,-19.22 18.7,-33.57 32.05,-42.98 10.29,-7.47 20.99,-11.17 31.98,-11.17 17.94,0 33.99,9.11 48.22,27.34 17.81,22.64 26.69,53.27 26.69,91.96 0,27.05 -3.88,50.09 -11.7,69.03 -7.82,18.93 -17.76,32.63 -29.87,41.21 -12.11,8.53 -23.81,12.82 -35.04,12.82 -22.29,0 -40.81,-13.11 -55.62,-39.39 -12.53,-22.17 -18.76,-48.86 -18.76,-80.08zm33.87 4.23c0,32.1 3.94,58.33 11.82,78.67 6.52,17.11 16.28,25.63 29.22,25.63 6.17,0 12.58,-2.76 19.22,-8.34 6.65,-5.59 11.65,-14.88 15.11,-27.99 5.24,-19.7 7.88,-47.57 7.88,-83.43 0,-26.64 -2.76,-48.86 -8.23,-66.62 -4.11,-13.23 -9.46,-22.58 -15.99,-28.05 -4.65,-3.82 -10.35,-5.7 -16.99,-5.7 -7.76,0 -14.7,3.53 -20.76,10.52 -8.23,9.53 -13.87,24.46 -16.81,44.92 -3,20.41 -4.47,40.52 -4.47,60.39z"/>
   <path id="5" class="fil6" d="M3284.32 15887.28c0,-26.64 4,-49.51 12.05,-68.74 8.06,-19.22 18.7,-33.57 32.05,-42.98 10.29,-7.47 20.99,-11.17 31.98,-11.17 17.94,0 33.99,9.11 48.22,27.34 17.81,22.64 26.69,53.27 26.69,91.96 0,27.05 -3.88,50.09 -11.7,69.03 -7.82,18.93 -17.76,32.63 -29.87,41.21 -12.11,8.53 -23.81,12.82 -35.04,12.82 -22.29,0 -40.81,-13.11 -55.62,-39.39 -12.53,-22.17 -18.76,-48.86 -18.76,-80.08zm33.87 4.23c0,32.1 3.94,58.33 11.82,78.67 6.52,17.11 16.28,25.63 29.22,25.63 6.17,0 12.58,-2.76 19.22,-8.34 6.65,-5.59 11.65,-14.88 15.11,-27.99 5.24,-19.7 7.88,-47.57 7.88,-83.43 0,-26.64 -2.76,-48.86 -8.23,-66.62 -4.11,-13.23 -9.46,-22.58 -15.99,-28.05 -4.65,-3.82 -10.35,-5.7 -16.99,-5.7 -7.76,0 -14.7,3.53 -20.76,10.52 -8.23,9.53 -13.87,24.46 -16.81,44.92 -3,20.41 -4.47,40.52 -4.47,60.39z"/>
   <path class="fil6" d="M3003.89 16734.18l0 6.7c-15.12,1.47 -27.46,4.47 -37.05,9 -9.58,4.53 -19.05,11.41 -28.34,20.7 -9.35,9.23 -17.11,19.58 -23.22,30.92 -6.12,11.41 -11.23,24.93 -15.35,40.57 16.47,-11.23 32.99,-16.87 49.63,-16.87 15.93,0 29.69,6.41 41.39,19.28 11.7,12.82 17.52,29.34 17.52,49.51 0,19.46 -5.88,37.28 -17.7,53.33 -14.23,19.46 -33.04,29.22 -56.44,29.22 -15.93,0 -29.52,-5.29 -40.63,-15.82 -21.81,-20.57 -32.69,-47.21 -32.69,-79.9 0,-20.87 4.17,-40.75 12.58,-59.56 8.35,-18.82 20.35,-35.51 35.87,-50.1 15.58,-14.52 30.45,-24.34 44.68,-29.39 14.23,-5.06 27.46,-7.59 39.75,-7.59l10 0zm-106.9 120.48c-2.11,15.52 -3.17,28.04 -3.17,37.57 0,11.05 2.06,22.99 6.11,35.92 4.06,12.94 10.12,23.17 18.11,30.75 5.82,5.41 12.94,8.12 21.29,8.12 9.93,0 18.87,-4.71 26.69,-14.12 7.82,-9.46 11.76,-22.87 11.76,-40.33 0,-19.64 -3.88,-36.63 -11.64,-51.04 -7.82,-14.34 -18.82,-21.52 -33.1,-21.52 -4.36,0 -9.06,0.95 -14,2.77 -5,1.82 -12.35,5.82 -22.05,11.88z"/>
   <path id="1" class="fil6" d="M3034.93 16857.07c0,-26.64 4,-49.51 12.05,-68.74 8.06,-19.22 18.7,-33.57 32.05,-42.98 10.29,-7.47 20.99,-11.17 31.98,-11.17 17.94,0 33.99,9.11 48.22,27.34 17.81,22.64 26.69,53.27 26.69,91.96 0,27.05 -3.88,50.09 -11.7,69.03 -7.82,18.93 -17.76,32.63 -29.87,41.21 -12.11,8.53 -23.81,12.82 -35.04,12.82 -22.29,0 -40.81,-13.11 -55.62,-39.39 -12.53,-22.17 -18.76,-48.86 -18.76,-80.08zm33.87 4.23c0,32.1 3.94,58.33 11.82,78.67 6.52,17.11 16.28,25.63 29.22,25.63 6.17,0 12.58,-2.76 19.22,-8.34 6.65,-5.59 11.65,-14.88 15.11,-27.99 5.24,-19.7 7.88,-47.57 7.88,-83.43 0,-26.64 -2.76,-48.86 -8.23,-66.62 -4.11,-13.23 -9.46,-22.58 -15.99,-28.05 -4.65,-3.82 -10.35,-5.7 -16.99,-5.7 -7.76,0 -14.7,3.53 -20.76,10.52 -8.23,9.53 -13.87,24.46 -16.81,44.92 -3,20.41 -4.47,40.52 -4.47,60.39z"/>
   <path id="2" class="fil6" d="M3211.32 16857.07c0,-26.64 4,-49.51 12.05,-68.74 8.06,-19.22 18.7,-33.57 32.05,-42.98 10.29,-7.47 20.99,-11.17 31.98,-11.17 17.94,0 33.99,9.11 48.22,27.34 17.81,22.64 26.69,53.27 26.69,91.96 0,27.05 -3.88,50.09 -11.7,69.03 -7.82,18.93 -17.76,32.63 -29.87,41.21 -12.11,8.53 -23.81,12.82 -35.04,12.82 -22.29,0 -40.81,-13.11 -55.62,-39.39 -12.53,-22.17 -18.76,-48.86 -18.76,-80.08zm33.87 4.23c0,32.1 3.94,58.33 11.82,78.67 6.52,17.11 16.28,25.63 29.22,25.63 6.17,0 12.58,-2.76 19.22,-8.34 6.65,-5.59 11.65,-14.88 15.11,-27.99 5.24,-19.7 7.88,-47.57 7.88,-83.43 0,-26.64 -2.76,-48.86 -8.23,-66.62 -4.11,-13.23 -9.46,-22.58 -15.99,-28.05 -4.65,-3.82 -10.35,-5.7 -16.99,-5.7 -7.76,0 -14.7,3.53 -20.76,10.52 -8.23,9.53 -13.87,24.46 -16.81,44.92 -3,20.41 -4.47,40.52 -4.47,60.39z"/>
   <path id="3" class="fil6" d="M3521.42 16843.78c11.41,-11.53 18.17,-18.17 20.22,-19.93 5.12,-4.36 10.65,-7.77 16.59,-10.18 5.93,-2.41 11.81,-3.64 17.63,-3.64 9.88,0 18.29,2.88 25.4,8.64 7.06,5.76 11.82,14.11 14.17,25.11 11.88,-13.88 21.88,-22.93 30.05,-27.28 8.17,-4.3 16.58,-6.47 25.22,-6.47 8.35,0 15.82,2.17 22.35,6.47 6.46,4.29 11.64,11.34 15.4,21.16 2.53,6.65 3.82,17.11 3.82,31.4l0 67.97c0,9.82 0.71,16.58 2.18,20.23 1.12,2.46 3.23,4.64 6.23,6.4 3.06,1.77 8,2.65 14.88,2.65l0 6.35 -77.26 0 0 -6.35 3.29 0c6.7,0 11.99,-1.29 15.76,-3.94 2.64,-1.82 4.52,-4.76 5.64,-8.76 0.47,-1.94 0.71,-7.47 0.71,-16.58l0 -67.91c0,-12.88 -1.53,-21.93 -4.65,-27.22 -4.52,-7.35 -11.7,-11.06 -21.63,-11.06 -6.06,0 -12.23,1.53 -18.41,4.59 -6.11,3 -13.58,8.7 -22.34,16.93l-0.35 1.94 0.7 7.41 0 75.32c0,10.7 0.59,17.4 1.77,20.05 1.23,2.59 3.46,4.82 6.76,6.58 3.29,1.77 8.93,2.65 16.87,2.65l0 6.35 -79.37 0 0 -6.35c8.64,0 14.58,-1 17.81,-3.06 3.24,-2.06 5.47,-5.17 6.7,-9.29 0.59,-1.94 0.89,-7.58 0.89,-16.93l0 -67.91c0,-12.88 -1.88,-22.17 -5.65,-27.87 -5.05,-7.41 -12.05,-11.11 -21.11,-11.11 -6.17,0 -12.28,1.7 -18.34,5.05 -9.47,5.06 -16.82,10.82 -21.93,17.17l0 84.67c0,10.29 0.7,16.93 2.12,20.05 1.41,3.06 3.52,5.35 6.35,6.94 2.76,1.53 8.4,2.29 16.93,2.29l0 6.35 -77.97 0 0 -6.35c7.24,0 12.29,-0.76 15.17,-2.29 2.89,-1.59 5.06,-4 6.59,-7.41 1.47,-3.35 2.23,-9.88 2.23,-19.58l0 -60.33c0,-17.28 -0.53,-28.45 -1.53,-33.51 -0.82,-3.82 -2.05,-6.41 -3.82,-7.82 -1.7,-1.47 -4.05,-2.18 -6.99,-2.18 -3.24,0 -7.06,0.89 -11.53,2.59l-2.58 -6.35 47.62 -19.4 7.41 0 0 33.75z"/>
   <path id="4" class="fil6" d="M3789.06 16727.48c4.76,0 8.88,1.7 12.29,5.05 3.35,3.41 5.05,7.53 5.05,12.29 0,4.82 -1.7,9 -5.05,12.41 -3.41,3.47 -7.53,5.17 -12.29,5.17 -4.82,0 -9,-1.7 -12.41,-5.17 -3.47,-3.41 -5.17,-7.59 -5.17,-12.41 0,-4.76 1.7,-8.88 5.05,-12.29 3.41,-3.35 7.59,-5.05 12.53,-5.05zm14.17 82.55l0 127c0,9.82 0.7,16.34 2.17,19.58 1.41,3.29 3.53,5.7 6.35,7.29 2.82,1.59 8,2.41 15.47,2.41l0 6.35 -76.56 0 0 -6.35c7.65,0 12.82,-0.76 15.41,-2.23 2.64,-1.47 4.7,-3.94 6.29,-7.35 1.53,-3.41 2.29,-10 2.29,-19.7l0 -61.03c0,-16.99 -0.53,-27.99 -1.53,-33.05 -0.82,-3.64 -2.05,-6.17 -3.82,-7.58 -1.7,-1.47 -4.06,-2.18 -7,-2.18 -3.23,0 -7.11,0.89 -11.7,2.59l-2.41 -6.35 47.45 -19.4 7.59 0z"/>
  </g>
  <path class="fil7 str3" d="M994.31 1014.65l27246.3 0 0 16388.01 -27246.3 0 0 -16388.01z"/>
  <g id="_2414649199440">
   <path class="fil3 str1" d="M5275.69 15575.9l815.93 0 0 1592.89 -815.93 0 0 -1592.89z"/>
   <path class="fil8" d="M5623.79 16012.03c-0.92,3.32 -1.63,6.35 -2.07,9.15 -0.44,2.79 -0.65,5.18 -0.65,7.22 0,5.59 1.8,9.56 5.29,11.89 3.49,2.33 9.55,3.49 18.05,3.49l4.15 0 -4.96 22.72 -78.17 0 5.29 -22.72 2.89 0c7.36,0 12.82,-1.51 16.48,-4.54 3.6,-2.97 6.32,-8.39 8.12,-16.14l37.59 -153.79c0.6,-2.74 1.14,-5.54 1.52,-8.45 0.33,-2.91 0.55,-5.77 0.55,-8.62 0,-5.36 -1.96,-9.15 -5.95,-11.36 -3.92,-2.22 -10.69,-3.32 -20.23,-3.32l-3.06 0 5.29 -22.72 72.33 0 62.14 183.5 31.31 -129.03c1.08,-4.2 1.85,-7.63 2.34,-10.31 0.49,-2.68 0.71,-4.72 0.71,-6.06 0,-5.6 -1.8,-9.56 -5.35,-11.89 -3.6,-2.33 -9.71,-3.49 -18.32,-3.49l-4.15 0 4.96 -22.72 78.5 0 -5.62 22.72 -2.84 0c-7.37,0 -12.87,1.51 -16.47,4.54 -3.66,2.97 -6.33,8.33 -8.18,15.96l-50.68 208.44 -21.54 0 -72.06 -209.48 -37.21 155.01z"/>
   <path class="fil9 str4" d="M5684.48 17035.59l0 -769.27"/>
   <path class="fil9 str4" d="M5402.43 16759.54l563.14 0"/>
   <path class="fil9 str4" d="M5539.58 16899.53l294.22 -286.81"/>
   <path class="fil9 str4" d="M5536.44 16612.48l297.98 288.85"/>
   <path class="fil9 str4" d="M5684.34 16269.05l-95.47 118.01"/>
   <path class="fil9 str4" d="M5684.96 16269.01l87.89 118.05"/>
  </g>
 </g>
</svg>
