<?xml version="1.0" encoding="UTF-8"?>
<!DOCTYPE svg PUBLIC "-//W3C//DTD SVG 1.1//EN" "http://www.w3.org/Graphics/SVG/1.1/DTD/svg11.dtd">
<!-- Creator: CorelDRAW -->
<svg xmlns="http://www.w3.org/2000/svg" xml:space="preserve" width="210mm" height="297mm" version="1.1" style="shape-rendering:geometricPrecision; text-rendering:geometricPrecision; image-rendering:optimizeQuality; fill-rule:evenodd; clip-rule:evenodd"
viewBox="0 0 21000 29700"
 xmlns:xlink="http://www.w3.org/1999/xlink">
 <defs>
  <style type="text/css">
   <![CDATA[
    .str1 {stroke:black;stroke-width:10;stroke-miterlimit:3.864;stroke-opacity:0.501961}
    .str3 {stroke:black;stroke-width:50;stroke-miterlimit:22.9256}
    .str2 {stroke:#3F3E3F;stroke-width:10;stroke-miterlimit:3.864}
    .str0 {stroke:#000066;stroke-width:10;stroke-miterlimit:22.9256}
    .str4 {stroke:black;stroke-width:7.62;stroke-miterlimit:22.9256}
    .fil7 {fill:none}
    .fil0 {fill:#FEFEFE}
    .fil6 {fill:#FEFEFE;fill-rule:nonzero}
    .fil5 {fill:#D9DADA;fill-rule:nonzero}
    .fil8 {fill:#434242;fill-rule:nonzero}
    .fil4 {fill:#2B2A29;fill-rule:nonzero}
    .fil3 {fill:black;fill-rule:nonzero}
    .fil1 {fill:white;fill-rule:nonzero}
    .fil2 {fill:#FEFEFE;fill-rule:nonzero;fill-opacity:0.501961}
   ]]>
  </style>
 </defs>
 <g id="Plan_x0020_1">
  <metadata id="CorelCorpID_0Corel-Layer"/>
  <rect class="fil0" x="1128.93" y="1009.6" width="18830.62" height="25384.71"/>
  <path class="fil1 str0" d="M11436.06 6580.52c44.64,2.9 70.58,0 115.27,0 2.86,23.03 0,35.98 5.76,57.58 5.76,18.75 21.56,28.8 28.75,46.13 11.56,28.79 11.56,48.97 11.56,80.62 0,14.37 -17.32,20.13 -17.32,34.55 0,10.09 11.56,12.99 11.56,23.03 35.98,2.91 57.59,15.85 92.14,23.04 57.64,11.56 99.38,14.43 144.02,51.88 30.28,25.89 46.07,46.07 74.92,74.86 -5.76,7.19 -4.33,18.75 -11.52,23.04 -77.77,48.98 -145.49,28.79 -230.45,63.34 28.79,33.14 48.98,48.98 80.67,80.68 21.56,21.6 51.83,31.65 51.83,63.34 0,56.17 -51.83,84.96 -103.71,103.71 -30.22,10.05 -47.5,23.04 -80.62,23.04 -33.12,0 -48.93,-21.61 -80.62,-28.84 -15.9,-2.86 -28.85,1.47 -46.13,0 -23.07,-2.86 -25.93,-27.32 -46.11,-34.55 -11.47,-4.29 -21.56,0 -34.56,0 -40.27,0 -63.35,14.42 -103.66,17.27 -23.09,-17.27 -38.88,-47.49 -51.88,-74.87 -15.79,7.2 -44.64,17.29 -63.34,17.29 -77.77,0 -69.11,-108 -138.27,-144.02 -34.55,-17.23 -59.06,-20.14 -92.13,-40.31 -30.28,-18.72 -40.37,-41.75 -69.16,-63.36 -15.85,-11.52 -25.94,-28.79 -46.12,-28.79 -33.07,0 -40.32,41.78 -40.32,74.86 0,33.12 14.43,51.88 28.85,80.68 54.69,109.42 139.65,154.06 149.74,276.46l-115.23 547.2c18.75,152.68 47.6,236.22 80.72,385.94 12.89,60.5 28.75,93.62 28.75,155.54 0,54.74 -30.22,90.72 -74.87,120.94 -15.85,10.09 -33.13,14.42 -46.12,28.84 -25.89,28.79 -28.75,56.11 -46.02,92.15 -38.94,77.76 -50.46,131.03 -92.2,207.36 -14.41,25.94 -31.69,40.31 -40.35,69.1 -66.21,-37.4 -74.87,-97.89 -103.67,-167.01 -38.88,-96.51 -64.81,-154.09 -97.95,-253.47 -31.69,-95.05 -69.1,-145.45 -120.93,-230.36 -21.6,-34.61 -36.02,-56.21 -63.4,-86.43 -5.76,-7.19 -4.33,-18.71 -11.52,-23.04 -35.98,-24.52 -70.57,-17.33 -115.22,-17.33 -27.37,0 -43.17,13 -69.11,17.33 -15.84,1.43 -33.12,-8.66 -46.11,0 -7.14,4.33 -5.77,15.85 -11.53,23.04 -18.7,23.03 -31.65,41.73 -46.07,69.1 -24.5,46.12 -44.64,73.44 -74.86,115.23 -25.95,34.55 -44.69,53.25 -63.4,92.13 -12.94,25.95 -8.66,54.74 -34.55,69.12 -7.19,2.9 -15.85,-5.76 -23.03,-5.76 -15.85,1.47 -30.27,1.47 -46.07,5.76 -36.04,10.09 -54.74,31.69 -92.2,40.35 -5.8,-17.27 -14.42,-28.79 -17.32,-46.11 -4.28,-25.89 7.28,-43.17 0,-69.1 -4.28,-18.72 -28.75,-25.89 -28.75,-46.08 0,-30.22 22.99,-46.07 40.27,-69.11 24.51,-33.16 34.6,-59.07 57.63,-92.19 31.71,-43.21 77.77,-57.59 86.44,-109.47 8.61,-51.78 -4.34,-87.81 11.51,-138.2 20.18,-60.5 46.07,-95.05 46.07,-159.83l0 -141.16c0,-66.26 -23.03,-103.67 -57.58,-159.82 -21.61,-35.98 -36.03,-60.49 -63.35,-92.2 -18.76,-21.56 -46.12,-33.08 -46.12,-63.34 0,-10.09 10.1,-14.38 11.51,-23.04 11.52,-48.98 34.61,-76.3 34.61,-126.74 0,-40.31 -47.55,-50.4 -86.48,-57.59 -37.41,-7.18 -59.01,-17.27 -92.09,-34.56 -44.7,-23.02 -66.3,-54.73 -115.27,-69.1 -41.75,-11.52 -70.59,-2.9 -115.19,0 -66.3,4.33 -97.95,-34.55 -161.34,-51.87 -25.89,-7.19 -41.75,-7.19 -69.11,-11.48 -44.6,-7.23 -72.01,8.62 -115.23,0 -44.64,-8.66 -57.59,-57.64 -103.65,-57.64 -37.5,0 -57.59,14.38 -92.2,28.79 -37.41,14.43 -63.34,30.28 -86.38,63.36 -37.45,54.73 -33.18,100.8 -63.4,161.3 51.84,21.6 87.87,21.6 138.27,46.11 -50.4,50.35 -86.43,86.39 -155.54,103.67 -20.18,20.17 -23.04,47.49 -23.04,76.33l0 181.43c0,54.74 0,87.86 -17.27,139.69 -48.97,-2.9 -89.28,-5.76 -115.23,-46.07 -40.31,-60.49 -34.6,-110.9 -34.6,-184.33l-56.15 0c-27.32,0 -34.57,28.79 -47.51,51.83 -14.38,25.93 -27.37,43.21 -40.31,69.1 -27.37,56.17 -50.4,92.19 -103.71,126.76 -15.85,10.07 -34.55,8.6 -46.07,23.02 -21.61,25.95 -11.52,57.64 -17.28,92.15 -5.76,36.02 -12.94,59.07 -28.79,92.19 -11.56,24.46 -28.85,40.31 -28.85,69.1 0,10.09 11.53,12.95 11.53,23.04 5.76,54.74 17.32,84.96 17.32,139.69l0 112.32c0,96.53 -51.88,146.93 -51.88,243.35 0,87.86 41.79,131.07 51.88,218.94 11.52,93.56 2.86,164.15 69.1,230.4 38.88,38.88 70.59,54.68 103.67,97.89 61.96,80.68 44.68,154.11 69.19,253.45 10,44.64 28.75,70.57 28.75,116.65l0 141.12c0,63.39 -12.95,99.37 -17.22,162.73 -1.53,28.79 2.86,46.07 0,74.9 -4.39,46.07 -23.09,69.12 -28.85,115.19 -5.76,54.73 -17.28,84.95 -28.79,138.26 -8.66,37.41 -5.76,61.91 -17.32,97.89 -21.56,66.26 -46.03,100.81 -80.63,161.3 -14.42,25.89 -20.18,44.64 -34.56,69.16 -30.22,48.93 -67.67,60.44 -115.22,92.14 -84.95,57.58 -139.68,103.66 -241.92,103.66 -36.04,0 -54.74,-24.46 -80.68,-46.08 -56.15,-47.54 -76.29,-92.18 -115.21,-155.52 -37.47,-60.5 -64.83,-95.05 -92.15,-161.26 -17.28,-41.79 -40.37,-67.73 -40.37,-113.79l0 -164.16c0,-72 0,-110.89 -5.76,-182.9 -7.17,-89.25 -70.53,-125.27 -103.7,-207.32 -5.75,-15.86 -4.28,-30.28 -5.75,-46.12 -5.76,-34.56 -11.48,-57.59 -17.23,-92.14 -15.91,-97.95 -40.37,-154.11 -40.37,-253.45 0,-76.33 33.13,-113.74 63.35,-184.33 8.66,-21.6 23.08,-33.12 23.08,-57.63 0,-33.09 -11.51,-50.35 -23.08,-80.63 -10.04,-43.17 -17.23,-82.09 -17.23,-126.7 0,-76.33 23.04,-120.97 51.83,-190.09 14.42,-34.55 34.55,-53.3 34.55,-92.18 0,-46.08 -23.03,-69.11 -23.03,-115.18 0,-73.44 25.89,-115.23 46.08,-184.33 23.03,-80.68 37.45,-129.61 69.15,-207.37 7.18,-17.27 18.7,-27.36 23.03,-46.08 15.85,-56.16 -2.86,-93.61 11.52,-149.78 1.43,-10.09 15.86,-12.93 17.27,-23.03 7.19,-25.94 4.33,-41.79 5.76,-69.15 -66.24,27.36 -120.97,43.21 -149.78,109.47 -30.22,70.58 -23.03,119.5 -63.34,184.33 -8.66,15.85 -15.85,31.69 -28.79,46.07 -13.01,14.42 -33.13,14.42 -46.13,28.79 -25.94,28.84 -30.22,59.06 -51.87,92.19 -50.36,74.87 -79.19,126.69 -161.25,167l0 -47.48c0,-63.36 15.84,-100.81 34.55,-159.88 11.57,-34.55 14.43,-59.02 28.85,-92.14 24.46,-56.17 57.58,-86.39 57.58,-148.3l0 -106.57c0,-66.25 31.65,-103.7 63.35,-159.87 41.79,-72 60.5,-115.17 97.9,-190.09 27.41,-54.73 43.26,-86.38 74.91,-138.22 14.38,-24.5 30.22,-40.35 34.55,-69.14 10.1,-61.93 -10.09,-97.91 0,-161.3l23.09 5.76c14.38,37.45 11.52,74.92 46.07,97.95 23.04,14.42 41.74,20.18 69.16,28.79 14.32,-61.92 64.77,-97.9 128.12,-97.9 8.67,0 12.94,5.76 21.6,5.76 -2.9,17.27 -4.33,31.64 -11.46,46.06 -8.67,17.29 -28.85,25.95 -28.85,46.08 0,35.98 23.08,56.16 51.83,74.91 34.61,-53.3 53.31,-89.28 86.44,-144.02 17.27,-28.79 40.32,-40.31 57.64,-69.1 25.93,-41.79 46.02,-74.92 92.14,-92.2 15.84,-5.76 30.26,0 46.06,-5.76 28.81,-10.08 43.23,-30.22 69.16,-46.06 57.59,-36.03 89.28,-60.49 138.22,-109.47 24.51,-24.47 38.93,-38.84 63.39,-63.35 7.19,-7.18 4.33,-18.7 11.56,-23.03 21.56,-14.42 41.71,-11.52 69.12,-11.52 71.96,0 113.75,11.52 184.33,23.03 8.61,1.43 14.37,10.09 23.03,11.52 34.55,7.19 59.01,5.76 92.19,17.28 40.31,14.42 48.97,63.34 92.14,63.34 20.19,0 25.95,-23.03 34.61,-40.31 12.94,-23.03 12.94,-43.21 17.23,-69.1 4.37,-25.89 11.52,-41.74 11.52,-69.1l63.39 0 167.05 57.58c24.52,-15.86 38.88,-30.22 57.64,-51.88 14.38,-15.8 28.75,-28.79 28.75,-51.78 0,-23.08 -25.89,-25.94 -46.02,-34.6 -27.42,-11.52 -43.27,-20.13 -69.16,-34.55 -54.73,-30.22 -63.39,-79.2 -115.17,-115.23 -8.66,-5.76 -5.76,-22.99 -17.34,-22.99 -18.7,0 -28.79,11.47 -46.06,17.23 -25.94,8.66 -44.64,8.66 -69.16,17.32 -73.48,27.32 -116.65,57.59 -195.85,57.59 -43.21,0 -64.82,-25.94 -97.9,-51.83 -28.85,-23.08 -63.4,-36.02 -63.4,-73.43l0 -141.17c0,-27.32 12.95,-43.16 23.04,-67.68l-23.04 5.76c-76.33,37.46 -112.31,72.01 -190.13,103.71 -41.74,15.85 -71.96,18.7 -115.18,34.55 -56.16,20.13 -82.11,50.41 -138.27,69.16 -82.09,27.32 -138.26,37.41 -207.36,92.14 -25.94,20.13 -31.7,44.65 -51.87,69.11 -27.38,31.69 -54.7,43.21 -92.2,63.34 -30.17,15.85 -46.02,34.56 -80.63,46.12l-195.85 -51.87 -115.22 28.83c-92.2,-14.42 -141.11,-59.06 -201.61,-126.74 -20.18,-23.04 -31.7,-41.74 -57.59,-57.59 -87.9,-54.73 -149.82,-67.67 -253.53,-80.66 -22.99,-2.86 -34.51,-11.53 -57.54,-11.53 -59.07,0 -73.45,56.17 -126.79,80.63 -8.62,2.9 -17.29,-1.43 -25.89,0 -1.49,-27.32 0,-43.17 0,-70.53 0,-72.02 4.27,-119.51 37.45,-182.91 12.95,-25.89 43.17,-27.32 69.1,-40.31 50.4,-24.47 76.29,-48.97 109.47,-92.14 24.47,-31.71 25.94,-57.6 46.07,-92.15 18.76,-33.17 31.65,-53.3 34.55,-92.18l-44.64 0c-10.04,0 -15.84,10.09 -24.46,11.5 -44.7,12.96 -70.59,27.38 -115.23,40.33 -34.59,10.08 -57.58,14.41 -92.18,28.79 -96.48,41.78 -131.03,103.71 -213.13,167.05 -15.85,11.52 -30.27,17.28 -46.07,28.8 -54.73,38.88 -69.15,82.1 -109.47,138.26 -5.76,8.66 -18.71,8.66 -23.04,17.27 -4.33,7.19 -2.9,17.28 -5.76,23.04 -54.72,79.2 -156.96,61.91 -195.84,149.78 -24.51,54.68 -44.7,100.81 -103.71,115.18 -34.6,8.66 -59.02,-12.95 -92.2,0 -18.7,7.19 -27.36,21.61 -40.31,34.6 -38.88,38.83 -59.06,70.54 -97.95,109.42 -23.02,23.03 -33.08,48.97 -63.34,57.59 -15.85,4.33 -30.27,2.9 -46.07,5.76 -73.49,17.27 -115.27,40.35 -190.15,51.82 -86.38,14.42 -146.86,-20.13 -226.11,17.33l0 -164.19c0,-18.72 7.23,-31.65 1.47,-48.94 -5.76,-18.75 -18.7,-28.79 -28.79,-46.11 -102.28,50.39 -175.72,47.54 -276.57,97.95 -103.61,51.82 -172.81,80.62 -289.47,80.62 -30.18,0 -48.93,-4.33 -79.19,0l0 -46.07c21.6,-37.45 44.68,-50.41 74.91,-80.63 40.32,-40.36 53.31,-70.58 97.9,-103.7 5.76,-4.29 17.28,-2.86 23.04,-5.76 18.75,-12.96 18.75,-30.22 34.59,-46.08 44.64,-44.64 76.35,-70.58 115.23,-120.93 59.03,-76.35 67.69,-142.59 138.26,-207.42 48.97,-44.6 79.19,-74.86 115.17,-132.45 20.19,-33.13 25.95,-63.4 57.65,-86.43 15.8,-11.52 28.83,-14.38 46.08,-23.04 46.11,-25.89 69.1,-48.92 115.21,-74.87 74.86,-43.21 126.75,-57.59 207.38,-92.18 20.18,-8.62 25.93,-24.47 46.11,-34.55 84.95,-41.74 118.03,-93.58 190.09,-155.54 44.64,-37.42 63.36,-66.21 103.71,-109.43 27.37,-30.22 48.93,-48.97 69.11,-86.37 4.33,-8.68 11.51,-11.52 11.51,-21.62l0 -118.08c0,-40.32 24.52,-59.06 34.61,-96.47 7.13,-27.37 11.52,-47.55 28.75,-69.15 28.84,-35.98 59.06,-41.75 92.18,-74.87l23.03 5.75c8.68,73.45 17.28,113.76 34.61,184.35l23.04 5.74c24.46,-17.27 44.64,-28.83 51.82,-57.63 7.19,-25.89 -1.42,-41.74 0,-69.1 1.43,-27.32 12.95,-43.18 17.28,-69.11 4.33,-30.27 0,-48.97 0,-80.67 0,-48.94 1.43,-80.63 -11.52,-126.7 -4.33,-17.27 -17.27,-27.36 -17.27,-46.11 0,-10.06 10.09,-12.96 11.51,-22.99 2.86,1.43 -2.9,11.5 0,11.5 37.47,11.49 74.88,-5.74 97.91,23.05 17.32,21.61 17.32,41.74 17.32,70.53l0 135.41c0,38.83 -28.84,56.11 -28.84,94.99 0,8.67 5.76,13 5.76,21.62 15.85,-15.86 24.51,-30.22 40.36,-46.08 31.69,-31.7 63.34,-44.64 74.86,-86.38 8.67,-30.27 0,-48.97 0,-80.68 0,-84.95 -2.86,-136.79 -23.04,-218.88 -5.75,-27.32 -22.97,-40.31 -22.97,-69.1 0,-18.72 15.79,-34.55 34.49,-34.55 36.04,0 56.21,11.5 92.19,17.26 89.3,21.62 138.27,34.56 230.4,46.08 57.6,7.23 86.44,28.79 138.28,51.83 25.93,11.51 40.31,28.85 69.14,28.85 28.8,0 41.74,-21.67 69.11,-28.85 69.11,-20.13 112.32,-23.04 184.34,-34.55 17.26,-1.43 28.84,-11.52 47.54,-11.52l112.33 0c67.67,0 110.88,41.74 145.45,97.94 8.66,15.8 24.5,27.32 28.83,46.08 2.86,11.52 -5.8,21.61 -5.8,34.55 1.47,34.55 21.65,53.26 40.36,80.68 18.7,27.32 31.65,44.59 51.82,69.1 63.36,73.43 97.96,119.5 178.59,172.81 51.87,34.56 70.57,69.11 120.97,103.67 20.19,12.93 33.14,28.79 57.64,28.79 34.51,0 46.07,-28.79 74.87,-46.08 38.89,-24.51 70.58,-27.36 115.22,-34.59 72.02,-11.48 110.9,-28.8 184.33,-34.51 15.85,64.77 21.61,100.81 28.84,167.05 5.77,46.03 -5.8,80.64 22.99,115.19 18.72,23.03 41.79,24.46 69.16,34.55 35.98,14.42 60.49,27.36 92.19,51.83 31.7,24.5 57.59,44.65 57.59,84.96l0 141.12c0,79.23 30.22,171.38 109.41,171.38 23.09,0 34.61,-17.29 57.64,-17.29 20.14,0 23.04,24.48 34.56,40.33 24.5,31.69 47.55,51.82 57.58,92.13 -28.79,11.58 -46.07,25.94 -69.1,46.13 -23.04,20.17 -51.83,31.65 -51.83,63.34 0,17.28 20.18,21.61 28.79,34.55 18.71,25.94 28.8,47.56 28.8,80.68 0,14.37 -7.24,21.56 -11.52,34.55l5.76 57.59c17.27,1.43 28.79,2.9 46.07,5.76l201.66 -57.59c82.05,54.73 105.14,143.97 201.61,143.97 46.06,0 63.34,-46.06 109.46,-46.06 27.32,0 41.74,7.23 69.11,11.56 92.19,0 138.26,-11.56 230.45,-11.56 50.36,-28.81 83.54,-43.18 138.26,-63.36 18.71,-5.76 25.9,-23.03 46.07,-23.03 11.52,0 12.95,12.94 23.04,17.27 21.6,8.62 33.18,23.04 57.58,23.04 51.89,0 77.82,-24.47 126.75,-40.31 34.55,-11.52 57.6,-15.85 92.19,-28.8 17.28,-5.8 27.37,-17.27 46.13,-17.27 27.32,0 43.15,5.76 70.53,5.76 40.35,0 61.91,-21.61 96.47,-40.31 17.33,-8.66 25.93,-24.52 46.12,-23.09 8.62,0 22.99,-2.86 22.99,5.77 0,40.35 -2.86,63.34 0,103.7 7.23,2.9 8.66,17.27 17.32,17.27 20.18,0 28.79,-20.13 46.07,-28.79 46.08,-24.51 73.44,-51.83 126.74,-51.83 41.8,0 61.92,28.79 103.67,28.79 97.94,0 146.92,-50.41 236.2,-86.43 25.95,51.84 59.03,70.59 97.95,109.47 23.04,23.03 24.47,51.83 51.83,69.1 40.31,25.95 69.16,38.89 115.23,51.84 43.21,11.56 71.96,12.99 115.23,28.79 30.22,10.09 40.31,36.03 69.16,51.87 30.16,15.85 69.1,40.33 80.57,74.88zm-1451.68 57.61c-60.48,0 -72,-80.63 -132.5,-80.63 -46.07,0 -72.01,23.03 -115.17,34.55 -60.55,17.27 -98,17.27 -161.34,17.27 5.74,7.19 2.9,18.71 11.5,23.04 33.18,18.7 56.22,21.6 92.2,34.56 60.48,21.61 97.95,40.31 162.78,40.31l135.35 0c18.7,0 28.79,10.09 47.55,11.52 17.23,1.47 30.22,-2.86 46.02,0 47.54,11.56 66.29,51.87 115.22,51.87 46.08,0 70.59,-14.42 115.23,-23.08 66.25,-12.94 116.65,-27.32 155.54,-80.62 33.13,24.46 54.73,38.88 92.19,57.59 34.55,-51.83 43.21,-86.38 63.34,-143.98 12.99,-38.88 46.07,-56.2 46.07,-97.95 0,-25.94 -20.18,-46.07 -46.07,-46.07 -35.98,0 -54.73,5.76 -90.71,5.76 -27.36,0 -46.12,4.33 -70.58,-5.76 -25.89,-10.09 -40.31,-28.79 -69.11,-28.79 -38.92,0 -57.58,17.27 -92.19,34.55 -43.21,21.62 -72.01,24.46 -115.23,46.12 -17.27,8.62 -31.65,10.05 -46.07,22.98 -21.6,20.19 -18.7,44.65 -34.55,69.16 -24.51,38.84 -61.91,57.6 -109.47,57.6zm-4067.03 -973.48c37.42,8.66 63.36,21.61 80.59,57.59 10.13,-21.61 20.18,-28.8 34.6,-46.07 20.17,-24.47 31.69,-46.07 51.88,-69.12 57.58,-63.39 105.13,-96.46 132.45,-178.57 -15.81,-4.33 -30.23,-17.26 -46.07,-11.52 -10.09,2.86 -10.09,17.29 -17.28,23.05 -23.03,20.18 -31.65,40.31 -51.83,63.34 -5.75,7.24 -17.27,5.76 -23.03,11.52 -5.76,5.76 -4.33,17.28 -11.57,23.03 -56.12,50.4 -105.09,64.82 -149.74,126.75zm5265.26 3772.92c8.66,-73.45 -8.66,-120.99 17.28,-190.1 18.74,-51.83 54.72,-69.11 86.43,-115.23 17.28,-25.89 20.18,-51.78 46.07,-69.1 5.8,-2.86 15.8,2.9 23.08,0 17.23,-7.19 28.75,-14.38 46.08,-23.04 40.25,-21.6 59.06,-51.83 105.13,-51.83l135.36 0c38.88,0 60.48,11.52 93.62,28.8 30.22,15.85 44.64,46.07 80.62,46.07 95.09,0 135.4,-59.02 230.4,-74.87 -43.17,-28.8 -71.96,-40.32 -115.17,-69.11 56.15,-74.91 119.55,-92.18 201.65,-138.26 50.35,-27.37 61.87,-67.68 103.66,-109.41 37.46,-37.47 69.15,-54.73 120.99,-63.4 90.75,-17.28 144.02,-17.28 236.16,-23.04 82.1,-5.76 132.5,-43.21 178.61,-109.41 2.86,-5.82 2.86,-17.33 5.72,-23.09 4.33,-7.19 15.84,-5.72 23.09,-11.52 18.7,25.95 31.69,44.64 51.82,69.16 14.38,17.28 40.31,23.03 40.31,46.07 0,40.31 -25.93,59.07 -46.11,92.15 -50.35,80.66 -97.86,115.21 -155.49,190.13 -30.22,40.27 -43.21,70.53 -80.63,103.67 -18.75,15.79 -36.03,21.56 -51.83,40.31 -28.84,33.12 -41.78,59.01 -74.96,86.38 -25.89,21.6 -46.03,30.26 -74.86,51.88 -97.91,74.86 -139.65,138.26 -213.13,236.16 -60.5,80.63 -126.74,102.22 -213.18,155.49 -57.58,36.02 -77.76,76.33 -138.26,109.47 -18.7,10.03 -34.55,10.03 -51.83,23.03 -38.88,28.8 -53.31,57.59 -92.13,86.38 -59.07,43.21 -95.1,70.59 -144.04,126.75 -30.26,35.98 -61.96,44.64 -92.18,80.63 -63.34,73.48 -96.52,141.15 -190.1,167.04 -122.46,34.56 -174.28,99.38 -288.03,155.55 -70.59,34.55 -112.37,57.59 -184.34,86.42 -10.09,2.86 -12.99,14.38 -23.08,17.23 -37.41,13 -66.2,11.57 -97.91,34.56 -14.4,-11.52 -27.3,-18.71 -34.59,-34.56 -14.42,-28.79 -8.62,-74.86 -41.74,-74.86l-181.43 0c-46.11,0 -73.43,-14.43 -116.66,-28.79 -41.78,-12.96 -97.95,-18.7 -97.95,-63.36 0,-53.3 40.32,-74.9 74.87,-115.22 43.22,-50.4 64.78,-93.61 69.15,-161.24 23.05,0 34.56,11.46 57.6,11.46 50.4,0 80.66,-2.86 126.74,-23.04 27.37,-11.51 41.74,-30.22 69.11,-40.31 34.55,-12.94 56.15,-21.56 92.19,-28.79 25.94,-4.33 43.21,11.52 69.1,5.76 17.28,-4.33 25.94,-20.18 34.6,-34.55 27.38,-41.8 40.28,-69.12 57.6,-115.23 8.61,-24.46 -2.92,-47.5 11.51,-69.1 4.33,-7.19 15.85,-7.19 23.04,-11.52 44.64,-30.22 74.86,-46.08 115.23,-80.63 44.68,-38.88 50.44,-103.71 109.45,-103.71 24.48,0 38.85,4.34 63.36,5.77zm2263.98 -2327.13c84.96,-34.55 156.96,-8.62 230.41,-63.34 17.27,-13.01 24.46,-30.23 40.31,-46.07 66.24,-66.26 103.71,-105.14 178.57,-161.3 96.52,-72.02 120.99,-148.35 201.65,-236.17 53.31,-57.58 72.02,-103.71 132.5,-155.54 7.19,-5.75 12.95,-11.51 23.04,-11.51 18.76,0 28.8,21.6 28.8,40.31 0,43.22 -21.56,66.25 -40.32,103.71 -23.03,46.07 -38.88,74.86 -69.1,115.18 -44.64,60.49 -86.44,84.95 -126.75,149.78 -20.17,33.12 -51.87,51.83 -51.87,92.18 0,23.05 21.61,34.55 40.36,46.08 36.02,24.45 64.77,34.55 109.47,34.55 33.07,0 47.49,-23.03 80.62,-23.03 10.08,0 14.41,10.09 23.03,11.52l0 136.77c0,33.14 -17.28,50.41 -34.55,76.35 -4.33,7.19 -23.08,1.43 -23.08,11.52 0,40.31 24.51,59.01 46.11,92.19 18.76,27.32 28.81,46.02 51.84,69.1 14.42,14.38 40.36,18.71 40.36,40.31 0,44.64 -41.79,57.6 -74.92,86.39 -46.07,40.31 -86.38,48.97 -138.25,80.67 -23.05,14.37 -31.71,34.56 -46.13,57.58 -17.23,25.91 -41.74,31.71 -69.1,46.08 -37.41,20.18 -63.36,34.55 -103.71,46.07 -103.67,31.7 -149.73,77.78 -247.69,126.75 -37.45,18.7 -64.81,18.7 -103.65,34.55 -56.2,23.03 -89.34,40.31 -149.83,40.31 -41.79,0 -61.92,-28.79 -103.71,-28.79 -59.01,0 -92.13,21.6 -149.73,34.55 -76.34,17.27 -115.23,40.36 -184.33,74.91 -61.96,30.23 -99.38,47.5 -161.34,74.87 -54.69,24.46 -87.82,37.46 -144.02,57.59 -54.73,18.75 -84.96,38.88 -143.98,46.07 -36.02,4.33 -56.16,-4.33 -92.19,0 -36.03,4.33 -57.59,10.09 -92.18,17.28 -12.95,2.9 -20.14,17.32 -34.57,17.32 -23.03,0 -41.72,4.33 -57.58,-11.52 -5.76,-5.8 -2.9,-15.85 -5.76,-23.08 -10.09,-24.46 -11.52,-41.74 -11.52,-69.1 0,-38.89 20.13,-57.6 34.51,-92.15 13.03,-33.12 13.03,-59.06 23.09,-92.19 17.26,-53.26 47.54,-76.29 86.42,-115.18 72.02,-72.01 119.51,-110.89 207.37,-161.29 43.22,-24.46 69.16,-46.07 115.18,-63.4 151.25,-56.11 233.36,-97.9 380.22,-161.25 35.99,-15.85 56.17,-30.27 92.2,-46.07 77.77,-36.03 103.66,-87.85 178.57,-132.5 41.75,41.79 48.92,79.2 74.87,132.5l138.31 -63.39 113.74 0c20.19,0 30.23,-12.96 47.51,-22.99 7.23,-4.33 18.75,0 23.08,-5.8 21.61,-28.81 0,-57.6 0,-93.58 0,-37.45 2.86,-59.06 0,-96.52l-74.96 17.33c-44.6,0 -70.53,4.27 -115.13,0 -10.09,0 -12.99,-11.58 -23.08,-11.58 -31.7,-2.85 -51.88,0 -80.63,11.58l11.52 -34.61zm6512.97 -3632.17c-37.46,64.82 -59.54,96.89 -101.33,158.82 -28.79,43.17 -74.87,61.92 -74.87,115.17 0,31.71 44.61,28.8 63.35,51.89 10.09,12.94 8.67,28.79 11.52,46.02 -92.15,37.5 -106.56,118.13 -161.29,201.65 35.98,-5.76 56.15,-14.42 92.19,-17.27 -14.43,64.77 -23.05,100.8 -23.05,167.01 0,63.34 12.95,97.95 17.28,161.29 2.86,38.88 -1.43,61.92 11.53,97.95 12.93,38.84 40.31,51.79 63.34,86.38 30.27,46.07 21.61,89.29 46.07,138.22 17.28,34.6 46.6,47.97 55.21,85.43l0 -1293.13 0.05 0.57zm-3575.01 5813.83l0 47.55 22.99 5.76c87.91,-50.41 144.07,-70.58 230.46,-120.98 77.76,-44.64 108.03,-96.48 184.33,-143.98 53.3,-33.17 86.42,-51.87 138.31,-86.42 37.45,-24.48 50.35,-53.27 80.62,-86.39 30.26,-33.13 60.44,-43.21 92.13,-74.86 30.28,-30.28 43.27,-51.89 74.92,-80.68 50.41,-46.07 92.15,-64.83 138.26,-115.23 41.74,-46.07 103.71,-63.34 103.71,-126.7 0,-8.6 -5.76,-14.36 -5.76,-23.02 -10.08,2.84 -20.17,-5.77 -28.83,0 -73.45,53.25 -93.63,118.07 -178.59,149.72 -34.49,12.99 -60.44,12.99 -92.13,28.85 -37.51,20.12 -53.32,47.5 -92.2,63.35 -82.09,34.55 -126.74,59.01 -213.12,80.62 -135.41,33.13 -195.89,100.8 -299.56,190.1 -63.4,54.72 -92.19,100.79 -120.99,178.57 -15.84,43.21 -34.55,67.67 -34.55,113.74zm-554.48 12953.21l-182.91 0c-8.61,4.33 -14.43,7.19 -23.03,8.66 27.36,12.89 43.21,20.14 69.1,34.56 43.21,23.03 64.82,57.54 115.23,57.54 67.72,0 103.7,-30.23 161.34,-63.3 93.57,-53.3 149.74,-90.71 236.11,-155.54 67.74,-50.4 112.38,-72.02 190.19,-103.71 34.51,-14.38 57.59,-18.71 92.1,-28.79 31.69,-8.62 63.4,-24.47 63.4,-57.59 0,-28.79 -34.55,-40.31 -63.4,-40.31 -17.23,0 -28.75,10.09 -46.07,11.52 -27.37,2.84 -43.17,-1.43 -69.1,5.74 -64.83,18.72 -106.57,30.24 -161.31,69.12 -8.66,5.76 -8.66,17.27 -17.28,23.08 -43.21,30.22 -77.82,37.42 -115.27,74.87 -30.18,30.22 -33.08,61.92 -63.34,92.14 -54.69,54.74 -108,72.01 -185.76,72.01zm905.87 -573.13c-61.92,30.26 -106.57,24.52 -172.82,46.08 28.84,11.5 47.5,12.93 74.86,23.02 46.07,17.29 69.16,40.37 115.23,57.6 35.98,12.99 59.07,14.42 92.19,34.59 57.59,36.04 72.01,79.21 103.7,138.22 20.15,38.88 51.84,59.06 51.84,103.71 0,23.04 -12.99,34.55 -11.52,57.59 0,5.76 8.67,5.76 8.67,11.51 0,46.07 14.37,72.02 14.37,118.09 0,54.73 -40.31,77.76 -57.6,129.59 28.81,15.86 41.75,34.56 69.12,51.88 27.36,17.23 50.4,20.14 80.62,34.51 -2.86,-56.11 -17.28,-87.82 -17.28,-143.98 0,-132.5 63.4,-201.6 63.4,-334.11 0,-47.54 -11.52,-87.8 -51.88,-109.42 -10.05,-4.33 -12.89,-15.85 -22.99,-17.32 -49.02,-11.52 -85.04,-17.28 -115.22,-57.59 -27.36,-35.98 -50.45,-53.31 -80.72,-86.39 -5.71,-7.17 -4.24,-17.27 -11.47,-23.03 -34.55,-27.37 -87.86,-31.7 -132.5,-34.55zm-138.23 1647.4c-28.8,4.33 -53.3,0 -69.16,23.02 -15.85,23.05 0,46.08 0,74.92 -1.43,63.34 -12.99,102.24 -34.6,161.25 -12.9,34.6 -25.89,54.79 -28.75,92.19 -1.42,27.37 10.09,43.17 5.76,69.11 -7.18,38.83 -34.59,54.74 -46.11,92.15 -4.33,15.84 -2.86,28.79 -5.76,46.06 53.3,0 90.71,-10.04 138.25,11.52 72.02,31.7 97.95,73.43 161.31,120.99 47.54,-37.47 69.15,-73.45 97.94,-126.75 23.03,-43.16 51.84,-66.21 63.36,-115.18 1.47,-8.61 11.51,-12.95 11.51,-23.03 0,-20.18 -18.7,-30.23 -28.79,-46.12 -15.86,-24.42 -30.23,-41.75 -40.32,-69.07 -14.42,-34.55 -15.85,-63.39 -40.31,-92.18 -5.76,-7.19 -15.85,-5.76 -23.04,-11.56 -15.84,-14.33 -20.17,-28.75 -34.59,-46.04 -21.62,-25.89 -44.61,-37.39 -57.6,-69.1 -14.42,-34.6 -40.35,-69.16 -69.1,-92.18zm443.54 -46.06c0,10.03 -11.52,12.89 -11.52,23.03 0,12.95 18.71,12.95 23.04,23.04 11.52,21.6 14.42,51.82 40.31,51.82 31.69,0 46.12,-27.36 63.4,-51.82 24.46,-33.18 47.5,-51.83 57.59,-92.2 -8.62,-1.43 -13,-12.9 -23.04,-11.52 -61.93,10.09 -87.82,53.26 -149.78,57.65zm-167.05 864.03c0,56.17 18.75,90.66 46.07,138.22 23.05,41.74 41.8,72 86.39,92.13 27.37,11.52 38.93,34.57 69.15,34.57 38.89,0 51.84,-40.32 69.11,-74.88 20.18,-41.78 40.36,-67.67 40.36,-115.22 0,-73.44 -20.18,-115.18 -46.11,-184.33 -11.52,-31.65 -23.04,-66.16 -57.65,-69.06 -35.93,-2.9 -57.58,17.23 -92.09,22.99 -28.84,4.33 -53.3,-2.86 -74.92,17.32 -18.7,17.27 -10.04,43.16 -17.32,69.1 -7.14,27.38 -22.99,40.37 -22.99,69.16zm668.24 -1422.8l11.52 46.11c-8.62,27.32 -15.85,43.17 -28.81,69.12 34.56,11.5 57.64,5.74 92.15,11.5 27.36,4.34 41.78,22.99 70.63,22.99l158.4 0c23.03,0 40.31,13.05 47.49,34.61 14.42,41.74 10.14,70.53 11.52,115.23 1.47,48.92 11.52,77.76 11.52,126.69 0,33.13 -14.42,51.82 -28.79,80.63 15.89,2.9 30.22,5.76 46.06,11.56 11.57,4.28 11.57,18.7 23.08,23.03 37.47,17.28 63.36,23.04 97.91,46.07l17.32 23.05c-11.52,-79.21 -36.02,-120.99 -57.63,-195.86 -25.89,-92.18 -18.76,-151.21 -51.84,-241.92 -37.45,-100.76 -122.4,-128.17 -224.68,-161.29 -18.71,-5.76 -27.32,-15.81 -46.13,-23.04 -54.68,-20.19 -96.47,-10.04 -149.72,11.52zm1002.36 483.84c27.36,20.18 40.35,40.36 69.14,57.63 35.98,21.56 86.39,25.94 86.39,69.12 0,28.79 -27.36,38.88 -40.32,63.34 -23.03,43.21 -25.93,76.34 -28.84,126.75 8.67,0 13,5.7 21.67,5.7 10.03,0 15.84,-10.03 24.46,-11.46 43.17,-11.52 69.1,-31.71 97.94,-63.36 15.85,-17.27 34.55,-27.36 34.55,-51.87 0,-43.17 -41.78,-54.68 -74.91,-80.63 -17.27,-12.99 -15.84,-34.55 -34.55,-46.07 -24.46,-15.85 -44.65,-23.03 -69.16,-40.35 -10.04,-7.19 -5.75,-24.42 -17.23,-28.8 -24.5,-8.67 -41.78,-1.38 -69.14,0zm-143.99 823.69c-30.28,-43.17 -56.22,-67.67 -98,-97.9 -5.77,76.34 4.37,122.46 -17.23,195.9 79.19,25.89 125.26,46.02 208.84,46.02 25.89,0 41.74,-2.86 67.67,-2.86 0,-10.08 11.53,-15.84 11.53,-25.89 0,-20.17 -24.52,-23.03 -40.37,-34.59 -40.31,-31.7 -89.29,-51.89 -132.44,-80.68zm558.76 -103.64l-138.25 0 -5.72 23.03c44.6,44.64 50.36,82.1 74.86,138.26 21.61,47.5 51.83,67.69 74.87,115.18 13,25.94 8.67,46.07 23.03,69.15 4.34,8.62 17.33,10.09 23.09,17.28 43.17,46.08 80.62,63.35 138.22,92.15 38.92,18.7 59.01,37.45 92.18,63.39 24.46,18.66 25.95,57.59 57.6,57.59 34.55,0 46.07,-40.32 46.07,-74.91 0,-38.84 -14.38,-66.21 -46.07,-86.38 -60.5,-37.41 -108,-40.31 -167.07,-80.63 -15.79,-10.09 -31.69,-17.33 -40.31,-34.6 -7.19,-14.42 -2.86,-30.22 -5.76,-46.07 -7.18,-36.04 -14.42,-57.6 -28.79,-92.15 -27.41,-67.67 -64.82,-95.05 -97.95,-161.29zm898.67 495.36c-46.07,-7.18 -70.54,-12.94 -115.23,-23.03 -1.43,8.62 -11.52,12.95 -11.52,23.03 0,47.5 17.28,73.45 17.28,120.95 10.09,0 17.27,5.75 27.36,5.75 20.19,0 28.79,-17.23 47.55,-22.99 24.47,-8.66 63.35,-1.47 63.35,-28.83 0,-18.71 -21.61,-57.6 -28.79,-74.88zm-357.15 -1111.72c-12.94,-4.33 -20.17,-11.47 -34.59,-11.47 -23.05,0 -27.38,24.42 -34.56,46.07 -5.76,18.7 -14.38,30.22 -23.04,46.02 -21.6,34.61 -31.69,59.07 -46.07,97.95l0 40.31 44.6 0c38.94,0 59.07,-28.79 76.39,-63.3 24.46,-49.01 17.27,-100.89 17.27,-155.58zm-6809.45 3092.05c18.75,-25.94 24.79,-50.64 57.91,-50.64 23.03,0 34.51,11.52 57.6,11.52 47.54,0 67.67,-33.18 103.65,-63.36 57.64,-49.01 66.26,-108.04 132.55,-144.02 80.63,-44.64 146.88,-25.93 230.35,-69.15 38.94,-20.17 57.65,-46.06 98,-63.35 33.08,-14.42 59.03,-14.42 92.15,-28.79 61.92,-27.41 97.95,-53.3 144.02,-103.7 31.69,-34.57 64.82,-46.08 86.38,-86.39 12.99,-24.47 18.76,-43.22 28.85,-69.15 63.34,36.02 110.88,46.11 184.33,46.11 82.09,0 125.31,-34.55 207.36,-34.55 67.69,0 99.38,46.07 167.06,46.07 59.07,0 96.48,-41.78 115.23,-97.91 28.79,33.14 57.64,57.6 103.71,57.6 34.55,0 48.97,-27.38 80.66,-40.37 50.41,-20.13 83.49,-24.46 138.22,-28.79 56.16,-4.27 89.29,-2.86 144.02,-11.52 15.89,-1.42 28.79,-11.51 46.07,-11.51 11.56,0 8.66,15.84 17.33,23.03 36.02,30.28 41.74,70.59 86.38,86.44 34.59,12.94 57.58,11.51 95.05,11.51 57.63,0 93.61,-20.18 135.39,-57.64 7.2,-5.76 15.86,-5.76 23.05,-11.52 18.75,-15.8 20.13,-46.07 46.07,-46.07 34.59,0 51.87,14.42 86.43,17.28 86.38,8.66 142.58,21.66 213.12,69.16 18.75,11.52 24.51,30.22 40.36,46.07 37.41,37.45 70.54,47.5 115.23,74.92 27.32,15.84 40.26,37.4 69.1,51.78 53.31,25.93 89.29,33.17 149.78,40.35l409.03 -57.63c18.7,25.94 35.98,51.87 69.11,51.87 46.07,0 64.77,-40.35 97.94,-69.14l119.51 0c40.32,0 56.16,33.12 93.63,46.11 44.64,15.85 73.43,11.52 120.93,11.52 115.22,0 161.35,113.75 276.57,109.42 27.32,0 43.16,-14.37 69.11,-5.77 18.75,5.77 24.51,23.05 40.31,34.56 48.97,37.46 87.85,51.88 149.78,51.88 40.35,0 92.18,-11.52 92.18,-51.88 0,-43.16 -35.98,-64.78 -74.91,-80.63 -66.2,-28.79 -112.32,-20.13 -184.33,-28.79 -119.51,-14.37 -138.26,-128.17 -236.21,-195.85 -38.88,-25.93 -71.96,-25.93 -120.99,-28.79 -63.34,-4.33 -97.89,-12.95 -161.25,-17.32 -99.37,-7.14 -154.11,-7.14 -253.48,-23.05 5.76,-25.89 7.24,-44.64 17.28,-69.05 2.86,-7.28 0,-18.8 5.76,-23.08 12.94,-10.05 30.26,-2.86 46.11,-5.76 31.71,-7.19 50.37,-17.28 80.63,-28.8 46.07,-18.7 76.34,-34.6 126.75,-34.6 69.1,0 86.42,72.06 149.78,97.99 46.07,18.66 72,34.51 115.21,57.6 33.14,17.22 57.6,22.98 92.15,40.31 59.02,28.79 73.44,80.62 132.51,109.41 96.52,47.56 151.2,82.11 253.43,115.23 43.27,14.42 72.06,23.04 115.23,34.55 40.35,11.52 103.71,2.86 103.71,46.07 0,11.53 -15.85,13 -17.28,23.05 -1.43,11.51 0,21.6 0,34.59 0,59.02 28.79,90.71 28.79,149.74 10.09,2.9 17.33,11.51 28.84,11.51 12.9,0 15.81,-12.94 23.04,-23.03 17.23,-23.09 25.89,-41.74 34.56,-69.1 8.6,-27.42 21.61,-57.6 51.87,-57.6 20.09,0 28.75,21.56 46.03,28.79 34.59,14.38 56.21,23.04 93.62,23.04l221.78 0c50.4,0 77.78,8.61 128.22,5.77 38.84,-2.91 60.44,-14.43 97.91,-5.77 10.08,1.43 10.08,17.27 17.32,23.03 15.84,14.43 18.7,30.28 34.5,46.08 53.3,53.3 97.96,86.38 172.82,86.38 33.12,0 54.74,-4.33 80.67,-22.99 33.13,-23.08 44.64,-63.39 86.43,-63.39 36.03,0 33.13,44.64 51.82,74.91 11.53,18.7 35.99,14.37 46.08,34.56 7.24,14.36 7.96,34.79 10.86,50.64l-6278.77 0zm-11562.71 -0.01l577.21 -0.01c5.75,-35.99 17.41,-62.16 23.18,-96.71 25.93,-159.87 43.16,-250.58 80.62,-409.03 7.19,-34.51 17.27,-57.6 23.04,-92.1 10.09,-66.29 30.26,-103.7 51.87,-167.05 15.8,-46.11 18.71,-77.83 40.32,-120.98 56.2,-112.33 97.9,-180 97.9,-305.33 0,-92.09 -51.83,-138.21 -51.83,-230.34 -50.41,0 -96.52,15.8 -126.7,-23.05 -14.42,-20.18 0,-41.77 0,-67.67l0 -118.09c0,-46.07 -20.18,-70.59 -34.6,-113.79 -17.28,-36.03 -40.36,-67.67 -57.58,-103.71 -24.52,-48.92 -24.52,-84.96 -34.61,-138.2 -8.63,-44.65 -8.63,-72.02 -23.03,-115.19 -11.48,-36.03 -34.56,-53.31 -34.56,-92.19 0,-12.95 15.8,-14.37 23.08,-23.03 27.32,-31.71 48.93,-56.21 48.93,-99.38l0 -182.91c-17.28,11.57 -28.79,17.33 -48.93,17.33 -47.54,0 -97.99,-27.31 -97.99,-74.91 0,-40.28 40.36,-69.12 80.72,-69.12 17.27,0 28.75,11.58 46.02,11.58 15.85,0 24.51,-5.82 40.37,-8.66l0 31.65c-2.92,-21.61 -5.77,-34.57 -5.77,-56.17 0,-41.8 14.43,-66.21 28.76,-105.13 20.16,-56.11 30.25,-89.28 40.34,-149.73 -14.42,11.51 -25.94,28.73 -46.11,28.73 -22.99,0 -37.41,-20.12 -46.03,-40.25 -7.23,-17.29 -17.32,-27.42 -17.32,-46.07 0,-25.95 33.18,-27.38 57.64,-34.61 12.99,-2.85 20.14,-11.5 34.56,-11.5 14.36,0 20.17,11.5 34.55,11.5 25.94,0 25.94,-34.55 34.59,-57.58 14.43,-36.03 34.51,-56.17 51.83,-92.14 -23.08,-5.77 -51.83,-10.1 -51.83,-34.61 0,-20.19 14.43,-28.79 23.05,-46.07 12.94,-25.89 21.55,-41.79 34.55,-69.11 31.7,23.08 48.93,46.08 69.1,80.69 17.27,-28.85 23.04,-47.56 40.36,-74.93 31.7,-48.97 73.44,-56.16 115.23,-97.91 38.88,-38.93 57.59,-71.99 109.42,-97.94l-63.39 0 0 -44.6c0,-40.36 38.92,-56.2 74.95,-70.63l40.28 0c1.41,27.37 1.41,41.8 0,69.12 79.24,-46.03 119.55,-86.35 207.41,-115.19 -53.27,-28.79 -59.07,-82.05 -63.36,-143.97l23.04 -5.75c20.13,12.9 33.08,28.78 57.58,28.78 23.04,0 38.9,-5.75 57.59,-17.26 18.71,-11.52 23.03,-34.55 46.12,-34.55 30.24,0 41.75,24.41 69.11,34.55 33.12,11.51 56.18,11.51 92.15,11.51 63.4,0 99.38,-8.62 161.35,-23.03 46.07,-11.52 77.76,-11.52 115.22,-40.37 37.4,-28.79 48.92,-59.02 86.37,-86.38 46.07,-34.55 80.68,-46.06 115.23,-92.19 12.95,-17.27 14.43,-33.09 23.04,-51.78 18.71,-37.46 41.79,-56.21 63.41,-92.19 21.59,-34.6 33.11,-60.5 57.58,-92.2 20.12,-25.84 38.87,-35.98 63.38,-57.58 5.77,-4.29 18.67,0 22.99,-5.76 4.34,-5.76 1.43,-15.85 5.77,-23.05 20.18,-30.21 25.95,-54.67 28.84,-92.13 2.85,-44.64 11.52,-70.59 11.52,-115.23 0,-37.45 -11.52,-60.49 -28.84,-92.14 15.85,-4.34 30.26,-5.75 46.11,-11.52 11.47,-4.34 14.38,-15.85 22.99,-23.09 49.03,-44.58 63.39,-89.22 126.79,-120.94 -4.33,24.48 -11.56,40.32 -11.56,66.27 0,22.99 -10.09,44.64 5.77,60.5 21.65,21.59 47.53,20.12 69.14,40.3 20.14,18.69 23.04,40.32 23.04,69.1 0,35.99 -31.66,51.84 -57.59,74.93 44.64,-10.09 72.01,-8.68 115.23,-23.09 84.94,-27.32 131.07,-61.93 207.37,-109.42 59.07,-35.98 102.28,-43.22 167.04,-69.15 95.05,-38.85 148.36,-61.88 247.73,-86.39 109.44,-27.37 172.82,-30.27 282.28,-51.83 38.89,-7.19 63.35,-23.03 103.71,-23.03 33.08,0 50.36,17.26 80.64,28.78 67.67,27.33 112.31,34.61 184.33,46.08 40.34,5.76 63.35,28.79 105.12,28.79 154.08,0 241.98,-1.43 396.04,-1.43 -5.77,-23.03 -11.52,-37.45 -11.52,-61.91 0,-23.05 -7.19,-40.31 5.75,-57.65 10.09,-12.89 30.29,-7.13 46.13,-11.51 10.09,-2.85 12.9,-12.89 23.03,-17.22 46.07,-25.95 56.16,-86.45 109.42,-86.45 20.18,0 28.84,20.2 46.12,28.85 33.12,15.81 57.64,17.23 92.15,28.75 23.08,-2.85 34.59,-11.52 57.58,-11.52 14.42,0 17.33,14.42 28.85,23.08 17.28,12.95 27.37,22.99 46.07,34.51 56.16,37.45 92.19,63.4 161.3,74.91 4.32,-12.94 11.51,-20.13 11.51,-34.55 0,-24.5 -14.37,-34.59 -23.03,-57.58 -5.77,-15.86 -5.77,-30.27 -11.52,-46.13 -23.08,-54.67 -70.59,-64.78 -97.95,-115.21 -27.33,-48.94 -27.33,-82.06 -40.31,-138.22l23.09 -5.77c31.64,28.8 47.5,51.88 86.37,69.16 34.55,15.8 63.35,14.42 92.19,40.32 35.98,31.64 46.07,66.19 51.84,115.23 10.09,80.62 -10.09,126.69 0,207.31 2.86,23.03 8.6,34.59 11.52,57.58l-28.81 155.55c43.23,24.52 72.02,40.3 115.19,63.39 53.31,28.8 76.34,74.87 138.29,74.87 18.72,0 28.76,-10.09 46.04,-17.28 27.42,-10.09 47.54,-23.04 63.4,-46.07 23.08,-31.7 30.21,-74.91 70.57,-74.91 53.26,0 82.06,5.75 135.41,5.75 50.35,0 66.21,57.64 116.6,57.64 20.18,0 30.23,-18.75 46.08,-28.84 24.51,-15.8 43.27,-27.32 69.19,-40.32 41.75,-20.12 86.35,-38.88 86.35,-86.37 0,-82.1 -18.72,-128.17 -34.56,-207.38 -2.85,-15.79 0,-34.6 -11.51,-46.07 -11.52,-11.52 -30.23,-7.23 -46.03,-11.52 -18.76,-5.8 -28.84,-14.41 -46.11,-23.08 -25.95,-12.94 -63.41,-15.85 -63.41,-46.08 0,-11.5 15.9,-12.94 17.29,-23.03l23.03 -92.14c28.84,7.2 43.27,21.61 69.2,34.55 25.85,12.99 56.12,14.39 69.11,40.32 17.27,34.55 20.13,60.5 40.26,92.14 24.51,37.42 56.21,48.98 92.23,74.91 34.51,25.9 54.69,44.66 92.09,63.4 86.49,43.16 146.95,51.79 230.47,97.86 77.82,43.21 97.94,102.28 149.82,172.81 46.04,-24.46 60.45,-60.44 97.9,-97.9 20.2,-20.14 34.61,-35.98 46.11,-63.39 10.05,-24.42 28.82,-35.94 28.82,-63.36 0,-25.94 -21.67,-37.41 -34.57,-57.59 -43.21,-64.77 -85,-105.13 -161.34,-120.98 -15.86,-2.85 -28.8,1.47 -46.07,0 -48.98,-5.76 -70.58,-25.88 -115.18,-46.02 -25.94,-11.58 -57.63,-17.33 -57.63,-46.13 0,-38.87 28.78,-54.73 28.78,-93.61l0 -107.99c36.04,0 57.6,-10.04 92.2,-17.28 54.73,-10.09 89.28,-12.95 138.26,-40.3 8.6,-4.34 5.71,-15.86 11.47,-23.05 -30.22,-40.31 -40.31,-79.2 -86.33,-97.95 -15.91,-5.75 -30.28,-5.75 -46.12,-11.52 -20.2,-8.6 -23.03,-40.3 -46.12,-40.3 -33.09,0 -46.07,25.93 -74.86,40.3 -60.5,31.65 -99.38,51.84 -168.49,51.84l-67.68 0c10.04,-31.7 28.79,-47.49 28.79,-80.62 0,-22.99 7.19,-46.07 -11.56,-57.58 -33.13,-20.2 -57.59,-25.95 -92.14,-46.14 -13,27.38 -27.33,41.8 -46.12,63.4 -20.14,23.08 -31.64,57.59 -64.79,57.59l-141.11 0c-64.82,0 -115.22,-24.47 -145.49,-80.62 -30.22,-57.63 -87.81,-77.77 -92.15,-144.03 53.3,-4.32 87.81,2.91 138.26,-11.52 30.24,-8.61 43.17,-30.21 69.11,-46.07 24.52,-14.41 44.68,-24.46 69.11,-40.3 33.17,33.12 64.83,41.73 109.47,57.59 51.87,18.69 83.53,33.12 138.26,46.11 87.85,21.56 133.97,57.6 224.7,57.6 33.08,0 53.24,-18.75 80.62,-34.61 44.64,-25.89 63.34,-54.67 103.71,-86.39 73.42,-59.06 116.64,-102.27 207.41,-132.49l46.02 11.56c144.07,-23.08 224.69,-36.03 368.71,-46.11 47.51,-2.92 80.68,-1.49 120.94,-23.08 18.75,-10.05 25.94,-25.91 40.36,-40.28 60.54,-60.5 89.28,-105.14 120.99,-184.33 20.13,60.44 48.93,87.82 86.37,138.26 30.23,40.32 53.31,80.58 103.71,80.58 102.29,0 156.98,-31.65 259.2,-34.51 27.42,0 47.6,10.09 69.21,-5.75 23.03,-15.86 23.03,-41.8 28.75,-69.16 10.09,-43.22 11.51,-70.53 11.51,-115.17 15.85,1.41 23.09,5.75 38.93,5.75 51.84,0 76.3,-34.55 128.17,-34.55 20.19,0 27.32,17.27 46.07,23.03 24.47,8.62 41.8,11.52 69.11,11.52 46.12,0 72.06,-18.75 115.22,-34.55 69.11,-25.95 110.9,-46.13 184.4,-46.13 76.28,0 112.27,46.13 184.33,69.16 33.07,10.05 57.59,-1.47 92.14,5.77 50.39,10.03 74.91,33.11 126.79,46.07l138.22 -17.29c30.25,10.09 47.49,28.81 57.63,57.59 8.6,25.95 5.75,47.55 22.99,69.16 31.69,37.41 73.48,38.88 120.98,51.84 37.46,10.09 66.29,20.12 86.43,51.81 20.13,31.72 14.37,64.79 40.32,92.15 21.6,23.08 44.64,28.85 69.1,46.07l-23.03 0c74.9,-5.76 126.74,-40.31 195.84,-69.06 34.61,-14.42 56.22,-30.26 92.24,-40.35 34.51,-10.09 66.2,0 92.09,-23.04 30.27,-25.94 33.17,-66.25 69.16,-80.62 33.13,-14.43 66.25,0 92.19,-23.03 18.7,-17.29 17.28,-41.81 17.28,-69.16 1.42,-40.32 5.75,-63.36 5.75,-103.67 46.08,0 70.59,-17.27 116.66,-17.27l112.37 0c18.66,0 28.74,7.13 47.49,5.77 18.72,-1.49 27.38,-17.29 46.13,-17.29 35.92,0 56.1,18.65 92.14,23.04 35.98,4.28 64.78,0 92.18,23.03 7.2,5.77 5.77,15.86 11.53,23.03 34.49,37.41 61.91,61.93 92.13,103.71 30.28,40.27 57.59,64.79 69.15,115.18 2.87,15.85 -5.79,30.23 0,46.08 11.52,33.11 47.51,33.11 80.64,46.05 27.36,10.09 43.22,25.95 69.11,40.38 120.97,70.53 198.75,95.04 322.59,161.3 80.68,43.15 120.98,93.56 155.58,178.52 14.42,34.56 46.07,51.82 46.07,90.71l0 118.09c0,71.99 34.55,109.46 34.55,181.47 0,82.05 -5.76,128.13 -5.76,210.22l0 34.55c0,67.69 15.86,105.14 28.84,171.39 7.2,36.04 14.33,59.07 28.76,92.15 7.22,17.33 2.9,46.11 23.04,46.11 28.84,0 59.11,-2.85 69.2,-28.78 10.03,-25.95 12.9,-43.28 22.99,-69.16 47.54,11.52 83.52,14.36 115.22,51.83 23.03,27.42 17.28,56.16 17.28,92.18 0,46.07 -7.2,74.87 -28.8,115.23 -18.7,34.5 -46.07,51.84 -46.07,92.09 0,30.28 28.76,41.79 46.07,63.4 17.28,21.56 27.37,40.31 34.55,69.16 14.43,57.54 25.95,90.71 57.64,138.21 48.97,70.58 99.38,93.62 172.82,138.26 27.31,15.8 43.17,33.08 69.1,51.84 21.6,-21.61 21.6,-43.18 34.61,-69.11 4.33,-8.68 15.84,-5.77 22.97,-11.51l69.16 0c8.67,59.01 17.33,93.56 46.07,143.96 21.62,38.88 33.15,74.86 74.87,92.18 43.26,18.72 72.06,23.04 115.28,40.28 -17.28,23.08 -40.3,38.93 -40.3,69.15 0,60.5 71.95,60.5 115.12,103.66 41.79,41.79 49.01,80.67 63.38,138.25 15.91,64.82 25.95,103.71 57.64,161.3 18.72,34.55 56.16,37.42 92.14,51.84 76.36,31.69 123.9,57.64 178.63,120.97 27.37,31.66 37.42,57.6 69.1,86.39 82.11,73.44 119.57,167.06 230.46,167.06 10.09,0 14.43,-10.09 23.03,-11.52 18.71,12.95 46.07,21.62 46.07,46.12 0,37.4 -18.75,64.78 -51.83,80.58 -14.41,5.76 -28.79,-1.37 -46.11,0 -11.52,1.46 -12.95,14.42 -23.03,17.28 30.26,38.93 66.3,51.88 115.22,51.88 70.58,0 84.94,-92.16 155.53,-92.16 40.32,0 63.4,11.52 103.67,11.52 51.88,0 72.06,-49.01 97.99,-92.18 34.51,-56.12 53.26,-93.63 63.35,-161.26l-28.84 -126.79c11.56,-96.41 41.78,-146.82 57.63,-241.91 18.75,-116.66 15.86,-181.43 34.55,-299.46l-34.55 -241.97c2.91,-31.71 1.48,-50.41 5.7,-80.62 8.68,-53.31 23.09,-83.58 23.09,-138.27 0,-92.19 -15.79,-146.88 -63.34,-224.65 -37.41,-61.92 -57.59,-100.79 -97.95,-161.29 -18.71,-27.38 -34.55,-47.5 -34.55,-80.62 0,-18.72 17.27,-27.38 17.27,-46.13 0,-66.21 -46.07,-93.52 -80.62,-149.72 -21.65,-36.04 -40.36,-56.18 -63.4,-92.19 -69.16,-103.62 -103.71,-169.93 -155.53,-282.2 -31.66,-67.67 -73.44,-95.09 -115.22,-155.53 -27.32,-40.36 -40.32,-72.06 -63.36,-115.23 -33.12,-63.35 -50.45,-103.66 -92.18,-161.3 -27.38,-38.88 -63.41,-56.16 -74.93,-103.65 86.49,7.17 128.23,43.21 207.43,74.87 -17.28,-36.04 -27.37,-60.44 -51.84,-92.16 -28.84,-35.97 -60.48,-43.26 -92.18,-74.91 -24.47,-24.46 -36.03,-44.64 -57.64,-69.1 -41.74,-46.11 -79.19,-70.53 -109.42,-126.7 -47.56,-87.86 -64.82,-146.92 -120.98,-230.44 -46.07,-67.7 -99.34,-90.72 -138.26,-161.24 -33.08,-60.5 -43.22,-102.31 -69.11,-167.07 -10.09,-27.37 -28.8,-41.74 -40.36,-69.1 -41.74,-93.62 -50.37,-156.98 -86.38,-253.49 -12.95,-37.47 -31.71,-56.12 -46.11,-92.14 -31.66,-79.21 -31.66,-132.51 -74.88,-207.32 -76.33,102.18 -80.63,192.89 -80.63,321.06 0,90.71 12.96,141.12 0,231.89 -17.33,-74.93 -20.16,-122.47 -40.36,-195.91 -20.14,-71.96 -63.34,-107.95 -63.34,-184.27 0,-48.98 14.42,-80.68 46.12,-115.23 5.76,-7.2 17.22,-4.28 22.99,-11.52 20.17,-21.62 23.03,-46.02 40.35,-69.12 17.28,-23.03 46.07,-33.12 46.07,-63.39 0,-84.96 -12.94,-133.89 -23.03,-218.88 -4.32,-44.64 -10.09,-71.96 -17.28,-115.17 -5.76,-34.57 -5.76,-57.6 -11.52,-92.15 -4.33,-24.51 -34.59,-31.71 -34.59,-57.63 0,-61.93 51.87,-87.88 51.87,-149.74 0,-31.7 -17.28,-49.02 -17.28,-80.68 0,-40.26 18.71,-63.34 23.04,-103.66 10.09,-80.67 4.34,-129.59 23.03,-207.36 15.81,-64.82 41.74,-95.05 51.83,-161.36 41.79,-46.01 86.43,-69.04 86.43,-132.43 0,-37.47 -28.82,-54.7 -28.82,-92.15 0,-67.69 63.39,-93.57 63.39,-161.31 0,-54.68 -25.95,-83.51 -34.57,-138.2 8.62,-1.43 12.95,-11.52 23.04,-11.52 28.86,0 34.61,40.26 63.41,40.26 47.49,0 44.64,-61.92 63.33,-103.61 17.24,-38.93 60.5,-38.93 97.95,-57.64 50.36,-24.46 95.04,-14.42 138.22,-51.84 31.7,-27.35 33.12,-61.9 63.39,-92.18 48.93,-48.92 89.29,-60.44 138.21,-109.41 36.03,-35.98 61.97,-64.83 69.2,-115.24 1.43,-15.84 -5.79,-30.21 0,-46.02 12.95,-34.6 53.27,-25.93 80.64,-51.88 30.27,-27.36 31.7,-61.91 57.59,-92.18 5.76,-7.2 17.26,-4.28 23.03,-11.52 33.13,-37.4 40.36,-72.01 63.39,-115.22 18.71,-34.51 41.75,-51.84 46.07,-92.1 2.91,-27.37 -11.52,-44.68 0,-69.14 7.2,-15.82 25.95,-20.16 40.37,-28.82 44.59,-28.78 56.11,-67.72 80.63,-115.22 28.78,-53.25 44.58,-84.96 74.85,-138.21 18.76,-33.13 25.95,-57.63 40.37,-92.2 41.73,-102.22 74.86,-159.81 132.49,-253.43 41.75,-67.67 90.73,-93.61 161.3,-132.46 53.26,-28.78 82.05,-56.2 138.22,-80.66 51.87,-23.05 89.34,-24.48 138.26,-51.83 70.64,-40.32 73.44,-110.85 92.2,-190.04 27.35,-109.48 25.93,-178.59 80.66,-276.53 15.79,-28.8 37.42,-38.89 57.59,-63.35 11.53,-14.42 20.13,-30.27 28.79,-46.12 30.23,-48.98 59.06,-70.54 97.95,-115.18 70.59,-80.68 100.76,-151.21 201.67,-184.33 41.69,-12.95 70.52,-7.18 115.12,-11.52 49.02,-5.77 70.63,-34.55 115.23,-51.88 27.41,-10.04 59.11,-7.13 69.1,-34.51 8.66,-24.52 4.38,-43.25 11.58,-69.1 12.94,-44.7 33.12,-67.69 40.3,-115.23 -34.56,-14.41 -53.25,-40.3 -92.14,-40.3 -25.95,0 -24.52,33.07 -46.07,46.07 -24.52,14.37 -44.64,24.46 -69.16,40.26 -33.08,21.65 -57.59,31.7 -92.18,51.88 -17.28,10.09 -25.95,28.84 -46.04,28.84 -59.1,0 -86.48,-46.13 -120.98,-92.24 70.54,-17.22 116.61,-5.75 184.35,-34.51 25.87,-10.09 27.35,-40.3 28.74,-69.16 7.26,-44.64 10.13,-73.37 23.08,-115.17 5.76,-17.26 17.28,-25.89 17.28,-44.64 0,-15.86 -4.34,-25.95 -5.77,-41.78 -63.33,0 -99.37,15.83 -161.29,5.76 -34.6,-5.76 -57.63,-14.39 -92.14,-23.05 61.87,-61.93 145.39,-18.69 207.36,-80.56l-17.26 -69.21c30.21,-30.17 54.67,-57.58 97.89,-57.58 33.12,0 56.15,15.84 74.91,40.3 17.28,21.61 23.05,51.88 51.83,51.88 30.23,0 41.75,-28.85 69.16,-40.37 83.48,-35.97 123.84,-84.95 161.24,-167 25.95,-59.07 36.02,-97.9 46.11,-161.29 7.2,-44.64 23.05,-69.11 23.05,-115.23 0,-83.48 -43.21,-139.69 -120.98,-178.57 -25.94,40.36 -36.03,67.72 -46.08,115.21 -8.6,40.37 -15.84,92.15 -57.58,92.15 -33.17,0 -53.31,-18.7 -80.67,-34.55 -8.62,-4.27 -11.53,-15.79 -23.03,-17.23 -36.04,-4.33 -57.6,0 -93.62,0l-141.18 0c-73.43,0 -90.71,70.54 -156.96,103.67 -2.85,-36.04 -11.52,-57.65 -17.28,-92.2 -7.18,-43.17 -4.33,-73.44 -17.28,-115.17 -11.51,-36.04 -24.49,-59.01 -28.79,-97.95l67.69 0c23.08,0 31.68,18.74 47.49,34.6 27.42,27.31 40.37,54.68 74.97,74.87 33.07,-33.15 59,-44.65 92.13,-74.87 14.38,-13.01 12.98,-37.47 28.8,-46.07 7.19,-4.34 15.85,1.42 23.03,0 15.86,-4.34 31.7,-4.34 46.11,-11.58 27.33,-14.37 21.57,-50.41 46.04,-69.1 12.99,-10.09 28.85,-11.52 46.11,-11.52 18.76,0 27.38,17.27 46.07,17.27 23.04,0 25.95,-28.78 28.8,-51.82l-143.97 -264.95 5.76 -23.09c28.79,-4.28 43.16,-10.03 69.11,-23.03 -23.03,-47.5 -54.75,-66.22 -92.15,-103.66 -21.6,-21.61 -30.27,-43.23 -46.11,-69.16 -4.34,-7.14 0,-18.71 -5.77,-22.99 -12.99,-10.1 -28.84,-5.81 -46.11,-5.81 -54.69,0 -84.96,23.09 -139.65,23.09 -53.34,0 -82.1,-1.43 -135.39,-1.43 -21.56,0 -27.33,-20.18 -47.51,-27.41 -15.86,-4.28 -30.27,-2.86 -46.12,-5.77 -66.24,-15.85 -100.79,-38.88 -167.06,-51.82 40.37,-20.14 70.59,-18.71 115.23,-28.8 27.36,-5.75 43.17,-17.28 72,-17.28 37.47,0 59.03,15.85 95.05,23.05 8.66,1.42 12.96,11.52 23.05,11.52 11.56,0 12.99,-14.43 23.03,-17.29 -44.65,-77.76 -89.23,-110.89 -167.06,-155.55 -33.08,-18.69 -57.59,-21.59 -86.38,-46.06 53.3,0 80.63,-24.47 126.74,-51.82 7.19,-4.34 17.28,-1.49 23.04,-5.77 24.46,-20.18 34.55,-47.5 34.55,-80.68 0,-30.21 -30.27,-40.3 -57.59,-51.81 -36.02,-15.86 -57.63,-25.91 -92.19,-46.07 -54.73,-31.72 -82.1,-59.07 -138.25,-86.39 -15.86,-7.23 -30.23,-8.66 -46.07,-17.32 -7.2,-4.29 -1.44,-15.81 -5.77,-22.99 15.85,-10.1 25.89,-28.85 46.07,-28.85 36.02,0 59.07,4.34 92.14,17.28 18.77,7.24 25.94,28.79 47.55,28.79l93.62 0 0 -110.83c0,-57.65 -46.12,-83.54 -95.05,-113.81 -7.19,-4.28 -15.85,-1.42 -23.03,-5.72 -56.16,-34.59 -67.69,-86.43 -126.75,-115.21l11.52 -23.04c38.89,0 61.92,-2.91 97.9,-17.33 20.18,-7.19 46.12,-17.22 46.12,-40.25 0,-73.5 -87.86,-76.36 -144.02,-121 -64.82,-51.83 -31.7,-132.45 -69.12,-207.37 -33.15,-67.67 -57.58,-109.41 -69.14,-184.33 -4.28,-25.94 -7.18,-44.64 -17.27,-69.1 -24.46,-56.17 -80.68,-76.34 -80.68,-138.26 0,-38.89 18.75,-57.59 34.56,-92.15 2.9,-7.24 -2.86,-15.85 0,-23.08 17.32,-40.32 41.78,-59.01 69.2,-92.14 27.31,-33.12 50.34,-50.41 74.86,-86.39 27.37,-40.35 37.41,-74.9 74.87,-103.71 2.9,50.41 28.79,76.35 28.79,126.75 0,43.21 -21.61,64.83 -40.3,103.65 -5.77,13 -17.29,20.19 -17.29,34.61 0,46.01 34.55,69.1 34.55,115.17 0,38.89 -34.55,53.31 -34.55,92.2 0,24.46 8.62,44.65 28.8,57.58 14.42,8.63 33.13,-4.32 46.12,5.77 14.43,11.52 12.9,28.78 17.26,46.07 10.05,35.98 14.39,64.76 46.08,86.39 23.04,14.41 57.59,17.32 57.59,46.11 0,31.65 -33.12,40.31 -57.59,57.6 30.28,73.42 74.87,116.64 149.77,143.95 24.47,8.66 48.98,1.49 69.12,17.33 23.03,17.28 24.5,41.74 34.55,69.12 10.1,25.93 24.52,41.73 28.8,69.1 10.09,53.3 12.99,93.62 51.88,132.49l178.57 0c1.48,17.29 5.76,27.38 5.76,44.67 0,116.64 -109.42,161.24 -109.42,277.94 0,92.15 44.64,138.21 51.78,230.35 13,-25.89 18.75,-43.17 28.84,-69.1 20.18,-48.98 57.63,-66.27 74.92,-115.23 12.94,-35.98 5.7,-61.87 17.23,-97.91 21.65,-70.57 34.6,-110.84 40.35,-184.33 4.33,-63.35 -1.41,-97.9 5.76,-161.29 12.99,-109.43 44.64,-167.01 57.59,-276.47 1.43,-17.29 11.52,-27.38 11.52,-44.64l0 -141.12c0,-46.07 -20.14,-69.1 -28.79,-113.76 -7.19,-34.56 -1.44,-59.05 -11.51,-92.2 -10.05,-33.08 -35.98,-50.39 -69.12,-63.33 -46.07,-18.72 -72,-33.13 -115.22,-57.59 -47.5,-27.37 -76.35,-47.55 -115.18,-86.4 -7.28,-7.22 -18.8,-8.65 -23.08,-17.31 -47.55,-79.19 -33.13,-142.55 -57.64,-230.4 -7.2,-27.37 -18.66,-40.32 -23.04,-69.1 48.98,7.18 70.57,28.78 115.23,46.07 69.15,28.78 112.32,40.34 184.38,57.58 34.55,8.66 66.25,1.48 92.09,23.04 34.61,30.26 13.05,73.48 17.32,120.97 2.86,36.04 14.42,57.59 23.04,92.2 20.19,-27.37 43.22,-38.93 57.64,-69.16 37.41,-74.85 31.66,-128.17 57.59,-207.37 24.5,-73.44 56.22,-109.41 74.87,-184.33 17.31,-69.1 11.52,-112.31 17.31,-184.28 1.44,-28.81 14.38,-41.8 23.03,-69.15 15.86,-50.41 12.96,-84.96 17.29,-138.22 12.96,-171.39 103.71,-254.92 103.71,-426.26 0,-23.09 -1.43,-36.01 -5.77,-57.64 -1.42,-7.17 2.87,-17.26 0,-23.03 -4.32,-7.18 -14.41,-7.18 -23.08,-11.52 -30.22,-15.84 -56.16,-10.09 -92.15,-11.52 -44.68,-1.42 -70.53,-8.66 -115.21,-11.51 -1.43,-15.84 -5.75,-25.93 -5.75,-41.74 0,-89.28 1.43,-146.91 34.59,-228.97 14.33,-36.03 35.98,-54.74 46.03,-92.19 10.09,-34.56 7.23,-60.45 23.08,-92.14 23.03,-47.5 46.07,-72.01 74.86,-115.24 56.21,-82.04 79.26,-136.78 149.79,-207.37 23.08,-22.99 47.49,-27.31 69.16,-51.81 25.88,-28.81 40.3,-51.84 69.1,-80.64 53.3,-53.26 92.18,-74.87 161.3,-103.65 56.16,-23.03 84.94,-44.64 138.3,-74.92 87.8,-50.41 145.4,-69.11 230.36,-126.7 20.18,-12.99 27.42,-30.26 46.11,-46.11 40.32,-34.55 70.59,-50.41 115.23,-80.63 41.75,-27.37 69.1,-46.07 115.17,-63.36 15.86,-5.79 30.28,-5.79 46.13,-11.56 11.51,-4.27 14.37,-14.36 23.03,-23.03 20.18,-20.14 35.98,-35.98 46.07,-63.35 14.43,-41.75 0,-73.43 11.52,-115.17 17.28,-63.4 51.88,-95.05 51.88,-161.3 27.37,12.95 43.17,20.14 69.1,34.55 7.19,2.85 17.28,0 23.05,5.75 20.18,20.18 14.42,41.75 23.08,69.12 66.2,-15.8 115.17,-20.14 161.25,-69.12 27.41,-28.78 25.94,-57.58 46.11,-92.18 20.14,-35.98 34.55,-57.54 57.59,-92.14 30.27,30.26 48.98,46.12 74.87,80.62 60.53,-31.65 76.34,-82.06 126.79,-126.7 31.65,-27.36 64.77,-30.25 92.15,-63.34 20.18,-24.51 28.83,-44.65 46.11,-69.16 12.9,-17.28 34.51,-21.61 46.07,-40.31 30.22,-46.07 46.03,-82.05 46.03,-138.21 0,-61.97 -70.54,-74.91 -126.69,-97.95 -60.5,-24.47 -92.15,-46.08 -155.51,-69.11 12.9,60.5 18.67,107.99 69.12,144.03 5.76,2.86 17.23,1.43 22.99,5.75 23.08,21.56 28.83,47.49 28.83,80.63 0,41.75 -1.47,73.43 -28.83,103.65 -25.9,27.38 -56.13,28.81 -92.11,40.32 -47.54,15.85 -76.38,28.83 -126.73,28.83 -43.27,0 -70.63,-21.59 -97.94,-51.82 -20.2,-23.09 -41.81,-36.03 -57.65,-63.4 -25.93,-43.21 -37.46,-73.43 -63.35,-115.18 -15.86,-25.92 -27.36,-46.11 -51.88,-63.39 -5.7,-2.85 -8.62,-14.37 -17.22,-14.37 -25.95,0 -41.8,2.85 -67.72,2.85 -79.2,0 -99.39,-99.33 -99.39,-178.57 0,-40.31 -5.75,-66.24 5.77,-103.66 14.42,-50.4 51.81,-67.68 74.85,-115.22 -46.03,-34.55 -84.94,-38.89 -138.21,-63.35 -15.85,-7.19 -40.35,-10.09 -40.35,-28.8 0,-17.27 10.08,-30.21 11.56,-46.07 8.61,-53.31 14.36,-84.96 23.03,-138.26 23.05,-144.02 24.48,-233.3 80.63,-368.6 14.42,-36.04 36.03,-56.23 51.82,-92.2 37.46,-83.53 44.7,-138.27 51.88,-230.42 41.74,-73.42 92.2,-90.71 161.3,-138.25 74.93,-51.83 92.19,-110.9 138.26,-190.09 20.18,-35.98 36.04,-64.78 74.87,-80.62 15.84,-5.77 33.17,-2.91 46.13,-11.52 24.46,-15.85 33.07,-40.32 40.34,-69.1 14.33,-50.41 8.57,-86.44 17.24,-138.28 4.32,-25.93 17.27,-40.3 17.27,-67.68l0 -116.65 -40.25 -115.18c25.88,-5.74 43.16,-11.51 69.1,-17.26 10.09,-1.48 11.52,-17.33 22.99,-17.33 30.26,0 33.12,37.45 46.11,63.34 12.96,25.95 21.62,41.79 34.56,69.16 46.07,-14.37 87.86,-11.52 115.18,-51.84 8.66,-12.99 1.52,-30.26 5.74,-46.07 7.3,-28.83 24.52,-44.68 40.38,-69.14 17.27,-25.9 28.83,-44.65 46.11,-69.12 7.18,-10.09 10.05,-23.03 23.04,-23.03 25.89,0 34.55,23.03 57.58,34.55 7.24,2.87 15.86,-1.43 23.08,0 22.99,-41.73 20.09,-74.85 46.04,-115.23 34.59,-53.24 76.32,-70.53 120.98,-115.17 23.08,-23.03 37.45,-38.89 63.35,-57.59 74.96,-56.21 99.38,-112.31 144.06,-195.84 25.94,-50.41 51.83,-80.62 51.83,-138.27 0,-27.37 -1.43,-48.98 -17.32,-69.1 -18.66,-23.03 -47.5,-24.47 -69.1,-46.08 -20.14,-20.19 -20.14,-43.22 -28.76,-69.15 -11.52,-31.7 -38.92,-41.75 -63.38,-63.35 69.15,-51.83 95.03,-110.89 115.22,-195.85l51.78 138.26c17.33,-30.26 44.69,-41.74 74.96,-57.58 50.35,-27.42 74.86,-51.9 115.23,-92.2 15.85,-15.85 18.69,-40.32 40.25,-46.07 25.95,-5.76 44.71,4.33 69.15,-5.76 61.93,-25.93 61.93,-87.86 86.45,-149.78 7.17,-17.27 7.17,-34.55 22.99,-46.07 12.99,-10.09 30.25,-5.75 46.11,-11.52 30.27,-12.99 38.89,-38.87 51.88,-69.1 28.74,-63.35 56.12,-95.05 80.62,-161.3 13.01,-36.03 17.23,-59.07 34.57,-92.19 14.36,-27.38 31.69,-41.73 46.06,-69.11 18.74,-36.03 30.23,-60.49 57.59,-92.13 14.43,-17.33 33.17,-24.52 40.36,-46.13 11.51,-33.08 11.51,-59.01 23.03,-92.15 15.86,-43.2 33.6,-49.92 66.74,-83.04l0 -470.15c-46.08,-14.35 -104.18,-22.84 -135.84,-57.39 -20.18,-21.61 -14.39,-47.5 -34.55,-69.11 -13,-14.41 -31.7,-10.09 -46.13,-23.03 -23.03,-21.61 -21.56,-50.4 -46.07,-69.1 -21.6,-17.33 -41.78,-24.52 -69.16,-28.84 -34.55,-5.77 -67.67,1.43 -92.13,-23.04 -24.47,-24.47 -11.57,-57.58 -17.32,-92.15 -2.86,-17.27 -12.89,-28.8 -17.24,-46.06 -12.94,-54.74 -12.94,-89.31 -40.36,-138.27 -110.89,35.97 -159.82,96.47 -276.48,115.19 17.29,-48.94 -2.89,-89.31 17.29,-138.22 24.46,-61.93 56.15,-95.05 69.1,-161.31 2.91,-15.83 1.44,-30.26 5.76,-46.07 10.1,-37.45 37.41,-53.3 46.07,-92.19 5.77,-25.88 -1.38,-41.74 0,-69.1 2.9,-44.64 11.51,-70.59 11.51,-115.17 0,-30.27 -38.82,-34.61 -69.1,-34.61 -79.19,0 -120.97,38.94 -195.85,63.35 -13,-27.33 -24.51,-44.59 -40.35,-69.1 -38.85,79.19 -47.5,133.92 -92.14,207.41 -15.86,27.31 -30.23,57.59 -63.35,57.59 -56.22,0 -82.11,-46.12 -138.31,-46.12 -109.44,0 -167.02,40.3 -276.48,40.3 -59.06,0 -93.61,-15.83 -149.83,-34.55 49.03,-43.17 74.96,-76.29 109.46,-132.45 21.61,-36.02 25.95,-72 63.4,-92.18 40.31,-21.56 69.12,-21.56 115.23,-23.03 35.98,-1.43 59.03,4.32 92.18,-5.77 18.71,-5.75 27.38,-18.71 46.04,-23.04 43.26,-11.51 73.43,-4.33 115.22,-23.03 17.33,-7.19 37.46,-11.52 46.06,-28.8 8.66,-17.27 0.06,-32.51 0.06,-52.69l-1445.72 0c-60.5,80.62 -87.86,132.52 -149.73,213.14 -41.8,54.73 -79.3,76.33 -109.52,138.26 -17.28,34.55 -21.56,59.01 -40.32,92.14 -24.49,43.21 -46.12,69.1 -63.34,115.18 -30.27,79.24 -34.6,128.22 -63.4,207.41 -20.18,56.11 -47.5,82.05 -69.1,138.22 -11.52,30.26 -13.01,50.39 -23.08,80.62 -25.9,74.91 -46.04,119.55 -69.12,195.89 -8.6,30.23 -24.46,50.35 -34.55,80.64 -35.98,105.12 -64.82,167.04 -86.42,276.47 -15.85,80.66 -21.61,131.02 -51.84,207.36 -23.04,60.5 -56.16,89.28 -80.67,149.78 -17.27,44.64 -23.03,73.45 -46.08,115.19 -33.12,59.05 -64.8,84.96 -97.89,144.02 -30.27,54.73 -34.61,97.89 -69.16,149.77 -31.65,48.93 -74.91,60.49 -97.94,115.18 -20.14,48.98 -38.85,79.2 -69.11,120.97l-23.09 -11.51c5.81,-53.31 1.49,-86.43 11.58,-138.27 4.27,-25.88 15.83,-41.72 17.26,-69.14 4.34,-54.69 -1.43,-89.24 23.04,-138.22 31.7,-63.34 59.07,-95.04 86.43,-161.3 23.05,-57.58 -1.47,-103.65 23.05,-161.24 8.6,-20.18 28.78,-24.52 34.55,-46.07 30.21,-97.96 41.77,-158.44 80.66,-253.49 38.85,-95.05 70.55,-151.2 86.39,-253.43 5.76,-34.55 17.28,-54.74 17.28,-90.73 0,-23.04 -5.76,-35.98 -5.76,-59.06 -53.27,-5.76 -93.61,-5.76 -132.5,-40.31 67.67,-15.86 126.74,-8.62 167.05,-63.36 15.85,-21.6 12.98,-43.21 17.28,-69.14 15.9,-79.21 21.65,-126.7 34.59,-207.32 1.43,-15.84 11.52,-27.36 11.52,-44.69l0 -118.04c0,-25.95 8.66,-41.78 11.52,-67.67 2.91,-27.38 2.91,-46.13 17.28,-69.16 23.04,-35.98 53.31,-47.5 69.11,-86.44 17.27,-41.68 14.42,-70.52 23.03,-115.12 4.33,-25.94 13,-43.26 17.32,-69.16 4.29,-25.88 -2.9,-51.82 17.29,-69.15 12.94,-10.04 30.27,-7.19 46.11,-11.47 28.74,-7.24 43.17,-21.61 69.12,-34.55 17.26,-8.67 34.49,-7.24 46.01,-23.08 15.89,-21.58 7.23,-41.74 11.57,-69.12l-6314.47 0c1.43,28.81 1.96,52.69 23.57,69.97 21.55,17.28 43.15,11.52 69.1,23.04 53.3,23.03 87.85,30.23 138.26,57.58 38.87,21.61 51.82,59.07 51.82,103.71 0,14.42 -11.52,20.19 -11.52,34.55 0,54.74 24.52,83.54 28.85,138.27 -70.59,-46.13 -126.79,-43.22 -207.41,-69.16 -27.37,-8.62 -41.79,-24.47 -69.1,-28.8 -25.95,-4.33 -44.7,4.33 -69.16,-5.76 -15.8,-7.17 -24.46,-21.6 -34.55,-34.55 -23.04,-27.36 -41.8,-40.31 -63.36,-69.11 -23.03,57.6 -17.26,100.77 -34.55,161.25 -10.09,34.55 -14.43,59.07 -28.84,92.19 -17.27,38.9 -40.36,60.49 -40.36,103.66 0,40.36 2.91,67.69 17.33,103.72 12.93,30.22 43.21,31.65 69.16,51.83 17.26,12.94 17.26,31.69 34.49,46.07 23.09,18.76 40.36,31.69 63.45,51.83l-44.7 0c-28.79,0 -43.21,-11.51 -70.53,-17.28 -64.82,-15.79 -99.37,-31.65 -161.3,-51.82 -36.02,-11.53 -60.54,-10.11 -97.99,-17.29 -61.87,-11.51 -99.38,-23.03 -162.74,-23.03 -40.25,0 -61.9,5.76 -102.22,2.9 0,-97.95 -33.13,-155.59 -80.63,-239.07 -21.6,-37.44 -33.16,-67.67 -69.15,-92.19 -34.56,-22.99 -59.06,-35.98 -92.14,-63.35 -74.92,-63.34 -79.25,-152.62 -172.86,-178.57 -80.63,-21.6 -129.66,-11.52 -213.13,-11.52 -89.29,0 -145.44,-1.42 -230.4,23.04 -34.61,10.09 -54.79,23.08 -92.24,28.85 2.9,-49.03 14.43,-83.54 51.88,-115.23 14.41,-11.52 28.84,-11.52 46.11,-17.29 46.08,-17.26 77.53,-22.46 113.57,-58.44l-8122.23 0.01 0 25384.72z"/>
  <path class="fil2 str1" d="M1724.55 1242.04l3438.65 0 0 1592.9 -3438.65 0 0 -1592.9z"/>
  <path class="fil3" d="M1327.3 2973c0,-17.45 4.47,-34.48 13.46,-51.13 8.93,-16.61 21.77,-29.59 38.43,-38.86 16.69,-9.26 34.1,-13.92 52.16,-13.92 17.92,0 35.18,4.56 51.69,13.74 16.56,9.12 29.4,21.92 38.53,38.43 9.17,16.51 13.73,33.77 13.73,51.74 0,18.01 -4.56,35.27 -13.73,51.78 -9.13,16.51 -21.97,29.35 -38.53,38.53 -16.51,9.17 -33.77,13.78 -51.69,13.78 -18.06,0 -35.47,-4.66 -52.16,-13.97 -16.66,-9.36 -29.5,-22.34 -38.43,-38.95 -8.99,-16.65 -13.46,-33.68 -13.46,-51.17zm17.22 0c0,14.62 3.76,28.88 11.24,42.7 7.48,13.83 18.2,24.65 32.13,32.46 13.92,7.81 28.41,11.71 43.46,11.71 15,0 29.35,-3.85 43.08,-11.52 13.74,-7.67 24.46,-18.39 32.13,-32.17 7.67,-13.79 11.52,-28.18 11.52,-43.18 0,-14.96 -3.85,-29.36 -11.52,-43.14 -7.67,-13.78 -18.39,-24.5 -32.13,-32.12 -13.73,-7.62 -28.08,-11.43 -43.08,-11.43 -15.05,0 -29.54,3.9 -43.46,11.66 -13.93,7.76 -24.65,18.58 -32.13,32.46 -7.48,13.87 -11.24,28.08 -11.24,42.57zm103.57 -33.35l5.08 -16.94c11.53,2.78 20.7,8.61 27.52,17.55 6.87,8.98 10.3,19.85 10.3,32.59 0,16.19 -5.22,29.31 -15.71,39.42 -10.49,10.11 -24.98,15.15 -43.55,15.15 -12.14,0 -22.68,-2.31 -31.61,-6.92 -8.99,-4.56 -15.71,-11.15 -20.28,-19.61 -4.56,-8.52 -6.82,-18.25 -6.82,-29.16 0,-12.23 2.92,-22.39 8.8,-30.48 5.88,-8.09 13.88,-13.6 23.94,-16.56l4.23 16.37c-6.91,2.77 -12.23,6.82 -15.89,12.23 -3.72,5.41 -5.55,11.71 -5.55,19 0,10.58 3.76,19.33 11.28,26.2 7.53,6.87 18.35,10.3 32.37,10.3 14.06,0 24.69,-3.24 31.89,-9.74 7.19,-6.49 10.81,-14.86 10.81,-25.16 0,-8.28 -2.39,-15.57 -7.24,-21.83 -4.8,-6.25 -11.33,-10.39 -19.57,-12.41z"/>
  <path id="1" class="fil3" d="M1532.76 2677.84l-18.58 0c14.44,9.27 21.68,22.91 21.68,40.92 0,11.67 -3.19,22.39 -9.64,32.13 -6.4,9.78 -15.38,17.35 -26.86,22.76 -11.52,5.37 -24.74,8.05 -39.69,8.05 -14.59,0 -27.8,-2.45 -39.7,-7.29 -11.86,-4.9 -20.98,-12.19 -27.29,-21.92 -6.35,-9.69 -9.5,-20.61 -9.5,-32.6 0,-8.84 1.88,-16.7 5.6,-23.56 3.72,-6.87 8.61,-12.47 14.58,-16.8l-72.67 0 0 -24.83 202.07 0 0 23.14zm-73.05 78.46c18.72,0 32.69,-3.95 41.96,-11.9 9.26,-7.91 13.87,-17.27 13.87,-28.04 0,-10.86 -4.42,-20.08 -13.26,-27.7 -8.84,-7.57 -22.34,-11.38 -40.5,-11.38 -19.94,0 -34.62,3.85 -43.98,11.61 -9.36,7.72 -14.01,17.27 -14.01,28.6 0,11.06 4.46,20.27 13.45,27.71 8.98,7.38 23.14,11.1 42.47,11.1z"/>
  <path id="2" class="fil3" d="M1472.08 2625.3l-24.83 0 0 -76.76 24.83 0 0 76.76z"/>
  <path id="3" class="fil3" d="M1532.76 2521.44l-146.47 0 0 -22.29 20.69 0c-7.15,-4.56 -12.93,-10.68 -17.26,-18.3 -4.37,-7.62 -6.54,-16.27 -6.54,-26.01 0,-10.82 2.26,-19.71 6.73,-26.62 4.52,-6.92 10.77,-11.81 18.86,-14.63 -17.07,-11.67 -25.59,-26.77 -25.59,-45.39 0,-14.58 4,-25.83 12.04,-33.63 8.05,-7.86 20.42,-11.81 37.12,-11.81l100.42 0 0 24.84 -92.19 0c-9.88,0 -17.03,0.84 -21.4,2.44 -4.38,1.6 -7.86,4.52 -10.54,8.8 -2.68,4.23 -4,9.22 -4,14.91 0,10.35 3.44,18.91 10.26,25.73 6.86,6.82 17.82,10.2 32.87,10.2l85 0 0 24.84 -95.06 0c-11.01,0 -19.29,2.02 -24.79,6.07 -5.5,4.04 -8.28,10.67 -8.28,19.85 0,6.96 1.84,13.4 5.51,19.33 3.66,5.93 9.03,10.21 16.13,12.89 7.05,2.63 17.26,3.95 30.57,3.95l75.92 0 0 24.83z"/>
  <path id="4" class="fil3" d="M1514.42 2190.68c7.85,9.22 13.35,18.11 16.6,26.62 3.25,8.52 4.84,17.64 4.84,27.43 0,16.08 -3.9,28.45 -11.75,37.11 -7.81,8.65 -17.83,12.98 -30.01,12.98 -7.15,0 -13.69,-1.65 -19.62,-4.89 -5.93,-3.29 -10.63,-7.57 -14.2,-12.84 -3.58,-5.32 -6.31,-11.24 -8.14,-17.88 -1.27,-4.89 -2.49,-12.27 -3.72,-22.1 -2.35,-20.04 -5.22,-34.86 -8.51,-44.31 -3.39,-0.1 -5.55,-0.14 -6.44,-0.14 -10.07,0 -17.17,2.35 -21.31,7.05 -5.6,6.35 -8.37,15.81 -8.37,28.32 0,11.71 2.07,20.36 6.16,25.92 4.09,5.59 11.38,9.68 21.78,12.37l-3.39 24.27c-10.4,-2.21 -18.82,-5.84 -25.21,-10.92 -6.4,-5.08 -11.29,-12.41 -14.77,-22.01 -3.44,-9.55 -5.18,-20.7 -5.18,-33.3 0,-12.51 1.46,-22.72 4.42,-30.57 2.97,-7.81 6.64,-13.6 11.11,-17.27 4.46,-3.67 10.11,-6.25 16.93,-7.76 4.23,-0.8 11.85,-1.22 22.81,-1.22l32.93 0c23,0 37.53,-0.52 43.69,-1.55 6.17,-0.99 12.05,-3.06 17.69,-6.07l0 25.96c-5.22,2.5 -11.34,4.1 -18.34,4.8zm-55.04 1.98c3.67,9.03 6.78,22.57 9.32,40.64 1.45,10.25 3.1,17.49 4.93,21.73 1.84,4.23 4.52,7.48 8,9.78 3.53,2.31 7.43,3.48 11.76,3.48 6.54,0 12.04,-2.49 16.42,-7.52 4.37,-5.04 6.58,-12.38 6.58,-22.02 0,-9.55 -2.07,-18.06 -6.25,-25.54 -4.14,-7.43 -9.84,-12.93 -17.03,-16.41 -5.6,-2.69 -13.83,-4 -24.7,-4l-9.03 -0.14z"/>
  <path id="5" class="fil3" d="M1588.92 2129.39l-202.63 0 0 -22.57 19.24 0c-7.44,-5.32 -13.03,-11.34 -16.75,-18.07 -3.72,-6.68 -5.6,-14.81 -5.6,-24.36 0,-12.51 3.2,-23.52 9.65,-33.07 6.39,-9.55 15.47,-16.74 27.14,-21.63 11.71,-4.85 24.5,-7.3 38.47,-7.3 14.91,0 28.37,2.69 40.36,8.05 11.95,5.36 21.12,13.17 27.52,23.42 6.35,10.21 9.54,20.98 9.54,32.27 0,8.28 -1.74,15.71 -5.22,22.25 -3.48,6.58 -7.85,11.94 -13.17,16.18l71.45 0 0 24.83zm-128.5 -22.57c18.77,0 32.69,-3.81 41.67,-11.39 8.99,-7.62 13.45,-16.84 13.45,-27.65 0,-11.01 -4.65,-20.42 -13.97,-28.23 -9.31,-7.85 -23.7,-11.76 -43.22,-11.76 -18.63,0 -32.55,3.81 -41.82,11.48 -9.26,7.67 -13.87,16.79 -13.87,27.42 0,10.54 4.94,19.85 14.77,27.94 9.87,8.14 24.17,12.19 42.99,12.19z"/>
  <path id="6" class="fil3" d="M1489.02 1982.31l-3.96 -24.55c9.84,-1.37 17.36,-5.22 22.63,-11.53 5.22,-6.3 7.85,-15.14 7.85,-26.43 0,-11.43 -2.3,-19.9 -6.96,-25.45 -4.61,-5.5 -10.06,-8.28 -16.32,-8.28 -5.6,0 -10.02,2.5 -13.22,7.44 -2.21,3.48 -4.98,11.94 -8.42,25.4 -4.56,18.15 -8.51,30.71 -11.85,37.77 -3.39,7 -7.99,12.32 -13.92,15.94 -5.88,3.62 -12.42,5.46 -19.57,5.46 -6.54,0 -12.56,-1.51 -18.11,-4.47 -5.55,-3.01 -10.16,-7.06 -13.83,-12.18 -2.82,-3.86 -5.22,-9.13 -7.19,-15.76 -1.98,-6.68 -2.97,-13.78 -2.97,-21.4 0,-11.48 1.65,-21.54 4.99,-30.2 3.29,-8.7 7.81,-15.1 13.45,-19.24 5.69,-4.09 13.27,-6.96 22.77,-8.51l3.38 24.27c-7.62,1.08 -13.59,4.28 -17.87,9.55 -4.28,5.27 -6.4,12.7 -6.4,22.34 0,11.34 1.88,19.47 5.65,24.32 3.76,4.84 8.18,7.29 13.21,7.29 3.2,0 6.12,-0.99 8.71,-3.01 2.63,-2.02 4.84,-5.18 6.58,-9.5 0.94,-2.5 3.06,-9.74 6.35,-21.87 4.66,-17.5 8.52,-29.73 11.48,-36.69 2.96,-6.96 7.34,-12.42 12.98,-16.37 5.69,-4 12.75,-5.98 21.21,-5.98 8.24,0 16,2.4 23.29,7.25 7.29,4.84 12.93,11.8 16.93,20.88 4,9.13 5.97,19.43 5.97,30.91 0,19 -3.95,33.53 -11.8,43.5 -7.9,9.98 -19.57,16.33 -35.04,19.1z"/>
  <path id="7" class="fil3" d="M1532.76 1824.27l-28.22 0 0 -28.22 28.22 0 0 28.22z"/>
  <path id="8" class="fil3" d="M1479.14 1657.24l3.38 -24.27c16.7,2.68 29.73,9.45 39.19,20.41 9.45,10.96 14.15,24.46 14.15,40.41 0,19.99 -6.53,36.08 -19.61,48.21 -13.08,12.18 -31.8,18.25 -56.16,18.25 -15.81,0 -29.59,-2.63 -41.39,-7.85 -11.86,-5.22 -20.75,-13.17 -26.63,-23.9 -5.92,-10.68 -8.89,-22.29 -8.89,-34.9 0,-15.85 4,-28.88 12.04,-38.95 8.05,-10.11 19.48,-16.6 34.25,-19.42l3.67 23.99c-9.83,2.3 -17.22,6.35 -22.2,12.23 -4.94,5.83 -7.44,12.88 -7.44,21.16 0,12.51 4.47,22.67 13.41,30.53 8.98,7.81 23.09,11.71 42.47,11.71 19.66,0 33.92,-3.76 42.81,-11.29 8.89,-7.57 13.35,-17.4 13.35,-29.49 0,-9.78 -2.96,-17.92 -8.93,-24.41 -5.93,-6.54 -15.1,-10.68 -27.47,-12.42z"/>
  <path id="9" class="fil3" d="M1459.52 1621.12c-27.04,0 -47.08,-7.53 -60.11,-22.63 -10.82,-12.56 -16.23,-27.94 -16.23,-46.05 0,-20.08 6.59,-36.54 19.76,-49.34 13.12,-12.75 31.33,-19.14 54.51,-19.14 18.82,0 33.59,2.82 44.36,8.46 10.77,5.65 19.14,13.88 25.12,24.7 5.97,10.77 8.93,22.58 8.93,35.32 0,20.51 -6.53,37.07 -19.66,49.72 -13.12,12.65 -32.03,18.96 -56.68,18.96zm0.05 -25.4c18.72,0 32.74,-4.1 42,-12.28 9.32,-8.23 13.97,-18.53 13.97,-31 0,-12.32 -4.65,-22.57 -14.01,-30.81 -9.36,-8.18 -23.61,-12.27 -42.76,-12.27 -18.06,0 -31.75,4.14 -41.01,12.37 -9.32,8.23 -13.97,18.48 -13.97,30.71 0,12.47 4.61,22.77 13.87,31 9.27,8.18 23.24,12.28 41.91,12.28z"/>
  <path id="10" class="fil3" d="M1532.76 1454.84l-146.47 0 0 -22.29 20.69 0c-7.15,-4.56 -12.93,-10.68 -17.26,-18.3 -4.37,-7.62 -6.54,-16.27 -6.54,-26.01 0,-10.82 2.26,-19.71 6.73,-26.62 4.52,-6.92 10.77,-11.81 18.86,-14.63 -17.07,-11.67 -25.59,-26.77 -25.59,-45.39 0,-14.58 4,-25.83 12.04,-33.63 8.05,-7.86 20.42,-11.81 37.12,-11.81l100.42 0 0 24.84 -92.19 0c-9.88,0 -17.03,0.84 -21.4,2.44 -4.38,1.6 -7.86,4.52 -10.54,8.8 -2.68,4.23 -4,9.22 -4,14.91 0,10.35 3.44,18.91 10.26,25.73 6.86,6.82 17.82,10.2 32.87,10.2l85 0 0 24.84 -95.06 0c-11.01,0 -19.29,2.02 -24.79,6.07 -5.5,4.04 -8.28,10.67 -8.28,19.85 0,6.96 1.84,13.4 5.51,19.33 3.66,5.93 9.03,10.21 16.13,12.89 7.05,2.63 17.26,3.95 30.57,3.95l75.92 0 0 24.83z"/>
  <g id="_2414787691072">
   <path class="fil4" d="M3071.54 1587.05l0 24.34 -31.39 0 0 61.74 -28.58 0 0 -61.74 -98.43 0 0 -21.93 107.96 -154.81 19.05 0 0 152.4 31.39 0zm-59.97 0l0 -116.06 -81.61 116.06 81.61 0z"/>
   <path id="1" class="fil4" d="M3096.59 1557.54c0,-26.64 4,-49.51 12.05,-68.74 8.06,-19.22 18.7,-33.57 32.05,-42.98 10.29,-7.47 20.99,-11.17 31.98,-11.17 17.94,0 33.99,9.11 48.22,27.34 17.81,22.64 26.69,53.27 26.69,91.96 0,27.05 -3.88,50.09 -11.7,69.03 -7.82,18.93 -17.76,32.63 -29.87,41.21 -12.11,8.53 -23.81,12.82 -35.04,12.82 -22.29,0 -40.81,-13.11 -55.62,-39.39 -12.53,-22.17 -18.76,-48.86 -18.76,-80.08zm33.87 4.23c0,32.1 3.94,58.33 11.82,78.67 6.52,17.11 16.28,25.63 29.22,25.63 6.17,0 12.58,-2.76 19.22,-8.34 6.65,-5.59 11.65,-14.88 15.11,-27.99 5.24,-19.7 7.88,-47.57 7.88,-83.43 0,-26.64 -2.76,-48.86 -8.23,-66.62 -4.11,-13.23 -9.46,-22.58 -15.99,-28.05 -4.65,-3.82 -10.35,-5.7 -16.99,-5.7 -7.76,0 -14.7,3.53 -20.76,10.52 -8.23,9.53 -13.87,24.46 -16.81,44.92 -3,20.41 -4.47,40.52 -4.47,60.39z"/>
   <path id="2" class="fil4" d="M3272.98 1557.54c0,-26.64 4,-49.51 12.05,-68.74 8.06,-19.22 18.7,-33.57 32.05,-42.98 10.29,-7.47 20.99,-11.17 31.98,-11.17 17.94,0 33.99,9.11 48.22,27.34 17.81,22.64 26.69,53.27 26.69,91.96 0,27.05 -3.88,50.09 -11.7,69.03 -7.82,18.93 -17.76,32.63 -29.87,41.21 -12.11,8.53 -23.81,12.82 -35.04,12.82 -22.29,0 -40.81,-13.11 -55.62,-39.39 -12.53,-22.17 -18.76,-48.86 -18.76,-80.08zm33.87 4.23c0,32.1 3.94,58.33 11.82,78.67 6.52,17.11 16.28,25.63 29.22,25.63 6.17,0 12.58,-2.76 19.22,-8.34 6.65,-5.59 11.65,-14.88 15.11,-27.99 5.24,-19.7 7.88,-47.57 7.88,-83.43 0,-26.64 -2.76,-48.86 -8.23,-66.62 -4.11,-13.23 -9.46,-22.58 -15.99,-28.05 -4.65,-3.82 -10.35,-5.7 -16.99,-5.7 -7.76,0 -14.7,3.53 -20.76,10.52 -8.23,9.53 -13.87,24.46 -16.81,44.92 -3,20.41 -4.47,40.52 -4.47,60.39z"/>
   <path id="3" class="fil4" d="M3582.73 1427.95l0 157.16 39.98 -36.63c8.52,-7.82 13.46,-12.76 14.81,-14.82 0.95,-1.41 1.42,-2.76 1.42,-4.17 0,-2.29 -1,-4.23 -2.89,-5.94 -1.88,-1.65 -4.99,-2.59 -9.4,-2.82l0 -5.65 68.61 0 0 5.65c-9.35,0.23 -17.17,1.7 -23.4,4.35 -6.23,2.7 -13.05,7.47 -20.52,14.29l-40.63 37.22 40.34 51.33c11.29,14.05 18.81,23.04 22.58,26.98 5.58,5.24 10.4,8.65 14.58,10.17 2.94,1.12 7.99,1.71 15.17,1.71l0 6.35 -76.73 0 0 -6.35c4.41,-0.12 7.35,-0.76 8.88,-1.94 1.58,-1.24 2.35,-2.88 2.35,-5.06 0,-2.64 -2.3,-6.88 -6.88,-12.7l-48.27 -61.79 0 52.21c0,10.23 0.7,16.93 2.11,20.17 1.47,3.17 3.47,5.46 6.12,6.88 2.64,1.35 8.35,2.11 17.17,2.23l0 6.35 -80.08 0 0 -6.35c7.99,0 14.05,-1 18.05,-2.94 2.41,-1.23 4.23,-3.17 5.46,-5.76 1.71,-3.76 2.59,-10.29 2.59,-19.52l0 -143.94c0,-18.05 -0.41,-29.1 -1.18,-33.16 -0.82,-4.05 -2.11,-6.82 -3.99,-8.35 -1.83,-1.58 -4.24,-2.35 -7.18,-2.35 -2.41,0 -6.05,1 -10.82,2.94l-2.93 -6.35 46.74 -19.4 7.94 0z"/>
   <path id="4" class="fil4" d="M3759.47 1544.25c11.41,-11.53 18.17,-18.17 20.22,-19.93 5.12,-4.36 10.65,-7.77 16.59,-10.18 5.93,-2.41 11.81,-3.64 17.63,-3.64 9.88,0 18.29,2.88 25.4,8.64 7.06,5.76 11.82,14.11 14.17,25.11 11.88,-13.88 21.88,-22.93 30.05,-27.28 8.17,-4.3 16.58,-6.47 25.22,-6.47 8.35,0 15.82,2.17 22.35,6.47 6.46,4.29 11.64,11.34 15.4,21.16 2.53,6.65 3.82,17.11 3.82,31.4l0 67.97c0,9.82 0.71,16.58 2.18,20.23 1.12,2.46 3.23,4.64 6.23,6.4 3.06,1.77 8,2.65 14.88,2.65l0 6.35 -77.26 0 0 -6.35 3.29 0c6.7,0 11.99,-1.29 15.76,-3.94 2.64,-1.82 4.52,-4.76 5.64,-8.76 0.47,-1.94 0.71,-7.47 0.71,-16.58l0 -67.91c0,-12.88 -1.53,-21.93 -4.65,-27.22 -4.52,-7.35 -11.7,-11.06 -21.63,-11.06 -6.06,0 -12.23,1.53 -18.41,4.59 -6.11,3 -13.58,8.7 -22.34,16.93l-0.35 1.94 0.7 7.41 0 75.32c0,10.7 0.59,17.4 1.77,20.05 1.23,2.59 3.46,4.82 6.76,6.58 3.29,1.77 8.93,2.65 16.87,2.65l0 6.35 -79.37 0 0 -6.35c8.64,0 14.58,-1 17.81,-3.06 3.24,-2.06 5.47,-5.17 6.7,-9.29 0.59,-1.94 0.89,-7.58 0.89,-16.93l0 -67.91c0,-12.88 -1.88,-22.17 -5.65,-27.87 -5.05,-7.41 -12.05,-11.11 -21.11,-11.11 -6.17,0 -12.28,1.7 -18.34,5.05 -9.47,5.06 -16.82,10.82 -21.93,17.17l0 84.67c0,10.29 0.7,16.93 2.12,20.05 1.41,3.06 3.52,5.35 6.35,6.94 2.76,1.53 8.4,2.29 16.93,2.29l0 6.35 -77.97 0 0 -6.35c7.24,0 12.29,-0.76 15.17,-2.29 2.89,-1.59 5.06,-4 6.59,-7.41 1.47,-3.35 2.23,-9.88 2.23,-19.58l0 -60.33c0,-17.28 -0.53,-28.45 -1.53,-33.51 -0.82,-3.82 -2.05,-6.41 -3.82,-7.82 -1.7,-1.47 -4.05,-2.18 -6.99,-2.18 -3.24,0 -7.06,0.89 -11.53,2.59l-2.58 -6.35 47.62 -19.4 7.41 0 0 33.75z"/>
   <path class="fil4" d="M2807.74 2597.52l-16.34 45.39 -137.82 0 0 -6.47c40.57,-36.98 69.08,-67.14 85.61,-90.54 16.52,-23.41 24.81,-44.81 24.81,-64.21 0,-14.82 -4.53,-26.99 -13.64,-36.51 -9.06,-9.53 -19.88,-14.29 -32.52,-14.29 -11.52,0 -21.81,3.29 -30.92,9.94 -9.18,6.64 -15.88,16.4 -20.29,29.22l-6.35 0c2.88,-21.11 10.29,-37.34 22.17,-48.69 11.87,-11.28 26.75,-16.93 44.62,-16.93 18.94,0 34.81,6.12 47.51,18.29 12.7,12.17 19.05,26.51 19.05,43.09 0,11.82 -2.76,23.7 -8.29,35.52 -8.47,18.58 -22.28,38.27 -41.33,59.09 -28.64,31.16 -46.28,49.86 -53.04,56.03l60.39 0c12.29,0 20.93,-0.47 25.87,-1.35 4.94,-0.94 9.41,-2.82 13.4,-5.65 4,-2.76 7.47,-6.76 10.41,-11.93l6.7 0z"/>
   <path id="1" class="fil4" d="M2835.26 2527.32c0,-26.64 4,-49.51 12.05,-68.74 8.06,-19.22 18.7,-33.57 32.05,-42.98 10.29,-7.47 20.99,-11.17 31.98,-11.17 17.94,0 33.99,9.11 48.22,27.34 17.81,22.64 26.69,53.27 26.69,91.96 0,27.05 -3.88,50.09 -11.7,69.03 -7.82,18.93 -17.76,32.63 -29.87,41.21 -12.11,8.53 -23.81,12.82 -35.04,12.82 -22.29,0 -40.81,-13.11 -55.62,-39.39 -12.53,-22.17 -18.76,-48.86 -18.76,-80.08zm33.87 4.23c0,32.1 3.94,58.33 11.82,78.67 6.52,17.11 16.28,25.63 29.22,25.63 6.17,0 12.58,-2.76 19.22,-8.34 6.65,-5.59 11.65,-14.88 15.11,-27.99 5.24,-19.7 7.88,-47.57 7.88,-83.43 0,-26.64 -2.76,-48.86 -8.23,-66.62 -4.11,-13.23 -9.46,-22.58 -15.99,-28.05 -4.65,-3.82 -10.35,-5.7 -16.99,-5.7 -7.76,0 -14.7,3.53 -20.76,10.52 -8.23,9.53 -13.87,24.46 -16.81,44.92 -3,20.41 -4.47,40.52 -4.47,60.39z"/>
   <path id="2" class="fil4" d="M3011.65 2527.32c0,-26.64 4,-49.51 12.05,-68.74 8.06,-19.22 18.7,-33.57 32.05,-42.98 10.29,-7.47 20.99,-11.17 31.98,-11.17 17.94,0 33.99,9.11 48.22,27.34 17.81,22.64 26.69,53.27 26.69,91.96 0,27.05 -3.88,50.09 -11.7,69.03 -7.82,18.93 -17.76,32.63 -29.87,41.21 -12.11,8.53 -23.81,12.82 -35.04,12.82 -22.29,0 -40.81,-13.11 -55.62,-39.39 -12.53,-22.17 -18.76,-48.86 -18.76,-80.08zm33.87 4.23c0,32.1 3.94,58.33 11.82,78.67 6.52,17.11 16.28,25.63 29.22,25.63 6.17,0 12.58,-2.76 19.22,-8.34 6.65,-5.59 11.65,-14.88 15.11,-27.99 5.24,-19.7 7.88,-47.57 7.88,-83.43 0,-26.64 -2.76,-48.86 -8.23,-66.62 -4.11,-13.23 -9.46,-22.58 -15.99,-28.05 -4.65,-3.82 -10.35,-5.7 -16.99,-5.7 -7.76,0 -14.7,3.53 -20.76,10.52 -8.23,9.53 -13.87,24.46 -16.81,44.92 -3,20.41 -4.47,40.52 -4.47,60.39z"/>
   <path id="3" class="fil4" d="M3321.75 2514.03c11.41,-11.53 18.17,-18.17 20.22,-19.93 5.12,-4.36 10.65,-7.77 16.59,-10.18 5.93,-2.41 11.81,-3.64 17.63,-3.64 9.88,0 18.29,2.88 25.4,8.64 7.06,5.76 11.82,14.11 14.17,25.11 11.88,-13.88 21.88,-22.93 30.05,-27.28 8.17,-4.3 16.58,-6.47 25.22,-6.47 8.35,0 15.82,2.17 22.35,6.47 6.46,4.29 11.64,11.34 15.4,21.16 2.53,6.65 3.82,17.11 3.82,31.4l0 67.97c0,9.82 0.71,16.58 2.18,20.23 1.12,2.46 3.23,4.64 6.23,6.4 3.06,1.77 8,2.65 14.88,2.65l0 6.35 -77.26 0 0 -6.35 3.29 0c6.7,0 11.99,-1.29 15.76,-3.94 2.64,-1.82 4.52,-4.76 5.64,-8.76 0.47,-1.94 0.71,-7.47 0.71,-16.58l0 -67.91c0,-12.88 -1.53,-21.93 -4.65,-27.22 -4.52,-7.35 -11.7,-11.06 -21.63,-11.06 -6.06,0 -12.23,1.53 -18.41,4.59 -6.11,3 -13.58,8.7 -22.34,16.93l-0.35 1.94 0.7 7.41 0 75.32c0,10.7 0.59,17.4 1.77,20.05 1.23,2.59 3.46,4.82 6.76,6.58 3.29,1.77 8.93,2.65 16.87,2.65l0 6.35 -79.37 0 0 -6.35c8.64,0 14.58,-1 17.81,-3.06 3.24,-2.06 5.47,-5.17 6.7,-9.29 0.59,-1.94 0.89,-7.58 0.89,-16.93l0 -67.91c0,-12.88 -1.88,-22.17 -5.65,-27.87 -5.05,-7.41 -12.05,-11.11 -21.11,-11.11 -6.17,0 -12.28,1.7 -18.34,5.05 -9.47,5.06 -16.82,10.82 -21.93,17.17l0 84.67c0,10.29 0.7,16.93 2.12,20.05 1.41,3.06 3.52,5.35 6.35,6.94 2.76,1.53 8.4,2.29 16.93,2.29l0 6.35 -77.97 0 0 -6.35c7.24,0 12.29,-0.76 15.17,-2.29 2.89,-1.59 5.06,-4 6.59,-7.41 1.47,-3.35 2.23,-9.88 2.23,-19.58l0 -60.33c0,-17.28 -0.53,-28.45 -1.53,-33.51 -0.82,-3.82 -2.05,-6.41 -3.82,-7.82 -1.7,-1.47 -4.05,-2.18 -6.99,-2.18 -3.24,0 -7.06,0.89 -11.53,2.59l-2.58 -6.35 47.62 -19.4 7.41 0 0 33.75z"/>
   <path id="4" class="fil4" d="M3589.39 2397.73c4.76,0 8.88,1.7 12.29,5.05 3.35,3.41 5.05,7.53 5.05,12.29 0,4.82 -1.7,9 -5.05,12.41 -3.41,3.47 -7.53,5.17 -12.29,5.17 -4.82,0 -9,-1.7 -12.41,-5.17 -3.47,-3.41 -5.17,-7.59 -5.17,-12.41 0,-4.76 1.7,-8.88 5.05,-12.29 3.41,-3.35 7.59,-5.05 12.53,-5.05zm14.17 82.55l0 127c0,9.82 0.7,16.34 2.17,19.58 1.41,3.29 3.53,5.7 6.35,7.29 2.82,1.59 8,2.41 15.47,2.41l0 6.35 -76.56 0 0 -6.35c7.65,0 12.82,-0.76 15.41,-2.23 2.64,-1.47 4.7,-3.94 6.29,-7.35 1.53,-3.41 2.29,-10 2.29,-19.7l0 -61.03c0,-16.99 -0.53,-27.99 -1.53,-33.05 -0.82,-3.64 -2.05,-6.17 -3.82,-7.58 -1.7,-1.47 -4.06,-2.18 -7,-2.18 -3.23,0 -7.11,0.89 -11.7,2.59l-2.41 -6.35 47.45 -19.4 7.59 0z"/>
   <g>
    <path class="fil5 str2" d="M1866.79 1838.69l784.64 0 0 99.16 -784.64 0 0 -99.16z"/>
    <path class="fil6 str2" d="M2651.43 1838.69l784.65 0 0 99.16 -784.65 0 0 -99.16z"/>
    <path class="fil5 str2" d="M3436.07 1838.69l784.64 0 0 99.16 -784.64 0 0 -99.16z"/>
    <path class="fil6 str2" d="M4220.9 1838.69l784.64 0 0 99.16 -784.64 0 0 -99.16z"/>
    <path class="fil5 str2" d="M3124.49 2137.63l1254.95 0 0 99.16 -1254.95 0 0 -99.16z"/>
    <path class="fil6 str2" d="M1869.54 2137.63l1254.96 0 0 99.16 -1254.96 0 0 -99.16z"/>
   </g>
  </g>
  <path class="fil7 str3" d="M1128.93 1009.61l18830.62 0 0 25384.71 -18830.62 0 0 -25384.71z"/>
  <g id="_2414787674688">
   <path class="fil2 str1" d="M5302.29 1249.05l815.93 0 0 1592.89 -815.93 0 0 -1592.89z"/>
   <path class="fil8" d="M5650.39 1685.18c-0.92,3.32 -1.63,6.35 -2.07,9.15 -0.44,2.79 -0.65,5.18 -0.65,7.22 0,5.59 1.8,9.56 5.29,11.89 3.49,2.33 9.55,3.49 18.05,3.49l4.15 0 -4.96 22.72 -78.17 0 5.29 -22.72 2.89 0c7.36,0 12.82,-1.51 16.48,-4.54 3.6,-2.97 6.32,-8.39 8.12,-16.14l37.59 -153.79c0.6,-2.74 1.14,-5.54 1.52,-8.45 0.33,-2.91 0.55,-5.77 0.55,-8.62 0,-5.36 -1.96,-9.15 -5.95,-11.36 -3.92,-2.22 -10.69,-3.32 -20.23,-3.32l-3.06 0 5.29 -22.72 72.33 0 62.14 183.5 31.31 -129.03c1.08,-4.2 1.85,-7.63 2.34,-10.31 0.49,-2.68 0.71,-4.72 0.71,-6.06 0,-5.6 -1.8,-9.56 -5.35,-11.89 -3.6,-2.33 -9.71,-3.49 -18.32,-3.49l-4.15 0 4.96 -22.72 78.5 0 -5.62 22.72 -2.84 0c-7.37,0 -12.87,1.51 -16.47,4.54 -3.66,2.97 -6.33,8.33 -8.18,15.96l-50.68 208.44 -21.54 0 -72.06 -209.48 -37.21 155.01z"/>
   <path class="fil7 str4" d="M5711.08 2708.74l0 -769.27"/>
   <path class="fil7 str4" d="M5429.03 2432.69l563.14 0"/>
   <path class="fil7 str4" d="M5566.18 2572.68l294.22 -286.81"/>
   <path class="fil7 str4" d="M5563.04 2285.63l297.98 288.85"/>
   <path class="fil7 str4" d="M5710.94 1942.2l-95.47 118.01"/>
   <path class="fil7 str4" d="M5711.56 1942.16l87.89 118.05"/>
  </g>
 </g>
</svg>
