<?xml version="1.0" encoding="UTF-8"?>
<!DOCTYPE svg PUBLIC "-//W3C//DTD SVG 1.1//EN" "http://www.w3.org/Graphics/SVG/1.1/DTD/svg11.dtd">
<!-- Creator: CorelDRAW -->
<svg xmlns="http://www.w3.org/2000/svg" xml:space="preserve" width="210mm" height="297mm" version="1.1" style="shape-rendering:geometricPrecision; text-rendering:geometricPrecision; image-rendering:optimizeQuality; fill-rule:evenodd; clip-rule:evenodd"
viewBox="0 0 21000 29700"
 xmlns:xlink="http://www.w3.org/1999/xlink">
 <defs>
  <style type="text/css">
   <![CDATA[
    .str1 {stroke:black;stroke-width:10;stroke-miterlimit:3.864;stroke-opacity:0.501961}
    .str3 {stroke:black;stroke-width:50;stroke-miterlimit:22.9256}
    .str2 {stroke:#3F3E3F;stroke-width:10;stroke-miterlimit:3.864}
    .str0 {stroke:black;stroke-width:10;stroke-miterlimit:22.9256}
    .str4 {stroke:black;stroke-width:7.62;stroke-miterlimit:22.9256}
    .fil6 {fill:none}
    .fil0 {fill:#FEFEFE}
    .fil1 {fill:#FEFEFE;fill-rule:nonzero}
    .fil4 {fill:#D9DADA;fill-rule:nonzero}
    .fil7 {fill:#434242;fill-rule:nonzero}
    .fil5 {fill:#2B2A29;fill-rule:nonzero}
    .fil3 {fill:black;fill-rule:nonzero}
    .fil2 {fill:#FEFEFE;fill-rule:nonzero;fill-opacity:0.501961}
   ]]>
  </style>
 </defs>
 <g id="Plan_x0020_1">
  <metadata id="CorelCorpID_0Corel-Layer"/>
  <rect class="fil0" x="1006.07" y="1007.35" width="18971.83" height="25298.16"/>
  <path class="fil1 str0" d="M13607.99 16931.69c-4.58,59.39 -56.15,75.04 -88.35,125.23 -31.77,49.21 -50.61,75.45 -73.69,128.85 -35.4,81.93 -59.35,124.27 -104.89,200.68 -12.9,21.66 -26.7,30.85 -40.55,51.57 -35.9,52.48 -67.21,72.73 -114.13,116.02 -48.36,44.18 -69.07,76.87 -123.35,114.13 -61.72,42.35 -97.58,61.22 -162,101.27 -35.48,22.09 -67.25,23.05 -88.42,58.93l-5.49 -7.39 0 -45.55c0,-26.24 -9.23,-40.51 -9.23,-66.71 0,-4.62 6.48,-5.57 11.03,-5.57 23.94,0 23.94,38.68 47.9,38.68 34.97,0 40.97,-37.3 69.95,-57.06 38.68,-26.24 61.19,-40.97 104.97,-58.93 28.5,-11.53 38.65,-34.1 49.71,-62.6 8.74,-22.58 -6.45,-43.71 9.16,-62.64 9.22,-11.02 22.08,-11.02 36.84,-11.02 7.37,0 11.06,3.67 18.42,3.67 11.49,0 15.19,-13.35 18.4,-23.92 6.48,-21.67 15.67,-34.52 33.18,-49.7 28.98,-25.33 51.57,-36.81 69.95,-70 15.64,-28.53 11.06,-49.69 20.26,-81.01 2.29,-9.19 5.49,-16.56 12.85,-22.08 15.68,-11.99 47.91,0.91 47.91,-18.89l0 -43.75c-4.16,-1.37 -6.48,-3.62 -11.1,-3.62 -5.04,0 -6.41,6.41 -10.99,7.36 -20.29,5.04 -32.23,9.15 -53.44,9.15 -58.43,0 -69.03,-79.15 -127.48,-79.15l-23.49 0 0 15.19c0,30.36 34.98,40.09 34.98,70.41 0,14.3 -14.72,18.42 -25.75,26.74 -16.59,12.89 -20.25,25.74 -34.97,40.47 -14.73,14.73 -17.06,29.49 -29.49,46.04 -9.65,12.89 -21.17,16.14 -29.44,29.49 -11.99,18.87 -6.45,34.97 -11.07,57.06 -9.15,41.42 -24.87,61.71 -47.84,97.56 -20.74,32.24 -57.98,20.29 -90.24,40.55 -24.37,15.15 -27.62,35.86 -49.7,55.2 -25.3,22.12 -47.87,21.21 -75.49,40.54 -11.97,8.28 -12.89,20.26 -22.09,31.28 -9.68,11.49 -18.42,19.83 -18.42,34.98 0,21.67 24.41,26.24 27.62,47.87 3.2,21.67 -3.21,38.22 9.19,55.23 12.44,16.6 29.45,23.5 29.45,44.21 0,17.01 -12.86,23.95 -23.91,36.84 -17.02,19.77 -20.72,36.33 -36.82,57.07 -23.95,31.32 -17.04,55.19 -40.51,86.52 -21.63,52.48 -35.89,81.5 -66.29,130.75 -11.52,18.38 -24.87,24.37 -36.84,42.34 -23.01,34.07 -36.78,56.14 -69.96,81.01 -27.62,20.71 -44.59,33.61 -69.92,57.07 -20.25,18.88 -39.17,21.21 -62.63,36.84 -38.64,25.75 -52.49,51.58 -79.19,90.22 -40.47,58.47 -60.73,92.07 -104.93,147.31 -32.19,40.54 -51.53,69.49 -99.4,90.21 -46.04,19.79 -75.49,18.42 -125.19,23.91 -54.81,6 -74.57,55.27 -129.39,55.27l-41.42 0c-16.55,0 -24.87,-8.28 -40.96,-12.89 -36.36,-10.57 -58.45,-2.78 -95.75,-7.33 -23.5,-2.81 -35.89,-14.76 -59.35,-14.76l-54.81 0c-22.96,7.36 -36.35,14.76 -60.73,14.76 -38.18,0 -60.76,-9.22 -93.91,-27.69 -23.46,-12.85 -29.9,-33.11 -55.23,-42.3 -48.33,-17.97 -80.56,-16.13 -123.36,-46.03 -17.01,-11.53 -21.63,-25.79 -38.64,-36.82 -25.82,-17.04 -43.74,-23.49 -73.65,-31.31 -30.4,-7.82 -46.54,-20.26 -77.81,-20.26l-58.02 0c-42.8,0 -61.68,-35.44 -81.44,-73.65 -7.86,-15.65 -23.46,-18.88 -31.32,-34.98 -10.1,-20.26 -19.34,-30.4 -33.11,-47.91 -6.48,-8.24 -18.46,-8.24 -22.12,-18.39 -8.28,-21.63 -9.19,-35.88 -9.19,-59.38l0 -34.07c0,-26.24 -7.37,-40.93 -22.12,-63.01 -14.72,5.49 -16.56,20.68 -16.56,36.31l0 50.63c0,14.75 -5.53,23.06 -5.53,37.79l0 39.56c0,35.44 51.11,35.01 58.93,69.5 3.7,17.5 -3.66,28.56 0,46.07 2.3,10.99 11.02,14.72 14.73,25.71 12.43,38.26 12.43,63.09 34.97,95.78 18.89,27.19 43.3,28.57 66.3,51.57 23.95,23.92 27.12,46.46 47.83,73.66 23.5,30.36 45.58,40.96 79.18,58.89 49.75,26.7 64.47,74.12 64.47,130.75 0,27.13 -14.72,40.02 -25.78,64.43 -16.6,36.85 -22.09,60.76 -22.09,101.27 0,38.22 -3.67,74.11 29.44,93.91 16.6,9.66 28.57,11.02 47.87,12.89 27.66,2.75 40.06,17.96 62.64,33.11 25.32,17.09 49.7,31.81 49.7,62.64 0,40.97 -17.51,61.67 -33.15,99.4 -5.99,14.75 -4.58,24.87 -7.36,40.51 -8.31,46.96 -27.65,73.2 -62.63,104.97 -5.98,40.05 -38.18,50.61 -64.42,81.02 -24.84,28.52 -28.08,55.72 -58.94,77.31 -36.35,25.79 -46,52.03 -68.08,90.21 -13.81,23.5 -25.79,34.1 -36.85,58.94 -22.54,50.15 -57.06,70.9 -108.63,90.24 -39.14,14.27 -58.9,32.23 -99.44,42.34 -42.77,10.6 -68.09,12.86 -108.6,31.32 -71.36,32.19 -118.78,26.66 -197.01,42.34 -64.43,12.89 -94.83,37.26 -158.34,49.7 -101.27,20.25 -158.79,18.88 -261.43,33.14 -28.57,3.67 -43.72,9.2 -72.28,9.2l-78.28 0c-9.65,0 -15.14,3.69 -24.83,3.69l-50.62 0c-19.83,0 -30.86,-6.44 -50.2,-11.05 -30.36,-7.37 -51.53,-7.37 -75.48,-27.62 -34.52,-29.45 -53.36,-58.9 -98.04,-58.9l-12.43 0c-0.46,7.37 -1.83,11.49 -1.83,18.85 0,22.09 14.26,32.69 16.59,54.78 2.26,22.11 -7.85,37.26 1.8,57.09 11.06,22.58 25.33,32.19 29.48,57.07 -18.42,7.35 -36.84,16.59 -36.84,36.84 0,9.62 10.6,11.98 18.42,16.56 13.81,8.27 23.91,11.02 38.64,18.39 21.21,11.09 23.96,33.18 23.96,57.09 0,18.42 -11.99,26.7 -16.6,44.18 -5.95,23.49 -18.84,46.04 -43.21,46.04 -12.9,0 -16.14,-15.64 -28.57,-18.43 -45.09,-11.02 -57.52,-43.22 -97.57,-66.26l-1.84 7.36c19.34,38.64 46.96,46.99 69.95,81.02 11.07,16.6 7.37,31.31 7.37,51.53 0,21.63 4.16,35.48 -3.66,55.27 -11.98,30.36 -29.49,46.5 -29.49,79.19 0,19.76 7.86,30.37 20.26,46 16.1,24.42 25.78,40.97 25.78,70 0,45.08 -35.89,70.41 -79.15,84.68 -26.7,8.74 -39.17,21.63 -64.49,33.14 -65.8,29.9 -110.89,31.32 -183.18,31.32 -44.2,0 -72.24,2.75 -113.25,-12.9 -29.4,-11.05 -42.33,-27.61 -71.78,-38.67 -34.03,-12.4 -55.69,-14.27 -92.04,-18.39 -30.86,-3.74 -37.3,-40.54 -68.13,-40.54 -21.16,0 -29.44,17.47 -49.73,23.95 -9.66,-24.41 -3.67,-58.93 -29.46,-58.93 -13.31,0 -18.42,11.51 -29.44,18.42 -22.09,13.81 -44.67,13.31 -56.15,36.81 -0.49,45.58 0,71.37 0,116.95 0,34.06 4.61,57.52 26.7,83.77 13.77,16.12 25.75,26.24 25.75,46.95 0,34.51 -24.83,50.62 -24.83,85.17l0 94.8c0,20.7 22.09,25.78 39.55,36.34 23.95,14.76 38.68,23.04 64.46,34.98 33.15,15.67 32.2,49.28 58.9,73.66 8.77,7.86 12.44,18.42 24.41,18.42l74.58 0c10.56,0 15.63,7.36 26.24,7.36 11.52,0 10.1,-15.64 14.72,-25.78 4.58,-10.12 14.72,-14.27 14.72,-25.75 0,-18.89 -20.25,-25.33 -20.25,-44.21 0,-18.42 20.25,-24.83 38.67,-27.62 18.86,-2.74 27.16,-14.72 46.04,-14.72 18.4,0 18.4,23 23.92,40.5 13.35,40.05 20.26,64.44 20.26,106.77 0,55.27 -50.66,93.91 -105.85,93.91 -10.61,0 -15.68,-7.36 -23.04,-14.72 -7.82,-7.82 -17.51,-11.03 -20.26,-22.05 -3.66,-14.73 0,-23.96 -3.66,-38.67 -2.32,-10.15 -12.43,-12.47 -22.09,-16.6 -15.66,-6.9 -25.81,-11.06 -42.82,-11.06l-43.3 0c-9.65,0 -15.15,-5.53 -24.37,-7.36 -18.85,46 -95.75,36.38 -95.75,86.55 0,28.07 38.68,22.54 66.3,29.44 46.46,11.52 97.61,20.75 101.27,68.13 -19.34,4.62 -27.62,13.81 -44.2,23.96 -21.14,12.89 -38.23,11.02 -62.6,16.58 -32.69,7.79 -55.24,6.41 -82.86,25.75 -11.51,7.86 -25.78,10.11 -25.78,23.96 0,10.1 5.54,15.63 5.54,25.75 0,68.61 -62.6,97.14 -68.13,165.69l22.08 73.69 0 88.83c0,16.11 9.23,23.93 9.23,40.02 0,22.12 -24.4,28.11 -44.2,36.85 -35.47,16.09 -75.49,27.16 -75.49,66.29 0,14.27 5.99,22.09 11.06,34.98 4.58,11.52 5.99,23.04 16.56,29.45 11.51,7.39 27.62,9.23 27.62,23.04 0,19.3 -24.84,23.03 -44.18,23.03 -14.26,0 -22.54,5.49 -36.84,5.49 -37.27,0 -55.7,-22.08 -92.96,-22.08 -18.42,0 -25.78,13.81 -43.3,18.42 -40.92,11.03 -64.88,17.01 -103.1,34.98 -53.36,24.84 -98.94,32.23 -125.18,84.68 -12.44,24.87 -20.72,39.59 -36.82,62.6 -8.3,12.47 -18.88,17.05 -23.95,31.31 -13.81,38.68 -21.17,60.77 -31.31,101.28 -6.41,26.7 -31.29,35.43 -31.29,62.59 0,31.77 13.35,48.33 22.13,79.18 11.94,41.89 9.65,74.57 44.17,101.27 13.81,10.58 26.24,10.58 42.34,16.56 21.17,7.82 28.99,20.26 46,34.97 26.25,22.59 22.13,53.41 51.57,71.84 68.13,42.37 109.1,57.51 185.99,82.84 46,15.22 74.08,14.27 117.8,33.15 21.19,9.23 22.11,30.4 22.11,53.4 -10.14,17.46 -21.17,26.24 -25.78,46.04 -5.07,21.17 3.24,35.89 -5.53,55.23 -15.19,34.06 -71.33,18.39 -79.19,55.24 16.13,6.44 25.33,8.73 42.38,12.89 13.8,3.2 29.48,6.44 29.48,20.25 0,26.24 -22.57,34.97 -33.18,58.93 -5.49,12.4 -4.61,31.28 -18.39,31.28 -8.31,0 -11.97,-7.36 -20.29,-7.36 -24.37,0 -27.12,27.19 -44.13,44.16 -13.35,13.35 -26.7,15.22 -40.54,27.62 -15.19,13.85 -23.96,24.88 -42.35,35.02 -54.77,30.39 -82.39,52.91 -127.02,97.57 -34.06,34.1 -44.66,59.84 -66.29,103.11 -10.11,20.74 -22.09,28.53 -34.98,47.87 -27.65,41.91 -38.68,72.74 -38.68,122.89l0 15.22 21.63 0c9.24,0 13.81,-7.4 22.59,-9.23 5.49,11.56 9.18,18.91 9.18,31.32 0,39.1 -22.53,56.18 -35.01,93.9 -21.62,64.93 -63.93,110.47 -130.72,110.47 -58.43,0 -66.72,-78.72 -125.15,-82.85 -0.49,4.13 -1.87,6.9 -1.87,11.07 0,9.15 7.86,12.39 14.73,18.38 17.5,15.22 33.14,26.7 33.14,49.73 0,12.44 -13.81,14.27 -22.12,23.93 -11.02,12.89 -19.76,18.88 -33.11,29.48 -22.08,17.47 -23.46,40.05 -42.34,60.76 -16.1,17.48 -30.37,25.78 -38.68,47.87 -11.52,31.74 -12.89,53.4 -25.75,84.68 0,31.32 -32.69,38.19 -42.37,68.13l0 11.05c18.88,0.92 33.15,-5.52 47.87,5.51 24.37,17.96 5.99,48.78 18.39,77.35 9.22,21.63 25.82,31.77 25.82,55.23 0,8.73 -10.61,9.68 -18.42,12.86 -16.14,6.48 -26.25,11.55 -38.65,23.95 -5.53,5.53 -14.76,7.86 -14.76,16.14l0 23.45c11.03,-1.38 17.01,0.92 28.11,0.92 15.15,0 23,-7.37 38.19,-7.37 29.44,0 51.11,5.07 71.82,25.79 29.86,29.94 27.58,60.8 40.47,101.27 10.14,31.74 33.61,39.1 57.06,62.6 10.61,10.6 17.97,16.59 27.62,27.61 3.25,3.7 9.23,4.16 9.23,9.23 0,18.42 -22.12,23.95 -40.51,23.95 -17.47,0 -27.15,-7.36 -44.67,-7.36l-35.85 0c-23.5,0 -39.17,0 -59.39,-11.1 -21.17,-11.48 -27.16,-34.98 -51.57,-34.98 -25.75,0 -34.52,24.42 -47.87,46.08 -19.79,32.2 -42.8,57.98 -81.02,55.2 -65.34,-4.58 -81.93,81.02 -147.31,81.02 -120.98,0 -51.53,-40.73 -51.53,97.6l-49.74 211.7 0 47.45c0,38.23 -47.38,48.33 -85.56,48.33 -20.26,0 -30.43,-11.02 -48.82,-18.38 -27.16,-10.61 -42.8,-16.6 -69.96,-27.66 -19.79,-7.82 -30.82,-14.27 -47.87,-27.62 -20.71,-16.12 -42.34,-27.61 -42.34,-54.31 0,-29.9 22.08,-44.21 46.04,-61.68 19.76,-14.26 24.83,-30.86 44.17,-46.03 26.24,23.03 15.19,52.02 31.28,84.71 15.22,-41.46 17.51,-68.59 42.34,-104.97 17.05,-24.87 35.94,-32.66 60.77,-49.7 16.12,-11.03 31.31,-20.75 31.31,-40.51 0,-18.88 -20.72,-24.38 -38.68,-29.45 -9.19,-2.29 -12.39,-11.03 -22.09,-11.03 -31.73,0 -47.83,27.58 -58.93,57.07 -13.35,35.85 -50.15,34.03 -79.15,58.9 -36.34,31.31 -65.34,41.91 -93.91,81.01 -15.15,20.71 -24.83,42.34 -50.61,42.34 -22.09,0 -26.21,-26.67 -46.92,-33.15 -18.88,-5.49 -38.67,-13.35 -38.67,-33.11 0,-20.71 18.38,-28.08 23.91,-47.91 9.65,-34.47 -1.84,-61.67 18.38,-92.04 10.61,-16.12 25.82,-20.25 45.13,-20.25 23.46,0 34.52,16.56 58.02,16.56 37.26,0 38.18,-58.9 75.44,-58.9 6.48,0 8.78,5.53 15.22,5.53l64.01 0 0 -15.22c0,-25.32 -25.33,-41.88 -50.66,-41.88 -6.44,0 -9.64,3.7 -16.09,3.7l-37.77 0c-10.56,0 -16.09,-5.53 -26.7,-5.53l-51.07 0c0,26.24 -7.82,58.93 -34.06,58.93 -20.72,0 -20.72,-33.18 -41.47,-33.18 -10.1,0 -10.1,12.93 -14.71,22.09 -12.41,25.32 -8.74,43.29 -18.4,69.99 -8.3,23.91 -14.71,38.21 -31.31,57.09 -12.89,14.73 -15.18,36.82 -34.98,36.82 -24.83,0 -36.81,-14.73 -60.76,-20.26 -23,-5.07 -55.23,-0.46 -55.23,-23.92 0,-30.4 26.24,-43.75 53.4,-57.1 11.52,-5.52 29.44,-1.83 29.44,-14.72 0,-14.27 -5.03,-31.31 -19.3,-31.31 -17.5,0 -30.39,4.61 -41.46,18.45l-7.36 -5.56 0 -46.46c0,-46.5 -1.83,-74.15 -14.72,-119.24 -3.25,-11.06 -16.6,-12.43 -16.6,-23.95 0,-3.67 2.79,-5.96 3.74,-9.2 26.21,0 40.02,-11.48 66.26,-12.85 15.18,-0.5 24.41,1.37 38.64,-3.74 7.86,-2.74 9.68,-12.86 18.46,-12.86 15.15,0 19.3,17.02 23.91,31.32 5.96,17.93 5.96,31.74 18.43,46.01 5.04,-12.89 9.19,-20.72 9.19,-34.53l0 -56.15c0,-9.22 11.07,-12.47 20.25,-12.47 13.78,0 15.65,15.72 22.09,27.66 11.02,20.25 12.89,36.35 30.36,51.53 -9.19,-37.27 -0.46,-59.35 0,-97.57 4.62,-11.06 8.28,-17.5 8.28,-29.45 0,-37.73 -22.99,-58.93 -53.36,-81.01 -2.32,20.22 0,31.77 0,52.02 0,9.19 5.52,18.85 -1.84,23.46 -8.27,5.08 -15.63,5.53 -25.78,5.53 -20.26,0 -30.4,-10.14 -49.73,-16.59 0,24.41 10.14,42.84 -3.67,62.63 -3.7,5.53 -11.06,3.66 -16.59,7.36 -23.01,15.15 -42.34,14.72 -69.96,14.72 -40.05,0 -56.6,-28.07 -88.37,-51.56 -14.73,-36.36 -30.37,-65.8 -68.09,-77.35 6.41,-15.61 10.1,-29.46 25.74,-34.95 14.73,-5.53 24.41,-5.99 36.85,-14.76 5.5,-3.66 14.72,-5.53 14.72,-12.89 0,-31.74 -23.49,-44.17 -44.2,-68.13 -13.81,-16.09 -22.09,-25.78 -36.82,-40.51 -12.89,-12.85 -27.61,-20.22 -27.61,-38.67 0,-17.01 18.39,-22.51 18.39,-39.56 0,-29.02 -31.28,-34.03 -44.17,-59.85 -10.15,-20.25 -6.46,-36.34 -18.43,-55.23 -25.32,-39.14 -62.55,-40.54 -90.21,-77.32 -7.82,-10.6 -20.25,-14.3 -20.25,-27.65 0,-18.39 12.43,-26.24 16.58,-44.2 7.37,-31.28 11.04,-50.13 27.62,-77.32 15.19,-24.38 21.6,-44.64 47.84,-55.2 14.3,-5.53 24.9,-5.07 40.54,-5.53 9.2,0 22.09,1.83 22.09,-7.36 0,-24.88 -23.46,-32.69 -33.14,-55.27 -11.53,-26.21 -2.3,-68.09 -31.29,-68.09 -17.96,0 -9.68,36.81 -27.62,36.81 -23.49,0 -34.05,-21.63 -40.53,-44.18 -8.28,-29.47 -15.65,-46.53 -15.65,-76.89l0 -87 -4.57 -7.37 0 -40.51 25.75 -95.73 -1.84 -7.36c-18.88,0 -34.52,5.07 -47.87,-7.37 -14.73,-13.81 -15.19,-28.99 -22.11,-47.87 -9.17,-24.87 -19.35,-37.76 -34.95,-58.93 -3.25,-12.86 -14.76,-16.1 -14.76,-29.45 0,-3.7 2.79,-5.99 3.69,-9.22l21.63 0c44.22,0 69.05,6.93 112.79,14.72 46.04,8.31 94.79,-0.42 112.33,42.37l14.73 0 0 -17.04c0,-9.66 -7.36,-13.81 -9.22,-23.47 -5.51,-28.98 -7.37,-44.66 -9.2,-73.65 -21.63,0 -30.41,-20.26 -51.99,-20.26 -7.86,0 -11.98,1.38 -19.83,1.87l0 25.29c0,9.66 1.37,16.56 -3.67,24.42 -14.73,21.62 -41,9.18 -67.21,9.18 -23.03,0 -33.15,-13.8 -54.34,-22.07 -14.73,-5.54 -26.22,-0.92 -40.48,-7.37 -8.28,-3.7 -8.74,-13.84 -12.89,-22.09 -6,-11.51 -12.89,-18.45 -12.89,-31.31 0,-14.72 9.19,-29.49 23.95,-29.49 16.55,0 24.4,9.24 40.51,12.9 -11.98,-43.26 -44.22,-62.59 -44.22,-107.69 0,-17.04 5.08,-32.23 20.26,-39.59 17.51,-8.73 38.68,-12.93 38.68,-32.69l0 -41.42c0,-22.54 20.26,-32.23 20.26,-54.81 0,-14.27 -8.32,-29.41 -22.59,-29.41l-37.72 0c-22.09,0 -30.37,-20.29 -52.45,-20.29 -7.85,0 -11.98,1.37 -19.84,1.87 0,13.8 -7.81,21.59 -14.71,33.11 -5.99,9.69 -10.61,20.29 -22.09,20.29 -20.26,0 -32.23,-11.98 -44.21,-27.62 -15.15,-19.34 -27.12,-29.94 -34.98,-53.44 -5.49,-17.47 -5.49,-40.51 -23.95,-40.51 -20.68,0 -22.09,29.03 -42.34,33.15 -16.53,3.24 -38.64,5.07 -38.64,22.12 0,24.87 33.15,30.36 33.15,55.2 0,19.84 -13.35,38.68 -33.15,38.68 -51.54,0 -86.51,-47.87 -86.51,-99.41 0,-40.96 33.6,-56.64 66.25,-81.01 16.55,-12.44 28.53,-18.88 42.37,-34.98 12.86,-15.22 18.4,-35.02 38.65,-35.02 12.86,0 21.17,-1.79 33.15,1.83 8.73,2.79 12.4,11.1 22.08,11.1 14.76,0 6.9,-22.58 9.2,-36.84 1.83,-12.9 8.31,-19.8 9.23,-33.15l-75.53 0 0 -47.87c-0.91,-5.07 -3.67,-8.28 -3.67,-13.85 0,-7.78 1.38,-11.9 1.87,-19.76 41.4,0 64.85,0.46 106.31,0.46 13.81,0 21.17,-3.66 34.95,-3.66 29.48,0 46.53,0.88 75.97,0.46 16.14,14.72 22.13,28.98 22.13,50.19 0,34.03 -21.67,49.25 -36.84,80.07l14.71 -3.66 60.31 0c17.02,0 26.24,-5.58 43.26,-5.58 2.74,0 4.15,1.87 6.9,1.87l0 106.35c0,9.65 5.99,14.72 12.9,20.68 23.91,-17.93 22.12,-41.4 31.27,-69.96 14.76,-44.21 19.83,-71.33 36.85,-114.16 6.45,-16.56 12.89,-25.78 12.89,-43.72 0,-3.2 -22.02,-73.63 -3.7,-129.34 -17.01,2.28 -27.16,0.92 -44.17,0l0 -20.26c10.11,-11.51 14.73,-22.58 14.73,-38.18l0 -28.57c0,-23.96 28.06,-28.99 51.56,-34.52 20.72,-4.61 32.23,-7.36 53.41,-7.36l1.79 -18.42c-15.14,-15.15 -30.36,-18.39 -51.54,-18.39 -6.44,0 -8.73,5.5 -15.17,5.5l-27.16 0c2.32,-16.6 0,-26.21 0,-42.81 0,-15.17 10.56,-25.32 25.78,-28.98 40.51,-5.08 64.88,-7.4 97.57,-31.32 23.96,-17.51 28.54,-40.05 55.27,-53.4 12.4,-5.99 31.24,-5.53 31.24,-19.8l0 -68.54 7.4 -33.18 -1.87 -7.36 -45.54 0c-10.56,0 -13.35,-11.52 -22.54,-16.57 -17.05,-9.22 -29.95,-8.72 -46.04,-20.25 -13.81,-9.68 -20.25,-19.34 -33.14,-29.44 -11.49,-9.24 -29.46,-10.61 -29.46,-25.79 0,-48.36 49.7,-64.96 49.7,-113.24 0,-47.88 -34.51,-67.21 -42.33,-115.09l79.15 -207.15c-2.76,-28.54 -25.79,-39.56 -25.79,-68.13 0,-29.9 35.43,-34.51 64.46,-41.38 -13.81,-35.02 -25.78,-51.58 -42.38,-84.73 -5.49,-11.51 -17.47,-13.35 -20.21,-25.78 5.95,-2.32 8.73,-5.49 15.18,-5.49l98.94 0c0,-19.34 5.58,-30.43 5.58,-49.77 0,-14.23 3.2,-25.76 -5.58,-36.78 -14.25,-17.96 -34.03,-12.93 -57.06,-12.93 -19.3,0 -30.36,5.57 -49.7,5.57 -3.66,0 -4.16,-4.62 -7.36,-5.57 9.68,-31.73 6.9,-64.88 38.68,-75.45 22.08,-7.4 31.73,-16.59 51.53,-27.61 10.6,-6 25.78,-5.57 25.78,-17.97l0 -35.93c0,-7.82 3.71,-11.98 3.71,-19.76 0,-4.62 -2.33,-6.94 -3.71,-11.06 -20.75,23.46 -40.08,29.94 -69.95,40.51 -15.64,5.52 -23.96,12.89 -40.54,12.89 -36.36,0 -26.25,-69.95 -62.6,-69.95 -29.44,0 -54.32,-7.37 -73.66,14.72 -8.73,10.11 -6.41,20.26 -9.15,33.15 -8.32,35.43 -10.61,81.01 -46.96,81.01 -29.45,0 -47.9,-17.96 -61.68,-44.21 -8.31,-15.67 -4.61,-33.6 -20.29,-40.54 -7.78,-3.17 -13.77,-0.88 -22.09,-3.62 -23.45,-7.86 -28.98,-27.2 -42.33,-47.88 -17.51,-27.19 -25.75,-46.95 -25.75,-79.18 0,-18.88 4.12,-29.03 5.5,-47.91 2.74,-11.02 9.22,-17.47 9.22,-28.96l0 -46.99c0,-17.96 -11.09,-27.57 -11.09,-45.54 0,-28.56 23.94,-40.97 23.94,-69.53l0 -41.43c0,-37.26 -22.07,-56.15 -22.07,-93.45 0,-35.44 22.99,-51.07 38.67,-82.82 19.34,-39.17 39.1,-56.18 58.93,-95.77 13.35,-26.7 27.62,-40.51 27.62,-69.96 0,-23.03 -4.61,-35.43 -4.61,-58.47l0 -74.57c0,-35.43 -24.88,-50.19 -43.3,-80.52 -28.99,-47.87 -52.94,-77.82 -52.94,-133.96l0 -111.42c0,-64.43 -63.05,-87.92 -63.05,-152.35 0,-26.7 11.06,-41.42 11.06,-68.15 0,-30.83 -12.44,-46.46 -14.73,-77.33 0,-5.98 3.67,-12.89 3.67,-18.88 0,-9.62 10.14,-11.48 18.42,-16.1 5.99,-3.23 7.86,-11.06 15.21,-11.06l59.81 0c21.17,0 17.97,-30.35 18.89,-51.53 1.37,-27.61 23.95,-38.67 23.95,-66.25 0,-26.28 -31.31,-33.64 -31.31,-59.85 0,-11.98 -3.71,-26.7 7.36,-30.44 20.71,-6.87 43.71,-0.42 53.4,-20.22 17.01,-34.51 10.57,-59.35 16.55,-97.57 7.82,-51.57 17.06,-81.97 40.51,-128.92 12.44,-24.84 33.15,-36.35 33.15,-64.43 0,-27.16 -25.78,-37.26 -25.78,-64.42 0,-52.03 57.51,-63.1 69.95,-114.17 13.35,-54.81 44.67,-76.89 51.57,-132.58 3.24,-28.54 13.78,-42.84 22.08,-69.96 21.63,-70.42 44.22,-110.5 44.22,-184.58l0 -50.65c0,-53.37 34.02,-78.69 71.78,-116.42 20.26,-20.33 38.64,-34.09 38.64,-62.63 0,-17.51 -5.49,-27.65 -11.02,-44.21 -10.11,-31.28 -6.45,-52.94 -12.86,-84.68 -4.16,-21.63 -23.96,-29.48 -23.96,-51.57 0,-38.63 22.55,-57.09 38.68,-92.04 23.92,-51.1 26.67,-85.17 33.11,-141.81 1.87,-17.47 7.36,-26.67 7.36,-44.14 0,-31.31 -6.9,-50.66 -22.08,-77.36 -7.36,-13.35 -18.39,-20.7 -18.39,-36.38l0 -46.92c0,-84.29 -27.18,-128.93 -36.84,-213.15 -3.69,-32.22 -18.42,-48.33 -18.42,-80.56l0 -43.25c0,-15.22 -6.41,-23.46 -9.2,-38.19 -7.82,-39.17 -10.14,-61.25 -10.14,-100.84l0 -90.67c22.08,-19.34 42.79,-19.34 70.91,-29.48 7.82,-2.75 15.18,1.37 22.08,-3.63 10.6,-7.4 9.23,-19.84 11.06,-33.19 2.3,-16.09 7.37,-24.4 7.37,-40.51 0,-15.59 -5.53,-24.37 -5.53,-40.05 0,-6.41 1.37,-10.59 1.82,-17.01 8.28,-34.06 16.6,-53.4 16.6,-88.38 0,-96.65 -35.94,-151 -81.02,-235.68 -14.73,-28.54 -36.84,-44.18 -36.84,-77.36 0,-33.11 42.33,-36.81 55.22,-66.26 24.91,-53.4 47.91,-83.79 47.91,-142.69 0,-32.24 -3.69,-50.66 -3.69,-82.89 0,-50.61 11.05,-83.76 40.51,-124.23 14.71,-20.26 44.2,-23.08 44.2,-47.91 0,-32.23 -18.46,-47.87 -18.46,-80.07l0 -79.18c0,-15.64 21.21,-17.5 25.82,-32.23 7.37,-22.09 12.86,-35.9 18.39,-58.93 13.81,-53.4 11.97,-84.69 18.42,-139.95 3.67,-34.98 22.09,-51.54 22.09,-86.55 0,-63.48 -36.81,-94.79 -36.81,-158.29 0,-59.85 -3.7,-97.62 18.39,-152.84 19.33,-48.79 69.95,-61.69 69.95,-114.17 0,-73.66 -18.39,-115.05 -44.17,-184.09 -12.89,-35.04 -40.51,-50.65 -40.51,-88.41 0,-91.13 19.34,-141.78 47.87,-228.33 12.93,-40.51 36.81,-62.6 36.81,-105.88l0 -30.36c-26.67,0 -66.26,8.3 -66.26,-18.4 0,-63.54 34.98,-94.85 69.96,-147.31 13.81,-21.16 36.84,-29.44 36.84,-55.23 0,-34.98 -9.22,-56.18 -22.12,-88.38 -8.27,-51.56 1.87,-76.43 1.87,-127.97 0,-86.55 20.25,-134.42 20.25,-220.96l0 -75.49c0,-11.97 -7.36,-19.34 -7.36,-31.31l0 -90.22c0,-110.46 -55.26,-168.45 -55.26,-278.94 0,-63.51 44.2,-93 44.2,-156.5 0,-84.72 -37.75,-127.06 -47.87,-211.75 -15.64,-136.24 -24.87,-212.65 -55.24,-346.14 -28.52,-125.23 -142.69,-141.78 -235.68,-228.33 -29.45,-26.7 -48.79,-45.12 -77.31,-73.66 -57.07,-57.06 -84.69,-115.08 -165.71,-125.18 -112.33,-13.81 -150.97,-93 -235.68,-165.7 -37.73,-32.23 -77.32,-17.51 -125.19,-29.49 -61.68,-14.72 -98.49,-27.62 -151.02,-62.59 -104.01,-69.08 -170.27,-97.61 -279.81,-158.38 -73.66,-40.51 -127.03,-39.55 -202.55,-77.31 -32.23,-15.64 -34.06,-58.93 -69.95,-58.93 -5.51,0 -5.51,-7.36 -11.07,-7.36 -74.57,-36.81 -98.49,-80.07 -154.64,-136.26 -62.62,-62.59 -102.18,-93.9 -162.03,-158.33 -69.04,-74.57 -116,-108.63 -187.78,-180.46 -49.7,-49.7 -114.17,-69.95 -114.17,-139.91 0,-43.29 84.68,-30.4 84.68,-73.65 0,-103.11 -88.37,-139.04 -121.48,-235.69 -17.52,-51.53 -38.68,-77.32 -66.3,-125.23 -25.74,-44.17 -23.95,-80.06 -58.93,-117.82 -35.89,-39.6 -84.68,-37.73 -110.47,-84.69 -31.27,-57.09 -27.61,-98.52 -62.59,-154.66 -56.18,-91.14 -123.36,-121.53 -158.34,-220.97 -29.44,-83.77 -48.78,-135.34 -106.77,-202.55 -23.06,-26.7 -47.89,-37.72 -62.62,-69.95 -38.64,-82.85 -27.62,-145.44 -73.62,-224.62 -44.2,-75.49 -89.33,-107.72 -125.22,-187.83 -51.57,-113.21 -46.96,-189.62 -103.11,-301.95 -21.17,-52.48 -42.33,-72.74 -77.32,-117.82 -57.09,-73.66 -70.9,-126.14 -121.52,-202.55 -50.65,-76.43 -91.13,-112.33 -147.32,-184.15 -69.95,-89.29 -137.16,-122.41 -246.71,-154.64 -69.95,-20.29 -105.85,-42.37 -169.36,-77.35 -38.67,-21.17 -81.02,-36.81 -81.02,-80.98 0,-46.96 77.33,-45.12 77.33,-92.08 0,-39.59 -9.23,-69.08 -40.51,-92.08 -28.54,-21.17 -73.62,-19.33 -73.62,-55.23 0,-47.87 18.38,-73.66 18.38,-121.53 0,-72.74 -47.87,-107.71 -47.87,-180.45 0,-109.52 54.32,-170.32 128.89,-250.42 51.53,-56.14 83.76,-88.33 132.55,-147.27 32.23,-38.68 78.24,-28.53 121.53,-55.23 28.53,-17.51 42.34,-35.93 62.59,-62.6 54.32,-69.98 114.17,-109.58 114.17,-198.88 0,-49.7 -11.06,-80.06 -29.46,-125.22 -14.71,7.4 -20.29,22.13 -36.84,22.13 -14.72,0 -22.09,-7.37 -36.81,-7.37 -38.68,0 -58.02,20.26 -88.37,44.17 -19.34,14.73 -15.65,47.91 -40.51,47.91 -46.96,0 -63.52,-40.55 -106.81,-58.93 -34.02,-14.73 -77.31,-16.6 -77.31,-53.4 0,-23.01 17.47,-33.15 25.75,-53.4 23.95,-55.24 44.2,-90.22 44.2,-150.98 0,-50.65 -11.02,-78.27 -7.36,-128.89 1.83,-28.53 9.2,-46.95 0,-73.65 -8.28,-23.01 -32.23,-22.13 -47.87,-40.51 -11.03,-12.89 -4.62,-26.7 -7.37,-44.2 12.89,-22.09 24.84,-46.01 47.87,-55.24 22.09,-9.2 45.13,2.79 62.6,-14.73 23.92,-23.91 24.87,-60.76 58.93,-66.29 -9.23,-38.67 -47.9,-48.79 -47.9,-88.38 0,-46.96 35.01,-65.34 55.27,-106.77 29.44,-58.93 34.98,-99.44 55.23,-162.03 10.11,-31.31 29.44,-47.87 29.44,-81.01 0,-37.76 -47.87,-46.96 -47.87,-84.72 0,-44.18 49.74,-55.23 92.08,-66.29 51.57,-13.77 77.32,-31.29 125.16,-55.24 81.96,-40.47 145.48,-25.74 220.96,-73.65 32.24,-20.22 81.02,-20.22 81.02,-58.9 0,-25.78 -29.45,-33.14 -29.45,-58.93 0,-34.06 6.41,-77.32 40.51,-77.32 25.79,0 39.56,3.67 65.38,3.67 25.75,0 48.74,-18.42 48.74,-44.17 0,-46.05 -69.95,-49.71 -69.95,-95.74 0,-55.24 20.26,-90.21 58.93,-128.9 40.48,-40.54 70.91,-73.65 128.89,-73.65 28.53,0 45.09,7.36 73.62,7.36 37.76,0 53.44,-33.15 69.95,-66.29 26.71,-53.37 47.91,-81.02 77.35,-132.55 31.29,-53.4 46.96,-84.71 81.02,-136.28 25.79,-38.64 51.53,-63.52 51.53,-110.47 0,-62.59 -132.55,-29.44 -132.55,-92.08 0,-40.47 22.13,-59.81 29.49,-99.4 14.69,-72.74 18.39,-116.91 18.39,-191.48 0,-50.65 8.28,-81.02 -7.37,-128.93 -11.02,-34.93 -33.14,-51.53 -33.14,-88.34 0,-50.66 73.65,-56.18 73.65,-106.8 0,-48.79 -18.42,-75.49 -33.14,-121.53 -4.12,-16.59 -9.23,-16.1 -9.23,-33.14 0,-40.97 46.04,-52.95 46.04,-93.91 0,-34.53 -12.85,-64.43 -46.04,-75.49 -23,-7.36 -39.1,-7.36 -60.72,-18.39 -54.78,-29.02 -38.68,-88.86 -73.66,-139.95 -32.23,-47.41 -64.43,-62.16 -110.47,-95.73 -57.98,-42.35 -86.55,-91.17 -86.55,-162.96 0,-24.86 0.49,-40.51 -9.22,-63.5 -4.13,-9.69 -14.23,-11.56 -16.53,-22.13 31.29,-12.43 44.64,-31.77 57.07,-62.6 7.37,-18.42 5.53,-46.03 25.75,-46.03 48.33,0 67.67,44.21 115.99,44.21 -2.74,-24.42 -17.47,-37.31 -36.8,-51.58 -38.64,-29.02 -69.51,-38.67 -117.83,-38.67 -24.42,0 -38.68,19.34 -46.04,42.38 -28.99,-9.69 -22.09,-41.89 -33.14,-70 -12.89,-32.19 -31.29,-46.04 -57.07,-68.12 -15.64,-13.35 -21.18,-26.24 -34.98,-42.34 -29.9,-34.98 -57.98,-57.1 -104.02,-57.1 -60.8,0 -104.01,2.78 -150.09,42.37 -34.98,29.91 -51.08,54.32 -71.79,95.75 -10.11,20.71 -9.23,41.42 -29.45,53.4 -36.85,22.08 -62.59,23 -101.27,40.51 -39.59,17.96 -57.98,47.87 -101.7,47.87 -4.18,0 -6.48,-1.41 -10.6,-1.83 -25.78,1.83 -57.06,3.66 -57.06,29.4 0,46.96 31.28,69.08 51.54,110.51 18.42,37.72 23.91,68.13 58.89,92.04 27.65,18.42 62.63,28.57 62.63,62.62 0,9.24 -4.62,13.81 -7.36,22.09l-73.65 0c-20.26,27.62 -19.34,58.02 -47.88,77.36 -18.42,11.94 -35.93,0.88 -58.93,3.66 -39.55,4.61 -59.84,14.76 -99.44,14.76 -34.02,0 -60.72,-14.76 -77.32,-44.21 -25.75,-46.96 -0.91,-100.35 -44.2,-132.59 -18.39,18.43 -33.12,29.49 -58.9,29.49 -36.81,0 -55.23,-25.82 -77.32,-55.23 -16.59,-23.04 -37.73,-31.32 -47.87,-58.93 -5.52,-16.59 -3.7,-34.07 -18.43,-44.21 -22.99,-16.56 -45.08,-4.62 -73.64,-7.36 -41.39,-4.61 -62.6,-18.42 -99.42,-36.82 -26.69,-12.89 -47.86,1.84 -77.31,-3.69 -43.29,-8.28 -66.29,-22.09 -110.5,-22.09 -52.45,0 -80.06,22.09 -132.55,22.09 -16.56,0 -34.98,0 -40.51,-14.73 -8.28,-21.17 8.28,-39.59 -3.67,-58.89 -23.03,-36.84 -62.62,-33.18 -106.8,-36.84 18.43,31.28 47.87,44.2 47.87,80.97 0,7.4 -5.52,11.99 -7.36,18.43 -26.7,-11.03 -45.12,-17.47 -73.65,-22.09 -32.2,-4.57 -73.66,-11.02 -73.66,-44.16 0,-23.96 18.43,-34.07 18.43,-58.03l0 -93.87c0,-128.92 -124.28,-179.54 -246.72,-220.04 -33.14,-11.07 -65.37,2.77 -88.38,-22.09 -23.95,-25.78 -11.05,-58.01 -29.44,-88.38 -16.6,-27.62 -44.21,-26.7 -69.96,-44.21 -19.34,-12.89 -28.57,-33.14 -52.49,-33.14l-28.53 0 0 43.28c0,28.54 19.34,56.16 47.87,56.16 9.2,0 13.81,-4.63 22.09,-7.37 -11.98,42.35 -25.78,88.38 -69.96,88.38 -28.56,0 -39.59,-23.95 -66.29,-33.14 -34.07,-11.99 -74.58,6.44 -92.04,-25.79 -10.14,-19.34 -14.73,-34.06 -29.49,-51.54 -32.2,-38.67 -81.01,-52.48 -81.01,-103.13 0,-66.26 62.59,-92.04 62.59,-158.33 0,-18.43 -25.75,-22.09 -25.75,-40.51 0,-33.15 22.09,-49.74 22.09,-82.86 0,-34.98 -38.68,-39.59 -58.93,-68.12 -46.04,-64.46 -69.96,-113.15 -142.7,-142.59l0 -832.61 1073.52 0c-2.76,33.61 -21.71,45.83 -34.14,76.68 -17.05,41.39 -22.58,68.55 -22.58,113.67l0 183.21c0,17.47 11.07,25.79 11.07,43.29l0 70.42c0.44,-17.97 -9.7,-27.16 -14.27,-44.21 -11.07,-40.06 -16.6,-66.26 -46.04,-95.74 -2.29,5.07 -5.5,8.73 -5.5,14.73 0,25.82 14.72,38.67 14.72,64.45 0,27.62 -11.09,42.35 -11.09,69.99 0,20.68 23.95,27.13 23.95,47.84 0,50.62 -40.51,72.74 -40.51,123.36 0,9.22 6.45,12.89 11.07,20.26 13.81,20.74 19.33,36.84 19.33,62.16l0 61.22c-41.92,47.84 -67.21,84.22 -67.21,147.32 0,10.56 2.78,16.55 7.37,25.74 12.43,30.86 31.77,43.29 46,73.66 12.89,27.16 15.71,44.2 27.62,71.82 9.22,20.71 16.58,31.28 29.48,49.71 6.9,10.1 6.44,18.88 12.89,29.44 33.14,53.4 53.4,84.27 99.44,127.06 39.1,36.35 62.1,57.09 104.94,90.21 26.7,20.71 36.35,39.6 64.42,57.1 32.69,20.71 56.64,25.29 84.71,51.53 9.2,8.28 7.79,20.71 16.57,29.49 18.42,18.38 44.16,24.83 44.16,51.07l0 26.7c0,67.67 68.62,108.18 136.26,108.18 15.21,0 28.06,5.07 38.67,-5.53 7.86,-7.82 7.37,-17.94 7.37,-29.45 0,-15.64 -11.04,-23.46 -11.04,-39.13 0,-96.04 -2.05,-37.76 23.93,-1.38 17.04,23.92 37.3,28.99 53.4,53.4 12.89,19.34 9.64,38.18 27.61,53.4 27.61,23.47 54.31,20.26 90.21,20.26 17.93,0 23.03,-19.34 40.51,-22.13 64.43,-11.02 100.78,-26.7 158.34,-58.89 48.79,-27.16 58.01,-66.75 108.63,-92.08 41.42,-20.71 64.43,-34.98 110.46,-42.34 41.89,-6.91 58.93,-31.31 99.44,-42.34 41.43,-11.51 64.43,-22.12 97.57,-49.7 36.85,-18.42 57.53,-35.01 98.53,-35.01 84.22,0 124.73,55.23 208.95,55.23 39.1,0 60.31,-16.55 99.41,-16.55 39.59,0 55.69,26.7 92.07,42.33 34.03,14.73 60.77,11.07 88.38,34.98 19.8,17.05 23.47,34.52 38.68,55.24 32.69,43.74 63.06,73.19 117.83,75.48 30.36,1.37 44.63,21.2 64.43,44.21 28.53,32.69 35.47,61.22 71.82,84.71 44.17,28.54 68.58,46.96 103.11,86.55 18.87,21.63 40.5,32.19 40.5,60.73 0,17.04 -11.03,25.32 -11.03,42.34 0,23.49 27.13,33.18 50.59,33.18 20.25,0 37.76,-15.22 37.76,-35.47 0,-25.32 1.83,-40.05 1.83,-65.38l0 -18.39c0,-56.18 -38.65,-78.73 -62.59,-129.34 -9.2,-19.8 -27.59,-28.08 -27.59,-50.2l0 -19.76c6.87,-0.5 11.03,-1.86 17.89,-1.86 13.85,0 21.67,5.53 35.48,5.53 29.45,0 45.12,-15.65 66.26,-36.85 16.59,-16.55 29.48,-24.83 42.38,-44.17 38.67,-58.01 66.75,-87.01 117.82,-134.42 17.5,-16.09 27.62,-33.11 51.57,-33.11 22.09,0 32.19,14.72 54.31,14.72 29,0 44.63,-17.04 63.52,-38.67 15.63,-17.96 34.97,-26.7 34.97,-50.66 0,-23.46 -12.85,-34.97 -12.85,-58.44l0 -36.38c37.23,-37.27 64.43,-64.43 64.43,-116 0,-26.24 -20.29,-38.67 -20.29,-64.88l0 -34.06c0,-39.6 25.32,-58.93 53.4,-87.01 23.95,-23.95 34.55,-40.05 58.93,-62.62 22.08,-20.22 41.87,-22.55 68.12,-36.78 25.3,-13.85 35.44,-36.85 64.46,-36.85 27.62,0 40.97,18.43 68.55,18.43l58.48 0c10.59,9.18 14.71,19.79 14.71,34.06 0,14.27 -9.22,21.14 -9.22,35.43 0,7.82 1.41,11.98 1.87,19.79 11.97,0 18.88,0.92 30.82,0.92 29.47,0 53.86,-23.95 53.86,-53.4 0,-17.5 -2.75,-27.16 -2.75,-44.66l0 -45.09c0,-17.51 13.35,-26.7 21.17,-42.84 3.24,0 4.15,3.71 7.36,3.71 8.28,0 6.9,-12.89 14.76,-14.73 32.65,-7.36 52.91,-3.7 86.51,-3.7 32.66,0 51.08,5.54 83.76,5.54 57.11,0 88.85,-19.8 140.87,-42.38 93.45,-40.93 135.76,-82.36 224.63,-134.39 59.35,-34.52 113.67,-12.43 167.53,-55.22 34.06,-27.16 23.03,-63.55 35.01,-104.98 4.12,-14.72 0,-36.81 15.64,-36.81 17.97,0 27.16,12.86 45.09,12.86 51.08,0 66.75,-57.06 117.83,-57.06 8.28,0 12.47,3.7 20.71,3.7l43.25 0c13.85,0 18.46,13.35 29.95,20.25 35.92,22.09 47.87,55.24 47.87,97.6 0,32.66 -24.42,46.01 -44.18,71.79 -14.3,18.89 -11.51,40.51 -31.31,53.4 -16.1,10.58 -26.24,15.65 -44.17,22.09 -30.86,11.52 -52.03,5.99 -82.89,18.42 -33.6,13.81 -46,44.64 -46,80.99 0,17.54 5.53,27.19 9.2,44.2 5.07,22.09 3.69,37.31 16.55,55.27 23.49,32.19 53.43,48.33 53.43,88.35 0,11.05 -5.52,16.58 -5.52,27.65 0,25.75 16.55,38.64 16.55,64.42 0,16.1 -10.6,23.92 -20.26,36.85 -22.57,29.45 -31.31,49.24 -47.86,82.85 -27.16,54.31 -64.43,69.5 -103.11,116 -1.83,8.27 -0.46,13.35 -0.46,22.08 0,48.78 15.68,75.49 40.94,117.83 12.92,22.11 22.58,35.89 44.2,49.73 21.63,13.81 44.21,23.47 44.21,49.25l0 41.42c0,29.94 30.82,47.41 60.77,47.41 47.86,0 72.7,-25.32 108.62,-57.06 31.74,-28.11 67.21,-40.05 71.79,-82.89l-16.55 -62.59 0 -64.01c0,-140.36 -110.5,-202.5 -110.5,-342.91 0,-20.71 18.42,-27.61 27.65,-46.03 9.19,-18.39 6.9,-46.01 27.61,-46.01 8.28,0 11.98,5.5 20.26,5.5 28.07,0 41.42,-15.19 68.13,-23.92 56.6,-18.89 86.97,-34.52 145.4,-47.87 11.06,-2.29 14.76,-11.03 25.82,-14.73 46.46,-15.22 70.42,-26.7 112.3,-49.74 26.7,-14.71 39.13,-38.67 69.99,-38.67 15.14,0 23.88,3.7 39.1,3.7l50.62 0c27.15,0 59.38,-9.65 59.38,-36.81 0,-9.23 3.71,-17.05 -1.82,-23.95 -9.69,-11.98 -23.04,-9.66 -38.65,-11.02 -26.24,-2.79 -41.91,0 -66.29,-9.24 -24.87,-9.65 -35.93,-22.09 -53.44,-42.34 -16.09,-18.88 -29.44,-32.23 -29.44,-57.06 0,-35.48 26.24,-56.65 58.93,-70 29.45,-11.94 41.88,-34.97 73.65,-34.97 34.07,0 46.04,36.84 53.41,69.99 7.36,32.65 27.12,47.38 29.4,80.98 4.2,55.27 11.1,125.22 66.29,125.22 21.67,0 32.7,-11.05 54.32,-11.05 23.47,0 33.18,22.11 56.65,22.11l37.72 0c24.87,0 38.22,-11.06 63.06,-11.06 23.03,0 33.6,17.02 49.73,33.12 25.79,25.78 46.5,33.18 73.62,57.1 30.41,26.7 57.56,31.31 84.68,60.75 8.77,9.7 20.29,15.19 20.29,29l0 76.41c0,29.01 20.25,45.58 46,58.5 25.34,12.4 42.35,20.22 70.92,20.22l278.94 -40.51c38.64,-0.46 60.31,-1.83 98.95,-1.83 23.45,0 36.38,-9.2 59.84,-9.2 49.24,0 77.32,-1.4 126.57,-1.86l38.21 0c12.44,0 19.8,2.78 31.77,5.53 24.39,0 41.89,-10.56 62.6,1.83 17.47,10.6 15.65,29.02 29.44,44.21 11.53,12.43 21.64,15.18 34.99,25.75 23.95,18.91 34.55,35.01 62.59,46.07 12.44,4.58 18.42,12.43 31.32,16.56 14.72,4.61 24.83,1.36 40.51,3.66 43.25,6.94 66.25,14.76 109.55,14.76 36.35,0 57.06,-9.23 93.41,-9.23l34.06 0c21.21,0 33.15,-5.53 54.35,-5.53l56.16 0c64.91,0 97.57,-31.28 162.48,-38.64 52.45,-5.99 109.1,-13.81 117.84,-66.29 -53.4,-22.09 -121.53,16.55 -143.62,-38.68l1.83 -7.36c4.62,-0.46 6.91,-1.84 11.52,-1.84 37.72,0 56.61,20.26 94.33,20.26 35.94,0 53.44,-20.26 89.3,-25.79 81.01,-12.39 125.23,-11.51 206.24,-22.08 133.01,-1.38 208.49,-3.66 341.5,-3.66 38.68,0 83.81,-2.79 93,34.98 -37.73,14.71 -61.69,8.73 -101.24,14.71 -37.76,5.54 -59.39,7.37 -97.61,7.37 -37.72,0 -58.43,-7.37 -96.19,-7.37l-41.43 0c-14.72,0 -28.07,11.04 -28.07,25.75 0,13.85 18.42,11.99 31.31,16.6 34.94,12.89 71.78,23.95 71.78,60.76 0,17.93 -23.95,22.13 -23.95,40.05l0 15.19c4.16,0.45 6.94,1.36 11.06,1.82l34.98 -5.53 22.13 0c1.83,31.77 7.36,49.74 18.38,79.19 5.99,15.68 1.38,40.51 18.42,40.51 38.23,0 28.08,-71.79 66.3,-71.79 15.64,0 13.77,22.09 23.92,33.11 24.41,26.24 43.74,37.3 77.35,49.73 40.47,15.19 63.48,29.46 106.77,29.46 18.87,0 28.99,-7.37 47.87,-7.37 31.77,0 44.17,23.96 73.65,36.82 48.34,20.74 81.02,17.04 130.72,36.84 18.84,10.56 36.82,20.25 36.82,41.88l0 39.14c-11.99,11.97 -22.09,21.63 -22.09,38.67 0,6.41 10.1,4.58 16.58,5.5 17.02,2.32 35.9,-2.75 42.35,12.89 8.28,19.34 11.02,32.23 11.02,53.4 0,18.88 -7.37,28.99 -7.37,47.87 0,25.33 27.62,33.61 27.62,58.93 0,14.27 -13.81,17.48 -23.91,27.62 -8.74,8.74 -8.32,18.88 -11.06,31.31 25.33,8.28 33.15,33.11 59.85,33.11 36.35,0 49.7,-36.8 86.09,-36.8l39.55 0c69.07,0 102.19,38.21 162.49,71.78 29.45,16.6 44.18,40.55 78.23,40.55 11.99,0 18.43,-3.7 30.41,-3.7 56.63,0 70.87,53.85 119.69,82.85 31.28,18.42 40.48,40.51 68.09,64.45 16.1,13.78 28.56,19.34 42.34,34.99 34.06,38.67 58.51,57.51 97.61,92.04 39.59,34.55 75.48,60.3 75.48,113.24 0,66.3 -25.78,100.82 -53.4,161.13 -16.55,36.35 -13.35,60.76 -23.95,99.43 -6.87,25.75 -22.09,37.73 -22.09,64.43 0,48.33 43.72,63.97 51.57,112.29 5.5,-68.57 35.44,-100.77 47.87,-169.35 6.91,-39.14 10.58,-66.75 40.51,-92.08 23.47,-19.79 45.58,-22.09 76.41,-22.09 48.32,0 66.72,37.76 104.01,68.13 34.53,28.08 53.86,45.08 82.89,79.18 18.39,21.63 18.85,41.89 33.11,66.26 12.9,22.13 37.3,17.96 58.93,31.31 25.75,16.14 25.75,38.64 47.88,60.77 21.16,35.44 26.2,60.3 29.44,101.27 10.61,-7.36 11.97,-18.42 22.09,-25.78 25.78,-19.34 48.33,-20.72 81.02,-23.93l340.61 58.91c30.87,0 45.59,-18.89 73.66,-31.32 36.81,-16.55 60.73,-22.08 101.27,-22.08 31.28,0 51.53,6.94 77.32,23.95 14.72,9.65 18.39,21.17 34.98,29.45 4.13,-25.79 8.74,-49.71 33.14,-57.07 15.65,-4.61 25.79,-3.7 42.35,-3.7 22.99,0 36.38,5.53 59.35,5.53l34.1 0c23,0 34.98,9.19 57.98,9.19l39.59 0c19.34,0 29.91,6.94 48.33,12.9 26.67,8.77 48.37,13.35 58.9,38.68 16.13,38.21 9.69,63.5 16.58,104.96l7.36 1.8c16.6,-40.47 53.41,-58.89 97.62,-58.89 46.46,0 63.47,35.43 104.9,57.09 41.92,22.09 64.91,32.66 110.49,47.88 20.72,6.87 30.83,14.23 51.58,20.22 41.84,11.97 69.03,12.43 106.76,33.18 23.95,12.85 30.37,32.19 49.7,51.53 27.2,27.16 36.36,50.16 69.95,68.13 32.24,17.5 61.26,6.44 90.26,29.44 16.09,12.89 18.38,28.08 23.91,47.87 12.43,42.84 14.76,71.82 46.04,103.15 29.03,28.98 58.44,16.55 97.61,29.44 23.46,3.7 38.64,23.96 38.64,47.41l0 35.44 40.05 0c6.45,0 9.19,-5.54 15.65,-5.54l37.75 0c26.21,0 41.89,18.43 51.99,42.38 11.98,28.04 19.8,44.17 25.79,73.62 11.51,57.1 71.78,73.66 71.78,132.13l0 96.66c0,36.38 12.44,56.14 20.26,91.62 12.89,57.06 11.07,92.04 34.98,145.44 21.21,46.96 44.2,73.66 44.2,125.22 0,26.67 -18.38,39.6 -18.38,66.26 0,45.58 51.53,51.57 75.45,90.25 20.72,33.61 32.69,71.79 72.28,71.79l65.34 0c27.66,0 45.12,11.97 63.1,33.14 16.55,19.8 33.14,32.69 33.14,58.93 0,15.65 -16.59,20.26 -31.32,25.79 -17.5,6.41 -23,19.76 -40.51,25.75 -15.17,5.07 -36.8,3.7 -36.8,19.79l0 15.19c21.17,3.23 31.31,11.97 51.53,18.42 18.88,5.98 44.21,4.16 44.21,23.96 0,22.53 -21.67,26.7 -33.15,46.03 -12.9,16.55 -25.79,21.17 -40.51,34.97 -23.46,22.09 -26.7,43.27 -49.7,66.26 -60.8,60.8 -104.97,81.06 -165.7,141.82 -16.58,16.56 -22.58,32.19 -44.2,38.64 -19.8,5.99 -34.52,2.33 -53.4,11.07 -26.25,11.97 -37.74,26.7 -58.93,46 -41.89,38.68 -83.77,64 -83.77,121.06l0 72.75c0,27.64 15.67,41.87 15.67,69.49 0,33.61 -9.69,51.57 -14.72,84.71 -2.79,19.8 -0.5,33.61 -9.23,51.55 -16.59,33.6 -39.6,43.74 -68.12,68.15 -17.06,14.27 -21.63,28.99 -40.51,42.34 -34.06,23.95 -61.68,19.76 -101.27,31.31 -37.73,10.58 -56.16,34.99 -95.75,34.99l0 18.84c0,18.88 10.15,27.16 14.73,45.58 44.21,-15.67 57.56,-45.58 99.44,-66.29 47.87,-23.92 75.03,-40.06 127.05,-49.7 23.93,-4.13 39.1,-1.38 62.57,-7.36 64.91,-17.06 109.12,-47.42 132.58,-110.47 11.06,-29.48 16.59,-46.08 27.62,-75.49 4.15,-11.55 7.36,-18.91 12.89,-29.48 5.99,-11.06 7.36,-25.79 20.26,-25.79 5.52,0 9.18,2.33 14.75,3.71 -2.82,17.92 0,27.61 0,45.58 0,29.9 -11.06,46 -11.06,75.94 0,34.98 27.58,64.43 62.56,64.43 11.98,0 23.49,0.92 29.48,-9.2 6.91,-11.51 2.75,-21.17 3.7,-34.98 1.37,-23.49 9.19,-35.89 9.19,-59.39l0 -89.29c0,-34.98 5.53,-59.84 29.45,-85.18 24.87,-26.66 51.57,-27.61 88.39,-34.97 35.92,-1.38 56.14,-3.67 92.07,-3.67 48.32,0 69.95,36.82 118.29,36.82l39.59 0c20.71,0 30.36,-12.44 48.33,-22.09 39.1,-21.67 61.19,-44.21 105.85,-44.21 43.25,0 61.22,29.48 98.52,51.57 18.39,11.02 33.61,5.04 55.24,7.36 51.07,5.53 115.99,10.57 115.99,61.69 0,28.06 -17.97,40.95 -31.32,65.37 -13.81,24.83 -19.3,40.51 -25.78,68.12 -10.61,44.18 -12.86,69.96 -33.11,110.47 -11.55,23 -23.96,33.15 -42.38,51.53 -25.29,25.33 -26.24,50.2 -51.53,75.53 -28.08,28.07 -58.47,25.74 -98.06,25.74l-57.99 0c-26.7,0 -40.96,7.37 -66.75,14.73 -50.62,15.21 -80.55,10.14 -132.55,14.75 -31.32,2.75 -48.32,9.2 -79.65,9.2 -29.93,0 -46.46,1.87 -76.39,1.87 -7.83,0 -11.52,5.99 -19.34,5.99 -57.99,0 -90.68,-0.5 -148.69,-0.5 -1.8,3.7 -3.66,5.99 -5.53,9.23 49.73,33.15 81.94,53.37 140.44,53.37l172.61 0 178.55 -47.87 38.67 1.86c5.53,7.82 11.04,13.81 11.04,23.92 0,33.61 -21.14,48.33 -33.13,79.19 -22.57,57.09 -34.97,92.5 -34.97,154.18 0,7.4 0.92,11.51 1.86,18.88 29.46,-17.47 34.03,-42.35 47.84,-73.62 23.01,-52.03 28.99,-84.72 58.93,-132.59 21.17,-34.52 45.1,-45.09 73.66,-73.66 28.5,-28.53 42.34,-62.59 82.85,-62.59 9.65,0 11.02,11.03 18.42,16.59 17.02,13.32 32.19,16.55 54.32,16.55 30.36,0 55.69,-9.68 69.04,-36.84 10.11,-20.71 8.27,-35.9 12.89,-58.93 5,-26.21 22.08,-37.72 22.08,-64.42 0,-25.8 -7.36,-40.51 -7.36,-66.26 0,-16.14 18.4,-17.97 31.29,-27.65 18.88,-13.81 28.98,-23.47 46.04,-40.51 26.7,-26.7 47.41,-44.18 84.67,-44.18 27.16,0 41.43,7.82 68.13,12.89 48.78,9.2 76.89,13.35 125.22,25.79 11.98,2.75 16.1,11.49 27.59,14.72 84.21,26.24 138.53,17.94 222.79,44.21 18.43,5.5 29.45,10.11 47.83,14.73 78.27,20.25 117.86,45.54 193.35,73.61 22.55,8.32 29.49,24.88 49.75,38.69 25.74,17.96 39.55,34.51 69.95,40.51 18.84,3.65 31.77,4.15 47.87,14.71 18.88,12.43 30.36,20.26 51.53,29.45 23.04,9.69 44.17,21.21 44.17,46.04 0,5.53 -2.25,9.23 -3.62,14.73l1.83 22.11 28.98 0c28.54,0 44.64,-11.05 73.2,-11.05 49.67,0 68.13,41.42 102.16,77.35 31.31,33.11 79.18,42.34 79.18,88.34 0,18.92 -0.46,34.52 -14.76,46.04 -30.36,25.32 -67.63,9.23 -93.87,38.68 3.21,1.86 5.08,5.53 9.19,5.53 14.27,0 22.59,-5.53 36.84,-5.53 41.92,0 84.69,24.41 84.69,66.29 0,16.1 -21.17,20.25 -31.29,33.14 -4.61,19.8 -17.04,28.08 -25.81,46.05 -17.47,35.43 -22.08,59.81 -22.08,99.41 0,28.52 5.98,45.58 16.58,71.82 7.37,18.84 16.1,38.67 36.82,38.67 19.79,0 15.21,-28.11 18.42,-47.91 5.07,-30.35 14.72,-45.57 14.72,-75.93l0 -49.71c0,-20.71 7.37,-34.98 23.95,-47.41 10.6,10.57 21.63,15.18 23.95,29.45 4.59,25.32 5.51,58.93 31.29,58.93 48.28,0 65.37,-42.84 90.21,-84.68 6.48,-11.07 13.84,-15.22 20.25,-25.82 6.9,-11.49 11.97,-23.92 25.78,-23.92 23.01,0 31.77,18.42 51.53,29.45 35.9,19.8 57.11,30.85 93.88,47.87 53.89,25.33 90.25,26.73 141.82,58.93 53.86,33.61 94.37,27.16 152.8,49.7 51.57,19.79 78.24,47.87 133.51,47.87 37.72,0 51.56,-36.8 89.3,-36.8 11.02,0 13.35,11.97 22.07,18.42 35.44,26.24 44.64,57.55 84.68,77.31 29,14.27 46.5,21.21 77.36,29.49 17.01,4.57 26.24,14.71 44.17,14.71 25.78,0 34.06,-27.6 59.85,-27.6 39.1,0 57.53,25.74 96.66,25.74l147.28 -18.38c45.58,7.35 64.91,38.64 110.46,38.64 29.03,1.86 41.46,19.34 64.46,36.84 25.78,19.8 39.55,31.77 64.43,53.4 46.94,40.97 95.73,26.7 147.3,62.6 16.14,11.06 23.01,21.62 38.69,33.15 23.49,17.46 45.57,11.48 69.95,27.61 21.63,14.26 25.74,33.15 44.2,51.57 43.23,43.25 68.55,66.72 121.49,99.4 26.25,16.13 42.81,25.33 58.93,51.57 10.61,17.02 11.53,28.99 23.96,44.17 13.78,17.05 24.37,25.79 40.48,40.51 42.82,39.59 51.1,78.28 97.6,114.16 42.34,32.69 64.42,53.86 106.77,86.52 18.88,14.3 30.36,23.5 49.69,36.85 12.44,8.73 25.79,10.1 31.33,23.95 13.31,32.68 11.05,54.77 11.05,90.2 45.09,0 74.54,9.2 108.64,38.69 15.18,12.85 26.7,17.01 42.3,29.44 24.88,19.8 30.86,53.4 63.09,53.4l61.67 0c15.19,0 23.04,6.9 37.28,11.03 38.21,11.98 61.71,18.42 101.73,18.42l45.12 0c52.45,0 79.61,23.03 125.65,47.88 57.06,30.85 91.15,55.22 121.52,116.02 20.72,15.18 22.54,35.44 29.45,60.76 6.44,23.46 12.89,37.73 12.89,62.11l0 72.74c0,32.69 15.68,49.27 15.68,81.92l0 99.9 37.72 224.64 0 37.26c0,29.94 -15.21,44.66 -23.95,73.23 -13.77,45.58 -11.03,73.62 -11.03,121.04l0 35.92c0,22.09 -10.6,34.03 -10.6,56.15l0 93c0,65.8 -17.47,104.93 -53.82,159.71 -14.27,21.63 -19.84,37.72 -36.85,57.06 -69.53,78.27 -94.36,137.66 -156.47,220.97 -22.57,45.12 -50.19,57.09 -86.55,88.41 -27.19,23.46 -39.17,40.97 -64.45,66.26 -32.23,32.19 -49.25,52.48 -82.86,82.84 -19.79,17.52 -34.55,23.5 -53.4,42.35 -11.02,11.05 -12.89,22.12 -23.91,33.14 -38.68,38.68 -72.74,42.38 -119.7,68.13 -90.66,50.19 -153.26,69.53 -220.93,147.31 -57.52,65.84 -71.79,118.32 -123.35,189.65 -22.09,30.39 -35.94,49.74 -42.35,86.55 -6.44,38.64 -10.14,67.63 -38.67,93.91 -14.73,13.31 -22.09,23.45 -34.98,38.64 -44.17,52.02 -87.01,60.76 -143.61,99.43 -41,28.08 -58.47,51.54 -97.6,82.86 -25.76,20.25 -35.44,49.73 -68.55,49.73l-14.27 0c0,-3.24 -1.87,-5.53 -1.87,-8.76 0,-23.01 7.36,-36.36 7.36,-59.37 0,-23.03 3.25,-40.99 -12.85,-57.09l-43.75 0c-28.11,0 -44.21,6.9 -70.42,16.59 17.48,34.97 40.51,52.91 40.51,92.04 0,23.46 -25.78,27.62 -44.2,42.37 -11.06,8.74 -15.19,17.02 -22.09,29.42 -16.59,29.94 -13.85,56.64 -22.09,90.24l0 48.33c0,11.98 2.75,21.18 -3.7,30.86 -11.94,18.43 -33.14,15.18 -47.87,31.28 -22.54,24.41 -24.37,48.82 -24.37,82.42 0,23.93 0.42,37.28 0.42,61.19 4.19,0.49 6.94,1.87 11.06,1.87 17.05,0 21.63,-15.22 35.02,-25.78l8.24 -1.87 0 33.64c0,27.62 -7.79,42.8 -15.64,69.5 -16.55,56.6 -16.55,90.21 -16.55,148.68l0 57.98c0,81.01 -17.94,126.14 -17.94,207.15l0 174.02c0,34.52 -20.71,50.61 -33.64,82.39 -17.93,43.71 -22.08,70.41 -38.64,114.17 -9.68,25.74 -7.36,43.25 -14.73,69.95 -14.26,52.94 -34.1,81.02 -46.07,134.42 -15.14,36.8 -15.6,61.22 -18.35,101.27 -4.61,57.98 -15.71,90.21 -23.95,147.27 -5.54,37.77 1.83,66.29 -22.12,95.74 -19.76,24.41 -36.36,33.61 -62.57,51.57 -25.32,17.02 -37.3,32.69 -53.43,58.93 -9.65,15.64 -21.13,20.71 -29.44,36.81 -8.74,16.56 -18.88,23.5 -25.75,40.51 -20.72,50.62 -10.15,85.63 -20.26,139.95 -23.5,125.19 -25.78,211.28 -108.63,307.47 -14.31,17.06 -30.4,21.17 -49.74,33.15 -77.32,48.33 -101.27,102.65 -141.78,184.13 -25.75,52.02 -46.04,79.18 -68.13,134.42 -5.49,22.99 -25.29,28.06 -40.51,46.03 -48.29,56.15 -86.05,81.47 -123.35,145.45 -23.46,40.51 -35.44,63.96 -62.56,103.09 -23.03,33.15 -37.76,55.24 -37.76,95.29l0 61.68c0,12.43 6.45,18.42 6.45,30.86 0,34.98 -35.48,50.19 -69.97,57.06 -14.71,2.78 -19.33,14.72 -33.14,20.25 -31.77,12.89 -53.86,10.61 -84.72,25.79 -47.41,23.49 -78.26,31.77 -121.49,62.59 -26.24,18.42 -49.27,32.23 -51.56,64.46l11.02 75.49c-4.12,3.21 -7.36,7.36 -12.89,7.36 -27.12,0 -41.42,-12.89 -68.55,-12.89l-39.59 0c-7.85,0 -11.49,-5.53 -19.33,-5.53l-40.06 0 -88.34 -14.72 -34.56 0c-30.36,0 -43.71,-22.09 -74.08,-22.09 -10.6,0 -16.13,7.36 -25.78,11.07 -15.68,6.41 -28.54,-0.96 -44.21,5.49 -16.1,6.48 -23,20.25 -40.47,20.25 -22.12,0 -30.85,-17.02 -51.57,-23.92 -43.29,-14.27 -68.58,-19.34 -114.16,-12.89 -39.14,0 -52.91,40.51 -92.08,40.51 -30.83,0 -40.97,-34.98 -71.79,-34.98 -23.92,0 -34.98,15.18 -57.06,23.92 -20.26,8.28 -44.21,14.76 -44.21,36.84 0,24.38 23.95,32.69 27.66,57.07 2.28,16.59 3.65,25.78 3.65,42.33 -24.86,-8.27 -32.68,-26.2 -57.06,-34.97 -36.39,-13.35 -60.8,-5.53 -99.45,-5.53 -14.29,0 -23.03,-3.21 -36.8,0 -32.69,7.36 -36.35,38.22 -62.63,58.93 -15.14,11.98 -26.67,17.97 -36.81,35.01 22.09,5.49 51.53,3.21 51.53,25.75 0,20.29 -17.47,26.24 -29.44,42.34 -11.03,14.73 -12.89,36.82 -31.75,36.82l-21.62 0c-0.49,-5.05 -1.87,-8.25 -1.87,-13.32 0,-31.78 14.27,-48.79 16.59,-80.59l-54.8 0c-50.63,0 -78.69,-14.73 -129.35,-14.73 -31.28,0 -45.55,22.57 -66.26,46.04 -13.35,15.22 -20.25,33.15 -40.51,33.15 -13.81,0 -15.63,-20.26 -29.44,-20.26 -7.36,0 -9.23,6.45 -14.73,11.06 -11.05,9.65 -20.25,12.43 -33.14,20.25 -45.58,28.11 -75.99,37.31 -121.53,66.3 -37.27,23.46 -58.9,36.81 -90.21,68.09 -21.63,21.7 -32.23,38.67 -58.93,53.43 -26.7,14.73 -39.59,29 -68.09,40.48 -32.26,12.93 -56.65,14.3 -82.89,36.84 -16.09,13.81 -28.98,17.97 -46.04,31.32 -14.72,11.48 -18.38,23.91 -33.11,34.97 -17.96,13.35 -40.05,2.75 -54.32,20.22l0 60.34c0,25.79 -30.36,35.44 -56.17,35.44 -26.71,0 -34.07,-31.31 -60.73,-31.31 -17.51,0 -23.05,19.34 -40.55,20.29 -18.84,0.92 -29.45,5.03 -47.84,9.15 -16.12,3.74 -34.98,7.36 -34.98,23.96 0,14.27 22.09,10.11 31.29,20.26 13.81,14.71 16.59,29.47 16.59,49.69 0,31.81 -22.12,46.53 -29.48,77.36 -22.09,22.08 -13.35,46.5 -22.09,75.48 -9.23,29.45 -47.87,31.77 -47.87,62.64 0,22.08 11.52,33.6 20.25,53.36 13.81,30.86 16.6,51.57 16.6,85.63 0,28.99 -7.37,45.09 -7.37,74.08l0 35.93c0,28.53 9.16,44.67 9.16,73.19 0,25.33 -25.75,34.98 -25.75,60.31l0 61.68c0,43.71 -25.33,63.51 -40.51,104.51 -15.18,41.43 -17.96,66.71 -25.78,110.43 -10.14,55.72 -13.35,91.13 -46.04,138.12 -10.57,15.18 -29.44,6.44 -44.17,16.55 -10.61,7.36 -7.36,20.25 -14.73,31.32 -8.74,13.35 -24.83,10.14 -40.54,14.75 -21.6,6.38 -32.65,16.53 -53.37,25.76 -44.66,20.25 -58.89,50.16 -97.57,81.01 -36.39,28.99 -53.86,50.16 -82.85,86.55 -12.43,15.6 -14.3,29.45 -27.65,44.18 -21.62,23.45 -36.81,36.84 -55.23,64.45zm-6261.82 -15558.59c-13.35,-6.9 -19.8,-20.25 -35.44,-20.25l-25.33 0 0 29.91c0,12.92 16.59,11.05 27.65,17.96 18.39,11.51 28.04,21.21 42.34,36.84 13.35,14.72 27.12,18.84 46,25.78 8.74,3.21 12.43,12.9 22.09,12.9 12.47,0 12.93,-17.05 12.93,-29.48 0,-19.34 -17.05,-26.7 -33.15,-36.82 -20.25,-12.89 -36.84,-23.49 -57.09,-36.84zm298.27 25.8c-10.61,-1.41 -15.18,-7.37 -25.75,-7.37 -16.59,0 -23.96,18.39 -23.96,34.99l0 45.08c0,9.23 7.37,17.51 16.6,17.51 8.73,0 10.1,-9.65 14.72,-16.56 17.02,-23.95 18.39,-44.2 18.39,-73.65zm1031.05 537.62l0 12.89c21.62,0 33.6,9.2 55.22,9.2 17.98,0 36.86,-9.66 36.86,-27.58 0,-32.23 -53.86,-45.16 -79.19,-25.82 -10.11,7.86 -9.2,19.34 -12.89,31.31zm572.61 -154.65c-31.32,41.88 -62.6,69.95 -115.08,69.95 -19.31,0 -29.92,-5.49 -49.25,-5.49l-29.9 0 0 22.54c0,13.81 18.84,12.44 32.19,16.1 16.59,4.61 27.19,5.07 44.2,7.36 29.91,4.61 43.3,27.62 73.66,27.62 16.1,0 23.96,-7.36 38.67,-14.73 21.14,-10.56 40.48,-20.71 40.48,-44.16 0,-33.61 -4.12,-66.76 -34.97,-79.19zm1579.74 -694.15c-3.66,-22.09 -15.64,-42.34 -37.75,-42.34 -17.06,0 -30.41,14.27 -30.41,31.32 0,19.76 9.24,29.9 20.29,46 8.28,12.44 14.27,25.79 29.45,25.79 17.93,0 22.08,-22.59 22.08,-40.51 0,-10.61 -3.66,-20.26 -3.66,-20.26zm-440.03 708.42l0 29.95c5.49,0.42 8.74,1.79 14.23,1.79 24.87,0 37.79,-13.35 55.69,-31.28l0 -29.44c-23.46,0 -43.72,-0.96 -58.9,16.55 -3.66,4.62 -11.02,5.98 -11.02,12.43zm-182.28 129.35c-5.54,0.91 -8.77,1.83 -14.27,1.83 -11.52,0 -17.51,-3.67 -29.02,-3.67 -27.62,0 -30.36,36.36 -30.36,63.98l0 45.12c0,19.33 -10.61,30.36 -23.96,43.71 -11.52,11.51 -12.89,26.24 -27.62,33.18 -26.24,12.4 -44.63,11.94 -69.95,25.75 -12.89,6.9 -27.62,11.98 -27.62,27.15l0 15.19c14.27,-0.92 22.09,1.87 36.36,1.87 17.5,0 27.18,-3.7 44.66,-3.7 36.35,0 56.14,11.06 92.53,11.06l45.09 0c6.45,0 9.23,5.5 15.64,5.5l45.58 0c19.34,-19.34 34.98,-33.61 34.98,-60.77 0,-28.99 -22.12,-41.88 -22.12,-70.87 0,-41.42 14.76,-64.43 14.76,-105.88 0,-20.22 -27.62,-20.22 -47.87,-20.22 -17.47,0 -26.7,-10.15 -44.21,-7.4l7.4 -1.83zm3940.12 3238.75l0 15.22c0,20.21 11.02,30.36 11.02,50.62l0 37.72c0,20.71 16.56,30.4 16.56,51.12l8.73 0c11.98,0 16.59,-10.12 24.45,-18.43 17.93,-19.34 27.58,-36.35 27.58,-63.51 0,-44.66 -43.68,-80.1 -88.34,-72.74zm373.75 863.56c-15.64,-2.3 -24.88,-5.53 -40.51,-5.53 -12.93,0 -21.17,7.36 -29.45,16.55 -10.6,11.53 -23.95,17.51 -23.95,33.15 0,20.74 23.49,29.48 44.2,29.48 12.4,0 17.96,-6.44 29.45,-11.05 14.27,-5.54 33.15,-6.45 33.15,-22.09 0,-18.42 -4.62,-23.93 -12.89,-40.51zm-311.18 -158.34c-15.18,0 -15.18,19.34 -23.92,31.28 -8.31,11.51 -18.42,18.42 -18.42,33.14 0,14.27 10.11,20.72 16.59,33.15 10.11,19.34 17.93,28.99 33.11,44.17 7.4,7.36 10.15,16.59 20.25,18.43 8.74,1.86 15.68,-0.92 23.96,1.86 34.97,12.89 52.94,33.14 90.17,33.14 24.46,0 51.57,-10.59 51.57,-35 0,-15.19 -10.56,-21.63 -20.26,-33.15 -11.02,-12.89 -14.22,-23 -23.91,-36.81 -10.56,-15.19 -26.7,-13.81 -44.2,-20.26 -14.69,-5.53 -19.76,-17.04 -29.42,-29.48 -5.99,-7.78 -18.46,-1.79 -25.82,-9.19 -16.1,-16.11 -26.7,-31.28 -49.7,-31.28zm-141.76 141.75c-37.72,0 -59.39,20.72 -84.67,47.87 -18.89,20.29 -32.24,34.53 -36.82,62.64 3.21,0.42 3.63,5.49 7.36,5.49 16.98,0 21.6,-17.92 31.24,-31.31 13.85,-18.4 29.95,-19.76 51.58,-27.58 29.44,-11.06 71.82,-5.53 71.82,-36.85 0,-17.47 -23.04,-20.26 -40.51,-20.26zm-11.05 90.68c-11.02,3.24 -17.96,-0.45 -29.47,-0.45 -20.22,0 -21.6,24.4 -38.68,34.98 -26.21,16.12 -34.49,36.38 -46,64.45 3.23,0 4.15,3.7 7.36,3.7 13.35,0 16.13,-17.05 29.48,-18.42 38.22,-4.15 88.35,-5.99 88.35,-44.21 0,-16.1 -8.28,-23.92 -11.04,-40.05zm141.77 10087.75c-21.21,12.47 -32.2,29.93 -32.2,54.8l0 103.57c6.87,-34.98 19.34,-53.86 28.54,-88.42 2.74,-11.48 16.55,-13.77 16.55,-25.75 0,-17.04 0.46,-33.6 -12.89,-44.2zm-4531.13 8557.22c0,14.71 11.02,28.56 25.78,28.56 12.44,0 15.18,-11.52 23.92,-20.26 9.23,-9.18 20.25,-14.29 20.25,-27.64 0,-16.56 -14.73,-31.32 -31.28,-29.45 -24.4,2.75 -38.67,24.41 -38.67,48.79zm565.24 -179.5c-15.22,0 -19.79,15.6 -25.74,29.45 -9.24,21.2 -22.13,31.77 -22.13,54.77l0 22.55c0,9.22 -14.72,9.22 -14.72,18.46 0,18.38 16.56,25.74 16.56,44.16 0,20.26 -31.29,8.74 -51.58,11.03 -22.5,2.78 -33.61,11.52 -53.37,22.12 -17.04,9.2 -23.45,20.71 -34.97,36.82 -15.22,21.16 -33.14,31.77 -33.14,57.97 0,47.42 29.44,68.13 44.16,113.25 21.64,-3.24 29.49,-25.29 29.49,-46.95 0,-10.15 -5.54,-15.15 -5.54,-25.33l0 -14.27 10.61 0c23,0 27.13,31.32 50.12,31.32 11.07,0 14.76,-13.81 14.76,-24.84 0,-22.12 -11.51,-32.68 -16.56,-54.35 10.12,-5.03 17.02,-9.2 28.5,-9.2 30.87,0 38.22,38.69 69.05,38.69 7.85,0 11.09,-8.74 11.09,-16.6 0,-25.32 -16.59,-38.21 -16.59,-63.54 0,-9.16 9.23,-15.61 18.39,-15.61 27.19,0 33.64,33.11 60.8,33.11 34.93,0 38.67,-51.53 73.62,-51.53 12.89,0 20.25,7.37 33.15,7.37 35.43,0 73.65,-17.98 73.65,-53.4 0,-27.59 -23,-37.31 -44.21,-55.24 -16.55,-13.81 -28.08,-25.78 -49.7,-25.78 -33.6,0 -27.12,45.58 -51.58,69.95l-45.54 0c-10.6,0 -20.71,-7.78 -20.71,-18.39 0,-24.86 33.14,-29.44 33.14,-54.32 0,-17.96 -16.58,-23.94 -31.31,-34.09 -17.96,-11.98 -27.62,-27.58 -49.7,-27.58zm-272.51 12.87c-28.53,0 -19.33,55.22 -47.83,55.22 -33.18,0 -40.97,-42.33 -74.15,-42.33l-25.33 0c-0.88,6.44 -3.63,10.14 -3.63,16.58 0,16.56 17.48,20.72 31.29,29.46 7.36,4.61 7.36,12.89 14.71,18.38 20.26,15.22 45.56,16.14 51.54,40.55 -11.49,4.61 -16.1,14.72 -28.5,14.72 -24.4,0 -33.6,-23.96 -58.01,-23.96 -7.4,0 -12.89,6.48 -12.89,13.85 0,34.98 81.01,4.12 81.01,39.1l0 21.63c-23.46,-1.38 -37.3,1.37 -60.76,0 -0.45,4.61 -1.83,7.36 -1.83,11.97 0,13.84 17.93,12.89 25.78,23.96 -23.95,21.17 -49.24,13.81 -81.02,14.72 -23.49,0.45 -55.23,2.29 -55.23,25.79 0,17.96 19.76,22.08 34.98,31.31 20.25,12.4 27.62,33.11 51.53,33.11 18.89,0 31.78,-1.83 47.87,-11.02 22.59,-12.89 6.94,-42.34 22.09,-62.63 23.95,-32.23 77.35,2.32 99.44,-31.28 19.34,-29.45 31.31,-48.33 58.9,-70 41.92,-32.65 84.71,-54.32 84.71,-107.26l0 -19.79c-7.36,-0.46 -11.06,-1.83 -18.42,-1.83 -11.48,0 -12.89,14.26 -22.09,20.26 -11.52,7.35 -19.34,12.89 -33.11,12.89 -37.76,0 -43.29,-53.4 -81.05,-53.4zm-1159.94 1174.73c0,30.36 39.59,34.98 69.96,34.98 17.5,0 27.64,-5.99 44.2,-11.03 23.46,-6.94 40.05,-3.7 60.77,-16.59 29.48,-18.39 63.96,-22.58 68.12,-57.07l-104.48 0c-33.64,0 -51.11,12.9 -83.34,22.09 -23,6.41 -55.23,3.67 -55.23,27.62zm-535.76 325.9c-1.38,-21.21 -10.12,-44.17 -31.33,-44.17 -14.25,0 -22.07,15.17 -22.07,29.44 0,9.66 7.36,14.23 12.92,22.09 5.5,7.86 9.15,16.59 18.85,16.59l18.88 0c0,-11.49 2.75,-12.47 2.75,-23.95zm-660.99 -268.84c-5.99,-3.2 -8.28,-9.19 -15.22,-9.19l-32.65 0c-0.46,5.53 -1.83,9.19 -1.83,14.73 0,8.27 10.11,7.81 14.72,14.71 6.9,10.61 7.36,25.82 20.25,25.82 10.61,0 18.4,-9.71 18.4,-20.31 0,-7.37 -1.8,-18.36 -3.67,-25.76zm-261.44 -22.08c-19.83,0 -44.2,5.99 -44.2,25.75 0,12.47 17.5,10.14 29.49,12.93 10.1,2.29 14.22,12.89 24.83,12.89 17.96,0 29.93,-11.51 37.72,-27.62l0 -12.92c-11.48,0 -18.84,3.24 -29.44,0 -7.79,-2.3 -10.15,-11.03 -18.4,-11.03zm498.97 47.86c-53.86,0 -82.88,-16.56 -136.74,-16.56l-45.09 0c-10.61,0 -15.18,11.51 -15.18,22.08 0,10.6 9.19,15.21 9.19,25.79 0,15.18 -14.72,21.17 -14.72,36.38l0 10.61c13.35,3.16 28.07,-3.25 34.98,8.24 9.68,16.1 1.36,33.6 14.71,46.04 8.29,7.81 17.98,5.99 29.46,7.35 25.78,3.21 36.84,22.13 62.59,22.13 12.47,0 29.48,1.37 29.48,-11.06 0,-10.61 -11.02,-12.89 -18.38,-20.25 -9.73,-9.66 -12.89,-19.34 -12.89,-33.15 0,-14.73 14.72,-23.92 29.44,-23.92 3.21,0 4.58,3.21 7.36,3.67l36.36 0c23.03,0 21.63,29.02 31.77,49.69 14.73,29.45 34.52,49.74 66.75,49.74 14.73,0 23,-0.95 37.72,-0.95 34.98,0 33.61,58.01 68.59,58.01 8.31,0 12.89,-9.18 12.89,-17.46 0,-15.22 -7.82,-23.04 -14.73,-35.94 -5.07,-9.22 -1.41,-18.84 -9.18,-25.74 -12.48,-11.06 -26.7,-8.31 -38.69,-20.29 -11.51,-11.48 -9.22,-24.38 -9.22,-40.51 0,-10.11 -10.57,-16.55 -20.71,-16.55l-37.73 0c-22.12,0 -39.14,-18.88 -39.14,-40.97l0 -14.27c6.46,-0.46 9.66,-1.83 16.14,-1.83 12.39,0 19.33,5.5 31.73,5.5 26.7,0 36.85,-25.78 63.55,-25.78 17.47,0 17.47,22.11 23,38.67 8.32,25.78 23.92,46.04 50.62,46.04 27.16,0 43.75,-1.84 69.07,-11.03 12.86,-4.61 13.78,-22.08 27.59,-22.08 21.2,0 26.73,25.75 47.87,25.75 34.06,0 33.18,-46.5 33.18,-80.56 0,-8.28 -0.95,-12.4 -1.87,-20.72 -62.13,0 -96.16,-22.12 -158.33,-22.12 -65.38,0 -104.02,3.74 -165.7,23.96 -35.93,11.97 -57.55,22.09 -95.74,22.09zm-143.62 -850.64c21.63,21.6 31.31,46.05 61.22,46.05l39.56 0c20.71,0 30.39,-13.35 46.53,-25.83 6.87,-5.04 9.15,-14.72 18.39,-14.72 18.88,0 26.24,17.05 34.98,33.19 13.81,25.28 31.77,33.56 47.91,57.06 22.96,33.11 31.73,57.06 34.93,97.56 -27.16,6.45 -51.53,22.59 -51.53,50.66 0,31.28 29.45,48.78 60.76,52.45l20.26 -5.49 7.36 1.82c5.53,81.94 55.69,127.06 128.88,165.75 51.09,26.65 78.7,43.71 130.73,68.08 61.19,28.57 85.63,64.01 130.71,114.13 26.25,29.06 51.57,34.1 86.55,51.6 31.28,15.64 50.16,27.62 85.14,27.62 42.84,0 66.71,-1.84 109.55,-1.84 14.73,0 28.08,11.03 28.08,25.76 0,39.17 -27.16,75.48 -66.29,75.48 -8.74,0 -13.35,-0.46 -22.09,-0.46 -3.67,0 -5.99,2.79 -9.2,4.17 -15.19,1.82 -23.46,5.49 -38.68,5.49 -7.82,0 -10.56,-7.33 -18.42,-7.33 -31.73,0 -46,25.78 -77.78,25.78l-39.59 0c-10.11,0 -14.26,-8.31 -24.37,-9.23 -29.48,-3.23 -48.33,1.38 -75.53,-9.22 -23.45,-9.2 -34.48,-21.6 -58.89,-27.58 -22.08,-5.53 -36.81,-3.25 -58.9,-9.2 -15.22,-4.15 -23.49,-11.09 -39.17,-11.09l-130.25 0c-4.13,-1.84 -6.41,-5.5 -11.04,-5.5 -102.64,0 -156.95,46.04 -259.6,46.04 -29.9,0 -46.5,-5.07 -75.48,-12.89 -19.34,-5.07 -28.57,-16.56 -48.33,-16.56l-34.07 0c-24.37,0 -35.47,-20.29 -59.85,-20.29 -17.96,0 -27.61,0.46 -45.57,0.46 0.91,17.05 0,27.19 0,44.21 0,21.62 -7.37,33.11 -7.37,54.8 0,16.11 8.28,24.35 9.24,40.48 -8.32,2.75 -13.36,5.54 -22.09,5.54 -30.86,0 -57.06,-24.42 -57.06,-55.24 0,-17.96 12.85,-26.24 12.85,-44.2 0,-26.7 -31.78,-30.37 -57.07,-38.69 -18.42,-5.99 -25.32,-22.08 -44.66,-22.08l-34.06 0c-26.25,0 -34.98,29.44 -61.23,29.44 -16.58,0 -26.7,-6.41 -40.47,-14.72 -15.21,-9.15 -35.01,-13.35 -35.01,-31.28 0,-12.92 -1.37,-22.54 5.53,-33.14 8.74,-12.9 23.49,-9.69 38.64,-12.9 18.46,-3.65 29.03,-9.23 47.91,-9.23 25.75,0 40.51,3.71 66.29,3.71 26.67,0 39.1,-15.65 64.43,-23.96 17.01,-5.5 28.07,0.95 46,-1.83l0 -15.15c0,-17.08 -13.78,-23.95 -18.39,-40.08 23.01,3.24 36.36,6.44 57.06,16.59 18.89,9.15 28.57,22.08 49.71,22.08 29.48,0 34.1,-40.51 63.54,-40.51 17.02,0 25.34,8.28 41.43,12.89 26.24,7.33 42.34,10.58 66.26,23.93 22.58,12.47 28.07,34.98 53.4,40.54l0 -15.22c0,-39.1 -37.73,-52.48 -71.79,-71.33 -30.36,-16.59 -49.25,-25.32 -79.18,-42.37 -36.36,-21.14 -62.6,-46.01 -62.6,-88.35 0,-29.94 24.41,-44.66 51.54,-57.1 34.05,-15.18 53.88,-26.24 86.57,-44.16 19.31,-10.61 47.84,-10.61 47.84,-33.19 0,-23.92 -25.78,-36.81 -49.7,-36.81 -42.8,0 -64.01,27.58 -106.77,27.58 -19.79,0 -29.94,-9.62 -49.74,-12.86 -14.71,-2.29 -26.66,-0.91 -36.84,-11.02 -17.02,-17.05 -12.89,-37.31 -12.89,-61.68 0,-24.87 1.87,-46.04 22.11,-59.85 15.68,-10.6 42.35,-6.44 42.35,-25.78 0,-12.4 -5.04,-20.25 -12.89,-29.49 -5.04,-5.98 -14.73,-6.41 -14.73,-14.72 0,-5.99 5.07,-11.02 11.07,-11.02 24.37,0 37.26,12.89 61.67,12.89 20.25,0 30.37,-14.27 43.26,-29.48 9.22,-10.57 17.96,-16.1 22.08,-29.45 5.54,-17.96 -2.28,-37.73 14.76,-46.04 7.82,-3.67 13.35,-3.67 22.09,-3.67zm-215.41 360.89c-26.24,6.44 -55.23,15.18 -55.23,42.34 0,17.05 9.19,25.33 9.19,42.34 0,25.33 -38.67,27.16 -38.67,52.49 0,34.02 8.28,76.4 42.34,76.4 15.21,0 17.5,-17.93 31.31,-23.92 15.65,-6.48 34.98,-10.6 34.98,-27.61 0,-23.96 -23.92,-33.15 -23.92,-57.11 0,-15.63 6.45,-23.45 6.45,-39.13l0 -54.32c0,-3.68 -6.45,-30.03 -6.45,-11.48zm-425.33 252.25c0,13.35 6.91,27.58 20.26,27.58 15.64,0 29.45,-12.36 29.45,-28.07l0 -24.38c-17.94,-0.94 -49.71,-4.56 -49.71,24.87zm51.56 -94.4c-0.46,4.62 -1.84,7.36 -1.84,11.99 0,16.12 19.8,16.58 29.44,29.02 5.54,7.36 3.71,15.18 7.37,23.95 6.44,13.78 23,12.86 38.67,12.86 30.87,0 49.71,6.48 77.33,20.26 8.28,4.11 12.43,11.05 22.12,11.05 34.94,0 55.19,0 90.21,-1.37 2.29,-7.86 3.66,-13.35 3.66,-21.67 0,-19.76 -5.04,-39.59 -23.95,-45.08 -17.89,-5.07 -30.36,-3.7 -47.84,-9.23 -18.42,-5.98 -25.32,-20.71 -44.2,-25.78 -56.16,-16.1 -92.04,-13.35 -150.97,-6zm-272.48 -126.59l-73.66 -16.55c-8.74,1.84 -18.43,5.53 -18.43,14.73 0,13.81 12.45,17.96 20.26,29.48 17.51,25.33 22.58,43.72 42.34,66.25 9.66,11.07 17.96,15.22 27.62,25.79 12.43,13.81 11.52,38.68 30.39,38.68 30.41,0 46.96,-11.03 77.33,-11.03 17.5,0 28.07,4.13 43.25,12.89 15.22,8.74 19.83,25.76 37.76,25.76 28.99,0 20.25,-43.72 43.26,-60.76 23.03,-17.06 58.93,-17.06 58.93,-46.04 0,-15.22 -11.98,-23.47 -25.75,-29.45 -25.82,-11.52 -44.66,-11.52 -70,-23.95 -40.95,-20.26 -50.19,-68.09 -95.7,-68.09 -41.46,0 -56.18,39.55 -97.6,42.29zm-201.17 -202.5l-74.54 0c-38.21,0 -39.59,-60.8 -77.81,-60.8 -13.8,0 -22.08,13.84 -22.08,27.69 0,24.33 23.46,30.32 34.98,51.49 26.24,46.96 58.93,79.22 112.75,79.22l76.4 0c33.6,0 49.28,20.68 75.95,40.48 25.82,19.34 46.95,23.96 79.18,23.96 21.67,0 46.04,-9.69 46.04,-31.33 0,-25.78 -26.7,-35.42 -51.57,-42.33 -28.07,-7.86 -42.8,-17.48 -68.09,-31.32 -25.78,-14.26 -47.45,-8.27 -73.65,-22.08 -23.04,-12.43 -31.32,-34.98 -57.56,-34.98zm-42.8 -156.52c-2.77,-0.45 -5.07,-3.66 -8.28,-3.66 -13.35,0 -20.28,14.27 -20.28,27.62 0,12.4 16.13,13.77 28.56,14.72 3.21,-14.72 3.67,-23.95 0,-38.68zm85.62 -16.54c-16.58,21.17 -40.51,28.53 -40.51,55.2 0,17.04 10.58,35.01 27.62,35.01 14.73,0 21.14,-12.44 29.45,-23.95 11.02,-14.73 18.42,-25.79 18.42,-44.67l0 -28.99c-11.51,0.92 -23.95,4.61 -34.98,7.4zm-11.07 -58.96c-1.84,-12.86 -9.2,-25.75 -22.09,-25.75 -16.09,0 -24.37,7.36 -40.48,7.36 -0.48,2.78 -3.69,4.16 -3.69,7.36 0,9.65 8.28,13.8 14.73,20.25 9.22,9.2 16.09,18.43 29.44,18.43 13.84,0 20.25,-13.81 22.09,-27.65zm-107.23 -123.36l-27.15 0 0 15.22c0,14.27 17.93,13.35 29.45,21.63 16.09,11.51 22.54,27.62 42.37,27.62 9.65,0 14.72,-10.61 14.72,-20.26 0,-14.72 -14.72,-19.34 -27.65,-25.78 -12.4,-5.95 -17.47,-18.43 -31.74,-18.43zm-20.7 -176.29c0,-10.58 -4.62,-17.02 -11.98,-24.38l-23.95 0 0 24.38c0,13.35 10.6,18.38 14.72,30.85l21.21 0 0 -30.85zm58 130.26c-9.23,-17.47 -23.5,-22.08 -36.85,-36.8 -7.82,-8.74 -13.35,-18.42 -25.75,-18.42 -14.72,0 -14.72,20.25 -14.72,35 0,31.25 29.45,53.37 60.72,53.37 12.44,0 16.6,-20.68 16.6,-33.15zm-132.58 156.04c0,-2.75 -1.37,-4.13 -1.86,-6.87 -19.34,4.61 -28.08,18.39 -47.84,18.39 -0.5,5.98 -1.87,9.19 -1.87,15.18 0,15.19 12.47,27.16 27.62,27.16 23.04,0 23.95,-30.83 23.95,-53.86zm-1.85 -86.06c-3.67,-9.66 -5.96,-22.09 -16.56,-22.09 -9.19,0 -11.06,11.05 -11.06,20.22 0,18.88 4.15,32.23 16.58,46.07 13.81,-10.6 13.81,-26.74 11.04,-44.2zm-62.58 -27.63c-2.28,-17.92 -2.28,-42.34 -20.26,-42.34 -10.59,0 -13.84,10.61 -20.25,18.43 -7.82,9.19 -16.59,15.17 -16.59,27.57 0,12.48 8.28,17.55 11.06,29.49 5.53,23.45 8.74,40.05 25.78,57.09 12.9,-33.64 6.41,-57.09 20.26,-90.24zm-110.49 -92.05c0,5.99 5.07,11.02 11.02,11.02 7.37,0 8.81,-9.19 12.93,-14.69 5.99,-7.85 12.89,-12.47 12.89,-22.57l0 -36.36c-4.15,-3.69 -7.85,-6.44 -12.89,-9.19 -11.06,27.58 -23.95,42.3 -23.95,71.79zm103.13 -125.21c-25.79,8.27 -66.3,-6.91 -66.3,20.25 0,28.07 55.24,17.96 55.24,46.04 0,20.71 -13.35,30.82 -14.73,51.57l9.2 1.8c24.83,-24.84 55.26,-35.41 55.26,-69.96 0,-22.09 -25.82,-31.74 -38.67,-49.7zm40.5 -165.72c-11.06,-11.06 -25.78,-4.58 -38.67,-12.9 -10.11,-6.41 -11.52,-22.08 -23.95,-22.08 -11.03,0 -22.09,7.37 -22.09,18.42 0,23.47 20.25,33.15 20.25,56.61l0 70.91c0,16.09 17.96,17.47 29.45,28.98 7.85,7.82 14.72,11.07 25.79,14.73 12.05,-24.11 34.7,-129.12 9.22,-154.67zm-35 -121.52c-23.95,0 -35.92,22.58 -40.5,46.04 33.59,13.81 49.73,31.28 75.48,57.06 12.43,12.43 20.25,19.34 33.15,31.29 9.65,8.76 14.26,20.29 27.61,20.29 5.53,0 9.2,-2.33 14.77,-3.71 0.42,-7.82 1.79,-11.97 1.79,-19.76 0,-33.6 -23.92,-47.45 -46.01,-72.28 -11.06,-12.47 -21.62,-17.47 -31.31,-31.31 -9.65,-13.81 -17.96,-27.62 -34.98,-27.62zm-193.31 95.73c0,18.89 5.99,29.03 7.35,47.88l9.23 0c20.22,-22.54 49.71,-30.36 49.71,-61.23 0,-8.23 -1.38,-12.43 -1.87,-20.7 -20.7,0 -64.42,4.34 -64.42,34.05zm64.42 -184.1c-13.81,-4.61 -22.09,-11.02 -36.81,-11.02 -12.4,0 -16.59,15.14 -16.59,27.61 0,7.37 5.56,10.57 5.56,17.93l0 52.48c0,12.9 16.11,13.78 27.62,19.76 10.11,5.11 14.23,14.73 25.75,14.73 23.45,0 32.69,-21.14 42.34,-42.31 6.45,-14.3 14.72,-21.66 14.72,-37.3l0 -29.03c-26.67,-3.2 -35.85,-16.97 -62.59,-12.85zm-97.55 -191.5l-46.08 -9.2c-4.58,3.67 -8.73,8.28 -9.16,14.73l14.73 29.45c-7.36,10.11 -12.93,17.47 -12.93,30.4 0,18.87 29.02,10.15 46.04,17.5 10.6,4.58 14.26,13.77 25.78,16.56 0,-25.78 -10.57,-39.13 -14.72,-64.46 -2.3,-13.35 4.61,-24.38 -3.66,-34.98zm23.9 -134.4c3.7,1.84 6.48,5.49 11.06,5.49 15.18,0 21.17,-13.35 29.45,-25.74 6.45,-9.68 13.81,-14.73 13.81,-26.25 0,-8.28 0.49,-13.35 0,-21.66l-21.17 0c-24.87,16.59 -23.92,40.09 -33.15,68.16zm132.58 -163.87c-17.47,0 -27.62,3.65 -45.09,3.65 -11.97,0 -18.42,-5.52 -30.4,-5.52 -11.06,0 -18.42,11.09 -18.42,22.12 0,28.52 27.16,35.89 46.03,57.06 15.68,17.48 18.42,33.6 18.42,57.11 0,18.87 -12.43,27.14 -25.78,40.49 -15.17,15.15 -22.54,33.12 -44.17,33.12 -30.85,0 -46.53,-18.39 -77.35,-18.39 -7.82,0 -11.03,8.77 -11.03,16.56 0,11.06 12.86,12.93 22.09,18.42 12.4,7.36 19.34,13.85 29.44,23.95 19.8,19.8 18.43,41.89 18.43,69.96 0,24.37 11.48,37.3 22.08,58.93 8.74,17.93 12.44,37.72 32.69,40.48 2.75,-22.55 0,-35.44 0,-57.98 0,-18.85 7.36,-41.43 26.25,-41.43 14.22,0 18.85,17.01 20.21,31.31 1.87,18.85 7.86,29 14.76,46.01 8.32,20.71 10.58,47.9 33.15,47.9 17.94,0 26.24,-11.09 44.21,-12.92l0 -165.24c0,-54.78 -16.59,-85.14 -35.01,-136.71 -8.78,-25.33 -18.88,-39.1 -22.13,-66.3 -3.16,-26.24 7.86,-60.73 -18.38,-62.58zm-227.83 73.2l0 81.48 6.87 5.53c22.12,-19.84 57.07,-22.13 57.07,-52.07l0 -56.57 -23.47 0c-17.92,0 -40.47,3.66 -40.47,21.63zm3.2 -183.7c-14.23,0 -20.22,17.05 -20.22,31.32 0,19.8 5.49,30.85 5.49,50.62 0,12.89 -5.49,19.33 -5.49,32.22 0,5.53 4.12,8.74 7.36,12.9 20.22,-11.52 47.83,-13.81 47.83,-37.27l0 -43.29c0,-22.54 -12.4,-46.5 -34.97,-46.5zm11.04 -139.94c-7.82,-5.07 -12.86,-8.23 -22.09,-11.02l-12.89 0c0.92,14.73 0,22.55 0,37.27 0,33.6 2.29,53.86 11.07,86.1 7.36,27.6 42.79,15.63 66.25,31.31 27.62,18.42 23.49,49.24 49.74,69.95 5.07,-9.19 7.36,-16.13 7.36,-26.67 0,-49.73 -22.13,-77.38 -51.57,-116.97 -17.92,-23.92 -29.91,-46.01 -47.87,-69.97zm104.05 -68.11c-23.49,0 -54.34,2.32 -54.34,25.82 0,43.21 8.76,68.09 23.95,108.62 6.45,17.94 14.73,32.21 33.15,36.82 23.94,6.41 53.4,10.1 53.4,34.98 0,12.4 -14.73,15.17 -14.73,27.62 0,17.96 13.35,26.2 27.62,36.8 9.2,6.91 12.86,16.59 24.37,16.59 17.97,0 27.62,-1.37 45.56,-1.86 0,-6.87 1.85,-11.03 1.85,-17.97 0,-14.72 -18.38,-16.1 -31.31,-22.51 -11.02,-5.56 -14.72,-15.67 -14.72,-28.11l0 -48.79c0,-36.34 -22.54,-53.85 -46.01,-81.46 -8.73,-10.58 -18.42,-17.52 -18.42,-31.79 0,-11.24 -13.22,-54.76 -30.37,-54.76zm-65.39 -77.33c-23.45,0 -35.89,11.03 -55.19,23.96 -9.23,5.99 -16.59,12.4 -16.59,23.92 0,16.1 19.76,22.08 35.89,22.08 17.51,0 27.62,-5.07 43.29,-12.89 18.38,-9.19 40.47,-14.26 40.47,-34.98 0,-20.22 -27.61,-22.09 -47.87,-22.09zm116 -721.76c-22.09,-7.36 -31.73,-17.96 -51.53,-29.48 -6,13.84 -2.79,23.96 -5.54,38.71 -2.74,13.35 -9.22,21.13 -9.22,34.94 0,12.89 18.45,10.15 31.31,11.07 11.52,0.91 17.96,7.35 29.49,7.35 7.36,0 11.02,-7.81 11.02,-15.17l0 -45.58 -5.53 -1.84zm165.7 53.39c-5.49,-0.49 -9.2,-1.87 -14.73,-1.87 -16.09,0 -24.37,7.36 -40.47,7.36 0,35.02 5.49,55.28 5.49,90.25 0,12.4 5.99,25.79 18.43,25.79 18.42,0 31.28,-17.02 31.28,-35.48l0 -86.05zm12.9 -75.47c0,-17.96 -3.21,-28.57 -7.36,-46.07 -2.75,-11.91 -2.75,-27.62 -15.19,-27.62l-20.75 0 0 24.45c0,28.95 11.56,44.13 15.68,73.16 1.87,12.4 2.79,20.26 11.06,29.48 17.94,-11.97 16.56,-31.81 16.56,-53.4zm-77.33 12.86l-0.45 -68.13 -23.01 0c-7.36,0 -8.77,8.74 -15.22,11.07 -8.73,3.2 -18.39,6.91 -18.39,16.55 0,7.82 7.37,11.07 9.24,18.43 5.49,20.22 4.54,35.93 18.38,51.53 16.56,-9.62 12.89,-19.79 29.45,-29.45zm-1.82 -130.71l0 -45.58c0,-8.74 -4.16,-18.88 -12.89,-18.88 -23.96,0 -36.86,6.48 -60.77,9.22 0.46,3.67 0,5.99 0,9.66 0,12.43 13.81,14.27 22.09,23.49 14.26,15.61 31.31,29.45 51.57,22.09zm-128.9 -62.61c4.16,1.37 6.45,3.67 11.03,3.67 21.66,0 30.86,-16.14 49.74,-25.75 17.5,-9.24 33.14,-20.26 33.14,-40.51 0,-28.08 -48.82,-13.85 -71.82,1.82 -20.71,13.81 -17.93,35.44 -22.09,60.77zm0 -134.43c0,-16.56 -1.82,-26.7 -3.66,-43.29 -17.51,1.87 -26.7,-0.89 -44.21,-0.89 -11.06,0 -22.08,7.37 -22.08,18.42 0,24.88 25.75,30.37 36.84,51.55 8.25,16.58 11.94,30.39 28.5,40.54 5.53,-30.4 4.61,-35.93 4.61,-66.33zm77.34 -309.32c-6.45,-11.97 -11.99,-25.75 -25.75,-25.75 -23.96,0 -29.49,22.09 -51.58,33.11l0 29.46c10.12,0.94 14.73,3.69 24.88,3.69 18.38,0 42.33,-25.78 52.45,-40.51zm169.37 283.55c0,28.57 11.03,45.1 11.03,73.66l24.91 0c65.34,0 122.4,-48.78 122.4,-114.12 0,-14.73 -17.47,-18.47 -29.44,-25.83 -34.07,-21.16 -67.21,-36.81 -103.15,-18.39 -30.36,15.65 -25.75,50.63 -25.75,84.68zm-254.99 -1031.11l-28.57 0c0,54.35 21.2,92.08 -3.64,139.94 -11.97,23.92 -44.2,29.49 -44.2,57.11 0,45.08 34.98,66.29 34.98,111.37l0 123.37c0,42.37 -27.62,62.59 -27.62,104.96l0 30.36c23,3.71 38.68,-2.77 58.93,7.37 10.12,4.57 10.12,22.12 22.09,22.12 12.89,0 16.59,-18.42 29.44,-18.42 42.38,0 60.77,28.56 103.15,33.11 0.88,-12.89 3.66,-21.13 3.66,-34.03 0,-44.21 -38.68,-58.02 -55.23,-98.53l18.39 -3.69c8.28,6.48 15.63,11.09 25.81,14.72 6.42,-11.97 14.73,-19.33 14.73,-33.11 0,-12.89 -7.36,-20.25 -7.36,-33.14 0,-19.31 29.4,-21.18 29.4,-40.51 0,-23.01 -28.52,-25.79 -40.47,-44.17 -18.42,-27.65 -36.84,-46.99 -36.84,-81.06 0,-52.44 77.31,-57.98 77.31,-110.47 0,-10.1 -11.93,-12.89 -14.71,-22.08 -12.9,-33.14 -8.28,-58.02 -25.76,-88.38 -11.02,-18.42 -34.09,-4.61 -55.22,-7.36 -32.23,-4.61 -46.04,-29.48 -78.27,-29.48zm-3073.85 -14133.42c0,23 17.5,44.17 40.51,44.17 66.29,0 125.19,-47.87 125.19,-114.13 0,-26.73 -13.78,-55.27 -40.48,-55.27 -18.42,0 -25.82,12.9 -40.54,22.13 -20.22,12.85 -40.48,7.36 -58.9,22.08 -24.86,20.25 -25.78,47.87 -25.78,81.02zm504.5 -4220.15c-5.53,0 -9.24,3.66 -14.73,3.66 -0.92,9.23 -3.69,13.85 -3.69,23.04 0,34.07 6.44,52.49 22.08,83.76 34.06,-11.05 77.36,-15.63 77.36,-51.53 0,-38.67 -42.35,-58.93 -81.02,-58.93zm-1027.37 357.2c-19.34,0 -29.48,21.17 -29.48,40.51 0,40.51 17.5,62.6 22.12,103.11 8.24,0.94 13.8,3.69 22.08,3.69 12.86,0 16.56,-12.92 25.75,-22.09l0 -87.5c0,-21.12 -19.3,-37.72 -40.47,-37.72z"/>
  <path class="fil1 str0" d="M6458.73 19071.21c0,-27.16 -25.78,-37.26 -25.78,-64.42 0,-52.03 57.51,-63.1 69.95,-114.17 13.35,-54.81 44.67,-76.89 51.57,-132.58 3.24,-28.54 13.78,-42.84 22.08,-69.96 21.63,-70.42 44.22,-110.5 44.22,-184.58l0 -50.65c0,-53.37 34.02,-78.69 71.78,-116.42 20.26,-20.33 38.64,-34.09 38.64,-62.63 0,-17.51 -5.49,-27.65 -11.02,-44.21 -10.11,-31.28 -6.45,-52.94 -12.86,-84.68 -4.16,-21.63 -23.96,-29.48 -23.96,-51.57 0,-38.63 22.55,-57.09 38.68,-92.04 23.92,-51.1 26.67,-85.17 33.11,-141.81 1.87,-17.47 7.36,-26.67 7.36,-44.14 0,-31.31 -6.9,-50.66 -22.08,-77.36 -7.36,-13.35 -18.39,-20.7 -18.39,-36.38l0 -46.92c0,-84.29 -27.18,-128.93 -36.84,-213.15 -3.69,-32.22 -18.42,-48.33 -18.42,-80.56l0 -43.25c0,-15.22 -6.41,-23.46 -9.2,-38.19 -7.82,-39.17 -10.14,-61.25 -10.14,-100.84l0 -90.67c22.08,-19.34 42.79,-19.34 70.91,-29.48 7.82,-2.75 15.18,1.37 22.08,-3.63 10.6,-7.4 9.23,-19.84 11.06,-33.19 2.3,-16.09 7.37,-24.4 7.37,-40.51 0,-15.59 -5.53,-24.37 -5.53,-40.05 0,-6.41 1.37,-10.59 1.82,-17.01 8.28,-34.06 16.6,-53.4 16.6,-88.38 0,-96.65 -35.94,-151 -81.02,-235.68 -14.73,-28.54 -36.84,-44.18 -36.84,-77.36 0,-33.11 42.33,-36.81 55.22,-66.26 24.91,-53.4 47.91,-83.79 47.91,-142.69 0,-32.24 -3.69,-50.66 -3.69,-82.89 0,-50.61 11.05,-83.76 40.51,-124.23 14.71,-20.26 44.2,-23.08 44.2,-47.91 0,-32.23 -18.46,-47.87 -18.46,-80.07l0 -79.18c0,-15.64 21.21,-17.5 25.82,-32.23 7.37,-22.09 12.86,-35.9 18.39,-58.93 13.81,-53.4 11.97,-84.69 18.42,-139.95 3.67,-34.98 22.09,-51.54 22.09,-86.55 0,-63.48 -36.81,-94.79 -36.81,-158.29 0,-59.85 -3.7,-97.62 18.39,-152.84 19.33,-48.79 69.95,-61.69 69.95,-114.17 0,-73.66 -18.39,-115.05 -44.17,-184.09 -12.89,-35.04 -40.51,-50.65 -40.51,-88.41 0,-91.13 19.34,-141.78 47.87,-228.33 12.93,-40.51 36.81,-62.6 36.81,-105.88l0 -30.36c-26.67,0 -66.26,8.3 -66.26,-18.4 0,-63.54 34.98,-94.85 69.96,-147.31 13.81,-21.16 36.84,-29.44 36.84,-55.23 0,-34.98 -9.22,-56.18 -22.12,-88.38 -8.27,-51.56 1.87,-76.43 1.87,-127.97 0,-86.55 20.25,-134.42 20.25,-220.96l0 -75.49c0,-11.97 -7.36,-19.34 -7.36,-31.31l0 -90.22c0,-110.46 -55.26,-168.45 -55.26,-278.94 0,-63.51 44.2,-93 44.2,-156.5 0,-84.72 -37.75,-127.06 -47.87,-211.75 -15.64,-136.24 -24.87,-212.65 -55.24,-346.14 -28.52,-125.23 -142.69,-141.78 -235.68,-228.33 -29.45,-26.7 -48.79,-45.12 -77.31,-73.66 -57.07,-57.06 -84.69,-115.08 -165.71,-125.18 -112.33,-13.81 -150.97,-93 -235.68,-165.7 -37.73,-32.23 -77.32,-17.51 -125.19,-29.49 -61.68,-14.72 -98.49,-27.62 -151.02,-62.59 -104.01,-69.08 -170.27,-97.61 -279.81,-158.38 -73.66,-40.51 -127.03,-39.55 -202.55,-77.31 -32.23,-15.64 -34.06,-58.93 -69.95,-58.93 -5.51,0 -5.51,-7.36 -11.07,-7.36 -74.57,-36.81 -98.49,-80.07 -154.64,-136.26 -62.62,-62.59 -102.18,-93.9 -162.03,-158.33 -69.04,-74.57 -116,-108.63 -187.78,-180.46 -49.7,-49.7 -114.17,-69.95 -114.17,-139.91 0,-43.29 84.68,-30.4 84.68,-73.65 0,-103.11 -88.37,-139.04 -121.48,-235.69 -17.52,-51.53 -38.68,-77.32 -66.3,-125.23 -25.74,-44.17 -23.95,-80.06 -58.93,-117.82 -35.89,-39.6 -84.68,-37.73 -110.47,-84.69 -31.27,-57.09 -27.61,-98.52 -62.59,-154.66 -56.18,-91.14 -123.36,-121.53 -158.34,-220.97 -29.44,-83.77 -48.78,-135.34 -106.77,-202.55 -23.06,-26.7 -47.89,-37.72 -62.62,-69.95 -38.64,-82.85 -27.62,-145.44 -73.62,-224.62 -44.2,-75.49 -89.33,-107.72 -125.22,-187.83 -51.57,-113.21 -46.96,-189.62 -103.11,-301.95 -21.17,-52.48 -42.33,-72.74 -77.32,-117.82 -57.09,-73.66 -70.9,-126.14 -121.52,-202.55 -50.65,-76.43 -91.13,-112.33 -147.32,-184.15 -69.95,-89.29 -137.16,-122.41 -246.71,-154.64 -69.95,-20.29 -105.85,-42.37 -169.36,-77.35 -38.67,-21.17 -81.02,-36.81 -81.02,-80.98 0,-46.96 77.33,-45.12 77.33,-92.08 0,-39.59 -9.23,-69.08 -40.51,-92.08 -28.54,-21.17 -73.62,-19.33 -73.62,-55.23 0,-47.87 18.38,-73.66 18.38,-121.53 0,-72.74 -47.87,-107.71 -47.87,-180.45 0,-109.52 54.32,-170.32 128.89,-250.42 51.53,-56.14 83.76,-88.33 132.55,-147.27 32.23,-38.68 78.24,-28.53 121.53,-55.23 28.53,-17.51 42.34,-35.93 62.59,-62.6 54.32,-69.98 114.17,-109.58 114.17,-198.88 0,-49.7 -11.06,-80.06 -29.46,-125.22 -14.71,7.4 -20.29,22.13 -36.84,22.13 -14.72,0 -22.09,-7.37 -36.81,-7.37 -38.68,0 -58.02,20.26 -88.37,44.17 -19.34,14.73 -15.65,47.91 -40.51,47.91 -46.96,0 -63.52,-40.55 -106.81,-58.93 -34.02,-14.73 -77.31,-16.6 -77.31,-53.4 0,-23.01 17.47,-33.15 25.75,-53.4 23.95,-55.24 44.2,-90.22 44.2,-150.98 0,-50.65 -11.02,-78.27 -7.36,-128.89 1.83,-28.53 9.2,-46.95 0,-73.65 -8.28,-23.01 -32.23,-22.13 -47.87,-40.51 -11.03,-12.89 -4.62,-26.7 -7.37,-44.2 12.89,-22.09 24.84,-46.01 47.87,-55.24 22.09,-9.2 45.13,2.79 62.6,-14.73 23.92,-23.91 24.87,-60.76 58.93,-66.29 -9.23,-38.67 -47.9,-48.79 -47.9,-88.38 0,-46.96 35.01,-65.34 55.27,-106.77 29.44,-58.93 34.98,-99.44 55.23,-162.03 10.11,-31.31 29.44,-47.87 29.44,-81.01 0,-37.76 -47.87,-46.96 -47.87,-84.72 0,-44.18 49.74,-55.23 92.08,-66.29 51.57,-13.77 77.32,-31.29 125.16,-55.24l0 0 71.73 18.76c101.55,16.12 203.09,23.17 299.37,-8.91 43.51,-14.5 233.98,-64.55 247.35,-104.76 12.12,0 147,-75.82 148.41,-81.48 4.85,-1.2 10.47,-5.2 11.64,-8.73 52.17,12.99 97,58.2 157.14,58.2l2.91 2.91c0,59.89 -40.98,161.53 -61.11,218.25l-381.21 1073.79c-5.59,-20.51 -41.01,91.5 -49.47,113.49 -29.88,77.71 -7.11,157.14 8.73,232.8 15.92,76.01 110.4,173.15 119.31,235.71 65.03,32.51 149.33,138.29 218.25,186.24 140.79,97.97 269.35,249.32 366.66,389.94 141.74,204.85 156.87,432.81 261.9,643.11 2.91,23.33 9.25,33.19 11.64,52.38 29.81,37.24 56.23,158.69 75.66,209.52 48.98,128.18 151.07,243.6 221.16,363.75 35.65,61.13 79.07,133.3 107.67,197.88 20.51,46.3 98.82,132.9 104.76,174.6 22.04,75.93 168.09,208.44 244.44,221.16 66.18,58.85 175.22,70.04 250.26,116.4 284.04,175.47 597.07,285.92 873,477.24 131.37,91.09 246.63,222.35 389.94,296.82 143.38,74.52 356.85,124.05 471.42,238.62 27.35,25.4 21.81,24 32.01,29.1 75.87,132.71 421.95,349.19 552.9,453.96 142.25,113.82 297.32,235.65 456.87,320.1 461.27,244.15 807.2,675.75 669.3,1228.02 -18.38,28.02 -15.58,25.33 -26.19,46.56l-2.91 20.37c-110.91,249.45 27.73,577.07 -8.73,840.99 -18.87,136.56 -104.1,272.76 -168.78,392.85 -79.31,147.28 -139.29,314.4 -226.98,456.87 -98.38,233.67 -62,405.14 -104.76,646.02l-55.29 311.37c-19.49,109.8 -102.12,244.33 -110.58,346.29 -112.67,168.95 -118.16,426.85 -177.51,616.92 -88.83,177.67 -262.73,339.66 -378.3,506.34 -102.33,147.57 -317.32,397.06 -328.83,582 -47.05,80.7 -53.76,203.88 -78.57,293.91 -21.32,77.4 -74.44,166.75 -81.48,244.44 -54.03,81.02 -125.22,259.27 -160.05,355.02 -59.01,103.28 -145.9,191.51 -221.16,279.36 -55.22,64.44 -131.19,196.49 -218.25,218.25 -31.54,44.17 -135.35,35.79 -180.42,23.28 -29.63,-8.23 -290.19,-62.36 -304.83,-53.58l0 0z"/>
  <path class="fil2 str1" d="M15827.27 24482.18l3555.01 0 0 1592.9 -3555.01 0 0 -1592.9z"/>
  <path class="fil3" d="M19561.01 25982.18c0,-17.45 4.47,-34.48 13.46,-51.13 8.93,-16.61 21.77,-29.59 38.43,-38.86 16.69,-9.26 34.1,-13.92 52.16,-13.92 17.92,0 35.18,4.56 51.69,13.74 16.56,9.12 29.4,21.92 38.53,38.43 9.17,16.51 13.73,33.77 13.73,51.74 0,18.01 -4.56,35.27 -13.73,51.78 -9.13,16.51 -21.97,29.35 -38.53,38.53 -16.51,9.17 -33.77,13.78 -51.69,13.78 -18.06,0 -35.47,-4.66 -52.16,-13.97 -16.66,-9.36 -29.5,-22.34 -38.43,-38.95 -8.99,-16.65 -13.46,-33.68 -13.46,-51.17zm17.22 0c0,14.62 3.76,28.88 11.24,42.7 7.48,13.83 18.2,24.65 32.13,32.46 13.92,7.81 28.41,11.71 43.46,11.71 15,0 29.35,-3.85 43.08,-11.52 13.74,-7.67 24.46,-18.39 32.13,-32.17 7.67,-13.79 11.52,-28.18 11.52,-43.18 0,-14.96 -3.85,-29.36 -11.52,-43.14 -7.67,-13.78 -18.39,-24.5 -32.13,-32.12 -13.73,-7.62 -28.08,-11.43 -43.08,-11.43 -15.05,0 -29.54,3.9 -43.46,11.66 -13.93,7.76 -24.65,18.58 -32.13,32.46 -7.48,13.87 -11.24,28.08 -11.24,42.57zm103.57 -33.35l5.08 -16.94c11.53,2.78 20.7,8.61 27.52,17.55 6.87,8.98 10.3,19.85 10.3,32.59 0,16.19 -5.22,29.31 -15.71,39.42 -10.49,10.11 -24.98,15.15 -43.55,15.15 -12.14,0 -22.68,-2.31 -31.61,-6.92 -8.99,-4.56 -15.71,-11.15 -20.28,-19.61 -4.56,-8.52 -6.82,-18.25 -6.82,-29.16 0,-12.23 2.92,-22.39 8.8,-30.48 5.88,-8.09 13.88,-13.6 23.94,-16.56l4.23 16.37c-6.91,2.77 -12.23,6.82 -15.89,12.23 -3.72,5.41 -5.55,11.71 -5.55,19 0,10.58 3.76,19.33 11.28,26.2 7.53,6.87 18.35,10.3 32.37,10.3 14.06,0 24.69,-3.24 31.89,-9.74 7.19,-6.49 10.81,-14.86 10.81,-25.16 0,-8.28 -2.39,-15.57 -7.24,-21.83 -4.8,-6.25 -11.33,-10.39 -19.57,-12.41z"/>
  <path id="1" class="fil3" d="M19766.47 25687.02l-18.58 0c14.44,9.27 21.68,22.91 21.68,40.92 0,11.67 -3.19,22.39 -9.64,32.13 -6.4,9.78 -15.38,17.35 -26.86,22.76 -11.52,5.37 -24.74,8.05 -39.69,8.05 -14.59,0 -27.8,-2.45 -39.7,-7.29 -11.86,-4.9 -20.98,-12.19 -27.29,-21.92 -6.35,-9.69 -9.5,-20.61 -9.5,-32.6 0,-8.84 1.88,-16.7 5.6,-23.56 3.72,-6.87 8.61,-12.47 14.58,-16.8l-72.67 0 0 -24.83 202.07 0 0 23.14zm-73.05 78.46c18.72,0 32.69,-3.95 41.96,-11.9 9.26,-7.91 13.87,-17.27 13.87,-28.04 0,-10.86 -4.42,-20.08 -13.26,-27.7 -8.84,-7.57 -22.34,-11.38 -40.5,-11.38 -19.94,0 -34.62,3.85 -43.98,11.61 -9.36,7.72 -14.01,17.27 -14.01,28.6 0,11.06 4.46,20.27 13.45,27.71 8.98,7.38 23.14,11.1 42.47,11.1z"/>
  <path id="2" class="fil3" d="M19705.79 25634.48l-24.83 0 0 -76.76 24.83 0 0 76.76z"/>
  <path id="3" class="fil3" d="M19766.47 25530.62l-146.47 0 0 -22.29 20.69 0c-7.15,-4.56 -12.93,-10.68 -17.26,-18.3 -4.37,-7.62 -6.54,-16.27 -6.54,-26.01 0,-10.82 2.26,-19.71 6.73,-26.62 4.52,-6.92 10.77,-11.81 18.86,-14.63 -17.07,-11.67 -25.59,-26.77 -25.59,-45.39 0,-14.58 4,-25.83 12.04,-33.63 8.05,-7.86 20.42,-11.81 37.12,-11.81l100.42 0 0 24.84 -92.19 0c-9.88,0 -17.03,0.84 -21.4,2.44 -4.38,1.6 -7.86,4.52 -10.54,8.8 -2.68,4.23 -4,9.22 -4,14.91 0,10.35 3.44,18.91 10.26,25.73 6.86,6.82 17.82,10.2 32.87,10.2l85 0 0 24.84 -95.06 0c-11.01,0 -19.29,2.02 -24.79,6.07 -5.5,4.04 -8.28,10.67 -8.28,19.85 0,6.96 1.84,13.4 5.51,19.33 3.66,5.93 9.03,10.21 16.13,12.89 7.05,2.63 17.26,3.95 30.57,3.95l75.92 0 0 24.83z"/>
  <path id="4" class="fil3" d="M19748.13 25199.86c7.85,9.22 13.35,18.11 16.6,26.62 3.25,8.52 4.84,17.64 4.84,27.43 0,16.08 -3.9,28.45 -11.75,37.11 -7.81,8.65 -17.83,12.98 -30.01,12.98 -7.15,0 -13.69,-1.65 -19.62,-4.89 -5.93,-3.29 -10.63,-7.57 -14.2,-12.84 -3.58,-5.32 -6.31,-11.24 -8.14,-17.88 -1.27,-4.89 -2.49,-12.27 -3.72,-22.1 -2.35,-20.04 -5.22,-34.86 -8.51,-44.31 -3.39,-0.1 -5.55,-0.14 -6.44,-0.14 -10.07,0 -17.17,2.35 -21.31,7.05 -5.6,6.35 -8.37,15.81 -8.37,28.32 0,11.71 2.07,20.36 6.16,25.92 4.09,5.59 11.38,9.68 21.78,12.37l-3.39 24.27c-10.4,-2.21 -18.82,-5.84 -25.21,-10.92 -6.4,-5.08 -11.29,-12.41 -14.77,-22.01 -3.44,-9.55 -5.18,-20.7 -5.18,-33.3 0,-12.51 1.46,-22.72 4.42,-30.57 2.97,-7.81 6.64,-13.6 11.11,-17.27 4.46,-3.67 10.11,-6.25 16.93,-7.76 4.23,-0.8 11.85,-1.22 22.81,-1.22l32.93 0c23,0 37.53,-0.52 43.69,-1.55 6.17,-0.99 12.05,-3.06 17.69,-6.07l0 25.96c-5.22,2.5 -11.34,4.1 -18.34,4.8zm-55.04 1.98c3.67,9.03 6.78,22.57 9.32,40.64 1.45,10.25 3.1,17.49 4.93,21.73 1.84,4.23 4.52,7.48 8,9.78 3.53,2.31 7.43,3.48 11.76,3.48 6.54,0 12.04,-2.49 16.42,-7.52 4.37,-5.04 6.58,-12.38 6.58,-22.02 0,-9.55 -2.07,-18.06 -6.25,-25.54 -4.14,-7.43 -9.84,-12.93 -17.03,-16.41 -5.6,-2.69 -13.83,-4 -24.7,-4l-9.03 -0.14z"/>
  <path id="5" class="fil3" d="M19822.63 25138.57l-202.63 0 0 -22.57 19.24 0c-7.44,-5.32 -13.03,-11.34 -16.75,-18.07 -3.72,-6.68 -5.6,-14.81 -5.6,-24.36 0,-12.51 3.2,-23.52 9.65,-33.07 6.39,-9.55 15.47,-16.74 27.14,-21.63 11.71,-4.85 24.5,-7.3 38.47,-7.3 14.91,0 28.37,2.69 40.36,8.05 11.95,5.36 21.12,13.17 27.52,23.42 6.35,10.21 9.54,20.98 9.54,32.27 0,8.28 -1.74,15.71 -5.22,22.25 -3.48,6.58 -7.85,11.94 -13.17,16.18l71.45 0 0 24.83zm-128.5 -22.57c18.77,0 32.69,-3.81 41.67,-11.39 8.99,-7.62 13.45,-16.84 13.45,-27.65 0,-11.01 -4.65,-20.42 -13.97,-28.23 -9.31,-7.85 -23.7,-11.76 -43.22,-11.76 -18.63,0 -32.55,3.81 -41.82,11.48 -9.26,7.67 -13.87,16.79 -13.87,27.42 0,10.54 4.94,19.85 14.77,27.94 9.87,8.14 24.17,12.19 42.99,12.19z"/>
  <path id="6" class="fil3" d="M19722.73 24991.49l-3.96 -24.55c9.84,-1.37 17.36,-5.22 22.63,-11.53 5.22,-6.3 7.85,-15.14 7.85,-26.43 0,-11.43 -2.3,-19.9 -6.96,-25.45 -4.61,-5.5 -10.06,-8.28 -16.32,-8.28 -5.6,0 -10.02,2.5 -13.22,7.44 -2.21,3.48 -4.98,11.94 -8.42,25.4 -4.56,18.15 -8.51,30.71 -11.85,37.77 -3.39,7 -7.99,12.32 -13.92,15.94 -5.88,3.62 -12.42,5.46 -19.57,5.46 -6.54,0 -12.56,-1.51 -18.11,-4.47 -5.55,-3.01 -10.16,-7.06 -13.83,-12.18 -2.82,-3.86 -5.22,-9.13 -7.19,-15.76 -1.98,-6.68 -2.97,-13.78 -2.97,-21.4 0,-11.48 1.65,-21.54 4.99,-30.2 3.29,-8.7 7.81,-15.1 13.45,-19.24 5.69,-4.09 13.27,-6.96 22.77,-8.51l3.38 24.27c-7.62,1.08 -13.59,4.28 -17.87,9.55 -4.28,5.27 -6.4,12.7 -6.4,22.34 0,11.34 1.88,19.47 5.65,24.32 3.76,4.84 8.18,7.29 13.21,7.29 3.2,0 6.12,-0.99 8.71,-3.01 2.63,-2.02 4.84,-5.18 6.58,-9.5 0.94,-2.5 3.06,-9.74 6.35,-21.87 4.66,-17.5 8.52,-29.73 11.48,-36.69 2.96,-6.96 7.34,-12.42 12.98,-16.37 5.69,-4 12.75,-5.98 21.21,-5.98 8.24,0 16,2.4 23.29,7.25 7.29,4.84 12.93,11.8 16.93,20.88 4,9.13 5.97,19.43 5.97,30.91 0,19 -3.95,33.53 -11.8,43.5 -7.9,9.98 -19.57,16.33 -35.04,19.1z"/>
  <path id="7" class="fil3" d="M19766.47 24833.45l-28.22 0 0 -28.22 28.22 0 0 28.22z"/>
  <path id="8" class="fil3" d="M19712.85 24666.42l3.38 -24.27c16.7,2.68 29.73,9.45 39.19,20.41 9.45,10.96 14.15,24.46 14.15,40.41 0,19.99 -6.53,36.08 -19.61,48.21 -13.08,12.18 -31.8,18.25 -56.16,18.25 -15.81,0 -29.59,-2.63 -41.39,-7.85 -11.86,-5.22 -20.75,-13.17 -26.63,-23.9 -5.92,-10.68 -8.89,-22.29 -8.89,-34.9 0,-15.85 4,-28.88 12.04,-38.95 8.05,-10.11 19.48,-16.6 34.25,-19.42l3.67 23.99c-9.83,2.3 -17.22,6.35 -22.2,12.23 -4.94,5.83 -7.44,12.88 -7.44,21.16 0,12.51 4.47,22.67 13.41,30.53 8.98,7.81 23.09,11.71 42.47,11.71 19.66,0 33.92,-3.76 42.81,-11.29 8.89,-7.57 13.35,-17.4 13.35,-29.49 0,-9.78 -2.96,-17.92 -8.93,-24.41 -5.93,-6.54 -15.1,-10.68 -27.47,-12.42z"/>
  <path id="9" class="fil3" d="M19693.23 24630.3c-27.04,0 -47.08,-7.53 -60.11,-22.63 -10.82,-12.56 -16.23,-27.94 -16.23,-46.05 0,-20.08 6.59,-36.54 19.76,-49.34 13.12,-12.75 31.33,-19.14 54.51,-19.14 18.82,0 33.59,2.82 44.36,8.46 10.77,5.65 19.14,13.88 25.12,24.7 5.97,10.77 8.93,22.58 8.93,35.32 0,20.51 -6.53,37.07 -19.66,49.72 -13.12,12.65 -32.03,18.96 -56.68,18.96zm0.05 -25.4c18.72,0 32.74,-4.1 42,-12.28 9.32,-8.23 13.97,-18.53 13.97,-31 0,-12.32 -4.65,-22.57 -14.01,-30.81 -9.36,-8.18 -23.61,-12.27 -42.76,-12.27 -18.06,0 -31.75,4.14 -41.01,12.37 -9.32,8.23 -13.97,18.48 -13.97,30.71 0,12.47 4.61,22.77 13.87,31 9.27,8.18 23.24,12.28 41.91,12.28z"/>
  <path id="10" class="fil3" d="M19766.47 24464.02l-146.47 0 0 -22.29 20.69 0c-7.15,-4.56 -12.93,-10.68 -17.26,-18.3 -4.37,-7.62 -6.54,-16.27 -6.54,-26.01 0,-10.82 2.26,-19.71 6.73,-26.62 4.52,-6.92 10.77,-11.81 18.86,-14.63 -17.07,-11.67 -25.59,-26.77 -25.59,-45.39 0,-14.58 4,-25.83 12.04,-33.63 8.05,-7.86 20.42,-11.81 37.12,-11.81l100.42 0 0 24.84 -92.19 0c-9.88,0 -17.03,0.84 -21.4,2.44 -4.38,1.6 -7.86,4.52 -10.54,8.8 -2.68,4.23 -4,9.22 -4,14.91 0,10.35 3.44,18.91 10.26,25.73 6.86,6.82 17.82,10.2 32.87,10.2l85 0 0 24.84 -95.06 0c-11.01,0 -19.29,2.02 -24.79,6.07 -5.5,4.04 -8.28,10.67 -8.28,19.85 0,6.96 1.84,13.4 5.51,19.33 3.66,5.93 9.03,10.21 16.13,12.89 7.05,2.63 17.26,3.95 30.57,3.95l75.92 0 0 24.83z"/>
  <g id="_2414785566704">
   <g>
    <path class="fil4 str2" d="M15959.14 25082.52l661.04 0 0 99.16 -661.04 0 0 -99.16z"/>
    <path class="fil1 str2" d="M16620.18 25082.52l661.04 0 0 99.16 -661.04 0 0 -99.16z"/>
    <path class="fil4 str2" d="M17281.21 25082.52l661.04 0 0 99.16 -661.04 0 0 -99.16z"/>
    <path class="fil1 str2" d="M17942.41 25082.52l661.04 0 0 99.16 -661.04 0 0 -99.16z"/>
    <path class="fil4 str2" d="M18603.46 25082.52l661.04 0 0 99.16 -661.04 0 0 -99.16z"/>
    <path class="fil1 str2" d="M18075.97 25381.46l1057.27 0 0 99.16 -1057.27 0 0 -99.16z"/>
    <path class="fil4 str2" d="M17018.71 25381.46l1057.27 0 0 99.16 -1057.27 0 0 -99.16z"/>
    <path class="fil1 str2" d="M15961.45 25381.46l1057.27 0 0 99.16 -1057.27 0 0 -99.16z"/>
   </g>
   <path class="fil5" d="M17032.36 24676.68l57.09 -27.52 5.71 0 0 197.2c0,13.12 0.53,21.35 1.64,24.58 1.12,3.18 3.36,5.71 6.82,7.41 3.47,1.71 10.53,2.7 21.17,2.94l0 6.35 -88.19 0 0 -6.35c11.05,-0.24 18.16,-1.18 21.34,-2.88 3.23,-1.65 5.47,-3.88 6.76,-6.7 1.24,-2.83 1.88,-11.29 1.88,-25.35l0 -126.29c0,-16.99 -0.59,-27.93 -1.7,-32.75 -0.83,-3.7 -2.3,-6.41 -4.41,-8.11 -2.18,-1.71 -4.71,-2.59 -7.71,-2.59 -4.29,0 -10.23,1.76 -17.81,5.35l-2.59 -5.29z"/>
   <path id="1" class="fil5" d="M17843.06 24642.46l0 157.16 39.98 -36.63c8.52,-7.82 13.46,-12.76 14.81,-14.82 0.95,-1.41 1.42,-2.76 1.42,-4.17 0,-2.29 -1,-4.23 -2.89,-5.94 -1.88,-1.65 -4.99,-2.59 -9.4,-2.82l0 -5.65 68.61 0 0 5.65c-9.35,0.23 -17.17,1.7 -23.4,4.35 -6.23,2.7 -13.05,7.47 -20.52,14.29l-40.63 37.22 40.34 51.33c11.29,14.05 18.81,23.04 22.58,26.98 5.58,5.24 10.4,8.65 14.58,10.17 2.94,1.12 7.99,1.71 15.17,1.71l0 6.35 -76.73 0 0 -6.35c4.41,-0.12 7.35,-0.76 8.88,-1.94 1.58,-1.24 2.35,-2.88 2.35,-5.06 0,-2.64 -2.3,-6.88 -6.88,-12.7l-48.27 -61.79 0 52.21c0,10.23 0.7,16.93 2.11,20.17 1.47,3.17 3.47,5.46 6.12,6.88 2.64,1.35 8.35,2.11 17.17,2.23l0 6.35 -80.08 0 0 -6.35c7.99,0 14.05,-1 18.05,-2.94 2.41,-1.23 4.23,-3.17 5.46,-5.76 1.71,-3.76 2.59,-10.29 2.59,-19.52l0 -143.94c0,-18.05 -0.41,-29.1 -1.18,-33.16 -0.82,-4.05 -2.11,-6.82 -3.99,-8.35 -1.83,-1.58 -4.24,-2.35 -7.18,-2.35 -2.41,0 -6.05,1 -10.82,2.94l-2.93 -6.35 46.74 -19.4 7.94 0z"/>
   <path id="2" class="fil5" d="M18019.8 24758.76c11.41,-11.53 18.17,-18.17 20.22,-19.93 5.12,-4.36 10.65,-7.77 16.59,-10.18 5.93,-2.41 11.81,-3.64 17.63,-3.64 9.88,0 18.29,2.88 25.4,8.64 7.06,5.76 11.82,14.11 14.17,25.11 11.88,-13.88 21.88,-22.93 30.05,-27.28 8.17,-4.3 16.58,-6.47 25.22,-6.47 8.35,0 15.82,2.17 22.35,6.47 6.46,4.29 11.64,11.34 15.4,21.16 2.53,6.65 3.82,17.11 3.82,31.4l0 67.97c0,9.82 0.71,16.58 2.18,20.23 1.12,2.46 3.23,4.64 6.23,6.4 3.06,1.77 8,2.65 14.88,2.65l0 6.35 -77.26 0 0 -6.35 3.29 0c6.7,0 11.99,-1.29 15.76,-3.94 2.64,-1.82 4.52,-4.76 5.64,-8.76 0.47,-1.94 0.71,-7.47 0.71,-16.58l0 -67.91c0,-12.88 -1.53,-21.93 -4.65,-27.22 -4.52,-7.35 -11.7,-11.06 -21.63,-11.06 -6.06,0 -12.23,1.53 -18.41,4.59 -6.11,3 -13.58,8.7 -22.34,16.93l-0.35 1.94 0.7 7.41 0 75.32c0,10.7 0.59,17.4 1.77,20.05 1.23,2.59 3.46,4.82 6.76,6.58 3.29,1.77 8.93,2.65 16.87,2.65l0 6.35 -79.37 0 0 -6.35c8.64,0 14.58,-1 17.81,-3.06 3.24,-2.06 5.47,-5.17 6.7,-9.29 0.59,-1.94 0.89,-7.58 0.89,-16.93l0 -67.91c0,-12.88 -1.88,-22.17 -5.65,-27.87 -5.05,-7.41 -12.05,-11.11 -21.11,-11.11 -6.17,0 -12.28,1.7 -18.34,5.05 -9.47,5.06 -16.82,10.82 -21.93,17.17l0 84.67c0,10.29 0.7,16.93 2.12,20.05 1.41,3.06 3.52,5.35 6.35,6.94 2.76,1.53 8.4,2.29 16.93,2.29l0 6.35 -77.97 0 0 -6.35c7.24,0 12.29,-0.76 15.17,-2.29 2.89,-1.59 5.06,-4 6.59,-7.41 1.47,-3.35 2.23,-9.88 2.23,-19.58l0 -60.33c0,-17.28 -0.53,-28.45 -1.53,-33.51 -0.82,-3.82 -2.05,-6.41 -3.82,-7.82 -1.7,-1.47 -4.05,-2.18 -6.99,-2.18 -3.24,0 -7.06,0.89 -11.53,2.59l-2.58 -6.35 47.62 -19.4 7.41 0 0 33.75z"/>
   <path id="3" class="fil5" d="M17180.53 24772.05c0,-26.64 4,-49.51 12.05,-68.74 8.06,-19.22 18.7,-33.57 32.05,-42.98 10.29,-7.47 20.99,-11.17 31.98,-11.17 17.94,0 33.99,9.11 48.22,27.34 17.81,22.64 26.69,53.27 26.69,91.96 0,27.05 -3.88,50.09 -11.7,69.03 -7.82,18.93 -17.76,32.63 -29.87,41.21 -12.11,8.53 -23.81,12.82 -35.04,12.82 -22.29,0 -40.81,-13.11 -55.62,-39.39 -12.53,-22.17 -18.76,-48.86 -18.76,-80.08zm33.87 4.23c0,32.1 3.94,58.33 11.82,78.67 6.52,17.11 16.28,25.63 29.22,25.63 6.17,0 12.58,-2.76 19.22,-8.34 6.65,-5.59 11.65,-14.88 15.11,-27.99 5.24,-19.7 7.88,-47.57 7.88,-83.43 0,-26.64 -2.76,-48.86 -8.23,-66.62 -4.11,-13.23 -9.46,-22.58 -15.99,-28.05 -4.65,-3.82 -10.35,-5.7 -16.99,-5.7 -7.76,0 -14.7,3.53 -20.76,10.52 -8.23,9.53 -13.87,24.46 -16.81,44.92 -3,20.41 -4.47,40.52 -4.47,60.39z"/>
   <path id="4" class="fil5" d="M17356.92 24772.05c0,-26.64 4,-49.51 12.05,-68.74 8.06,-19.22 18.7,-33.57 32.05,-42.98 10.29,-7.47 20.99,-11.17 31.98,-11.17 17.94,0 33.99,9.11 48.22,27.34 17.81,22.64 26.69,53.27 26.69,91.96 0,27.05 -3.88,50.09 -11.7,69.03 -7.82,18.93 -17.76,32.63 -29.87,41.21 -12.11,8.53 -23.81,12.82 -35.04,12.82 -22.29,0 -40.81,-13.11 -55.62,-39.39 -12.53,-22.17 -18.76,-48.86 -18.76,-80.08zm33.87 4.23c0,32.1 3.94,58.33 11.82,78.67 6.52,17.11 16.28,25.63 29.22,25.63 6.17,0 12.58,-2.76 19.22,-8.34 6.65,-5.59 11.65,-14.88 15.11,-27.99 5.24,-19.7 7.88,-47.57 7.88,-83.43 0,-26.64 -2.76,-48.86 -8.23,-66.62 -4.11,-13.23 -9.46,-22.58 -15.99,-28.05 -4.65,-3.82 -10.35,-5.7 -16.99,-5.7 -7.76,0 -14.7,3.53 -20.76,10.52 -8.23,9.53 -13.87,24.46 -16.81,44.92 -3,20.41 -4.47,40.52 -4.47,60.39z"/>
   <path id="5" class="fil5" d="M17533.31 24772.05c0,-26.64 4,-49.51 12.05,-68.74 8.06,-19.22 18.7,-33.57 32.05,-42.98 10.29,-7.47 20.99,-11.17 31.98,-11.17 17.94,0 33.99,9.11 48.22,27.34 17.81,22.64 26.69,53.27 26.69,91.96 0,27.05 -3.88,50.09 -11.7,69.03 -7.82,18.93 -17.76,32.63 -29.87,41.21 -12.11,8.53 -23.81,12.82 -35.04,12.82 -22.29,0 -40.81,-13.11 -55.62,-39.39 -12.53,-22.17 -18.76,-48.86 -18.76,-80.08zm33.87 4.23c0,32.1 3.94,58.33 11.82,78.67 6.52,17.11 16.28,25.63 29.22,25.63 6.17,0 12.58,-2.76 19.22,-8.34 6.65,-5.59 11.65,-14.88 15.11,-27.99 5.24,-19.7 7.88,-47.57 7.88,-83.43 0,-26.64 -2.76,-48.86 -8.23,-66.62 -4.11,-13.23 -9.46,-22.58 -15.99,-28.05 -4.65,-3.82 -10.35,-5.7 -16.99,-5.7 -7.76,0 -14.7,3.53 -20.76,10.52 -8.23,9.53 -13.87,24.46 -16.81,44.92 -3,20.41 -4.47,40.52 -4.47,60.39z"/>
   <path class="fil5" d="M17220.14 25619.04l0 6.7c-15.12,1.47 -27.46,4.47 -37.05,9 -9.58,4.53 -19.05,11.41 -28.34,20.7 -9.35,9.23 -17.11,19.58 -23.22,30.92 -6.12,11.41 -11.23,24.93 -15.35,40.57 16.47,-11.23 32.99,-16.87 49.63,-16.87 15.93,0 29.69,6.41 41.39,19.28 11.7,12.82 17.52,29.34 17.52,49.51 0,19.46 -5.88,37.28 -17.7,53.33 -14.23,19.46 -33.04,29.22 -56.44,29.22 -15.93,0 -29.52,-5.29 -40.63,-15.82 -21.81,-20.57 -32.69,-47.21 -32.69,-79.9 0,-20.87 4.17,-40.75 12.58,-59.56 8.35,-18.82 20.35,-35.51 35.87,-50.1 15.58,-14.52 30.45,-24.34 44.68,-29.39 14.23,-5.06 27.46,-7.59 39.75,-7.59l10 0zm-106.9 120.48c-2.11,15.52 -3.17,28.04 -3.17,37.57 0,11.05 2.06,22.99 6.11,35.92 4.06,12.94 10.12,23.17 18.11,30.75 5.82,5.41 12.94,8.12 21.29,8.12 9.93,0 18.87,-4.71 26.69,-14.12 7.82,-9.46 11.76,-22.87 11.76,-40.33 0,-19.64 -3.88,-36.63 -11.64,-51.04 -7.82,-14.34 -18.82,-21.52 -33.1,-21.52 -4.36,0 -9.06,0.95 -14,2.77 -5,1.82 -12.35,5.82 -22.05,11.88z"/>
   <path id="1" class="fil5" d="M17251.18 25741.93c0,-26.64 4,-49.51 12.05,-68.74 8.06,-19.22 18.7,-33.57 32.05,-42.98 10.29,-7.47 20.99,-11.17 31.98,-11.17 17.94,0 33.99,9.11 48.22,27.34 17.81,22.64 26.69,53.27 26.69,91.96 0,27.05 -3.88,50.09 -11.7,69.03 -7.82,18.93 -17.76,32.63 -29.87,41.21 -12.11,8.53 -23.81,12.82 -35.04,12.82 -22.29,0 -40.81,-13.11 -55.62,-39.39 -12.53,-22.17 -18.76,-48.86 -18.76,-80.08zm33.87 4.23c0,32.1 3.94,58.33 11.82,78.67 6.52,17.11 16.28,25.63 29.22,25.63 6.17,0 12.58,-2.76 19.22,-8.34 6.65,-5.59 11.65,-14.88 15.11,-27.99 5.24,-19.7 7.88,-47.57 7.88,-83.43 0,-26.64 -2.76,-48.86 -8.23,-66.62 -4.11,-13.23 -9.46,-22.58 -15.99,-28.05 -4.65,-3.82 -10.35,-5.7 -16.99,-5.7 -7.76,0 -14.7,3.53 -20.76,10.52 -8.23,9.53 -13.87,24.46 -16.81,44.92 -3,20.41 -4.47,40.52 -4.47,60.39z"/>
   <path id="2" class="fil5" d="M17427.57 25741.93c0,-26.64 4,-49.51 12.05,-68.74 8.06,-19.22 18.7,-33.57 32.05,-42.98 10.29,-7.47 20.99,-11.17 31.98,-11.17 17.94,0 33.99,9.11 48.22,27.34 17.81,22.64 26.69,53.27 26.69,91.96 0,27.05 -3.88,50.09 -11.7,69.03 -7.82,18.93 -17.76,32.63 -29.87,41.21 -12.11,8.53 -23.81,12.82 -35.04,12.82 -22.29,0 -40.81,-13.11 -55.62,-39.39 -12.53,-22.17 -18.76,-48.86 -18.76,-80.08zm33.87 4.23c0,32.1 3.94,58.33 11.82,78.67 6.52,17.11 16.28,25.63 29.22,25.63 6.17,0 12.58,-2.76 19.22,-8.34 6.65,-5.59 11.65,-14.88 15.11,-27.99 5.24,-19.7 7.88,-47.57 7.88,-83.43 0,-26.64 -2.76,-48.86 -8.23,-66.62 -4.11,-13.23 -9.46,-22.58 -15.99,-28.05 -4.65,-3.82 -10.35,-5.7 -16.99,-5.7 -7.76,0 -14.7,3.53 -20.76,10.52 -8.23,9.53 -13.87,24.46 -16.81,44.92 -3,20.41 -4.47,40.52 -4.47,60.39z"/>
   <path id="3" class="fil5" d="M17737.67 25728.64c11.41,-11.53 18.17,-18.17 20.22,-19.93 5.12,-4.36 10.65,-7.77 16.59,-10.18 5.93,-2.41 11.81,-3.64 17.63,-3.64 9.88,0 18.29,2.88 25.4,8.64 7.06,5.76 11.82,14.11 14.17,25.11 11.88,-13.88 21.88,-22.93 30.05,-27.28 8.17,-4.3 16.58,-6.47 25.22,-6.47 8.35,0 15.82,2.17 22.35,6.47 6.46,4.29 11.64,11.34 15.4,21.16 2.53,6.65 3.82,17.11 3.82,31.4l0 67.97c0,9.82 0.71,16.58 2.18,20.23 1.12,2.46 3.23,4.64 6.23,6.4 3.06,1.77 8,2.65 14.88,2.65l0 6.35 -77.26 0 0 -6.35 3.29 0c6.7,0 11.99,-1.29 15.76,-3.94 2.64,-1.82 4.52,-4.76 5.64,-8.76 0.47,-1.94 0.71,-7.47 0.71,-16.58l0 -67.91c0,-12.88 -1.53,-21.93 -4.65,-27.22 -4.52,-7.35 -11.7,-11.06 -21.63,-11.06 -6.06,0 -12.23,1.53 -18.41,4.59 -6.11,3 -13.58,8.7 -22.34,16.93l-0.35 1.94 0.7 7.41 0 75.32c0,10.7 0.59,17.4 1.77,20.05 1.23,2.59 3.46,4.82 6.76,6.58 3.29,1.77 8.93,2.65 16.87,2.65l0 6.35 -79.37 0 0 -6.35c8.64,0 14.58,-1 17.81,-3.06 3.24,-2.06 5.47,-5.17 6.7,-9.29 0.59,-1.94 0.89,-7.58 0.89,-16.93l0 -67.91c0,-12.88 -1.88,-22.17 -5.65,-27.87 -5.05,-7.41 -12.05,-11.11 -21.11,-11.11 -6.17,0 -12.28,1.7 -18.34,5.05 -9.47,5.06 -16.82,10.82 -21.93,17.17l0 84.67c0,10.29 0.7,16.93 2.12,20.05 1.41,3.06 3.52,5.35 6.35,6.94 2.76,1.53 8.4,2.29 16.93,2.29l0 6.35 -77.97 0 0 -6.35c7.24,0 12.29,-0.76 15.17,-2.29 2.89,-1.59 5.06,-4 6.59,-7.41 1.47,-3.35 2.23,-9.88 2.23,-19.58l0 -60.33c0,-17.28 -0.53,-28.45 -1.53,-33.51 -0.82,-3.82 -2.05,-6.41 -3.82,-7.82 -1.7,-1.47 -4.05,-2.18 -6.99,-2.18 -3.24,0 -7.06,0.89 -11.53,2.59l-2.58 -6.35 47.62 -19.4 7.41 0 0 33.75z"/>
   <path id="4" class="fil5" d="M18005.31 25612.34c4.76,0 8.88,1.7 12.29,5.05 3.35,3.41 5.05,7.53 5.05,12.29 0,4.82 -1.7,9 -5.05,12.41 -3.41,3.47 -7.53,5.17 -12.29,5.17 -4.82,0 -9,-1.7 -12.41,-5.17 -3.47,-3.41 -5.17,-7.59 -5.17,-12.41 0,-4.76 1.7,-8.88 5.05,-12.29 3.41,-3.35 7.59,-5.05 12.53,-5.05zm14.17 82.55l0 127c0,9.82 0.7,16.34 2.17,19.58 1.41,3.29 3.53,5.7 6.35,7.29 2.82,1.59 8,2.41 15.47,2.41l0 6.35 -76.56 0 0 -6.35c7.65,0 12.82,-0.76 15.41,-2.23 2.64,-1.47 4.7,-3.94 6.29,-7.35 1.53,-3.41 2.29,-10 2.29,-19.7l0 -61.03c0,-16.99 -0.53,-27.99 -1.53,-33.05 -0.82,-3.64 -2.05,-6.17 -3.82,-7.58 -1.7,-1.47 -4.06,-2.18 -7,-2.18 -3.23,0 -7.11,0.89 -11.7,2.59l-2.41 -6.35 47.45 -19.4 7.59 0z"/>
  </g>
  <path class="fil6 str3" d="M1006.07 1007.35l18971.83 0 0 25298.17 -18971.83 0 0 -25298.17z"/>
  <g id="_2414785561008">
   <path class="fil2 str1" d="M14869.05 24478.76l815.93 0 0 1592.89 -815.93 0 0 -1592.89z"/>
   <path class="fil7" d="M15217.15 24914.89c-0.92,3.32 -1.63,6.35 -2.07,9.15 -0.44,2.79 -0.65,5.18 -0.65,7.22 0,5.59 1.8,9.56 5.29,11.89 3.49,2.33 9.55,3.49 18.05,3.49l4.15 0 -4.96 22.72 -78.17 0 5.29 -22.72 2.89 0c7.36,0 12.82,-1.51 16.48,-4.54 3.6,-2.97 6.32,-8.39 8.12,-16.14l37.59 -153.79c0.6,-2.74 1.14,-5.54 1.52,-8.45 0.33,-2.91 0.55,-5.77 0.55,-8.62 0,-5.36 -1.96,-9.15 -5.95,-11.36 -3.92,-2.22 -10.69,-3.32 -20.23,-3.32l-3.06 0 5.29 -22.72 72.33 0 62.14 183.5 31.31 -129.03c1.08,-4.2 1.85,-7.63 2.34,-10.31 0.49,-2.68 0.71,-4.72 0.71,-6.06 0,-5.6 -1.8,-9.56 -5.35,-11.89 -3.6,-2.33 -9.71,-3.49 -18.32,-3.49l-4.15 0 4.96 -22.72 78.5 0 -5.62 22.72 -2.84 0c-7.37,0 -12.87,1.51 -16.47,4.54 -3.66,2.97 -6.33,8.33 -8.18,15.96l-50.68 208.44 -21.54 0 -72.06 -209.48 -37.21 155.01z"/>
   <path class="fil6 str4" d="M15277.84 25938.45l0 -769.27"/>
   <path class="fil6 str4" d="M14995.79 25662.4l563.14 0"/>
   <path class="fil6 str4" d="M15132.94 25802.39l294.22 -286.81"/>
   <path class="fil6 str4" d="M15129.8 25515.34l297.98 288.85"/>
   <path class="fil6 str4" d="M15277.7 25171.91l-95.47 118.01"/>
   <path class="fil6 str4" d="M15278.32 25171.87l87.89 118.05"/>
  </g>
 </g>
</svg>
