<?xml version="1.0" encoding="UTF-8"?>
<!DOCTYPE svg PUBLIC "-//W3C//DTD SVG 1.1//EN" "http://www.w3.org/Graphics/SVG/1.1/DTD/svg11.dtd">
<!-- Creator: CorelDRAW -->
<svg xmlns="http://www.w3.org/2000/svg" xml:space="preserve" width="297mm" height="210mm" version="1.1" style="shape-rendering:geometricPrecision; text-rendering:geometricPrecision; image-rendering:optimizeQuality; fill-rule:evenodd; clip-rule:evenodd"
viewBox="0 0 29700 21000"
 xmlns:xlink="http://www.w3.org/1999/xlink">
 <defs>
  <style type="text/css">
   <![CDATA[
    .str3 {stroke:black;stroke-width:10;stroke-opacity:0.501961}
    .str5 {stroke:black;stroke-width:50}
    .str2 {stroke:#003399;stroke-width:20}
    .str7 {stroke:#434242;stroke-width:10}
    .str4 {stroke:#3F3E3F;stroke-width:10}
    .str0 {stroke:#000066;stroke-width:10}
    .str1 {stroke:#003399;stroke-width:10}
    .str8 {stroke:#2B2A29;stroke-width:7.62}
    .str6 {stroke:black;stroke-width:7.62}
    .fil9 {fill:none}
    .fil3 {fill:none;fill-rule:nonzero}
    .fil0 {fill:#FEFEFE}
    .fil10 {fill:#D9DADA}
    .fil2 {fill:#FEFEFE;fill-rule:nonzero}
    .fil6 {fill:#D9DADA;fill-rule:nonzero}
    .fil8 {fill:#434242;fill-rule:nonzero}
    .fil7 {fill:#2B2A29;fill-rule:nonzero}
    .fil5 {fill:black;fill-rule:nonzero}
    .fil1 {fill:white;fill-rule:nonzero}
    .fil4 {fill:#FEFEFE;fill-rule:nonzero;fill-opacity:0.501961}
   ]]>
  </style>
 </defs>
 <g id="Plan_x0020_1">
  <metadata id="CorelCorpID_0Corel-Layer"/>
  <rect class="fil0" x="1040" y="1050" width="27622" height="17471"/>
  <path class="fil1 str0" d="M2106 8509c-27,1 -6,45 -10,72 -3,25 -23,38 -23,64l0 33c0,34 49,29 83,29 20,0 11,-33 28,-42 26,-14 68,-6 68,-36 0,-14 -18,-14 -29,-20 -16,-9 -26,-15 -42,-23 -38,-18 -34,-80 -75,-78zm306 147l10 -46c4,-16 -9,-36 -26,-36 -38,0 -34,60 -72,68 -28,7 -65,10 -65,39 0,26 0,62 26,62l38 0c49,0 79,-40 89,-88zm-352 336c10,-13 10,-24 10,-40l0 -45 -13 -10c-21,-16 -25,46 -52,46 -18,0 -28,-10 -46,-10 -20,0 -29,22 -29,42 0,37 49,42 86,42 24,0 30,-7 44,-26zm-72 94c0,13 7,26 20,26 17,0 23,-20 39,-23 65,-13 137,-38 137,-105 0,-9 6,-20 -3,-22 -51,-9 -78,32 -117,65 -28,24 -75,22 -75,59zm489 -179c-3,-19 -14,-36 -33,-36 -23,0 -23,36 -46,36 -13,0 -20,-7 -33,-7 -16,0 -26,16 -26,33 0,7 14,9 10,13 -26,22 -46,41 -46,75 0,20 9,42 29,42 16,0 20,-20 36,-20 19,0 27,16 46,16 64,0 73,-89 62,-153zm-410 365c-20,0 -27,18 -39,33 -11,14 -36,14 -36,33 0,29 13,72 39,62 53,-20 122,-31 114,-85 -5,-34 -43,-42 -78,-42zm153 166c-10,-28 -12,-65 -42,-65 -23,0 -7,37 -20,55 -17,24 -22,42 -39,67 -13,19 -54,-22 -59,0l-3 15c-10,46 32,91 78,91 20,0 0,-44 20,-49 28,-7 46,40 72,26 20,-11 0,-36 0,-59 0,-13 10,-20 10,-33 0,-16 -11,-34 -16,-49zm88 -88c-2,-10 -15,-10 -26,-10 -15,0 -10,22 -16,36 -6,11 -26,7 -26,20 0,11 8,23 20,23 32,0 55,-37 49,-68zm33 0c-22,17 -6,46 0,72 5,21 40,32 26,49 -21,26 -63,28 -62,62 0,10 16,7 26,7 26,0 37,-23 63,-23 20,0 34,14 51,3 8,-5 3,-15 3,-25 0,-29 -14,-44 -20,-72 -4,-20 2,-37 -10,-52 -19,-24 -54,-39 -78,-20zm199 -127c0,-5 -7,-7 -13,-7 -21,0 -26,23 -39,39 -15,19 -51,27 -39,49 13,24 31,38 59,39 25,1 2,-42 10,-65 7,-21 23,-33 23,-55zm65 176c0,30 42,51 68,36 23,-13 -5,-42 0,-68 1,-5 10,-3 15,-3 14,0 20,13 33,13 17,0 17,-23 20,-39 4,-29 27,-56 7,-78 -21,-23 -49,15 -72,36 -22,20 -50,16 -62,42 -10,22 -10,37 -10,62zm33 -371c-10,20 16,46 39,46 31,0 72,-5 72,-36 0,-21 -8,-43 -29,-46 -13,-2 -15,14 -26,20 -19,10 -45,-3 -55,16zm2893 4306c-15,0 -21,14 -33,23 -12,10 -30,4 -39,16 -10,13 6,36 -10,42l-16 7 0 -65 -35 0c-15,0 -13,25 -27,26 -18,1 -25,-23 -44,-23 -38,0 -59,16 -93,33 -14,7 -17,23 -33,23 -30,0 -42,-36 -72,-33 -11,1 -10,18 -10,29l0 20 75 0c28,0 43,7 72,13 52,11 78,24 124,49 35,19 55,33 81,62 32,36 37,88 86,88l29 0 0 -51c0,-12 -10,-18 -10,-30 0,-26 34,-25 49,-46 26,-36 29,-67 29,-112l0 -27c0,-16 -41,-16 -41,0l0 64 -40 0c-14,0 -27,-9 -27,-23 0,-26 47,-27 42,-52 -5,-25 -33,-33 -59,-33zm21948 4186c-47,-18 -76,26 -117,55 -14,10 -29,6 -39,20 -10,12 -7,26 -16,39 -14,20 -62,-8 -62,16l0 95c0,19 -10,28 -10,46 0,44 10,68 10,112 0,39 -24,78 -63,78l-64 0c-32,0 -34,41 -40,72 -6,30 -13,47 -13,78 0,52 72,49 124,49 39,0 62,-10 101,-10 41,0 44,62 85,62 33,0 38,-42 42,-75 5,-37 21,-56 46,-85 48,-55 66,-98 91,-166 27,-73 41,-116 59,-192 11,-47 26,-72 26,-121 0,-30 -32,-49 -62,-49 -16,0 -23,13 -39,13 -28,0 -33,-29 -59,-39zm-635 -735l166 0 0 -15 -5 -23c-4,-20 34,-19 34,-39 0,-13 -15,-17 -15,-29 0,-20 23,-36 10,-50 -15,-16 -16,-32 -29,-49 -16,-20 -38,-14 -64,-16 -23,-2 -33,-17 -50,-33 -38,-33 -118,-48 -93,-91 25,-43 66,52 114,52l13 0 0 -20 -5 -31 0 -44c0,-13 -5,-31 8,-31 22,-1 15,31 20,52 4,18 11,28 13,46 3,21 2,42 21,50 15,7 26,10 42,10 25,0 31,-31 56,-31 21,0 20,28 20,49 0,18 -16,24 -16,42 0,9 9,17 18,17 5,0 8,-5 13,-5 11,0 15,10 26,10 35,0 54,-18 90,-18 3,0 7,1 7,3l0 13c0,13 -11,17 -20,27 -19,24 -17,45 -28,73 -5,14 -18,17 -28,28 -12,13 -15,26 -15,44l0 9c0,3 4,3 7,3 13,0 13,-16 20,-28 11,-21 18,-46 43,-46l13 0c7,0 2,11 2,18 0,21 -28,26 -28,47l0 54 77 10c26,3 42,-5 68,0 4,1 2,-7 2,-11 0,-29 -33,-32 -54,-53 -31,-31 -50,-58 -50,-103 0,-20 20,-24 34,-37 21,-21 22,-41 39,-65 2,-2 3,4 3,7 0,34 -28,48 -28,82 0,16 18,19 28,32 16,21 8,42 20,65 9,19 30,17 42,34 11,15 23,28 42,28 15,0 20,-18 20,-33 0,-23 -23,-29 -39,-45 -13,-13 -17,-26 -33,-36 -18,-11 -37,-17 -37,-37 0,-31 6,-49 13,-80 1,-4 7,-3 11,-3 3,0 7,0 7,3l0 80c0,7 8,9 13,14 17,23 38,26 57,47 19,22 5,67 35,67l19 0 0 -26c0,-9 -8,-13 -10,-22 -3,-12 0,-23 -10,-31 -9,-7 -17,-9 -23,-18 -12,-18 -7,-35 -7,-57l0 -40c0,-6 -3,-9 -3,-15l0 -22 21 0c11,0 3,22 7,33 6,17 21,22 21,40 0,9 -7,13 -7,23 0,32 22,48 47,68 11,8 23,13 23,27l0 33c0,29 37,35 37,63 0,15 -15,18 -24,29 -17,20 -24,37 -24,63 0,28 13,39 13,68 0,45 21,68 21,113 0,14 13,20 26,25 22,10 42,22 42,46 0,4 -6,6 -8,9 -8,12 -15,20 -15,34 0,24 19,33 36,50 21,21 32,46 62,46l42 0c18,0 26,-10 44,-10 21,0 22,33 43,33 5,0 8,-5 13,-5 30,0 35,42 65,42 9,0 16,2 23,-3 9,-7 6,-19 13,-28 12,-14 30,-2 47,-8 17,-6 24,-21 42,-21 11,0 29,3 24,13 -12,26 -44,30 -44,59 0,30 23,57 53,57 16,0 25,-8 42,-8 10,0 15,7 24,7 11,0 23,-8 23,-20 0,-17 -20,-22 -20,-39 0,-9 11,-10 18,-15 13,-8 24,-16 24,-32 0,-18 -23,-22 -23,-40 0,-24 18,-53 41,-46 22,7 -3,42 15,57 11,9 22,4 36,8 14,4 21,13 36,13 15,0 17,-18 26,-29 13,-15 28,-43 42,-29 15,14 -7,34 -21,49 -15,15 -29,26 -29,48l0 13 83 29 31 0 0 15c0,10 -7,15 -7,26 0,20 8,30 10,50 0,3 -3,5 -7,5 -18,0 -21,-26 -39,-26l-14 0c-5,0 -2,8 -2,13 0,7 8,8 13,13 10,10 18,19 18,34l0 22c0,10 -15,2 -25,2 -12,0 -25,10 -31,-1 -10,-18 -8,-33 -18,-51 -7,-14 -12,-29 -28,-29 -16,0 -34,7 -34,24 0,21 25,27 26,48 0,5 -9,5 -15,5 -20,0 -26,-21 -45,-21 -7,0 -18,-6 -18,2l0 25c0,21 25,22 44,31 8,3 7,13 10,21 4,12 13,17 18,29 8,22 3,38 5,62 1,14 10,21 10,35l0 33c0,18 16,23 26,37 16,21 27,33 44,52 32,36 51,56 83,93 23,26 41,35 64,62 7,8 6,17 11,26 6,10 17,8 28,11 11,3 18,9 28,16 28,21 62,47 46,78 -13,24 -37,-28 -64,-28l-35 0c-18,0 22,21 28,37 14,39 23,60 31,101 6,32 23,47 23,79 0,30 -14,44 -28,71 -5,9 -3,17 -10,24 -11,13 -19,23 -20,40l0 21 107 0 0 -17471 -25438 0 1 37c1,35 7,55 7,90 0,35 -15,54 -15,88l0 33c0,26 -9,39 -11,65 -6,79 -3,124 -11,204 -4,34 -11,53 -11,88l0 38c0,44 -12,68 -20,112 -15,91 -8,144 -24,235 -7,40 -18,60 -21,101 -3,45 -2,72 -13,116 -3,14 -11,20 -16,33 -13,29 -17,47 -24,78 -7,32 -16,49 -20,81 -8,66 -29,100 -55,161 -15,35 -25,55 -44,88 -16,28 -39,34 -59,60 -29,39 -55,57 -72,103 -12,32 -9,53 -24,83 -10,20 -22,27 -37,42 -26,26 -40,41 -67,65 -20,18 -28,34 -44,55 -26,34 -49,47 -72,85 -39,66 -44,111 -62,186 -18,74 -24,116 -41,191 -10,44 -22,66 -36,109 -10,33 -31,48 -31,83l0 66c0,60 -21,92 -21,152l0 107c0,54 -1,87 -20,138 -7,20 -14,32 -23,52 -13,29 -27,42 -41,70 -8,16 -18,24 -24,41 -10,26 -13,44 -31,65 -20,24 -36,35 -49,64 -17,37 -35,52 -52,90l-44 98c-11,25 -31,30 -49,50 -48,56 -67,94 -119,147 -19,19 -35,24 -55,42 -31,28 -43,49 -75,75 -26,20 -51,16 -75,37 -19,17 -21,34 -37,54 -17,20 -27,30 -41,50 -11,16 -10,31 -23,46 -7,8 -16,9 -26,15 -16,9 -24,18 -41,26 -58,26 -89,44 -148,67 -24,9 -37,20 -62,20 -15,0 -21,-16 -36,-16 -21,0 -31,13 -50,21 -18,7 -44,5 -44,24 0,6 7,7 11,11 7,7 11,13 18,20 21,21 36,30 55,52 13,15 20,23 31,39 11,16 15,37 35,37l21 0c5,0 2,-8 2,-13 0,-21 -26,-26 -26,-48 0,-19 21,-23 37,-33 15,-9 16,-33 33,-29 21,5 15,35 34,42 20,7 34,1 55,3 17,2 25,10 39,18 11,6 13,16 21,24 29,32 34,61 46,103 16,55 7,96 41,142 26,34 59,34 88,65 12,13 15,22 24,37 5,8 11,13 11,23 0,15 -26,14 -26,29 0,18 15,24 23,39 24,46 36,76 77,107 24,19 71,21 62,50l-39 129c-3,10 9,18 20,18 22,0 34,-11 55,-16 24,-6 31,-24 52,-36 12,-7 17,18 31,18 26,0 45,-8 62,-28 11,-13 21,-40 33,-28 14,15 -1,32 -1,53 0,20 -26,21 -46,22 -35,2 -55,9 -90,16 -14,3 -21,10 -36,11 -15,1 -34,4 -34,20 0,26 11,55 37,55 11,0 14,-12 22,-20 10,-10 14,-21 28,-23 6,-1 3,10 3,16 0,21 -23,28 -23,48l0 33 -7 5c-19,15 -27,-34 -50,-34 -10,0 -13,13 -13,23 0,9 19,3 20,11 2,23 -20,33 -20,57l0 13 15 0c21,0 0,50 21,50 42,0 4,-98 46,-98 24,0 18,47 42,47 9,0 12,-10 18,-16 19,-20 31,-37 31,-65l0 -24c0,-16 16,-20 28,-31 22,-21 25,-42 44,-67 3,-4 3,8 3,13 0,17 -21,39 -5,42l16 3c5,1 9,-5 13,-3 3,1 5,3 5,7 0,11 -8,15 -8,26 0,16 11,23 11,39l0 17c0,5 -8,2 -13,2 -10,0 -16,-3 -26,-3 -9,0 -22,-8 -22,0l0 16c0,7 8,9 7,16l-2 7c-1,2 -4,2 -6,2 -7,0 -10,-5 -17,-5 -18,0 -18,22 -26,37 -8,17 -24,19 -36,33 -6,7 -6,15 -13,20 -14,10 -29,7 -39,21 -15,21 -20,37 -20,63 0,18 1,45 18,42 22,-4 25,-25 39,-42 9,-11 12,-26 26,-26l19 0c7,0 2,11 2,18 0,16 -16,20 -28,31 -21,19 -65,43 -42,60l7 5 34 0c27,0 49,16 54,42 1,5 -8,2 -13,2 -18,0 -26,-10 -44,-10l-19 0 -2 8c-3,13 28,8 28,21 0,18 -26,19 -26,37 0,17 22,15 36,24 8,5 7,15 11,24 7,15 16,23 16,40 0,15 -15,22 -15,37 0,10 10,13 18,20 17,13 22,29 42,36 22,8 37,2 60,2 38,0 59,0 98,0 4,0 4,-5 7,-6 14,-6 31,-3 36,-18 4,-15 2,-24 7,-39 7,-22 24,-28 42,-42 16,-12 25,-24 46,-24 29,0 43,21 72,21 52,0 81,-2 133,-2 19,0 29,5 48,5 24,0 37,-10 60,-10 36,0 55,16 91,16 36,0 50,-28 78,-49 20,-15 37,-11 60,-20 29,-11 44,-26 75,-26l13 0c23,0 -31,20 -52,28 -26,10 -37,22 -60,37 -33,22 -57,27 -96,37 -5,1 -7,7 -13,7 -22,0 -33,-10 -55,-10 -26,0 -39,20 -65,20 -39,0 -59,-24 -98,-24 -24,0 -37,10 -61,10l-32 0c-9,0 -13,3 -22,3 -13,0 -21,-5 -34,-5 -15,0 -19,13 -31,21 -20,13 -38,13 -52,33 -14,19 -5,36 -13,57 -8,22 -29,25 -50,33 -21,8 -31,21 -54,21 -17,0 -26,-8 -43,-8 -27,0 -50,16 -55,42 -1,4 -7,2 -11,2 -18,0 -22,-20 -40,-20l-32 0c-9,0 -12,-8 -20,-11 -15,-7 -25,-9 -41,-15 -23,-8 -52,-11 -52,-36 0,-16 16,-22 16,-37 0,-13 -13,-16 -23,-24 -10,-9 -9,-20 -11,-33 -4,-24 -9,-39 -20,-60 -11,-21 -9,-46 -31,-54 -26,-9 -58,-14 -70,10 -9,18 -2,33 -8,52 -10,30 -33,44 -64,50 -17,3 -20,20 -29,34 -17,28 -34,44 -34,77 0,23 18,31 23,54 7,32 13,50 16,83 3,27 1,44 11,68 8,19 37,18 37,39 0,16 -13,24 -13,40 0,18 11,27 11,46 0,25 -12,38 -21,61 -25,68 -53,105 -53,177l0 35 7 2c25,6 35,-28 60,-28 28,0 92,12 67,24l-7 3 -52 0c-22,0 -26,25 -39,42 -26,31 -39,55 -39,96 0,11 -3,19 2,30 2,5 9,3 14,2l46 -13 34 0c10,0 18,7 26,2 15,-9 4,-29 10,-46 6,-17 23,-24 41,-21 9,2 -1,14 -1,23 0,12 10,22 22,22 17,0 25,-13 42,-13 9,0 12,11 15,20 6,20 13,38 33,46 6,2 0,-9 0,-15l0 -29c0,-14 5,-41 15,-32 17,16 -3,45 16,59 20,14 42,2 62,16 13,10 16,28 33,28 29,0 30,-46 59,-46 22,0 31,18 52,18 20,0 26,-23 46,-23 17,0 25,11 42,11 12,0 10,-23 22,-23 20,0 29,16 50,16 13,0 21,-5 30,-13 9,-7 7,-23 18,-23 15,0 21,13 34,20 30,15 47,28 81,28 20,0 30,-11 50,-11l46 0c18,0 27,-10 44,-10 14,0 22,8 36,8l37 0c15,0 17,18 25,31 9,16 26,18 44,18 20,0 30,-5 49,-10 22,-6 43,-6 54,-26 8,-16 8,-28 10,-46 0,-4 24,-100 24,-75 0,13 -5,20 -7,32 -3,24 2,38 -3,62 -2,10 -13,12 -16,21 -5,17 -12,26 -24,39 -20,20 -42,18 -70,23 -14,2 -22,8 -36,8 -47,0 -57,-60 -104,-60 -52,0 -80,15 -132,15l-40 0c-13,0 -21,-3 -33,-8 -17,-7 -19,-29 -37,-29 -24,0 -34,14 -55,24 -22,11 -38,10 -62,18 -23,8 -37,15 -62,15 -47,0 -73,-16 -121,-16 -9,0 -11,11 -20,15 -13,6 -22,8 -36,8 -22,0 -33,-16 -55,-16 -13,0 -20,11 -33,11l-43 0c-15,0 -25,-6 -39,-10 -22,-6 -35,-13 -59,-13 -28,0 -38,28 -66,28l-45 0c-22,0 -34,-13 -57,-13 -44,0 -50,57 -50,101 0,20 9,31 21,47 12,17 16,33 36,41 43,16 73,13 116,31 37,16 59,27 85,57 32,37 41,88 90,88 11,0 18,-5 26,-11 11,-8 8,-28 21,-28 10,0 8,14 13,23 8,16 23,21 41,21l19 0c24,0 7,-55 31,-55 24,0 30,30 54,29 7,0 2,-10 2,-17 0,-12 -10,-18 -10,-31l0 -11c0,-7 11,-2 18,-2 22,0 26,31 48,31 18,0 25,-14 35,-28 16,-21 43,-8 64,-24 19,-15 28,-36 52,-36 9,0 11,11 18,16 12,11 37,-2 41,15l2 7c8,31 -52,1 -81,13 -20,8 -27,26 -49,29 -33,5 -51,13 -78,31 -20,13 -61,20 -47,39 14,19 60,-17 60,7l0 9c0,11 -13,14 -23,18 -20,6 -30,11 -50,16 -10,3 8,-21 0,-27 -11,-9 -22,0 -35,0 -16,0 -24,9 -38,18 -22,14 -58,4 -62,31 -2,10 28,-2 26,8 -6,26 -31,35 -31,62 0,31 16,64 46,64 16,0 25,-3 41,-3 16,0 24,5 40,7 24,2 57,3 57,28 0,10 -11,13 -21,13 -10,0 -14,-10 -24,-8l-55 10c-18,3 -24,-21 -42,-21 -6,0 -11,5 -11,11 0,4 -7,7 -5,10 10,21 3,38 15,59 15,25 29,35 52,52 13,9 20,20 36,20 7,0 9,-7 16,-7 18,0 20,24 37,24 21,0 22,-23 37,-37 19,-18 39,-20 65,-20 13,0 18,15 31,15l13 0c13,0 -2,-22 5,-33 11,-15 32,-1 46,-13 6,-5 -8,-9 -13,-15 -17,-21 -44,-64 -16,-68 34,-5 23,65 57,65 36,0 50,-36 86,-36 8,0 13,3 21,3 26,0 11,-62 37,-55l7 2c21,5 14,41 35,41 21,0 28,-28 48,-26 18,2 16,31 34,31 19,0 17,-34 36,-34 16,0 11,33 27,33 14,0 21,-5 35,-5 17,0 26,5 43,5 11,0 19,0 27,-7 6,-6 2,-15 3,-24 1,-10 12,-15 22,-15 15,0 20,16 35,16 7,0 18,-10 16,-3 -3,14 -22,10 -31,21 -8,11 -13,24 -26,24l-51 0c-12,0 -18,9 -30,10 -14,1 -23,-3 -36,2 -11,4 -13,16 -24,20 -22,6 -35,10 -58,10 -11,0 -18,-6 -29,-8 -20,-5 -33,-3 -52,-10 -13,-4 -19,-13 -33,-13l-37 0c-18,0 1,32 -10,46 -7,10 -19,9 -28,18 -37,37 -74,48 -93,96 -11,28 -39,36 -39,66l0 80 18 0c14,0 17,-21 31,-18l20 5c27,7 36,-28 62,-37 22,-8 38,0 60,-8 15,-5 25,-10 37,-20 6,-5 10,-13 18,-13l30 0c26,0 37,-19 54,-39 12,-13 25,-16 42,-20 39,-8 44,-47 55,-85 3,-11 16,10 28,10 37,0 58,-9 93,-20 14,-4 20,-16 35,-16l33 0c40,0 39,65 79,65 20,0 32,-2 50,-10 24,-10 28,-31 50,-44 26,-14 46,-11 76,-11 27,0 56,14 56,42 0,15 -15,20 -24,32 -9,11 -13,20 -24,29 -7,6 -13,9 -13,18 0,18 9,32 26,37 14,5 23,-1 37,3 29,10 86,48 55,55l-7 2c-26,7 -28,-38 -54,-42 -30,-5 -52,-11 -70,-36 -6,-8 -13,-13 -13,-23 0,-15 26,-13 26,-28l0 -35c0,-10 -16,-7 -26,-7 -21,0 -26,20 -41,34 -16,15 -33,11 -54,11l-45 0c-51,0 -78,25 -123,49 -9,5 -17,1 -28,3 -33,8 -48,24 -80,33 -26,7 -59,10 -59,37l0 19c0,16 39,-1 39,15 0,11 -5,17 -5,28 0,13 -2,27 10,33 9,5 21,4 21,15 0,34 -38,39 -70,50 -39,15 -75,36 -75,78 0,13 5,28 18,28 26,0 29,-37 55,-37 14,0 22,8 36,8 17,0 22,-14 36,-23 12,-8 22,-3 36,-3l33 0c19,0 21,-25 39,-29 15,-4 28,-1 39,-11 20,-18 17,-54 44,-54 15,0 15,24 30,24 21,0 28,-20 48,-24 11,-3 21,3 28,-5 7,-8 5,-23 16,-23 14,0 2,33 16,33l13 0c10,0 15,-5 25,-5 13,0 5,22 15,29 14,11 38,7 37,24 0,7 -11,3 -19,3 -18,0 -24,-20 -42,-20 -16,0 -41,-15 -41,1l0 35c0,7 -10,2 -17,2 -15,0 -22,-12 -34,-21 -18,-14 -31,-20 -54,-20 -15,0 -20,13 -31,21 -18,13 -32,16 -50,29 -17,11 -26,20 -37,37 -7,11 -16,18 -16,31 0,7 6,10 5,16l-2 8c-1,4 -6,2 -10,2 -12,0 -11,-22 -23,-21 -9,1 3,24 -7,24l-21 0c-15,0 -19,-20 -35,-20 -7,0 -17,4 -15,10 5,13 15,18 15,31 0,16 -20,17 -34,24 -10,5 -13,15 -13,26 -1,25 -23,35 -23,60l0 13c0,12 15,-12 23,-21 15,-18 33,-23 57,-23 14,0 22,5 37,5 11,0 13,-13 20,-21 12,-14 20,-22 36,-31 25,-14 45,-18 60,-44 13,-22 -20,46 -20,53l0 13 14 0c20,0 30,-11 46,-23 13,-10 22,-16 37,-21 3,-1 3,5 3,8 0,14 -15,18 -23,29 -6,9 -3,20 -11,26 -13,10 -28,0 -44,5 -24,7 -33,22 -52,39 -11,10 -22,10 -34,20 -11,9 -13,21 -11,36l2 11 21 0c13,0 19,-10 32,-10l22 0c4,0 5,4 5,8 0,8 -7,10 -13,15 -8,7 -10,14 -20,18 -16,7 -41,5 -41,23 0,8 10,7 16,11 7,5 9,13 10,23 3,28 2,46 15,70 8,15 18,22 31,34 15,15 25,29 46,29 19,0 29,-21 29,-40l0 -29c0,-14 5,-23 13,-34 7,-10 12,-23 25,-23 7,0 17,-3 17,3 2,25 -24,34 -24,58l0 35c0,20 16,29 16,48 0,16 -20,15 -34,23 -16,9 -23,20 -33,36 -9,15 -20,23 -20,41 0,20 23,26 42,26 20,0 27,-18 41,-33 19,-20 34,-31 47,-55 11,-21 18,-33 26,-55 7,-20 21,-29 21,-51l0 -35c0,-17 19,26 36,26 13,0 14,-15 21,-24 11,-14 25,-14 39,-24 22,-17 36,-34 64,-34 9,0 14,-1 22,2 3,1 10,5 7,7 -20,9 -47,10 -47,33 0,17 29,15 29,32l0 12 -45 0c-19,0 -20,22 -30,37 -13,21 -11,36 -16,60 -4,17 -20,19 -36,26 -36,15 -66,21 -85,55 -8,14 -23,19 -23,35 0,16 14,22 16,38 7,43 3,70 16,112 11,37 25,60 57,81 19,12 31,24 54,24 11,0 24,-5 24,-16 0,-12 -16,-11 -23,-21 -11,-17 -19,-35 -8,-52 10,-16 31,1 47,-8 20,-11 16,-33 16,-56l0 -27c0,-36 -85,-3 -85,-40l0 -11 21 0c26,0 31,34 56,34l19 0c5,0 2,-8 2,-13 0,-14 -7,-22 -7,-37 0,-25 3,-39 2,-65 0,-3 5,-3 8,-3 9,0 1,17 10,18 19,2 24,-17 42,-21 8,-2 10,11 10,20 0,21 -13,31 -13,51 0,16 7,35 24,35 11,0 19,-1 27,-8 16,-14 6,-49 28,-49 13,0 9,19 11,33 1,3 4,3 7,3 9,0 9,-12 15,-20 13,-18 27,-29 49,-29 12,0 26,6 26,18 0,11 -14,13 -23,20 -22,17 -30,31 -52,47 -17,12 -37,18 -37,39 0,22 0,35 7,55 6,19 18,28 18,47 0,18 -18,34 -5,46 14,12 26,-15 41,-24 23,-15 42,-16 70,-16l13 0c43,0 -93,26 -85,68 5,26 42,-10 68,-7 4,1 2,6 2,10 0,30 -50,28 -50,58 0,6 7,8 13,8 27,0 33,-27 50,-47 14,-16 30,-19 39,-39 13,-29 4,-81 34,-73l7 2c20,5 -20,30 -20,50 0,16 18,22 18,37 0,18 -15,25 -29,36 -26,20 -41,42 -41,75 0,6 -4,13 2,15 20,7 51,9 46,29l-2 7 -13 3 -32 0c-14,0 -18,15 -26,26 -11,15 -14,28 -18,47 -2,9 -8,13 -8,23 0,9 11,13 20,13l40 0c12,0 18,10 30,10 13,0 16,-12 26,-20 19,-13 29,-28 52,-29 3,0 5,3 5,7 0,6 -5,9 -8,13 -11,16 -19,26 -34,37 -19,14 -39,24 -39,48 0,20 2,34 11,51 11,20 32,16 49,31 13,12 17,23 28,37 13,17 23,29 23,50l0 56c0,9 10,14 20,14 24,0 25,-37 49,-37 24,0 24,33 47,39 13,4 24,-3 34,5 9,6 -1,17 7,24 25,27 37,45 57,75 14,21 33,23 55,36 27,15 33,49 64,49l11 0 0 -35c0,-18 1,-27 5,-44 2,-7 2,-16 10,-16 12,0 13,14 24,18 18,7 42,3 42,22 0,14 -24,13 -24,27 0,12 23,15 18,26 -7,14 -28,15 -28,31 0,18 22,20 37,28 13,6 20,14 31,24 24,22 38,35 67,50 51,29 72,75 130,75 23,0 34,-13 57,-13 8,0 13,7 13,15 0,16 -11,23 -20,36 -8,11 -7,22 -7,36 0,17 -8,29 0,43 4,7 12,0 20,0 18,0 27,-10 44,-10 14,0 20,11 34,11l14 0 0 -78c0,-9 3,-18 11,-18 5,0 12,-2 13,3 6,18 -5,35 8,49 7,8 18,2 29,5 11,2 13,15 13,27 0,9 -12,10 -21,12 -9,2 -14,5 -23,8 -22,9 -29,27 -34,50 -7,33 -3,57 -24,83 -6,8 -15,9 -20,18 -10,16 -5,30 -10,47 -3,9 -11,10 -16,18 -8,12 -9,23 -20,33 -15,13 -41,11 -41,31 0,6 8,7 14,7 27,0 32,-27 56,-39 44,-22 64,-44 114,-52 4,-1 2,6 2,10 0,21 -16,31 -16,51 0,13 3,30 16,30 10,0 12,-11 20,-18 21,-18 58,-68 58,-41l0 38c0,16 -2,26 -12,39 -9,11 -24,16 -24,31 0,10 7,14 11,23 7,13 11,28 26,28 18,0 23,-18 34,-31 12,-14 22,-26 41,-28 2,0 3,4 3,7 0,20 -26,24 -26,44 0,14 16,19 16,33 0,27 -33,35 -33,63 0,22 -11,57 11,57l22 0c19,0 25,-21 44,-21 3,0 2,4 5,7 9,8 17,14 21,26 8,23 15,37 15,62 0,17 15,29 33,29 18,0 13,-39 29,-34 21,7 -11,57 11,57l18 0c3,0 2,4 2,7 0,14 -13,18 -23,27 -8,8 -10,17 -16,26 -5,7 -15,4 -23,8 -11,6 -14,16 -23,26 -13,14 -31,20 -31,39 0,11 6,18 6,29l0 77 22 0c7,0 11,-7 18,-7 34,0 44,41 78,41 13,0 18,-10 31,-11 22,-2 35,-8 57,-8l34 0c21,0 -30,18 -49,28 -18,9 -36,16 -36,36 0,8 12,6 20,8 13,4 20,15 20,29 0,10 -13,13 -23,13 -11,0 -16,-5 -26,-5 -33,0 -51,-2 -84,-2 -14,0 -28,9 -28,22l0 35c0,15 -7,22 -7,37 0,26 -2,42 8,65 14,30 33,40 47,70 15,31 11,55 31,83 11,16 17,36 37,36 18,0 29,-15 35,-31 7,-17 18,-24 24,-41 10,-27 20,-57 49,-57 15,0 6,22 11,36 7,20 26,28 48,28l43 0c20,0 25,25 25,45l0 31 -24 0c-17,0 -19,-20 -35,-24 -9,-2 -14,-2 -23,-2 -20,0 -41,9 -41,29l0 53c0,2 -4,2 -6,2 -29,0 -41,-36 -69,-28 -11,3 0,22 -10,28 -11,7 -26,9 -26,23 0,7 9,7 15,11 13,9 24,16 24,32l0 12c0,5 -8,2 -13,2 -29,0 -40,-23 -62,-41 -12,-10 -19,-19 -34,-23 -8,-2 -16,-1 -21,-8 -14,-19 -21,-41 -45,-41 -15,0 -23,8 -39,8l-40 0 -20 -5c-29,-7 24,42 24,72 0,16 -13,23 -13,39 0,24 17,33 34,49 26,24 34,46 65,62 26,13 59,18 59,47l0 112c0,6 0,13 6,14l7 2c42,11 49,-62 92,-62 11,0 17,5 28,5 34,0 45,-39 79,-39 15,0 16,19 16,34l0 46c0,36 34,48 37,84 3,24 -6,39 2,62 11,32 26,50 26,84 0,16 -4,26 -8,42 -3,10 -18,5 -26,11 -9,7 -8,19 -8,31 0,23 13,33 23,54 10,21 19,42 42,42 24,0 30,-29 54,-29 18,0 13,26 13,44 0,21 16,31 34,41 23,13 37,28 64,28 15,0 25,-2 36,-11 5,-4 7,-11 13,-11 18,0 23,21 41,21l33 0c24,0 47,10 62,-10 18,-23 12,-69 41,-64 12,3 -5,20 -5,33 0,28 41,19 57,42 3,4 -8,5 -14,5 -14,0 -21,-5 -35,-5 -9,0 -11,12 -20,15 -19,7 -31,11 -44,26 -9,9 -21,13 -21,26 0,12 15,13 26,16 9,3 11,13 20,16 14,6 14,26 29,26l9 0c17,0 15,-27 31,-31 20,-4 24,28 44,28 20,0 32,-10 47,-23 10,-9 9,-26 23,-26 16,0 22,20 37,18 51,-6 165,-37 42,11 -11,5 -16,13 -28,18 -42,18 -69,24 -114,33 -12,2 -18,7 -29,11 -25,10 -49,15 -57,41 -4,13 -2,23 -10,34 -13,19 -54,27 -39,46 22,28 51,31 87,31l33 0c39,0 45,50 83,55 35,5 87,-13 86,23 0,16 -5,36 -21,36 -15,0 -19,-15 -33,-23 -24,-13 -42,-12 -65,-26 -29,-18 -43,-42 -77,-42l-66 0c-22,0 -35,-5 -57,-5 -11,0 -13,13 -13,24 0,14 13,17 24,25 31,21 52,26 88,36 44,12 70,8 114,20 37,9 54,24 88,41 49,24 81,31 132,50 29,11 46,17 75,26 36,11 52,30 81,55 17,15 32,17 50,29 44,29 73,38 119,64 28,15 37,37 47,67 4,13 1,33 15,33 11,0 14,-11 24,-11 10,0 21,3 21,13 0,8 -8,11 -8,20 0,8 9,8 16,11 14,7 22,14 37,18 20,5 23,29 43,29 12,0 17,-10 29,-10 16,0 14,22 16,37 2,12 15,14 26,18 31,10 46,21 75,34 15,7 26,10 39,20 16,12 20,25 33,41 15,18 34,20 57,20l55 0c3,0 2,5 2,8 0,10 -15,11 -15,21 0,11 12,13 20,21 17,17 20,32 26,55l2 7c14,57 -68,-85 -127,-85 -3,0 -4,3 -7,3 -15,0 -22,-11 -36,-11l-32 0c-5,0 -8,7 -8,13l0 33c0,20 15,30 33,40 25,15 40,18 67,26 49,15 66,46 116,60 55,16 86,20 135,49 35,20 72,7 94,41l186 275c2,2 -4,3 -7,3 -6,0 -9,-3 -15,-3 -14,0 -24,12 -24,26 0,9 9,13 16,18 26,17 37,32 67,42 36,13 56,19 91,34 31,13 49,22 75,44 28,24 35,62 72,62 7,0 7,-9 10,-15 5,-11 11,-21 24,-21 23,0 13,37 32,49 22,15 44,15 60,36 33,42 64,65 117,68 10,1 17,0 26,5 15,8 6,26 15,41 11,19 24,28 42,39 24,15 42,19 65,36 20,15 22,32 37,50 25,29 38,48 57,81 11,19 13,34 29,49 21,19 25,41 52,52 19,8 33,4 52,8 11,2 22,2 24,13 4,15 -1,27 7,41 9,17 28,10 46,16 11,4 19,5 28,11 9,7 7,18 15,26 16,18 47,2 55,26 3,10 -1,16 -1,26 0,18 0,35 15,42 12,6 22,3 36,3 16,0 49,-19 41,-5 -11,18 -16,31 -16,52 0,27 34,28 60,33 44,8 77,13 104,49 20,27 26,47 44,77 22,38 46,59 46,103 0,20 -16,28 -16,48l0 10c0,48 76,5 122,20 21,7 33,18 46,36 7,11 19,12 26,23 9,14 15,29 33,29 25,0 37,-21 62,-21 13,0 14,15 20,26 4,9 16,11 16,21 0,8 -9,9 -15,15 -10,11 -13,22 -13,37 0,7 -3,12 2,17 4,4 10,2 16,2 13,0 20,-5 33,-5 70,0 110,18 171,52 27,15 43,26 72,37 53,22 81,37 132,64 26,14 41,22 68,33 17,6 31,8 41,23 16,23 17,44 39,62 18,14 37,4 57,16 18,11 21,26 37,37 20,14 39,8 62,16 52,19 74,46 122,73 41,22 68,26 114,36 25,6 40,4 65,10 10,2 14,8 24,8 15,0 23,-5 37,-5 16,0 16,20 28,31 15,13 30,10 47,20 34,19 11,86 50,86l11 0c14,0 22,-6 35,-10 11,-3 18,-11 29,-8l7 2c9,2 -7,15 -7,24 0,11 15,11 26,11l186 4c17,0 27,-7 45,-7 10,0 15,3 26,3l33 0c13,0 18,-10 30,-16 12,-7 20,-11 33,-18 31,-19 48,-30 80,-47 17,-9 25,-18 42,-28 15,-8 27,-9 39,-21 12,-12 20,-16 33,-28 6,-6 9,-13 18,-13 13,0 20,8 33,8 39,0 57,-23 93,-37 34,-14 50,-27 83,-44 18,-9 31,-10 49,-20 11,-6 14,-15 26,-20 11,-4 18,0 29,-3 52,-14 80,-24 132,-37 39,-10 59,-25 91,-49 12,-9 17,-21 31,-21l33 0c40,0 60,-15 98,-28 68,-22 106,-35 169,-68 31,-16 38,-38 73,-46 2,-1 4,2 6,2 25,0 38,-12 62,-20 11,-4 28,-4 28,-16 0,-24 -16,-36 -16,-61l0 -8c0,-4 6,-2 9,-2 8,0 12,8 20,8 18,0 22,-24 39,-24l21 0c20,0 -4,33 5,50 3,7 12,0 19,0 20,0 29,-12 46,-20 33,-15 57,-14 88,-34 30,-20 49,-31 85,-39 47,-10 73,-13 121,-18 30,-3 49,-2 73,-20 12,-9 -7,-37 8,-37l13 0c20,0 28,20 48,20l39 0 114 -24 36 0 150 -28 7 -3 -52 0c-31,0 -89,-13 -70,-39 19,-26 45,-37 45,-69l0 -50c0,-7 11,-2 17,-2 10,0 7,17 16,21 16,8 29,5 48,5 52,0 129,-86 129,-34l0 24c0,44 -71,6 -108,29 -11,7 -13,16 -23,24 -20,18 -46,23 -47,50 0,7 11,3 19,3 44,0 69,-8 113,-13 28,-3 42,-8 70,-11 20,-2 37,4 49,-11 13,-17 4,-36 16,-54 12,-18 27,-21 44,-36 5,-5 5,11 5,19 0,12 -17,32 -5,32l49 0c18,0 -8,46 10,46l60 0 119 -11c11,-1 16,5 26,5l33 0c28,0 44,-10 72,-10l136 0 36 -5 41 0 174 -20c72,-8 114,-2 187,-2 20,0 37,7 53,-7 9,-7 2,-22 -7,-29 -11,-9 -24,-6 -34,-16 -10,-11 -8,-26 -21,-31 -7,-3 -13,0 -21,-2 -20,-4 -31,-15 -51,-15 -17,0 -22,16 -37,23 -25,11 -51,-6 -68,15 -17,20 -34,31 -60,31 -21,0 -30,-18 -51,-18 -31,0 -47,18 -78,18 -25,0 -38,-11 -63,-11 -20,0 -19,34 -39,34 -21,0 -28,-24 -49,-24 -12,0 -13,15 -24,20 -18,8 -29,16 -49,13l-10 -2c-11,-2 0,-18 -3,-28 -6,-15 -24,-15 -41,-15 -17,0 -25,16 -42,13l-10 -2c-10,-2 -6,-18 0,-26 6,-7 15,0 24,0 27,0 3,-55 29,-62l7 -2c3,-1 4,5 8,5 17,0 21,-17 34,-28 12,-9 26,-28 37,-16 12,14 0,29 0,47 0,17 4,37 20,37 28,0 41,-21 69,-21 13,0 18,18 30,15 7,-2 -3,-18 5,-20l7 -2c22,-6 33,16 55,16 12,0 23,-5 27,-16 5,-13 -1,-33 13,-33 20,0 19,34 39,34l43 0c17,0 27,-4 41,-13 14,-10 12,-34 29,-34 18,0 13,36 31,36l45 0c14,0 21,-7 35,-10 16,-3 27,-2 41,-10 14,-7 22,-18 37,-18 8,0 11,8 15,15 8,13 21,15 36,15l53 0c19,0 27,13 46,13 20,0 38,-2 47,-20 11,-21 6,-37 15,-59 5,-13 8,-29 22,-29 18,0 13,26 20,42 4,9 15,8 25,8 19,0 27,-16 46,-16 13,0 19,11 24,23 10,20 25,32 20,54l-2 7 -16 0c-16,0 8,-40 -8,-40l-44 0c-16,0 -25,7 -39,14 -13,6 -15,15 -28,23 -11,7 -21,5 -34,7 -9,1 -15,-3 -23,2 -9,6 -6,17 -13,26 -7,8 -16,8 -26,11 -20,7 -33,8 -53,15 -7,2 -7,17 0,18 49,7 78,0 127,0 41,0 64,5 105,10 27,3 42,1 68,8 27,7 40,15 67,21 48,12 73,17 119,29 44,12 66,34 111,34l45 0 0 -14c0,-12 -16,-12 -21,-23 -9,-18 -14,-29 -15,-49 0,-2 4,-3 7,-3 16,0 24,8 40,8 38,0 64,-35 66,-73 1,-19 -5,-29 -10,-47 -4,-16 -16,-23 -16,-39l0 -14c0,-31 47,-11 75,-23 19,-8 25,-28 46,-28 19,0 28,12 46,18 24,8 64,13 55,37 -11,29 -56,7 -73,33 -10,15 -6,28 -10,46 -6,24 -16,36 -16,60 0,21 26,23 47,24 8,1 13,-2 20,2 14,8 10,33 26,33l32 0c23,0 23,-37 46,-37 26,0 32,34 59,34 27,0 55,-15 55,-43l0 -31 18 0c11,0 14,11 25,13 34,6 74,-4 81,29 6,29 -64,12 -64,42l0 48c0,20 -20,34 -41,34 -31,0 -37,-42 -69,-42l-32 0c-25,0 -35,23 -61,23 -43,0 -63,-31 -106,-31l-42 0c-25,0 -39,-5 -62,-13 -17,-6 -22,-24 -41,-24l-9 0 0 83c0,45 69,20 114,20l37 0c20,0 31,5 51,8 47,8 72,12 119,16 38,4 58,16 96,18 18,1 26,9 44,13 104,23 162,32 264,62 55,16 86,30 140,50 71,27 128,22 179,77 18,19 25,33 42,52 10,11 24,8 37,15 13,7 20,15 29,26 20,23 37,32 65,41 18,6 25,23 45,23 31,0 48,-15 79,-15 19,0 29,5 48,5 21,0 29,-16 43,-31 24,-24 35,-42 62,-64 9,-7 20,-3 33,-7 11,-3 19,0 28,-7 13,-10 4,-29 15,-41 15,-17 44,-15 44,-37 0,-7 -5,-11 -5,-18l0 -37c0,-17 17,-21 24,-36 13,-24 5,-63 33,-64 20,0 26,26 47,26 19,0 24,-20 36,-34 11,-13 26,-7 44,-7 33,1 46,-26 79,-26 40,0 63,10 103,10 125,0 163,-140 288,-140 45,0 70,7 115,7 58,0 103,2 144,-39 31,-31 44,-52 78,-78 16,-13 19,-34 39,-34 10,0 15,5 25,5 22,0 38,6 56,-7 20,-13 28,-29 50,-37 38,-15 57,-29 91,-50 38,-24 59,-38 98,-60 40,-22 80,-29 91,-73l2 -7c3,-12 8,26 21,26 9,0 12,-11 21,-11 14,0 18,15 31,18 18,4 29,2 47,2 22,0 38,5 59,-5 8,-4 15,-9 15,-18l0 -60c0,-8 7,-17 15,-15l13 3c50,13 55,-64 103,-83 20,-8 35,-4 55,-13 26,-11 27,-44 55,-47 44,-5 63,-32 91,-65 13,-16 29,-15 49,-20 32,-8 50,-23 83,-23 42,0 65,11 106,18 68,11 108,15 174,36 41,13 64,26 106,26l64 0c24,0 37,3 61,3 57,0 95,-22 129,-67 26,-34 38,-55 67,-88 40,-46 52,-78 94,-121 22,-22 34,-38 62,-52 10,-5 15,-11 26,-11l71 0c35,0 52,-17 87,-26 51,-14 81,-10 130,-28 28,-10 39,-31 68,-31l58 0c35,0 52,-20 85,-29 20,-6 33,-5 54,-8 17,-3 26,-10 42,-13 45,-8 71,-13 116,-20 35,-5 55,-16 90,-16 63,0 98,0 160,0 55,0 86,-11 140,-21 31,-6 50,-9 81,-11 45,-3 70,-13 114,-20 81,-12 127,-14 208,-23 64,-7 98,-23 162,-23l43 0c38,0 59,-12 96,-15 99,-8 156,-7 256,-7 37,0 60,-8 94,5l96 36c21,8 8,-35 13,-57 1,-2 -4,-2 -6,-2 -8,0 -12,7 -20,7l-33 0c-17,0 -25,-11 -41,-13 -35,-5 -109,-8 -85,-33 33,-34 74,-2 122,-2 11,0 17,8 28,8 24,0 36,-16 60,-20 22,-3 35,-7 54,-18 8,-4 16,-8 16,-17 0,-24 -44,-7 -54,-29 -7,-16 -5,-28 -5,-46 0,-11 13,-13 21,-20 16,-12 22,-23 34,-39 19,-24 27,-42 54,-57 3,-2 2,5 2,9 0,11 -9,15 -16,24 -9,11 -10,22 -10,37 0,30 9,66 38,66 29,0 45,-9 72,-20 11,-4 20,-5 28,-13 10,-10 15,-17 26,-26 36,-29 67,-31 112,-39 27,-5 41,-18 69,-18 56,0 87,2 143,2 51,0 65,53 114,64 29,6 46,3 75,11 15,4 23,13 39,13 20,0 31,-10 50,-10 7,0 13,3 13,10 0,25 -49,18 -49,43 0,48 94,32 94,81 0,10 -10,13 -18,18 -21,12 -37,11 -61,11 -17,0 -25,-11 -42,-11 -11,0 -16,8 -27,8 -21,0 -26,-20 -44,-33 -16,-11 -30,-4 -49,-8 -39,-9 -42,-54 -81,-60 -29,-4 43,12 70,21 14,5 22,10 37,10 22,0 35,-7 56,-15 13,-5 25,-13 25,-28 0,-8 6,-15 0,-20 -7,-6 -14,0 -23,0 -17,0 -26,10 -43,10l-42 0c-19,0 -18,-25 -33,-36 -13,-9 -27,-4 -42,-10 -12,-5 -9,-20 -18,-29 -14,-14 -29,-13 -48,-13 -26,0 -39,17 -64,23 -20,5 -47,0 -47,20 0,9 10,12 10,21l0 8c0,27 -42,2 -68,5 -16,2 -18,19 -29,29 -8,8 -20,5 -32,5 -17,0 -27,-3 -44,-3 -26,0 -35,26 -46,49 -16,33 -45,39 -81,44 -24,3 -34,16 -55,24 -11,5 -20,0 -33,3 -13,3 -13,18 -13,31 0,10 -5,23 5,24 24,4 26,-36 49,-36l116 0c37,0 58,-11 95,-11l30 0c31,0 48,-8 79,-8 61,0 95,-2 156,-2 35,0 53,20 89,20l48 0 116 8 35 0c6,0 9,3 15,3l81 0c35,0 53,11 88,16 55,9 85,17 135,39 44,19 74,23 112,52 15,11 19,24 33,37 18,18 24,33 41,52 14,15 23,24 34,41 19,29 46,32 80,41 6,2 -3,10 -3,16 0,17 7,26 16,39 18,25 22,46 47,64 24,16 44,18 62,41 24,31 22,56 44,88 12,18 22,25 36,41 13,15 16,36 36,36 35,0 43,-34 73,-50 26,-14 55,-19 60,-49 3,-13 1,-21 3,-34 9,-48 49,-164 49,-114l0 96 12 0c25,0 33,-25 56,-34 37,-14 60,-23 100,-23l46 0c11,0 28,16 18,21 -48,26 -85,15 -134,37 -37,17 -49,43 -85,65 -39,24 -65,36 -99,67 -34,30 -65,53 -65,99l0 37c0,29 15,44 36,65 19,19 30,39 57,39 33,0 42,-39 75,-39 10,0 14,10 24,10 20,0 16,-26 24,-44 9,-18 22,-41 39,-33 14,7 -7,24 -7,40 0,35 15,76 50,76 34,0 31,-59 65,-59 15,0 24,10 39,10 18,0 27,-11 44,-16 24,-8 41,-10 67,-10 10,0 23,3 23,13 0,10 -12,11 -21,15 -13,5 -23,6 -37,7 -24,1 -37,11 -60,18 -23,7 -40,4 -57,21 -13,13 -14,34 -32,34 -13,0 -20,-7 -33,-10 -21,-5 -35,-3 -55,-8 -33,-9 -51,-20 -85,-20 -25,0 -41,6 -60,21 -11,9 -26,13 -26,28 0,13 15,15 23,26 18,24 26,40 42,65 21,32 33,67 70,67l35 0c7,0 9,6 15,10 18,10 30,15 50,15 24,0 25,-31 42,-47 10,-9 20,-13 34,-13 7,0 11,3 18,3 15,0 13,-20 16,-34 4,-15 11,-23 23,-33 22,-18 29,-41 57,-46 27,-4 44,-2 68,-15 24,-12 11,-55 37,-55 14,0 20,10 33,15 13,5 29,7 29,21 0,8 -9,9 -15,15 -9,9 -18,10 -28,16 -10,6 -11,20 -23,20l-32 0c-26,0 -38,16 -62,26 -29,12 -64,18 -64,49 0,13 16,16 16,29 0,10 -10,15 -7,24 2,6 10,2 17,2 29,0 50,-14 65,-39 10,-17 15,-37 34,-37 9,0 10,11 15,20 14,24 64,0 65,28 2,40 -71,7 -94,39 -10,13 0,27 -7,42 -6,15 -22,18 -39,18 -49,0 -77,-10 -126,-10 -31,0 -46,16 -77,16 -22,0 -33,-15 -55,-15 -13,0 -27,7 -27,20 0,18 15,24 24,39 11,19 11,33 15,55 5,34 -1,55 15,86 5,11 4,28 16,28 16,0 24,-10 39,-13 26,-5 48,-9 64,-31 26,-35 52,-145 52,-101l0 72c0,31 58,11 67,42 2,5 -8,7 -13,7l-55 0c-22,0 -35,7 -54,18 -8,5 -11,13 -21,15 -28,5 -68,-2 -68,26 0,12 12,17 16,28 11,28 5,47 16,75 7,18 23,19 39,29 28,19 42,43 42,77 0,14 -10,22 -10,36 0,13 7,20 15,31 16,21 14,41 31,62 24,31 38,64 77,64l33 0c7,0 17,2 15,8 -7,17 -26,15 -44,15l-37 0c-7,0 -2,10 -2,17 0,12 13,15 21,24 15,15 20,26 34,41 23,25 33,43 60,62 22,15 35,24 62,29 28,6 72,-12 72,16l0 13 -42 0c-22,0 -33,-13 -54,-13 -3,0 -8,0 -8,3l0 26c0,20 25,19 41,32 19,16 21,32 29,55 2,6 10,2 16,2 11,0 11,-21 22,-18 24,7 25,32 33,55 3,9 12,9 20,13 15,7 24,11 39,20 20,11 28,26 51,26l24 0c21,0 -15,-49 5,-54l7 -2c27,-7 49,26 47,54 -1,16 -26,16 -26,32 0,26 22,45 48,45 17,0 24,-19 25,-36 2,-21 2,-35 16,-50 5,-5 9,10 9,18 0,21 0,32 0,53 0,13 12,22 25,22 21,0 44,-11 44,-32 0,-36 -23,-53 -23,-89 0,-19 19,-25 21,-44 6,-51 -6,-86 21,-130 5,-9 10,14 10,24l0 72c0,17 7,26 11,42 4,14 2,34 16,34 15,0 15,-19 28,-28 18,-13 47,-44 52,-23l2 7c8,31 -20,51 -46,68 -22,15 -50,22 -50,50 0,20 26,24 46,24 15,0 24,5 40,5 31,0 53,4 79,-13 14,-9 15,-24 15,-41 0,-13 -5,-21 -5,-34 0,-3 3,-5 7,-5 11,0 28,3 26,15l-5 23 0 18 31 0c30,0 36,-30 57,-50 8,-8 17,-8 28,-13 18,-8 24,-23 44,-26 3,0 2,4 2,7 0,16 -15,22 -15,38l0 13 14 0c22,0 33,-13 56,-15 11,-1 18,-2 29,-3 9,-1 21,-1 21,-10l0 -13c0,-9 -13,-7 -20,-13 -9,-9 -20,-14 -20,-27 0,-24 36,-10 57,-20 9,-5 10,-13 15,-21 9,-15 21,-22 21,-39 0,-21 -10,-33 -10,-54 0,-21 5,-32 10,-52 4,-17 3,-36 20,-42 7,-3 9,10 9,18 1,40 0,62 0,102 0,34 -12,53 -12,87 0,10 15,11 16,21 2,9 -6,17 0,24 5,6 12,-2 20,-1 29,2 43,21 72,21l27 0c5,0 2,-7 2,-11 0,-26 -21,-36 -24,-62 -5,-42 0,-68 -13,-107 -7,-21 -16,-32 -23,-54 -7,-21 -1,-35 -10,-55 -22,-53 -63,-83 -49,-138l5 -20 0 -36c0,-23 13,34 20,55 7,23 15,36 23,59 9,26 21,39 41,57 13,12 29,19 29,37l0 37c0,20 -7,30 -7,49 0,39 15,60 15,99 0,18 2,35 18,43 32,18 56,11 92,11 28,0 45,1 71,-10 14,-6 28,-13 28,-28 0,-13 -11,-18 -18,-29 -18,-30 -24,-53 -24,-88 0,-10 1,-16 1,-26 0,-15 -15,-20 -19,-34 -4,-13 -2,-21 -2,-34 0,-24 -1,-64 21,-57 22,7 1,39 15,57 7,10 20,13 20,26 0,16 -11,23 -11,39 0,15 11,22 16,36 15,42 -1,82 34,111 24,19 3,-66 33,-70 19,-2 9,41 28,41 18,0 25,-16 42,-16 11,0 18,7 29,7 9,0 16,-7 16,-16 0,-27 -8,-42 -8,-68 0,-8 6,-12 11,-18 11,-13 11,-26 11,-44 0,-16 -21,-14 -31,-26 -24,-28 -46,-48 -44,-85 1,-11 15,8 23,15 25,20 30,44 59,59 28,15 64,16 64,47 0,12 -5,18 -5,30 0,19 24,24 24,43 0,16 -22,16 -38,16l-37 0c-31,0 -16,47 -21,78 -3,20 -24,25 -28,46 -1,3 5,3 8,3 39,0 55,-36 94,-36 15,0 24,10 39,10 11,0 23,-8 23,-20 0,-17 -5,-26 -5,-43l0 -40c0,-23 15,-34 15,-57l0 -36c0,-6 2,-13 8,-13 18,0 22,24 39,24l40 0 2 7c6,26 -64,1 -64,28 0,14 24,17 20,31l-10 32c-4,12 21,0 34,0 26,0 40,-13 66,-13 11,0 25,3 25,15 0,17 -21,20 -37,23 -27,5 -62,5 -62,33l0 15c0,34 52,-2 85,-2l74 0c30,0 48,-31 48,-61 0,-20 -8,-30 -7,-50 0,-2 4,-2 6,-2 12,0 15,11 22,21 11,17 20,33 41,33 27,0 37,-26 64,-26 18,0 26,18 44,18 25,0 34,-22 59,-26 78,-14 122,-26 201,-26 83,0 149,60 213,7l10 -8z"/>
  <path class="fil2 str1" d="M14852 3441c26,-2 59,3 85,7l0 77c0,70 -98,52 -163,73 -52,16 -75,59 -130,59 -36,0 -52,-41 -52,-77l0 -54 44 0c26,0 41,20 67,20 44,0 41,-54 72,-85 21,-21 47,-18 78,-20zm-397 1609c80,20 195,-15 195,65 0,78 -10,134 -65,189l-46 0c7,-54 20,-86 0,-137 -54,31 -60,111 -124,111 -11,0 -15,-11 -26,-13 8,-57 24,-91 59,-137l-13 -52 20 -26zm-4241 4052l33 98c-15,64 -52,93 -52,158l0 129 -39 0c-10,-31 -26,-46 -26,-78 0,-54 20,-86 0,-137 -15,11 -28,20 -46,26 41,-81 39,-181 130,-195zm14899 -717c-3,20 -8,54 -13,72 -44,-31 -46,-73 -78,-117 -20,-26 -54,-21 -85,-33 18,-73 88,-104 163,-104 16,0 26,13 39,20 -8,28 -21,44 -46,59 10,31 26,47 26,80 0,10 -7,15 -7,24zm-1824 1647c0,-36 -9,-65 16,-90 3,-3 -2,-9 0,-13 6,-11 22,7 26,20 7,20 3,33 3,54 0,89 -29,138 -29,226 0,15 15,20 29,26 -3,24 -31,29 -31,52 0,19 3,31 0,49 -16,-14 -22,-36 -44,-36 -17,0 -39,2 -39,20 0,32 3,55 26,78 9,-9 14,-20 27,-20l38 0 0 36c-22,20 -35,36 -49,62 -8,16 -23,24 -23,42 0,23 10,37 10,59l0 67c0,70 -46,108 -111,141l0 42 22 0c35,0 48,-33 83,-33 9,0 15,2 24,3l0 55 -21 3 -26 -13 -13 10c6,18 13,27 13,46 0,42 -39,56 -42,98 -42,-14 -79,-32 -88,-75 -7,-32 3,-78 -29,-78 -19,0 -27,16 -46,16 -10,0 -20,-8 -20,-18 0,-38 49,-46 49,-85 0,-9 -4,-13 -7,-21 -31,15 -41,33 -65,55 -15,13 -19,36 -39,36 -7,0 -7,-8 -13,-10 11,-35 42,-48 42,-85 0,-27 -33,-35 -33,-62 0,-6 6,-7 7,-13 27,8 41,26 69,26 9,0 13,-2 22,-3l0 -40c0,-28 -16,-41 -29,-64 -17,-30 -33,-59 -68,-59 -19,0 -29,7 -47,7 -9,0 -14,-6 -21,-10 25,-12 33,-31 59,-36 41,-7 91,-13 91,-55l0 -80c0,-26 23,-38 23,-64 0,-16 -2,-28 -7,-42 -4,-12 -23,-2 -33,-10 -26,-20 -38,-40 -68,-52 10,-52 72,-52 124,-52 28,0 55,15 59,42 5,32 10,72 42,72 81,0 137,-77 137,-159l0 -67zm2296 753c38,38 117,37 117,91 0,38 -50,46 -88,46 -7,47 -10,73 -10,121 0,33 42,39 42,72 0,28 -37,26 -65,26 -33,0 -61,12 -85,-10 -28,-26 -29,-55 -29,-94l0 -83c0,-43 62,-50 62,-93l0 -66 7 -26c20,2 33,4 49,16zm-6899 2625l0 15c0,59 42,88 42,147 0,37 4,61 -10,94 -14,34 -42,50 -42,88 0,75 -2,119 -16,192 -6,31 -23,47 -23,79l0 32 26 0 0 25c0,36 -26,51 -42,82 -15,29 -16,52 -16,86l0 224c42,-14 50,-50 81,-81l13 10 0 55c0,60 -43,96 -98,121 -46,21 -100,30 -104,81 -5,64 -16,99 -26,163 -7,50 6,94 -33,127 -21,-27 -29,-51 -29,-86 0,-49 33,-73 33,-122 0,-14 -6,-29 -20,-29 -33,0 -37,36 -52,65 -22,45 -19,78 -46,121 -15,23 -28,46 -55,46 -8,0 -12,-4 -20,-7 3,-41 23,-60 23,-101 0,-110 -153,-118 -166,-228 -3,-29 3,-59 -23,-72 -25,-13 -45,-14 -68,-29 -24,-16 -45,-25 -62,-49 -16,-22 -28,-46 -55,-46 -42,0 -56,46 -98,46 -30,0 -51,-11 -72,-33 -13,-15 -12,-33 -29,-42 -46,-25 -75,-38 -117,-68 -46,-33 -71,-60 -98,-111 -97,-182 8,-67 147,13 53,30 98,25 147,62 26,20 33,52 65,52 33,0 51,-13 85,-13 46,0 72,12 114,33 26,13 39,33 68,33 16,0 25,-9 39,-16 20,22 29,40 29,69l0 44c0,18 18,30 36,30 46,0 72,-18 107,-46 18,-14 25,-36 49,-36 58,0 82,49 140,49 22,0 42,-17 42,-39 0,-36 -34,-62 -70,-62 -44,0 -65,29 -109,29 -42,0 -64,-23 -104,-33 -15,-3 -39,3 -39,-13 0,-21 21,-29 39,-39 36,-21 47,-62 89,-62 35,0 55,-2 90,0 2,-11 7,-18 7,-29 0,-6 -4,-8 -7,-13 -10,6 -15,16 -27,16l-25 0 0 -37c0,-22 16,-31 23,-51 11,-35 13,-57 13,-94 0,-28 1,-50 -20,-68 -29,-26 -65,10 -91,-20l-97 0c-39,0 -61,-11 -95,-29 -21,-11 -49,-15 -49,-39 0,-14 15,-20 29,-20 104,0 163,-2 267,7 29,2 43,16 72,16 39,0 37,-65 76,-65l68 0 16 -10c-25,-35 -67,-21 -101,-46 -30,-22 -37,-47 -62,-75l0 -94c-44,-6 -67,-23 -111,-23 -29,0 -43,20 -72,20 -38,0 -75,-25 -75,-64 0,-17 10,-34 27,-34l77 0c39,0 50,46 89,46 10,0 15,-5 23,-10 -16,-40 -28,-88 -72,-88 -44,0 -68,13 -112,13 -39,0 -60,-13 -99,-13 -62,0 -86,49 -143,72 -86,35 -134,68 -226,68 -7,0 -11,-2 -19,-3 24,-48 69,-51 117,-75 69,-34 106,-60 179,-85 31,-10 55,-12 78,-36 13,-13 15,-29 29,-39 44,-31 68,-67 68,-121 0,-57 -59,-77 -59,-134 0,-43 -26,-64 -52,-98 -13,-17 -14,-42 -36,-42 -35,0 -27,65 -62,65 -16,0 -36,-7 -36,-23 0,-29 39,-36 39,-65 0,-24 -28,-36 -52,-36 -46,0 -62,36 -94,68l-13 -10c2,-27 13,-42 13,-68 0,-8 -8,-13 -16,-13 -19,0 -28,13 -46,13l-64 0c-40,0 -60,29 -82,62 -41,59 -79,82 -121,140l-13 -7c14,-86 13,-138 55,-212 44,-76 131,-44 215,-72 -23,-39 -56,-46 -98,-62 -53,-20 -72,-58 -127,-72 -37,-9 -65,2 -94,-20 23,-25 44,-33 72,-52 18,-12 42,-14 42,-36 0,-65 -56,-88 -98,-137 -41,-48 -42,-127 -106,-127 -46,0 -72,20 -109,49 -20,16 -16,52 -42,52 -46,0 -36,-65 -39,-111l-52 0 -13 7 -42 0c-7,-47 -7,-76 -20,-121 -14,10 -29,13 -36,29 -6,14 3,24 3,39 0,33 -12,72 -46,72 -23,0 -36,-23 -36,-46 0,-30 26,-44 26,-74 0,-8 -2,-12 -3,-20l-16 0c-38,19 -49,55 -90,55 -16,0 -37,-3 -37,-20 0,-35 45,-32 75,-49 23,-13 24,-35 42,-52 9,-8 31,-3 31,-16 0,-18 -4,-28 0,-46 46,53 81,76 142,111 33,19 57,24 88,46 20,14 14,52 39,52 36,0 49,-36 85,-36 29,0 43,9 72,13l0 -16c-20,-49 -39,-77 -81,-111 -49,-39 -104,-61 -104,-124 0,-47 26,-72 26,-119 0,-33 -6,-55 -23,-83 -11,-17 -39,-15 -39,-36 0,-19 14,-36 33,-36l10 0c43,55 101,79 101,149l0 86c0,11 -10,15 -10,25 0,37 36,46 52,78 29,59 60,83 85,143 36,88 57,147 134,202 12,-29 23,-46 23,-78 0,-76 -49,-113 -49,-189 0,-33 20,-51 46,-72 27,55 9,94 29,150 15,40 55,53 55,96 0,39 -27,55 -36,93 -9,37 4,68 -23,94l3 26c51,0 54,62 98,88l13 -13 0 -81c0,-33 20,-52 46,-72 17,29 7,51 7,85 0,54 10,83 10,137 10,42 50,42 75,75 28,37 42,81 89,81l24 0 0 -85 11 -16c50,29 79,59 137,59 50,0 73,-39 124,-39 20,0 39,15 39,36 0,22 -31,20 -52,23 -27,4 -42,11 -65,26 -37,23 -64,29 -98,55 54,54 121,37 173,91 20,22 11,48 16,78 10,59 9,100 42,150 22,33 42,62 81,62 17,0 26,-12 42,-16 26,-7 42,0 68,-3l0 -19c0,-23 -33,-19 -46,-37 -11,-16 0,-33 0,-53l0 -80c0,-35 -29,-50 -29,-85 0,-14 16,-15 29,-20 30,-11 49,-15 78,-29l0 -134c37,-16 78,-29 78,-69l0 -55c-6,-1 -7,-7 -13,-7 -29,0 -40,33 -69,33l-27 0 0 -97c0,-22 -18,-32 -18,-54l0 -159 104 -20c-15,38 -69,38 -72,80l26 181c9,2 14,7 23,7 30,0 45,-20 75,-20 49,0 91,39 91,88 0,20 -28,16 -49,16 -8,0 -12,-4 -20,-7 -2,7 -7,11 -7,20 0,18 10,28 10,46 0,33 -29,46 -29,78 0,32 35,37 59,59l0 26c-59,15 -87,37 -147,46 -1,10 -3,16 -3,26 0,21 26,26 26,47 0,37 -29,55 -29,93 0,8 8,13 16,13 40,0 42,-62 82,-62l32 0 0 40c0,53 -20,81 -20,134 0,60 9,88 29,145zm596 1762l33 33c-13,55 -41,79 -81,114 -46,40 -52,111 -114,111 -41,0 -64,-8 -104,-13l0 -27c0,-25 33,-24 55,-35 20,-10 25,-26 36,-46 11,-20 36,-24 39,-46 10,-63 77,-72 137,-91zm1081 -642l42 0c1,9 3,14 3,23 0,30 -11,46 -16,75 -6,35 0,59 -16,91 -9,18 -18,28 -26,46 -7,15 -8,39 -26,39 -7,0 -10,-7 -16,-10 0,-20 -1,-33 -1,-53 0,-42 19,-64 37,-100 20,-39 16,-67 20,-111zm-4397 -1935c0,-42 17,-121 49,-94 42,34 72,46 114,81 37,32 9,76 16,124 7,51 52,72 52,125 0,7 -2,11 -3,19 -95,-15 -155,-72 -182,-163 -5,-17 -20,-20 -33,-33 -15,-15 -13,-36 -13,-59zm-925 2704c0,-13 -4,-22 3,-33 14,-20 29,26 49,39 39,27 88,37 88,85 0,20 -26,26 -26,46l0 25c27,0 42,10 65,23l0 26c-81,18 -122,42 -202,62 -6,-17 -20,-24 -20,-42 0,-10 5,-16 7,-26 34,0 78,-5 78,-39 0,-67 -42,-99 -42,-166zm-2013 -528c29,20 48,50 68,78 10,14 11,36 29,36 7,0 10,-3 16,-3 0,-15 0,-24 3,-39 27,11 36,37 36,65 0,32 -17,65 -49,65 -48,0 -59,-50 -88,-88 -22,-29 -52,-44 -52,-81 0,-19 18,-26 36,-33zm-489 -1580c34,-76 35,-134 98,-189 23,-20 34,-46 65,-46l0 55c0,32 -24,44 -36,72 -10,23 1,42 -7,65 -16,52 -55,76 -55,130 0,10 5,15 10,23 13,-7 20,-11 33,-20 -4,27 0,42 0,69 0,37 -47,45 -85,45 2,37 0,58 0,94 0,39 53,32 88,49 -9,15 -22,23 -40,23 -39,0 -61,-2 -100,0l0 35c0,35 5,67 36,82 18,9 46,6 46,26 0,41 -72,34 -72,75 0,46 45,78 91,78 24,0 37,-15 52,-33 2,-48 0,-76 0,-124 0,-40 -7,-72 20,-101 17,-20 40,-14 65,-20 0,-20 6,-35 20,-49 22,13 9,43 26,62 18,20 40,14 65,23 22,8 33,18 55,26 -14,58 -77,54 -137,65 -6,46 0,72 0,118 0,9 5,14 3,22 -2,12 -26,7 -26,20 0,41 39,57 39,98 0,13 -7,20 -7,33 0,30 31,37 42,65 7,15 8,28 16,42 9,17 29,22 29,42 0,6 -7,7 -7,13l-25 0c-25,0 -33,-23 -56,-33 -24,-11 -42,-8 -65,-23 -27,-17 -29,-41 -52,-62 -42,-39 -91,-13 -147,-33 -24,-8 -49,-17 -49,-42 0,-22 23,-30 23,-52 0,-21 -28,-22 -39,-39 -21,-33 -35,-52 -55,-85 -11,-17 -29,-22 -29,-42 0,-43 38,-57 52,-98 11,-31 11,-52 16,-85 10,-62 29,-96 29,-159l0 -80c0,-32 20,-49 20,-81 0,-37 -24,-54 -29,-91l13 -3c24,14 37,29 65,36zm-1443 990c0,-25 21,-51 46,-46 50,12 18,81 49,121 15,20 41,8 65,16 -2,35 -15,67 -49,75l0 38c0,28 29,38 29,66 0,27 -29,37 -29,64 0,42 55,51 55,93 0,42 -55,50 -55,91 0,11 16,15 16,26 0,48 -55,53 -85,91 -33,42 -41,101 -94,101 -20,0 -32,-10 -52,-10 -15,0 -21,13 -36,13 -24,0 -52,-11 -52,-36 0,-10 7,-16 7,-26 0,-18 -25,-16 -33,-33 -8,-18 -1,-33 -7,-52 -7,-21 -33,-20 -55,-20 -2,-20 0,-30 0,-50 0,-27 -28,-42 -55,-42 -23,0 -37,5 -59,1 0,-49 -10,-83 -42,-118 -20,-21 -47,-18 -68,-39l3 -13 25 0c57,0 106,14 131,65 7,15 24,14 39,16 30,5 49,10 78,20 15,5 39,2 39,20 0,16 -13,23 -13,39 0,32 37,36 65,49 33,15 40,43 55,75 44,-22 47,-65 52,-114 16,-2 26,-2 42,0l0 61c0,16 10,33 26,33 15,0 13,-21 13,-36 0,-28 -10,-46 -29,-65 10,-13 15,-23 20,-39 -6,-1 -7,-7 -13,-7 -18,0 -28,9 -46,10l3 -13c7,-7 16,-12 16,-23 0,-6 -6,-8 -7,-13 -15,7 -22,23 -39,23 -7,0 -7,-9 -13,-10 0,-21 -3,-37 -16,-52 -9,-11 -26,-11 -26,-26 0,-8 7,-11 13,-16 16,9 27,20 46,20 21,0 31,-12 49,-23 15,-9 33,-17 33,-36 0,-24 -26,-34 -26,-59 0,-28 29,-37 29,-65 0,-59 -46,-87 -46,-147zm-4674 -418c0,20 20,25 26,43 9,27 20,41 39,62l0 39 -26 0c-21,-11 -30,-24 -42,-42 -20,-31 -52,-42 -52,-80 0,-21 20,-29 39,-37l13 3c1,5 3,7 3,12z"/>
  <g id="_2395296314448">
   <path class="fil3 str2" d="M2385 3925c11,-2 22,-4 33,-5 50,-1 19,-80 50,-121 18,-25 58,10 78,-13 23,-27 13,-55 13,-91 0,-26 14,-40 20,-65 7,-33 0,-53 10,-85 4,-12 20,-12 26,-23 14,-27 4,-49 13,-78 3,-9 15,-3 25,-3 23,0 37,7 59,7 41,0 60,-26 101,-26 38,0 50,46 88,46 16,0 24,-10 40,-10 21,0 42,0 64,0 19,0 28,16 46,16 37,0 54,-29 91,-29 59,0 84,55 143,55 29,0 39,-33 68,-33 19,0 27,20 46,20 19,0 22,-21 36,-33 26,-22 42,-37 75,-49 9,-3 17,10 26,11 63,3 99,-1 162,-1 15,0 24,7 40,7 28,0 55,1 68,-23 11,-19 -6,-34 0,-55 8,-29 38,-48 68,-42 21,4 0,38 13,55 8,11 24,0 38,0 38,0 57,-23 95,-23 21,0 23,33 44,33 21,0 29,-20 51,-20 13,0 20,7 33,7 10,0 16,-7 26,-7 16,0 16,26 33,26 21,0 28,-23 49,-23 19,0 27,16 46,16 13,0 20,-10 33,-10 20,0 35,-11 50,2 13,11 0,27 0,44 0,7 7,13 15,13 20,0 32,-13 52,-13 33,0 46,29 78,29 41,0 54,-42 94,-42 35,0 35,42 49,75 3,8 17,0 26,0 6,0 7,-7 13,-7 15,0 12,23 23,33 15,13 32,1 52,3 33,4 26,48 52,68 54,42 137,53 127,121 -3,18 -30,1 -46,10 -9,5 -3,16 -3,27 0,21 20,29 20,50 0,14 0,28 0,42 0,27 2,63 29,63 11,0 15,-20 26,-16 22,7 36,15 49,33 12,17 -5,36 3,55 8,20 27,26 49,26 35,0 38,-42 72,-55 5,-2 15,-2 16,3 6,21 -2,33 0,55 1,6 10,3 15,3 34,0 51,-23 86,-23 11,0 10,19 20,23 18,8 37,-7 52,7 15,13 -12,44 7,52 26,10 27,-49 55,-49 20,0 15,33 33,42 8,4 20,0 26,7 25,25 2,58 13,91 8,25 27,34 42,55 18,27 3,51 3,85 0,12 8,22 20,26 19,7 49,7 46,26 -5,26 -46,23 -46,49 0,10 -2,21 7,24 21,7 41,-16 55,0 15,16 15,41 0,57 -13,15 -48,-6 -49,13 -1,30 22,59 52,59 14,0 22,-7 36,-7 11,0 13,15 20,23 8,11 25,-5 36,3 8,6 0,20 0,30 0,19 -10,29 -10,48 0,37 41,55 78,55 31,0 34,-46 65,-46 11,0 16,12 16,23 0,17 -28,23 -23,39 6,17 26,21 26,39 0,24 -20,34 -20,58 0,10 -9,24 0,29 15,7 32,-12 42,0 12,14 12,40 0,54 -11,12 -33,-4 -49,0 -4,1 -5,9 -3,13 10,20 18,48 39,55 18,6 19,-26 36,-33 9,-4 10,15 10,25 0,28 0,55 0,83 0,15 9,24 13,38 7,27 11,59 39,59 29,0 37,-36 65,-36 29,0 16,44 33,68 18,28 47,27 68,52 24,29 57,20 91,36 19,9 23,29 29,49 19,55 25,89 55,140 12,21 41,13 55,33 22,29 28,72 65,72 33,0 48,-26 81,-26 50,0 65,48 104,78 47,36 82,41 134,68 43,23 69,46 119,46 26,0 41,-7 67,-7 37,0 62,11 91,33 15,11 32,13 39,29 6,14 1,27 10,39 19,25 48,22 75,39 40,25 62,42 101,68 42,29 64,49 104,78 31,23 63,33 72,72 15,61 26,96 26,159 0,32 0,64 0,96 0,24 25,31 46,42 42,22 66,44 91,85 21,34 13,67 42,94 19,17 32,17 59,20 15,1 19,12 33,16 17,5 50,-17 52,0 10,78 -20,123 -20,202 0,22 1,37 13,55 16,24 48,12 68,33 33,33 42,67 42,114 0,33 -23,51 -23,84 0,23 0,47 0,70 0,30 -13,47 -13,77 0,14 15,20 29,20 24,0 37,-10 60,-10 58,0 74,54 122,85 19,12 28,25 49,36 28,14 59,24 59,55 0,21 -23,28 -23,49 0,37 39,48 42,85 2,17 -30,10 -42,23 -15,16 -29,27 -29,49 0,42 75,33 75,75 0,33 -46,38 -46,72 0,45 68,46 68,91 0,24 -30,26 -36,49 -5,20 -3,32 -3,52 0,47 10,73 10,121 0,20 -32,12 -46,26 -29,29 -7,72 -33,104 -11,13 -27,15 -36,29 -21,36 -5,68 -16,107 -11,37 -22,57 -39,91 -20,40 -58,44 -81,81 -19,30 4,59 -10,91 -11,26 -36,28 -62,39 -46,20 -76,41 -101,85 -18,30 -20,57 -49,75 -23,14 -48,8 -65,29 -16,20 -5,40 -7,65 -4,54 -64,62 -114,78 -30,10 -72,7 -72,39 0,13 7,20 7,33 0,25 -24,42 -49,42 -16,0 -4,-28 -16,-39 -11,-10 -24,-5 -39,-10 -4,-1 -12,-1 -13,3 -6,30 3,58 -20,78 -7,7 -19,3 -26,10 -20,17 -9,59 -36,59 -10,0 -23,-16 -26,-7 -10,34 -20,58 -49,78 -25,18 -12,50 -36,68 -28,21 -62,-10 -91,10 -15,10 -13,30 -29,39 -28,15 -48,29 -59,59 -7,21 -6,38 -20,55 -13,16 -32,12 -52,16 -33,7 -48,25 -72,49 -25,25 -46,33 -75,52 -34,23 -50,55 -91,55 -24,0 -37,-16 -62,-16 -33,0 -52,5 -85,10 -21,3 -30,23 -52,23 -23,0 -29,-29 -52,-29 -14,0 -19,16 -33,13 -19,-4 -33,-31 -52,-26 -37,10 -19,60 -49,85 -17,14 -44,-4 -65,0 -5,1 -4,12 -10,13 -27,4 -59,-15 -81,0 -15,10 -4,29 -10,46"/>
   <path class="fil3 str2" d="M3090 6773c10,12 13,20 30,20 11,0 15,-10 26,-10 24,0 21,33 39,49 24,21 46,29 79,29 11,0 26,8 33,0 8,-10 0,-26 0,-38 0,-30 -43,-25 -60,-50 -8,-12 -3,-24 -3,-39 0,-45 23,-66 29,-111 1,-6 12,0 19,0 26,0 32,33 58,33 18,0 14,-25 24,-39 13,-19 36,-10 59,-16 45,-12 58,-61 104,-59 19,1 15,36 33,36 34,0 68,0 103,0 30,0 59,19 59,49 0,18 -26,14 -42,20 -27,9 -59,3 -68,29 -14,42 44,72 88,72 17,0 25,-13 42,-13 34,0 36,46 68,55 26,7 42,-5 68,0 28,5 24,63 52,55 47,-13 2,-111 49,-111 65,0 20,143 85,143 23,0 37,-33 55,-20 20,15 1,42 10,65 14,40 48,65 91,65 34,0 31,-59 65,-59 33,0 19,71 52,68 42,-3 19,-72 55,-91 11,-6 7,18 13,29 2,4 9,5 13,3 18,-10 20,-30 39,-39 7,-3 20,-4 23,3 9,29 6,87 33,72 40,-23 21,-108 65,-98 36,8 16,75 52,75 20,0 19,-26 29,-42 13,-20 31,-29 55,-29 22,0 36,23 36,45 0,24 -5,49 0,72 1,5 7,3 12,3 11,0 17,-16 27,-10 13,8 5,24 10,39 2,5 7,7 13,7 12,0 24,-24 29,-13 24,51 31,147 81,121 32,-17 -21,-64 0,-94 18,-25 50,-10 75,-29 12,-10 23,13 39,13 21,0 33,-13 54,-13 30,0 43,21 73,23 37,2 78,18 78,55 0,42 -52,53 -52,94 0,24 23,33 33,55 8,18 2,36 13,52 13,19 29,24 42,42 7,9 6,21 16,26 30,15 50,23 75,46 35,33 30,72 46,117 10,29 18,48 26,78 2,9 14,7 23,7 20,0 30,-42 42,-26 41,51 37,130 101,130 13,0 23,-19 33,-10 33,34 47,75 94,75 22,0 27,-24 42,-39 26,-26 57,-13 94,-13 11,0 10,18 20,23 17,9 29,10 49,10 15,0 17,-18 29,-26 24,-16 53,6 72,-16 22,-26 9,-56 26,-85 8,-14 13,-29 29,-29 10,0 13,10 23,10 15,0 15,-18 26,-26 18,-12 30,-20 52,-20 33,0 38,46 72,46 20,0 29,-10 49,-10 15,0 33,5 33,20 0,23 -42,16 -46,39 -3,16 28,4 42,13 10,6 3,19 3,30 0,23 -29,28 -29,51 0,7 4,14 10,15 33,4 69,-9 101,0 9,3 0,19 0,29 0,21 -25,25 -36,42 -16,25 -6,48 -3,78 2,20 -10,31 -10,51 0,17 11,37 0,50 -42,47 -114,56 -114,121 0,67 44,97 88,147 34,39 48,71 88,104 23,19 41,24 62,46 23,23 23,50 49,68 15,11 30,14 39,29 19,31 30,43 55,68 12,12 31,18 29,36 -3,28 -44,23 -55,49 -9,21 0,46 0,69 0,47 -54,53 -81,90 -17,24 -14,57 -42,65 -75,22 -94,81 -140,143"/>
   <path class="fil3 str2" d="M3657 9607c-3,5 -7,11 -10,16"/>
   <path class="fil3 str2" d="M3426 8736c9,13 19,36 32,27 19,-13 12,-49 36,-49 11,0 13,14 23,20 22,12 39,8 65,7 4,0 6,9 3,13 -12,18 -49,38 -29,49 57,31 47,121 111,121 22,0 20,-39 42,-39 13,0 13,23 26,23 31,0 41,-36 72,-36 17,0 23,16 39,20 20,4 35,-4 52,7 22,13 21,38 42,52 21,14 40,16 66,16 8,0 23,8 25,0 8,-35 22,-64 55,-75 15,-5 31,3 42,-10 13,-15 3,-33 7,-52 5,-32 29,-46 29,-78 0,-23 -46,-16 -46,-39 0,-11 16,-15 16,-26 0,-15 -23,-13 -29,-26 -9,-18 -11,-42 0,-59 7,-11 20,-3 33,-3 22,0 28,29 50,29 7,0 18,6 22,0 6,-11 -8,-29 0,-39 8,-9 20,-3 32,-3 32,0 46,29 77,29 20,0 17,-26 31,-39 17,-16 46,-19 46,-43 0,-17 -3,-28 -3,-45 0,-16 20,-17 33,-26 21,-15 35,-25 49,-46 21,-31 1,-59 13,-94 5,-13 28,8 36,-3 12,-18 -19,-54 0,-65 35,-21 32,-61 68,-78 10,-5 16,22 26,20 18,-5 18,-25 33,-36 7,-5 23,-8 28,0 10,18 -7,34 2,52 4,9 16,3 26,3 7,0 4,-14 10,-13 17,4 24,20 42,20 23,0 29,-26 52,-26 27,0 29,42 55,42 18,0 25,-17 42,-20 20,-3 35,10 52,0 26,-15 15,-68 46,-65 15,1 12,32 26,29 19,-4 15,-32 33,-42 8,-4 19,-2 26,3 4,4 3,8 3,14 0,19 -24,24 -26,42 -1,11 23,9 26,20 7,25 -9,54 0,78 4,10 28,2 26,13 -4,22 -46,31 -33,49 28,36 49,78 94,72 25,-4 -2,-43 13,-65 8,-12 31,-8 42,0 11,7 10,20 10,33 0,42 -42,56 -42,98 0,22 29,27 29,49 0,7 -9,7 -10,13 0,5 -2,13 3,15 21,5 38,-14 55,0 13,10 0,24 0,41 0,13 -10,20 -10,33 0,18 26,21 26,39 0,49 -80,34 -94,81 -4,12 26,10 26,23 0,45 -31,64 -49,104 -21,47 -19,79 -36,127 -12,33 -26,52 -26,88 0,20 17,29 20,49 4,36 -3,57 -3,93 0,86 5,139 39,217 23,51 77,55 134,55"/>
   <path class="fil3 str2" d="M5126 12012c52,17 77,35 132,35 65,0 59,-93 119,-117 19,-8 27,29 49,29 20,0 4,-35 20,-49 16,-15 52,17 65,0 17,-22 0,-56 0,-84 0,-24 30,-24 46,-43 20,-24 19,-47 26,-78 5,-22 29,-23 46,-36 25,-19 30,-55 62,-55 15,0 24,10 39,10 30,0 42,-26 72,-26 8,0 22,8 25,0 10,-21 -2,-36 0,-59 4,-37 39,-50 39,-88 0,-22 -10,-33 -10,-55 0,-39 -16,-98 23,-98 12,0 19,7 31,7 35,0 33,-47 60,-68 19,-15 37,-10 62,-10 13,0 20,7 33,7 24,0 28,-32 33,-55 8,-42 23,-65 36,-108 7,-22 2,-55 26,-55 15,0 24,7 39,7 85,0 153,-59 163,-143 10,-86 81,-117 81,-203 0,-33 0,-66 0,-99 0,-28 20,-41 29,-66 9,-25 -8,-49 10,-68 7,-7 17,-5 26,-10 23,-12 20,-39 20,-65 0,-37 -23,-55 -39,-88"/>
   <path class="fil3 str2" d="M7533 10428c20,-23 19,-50 46,-65 28,-16 53,-10 78,-29 38,-29 52,-69 101,-75 88,-10 120,-78 208,-88 18,-2 24,-20 42,-20 38,0 40,59 78,59 49,0 83,11 124,-16 29,-19 17,-59 46,-78 47,-32 90,-3 147,-16 33,-7 40,-33 62,-59 23,-26 50,-33 85,-33 22,0 33,16 55,16 39,0 49,-38 81,-59 33,-20 61,-19 91,-42 34,-27 15,-69 36,-107 30,-54 75,-63 121,-104 43,-39 32,-98 81,-127 8,-4 17,7 26,7 28,0 56,-5 85,-7 6,0 10,3 15,3 44,0 69,-21 102,-49 26,-22 49,-40 49,-75 0,-24 -13,-36 -13,-59 0,-26 0,-51 0,-77 0,-42 36,-62 75,-76 50,-17 82,-17 130,-39 95,-43 122,-111 212,-166 30,-19 62,-16 81,-46 35,-51 49,-107 111,-114 89,-11 64,-152 153,-169 45,-9 57,-51 65,-94 10,-51 19,-82 52,-121 25,-29 59,-24 88,-49 44,-38 40,-83 62,-137 10,-24 31,-30 46,-52 17,-26 3,-52 13,-81 10,-31 41,-36 55,-65 20,-41 11,-72 26,-114 15,-40 48,-65 91,-65 6,0 3,10 7,13 24,17 42,33 72,33 49,0 67,-37 111,-59 73,-37 96,-87 169,-124 58,-29 72,-74 98,-134 25,-59 106,-47 117,-111 13,-73 71,-103 140,-127 54,-19 81,-43 137,-59 33,-9 47,-25 78,-39 42,-19 85,-10 111,-49 26,-40 44,-81 92,-81 31,0 62,0 93,0 29,0 42,-19 66,-33 52,-30 86,-49 147,-49 6,0 8,6 13,7 28,1 56,0 84,0 19,0 24,18 40,26 25,12 43,13 72,13 67,0 106,-35 150,-85 37,-42 78,-47 108,-94 32,-51 30,-92 72,-134 45,-45 91,-55 155,-55 29,0 45,16 74,16 23,0 49,13 68,0 88,-62 116,-128 212,-176 61,-30 95,-65 164,-65 21,0 42,0 64,0 33,0 51,-19 82,-29 22,-7 35,-15 52,-29 40,-35 73,-43 114,-78 33,-28 48,-62 91,-62 33,0 46,29 78,29 28,0 40,-16 65,-26 44,-18 74,-9 121,-23 61,-18 86,-62 150,-62 31,0 47,16 78,16 36,0 37,-48 72,-59 23,-7 38,-4 62,-10 19,-5 36,-8 42,-26 12,-33 -2,-85 33,-85 22,0 45,0 67,0 28,0 38,-26 53,-49 21,-33 46,-50 46,-89 0,-36 0,-73 0,-109 0,-58 32,-85 46,-141 11,-44 7,-69 13,-114 5,-36 33,-50 33,-86 0,-33 0,-66 0,-99 0,-54 14,-87 14,-141"/>
   <path class="fil3 str2" d="M14455 5050c-14,-57 -6,-96 -29,-150 -19,-43 -49,-64 -49,-111 0,-32 -4,-58 16,-81 27,-31 68,-34 78,-75 19,-81 52,-152 134,-163 39,-5 22,78 60,78 40,0 46,-44 67,-78 16,-27 39,-32 65,-49 20,-13 24,-29 42,-46 46,-42 59,-78 101,-124 20,-21 23,-55 52,-55 15,0 20,13 35,13 16,0 26,-3 42,-3 17,0 24,13 42,13 33,0 46,-24 77,-33 15,-4 24,4 39,0 29,-7 30,-44 59,-52 19,-6 38,-2 49,-20 21,-35 1,-98 42,-98 29,0 41,51 65,36 32,-20 2,-68 29,-94 11,-11 31,-2 39,-16 6,-10 -10,-15 -10,-27 0,-21 0,-42 0,-64 0,-54 67,-55 101,-95 29,-35 29,-91 75,-91 28,0 42,13 70,13 27,0 40,-16 67,-16 15,0 14,19 26,26 19,12 36,13 59,13 45,0 54,-59 99,-59 15,0 23,3 37,3 29,0 41,-23 69,-23 13,0 16,16 29,16 22,0 28,-20 42,-36 15,-17 35,-16 59,-16 13,0 20,7 33,7 40,0 39,-65 79,-65 21,0 43,-4 64,0 5,1 5,11 10,13 5,2 13,4 16,0 14,-19 23,-36 46,-36 33,0 51,13 85,13 30,0 42,-29 72,-29 18,0 28,10 46,10 15,0 24,-10 39,-10 15,0 24,10 39,10 36,0 37,-50 72,-59 65,-16 103,-24 163,-52 44,-20 73,-25 121,-36 52,-12 77,-39 130,-39 23,0 32,21 52,29 50,20 86,5 140,10 16,1 23,16 39,16 38,0 53,-39 91,-39 31,0 21,47 46,65 35,25 67,20 111,20 42,0 64,-20 106,-20 24,0 37,7 62,7 25,0 35,-23 60,-23 29,0 39,33 68,33 36,0 56,-13 92,-13 22,0 45,0 67,0 30,0 41,33 71,33 21,0 33,-7 54,-7 41,0 81,24 81,64 0,28 0,55 0,83 0,39 6,70 36,94 15,11 33,20 33,39 0,19 -10,28 -10,47 0,46 45,56 78,86 21,20 24,41 36,68 16,35 46,51 46,90 0,37 -16,56 -16,93 0,29 20,42 33,68 13,26 11,46 23,72 11,23 34,23 49,42 15,20 -2,44 13,65 13,19 34,19 49,36 23,27 28,50 49,78 37,50 51,83 88,134 32,43 82,42 111,88 14,23 6,43 13,68 23,78 41,136 107,182 45,31 70,53 114,85 75,55 153,75 169,169 3,16 -8,32 -10,49 -2,23 0,46 0,69 0,95 -104,125 -104,221 0,32 10,59 39,72 64,27 153,24 153,94 0,27 0,53 0,80 0,45 33,66 68,94 46,36 78,64 91,121 23,99 112,117 163,205 24,41 3,86 39,117 24,21 57,2 81,23 27,23 12,60 39,81 13,10 26,12 42,16 24,6 23,32 36,52 23,35 59,51 65,91 8,57 48,77 81,124 15,21 11,42 23,65 11,20 36,15 52,29 16,15 12,34 26,52 7,10 20,8 29,16 51,43 38,109 94,143 67,42 112,54 186,85 49,20 68,51 117,72 33,13 63,16 78,46 24,47 19,82 42,130 37,75 92,92 150,153 37,39 42,79 42,134 0,58 -13,90 -13,148 0,55 35,82 72,122 28,31 10,68 26,107 10,23 36,30 36,55 0,16 -19,17 -29,29 -15,18 -26,34 -26,59 0,54 20,117 73,117 42,0 26,-97 67,-85 27,8 -2,65 26,68 44,6 46,-72 91,-72 48,0 42,68 42,116 0,49 59,51 94,83 19,17 19,39 20,65 2,81 95,89 134,160 8,15 10,33 26,39 34,12 62,2 91,23 33,24 35,55 62,85 20,22 50,16 65,42 16,28 16,52 20,85 1,9 -5,19 0,26 3,5 10,3 15,3 13,0 20,-7 33,-7 28,0 34,29 55,46 21,16 45,-3 65,13 27,21 19,53 39,81 26,37 65,38 85,78 12,24 14,41 26,65 10,20 33,19 52,29 41,22 70,25 111,49 33,19 44,46 81,52 45,7 76,-25 114,-3 19,11 22,29 42,36 21,7 40,11 52,29 12,19 3,37 10,59 6,17 25,18 42,23 29,8 54,17 62,46 7,25 4,46 23,65 20,20 47,6 65,26 20,24 14,68 46,68 24,0 37,-10 60,-10 56,0 86,30 132,62 49,33 73,59 111,104 16,20 37,24 46,49 11,30 16,51 31,79"/>
   <path class="fil3 str2" d="M23178 11018c-1,11 3,15 3,26 0,15 0,31 0,46 0,15 0,29 0,44 0,35 0,71 0,106 0,32 -28,42 -42,71 -27,55 -36,92 -36,153 0,7 11,5 16,10 30,23 78,25 78,64 0,40 0,79 0,119 0,23 25,28 42,42 36,27 60,39 88,75 32,41 23,111 75,111 17,0 23,-16 39,-20 52,-11 81,-26 134,-26 28,0 31,36 59,39 32,3 56,-5 81,13 40,28 36,70 68,107 29,34 71,30 94,68 12,20 11,45 33,52 32,11 54,-10 85,0 22,7 26,36 50,36 35,0 71,0 106,0 67,0 88,75 155,75 21,0 42,0 64,0 58,0 90,-23 147,-23 97,0 141,60 222,114 82,55 149,90 176,186 23,82 86,107 160,150 64,37 86,78 143,127 33,29 47,60 55,104 18,96 94,131 94,227 0,22 0,45 0,67 0,35 -16,53 -23,87 -22,112 -49,175 -49,290 0,100 29,156 29,256 0,67 -33,102 -33,169 0,41 3,64 3,104 0,135 -101,196 -101,331 0,45 23,66 39,108 24,61 38,97 55,160 7,24 20,38 20,64 0,54 -2,85 -2,138 0,26 13,40 21,64 7,23 15,41 13,65 -11,155 -108,215 -176,352 -36,73 -32,127 -52,208 -19,80 -93,93 -130,163 -21,39 -24,72 -46,111 -45,83 -130,81 -222,111 -73,24 -106,66 -182,85 -65,16 -109,-33 -169,-7 -121,52 -178,81 -309,91"/>
   <path class="fil3 str2" d="M25342 13279c8,3 16,6 25,6 29,0 44,-14 72,-20 55,-11 90,-25 134,-62 13,-11 15,-26 29,-36 32,-21 63,6 98,-10 72,-32 102,-88 180,-88 21,0 42,0 64,0 32,0 47,23 79,23 71,0 107,-39 178,-39 22,0 33,10 54,16 62,20 103,8 169,16 63,8 92,35 150,59 56,23 81,54 137,78 48,21 81,14 130,29 43,13 54,54 98,65 112,29 181,16 296,29 42,5 64,26 106,26 42,0 60,-28 99,-39 96,-28 152,-45 241,-91 41,-21 62,-52 108,-52 80,0 124,3 204,3 37,0 47,-31 76,-55 37,-32 48,-61 75,-101 17,-25 45,-23 75,-29 40,-9 56,-33 85,-62 29,-29 59,-30 94,-49 96,-51 159,-92 266,-119"/>
   <path class="fil3 str2" d="M26455 9252c64,-11 101,2 163,-13 24,-6 34,-21 55,-33 38,-20 50,-50 88,-72 21,-12 41,1 65,-3 17,-3 22,-19 33,-33 38,-50 89,-43 143,-75 21,-12 22,-35 39,-52 29,-29 56,-28 91,-49 32,-19 54,-33 91,-33 49,0 46,69 88,91 33,17 62,19 85,49 43,57 106,49 178,49 29,0 56,2 70,-23 24,-42 8,-77 23,-124 13,-41 43,-54 65,-91 22,-37 29,-85 72,-85 29,0 58,0 86,0 37,0 50,-29 86,-42 29,-11 50,-2 81,-7 49,-7 74,-25 117,-49 33,-18 48,-49 86,-49 29,0 43,13 72,13 36,0 52,-25 86,-36 94,-29 153,-56 243,-94"/>
   <path class="fil3 str2" d="M10741 11050c0,-128 0,-255 0,-383 0,-77 -30,-116 -46,-191 -17,-80 -5,-130 -26,-208 -28,-104 -85,-156 -85,-264 0,-60 57,-77 104,-114 50,-39 59,-91 59,-156 0,-50 -46,-73 -46,-124 0,-90 28,-137 33,-228 1,-20 42,41 55,26 22,-24 -25,-64 0,-85 33,-26 67,10 107,0 31,-8 26,-59 59,-59 16,0 23,13 39,13 26,0 29,-28 52,-39 36,-18 72,-37 72,-78 0,-26 -20,-39 -20,-65 0,-77 88,-83 143,-137 65,-62 -54,-156 0,-228 40,-54 165,15 165,-52 0,-78 0,-155 0,-233 0,-57 -21,-88 -21,-145 0,-24 15,-38 26,-59 28,-51 24,-111 78,-130 47,-17 81,-5 130,-13 65,-10 95,-45 156,-65 98,-32 168,-26 261,-72 135,-67 73,-254 202,-332 68,-41 130,-37 189,-91 59,-54 96,-104 176,-104 64,0 96,33 160,33 65,0 94,-52 160,-52 49,0 75,20 124,20 65,0 168,-19 218,-62 17,-15 35,-14 55,-23 30,-13 37,-50 68,-49 15,1 11,29 26,29 17,0 16,-25 33,-29 20,-5 33,2 52,-3 44,-11 59,-49 104,-49 35,0 51,24 85,33 6,2 18,6 20,0 6,-19 0,-41 0,-61 0,-34 32,-46 59,-66 47,-36 65,-68 107,-111 24,-24 53,-20 81,-39 26,-18 36,-43 36,-75 0,-20 -5,-33 -5,-53 0,-21 0,-42 0,-64 0,-36 28,-48 47,-79 20,-33 30,-55 55,-85 35,-41 77,-37 124,-62 55,-30 63,-77 101,-127 32,-42 81,-55 81,-108 0,-21 0,-42 0,-64 0,-64 26,-99 26,-164 0,-18 -5,-32 -9,-49"/>
   <path class="fil3 str2" d="M13927 9272c42,-13 59,-52 104,-52 16,0 23,13 39,13 96,0 88,-134 169,-182 90,-54 132,-106 195,-189 54,-70 78,-121 111,-202 16,-39 54,-49 78,-85 28,-41 -37,-105 7,-130 122,-72 262,-99 274,-241 7,-85 17,-137 46,-215 15,-41 34,-85 78,-85 62,0 85,53 143,72 81,26 137,-14 222,7 80,20 76,106 143,150 50,33 98,39 130,91 33,54 7,107 39,163 47,81 78,134 78,228 0,55 -81,46 -111,91 -21,33 -26,64 -26,104 0,70 85,86 85,156 0,29 -32,34 -46,59 -50,91 -98,148 -98,254 0,150 104,222 104,371 0,86 -62,122 -91,202 -37,101 -61,158 -91,261 -7,23 45,36 39,59 -12,44 -46,65 -46,111 0,78 137,72 137,150 0,20 -13,33 -13,52 0,67 91,77 91,143 0,94 -78,134 -78,228 0,18 13,24 13,42 0,50 -26,77 -26,127 0,150 117,215 117,365 0,24 -13,39 -13,64 0,33 0,65 0,98 0,103 -150,114 -150,217 0,44 -21,72 0,111 16,28 46,-26 78,-26 60,0 61,92 78,150 42,145 83,235 195,332 49,42 28,101 59,156"/>
   <path class="fil3 str2" d="M16188 12855c24,2 39,7 64,7 90,0 133,-52 210,-98 31,-18 66,14 98,-7 16,-10 0,-38 0,-57 0,-68 -91,-83 -91,-151 0,-55 1,-96 39,-137 32,-35 75,0 122,0 101,0 153,-75 204,-163"/>
   <path class="fil3 str2" d="M17185 11728c-39,-20 -54,-47 -85,-78 -37,-37 -104,-37 -104,-91 0,-67 72,-90 72,-156 0,-20 -33,-13 -46,-26 -39,-39 -33,-86 -33,-143 0,-78 78,-130 156,-130 11,0 3,22 13,26 29,11 61,-22 85,0 39,36 -20,100 20,137 28,26 39,-65 78,-65 21,0 31,20 52,20 44,0 46,-60 46,-104 0,-31 3,-59 -20,-78 -26,-23 -72,-23 -72,-59 0,-36 39,-49 39,-85 0,-70 -59,-99 -59,-169 0,-33 24,-46 26,-78 8,-119 26,-187 26,-306 0,-67 7,-105 -13,-169 -19,-60 -42,-93 -42,-155 0,-67 0,-135 0,-202 0,-37 23,-55 23,-93 0,-67 -33,-103 -33,-169 0,-33 3,-52 3,-85 0,-80 -55,-117 -55,-197 0,-15 -14,-41 0,-44 146,-26 238,-46 352,-143 44,-38 91,-60 91,-117 0,-119 -130,-155 -130,-274 0,-64 3,-99 3,-163 0,-96 -47,-142 -68,-235 -40,-171 -13,-290 -111,-436 -41,-62 -96,-67 -156,-111 -81,-59 -103,-130 -195,-169 -166,-71 -264,-88 -443,-117"/>
   <path class="fil3 str2" d="M12755 14132c0,20 -10,32 -10,52 0,46 52,61 52,108 0,35 -16,53 -16,88 0,58 89,36 124,81 35,46 52,80 52,137 0,48 -39,68 -39,116 0,13 -9,29 3,33 39,15 67,11 104,29"/>
   <path class="fil3 str2" d="M13171 14956c65,37 87,90 104,163 6,25 8,42 20,65 18,34 78,23 78,62 0,50 -26,76 -26,126 0,23 0,47 0,70 0,32 4,53 20,81 9,17 39,15 39,36 0,29 -40,23 -62,42 -17,15 -18,33 -18,55 0,32 -6,46 -2,78 7,48 31,71 36,121 1,6 -7,7 -13,7 -6,0 -12,-10 -16,-7 -4,4 3,8 3,14 0,32 -24,50 -52,64 -11,6 -24,4 -29,16 -10,24 -16,39 -16,65 0,16 -7,24 -13,39"/>
   <path class="fil3 str2" d="M12706 12956c-12,-32 -31,-48 -26,-81 1,-10 15,-3 25,-3 41,0 61,20 102,20 73,0 134,-61 134,-134 0,-29 0,-58 0,-86 0,-42 -55,-38 -91,-56 -68,-33 -128,-35 -166,-101"/>
   <path class="fil3 str2" d="M18429 14946c-13,39 -28,62 -28,103 0,20 -16,42 2,53 24,16 44,12 72,16 14,2 28,-13 42,-10 24,6 39,20 65,20 50,0 80,-13 130,-13 50,0 83,6 124,36 27,19 23,48 36,78 33,81 45,131 78,212"/>
   <path class="fil3 str2" d="M25232 15257c18,72 19,103 46,172 21,54 99,57 99,117 0,60 -36,89 -36,148 0,33 0,66 0,99 0,94 10,161 71,231 53,61 111,81 132,160 47,179 143,243 163,427"/>
  </g>
  <polygon class="fil4 str3" points="1636,16698 4979,16698 4979,18291 1636,18291 "/>
  <path class="fil5" d="M1253 18191c0,-17 4,-34 13,-51 9,-17 22,-30 38,-39 17,-9 34,-14 52,-14 18,0 35,5 52,14 17,9 29,22 39,38 9,17 14,34 14,52 0,18 -5,35 -14,52 -9,17 -22,29 -39,39 -17,9 -34,14 -52,14 -18,0 -35,-5 -52,-14 -17,-9 -30,-22 -38,-39 -9,-17 -13,-34 -13,-51zm17 0c0,15 4,29 11,43 7,14 18,25 32,32 14,8 28,12 43,12 15,0 29,-4 43,-12 14,-8 24,-18 32,-32 8,-14 12,-28 12,-43 0,-15 -4,-29 -12,-43 -8,-14 -18,-25 -32,-32 -14,-8 -28,-11 -43,-11 -15,0 -30,4 -43,12 -14,8 -25,19 -32,32 -7,14 -11,28 -11,43zm104 -33l5 -17c12,3 21,9 28,18 7,9 10,20 10,33 0,16 -5,29 -16,39 -10,10 -25,15 -44,15 -12,0 -23,-2 -32,-7 -9,-5 -16,-11 -20,-20 -5,-9 -7,-18 -7,-29 0,-12 3,-22 9,-30 6,-8 14,-14 24,-17l4 16c-7,3 -12,7 -16,12 -4,5 -6,12 -6,19 0,11 4,19 11,26 8,7 18,10 32,10 14,0 25,-3 32,-10 7,-6 11,-15 11,-25 0,-8 -2,-16 -7,-22 -5,-6 -11,-10 -20,-12z"/>
  <path id="1" class="fil5" d="M1459 17896l-19 0c14,9 22,23 22,41 0,12 -3,22 -10,32 -6,10 -15,17 -27,23 -12,5 -25,8 -40,8 -15,0 -28,-2 -40,-7 -12,-5 -21,-12 -27,-22 -6,-10 -10,-21 -10,-33 0,-9 2,-17 6,-24 4,-7 9,-12 15,-17l-73 0 0 -25 202 0 0 23zm-73 78c19,0 33,-4 42,-12 9,-8 14,-17 14,-28 0,-11 -4,-20 -13,-28 -9,-8 -22,-11 -41,-11 -20,0 -35,4 -44,12 -9,8 -14,17 -14,29 0,11 4,20 13,28 9,7 23,11 42,11z"/>
  <polygon id="2" class="fil5" points="1398,17844 1373,17844 1373,17767 1398,17767 "/>
  <path id="3" class="fil5" d="M1459 17740l-146 0 0 -22 21 0c-7,-5 -13,-11 -17,-18 -4,-8 -7,-16 -7,-26 0,-11 2,-20 7,-27 5,-7 11,-12 19,-15 -17,-12 -26,-27 -26,-45 0,-15 4,-26 12,-34 8,-8 20,-12 37,-12l100 0 0 25 -92 0c-10,0 -17,1 -21,2 -4,2 -8,5 -11,9 -3,4 -4,9 -4,15 0,10 3,19 10,26 7,7 18,10 33,10l85 0 0 25 -95 0c-11,0 -19,2 -25,6 -6,4 -8,11 -8,20 0,7 2,13 6,19 4,6 9,10 16,13 7,3 17,4 31,4l76 0 0 25z"/>
  <path id="4" class="fil5" d="M1440 17409c8,9 13,18 17,27 3,9 5,18 5,27 0,16 -4,28 -12,37 -8,9 -18,13 -30,13 -7,0 -14,-2 -20,-5 -6,-3 -11,-8 -14,-13 -4,-5 -6,-11 -8,-18 -1,-5 -2,-12 -4,-22 -2,-20 -5,-35 -9,-44 -3,0 -6,0 -6,0 -10,0 -17,2 -21,7 -6,6 -8,16 -8,28 0,12 2,20 6,26 4,6 11,10 22,12l-3 24c-10,-2 -19,-6 -25,-11 -6,-5 -11,-12 -15,-22 -3,-10 -5,-21 -5,-33 0,-13 1,-23 4,-31 3,-8 7,-14 11,-17 4,-4 10,-6 17,-8 4,-1 12,-1 23,-1l33 0c23,0 38,-1 44,-2 6,-1 12,-3 18,-6l0 26c-5,3 -11,4 -18,5zm-55 2c4,9 7,23 9,41 1,10 3,17 5,22 2,4 5,7 8,10 4,2 7,3 12,3 7,0 12,-2 16,-8 4,-5 7,-12 7,-22 0,-10 -2,-18 -6,-26 -4,-7 -10,-13 -17,-16 -6,-3 -14,-4 -25,-4l-9 0z"/>
  <path id="5" class="fil5" d="M1515 17348l-203 0 0 -23 19 0c-7,-5 -13,-11 -17,-18 -4,-7 -6,-15 -6,-24 0,-13 3,-24 10,-33 6,-10 15,-17 27,-22 12,-5 25,-7 38,-7 15,0 28,3 40,8 12,5 21,13 28,23 6,10 10,21 10,32 0,8 -2,16 -5,22 -3,7 -8,12 -13,16l71 0 0 25zm-129 -23c19,0 33,-4 42,-11 9,-8 13,-17 13,-28 0,-11 -5,-20 -14,-28 -9,-8 -24,-12 -43,-12 -19,0 -33,4 -42,11 -9,8 -14,17 -14,27 0,11 5,20 15,28 10,8 24,12 43,12z"/>
  <path id="6" class="fil5" d="M1415 17201l-4 -25c10,-1 17,-5 23,-12 5,-6 8,-15 8,-26 0,-11 -2,-20 -7,-25 -5,-6 -10,-8 -16,-8 -6,0 -10,3 -13,7 -2,3 -5,12 -8,25 -5,18 -9,31 -12,38 -3,7 -8,12 -14,16 -6,4 -12,5 -20,5 -7,0 -13,-2 -18,-4 -6,-3 -10,-7 -14,-12 -3,-4 -5,-9 -7,-16 -2,-7 -3,-14 -3,-21 0,-11 2,-22 5,-30 3,-9 8,-15 13,-19 6,-4 13,-7 23,-9l3 24c-8,1 -14,4 -18,10 -4,5 -6,13 -6,22 0,11 2,19 6,24 4,5 8,7 13,7 3,0 6,-1 9,-3 3,-2 5,-5 7,-10 1,-3 3,-10 6,-22 5,-18 9,-30 11,-37 3,-7 7,-12 13,-16 6,-4 13,-6 21,-6 8,0 16,2 23,7 7,5 13,12 17,21 4,9 6,19 6,31 0,19 -4,34 -12,44 -8,10 -20,16 -35,19z"/>
  <polygon id="7" class="fil5" points="1459,17043 1431,17043 1431,17015 1459,17015 "/>
  <path id="8" class="fil5" d="M1405 16876l3 -24c17,3 30,9 39,20 9,11 14,24 14,40 0,20 -7,36 -20,48 -13,12 -32,18 -56,18 -16,0 -30,-3 -41,-8 -12,-5 -21,-13 -27,-24 -6,-11 -9,-22 -9,-35 0,-16 4,-29 12,-39 8,-10 19,-17 34,-19l4 24c-10,2 -17,6 -22,12 -5,6 -7,13 -7,21 0,13 4,23 13,31 9,8 23,12 42,12 20,0 34,-4 43,-11 9,-8 13,-17 13,-29 0,-10 -3,-18 -9,-24 -6,-7 -15,-11 -27,-12z"/>
  <path id="9" class="fil5" d="M1385 16840c-27,0 -47,-8 -60,-23 -11,-13 -16,-28 -16,-46 0,-20 7,-37 20,-49 13,-13 31,-19 55,-19 19,0 34,3 44,8 11,6 19,14 25,25 6,11 9,23 9,35 0,21 -7,37 -20,50 -13,13 -32,19 -57,19zm0 -25c19,0 33,-4 42,-12 9,-8 14,-19 14,-31 0,-12 -5,-23 -14,-31 -9,-8 -24,-12 -43,-12 -18,0 -32,4 -41,12 -9,8 -14,18 -14,31 0,12 5,23 14,31 9,8 23,12 42,12z"/>
  <path id="10" class="fil5" d="M1459 16673l-146 0 0 -22 21 0c-7,-5 -13,-11 -17,-18 -4,-8 -7,-16 -7,-26 0,-11 2,-20 7,-27 5,-7 11,-12 19,-15 -17,-12 -26,-27 -26,-45 0,-15 4,-26 12,-34 8,-8 20,-12 37,-12l100 0 0 25 -92 0c-10,0 -17,1 -21,2 -4,2 -8,5 -11,9 -3,4 -4,9 -4,15 0,10 3,19 10,26 7,7 18,10 33,10l85 0 0 25 -95 0c-11,0 -19,2 -25,6 -6,4 -8,11 -8,20 0,7 2,13 6,19 4,6 9,10 16,13 7,3 17,4 31,4l76 0 0 25z"/>
  <g id="_2395296321328">
   <g>
    <polygon class="fil6 str4" points="1774,17307 2728,17307 2728,17407 1774,17407 "/>
    <polygon class="fil2 str4" points="2728,17307 3683,17307 3683,17407 2728,17407 "/>
    <polygon class="fil6 str4" points="3683,17307 4637,17307 4637,17407 3683,17407 "/>
    <polygon class="fil6 str4" points="3304,17606 4830,17606 4830,17705 3304,17705 "/>
    <polygon class="fil2 str4" points="1777,17606 3304,17606 3304,17705 1777,17705 "/>
   </g>
   <path class="fil7" d="M2695 16942c7,-16 15,-28 25,-37 10,-9 23,-13 38,-13 19,0 33,6 43,18 8,9 11,19 11,29 0,17 -11,35 -32,53 14,6 25,14 33,24 7,10 11,23 11,37 0,20 -6,38 -19,53 -17,19 -41,29 -73,29 -16,0 -26,-2 -32,-6 -6,-4 -9,-8 -9,-13 0,-3 1,-6 4,-9 3,-3 6,-4 10,-4 3,0 6,0 9,1 2,1 6,3 13,6 7,4 12,6 14,7 4,1 9,2 14,2 12,0 22,-5 31,-14 9,-9 13,-20 13,-32 0,-9 -2,-18 -6,-27 -3,-6 -6,-11 -10,-15 -5,-5 -12,-9 -20,-13 -9,-4 -17,-6 -26,-6l-6 0 0 -5c9,-1 18,-4 27,-10 9,-5 16,-12 20,-19 4,-8 6,-16 6,-25 0,-12 -4,-21 -11,-29 -7,-7 -17,-11 -28,-11 -18,0 -33,10 -45,29l-6 -3z"/>
   <path id="1" class="fil7" d="M2867 17016c0,-27 4,-50 12,-69 8,-19 19,-34 32,-43 10,-7 21,-11 32,-11 18,0 34,9 48,27 18,23 27,53 27,92 0,27 -4,50 -12,69 -8,19 -18,33 -30,41 -12,9 -24,13 -35,13 -22,0 -41,-13 -56,-39 -13,-22 -19,-49 -19,-80zm34 4c0,32 4,58 12,79 7,17 16,26 29,26 6,0 13,-3 19,-8 7,-6 12,-15 15,-28 5,-20 8,-48 8,-83 0,-27 -3,-49 -8,-67 -4,-13 -9,-23 -16,-28 -5,-4 -10,-6 -17,-6 -8,0 -15,4 -21,11 -8,10 -14,24 -17,45 -3,20 -4,41 -4,60z"/>
   <path id="2" class="fil7" d="M3043 17016c0,-27 4,-50 12,-69 8,-19 19,-34 32,-43 10,-7 21,-11 32,-11 18,0 34,9 48,27 18,23 27,53 27,92 0,27 -4,50 -12,69 -8,19 -18,33 -30,41 -12,9 -24,13 -35,13 -22,0 -41,-13 -56,-39 -13,-22 -19,-49 -19,-80zm34 4c0,32 4,58 12,79 7,17 16,26 29,26 6,0 13,-3 19,-8 7,-6 12,-15 15,-28 5,-20 8,-48 8,-83 0,-27 -3,-49 -8,-67 -4,-13 -9,-23 -16,-28 -5,-4 -10,-6 -17,-6 -8,0 -15,4 -21,11 -8,10 -14,24 -17,45 -3,20 -4,41 -4,60z"/>
   <path id="3" class="fil7" d="M3353 16886l0 157 40 -37c9,-8 13,-13 15,-15 1,-1 1,-3 1,-4 0,-2 -1,-4 -3,-6 -2,-2 -5,-3 -9,-3l0 -6 69 0 0 6c-9,0 -17,2 -23,4 -6,3 -13,7 -21,14l-41 37 40 51c11,14 19,23 23,27 6,5 10,9 15,10 3,1 8,2 15,2l0 6 -77 0 0 -6c4,0 7,-1 9,-2 2,-1 2,-3 2,-5 0,-3 -2,-7 -7,-13l-48 -62 0 52c0,10 1,17 2,20 1,3 3,5 6,7 3,1 8,2 17,2l0 6 -80 0 0 -6c8,0 14,-1 18,-3 2,-1 4,-3 5,-6 2,-4 3,-10 3,-20l0 -144c0,-18 0,-29 -1,-33 -1,-4 -2,-7 -4,-8 -2,-2 -4,-2 -7,-2 -2,0 -6,1 -11,3l-3 -6 47 -19 8 0z"/>
   <path id="4" class="fil7" d="M3530 17002c11,-12 18,-18 20,-20 5,-4 11,-8 17,-10 6,-2 12,-4 18,-4 10,0 18,3 25,9 7,6 12,14 14,25 12,-14 22,-23 30,-27 8,-4 17,-6 25,-6 8,0 16,2 22,6 6,4 12,11 15,21 3,7 4,17 4,31l0 68c0,10 1,17 2,20 1,2 3,5 6,6 3,2 8,3 15,3l0 6 -77 0 0 -6 3 0c7,0 12,-1 16,-4 3,-2 5,-5 6,-9 0,-2 1,-7 1,-17l0 -68c0,-13 -2,-22 -5,-27 -5,-7 -12,-11 -22,-11 -6,0 -12,2 -18,5 -6,3 -14,9 -22,17l0 2 1 7 0 75c0,11 1,17 2,20 1,3 3,5 7,7 3,2 9,3 17,3l0 6 -79 0 0 -6c9,0 15,-1 18,-3 3,-2 5,-5 7,-9 1,-2 1,-8 1,-17l0 -68c0,-13 -2,-22 -6,-28 -5,-7 -12,-11 -21,-11 -6,0 -12,2 -18,5 -9,5 -17,11 -22,17l0 85c0,10 1,17 2,20 1,3 4,5 6,7 3,2 8,2 17,2l0 6 -78 0 0 -6c7,0 12,-1 15,-2 3,-2 5,-4 7,-7 1,-3 2,-10 2,-20l0 -60c0,-17 -1,-28 -2,-34 -1,-4 -2,-6 -4,-8 -2,-1 -4,-2 -7,-2 -3,0 -7,1 -12,3l-3 -6 48 -19 7 0 0 34z"/>
   <path class="fil7" d="M3003 18056l-16 45 -138 0 0 -6c41,-37 69,-67 86,-91 17,-23 25,-45 25,-64 0,-15 -5,-27 -14,-37 -9,-10 -20,-14 -33,-14 -12,0 -22,3 -31,10 -9,7 -16,16 -20,29l-6 0c3,-21 10,-37 22,-49 12,-11 27,-17 45,-17 19,0 35,6 48,18 13,12 19,27 19,43 0,12 -3,24 -8,36 -8,19 -22,38 -41,59 -29,31 -46,50 -53,56l60 0c12,0 21,0 26,-1 5,-1 9,-3 13,-6 4,-3 7,-7 10,-12l7 0z"/>
   <path id="1" class="fil7" d="M3030 17985c0,-27 4,-50 12,-69 8,-19 19,-34 32,-43 10,-7 21,-11 32,-11 18,0 34,9 48,27 18,23 27,53 27,92 0,27 -4,50 -12,69 -8,19 -18,33 -30,41 -12,9 -24,13 -35,13 -22,0 -41,-13 -56,-39 -13,-22 -19,-49 -19,-80zm34 4c0,32 4,58 12,79 7,17 16,26 29,26 6,0 13,-3 19,-8 7,-6 12,-15 15,-28 5,-20 8,-48 8,-83 0,-27 -3,-49 -8,-67 -4,-13 -9,-23 -16,-28 -5,-4 -10,-6 -17,-6 -8,0 -15,4 -21,11 -8,10 -14,24 -17,45 -3,20 -4,41 -4,60z"/>
   <path id="2" class="fil7" d="M3207 17985c0,-27 4,-50 12,-69 8,-19 19,-34 32,-43 10,-7 21,-11 32,-11 18,0 34,9 48,27 18,23 27,53 27,92 0,27 -4,50 -12,69 -8,19 -18,33 -30,41 -12,9 -24,13 -35,13 -22,0 -41,-13 -56,-39 -13,-22 -19,-49 -19,-80zm34 4c0,32 4,58 12,79 7,17 16,26 29,26 6,0 13,-3 19,-8 7,-6 12,-15 15,-28 5,-20 8,-48 8,-83 0,-27 -3,-49 -8,-67 -4,-13 -9,-23 -16,-28 -5,-4 -10,-6 -17,-6 -8,0 -15,4 -21,11 -8,10 -14,24 -17,45 -3,20 -4,41 -4,60z"/>
   <path id="3" class="fil7" d="M3517 17972c11,-12 18,-18 20,-20 5,-4 11,-8 17,-10 6,-2 12,-4 18,-4 10,0 18,3 25,9 7,6 12,14 14,25 12,-14 22,-23 30,-27 8,-4 17,-6 25,-6 8,0 16,2 22,6 6,4 12,11 15,21 3,7 4,17 4,31l0 68c0,10 1,17 2,20 1,2 3,5 6,6 3,2 8,3 15,3l0 6 -77 0 0 -6 3 0c7,0 12,-1 16,-4 3,-2 5,-5 6,-9 0,-2 1,-7 1,-17l0 -68c0,-13 -2,-22 -5,-27 -5,-7 -12,-11 -22,-11 -6,0 -12,2 -18,5 -6,3 -14,9 -22,17l0 2 1 7 0 75c0,11 1,17 2,20 1,3 3,5 7,7 3,2 9,3 17,3l0 6 -79 0 0 -6c9,0 15,-1 18,-3 3,-2 5,-5 7,-9 1,-2 1,-8 1,-17l0 -68c0,-13 -2,-22 -6,-28 -5,-7 -12,-11 -21,-11 -6,0 -12,2 -18,5 -9,5 -17,11 -22,17l0 85c0,10 1,17 2,20 1,3 4,5 6,7 3,2 8,2 17,2l0 6 -78 0 0 -6c7,0 12,-1 15,-2 3,-2 5,-4 7,-7 1,-3 2,-10 2,-20l0 -60c0,-17 -1,-28 -2,-34 -1,-4 -2,-6 -4,-8 -2,-1 -4,-2 -7,-2 -3,0 -7,1 -12,3l-3 -6 48 -19 7 0 0 34z"/>
   <path id="4" class="fil7" d="M3784 17856c5,0 9,2 12,5 3,3 5,8 5,12 0,5 -2,9 -5,12 -3,3 -8,5 -12,5 -5,0 -9,-2 -12,-5 -3,-3 -5,-8 -5,-12 0,-5 2,-9 5,-12 3,-3 8,-5 13,-5zm14 83l0 127c0,10 1,16 2,20 1,3 4,6 6,7 3,2 8,2 15,2l0 6 -77 0 0 -6c8,0 13,-1 15,-2 3,-1 5,-4 6,-7 2,-3 2,-10 2,-20l0 -61c0,-17 -1,-28 -2,-33 -1,-4 -2,-6 -4,-8 -2,-1 -4,-2 -7,-2 -3,0 -7,1 -12,3l-2 -6 47 -19 8 0z"/>
  </g>
  <polygon class="fil3 str5" points="1040,1050 28662,1050 28662,18521 1040,18521 "/>
  <g id="_2395296319184">
   <polygon class="fil4 str3" points="5110,16695 5926,16695 5926,18288 5110,18288 "/>
   <path class="fil8" d="M5458 17131c-1,3 -2,6 -2,9 0,3 -1,5 -1,7 0,6 2,10 5,12 3,2 10,3 18,3l4 0 -5 23 -78 0 5 -23 3 0c7,0 13,-2 16,-5 4,-3 6,-8 8,-16l38 -154c1,-3 1,-6 2,-8 0,-3 1,-6 1,-9 0,-5 -2,-9 -6,-11 -4,-2 -11,-3 -20,-3l-3 0 5 -23 72 0 62 184 31 -129c1,-4 2,-8 2,-10 0,-3 1,-5 1,-6 0,-6 -2,-10 -5,-12 -4,-2 -10,-3 -18,-3l-4 0 5 -23 79 0 -6 23 -3 0c-7,0 -13,2 -16,5 -4,3 -6,8 -8,16l-51 208 -22 0 -72 -209 -37 155z"/>
   <line class="fil9 str6" x1="5519" y1="18154" x2="5519" y2= "17385" />
   <line class="fil9 str6" x1="5237" y1="17878" x2="5800" y2= "17878" />
   <line class="fil9 str6" x1="5374" y1="18018" x2="5668" y2= "17732" />
   <line class="fil9 str6" x1="5371" y1="17731" x2="5669" y2= "18020" />
   <line class="fil9 str6" x1="5519" y1="17388" x2="5423" y2= "17506" />
   <line class="fil9 str6" x1="5519" y1="17388" x2="5607" y2= "17506" />
  </g>
  <g id="_2395296314864">
   <polygon class="fil4 str3" points="8290,17818 8290,18292 6426,18292 6426,17818 "/>
   <path class="fil8" d="M7482 18157l78 -202 29 0 82 202 -30 0 -23 -61 -85 0 -22 61 -28 0zm58 -83l69 0 -21 -56c-6,-17 -11,-31 -14,-42 -3,13 -7,26 -11,39l-22 59z"/>
   <path id="1" class="fil8" d="M7689 17983l0 -28 25 0 0 28 -25 0zm0 174l0 -146 25 0 0 146 -25 0z"/>
   <path id="2" class="fil8" d="M7806 18134l3 22c-7,1 -13,2 -19,2 -9,0 -16,-1 -21,-4 -5,-3 -8,-7 -10,-11 -2,-5 -3,-14 -3,-29l0 -84 -18 0 0 -19 18 0 0 -36 25 -15 0 51 25 0 0 19 -25 0 0 86c0,7 0,12 1,14 1,2 2,4 4,5 2,1 5,2 8,2 3,0 6,0 11,-1z"/>
   <path id="3" class="fil8" d="M7821 18083c0,-27 8,-47 23,-60 13,-11 28,-16 46,-16 20,0 37,7 49,20 13,13 19,31 19,55 0,19 -3,34 -8,44 -6,11 -14,19 -25,25 -11,6 -23,9 -35,9 -21,0 -37,-7 -50,-20 -13,-13 -19,-32 -19,-57zm25 0c0,19 4,33 12,42 8,9 19,14 31,14 12,0 23,-5 31,-14 8,-9 12,-24 12,-43 0,-18 -4,-32 -12,-41 -8,-9 -18,-14 -31,-14 -12,0 -23,5 -31,14 -8,9 -12,23 -12,42z"/>
   <path id="4" class="fil8" d="M7993 18157l0 -127 -22 0 0 -19 22 0 0 -16c0,-10 1,-17 3,-22 2,-6 7,-12 13,-16 6,-4 14,-6 25,-6 7,0 15,1 23,3l-4 22c-5,-1 -10,-1 -15,-1 -8,0 -13,2 -16,5 -3,3 -5,9 -5,18l0 13 29 0 0 19 -28 0 0 127 -25 0z"/>
   <path id="5" class="fil8" d="M8067 18157l0 -127 -22 0 0 -19 22 0 0 -16c0,-10 1,-17 3,-22 2,-6 7,-12 13,-16 6,-4 14,-6 25,-6 7,0 15,1 23,3l-4 22c-5,-1 -10,-1 -15,-1 -8,0 -13,2 -16,5 -3,3 -5,9 -5,18l0 13 29 0 0 19 -28 0 0 127 -25 0z"/>
   <circle class="fil10 str7" cx="6645" cy="18051" r="119"/>
   <rect class="fil10 str7" x="7103" y="17943" width="227" height="227"/>
   <g>
    <line class="fil9 str8" x1="6819" y1="18050" x2="7039" y2= "18050" />
    <line class="fil9 str8" x1="7036" y1="18051" x2="6972" y2= "18116" />
    <line class="fil9 str8" x1="7036" y1="18050" x2="6973" y2= "17989" />
   </g>
  </g>
 </g>
</svg>
