<?xml version="1.0" encoding="UTF-8"?>
<!DOCTYPE svg PUBLIC "-//W3C//DTD SVG 1.1//EN" "http://www.w3.org/Graphics/SVG/1.1/DTD/svg11.dtd">
<!-- Creator: CorelDRAW -->
<svg xmlns="http://www.w3.org/2000/svg" xml:space="preserve" width="297mm" height="210mm" version="1.1" style="shape-rendering:geometricPrecision; text-rendering:geometricPrecision; image-rendering:optimizeQuality; fill-rule:evenodd; clip-rule:evenodd"
viewBox="0 0 29700 21000"
 xmlns:xlink="http://www.w3.org/1999/xlink">
 <defs>
  <style type="text/css">
   <![CDATA[
    .str1 {stroke:black;stroke-width:10;stroke-miterlimit:3.864;stroke-opacity:0.501961}
    .str3 {stroke:black;stroke-width:50;stroke-miterlimit:3.864}
    .str5 {stroke:#434242;stroke-width:10;stroke-miterlimit:22.9256}
    .str2 {stroke:#3F3E3F;stroke-width:10;stroke-miterlimit:3.864}
    .str0 {stroke:#000066;stroke-width:10;stroke-miterlimit:22.9256}
    .str6 {stroke:#2B2A29;stroke-width:7.62;stroke-miterlimit:22.9256}
    .str4 {stroke:black;stroke-width:7.62;stroke-miterlimit:22.9256}
    .fil9 {fill:none}
    .fil7 {fill:none;fill-rule:nonzero}
    .fil0 {fill:#FEFEFE}
    .fil10 {fill:#D9DADA}
    .fil5 {fill:#FEFEFE;fill-rule:nonzero}
    .fil4 {fill:#D9DADA;fill-rule:nonzero}
    .fil8 {fill:#434242;fill-rule:nonzero}
    .fil6 {fill:#2B2A29;fill-rule:nonzero}
    .fil3 {fill:black;fill-rule:nonzero}
    .fil1 {fill:white;fill-rule:nonzero}
    .fil2 {fill:#FEFEFE;fill-rule:nonzero;fill-opacity:0.501961}
   ]]>
  </style>
 </defs>
 <g id="Plan_x0020_1">
  <metadata id="CorelCorpID_0Corel-Layer"/>
  <rect class="fil0" x="999.95" y="1014.27" width="25356.09" height="18959.94"/>
  <path class="fil1 str0" d="M19146.86 1014.26c-7.67,23.93 -11.72,45.02 -27.98,63.98 -13.78,16.37 -32.48,14.66 -48.27,28.54 -2.82,2.46 -2.33,1.97 0.24,4.25 7.82,6.85 11.9,15.36 11.9,26.82 0,17.61 -21.68,19.42 -32.52,32.51 -21.67,25.29 -25.73,46.97 -32.51,79.48 -9.03,43.81 -23.48,68.65 -23.48,113.81 0,14.45 18.06,15.81 23.48,28.9 7.67,18.06 6.31,31.16 10.84,50.58 9.92,40.65 16.25,64.58 16.25,106.13l0 47.86c0,26.2 9.04,57.36 35.22,57.36 39.29,0 41.55,-61.42 80.84,-61.42l26.65 0c2.25,27.09 6.78,41.99 10.84,68.64 3.16,22.59 1.81,42.46 19.87,56 23.93,18.06 10.84,47.88 23.48,75.87 9.03,20.32 24.84,30.26 46.97,34.32 41.99,8.14 66.83,9.94 104.77,28.91 15.81,7.67 19.42,21.22 34.32,30.7 18.97,11.75 38.38,9.94 50.58,28.91 12.64,19.86 14.45,35.68 14.45,59.61 0,22.58 -1.81,35.68 -5.42,57.8 -3.16,21.23 -7.22,46.97 -28.9,46.97 -19.42,0 -23.93,-23.48 -43.36,-23.48 -4.5,0 -6.77,2.25 -10.83,3.6 -27.1,54.2 -67.73,73.62 -77.68,133.68 13.56,5.42 23.04,5.42 37.94,5.42 0.91,8.13 1.8,13.09 1.8,21.23 0,20.32 -3.16,32.96 -12.64,51.02 -9.93,18.98 -30.71,23.49 -30.71,44.72l0 69.54c0,16.26 -14.01,21.67 -21.68,35.68 -4.54,8.11 -43.89,66.2 -43.23,66.69 4.63,3.41 10.26,3.76 16.59,3.76 7.76,0 22.67,-4.41 22.43,4.69 -0.64,22.84 0.15,36.66 0.15,60.78 0,9.5 5.42,19.43 14.9,19.43 17.62,0 25.74,-12.65 43.35,-12.65 14.46,0 21.68,16.26 21.68,30.71 0,18.06 -23.48,15.81 -39.74,23.48 -15.81,7.23 -16.26,25.29 -16.26,42.91l0 37.02c0,20.78 -5.86,31.62 -10.84,51.94 -2.7,10.84 2.72,19.87 -3.61,28.9 -9.92,14.45 -27.09,12.65 -45.16,12.65 -3.16,0 -4.51,-3.17 -7.22,-3.62l-3.62 7.23c14.46,5.42 30.71,9.94 30.71,25.29 0,13.09 -15.34,14.9 -19.87,27.09 -4.06,10.84 -3.61,18.07 -3.61,29.82 0,12.18 4.06,22.57 14.45,27.99 7.23,3.61 15.81,0 21.68,5.42 12.64,11.75 14.45,25.29 14.45,42.9l0 38.84c0,20.77 23.93,23.03 41.55,33.87 9.48,5.87 11.28,15.36 18.06,23.48 12.64,14.9 23.48,25.29 23.48,45.16 0,28.46 -37.48,32.52 -65.92,32.52l0 39.74c13.09,0.91 20.76,-2.7 33.41,0 17.61,4.06 21.67,22.58 21.67,40.65 0,25.29 -12.64,38.38 -12.64,63.67l0 47.42 21.68 0c13.09,-26.19 18.51,-56 46.96,-56 22.59,0 27.1,29.81 23.49,52.38 0,3.17 -1.81,4.52 -1.81,7.67 0,31.18 7.23,48.78 7.23,79.95 0,10.38 2.71,16.26 0,26.18 -2.71,9.49 -14.01,9.49 -23.49,10.84 -18.06,2.72 -28.45,3.62 -46.96,3.62l0 23.48c20.31,20.32 41.54,17.17 68.64,23.48 17.17,4.07 39.74,5.42 39.74,23.04l0 58.7c0,6.78 9.03,6.33 14.45,10.39 19.87,14.9 27.09,34.32 27.09,59.61 0,14.9 -5.41,23.03 -5.41,37.94 0,12.64 13.55,14.9 19.87,25.28 8.58,13.56 9.03,24.4 9.03,40.66 0,16.7 -13.54,24.37 -25.29,35.21 -17.15,15.81 -26.19,28.01 -37.93,48.78l1.8 7.22 14 0c13.55,0 19.43,-10.84 32.97,-10.84 58.71,0 60.97,92.13 119.67,92.13l38.85 0c33.87,0 15.34,72.26 49.21,72.26 15.37,0 17.17,-23.49 32.52,-23.49 40.65,0 30.71,67.75 70.45,77.68 5.87,-12.2 7.67,-19.87 10.84,-32.52l8.58 0c23.04,0 36.58,23.04 36.58,46.07 0,16.71 -16.26,23.02 -16.26,39.74 0,14.9 3.17,33.42 18.06,33.42 11.75,0 17.17,-9.04 28.91,-9.04 9.94,0 10.83,13.1 10.83,23.04l0 38.83c0,6.33 -5.42,9.03 -5.42,15.36l0 22.12 21.23 0c8.13,0 12.2,-3.61 20.32,-3.61 23.04,0 25.29,30.71 25.29,53.75l0 16.7c-19.87,3.17 -39.74,12.65 -39.74,32.52 0,9.94 12.65,9.94 19.87,16.25 9.95,8.59 14.9,15.36 23.48,25.29l0 20.32c-21.67,0.46 -33.87,-0.45 -55.55,-0.45 -19.86,0 -41.99,9.04 -41.99,28.9 0,9.95 8.14,14.46 16.26,19.88 14.45,9.94 12.64,26.64 12.64,44.26 0,15.35 -17.15,18.96 -21.68,33.41 -9.92,30.26 -18.51,44.71 -34.32,72.26 -19.87,15.81 -43.35,24.84 -43.35,50.58 0,18.97 16.26,25.29 25.29,41.54 11.28,20.78 18.06,35.68 18.06,59.61 0,30.27 -17.61,45.61 -34.32,70.45 -10.84,15.82 -15.81,26.65 -21.67,45.17 -11.74,35.68 -32.52,53.74 -32.52,91.22 0,24.38 27.1,32.06 27.1,56.45l0 40.64c0,12.2 -8.13,17.61 -8.13,29.81l0 163.47c0,25.76 32.06,26.2 55.09,37.49 18.07,9.03 14.45,30.26 14.45,50.58 0,15.36 -14.45,20.78 -14.45,36.13 0,41.54 -1.81,99.35 39.74,99.35 7.68,0 9.03,-7.23 16.26,-10.84 12.64,12.64 21.68,23.48 21.68,41.55 0,15.36 -12.65,22.58 -12.65,37.93 0,11.28 9.03,16.7 9.03,28.01 0,29.35 -29.35,35.66 -45.15,60.5 -6.78,10.84 -8.59,19.43 -14.46,30.71 -4.51,8.59 -4.51,21.68 -14.45,21.68 -8.58,0 -9.48,-9.48 -14.45,-16.26 -9.93,-13.54 -23.48,-14.45 -40.19,-14.45 -4.97,0 -7.22,1.36 -12.2,1.8l0 22.13c0,24.84 31.62,25.29 41.55,48.32 5.42,12.65 4.06,22.13 1.81,36.13 0,28.46 0.45,44.27 0.45,72.71 0,49.68 -1.81,78.14 -7.68,127.81 -3.16,28 -35.67,28.45 -63.22,34.31 -20.32,4.53 -23.04,24.4 -30.71,43.36l0 15.36c9.48,-0.46 15.36,0 24.84,0 11.74,0 16.71,-8.58 25.74,-15.36 7.68,15.81 14.45,24.39 14.45,41.55 0,24.84 -14.45,37.93 -14.45,62.77l0 38.83c0,41.1 16.26,63.23 16.26,104.33 0,18.97 -11.29,27.54 -21.68,43.35 -12.2,18.51 -18.51,30.26 -30.71,48.77 -11.73,17.62 -19.42,27.1 -30.71,45.16 -7.67,12.64 -10.39,28.9 -25.29,28.9 -10.39,0 -15.81,-0.89 -26.18,-0.89 -17.62,0 -26.2,12.64 -38.85,24.38 -21.41,19.62 -42.79,27.25 -54.92,51.31 -3.85,7.71 -2.86,6.83 5.27,6.15 30.91,-2.63 48.86,-19.53 82.17,-19.53 21.68,0 25.29,28.9 46.97,28.9 15.36,0 15.8,-19.42 23.48,-32.51 13.55,-22.57 36.57,-27.1 63.22,-27.1 9.48,0 8.14,12.65 10.84,21.68 6.33,20.32 12.65,32.52 12.65,54.19 0,22.59 5.86,56 -16.71,56l-37.49 0c-0.45,8.58 0,13.56 0,22.13 0,29.36 -8.12,49.23 5.42,75.41 11.75,22.59 30.71,25.74 46.97,45.17 24.39,28.45 30.71,51.93 30.71,88.51 0,29.81 -35.68,30.71 -56,52.38 -7.67,8.59 -1.81,18.51 -1.81,30.27l0 14.9c-11.85,23.7 -5.58,-65.03 -37.02,-65.03 -16.72,0 -26.2,17.61 -26.2,34.32 0,15.36 5.42,24.39 5.42,39.74 0,15.81 -11.73,27.54 -12.65,43.35 21.23,8.58 40.19,15.36 45.16,37.93l-4.97 25.29c-47.41,0 -74.06,8.59 -121.47,14.46 -0.45,4.52 -1.81,6.77 -1.81,11.28 0,16.26 24.39,9.94 39.74,14 15.81,4.07 25.29,17.62 25.29,34.33 0,23.03 -20.77,31.15 -23.48,54.19 -3.62,29.35 -8.59,65.03 -37.94,65.03 -14.67,0 -23.4,-6.56 -35.83,-10.47 -10.02,-3.14 -10.47,-3.13 -3.55,4.7 15.63,17.72 30.54,28.6 35.77,52.73l-1.81 12.2c-10.39,0 -16.25,0.45 -26.65,0.45 -14.45,0 -22.12,-9.03 -36.57,-9.03 -27.66,0 -47.01,1.15 -69.45,14.09 -6.86,3.95 -7.78,4.19 0.05,7.98 22.25,10.84 56.75,3.54 56.75,28.51 0,10.83 -12.19,12.19 -19.87,19.87 -27.99,28 -47.86,40.65 -77.67,66.83 -18.96,16.71 -27.1,30.71 -45.16,48.78 -14.9,14.89 -22.57,30.71 -43.35,30.71 -9.04,0 -13.1,-5.42 -22.13,-5.42 -6.33,0 -9.48,0.91 -15.81,1.8 -0.45,7.23 -1.81,11.29 -1.81,18.51 0,14.46 7.23,22.14 7.23,36.59 0,20.77 -15.35,30.71 -32.51,42.45 -36.58,24.84 -59.17,44.26 -75.87,84.9l-7.23 1.8c-8.12,-8.12 -12.19,-18.06 -23.48,-18.06 -23.04,0 -30.71,20.32 -48.78,34.32 -6.77,4.97 -15.34,0.45 -21.67,5.42 -4.51,3.62 -4.06,9.48 -7.23,14.45 -8.14,11.75 -21.67,15.81 -21.67,30.27l0 23.48c0,32.06 -9.48,50.57 -21.68,79.92 -18.51,-2.7 -25.29,-13.53 -43.35,-18.06 -0.45,3.17 -3.62,4.06 -3.62,7.23 0,10.39 7.23,15.81 7.23,26.2 0,43.8 -33.87,64.57 -72.26,85.8 -25.29,14 -39.74,28.9 -68.64,28.9 -14,0 -20.32,-12.65 -34.32,-12.65 -9.48,0 -12.65,8.14 -19.87,14.45 -15.81,13.56 -23.93,24.85 -36.13,41.55 -27.1,-13.54 -13.56,-52.83 -39.74,-66.84 -10.84,18.07 -18.98,30.71 -37.93,39.74 -16.26,7.68 -37.94,9.04 -37.94,27.1 0,14 18.96,12.2 27.1,23.48 6.77,9.49 9.03,20.32 9.03,32.52 -7.23,22.12 -12.65,48.77 -36.13,48.77 -23.48,0 -33.43,-18.06 -56,-23.48l-11.75 1.8 0 50.58 46.07 0c1.81,14.01 5.42,22.13 5.42,36.13 0,10.39 -3.61,18.07 -10.83,25.29l-37.49 0c-13.54,0 -21.68,-5.42 -35.22,-5.42l-49.68 0c-9.48,0 -13.55,7.23 -22.13,10.84 -41.55,18.98 -63.67,41.55 -109.29,41.55 -15.8,0 -27.1,-0.45 -38.83,-10.84 -7.68,-6.78 -9.48,-18.07 -19.87,-18.07 -13.1,0 -17.17,13.1 -28.9,18.07 -42.46,19.42 -68.2,28.45 -113.81,36.13 -25.29,4.06 -41.1,0.45 -65.03,9.03 -9.48,3.16 -11.75,12.64 -18.06,19.87 -16.26,17.62 -32.07,25.29 -56,25.29 -18.51,0 -21.23,-25.29 -39.74,-25.29 -11.29,0 -17.62,7.22 -28.9,7.22 -26.65,0 -31.16,-36.12 -57.81,-36.12 -23.93,0 -42.46,4.06 -57.8,21.67 14,17.62 38.38,5.87 54.19,21.68 10.84,10.84 12.65,22.59 12.65,37.93 0,32.97 -34.33,42.91 -65.04,54.2 -27.09,9.94 -34.32,37.93 -63.22,37.93 -23.04,0 -34.77,-13.09 -57.81,-14.45 -7.22,22.59 -3.61,40.65 -19.86,57.8 -31.62,33.43 -70.45,14.9 -115.62,25.29 -17.17,3.62 -30.7,-4.51 -45.16,5.42 -18.51,12.65 -11.28,33.88 -23.48,52.39 -8.14,12.19 -18.06,16.7 -30.71,23.48 -15.81,8.59 -21.22,25.29 -39.74,25.29 -12.64,0 -11.74,-15.81 -19.87,-25.29 -22.12,-25.29 -42.46,-41.55 -75.87,-41.55 -7.22,0 -12.64,1.36 -18.06,5.42l-1.81 7.23c37.03,14.45 61.42,40.19 61.42,79.48 0,21.23 -12.2,37.49 -32.51,43.35 -22.59,6.33 -42,7.23 -54.2,27.1 -10.84,17.62 -24.84,25.74 -27.09,46.97 -0.82,7.13 -6.06,81.53 -21.5,63.69 -10.37,-12.02 -8.7,-27.22 -14.63,-43.82 -7.68,-20.77 -19.87,-37.94 -42,-37.94 -23.09,0 23.93,66.39 23.93,102.07 0,19.41 -17.16,28.44 -34.31,37.02 -19.43,9.48 -32.52,13.1 -50.59,25.3 -14,9.48 -15.36,23.03 -23.48,37.93 -11.29,20.32 -18.06,34.32 -18.06,57.8l-37.49 0c-16.26,0 -27.99,6.34 -36.58,19.87 -16.7,26.65 -0.9,74.07 -32.51,74.07 -7.68,0 -9.94,-6.78 -16.26,-10.84 -18.51,-12.2 -29.81,-20.32 -50.58,-28.9 -3.16,5.41 -7.67,11.28 -10.83,16.25 -13.56,15.36 -11.75,31.16 -18.07,50.58 -4.97,14.45 -18.06,20.32 -18.06,35.68l0 51.48c0,16.72 -7.68,30.71 -23.49,35.68 -9.94,-20.32 -6.77,-37.49 -21.67,-54.2 -23.93,-26.64 -46.07,-34.76 -68.65,-63.22 -7.67,-9.93 -16.26,-14 -21.67,-25.29 -9.95,-20.31 0,-37.93 -7.23,-59.61 -4.97,-15.35 -13.55,-22.12 -21.67,-36.13 -28.46,-49.22 -86.26,-50.13 -102.97,-104.77 -16.71,-54.19 -24.84,-97.09 -74.06,-126.44 -20.78,-12.2 -29.35,-25.74 -50.58,-36.13 -11.29,-5.42 -24.84,-4.51 -28.9,-16.26 -6.33,-18.51 -7.68,-31.16 -16.26,-48.78 -10.39,-21.22 -30.71,-22.57 -50.58,-36.12 -30.71,-20.77 -41.55,-39.74 -68.64,-65.03 -42.46,-39.29 -75.43,-60.51 -133.68,-66.84 -21.67,-2.25 -34.77,-3.16 -54.19,-12.64 -36.57,-18.07 -46.07,-53.29 -86.71,-57.81l-1.8 7.23c22.12,37.48 37.02,61.86 75.87,81.29 21.67,10.84 36.57,12.19 57.8,23.48 38.83,20.78 55.55,41.99 93.94,65.03 57.8,34.32 89.4,55.1 137.28,102.96 24.38,24.4 28.9,47.42 54.19,70.45 11.74,10.84 14,22.59 27.1,30.71 32.96,20.32 65.03,22.13 83.09,56 23.93,44.26 23.49,78.58 57.81,115.61 31.15,33.87 63.67,52.83 66.83,99.35 1.36,18.98 2.71,32.07 14.46,46.97 17.15,21.67 43.35,29.35 43.35,57.35l0 40.64c0,38.4 -7.23,59.61 -7.23,98.01l-21.67 0c-3.62,-11.75 -13.09,-18.97 -25.29,-18.97 -12.65,0 -22.59,6.77 -27.1,18.06 -3.16,7.22 -3.16,18.06 -11.29,18.06l-38.84 0c-15.35,0 -20.32,12.65 -31.16,23.49 -26.2,26.2 -24.39,60.52 -57.8,75.87 -45.16,21.22 -64.58,44.26 -112,63.22 -18.97,57.8 -68.19,70 -101.16,121.03 -21.67,33.42 -40.65,47.41 -66.83,77.67 -14.46,16.71 -21.68,36.13 -43.81,36.13l-64.58 0c-2.25,19.87 0,33.43 -9.03,50.58 -11.28,21.68 -33.87,20.32 -52.38,36.13 -13.1,11.28 -18.07,20.78 -28.91,34.32 -13.55,17.17 -32.06,15.81 -54.19,16.26 -18.51,0.44 -28.45,7.22 -46.96,7.22 -22.13,0 -24.4,-26.65 -32.52,-46.97 -13.38,-32.81 -32.28,-53.47 -63.16,-66.46 -5.86,-2.47 -5.5,-2.93 -6.34,3.43 -0.7,5.2 -0.95,9.52 -0.95,15.62 0,24.38 1.81,38.83 9.03,61.87 5.87,18.51 21.68,25.29 21.68,44.71l-4.15 19.78c-6.78,1.7 -10.34,4.67 -14.82,6.86 -8.19,4.03 -14.74,2.81 0.28,4.02 7.88,0.66 14.36,0.25 24.11,-0.4l0 19.41c0,6.33 -7.23,7.22 -10.84,12.2 -16.26,22.12 -19.87,40.64 -19.87,68.19l0 43.8 14.45 52.39 0 14.45c-4.06,0.44 -6.33,1.8 -10.39,1.8 -20.32,0 -29.8,-16.25 -50.13,-16.25 -15.8,0 -25.88,-1.56 -41.23,0.69 -10.57,-6.06 -23.01,1 -30.12,11.95l35.68 0c18.96,0 31.16,18.98 31.16,37.93 0,18.52 -16.7,23.94 -28.9,37.94 -16.26,18.98 -23.04,33.42 -28.9,57.81l1.8 12.64c22.13,1.36 41.55,0.45 54.19,18.06 35.22,48.33 22.58,91.23 50.58,144.51 4.06,7.68 13.09,5.87 21.68,7.23 30.26,4.97 56.9,-2.7 75.87,21.68 22.57,29.35 30.71,53.29 30.71,90.32 0,20.31 -4.53,35.68 -19.88,48.77 -9.02,7.67 -23.48,9.03 -23.48,21.23l0 14.9c23.48,1.8 50.58,9.94 50.58,33.42 0,40.19 -36.12,56.45 -36.12,96.64 0,23.03 2.25,54.19 25.28,54.19 14.01,0 18.07,-17.15 18.07,-31.16l0 -33.42c0,-14.45 9.92,-22.58 23.48,-29.35 4.06,8.58 12.64,11.75 12.64,21.23 0,17.61 -1.8,27.99 -1.8,45.61l-9.03 77.67c-0.45,17.62 -1.81,28.01 -1.81,45.61l0 14.45c0,33.43 27.1,48.77 27.1,82.2l0 37.02c0,17.17 -7.23,26.65 -7.23,43.82 0,15.35 9.93,22.57 14.45,37.02 6.32,19.87 5.42,32.96 5.42,54.19 0,66.84 -27.1,102.97 -27.1,169.8 0,15.37 6.32,23.04 9.04,37.94 5.86,30.71 4.97,48.77 9.03,79.48 2.25,18.06 9.03,28.45 9.03,46.96 5.42,0.92 9.48,2.26 14.45,3.62 4.06,-10.84 7.23,-17.62 7.23,-29.35l0 -35.23c0,-29.35 -9.03,-45.16 -9.03,-74.52 0,-12.19 14.9,-14.89 27.09,-16.25 12.2,-1.36 14.45,-15.35 16.26,-27.1 3.17,-22.57 11.29,-35.21 21.68,-56 14.9,3.62 18.06,18.98 19.87,34.32l-3.62 14.46 0 51.02c0,41.55 -16.25,64.14 -16.25,105.68l0 89.42c0,55.55 -28.91,84 -28.91,139.55 0,32.52 30.71,55.09 63.23,55.09 7.22,0 10.84,-3.61 18.06,-5.42l14.45 0 0 18.51c0,9.49 -7.67,14 -9.03,23.04 -2.25,14 -0.91,24.84 -9.03,36.12 -9.94,14.01 -25.29,15.81 -34.32,30.71 -30.71,49.22 -59.61,71.36 -77.68,126.45l0 94.38c0,59.61 -34.77,88.07 -41.55,147.68 -4.06,37.48 -15.8,56.91 -28.9,92.12 -6.78,18.07 -6.78,31.62 -18.06,46.97 -40.65,54.64 -65.03,95.74 -65.03,164.38 0,15.37 13.09,21.68 25.29,30.71 27.54,-46.05 32.07,-77.22 48.77,-128.25 6.32,-19.42 14,-29.8 27.1,-45.16 15.34,-17.62 23.48,-37.94 46.96,-37.94 10.39,0 19.87,7.23 19.87,17.62 0,22.12 1.81,34.77 1.81,56.89l0 14.45c0,56.91 -45.61,75.43 -75.87,124.2 -30.71,49.68 -51.03,74.51 -92.12,115.61 -26.65,26.64 -34.77,47.87 -57.81,77.67 -35.68,46.07 -63.67,66.39 -115.61,92.13 -20.32,9.94 -30.71,19.42 -52.39,27.09 -114.71,41.55 -161.21,101.16 -278.18,131.87 -48.32,12.65 -74.97,19.87 -124.64,25.29 -44.27,4.97 -65.03,25.74 -108.39,34.32 -27.54,5.42 -43.79,18.51 -70.45,27.1 -20.31,28.45 -46.06,32.96 -81.28,39.74 -31.62,6.33 -48.78,10.39 -79.48,18.06 -56,14 -85.81,28.91 -135.48,57.81 -17.17,9.94 -29.82,11.75 -46.97,21.68 -63.22,37.93 -100.71,55.1 -168,84.89 -37.03,16.26 -54.19,30.71 -90.31,48.78 -30.26,14.9 -63.23,23.93 -63.23,57.35l0 47.87c0,14.45 -5.42,21.67 -9.03,35.68 -3.17,13.55 -7.67,28.9 -21.68,28.9 -21.22,0 -25.74,-27.1 -46.96,-27.1 -21.68,0 -21.23,27.55 -30.71,46.97 -13.1,26.2 -32.97,31.16 -56,48.77 -30.71,23.49 -42.46,42.46 -66.84,72.26 -11.75,14.45 -22.12,20.32 -30.7,37.93 11.28,7.23 21.67,4.06 34.32,9.03 14,5.42 15.81,19.43 19.87,34.33 6.31,21.22 6.77,48.77 28.9,48.77 11.29,0 15.81,-10.84 27.09,-10.84 41.1,0 22.13,84.9 63.23,84.9 14.45,0 21.68,-15.81 21.68,-30.26l0 -28.9c0,-15.8 14.44,-23.49 28.9,-29.35 12.2,-4.97 14,-21.68 27.54,-21.68l20.32 0 0 25.74c0,32.07 -22.13,46.07 -29.8,77.23 -10.84,43.8 -6.78,71.36 -27.1,111.99 -16.7,33.87 -39.74,50.58 -39.74,88.07l0 38.83c0,24.84 -14.45,37.93 -14.45,62.77 0,19.87 9.04,30.71 9.04,50.58 0,32.07 -18.07,50.58 -32.52,79.48 -3.16,20.32 -9.03,31.62 -9.03,51.94l0 45.61c0.45,2.72 3.61,4.06 3.61,7.23 0,22.58 0.9,36.12 -5.42,57.8 -4.06,14.45 -17.16,16.71 -25.29,28.9 -17.17,25.29 -26.2,41.55 -36.12,70.45 -10.84,31.16 -15.37,50.13 -21.68,83.1 -4.06,21.22 -7.23,35.23 -19.87,52.38 -5.87,8.14 -7.23,17.62 -16.26,21.68 -40.19,18.51 -27.1,65.03 -36.13,108.38 -3.16,16.71 -13.09,24.4 -23.48,37.94 -22.13,28.9 -15.81,55.1 -25.29,90.32 -6.78,25.29 -25.29,35.68 -25.29,61.86l0 38.85c0,17.61 1.81,34.32 -12.65,43.8 -12.64,8.13 -23.03,9.03 -36.12,16.26 -18.07,9.94 -26.2,20.78 -45.16,28.9 -15.42,6.71 -27.02,8.6 -38.46,18.64 -5.86,5.17 -5.23,4.11 0.5,7.91 11.44,7.62 15.15,18.44 19.89,33.06 -6.33,37.93 -36.12,47.41 -55.99,79.48 -34.33,55.55 -53.3,89.42 -101.17,133.67 -35.67,32.97 -71.35,27.55 -113.8,52.39 -27.09,15.81 -27.54,45.61 -55.99,57.8 -11.29,4.53 -19.88,1.81 -32.52,1.81 -9.03,0 -14.45,-3.61 -23.48,-3.61 -15.36,0 -22.13,12.64 -30.71,25.29 -12.64,18.51 -19.87,29.81 -34.32,46.96 -13.1,15.36 -23.49,23.93 -43.36,28.91 -14.45,3.61 -25.73,-2.71 -37.93,5.42 -20.78,13.55 -16.71,36.57 -34.32,54.19 -37.49,37.48 -61.42,56.9 -88.52,102.96 -38.84,66.39 -78.12,92.58 -111.99,160.77 -6.78,14 -22.13,11.29 -34.33,21.68 -12.19,10.39 0,26.2 -7.22,39.74 -9.48,17.17 -23.04,23.03 -39.74,32.51 -13.34,7.62 -20.9,15.89 -33.77,21 -7.6,2.99 -9.47,1.09 -2.19,6.69 17.55,13.59 30.54,28.02 30.54,51.35l0 38.83c0,31.62 -35.23,41.54 -66.84,46.52 -1.36,21.67 -0.91,36.12 -12.64,54.19 -11.29,17.17 -28.46,18.51 -41.55,34.32 -16.7,19.87 -28.9,34.32 -54.19,39.74l-1.81 7.23c13.1,6.33 19.87,15.8 19.87,29.81 0,17.6 -0.45,27.99 -7.22,44.25 -9.48,22.12 -36.13,20.78 -43.36,43.35 -5.42,16.26 -3.16,28.01 -10.84,43.35 -7.22,14.9 -22.58,18.98 -37.93,25.3 -19.87,40.18 -14.9,69.08 -32.52,110.18 -5.86,13.56 -17.16,16.71 -25.28,28.91 -11.29,17.17 -10.84,31.16 -21.68,48.77 -21.23,34.32 -49.68,39.29 -72.26,72.26 -37.48,55.1 -46.07,94.84 -93.93,142.7 -53.74,26.65 -64.58,67.75 -110.19,106.58 -21.23,18.06 -41.55,16.26 -68.64,21.68 -21.23,4.06 -23.93,19.42 -43.36,28.9 -18.06,10.39 -28.45,18.51 -39.74,36.13 -5.86,9.48 -3.61,22.58 -14.45,25.28 -15.81,4.07 -29.81,-3.61 -43.35,5.42 -22.59,15.36 -20.32,42.91 -45.16,54.19 -17.17,7.68 -33.42,2.72 -46.97,16.26 -18.51,18.51 -18.97,39.75 -39.74,56 -13.55,10.84 -28,5.87 -43.35,14.45 -11.29,6.33 -12.2,17.62 -18.06,28.91 -7.23,14 -16.26,19.86 -27.1,30.7 -5.42,5.42 -3.61,14.01 -10.84,16.26 -11.75,3.62 -22.13,0 -32.51,7.23 -40.66,28.45 -51.5,56.91 -86.71,92.12 -18.98,18.98 -32.52,28.46 -43.35,52.39 -4.98,10.84 -0.46,22.13 -9.04,30.71 -7.67,7.67 -18.97,2.25 -28.9,7.22 -27.55,14.46 -37.93,32.07 -61.42,52.39 -33.87,29.35 -54.64,43.8 -86.7,75.87 -21.23,21.23 -30.71,38.84 -57.81,50.58 -41.99,18.51 -66.83,28 -102.96,55.99 -18.07,14.01 -19.43,31.62 -34.32,48.78 -24.85,28.01 -40.66,42.45 -66.84,68.64 -20.32,20.32 -22.59,42.91 -46.97,57.81 -41.99,26.2 -72.7,30.7 -110.19,63.22 -17.17,14.9 -18.51,33.43 -37.93,45.16 -14.45,9.03 -25.74,10.39 -39.74,19.87 -16.71,11.29 -28.9,16.71 -41.55,32.51 -11.29,14.01 -9.48,37.94 -27.54,37.94l-35.24 0c-11.73,0 -16.7,9.48 -25.74,16.26 -21.22,16.25 -25.28,33.42 -41.54,54.19 -6.33,8.14 -14.45,8.58 -23.49,14.45 -28.45,18.97 -45.6,37.94 -79.92,37.94l-14.01 0c-22.58,11.28 -33.87,23.93 -55.99,36.12 -15.82,8.59 -28.01,6.78 -43.36,16.26 -40.65,25.29 -59.61,46.52 -102.96,66.84 -34.33,15.81 -64.59,-1.36 -95.74,19.87 -24.4,16.7 -40.65,23.48 -63.23,41.54 -15.36,12.2 -22.59,28.91 -42.45,28.91 -38.39,0 -58.7,-18.07 -97.09,-18.07l-46.07 0c-13.54,0 -21.23,7.23 -34.77,7.23 -42.9,0 -65.48,-18.07 -108.38,-18.07 -47.88,0 -68.65,32.52 -115.61,43.36 -30.71,6.78 -51.49,19.42 -66.84,46.97 -9.94,18.06 -25.28,26.2 -25.28,46.96 0,14.9 9.02,22.13 9.02,37.04 0,10.38 -12.19,15.35 -22.58,15.35 -67.29,0 -102.97,-23.49 -168.89,-37.94 -21.68,-4.51 -30.71,-21.67 -52.84,-21.67l-37.03 0c-19.88,0 -27.1,16.25 -42,28.9 -21.23,18.51 -38.38,26.65 -48.77,52.38 -11.29,27.55 -2.26,47.88 -7.23,77.68 -2.25,14.45 -20.32,16.25 -35.23,16.25 -40.19,0 -60.06,-27.09 -100.25,-27.09 -16.25,0 -25.29,7.23 -41.54,7.23 -27.55,0 -34.77,-34.33 -62.33,-34.33 -17.6,0 -27.55,3.62 -45.16,3.62 -79.93,0 -114.7,-65.03 -194.63,-65.03 -17.17,0 -27.1,1.8 -44.26,1.8 -42.91,0 -56.9,-46.96 -99.8,-46.96 -57.36,0 -87.16,21.22 -139.1,46.96 -25.29,50.58 -77.23,37.94 -130.97,37.94 -50.58,0 -85.35,-4.51 -123.73,-37.94 -29.81,-25.74 -42.9,-57.8 -82.2,-57.8 -80.38,0 -111.08,75.87 -191.48,75.87 -13.09,0 -18.51,-10.84 -31.6,-10.84 -14,0 -19.42,11.75 -32.52,16.26 -22.58,8.13 -36.57,18.97 -48.77,39.74 -9.94,16.7 -4.52,43.35 -23.93,43.35l-46.07 0c-17.15,0 -22.57,15.81 -32.96,28.9 -16.71,20.78 -30.26,33.88 -56,41.55 1.36,5.87 2.7,9.48 2.7,15.81l0 26.65c-14.45,0 -22.12,0.89 -36.58,0.89 -18.95,0 -28.45,-10.83 -47.41,-10.83 -24.39,0 -37.49,10.83 -61.87,10.83l-42.45 0c-13.1,0 -19.87,-9.03 -32.96,-9.03 -26.65,0 -39.3,16.26 -65.95,16.26 -69.98,0 -101.15,-56 -171.14,-56l-44.27 0c-42.9,0 -39.74,72.26 -82.64,72.26 -20.77,0 -28.91,-18.07 -49.67,-18.07 -46.52,0 -67.75,29.35 -104.77,57.81 -18.06,14 -30.71,19.42 -50.58,30.7 -42.46,24.85 -65.03,41.1 -106.58,66.84 -16.26,9.94 -36.12,15.36 -36.12,34.77l0 55.55 -7.23 10.84c-14.45,-5.42 -23.48,-6.31 -37.94,-10.84 -11.75,-3.61 -13.55,-16.7 -23.48,-23.48 -9.94,-6.78 -19.42,-5.42 -30.71,-9.03 -18.51,-5.87 -27.54,-18.07 -46.96,-18.07 -21.68,0 -21.68,34.32 -43.36,34.32 -14,0 -19.87,-9.92 -32.51,-16.25 -34.33,-22.58 -57.36,-37.49 -84.9,-66.84 -15.81,-16.71 -24.85,-30.26 -46.97,-37.93 -16.7,-5.87 -45.16,5.42 -45.16,-12.65 0,-17.61 19.87,-23.93 19.87,-41.54 0,-34.77 -37.49,-52.39 -72.26,-52.39 -11.75,0 -18.06,3.61 -29.81,3.61 -44.25,0 -61.86,-41.55 -106.11,-41.55l-35.24 0c-22.57,0 -43.8,-12.19 -47.41,-34.32 -4.52,-26.65 0.45,-43.35 -9.03,-68.64 -4.06,-11.28 -13.56,-14.9 -21.68,-23.48 -16.7,-18.07 -29.81,-34.32 -54.64,-34.32l-66.13 0c-2.19,0 -2.05,-0.27 -2.08,1.92 -0.51,19.54 -8.81,30.28 -16.24,48.65 -6.78,17.17 -2.72,30.26 -6.33,48.78 0.44,23.87 2.96,37.31 0.35,60.36 -0.39,3.66 -0.4,2.88 -2.14,0.09 -15.7,-24.73 -20.5,-42.86 -37.04,-67.68 -25.29,-37.93 -39.74,-64.12 -39.74,-109.74l0 -49.67c0,-27.09 6.78,-46.97 27.09,-64.58 8.59,-7.23 18.51,-8.12 23.49,-18.07 12.64,-25.73 7.22,-45.15 7.22,-74.06 0,-23.93 3.62,-38.83 -3.61,-61.42 -7.23,-21.67 -32.52,-18.06 -46.96,-36.12 -23.94,-30.27 -37.49,-47.86 -56.01,-81.29 -10.83,-19.87 -28.9,-24.38 -41.54,-43.35 -19.87,-29.8 -32.51,-48.33 -61.42,-70.45 -14.9,-11.29 -25.74,-16.71 -36.13,-32.52 -7.22,-11.29 -19.87,-16.71 -19.87,-30.71 0,-15.35 21.68,-14.45 37.03,-14.45 19.42,0 28.45,16.26 47.88,16.26 3.16,0 4.5,-3.17 7.22,-3.61l0 -14.91c0,-25.73 -23.04,-33.42 -37.94,-53.74 -12.19,-16.25 -12.19,-34.32 -30.7,-43.35 -6.34,-3.17 -11.75,-0.45 -18.07,-3.62 -8.13,-4.5 -8.58,-13.53 -12.64,-21.67 -14.45,-27.1 -21.68,-45.61 -21.68,-76.77 0,-24.84 9.93,-53.29 34.77,-53.29 5.42,0 8.59,0.91 14,1.81 15.35,0 24.38,-7.23 39.74,-7.23 15.81,0 23.94,7.23 39.74,7.23 15.82,0 23.04,-13.1 32.52,-25.29 22.57,-28 21.68,-52.84 27.09,-88.52 5.42,-34.32 1.36,-55.08 10.84,-88.51 5.42,-18.96 10.84,-29.8 10.84,-49.67 0,-33.43 -16.26,-50.58 -16.26,-84 0,-5.42 3.17,-8.59 3.17,-14.01 0,-37.47 0.45,-59.15 0.45,-96.63 0,-68.2 -48.78,-100.27 -48.78,-168.45 0,-12.69 4.1,-19.81 6.53,-31.46 1.02,-4.88 0.27,-3.77 -4.41,-3.77l-35.99 0c-33.41,0 -42.9,-31.6 -63.67,-57.8 -25.29,-32.07 -32.52,-55.09 -45.16,-93.94 -24.84,-75.41 -39.74,-117.41 -77.68,-186.05 -106.38,-193.68 -239.98,-385.46 -323.34,-592.5 -9.03,-22.57 -18.98,-34.33 -28.9,-56 -19.42,-42 -22.59,-68.64 -34.33,-113.8 -3.16,-12.65 -10.38,-18.52 -14.44,-30.71 -16.26,-48.77 -21.24,-78.13 -34.33,-128.26 -6.33,-25.29 -17.17,-37.48 -27.09,-61.41 -34.33,-83.1 -60.97,-128.26 -81.29,-216.77 -12.2,-53.75 -15.36,-86.26 -39.74,-135.48 -9.95,-20.32 -15.36,-36.13 -36.13,-45.16 -13.55,-5.87 -23.93,-0.9 -37.93,-5.42 -17.17,-5.42 -28.91,-18.07 -28.91,-36.13 0,-11.28 9.04,-15.81 9.04,-27.1 0,-20.31 -25.74,-24.84 -27.1,-45.15 20.77,-15.35 48.77,-22.58 48.77,-48.78 0,-7.67 -10.83,-6.78 -18.06,-9.03 -15.4,-5 -26.98,-5.4 -38.59,-15.32 -3.87,-3.32 -2.94,-2.7 1.48,-3.53 21.56,-4.06 34,-10.19 55.17,-19.09 9.03,-3.61 19.87,-6.31 19.87,-16.25 0,-28.46 -32.06,-41.55 -60.52,-41.55 -44.25,0 -64.12,46.07 -69.54,90.32l-23.03 0c-22.57,0 -30.26,-18.06 -47.42,-32.52 -32.07,-27.09 -48.32,-44.71 -75.86,-75.86 -39.75,-44.71 -94.38,-54.64 -104.78,-113.81 -5.42,-31.6 -40.19,-35.21 -72.25,-41.54 -20.78,-4.06 -32.07,-9.48 -50.58,-19.87 -20.78,-11.29 -22.59,-31.16 -28.91,-54.2 -8.13,-30.26 -8.58,-50.13 -23.48,-77.67 -12.64,-23.03 -9.03,-42 -21.67,-65.03 -8.59,-15.35 -23.94,-14 -39.74,-21.68 -12.2,-5.87 -14.01,-18.06 -18.07,-30.71 -8.58,-25.73 -16.26,-46.96 -41.54,-57.8 -23.94,-10.39 -46.08,-8.59 -59.62,-30.71 -8.14,-13.54 -16.7,-21.23 -21.67,-36.13 -12.65,-36.13 -3.62,-65.03 -28.91,-93.93 -36.57,-41.99 -70.45,-68.64 -70.45,-124.19l0 -46.06c0,-25.29 -6.33,-39.29 -6.33,-64.58 0,-27.55 -0.44,-42.91 0,-70.45 -4.95,-20.77 -7.22,-34.77 -20.76,-50.58 -9.48,-10.84 -24.84,-0.45 -36.13,-9.03 -6.78,-4.98 -6.33,-13.54 -9.03,-21.68 -5.87,-16.71 -12.65,-27.09 -12.65,-45.16 0,-35.22 36.13,-47.86 36.13,-83.09 0,-13.1 -4.97,-20.77 -10.84,-32.52 -23.03,-46.52 -34.76,-73.15 -68.64,-112 -19.87,-23.03 -34.32,-32.96 -54.19,-55.99 -13.1,-15.35 -32.52,-21.23 -32.52,-41.55 0,-30.71 27.1,-54.19 57.81,-54.19l0 -16.71c0,-16.26 -15.36,-23.93 -30.71,-28.45 -20.32,-6.32 -30.26,-18.96 -43.35,-36.13 -23.49,-30.26 -19.88,-56 -25.3,-93.93 -12.19,1.35 -18.51,-0.45 -30.7,-1.81 -10.84,-1.36 -25.29,-1.8 -25.29,-12.64 0,-19.43 30.71,-20.32 30.71,-39.75 0,-20.76 -21.68,-27.99 -21.68,-48.77 0,-26.65 23.48,-37.48 23.48,-64.12 0,-30.71 -10.39,-47.43 -19.87,-76.78 -3.61,-10.84 -16.26,-13.54 -16.26,-25.28 0,-12.65 2.71,-23.94 14.46,-28.91 9.47,-4.06 21.67,-5.86 21.67,-16.26 0,-23.93 -21.67,-34.32 -21.67,-58.25 0,-69.86 -23.01,-173.87 -56,-236.19 -13.56,-25.74 -30.26,-37.93 -32.52,-66.84 -0.91,-14 3.17,-22.12 1.81,-36.13 -1.81,-17.61 -12.64,-26.18 -25.29,-37.93 -18.97,-17.61 -21.68,-37.02 -21.68,-63.22 0,-28.46 15.81,-42 18.07,-70.45 -7.68,-18.51 -13.56,-28.46 -27.1,-43.35 -4.97,-5.42 -13.09,-4.07 -16.26,-10.84 -16.25,-35.22 -9.03,-60.97 -21.67,-97.55 -9.48,-27.54 -37.94,-35.68 -37.94,-65.03 0,-74.2 50.58,-141.56 50.58,-220.83 0,-25.73 -14.9,-37.93 -21.68,-62.77 -13.09,-46.97 -23.48,-74.07 -23.48,-122.84 0,-16.7 -4.06,-29.8 5.42,-43.35 10.39,-14.9 27.54,-9.03 43.36,-18.06 -11.29,-15.35 -12.2,-28.46 -21.68,-45.17 -21.23,-36.57 -30.26,-60.05 -37.94,-101.15 -6.78,-37.94 -34.32,-54.65 -34.32,-93.49 0,-6.31 1.36,-10.37 1.81,-16.7 9.03,-0.45 14,-1.81 23.03,-1.81 14.45,0 22.58,7.23 37.03,7.23 11.75,0 18.51,-0.9 30.26,-0.9l0 -35.23 -52.39 -186.96c3.61,-16.26 12.65,-23.48 12.65,-39.74 0,-13.55 3.16,-25.29 -5.42,-35.23 -8.59,-9.93 -30.71,-4.51 -30.71,-18.07 0,-15.8 10.84,-22.12 14.45,-37.93 5.42,-11.28 14.45,-21.68 14.45,-34.32 0,-23.93 -17.17,-33.41 -34.32,-50.58 -21.68,-21.67 -35.23,-33.87 -54.19,-57.8 -32.97,-41.55 -60.97,-55.56 -101.16,-90.32 -14,-12.2 -17.62,-28 -36.13,-30.71 -30.26,-4.98 -57.36,1.36 -74.06,-23.49 -30.26,-44.25 -48.33,-69.09 -72.26,-117.41 -12.19,-24.38 -31.62,-30.71 -46.96,-52.39 -11.75,-16.26 -19.87,-26.64 -27.1,-45.16 -3.16,-8.58 -3.61,-20.31 -12.65,-21.67 -14.44,-2.71 -26.19,3.16 -37.93,-5.42 -18.97,-14 -19.87,-33.41 -27.1,-56 -17.16,-51.94 -19.86,-83.54 -32.51,-137.29 -9.94,-41.54 -30.71,-61.86 -30.71,-104.32l0 -35.22c0,-29.81 -48.77,-28.9 -48.77,-58.72l0 -53.27c0,-15.36 -16.26,-19.43 -30.71,-24.85 -19.87,-7.22 -26.65,-22.57 -36.13,-41.54 -15.81,-31.61 -5.42,-55.55 -10.84,-90.32 -5.42,-33.88 -20.78,-50.14 -34.32,-81.29 -16.7,-38.83 -21.68,-62.78 -43.35,-99.35 -4.53,-23.93 -12.2,-34.32 -18.06,-57.81 -8.14,-33.87 -5.42,-54.19 -10.84,-88.51 -7.23,-45.16 -19.87,-68.2 -25.29,-113.8 -5.87,-51.03 -4.06,-84.46 -32.52,-126.45 -11.28,-16.71 -25.74,-18.96 -43.35,-28.9 -13.1,-7.23 -14.9,-19.87 -27.1,-28.91 -18.97,-14 -32.06,-21.22 -48.77,-37.93 -29.35,-29.35 -29.81,-58.7 -43.36,-97.55 -10.38,-29.35 -23.93,-42.9 -34.31,-72.25 -9.04,-25.29 -4.53,-51.03 -28.91,-63.23 -8.13,-4.06 -15.81,-1.8 -23.48,-7.22 -28.01,-20.32 -26.65,-47.87 -45.16,-77.68 -12.64,-20.32 -28.9,-23.93 -46.97,-39.74 -40.19,-34.77 -48.77,-74.51 -48.77,-127.34 -18.51,-2.27 -28.45,0.89 -46.96,0.89 -33.43,0 -27.55,-45.6 -41.55,-75.86 -3.62,-8.59 -13.1,-9.04 -21.68,-12.65 -12.64,-5.87 -18.97,-12.64 -30.71,-19.87 -8.58,-4.97 -20.32,-4.97 -21.68,-14.45 -3.61,-20.77 0.45,-35.22 -9.03,-54.19 -12.19,-24.85 -63.22,-6.32 -63.22,-34.32 0,-21.23 10.84,-32.07 10.84,-53.29 0,-14.44 -11.29,-27.09 -25.74,-27.09l-60.52 0c-20.77,0 -27.55,-22.59 -32.97,-42.46 -4.52,-16.26 -10.83,-24.38 -10.83,-41.1 0,-4.51 1.36,-6.76 1.8,-11.28 -1.35,-18.07 -3.61,-32.07 -3.61,-50.14l0 -51.47c0,-18.51 1.36,-29.81 9.03,-46.52 6.78,-15.34 21.68,-21.67 21.68,-38.83 0,-23.03 -23.49,-31.62 -23.49,-54.65l0 -85.8c0,-18.06 -11.74,-26.2 -18.06,-42.9 -10.39,-27.55 -17.62,-42.91 -28.9,-70.45 -2.23,-5.42 -33.7,-39.41 -18.28,-34.89 3.66,1.09 7.16,2.37 11.5,2.37 4.61,0 73.76,10.02 50.13,-1.81 -54.64,-31.6 -66.38,-79.93 -74.06,-142.7 -2.72,-22.13 -10.84,-33.88 -10.84,-56 0,-23.48 12.65,-36.13 12.65,-59.61 0,-28.9 -14.9,-43.35 -28.9,-68.65 -15.82,-28.9 -18.07,-49.66 -18.07,-82.64 0,-17.16 1.36,-26.64 0,-43.8l14.45 0c23.93,18.97 18.07,44.71 27.1,74.06 7.67,25.29 14.45,40.19 14.45,66.84l19.87 0 9.03 -3.62c-6.78,-46.52 -18.06,-70.89 -18.06,-117.41 0,-31.16 -0.45,-48.77 5.42,-79.48 4.06,-22.13 12.64,-33.41 12.64,-56 0,-44.71 -28.9,-66.84 -28.9,-111.55l0 -51.48c0,-32.06 -14.9,-50.13 -36.13,-73.61l-3.61 -32.52c5.42,-32.96 1.81,-57.8 25.29,-81.28 8.58,-8.59 11.29,-19.87 23.48,-19.87 17.61,0 21.68,17.61 32.52,30.7 13.54,16.26 26.18,22.13 37.93,39.75l7.23 -1.81c4.51,-11.73 3.61,-20.77 7.22,-32.52 1.36,-4.51 8.12,-5.42 8.12,-10.38 0,-93.94 0.91,-147.22 0.91,-241.15 0,-23.49 -14.45,-35.68 -14.45,-59.17 0,-23.93 4.06,-42.44 21.68,-57.8 13.09,-11.29 30.71,-16.26 30.71,-33.87l0 -37.03c0,-31.62 28.9,-44.71 28.9,-76.32 0,-34.32 -7.22,-53.29 -7.22,-87.61 0,-47.87 13.53,-74.51 25.28,-121.03 7.68,-30.71 6.78,-51.48 23.49,-77.68 14.45,-22.57 28.9,-36.12 28.9,-63.22 0,-30.26 -4.53,-47.86 -16.26,-75.87 -3.61,-9.48 -16.26,-11.29 -16.26,-21.67 0,-3.62 2.26,-5.42 1.81,-9.04 22.57,-2.7 46.97,-11.73 46.97,-34.32 0,-17.62 -21.68,-22.12 -21.68,-39.74 0,-23.93 22.13,-31.16 39.74,-46.97 4.06,-3.61 10.84,-4.51 10.84,-10.39l0 -40.63c0,-5.87 -3.61,-9.04 -3.61,-14.9 0,-8.58 2.7,-18.98 11.28,-18.98l57.36 0 12.65 -16.26c-1.81,-15.34 -12.65,-21.22 -16.26,-36.12 0,-16.71 -3.62,-24.84 -3.62,-41.55 0,-16.26 14.46,-20.77 23.49,-34.32 21.67,-32.97 32.51,-56.9 32.51,-96.64 0,-20.33 -1.8,-33.42 -10.84,-51.49 -5.42,-11.28 -18.06,-15.34 -18.06,-27.99 0,-31.62 54.19,-28.45 54.19,-60.07 0,-10.38 -1.8,-15.8 -1.8,-26.19 0,-25.73 26.64,-39.29 52.38,-39.29 14.9,0 23.04,7.23 37.93,7.23 13.55,0 14.91,-16.71 19.88,-28.91 3.61,-9.03 10.83,-13.09 10.83,-23.03l0 -44.25c0,-32.07 34.32,-43.35 34.32,-75.42 0,-19.42 -32.51,-18.51 -32.51,-37.94 0,-24.37 18.96,-37.02 39.74,-48.77 22.13,-12.64 36.13,-19.42 61.42,-23.48 52.83,-8.58 68.19,-50.13 106.58,-88.52l44.71 0c29.35,0 36.57,-27.54 60.06,-45.16 21.68,-16.25 45.16,-25.29 45.16,-52.38 0,-18.07 -12.65,-27.1 -12.65,-45.16 0,-21.68 8.59,-34.32 19.87,-52.39 15.35,-24.84 32.07,-43.35 61.42,-43.35 12.64,0 19.87,5.42 32.52,5.42 23.03,0 46.96,-13.54 46.96,-36.58 0,-27.09 -1.8,-42.45 -1.8,-69.55 0,-21.68 -2.26,-36.58 9.03,-54.64 4.51,-7.22 12.64,-10.39 12.64,-19.42l0 -53.28c0,-15.81 16.71,-18.98 27.1,-30.26 14.45,-15.35 13.09,-31.16 14.45,-52.39 -3.16,-42.44 -16.26,-62.31 -16.26,-104.77 0,-46.52 57.81,-57.81 57.81,-104.33l0 -73.14c0,-30.72 7.22,-48.33 7.22,-79.04 0,-24.84 -14.45,-37.49 -19.87,-61.42 -9.48,-41.54 -16.26,-65.47 -16.26,-107.93l0 -56.89c0,-69.1 -59.61,-91.69 -108.38,-140.46 -26.2,-26.18 -51.49,-40.19 -56,-77.67 -3.61,-32.07 6.32,-54.64 -10.83,-81.29 -21.68,-33.88 -58.26,-27.99 -92.13,-50.58 -22.13,-14.45 -16.26,-40.19 -16.26,-66.84 0,-23.93 -21.68,-31.6 -37.93,-48.77 -18.07,-19.42 -7.68,-43.8 -21.68,-66.84 -8.58,-14 -30.71,-14 -30.71,-30.7 0,-14.91 7.23,-23.04 7.23,-37.94 0,-25.74 -28.01,-31.6 -36.13,-56 -4.06,-13.09 0.89,-22.12 0,-36.12 0,-8.59 1.8,-17.16 1.8,-25.74 0,-19.87 10.84,-30.27 10.84,-50.13 0,-18.07 -2.25,-29.35 -10.84,-45.17 -5.86,-10.83 -23.48,-9.92 -23.48,-22.57 0,-15.8 12.64,-23.03 12.64,-38.84 0,-16.26 -20.78,-16.26 -30.7,-28.9 -5.87,-7.23 -3.17,-14.45 -5.42,-23.49 -4.97,-21.22 -12.65,-36.57 -32.52,-45.16 -14.45,-6.31 -24.84,-2.7 -39.74,-7.22 -24.39,-7.67 -39.29,-17.62 -52.38,-39.74 -9.94,-16.71 -23.49,-24.85 -23.49,-44.25 0,-13.56 0.9,-31.62 14.45,-31.62 27.94,0 31.28,29.77 44.24,54.7 3.52,6.75 3.18,4.3 6.32,-1.62 10.93,-20.44 15.89,-35.58 25.31,-58.5 5.42,-13.54 6.32,-25.74 18.07,-34.32 19.87,-14.45 37.49,-13.1 59.61,-23.48 59.16,-27.55 128.25,-43.81 128.25,-109.28 0,-39.3 -1.8,-65.95 -23.48,-98.46 -9.94,-14.9 -27.1,-19.87 -27.1,-37.94 0,-21.23 36.13,-20.32 36.13,-41.54 0,-27.1 -27.1,-32.97 -43.35,-54.19 -26.2,-34.33 -46.52,-50.58 -68.64,-88.52 -13.56,-23.48 -19.43,-38.83 -30.71,-63.22 -16.26,-34.77 -34.32,-52.39 -43.36,-90.32 -10.84,-45.16 -7.67,-74.51 -25.29,-117.42 -15.36,-37.49 -45.61,-46.06 -65.03,-81.28 -19.42,-35.22 -19.87,-59.17 -32.51,-97.55 -14.9,-20.32 -21.68,-37.03 -21.68,-62.78l0 -89.41c0,-73.61 -31.62,-113.35 -72.26,-174.77 -46.51,-70 -83.09,-110.64 -158.96,-146.32 -35.68,-16.7 -42.91,-47.41 -59.61,-83.09 -19.87,-42.91 -57.35,-49.22 -81.29,-90.32 -33.87,-58.25 -36.13,-100.25 -75.87,-153.54 -10.39,-14.01 -19.87,-18.97 -30.71,-32.52l5.42 -7.23 8.59 0c41.08,0 51.48,50.58 92.57,50.58 37.49,0 56.9,-19.87 94.39,-19.87l33.42 0c22.12,0 34.32,9.04 56.45,9.04 43.79,0 56.89,-41.1 81.29,-77.68 14.89,-22.57 35.21,-25.74 61.41,-32.52 23.04,-5.86 36.13,-10.84 60.06,-10.84l40.65 0c39.38,0 58.57,-20.98 91.77,-39.16 9.12,-4.96 9.44,-3.89 -0.9,-4.43 -23.22,-1.24 -38.89,-6.98 -64.24,-6.98 -29.35,0 -45.6,9.03 -74.95,9.03 -15.82,0 -23.93,-9.03 -39.75,-9.03 -15.36,0 -19.42,13.55 -32.51,21.67 -26.2,16.26 -41.54,34.32 -72.7,34.32l-42.46 0c-39.29,0 -52.39,43.36 -91.68,43.36 -28.9,0 -43.35,-14.01 -71.35,-19.87 -23.93,-4.97 -46.96,4.97 -61.41,-14.45 -10.84,-14.46 -14.9,-25.74 -23.49,-41.55 -6.77,-12.64 -15.81,-17.62 -25.28,-28.9 -13.56,-15.81 -11.75,-32.07 -21.68,-50.58 -15.36,-28.45 -23.93,-44.71 -34.32,-75.87 -9.48,-19.42 -14.45,-27.99 -14.45,-48.77 0,-17.15 12.64,-25.29 25.29,-36.13 5.41,-4.51 6.31,-11.73 12.64,-14.45 14.45,-6.32 34.32,-7.23 34.32,-23.49 0,-12.64 -4.67,-18.83 -10.99,-29.66l16802.34 0.01zm4493.43 10571.79c-6.78,41.1 -14.9,63.67 -36.13,99.35 -8.58,14.9 -25.29,12.64 -41.54,18.06 -14.9,4.98 -13.56,20.79 -18.07,36.13 -5.42,19.87 -9.48,31.62 -10.84,52.39 -3.16,44.71 -20.32,67.28 -23.48,111.99 -1.81,23.49 2.7,42 -12.65,59.62 -14.89,17.16 -37.93,21.67 -37.93,44.26 0,10.84 14.45,13.54 14.45,24.38 0,34.32 -59.61,30.26 -59.61,64.58l0 51.48c0,18.06 -1.36,31.17 -12.65,44.71 -7.22,8.58 -18.51,4.06 -28.9,7.23 -17.16,5.41 -24.39,17.16 -34.32,32.51 -24.39,37.04 -20.32,67.28 -39.74,106.58 -20.32,40.65 -36.58,62.33 -65.03,97.54 -21.23,26.2 -43.8,35.24 -56,66.84 -6.78,18.51 -1.8,30.71 -1.8,50.58 0,10.39 -9.49,14.45 -16.26,21.68 -18.98,20.31 -32.52,31.15 -50.58,52.38 -25.74,29.81 -37.94,49.68 -61.42,81.29 -42.9,57.35 -79.48,80.84 -119.22,140.9 -55.55,74.51 -99.35,111.99 -153.54,189.67 -23.94,34.77 -32.97,56.91 -61.42,88.51 -16.26,18.07 -28.01,27.55 -39.74,48.78 -6.78,12.64 -10.39,28.9 -25.29,28.9 -12.65,0 -19.87,-3.62 -32.52,-3.62 -25.29,0 -21.23,38.85 -45.16,46.97 -7.22,2.26 -12.64,-3.16 -19.87,-1.81 -14.9,2.72 -6.77,23.04 -14.45,36.13 -12.2,20.78 -28.46,32.52 -52.39,32.52 -26.64,0 -46.52,-3.17 -65.03,-21.68 -10.84,-10.84 -15.8,-25.29 -31.61,-25.29 -30.25,0 -42.9,20.78 -71.35,30.71 -47.42,16.71 -75.87,23.93 -124.64,37.93 -23.03,6.78 -33.87,19.88 -57.8,19.88 -23.04,0 -34.78,-16.26 -57.81,-16.26 -15.81,0 -20.32,16.26 -36.13,18.06 -24.84,2.72 -48.32,-0.89 -61.42,19.87 -16.26,25.29 -11.28,53.74 -37.93,66.84 -15.36,7.67 -28.01,-3.17 -45.16,0 -16.26,3.16 -23.48,14.9 -34.32,27.09 -25.29,28.01 -40.19,57.81 -78.12,57.81l-109.3 0c-33.41,0 -49.22,25.29 -82.64,25.29 -57.35,0 -61.42,-65.93 -93.03,-113.81 -18.06,-27.54 -30.71,-41.54 -56,-63.22 -22.12,-18.96 -39.74,-33.87 -39.74,-62.77 0,-12.19 1.81,-18.97 1.81,-31.16 0,-4.06 -1.36,-6.78 -1.81,-10.84l-37.48 0c-12.2,0 -18.07,5.42 -30.26,5.42 -38.39,0 -60.51,-14.9 -91.22,-37.93 -10.84,-8.13 -28.9,-7.23 -28.9,-20.77 0,-10.39 7.22,-15.81 7.22,-26.2 0,-11.73 -6.78,-23.48 -18.51,-23.48l-35.23 0c-56,0 -82.19,-43.36 -110.64,-92.13 -14.45,-25.29 -23.93,-39.74 -37.93,-65.03 -13.56,-24.38 -30.71,-37.02 -30.71,-65.03 0,-23.04 5.42,-36.58 5.42,-59.61 0,-20.32 -9.04,-31.16 -9.04,-51.48 0,-14.91 10.84,-21.68 10.84,-36.59l0 -35.22c0,-48.32 -59.61,-60.52 -59.61,-108.83 0,-30.26 13.09,-45.62 25.29,-73.16 9.48,-20.77 10.84,-34.77 23.48,-54.2 0,-30.26 10.84,-49.22 10.84,-79.48 0,-32.06 -27.09,-45.6 -27.09,-77.67 0,-21.68 18.06,-28.91 27.09,-48.77 8.59,-19.43 -4.52,-36.58 7.23,-54.2 10.39,-15.81 26.65,-15.34 43.35,-25.29 -9.03,-22.57 -23.93,-30.71 -28.9,-54.19 -3.61,-17.15 -0.91,-27.99 -3.61,-45.16 -1.81,-11.28 -9.03,-16.7 -9.03,-28.45l0 -55.09c0,-17.62 -10.84,-27.09 -10.84,-44.71 0,-28.9 10.84,-45.16 10.84,-74.06 0,-13.1 -15.37,-14.9 -27.1,-19.87 -14,-5.87 -21.68,-10.84 -32.52,-21.68 -23.03,-23.04 -27.54,-44.25 -34.31,-75.87 -6.78,-33.41 -3.17,-53.75 -12.65,-86.71 -9.94,-34.77 -48.78,-42.44 -48.78,-78.57 0,-25.75 4.07,-40.65 9.04,-65.94 4.06,-19.42 18.06,-28.01 18.06,-47.88 0,-46.96 -34.32,-68.64 -34.32,-115.61 0,-40.19 21.68,-59.61 36.13,-96.63 4.51,-11.29 12.64,-16.7 12.64,-28.9 0,-17.17 -21.67,-21.68 -21.67,-38.85 0,-21.67 -0.91,-37.93 14.45,-53.28 12.19,1.81 22.12,1.36 34.32,0l0 -29.35c0,-9.03 -4.06,-14 -5.42,-23.03 13.54,-18.07 30.26,-28.01 50.58,-37.94 16.7,-8.13 33.41,-14 36.13,-32.51 2.7,-17.62 -4.06,-38.85 12.64,-45.16 17.15,-6.33 45.16,4.51 45.16,-14.01 0,-29.79 -1.36,-46.52 -1.81,-76.31 10.4,-10.39 11.74,-21.23 23.49,-28.91 7.67,-4.97 16.26,-3.61 21.68,-10.84 13.53,-18.06 2.25,-38.37 16.25,-55.99 10.39,-13.1 26.19,-11.75 36.13,-25.29 16.26,-21.68 23.93,-48.78 51.48,-48.78 15.36,0 23.94,7.23 39.29,7.23l42.45 0c23.49,0 36.58,-18.97 43.81,-41.55 7.22,-23.93 10.84,-38.84 16.26,-63.22 10.38,-45.61 15.8,-71.81 39.73,-111.99 18.07,-30.27 23.49,-54.2 52.39,-74.07 25.29,-17.17 45.61,-19.87 68.64,-39.74 28.46,-24.4 16.71,-56.91 34.33,-90.32 20.76,-39.29 26.64,-72.71 65.03,-93.93 7.67,-4.06 15.34,-3.17 21.67,-9.04 18.07,-16.7 2.26,-39.29 9.03,-63.22 7.23,-25.29 32.52,-26.2 56,-37.93 24.85,-12.2 33.88,-28.91 48.78,-52.39 9.92,-15.36 20.76,-21.67 28.9,-37.93 6.31,-12.65 4.51,-22.59 9.03,-36.13 13.09,-37.94 16.26,-62.33 16.26,-102.52 0,-14.45 -1.81,-22.12 -1.81,-36.57 0,-4.06 1.36,-6.78 1.81,-10.84 4.06,-5.87 10.84,-12.2 10.84,-19.87 0,-14.45 -5.42,-22.59 -5.42,-37.04 0,-42 43.35,-56.45 43.35,-98.44 0,-56.91 -10.84,-88.51 -28.9,-142.71 -14.45,-43.35 -34.77,-62.33 -57.81,-101.16 -9.48,-15.8 -25.29,-21.22 -25.29,-39.74 0,-41.54 19.88,-63.22 19.88,-104.77 0,-65.03 -16.26,-100.26 -36.13,-162.57 -5.42,-17.17 -10.84,-27.55 -10.84,-45.61l0 -46.07c0,-32.07 -12.65,-49.67 -12.65,-81.74 0,-42.45 5.87,-65.94 10.84,-108.38 3.61,-34.32 2.7,-55.55 18.07,-86.71 21.67,-43.8 16.25,-74.06 27.09,-121.03 6.32,-27.09 30.71,-37.03 30.71,-65.03 0,-24.39 -10.39,-37.03 -14.45,-61.42 0,-35.22 1.8,-57.35 1.8,-92.57 0,-25.75 19.88,-35.68 30.71,-59.16 6.32,-14.01 1.81,-24.84 5.42,-39.74 4.97,-20.78 14.01,-31.16 21.68,-50.58 9.93,-24.84 11.29,-41.1 19.87,-66.84 5.42,-17.17 18.51,-22.12 27.1,-37.93 9.03,-16.26 9.92,-28.45 14.45,-46.97 11.73,-47.88 48.77,-60.52 72.25,-102.96 24.38,-43.81 36.58,-70.9 72.26,-106.58 19.42,-19.42 26.65,-34.32 39.74,-57.8 7.23,-13.56 16.26,-21.68 16.26,-37.49l0 -152.64c0,-26.2 24.38,-44.71 50.58,-44.71 15.34,0 23.03,7.23 38.38,7.23l56.91 0c36.58,0 61.42,0 92.57,18.06 21.23,12.2 25.74,39.74 50.58,39.74 30.26,0 58.25,-18.51 61.42,-48.77 3.61,-33.87 15.35,-56.91 43.35,-75.87 44.71,-30.71 66.84,-53.29 115.61,-77.67 14.9,-7.23 21.23,-19.87 37.94,-19.87 14.45,0 30.71,5.86 30.71,20.32l0 70c17.15,0 26.18,9.03 43.35,9.03 13.54,0 23.48,-12.65 23.48,-26.2 0,-21.22 -23.48,-27.99 -23.48,-49.22 0,-6.32 1.35,-10.39 1.81,-16.71l15.8 0c20.77,0 38.83,-1.8 51.03,14.45 17.15,23.04 5.42,45.16 16.26,72.26 6.31,-0.91 10.39,-1.36 16.26,-3.61l0 -34.77c0,-20.79 7.22,-35.68 23.48,-48.33 10.84,-8.58 28.9,-7.22 28.9,-21.23l0 -47.86c0,-17.17 20.77,-23.03 37.94,-23.03 16.26,0 25.29,5.42 39.74,12.64 30.26,4.97 41.09,25.29 71.34,25.29 25.29,0 30.26,-28.9 53.3,-37.93 9.88,-3.96 16.64,-2.38 26.35,-2.53 4.85,-0.07 4.42,-0.71 4.29,4.32 -0.37,13.09 -2.12,21.68 0.03,35.18 0.47,3.07 0.24,2.97 3,1.51 34.34,-18.12 40.43,-63.78 80.13,-63.78 18.51,0 41.55,5.88 41.55,24.39 0,11.75 -7.23,18.06 -7.23,29.81 0,27.09 26.65,34.32 36.13,59.61 8.68,23.43 5.68,39.36 5.43,63.81 -0.02,3.2 -0.43,3.3 2.68,2.02 12.98,-5.4 19.04,-15.9 33.44,-18.86 23.03,-4.98 50.58,-9.04 50.58,-32.52 0,-25.74 -11.75,-38.84 -19.88,-63.22 -8.58,-26.21 -11.28,-42.91 -25.28,-66.84 -9.48,-16.26 -28.91,-20.78 -28.91,-39.74 0,-42.91 43.36,-50.58 74.07,-81.29 20.31,-20.32 37.02,-27.54 63.22,-39.74 18.07,-8.58 23.03,-28.9 43.35,-28.9 18.52,0 28.46,9.03 46.97,9.03 16.26,0 14.45,-21.23 23.48,-34.32 15.35,-22.59 32.52,-32.07 57.81,-43.36 31.15,-14 52.83,-19.86 75.87,-45.15 8.13,-9.04 11.29,-21.68 23.48,-21.68 19.87,0 29.35,13.54 41.55,28.9 9.03,11.29 21.67,15.35 21.67,29.8 0,41.1 -54.19,50.13 -54.19,91.23 0,9.93 4.53,21.68 14.46,21.68 15.36,0 24.84,-12.2 28.9,-27.1 2.25,-8.58 1.8,-19.87 10.83,-19.87 11.75,0 23.49,6.78 23.49,18.51l0 33.43c0,12.18 14.9,16.7 27.09,16.7 14.45,0 27.1,-10.39 27.1,-24.84l0 -83.99c0,-11.3 7.23,-17.17 7.23,-28.46 0,-33.42 -37.03,-37.48 -59.61,-61.41 -4.07,-4.52 -10.84,-6.33 -10.84,-12.64 0,-24.85 23.03,-32.52 41.54,-48.78 22.59,-20.32 31.62,-39.29 59.61,-50.58 24.4,-9.94 39.3,-16.26 61.42,-30.7 7.23,-4.53 15.36,-3.17 19.87,-10.84 8.58,-14.9 3.61,-26.2 7.23,-43.36 8.13,-37.04 19.87,-55.1 30.7,-90.32 5.42,-18.51 13.1,-28 21.68,-45.16 7.68,-15.81 14.9,-32.51 32.52,-32.51 18.97,0 39.74,8.58 39.74,27.54l0 37.04c0,7.23 -6.78,9.93 -9.03,16.71 -10.39,32.06 -24.84,45.6 -41.55,74.06 -9.03,15.34 -19.87,23.93 -19.87,41.99l0 37.04c0,19.41 4.97,30.25 9.03,49.22l7.23 1.81c25.28,-9.95 28,-32.96 50.58,-46.97 14.89,-9.03 29.81,-3.61 43.35,-14.45 18.51,-14.45 21.68,-30.26 34.32,-50.58 17.17,-28.01 32.07,-40.65 46.97,-70.45 11.75,-35.23 3.61,-84.9 40.65,-84.9 15.34,0 23.48,1.81 38.83,3.61 3.5,28.87 1.91,46.73 10.02,73.27 0.86,2.85 0.61,3.02 1.97,0.3 21.16,-41.92 38.59,-66.3 38.59,-113.31 0,-10.84 -4.51,-17.17 -7.23,-27.09 -21.87,-0.89 -34.42,-0.06 -55.71,-0.01 -2.41,0 -2.16,0.16 -1.67,-2.22 3.04,-14.81 10.42,-22.93 10.42,-38.42l0 -102.97c0,-35.22 50.57,-26.19 75.87,-49.67 17.16,-15.36 18.06,-37.04 18.06,-61.41 0,-29.82 -18.06,-44.27 -18.06,-74.07 0,-11.07 4.01,-18.93 6.74,-28.86 0.49,-1.85 0.24,-2.24 1.32,-0.45 17.71,29.08 45.36,37.08 53.35,70.86 11.75,46.96 -7.22,77.68 10.84,122.83 9.94,-2.71 16.26,-5.42 27.1,-7.22 0.91,-22.59 0,-36.13 0,-58.72 0,-72.25 -41.55,-107.47 -41.55,-179.73 0,-54.19 20.78,-84 28.9,-137.28 6.23,-40.9 -0.67,-79.18 30.98,-103.62 1.61,-1.23 1.37,-1.29 2.81,0.09 26.79,25.51 57.1,15.15 92.66,24.05 47.88,11.73 37.93,93.93 87.62,93.93l21.4 -0.1 1.64 -1.87 1.46 -71.84c0,-2.31 -0.41,-2.02 1.88,-2.09 27.58,-0.79 42.03,-18.03 70.25,-18.03 24.35,-0.16 32.54,18.79 51.79,34.26 3.83,3.07 2.35,0.3 1.79,-3.25 -3.09,-19.5 -13.84,-31.88 -13.84,-52.69 0,-18.97 9.94,-39.74 28.91,-39.74 30.7,0 41.54,28.9 72.25,28.9 41.55,0 36.13,-55.1 50.58,-93.93 6.33,-18.06 31.62,-13.56 43.35,-28.9 14.46,-18.98 1.81,-40.65 14.46,-61.42 26.2,-42.46 86.7,-46.97 86.7,-97.55 0,-43.35 -18.96,-65.94 -25.29,-108.38 -8.12,-56.91 18.07,-93.93 0,-148.12 -9.54,-28.66 -30.77,-38.94 -48.44,-62.14 -3.22,-4.22 -1.13,-2.85 3.23,-2.96 29.32,-0.78 48.53,-7.76 78.41,-10.52 3.4,-0.3 2.9,-0.45 2.97,2.92 0.3,15.45 2.56,25.29 8.96,39.75 1.65,3.73 1.1,4.51 4.94,2.69 30.97,-14.83 27.7,-55.27 58.32,-74.51 35.23,-22.59 72.25,-12.65 101.16,-43.36 16.25,-18.06 14.44,-39.74 32.51,-57.8l0 -87.62c0,-21.68 18.97,-38.83 40.65,-38.83 10.84,0 13.54,1.8 24.38,3.61 11.75,4.51 19.87,7.23 28.9,16.26l0 40.19c0,21.67 21.68,29.81 21.68,51.49l0 13.09 -75.87 9.03 0 16.71c0,9.48 8.14,14 9.03,23.03 1.81,14.9 -2.7,37.94 12.65,37.94 22.58,0 29.81,-25.29 52.38,-25.29 16.26,0 21.68,13.54 34.32,23.48 10.39,8.12 18.52,12.2 27.1,21.68 25.29,27.09 50.58,43.8 50.58,81.28 0,22.58 -9.03,34.77 -9.03,57.36 0,12.65 0.44,20.32 0.44,32.96 18.53,0.9 33.43,-5.86 46.52,7.23 19.87,19.87 7.68,44.25 12.65,72.26 2.71,14.9 17.17,21.67 32.51,23.48 12.2,1.36 19.87,-4.52 30.71,0 28.9,11.73 23.93,44.25 37.94,72.25 10.83,22.13 32.51,30.26 32.51,55.09 0,32.07 -19.87,48.33 -19.87,80.39 0,37.49 52.39,43.81 52.39,81.29 0,22.57 -10.84,34.77 -10.84,57.36l0 47.86c0,39.3 53.29,46.52 53.29,85.81l0 46.97c0,18.96 -12.19,27.1 -20.78,43.8 -18.06,34.32 -36.12,54.64 -36.12,93.49 0,18.51 1.8,32.51 1.8,51.02 16.26,27.1 25.74,42.45 39.74,70.45 19.42,38.83 29.82,67.29 68.65,86.71 8.13,10.84 18.97,12.64 25.29,25.29 7.22,14.9 5.41,26.65 5.41,43.35 0,36.13 -24.37,51.94 -34.32,86.71 -7.22,25.29 -7.22,41.1 -7.22,67.28l0 66.84c0,37.93 -32.52,53.75 -32.52,91.68 0,40.63 36.13,56.89 36.13,97.55 0,27.09 -18.06,40.63 -18.06,67.73 0,23.03 9.94,35.23 18.06,56.91 14.9,39.74 25.29,64.12 25.29,106.57 0,29.8 -27.1,39.3 -41.55,65.03 -15.81,28.46 -10.84,50.58 -25.29,79.49 -9.92,19.87 -33.41,15.34 -45.16,34.32 -12.19,19.87 -15.81,33.87 -27.09,54.19 -6.78,12.64 -21.68,10.84 -28.91,23.48 -23.03,40.64 -31.15,90.32 -77.67,90.32 -27.99,0 -33.87,-29.35 -46.97,-54.19 -6.31,-12.64 -16.7,-17.17 -21.67,-30.71 -13.1,-36.58 -9.48,-60.06 -19.87,-97.54 -7.68,-28.91 -9.93,-46.07 -23.49,-72.26 -8.12,-16.26 -21.22,-23.48 -39.74,-25.29 -13.59,-1.47 -47.12,-28.77 -53.17,-12.18l-11.86 32.5c0,11.28 -10.84,14.45 -18.06,23.03 -13.54,15.81 -25.29,27.1 -25.29,48.33l0 118.31c0,5.87 6.33,7.67 6.33,13.55l0 93.03c0,28 -26.2,38.38 -26.2,66.39 0,17.15 13.55,22.57 16.25,39.74 3.17,21.23 16.26,30.71 16.26,51.93l0 38.84c0,26.64 -10.39,40.65 -16.26,66.38 -5.86,26.19 0.45,44.25 -10.83,68.65 -12.65,27.09 -39.74,35.21 -39.74,65.03 0,23.93 19.87,33.87 19.87,57.8 0,20.77 -26.19,23.04 -46.97,25.29 -22.57,2.71 -33.87,14.45 -48.77,30.71 -13.1,14.45 -14.45,28.46 -27.1,43.35 -17.62,20.77 -39.74,21.68 -55.99,43.36 -13.55,18.06 -8.13,35.68 -14.46,57.8 -6.78,23.04 -14,35.22 -25.29,56 -19.87,37.02 -54.19,52.38 -54.19,94.83 0,28.45 14.45,42.91 14.45,71.36 0,23.93 -12.64,36.58 -12.64,60.51 0,27.09 16.26,40.65 16.26,67.74 0,43.36 -37.49,57.81 -57.81,95.74 -21.68,39.74 -18.96,67.73 -28.9,112 -13.54,59.16 -14.45,98.9 -52.39,146.32 -18.06,22.57 -33.41,31.15 -50.58,54.19 -7.67,31.6 -16.25,55.09 -23.48,86.71 -6.32,28.45 -29.8,34.32 -48.77,55.99 -23.93,27.1 -32.52,46.06 -52.39,75.87 -8.58,13.09 -9.03,24.38 -16.26,37.94 -8.58,15.81 -22.12,20.32 -30.71,36.13 -12.19,21.67 -14.89,36.57 -23.48,59.61 -12.64,34.32 -26.18,51.93 -30.71,88.51 -3.16,25.29 2.72,46.97 -16.26,63.22 -10.83,9.04 -17.61,14.45 -27.09,25.29 -23.03,26.65 -45.16,33.42 -74.06,54.2 -12.2,8.58 -13.09,20.76 -19.87,34.32 -11.29,22.57 -19.87,37.02 -19.87,62.31 0,15.81 5.42,24.84 5.42,40.65 0,43.8 -58.7,48.32 -65.03,92.13 9.03,0.44 17.17,-2.72 23.48,3.61 6.33,6.32 3.61,13.54 3.61,22.57 0,32.07 -23.93,44.27 -43.35,69.55 -17.16,22.13 -24.38,37.49 -37.94,61.43 -14.9,25.73 -34.32,40.18 -34.32,70.44 0,15.81 5.42,24.85 5.42,40.64 0,46.52 -32.51,65.94 -43.35,111.1 -10.39,43.8 -6.78,69.09 -19.87,112 -5.42,38.83 -22.58,59.61 -52.39,84.9 -9.48,7.67 -18.51,9.48 -25.29,19.87 -9.03,13.54 -10.84,23.48 -18.06,37.93 -8.12,16.71 -19.87,25.74 -19.87,44.71l0 58.71c0,25.29 -28.46,29.35 -39.74,51.93 -9.48,18.96 -9.04,32.52 -16.26,52.39 -7.22,20.32 -17.15,30.71 -19.87,52.38 -2.7,22.58 1.81,38.39 -9.03,57.81 -9.48,17.62 -20.32,25.74 -36.13,37.93 -26.19,19.87 -33.87,39.74 -56,65.03 -15.81,18.52 -13.54,36.58 -21.67,59.62 -2.71,8.58 -1.36,18.06 -9.04,23.48 -8.58,5.87 -14.89,8.12 -23.48,14.45 -37.93,29.35 -40.19,65.93 -46.97,113.8 -5.42,37.03 -23.03,57.81 -52.38,79.48 -9.93,7.23 -18.07,9.49 -25.29,19.87 -8.12,11.74 -4.97,22.13 -9.03,36.13 -6.78,23.04 -16.26,33.88 -28.9,54.2 -20.32,32.95 -49.67,44.71 -54.2,83.09 -1.81,15.35 1.81,23.48 1.81,38.83 0,25.75 -14.9,37.49 -21.68,62.33 -12.2,45.16 -27.54,70.89 -48.77,113.8zm1023.78 -5740.73l-46.08 0c-13.09,0 -20.31,14 -20.31,27.1 0,31.15 13.55,47.87 21.67,77.67 6.33,23.93 2.26,57.81 27.1,57.81 15.81,0 20.78,-16.26 27.1,-30.72 10.83,-23.93 14.45,-40.63 14.45,-67.28l0 -37.04c0,-13.99 -9.93,-27.54 -23.93,-27.54zm641.72 2380.38l0 22.12c5.42,0.46 8.58,1.81 14,1.81 9.93,0 13.1,-10.38 18.51,-18.06 8.14,-11.29 14.45,-18.52 21.68,-30.71 14.9,-24.38 33.43,-28.91 52.38,-50.58 30.26,-34.77 66.84,-51.94 66.84,-98l0 -19.42c-23.93,-1.8 -35.68,14.45 -54.19,28.9 -12.65,9.95 -25.29,9.95 -36.13,21.68 -8.12,9.03 -8.12,19.42 -16.26,28.9 -16.7,19.43 -22.57,33.87 -37.93,54.2 -15.35,20.32 -28.9,33.42 -28.9,59.16zm-9057.28 2722.69c-8.13,0 -8.58,11.75 -8.58,19.87l0 63.23c-4.06,20.77 -4.06,32.96 -4.06,54.19 0,26.65 9.93,45.16 30.71,61.42l14.45 0 5.42 -110.2c-3.62,-27.54 -2.26,-45.16 -16.26,-68.64 -5.42,-9.48 -10.39,-19.87 -21.68,-19.87zm2934.5 -3219c0.91,8.59 0,13.55 0,22.12 0,34.79 8.58,53.3 13.55,88.07 36.57,-2.7 43.35,-46.52 43.35,-83.09 0,-24.38 -32.51,-27.1 -56.9,-27.1zm387.47 -5354.16c5.86,9.03 12.64,14.45 12.64,25.29 0,17.17 -24.84,11.75 -41.54,14.45 -10.4,1.81 -11.29,14 -18.07,21.68 -8.13,9.03 -14,15.36 -16.26,27.09 -7.22,37.49 -19.87,57.36 -19.87,95.29l0 23.93c5.42,0.45 9.03,1.81 14.45,1.81 27.1,0 10.4,-51.93 36.13,-59.61 19.42,-5.87 33.88,-1.81 52.39,-10.84 23.93,-11.73 32.96,-29.35 41.54,-54.19 7.68,-22.13 15.36,-34.77 15.36,-58.25l0 -70.91c0,-7.23 -4.52,-15.35 -11.74,-15.35 -15.81,0 -19.88,16.26 -30.71,27.09 -13.1,13.1 -21.23,19.43 -34.32,32.52zm-346.83 -1138.03c-12.65,0 -21.68,12.64 -21.68,25.29 0,11.29 14,12.65 19.87,21.67 12.2,18.52 18.06,31.62 18.06,53.75l0 70.9c22.59,22.58 23.94,44.71 25.3,75.86 0.91,23.94 -2.26,57.81 21.67,57.81 3.17,0 4.06,-3.16 7.23,-3.61 0,-13.54 2.72,-30.71 16.25,-30.71 11.29,0 9.95,14 16.26,23.48 6.33,9.48 15.81,10.84 27.1,12.65 18.51,3.16 32.07,1.36 46.97,12.64 35.23,27.1 28.9,64.14 34.32,108.39l16.25 0c33.43,-33.42 28.91,-68.65 28.91,-114.7 0,-55.11 -5.42,-86.71 -5.42,-141.81l-9.03 -1.81c-18.07,18.06 -25.29,34.32 -48.78,43.36 -11.29,-27.55 -6.77,-47.42 -9.03,-77.68 -2.26,-29.8 -37.48,-32.51 -48.77,-59.61 -9.48,-23.49 -13.54,-40.64 -32.52,-57.81 -6.78,-5.86 -14.9,-1.36 -23.48,-5.42 -27.99,-14 -48.33,-12.64 -79.48,-12.64zm2404.31 3421.32c-37.03,10.39 -43.35,41.54 -66.83,72.25 -15.81,20.78 -28.91,29.81 -48.78,46.97 -10.84,9.48 -21.67,15.36 -21.67,29.81 0,23.48 10.39,35.67 19.87,56.89 8.58,18.98 10.39,31.62 18.06,50.59 15.35,37.48 29.8,77.67 70.45,77.67 33.43,0 50.13,-18.96 75.87,-39.74 42.46,-34.32 63.22,-70.9 63.22,-125.54 0,-23.48 -4.97,-40.2 -21.67,-56.91 -13.54,-13.54 -27.1,-19.42 -30.71,-37.93 -3.17,-17.15 1.81,-31.61 -9.03,-45.16 -7.23,-9.03 -19.43,-3.16 -28.91,-9.03 -7.22,-4.51 -11.73,-15.81 -19.87,-19.87zm187.87 567.21c-5.42,0 -10.84,3.61 -10.84,9.03 0,9.94 10.84,13.09 10.84,23.03l0 76.76c0,30.27 31.15,48.33 61.42,48.33 24.39,0 34.32,-28.45 34.32,-52.83l0 -46.07c0,-11.29 -14.46,-10.38 -21.68,-18.52 -22.13,-24.37 -41.1,-39.73 -74.06,-39.73zm386.57 -90.33c-14.01,18.98 -20.32,32.97 -39.74,46.97 -15.37,10.84 -37.94,11.75 -37.94,30.71 0,19.87 18.51,25.74 32.52,39.74 16.25,16.26 27.54,30.71 50.58,30.71 28,0 50.58,-23.03 50.58,-51.03l0 -35.23c0,-20.77 -4.07,-38.83 -21.68,-49.22 -11.73,-6.78 -23.04,-4.97 -34.32,-12.65zm498.56 263.74c-25.73,-8.58 -41.54,-9.03 -68.64,-9.03 -12.2,0 -21.68,11.28 -21.68,23.48 0,13.56 12.65,18.07 19.87,28.9 14,20.32 18.07,35.23 21.68,59.62 2.7,18.97 11.73,28.9 11.73,48.32l0 65.48c-2.25,31.62 -6.31,49.68 -6.31,81.29 0,20.77 18.96,36.12 39.74,36.12 17.61,0 24.39,-18.06 30.71,-34.32 10.39,-25.73 15.81,-40.64 25.29,-66.83 15.36,-41.55 25.29,-65.93 25.29,-110.2 0,-20.76 -9.48,-31.6 -18.07,-50.58 -8.68,-19.21 -59.76,-71.52 -59.61,-72.25z"/>
  <path class="fil2 str1" d="M22664.88 18150.87l3095.55 0 0 1592.9 -3095.55 0 0 -1592.9z"/>
  <path class="fil3" d="M25939.16 19650.87c0,-17.45 4.47,-34.48 13.46,-51.13 8.93,-16.61 21.77,-29.59 38.43,-38.86 16.69,-9.26 34.1,-13.92 52.16,-13.92 17.92,0 35.18,4.56 51.69,13.74 16.56,9.12 29.4,21.92 38.53,38.43 9.17,16.51 13.73,33.77 13.73,51.74 0,18.01 -4.56,35.27 -13.73,51.78 -9.13,16.51 -21.97,29.35 -38.53,38.53 -16.51,9.17 -33.77,13.78 -51.69,13.78 -18.06,0 -35.47,-4.66 -52.16,-13.97 -16.66,-9.36 -29.5,-22.34 -38.43,-38.95 -8.99,-16.65 -13.46,-33.68 -13.46,-51.17zm17.22 0c0,14.62 3.76,28.88 11.24,42.7 7.48,13.83 18.2,24.65 32.13,32.46 13.92,7.81 28.41,11.71 43.46,11.71 15,0 29.35,-3.85 43.08,-11.52 13.74,-7.67 24.46,-18.39 32.13,-32.17 7.67,-13.79 11.52,-28.18 11.52,-43.18 0,-14.96 -3.85,-29.36 -11.52,-43.14 -7.67,-13.78 -18.39,-24.5 -32.13,-32.12 -13.73,-7.62 -28.08,-11.43 -43.08,-11.43 -15.05,0 -29.54,3.9 -43.46,11.66 -13.93,7.76 -24.65,18.58 -32.13,32.46 -7.48,13.87 -11.24,28.08 -11.24,42.57zm103.57 -33.35l5.08 -16.94c11.53,2.78 20.7,8.61 27.52,17.55 6.87,8.98 10.3,19.85 10.3,32.59 0,16.19 -5.22,29.31 -15.71,39.42 -10.49,10.11 -24.98,15.15 -43.55,15.15 -12.14,0 -22.68,-2.31 -31.61,-6.92 -8.99,-4.56 -15.71,-11.15 -20.28,-19.61 -4.56,-8.52 -6.82,-18.25 -6.82,-29.16 0,-12.23 2.92,-22.39 8.8,-30.48 5.88,-8.09 13.88,-13.6 23.94,-16.56l4.23 16.37c-6.91,2.77 -12.23,6.82 -15.89,12.23 -3.72,5.41 -5.55,11.71 -5.55,19 0,10.58 3.76,19.33 11.28,26.2 7.53,6.87 18.35,10.3 32.37,10.3 14.06,0 24.69,-3.24 31.89,-9.74 7.19,-6.49 10.81,-14.86 10.81,-25.16 0,-8.28 -2.39,-15.57 -7.24,-21.83 -4.8,-6.25 -11.33,-10.39 -19.57,-12.41z"/>
  <path id="1" class="fil3" d="M26144.62 19355.71l-18.58 0c14.44,9.27 21.68,22.91 21.68,40.92 0,11.67 -3.19,22.39 -9.64,32.13 -6.4,9.78 -15.38,17.35 -26.86,22.76 -11.52,5.37 -24.74,8.05 -39.69,8.05 -14.59,0 -27.8,-2.45 -39.7,-7.29 -11.86,-4.9 -20.98,-12.19 -27.29,-21.92 -6.35,-9.69 -9.5,-20.61 -9.5,-32.6 0,-8.84 1.88,-16.7 5.6,-23.56 3.72,-6.87 8.61,-12.47 14.58,-16.8l-72.67 0 0 -24.83 202.07 0 0 23.14zm-73.05 78.46c18.72,0 32.69,-3.95 41.96,-11.9 9.26,-7.91 13.87,-17.27 13.87,-28.04 0,-10.86 -4.42,-20.08 -13.26,-27.7 -8.84,-7.57 -22.34,-11.38 -40.5,-11.38 -19.94,0 -34.62,3.85 -43.98,11.61 -9.36,7.72 -14.01,17.27 -14.01,28.6 0,11.06 4.46,20.27 13.45,27.71 8.98,7.38 23.14,11.1 42.47,11.1z"/>
  <path id="2" class="fil3" d="M26083.94 19303.17l-24.83 0 0 -76.76 24.83 0 0 76.76z"/>
  <path id="3" class="fil3" d="M26144.62 19199.31l-146.47 0 0 -22.29 20.69 0c-7.15,-4.56 -12.93,-10.68 -17.26,-18.3 -4.37,-7.62 -6.54,-16.27 -6.54,-26.01 0,-10.82 2.26,-19.71 6.73,-26.62 4.52,-6.92 10.77,-11.81 18.86,-14.63 -17.07,-11.67 -25.59,-26.77 -25.59,-45.39 0,-14.58 4,-25.83 12.04,-33.63 8.05,-7.86 20.42,-11.81 37.12,-11.81l100.42 0 0 24.84 -92.19 0c-9.88,0 -17.03,0.84 -21.4,2.44 -4.38,1.6 -7.86,4.52 -10.54,8.8 -2.68,4.23 -4,9.22 -4,14.91 0,10.35 3.44,18.91 10.26,25.73 6.86,6.82 17.82,10.2 32.87,10.2l85 0 0 24.84 -95.06 0c-11.01,0 -19.29,2.02 -24.79,6.07 -5.5,4.04 -8.28,10.67 -8.28,19.85 0,6.96 1.84,13.4 5.51,19.33 3.66,5.93 9.03,10.21 16.13,12.89 7.05,2.63 17.26,3.95 30.57,3.95l75.92 0 0 24.83z"/>
  <path id="4" class="fil3" d="M26126.28 18868.55c7.85,9.22 13.35,18.11 16.6,26.62 3.25,8.52 4.84,17.64 4.84,27.43 0,16.08 -3.9,28.45 -11.75,37.11 -7.81,8.65 -17.83,12.98 -30.01,12.98 -7.15,0 -13.69,-1.65 -19.62,-4.89 -5.93,-3.29 -10.63,-7.57 -14.2,-12.84 -3.58,-5.32 -6.31,-11.24 -8.14,-17.88 -1.27,-4.89 -2.49,-12.27 -3.72,-22.1 -2.35,-20.04 -5.22,-34.86 -8.51,-44.31 -3.39,-0.1 -5.55,-0.14 -6.44,-0.14 -10.07,0 -17.17,2.35 -21.31,7.05 -5.6,6.35 -8.37,15.81 -8.37,28.32 0,11.71 2.07,20.36 6.16,25.92 4.09,5.59 11.38,9.68 21.78,12.37l-3.39 24.27c-10.4,-2.21 -18.82,-5.84 -25.21,-10.92 -6.4,-5.08 -11.29,-12.41 -14.77,-22.01 -3.44,-9.55 -5.18,-20.7 -5.18,-33.3 0,-12.51 1.46,-22.72 4.42,-30.57 2.97,-7.81 6.64,-13.6 11.11,-17.27 4.46,-3.67 10.11,-6.25 16.93,-7.76 4.23,-0.8 11.85,-1.22 22.81,-1.22l32.93 0c23,0 37.53,-0.52 43.69,-1.55 6.17,-0.99 12.05,-3.06 17.69,-6.07l0 25.96c-5.22,2.5 -11.34,4.1 -18.34,4.8zm-55.04 1.98c3.67,9.03 6.78,22.57 9.32,40.64 1.45,10.25 3.1,17.49 4.93,21.73 1.84,4.23 4.52,7.48 8,9.78 3.53,2.31 7.43,3.48 11.76,3.48 6.54,0 12.04,-2.49 16.42,-7.52 4.37,-5.04 6.58,-12.38 6.58,-22.02 0,-9.55 -2.07,-18.06 -6.25,-25.54 -4.14,-7.43 -9.84,-12.93 -17.03,-16.41 -5.6,-2.69 -13.83,-4 -24.7,-4l-9.03 -0.14z"/>
  <path id="5" class="fil3" d="M26200.78 18807.26l-202.63 0 0 -22.57 19.24 0c-7.44,-5.32 -13.03,-11.34 -16.75,-18.07 -3.72,-6.68 -5.6,-14.81 -5.6,-24.36 0,-12.51 3.2,-23.52 9.65,-33.07 6.39,-9.55 15.47,-16.74 27.14,-21.63 11.71,-4.85 24.5,-7.3 38.47,-7.3 14.91,0 28.37,2.69 40.36,8.05 11.95,5.36 21.12,13.17 27.52,23.42 6.35,10.21 9.54,20.98 9.54,32.27 0,8.28 -1.74,15.71 -5.22,22.25 -3.48,6.58 -7.85,11.94 -13.17,16.18l71.45 0 0 24.83zm-128.5 -22.57c18.77,0 32.69,-3.81 41.67,-11.39 8.99,-7.62 13.45,-16.84 13.45,-27.65 0,-11.01 -4.65,-20.42 -13.97,-28.23 -9.31,-7.85 -23.7,-11.76 -43.22,-11.76 -18.63,0 -32.55,3.81 -41.82,11.48 -9.26,7.67 -13.87,16.79 -13.87,27.42 0,10.54 4.94,19.85 14.77,27.94 9.87,8.14 24.17,12.19 42.99,12.19z"/>
  <path id="6" class="fil3" d="M26100.88 18660.18l-3.96 -24.55c9.84,-1.37 17.36,-5.22 22.63,-11.53 5.22,-6.3 7.85,-15.14 7.85,-26.43 0,-11.43 -2.3,-19.9 -6.96,-25.45 -4.61,-5.5 -10.06,-8.28 -16.32,-8.28 -5.6,0 -10.02,2.5 -13.22,7.44 -2.21,3.48 -4.98,11.94 -8.42,25.4 -4.56,18.15 -8.51,30.71 -11.85,37.77 -3.39,7 -7.99,12.32 -13.92,15.94 -5.88,3.62 -12.42,5.46 -19.57,5.46 -6.54,0 -12.56,-1.51 -18.11,-4.47 -5.55,-3.01 -10.16,-7.06 -13.83,-12.18 -2.82,-3.86 -5.22,-9.13 -7.19,-15.76 -1.98,-6.68 -2.97,-13.78 -2.97,-21.4 0,-11.48 1.65,-21.54 4.99,-30.2 3.29,-8.7 7.81,-15.1 13.45,-19.24 5.69,-4.09 13.27,-6.96 22.77,-8.51l3.38 24.27c-7.62,1.08 -13.59,4.28 -17.87,9.55 -4.28,5.27 -6.4,12.7 -6.4,22.34 0,11.34 1.88,19.47 5.65,24.32 3.76,4.84 8.18,7.29 13.21,7.29 3.2,0 6.12,-0.99 8.71,-3.01 2.63,-2.02 4.84,-5.18 6.58,-9.5 0.94,-2.5 3.06,-9.74 6.35,-21.87 4.66,-17.5 8.52,-29.73 11.48,-36.69 2.96,-6.96 7.34,-12.42 12.98,-16.37 5.69,-4 12.75,-5.98 21.21,-5.98 8.24,0 16,2.4 23.29,7.25 7.29,4.84 12.93,11.8 16.93,20.88 4,9.13 5.97,19.43 5.97,30.91 0,19 -3.95,33.53 -11.8,43.5 -7.9,9.98 -19.57,16.33 -35.04,19.1z"/>
  <path id="7" class="fil3" d="M26144.62 18502.14l-28.22 0 0 -28.22 28.22 0 0 28.22z"/>
  <path id="8" class="fil3" d="M26091 18335.11l3.38 -24.27c16.7,2.68 29.73,9.45 39.19,20.41 9.45,10.96 14.15,24.46 14.15,40.41 0,19.99 -6.53,36.08 -19.61,48.21 -13.08,12.18 -31.8,18.25 -56.16,18.25 -15.81,0 -29.59,-2.63 -41.39,-7.85 -11.86,-5.22 -20.75,-13.17 -26.63,-23.9 -5.92,-10.68 -8.89,-22.29 -8.89,-34.9 0,-15.85 4,-28.88 12.04,-38.95 8.05,-10.11 19.48,-16.6 34.25,-19.42l3.67 23.99c-9.83,2.3 -17.22,6.35 -22.2,12.23 -4.94,5.83 -7.44,12.88 -7.44,21.16 0,12.51 4.47,22.67 13.41,30.53 8.98,7.81 23.09,11.71 42.47,11.71 19.66,0 33.92,-3.76 42.81,-11.29 8.89,-7.57 13.35,-17.4 13.35,-29.49 0,-9.78 -2.96,-17.92 -8.93,-24.41 -5.93,-6.54 -15.1,-10.68 -27.47,-12.42z"/>
  <path id="9" class="fil3" d="M26071.38 18298.99c-27.04,0 -47.08,-7.53 -60.11,-22.63 -10.82,-12.56 -16.23,-27.94 -16.23,-46.05 0,-20.08 6.59,-36.54 19.76,-49.34 13.12,-12.75 31.33,-19.14 54.51,-19.14 18.82,0 33.59,2.82 44.36,8.46 10.77,5.65 19.14,13.88 25.12,24.7 5.97,10.77 8.93,22.58 8.93,35.32 0,20.51 -6.53,37.07 -19.66,49.72 -13.12,12.65 -32.03,18.96 -56.68,18.96zm0.05 -25.4c18.72,0 32.74,-4.1 42,-12.28 9.32,-8.23 13.97,-18.53 13.97,-31 0,-12.32 -4.65,-22.57 -14.01,-30.81 -9.36,-8.18 -23.61,-12.27 -42.76,-12.27 -18.06,0 -31.75,4.14 -41.01,12.37 -9.32,8.23 -13.97,18.48 -13.97,30.71 0,12.47 4.61,22.77 13.87,31 9.27,8.18 23.24,12.28 41.91,12.28z"/>
  <path id="10" class="fil3" d="M26144.62 18132.71l-146.47 0 0 -22.29 20.69 0c-7.15,-4.56 -12.93,-10.68 -17.26,-18.3 -4.37,-7.62 -6.54,-16.27 -6.54,-26.01 0,-10.82 2.26,-19.71 6.73,-26.62 4.52,-6.92 10.77,-11.81 18.86,-14.63 -17.07,-11.67 -25.59,-26.77 -25.59,-45.39 0,-14.58 4,-25.83 12.04,-33.63 8.05,-7.86 20.42,-11.81 37.12,-11.81l100.42 0 0 24.84 -92.19 0c-9.88,0 -17.03,0.84 -21.4,2.44 -4.38,1.6 -7.86,4.52 -10.54,8.8 -2.68,4.23 -4,9.22 -4,14.91 0,10.35 3.44,18.91 10.26,25.73 6.86,6.82 17.82,10.2 32.87,10.2l85 0 0 24.84 -95.06 0c-11.01,0 -19.29,2.02 -24.79,6.07 -5.5,4.04 -8.28,10.67 -8.28,19.85 0,6.96 1.84,13.4 5.51,19.33 3.66,5.93 9.03,10.21 16.13,12.89 7.05,2.63 17.26,3.95 30.57,3.95l75.92 0 0 24.83z"/>
  <g id="_1839118582640">
   <g>
    <path class="fil4 str2" d="M22802.78 18751.65l567.9 0 0 99.16 -567.9 0 0 -99.16z"/>
    <path class="fil5 str2" d="M23370.68 18751.65l567.9 0 0 99.16 -567.9 0 0 -99.16z"/>
    <path class="fil4 str2" d="M23938.58 18751.65l567.9 0 0 99.16 -567.9 0 0 -99.16z"/>
    <path class="fil5 str2" d="M24506.61 18751.65l567.91 0 0 99.16 -567.91 0 0 -99.16z"/>
    <path class="fil4 str2" d="M25074.53 18751.65l567.9 0 0 99.16 -567.9 0 0 -99.16z"/>
    <path class="fil5 str2" d="M24621.36 19050.59l908.3 0 0 99.16 -908.3 0 0 -99.16z"/>
    <path class="fil4 str2" d="M23713.06 19050.59l908.31 0 0 99.16 -908.31 0 0 -99.16z"/>
    <path class="fil5 str2" d="M22804.77 19050.59l908.3 0 0 99.16 -908.3 0 0 -99.16z"/>
   </g>
   <path class="fil6" d="M23843.9 18325.02l-13.47 29.28 -70.55 0 -15.47 31.28c30.81,4.52 55.04,15.81 72.79,33.98 15.23,15.64 22.82,33.99 22.82,55.15 0,12.29 -2.47,23.7 -7.47,34.11 -5,10.46 -11.29,19.4 -18.87,26.75 -7.53,7.35 -16,13.29 -25.29,17.75 -13.17,6.3 -26.69,9.47 -40.57,9.47 -13.99,0 -24.16,-2.35 -30.57,-7.11 -6.35,-4.71 -9.53,-9.94 -9.53,-15.64 0,-3.18 1.3,-6 3.94,-8.47 2.65,-2.47 6,-3.65 10,-3.65 2.94,0 5.58,0.42 7.82,1.36 2.23,0.88 6,3.23 11.4,6.99 8.59,5.94 17.35,8.88 26.17,8.88 13.4,0 25.22,-5.11 35.39,-15.29 10.12,-10.17 15.23,-22.57 15.23,-37.21 0,-14.12 -4.52,-27.34 -13.58,-39.57 -9.11,-12.29 -21.58,-21.76 -37.57,-28.4 -12.46,-5.18 -29.52,-8.18 -51.09,-9l44.8 -90.66 83.67 0z"/>
   <path id="1" class="fil6" d="M23879.88 18443.32c0,-26.64 4,-49.51 12.05,-68.74 8.06,-19.22 18.7,-33.57 32.05,-42.98 10.29,-7.47 20.99,-11.17 31.98,-11.17 17.94,0 33.99,9.11 48.22,27.34 17.81,22.64 26.69,53.27 26.69,91.96 0,27.05 -3.88,50.09 -11.7,69.03 -7.82,18.93 -17.76,32.63 -29.87,41.21 -12.11,8.53 -23.81,12.82 -35.04,12.82 -22.29,0 -40.81,-13.11 -55.62,-39.39 -12.53,-22.17 -18.76,-48.86 -18.76,-80.08zm33.87 4.23c0,32.1 3.94,58.33 11.82,78.67 6.52,17.11 16.28,25.63 29.22,25.63 6.17,0 12.58,-2.76 19.22,-8.34 6.65,-5.59 11.65,-14.88 15.11,-27.99 5.24,-19.7 7.88,-47.57 7.88,-83.43 0,-26.64 -2.76,-48.86 -8.23,-66.62 -4.11,-13.23 -9.46,-22.58 -15.99,-28.05 -4.65,-3.82 -10.35,-5.7 -16.99,-5.7 -7.76,0 -14.7,3.53 -20.76,10.52 -8.23,9.53 -13.87,24.46 -16.81,44.92 -3,20.41 -4.47,40.52 -4.47,60.39z"/>
   <path id="2" class="fil6" d="M24056.27 18443.32c0,-26.64 4,-49.51 12.05,-68.74 8.06,-19.22 18.7,-33.57 32.05,-42.98 10.29,-7.47 20.99,-11.17 31.98,-11.17 17.94,0 33.99,9.11 48.22,27.34 17.81,22.64 26.69,53.27 26.69,91.96 0,27.05 -3.88,50.09 -11.7,69.03 -7.82,18.93 -17.76,32.63 -29.87,41.21 -12.11,8.53 -23.81,12.82 -35.04,12.82 -22.29,0 -40.81,-13.11 -55.62,-39.39 -12.53,-22.17 -18.76,-48.86 -18.76,-80.08zm33.87 4.23c0,32.1 3.94,58.33 11.82,78.67 6.52,17.11 16.28,25.63 29.22,25.63 6.17,0 12.58,-2.76 19.22,-8.34 6.65,-5.59 11.65,-14.88 15.11,-27.99 5.24,-19.7 7.88,-47.57 7.88,-83.43 0,-26.64 -2.76,-48.86 -8.23,-66.62 -4.11,-13.23 -9.46,-22.58 -15.99,-28.05 -4.65,-3.82 -10.35,-5.7 -16.99,-5.7 -7.76,0 -14.7,3.53 -20.76,10.52 -8.23,9.53 -13.87,24.46 -16.81,44.92 -3,20.41 -4.47,40.52 -4.47,60.39z"/>
   <path id="3" class="fil6" d="M24366.02 18313.73l0 157.16 39.98 -36.63c8.52,-7.82 13.46,-12.76 14.81,-14.82 0.95,-1.41 1.42,-2.76 1.42,-4.17 0,-2.29 -1,-4.23 -2.89,-5.94 -1.88,-1.65 -4.99,-2.59 -9.4,-2.82l0 -5.65 68.61 0 0 5.65c-9.35,0.23 -17.17,1.7 -23.4,4.35 -6.23,2.7 -13.05,7.47 -20.52,14.29l-40.63 37.22 40.34 51.33c11.29,14.05 18.81,23.04 22.58,26.98 5.58,5.24 10.4,8.65 14.58,10.17 2.94,1.12 7.99,1.71 15.17,1.71l0 6.35 -76.73 0 0 -6.35c4.41,-0.12 7.35,-0.76 8.88,-1.94 1.58,-1.24 2.35,-2.88 2.35,-5.06 0,-2.64 -2.3,-6.88 -6.88,-12.7l-48.27 -61.79 0 52.21c0,10.23 0.7,16.93 2.11,20.17 1.47,3.17 3.47,5.46 6.12,6.88 2.64,1.35 8.35,2.11 17.17,2.23l0 6.35 -80.08 0 0 -6.35c7.99,0 14.05,-1 18.05,-2.94 2.41,-1.23 4.23,-3.17 5.46,-5.76 1.71,-3.76 2.59,-10.29 2.59,-19.52l0 -143.94c0,-18.05 -0.41,-29.1 -1.18,-33.16 -0.82,-4.05 -2.11,-6.82 -3.99,-8.35 -1.83,-1.58 -4.24,-2.35 -7.18,-2.35 -2.41,0 -6.05,1 -10.82,2.94l-2.93 -6.35 46.74 -19.4 7.94 0z"/>
   <path id="4" class="fil6" d="M24542.76 18430.03c11.41,-11.53 18.17,-18.17 20.22,-19.93 5.12,-4.36 10.65,-7.77 16.59,-10.18 5.93,-2.41 11.81,-3.64 17.63,-3.64 9.88,0 18.29,2.88 25.4,8.64 7.06,5.76 11.82,14.11 14.17,25.11 11.88,-13.88 21.88,-22.93 30.05,-27.28 8.17,-4.3 16.58,-6.47 25.22,-6.47 8.35,0 15.82,2.17 22.35,6.47 6.46,4.29 11.64,11.34 15.4,21.16 2.53,6.65 3.82,17.11 3.82,31.4l0 67.97c0,9.82 0.71,16.58 2.18,20.23 1.12,2.46 3.23,4.64 6.23,6.4 3.06,1.77 8,2.65 14.88,2.65l0 6.35 -77.26 0 0 -6.35 3.29 0c6.7,0 11.99,-1.29 15.76,-3.94 2.64,-1.82 4.52,-4.76 5.64,-8.76 0.47,-1.94 0.71,-7.47 0.71,-16.58l0 -67.91c0,-12.88 -1.53,-21.93 -4.65,-27.22 -4.52,-7.35 -11.7,-11.06 -21.63,-11.06 -6.06,0 -12.23,1.53 -18.41,4.59 -6.11,3 -13.58,8.7 -22.34,16.93l-0.35 1.94 0.7 7.41 0 75.32c0,10.7 0.59,17.4 1.77,20.05 1.23,2.59 3.46,4.82 6.76,6.58 3.29,1.77 8.93,2.65 16.87,2.65l0 6.35 -79.37 0 0 -6.35c8.64,0 14.58,-1 17.81,-3.06 3.24,-2.06 5.47,-5.17 6.7,-9.29 0.59,-1.94 0.89,-7.58 0.89,-16.93l0 -67.91c0,-12.88 -1.88,-22.17 -5.65,-27.87 -5.05,-7.41 -12.05,-11.11 -21.11,-11.11 -6.17,0 -12.28,1.7 -18.34,5.05 -9.47,5.06 -16.82,10.82 -21.93,17.17l0 84.67c0,10.29 0.7,16.93 2.12,20.05 1.41,3.06 3.52,5.35 6.35,6.94 2.76,1.53 8.4,2.29 16.93,2.29l0 6.35 -77.97 0 0 -6.35c7.24,0 12.29,-0.76 15.17,-2.29 2.89,-1.59 5.06,-4 6.59,-7.41 1.47,-3.35 2.23,-9.88 2.23,-19.58l0 -60.33c0,-17.28 -0.53,-28.45 -1.53,-33.51 -0.82,-3.82 -2.05,-6.41 -3.82,-7.82 -1.7,-1.47 -4.05,-2.18 -6.99,-2.18 -3.24,0 -7.06,0.89 -11.53,2.59l-2.58 -6.35 47.62 -19.4 7.41 0 0 33.75z"/>
   <path class="fil6" d="M23719.08 19339.7c6.64,-15.76 15.11,-27.93 25.28,-36.51 10.17,-8.59 22.87,-12.88 38.04,-12.88 18.76,0 33.11,6.06 43.1,18.23 7.59,9.05 11.41,18.75 11.41,29.1 0,16.99 -10.7,34.57 -32.11,52.68 14.41,5.65 25.29,13.64 32.7,24.11 7.35,10.41 11.05,22.7 11.05,36.81 0,20.22 -6.47,37.69 -19.34,52.5 -16.76,19.29 -41.1,28.93 -72.97,28.93 -15.76,0 -26.46,-1.94 -32.16,-5.88 -5.71,-3.88 -8.53,-8.11 -8.53,-12.58 0,-3.35 1.35,-6.23 4.06,-8.76 2.7,-2.53 5.94,-3.82 9.76,-3.82 2.88,0 5.82,0.47 8.82,1.41 1.94,0.59 6.35,2.7 13.29,6.35 6.88,3.64 11.7,5.82 14.34,6.52 4.24,1.3 8.82,1.94 13.64,1.94 11.76,0 21.93,-4.52 30.64,-13.64 8.7,-9.05 13.05,-19.81 13.05,-32.22 0,-9.05 -2,-17.93 -6.06,-26.51 -3,-6.47 -6.29,-11.35 -9.82,-14.65 -4.99,-4.58 -11.76,-8.76 -20.4,-12.52 -8.64,-3.7 -17.46,-5.58 -26.46,-5.58l-5.52 0 0 -5.3c9.11,-1.17 18.16,-4.41 27.34,-9.82 9.11,-5.4 15.75,-11.87 19.87,-19.46 4.17,-7.58 6.23,-15.87 6.23,-24.99 0,-11.81 -3.7,-21.34 -11.11,-28.63 -7.47,-7.29 -16.7,-10.94 -27.75,-10.94 -17.82,0 -32.69,9.65 -44.69,28.87l-5.7 -2.76z"/>
   <path id="1" class="fil6" d="M23890.53 19413.2c0,-26.64 4,-49.51 12.05,-68.74 8.06,-19.22 18.7,-33.57 32.05,-42.98 10.29,-7.47 20.99,-11.17 31.98,-11.17 17.94,0 33.99,9.11 48.22,27.34 17.81,22.64 26.69,53.27 26.69,91.96 0,27.05 -3.88,50.09 -11.7,69.03 -7.82,18.93 -17.76,32.63 -29.87,41.21 -12.11,8.53 -23.81,12.82 -35.04,12.82 -22.29,0 -40.81,-13.11 -55.62,-39.39 -12.53,-22.17 -18.76,-48.86 -18.76,-80.08zm33.87 4.23c0,32.1 3.94,58.33 11.82,78.67 6.52,17.11 16.28,25.63 29.22,25.63 6.17,0 12.58,-2.76 19.22,-8.34 6.65,-5.59 11.65,-14.88 15.11,-27.99 5.24,-19.7 7.88,-47.57 7.88,-83.43 0,-26.64 -2.76,-48.86 -8.23,-66.62 -4.11,-13.23 -9.46,-22.58 -15.99,-28.05 -4.65,-3.82 -10.35,-5.7 -16.99,-5.7 -7.76,0 -14.7,3.53 -20.76,10.52 -8.23,9.53 -13.87,24.46 -16.81,44.92 -3,20.41 -4.47,40.52 -4.47,60.39z"/>
   <path id="2" class="fil6" d="M24066.92 19413.2c0,-26.64 4,-49.51 12.05,-68.74 8.06,-19.22 18.7,-33.57 32.05,-42.98 10.29,-7.47 20.99,-11.17 31.98,-11.17 17.94,0 33.99,9.11 48.22,27.34 17.81,22.64 26.69,53.27 26.69,91.96 0,27.05 -3.88,50.09 -11.7,69.03 -7.82,18.93 -17.76,32.63 -29.87,41.21 -12.11,8.53 -23.81,12.82 -35.04,12.82 -22.29,0 -40.81,-13.11 -55.62,-39.39 -12.53,-22.17 -18.76,-48.86 -18.76,-80.08zm33.87 4.23c0,32.1 3.94,58.33 11.82,78.67 6.52,17.11 16.28,25.63 29.22,25.63 6.17,0 12.58,-2.76 19.22,-8.34 6.65,-5.59 11.65,-14.88 15.11,-27.99 5.24,-19.7 7.88,-47.57 7.88,-83.43 0,-26.64 -2.76,-48.86 -8.23,-66.62 -4.11,-13.23 -9.46,-22.58 -15.99,-28.05 -4.65,-3.82 -10.35,-5.7 -16.99,-5.7 -7.76,0 -14.7,3.53 -20.76,10.52 -8.23,9.53 -13.87,24.46 -16.81,44.92 -3,20.41 -4.47,40.52 -4.47,60.39z"/>
   <path id="3" class="fil6" d="M24377.02 19399.91c11.41,-11.53 18.17,-18.17 20.22,-19.93 5.12,-4.36 10.65,-7.77 16.59,-10.18 5.93,-2.41 11.81,-3.64 17.63,-3.64 9.88,0 18.29,2.88 25.4,8.64 7.06,5.76 11.82,14.11 14.17,25.11 11.88,-13.88 21.88,-22.93 30.05,-27.28 8.17,-4.3 16.58,-6.47 25.22,-6.47 8.35,0 15.82,2.17 22.35,6.47 6.46,4.29 11.64,11.34 15.4,21.16 2.53,6.65 3.82,17.11 3.82,31.4l0 67.97c0,9.82 0.71,16.58 2.18,20.23 1.12,2.46 3.23,4.64 6.23,6.4 3.06,1.77 8,2.65 14.88,2.65l0 6.35 -77.26 0 0 -6.35 3.29 0c6.7,0 11.99,-1.29 15.76,-3.94 2.64,-1.82 4.52,-4.76 5.64,-8.76 0.47,-1.94 0.71,-7.47 0.71,-16.58l0 -67.91c0,-12.88 -1.53,-21.93 -4.65,-27.22 -4.52,-7.35 -11.7,-11.06 -21.63,-11.06 -6.06,0 -12.23,1.53 -18.41,4.59 -6.11,3 -13.58,8.7 -22.34,16.93l-0.35 1.94 0.7 7.41 0 75.32c0,10.7 0.59,17.4 1.77,20.05 1.23,2.59 3.46,4.82 6.76,6.58 3.29,1.77 8.93,2.65 16.87,2.65l0 6.35 -79.37 0 0 -6.35c8.64,0 14.58,-1 17.81,-3.06 3.24,-2.06 5.47,-5.17 6.7,-9.29 0.59,-1.94 0.89,-7.58 0.89,-16.93l0 -67.91c0,-12.88 -1.88,-22.17 -5.65,-27.87 -5.05,-7.41 -12.05,-11.11 -21.11,-11.11 -6.17,0 -12.28,1.7 -18.34,5.05 -9.47,5.06 -16.82,10.82 -21.93,17.17l0 84.67c0,10.29 0.7,16.93 2.12,20.05 1.41,3.06 3.52,5.35 6.35,6.94 2.76,1.53 8.4,2.29 16.93,2.29l0 6.35 -77.97 0 0 -6.35c7.24,0 12.29,-0.76 15.17,-2.29 2.89,-1.59 5.06,-4 6.59,-7.41 1.47,-3.35 2.23,-9.88 2.23,-19.58l0 -60.33c0,-17.28 -0.53,-28.45 -1.53,-33.51 -0.82,-3.82 -2.05,-6.41 -3.82,-7.82 -1.7,-1.47 -4.05,-2.18 -6.99,-2.18 -3.24,0 -7.06,0.89 -11.53,2.59l-2.58 -6.35 47.62 -19.4 7.41 0 0 33.75z"/>
   <path id="4" class="fil6" d="M24644.66 19283.61c4.76,0 8.88,1.7 12.29,5.05 3.35,3.41 5.05,7.53 5.05,12.29 0,4.82 -1.7,9 -5.05,12.41 -3.41,3.47 -7.53,5.17 -12.29,5.17 -4.82,0 -9,-1.7 -12.41,-5.17 -3.47,-3.41 -5.17,-7.59 -5.17,-12.41 0,-4.76 1.7,-8.88 5.05,-12.29 3.41,-3.35 7.59,-5.05 12.53,-5.05zm14.17 82.55l0 127c0,9.82 0.7,16.34 2.17,19.58 1.41,3.29 3.53,5.7 6.35,7.29 2.82,1.59 8,2.41 15.47,2.41l0 6.35 -76.56 0 0 -6.35c7.65,0 12.82,-0.76 15.41,-2.23 2.64,-1.47 4.7,-3.94 6.29,-7.35 1.53,-3.41 2.29,-10 2.29,-19.7l0 -61.03c0,-16.99 -0.53,-27.99 -1.53,-33.05 -0.82,-3.64 -2.05,-6.17 -3.82,-7.58 -1.7,-1.47 -4.06,-2.18 -7,-2.18 -3.23,0 -7.11,0.89 -11.7,2.59l-2.41 -6.35 47.45 -19.4 7.59 0z"/>
  </g>
  <path class="fil7 str3" d="M999.96 1014.26l25356.09 0 0 18959.95 -25356.09 0 0 -18959.95z"/>
  <g id="_1839118574320">
   <path class="fil2 str1" d="M21714.69 18147.45l815.93 0 0 1592.89 -815.93 0 0 -1592.89z"/>
   <path class="fil8" d="M22062.79 18583.58c-0.92,3.32 -1.63,6.35 -2.07,9.15 -0.44,2.79 -0.65,5.18 -0.65,7.22 0,5.59 1.8,9.56 5.29,11.89 3.49,2.33 9.55,3.49 18.05,3.49l4.15 0 -4.96 22.72 -78.17 0 5.29 -22.72 2.89 0c7.36,0 12.82,-1.51 16.48,-4.54 3.6,-2.97 6.32,-8.39 8.12,-16.14l37.59 -153.79c0.6,-2.74 1.14,-5.54 1.52,-8.45 0.33,-2.91 0.55,-5.77 0.55,-8.62 0,-5.36 -1.96,-9.15 -5.95,-11.36 -3.92,-2.22 -10.69,-3.32 -20.23,-3.32l-3.06 0 5.29 -22.72 72.33 0 62.14 183.5 31.31 -129.03c1.08,-4.2 1.85,-7.63 2.34,-10.31 0.49,-2.68 0.71,-4.72 0.71,-6.06 0,-5.6 -1.8,-9.56 -5.35,-11.89 -3.6,-2.33 -9.71,-3.49 -18.32,-3.49l-4.15 0 4.96 -22.72 78.5 0 -5.62 22.72 -2.84 0c-7.37,0 -12.87,1.51 -16.47,4.54 -3.66,2.97 -6.33,8.33 -8.18,15.96l-50.68 208.44 -21.54 0 -72.06 -209.48 -37.21 155.01z"/>
   <path class="fil9 str4" d="M22123.48 19607.14l0 -769.27"/>
   <path class="fil9 str4" d="M21841.43 19331.09l563.14 0"/>
   <path class="fil9 str4" d="M21978.58 19471.08l294.22 -286.81"/>
   <path class="fil9 str4" d="M21975.44 19184.03l297.98 288.85"/>
   <path class="fil9 str4" d="M22123.34 18840.6l-95.47 118.01"/>
   <path class="fil9 str4" d="M22123.96 18840.56l87.89 118.05"/>
  </g>
  <g id="_1839118570800">
   <path class="fil2 str1" d="M20801.08 19270.89l0 473.7 -1863.32 0 0 -473.7 1863.32 0z"/>
   <path class="fil8" d="M19993.51 19609.36l77.51 -202.07 29.4 0 82.27 202.07 -30.43 0 -23.38 -61.24 -85.09 0 -21.92 61.24 -28.36 0zm58.13 -82.97l68.87 0 -21.08 -56.02c-6.35,-17.03 -11.14,-31.09 -14.48,-42.2 -2.78,13.18 -6.5,26.11 -11.15,38.9l-22.16 59.32z"/>
   <path id="1" class="fil8" d="M20200.8 19435.51l0 -28.22 24.83 0 0 28.22 -24.83 0zm0 173.85l0 -146.47 24.83 0 0 146.47 -24.83 0z"/>
   <path id="2" class="fil8" d="M20317.4 19587.21l3.39 21.91c-6.96,1.46 -13.22,2.22 -18.68,2.22 -8.98,0 -15.94,-1.42 -20.93,-4.28 -4.94,-2.87 -8.42,-6.59 -10.44,-11.25 -2.02,-4.65 -3.01,-14.44 -3.01,-29.35l0 -84.38 -18.34 0 0 -19.19 18.34 0 0 -36.22 24.84 -14.91 0 51.13 24.83 0 0 19.19 -24.83 0 0 85.79c0,7.11 0.42,11.67 1.31,13.69 0.85,2.02 2.26,3.62 4.24,4.85 1.97,1.17 4.79,1.78 8.46,1.78 2.73,0 6.35,-0.33 10.82,-0.98z"/>
   <path id="3" class="fil8" d="M20332.59 19536.12c0,-27.04 7.53,-47.08 22.63,-60.11 12.56,-10.82 27.94,-16.23 46.05,-16.23 20.08,0 36.54,6.59 49.34,19.76 12.75,13.12 19.14,31.33 19.14,54.51 0,18.82 -2.82,33.59 -8.46,44.36 -5.65,10.77 -13.88,19.14 -24.7,25.12 -10.77,5.97 -22.58,8.93 -35.32,8.93 -20.51,0 -37.07,-6.53 -49.72,-19.66 -12.65,-13.12 -18.96,-32.03 -18.96,-56.68zm25.4 0.05c0,18.72 4.1,32.74 12.28,42 8.23,9.32 18.53,13.97 31,13.97 12.32,0 22.57,-4.65 30.81,-14.01 8.18,-9.36 12.27,-23.61 12.27,-42.76 0,-18.06 -4.14,-31.75 -12.37,-41.01 -8.23,-9.32 -18.48,-13.97 -30.71,-13.97 -12.47,0 -22.77,4.61 -31,13.87 -8.18,9.27 -12.28,23.24 -12.28,41.91z"/>
   <path id="4" class="fil8" d="M20504.79 19609.36l0 -127.28 -22.01 0 0 -19.19 22.01 0 0 -15.52c0,-9.83 0.85,-17.13 2.59,-21.88 2.4,-6.39 6.54,-11.61 12.56,-15.61 5.97,-4 14.39,-5.98 25.21,-5.98 7.01,0 14.72,0.85 23.19,2.5l-3.72 21.73c-5.17,-0.9 -10.02,-1.37 -14.62,-1.37 -7.53,0 -12.85,1.6 -16,4.8 -3.1,3.2 -4.65,9.17 -4.65,17.92l0 13.41 28.5 0 0 19.19 -28.22 0 0 127.28 -24.84 0z"/>
   <path id="5" class="fil8" d="M20578.12 19609.36l0 -127.28 -22.01 0 0 -19.19 22.01 0 0 -15.52c0,-9.83 0.85,-17.13 2.59,-21.88 2.4,-6.39 6.54,-11.61 12.56,-15.61 5.97,-4 14.39,-5.98 25.21,-5.98 7.01,0 14.72,0.85 23.19,2.5l-3.72 21.73c-5.17,-0.9 -10.02,-1.37 -14.62,-1.37 -7.53,0 -12.85,1.6 -16,4.8 -3.1,3.2 -4.65,9.17 -4.65,17.92l0 13.41 28.5 0 0 19.19 -28.22 0 0 127.28 -24.84 0z"/>
   <circle class="fil10 str5" cx="19156.13" cy="19504.04" r="118.79"/>
   <rect class="fil10 str5" x="19614.06" y="19395.76" width="226.91" height="226.91"/>
   <g>
    <path class="fil9 str6" d="M19330.03 19503.17l220.31 0"/>
    <path class="fil9 str6" d="M19547.68 19503.83l-64.02 65.38"/>
    <path class="fil9 str6" d="M19547.85 19502.69l-63.42 -61.39"/>
   </g>
  </g>
 </g>
</svg>
