<?xml version="1.0" encoding="UTF-8"?>
<!DOCTYPE svg PUBLIC "-//W3C//DTD SVG 1.1//EN" "http://www.w3.org/Graphics/SVG/1.1/DTD/svg11.dtd">
<!-- Creator: CorelDRAW -->
<svg xmlns="http://www.w3.org/2000/svg" xml:space="preserve" width="297mm" height="210mm" version="1.1" style="shape-rendering:geometricPrecision; text-rendering:geometricPrecision; image-rendering:optimizeQuality; fill-rule:evenodd; clip-rule:evenodd"
viewBox="0 0 29700 21000"
 xmlns:xlink="http://www.w3.org/1999/xlink">
 <defs>
  <style type="text/css">
   <![CDATA[
    .str3 {stroke:black;stroke-width:10;stroke-miterlimit:3.864;stroke-opacity:0.501961}
    .str8 {stroke:black;stroke-width:50;stroke-miterlimit:22.9256}
    .str2 {stroke:#003399;stroke-width:20;stroke-miterlimit:22.9256}
    .str5 {stroke:#434242;stroke-width:10;stroke-miterlimit:22.9256}
    .str7 {stroke:black;stroke-width:10;stroke-miterlimit:3.864}
    .str0 {stroke:#000066;stroke-width:10;stroke-miterlimit:22.9256}
    .str1 {stroke:#003399;stroke-width:10;stroke-miterlimit:22.9256}
    .str6 {stroke:#2B2A29;stroke-width:7.62;stroke-miterlimit:22.9256}
    .str4 {stroke:black;stroke-width:7.62;stroke-miterlimit:22.9256}
    .fil2 {fill:none}
    .fil5 {fill:#D9DADA}
    .fil0 {fill:#A2D9F7}
    .fil1 {fill:white}
    .fil8 {fill:#FEFEFE;fill-rule:nonzero}
    .fil7 {fill:#D9DADA;fill-rule:nonzero}
    .fil4 {fill:#434242;fill-rule:nonzero}
    .fil6 {fill:black;fill-rule:nonzero}
    .fil3 {fill:#FEFEFE;fill-rule:nonzero;fill-opacity:0.501961}
   ]]>
  </style>
 </defs>
 <g id="Plan_x0020_1">
  <metadata id="CorelCorpID_0Corel-Layer"/>
  <rect class="fil0" x="1000" y="1000" width="26702.4" height="19000"/>
  <path class="fil1 str0" d="M8080.7 1000c58.08,39.59 56.39,36.2 64.35,101 3.03,24.69 34.68,10.33 48.1,-1.51 31.7,-27.98 41.56,26.54 77.86,37.89 86.84,27.15 58.27,39.66 108.57,84.91 12.3,11.05 58.71,-74.02 53.34,-8.84 -0.41,4.91 3.87,8.92 1.52,28.11 -5.5,44.89 22.26,58.22 39.26,95.91 14.8,32.81 69.97,-8.74 78.15,57.88 6.63,53.99 -21.9,32.64 30.47,82.11 25.58,24.17 -4.88,52.97 23.81,67.14 13.29,6.57 11.53,34.33 -14.46,46.96 -24.5,11.91 -70.45,51.47 -83.91,73.76 -12.76,21.13 178.99,26.59 81.69,120.86 -26.53,25.7 -95.98,86.2 -64.21,124.68l1.94 5.39c48.89,41.08 52.49,44.98 23.72,96.05 -13.75,24.41 -64.17,21.79 -22.49,86.27 9.06,14.01 -33.55,35.99 -48.61,60.91 -29.28,48.43 -92.42,60.5 -68.8,149.11 10.4,38.99 -1.91,56.48 39.69,64.07 27.99,5.11 6.09,34.2 0.42,56.22 -8.68,33.69 -15.93,40.06 -0.42,77.72 9.16,22.25 3.72,76.09 -9.5,99.65 -40.1,71.49 51.55,92.69 33.5,166.16 -11.35,46.23 74.91,21.62 43.65,81.46 -11.27,21.58 -6.52,71.82 7.62,94.11 5.22,8.24 14.22,25.85 17.76,34.87 -7.01,40.01 -14.9,48.02 -27.69,82.82 -10.23,27.86 40.02,24.52 -12.57,87.08 -16.97,20.2 22.41,29.81 20.42,76.49 -1.05,24.61 6.44,35.47 -6.2,66.15 -11.68,28.37 22.97,80.35 -10.48,98.65 -0.51,0.28 -38.67,48.15 -11.44,55.14 56.91,14.6 -45.11,45.8 -3.87,137.25 13.52,29.97 41.91,-51.06 60.52,30.19 23.35,101.95 46.17,50.65 69.17,78.95 17.59,21.64 -47.06,35.68 -13.37,63.83 30.52,25.51 42.47,55.23 25.38,93.27 -15.44,34.35 -52.56,1.47 -62.18,43.42 -12.57,54.77 -44.68,30.38 -83.78,69.03 -25.23,24.94 -40.22,6.1 -44.64,59.96 -4.89,59.64 46.13,105.72 76.35,37.18 14.67,-33.27 39.38,-27.69 70.25,-27.69 44.87,0 7.14,19.68 5.53,68.89 -0.09,2.72 -2.64,11.08 -3.45,13.79 -8.45,48.93 -16.73,91.32 -11.71,140.14 3.31,32.17 10.15,107.03 17.91,135.45 13.84,50.73 2.1,110.44 -29.49,152.99 -20.93,28.19 -13.54,69.27 -14.74,107.06 -1.27,40.12 69,23.57 62.98,53.2 -0.07,0.35 -44,47.73 -44.65,75.79 -0.27,11.98 -7.78,23.24 1.09,44.79 7.73,18.79 -3.31,12.43 18.61,29.62 31.65,24.82 0.65,85.41 11.16,120.43 9.84,32.82 1.77,49.6 27.02,90.15 64.65,103.85 -22.33,45.95 -15.16,102.24 1.8,14.17 27.73,-37.37 39.82,54.01 0.42,3.17 1.04,4.03 1.66,7.04 -45.38,54.58 -41.12,36.99 -26.18,62.84 -12.61,21.79 -84.66,42.01 -61.89,104.18 0.88,2.42 34.25,39.54 48.38,31.99 21.04,-11.24 50.43,-69.01 99.22,-48.95 9.82,4.04 37.17,10.25 39.83,31.84 1.82,14.74 -5.94,63.95 1.09,81.03 12.97,31.53 -43.73,93.33 -77.73,53.34 -0.44,-0.53 -27.96,-18.62 -6.05,6.19 22.24,25.17 8.13,74.65 8.13,110.79 0,15.3 1.43,21.19 -2.88,35.96 -4.14,14.16 -25.05,99.18 11.15,83.68 29.82,-12.78 22.91,-73.01 33.07,-88.64 29.13,-44.81 5.63,-30.78 57.88,-44.23 10.63,-2.74 47.43,-29.62 68.37,2.89 13.76,21.37 11.05,39.61 -5.39,62.27 -15.98,22.04 -70.88,71.68 11.43,40.25 25.64,-9.79 4.01,53.85 12.15,81.46 3.1,10.54 7.6,185.37 3.16,196.78 -11.09,28.53 -4.59,46.06 -41.76,71.11 -48.67,32.78 -48.09,40.63 -107.06,54.99 -42.79,10.43 21.76,27.96 33.07,56.89 9.06,23.17 16,36.74 -24.81,24.29 -25.07,-7.65 -75.17,3.55 -46.72,48.61 54.78,86.78 28.2,53.73 -23.73,82.68 -16.39,9.15 -33.92,5.21 -57.3,20.27 -13.45,9.53 -64.58,33.92 -50.18,62.84 28.56,57.36 105.61,-18.05 106.12,-18.05 4.17,13.51 -13.25,14.92 25.09,38.32 48.7,29.71 16.94,32.72 13.36,73.99 -0.02,0.23 -21.64,37.09 -23.15,54.57 -0.79,9.13 -30.63,99.16 -43.27,107.06 -17.32,10.83 -25.3,67.82 -24.67,87.64 0.89,28.11 -85.69,95.84 -111.36,107.92 -31.42,14.78 -90.15,125.9 -128.98,160.83 -35.58,32 -69.38,91.22 -103.75,127.89 -83.78,89.38 -96.22,91.47 -152,205.72 -9.77,20 -24.61,56.79 -34.73,72.76 -18.3,24.9 -59.02,70.76 -69.45,100.87 -5.78,16.68 -45.69,42.07 -62.84,41.34 -7.14,-0.3 -13.8,7.65 -38.03,6.61 -12.94,-0.55 -74.66,25.79 -72.76,47.96 19.54,0 91.89,-19.97 105.41,-4.96 28.01,31.1 -29.3,45.66 -37.47,97.7 -2.74,17.46 -70.63,104.39 -89.44,112.88 -24.12,10.89 -36.94,0.82 -79.8,28.53 -32.34,20.91 -69.94,71.78 -92.18,81.98 -48.3,22.16 -92.12,58.73 -142.07,81.98 -36.15,16.82 -28.06,58.11 -96.9,72.9 -52.93,11.37 -74.23,55.11 -132.68,76.21 -29.76,10.74 -114.27,47.32 -131.06,75.78 -20.59,34.92 -60.22,69.53 -82.82,114.67 -7.85,15.67 -44.2,79.04 -64.78,73.85 -17.57,-4.45 -61.87,-6.02 -77.15,2.07 -17.44,9.24 -88.61,36.95 -107.91,40.12 -41.99,6.89 -98.55,17.73 -138.63,29.34 -50.81,16.15 -123.84,23.88 -174.06,40.77 -31.06,10.46 -66.66,16.4 -100.44,29.91 -48.38,19.33 -65.93,10.38 -121.29,41.91 -29.49,16.8 -72.63,21.12 -113.1,46.3 -41.47,25.8 -44.65,28.93 -81.32,62.7 -48.24,44.41 -80.83,15.48 -135.6,49.18 -21.6,13.3 -84.57,37.73 -110.27,38.6 -37.86,1.28 -115.32,46.13 -146.61,70.97 -62.32,49.47 -157.27,83 -228.06,117.55 -41.87,20.44 -67.81,54 -117.41,75.78 -53.07,23.31 -87.29,50.04 -149.78,72.9 -60.87,22.28 -166.69,114.35 -200.51,165.37 -22.04,25.56 -47.35,54.87 -69.59,81.03 -11.85,13.93 -37.79,38.13 -44.79,54 -7.04,15.94 -77.44,76.2 -77.44,86.56 0,40.51 -14.03,63.81 -39.83,94.25 -17.47,20.61 -28.14,42.9 -54.43,61.47 -6.42,4.53 -67.28,79.7 -83.39,92.46 -28.23,22.36 -112.2,116 -132.25,144.96 -45.68,66 -72.02,99.69 -139.33,147.46 -58.81,41.74 -41.28,94.87 -99.36,102.67 -33.94,4.56 30.1,73.78 -43.42,72.76 -33.17,-0.46 -56.22,47.25 -50.46,72.43 5.13,22.43 -6.79,21.77 1.28,49.37 10.41,35.64 -34.44,92.48 -64.78,109.28 -50.85,28.18 -46.37,46.94 -111.64,44.93 -29.17,-0.9 -84.98,7.22 -110.89,20.65 -32.49,16.83 -117.48,30.49 -156.96,48.38 -61.36,27.81 -76.61,21.55 -136.87,61.75 -11.77,7.85 -24.04,15.06 -36.1,23.15 -53.53,38.94 -104.71,85.81 -136.03,144.01 -7.96,14.81 -77.95,99.27 -92.31,109.43 -10.98,7.76 -70.73,88.18 -95.2,105.27 -4.4,3.06 -51.28,45.85 -55.57,51.4 -18.38,23.82 -52.33,55.43 -73.85,81.97 -23.23,28.66 -56.46,61.72 -78.85,92.23 -52.33,71.29 -97.12,95.91 -162.3,149.91 -54.27,44.97 -68.22,63.02 -132.85,104.32 -55.16,35.25 -64.7,58.26 -135.6,79.66 -46.3,13.98 -74.19,19.1 -120.44,28.77 -21.2,4.44 -48.5,17.09 -31.13,41.11 17.53,24.25 19.98,63.91 21.21,93.69 1.78,43.04 -27.97,49.74 -2.88,110.37 11.85,28.64 8.12,60.85 -28.25,65.72 -58.5,7.85 -2.08,48 -2.08,97.47l0 10.59c-10.38,36.08 -12.72,57.87 -28.68,87.64 -33.48,62.44 -4.01,50.12 -11.58,66.15 -3.3,7 -55.74,65.92 -1.08,72.62 41.4,5.07 -16.29,97.1 41.34,94.39 17.65,-0.83 92.58,80.83 125.25,98.65 30.11,16.43 12.41,25.32 63.26,20.28 53.25,-5.28 -11.72,41.93 58.83,60.75 36.41,9.72 55.28,35.81 55.28,71.54 0,37.61 8.87,177.42 59.1,180.25 59.97,3.38 17.25,64.23 28.12,107.2 7.18,28.41 -11.72,64.31 -33.46,81.17 -22.8,17.67 -47.96,50.52 -14.08,71.25 36.4,22.25 -3.02,49.78 27.69,69.17 41.66,26.29 -39.92,65.25 -3.31,117.12 8.83,12.51 66.63,-35.44 64.92,63.97 -0.41,24.11 38.86,112.96 49.61,133.52 19.12,52.33 21.42,68.59 53.06,105.84 7.91,9.31 28.61,57.06 29.48,67.8 0.4,4.9 9.38,73.71 9.49,73.98 5.29,12.38 32.58,199.85 31.99,216.12 -3.21,88.56 13.99,152.71 33.65,236.75 7.12,30.44 2.76,132.72 51.92,131.3 15.82,-0.46 28.73,-38.97 46.73,-57.74 8.08,-8.43 59.53,-100.17 59.53,-64.2 0,19.45 24.62,100.11 37.6,117.54 33.83,45.43 9.96,90.13 18.2,144.39 6.25,41.18 6.05,137.84 -11.15,172.69 -23.54,47.69 -36.06,103.66 -34.73,156.95 5.37,71.16 4.77,205.02 35.16,266.24 18.34,36.98 36.48,87.95 82.39,85.99 18.73,-0.8 0.48,47.59 -18.19,62.27 -17.8,14 -96.46,172.33 -97.85,194.85 -1.93,31.02 -8.17,26.81 -1.79,67.42 1.42,9.08 0.12,57.58 -3.6,68.6 -16.73,49.67 -12.11,112.86 -33.73,174.2 -27.15,77.01 -31.28,155.08 -26.88,236.33 -8.88,59.2 1.67,68.6 -1.52,113.68 -2.5,35.37 -64.03,-31.61 -53.19,56.65 7,57.03 -41.28,48.57 -21.93,138.48 11.92,55.36 48.56,-53.47 73.33,-38.03 27.71,17.27 55.47,-18.08 33.5,-49.19 -11.21,-15.88 -18.92,-94.63 13.79,-58.96 27.53,30.02 59.83,8.01 58.54,58.68 -1.47,57.68 69.92,38.12 20.27,92.32 -47.24,51.57 -25.06,97.46 -36.38,158.47 -14.91,80.4 43.21,84.46 -42.99,175.57 -13.46,14.22 -18.18,34.43 -39.03,57.21 -29.23,31.94 -81.92,115.76 -117.64,130.08 -32.71,13.1 -113.59,168.61 -131.49,207.55 -18.92,41.12 -95.95,98.12 -136.03,120.01 -59.67,32.59 -95.51,52.59 -150.86,95.06 -10.13,7.77 -19.47,14.4 -30.61,20.69 -60.67,15.01 -183.42,54.96 -242.67,77.86 -81.67,31.57 -204.82,44.24 -272.04,97.43 -29.04,22.98 -242.19,104 -282.63,114.52 -55.67,14.49 -154.54,53.57 -206.43,80.61 -63.25,32.96 -139.38,51.87 -208.5,80.32 -69.2,28.48 -100.66,30.74 -171.27,69.59 -33.83,18.62 -95.28,26.95 -122.94,56.8l-82.46 41.34 0 -16849.14 7080.7 0zm3373.02 1798.07c-13.79,-19.66 -51.13,-69.98 -38.86,-95.58 23.76,-49.54 16.4,-37.34 21.71,-88.8 3.34,-32.34 3.99,-55.15 4.82,-87.44 1.35,-52.36 13.79,-98.66 18.12,-150.26 4.2,-50.11 28.86,-51.95 70.21,-59.34 9.4,-1.68 30.49,3.19 40.44,5.31 50.24,10.69 22.02,132.52 30.74,168.6 8.92,36.93 -17.71,101.79 -5.51,127.33 17.96,37.61 32.97,31.36 42.51,87.65 4.37,25.8 7.85,58.54 23.07,80.06 12.11,17.12 43.6,88.61 41.42,109 -2.94,27.44 -29.04,39.09 -52,18.29 -44.85,-40.65 -34.88,-67.87 -106.54,-57.91 -2.7,0.37 -52.23,-11.4 -55.04,-12.73 -4.7,-2.21 -12.21,-7.56 -16.07,-11.1l-19.02 -33.08zm405.98 556.46c-17.88,-20.01 -40.05,-47.75 -27.91,-77.18 7.28,-17.63 49.93,-21.01 68,-9.02 17.68,11.73 27.29,1.33 59.06,29.98 32,28.86 37.44,6.86 68.48,36.92 10.61,10.28 13.56,7.28 28.83,25.92 9.14,11.16 64.34,48.92 4.13,36.59 -23.59,-4.83 -34.21,-23.64 -67,-17.3 -22.06,4.27 -45.18,0.25 -66.69,8.61 -13.31,5.17 -48.2,8.69 -51.88,-11.16l-0.14 -1.86 -14.88 -21.5zm619.3 -138.08c-18.67,-7.08 -26.44,-6.86 -29.01,-25.63 -2.28,-16.69 37.81,2.14 51.54,1.65 15.8,-0.56 51.31,5.14 65.65,1.04 23.62,-6.75 73.38,-1.19 85.66,-20.88 20.14,-32.27 -16.5,-32.63 56.49,-86.68 30.08,-22.27 23.86,-12.85 31.77,18.69 7.93,31.63 3.49,22.46 21.36,49.31 8.86,13.31 24.21,77.55 21.85,93.35 -1.31,8.82 0.61,77.36 0.61,92.35 0,19.73 7.6,84.3 -30.02,62.37 -4.95,-2.88 -35.6,-42.01 -45.5,-51.91 -18.03,-18.01 -37.18,-36.8 -49.26,-59.1 -14.41,-26.62 -47.78,-47.43 -78,-40.87 -25.97,5.63 -53.72,-11.12 -75.86,-16.33l-27.28 -17.36zm916.53 827.23c-23.07,-64.65 -27.21,-54.97 29.36,-43.2 28.21,5.86 23.1,-43.03 6.55,-46.3 -18.8,-3.72 -47.63,-25.36 -43.14,-46.78 4.97,-23.71 14.58,-23.4 5.79,-54.72 -6.39,-22.8 5.97,-30.19 -16.14,-33.07 -20.05,-2.61 -44.31,-52.28 -28.79,-63.66 26.81,-19.68 17.89,-21.87 33.63,-38.11 12.45,-12.85 15.3,22.56 15.22,27.85 -0.64,44.36 43.44,37.14 73.85,43.95 9.63,2.15 13.7,0.73 26.98,5.24 19.05,6.47 24.35,2.65 36.21,23.01 18.22,31.27 -78.66,39.71 -46.51,85.49 8.31,11.84 37.66,27.43 18.68,53.34 -7.5,10.25 -33.19,14.52 -20.12,46.24 8.06,19.57 -1.26,46.29 -19.71,56.43 -23.14,12.73 -20.34,13.33 -49.54,-0.82l-22.32 -14.89zm-853.27 13719.5c8.39,13.73 22.44,31.93 36.52,39.83 49.74,27.92 -0.49,47.33 -3.59,76.06 -0.76,7 59.35,3.5 62.98,2.75 30.18,-6.23 58.86,0.9 88.21,0.42 35.24,-0.58 78.89,9.92 105.27,9.92 25.72,0 33.53,5.1 56.22,9.92 28.82,6.12 118.39,40.09 127.76,41.35 29.5,3.96 54.73,15.46 82.68,23.72 48.86,14.44 60.17,43.56 77.29,53.57 56.1,32.81 73.14,98.63 93.03,105.69 48.8,17.34 91.32,43.1 138.34,55.14 67.21,17.22 11.35,68.25 50.18,83.25 14.69,5.67 184.65,-22.45 205.48,-28.11 41.62,-11.32 65.49,-3.88 101.1,-11.57 68.99,-14.9 143.53,-9.45 200.66,-58.45 47.83,-41.03 98.13,-81.65 147.18,-121.14 47.99,-38.64 60.11,-43.89 110.51,-73.85 59.97,-35.65 93.61,-35.94 145.8,-87.79 100.41,-32.57 206.58,-82.98 311.97,-98.64 50.87,-7.56 88.64,-22.4 133.53,-31.56 78.47,-16.03 61.12,-14.96 142.12,11.14 21.98,7.09 112.12,12.9 135.17,4.96 18.16,-6.25 126.1,-75.36 143.86,-88.87 64.37,-48.93 111.47,-17.69 140,-67.79 42.99,-75.51 65.78,-40.14 82.68,-71.4 46.84,-86.63 44.51,-41.42 66.57,-62.32 54.57,-51.7 16.67,-109.31 38.7,-142.31 30.3,-45.38 50.6,-7.44 50.6,-79.13 0,-65.09 2.02,-30.91 17.91,-72.05 11.35,-29.4 58.4,-155.53 71.39,-174.2 22.14,-31.86 21.27,-54.65 30.19,-85.85 7.04,-24.64 7.93,-79.44 7.84,-100.31 6.16,-16.45 17.39,-45 21.5,-61.32 11.96,-47.62 40.1,-67.83 45.88,-95.78 14.85,-71.87 31.83,-117.26 69.45,-181.47 48.65,-83.04 57.39,-140 94.54,-217.48 67.89,-141.6 89.44,-137.93 89.44,-303.47 0,-22.61 3.99,-66.25 3.31,-81.93 -0.93,-21.66 32.18,-115.59 43.41,-133.28 35.6,-56.06 32.08,-86.39 54.01,-140.42 28.46,-70.11 38.92,-143.14 46.44,-218.56 8.23,-25.32 21.85,-94.26 29.77,-127.33 37.15,-155.19 62.84,-220.66 62.84,-383.65 0,-73.29 29.86,-194.62 59.39,-261.8 29.48,-67.07 51.4,-136.41 71.81,-206.75 12.46,-42.97 29.1,-81.74 43.37,-122.75 32.56,-93.55 91.15,-198.48 116.47,-288.44 8.85,-23.33 12.43,-39.7 23.72,-63.83 43.52,-93.05 66.84,-226.06 112.3,-319.67 14.13,-29.1 28.48,-77.87 39.13,-98.56 24.34,-47.31 21.38,-62.43 35.29,-107.49 35.67,-115.58 23.27,-238.66 75.64,-349.72 19.9,-42.2 27.98,-89 43.42,-128.56 22.42,-57.47 22.7,-50.96 34.3,-122.79 3.2,-10.72 3.37,-16.68 4.96,-27.84 17.87,-125 60.03,-242.3 100.87,-360.91 40.23,-116.85 65.42,-236.41 110.66,-352.75 26.05,-66.99 72.23,-124.45 99.79,-191.16 16.41,-39.74 28.4,-84.37 43.13,-122.51 25.98,-67.31 9.59,-117.29 21.35,-164 6.81,-27.03 7.23,-79.88 11.16,-108.71 12.44,-57.31 25.25,-88.74 49.04,-140.56 35.92,-78.26 39.29,-80.34 61.61,-163.71 19.89,-74.3 12.23,-126.18 24.66,-200.09 3.96,-23.54 45.04,-66.32 62.98,-86.84 15.77,-18.04 62.76,-119.08 67.66,-142.46 1.21,-5.77 75.35,-223.88 79.52,-232.73 17.99,-38.28 23.67,-74.4 44.65,-117.04 18.23,-37.06 25.95,-71.1 38.74,-107.77 20.67,-59.31 44.83,-163.73 68.88,-212.75 15.53,-54.3 68.6,-147.53 67.8,-195.98 -1.39,-84.45 49.26,-146.92 47.96,-207.37 -1.69,-78.54 9.09,-77.42 30.33,-147.74 17.09,-56.58 98.16,-289.44 72.62,-334.03 -36.7,-64.09 -36.81,-46.62 -36.81,-127.71 0,-60.31 0.03,-71.51 -32.5,-120.06 -30.55,-45.58 -15.75,-52.35 -24.95,-88.73 -11.13,-44.01 24.36,-120.24 40.92,-157.52 3.34,-6.7 6.32,-12.74 9.49,-19.56 9.03,-19.36 34.75,-88.79 41.2,-97 78.87,-100.34 31.43,-95.51 59.96,-154.78 24.54,-50.97 63.86,-96.88 121.28,-106.92 23.56,-4.12 101.25,-34.88 116.85,-30.61 38.08,10.41 -48.77,-69.1 -55.66,-73.99 -19.45,-13.78 -25.7,-73.9 -2.22,-85.99 43.81,-22.56 53.36,-48.44 72.9,-92.61 16.27,-36.77 24.14,-84.15 36.24,-117.27 47.89,-131.09 -5.25,-49.21 -12.67,-100.44 -11.15,-77.1 3.26,-136.47 42.58,-203.97 0,-87.09 -148.59,-61.45 -172.27,-121.14 -47.96,-120.9 20.55,-197.98 -8.55,-312.82 -12.39,-48.89 -30.8,-96.48 -42,-142.74 -12.44,-51.35 -29.98,-82.36 -46.31,-127.89 -15.94,-44.46 32.21,-119.34 60.77,-128.42 44.18,-14.06 94.05,-45.23 136.97,-43.56 48.71,1.89 55.15,-9.78 78,-9.78 10.44,15.27 5.51,33.3 11.01,50.03 9.12,27.77 8.16,142.29 30.33,152.28 11.01,4.95 37.1,43.97 40.92,55.66 12.69,38.91 -16.71,16.07 25.23,99.21 5.28,7.14 10.85,13.83 16.39,20.84 18.93,23.96 20.27,109.89 41.76,126.34 64.86,49.63 37.86,54.11 127.48,74.84 42.3,9.78 23.92,55.4 64.21,32.22 40.05,-23.04 25,-55.31 39.55,-61.33 52.14,-21.56 7.26,-74.86 44.22,-83.34 26.37,-6.04 45.04,-29.42 43.42,-55.28 -1.89,-30.04 31.03,-91.7 43.56,-124.17 21.79,-56.46 37.21,-124.17 56.74,-180.9 15.45,-44.85 23.21,-78.57 35.72,-121.71 10.15,-34.97 12.81,-62.35 12.81,-98.79 0,-52.19 -1.23,-32.69 -9.92,-78.01 -15.84,-82.58 1.06,-48.71 -43,-138.62 -8.37,-16.74 -20.35,-38.15 -33.36,-51.69 -55.52,-57.84 -96.7,-175.33 -131.44,-249 -38.51,-81.67 -26.91,-83.79 -45.78,-160.02 -11.52,-46.54 -23.99,-81.06 -32.93,-130.78 -18.46,-102.62 -25.87,-111.59 -5.11,-218.23 9.59,-49.26 42.12,-106.68 -14.83,-124.16 -77.14,-23.7 -10.45,-147.9 -14.22,-203.26 -5.41,-79.43 -45.48,-22.54 -26.6,-147.75 -1.53,-31.29 -11.62,-198.49 -23.01,-224.89 -23.44,-54.33 -44.01,-118.47 -57.45,-176.14 -22.31,-95.7 -74.59,-117.13 -41.49,-221.87 29.87,-94.48 -54.79,27.75 -63.26,-49.33 -4.98,-45.29 -38.7,-134.87 -38.03,-161.73 1.09,-43.67 -10.79,-87.46 -11.72,-121.98 -1.17,-43.23 -23.9,-75.03 -40.78,-112.45 -11.3,-25.08 -12.58,-72.46 -27.16,-74.42 -32.84,-4.41 -27.72,39.7 -59.25,-39.54l-2.08 -5.53c-6.44,-17.15 -18.22,-43.82 -21.78,-55.37 -7.89,-25.59 -24.1,-43.79 -54.14,-43.28 -104.24,1.77 -54.67,-7.83 -92.33,-70.68 -12.84,-21.44 -21.7,-48.46 -41.77,-44 -69.64,15.5 -40.91,-84.36 -40.91,-128.98 0,-81.63 -43.91,-58.9 -33.64,-113.95 21.51,-115.26 -2.77,-52.98 -75.07,-79.39 -48.51,-17.71 -69.51,-80.16 -83.11,-125.81 -9.96,-33.43 -29.88,-168.15 -34.73,-178.83 -10.61,-23.35 -30.26,-106.46 -34.15,-111.65 -5.41,-7.2 -71.36,-11.49 -79.95,-8.83 -79.19,24.57 -24.27,69.93 -125.82,119.06 -9.23,4.47 64.63,45.35 72.05,53.49 34.6,37.94 -2.52,41.76 -15.26,70.68 -21.52,48.88 -76.46,79.25 -78.14,84.62 -11.79,37.67 -22.35,37.01 -57.74,48.09 -42.84,13.41 -43.79,27.08 -78.57,59.26 -52.29,48.36 -30.25,83.49 -43.37,115.6 -28.15,68.86 -21.48,-57.83 -84.2,-55.79 -60.58,1.97 -46.09,-23.97 -65.2,-23.15 -64.53,2.76 -38.66,28.36 -8.27,71.1 5.45,7.7 14.4,16.58 21.36,23.15 46.94,44.37 25.92,61.19 81.31,61.19 48.53,0 -38.8,112.76 25.47,126.1 27.74,5.76 -50.37,84.28 36.8,136.97 50.1,30.28 -14.27,151.92 -37.04,185.87 -15.94,23.75 -19.39,46.46 -30.33,63.26 -8.09,12.43 -26.66,104.17 -29.34,122.24 -7.31,49.08 -30.42,51.32 -10.77,98.69 18.39,44.33 51.17,55.35 13.22,82.97 -60.23,43.84 -35.14,59.93 -49.46,101.25 -5.79,16.7 -93.4,75.56 -115.9,74.84 -54.79,-1.76 -33.53,-18.81 -95.35,-6.48 -22.82,4.55 -83.93,-51.07 -92.32,-70.82 -46.04,-108.35 -19.48,18.44 -24,29.34 -16.17,39.03 20.39,80.97 22.07,95.35 4.24,36.29 -23.77,35.55 -53.06,38.6 -20.68,0 -35.26,-7.49 -47.39,-6.76 -46.26,2.78 -74.98,15.87 -74.98,65.34 0,49.39 -33.19,208.69 -92.32,220.6 -51.95,10.45 -70.99,-54.09 -91.24,-86.93 -27.61,-44.8 -22.13,-76.26 -37.46,-111.65 -3.79,-8.74 -85.77,-68.25 -91.23,-69.6 -66.85,-16.49 -30.72,-72.76 -67,-49.98 -44.13,27.71 -30.41,82.12 -56.74,87.5 -42.28,8.63 -53.26,70.67 -43.71,98.08 24.71,70.92 -34.46,57.53 -19.98,130.79 15.54,78.63 26.54,53.42 41.76,75.92 19.16,28.32 57.9,53.97 70.83,76.91 26.37,46.83 31.83,53.48 -36.77,65.45 -79.5,13.87 84.86,40.85 84.86,93.02 0,87.31 -108.38,-0.71 -117.83,31.85 -16.44,56.63 110.92,89.95 42.75,127.04 -71.21,38.75 -141.73,-19.57 -149.81,-16.25 -36.72,15.11 -3.72,77.56 -66.01,120.72 -29.37,20.35 -25.1,46.45 -40.49,70.26 -26.4,40.84 6.9,134.4 27.12,136.16 26.16,2.28 -32.26,38.89 -16.96,82.4 7.49,21.32 37.3,43.85 22.49,66.43 -29.62,45.13 -32.05,27.1 -70.02,99.08 -11.07,13.67 -19.48,16.01 -27.97,34.58 -42.25,92.35 -49.12,63.38 -56.37,169.67 -4.57,67.03 -58.51,85.09 -87.07,119.72 -8.4,10.18 -84.29,157.64 -94.41,92.89 -9.08,-58.13 -21.44,-43.75 -34.87,-84.62 -15.1,-45.99 55.46,-99.42 83.49,-138.2 92.5,-127.98 33.84,-90.87 21.5,-181.9 -20.43,-150.77 -61.42,-39.94 -109.66,-3.44 -55.99,42.35 -42.23,75.07 -106.54,105.4 -20.64,9.73 1.03,35.72 18.9,36.52 29.09,1.31 126.06,-40.78 60.19,25.09 -40.25,40.25 -115.16,60.75 -127.48,100.45 -17.62,56.79 -61.5,105.86 -119.43,123.45 -48.04,14.59 -118.68,108.76 -47.44,151.72 55.01,33.16 -24.15,72.21 39.26,73.75 40.87,0.99 87.7,-21.48 74.04,30.99 -8.74,33.57 9.37,94.56 -8.69,105.83 -53.73,33.55 -92.97,-9.45 -152.94,33.08 -24.46,17.34 -80.43,25.56 -92.37,0.42 -24.93,-52.48 115.56,-114.73 114.67,-137.25 -2.39,-60.44 -94.64,-56.17 -97.71,-74.28 -7.29,-42.95 32.91,-16.47 -39.54,-72.9 -24.25,2.49 -46.14,14.05 -68.23,23.58 -48.66,21.01 -59.24,38.39 -96.57,61.99 -54.59,34.5 -68.71,57.71 -114.81,95.91 -35.13,29.1 -95.89,102.89 -125.11,119.77 -80.22,46.36 -90.13,64.56 -152.56,127.05 -65.74,65.8 -30.65,111.34 -57.74,188.14 -21.61,61.23 -34.49,44.03 -75.79,52.06 -108.36,21.09 -39.59,-49.46 -38.31,-71.24 2.05,-34.82 -59.85,-35.05 -79.52,-36.81 -50.88,-4.55 -56.71,14.88 -94.97,32.55 -31.29,14.45 -83.01,65.36 -117.26,47.77 -91.78,-47.14 -164.18,21.83 -249.7,7.46 -19.06,-3.2 -30.85,-10.86 -34.16,-11.57 -37.16,-7.94 -43.07,71.72 -46.73,89.3 -17.75,85.45 -7.72,81.28 -75.64,148.82 -17.54,0 -38.9,1.07 -52.92,-13.23 -61.92,-63.13 -69.14,-14.47 -108.15,-21.92 -40.28,-7.69 -84.67,24.71 -78.29,64.54 10.34,64.46 -62.25,103.34 -56.36,37.84 9.32,-103.51 -27.01,-11.81 -48.24,-121.37 -9.75,-50.32 -108.13,51.27 -124.16,68.36 -45.67,48.66 -105.13,76.45 -138.34,112.55 -50.89,55.31 -34.21,27.69 -85.19,63.68 -68.16,48.11 -26.8,43.79 -119.49,67.1 -26.94,6.77 -134.93,-32.03 -183.65,-31 -57.62,1.21 -107.99,-34.15 -147.31,-38.17 -58.22,-5.95 -71.68,-20.89 -71.68,66.29 0,73.57 -19.17,55.52 -33.64,87.64 -12.14,26.94 27.45,133.84 35.29,157.09 16.33,70.3 41.35,39.83 41.35,89.3 0,38.8 -69.75,57.37 -51.41,109 31.86,89.67 -20.42,83.58 -42.85,136.69 -16.44,38.89 -85.47,150.65 -112.87,174.48 -43.24,37.61 -60.7,123.42 -94.69,143.73 -71.82,42.9 -58.37,121.28 -95.49,161.11 -42.72,45.85 -10.28,92.12 -62.41,132.81 -15.84,12.36 -78.46,93.2 -88.77,114 -26.07,52.61 -21.3,138.73 -22.02,195.66 1.73,33.46 -7.55,144.14 32.26,164.69 32.73,16.9 55.64,41.97 57.74,79.51 2.88,51.52 4.12,45.13 -8.7,93.84 -10.74,40.82 8.79,225.83 16.82,273.28 18.39,108.74 22.77,122.07 8.98,234.96 -14.44,118.12 72.31,116.54 102.1,211.24 20.2,87.64 59.97,173.18 107.2,249.7 12.01,19.45 23.48,77.34 9.78,101.16 -22.63,39.35 -18.1,78.87 -6.19,120.43 19.59,68.34 -14.36,136.84 41.2,239.78 12.56,23.27 79.94,103.31 86.13,118.64 22.98,56.91 25.87,71.33 57.45,124.87 21,35.59 83.25,166.28 30.91,196.36 -35.64,20.48 -54.77,68.85 -38.75,107.77 7.39,17.96 4.96,28.42 4.96,47.67 -22.7,146.68 1.21,118.44 75.93,205.19 21.26,24.7 0.54,116.98 -25.89,135.46 -24.73,17.3 -32.39,76.52 -56.79,112.45 -27.74,40.83 -37.24,98.02 -85.99,135.03 -20.16,15.31 -51.7,73.42 -56.65,101.44 -18.54,105.04 -40.94,56.67 -73.42,110.37 -13.45,22.23 -4.26,37.87 -45.22,48.66 -53.57,14.12 -36.31,55.72 -60.62,106.65 -26.82,56.18 -14.43,125.5 -61.61,172.82 -30.09,30.18 -47.32,4.17 -97,81.98 -40.92,64.09 -44.14,63.33 -60.09,145.94 -2.47,46.05 -39.79,236.95 -52.92,283.2 -40.65,143.2 -65.13,80.42 -97.29,130.21 -10.6,16.41 5.41,85.03 -54.99,64.06 -32.45,-11.26 -26.48,-40.27 -75.22,-7.83 -20.21,13.45 -137.07,-3.85 -120.19,85.56 6.4,33.94 -46.63,40.57 -36.38,120.48 2.94,22.94 8.2,201.93 -18.62,198.82 -44.68,-5.19 -42.53,-4.58 -68.46,36.23 -17.57,27.66 5.26,8.69 -32.13,36.15 -50.13,36.83 7.63,68.44 -14.45,138.91 -18.76,59.85 3.64,126.07 -78.01,138.99 -35.47,5.62 -36.69,66.02 -42.57,94.83 -6.02,206.96 22,96.1 44.79,104.32 1.86,0.67 19.85,58.76 8.84,63.12 -35.43,14.04 -43.9,7.35 -52.11,9.36 -6.36,1.55 -15.09,144.82 2.22,167.3 39.47,51.27 48.44,258.81 87.78,345.9 30.27,67 35.25,148.15 63.5,206.14 31.53,64.72 69.05,172.59 137.54,205.05 18.21,8.63 75.86,57.37 79.8,77.58 4.66,23.92 10.07,76.48 14.6,91.23 8.38,113.91 8.61,164.92 87.07,248.47 66.13,70.43 59.73,101.12 79.94,186.58 6.41,27.13 -6.6,29.36 -34.16,47.82 -18.34,12.28 -66.29,-4.28 -93.45,69.03 -7.88,21.26 8.12,33.13 -4.25,76.06 -13.25,45.97 -1.91,110.74 17.34,153.37 30.42,67.37 7.38,113.07 14.88,184.54 5.72,54.65 10.29,133.3 4.16,186.72 -2.6,22.6 6.03,68.81 3.3,100.74 -0.7,8.21 -0.42,13.63 -0.42,21.63 5.25,61.21 8.1,91.98 40.91,140.42 28.33,41.81 38.11,57.63 76.08,94.82 29.33,28.75 45.7,74.48 91.37,112.46 39.53,32.87 108.49,67.02 70.02,132 -15.8,26.69 -26.06,62.63 1.09,85.28 40.62,33.89 31.33,99.98 57.45,136.17 38.79,53.76 18.19,179.3 115.47,201.03 34.92,7.8 92.95,36.92 113.58,65.35 11.58,15.96 47.16,57.36 60.76,70.96l33.89 20.66zm4139.08 -13258.93c-19.73,-25.94 -61.79,-80.81 -13.52,-98.65 72.64,-26.84 25.81,-19.26 53.34,-70.16 12.13,-22.41 81.44,-49.97 59.39,30.57 -12.07,44.1 28.71,-1.49 18.47,74.98 -2.78,20.81 51.86,68.33 16.83,99.5 -16.54,14.72 -23.47,-24.81 -51.17,-12.95 -24.54,10.51 -44.25,2.96 -66.81,-6.75l-16.53 -16.54zm7437.28 8551.84c-18.84,-54.45 -11.05,-45.9 8.55,-89.3 24.47,-54.19 107.86,-75.01 145.38,-128.84 34.01,-48.79 70.89,-26.96 121.81,-19.99 27.96,3.83 138.76,30.58 157.09,45.88 52.05,43.44 27.62,39.07 52.26,94.82 23.05,52.18 49.62,83.02 100.87,109.99 12.33,6.49 42.91,28.14 42.43,44.89 -1.15,39.86 -21.38,89.34 -12.81,137.12 16.07,89.5 5.94,105.77 -81.45,136.16 -43.85,15.24 -53.97,-10.08 -102.67,-0.43 -46.05,9.12 -103.46,-28 -145.37,-39.26 -39.39,-10.58 -84.96,-68.47 -131.21,-66.97 -25.88,0.84 -77.98,-30.85 -82.12,-65.46 -1.61,-13.43 -28.68,-108.26 -36.38,-115.62 -2.47,-2.36 -6.02,-4.78 -6.61,-8.27l-29.77 -34.72zm2283.26 -680.06c-2.62,-1.33 -73.56,-30.53 -59.11,-50.84 12.85,-18.04 37.7,-47.76 36.1,-68.08 -2.24,-28.38 -46.27,-53.73 16.39,-89.01 53.88,-30.34 19.05,-112.48 66.01,-161.82 26.4,-27.75 48.5,-14.74 68.36,-80.47 13.21,-43.69 73.14,-120.92 117.41,-133.09 25.09,-6.9 83.75,38.61 94.54,58.16 24.69,44.69 33.49,83.03 61.85,126.76 11.36,17.51 50.84,90.74 51.69,110.66 2.85,66.43 -61.77,67.25 -62.84,119.77 -1.41,69.47 -80,17.8 -44.65,74.93 27.46,44.38 -29.78,57.96 -61.89,79.8 -55.66,37.86 -172.83,47.23 -235.91,31.42l-47.95 -18.19z"/>
  <path class="fil0 str1" d="M1698.74 1000c30.55,73.85 34.67,64.15 89.73,113.79 5.79,5.23 46.42,24.92 55.37,40.26 20.18,34.62 34.64,59.87 47.15,99.22 11.46,36.05 35.42,47.44 -21.93,83.1 -52.38,32.58 37.18,57.7 -4.82,89.02 -89.02,66.4 -6.92,57.05 -20.12,122.09 -2.91,14.33 -8.91,68.42 -2.08,81.17 21.66,40.42 17.7,14.92 23.58,62.83 5.35,43.64 -1.99,89.53 4.67,122.37l0.43 6.62c27.72,69.65 3.31,68.95 3.31,126.24 0,33.02 -2.22,52.95 11.15,85.43 7.77,18.89 -22.7,68.19 -21.08,105.83 1.42,33.11 19.63,62.47 18.19,95.91 -0.69,15.98 45.04,67.89 41.35,153.79 -0.93,21.64 20.24,128.8 31.84,147.03 19.68,30.94 69.3,92.97 18.19,118.78 -2.3,1.17 -18.65,28.69 -39.03,41.77 -33.44,21.44 -96.16,85.8 -115.18,119.06 -9.3,114.2 -17.81,97.66 -97.57,165.51 -31.39,26.7 -21.45,48.91 -35.96,84.19 -1.62,3.96 6.76,36.87 -3.3,61.19 -5.13,12.38 -21.32,144.78 -14.89,160.4 9.2,22.32 15.4,48.94 32.79,69.59 12.47,14.8 16.71,40.51 38.04,56.52 21.54,16.16 39.69,25.17 64.06,37.18 34.23,16.86 21.34,50.26 34.59,88.2 10.09,28.89 -23.51,85.15 0.85,168.54 28.31,96.84 89.82,40.01 66.81,151.05 -1.65,7.98 -1.09,12.82 -1.09,20.93 29.47,65.67 25.04,48.32 52.49,89.29 15.48,23.1 35.15,141.13 35.15,173.64 0,100.75 49.73,175.59 -19.84,273.93 -44.26,62.57 20.36,106.65 41.91,161.11 14.06,35.55 21.17,60.15 33.59,94.55 12.85,35.57 44.06,52.19 79.24,54 87.1,4.48 53.2,13.06 99.78,67.94 36.35,42.83 124.25,38.34 57.03,158.24 -5.93,10.57 -16.34,23.47 -23.81,36.89 -4.14,98.16 -9.71,45.62 -64.5,122.37 -30.89,43.28 7.73,71.86 9.79,97.57 1.8,22.52 24.21,107.6 40.91,126.1 26.51,29.36 11.44,18.82 47.01,45.45 27.06,20.27 50.86,51.29 68.74,78.57 15.33,23.4 67.55,14.5 88.22,3.46 18.4,-9.83 41.12,-36.9 42.85,-58.45 3.14,-39.06 55.3,-99.63 38.6,-124.46 -2.95,-4.38 -16.98,-86.58 -10.35,-89.43 34.02,-14.6 22.6,-38.07 43.42,13.23 2.27,5.59 34.67,26.19 47.96,60.67 6.66,17.29 29.11,41.02 46.87,50.69 81.89,44.6 54.74,11.49 98.65,97.43 21.14,41.38 71.14,36.43 104.98,132.43 5.68,16.1 56.82,83.78 83.25,71.67 11.08,-5.08 21.75,-20.46 44.93,-30.75 26.78,-11.9 -4.96,-54.81 -18.61,-69.03 -38.69,-40.31 -22.7,-87.2 -54.71,-138.34 -0.44,-0.69 -64.52,-184.16 -66.43,-192.96 -1.33,-6.1 -28.28,-65.63 -31.57,-77.58 -9.18,-33.39 -56.57,-187.2 -77.15,-199.24 -43.69,-25.57 -97.92,-9.43 -144.01,-18.19 -79.31,-15.08 -80.52,-15.56 -68.89,-100.08 5.32,-38.62 11.98,-50.94 6.19,-93.82 1.51,-14.31 24.17,-164.2 11.58,-181.9 -38.05,-53.51 -91.13,-17.41 -65.58,-109.57 5.29,-19.09 7.64,-115.63 0,-136.83 -21.73,-60.25 16.77,-98.62 -28.68,-183.41 -40.79,-76.09 -21.69,-124.58 7.05,-200.66 17.62,-46.67 51.27,-114.7 28.1,-164.37 -28.77,-61.69 -34.7,-87.87 -79.8,-149.82l-3.3 -4.54c-48.24,-78.93 -41.57,-100.9 -39.83,-186.48 0.64,-31.79 9.13,-53.82 3.87,-90.53 -3.56,-24.86 -5.57,-85.06 9.36,-107.06 16.26,-23.97 65.4,-40.66 97.56,-68.89 42.35,-37.16 25.17,-21.63 54.71,-65.2 50.04,-73.8 74.16,-70.79 77.59,-162.72 1.83,-48.98 38.28,-77.31 36.52,-152.56 -0.83,-35.3 5.65,-37.13 -0.57,-79.79 -1.96,-13.46 -1.09,-31.76 -1.09,-45.88 0,-37.36 1.2,-81.17 -6.19,-118.07 -8.34,-41.69 -8.43,-74.94 -23.15,-118.4 -39.93,-117.95 -152.02,-65.1 -159.03,-172.12 -3.51,-53.58 -82.42,-118.42 -122.51,-147.04 -12.75,-9.1 -57.35,-93.33 -48.1,-114.24 13.41,-30.33 51.49,-70.56 54.71,-100.73 3.22,-30.18 19.06,-42.16 18.19,-96.05 -0.32,-19.69 -3.31,-34.94 -3.31,-54.43 -24.29,-119.14 1.95,-72.59 -61.32,-163.29 -16.25,-23.29 -13.4,-30.11 -35.16,-58.3 -13.9,-18.02 -37.8,-59.61 -25.89,-81.46 22.11,-40.55 31.01,-78.1 0.57,-115.76 -10.47,-12.94 -0.57,-118.64 -0.57,-145.75 0,-18.47 -28.65,-109.66 -28.11,-118.66l-504.36 0zm1621.82 5661.92c-18.13,5.9 -31.77,12.12 -46.31,-3.24 -9.61,-10.15 12.91,-87.63 14.89,-105.01 3.44,-30.24 11.59,-62.63 34.11,-84.22 20.72,-19.86 32.82,-46.09 36.72,-74.18 1.99,-14.36 27.38,-101.94 50.43,-77.6 9.36,9.88 65.31,1.2 86.23,4.63 34.23,5.61 34.25,5.94 47.17,43.06 23.94,68.78 -1.69,58.61 -0.82,120.87 0.24,17.22 2.48,32.92 2.48,52.28 0,71.67 -3.13,43.01 29.51,100.54 16.87,29.74 2.02,73.49 8.31,100.45 6.94,29.77 -13.94,82.3 -48.1,91.23 -16.74,4.38 -31.02,-2.29 -51.12,1.3 -21.07,3.76 -40.74,-24.88 -60.9,-31.96 -7.3,-2.56 -45.38,-24.59 -50.3,-30.67 -17.91,-22.13 -29.98,-61.55 -38.18,-88.61 -2.69,-8.91 -2.99,-7.35 -9.16,-12.26l-4.96 -6.61zm-400.41 -680.97c-23.66,-25.24 -26.82,-33.56 -20.05,-66.14 5.04,-24.28 -0.31,-66.23 5.79,-97.57 3.2,-16.48 32.59,-80.34 48.99,-80.34 7,0 21.9,34.42 32.25,44.78 19.07,19.11 19.04,20.04 41.95,35.56 7.7,5.22 25.85,27.37 25.85,39.07 0,18 -8.83,31.46 -22.33,42.86 -19.19,16.21 -24.02,13.4 -36.59,40.44 -15.26,32.8 -4.69,23.1 -7.16,53.74 -1.49,18.58 -29.43,4.97 -46.37,4.97l-22.33 -17.37z"/>
  <g id="_2594069290384">
   <path class="fil2 str2" d="M2959.02 5604.98c-1.38,43.97 -2.76,87.95 -4.14,131.92"/>
   <path class="fil2 str2" d="M2968.24 6002.36c40.99,39.78 46.87,43.73 52.92,92.76 12.85,104.12 -42.3,125.6 -49.75,160.4 -7.03,32.81 -23.36,63.17 -44.22,89.16 -4.03,5.03 -18.96,70.91 -32.42,96.05 -21.83,40.75 -24.28,120.5 -72.47,148.55 -18.35,10.68 -55.25,44.39 -82.4,48.1 -17.8,2.44 -112.06,42.73 -122,51.82 -3.48,3.17 -18.32,11.36 -20.22,16.12 -15.97,39.99 -48.78,153.21 -95.48,169.24 -53.41,18.34 -53.77,11.37 -60.1,78.24 -4.81,50.88 8.72,72.91 -9.36,133.94 -9.24,31.19 7.02,126.4 18.85,158.23 13.79,37.12 19.86,89.9 37.09,126.1 25.67,53.96 25.4,72.8 64.35,125.12 65.66,88.22 -5.95,186.76 83.77,271.99 25.41,24.15 80.54,46.17 116.89,87.13 2.54,2.87 9.04,7.01 11.01,10.87 19.02,37.17 70.14,145.48 115.33,161.48 70.34,24.89 37.92,60.84 53.34,81.6 23.82,32.08 60.46,32.78 70.97,84.48 10.96,53.87 -18.14,81.42 1.37,128.84 11.64,28.27 -45.78,42.7 -0.66,106.92 28.62,40.73 2.74,73.05 2.74,124.59 0,17.65 -1.66,32.67 -1.66,52.12 0,9.64 0,19.27 0,28.91 0,0.33 6.21,152.63 7.85,158.33 3.32,11.46 5.14,58.47 13.23,85.84 4.24,14.33 6.43,42.23 14.88,61.76 16.66,38.48 -3.89,120.74 -15.69,160.83 -7.14,24.29 5.35,111.28 12.81,132.68"/>
   <path class="fil2 str2" d="M1000 7351.07c16.35,7.17 33.08,13.54 49.05,21.5 1.14,0.57 23.02,76.66 26.46,81.03 32.63,41.55 34.06,28.7 84.33,45.87 81.14,27.7 12.85,66.8 70.97,102.52 36.34,22.33 23.94,6.29 58.02,41.78 26.22,27.32 23.11,11.63 38.45,56.22 32.23,93.71 78.09,82.4 100.02,114.24 7.97,11.58 60.99,61.94 78.72,85.43 22.44,29.71 55.73,94.95 97,93.03 31.24,-1.46 39.08,59.47 119.63,36.8 56.88,-16.01 98.06,121.1 170.18,108.72 117.99,-20.27 69.8,39.85 168.25,25.22 52.21,-7.76 81.64,3.26 105.69,49.19 25.35,48.44 82.77,20.69 110.37,66.58 10.3,17.13 29.84,36.88 48.52,44.21 73.01,28.66 111.46,39.36 162.2,99.22 39.4,46.5 84.26,80.84 85.71,143.73 0.45,19.9 63.85,160.44 84.34,168.24 14.43,5.49 21.96,17.05 33.63,26.89 7.57,6.38 -12.35,84.08 26.7,129.13 34.54,39.83 52.05,98.56 81.17,145.09 30.97,49.46 15.66,28.33 55.42,66.57 32.15,30.91 15.3,105.15 87.64,120.15 6.24,1.29 92.31,9.91 96.74,12.13"/>
   <path class="fil2 str2" d="M3030.95 9232.98c24.57,9.53 29,11.87 37.06,34.54 9.7,27.32 -4.12,44.06 29.89,70.61 49.4,38.58 63.61,23.82 73.8,96.69 6.35,45.38 7.96,97.66 57.77,117.88 35.67,14.48 48.94,29.92 91.39,40.1 14.55,3.49 25.25,9.04 43.28,12.61 18.63,3.7 80.48,24.9 97.5,33.61 17.53,8.98 30.19,15.01 48.45,24.27 33.01,16.73 53.24,31.84 67.73,65.32 9.33,21.55 55.08,103.23 71.03,115.07 31.17,23.16 10.44,11.42 47.68,22.18 29.99,8.66 48.69,50.62 76.02,68.16 11.5,7.38 23.27,19.05 38.3,28.37 49.93,30.94 66.56,110.19 80.41,163.17 13.26,50.7 23.48,27.07 55.75,67.04 19,23.52 33.87,35.17 52.39,40.99 14.19,4.45 30.57,5.54 52.59,5.93 22.61,0.4 44.61,17.57 79.53,5.93 37.23,-12.4 35.05,-16.5 66,-33.14 23.41,-12.58 26.45,6.95 47.14,18.48"/>
   <path class="fil2 str2" d="M3999.4 10233.59c-5.59,16.47 -14.47,32.19 -16.78,49.42 -5.17,38.57 -1.26,37.87 12.19,69.17 11.6,26.99 23.8,19.52 20.95,60.85 -2.3,33.44 4.14,49.65 24.8,76.4 0.52,0.68 8.57,13.5 9.03,14.34"/>
   <path class="fil2 str2" d="M4045.12 10496.57c9.68,15.28 19.37,30.55 29.05,45.83"/>
   <path class="fil2 str2" d="M1000 13465.46c128.58,-30.44 47.99,-49.49 150.32,-88.21 45.14,-17.08 36.77,34.87 77.58,10.63 28.81,-17.1 74.2,12.63 98.94,27.12 76.38,44.71 37.07,-56.1 93.45,-12.38 28.31,21.94 117.1,22.54 131.06,-24.28 3.34,-11.19 24.06,-62.37 34.73,-68.32 9.83,-5.48 61.31,-20.06 70.11,-18.62 59.53,9.8 69.65,-45.31 128.85,-5.39 23.07,15.55 58.2,-2.23 75.92,-23.1 56.53,-66.61 98.94,76.21 182.09,3.68 40.25,-35.12 -6.38,-61.81 107.07,-130.35 15.14,-9.15 24.69,0.14 47.38,-23.01 32.52,-33.17 102.36,-106.79 150.49,-66.57 17.22,14.38 61.44,42.26 82.68,33.5 88.39,-36.46 39.44,-48.99 100.73,-78.67 47.95,-23.21 22.94,-13.27 77.72,-26.59 17.06,-4.14 101.66,-56.49 115.9,-71.68 15.65,-16.7 30.26,-34.36 45.39,-51.54"/>
   <path class="fil2 str2" d="M1000 17246.54c42.1,44.38 54.73,63.15 101.98,33.49 10.72,-6.72 66.75,-14.74 79.8,6.19 27.53,44.13 11.1,93.23 43.8,142.22 17.71,26.52 32.95,120.07 8.55,143.73 -17.27,16.75 -27.06,40.58 -56.09,56.78 -32.2,17.96 -41.09,62.28 -51.26,95.49 -5.78,18.89 -4.25,39.29 -6.38,58.94"/>
   <path class="fil2 str2" d="M3303.81 1668.37c-32.13,-38.25 -46.26,-55.67 -92.6,-59.39 -1.49,-0.12 -33.49,-24.84 -67.37,-28.11 -39.98,-3.87 -62.31,3.75 -102.96,-0.28 -59.06,-5.87 -151.2,39.45 -136.83,114.1 6.5,33.79 0.55,78.46 19.42,119.2 21.51,46.45 66.15,114.2 66.15,162.2 0,105.01 -23.56,145.89 63.26,230.95 65.86,64.53 22.86,205.23 88.88,289.52 5.78,7.37 14.37,13.46 23.15,16.82 48.38,18.51 58.8,21.51 105.69,19.99 6.13,-0.2 92.05,-26.59 100.44,-31.42 31.62,-18.23 48.33,-13.3 62.84,-54.29 12.38,-34.98 51.01,-23.77 72.1,-43.7 45.66,-43.17 87.28,-44.34 143.44,-29.62 3.78,0.99 75.56,42.96 97,49.18 38.14,11.06 38.35,67.37 80.37,61.61 31.48,-4.31 44.21,-21.05 52.92,6.76 12.95,41.31 87.25,-50.5 80.74,84.86 -2.13,44.23 -13.54,100.34 56.65,83.24 44.62,-10.86 50.28,40.23 114.62,3.88 23.49,-13.28 48.19,-24.05 74.98,-23.16 125.79,4.19 52.73,19.48 92.47,78.29 23.99,35.5 31.98,-40.15 64.77,-31.98 21.21,5.29 39.62,30.07 71.39,4.96 27.83,-21.99 65.87,-28.92 94.78,-63.5 15.88,-18.98 22.98,-18.83 44.69,-48 12.97,-17.41 24.07,-88.21 46.55,-42.86 14.24,28.72 77.95,27.06 102.38,17.1 103.89,-42.4 102.09,19.28 188.51,31.85 15.96,2.32 71.71,5.87 78.72,11.15 59.57,44.86 61.29,-53.53 173.64,41.34 77.39,65.34 97.46,-95.13 218.7,-63.92 80.9,20.83 110.55,-37.01 182.28,-66.72 86.5,-35.84 45.39,-114.26 78.14,-136.02 89.33,-59.38 7.53,-120.22 143.16,-158.47 7.62,-2.15 9.26,-1.99 17.25,-3.16 80.56,-11.81 79.19,-23.6 152.56,-0.43 59.28,18.71 83.68,-58.8 223.48,42.19 35.07,25.33 30.05,11.87 48.38,22.59 15.64,9.16 25.28,27.92 51.16,41.48 56.07,29.36 81.04,68.4 153.93,19.28 69.18,-46.63 40.8,-39.66 89.02,-92.89 86.59,-95.56 70.59,-11.94 169.19,-70.12 61.54,-36.3 98.25,-100.5 184.92,-86.55 29.03,4.67 160.13,-23.9 195,-9.08 76.36,32.46 89.37,46.62 158.22,-16.53 12.41,-11.39 156.95,-106.57 174.82,-113.82 14.59,-5.91 56.01,-22.92 66.19,-32.13 60.55,-54.77 72.33,-47.89 144.86,-61.46 63.93,-11.95 78.76,-12.35 131.73,-50.98 43.31,-31.58 62.68,-35.62 114.9,-43 20.51,-2.89 122.91,-43.52 136.03,-54.57 31.4,-26.42 49.89,-98.95 110.65,-114.24 57.5,-14.48 67.06,-89.3 148.31,-114.39 29.92,-9.24 95.25,-40.99 118.49,-62.98 4.29,-4.07 26.92,-22.94 31,-25.89 22.49,-16.24 44.49,-33.19 66.73,-49.78"/>
   <path class="fil2 str2" d="M14661.88 7154.13c33.42,98.31 21.68,53.54 64.65,121.37 35.05,55.35 97.13,43.98 153.51,102.24 16.57,17.13 32.56,18.91 42.71,52.91 13.01,43.58 51.07,57.23 8.55,110.52 -20.27,25.41 -21.7,66.43 -7.99,94.4 30.66,62.57 -0.14,63.3 -0.14,136.45 0,76.56 63.74,24.82 131.72,78.09 70.9,55.54 0.53,140.99 64.78,182.33 29.73,19.14 37.76,49.55 51.55,71.11 43.64,68.23 58.75,116.69 53.05,199 -3.22,46.63 -44.78,101.73 -44.78,164.23 0,91.05 85.32,221.3 95.91,328.28 9.26,93.65 26.45,118.11 -6.62,218.28 -37.71,114.26 -113.98,326.9 -36.95,433.39 20.02,27.69 18.85,27.24 35.58,56.23 0.9,1.57 2.4,2.83 3.03,4.53 23.24,62.86 43.55,120.08 47.81,186.87 5.97,93.56 49.75,152 49.75,261.13 0,149.48 33.15,289.59 145.94,395.93 29.64,27.95 120.42,50.25 174.21,89.3 40.29,29.24 39.81,11.87 85.56,58.82 38.6,39.62 45.09,62.75 105.27,89.01 45.57,19.88 74.51,29.17 121.94,53.49 89.93,46.13 163.42,13.2 215.12,98.5 7.2,11.87 8.09,26.9 8.55,40.26 2.84,82.71 9.83,102.16 62.41,159.32 8.37,9.1 28.76,31.5 35.16,40.77"/>
   <path class="fil2 str2" d="M12650.26 11424.5c49.22,-4.35 56.25,-6.43 84.45,26.85 38.11,44.95 24.02,48.81 98.13,35.95 46.04,-7.99 21.15,-18.44 53.87,8.84 42.55,35.48 108.35,-50.06 151.71,-18.33 16.62,12.16 25.49,20.11 40.11,34.73 94.16,94.16 97.4,-43.78 204.91,-17.91 61.94,14.9 89.53,92.81 154.64,32.93 51.53,-47.4 49.39,56.82 141.79,-15.45 46.27,-36.2 109.54,-47.27 143.72,8.27 21.6,35.1 -7.47,40.46 47.54,95.77 39.2,39.41 -26.78,89.11 8.69,151.05 20.73,36.18 47.49,65.62 41.62,107.35 -9.16,65.15 75.38,124.36 87.79,215.39 6.69,49.07 25.19,86.66 56.22,126.39 1.46,1.86 2.93,3.75 4.39,5.62"/>
   <path class="fil2 str2" d="M12390.82 12332.07c89.85,103.27 88.76,49.5 157.03,103.34 63,49.68 22.34,151.86 113.96,175.57 33.18,8.58 72.68,20.47 92.74,48.1 16.11,22.17 62.31,77.39 85.43,86.94 36.63,15.15 47.89,21.96 89.2,34.2 45.83,13.57 141.78,53.9 164.9,98.09 13.99,26.76 44.03,26.47 63.82,54.71 31.15,44.45 12.21,61.71 53.63,87.79 1.55,0.97 17.82,8.34 20.79,9.78"/>
   <path class="fil2 str2" d="M11682.86 13451.53c70.89,-8.45 63.5,-2.41 116.97,7.35 7.45,1.36 62.27,39.57 68.23,46.16 26.94,29.8 81.12,99.58 93.03,136.59 17.03,52.97 140.45,280.64 180.25,305.08 58.68,36.03 184.83,13.43 244.03,-21.78 158.67,-94.36 149.69,7.02 273.13,0.28 27.23,-1.49 83.42,-36 117.04,-50.04 71.01,-29.66 66.04,-33.8 147.55,-47.38 56.89,-9.48 84.19,-30.18 150.48,-36.53 71.28,-6.83 145.93,-31.23 222.11,-36.38 79.29,-5.36 295.25,-11.69 351.7,-52.77 91,-66.21 151.35,-205.71 247.91,-226.12 6.11,-1.29 12.22,-2.59 18.33,-3.88"/>
   <path class="fil2 str2" d="M11967.18 15893.85c48.44,-8.76 79.91,-12.64 95.99,-62.25 17.85,-55.05 10.09,-51.74 81.88,-71.24 53.59,-14.55 34.22,61.19 65.44,64.2 18.74,1.81 91,-45.11 125.15,16.4 34.17,61.56 60.06,-11.28 110.23,36.38 24.88,23.64 87.24,21.63 118.12,-3.31 52.67,-42.52 42.32,-23.48 97.42,-7.05 60.72,18.1 150.27,-73.54 197.35,9.69 37.56,66.42 97.36,-51.12 171.98,-7.6 38.22,22.3 78.08,-29.28 152.42,-21.92 3.41,0.33 6.93,-0.18 10.3,0.42 47.62,8.49 85.89,8.07 131.87,-2.88 63.83,-15.19 114.9,-68.31 167.02,-106.26 141.25,-102.82 77.26,-125.32 157.09,-257.55 49.45,-81.93 36.87,-296.26 81.46,-355.52 26.71,-35.49 59.54,-61.36 99.22,-81.46 63.9,-32.37 112.82,-55.84 178.45,-84.34 33.24,-14.44 57.94,-28.67 95.25,-43.42 101.54,-40.16 170.8,-65.65 276.96,-12.94 130.51,64.8 126.07,137.06 158.75,263.73 10.71,41.54 21.66,62.12 33.64,101.34 6.36,20.81 7.45,34.74 17.62,55.09"/>
  </g>
  <g id="_2594069229584">
   <path class="fil3 str3" d="M23341.59 18173.24l815.93 0 0 1592.89 -815.93 0 0 -1592.89z"/>
   <path class="fil4" d="M23689.69 18609.37c-0.92,3.32 -1.63,6.35 -2.07,9.15 -0.44,2.79 -0.65,5.18 -0.65,7.22 0,5.59 1.8,9.56 5.29,11.89 3.49,2.33 9.55,3.49 18.05,3.49l4.15 0 -4.96 22.72 -78.17 0 5.29 -22.72 2.89 0c7.36,0 12.82,-1.51 16.48,-4.54 3.6,-2.97 6.32,-8.39 8.12,-16.14l37.59 -153.79c0.6,-2.74 1.14,-5.54 1.52,-8.45 0.33,-2.91 0.55,-5.77 0.55,-8.62 0,-5.36 -1.96,-9.15 -5.95,-11.36 -3.92,-2.22 -10.69,-3.32 -20.23,-3.32l-3.06 0 5.29 -22.72 72.33 0 62.14 183.5 31.31 -129.03c1.08,-4.2 1.85,-7.63 2.34,-10.31 0.49,-2.68 0.71,-4.72 0.71,-6.06 0,-5.6 -1.8,-9.56 -5.35,-11.89 -3.6,-2.33 -9.71,-3.49 -18.32,-3.49l-4.15 0 4.96 -22.72 78.5 0 -5.62 22.72 -2.84 0c-7.37,0 -12.87,1.51 -16.47,4.54 -3.66,2.97 -6.33,8.33 -8.18,15.96l-50.68 208.44 -21.54 0 -72.06 -209.48 -37.21 155.01z"/>
   <path class="fil2 str4" d="M23750.38 19632.93l0 -769.27"/>
   <path class="fil2 str4" d="M23468.33 19356.88l563.14 0"/>
   <path class="fil2 str4" d="M23605.48 19496.87l294.22 -286.81"/>
   <path class="fil2 str4" d="M23602.34 19209.82l297.98 288.85"/>
   <path class="fil2 str4" d="M23750.24 18866.39l-95.47 118.01"/>
   <path class="fil2 str4" d="M23750.86 18866.35l87.89 118.05"/>
  </g>
  <g id="_2594069227056">
   <path class="fil3 str3" d="M22579.59 19292.43l0 473.7 -2309.37 0 0 -473.7 2309.37 0z"/>
   <path class="fil4" d="M21347.56 19630.9l0 -202.07 40.07 0 47.79 143.04c4.42,13.31 7.62,23.28 9.64,29.91 2.31,-7.33 5.93,-18.15 10.82,-32.4l48.64 -140.55 35.79 0 0 202.07 -25.68 0 0 -169.05 -58.98 169.05 -24.09 0 -58.32 -172.15 0 172.15 -25.68 0z"/>
   <path id="1" class="fil4" d="M21680.01 19583.49l25.68 3.38c-3.99,14.91 -11.47,26.53 -22.39,34.76 -10.91,8.24 -24.83,12.37 -41.81,12.37 -21.36,0 -38.29,-6.58 -50.8,-19.75 -12.51,-13.12 -18.77,-31.61 -18.77,-55.36 0,-24.56 6.31,-43.65 18.96,-57.2 12.65,-13.59 29.07,-20.37 49.25,-20.37 19.52,0 35.46,6.64 47.83,19.95 12.37,13.31 18.58,32.03 18.58,56.16 0,1.46 -0.05,3.67 -0.14,6.58l-109.08 0c0.94,16.04 5.46,28.37 13.64,36.88 8.14,8.51 18.35,12.79 30.53,12.79 9.08,0 16.84,-2.39 23.24,-7.19 6.44,-4.8 11.52,-12.47 15.28,-23zm-81.28 -39.8l81.56 0c-1.08,-12.32 -4.23,-21.54 -9.36,-27.7 -7.85,-9.55 -18.1,-14.35 -30.66,-14.35 -11.39,0 -20.93,3.81 -28.7,11.43 -7.71,7.62 -11.99,17.83 -12.84,30.62z"/>
   <path id="2" class="fil4" d="M21736.78 19630.9l0 -146.47 22.3 0 0 22.43c5.69,-10.39 10.96,-17.26 15.8,-20.55 4.85,-3.34 10.16,-4.99 15.95,-4.99 8.37,0 16.89,2.64 25.54,7.86l-8.84 22.91c-6.02,-3.39 -12.04,-5.08 -18.06,-5.08 -5.41,0 -10.26,1.64 -14.54,4.89 -4.28,3.24 -7.34,7.76 -9.17,13.54 -2.78,8.8 -4.14,18.44 -4.14,28.93l0 76.53 -24.84 0z"/>
   <path id="3" class="fil4" d="M21926.72 19577.28l24.27 3.38c-2.68,16.7 -9.45,29.73 -20.41,39.19 -10.96,9.45 -24.46,14.15 -40.41,14.15 -19.99,0 -36.08,-6.53 -48.21,-19.61 -12.18,-13.08 -18.25,-31.8 -18.25,-56.16 0,-15.81 2.63,-29.59 7.85,-41.44 5.22,-11.81 13.17,-20.7 23.9,-26.58 10.68,-5.92 22.29,-8.89 34.9,-8.89 15.85,0 28.88,4 38.95,12.04 10.11,8.05 16.6,19.48 19.42,34.25l-23.99 3.67c-2.3,-9.83 -6.35,-17.22 -12.23,-22.2 -5.83,-4.94 -12.88,-7.44 -21.16,-7.44 -12.51,0 -22.67,4.47 -30.53,13.41 -7.81,8.98 -11.71,23.09 -11.71,42.47 0,19.66 3.76,33.92 11.29,42.81 7.57,8.89 17.4,13.35 29.49,13.35 9.78,0 17.92,-2.96 24.41,-8.93 6.54,-5.93 10.68,-15.1 12.42,-27.47z"/>
   <path id="4" class="fil4" d="M22067.83 19612.56c-9.22,7.85 -18.11,13.35 -26.62,16.6 -8.52,3.25 -17.64,4.84 -27.43,4.84 -16.08,0 -28.45,-3.9 -37.11,-11.75 -8.65,-7.81 -12.98,-17.83 -12.98,-30.01 0,-7.15 1.65,-13.69 4.89,-19.62 3.29,-5.93 7.57,-10.63 12.84,-14.2 5.32,-3.58 11.24,-6.31 17.88,-8.14 4.89,-1.27 12.27,-2.49 22.1,-3.72 20.04,-2.35 34.86,-5.22 44.31,-8.51 0.1,-3.39 0.14,-5.55 0.14,-6.44 0,-10.07 -2.35,-17.17 -7.05,-21.31 -6.35,-5.6 -15.81,-8.37 -28.32,-8.37 -11.71,0 -20.36,2.07 -25.92,6.16 -5.59,4.09 -9.68,11.33 -12.37,21.78l-24.27 -3.39c2.21,-10.4 5.84,-18.82 10.92,-25.21 5.08,-6.4 12.41,-11.29 22.01,-14.77 9.55,-3.44 20.7,-5.18 33.3,-5.18 12.51,0 22.72,1.46 30.57,4.42 7.81,2.97 13.6,6.64 17.27,11.11 3.67,4.46 6.25,10.11 7.76,16.93 0.8,4.23 1.22,11.85 1.22,22.81l0 32.93c0,23 0.52,37.53 1.55,43.69 0.99,6.17 3.06,12.05 6.07,17.69l-25.96 0c-2.5,-5.22 -4.1,-11.34 -4.8,-18.34zm-1.98 -55.04c-9.03,3.67 -22.57,6.78 -40.64,9.32 -10.25,1.45 -17.49,3.1 -21.73,4.93 -4.23,1.84 -7.48,4.52 -9.78,8 -2.31,3.53 -3.48,7.43 -3.48,11.76 0,6.54 2.49,12.04 7.52,16.42 5.04,4.37 12.38,6.58 22.02,6.58 9.55,0 18.06,-2.07 25.54,-6.25 7.43,-4.14 12.93,-9.84 16.41,-17.03 2.69,-5.6 4,-13.83 4,-24.7l0.14 -9.03z"/>
   <path id="5" class="fil4" d="M22183.02 19608.75l3.39 21.91c-6.96,1.46 -13.22,2.22 -18.68,2.22 -8.98,0 -15.94,-1.42 -20.93,-4.28 -4.94,-2.87 -8.42,-6.59 -10.44,-11.25 -2.02,-4.65 -3.01,-14.44 -3.01,-29.35l0 -84.38 -18.34 0 0 -19.19 18.34 0 0 -36.22 24.84 -14.91 0 51.13 24.83 0 0 19.19 -24.83 0 0 85.79c0,7.11 0.42,11.67 1.31,13.69 0.85,2.02 2.26,3.62 4.24,4.85 1.97,1.17 4.79,1.78 8.46,1.78 2.73,0 6.35,-0.33 10.82,-0.98z"/>
   <path id="6" class="fil4" d="M22198.21 19557.66c0,-27.04 7.53,-47.08 22.63,-60.11 12.56,-10.82 27.94,-16.23 46.05,-16.23 20.08,0 36.54,6.59 49.34,19.76 12.75,13.12 19.14,31.33 19.14,54.51 0,18.82 -2.82,33.59 -8.46,44.36 -5.65,10.77 -13.88,19.14 -24.7,25.12 -10.77,5.97 -22.58,8.93 -35.32,8.93 -20.51,0 -37.07,-6.53 -49.72,-19.66 -12.65,-13.12 -18.96,-32.03 -18.96,-56.68zm25.4 0.05c0,18.72 4.1,32.74 12.28,42 8.23,9.32 18.53,13.97 31,13.97 12.32,0 22.57,-4.65 30.81,-14.01 8.18,-9.36 12.27,-23.61 12.27,-42.76 0,-18.06 -4.14,-31.75 -12.37,-41.01 -8.23,-9.32 -18.48,-13.97 -30.71,-13.97 -12.47,0 -22.77,4.61 -31,13.87 -8.18,9.27 -12.28,23.24 -12.28,41.91z"/>
   <path id="7" class="fil4" d="M22364.2 19630.9l0 -146.47 22.3 0 0 22.43c5.69,-10.39 10.96,-17.26 15.8,-20.55 4.85,-3.34 10.16,-4.99 15.95,-4.99 8.37,0 16.89,2.64 25.54,7.86l-8.84 22.91c-6.02,-3.39 -12.04,-5.08 -18.06,-5.08 -5.41,0 -10.26,1.64 -14.54,4.89 -4.28,3.24 -7.34,7.76 -9.17,13.54 -2.78,8.8 -4.14,18.44 -4.14,28.93l0 76.53 -24.84 0z"/>
   <circle class="fil5 str5" cx="20488.59" cy="19525.58" r="118.79"/>
   <rect class="fil5 str5" x="20946.52" y="19417.3" width="226.91" height="226.91"/>
   <path class="fil2 str6" d="M20662.49 19524.71l220.31 0"/>
   <path class="fil2 str6" d="M20880.14 19525.37l-64.02 65.38"/>
   <path class="fil2 str6" d="M20880.31 19524.23l-63.42 -61.39"/>
  </g>
  <path class="fil3 str3" d="M24295.38 18176.66l2811.4 0 0 1592.9 -2811.4 0 0 -1592.9z"/>
  <path class="fil6" d="M25337.26 18536.26l-16.34 45.39 -137.82 0 0 -6.47c40.57,-36.98 69.08,-67.14 85.61,-90.54 16.52,-23.41 24.81,-44.81 24.81,-64.21 0,-14.82 -4.53,-26.99 -13.64,-36.51 -9.06,-9.53 -19.88,-14.29 -32.52,-14.29 -11.52,0 -21.81,3.29 -30.92,9.94 -9.18,6.64 -15.88,16.4 -20.29,29.22l-6.35 0c2.88,-21.11 10.29,-37.34 22.17,-48.69 11.87,-11.28 26.75,-16.93 44.62,-16.93 18.94,0 34.81,6.12 47.51,18.29 12.7,12.17 19.05,26.51 19.05,43.09 0,11.82 -2.76,23.7 -8.29,35.52 -8.47,18.58 -22.28,38.27 -41.33,59.09 -28.64,31.16 -46.28,49.86 -53.04,56.03l60.39 0c12.29,0 20.93,-0.47 25.87,-1.35 4.94,-0.94 9.41,-2.82 13.4,-5.65 4,-2.76 7.47,-6.76 10.41,-11.93l6.7 0z"/>
  <path id="1" class="fil6" d="M25505.19 18347.76l-13.47 29.28 -70.55 0 -15.47 31.28c30.81,4.52 55.04,15.81 72.79,33.98 15.23,15.64 22.82,33.99 22.82,55.15 0,12.29 -2.47,23.7 -7.47,34.11 -5,10.46 -11.29,19.4 -18.87,26.75 -7.53,7.35 -16,13.29 -25.29,17.75 -13.17,6.3 -26.69,9.47 -40.57,9.47 -13.99,0 -24.16,-2.35 -30.57,-7.11 -6.35,-4.71 -9.53,-9.94 -9.53,-15.64 0,-3.18 1.3,-6 3.94,-8.47 2.65,-2.47 6,-3.65 10,-3.65 2.94,0 5.58,0.42 7.82,1.36 2.23,0.88 6,3.23 11.4,6.99 8.59,5.94 17.35,8.88 26.17,8.88 13.4,0 25.22,-5.11 35.39,-15.29 10.12,-10.17 15.23,-22.57 15.23,-37.21 0,-14.12 -4.52,-27.34 -13.58,-39.57 -9.11,-12.29 -21.58,-21.76 -37.57,-28.4 -12.46,-5.18 -29.52,-8.18 -51.09,-9l44.8 -90.66 83.67 0z"/>
  <path id="2" class="fil6" d="M25541.17 18466.06c0,-26.64 4,-49.51 12.05,-68.74 8.06,-19.22 18.7,-33.57 32.05,-42.98 10.29,-7.47 20.99,-11.17 31.98,-11.17 17.94,0 33.99,9.11 48.22,27.34 17.81,22.64 26.69,53.27 26.69,91.96 0,27.05 -3.88,50.09 -11.7,69.03 -7.82,18.93 -17.76,32.63 -29.87,41.21 -12.11,8.53 -23.81,12.82 -35.04,12.82 -22.29,0 -40.81,-13.11 -55.62,-39.39 -12.53,-22.17 -18.76,-48.86 -18.76,-80.08zm33.87 4.23c0,32.1 3.94,58.33 11.82,78.67 6.52,17.11 16.28,25.63 29.22,25.63 6.17,0 12.58,-2.76 19.22,-8.34 6.65,-5.59 11.65,-14.88 15.11,-27.99 5.24,-19.7 7.88,-47.57 7.88,-83.43 0,-26.64 -2.76,-48.86 -8.23,-66.62 -4.11,-13.23 -9.46,-22.58 -15.99,-28.05 -4.65,-3.82 -10.35,-5.7 -16.99,-5.7 -7.76,0 -14.7,3.53 -20.76,10.52 -8.23,9.53 -13.87,24.46 -16.81,44.92 -3,20.41 -4.47,40.52 -4.47,60.39z"/>
  <path id="3" class="fil6" d="M25850.92 18336.47l0 157.16 39.98 -36.63c8.52,-7.82 13.46,-12.76 14.81,-14.82 0.95,-1.41 1.42,-2.76 1.42,-4.17 0,-2.29 -1,-4.23 -2.89,-5.94 -1.88,-1.65 -4.99,-2.59 -9.4,-2.82l0 -5.65 68.61 0 0 5.65c-9.35,0.23 -17.17,1.7 -23.4,4.35 -6.23,2.7 -13.05,7.47 -20.52,14.29l-40.63 37.22 40.34 51.33c11.29,14.05 18.81,23.04 22.58,26.98 5.58,5.24 10.4,8.65 14.58,10.17 2.94,1.12 7.99,1.71 15.17,1.71l0 6.35 -76.73 0 0 -6.35c4.41,-0.12 7.35,-0.76 8.88,-1.94 1.58,-1.24 2.35,-2.88 2.35,-5.06 0,-2.64 -2.3,-6.88 -6.88,-12.7l-48.27 -61.79 0 52.21c0,10.23 0.7,16.93 2.11,20.17 1.47,3.17 3.47,5.46 6.12,6.88 2.64,1.35 8.35,2.11 17.17,2.23l0 6.35 -80.08 0 0 -6.35c7.99,0 14.05,-1 18.05,-2.94 2.41,-1.23 4.23,-3.17 5.46,-5.76 1.71,-3.76 2.59,-10.29 2.59,-19.52l0 -143.94c0,-18.05 -0.41,-29.1 -1.18,-33.16 -0.82,-4.05 -2.11,-6.82 -3.99,-8.35 -1.83,-1.58 -4.24,-2.35 -7.18,-2.35 -2.41,0 -6.05,1 -10.82,2.94l-2.93 -6.35 46.74 -19.4 7.94 0z"/>
  <path id="4" class="fil6" d="M26027.66 18452.77c11.41,-11.53 18.17,-18.17 20.22,-19.93 5.12,-4.36 10.65,-7.77 16.59,-10.18 5.93,-2.41 11.81,-3.64 17.63,-3.64 9.88,0 18.29,2.88 25.4,8.64 7.06,5.76 11.82,14.11 14.17,25.11 11.88,-13.88 21.88,-22.93 30.05,-27.28 8.17,-4.3 16.58,-6.47 25.22,-6.47 8.35,0 15.82,2.17 22.35,6.47 6.46,4.29 11.64,11.34 15.4,21.16 2.53,6.65 3.82,17.11 3.82,31.4l0 67.97c0,9.82 0.71,16.58 2.18,20.23 1.12,2.46 3.23,4.64 6.23,6.4 3.06,1.77 8,2.65 14.88,2.65l0 6.35 -77.26 0 0 -6.35 3.29 0c6.7,0 11.99,-1.29 15.76,-3.94 2.64,-1.82 4.52,-4.76 5.64,-8.76 0.47,-1.94 0.71,-7.47 0.71,-16.58l0 -67.91c0,-12.88 -1.53,-21.93 -4.65,-27.22 -4.52,-7.35 -11.7,-11.06 -21.63,-11.06 -6.06,0 -12.23,1.53 -18.41,4.59 -6.11,3 -13.58,8.7 -22.34,16.93l-0.35 1.94 0.7 7.41 0 75.32c0,10.7 0.59,17.4 1.77,20.05 1.23,2.59 3.46,4.82 6.76,6.58 3.29,1.77 8.93,2.65 16.87,2.65l0 6.35 -79.37 0 0 -6.35c8.64,0 14.58,-1 17.81,-3.06 3.24,-2.06 5.47,-5.17 6.7,-9.29 0.59,-1.94 0.89,-7.58 0.89,-16.93l0 -67.91c0,-12.88 -1.88,-22.17 -5.65,-27.87 -5.05,-7.41 -12.05,-11.11 -21.11,-11.11 -6.17,0 -12.28,1.7 -18.34,5.05 -9.47,5.06 -16.82,10.82 -21.93,17.17l0 84.67c0,10.29 0.7,16.93 2.12,20.05 1.41,3.06 3.52,5.35 6.35,6.94 2.76,1.53 8.4,2.29 16.93,2.29l0 6.35 -77.97 0 0 -6.35c7.24,0 12.29,-0.76 15.17,-2.29 2.89,-1.59 5.06,-4 6.59,-7.41 1.47,-3.35 2.23,-9.88 2.23,-19.58l0 -60.33c0,-17.28 -0.53,-28.45 -1.53,-33.51 -0.82,-3.82 -2.05,-6.41 -3.82,-7.82 -1.7,-1.47 -4.05,-2.18 -6.99,-2.18 -3.24,0 -7.06,0.89 -11.53,2.59l-2.58 -6.35 47.62 -19.4 7.41 0 0 33.75z"/>
  <path class="fil6" d="M25217.26 19340.57l57.09 -27.52 5.71 0 0 197.2c0,13.12 0.53,21.35 1.64,24.58 1.12,3.18 3.36,5.71 6.82,7.41 3.47,1.71 10.53,2.7 21.17,2.94l0 6.35 -88.19 0 0 -6.35c11.05,-0.24 18.16,-1.18 21.34,-2.88 3.23,-1.65 5.47,-3.88 6.76,-6.7 1.24,-2.83 1.88,-11.29 1.88,-25.35l0 -126.29c0,-16.99 -0.59,-27.93 -1.7,-32.75 -0.83,-3.7 -2.3,-6.41 -4.41,-8.11 -2.18,-1.71 -4.71,-2.59 -7.71,-2.59 -4.29,0 -10.23,1.76 -17.81,5.35l-2.59 -5.29z"/>
  <path id="1" class="fil6" d="M25851.92 19422.65c11.41,-11.53 18.17,-18.17 20.22,-19.93 5.12,-4.36 10.65,-7.77 16.59,-10.18 5.93,-2.41 11.81,-3.64 17.63,-3.64 9.88,0 18.29,2.88 25.4,8.64 7.06,5.76 11.82,14.11 14.17,25.11 11.88,-13.88 21.88,-22.93 30.05,-27.28 8.17,-4.3 16.58,-6.47 25.22,-6.47 8.35,0 15.82,2.17 22.35,6.47 6.46,4.29 11.64,11.34 15.4,21.16 2.53,6.65 3.82,17.11 3.82,31.4l0 67.97c0,9.82 0.71,16.58 2.18,20.23 1.12,2.46 3.23,4.64 6.23,6.4 3.06,1.77 8,2.65 14.88,2.65l0 6.35 -77.26 0 0 -6.35 3.29 0c6.7,0 11.99,-1.29 15.76,-3.94 2.64,-1.82 4.52,-4.76 5.64,-8.76 0.47,-1.94 0.71,-7.47 0.71,-16.58l0 -67.91c0,-12.88 -1.53,-21.93 -4.65,-27.22 -4.52,-7.35 -11.7,-11.06 -21.63,-11.06 -6.06,0 -12.23,1.53 -18.41,4.59 -6.11,3 -13.58,8.7 -22.34,16.93l-0.35 1.94 0.7 7.41 0 75.32c0,10.7 0.59,17.4 1.77,20.05 1.23,2.59 3.46,4.82 6.76,6.58 3.29,1.77 8.93,2.65 16.87,2.65l0 6.35 -79.37 0 0 -6.35c8.64,0 14.58,-1 17.81,-3.06 3.24,-2.06 5.47,-5.17 6.7,-9.29 0.59,-1.94 0.89,-7.58 0.89,-16.93l0 -67.91c0,-12.88 -1.88,-22.17 -5.65,-27.87 -5.05,-7.41 -12.05,-11.11 -21.11,-11.11 -6.17,0 -12.28,1.7 -18.34,5.05 -9.47,5.06 -16.82,10.82 -21.93,17.17l0 84.67c0,10.29 0.7,16.93 2.12,20.05 1.41,3.06 3.52,5.35 6.35,6.94 2.76,1.53 8.4,2.29 16.93,2.29l0 6.35 -77.97 0 0 -6.35c7.24,0 12.29,-0.76 15.17,-2.29 2.89,-1.59 5.06,-4 6.59,-7.41 1.47,-3.35 2.23,-9.88 2.23,-19.58l0 -60.33c0,-17.28 -0.53,-28.45 -1.53,-33.51 -0.82,-3.82 -2.05,-6.41 -3.82,-7.82 -1.7,-1.47 -4.05,-2.18 -6.99,-2.18 -3.24,0 -7.06,0.89 -11.53,2.59l-2.58 -6.35 47.62 -19.4 7.41 0 0 33.75z"/>
  <path id="2" class="fil6" d="M26119.56 19306.35c4.76,0 8.88,1.7 12.29,5.05 3.35,3.41 5.05,7.53 5.05,12.29 0,4.82 -1.7,9 -5.05,12.41 -3.41,3.47 -7.53,5.17 -12.29,5.17 -4.82,0 -9,-1.7 -12.41,-5.17 -3.47,-3.41 -5.17,-7.59 -5.17,-12.41 0,-4.76 1.7,-8.88 5.05,-12.29 3.41,-3.35 7.59,-5.05 12.53,-5.05zm14.17 82.55l0 127c0,9.82 0.7,16.34 2.17,19.58 1.41,3.29 3.53,5.7 6.35,7.29 2.82,1.59 8,2.41 15.47,2.41l0 6.35 -76.56 0 0 -6.35c7.65,0 12.82,-0.76 15.41,-2.23 2.64,-1.47 4.7,-3.94 6.29,-7.35 1.53,-3.41 2.29,-10 2.29,-19.7l0 -61.03c0,-16.99 -0.53,-27.99 -1.53,-33.05 -0.82,-3.64 -2.05,-6.17 -3.82,-7.58 -1.7,-1.47 -4.06,-2.18 -7,-2.18 -3.23,0 -7.11,0.89 -11.7,2.59l-2.41 -6.35 47.45 -19.4 7.59 0z"/>
  <path id="3" class="fil6" d="M25505.84 19317.64l-13.47 29.28 -70.55 0 -15.47 31.28c30.81,4.52 55.04,15.81 72.79,33.98 15.23,15.64 22.82,33.99 22.82,55.15 0,12.29 -2.47,23.7 -7.47,34.11 -5,10.46 -11.29,19.4 -18.87,26.75 -7.53,7.35 -16,13.29 -25.29,17.75 -13.17,6.3 -26.69,9.47 -40.57,9.47 -13.99,0 -24.16,-2.35 -30.57,-7.11 -6.35,-4.71 -9.53,-9.94 -9.53,-15.64 0,-3.18 1.3,-6 3.94,-8.47 2.65,-2.47 6,-3.65 10,-3.65 2.94,0 5.58,0.42 7.82,1.36 2.23,0.88 6,3.23 11.4,6.99 8.59,5.94 17.35,8.88 26.17,8.88 13.4,0 25.22,-5.11 35.39,-15.29 10.12,-10.17 15.23,-22.57 15.23,-37.21 0,-14.12 -4.52,-27.34 -13.58,-39.57 -9.11,-12.29 -21.58,-21.76 -37.57,-28.4 -12.46,-5.18 -29.52,-8.18 -51.09,-9l44.8 -90.66 83.67 0z"/>
  <path id="4" class="fil6" d="M25541.82 19435.94c0,-26.64 4,-49.51 12.05,-68.74 8.06,-19.22 18.7,-33.57 32.05,-42.98 10.29,-7.47 20.99,-11.17 31.98,-11.17 17.94,0 33.99,9.11 48.22,27.34 17.81,22.64 26.69,53.27 26.69,91.96 0,27.05 -3.88,50.09 -11.7,69.03 -7.82,18.93 -17.76,32.63 -29.87,41.21 -12.11,8.53 -23.81,12.82 -35.04,12.82 -22.29,0 -40.81,-13.11 -55.62,-39.39 -12.53,-22.17 -18.76,-48.86 -18.76,-80.08zm33.87 4.23c0,32.1 3.94,58.33 11.82,78.67 6.52,17.11 16.28,25.63 29.22,25.63 6.17,0 12.58,-2.76 19.22,-8.34 6.65,-5.59 11.65,-14.88 15.11,-27.99 5.24,-19.7 7.88,-47.57 7.88,-83.43 0,-26.64 -2.76,-48.86 -8.23,-66.62 -4.11,-13.23 -9.46,-22.58 -15.99,-28.05 -4.65,-3.82 -10.35,-5.7 -16.99,-5.7 -7.76,0 -14.7,3.53 -20.76,10.52 -8.23,9.53 -13.87,24.46 -16.81,44.92 -3,20.41 -4.47,40.52 -4.47,60.39z"/>
  <path class="fil6" d="M27285.51 19676.66c0,-17.45 4.47,-34.48 13.46,-51.13 8.93,-16.61 21.77,-29.59 38.43,-38.86 16.69,-9.26 34.1,-13.92 52.16,-13.92 17.92,0 35.18,4.56 51.69,13.74 16.56,9.12 29.4,21.92 38.53,38.43 9.17,16.51 13.73,33.77 13.73,51.74 0,18.01 -4.56,35.27 -13.73,51.78 -9.13,16.51 -21.97,29.35 -38.53,38.53 -16.51,9.17 -33.77,13.78 -51.69,13.78 -18.06,0 -35.47,-4.66 -52.16,-13.97 -16.66,-9.36 -29.5,-22.34 -38.43,-38.95 -8.99,-16.65 -13.46,-33.68 -13.46,-51.17zm17.22 0c0,14.62 3.76,28.88 11.24,42.7 7.48,13.83 18.2,24.65 32.13,32.46 13.92,7.81 28.41,11.71 43.46,11.71 15,0 29.35,-3.85 43.08,-11.52 13.74,-7.67 24.46,-18.39 32.13,-32.17 7.67,-13.79 11.52,-28.18 11.52,-43.18 0,-14.96 -3.85,-29.36 -11.52,-43.14 -7.67,-13.78 -18.39,-24.5 -32.13,-32.12 -13.73,-7.62 -28.08,-11.43 -43.08,-11.43 -15.05,0 -29.54,3.9 -43.46,11.66 -13.93,7.76 -24.65,18.58 -32.13,32.46 -7.48,13.87 -11.24,28.08 -11.24,42.57zm103.57 -33.35l5.08 -16.94c11.53,2.78 20.7,8.61 27.52,17.55 6.87,8.98 10.3,19.85 10.3,32.59 0,16.19 -5.22,29.31 -15.71,39.42 -10.49,10.11 -24.98,15.15 -43.55,15.15 -12.14,0 -22.68,-2.31 -31.61,-6.92 -8.99,-4.56 -15.71,-11.15 -20.28,-19.61 -4.56,-8.52 -6.82,-18.25 -6.82,-29.16 0,-12.23 2.92,-22.39 8.8,-30.48 5.88,-8.09 13.88,-13.6 23.94,-16.56l4.23 16.37c-6.91,2.77 -12.23,6.82 -15.89,12.23 -3.72,5.41 -5.55,11.71 -5.55,19 0,10.58 3.76,19.33 11.28,26.2 7.53,6.87 18.35,10.3 32.37,10.3 14.06,0 24.69,-3.24 31.89,-9.74 7.19,-6.49 10.81,-14.86 10.81,-25.16 0,-8.28 -2.39,-15.57 -7.24,-21.83 -4.8,-6.25 -11.33,-10.39 -19.57,-12.41z"/>
  <path id="1" class="fil6" d="M27490.97 19381.5l-18.58 0c14.44,9.27 21.68,22.91 21.68,40.92 0,11.67 -3.19,22.39 -9.64,32.13 -6.4,9.78 -15.38,17.35 -26.86,22.76 -11.52,5.37 -24.74,8.05 -39.69,8.05 -14.59,0 -27.8,-2.45 -39.7,-7.29 -11.86,-4.9 -20.98,-12.19 -27.29,-21.92 -6.35,-9.69 -9.5,-20.61 -9.5,-32.6 0,-8.84 1.88,-16.7 5.6,-23.56 3.72,-6.87 8.61,-12.47 14.58,-16.8l-72.67 0 0 -24.83 202.07 0 0 23.14zm-73.05 78.46c18.72,0 32.69,-3.95 41.96,-11.9 9.26,-7.91 13.87,-17.27 13.87,-28.04 0,-10.86 -4.42,-20.08 -13.26,-27.7 -8.84,-7.57 -22.34,-11.38 -40.5,-11.38 -19.94,0 -34.62,3.85 -43.98,11.61 -9.36,7.72 -14.01,17.27 -14.01,28.6 0,11.06 4.46,20.27 13.45,27.71 8.98,7.38 23.14,11.1 42.47,11.1z"/>
  <path id="2" class="fil6" d="M27430.29 19328.96l-24.83 0 0 -76.76 24.83 0 0 76.76z"/>
  <path id="3" class="fil6" d="M27490.97 19225.1l-146.47 0 0 -22.29 20.69 0c-7.15,-4.56 -12.93,-10.68 -17.26,-18.3 -4.37,-7.62 -6.54,-16.27 -6.54,-26.01 0,-10.82 2.26,-19.71 6.73,-26.62 4.52,-6.92 10.77,-11.81 18.86,-14.63 -17.07,-11.67 -25.59,-26.77 -25.59,-45.39 0,-14.58 4,-25.83 12.04,-33.63 8.05,-7.86 20.42,-11.81 37.12,-11.81l100.42 0 0 24.84 -92.19 0c-9.88,0 -17.03,0.84 -21.4,2.44 -4.38,1.6 -7.86,4.52 -10.54,8.8 -2.68,4.23 -4,9.22 -4,14.91 0,10.35 3.44,18.91 10.26,25.73 6.86,6.82 17.82,10.2 32.87,10.2l85 0 0 24.84 -95.06 0c-11.01,0 -19.29,2.02 -24.79,6.07 -5.5,4.04 -8.28,10.67 -8.28,19.85 0,6.96 1.84,13.4 5.51,19.33 3.66,5.93 9.03,10.21 16.13,12.89 7.05,2.63 17.26,3.95 30.57,3.95l75.92 0 0 24.83z"/>
  <path id="4" class="fil6" d="M27472.63 18894.34c7.85,9.22 13.35,18.11 16.6,26.62 3.25,8.52 4.84,17.64 4.84,27.43 0,16.08 -3.9,28.45 -11.75,37.11 -7.81,8.65 -17.83,12.98 -30.01,12.98 -7.15,0 -13.69,-1.65 -19.62,-4.89 -5.93,-3.29 -10.63,-7.57 -14.2,-12.84 -3.58,-5.32 -6.31,-11.24 -8.14,-17.88 -1.27,-4.89 -2.49,-12.27 -3.72,-22.1 -2.35,-20.04 -5.22,-34.86 -8.51,-44.31 -3.39,-0.1 -5.55,-0.14 -6.44,-0.14 -10.07,0 -17.17,2.35 -21.31,7.05 -5.6,6.35 -8.37,15.81 -8.37,28.32 0,11.71 2.07,20.36 6.16,25.92 4.09,5.59 11.38,9.68 21.78,12.37l-3.39 24.27c-10.4,-2.21 -18.82,-5.84 -25.21,-10.92 -6.4,-5.08 -11.29,-12.41 -14.77,-22.01 -3.44,-9.55 -5.18,-20.7 -5.18,-33.3 0,-12.51 1.46,-22.72 4.42,-30.57 2.97,-7.81 6.64,-13.6 11.11,-17.27 4.46,-3.67 10.11,-6.25 16.93,-7.76 4.23,-0.8 11.85,-1.22 22.81,-1.22l32.93 0c23,0 37.53,-0.52 43.69,-1.55 6.17,-0.99 12.05,-3.06 17.69,-6.07l0 25.96c-5.22,2.5 -11.34,4.1 -18.34,4.8zm-55.04 1.98c3.67,9.03 6.78,22.57 9.32,40.64 1.45,10.25 3.1,17.49 4.93,21.73 1.84,4.23 4.52,7.48 8,9.78 3.53,2.31 7.43,3.48 11.76,3.48 6.54,0 12.04,-2.49 16.42,-7.52 4.37,-5.04 6.58,-12.38 6.58,-22.02 0,-9.55 -2.07,-18.06 -6.25,-25.54 -4.14,-7.43 -9.84,-12.93 -17.03,-16.41 -5.6,-2.69 -13.83,-4 -24.7,-4l-9.03 -0.14z"/>
  <path id="5" class="fil6" d="M27547.13 18833.05l-202.63 0 0 -22.57 19.24 0c-7.44,-5.32 -13.03,-11.34 -16.75,-18.07 -3.72,-6.68 -5.6,-14.81 -5.6,-24.36 0,-12.51 3.2,-23.52 9.65,-33.07 6.39,-9.55 15.47,-16.74 27.14,-21.63 11.71,-4.85 24.5,-7.3 38.47,-7.3 14.91,0 28.37,2.69 40.36,8.05 11.95,5.36 21.12,13.17 27.52,23.42 6.35,10.21 9.54,20.98 9.54,32.27 0,8.28 -1.74,15.71 -5.22,22.25 -3.48,6.58 -7.85,11.94 -13.17,16.18l71.45 0 0 24.83zm-128.5 -22.57c18.77,0 32.69,-3.81 41.67,-11.39 8.99,-7.62 13.45,-16.84 13.45,-27.65 0,-11.01 -4.65,-20.42 -13.97,-28.23 -9.31,-7.85 -23.7,-11.76 -43.22,-11.76 -18.63,0 -32.55,3.81 -41.82,11.48 -9.26,7.67 -13.87,16.79 -13.87,27.42 0,10.54 4.94,19.85 14.77,27.94 9.87,8.14 24.17,12.19 42.99,12.19z"/>
  <path id="6" class="fil6" d="M27447.23 18685.97l-3.96 -24.55c9.84,-1.37 17.36,-5.22 22.63,-11.53 5.22,-6.3 7.85,-15.14 7.85,-26.43 0,-11.43 -2.3,-19.9 -6.96,-25.45 -4.61,-5.5 -10.06,-8.28 -16.32,-8.28 -5.6,0 -10.02,2.5 -13.22,7.44 -2.21,3.48 -4.98,11.94 -8.42,25.4 -4.56,18.15 -8.51,30.71 -11.85,37.77 -3.39,7 -7.99,12.32 -13.92,15.94 -5.88,3.62 -12.42,5.46 -19.57,5.46 -6.54,0 -12.56,-1.51 -18.11,-4.47 -5.55,-3.01 -10.16,-7.06 -13.83,-12.18 -2.82,-3.86 -5.22,-9.13 -7.19,-15.76 -1.98,-6.68 -2.97,-13.78 -2.97,-21.4 0,-11.48 1.65,-21.54 4.99,-30.2 3.29,-8.7 7.81,-15.1 13.45,-19.24 5.69,-4.09 13.27,-6.96 22.77,-8.51l3.38 24.27c-7.62,1.08 -13.59,4.28 -17.87,9.55 -4.28,5.27 -6.4,12.7 -6.4,22.34 0,11.34 1.88,19.47 5.65,24.32 3.76,4.84 8.18,7.29 13.21,7.29 3.2,0 6.12,-0.99 8.71,-3.01 2.63,-2.02 4.84,-5.18 6.58,-9.5 0.94,-2.5 3.06,-9.74 6.35,-21.87 4.66,-17.5 8.52,-29.73 11.48,-36.69 2.96,-6.96 7.34,-12.42 12.98,-16.37 5.69,-4 12.75,-5.98 21.21,-5.98 8.24,0 16,2.4 23.29,7.25 7.29,4.84 12.93,11.8 16.93,20.88 4,9.13 5.97,19.43 5.97,30.91 0,19 -3.95,33.53 -11.8,43.5 -7.9,9.98 -19.57,16.33 -35.04,19.1z"/>
  <path id="7" class="fil6" d="M27490.97 18527.93l-28.22 0 0 -28.22 28.22 0 0 28.22z"/>
  <path id="8" class="fil6" d="M27437.35 18360.9l3.38 -24.27c16.7,2.68 29.73,9.45 39.19,20.41 9.45,10.96 14.15,24.46 14.15,40.41 0,19.99 -6.53,36.08 -19.61,48.21 -13.08,12.18 -31.8,18.25 -56.16,18.25 -15.81,0 -29.59,-2.63 -41.39,-7.85 -11.86,-5.22 -20.75,-13.17 -26.63,-23.9 -5.92,-10.68 -8.89,-22.29 -8.89,-34.9 0,-15.85 4,-28.88 12.04,-38.95 8.05,-10.11 19.48,-16.6 34.25,-19.42l3.67 23.99c-9.83,2.3 -17.22,6.35 -22.2,12.23 -4.94,5.83 -7.44,12.88 -7.44,21.16 0,12.51 4.47,22.67 13.41,30.53 8.98,7.81 23.09,11.71 42.47,11.71 19.66,0 33.92,-3.76 42.81,-11.29 8.89,-7.57 13.35,-17.4 13.35,-29.49 0,-9.78 -2.96,-17.92 -8.93,-24.41 -5.93,-6.54 -15.1,-10.68 -27.47,-12.42z"/>
  <path id="9" class="fil6" d="M27417.73 18324.78c-27.04,0 -47.08,-7.53 -60.11,-22.63 -10.82,-12.56 -16.23,-27.94 -16.23,-46.05 0,-20.08 6.59,-36.54 19.76,-49.34 13.12,-12.75 31.33,-19.14 54.51,-19.14 18.82,0 33.59,2.82 44.36,8.46 10.77,5.65 19.14,13.88 25.12,24.7 5.97,10.77 8.93,22.58 8.93,35.32 0,20.51 -6.53,37.07 -19.66,49.72 -13.12,12.65 -32.03,18.96 -56.68,18.96zm0.05 -25.4c18.72,0 32.74,-4.1 42,-12.28 9.32,-8.23 13.97,-18.53 13.97,-31 0,-12.32 -4.65,-22.57 -14.01,-30.81 -9.36,-8.18 -23.61,-12.27 -42.76,-12.27 -18.06,0 -31.75,4.14 -41.01,12.37 -9.32,8.23 -13.97,18.48 -13.97,30.71 0,12.47 4.61,22.77 13.87,31 9.27,8.18 23.24,12.28 41.91,12.28z"/>
  <path id="10" class="fil6" d="M27490.97 18158.5l-146.47 0 0 -22.29 20.69 0c-7.15,-4.56 -12.93,-10.68 -17.26,-18.3 -4.37,-7.62 -6.54,-16.27 -6.54,-26.01 0,-10.82 2.26,-19.71 6.73,-26.62 4.52,-6.92 10.77,-11.81 18.86,-14.63 -17.07,-11.67 -25.59,-26.77 -25.59,-45.39 0,-14.58 4,-25.83 12.04,-33.63 8.05,-7.86 20.42,-11.81 37.12,-11.81l100.42 0 0 24.84 -92.19 0c-9.88,0 -17.03,0.84 -21.4,2.44 -4.38,1.6 -7.86,4.52 -10.54,8.8 -2.68,4.23 -4,9.22 -4,14.91 0,10.35 3.44,18.91 10.26,25.73 6.86,6.82 17.82,10.2 32.87,10.2l85 0 0 24.84 -95.06 0c-11.01,0 -19.29,2.02 -24.79,6.07 -5.5,4.04 -8.28,10.67 -8.28,19.85 0,6.96 1.84,13.4 5.51,19.33 3.66,5.93 9.03,10.21 16.13,12.89 7.05,2.63 17.26,3.95 30.57,3.95l75.92 0 0 24.83z"/>
  <g id="_2594069290800">
   <path class="fil7 str7" d="M24443.67 18777.38l508.48 0 0 99.16 -508.48 0 0 -99.16z"/>
   <path class="fil8 str7" d="M24952.15 18777.38l508.47 0 0 99.16 -508.47 0 0 -99.16z"/>
   <path class="fil7 str7" d="M25460.62 18777.38l508.47 0 0 99.16 -508.47 0 0 -99.16z"/>
   <path class="fil8 str7" d="M25969.21 18777.38l508.48 0 0 99.16 -508.48 0 0 -99.16z"/>
   <path class="fil7 str7" d="M26477.7 18777.38l508.47 0 0 99.16 -508.47 0 0 -99.16z"/>
   <path class="fil8 str7" d="M26071.95 19076.32l813.26 0 0 99.16 -813.26 0 0 -99.16z"/>
   <path class="fil7 str7" d="M25258.7 19076.32l813.26 0 0 99.16 -813.26 0 0 -99.16z"/>
   <path class="fil8 str7" d="M24445.45 19076.32l813.26 0 0 99.16 -813.26 0 0 -99.16z"/>
  </g>
  <rect class="fil2 str8" x="1000" y="1000" width="26702.4" height="19000"/>
 </g>
</svg>
