<?xml version="1.0" encoding="UTF-8"?>
<!DOCTYPE svg PUBLIC "-//W3C//DTD SVG 1.1//EN" "http://www.w3.org/Graphics/SVG/1.1/DTD/svg11.dtd">
<!-- Creator: CorelDRAW -->
<svg xmlns="http://www.w3.org/2000/svg" xml:space="preserve" width="297mm" height="210mm" version="1.1" style="shape-rendering:geometricPrecision; text-rendering:geometricPrecision; image-rendering:optimizeQuality; fill-rule:evenodd; clip-rule:evenodd"
viewBox="0 0 29700 21000"
 xmlns:xlink="http://www.w3.org/1999/xlink">
 <defs>
  <style type="text/css">
   <![CDATA[
    .str1 {stroke:black;stroke-width:10;stroke-miterlimit:3.864;stroke-opacity:0.501961}
    .str4 {stroke:black;stroke-width:50;stroke-miterlimit:22.9256}
    .str5 {stroke:#434242;stroke-width:10;stroke-miterlimit:22.9256}
    .str0 {stroke:black;stroke-width:10;stroke-miterlimit:22.9256}
    .str2 {stroke:black;stroke-width:10;stroke-miterlimit:3.864}
    .str6 {stroke:#2B2A29;stroke-width:7.62;stroke-miterlimit:22.9256}
    .str3 {stroke:black;stroke-width:7.62;stroke-miterlimit:22.9256}
    .fil2 {fill:none}
    .fil1 {fill:#FEFEFE}
    .fil0 {fill:#FEFEFE}
    .fil8 {fill:#D9DADA}
    .fil6 {fill:#FEFEFE;fill-rule:nonzero}
    .fil5 {fill:#D9DADA;fill-rule:nonzero}
    .fil7 {fill:#434242;fill-rule:nonzero}
    .fil4 {fill:black;fill-rule:nonzero}
    .fil3 {fill:#FEFEFE;fill-rule:nonzero;fill-opacity:0.501961}
   ]]>
  </style>
 </defs>
 <g id="Plan_x0020_1">
  <metadata id="CorelCorpID_0Corel-Layer"/>
  <rect class="fil0" x="1000" y="999.99" width="27700" height="14541.47"/>
  <g>
   <path class="fil1" d="M2244.54 15541.47c-14.42,-55.03 -25.41,-137.12 -10.34,-193.81 7.81,-29.4 3.02,-118.53 14.07,-157.76 16.04,-56.9 5.05,-120.72 25.61,-178.88 23.33,-65.95 21.93,-48.36 21.93,-112.59 0,-14.99 -21.33,-90.4 -28.69,-104.18 -9.73,-18.23 0.99,-17.47 -20.49,-49.61 -16.44,-24.58 -8.32,-86.27 -38.04,-130.63 -1.26,-1.87 -70.9,-63.58 -79.94,-72.62 -12.5,-12.48 -26.74,-32.17 -37.9,-46.45 -41.36,-65.43 -47.13,-64.76 -101.29,-108.57 -82.23,-66.51 46.61,-21.79 109.56,-107.63 21.99,-29.98 41.52,-54.26 59.96,-86.55 14.06,-24.63 57.66,-77.57 67.8,-103.48 3.98,-10.18 17.23,-26.85 25.61,-50.17 20.79,-57.94 57.08,-112.36 86.55,-165.93 32.76,-59.53 42.04,-118.6 39.41,-185.45 -1.91,-48.62 -2.03,-99.95 -3.17,-149.25 -1.16,-50.43 14.95,-90.59 29.91,-136.17 9.73,-29.64 67.95,-170.83 80.88,-185.07 39.06,-78.8 49.32,-125.47 57.74,-210.02 6.89,-69.21 23.54,-139.03 28.11,-206.13 6.08,-89.35 -18.05,-177.97 -18.05,-272.85 0,-81.49 -9.92,-205.07 -80.46,-258.53 -7.67,-5.82 -75.61,-88.04 -78.15,-104.32 -5,-32.13 -13.57,-37.39 -3.87,-78.67 15.19,-64.65 -46.22,-73.28 16.3,-154.79 26.31,-34.29 43.17,-25.5 57.32,-87.12 1.44,-6.28 14.62,-41.92 17.76,-46.39 0.44,-103.8 -7.51,-127.56 -69.32,-203.4 -15.48,-19.01 -69.79,-53.16 -89,-77.72 -24.7,-31.57 -25.7,-42.68 -55.14,-76.07 -18.95,-21.49 -37.77,-80.95 -63.27,-105.27 -6.32,-6.03 -56.26,-86.21 -60.48,-51.83 -0.55,4.51 -6.99,152.45 -19.56,131.86 -4.29,-7.03 -16.96,-129.76 -16.96,-143.01 0,-28.47 -2.58,-57.08 6.19,-85.05 8.61,-27.45 8.05,-113.75 19.19,-156.38 14.69,-56.26 27.84,-113.94 48.47,-168.53 8.93,-23.62 8.78,-35.31 22.73,-66.14 15.34,-33.92 44.98,-75.94 78.57,-93.6 57.36,-30.18 21.49,4.34 77.44,-55.52 49.6,-53.07 42.08,-35.04 66.57,-104.46 4.35,-52.42 4.31,-58.49 28.25,-96.34 27.12,-42.86 80.26,-56.87 66.01,-132.29 -11.48,-60.77 -4.35,-67.54 33.07,-118.21 27.98,-37.9 57.39,-108 87.78,-149.96 44.1,-60.9 74.54,-95.36 91.1,-171.71 21.66,-99.92 119.59,-150.05 180.25,-223.81 29.43,-35.78 69.17,-75.39 103.89,-106.34 13.61,-12.13 20.87,-26.38 40.91,-41.49 20.62,-15.55 68.42,-52.06 76.07,-74.27 25.08,-72.77 3.46,-94.94 9.93,-169.76l0.42 -15.59c4.47,-44.61 0.8,-89.16 22.07,-128.98 9.64,-18.06 18.57,-50.38 34.29,-75.5 13.9,-22.18 51.92,-153.55 66.43,-189.79 9.05,-22.59 74.07,-140.93 86.52,-156.39 87.03,-108.14 73.65,-74.94 184.68,-128.85 23.03,-11.18 147.21,-129.18 178.17,-155.01 70.66,-58.93 99.36,-217.4 138.1,-300.73 42.83,-92.11 68.65,-162.79 128.8,-249.51l2.65 -4.3c28.43,-29.84 35.52,-50.65 66.14,-54.43 68.22,-8.42 134.44,-31.58 202.17,-47.68 38.2,-9.07 68.22,-8.3 111.6,-22.49 73.33,-23.98 140.56,-37.05 210.3,-77.15 50.13,-28.82 91.12,-38.45 137.25,-82.68 27.96,-26.82 40.15,-35.25 62.7,-69.74 49.56,-75.8 154.99,-185.4 238.4,-219.51 39.71,-16.23 182.84,-126.31 205.06,-159.83 32.7,-49.36 70.26,-94.25 104.18,-146.23 50.73,-77.76 111.13,-124.13 156.95,-209.45 36.96,-68.8 46.85,-161.48 57.74,-239.92l0.28 -3.73c-5.86,-57.11 -24.21,-105.73 -61.61,-148.41 -5.76,-6.57 -57.93,-31.54 -47.53,-35.15 42.97,-14.93 39.49,-114.18 36.52,-151.99 -4.27,-54.4 -12.76,-151.41 6.05,-200.09 17.21,-44.57 -22.43,-126.14 18.61,-167.16 24.09,-24.08 58.43,-71.07 85.14,-99.88 47.09,-50.79 104.89,-124.81 117.69,-193.9 13.8,-74.42 22.09,-74.69 20.42,-155.07 -1.39,-67 152.97,-198.8 200.09,-244.03 56.06,-38.2 53.88,-47.35 81.61,-102.53 17.02,-33.9 6.78,-55.65 53.56,-84.19 44.04,-26.86 87.82,-34.63 136.03,-55.28 23.14,-9.91 53.32,-15.47 73.84,-30.85 5.38,-4.03 153.66,-78.24 160.69,-80.46 86.03,-27.18 134.87,-64.68 214.41,-102.67 21.19,-10.13 89.34,-79.39 129.97,-103.09 57.56,-33.59 133.47,-182.78 170.99,-242.52 36.9,-58.77 58.45,-123.85 100.07,-187.29 52.91,-80.65 77.27,-145.55 109.57,-235.39 12.32,-34.28 27.71,-70.84 40.91,-105.26 24.66,-41.01 37.25,-87.79 61.33,-129.55 33.76,-58.57 36.27,-191.38 110.65,-194.57 29.57,-1.27 10.99,38.85 120.29,8.7 88.68,-24.45 60.27,3.89 78.15,64.91 15.22,51.96 7.08,84.71 53.34,124.83 35.42,30.72 57.81,68.8 105.83,99.65 116.02,74.51 144.16,95.12 287.74,87.35 47.72,-2.58 118.41,-20.62 166.31,-31.13 43.77,-9.61 45.73,32.63 128.28,-8.69 46.16,-23.11 132.16,64.24 204.25,16.53 13.57,-8.98 121.51,-74.5 129.26,-66.28 16.47,17.45 -28.61,194.02 149.96,129.12 49.53,-18 107.57,-30.57 154.17,-1.51 31.48,19.64 51.29,27.97 89.3,27.97 47.19,-4.94 158.16,-21.4 205.32,-41.48 45.41,-19.33 79.95,-53.86 136.27,-69.69 31.96,-8.99 58.39,-81.89 80.74,-107.11 69.81,-78.73 36.61,-61.91 137.54,-123.46 68.5,-41.77 99.65,-28.95 162.62,-55.94 40.87,-17.51 19.26,-50.89 118.07,-30.33 84.29,17.54 83.17,42.44 148.69,-37.61 24.38,-29.8 43.86,-47.52 66.01,-80.61 21.72,-32.47 133.24,-99.11 162.62,-130.91 21.01,-4.72 76.26,-19.52 104.18,-21.36 29.75,-1.95 171.28,-127.47 224.75,-127.47 36.27,0 39.28,8.75 81.74,-2.89 28.7,-7.86 150.58,-26.43 178.4,-27.02 33.03,-0.71 45.56,-3.13 80.23,2.22 41.68,6.44 163.81,-16.02 207.7,-28.11 31.01,-8.55 77.34,11.7 138.05,-22.35 40.26,-22.57 50.42,-17.37 96.15,-53.15 23.86,-18.66 78.76,-52.24 104.23,-19.75 40.66,51.88 152.3,-2.82 203.4,-1.09 34.67,1.18 106.76,-56.22 149.92,-56.22 56.13,0 75.63,-0.93 131.48,10.49 10.71,2.18 241.43,1.25 261.84,-1.8 43.01,-6.42 117.39,32.67 149.64,59.11 66.24,39.1 37.6,32.79 64.91,52.91 26.68,19.65 109.74,22.96 138.48,-8.26 33.21,-36.07 202.12,-92.31 255.47,-90.95 42.05,1.07 93.96,-38.42 113.3,-73.62 4.6,-8.38 51.48,-66.61 67.94,-46.3 23.09,28.48 36.55,25.26 66.1,55 39.21,39.46 89.7,23.29 145.38,33.07 21.39,3.76 94.92,3.25 107.95,-17.76 6.56,-10.57 96.61,-98.16 105.7,-64.22 13.03,48.69 132,14.31 141.93,82.12 6.94,47.36 105.95,7.77 138.1,5.25 75.03,-5.87 71.2,-24.58 152.14,-9.5 49.4,9.2 215.97,-14.43 256.03,-46.73 24.74,-19.95 43.26,-45.04 72.1,-65.34 20.32,-14.31 26.98,-23.27 53.15,-36.76 47.73,-24.59 69.83,-39.8 124.02,-58.73 56.44,-19.71 76.5,-23.66 133.81,-35.95 154.87,-24.6 62.76,17.9 111.22,52.49 0.48,0.35 52.93,-6.66 69.02,0 23.17,9.6 66.41,-3.61 51.69,46.73 -25.76,88.1 72.34,92.31 72.34,152.56 0,36.16 5.05,69.39 50.03,70.68 27.81,0.8 91.87,-75.63 102.1,-80.46 21.8,-10.3 117.07,-61.75 132.72,-61.75 21.77,0 77.3,-10.68 77.3,21.49 0,61.47 -21.01,92.12 -45.88,144.58 -1.48,3.12 -67.22,99.96 -71.67,105.69 -74.31,95.53 -139.02,44.17 -165.51,164 -9.96,45.03 -19.56,48.66 -19.56,104.98 32.81,54.46 44.67,93.79 73.18,145.38 32.19,58.25 93.79,16.6 105.84,56.36 10.52,34.72 89.96,44.47 68.6,148.03 -13.5,65.48 42.13,126.7 34.73,144.67 -25.87,62.78 -33.63,45.16 -51.92,128.04 -14.58,66.05 -62.51,176.94 -124.17,211.52 -22.98,12.89 -55.29,50.18 -87.5,70.54 -43.38,27.42 -92.83,54.62 -141.13,72.76 -66.32,52.24 -49.17,55.43 -59.96,130.64 -7.2,50.18 5.25,117.14 36.81,157.1 30.19,38.24 13.68,49.21 75.93,74.27 81.07,32.64 89.74,5.75 157.09,17.91 48.64,8.77 15.35,33.63 45.21,86.41 11.29,19.95 46.56,2.06 58.03,-18.33 20.01,-35.57 45.84,-31.79 83.33,-29.76 73.77,3.98 -46.47,109.55 74.85,163.71 31.38,14 51.21,34.14 94.69,51.83 65.31,26.57 134.83,51.7 198,82.25 63.65,30.06 53.71,25.53 101.02,59.53 18,12.94 104.58,48.17 135.74,66.01 86.56,49.56 254.88,31.28 339.85,-13.66 44.75,-23.67 127.48,-55.2 161.58,0.14 50.35,81.72 178.67,24.85 273.33,50.04 131.16,34.9 156.88,94.5 273.23,155.44 124.5,65.21 128.69,47.86 259.1,59.82 96.72,8.86 96.14,118.24 107.72,194.89 20.02,132.52 -3.14,180.99 95.35,294.02 49.73,57.09 224.04,99.61 296.99,116.04 72.52,9.55 147.38,27.43 221.22,38.32 23.84,3.51 56,12.3 85.09,16.82 38.3,5.94 63.11,12.36 103.7,16.39 108.18,10.76 171.51,27.27 266.71,78.38 35.73,19.18 73.78,32.07 113.02,53.06 80.38,43.01 110.65,43.62 182.18,109.28 37.41,34.35 79.33,54.48 118.26,94.12 51.3,52.24 180.31,159.04 257.68,139.33 165.5,-42.16 254.57,-97.54 370.42,-223.24 28.55,-30.96 114.92,-209.42 122.8,-252.73 14.54,-79.99 -52.59,-120.48 -68.23,-203.96 -18.37,-98.07 -19.08,-164.55 6.05,-262.08 16.47,-63.9 58.18,-132.31 109.57,-174.2 65.11,-34.51 149.08,-79.72 202.17,-131.2 19.06,-18.49 128.98,-81.6 157.47,-92.04 84.35,-30.92 98.63,-6.29 157.95,-21.5 59.48,-15.25 106.29,-96.34 165.36,-66.14 46.96,24 236.42,21.53 299.17,29.34 54.22,6.74 114.94,51.7 172.26,64.48 23.42,5.23 41.15,19.52 77.3,25.52 77.32,12.83 7.62,34.92 47.81,121.28 31.81,68.34 45.97,79.93 106.69,121.24 29.59,20.13 164.78,-5.34 280.27,75.93 107.97,75.97 100.06,29.2 215.4,44.65 39.99,5.35 56.54,3.59 100.35,13.23 42.38,9.32 194.05,6.84 202.69,47 5.48,25.48 20.89,63.44 35.95,84.06 39.13,98.13 105.85,148.89 212.19,122.94 74.27,-18.13 108.25,-88.3 196.55,-51.84 17.13,7.08 58.3,16.41 83.63,26.46 36.57,14.52 97.57,17.35 145.7,37.9 110.58,47.2 120.47,49.8 239.88,66.85 96.01,13.7 132.43,-11.27 208.5,64.73 60.97,60.91 90.2,0.41 160.4,33.78 54.33,25.83 12.48,60.31 143.49,50.98 128.08,-9.12 139.3,-1.46 249.56,53.34 26.29,13.06 50.51,32.38 79.9,47.96 53.77,12.44 101.16,31.51 155.58,15.3 58.76,-17.5 97.45,-16.98 154.08,-53.34 52.24,-33.54 111.81,-27.15 168.76,-86.51 28.43,-29.63 82.72,-69.24 125.58,-56.78 28.04,8.14 75.74,-20.73 95.49,-38.61 75.19,-32.22 108.62,-51.65 174.44,-93.41 29.95,-19 160.77,-74.05 199.57,-56.93 31.57,13.93 75.38,39.8 108.71,52.64 13.63,5.24 144.54,75.42 151.05,81.73 10.82,10.49 104.52,73.91 118.5,78.39 27.84,8.9 89.94,-22.58 191.16,16.82 45.83,17.83 66.44,73.58 141.22,44.79 31.12,-11.99 69.51,-18.94 100.45,-5.39 44.85,19.65 128.66,-12.9 177.5,-16.11 51.04,-1.95 63.89,-3.83 110.94,-1.52 145.08,7.13 229.41,-29.17 331.82,-133.66 37.29,-38.05 58.7,-41.94 99.07,-95.62 75.79,-100.81 99.42,-191.33 153.93,-302.06 11.3,-22.96 45.69,-127.92 49.47,-153.83 3.95,-26.99 14.03,-59.98 19.33,-92.98 25.39,-158.36 34.04,-176.76 112.02,-317.78 14.5,-26.23 25.04,-91.53 41.77,-130.83 6.68,-15.7 14.41,-38.03 20.93,-54.95 34.02,-72.18 93.22,-151.55 120.71,-232.32 28,-82.23 25.4,-47.31 33.08,-138.62 7.37,-87.57 43.1,-112.36 100.96,-167.02 99.82,-94.28 36.76,-125.02 39.6,-236.8 0.94,-36.82 -7.76,-50.73 -1.23,-98.94 5.04,-37.26 5.87,-176.59 -7.04,-210.29 -13.37,-34.89 -10.83,-36.02 -33.08,-70.68 -20.01,-31.17 -11.08,-87.27 0,-119.49 10.42,-30.29 14.83,-65.13 31.42,-91.75 34.8,-78.98 21.73,-61.8 6.05,-137.69 -22.33,-108.12 -107.24,-79.09 27.17,-196.63 39.98,-34.96 48.51,-36.14 74.41,-89.02 25.37,-51.77 20.04,-102.04 -2.22,-154.21 -20.62,-48.35 -89.14,35.18 -147.32,41.76 -34,3.84 -80.89,11.55 -83.62,52.92 -2.76,41.9 -28.64,90.12 -78.01,66.01 -14.79,-7.23 -95.39,-17.07 -114.66,-16.4 -54.95,1.91 -248.58,-107.19 -279.47,-89.3 -40.75,23.61 -58.24,44.85 -96.86,73.19 -33.91,24.88 -47.67,25.63 -77.43,60.19l-5.25 3.88c-27.05,35.65 -78.2,144.89 -125.77,151.99 -31.14,4.65 -39.6,-41.48 -75.98,4.82 -53.44,68.02 -156.53,42.9 -235.62,63.12 -62.17,15.89 -114.45,15.2 -174.48,36.38 -66.69,23.54 -187.54,25.45 -243.66,-21.36 -97.67,-81.46 -70.82,-116.32 -127.84,-187.14 -31.12,-38.66 -129.93,-109.94 -175.72,-125.54 -129.12,-43.97 -143.77,-30.76 -275.07,-32.93 -92.61,-1.53 -109.61,-16.67 -189.32,-48.23 -81.93,-32.45 -54.28,53.25 -68.79,91.66 -27.56,72.97 4.45,50.22 -57.17,127.56 -31.26,39.24 -59.23,108.94 -114.67,86.41 -56.82,-23.09 -93.68,-1.01 -141.78,25.24 -69.86,29.32 -87.28,28.5 -162.06,17.1 -97.8,-14.92 -63.54,-60.35 -144.15,-82.83 -27.7,-7.72 -42.65,-54.83 -44.37,-79.37 -3.79,-54.01 -18.07,-164.26 -96.33,-139.33 -26.8,8.53 -116.88,32.5 -136.97,6.19 -46.24,-60.53 -61.61,-85.81 -146.61,-60.19 -52.76,15.9 -21.96,106.46 -64.92,42 -23,-34.52 -136.52,-49.64 -38.46,-73.85 9.16,-2.26 148.98,-72.55 88.64,-90.52 -57.77,-17.21 -35.91,4.43 -92.32,5.9 -43.73,1.14 -49.12,5.68 -91.94,-9.92 -35.35,-12.88 -103.78,15.97 -165.8,2.88 -60.18,-12.7 -76.4,53.95 -116.55,19.33 -20.54,-17.71 34.35,-31.02 51.35,-37.61 62.47,-24.24 130.29,-30.05 80.79,-113.73 -26.71,-45.16 -199.74,-11.45 -172.12,-126.48 20.22,-84.19 -56.11,-71.98 -99.21,-106.4 0.59,-2.3 27.29,-10.26 39.25,-18.9 40.91,-29.54 79.05,-7.51 92.09,-88.44 2.04,-12.63 -17.05,-32.38 -25.37,-56.37 -6.68,-19.26 -23.87,-19.69 -31.56,-33.07 -69.08,-3.83 -64.84,-15.49 -116.98,-52.07 -49.83,-34.96 -54.49,-102.52 -110,-62.03 -63.2,46.1 -154.49,-2.05 -111.59,-27.98 47.8,-28.89 25.83,-102.14 91.33,-64.63 24.69,14.14 15.12,54.8 51.54,20.27 42.22,-40.02 66.17,28.78 160.55,-40.11 21.28,-15.54 -6.92,-13.2 -34.87,-40.54 -41.16,-40.29 -61.72,-20.7 -93.26,-101.54 -31.58,-80.92 38.9,-42.17 85.13,-114.81 38.41,-60.33 29.35,-62.9 -40.63,-96.85 -45.47,-22.06 0.64,-77.68 -45.45,-136.68 -88.69,-113.54 48.21,-107.61 64.73,-207.42 11.27,-68.11 -106.92,1.42 -145.95,4.96 -83.41,7.56 -116.2,9.4 -201.17,29.91 -48.43,11.68 -52.49,-10.89 -26.32,-48.53 34.67,-49.86 36.83,-75.94 56.22,-130.21 -48,-63.51 -54.79,-91.11 18.9,-119.63 4.42,-1.71 6.36,-3.74 10.87,-4.39l46.3 -30.15 6443.88 0 0 10793.7 -49.22 -23.15c-11.98,-13.32 -104.97,-68.45 -125.25,-76.21 -50.66,-19.39 -78.78,-46.81 -121.71,-73.33 -26.99,-16.68 -61.22,-79.96 -74.65,-109.66 -15.56,-34.39 -65.43,-72.05 -96.33,-93.17 -67.73,-46.29 -90.32,-160.4 -100.88,-237.56 -9.54,-69.77 -11.35,-121.69 -25.23,-193.9 -0.54,-12.79 -26.1,-57.33 -35.29,-68.08 -33.3,-39 -15.83,-93.66 15.88,-128.14 58.47,-63.57 38.86,-140.75 -3.17,-207.22 -20.44,-32.33 -75.09,-164.54 -86.13,-201.79 -17.99,-60.67 -50.09,-122.74 -69.88,-179.4 -19.25,-55.12 -87.92,-143.66 -100.44,-184.55 -22.52,-73.52 -41.99,-76.6 -88.08,-133.8 -18.73,-25.13 -135.36,-95.31 -168.1,-108.57 -67.15,-27.2 -87.97,-77.62 -153.13,-99.36 -95.93,-32.01 -66.21,-22.52 -107.2,-99.79 -42.63,-80.36 -117.04,-80.18 -92.46,-151.99 16.76,-48.98 26.91,-103.47 19.27,-155.17 -5.51,-37.32 -67.14,-172.43 -86.51,-208.5 -66.15,-123.22 -163.98,-106.41 -159.45,-226.55 3.16,-83.83 -68.4,-26.56 -97,-90.66 -16.45,-36.87 -22.73,-59.08 -43.42,-101.3 -16.54,-26.09 -22.5,-34.47 -41.21,-59.25 -64.97,-86.09 -81.45,-107.74 -124.16,-204.53 -16.43,-37.24 -66.09,-87.88 -98.41,-113.68 -34.99,-27.92 -51.83,-82.74 -65.16,-124.73 -15.64,-49.3 -33.36,-84.35 -48.76,-128.79 -19.04,-55 -75.15,-86.9 -89.44,-113.16 -27.65,-50.81 -74.25,-102.48 -116.46,-142.21 -25.29,-23.8 -117.31,-38.15 -147.03,-31.85 -72.7,15.43 -80.18,53.13 -74.7,-32.65 2.4,-6.54 8.25,-37.75 10.34,-47.43 9.42,-43.49 42.55,-103.51 45.88,-135.46 4.65,-44.59 37.14,-219.5 52.92,-253.24 13.69,-29.27 15.76,-73.05 21.92,-100.88 9.21,-41.55 6.75,-98.97 13.89,-131.06 25.64,-115.1 -103.6,90.93 -103.61,90.95 -1.18,2.24 -11.65,72.58 -11.71,77.58 -0.73,56.98 -9.38,76.71 -20.94,128.42 -16.39,73.32 -27.24,87.05 -54.99,152.13 -21.81,51.16 -46.36,70.54 -63.92,114.39 -7.53,18.78 20.28,96.84 28.11,119.06 14.49,41.15 -30.25,123.86 -59.82,136.83 -43.89,19.26 -47.39,23.19 -91.8,15.73 -84.21,-14.15 -96.38,-57.55 -151.28,-93.41 -27.91,-18.23 -38.18,-39.69 -51.98,-50.6 -43.72,-34.57 -69.44,-68.15 -103.75,-113.96 -18.26,-23.24 -35.29,-48.64 -57.46,-68.46 -126.87,-113.44 -19.86,-200.27 -130.92,-308.43 -88.55,-86.24 -108.8,-133.75 -139.19,-250.69 -26.79,-103.1 -32.88,-114.83 -88.87,-204.34 -14.88,-23.8 -38.3,35.39 -43.84,47.29 -18.44,39.62 -7.72,91.53 15.45,127.71 52.27,81.62 39.83,41.53 62.41,144.95 5.01,23 3.67,81.44 5.81,90.43 6.25,26.17 -4.54,56.44 -2.22,82.69 3.48,39.44 -3.23,28.38 38.18,59.39 32.56,59.02 49.64,111.5 96.61,160.11 5.39,5.57 64.74,80.15 67.53,86.71 5.69,13.4 110.47,156.5 124.82,171.13 25.26,25.75 39.92,39.78 56.65,73.18 39.72,108.48 -4.21,126.17 59.81,216.91 35.16,49.83 92.91,146.73 106.78,205.9 16.39,69.91 20.65,71.29 47.81,134.33 28.64,66.46 10.18,120.62 69.89,208.5 20.84,30.68 41.29,49.31 61.46,85.7 25.58,46.16 46.76,74.99 66.57,127.76 31.28,83.32 56.6,91.95 93.69,161.92 28.26,89.67 74.27,187.88 109.42,276.86 8.3,20.99 91.3,184.68 103.05,199.76 17.16,22.03 77.61,139.52 88.5,167.45 20.51,52.64 54.35,157.82 113.53,173.4 25.77,6.78 98.64,49.89 86.28,77.15 -6.79,14.96 -98.23,21.33 -64.64,69.45 19.39,27.78 11.4,54.7 12,84.34 -21.56,123.67 7.2,183.09 43.56,298.36 32.44,102.83 114.08,197.46 220.18,225.84 74.56,19.95 74.79,75.89 135.22,117.84 46.15,32.04 180.74,104.94 194.7,156.01 19.43,71.09 4.92,146.72 42.72,227.49 17.84,38.13 19.06,45.01 43.27,84.05 14.75,24.93 35.64,65.01 58.02,85.85 20.04,18.66 -23.9,53.98 -7.84,105.98 21.36,69.18 19.64,163.14 36.38,234.01 21.17,89.66 -4.43,183.97 8.93,254.62 3.43,18.16 -0.77,29.81 6.61,58.3 7.43,28.64 26.2,157.46 28.54,188.52 6.07,80.64 4.39,213.97 37.46,282.34 17.53,36.24 36.91,68.71 51.84,106.69 62.51,54.57 61.16,33.67 117.4,66.57 14.04,8.21 110.83,87.24 120.58,97.28 20.25,20.87 38.38,18.96 39.69,61.47 1.74,56.37 49.45,43.94 92.6,56.37 138.43,39.85 75.97,90.69 177.22,188.61 96.06,92.89 134.36,288.49 180.68,411.09 26.86,71.11 36.82,144.29 52.49,218.14 3.2,15.09 7.53,42.92 8.13,58.02 6.7,58.98 35.87,217.23 76.06,265.95 14.66,17.77 71.53,96.9 78.15,117.7 12.02,37.79 69.97,79.2 73.85,136.82 24.44,40.72 36.02,46.02 52.62,71.99 1.88,2.94 2.47,44.58 46.3,15.69 36.81,-24.27 -62.36,-114.7 56.65,-120.3 12.21,-0.58 11,38.47 24.94,60.9 11.99,19.3 24.49,89.7 31.28,100.73 17.9,29.09 24.14,39.97 51.26,61.62l55.85 11.57 0 1234.2 -26455.46 0zm-3.08 -7850.4c-51.45,-66.65 -48.74,-91.09 31.56,-89.3 24.35,0.54 94.11,-66.35 130.08,-84.76 43.17,-22.11 109.74,-65.56 45.21,24.81 -49.81,69.74 -91.19,102.32 -106.4,189.07 -6.39,36.42 -36.86,5.44 -50.84,-6.75l-49.61 -33.07zm472.94 171.98c-20.93,-31.19 -29.93,-42.21 -19.42,-76.21 17.03,-55.09 46.18,-56.09 92.61,-56.09 37.54,0 61.76,38.18 70.26,70.68 9.77,37.39 -9.15,71.1 -50.41,71.4 -7.92,0.05 -35.71,5.51 -41.77,5.1l-51.27 -14.88zm884.7 -405.15c3.16,-36.98 12.3,-98.99 -39.68,-66.57 -18.71,11.67 -42.93,66.3 -44.51,88.07 -2.44,33.69 -78.85,72.33 -74.7,145.81 2.43,43.05 36.13,4.57 69.6,18.32 46.68,19.2 59.94,-76.41 72.33,-99.64 1.41,-2.64 1.5,-3.77 2.08,-6.61l14.88 -79.38zm104.18 -272.85c-21.54,10.92 -146.02,81.21 -66.57,104.6 30.56,9 76.47,-31.67 103.09,-47.81 47.01,-28.49 34.91,-85.35 -15.02,-58.44l-21.5 1.65zm-1618.08 -1945.52c-3.48,-2.78 -62.87,-40.84 -59.11,-52.92 4.26,-13.66 78.82,-14.67 100.59,-4.39 47.7,22.52 52.97,-3.02 80.47,57.31 11.03,24.2 -77.71,14.88 -85.57,14.88l-36.38 -14.88zm3812.5 -4239.53c-6.34,36.21 -3.61,61.55 -10.35,90.13 -9.28,39.31 -50.41,53.78 -63.64,124.4 -36.32,193.76 -90.23,137.08 -142.92,248.37 -16.99,35.87 -0.48,78.95 -17.49,126.72 -9.35,26.28 -16.15,134.89 -24,174.34 -10.06,50.62 21.78,38.73 55.57,47.96 36.85,10.06 46.42,-25.92 86.5,-45.31 14.5,-7.02 75.49,-52.9 56.8,-3.45 -12.07,31.93 13.01,74.08 -45.22,94.26 -36.06,12.49 -40.38,139.62 0.43,100.44 30.74,-29.52 86.29,-38.94 127.04,-36.52 23.36,1.39 28.54,65.5 28.54,83.68 0,48.58 -9.92,84.16 -9.92,129.78 -7.06,31.71 -10.51,62.45 -21.08,92.47 -16.61,47.21 29.35,62.51 29.35,139.05 0,38.83 -1.2,83.2 -9.5,120.85 -16.07,72.82 10.39,140.93 -32.28,209.73 -37.32,60.19 -79.81,138.8 34.08,79.24 56.27,-29.43 90.31,-43.39 151.56,-18.48 38.86,15.81 113.77,23.31 159.84,46.73 55.71,28.32 133.79,20.97 181.24,-22.58 54.37,-49.91 140.46,-69.52 212.75,-68.23 96.67,1.72 176.13,-71.84 240.35,41.34 24.03,42.36 170.58,96.77 164.51,143.44 -5.71,43.93 -17.56,60.38 7.47,108.34 18.02,34.54 64.15,83.11 89.72,131.06 9.01,16.89 27.15,49.18 33.88,65.3 57.99,120.49 85.8,89.78 101.44,113.68 14.04,21.47 77.25,41.69 103.61,44.93 28.43,3.49 24.42,21.7 67.37,18.19 52.38,-4.28 48.32,-69.6 83.11,-105.69 57.47,-59.63 46.13,-27.64 73.33,-112.02 47.18,-146.42 203.08,9.36 270.63,-102.96 80.28,-45.97 145.87,-103.5 245.87,-85.42 24.77,4.48 175.7,13.86 201.7,11.43 62.32,-5.8 91.26,-12 156.39,-12 81.47,0 161.72,-37.41 223.67,9.5 35.45,26.85 80.63,6.76 98.41,-33.02 13.42,-30.02 74.19,-43.85 102.76,-32.7 41.22,16.08 69.32,13.65 114.44,39.26 51.03,28.98 71.16,-70.87 86.65,-108.28 45.85,-110.74 14.28,-68.99 98.41,-167.31 53.49,-62.5 103.7,-173.55 198.02,-175.43 55.55,-1.11 99.18,-13.67 160.26,-14.74 10.88,-0.19 22.21,-1.29 33.21,-1.8 61.92,-14.88 62.84,-13.16 62.84,-69.17 0,-78.31 39.44,-135.3 44.51,-208.07 1.76,-25.34 55.13,-157.4 73.33,-165.5 53.66,-23.89 84.01,-7.26 97.56,-77.07 12.6,-64.95 213.88,-135.29 222.96,-201.18 0.76,-5.47 -79.43,-51.15 -88.59,-57.45 -65.63,-45.16 -112.09,-78.68 -95.53,-164.27 7.75,-40.07 -24.25,-143.63 -35.96,-185.07 -10.65,-37.7 21.62,-93.69 41.34,-123.89l6.62 -11.71 137.25 -225.3 -4168.84 0zm4758.36 601.51c-38.62,26.87 -44.09,30.11 -55.8,69.88 -8.65,29.39 19.55,37.13 47.96,27.11 19.69,-6.94 66.2,-26.37 80.6,-40.77 22.12,-22.11 18.51,-73.88 -21.35,-62.84 -8.62,2.39 -14.73,4.96 -23.29,4.96l-28.12 1.66zm795.41 -448.14c-37.16,-53.29 -42.26,-82.45 -100.87,-42.71 -22.82,15.46 -15.98,53.53 -51.27,49.18 -25.35,-3.13 -75.11,50.79 -95.49,70.03 -35.4,33.41 -116.57,135.42 4.26,89 123.36,-47.39 14.11,94.89 118.91,89.3 71.57,-3.82 35.98,47.03 82.84,58.97 38.27,9.75 67.42,-50 97.98,-79.09 30.95,-29.46 0.46,-28.19 43.42,-62.7 23.37,-18.78 58.97,-109.9 58.97,-138.63 0,-26.05 -55.44,6.03 -69.46,9.64 -15.93,4.1 -74.41,14.97 -74.41,-9.92l-14.88 -33.07zm507.67 -122.37c-81.28,-15.79 -63.42,-9.92 -136.83,-9.92 -49.81,0 -40.73,44.18 6.56,47.95 64.32,5.13 85.05,32.87 135.23,64.06 21.28,13.24 55.88,32.59 64.21,-8.26 2.02,-9.9 -32.61,-69.55 -39.41,-78.95l-29.76 -14.88zm3058.42 3630.58c-18.34,-58.96 -17.37,-80.79 41.2,-76.2 43.44,3.4 86.04,85.54 6.9,94.53 -6.36,0.72 -21.23,-3.57 -23.29,-10.06l-24.81 -8.27zm-1050.88 -3661.58c-55.33,89.08 -2.99,32.89 5.1,98.8 0.06,0.44 -18.33,84.99 -18.33,108.85 0,47.74 -28.31,147.08 -38.46,201.23 -12.79,68.25 -22.88,84.23 20.84,147.84 28.34,41.23 18.46,33.65 36.9,73.98 10.25,22.42 71.27,54.11 95.91,53.49 12.78,-0.32 62.7,29.54 80.51,-3.31 3.19,-5.88 -14.27,-21.24 6.05,-57.45 27.67,-49.33 7.2,-86.75 88.72,-137.25 23.97,-14.85 49.28,12.8 95.64,12.8 61.5,0 92.46,85.93 111.64,29.24 5.42,-16.02 1.72,-94.92 6.19,-128.04 5.61,-41.67 6.72,-48.82 17.1,-90.85 13.81,-55.86 28.94,-109.9 26.32,-168.05 -0.92,-20.4 1.38,-18.24 -2.74,-43.57 -1.06,-6.5 -4.19,-17.74 -3.88,-23.72l0 -73.99 -527.51 0zm3321.35 0c8.98,33.14 19.52,53.89 24.8,84.46 6.41,37.13 63.88,57.85 61.19,131.21 -2.4,65.57 33.16,140.97 54,202.68 11.75,34.78 72.71,163.82 94.83,187.01 23.74,24.9 18.64,128.83 16.67,165.51 -3.99,74.44 -118,58 -135.31,95.91 -2.35,5.15 -4.76,13.23 -7.04,18.33 -7.64,42.98 -8.43,83.29 -22.73,122.37 -20.55,56.17 -52.38,68.02 -102.95,81.03 -14.08,3.62 -23.19,22.54 -4.96,36.81 11.87,9.28 20.11,56.93 14.46,70.67 -8.66,21.04 16.37,46.43 41.77,49.47 37.65,4.5 98.74,41.29 124.44,-9.78 12.79,-25.41 11.38,-37.71 27.83,-65.58 22.58,-38.24 1.58,-74.63 61.33,-101.72 14.04,-6.37 119.71,-98.97 128.98,-115.33 15.26,-26.95 8.29,1.18 15.03,-38.6 8.12,-47.94 21.8,-31.95 6.47,-90.67 -14.09,-53.99 66.19,-98.55 101.25,-127.99 28.54,-23.96 85.09,-23.37 116.75,-6.24 34.23,18.53 85.08,-14.24 59.53,-55.37 -21.71,-34.95 -29.44,-85.42 -19.7,-124.83 2.94,-11.92 3.16,-22.34 3.16,-34.35 -23.15,-91.37 -28.35,-111.54 -112.02,-155.44 -43.03,-22.58 -36.11,-21.49 -84.76,-35.81 -50.68,-14.93 -43.1,-20.75 -70.02,-63.41 -21.44,-33.97 13.46,-76.67 18.76,-116.18 0.82,-6.08 4.64,-11.08 8.27,-16.11l11.57 -88.05 -431.6 0zm1079.83 0c6.97,74.37 21.24,68.81 72.76,100.86 10.58,6.58 41.99,89.06 95.49,32.41 6.63,-7.02 10.34,-21.08 10.34,-30.34l31.41 -102.93 -210 0zm-1197.24 1214.18c1.87,-3.97 83.89,-151.35 24.94,-126.24 -27.12,11.56 -70.3,47.16 -104.17,64.92 -33.94,17.79 -111.28,54.3 -132.01,0.43 -16.18,-42.05 -83.59,12.51 -115.19,26.83 -86.64,39.25 -48.31,43.05 -154.36,37.23 -21.59,-1.19 -56.36,6.76 -87.5,6.76 -126.85,0 -193.57,75.03 -302.47,-27.55 -19.8,-18.65 -81.4,-45.87 -111.65,-64.63 -46.33,-28.73 -92.07,52.31 -130.78,67.65 -114.6,45.41 -77.75,-74.18 -141.22,-53.91 -12.28,3.92 -128.68,121.48 -129.83,140.19 -3.47,56.33 104.83,178.82 158.75,187.52 150.11,24.24 115.12,-9.29 231.08,90.53 65.45,56.33 199.92,136.98 278.76,169.1 69.27,28.22 126.74,44.33 181.24,97.84 20.37,20.01 102.68,73.26 134.37,97 38.64,28.94 99.13,39.04 145,57.07 24.4,9.6 126.09,43.89 126.2,-5.38 0.14,-57.26 27,-73.58 16.82,-148.69 -8.81,-64.94 30.59,-39.43 -19.85,-123.88 -27.61,-46.23 -26.9,-144 -19.84,-197.21 6.64,-50.07 84.29,-150.21 108.72,-212.75 1.16,-2.99 3.47,-7.09 4.96,-10.07l38.03 -72.76zm2048.05 -1214.18c13.41,91.06 30.78,75.51 73.99,140.14 6.25,9.36 -14.78,83.16 44.78,128.14 10.7,8.08 43.04,53.55 48.24,68.93 8.75,25.87 11.26,48.07 22.17,78.66 28.17,78.98 155.7,153.45 232.07,179.03 62.86,21.05 50.3,44.1 138.91,47.81 62.61,2.62 56.77,63.72 12.42,49.75 -22.66,-7.14 -125.52,-17.41 -134.37,6.62 -22.09,59.98 100.45,112.23 112.03,157.52 14.84,58.07 3.16,66.72 40.96,123.74 81.61,123.08 41.85,39.69 143.44,39.26 58.29,-0.25 41.14,48.07 125.25,1.94 36.18,-19.84 106.36,-23.07 147.23,-13.09 12.61,3.08 22.18,1.7 34.67,-0.14 44.79,0.18 140.86,-11.71 181.06,6.47 73.97,33.45 43.37,10.59 99.64,70.82 24.03,25.72 113.93,27.17 154.49,46.3 0.43,0.2 122.17,34.49 75.79,56.8 -4.29,2.06 -156.49,9.61 -135.31,40.77 12.69,18.69 159.49,0.43 184.87,0.43 44.43,0 193.55,-50.23 201.8,24 2.44,21.91 25.2,23.82 36.24,58.54 22.2,69.87 92.44,123.69 64.63,66.43 -12.28,-25.28 -0.86,-146.71 -1.66,-190.17 -0.54,-29.29 32.91,-87.12 -4.96,-104.75 -31.43,-14.63 -89.61,-52.27 -119.2,-71.91 -36.98,-24.55 -25.7,-2.11 -74.56,-45.64 -11.37,-10.13 -30.29,-8.04 -52.06,-23.81 -44.57,-32.28 -32.7,1.82 -65.06,-65.72 -16.21,-33.82 -49.77,-20.08 -85.99,-33.93 -37.48,-14.33 -66.62,-34.65 -105.7,-47.81 -10.51,-3.54 -124.25,-58.75 -129.26,-62.56 -70.67,-53.62 6.19,-23.12 68.36,-57.07 61.14,-33.38 85.9,-26.48 104.33,-109.38 5.52,-24.85 117.82,-61.56 90.52,-130.4 -4.05,-10.21 -17.18,-19.08 -26.46,-45.59 -2,-5.73 -20.51,-44.97 -23.29,-49.89 -80.19,-50.95 -55.23,-41.52 -100.87,-99.08 -14.48,-18.25 1.09,-75.45 -45.36,-128.04 -15.81,-17.9 -29.13,-30.16 -42.29,-50.7l-31.41 -62.42 -1260.08 0zm1625.53 786.72c-81.43,-32.16 -38.95,-39.83 -96.2,-77.72 -76.15,-50.4 45.82,-101.87 66.87,-45.08 17.36,46.86 80.66,71.73 109.13,101.73 1.17,1.23 88.45,70.47 88.87,70.68 61.39,31.71 186.11,18.09 195.13,106.82 6.7,65.96 32.74,129.24 89.87,166.03 21.38,13.77 88.14,104.01 45.73,115.48 -34.51,9.33 -109.31,-41.76 -126.1,-75.51 -34.41,-69.17 -10.87,-154.37 -104.56,-160.68 -29.04,-1.95 -143.08,-17.93 -154.07,-47.68 -15.71,-42.48 5.8,-30.09 -30.76,-87.78 -6.61,-10.44 -12.23,-23.78 -16.11,-29.91l-67.8 -36.38zm-183.55 967.38c-5.09,-14.05 -8.48,-22.03 -15.32,-35.57 -31.68,-62.78 -56.91,-127.3 -81.44,-193.05 -8.41,-22.54 -12.85,-71.38 19.04,-50.42 37.96,24.96 43.81,29.62 86.27,47.39 72.82,30.47 77.52,11.7 140.65,27.83 29.29,7.49 44.49,-3.86 27.74,-27.26 -19.26,-26.91 -55.75,-34.8 -85.33,-80.65 -41.05,-63.63 -24.16,-48.38 -82.26,-99.08 -50.15,-43.77 -47.13,-96.99 -109.38,-109.65 -68.33,-13.91 -111.84,-17.2 -173.96,-56.8 -40.41,-25.76 -168.25,-50.88 -183.51,-70.83 -64.26,-83.99 -120.08,43.17 -219.03,52.36 -88.67,8.22 -58.35,-45.73 -102.34,48.8 -22.89,49.19 -58.84,59.82 -71.25,75.64 -13.36,17.04 72.04,59.87 74.7,108.48 2.84,51.83 43.07,50.39 90.81,63.5 51.49,70.1 107.66,131.49 54.14,210.02 -24.74,36.3 -5.38,62.23 12.14,89.72 21.86,34.28 -13.8,73.41 50.04,143.87 17.91,19.77 50.14,87.77 82.11,18.04 18.13,-39.52 -4.32,-41.46 45.08,-86.27 56.51,-51.26 84.84,44.87 96.85,88.31 13.47,48.7 49.61,88.2 68.66,150.38 19.42,63.39 47.86,80.36 45.73,-4.86 -0.49,-19.68 50.45,-195.57 98.23,-126.91 18.3,26.3 27.38,37.17 49.51,60.53 22.75,24.01 38.89,88.29 95.21,107.63 28.48,9.77 36.4,-25.53 32.79,-50.32 -8.5,-58.24 0.04,-104 -14.89,-171.7 -2.93,-13.31 -7.79,-51.84 -17.76,-62.98l-13.23 -66.15zm-1116.22 -598.62c-14.71,-36.63 -53.73,-131.51 23.68,-92.6 18.89,9.5 57.26,62.14 45.92,87.5 -9.82,21.96 -24.42,25.01 -46.44,18.33l-23.16 -13.23zm24.81 -309.23c-9.82,-29.76 -31.26,-89.66 22.72,-84.47 27.6,2.65 44.69,82.31 12.01,79.51l-34.73 4.96zm51.26 532.48c-23.87,-29.62 -44.69,-51.28 -10.34,-73.19 24.52,-15.64 95.44,96.21 41.76,89.58l-3.31 0.14 -28.11 -16.53zm1436.2 1434.54c-0.02,0 -152.28,13.33 -134.51,-19.84 10.81,-20.17 41.28,-101.39 48.52,-107.63 22.05,-19 138.96,52.7 177.37,60.09 122.34,23.57 156.64,29.6 283.06,11.58 80.22,-11.43 176.33,-8.52 243.22,41.49 62.8,46.94 166.17,-29.12 233.97,7.98 23.49,12.86 -6.98,101.71 83.21,69.59 29.3,-10.43 98.68,-1.45 137.58,-7.46 137.29,-21.22 58.19,92.33 -166.64,68.65 -37.18,-3.92 -152.7,17.96 -205.06,19.56 -41.39,1.27 -72.7,13.09 -121.8,13.09 -100.33,0 -96.6,11.19 -162.48,-67.66 -25.98,-31.08 -108.61,-48.67 -148.97,-51.27 -14.45,-0.93 -132.99,-18.76 -143.58,-22.06 -8.7,-2.7 -15.25,-5.52 -24.67,-6.19l-99.22 -9.92zm1065.78 -2358.93c-26.63,11.02 -118.22,40.85 -108.85,85.71 44.05,10.09 129.88,-44.04 158.32,-30.05 23.89,11.75 49.46,25.54 28.68,58.58 -2.61,4.15 -81.33,32.37 -14.6,53.35 24.67,7.75 86.18,-1.83 83.49,-23.72 -2.95,-23.99 8.82,-17.2 -5.25,-68.23 -25.65,-93.04 -66.02,-70.43 -82.26,-83.91l-59.53 8.27zm157.1 476.25c-20.6,-33.87 -42.62,-57.81 -3.31,-73.99 23.32,-9.59 62.84,81.07 62.84,92.18 0,27.62 -46.3,34.33 -46.3,3.31l-13.23 -21.5zm-167.02 33.07c-6.68,-12.48 -41.1,-83.19 -72.76,-64.06 -20.7,12.51 50.09,85.21 28.54,119.07 -0.35,0.55 -23.55,52.71 -23.72,54.14 -9.45,76.54 69.6,14.49 69.6,-34.73l-1.66 -74.42zm-593.66 375.38c-18.17,-17.96 -45.84,-38.16 -29.48,-66.28 10.18,-17.49 113.97,42.06 64.21,58.44 -0.29,0.09 -11.57,4.54 -11.58,4.54l-23.15 3.3zm294.35 506.02c-32.82,-44.06 -45.21,-62.16 -4.96,-97.71 21.83,-19.28 81.05,10.06 68.22,54.29 -3.36,11.59 4.06,15.13 -12.14,27.31 -5.36,4.03 0.1,1.77 -9.78,4.53l-41.34 11.58zm1238.58 410.1c17.51,-33.73 69.7,-99.97 9.92,-102.52 -4.83,-0.21 -95.08,68.97 -110.79,78.14 -14.76,8.63 -41.34,44.15 -41.34,65.72 0,19 -65.5,118.3 -29.77,135.32 30.9,14.71 92.17,-90.31 122.51,-109.43 2.63,-1.65 4.29,-2.94 4.82,-6.04l44.65 -61.19zm-266.23 -312.54c-6.37,2.12 -93.76,22.22 -64.07,54.14 16.67,17.93 169.87,-7.15 107.06,-46.29 -3.79,-2.37 -12.06,-8.23 -16.54,-7.85l-26.45 0zm-383.25 -575.88c-29.07,-1.04 -31.2,-1.3 -51.19,14.06 -10.43,8.01 -0.51,18.4 15.76,18.19 5.58,-0.07 65.38,1.39 67.68,2.27 15.76,6.02 44.05,-11.6 42.45,-14.67 -4.66,-9 -28.35,-22.34 -40.87,-23.09 -4.11,-0.25 -6.56,-0.89 -11.5,-0.89l-22.33 4.13 0 0zm3313.91 1329.55c-44.17,29.88 -33.35,29.96 -61.62,51.26 -27.97,21.08 -180.1,72.34 -207.93,47.81 -7.87,-6.94 -58.7,-36.24 -67.37,-36.24 -31.38,0 -84.01,19.96 -94.12,56.94 -11.88,43.43 -25.84,82.03 -80.08,58.16 -28.69,-12.62 -23.37,-48.2 -80.46,5.05 -25.91,24.17 -117.61,67.51 -125.02,97.47 -10.3,41.66 36.4,124.98 73.84,142.88 79.63,38.06 62.86,38.58 162.49,34.87 65.9,-2.45 180.11,-28.6 244.88,-48.67 84.39,-26.14 109.87,-111.62 188.14,-144.95 109.39,-46.59 36.65,-155.59 40.91,-163.71 14.59,-27.76 74.76,-73.26 107.35,-77.72 15.19,-2.08 126.25,-29.26 58.3,-48.38 -13.07,-3.68 -75.6,10.34 -101.3,10.34l-3.44 0 -54.57 14.89z"/>
   <path id="1" class="fil2 str0" d="M2244.54 15541.47c-14.42,-55.03 -25.41,-137.12 -10.34,-193.81 7.81,-29.4 3.02,-118.53 14.07,-157.76 16.04,-56.9 5.05,-120.72 25.61,-178.88 23.33,-65.95 21.93,-48.36 21.93,-112.59 0,-14.99 -21.33,-90.4 -28.69,-104.18 -9.73,-18.23 0.99,-17.47 -20.49,-49.61 -16.44,-24.58 -8.32,-86.27 -38.04,-130.63 -1.26,-1.87 -70.9,-63.58 -79.94,-72.62 -12.5,-12.48 -26.74,-32.17 -37.9,-46.45 -41.36,-65.43 -47.13,-64.76 -101.29,-108.57 -82.23,-66.51 46.61,-21.79 109.56,-107.63 21.99,-29.98 41.52,-54.26 59.96,-86.55 14.06,-24.63 57.66,-77.57 67.8,-103.48 3.98,-10.18 17.23,-26.85 25.61,-50.17 20.79,-57.94 57.08,-112.36 86.55,-165.93 32.76,-59.53 42.04,-118.6 39.41,-185.45 -1.91,-48.62 -2.03,-99.95 -3.17,-149.25 -1.16,-50.43 14.95,-90.59 29.91,-136.17 9.73,-29.64 67.95,-170.83 80.88,-185.07 39.06,-78.8 49.32,-125.47 57.74,-210.02 6.89,-69.21 23.54,-139.03 28.11,-206.13 6.08,-89.35 -18.05,-177.97 -18.05,-272.85 0,-81.49 -9.92,-205.07 -80.46,-258.53 -7.67,-5.82 -75.61,-88.04 -78.15,-104.32 -5,-32.13 -13.57,-37.39 -3.87,-78.67 15.19,-64.65 -46.22,-73.28 16.3,-154.79 26.31,-34.29 43.17,-25.5 57.32,-87.12 1.44,-6.28 14.62,-41.92 17.76,-46.39 0.44,-103.8 -7.51,-127.56 -69.32,-203.4 -15.48,-19.01 -69.79,-53.16 -89,-77.72 -24.7,-31.57 -25.7,-42.68 -55.14,-76.07 -18.95,-21.49 -37.77,-80.95 -63.27,-105.27 -6.32,-6.03 -56.26,-86.21 -60.48,-51.83 -0.55,4.51 -6.99,152.45 -19.56,131.86 -4.29,-7.03 -16.96,-129.76 -16.96,-143.01 0,-28.47 -2.58,-57.08 6.19,-85.05 8.61,-27.45 8.05,-113.75 19.19,-156.38 14.69,-56.26 27.84,-113.94 48.47,-168.53 8.93,-23.62 8.78,-35.31 22.73,-66.14 15.34,-33.92 44.98,-75.94 78.57,-93.6 57.36,-30.18 21.49,4.34 77.44,-55.52 49.6,-53.07 42.08,-35.04 66.57,-104.46 4.35,-52.42 4.31,-58.49 28.25,-96.34 27.12,-42.86 80.26,-56.87 66.01,-132.29 -11.48,-60.77 -4.35,-67.54 33.07,-118.21 27.98,-37.9 57.39,-108 87.78,-149.96 44.1,-60.9 74.54,-95.36 91.1,-171.71 21.66,-99.92 119.59,-150.05 180.25,-223.81 29.43,-35.78 69.17,-75.39 103.89,-106.34 13.61,-12.13 20.87,-26.38 40.91,-41.49 20.62,-15.55 68.42,-52.06 76.07,-74.27 25.08,-72.77 3.46,-94.94 9.93,-169.76l0.42 -15.59c4.47,-44.61 0.8,-89.16 22.07,-128.98 9.64,-18.06 18.57,-50.38 34.29,-75.5 13.9,-22.18 51.92,-153.55 66.43,-189.79 9.05,-22.59 74.07,-140.93 86.52,-156.39 87.03,-108.14 73.65,-74.94 184.68,-128.85 23.03,-11.18 147.21,-129.18 178.17,-155.01 70.66,-58.93 99.36,-217.4 138.1,-300.73 42.83,-92.11 68.65,-162.79 128.8,-249.51l2.65 -4.3c28.43,-29.84 35.52,-50.65 66.14,-54.43 68.22,-8.42 134.44,-31.58 202.17,-47.68 38.2,-9.07 68.22,-8.3 111.6,-22.49 73.33,-23.98 140.56,-37.05 210.3,-77.15 50.13,-28.82 91.12,-38.45 137.25,-82.68 27.96,-26.82 40.15,-35.25 62.7,-69.74 49.56,-75.8 154.99,-185.4 238.4,-219.51 39.71,-16.23 182.84,-126.31 205.06,-159.83 32.7,-49.36 70.26,-94.25 104.18,-146.23 50.73,-77.76 111.13,-124.13 156.95,-209.45 36.96,-68.8 46.85,-161.48 57.74,-239.92l0.28 -3.73c-5.86,-57.11 -24.21,-105.73 -61.61,-148.41 -5.76,-6.57 -57.93,-31.54 -47.53,-35.15 42.97,-14.93 39.49,-114.18 36.52,-151.99 -4.27,-54.4 -12.76,-151.41 6.05,-200.09 17.21,-44.57 -22.43,-126.14 18.61,-167.16 24.09,-24.08 58.43,-71.07 85.14,-99.88 47.09,-50.79 104.89,-124.81 117.69,-193.9 13.8,-74.42 22.09,-74.69 20.42,-155.07 -1.39,-67 152.97,-198.8 200.09,-244.03 56.06,-38.2 53.88,-47.35 81.61,-102.53 17.02,-33.9 6.78,-55.65 53.56,-84.19 44.04,-26.86 87.82,-34.63 136.03,-55.28 23.14,-9.91 53.32,-15.47 73.84,-30.85 5.38,-4.03 153.66,-78.24 160.69,-80.46 86.03,-27.18 134.87,-64.68 214.41,-102.67 21.19,-10.13 89.34,-79.39 129.97,-103.09 57.56,-33.59 133.47,-182.78 170.99,-242.52 36.9,-58.77 58.45,-123.85 100.07,-187.29 52.91,-80.65 77.27,-145.55 109.57,-235.39 12.32,-34.28 27.71,-70.84 40.91,-105.26 24.66,-41.01 37.25,-87.79 61.33,-129.55 33.76,-58.57 36.27,-191.38 110.65,-194.57 29.57,-1.27 10.99,38.85 120.29,8.7 88.68,-24.45 60.27,3.89 78.15,64.91 15.22,51.96 7.08,84.71 53.34,124.83 35.42,30.72 57.81,68.8 105.83,99.65 116.02,74.51 144.16,95.12 287.74,87.35 47.72,-2.58 118.41,-20.62 166.31,-31.13 43.77,-9.61 45.73,32.63 128.28,-8.69 46.16,-23.11 132.16,64.24 204.25,16.53 13.57,-8.98 121.51,-74.5 129.26,-66.28 16.47,17.45 -28.61,194.02 149.96,129.12 49.53,-18 107.57,-30.57 154.17,-1.51 31.48,19.64 51.29,27.97 89.3,27.97 47.19,-4.94 158.16,-21.4 205.32,-41.48 45.41,-19.33 79.95,-53.86 136.27,-69.69 31.96,-8.99 58.39,-81.89 80.74,-107.11 69.81,-78.73 36.61,-61.91 137.54,-123.46 68.5,-41.77 99.65,-28.95 162.62,-55.94 40.87,-17.51 19.26,-50.89 118.07,-30.33 84.29,17.54 83.17,42.44 148.69,-37.61 24.38,-29.8 43.86,-47.52 66.01,-80.61 21.72,-32.47 133.24,-99.11 162.62,-130.91 21.01,-4.72 76.26,-19.52 104.18,-21.36 29.75,-1.95 171.28,-127.47 224.75,-127.47 36.27,0 39.28,8.75 81.74,-2.89 28.7,-7.86 150.58,-26.43 178.4,-27.02 33.03,-0.71 45.56,-3.13 80.23,2.22 41.68,6.44 163.81,-16.02 207.7,-28.11 31.01,-8.55 77.34,11.7 138.05,-22.35 40.26,-22.57 50.42,-17.37 96.15,-53.15 23.86,-18.66 78.76,-52.24 104.23,-19.75 40.66,51.88 152.3,-2.82 203.4,-1.09 34.67,1.18 106.76,-56.22 149.92,-56.22 56.13,0 75.63,-0.93 131.48,10.49 10.71,2.18 241.43,1.25 261.84,-1.8 43.01,-6.42 117.39,32.67 149.64,59.11 66.24,39.1 37.6,32.79 64.91,52.91 26.68,19.65 109.74,22.96 138.48,-8.26 33.21,-36.07 202.12,-92.31 255.47,-90.95 42.05,1.07 93.96,-38.42 113.3,-73.62 4.6,-8.38 51.48,-66.61 67.94,-46.3 23.09,28.48 36.55,25.26 66.1,55 39.21,39.46 89.7,23.29 145.38,33.07 21.39,3.76 94.92,3.25 107.95,-17.76 6.56,-10.57 96.61,-98.16 105.7,-64.22 13.03,48.69 132,14.31 141.93,82.12 6.94,47.36 105.95,7.77 138.1,5.25 75.03,-5.87 71.2,-24.58 152.14,-9.5 49.4,9.2 215.97,-14.43 256.03,-46.73 24.74,-19.95 43.26,-45.04 72.1,-65.34 20.32,-14.31 26.98,-23.27 53.15,-36.76 47.73,-24.59 69.83,-39.8 124.02,-58.73 56.44,-19.71 76.5,-23.66 133.81,-35.95 154.87,-24.6 62.76,17.9 111.22,52.49 0.48,0.35 52.93,-6.66 69.02,0 23.17,9.6 66.41,-3.61 51.69,46.73 -25.76,88.1 72.34,92.31 72.34,152.56 0,36.16 5.05,69.39 50.03,70.68 27.81,0.8 91.87,-75.63 102.1,-80.46 21.8,-10.3 117.07,-61.75 132.72,-61.75 21.77,0 77.3,-10.68 77.3,21.49 0,61.47 -21.01,92.12 -45.88,144.58 -1.48,3.12 -67.22,99.96 -71.67,105.69 -74.31,95.53 -139.02,44.17 -165.51,164 -9.96,45.03 -19.56,48.66 -19.56,104.98 32.81,54.46 44.67,93.79 73.18,145.38 32.19,58.25 93.79,16.6 105.84,56.36 10.52,34.72 89.96,44.47 68.6,148.03 -13.5,65.48 42.13,126.7 34.73,144.67 -25.87,62.78 -33.63,45.16 -51.92,128.04 -14.58,66.05 -62.51,176.94 -124.17,211.52 -22.98,12.89 -55.29,50.18 -87.5,70.54 -43.38,27.42 -92.83,54.62 -141.13,72.76 -66.32,52.24 -49.17,55.43 -59.96,130.64 -7.2,50.18 5.25,117.14 36.81,157.1 30.19,38.24 13.68,49.21 75.93,74.27 81.07,32.64 89.74,5.75 157.09,17.91 48.64,8.77 15.35,33.63 45.21,86.41 11.29,19.95 46.56,2.06 58.03,-18.33 20.01,-35.57 45.84,-31.79 83.33,-29.76 73.77,3.98 -46.47,109.55 74.85,163.71 31.38,14 51.21,34.14 94.69,51.83 65.31,26.57 134.83,51.7 198,82.25 63.65,30.06 53.71,25.53 101.02,59.53 18,12.94 104.58,48.17 135.74,66.01 86.56,49.56 254.88,31.28 339.85,-13.66 44.75,-23.67 127.48,-55.2 161.58,0.14 50.35,81.72 178.67,24.85 273.33,50.04 131.16,34.9 156.88,94.5 273.23,155.44 124.5,65.21 128.69,47.86 259.1,59.82 96.72,8.86 96.14,118.24 107.72,194.89 20.02,132.52 -3.14,180.99 95.35,294.02 49.73,57.09 224.04,99.61 296.99,116.04 72.52,9.55 147.38,27.43 221.22,38.32 23.84,3.51 56,12.3 85.09,16.82 38.3,5.94 63.11,12.36 103.7,16.39 108.18,10.76 171.51,27.27 266.71,78.38 35.73,19.18 73.78,32.07 113.02,53.06 80.38,43.01 110.65,43.62 182.18,109.28 37.41,34.35 79.33,54.48 118.26,94.12 51.3,52.24 180.31,159.04 257.68,139.33 165.5,-42.16 254.57,-97.54 370.42,-223.24 28.55,-30.96 114.92,-209.42 122.8,-252.73 14.54,-79.99 -52.59,-120.48 -68.23,-203.96 -18.37,-98.07 -19.08,-164.55 6.05,-262.08 16.47,-63.9 58.18,-132.31 109.57,-174.2 65.11,-34.51 149.08,-79.72 202.17,-131.2 19.06,-18.49 128.98,-81.6 157.47,-92.04 84.35,-30.92 98.63,-6.29 157.95,-21.5 59.48,-15.25 106.29,-96.34 165.36,-66.14 46.96,24 236.42,21.53 299.17,29.34 54.22,6.74 114.94,51.7 172.26,64.48 23.42,5.23 41.15,19.52 77.3,25.52 77.32,12.83 7.62,34.92 47.81,121.28 31.81,68.34 45.97,79.93 106.69,121.24 29.59,20.13 164.78,-5.34 280.27,75.93 107.97,75.97 100.06,29.2 215.4,44.65 39.99,5.35 56.54,3.59 100.35,13.23 42.38,9.32 194.05,6.84 202.69,47 5.48,25.48 20.89,63.44 35.95,84.06 39.13,98.13 105.85,148.89 212.19,122.94 74.27,-18.13 108.25,-88.3 196.55,-51.84 17.13,7.08 58.3,16.41 83.63,26.46 36.57,14.52 97.57,17.35 145.7,37.9 110.58,47.2 120.47,49.8 239.88,66.85 96.01,13.7 132.43,-11.27 208.5,64.73 60.97,60.91 90.2,0.41 160.4,33.78 54.33,25.83 12.48,60.31 143.49,50.98 128.08,-9.12 139.3,-1.46 249.56,53.34 26.29,13.06 50.51,32.38 79.9,47.96 53.77,12.44 101.16,31.51 155.58,15.3 58.76,-17.5 97.45,-16.98 154.08,-53.34 52.24,-33.54 111.81,-27.15 168.76,-86.51 28.43,-29.63 82.72,-69.24 125.58,-56.78 28.04,8.14 75.74,-20.73 95.49,-38.61 75.19,-32.22 108.62,-51.65 174.44,-93.41 29.95,-19 160.77,-74.05 199.57,-56.93 31.57,13.93 75.38,39.8 108.71,52.64 13.63,5.24 144.54,75.42 151.05,81.73 10.82,10.49 104.52,73.91 118.5,78.39 27.84,8.9 89.94,-22.58 191.16,16.82 45.83,17.83 66.44,73.58 141.22,44.79 31.12,-11.99 69.51,-18.94 100.45,-5.39 44.85,19.65 128.66,-12.9 177.5,-16.11 51.04,-1.95 63.89,-3.83 110.94,-1.52 145.08,7.13 229.41,-29.17 331.82,-133.66 37.29,-38.05 58.7,-41.94 99.07,-95.62 75.79,-100.81 99.42,-191.33 153.93,-302.06 11.3,-22.96 45.69,-127.92 49.47,-153.83 3.95,-26.99 14.03,-59.98 19.33,-92.98 25.39,-158.36 34.04,-176.76 112.02,-317.78 14.5,-26.23 25.04,-91.53 41.77,-130.83 6.68,-15.7 14.41,-38.03 20.93,-54.95 34.02,-72.18 93.22,-151.55 120.71,-232.32 28,-82.23 25.4,-47.31 33.08,-138.62 7.37,-87.57 43.1,-112.36 100.96,-167.02 99.82,-94.28 36.76,-125.02 39.6,-236.8 0.94,-36.82 -7.76,-50.73 -1.23,-98.94 5.04,-37.26 5.87,-176.59 -7.04,-210.29 -13.37,-34.89 -10.83,-36.02 -33.08,-70.68 -20.01,-31.17 -11.08,-87.27 0,-119.49 10.42,-30.29 14.83,-65.13 31.42,-91.75 34.8,-78.98 21.73,-61.8 6.05,-137.69 -22.33,-108.12 -107.24,-79.09 27.17,-196.63 39.98,-34.96 48.51,-36.14 74.41,-89.02 25.37,-51.77 20.04,-102.04 -2.22,-154.21 -20.62,-48.35 -89.14,35.18 -147.32,41.76 -34,3.84 -80.89,11.55 -83.62,52.92 -2.76,41.9 -28.64,90.12 -78.01,66.01 -14.79,-7.23 -95.39,-17.07 -114.66,-16.4 -54.95,1.91 -248.58,-107.19 -279.47,-89.3 -40.75,23.61 -58.24,44.85 -96.86,73.19 -33.91,24.88 -47.67,25.63 -77.43,60.19l-5.25 3.88c-27.05,35.65 -78.2,144.89 -125.77,151.99 -31.14,4.65 -39.6,-41.48 -75.98,4.82 -53.44,68.02 -156.53,42.9 -235.62,63.12 -62.17,15.89 -114.45,15.2 -174.48,36.38 -66.69,23.54 -187.54,25.45 -243.66,-21.36 -97.67,-81.46 -70.82,-116.32 -127.84,-187.14 -31.12,-38.66 -129.93,-109.94 -175.72,-125.54 -129.12,-43.97 -143.77,-30.76 -275.07,-32.93 -92.61,-1.53 -109.61,-16.67 -189.32,-48.23 -81.93,-32.45 -54.28,53.25 -68.79,91.66 -27.56,72.97 4.45,50.22 -57.17,127.56 -31.26,39.24 -59.23,108.94 -114.67,86.41 -56.82,-23.09 -93.68,-1.01 -141.78,25.24 -69.86,29.32 -87.28,28.5 -162.06,17.1 -97.8,-14.92 -63.54,-60.35 -144.15,-82.83 -27.7,-7.72 -42.65,-54.83 -44.37,-79.37 -3.79,-54.01 -18.07,-164.26 -96.33,-139.33 -26.8,8.53 -116.88,32.5 -136.97,6.19 -46.24,-60.53 -61.61,-85.81 -146.61,-60.19 -52.76,15.9 -21.96,106.46 -64.92,42 -23,-34.52 -136.52,-49.64 -38.46,-73.85 9.16,-2.26 148.98,-72.55 88.64,-90.52 -57.77,-17.21 -35.91,4.43 -92.32,5.9 -43.73,1.14 -49.12,5.68 -91.94,-9.92 -35.35,-12.88 -103.78,15.97 -165.8,2.88 -60.18,-12.7 -76.4,53.95 -116.55,19.33 -20.54,-17.71 34.35,-31.02 51.35,-37.61 62.47,-24.24 130.29,-30.05 80.79,-113.73 -26.71,-45.16 -199.74,-11.45 -172.12,-126.48 20.22,-84.19 -56.11,-71.98 -99.21,-106.4 0.59,-2.3 27.29,-10.26 39.25,-18.9 40.91,-29.54 79.05,-7.51 92.09,-88.44 2.04,-12.63 -17.05,-32.38 -25.37,-56.37 -6.68,-19.26 -23.87,-19.69 -31.56,-33.07 -69.08,-3.83 -64.84,-15.49 -116.98,-52.07 -49.83,-34.96 -54.49,-102.52 -110,-62.03 -63.2,46.1 -154.49,-2.05 -111.59,-27.98 47.8,-28.89 25.83,-102.14 91.33,-64.63 24.69,14.14 15.12,54.8 51.54,20.27 42.22,-40.02 66.17,28.78 160.55,-40.11 21.28,-15.54 -6.92,-13.2 -34.87,-40.54 -41.16,-40.29 -61.72,-20.7 -93.26,-101.54 -31.58,-80.92 38.9,-42.17 85.13,-114.81 38.41,-60.33 29.35,-62.9 -40.63,-96.85 -45.47,-22.06 0.64,-77.68 -45.45,-136.68 -88.69,-113.54 48.21,-107.61 64.73,-207.42 11.27,-68.11 -106.92,1.42 -145.95,4.96 -83.41,7.56 -116.2,9.4 -201.17,29.91 -48.43,11.68 -52.49,-10.89 -26.32,-48.53 34.67,-49.86 36.83,-75.94 56.22,-130.21 -48,-63.51 -54.79,-91.11 18.9,-119.63 4.42,-1.71 6.36,-3.74 10.87,-4.39l46.3 -30.15 6443.88 0 0 10793.7 -49.22 -23.15c-11.98,-13.32 -104.97,-68.45 -125.25,-76.21 -50.66,-19.39 -78.78,-46.81 -121.71,-73.33 -26.99,-16.68 -61.22,-79.96 -74.65,-109.66 -15.56,-34.39 -65.43,-72.05 -96.33,-93.17 -67.73,-46.29 -90.32,-160.4 -100.88,-237.56 -9.54,-69.77 -11.35,-121.69 -25.23,-193.9 -0.54,-12.79 -26.1,-57.33 -35.29,-68.08 -33.3,-39 -15.83,-93.66 15.88,-128.14 58.47,-63.57 38.86,-140.75 -3.17,-207.22 -20.44,-32.33 -75.09,-164.54 -86.13,-201.79 -17.99,-60.67 -50.09,-122.74 -69.88,-179.4 -19.25,-55.12 -87.92,-143.66 -100.44,-184.55 -22.52,-73.52 -41.99,-76.6 -88.08,-133.8 -18.73,-25.13 -135.36,-95.31 -168.1,-108.57 -67.15,-27.2 -87.97,-77.62 -153.13,-99.36 -95.93,-32.01 -66.21,-22.52 -107.2,-99.79 -42.63,-80.36 -117.04,-80.18 -92.46,-151.99 16.76,-48.98 26.91,-103.47 19.27,-155.17 -5.51,-37.32 -67.14,-172.43 -86.51,-208.5 -66.15,-123.22 -163.98,-106.41 -159.45,-226.55 3.16,-83.83 -68.4,-26.56 -97,-90.66 -16.45,-36.87 -22.73,-59.08 -43.42,-101.3 -16.54,-26.09 -22.5,-34.47 -41.21,-59.25 -64.97,-86.09 -81.45,-107.74 -124.16,-204.53 -16.43,-37.24 -66.09,-87.88 -98.41,-113.68 -34.99,-27.92 -51.83,-82.74 -65.16,-124.73 -15.64,-49.3 -33.36,-84.35 -48.76,-128.79 -19.04,-55 -75.15,-86.9 -89.44,-113.16 -27.65,-50.81 -74.25,-102.48 -116.46,-142.21 -25.29,-23.8 -117.31,-38.15 -147.03,-31.85 -72.7,15.43 -80.18,53.13 -74.7,-32.65 2.4,-6.54 8.25,-37.75 10.34,-47.43 9.42,-43.49 42.55,-103.51 45.88,-135.46 4.65,-44.59 37.14,-219.5 52.92,-253.24 13.69,-29.27 15.76,-73.05 21.92,-100.88 9.21,-41.55 6.75,-98.97 13.89,-131.06 25.64,-115.1 -103.6,90.93 -103.61,90.95 -1.18,2.24 -11.65,72.58 -11.71,77.58 -0.73,56.98 -9.38,76.71 -20.94,128.42 -16.39,73.32 -27.24,87.05 -54.99,152.13 -21.81,51.16 -46.36,70.54 -63.92,114.39 -7.53,18.78 20.28,96.84 28.11,119.06 14.49,41.15 -30.25,123.86 -59.82,136.83 -43.89,19.26 -47.39,23.19 -91.8,15.73 -84.21,-14.15 -96.38,-57.55 -151.28,-93.41 -27.91,-18.23 -38.18,-39.69 -51.98,-50.6 -43.72,-34.57 -69.44,-68.15 -103.75,-113.96 -18.26,-23.24 -35.29,-48.64 -57.46,-68.46 -126.87,-113.44 -19.86,-200.27 -130.92,-308.43 -88.55,-86.24 -108.8,-133.75 -139.19,-250.69 -26.79,-103.1 -32.88,-114.83 -88.87,-204.34 -14.88,-23.8 -38.3,35.39 -43.84,47.29 -18.44,39.62 -7.72,91.53 15.45,127.71 52.27,81.62 39.83,41.53 62.41,144.95 5.01,23 3.67,81.44 5.81,90.43 6.25,26.17 -4.54,56.44 -2.22,82.69 3.48,39.44 -3.23,28.38 38.18,59.39 32.56,59.02 49.64,111.5 96.61,160.11 5.39,5.57 64.74,80.15 67.53,86.71 5.69,13.4 110.47,156.5 124.82,171.13 25.26,25.75 39.92,39.78 56.65,73.18 39.72,108.48 -4.21,126.17 59.81,216.91 35.16,49.83 92.91,146.73 106.78,205.9 16.39,69.91 20.65,71.29 47.81,134.33 28.64,66.46 10.18,120.62 69.89,208.5 20.84,30.68 41.29,49.31 61.46,85.7 25.58,46.16 46.76,74.99 66.57,127.76 31.28,83.32 56.6,91.95 93.69,161.92 28.26,89.67 74.27,187.88 109.42,276.86 8.3,20.99 91.3,184.68 103.05,199.76 17.16,22.03 77.61,139.52 88.5,167.45 20.51,52.64 54.35,157.82 113.53,173.4 25.77,6.78 98.64,49.89 86.28,77.15 -6.79,14.96 -98.23,21.33 -64.64,69.45 19.39,27.78 11.4,54.7 12,84.34 -21.56,123.67 7.2,183.09 43.56,298.36 32.44,102.83 114.08,197.46 220.18,225.84 74.56,19.95 74.79,75.89 135.22,117.84 46.15,32.04 180.74,104.94 194.7,156.01 19.43,71.09 4.92,146.72 42.72,227.49 17.84,38.13 19.06,45.01 43.27,84.05 14.75,24.93 35.64,65.01 58.02,85.85 20.04,18.66 -23.9,53.98 -7.84,105.98 21.36,69.18 19.64,163.14 36.38,234.01 21.17,89.66 -4.43,183.97 8.93,254.62 3.43,18.16 -0.77,29.81 6.61,58.3 7.43,28.64 26.2,157.46 28.54,188.52 6.07,80.64 4.39,213.97 37.46,282.34 17.53,36.24 36.91,68.71 51.84,106.69 62.51,54.57 61.16,33.67 117.4,66.57 14.04,8.21 110.83,87.24 120.58,97.28 20.25,20.87 38.38,18.96 39.69,61.47 1.74,56.37 49.45,43.94 92.6,56.37 138.43,39.85 75.97,90.69 177.22,188.61 96.06,92.89 134.36,288.49 180.68,411.09 26.86,71.11 36.82,144.29 52.49,218.14 3.2,15.09 7.53,42.92 8.13,58.02 6.7,58.98 35.87,217.23 76.06,265.95 14.66,17.77 71.53,96.9 78.15,117.7 12.02,37.79 69.97,79.2 73.85,136.82 24.44,40.72 36.02,46.02 52.62,71.99 1.88,2.94 2.47,44.58 46.3,15.69 36.81,-24.27 -62.36,-114.7 56.65,-120.3 12.21,-0.58 11,38.47 24.94,60.9 11.99,19.3 24.49,89.7 31.28,100.73 17.9,29.09 24.14,39.97 51.26,61.62l55.85 11.57 0 1234.2 -26455.46 0zm-3.08 -7850.4c-51.45,-66.65 -48.74,-91.09 31.56,-89.3 24.35,0.54 94.11,-66.35 130.08,-84.76 43.17,-22.11 109.74,-65.56 45.21,24.81 -49.81,69.74 -91.19,102.32 -106.4,189.07 -6.39,36.42 -36.86,5.44 -50.84,-6.75l-49.61 -33.07zm472.94 171.98c-20.93,-31.19 -29.93,-42.21 -19.42,-76.21 17.03,-55.09 46.18,-56.09 92.61,-56.09 37.54,0 61.76,38.18 70.26,70.68 9.77,37.39 -9.15,71.1 -50.41,71.4 -7.92,0.05 -35.71,5.51 -41.77,5.1l-51.27 -14.88zm884.7 -405.15c3.16,-36.98 12.3,-98.99 -39.68,-66.57 -18.71,11.67 -42.93,66.3 -44.51,88.07 -2.44,33.69 -78.85,72.33 -74.7,145.81 2.43,43.05 36.13,4.57 69.6,18.32 46.68,19.2 59.94,-76.41 72.33,-99.64 1.41,-2.64 1.5,-3.77 2.08,-6.61l14.88 -79.38zm104.18 -272.85c-21.54,10.92 -146.02,81.21 -66.57,104.6 30.56,9 76.47,-31.67 103.09,-47.81 47.01,-28.49 34.91,-85.35 -15.02,-58.44l-21.5 1.65zm-1618.08 -1945.52c-3.48,-2.78 -62.87,-40.84 -59.11,-52.92 4.26,-13.66 78.82,-14.67 100.59,-4.39 47.7,22.52 52.97,-3.02 80.47,57.31 11.03,24.2 -77.71,14.88 -85.57,14.88l-36.38 -14.88zm3812.5 -4239.53c-6.34,36.21 -3.61,61.55 -10.35,90.13 -9.28,39.31 -50.41,53.78 -63.64,124.4 -36.32,193.76 -90.23,137.08 -142.92,248.37 -16.99,35.87 -0.48,78.95 -17.49,126.72 -9.35,26.28 -16.15,134.89 -24,174.34 -10.06,50.62 21.78,38.73 55.57,47.96 36.85,10.06 46.42,-25.92 86.5,-45.31 14.5,-7.02 75.49,-52.9 56.8,-3.45 -12.07,31.93 13.01,74.08 -45.22,94.26 -36.06,12.49 -40.38,139.62 0.43,100.44 30.74,-29.52 86.29,-38.94 127.04,-36.52 23.36,1.39 28.54,65.5 28.54,83.68 0,48.58 -9.92,84.16 -9.92,129.78 -7.06,31.71 -10.51,62.45 -21.08,92.47 -16.61,47.21 29.35,62.51 29.35,139.05 0,38.83 -1.2,83.2 -9.5,120.85 -16.07,72.82 10.39,140.93 -32.28,209.73 -37.32,60.19 -79.81,138.8 34.08,79.24 56.27,-29.43 90.31,-43.39 151.56,-18.48 38.86,15.81 113.77,23.31 159.84,46.73 55.71,28.32 133.79,20.97 181.24,-22.58 54.37,-49.91 140.46,-69.52 212.75,-68.23 96.67,1.72 176.13,-71.84 240.35,41.34 24.03,42.36 170.58,96.77 164.51,143.44 -5.71,43.93 -17.56,60.38 7.47,108.34 18.02,34.54 64.15,83.11 89.72,131.06 9.01,16.89 27.15,49.18 33.88,65.3 57.99,120.49 85.8,89.78 101.44,113.68 14.04,21.47 77.25,41.69 103.61,44.93 28.43,3.49 24.42,21.7 67.37,18.19 52.38,-4.28 48.32,-69.6 83.11,-105.69 57.47,-59.63 46.13,-27.64 73.33,-112.02 47.18,-146.42 203.08,9.36 270.63,-102.96 80.28,-45.97 145.87,-103.5 245.87,-85.42 24.77,4.48 175.7,13.86 201.7,11.43 62.32,-5.8 91.26,-12 156.39,-12 81.47,0 161.72,-37.41 223.67,9.5 35.45,26.85 80.63,6.76 98.41,-33.02 13.42,-30.02 74.19,-43.85 102.76,-32.7 41.22,16.08 69.32,13.65 114.44,39.26 51.03,28.98 71.16,-70.87 86.65,-108.28 45.85,-110.74 14.28,-68.99 98.41,-167.31 53.49,-62.5 103.7,-173.55 198.02,-175.43 55.55,-1.11 99.18,-13.67 160.26,-14.74 10.88,-0.19 22.21,-1.29 33.21,-1.8 61.92,-14.88 62.84,-13.16 62.84,-69.17 0,-78.31 39.44,-135.3 44.51,-208.07 1.76,-25.34 55.13,-157.4 73.33,-165.5 53.66,-23.89 84.01,-7.26 97.56,-77.07 12.6,-64.95 213.88,-135.29 222.96,-201.18 0.76,-5.47 -79.43,-51.15 -88.59,-57.45 -65.63,-45.16 -112.09,-78.68 -95.53,-164.27 7.75,-40.07 -24.25,-143.63 -35.96,-185.07 -10.65,-37.7 21.62,-93.69 41.34,-123.89l6.62 -11.71 137.25 -225.3 -4168.84 0zm4758.36 601.51c-38.62,26.87 -44.09,30.11 -55.8,69.88 -8.65,29.39 19.55,37.13 47.96,27.11 19.69,-6.94 66.2,-26.37 80.6,-40.77 22.12,-22.11 18.51,-73.88 -21.35,-62.84 -8.62,2.39 -14.73,4.96 -23.29,4.96l-28.12 1.66zm795.41 -448.14c-37.16,-53.29 -42.26,-82.45 -100.87,-42.71 -22.82,15.46 -15.98,53.53 -51.27,49.18 -25.35,-3.13 -75.11,50.79 -95.49,70.03 -35.4,33.41 -116.57,135.42 4.26,89 123.36,-47.39 14.11,94.89 118.91,89.3 71.57,-3.82 35.98,47.03 82.84,58.97 38.27,9.75 67.42,-50 97.98,-79.09 30.95,-29.46 0.46,-28.19 43.42,-62.7 23.37,-18.78 58.97,-109.9 58.97,-138.63 0,-26.05 -55.44,6.03 -69.46,9.64 -15.93,4.1 -74.41,14.97 -74.41,-9.92l-14.88 -33.07zm507.67 -122.37c-81.28,-15.79 -63.42,-9.92 -136.83,-9.92 -49.81,0 -40.73,44.18 6.56,47.95 64.32,5.13 85.05,32.87 135.23,64.06 21.28,13.24 55.88,32.59 64.21,-8.26 2.02,-9.9 -32.61,-69.55 -39.41,-78.95l-29.76 -14.88zm3058.42 3630.58c-18.34,-58.96 -17.37,-80.79 41.2,-76.2 43.44,3.4 86.04,85.54 6.9,94.53 -6.36,0.72 -21.23,-3.57 -23.29,-10.06l-24.81 -8.27zm-1050.88 -3661.58c-55.33,89.08 -2.99,32.89 5.1,98.8 0.06,0.44 -18.33,84.99 -18.33,108.85 0,47.74 -28.31,147.08 -38.46,201.23 -12.79,68.25 -22.88,84.23 20.84,147.84 28.34,41.23 18.46,33.65 36.9,73.98 10.25,22.42 71.27,54.11 95.91,53.49 12.78,-0.32 62.7,29.54 80.51,-3.31 3.19,-5.88 -14.27,-21.24 6.05,-57.45 27.67,-49.33 7.2,-86.75 88.72,-137.25 23.97,-14.85 49.28,12.8 95.64,12.8 61.5,0 92.46,85.93 111.64,29.24 5.42,-16.02 1.72,-94.92 6.19,-128.04 5.61,-41.67 6.72,-48.82 17.1,-90.85 13.81,-55.86 28.94,-109.9 26.32,-168.05 -0.92,-20.4 1.38,-18.24 -2.74,-43.57 -1.06,-6.5 -4.19,-17.74 -3.88,-23.72l0 -73.99 -527.51 0zm3321.35 0c8.98,33.14 19.52,53.89 24.8,84.46 6.41,37.13 63.88,57.85 61.19,131.21 -2.4,65.57 33.16,140.97 54,202.68 11.75,34.78 72.71,163.82 94.83,187.01 23.74,24.9 18.64,128.83 16.67,165.51 -3.99,74.44 -118,58 -135.31,95.91 -2.35,5.15 -4.76,13.23 -7.04,18.33 -7.64,42.98 -8.43,83.29 -22.73,122.37 -20.55,56.17 -52.38,68.02 -102.95,81.03 -14.08,3.62 -23.19,22.54 -4.96,36.81 11.87,9.28 20.11,56.93 14.46,70.67 -8.66,21.04 16.37,46.43 41.77,49.47 37.65,4.5 98.74,41.29 124.44,-9.78 12.79,-25.41 11.38,-37.71 27.83,-65.58 22.58,-38.24 1.58,-74.63 61.33,-101.72 14.04,-6.37 119.71,-98.97 128.98,-115.33 15.26,-26.95 8.29,1.18 15.03,-38.6 8.12,-47.94 21.8,-31.95 6.47,-90.67 -14.09,-53.99 66.19,-98.55 101.25,-127.99 28.54,-23.96 85.09,-23.37 116.75,-6.24 34.23,18.53 85.08,-14.24 59.53,-55.37 -21.71,-34.95 -29.44,-85.42 -19.7,-124.83 2.94,-11.92 3.16,-22.34 3.16,-34.35 -23.15,-91.37 -28.35,-111.54 -112.02,-155.44 -43.03,-22.58 -36.11,-21.49 -84.76,-35.81 -50.68,-14.93 -43.1,-20.75 -70.02,-63.41 -21.44,-33.97 13.46,-76.67 18.76,-116.18 0.82,-6.08 4.64,-11.08 8.27,-16.11l11.57 -88.05 -431.6 0zm1079.83 0c6.97,74.37 21.24,68.81 72.76,100.86 10.58,6.58 41.99,89.06 95.49,32.41 6.63,-7.02 10.34,-21.08 10.34,-30.34l31.41 -102.93 -210 0zm-1197.24 1214.18c1.87,-3.97 83.89,-151.35 24.94,-126.24 -27.12,11.56 -70.3,47.16 -104.17,64.92 -33.94,17.79 -111.28,54.3 -132.01,0.43 -16.18,-42.05 -83.59,12.51 -115.19,26.83 -86.64,39.25 -48.31,43.05 -154.36,37.23 -21.59,-1.19 -56.36,6.76 -87.5,6.76 -126.85,0 -193.57,75.03 -302.47,-27.55 -19.8,-18.65 -81.4,-45.87 -111.65,-64.63 -46.33,-28.73 -92.07,52.31 -130.78,67.65 -114.6,45.41 -77.75,-74.18 -141.22,-53.91 -12.28,3.92 -128.68,121.48 -129.83,140.19 -3.47,56.33 104.83,178.82 158.75,187.52 150.11,24.24 115.12,-9.29 231.08,90.53 65.45,56.33 199.92,136.98 278.76,169.1 69.27,28.22 126.74,44.33 181.24,97.84 20.37,20.01 102.68,73.26 134.37,97 38.64,28.94 99.13,39.04 145,57.07 24.4,9.6 126.09,43.89 126.2,-5.38 0.14,-57.26 27,-73.58 16.82,-148.69 -8.81,-64.94 30.59,-39.43 -19.85,-123.88 -27.61,-46.23 -26.9,-144 -19.84,-197.21 6.64,-50.07 84.29,-150.21 108.72,-212.75 1.16,-2.99 3.47,-7.09 4.96,-10.07l38.03 -72.76zm2048.05 -1214.18c13.41,91.06 30.78,75.51 73.99,140.14 6.25,9.36 -14.78,83.16 44.78,128.14 10.7,8.08 43.04,53.55 48.24,68.93 8.75,25.87 11.26,48.07 22.17,78.66 28.17,78.98 155.7,153.45 232.07,179.03 62.86,21.05 50.3,44.1 138.91,47.81 62.61,2.62 56.77,63.72 12.42,49.75 -22.66,-7.14 -125.52,-17.41 -134.37,6.62 -22.09,59.98 100.45,112.23 112.03,157.52 14.84,58.07 3.16,66.72 40.96,123.74 81.61,123.08 41.85,39.69 143.44,39.26 58.29,-0.25 41.14,48.07 125.25,1.94 36.18,-19.84 106.36,-23.07 147.23,-13.09 12.61,3.08 22.18,1.7 34.67,-0.14 44.79,0.18 140.86,-11.71 181.06,6.47 73.97,33.45 43.37,10.59 99.64,70.82 24.03,25.72 113.93,27.17 154.49,46.3 0.43,0.2 122.17,34.49 75.79,56.8 -4.29,2.06 -156.49,9.61 -135.31,40.77 12.69,18.69 159.49,0.43 184.87,0.43 44.43,0 193.55,-50.23 201.8,24 2.44,21.91 25.2,23.82 36.24,58.54 22.2,69.87 92.44,123.69 64.63,66.43 -12.28,-25.28 -0.86,-146.71 -1.66,-190.17 -0.54,-29.29 32.91,-87.12 -4.96,-104.75 -31.43,-14.63 -89.61,-52.27 -119.2,-71.91 -36.98,-24.55 -25.7,-2.11 -74.56,-45.64 -11.37,-10.13 -30.29,-8.04 -52.06,-23.81 -44.57,-32.28 -32.7,1.82 -65.06,-65.72 -16.21,-33.82 -49.77,-20.08 -85.99,-33.93 -37.48,-14.33 -66.62,-34.65 -105.7,-47.81 -10.51,-3.54 -124.25,-58.75 -129.26,-62.56 -70.67,-53.62 6.19,-23.12 68.36,-57.07 61.14,-33.38 85.9,-26.48 104.33,-109.38 5.52,-24.85 117.82,-61.56 90.52,-130.4 -4.05,-10.21 -17.18,-19.08 -26.46,-45.59 -2,-5.73 -20.51,-44.97 -23.29,-49.89 -80.19,-50.95 -55.23,-41.52 -100.87,-99.08 -14.48,-18.25 1.09,-75.45 -45.36,-128.04 -15.81,-17.9 -29.13,-30.16 -42.29,-50.7l-31.41 -62.42 -1260.08 0zm1625.53 786.72c-81.43,-32.16 -38.95,-39.83 -96.2,-77.72 -76.15,-50.4 45.82,-101.87 66.87,-45.08 17.36,46.86 80.66,71.73 109.13,101.73 1.17,1.23 88.45,70.47 88.87,70.68 61.39,31.71 186.11,18.09 195.13,106.82 6.7,65.96 32.74,129.24 89.87,166.03 21.38,13.77 88.14,104.01 45.73,115.48 -34.51,9.33 -109.31,-41.76 -126.1,-75.51 -34.41,-69.17 -10.87,-154.37 -104.56,-160.68 -29.04,-1.95 -143.08,-17.93 -154.07,-47.68 -15.71,-42.48 5.8,-30.09 -30.76,-87.78 -6.61,-10.44 -12.23,-23.78 -16.11,-29.91l-67.8 -36.38zm-183.55 967.38c-5.09,-14.05 -8.48,-22.03 -15.32,-35.57 -31.68,-62.78 -56.91,-127.3 -81.44,-193.05 -8.41,-22.54 -12.85,-71.38 19.04,-50.42 37.96,24.96 43.81,29.62 86.27,47.39 72.82,30.47 77.52,11.7 140.65,27.83 29.29,7.49 44.49,-3.86 27.74,-27.26 -19.26,-26.91 -55.75,-34.8 -85.33,-80.65 -41.05,-63.63 -24.16,-48.38 -82.26,-99.08 -50.15,-43.77 -47.13,-96.99 -109.38,-109.65 -68.33,-13.91 -111.84,-17.2 -173.96,-56.8 -40.41,-25.76 -168.25,-50.88 -183.51,-70.83 -64.26,-83.99 -120.08,43.17 -219.03,52.36 -88.67,8.22 -58.35,-45.73 -102.34,48.8 -22.89,49.19 -58.84,59.82 -71.25,75.64 -13.36,17.04 72.04,59.87 74.7,108.48 2.84,51.83 43.07,50.39 90.81,63.5 51.49,70.1 107.66,131.49 54.14,210.02 -24.74,36.3 -5.38,62.23 12.14,89.72 21.86,34.28 -13.8,73.41 50.04,143.87 17.91,19.77 50.14,87.77 82.11,18.04 18.13,-39.52 -4.32,-41.46 45.08,-86.27 56.51,-51.26 84.84,44.87 96.85,88.31 13.47,48.7 49.61,88.2 68.66,150.38 19.42,63.39 47.86,80.36 45.73,-4.86 -0.49,-19.68 50.45,-195.57 98.23,-126.91 18.3,26.3 27.38,37.17 49.51,60.53 22.75,24.01 38.89,88.29 95.21,107.63 28.48,9.77 36.4,-25.53 32.79,-50.32 -8.5,-58.24 0.04,-104 -14.89,-171.7 -2.93,-13.31 -7.79,-51.84 -17.76,-62.98l-13.23 -66.15zm-1116.22 -598.62c-14.71,-36.63 -53.73,-131.51 23.68,-92.6 18.89,9.5 57.26,62.14 45.92,87.5 -9.82,21.96 -24.42,25.01 -46.44,18.33l-23.16 -13.23zm24.81 -309.23c-9.82,-29.76 -31.26,-89.66 22.72,-84.47 27.6,2.65 44.69,82.31 12.01,79.51l-34.73 4.96zm51.26 532.48c-23.87,-29.62 -44.69,-51.28 -10.34,-73.19 24.52,-15.64 95.44,96.21 41.76,89.58l-3.31 0.14 -28.11 -16.53zm1436.2 1434.54c-0.02,0 -152.28,13.33 -134.51,-19.84 10.81,-20.17 41.28,-101.39 48.52,-107.63 22.05,-19 138.96,52.7 177.37,60.09 122.34,23.57 156.64,29.6 283.06,11.58 80.22,-11.43 176.33,-8.52 243.22,41.49 62.8,46.94 166.17,-29.12 233.97,7.98 23.49,12.86 -6.98,101.71 83.21,69.59 29.3,-10.43 98.68,-1.45 137.58,-7.46 137.29,-21.22 58.19,92.33 -166.64,68.65 -37.18,-3.92 -152.7,17.96 -205.06,19.56 -41.39,1.27 -72.7,13.09 -121.8,13.09 -100.33,0 -96.6,11.19 -162.48,-67.66 -25.98,-31.08 -108.61,-48.67 -148.97,-51.27 -14.45,-0.93 -132.99,-18.76 -143.58,-22.06 -8.7,-2.7 -15.25,-5.52 -24.67,-6.19l-99.22 -9.92zm1065.78 -2358.93c-26.63,11.02 -118.22,40.85 -108.85,85.71 44.05,10.09 129.88,-44.04 158.32,-30.05 23.89,11.75 49.46,25.54 28.68,58.58 -2.61,4.15 -81.33,32.37 -14.6,53.35 24.67,7.75 86.18,-1.83 83.49,-23.72 -2.95,-23.99 8.82,-17.2 -5.25,-68.23 -25.65,-93.04 -66.02,-70.43 -82.26,-83.91l-59.53 8.27zm157.1 476.25c-20.6,-33.87 -42.62,-57.81 -3.31,-73.99 23.32,-9.59 62.84,81.07 62.84,92.18 0,27.62 -46.3,34.33 -46.3,3.31l-13.23 -21.5zm-167.02 33.07c-6.68,-12.48 -41.1,-83.19 -72.76,-64.06 -20.7,12.51 50.09,85.21 28.54,119.07 -0.35,0.55 -23.55,52.71 -23.72,54.14 -9.45,76.54 69.6,14.49 69.6,-34.73l-1.66 -74.42zm-593.66 375.38c-18.17,-17.96 -45.84,-38.16 -29.48,-66.28 10.18,-17.49 113.97,42.06 64.21,58.44 -0.29,0.09 -11.57,4.54 -11.58,4.54l-23.15 3.3zm294.35 506.02c-32.82,-44.06 -45.21,-62.16 -4.96,-97.71 21.83,-19.28 81.05,10.06 68.22,54.29 -3.36,11.59 4.06,15.13 -12.14,27.31 -5.36,4.03 0.1,1.77 -9.78,4.53l-41.34 11.58zm1238.58 410.1c17.51,-33.73 69.7,-99.97 9.92,-102.52 -4.83,-0.21 -95.08,68.97 -110.79,78.14 -14.76,8.63 -41.34,44.15 -41.34,65.72 0,19 -65.5,118.3 -29.77,135.32 30.9,14.71 92.17,-90.31 122.51,-109.43 2.63,-1.65 4.29,-2.94 4.82,-6.04l44.65 -61.19zm-266.23 -312.54c-6.37,2.12 -93.76,22.22 -64.07,54.14 16.67,17.93 169.87,-7.15 107.06,-46.29 -3.79,-2.37 -12.06,-8.23 -16.54,-7.85l-26.45 0zm-383.25 -575.88c-29.07,-1.04 -31.2,-1.3 -51.19,14.06 -10.43,8.01 -0.51,18.4 15.76,18.19 5.58,-0.07 65.38,1.39 67.68,2.27 15.76,6.02 44.05,-11.6 42.45,-14.67 -4.66,-9 -28.35,-22.34 -40.87,-23.09 -4.11,-0.25 -6.56,-0.89 -11.5,-0.89l-22.33 4.13m3313.91 1329.55c-44.17,29.88 -33.35,29.96 -61.62,51.26 -27.97,21.08 -180.1,72.34 -207.93,47.81 -7.87,-6.94 -58.7,-36.24 -67.37,-36.24 -31.38,0 -84.01,19.96 -94.12,56.94 -11.88,43.43 -25.84,82.03 -80.08,58.16 -28.69,-12.62 -23.37,-48.2 -80.46,5.05 -25.91,24.17 -117.61,67.51 -125.02,97.47 -10.3,41.66 36.4,124.98 73.84,142.88 79.63,38.06 62.86,38.58 162.49,34.87 65.9,-2.45 180.11,-28.6 244.88,-48.67 84.39,-26.14 109.87,-111.62 188.14,-144.95 109.39,-46.59 36.65,-155.59 40.91,-163.71 14.59,-27.76 74.76,-73.26 107.35,-77.72 15.19,-2.08 126.25,-29.26 58.3,-48.38 -13.07,-3.68 -75.6,10.34 -101.3,10.34l-3.44 0 -54.57 14.89z"/>
  </g>
  <path class="fil3 str1" d="M25480.06 1231.11l2634.32 0 0 1592.89 -2634.32 0 0 -1592.89z"/>
  <path class="fil4" d="M26434.43 1423.59l-13.47 29.28 -70.55 0 -15.47 31.28c30.81,4.52 55.04,15.81 72.79,33.98 15.23,15.64 22.82,33.99 22.82,55.15 0,12.29 -2.47,23.7 -7.47,34.11 -5,10.46 -11.29,19.4 -18.87,26.75 -7.53,7.35 -16,13.29 -25.29,17.75 -13.17,6.3 -26.69,9.47 -40.57,9.47 -13.99,0 -24.16,-2.35 -30.57,-7.11 -6.35,-4.71 -9.53,-9.94 -9.53,-15.64 0,-3.18 1.3,-6 3.94,-8.47 2.65,-2.47 6,-3.65 10,-3.65 2.94,0 5.58,0.42 7.82,1.36 2.23,0.88 6,3.23 11.4,6.99 8.59,5.94 17.35,8.88 26.17,8.88 13.4,0 25.22,-5.11 35.39,-15.29 10.12,-10.17 15.23,-22.57 15.23,-37.21 0,-14.12 -4.52,-27.34 -13.58,-39.57 -9.11,-12.29 -21.58,-21.76 -37.57,-28.4 -12.46,-5.18 -29.52,-8.18 -51.09,-9l44.8 -90.66 83.67 0z"/>
  <path id="1" class="fil4" d="M26470.41 1541.89c0,-26.64 4,-49.51 12.05,-68.74 8.06,-19.22 18.7,-33.57 32.05,-42.98 10.29,-7.47 20.99,-11.17 31.98,-11.17 17.94,0 33.99,9.11 48.22,27.34 17.81,22.64 26.69,53.27 26.69,91.96 0,27.05 -3.88,50.09 -11.7,69.03 -7.82,18.93 -17.76,32.63 -29.87,41.21 -12.11,8.53 -23.81,12.82 -35.04,12.82 -22.29,0 -40.81,-13.11 -55.62,-39.39 -12.53,-22.17 -18.76,-48.86 -18.76,-80.08zm33.87 4.23c0,32.1 3.94,58.33 11.82,78.67 6.52,17.11 16.28,25.63 29.22,25.63 6.17,0 12.58,-2.76 19.22,-8.34 6.65,-5.59 11.65,-14.88 15.11,-27.99 5.24,-19.7 7.88,-47.57 7.88,-83.43 0,-26.64 -2.76,-48.86 -8.23,-66.62 -4.11,-13.23 -9.46,-22.58 -15.99,-28.05 -4.65,-3.82 -10.35,-5.7 -16.99,-5.7 -7.76,0 -14.7,3.53 -20.76,10.52 -8.23,9.53 -13.87,24.46 -16.81,44.92 -3,20.41 -4.47,40.52 -4.47,60.39z"/>
  <path id="2" class="fil4" d="M26646.8 1541.89c0,-26.64 4,-49.51 12.05,-68.74 8.06,-19.22 18.7,-33.57 32.05,-42.98 10.29,-7.47 20.99,-11.17 31.98,-11.17 17.94,0 33.99,9.11 48.22,27.34 17.81,22.64 26.69,53.27 26.69,91.96 0,27.05 -3.88,50.09 -11.7,69.03 -7.82,18.93 -17.76,32.63 -29.87,41.21 -12.11,8.53 -23.81,12.82 -35.04,12.82 -22.29,0 -40.81,-13.11 -55.62,-39.39 -12.53,-22.17 -18.76,-48.86 -18.76,-80.08zm33.87 4.23c0,32.1 3.94,58.33 11.82,78.67 6.52,17.11 16.28,25.63 29.22,25.63 6.17,0 12.58,-2.76 19.22,-8.34 6.65,-5.59 11.65,-14.88 15.11,-27.99 5.24,-19.7 7.88,-47.57 7.88,-83.43 0,-26.64 -2.76,-48.86 -8.23,-66.62 -4.11,-13.23 -9.46,-22.58 -15.99,-28.05 -4.65,-3.82 -10.35,-5.7 -16.99,-5.7 -7.76,0 -14.7,3.53 -20.76,10.52 -8.23,9.53 -13.87,24.46 -16.81,44.92 -3,20.41 -4.47,40.52 -4.47,60.39z"/>
  <path id="3" class="fil4" d="M26956.55 1412.3l0 157.16 39.98 -36.63c8.52,-7.82 13.46,-12.76 14.81,-14.82 0.95,-1.41 1.42,-2.76 1.42,-4.17 0,-2.29 -1,-4.23 -2.89,-5.94 -1.88,-1.65 -4.99,-2.59 -9.4,-2.82l0 -5.65 68.61 0 0 5.65c-9.35,0.23 -17.17,1.7 -23.4,4.35 -6.23,2.7 -13.05,7.47 -20.52,14.29l-40.63 37.22 40.34 51.33c11.29,14.05 18.81,23.04 22.58,26.98 5.58,5.24 10.4,8.65 14.58,10.17 2.94,1.12 7.99,1.71 15.17,1.71l0 6.35 -76.73 0 0 -6.35c4.41,-0.12 7.35,-0.76 8.88,-1.94 1.58,-1.24 2.35,-2.88 2.35,-5.06 0,-2.64 -2.3,-6.88 -6.88,-12.7l-48.27 -61.79 0 52.21c0,10.23 0.7,16.93 2.11,20.17 1.47,3.17 3.47,5.46 6.12,6.88 2.64,1.35 8.35,2.11 17.17,2.23l0 6.35 -80.08 0 0 -6.35c7.99,0 14.05,-1 18.05,-2.94 2.41,-1.23 4.23,-3.17 5.46,-5.76 1.71,-3.76 2.59,-10.29 2.59,-19.52l0 -143.94c0,-18.05 -0.41,-29.1 -1.18,-33.16 -0.82,-4.05 -2.11,-6.82 -3.99,-8.35 -1.83,-1.58 -4.24,-2.35 -7.18,-2.35 -2.41,0 -6.05,1 -10.82,2.94l-2.93 -6.35 46.74 -19.4 7.94 0z"/>
  <path id="4" class="fil4" d="M27133.29 1528.6c11.41,-11.53 18.17,-18.17 20.22,-19.93 5.12,-4.36 10.65,-7.77 16.59,-10.18 5.93,-2.41 11.81,-3.64 17.63,-3.64 9.88,0 18.29,2.88 25.4,8.64 7.06,5.76 11.82,14.11 14.17,25.11 11.88,-13.88 21.88,-22.93 30.05,-27.28 8.17,-4.3 16.58,-6.47 25.22,-6.47 8.35,0 15.82,2.17 22.35,6.47 6.46,4.29 11.64,11.34 15.4,21.16 2.53,6.65 3.82,17.11 3.82,31.4l0 67.97c0,9.82 0.71,16.58 2.18,20.23 1.12,2.46 3.23,4.64 6.23,6.4 3.06,1.77 8,2.65 14.88,2.65l0 6.35 -77.26 0 0 -6.35 3.29 0c6.7,0 11.99,-1.29 15.76,-3.94 2.64,-1.82 4.52,-4.76 5.64,-8.76 0.47,-1.94 0.71,-7.47 0.71,-16.58l0 -67.91c0,-12.88 -1.53,-21.93 -4.65,-27.22 -4.52,-7.35 -11.7,-11.06 -21.63,-11.06 -6.06,0 -12.23,1.53 -18.41,4.59 -6.11,3 -13.58,8.7 -22.34,16.93l-0.35 1.94 0.7 7.41 0 75.32c0,10.7 0.59,17.4 1.77,20.05 1.23,2.59 3.46,4.82 6.76,6.58 3.29,1.77 8.93,2.65 16.87,2.65l0 6.35 -79.37 0 0 -6.35c8.64,0 14.58,-1 17.81,-3.06 3.24,-2.06 5.47,-5.17 6.7,-9.29 0.59,-1.94 0.89,-7.58 0.89,-16.93l0 -67.91c0,-12.88 -1.88,-22.17 -5.65,-27.87 -5.05,-7.41 -12.05,-11.11 -21.11,-11.11 -6.17,0 -12.28,1.7 -18.34,5.05 -9.47,5.06 -16.82,10.82 -21.93,17.17l0 84.67c0,10.29 0.7,16.93 2.12,20.05 1.41,3.06 3.52,5.35 6.35,6.94 2.76,1.53 8.4,2.29 16.93,2.29l0 6.35 -77.97 0 0 -6.35c7.24,0 12.29,-0.76 15.17,-2.29 2.89,-1.59 5.06,-4 6.59,-7.41 1.47,-3.35 2.23,-9.88 2.23,-19.58l0 -60.33c0,-17.28 -0.53,-28.45 -1.53,-33.51 -0.82,-3.82 -2.05,-6.41 -3.82,-7.82 -1.7,-1.47 -4.05,-2.18 -6.99,-2.18 -3.24,0 -7.06,0.89 -11.53,2.59l-2.58 -6.35 47.62 -19.4 7.41 0 0 33.75z"/>
  <path class="fil4" d="M26307.63 2437.82c6.64,-15.76 15.11,-27.93 25.28,-36.51 10.17,-8.59 22.87,-12.88 38.04,-12.88 18.76,0 33.11,6.06 43.1,18.23 7.59,9.05 11.41,18.75 11.41,29.1 0,16.99 -10.7,34.57 -32.11,52.68 14.41,5.65 25.29,13.64 32.7,24.11 7.35,10.41 11.05,22.7 11.05,36.81 0,20.22 -6.47,37.69 -19.34,52.5 -16.76,19.29 -41.1,28.93 -72.97,28.93 -15.76,0 -26.46,-1.94 -32.16,-5.88 -5.71,-3.88 -8.53,-8.11 -8.53,-12.58 0,-3.35 1.35,-6.23 4.06,-8.76 2.7,-2.53 5.94,-3.82 9.76,-3.82 2.88,0 5.82,0.47 8.82,1.41 1.94,0.59 6.35,2.7 13.29,6.35 6.88,3.64 11.7,5.82 14.34,6.52 4.24,1.3 8.82,1.94 13.64,1.94 11.76,0 21.93,-4.52 30.64,-13.64 8.7,-9.05 13.05,-19.81 13.05,-32.22 0,-9.05 -2,-17.93 -6.06,-26.51 -3,-6.47 -6.29,-11.35 -9.82,-14.65 -4.99,-4.58 -11.76,-8.76 -20.4,-12.52 -8.64,-3.7 -17.46,-5.58 -26.46,-5.58l-5.52 0 0 -5.3c9.11,-1.17 18.16,-4.41 27.34,-9.82 9.11,-5.4 15.75,-11.87 19.87,-19.46 4.17,-7.58 6.23,-15.87 6.23,-24.99 0,-11.81 -3.7,-21.34 -11.11,-28.63 -7.47,-7.29 -16.7,-10.94 -27.75,-10.94 -17.82,0 -32.69,9.65 -44.69,28.87l-5.7 -2.76z"/>
  <path id="1" class="fil4" d="M26479.08 2511.32c0,-26.64 4,-49.51 12.05,-68.74 8.06,-19.22 18.7,-33.57 32.05,-42.98 10.29,-7.47 20.99,-11.17 31.98,-11.17 17.94,0 33.99,9.11 48.22,27.34 17.81,22.64 26.69,53.27 26.69,91.96 0,27.05 -3.88,50.09 -11.7,69.03 -7.82,18.93 -17.76,32.63 -29.87,41.21 -12.11,8.53 -23.81,12.82 -35.04,12.82 -22.29,0 -40.81,-13.11 -55.62,-39.39 -12.53,-22.17 -18.76,-48.86 -18.76,-80.08zm33.87 4.23c0,32.1 3.94,58.33 11.82,78.67 6.52,17.11 16.28,25.63 29.22,25.63 6.17,0 12.58,-2.76 19.22,-8.34 6.65,-5.59 11.65,-14.88 15.11,-27.99 5.24,-19.7 7.88,-47.57 7.88,-83.43 0,-26.64 -2.76,-48.86 -8.23,-66.62 -4.11,-13.23 -9.46,-22.58 -15.99,-28.05 -4.65,-3.82 -10.35,-5.7 -16.99,-5.7 -7.76,0 -14.7,3.53 -20.76,10.52 -8.23,9.53 -13.87,24.46 -16.81,44.92 -3,20.41 -4.47,40.52 -4.47,60.39z"/>
  <path id="2" class="fil4" d="M26655.47 2511.32c0,-26.64 4,-49.51 12.05,-68.74 8.06,-19.22 18.7,-33.57 32.05,-42.98 10.29,-7.47 20.99,-11.17 31.98,-11.17 17.94,0 33.99,9.11 48.22,27.34 17.81,22.64 26.69,53.27 26.69,91.96 0,27.05 -3.88,50.09 -11.7,69.03 -7.82,18.93 -17.76,32.63 -29.87,41.21 -12.11,8.53 -23.81,12.82 -35.04,12.82 -22.29,0 -40.81,-13.11 -55.62,-39.39 -12.53,-22.17 -18.76,-48.86 -18.76,-80.08zm33.87 4.23c0,32.1 3.94,58.33 11.82,78.67 6.52,17.11 16.28,25.63 29.22,25.63 6.17,0 12.58,-2.76 19.22,-8.34 6.65,-5.59 11.65,-14.88 15.11,-27.99 5.24,-19.7 7.88,-47.57 7.88,-83.43 0,-26.64 -2.76,-48.86 -8.23,-66.62 -4.11,-13.23 -9.46,-22.58 -15.99,-28.05 -4.65,-3.82 -10.35,-5.7 -16.99,-5.7 -7.76,0 -14.7,3.53 -20.76,10.52 -8.23,9.53 -13.87,24.46 -16.81,44.92 -3,20.41 -4.47,40.52 -4.47,60.39z"/>
  <path id="3" class="fil4" d="M26965.57 2498.03c11.41,-11.53 18.17,-18.17 20.22,-19.93 5.12,-4.36 10.65,-7.77 16.59,-10.18 5.93,-2.41 11.81,-3.64 17.63,-3.64 9.88,0 18.29,2.88 25.4,8.64 7.06,5.76 11.82,14.11 14.17,25.11 11.88,-13.88 21.88,-22.93 30.05,-27.28 8.17,-4.3 16.58,-6.47 25.22,-6.47 8.35,0 15.82,2.17 22.35,6.47 6.46,4.29 11.64,11.34 15.4,21.16 2.53,6.65 3.82,17.11 3.82,31.4l0 67.97c0,9.82 0.71,16.58 2.18,20.23 1.12,2.46 3.23,4.64 6.23,6.4 3.06,1.77 8,2.65 14.88,2.65l0 6.35 -77.26 0 0 -6.35 3.29 0c6.7,0 11.99,-1.29 15.76,-3.94 2.64,-1.82 4.52,-4.76 5.64,-8.76 0.47,-1.94 0.71,-7.47 0.71,-16.58l0 -67.91c0,-12.88 -1.53,-21.93 -4.65,-27.22 -4.52,-7.35 -11.7,-11.06 -21.63,-11.06 -6.06,0 -12.23,1.53 -18.41,4.59 -6.11,3 -13.58,8.7 -22.34,16.93l-0.35 1.94 0.7 7.41 0 75.32c0,10.7 0.59,17.4 1.77,20.05 1.23,2.59 3.46,4.82 6.76,6.58 3.29,1.77 8.93,2.65 16.87,2.65l0 6.35 -79.37 0 0 -6.35c8.64,0 14.58,-1 17.81,-3.06 3.24,-2.06 5.47,-5.17 6.7,-9.29 0.59,-1.94 0.89,-7.58 0.89,-16.93l0 -67.91c0,-12.88 -1.88,-22.17 -5.65,-27.87 -5.05,-7.41 -12.05,-11.11 -21.11,-11.11 -6.17,0 -12.28,1.7 -18.34,5.05 -9.47,5.06 -16.82,10.82 -21.93,17.17l0 84.67c0,10.29 0.7,16.93 2.12,20.05 1.41,3.06 3.52,5.35 6.35,6.94 2.76,1.53 8.4,2.29 16.93,2.29l0 6.35 -77.97 0 0 -6.35c7.24,0 12.29,-0.76 15.17,-2.29 2.89,-1.59 5.06,-4 6.59,-7.41 1.47,-3.35 2.23,-9.88 2.23,-19.58l0 -60.33c0,-17.28 -0.53,-28.45 -1.53,-33.51 -0.82,-3.82 -2.05,-6.41 -3.82,-7.82 -1.7,-1.47 -4.05,-2.18 -6.99,-2.18 -3.24,0 -7.06,0.89 -11.53,2.59l-2.58 -6.35 47.62 -19.4 7.41 0 0 33.75z"/>
  <path id="4" class="fil4" d="M27233.21 2381.73c4.76,0 8.88,1.7 12.29,5.05 3.35,3.41 5.05,7.53 5.05,12.29 0,4.82 -1.7,9 -5.05,12.41 -3.41,3.47 -7.53,5.17 -12.29,5.17 -4.82,0 -9,-1.7 -12.41,-5.17 -3.47,-3.41 -5.17,-7.59 -5.17,-12.41 0,-4.76 1.7,-8.88 5.05,-12.29 3.41,-3.35 7.59,-5.05 12.53,-5.05zm14.17 82.55l0 127c0,9.82 0.7,16.34 2.17,19.58 1.41,3.29 3.53,5.7 6.35,7.29 2.82,1.59 8,2.41 15.47,2.41l0 6.35 -76.56 0 0 -6.35c7.65,0 12.82,-0.76 15.41,-2.23 2.64,-1.47 4.7,-3.94 6.29,-7.35 1.53,-3.41 2.29,-10 2.29,-19.7l0 -61.03c0,-16.99 -0.53,-27.99 -1.53,-33.05 -0.82,-3.64 -2.05,-6.17 -3.82,-7.58 -1.7,-1.47 -4.06,-2.18 -7,-2.18 -3.23,0 -7.11,0.89 -11.7,2.59l-2.41 -6.35 47.45 -19.4 7.59 0z"/>
  <path class="fil4" d="M28283.11 2958.2c0,-17.45 4.47,-34.48 13.46,-51.13 8.93,-16.61 21.77,-29.59 38.43,-38.86 16.69,-9.26 34.1,-13.92 52.16,-13.92 17.92,0 35.18,4.56 51.69,13.74 16.56,9.12 29.4,21.92 38.53,38.43 9.17,16.51 13.73,33.77 13.73,51.74 0,18.01 -4.56,35.27 -13.73,51.78 -9.13,16.51 -21.97,29.35 -38.53,38.53 -16.51,9.17 -33.77,13.78 -51.69,13.78 -18.06,0 -35.47,-4.66 -52.16,-13.97 -16.66,-9.36 -29.5,-22.34 -38.43,-38.95 -8.99,-16.65 -13.46,-33.68 -13.46,-51.17zm17.22 0c0,14.62 3.76,28.88 11.24,42.7 7.48,13.83 18.2,24.65 32.13,32.46 13.92,7.81 28.41,11.71 43.46,11.71 15,0 29.35,-3.85 43.08,-11.52 13.74,-7.67 24.46,-18.39 32.13,-32.17 7.67,-13.79 11.52,-28.18 11.52,-43.18 0,-14.96 -3.85,-29.36 -11.52,-43.14 -7.67,-13.78 -18.39,-24.5 -32.13,-32.12 -13.73,-7.62 -28.08,-11.43 -43.08,-11.43 -15.05,0 -29.54,3.9 -43.46,11.66 -13.93,7.76 -24.65,18.58 -32.13,32.46 -7.48,13.87 -11.24,28.08 -11.24,42.57zm103.57 -33.35l5.08 -16.94c11.53,2.78 20.7,8.61 27.52,17.55 6.87,8.98 10.3,19.85 10.3,32.59 0,16.19 -5.22,29.31 -15.71,39.42 -10.49,10.11 -24.98,15.15 -43.55,15.15 -12.14,0 -22.68,-2.31 -31.61,-6.92 -8.99,-4.56 -15.71,-11.15 -20.28,-19.61 -4.56,-8.52 -6.82,-18.25 -6.82,-29.16 0,-12.23 2.92,-22.39 8.8,-30.48 5.88,-8.09 13.88,-13.6 23.94,-16.56l4.23 16.37c-6.91,2.77 -12.23,6.82 -15.89,12.23 -3.72,5.41 -5.55,11.71 -5.55,19 0,10.58 3.76,19.33 11.28,26.2 7.53,6.87 18.35,10.3 32.37,10.3 14.06,0 24.69,-3.24 31.89,-9.74 7.19,-6.49 10.81,-14.86 10.81,-25.16 0,-8.28 -2.39,-15.57 -7.24,-21.83 -4.8,-6.25 -11.33,-10.39 -19.57,-12.41z"/>
  <path id="1" class="fil4" d="M28488.57 2663.04l-18.58 0c14.44,9.27 21.68,22.91 21.68,40.92 0,11.67 -3.19,22.39 -9.64,32.13 -6.4,9.78 -15.38,17.35 -26.86,22.76 -11.52,5.37 -24.74,8.05 -39.69,8.05 -14.59,0 -27.8,-2.45 -39.7,-7.29 -11.86,-4.9 -20.98,-12.19 -27.29,-21.92 -6.35,-9.69 -9.5,-20.61 -9.5,-32.6 0,-8.84 1.88,-16.7 5.6,-23.56 3.72,-6.87 8.61,-12.47 14.58,-16.8l-72.67 0 0 -24.83 202.07 0 0 23.14zm-73.05 78.46c18.72,0 32.69,-3.95 41.96,-11.9 9.26,-7.91 13.87,-17.27 13.87,-28.04 0,-10.86 -4.42,-20.08 -13.26,-27.7 -8.84,-7.57 -22.34,-11.38 -40.5,-11.38 -19.94,0 -34.62,3.85 -43.98,11.61 -9.36,7.72 -14.01,17.27 -14.01,28.6 0,11.06 4.46,20.27 13.45,27.71 8.98,7.38 23.14,11.1 42.47,11.1z"/>
  <path id="2" class="fil4" d="M28427.89 2610.5l-24.83 0 0 -76.76 24.83 0 0 76.76z"/>
  <path id="3" class="fil4" d="M28488.57 2506.64l-146.47 0 0 -22.29 20.69 0c-7.15,-4.56 -12.93,-10.68 -17.26,-18.3 -4.37,-7.62 -6.54,-16.27 -6.54,-26.01 0,-10.82 2.26,-19.71 6.73,-26.62 4.52,-6.92 10.77,-11.81 18.86,-14.63 -17.07,-11.67 -25.59,-26.77 -25.59,-45.39 0,-14.58 4,-25.83 12.04,-33.63 8.05,-7.86 20.42,-11.81 37.12,-11.81l100.42 0 0 24.84 -92.19 0c-9.88,0 -17.03,0.84 -21.4,2.44 -4.38,1.6 -7.86,4.52 -10.54,8.8 -2.68,4.23 -4,9.22 -4,14.91 0,10.35 3.44,18.91 10.26,25.73 6.86,6.82 17.82,10.2 32.87,10.2l85 0 0 24.84 -95.06 0c-11.01,0 -19.29,2.02 -24.79,6.07 -5.5,4.04 -8.28,10.67 -8.28,19.85 0,6.96 1.84,13.4 5.51,19.33 3.66,5.93 9.03,10.21 16.13,12.89 7.05,2.63 17.26,3.95 30.57,3.95l75.92 0 0 24.83z"/>
  <path id="4" class="fil4" d="M28470.23 2175.88c7.85,9.22 13.35,18.11 16.6,26.62 3.25,8.52 4.84,17.64 4.84,27.43 0,16.08 -3.9,28.45 -11.75,37.11 -7.81,8.65 -17.83,12.98 -30.01,12.98 -7.15,0 -13.69,-1.65 -19.62,-4.89 -5.93,-3.29 -10.63,-7.57 -14.2,-12.84 -3.58,-5.32 -6.31,-11.24 -8.14,-17.88 -1.27,-4.89 -2.49,-12.27 -3.72,-22.1 -2.35,-20.04 -5.22,-34.86 -8.51,-44.31 -3.39,-0.1 -5.55,-0.14 -6.44,-0.14 -10.07,0 -17.17,2.35 -21.31,7.05 -5.6,6.35 -8.37,15.81 -8.37,28.32 0,11.71 2.07,20.36 6.16,25.92 4.09,5.59 11.38,9.68 21.78,12.37l-3.39 24.27c-10.4,-2.21 -18.82,-5.84 -25.21,-10.92 -6.4,-5.08 -11.29,-12.41 -14.77,-22.01 -3.44,-9.55 -5.18,-20.7 -5.18,-33.3 0,-12.51 1.46,-22.72 4.42,-30.57 2.97,-7.81 6.64,-13.6 11.11,-17.27 4.46,-3.67 10.11,-6.25 16.93,-7.76 4.23,-0.8 11.85,-1.22 22.81,-1.22l32.93 0c23,0 37.53,-0.52 43.69,-1.55 6.17,-0.99 12.05,-3.06 17.69,-6.07l0 25.96c-5.22,2.5 -11.34,4.1 -18.34,4.8zm-55.04 1.98c3.67,9.03 6.78,22.57 9.32,40.64 1.45,10.25 3.1,17.49 4.93,21.73 1.84,4.23 4.52,7.48 8,9.78 3.53,2.31 7.43,3.48 11.76,3.48 6.54,0 12.04,-2.49 16.42,-7.52 4.37,-5.04 6.58,-12.38 6.58,-22.02 0,-9.55 -2.07,-18.06 -6.25,-25.54 -4.14,-7.43 -9.84,-12.93 -17.03,-16.41 -5.6,-2.69 -13.83,-4 -24.7,-4l-9.03 -0.14z"/>
  <path id="5" class="fil4" d="M28544.73 2114.59l-202.63 0 0 -22.57 19.24 0c-7.44,-5.32 -13.03,-11.34 -16.75,-18.07 -3.72,-6.68 -5.6,-14.81 -5.6,-24.36 0,-12.51 3.2,-23.52 9.65,-33.07 6.39,-9.55 15.47,-16.74 27.14,-21.63 11.71,-4.85 24.5,-7.3 38.47,-7.3 14.91,0 28.37,2.69 40.36,8.05 11.95,5.36 21.12,13.17 27.52,23.42 6.35,10.21 9.54,20.98 9.54,32.27 0,8.28 -1.74,15.71 -5.22,22.25 -3.48,6.58 -7.85,11.94 -13.17,16.18l71.45 0 0 24.83zm-128.5 -22.57c18.77,0 32.69,-3.81 41.67,-11.39 8.99,-7.62 13.45,-16.84 13.45,-27.65 0,-11.01 -4.65,-20.42 -13.97,-28.23 -9.31,-7.85 -23.7,-11.76 -43.22,-11.76 -18.63,0 -32.55,3.81 -41.82,11.48 -9.26,7.67 -13.87,16.79 -13.87,27.42 0,10.54 4.94,19.85 14.77,27.94 9.87,8.14 24.17,12.19 42.99,12.19z"/>
  <path id="6" class="fil4" d="M28444.83 1967.51l-3.96 -24.55c9.84,-1.37 17.36,-5.22 22.63,-11.53 5.22,-6.3 7.85,-15.14 7.85,-26.43 0,-11.43 -2.3,-19.9 -6.96,-25.45 -4.61,-5.5 -10.06,-8.28 -16.32,-8.28 -5.6,0 -10.02,2.5 -13.22,7.44 -2.21,3.48 -4.98,11.94 -8.42,25.4 -4.56,18.15 -8.51,30.71 -11.85,37.77 -3.39,7 -7.99,12.32 -13.92,15.94 -5.88,3.62 -12.42,5.46 -19.57,5.46 -6.54,0 -12.56,-1.51 -18.11,-4.47 -5.55,-3.01 -10.16,-7.06 -13.83,-12.18 -2.82,-3.86 -5.22,-9.13 -7.19,-15.76 -1.98,-6.68 -2.97,-13.78 -2.97,-21.4 0,-11.48 1.65,-21.54 4.99,-30.2 3.29,-8.7 7.81,-15.1 13.45,-19.24 5.69,-4.09 13.27,-6.96 22.77,-8.51l3.38 24.27c-7.62,1.08 -13.59,4.28 -17.87,9.55 -4.28,5.27 -6.4,12.7 -6.4,22.34 0,11.34 1.88,19.47 5.65,24.32 3.76,4.84 8.18,7.29 13.21,7.29 3.2,0 6.12,-0.99 8.71,-3.01 2.63,-2.02 4.84,-5.18 6.58,-9.5 0.94,-2.5 3.06,-9.74 6.35,-21.87 4.66,-17.5 8.52,-29.73 11.48,-36.69 2.96,-6.96 7.34,-12.42 12.98,-16.37 5.69,-4 12.75,-5.98 21.21,-5.98 8.24,0 16,2.4 23.29,7.25 7.29,4.84 12.93,11.8 16.93,20.88 4,9.13 5.97,19.43 5.97,30.91 0,19 -3.95,33.53 -11.8,43.5 -7.9,9.98 -19.57,16.33 -35.04,19.1z"/>
  <path id="7" class="fil4" d="M28488.57 1809.47l-28.22 0 0 -28.22 28.22 0 0 28.22z"/>
  <path id="8" class="fil4" d="M28434.95 1642.44l3.38 -24.27c16.7,2.68 29.73,9.45 39.19,20.41 9.45,10.96 14.15,24.46 14.15,40.41 0,19.99 -6.53,36.08 -19.61,48.21 -13.08,12.18 -31.8,18.25 -56.16,18.25 -15.81,0 -29.59,-2.63 -41.39,-7.85 -11.86,-5.22 -20.75,-13.17 -26.63,-23.9 -5.92,-10.68 -8.89,-22.29 -8.89,-34.9 0,-15.85 4,-28.88 12.04,-38.95 8.05,-10.11 19.48,-16.6 34.25,-19.42l3.67 23.99c-9.83,2.3 -17.22,6.35 -22.2,12.23 -4.94,5.83 -7.44,12.88 -7.44,21.16 0,12.51 4.47,22.67 13.41,30.53 8.98,7.81 23.09,11.71 42.47,11.71 19.66,0 33.92,-3.76 42.81,-11.29 8.89,-7.57 13.35,-17.4 13.35,-29.49 0,-9.78 -2.96,-17.92 -8.93,-24.41 -5.93,-6.54 -15.1,-10.68 -27.47,-12.42z"/>
  <path id="9" class="fil4" d="M28415.33 1606.32c-27.04,0 -47.08,-7.53 -60.11,-22.63 -10.82,-12.56 -16.23,-27.94 -16.23,-46.05 0,-20.08 6.59,-36.54 19.76,-49.34 13.12,-12.75 31.33,-19.14 54.51,-19.14 18.82,0 33.59,2.82 44.36,8.46 10.77,5.65 19.14,13.88 25.12,24.7 5.97,10.77 8.93,22.58 8.93,35.32 0,20.51 -6.53,37.07 -19.66,49.72 -13.12,12.65 -32.03,18.96 -56.68,18.96zm0.05 -25.4c18.72,0 32.74,-4.1 42,-12.28 9.32,-8.23 13.97,-18.53 13.97,-31 0,-12.32 -4.65,-22.57 -14.01,-30.81 -9.36,-8.18 -23.61,-12.27 -42.76,-12.27 -18.06,0 -31.75,4.14 -41.01,12.37 -9.32,8.23 -13.97,18.48 -13.97,30.71 0,12.47 4.61,22.77 13.87,31 9.27,8.18 23.24,12.28 41.91,12.28z"/>
  <path id="10" class="fil4" d="M28488.57 1440.04l-146.47 0 0 -22.29 20.69 0c-7.15,-4.56 -12.93,-10.68 -17.26,-18.3 -4.37,-7.62 -6.54,-16.27 -6.54,-26.01 0,-10.82 2.26,-19.71 6.73,-26.62 4.52,-6.92 10.77,-11.81 18.86,-14.63 -17.07,-11.67 -25.59,-26.77 -25.59,-45.39 0,-14.58 4,-25.83 12.04,-33.63 8.05,-7.86 20.42,-11.81 37.12,-11.81l100.42 0 0 24.84 -92.19 0c-9.88,0 -17.03,0.84 -21.4,2.44 -4.38,1.6 -7.86,4.52 -10.54,8.8 -2.68,4.23 -4,9.22 -4,14.91 0,10.35 3.44,18.91 10.26,25.73 6.86,6.82 17.82,10.2 32.87,10.2l85 0 0 24.84 -95.06 0c-11.01,0 -19.29,2.02 -24.79,6.07 -5.5,4.04 -8.28,10.67 -8.28,19.85 0,6.96 1.84,13.4 5.51,19.33 3.66,5.93 9.03,10.21 16.13,12.89 7.05,2.63 17.26,3.95 30.57,3.95l75.92 0 0 24.83z"/>
  <g>
   <path class="fil5 str2" d="M25609.48 1829.58l476.78 0 0 99.16 -476.78 0 0 -99.16z"/>
   <path class="fil6 str2" d="M26086.26 1829.58l476.78 0 0 99.16 -476.78 0 0 -99.16z"/>
   <path class="fil5 str2" d="M26563.03 1829.58l476.78 0 0 99.16 -476.78 0 0 -99.16z"/>
   <path class="fil6 str2" d="M27039.92 1829.58l476.78 0 0 99.16 -476.78 0 0 -99.16z"/>
   <path class="fil5 str2" d="M27516.71 1829.58l476.77 0 0 99.16 -476.77 0 0 -99.16z"/>
   <path class="fil6 str2" d="M27136.26 2128.52l762.55 0 0 99.16 -762.55 0 0 -99.16z"/>
   <path class="fil5 str2" d="M26373.7 2128.52l762.56 0 0 99.16 -762.56 0 0 -99.16z"/>
   <path class="fil6 str2" d="M25611.15 2128.52l762.56 0 0 99.16 -762.56 0 0 -99.16z"/>
  </g>
  <g>
   <path class="fil3 str1" d="M24536.07 1233.87l815.93 0 0 1592.89 -815.93 0 0 -1592.89z"/>
   <path class="fil7" d="M24884.17 1670c-0.92,3.32 -1.63,6.35 -2.07,9.15 -0.44,2.79 -0.65,5.18 -0.65,7.22 0,5.59 1.8,9.56 5.29,11.89 3.49,2.33 9.55,3.49 18.05,3.49l4.15 0 -4.96 22.72 -78.17 0 5.29 -22.72 2.89 0c7.36,0 12.82,-1.51 16.48,-4.54 3.6,-2.97 6.32,-8.39 8.12,-16.14l37.59 -153.79c0.6,-2.74 1.14,-5.54 1.52,-8.45 0.33,-2.91 0.55,-5.77 0.55,-8.62 0,-5.36 -1.96,-9.15 -5.95,-11.36 -3.92,-2.22 -10.69,-3.32 -20.23,-3.32l-3.06 0 5.29 -22.72 72.33 0 62.14 183.5 31.31 -129.03c1.08,-4.2 1.85,-7.63 2.34,-10.31 0.49,-2.68 0.71,-4.72 0.71,-6.06 0,-5.6 -1.8,-9.56 -5.35,-11.89 -3.6,-2.33 -9.71,-3.49 -18.32,-3.49l-4.15 0 4.96 -22.72 78.5 0 -5.62 22.72 -2.84 0c-7.37,0 -12.87,1.51 -16.47,4.54 -3.66,2.97 -6.33,8.33 -8.18,15.96l-50.68 208.44 -21.54 0 -72.06 -209.48 -37.21 155.01z"/>
   <path class="fil2 str3" d="M24944.86 2693.56l0 -769.27"/>
   <path class="fil2 str3" d="M24662.81 2417.51l563.14 0"/>
   <path class="fil2 str3" d="M24799.96 2557.5l294.22 -286.81"/>
   <path class="fil2 str3" d="M24796.82 2270.45l297.98 288.85"/>
   <path class="fil2 str3" d="M24944.72 1927.02l-95.47 118.01"/>
   <path class="fil2 str3" d="M24945.34 1926.98l87.89 118.05"/>
  </g>
  <rect class="fil2 str4" x="1000" y="999.99" width="27700" height="14541.47"/>
  <g>
   <path class="fil3 str1" d="M3633.83 1268.27l0 473.7 -2309.37 0 0 -473.7 2309.37 0z"/>
   <path class="fil7" d="M2401.8 1606.74l0 -202.07 40.07 0 47.79 143.04c4.42,13.31 7.62,23.28 9.64,29.91 2.31,-7.33 5.93,-18.15 10.82,-32.4l48.64 -140.55 35.79 0 0 202.07 -25.68 0 0 -169.05 -58.98 169.05 -24.09 0 -58.32 -172.15 0 172.15 -25.68 0z"/>
   <path id="1" class="fil7" d="M2734.25 1559.33l25.68 3.38c-3.99,14.91 -11.47,26.53 -22.39,34.76 -10.91,8.24 -24.83,12.37 -41.81,12.37 -21.36,0 -38.29,-6.58 -50.8,-19.75 -12.51,-13.12 -18.77,-31.61 -18.77,-55.36 0,-24.56 6.31,-43.65 18.96,-57.2 12.65,-13.59 29.07,-20.37 49.25,-20.37 19.52,0 35.46,6.64 47.83,19.95 12.37,13.31 18.58,32.03 18.58,56.16 0,1.46 -0.05,3.67 -0.14,6.58l-109.08 0c0.94,16.04 5.46,28.37 13.64,36.88 8.14,8.51 18.35,12.79 30.53,12.79 9.08,0 16.84,-2.39 23.24,-7.19 6.44,-4.8 11.52,-12.47 15.28,-23zm-81.28 -39.8l81.56 0c-1.08,-12.32 -4.23,-21.54 -9.36,-27.7 -7.85,-9.55 -18.1,-14.35 -30.66,-14.35 -11.39,0 -20.93,3.81 -28.7,11.43 -7.71,7.62 -11.99,17.83 -12.84,30.62z"/>
   <path id="2" class="fil7" d="M2791.02 1606.74l0 -146.47 22.3 0 0 22.43c5.69,-10.39 10.96,-17.26 15.8,-20.55 4.85,-3.34 10.16,-4.99 15.95,-4.99 8.37,0 16.89,2.64 25.54,7.86l-8.84 22.91c-6.02,-3.39 -12.04,-5.08 -18.06,-5.08 -5.41,0 -10.26,1.64 -14.54,4.89 -4.28,3.24 -7.34,7.76 -9.17,13.54 -2.78,8.8 -4.14,18.44 -4.14,28.93l0 76.53 -24.84 0z"/>
   <path id="3" class="fil7" d="M2980.96 1553.12l24.27 3.38c-2.68,16.7 -9.45,29.73 -20.41,39.19 -10.96,9.45 -24.46,14.15 -40.41,14.15 -19.99,0 -36.08,-6.53 -48.21,-19.61 -12.18,-13.08 -18.25,-31.8 -18.25,-56.16 0,-15.81 2.63,-29.59 7.85,-41.44 5.22,-11.81 13.17,-20.7 23.9,-26.58 10.68,-5.92 22.29,-8.89 34.9,-8.89 15.85,0 28.88,4 38.95,12.04 10.11,8.05 16.6,19.48 19.42,34.25l-23.99 3.67c-2.3,-9.83 -6.35,-17.22 -12.23,-22.2 -5.83,-4.94 -12.88,-7.44 -21.16,-7.44 -12.51,0 -22.67,4.47 -30.53,13.41 -7.81,8.98 -11.71,23.09 -11.71,42.47 0,19.66 3.76,33.92 11.29,42.81 7.57,8.89 17.4,13.35 29.49,13.35 9.78,0 17.92,-2.96 24.41,-8.93 6.54,-5.93 10.68,-15.1 12.42,-27.47z"/>
   <path id="4" class="fil7" d="M3122.07 1588.4c-9.22,7.85 -18.11,13.35 -26.62,16.6 -8.52,3.25 -17.64,4.84 -27.43,4.84 -16.08,0 -28.45,-3.9 -37.11,-11.75 -8.65,-7.81 -12.98,-17.83 -12.98,-30.01 0,-7.15 1.65,-13.69 4.89,-19.62 3.29,-5.93 7.57,-10.63 12.84,-14.2 5.32,-3.58 11.24,-6.31 17.88,-8.14 4.89,-1.27 12.27,-2.49 22.1,-3.72 20.04,-2.35 34.86,-5.22 44.31,-8.51 0.1,-3.39 0.14,-5.55 0.14,-6.44 0,-10.07 -2.35,-17.17 -7.05,-21.31 -6.35,-5.6 -15.81,-8.37 -28.32,-8.37 -11.71,0 -20.36,2.07 -25.92,6.16 -5.59,4.09 -9.68,11.33 -12.37,21.78l-24.27 -3.39c2.21,-10.4 5.84,-18.82 10.92,-25.21 5.08,-6.4 12.41,-11.29 22.01,-14.77 9.55,-3.44 20.7,-5.18 33.3,-5.18 12.51,0 22.72,1.46 30.57,4.42 7.81,2.97 13.6,6.64 17.27,11.11 3.67,4.46 6.25,10.11 7.76,16.93 0.8,4.23 1.22,11.85 1.22,22.81l0 32.93c0,23 0.52,37.53 1.55,43.69 0.99,6.17 3.06,12.05 6.07,17.69l-25.96 0c-2.5,-5.22 -4.1,-11.34 -4.8,-18.34zm-1.98 -55.04c-9.03,3.67 -22.57,6.78 -40.64,9.32 -10.25,1.45 -17.49,3.1 -21.73,4.93 -4.23,1.84 -7.48,4.52 -9.78,8 -2.31,3.53 -3.48,7.43 -3.48,11.76 0,6.54 2.49,12.04 7.52,16.42 5.04,4.37 12.38,6.58 22.02,6.58 9.55,0 18.06,-2.07 25.54,-6.25 7.43,-4.14 12.93,-9.84 16.41,-17.03 2.69,-5.6 4,-13.83 4,-24.7l0.14 -9.03z"/>
   <path id="5" class="fil7" d="M3237.26 1584.59l3.39 21.91c-6.96,1.46 -13.22,2.22 -18.68,2.22 -8.98,0 -15.94,-1.42 -20.93,-4.28 -4.94,-2.87 -8.42,-6.59 -10.44,-11.25 -2.02,-4.65 -3.01,-14.44 -3.01,-29.35l0 -84.38 -18.34 0 0 -19.19 18.34 0 0 -36.22 24.84 -14.91 0 51.13 24.83 0 0 19.19 -24.83 0 0 85.79c0,7.11 0.42,11.67 1.31,13.69 0.85,2.02 2.26,3.62 4.24,4.85 1.97,1.17 4.79,1.78 8.46,1.78 2.73,0 6.35,-0.33 10.82,-0.98z"/>
   <path id="6" class="fil7" d="M3252.45 1533.5c0,-27.04 7.53,-47.08 22.63,-60.11 12.56,-10.82 27.94,-16.23 46.05,-16.23 20.08,0 36.54,6.59 49.34,19.76 12.75,13.12 19.14,31.33 19.14,54.51 0,18.82 -2.82,33.59 -8.46,44.36 -5.65,10.77 -13.88,19.14 -24.7,25.12 -10.77,5.97 -22.58,8.93 -35.32,8.93 -20.51,0 -37.07,-6.53 -49.72,-19.66 -12.65,-13.12 -18.96,-32.03 -18.96,-56.68zm25.4 0.05c0,18.72 4.1,32.74 12.28,42 8.23,9.32 18.53,13.97 31,13.97 12.32,0 22.57,-4.65 30.81,-14.01 8.18,-9.36 12.27,-23.61 12.27,-42.76 0,-18.06 -4.14,-31.75 -12.37,-41.01 -8.23,-9.32 -18.48,-13.97 -30.71,-13.97 -12.47,0 -22.77,4.61 -31,13.87 -8.18,9.27 -12.28,23.24 -12.28,41.91z"/>
   <path id="7" class="fil7" d="M3418.44 1606.74l0 -146.47 22.3 0 0 22.43c5.69,-10.39 10.96,-17.26 15.8,-20.55 4.85,-3.34 10.16,-4.99 15.95,-4.99 8.37,0 16.89,2.64 25.54,7.86l-8.84 22.91c-6.02,-3.39 -12.04,-5.08 -18.06,-5.08 -5.41,0 -10.26,1.64 -14.54,4.89 -4.28,3.24 -7.34,7.76 -9.17,13.54 -2.78,8.8 -4.14,18.44 -4.14,28.93l0 76.53 -24.84 0z"/>
   <circle class="fil8 str5" cx="1542.83" cy="1501.42" r="118.79"/>
   <rect class="fil8 str5" x="2000.76" y="1393.14" width="226.91" height="226.91"/>
   <path class="fil2 str6" d="M1716.73 1500.55l220.31 0"/>
   <path class="fil2 str6" d="M1934.38 1501.21l-64.02 65.38"/>
   <path class="fil2 str6" d="M1934.55 1500.07l-63.42 -61.39"/>
  </g>
 </g>
</svg>
