<?xml version="1.0" encoding="UTF-8"?>
<!DOCTYPE svg PUBLIC "-//W3C//DTD SVG 1.1//EN" "http://www.w3.org/Graphics/SVG/1.1/DTD/svg11.dtd">
<!-- Creator: CorelDRAW -->
<svg xmlns="http://www.w3.org/2000/svg" xml:space="preserve" width="297mm" height="210mm" version="1.1" style="shape-rendering:geometricPrecision; text-rendering:geometricPrecision; image-rendering:optimizeQuality; fill-rule:evenodd; clip-rule:evenodd"
viewBox="0 0 29700 21000"
 xmlns:xlink="http://www.w3.org/1999/xlink">
 <defs>
  <style type="text/css">
   <![CDATA[
    .str1 {stroke:black;stroke-width:10;stroke-opacity:0.501961}
    .str3 {stroke:black;stroke-width:50}
    .str5 {stroke:#434242;stroke-width:10}
    .str2 {stroke:#3F3E3F;stroke-width:10}
    .str0 {stroke:#000066;stroke-width:10}
    .str6 {stroke:#2B2A29;stroke-width:7.62}
    .str4 {stroke:black;stroke-width:7.62}
    .fil9 {fill:none}
    .fil7 {fill:none;fill-rule:nonzero}
    .fil10 {fill:#D9DADA}
    .fil0 {fill:#A2D9F7}
    .fil5 {fill:#FEFEFE;fill-rule:nonzero}
    .fil4 {fill:#D9DADA;fill-rule:nonzero}
    .fil8 {fill:#434242;fill-rule:nonzero}
    .fil6 {fill:#2B2A29;fill-rule:nonzero}
    .fil3 {fill:black;fill-rule:nonzero}
    .fil1 {fill:white;fill-rule:nonzero}
    .fil2 {fill:#FEFEFE;fill-rule:nonzero;fill-opacity:0.501961}
   ]]>
  </style>
 </defs>
 <g id="Plan_x0020_1">
  <metadata id="CorelCorpID_0Corel-Layer"/>
  <rect class="fil0" x="1040" y="1050" width="27622" height="17471"/>
  <path class="fil1 str0" d="M2106 8509c-27,1 -6,45 -10,72 -3,25 -23,38 -23,64l0 33c0,34 49,29 83,29 20,0 11,-33 28,-42 26,-14 68,-6 68,-36 0,-14 -18,-14 -29,-20 -16,-9 -26,-15 -42,-23 -38,-18 -34,-80 -75,-78zm306 147l10 -46c4,-16 -9,-36 -26,-36 -38,0 -34,60 -72,68 -28,7 -65,10 -65,39 0,26 0,62 26,62l38 0c49,0 79,-40 89,-88zm-352 336c10,-13 10,-24 10,-40l0 -45 -13 -10c-21,-16 -25,46 -52,46 -18,0 -28,-10 -46,-10 -20,0 -29,22 -29,42 0,37 49,42 86,42 24,0 30,-7 44,-26zm-72 94c0,13 7,26 20,26 17,0 23,-20 39,-23 65,-13 137,-38 137,-105 0,-9 6,-20 -3,-22 -51,-9 -78,32 -117,65 -28,24 -75,22 -75,59zm489 -179c-3,-19 -14,-36 -33,-36 -23,0 -23,36 -46,36 -13,0 -20,-7 -33,-7 -16,0 -26,16 -26,33 0,7 14,9 10,13 -26,22 -46,41 -46,75 0,20 9,42 29,42 16,0 20,-20 36,-20 19,0 27,16 46,16 64,0 73,-89 62,-153zm-410 365c-20,0 -27,18 -39,33 -11,14 -36,14 -36,33 0,29 13,72 39,62 53,-20 122,-31 114,-85 -5,-34 -43,-42 -78,-42zm153 166c-10,-28 -12,-65 -42,-65 -23,0 -7,37 -20,55 -17,24 -22,42 -39,67 -13,19 -54,-22 -59,0l-3 15c-10,46 32,91 78,91 20,0 0,-44 20,-49 28,-7 46,40 72,26 20,-11 0,-36 0,-59 0,-13 10,-20 10,-33 0,-16 -11,-34 -16,-49zm88 -88c-2,-10 -15,-10 -26,-10 -15,0 -10,22 -16,36 -6,11 -26,7 -26,20 0,11 8,23 20,23 32,0 55,-37 49,-68zm33 0c-22,17 -6,46 0,72 5,21 40,32 26,49 -21,26 -63,28 -62,62 0,10 16,7 26,7 26,0 37,-23 63,-23 20,0 34,14 51,3 8,-5 3,-15 3,-25 0,-29 -14,-44 -20,-72 -4,-20 2,-37 -10,-52 -19,-24 -54,-39 -78,-20zm199 -127c0,-5 -7,-7 -13,-7 -21,0 -26,23 -39,39 -15,19 -51,27 -39,49 13,24 31,38 59,39 25,1 2,-42 10,-65 7,-21 23,-33 23,-55zm65 176c0,30 42,51 68,36 23,-13 -5,-42 0,-68 1,-5 10,-3 15,-3 14,0 20,13 33,13 17,0 17,-23 20,-39 4,-29 27,-56 7,-78 -21,-23 -49,15 -72,36 -22,20 -50,16 -62,42 -10,22 -10,37 -10,62zm33 -371c-10,20 16,46 39,46 31,0 72,-5 72,-36 0,-21 -8,-43 -29,-46 -13,-2 -15,14 -26,20 -19,10 -45,-3 -55,16zm2893 4306c-15,0 -21,14 -33,23 -12,10 -30,4 -39,16 -10,13 6,36 -10,42l-16 7 0 -65 -35 0c-15,0 -13,25 -27,26 -18,1 -25,-23 -44,-23 -38,0 -59,16 -93,33 -14,7 -17,23 -33,23 -30,0 -42,-36 -72,-33 -11,1 -10,18 -10,29l0 20 75 0c28,0 43,7 72,13 52,11 78,24 124,49 35,19 55,33 81,62 32,36 37,88 86,88l29 0 0 -51c0,-12 -10,-18 -10,-30 0,-26 34,-25 49,-46 26,-36 29,-67 29,-112l0 -27c0,-16 -41,-16 -41,0l0 64 -40 0c-14,0 -27,-9 -27,-23 0,-26 47,-27 42,-52 -5,-25 -33,-33 -59,-33zm21948 4186c-47,-18 -76,26 -117,55 -14,10 -29,6 -39,20 -10,12 -7,26 -16,39 -14,20 -62,-8 -62,16l0 95c0,19 -10,28 -10,46 0,44 10,68 10,112 0,39 -24,78 -63,78l-64 0c-32,0 -34,41 -40,72 -6,30 -13,47 -13,78 0,52 72,49 124,49 39,0 62,-10 101,-10 41,0 44,62 85,62 33,0 38,-42 42,-75 5,-37 21,-56 46,-85 48,-55 66,-98 91,-166 27,-73 41,-116 59,-192 11,-47 26,-72 26,-121 0,-30 -32,-49 -62,-49 -16,0 -23,13 -39,13 -28,0 -33,-29 -59,-39zm-635 -735l166 0 0 -15 -5 -23c-4,-20 34,-19 34,-39 0,-13 -15,-17 -15,-29 0,-20 23,-36 10,-50 -15,-16 -16,-32 -29,-49 -16,-20 -38,-14 -64,-16 -23,-2 -33,-17 -50,-33 -38,-33 -118,-48 -93,-91 25,-43 66,52 114,52l13 0 0 -20 -5 -31 0 -44c0,-13 -5,-31 8,-31 22,-1 15,31 20,52 4,18 11,28 13,46 3,21 2,42 21,50 15,7 26,10 42,10 25,0 31,-31 56,-31 21,0 20,28 20,49 0,18 -16,24 -16,42 0,9 9,17 18,17 5,0 8,-5 13,-5 11,0 15,10 26,10 35,0 54,-18 90,-18 3,0 7,1 7,3l0 13c0,13 -11,17 -20,27 -19,24 -17,45 -28,73 -5,14 -18,17 -28,28 -12,13 -15,26 -15,44l0 9c0,3 4,3 7,3 13,0 13,-16 20,-28 11,-21 18,-46 43,-46l13 0c7,0 2,11 2,18 0,21 -28,26 -28,47l0 54 77 10c26,3 42,-5 68,0 4,1 2,-7 2,-11 0,-29 -33,-32 -54,-53 -31,-31 -50,-58 -50,-103 0,-20 20,-24 34,-37 21,-21 22,-41 39,-65 2,-2 3,4 3,7 0,34 -28,48 -28,82 0,16 18,19 28,32 16,21 8,42 20,65 9,19 30,17 42,34 11,15 23,28 42,28 15,0 20,-18 20,-33 0,-23 -23,-29 -39,-45 -13,-13 -17,-26 -33,-36 -18,-11 -37,-17 -37,-37 0,-31 6,-49 13,-80 1,-4 7,-3 11,-3 3,0 7,0 7,3l0 80c0,7 8,9 13,14 17,23 38,26 57,47 19,22 5,67 35,67l19 0 0 -26c0,-9 -8,-13 -10,-22 -3,-12 0,-23 -10,-31 -9,-7 -17,-9 -23,-18 -12,-18 -7,-35 -7,-57l0 -40c0,-6 -3,-9 -3,-15l0 -22 21 0c11,0 3,22 7,33 6,17 21,22 21,40 0,9 -7,13 -7,23 0,32 22,48 47,68 11,8 23,13 23,27l0 33c0,29 37,35 37,63 0,15 -15,18 -24,29 -17,20 -24,37 -24,63 0,28 13,39 13,68 0,45 21,68 21,113 0,14 13,20 26,25 22,10 42,22 42,46 0,4 -6,6 -8,9 -8,12 -15,20 -15,34 0,24 19,33 36,50 21,21 32,46 62,46l42 0c18,0 26,-10 44,-10 21,0 22,33 43,33 5,0 8,-5 13,-5 30,0 35,42 65,42 9,0 16,2 23,-3 9,-7 6,-19 13,-28 12,-14 30,-2 47,-8 17,-6 24,-21 42,-21 11,0 29,3 24,13 -12,26 -44,30 -44,59 0,30 23,57 53,57 16,0 25,-8 42,-8 10,0 15,7 24,7 11,0 23,-8 23,-20 0,-17 -20,-22 -20,-39 0,-9 11,-10 18,-15 13,-8 24,-16 24,-32 0,-18 -23,-22 -23,-40 0,-24 18,-53 41,-46 22,7 -3,42 15,57 11,9 22,4 36,8 14,4 21,13 36,13 15,0 17,-18 26,-29 13,-15 28,-43 42,-29 15,14 -7,34 -21,49 -15,15 -29,26 -29,48l0 13 83 29 31 0 0 15c0,10 -7,15 -7,26 0,20 8,30 10,50 0,3 -3,5 -7,5 -18,0 -21,-26 -39,-26l-14 0c-5,0 -2,8 -2,13 0,7 8,8 13,13 10,10 18,19 18,34l0 22c0,10 -15,2 -25,2 -12,0 -25,10 -31,-1 -10,-18 -8,-33 -18,-51 -7,-14 -12,-29 -28,-29 -16,0 -34,7 -34,24 0,21 25,27 26,48 0,5 -9,5 -15,5 -20,0 -26,-21 -45,-21 -7,0 -18,-6 -18,2l0 25c0,21 25,22 44,31 8,3 7,13 10,21 4,12 13,17 18,29 8,22 3,38 5,62 1,14 10,21 10,35l0 33c0,18 16,23 26,37 16,21 27,33 44,52 32,36 51,56 83,93 23,26 41,35 64,62 7,8 6,17 11,26 6,10 17,8 28,11 11,3 18,9 28,16 28,21 62,47 46,78 -13,24 -37,-28 -64,-28l-35 0c-18,0 22,21 28,37 14,39 23,60 31,101 6,32 23,47 23,79 0,30 -14,44 -28,71 -5,9 -3,17 -10,24 -11,13 -19,23 -20,40l0 21 107 0 0 -17471 -25438 0 1 37c1,35 7,55 7,90 0,35 -15,54 -15,88l0 33c0,26 -9,39 -11,65 -6,79 -3,124 -11,204 -4,34 -11,53 -11,88l0 38c0,44 -12,68 -20,112 -15,91 -8,144 -24,235 -7,40 -18,60 -21,101 -3,45 -2,72 -13,116 -3,14 -11,20 -16,33 -13,29 -17,47 -24,78 -7,32 -16,49 -20,81 -8,66 -29,100 -55,161 -15,35 -25,55 -44,88 -16,28 -39,34 -59,60 -29,39 -55,57 -72,103 -12,32 -9,53 -24,83 -10,20 -22,27 -37,42 -26,26 -40,41 -67,65 -20,18 -28,34 -44,55 -26,34 -49,47 -72,85 -39,66 -44,111 -62,186 -18,74 -24,116 -41,191 -10,44 -22,66 -36,109 -10,33 -31,48 -31,83l0 66c0,60 -21,92 -21,152l0 107c0,54 -1,87 -20,138 -7,20 -14,32 -23,52 -13,29 -27,42 -41,70 -8,16 -18,24 -24,41 -10,26 -13,44 -31,65 -20,24 -36,35 -49,64 -17,37 -35,52 -52,90l-44 98c-11,25 -31,30 -49,50 -48,56 -67,94 -119,147 -19,19 -35,24 -55,42 -31,28 -43,49 -75,75 -26,20 -51,16 -75,37 -19,17 -21,34 -37,54 -17,20 -27,30 -41,50 -11,16 -10,31 -23,46 -7,8 -16,9 -26,15 -16,9 -24,18 -41,26 -58,26 -89,44 -148,67 -24,9 -37,20 -62,20 -15,0 -21,-16 -36,-16 -21,0 -31,13 -50,21 -18,7 -44,5 -44,24 0,6 7,7 11,11 7,7 11,13 18,20 21,21 36,30 55,52 13,15 20,23 31,39 11,16 15,37 35,37l21 0c5,0 2,-8 2,-13 0,-21 -26,-26 -26,-48 0,-19 21,-23 37,-33 15,-9 16,-33 33,-29 21,5 15,35 34,42 20,7 34,1 55,3 17,2 25,10 39,18 11,6 13,16 21,24 29,32 34,61 46,103 16,55 7,96 41,142 26,34 59,34 88,65 12,13 15,22 24,37 5,8 11,13 11,23 0,15 -26,14 -26,29 0,18 15,24 23,39 24,46 36,76 77,107 24,19 71,21 62,50l-39 129c-3,10 9,18 20,18 22,0 34,-11 55,-16 24,-6 31,-24 52,-36 12,-7 17,18 31,18 26,0 45,-8 62,-28 11,-13 21,-40 33,-28 14,15 -1,32 -1,53 0,20 -26,21 -46,22 -35,2 -55,9 -90,16 -14,3 -21,10 -36,11 -15,1 -34,4 -34,20 0,26 11,55 37,55 11,0 14,-12 22,-20 10,-10 14,-21 28,-23 6,-1 3,10 3,16 0,21 -23,28 -23,48l0 33 -7 5c-19,15 -27,-34 -50,-34 -10,0 -13,13 -13,23 0,9 19,3 20,11 2,23 -20,33 -20,57l0 13 15 0c21,0 0,50 21,50 42,0 4,-98 46,-98 24,0 18,47 42,47 9,0 12,-10 18,-16 19,-20 31,-37 31,-65l0 -24c0,-16 16,-20 28,-31 22,-21 25,-42 44,-67 3,-4 3,8 3,13 0,17 -21,39 -5,42l16 3c5,1 9,-5 13,-3 3,1 5,3 5,7 0,11 -8,15 -8,26 0,16 11,23 11,39l0 17c0,5 -8,2 -13,2 -10,0 -16,-3 -26,-3 -9,0 -22,-8 -22,0l0 16c0,7 8,9 7,16l-2 7c-1,2 -4,2 -6,2 -7,0 -10,-5 -17,-5 -18,0 -18,22 -26,37 -8,17 -24,19 -36,33 -6,7 -6,15 -13,20 -14,10 -29,7 -39,21 -15,21 -20,37 -20,63 0,18 1,45 18,42 22,-4 25,-25 39,-42 9,-11 12,-26 26,-26l19 0c7,0 2,11 2,18 0,16 -16,20 -28,31 -21,19 -65,43 -42,60l7 5 34 0c27,0 49,16 54,42 1,5 -8,2 -13,2 -18,0 -26,-10 -44,-10l-19 0 -2 8c-3,13 28,8 28,21 0,18 -26,19 -26,37 0,17 22,15 36,24 8,5 7,15 11,24 7,15 16,23 16,40 0,15 -15,22 -15,37 0,10 10,13 18,20 17,13 22,29 42,36 22,8 37,2 60,2 38,0 59,0 98,0 4,0 4,-5 7,-6 14,-6 31,-3 36,-18 4,-15 2,-24 7,-39 7,-22 24,-28 42,-42 16,-12 25,-24 46,-24 29,0 43,21 72,21 52,0 81,-2 133,-2 19,0 29,5 48,5 24,0 37,-10 60,-10 36,0 55,16 91,16 36,0 50,-28 78,-49 20,-15 37,-11 60,-20 29,-11 44,-26 75,-26l13 0c23,0 -31,20 -52,28 -26,10 -37,22 -60,37 -33,22 -57,27 -96,37 -5,1 -7,7 -13,7 -22,0 -33,-10 -55,-10 -26,0 -39,20 -65,20 -39,0 -59,-24 -98,-24 -24,0 -37,10 -61,10l-32 0c-9,0 -13,3 -22,3 -13,0 -21,-5 -34,-5 -15,0 -19,13 -31,21 -20,13 -38,13 -52,33 -14,19 -5,36 -13,57 -8,22 -29,25 -50,33 -21,8 -31,21 -54,21 -17,0 -26,-8 -43,-8 -27,0 -50,16 -55,42 -1,4 -7,2 -11,2 -18,0 -22,-20 -40,-20l-32 0c-9,0 -12,-8 -20,-11 -15,-7 -25,-9 -41,-15 -23,-8 -52,-11 -52,-36 0,-16 16,-22 16,-37 0,-13 -13,-16 -23,-24 -10,-9 -9,-20 -11,-33 -4,-24 -9,-39 -20,-60 -11,-21 -9,-46 -31,-54 -26,-9 -58,-14 -70,10 -9,18 -2,33 -8,52 -10,30 -33,44 -64,50 -17,3 -20,20 -29,34 -17,28 -34,44 -34,77 0,23 18,31 23,54 7,32 13,50 16,83 3,27 1,44 11,68 8,19 37,18 37,39 0,16 -13,24 -13,40 0,18 11,27 11,46 0,25 -12,38 -21,61 -25,68 -53,105 -53,177l0 35 7 2c25,6 35,-28 60,-28 28,0 92,12 67,24l-7 3 -52 0c-22,0 -26,25 -39,42 -26,31 -39,55 -39,96 0,11 -3,19 2,30 2,5 9,3 14,2l46 -13 34 0c10,0 18,7 26,2 15,-9 4,-29 10,-46 6,-17 23,-24 41,-21 9,2 -1,14 -1,23 0,12 10,22 22,22 17,0 25,-13 42,-13 9,0 12,11 15,20 6,20 13,38 33,46 6,2 0,-9 0,-15l0 -29c0,-14 5,-41 15,-32 17,16 -3,45 16,59 20,14 42,2 62,16 13,10 16,28 33,28 29,0 30,-46 59,-46 22,0 31,18 52,18 20,0 26,-23 46,-23 17,0 25,11 42,11 12,0 10,-23 22,-23 20,0 29,16 50,16 13,0 21,-5 30,-13 9,-7 7,-23 18,-23 15,0 21,13 34,20 30,15 47,28 81,28 20,0 30,-11 50,-11l46 0c18,0 27,-10 44,-10 14,0 22,8 36,8l37 0c15,0 17,18 25,31 9,16 26,18 44,18 20,0 30,-5 49,-10 22,-6 43,-6 54,-26 8,-16 8,-28 10,-46 0,-4 24,-100 24,-75 0,13 -5,20 -7,32 -3,24 2,38 -3,62 -2,10 -13,12 -16,21 -5,17 -12,26 -24,39 -20,20 -42,18 -70,23 -14,2 -22,8 -36,8 -47,0 -57,-60 -104,-60 -52,0 -80,15 -132,15l-40 0c-13,0 -21,-3 -33,-8 -17,-7 -19,-29 -37,-29 -24,0 -34,14 -55,24 -22,11 -38,10 -62,18 -23,8 -37,15 -62,15 -47,0 -73,-16 -121,-16 -9,0 -11,11 -20,15 -13,6 -22,8 -36,8 -22,0 -33,-16 -55,-16 -13,0 -20,11 -33,11l-43 0c-15,0 -25,-6 -39,-10 -22,-6 -35,-13 -59,-13 -28,0 -38,28 -66,28l-45 0c-22,0 -34,-13 -57,-13 -44,0 -50,57 -50,101 0,20 9,31 21,47 12,17 16,33 36,41 43,16 73,13 116,31 37,16 59,27 85,57 32,37 41,88 90,88 11,0 18,-5 26,-11 11,-8 8,-28 21,-28 10,0 8,14 13,23 8,16 23,21 41,21l19 0c24,0 7,-55 31,-55 24,0 30,30 54,29 7,0 2,-10 2,-17 0,-12 -10,-18 -10,-31l0 -11c0,-7 11,-2 18,-2 22,0 26,31 48,31 18,0 25,-14 35,-28 16,-21 43,-8 64,-24 19,-15 28,-36 52,-36 9,0 11,11 18,16 12,11 37,-2 41,15l2 7c8,31 -52,1 -81,13 -20,8 -27,26 -49,29 -33,5 -51,13 -78,31 -20,13 -61,20 -47,39 14,19 60,-17 60,7l0 9c0,11 -13,14 -23,18 -20,6 -30,11 -50,16 -10,3 8,-21 0,-27 -11,-9 -22,0 -35,0 -16,0 -24,9 -38,18 -22,14 -58,4 -62,31 -2,10 28,-2 26,8 -6,26 -31,35 -31,62 0,31 16,64 46,64 16,0 25,-3 41,-3 16,0 24,5 40,7 24,2 57,3 57,28 0,10 -11,13 -21,13 -10,0 -14,-10 -24,-8l-55 10c-18,3 -24,-21 -42,-21 -6,0 -11,5 -11,11 0,4 -7,7 -5,10 10,21 3,38 15,59 15,25 29,35 52,52 13,9 20,20 36,20 7,0 9,-7 16,-7 18,0 20,24 37,24 21,0 22,-23 37,-37 19,-18 39,-20 65,-20 13,0 18,15 31,15l13 0c13,0 -2,-22 5,-33 11,-15 32,-1 46,-13 6,-5 -8,-9 -13,-15 -17,-21 -44,-64 -16,-68 34,-5 23,65 57,65 36,0 50,-36 86,-36 8,0 13,3 21,3 26,0 11,-62 37,-55l7 2c21,5 14,41 35,41 21,0 28,-28 48,-26 18,2 16,31 34,31 19,0 17,-34 36,-34 16,0 11,33 27,33 14,0 21,-5 35,-5 17,0 26,5 43,5 11,0 19,0 27,-7 6,-6 2,-15 3,-24 1,-10 12,-15 22,-15 15,0 20,16 35,16 7,0 18,-10 16,-3 -3,14 -22,10 -31,21 -8,11 -13,24 -26,24l-51 0c-12,0 -18,9 -30,10 -14,1 -23,-3 -36,2 -11,4 -13,16 -24,20 -22,6 -35,10 -58,10 -11,0 -18,-6 -29,-8 -20,-5 -33,-3 -52,-10 -13,-4 -19,-13 -33,-13l-37 0c-18,0 1,32 -10,46 -7,10 -19,9 -28,18 -37,37 -74,48 -93,96 -11,28 -39,36 -39,66l0 80 18 0c14,0 17,-21 31,-18l20 5c27,7 36,-28 62,-37 22,-8 38,0 60,-8 15,-5 25,-10 37,-20 6,-5 10,-13 18,-13l30 0c26,0 37,-19 54,-39 12,-13 25,-16 42,-20 39,-8 44,-47 55,-85 3,-11 16,10 28,10 37,0 58,-9 93,-20 14,-4 20,-16 35,-16l33 0c40,0 39,65 79,65 20,0 32,-2 50,-10 24,-10 28,-31 50,-44 26,-14 46,-11 76,-11 27,0 56,14 56,42 0,15 -15,20 -24,32 -9,11 -13,20 -24,29 -7,6 -13,9 -13,18 0,18 9,32 26,37 14,5 23,-1 37,3 29,10 86,48 55,55l-7 2c-26,7 -28,-38 -54,-42 -30,-5 -52,-11 -70,-36 -6,-8 -13,-13 -13,-23 0,-15 26,-13 26,-28l0 -35c0,-10 -16,-7 -26,-7 -21,0 -26,20 -41,34 -16,15 -33,11 -54,11l-45 0c-51,0 -78,25 -123,49 -9,5 -17,1 -28,3 -33,8 -48,24 -80,33 -26,7 -59,10 -59,37l0 19c0,16 39,-1 39,15 0,11 -5,17 -5,28 0,13 -2,27 10,33 9,5 21,4 21,15 0,34 -38,39 -70,50 -39,15 -75,36 -75,78 0,13 5,28 18,28 26,0 29,-37 55,-37 14,0 22,8 36,8 17,0 22,-14 36,-23 12,-8 22,-3 36,-3l33 0c19,0 21,-25 39,-29 15,-4 28,-1 39,-11 20,-18 17,-54 44,-54 15,0 15,24 30,24 21,0 28,-20 48,-24 11,-3 21,3 28,-5 7,-8 5,-23 16,-23 14,0 2,33 16,33l13 0c10,0 15,-5 25,-5 13,0 5,22 15,29 14,11 38,7 37,24 0,7 -11,3 -19,3 -18,0 -24,-20 -42,-20 -16,0 -41,-15 -41,1l0 35c0,7 -10,2 -17,2 -15,0 -22,-12 -34,-21 -18,-14 -31,-20 -54,-20 -15,0 -20,13 -31,21 -18,13 -32,16 -50,29 -17,11 -26,20 -37,37 -7,11 -16,18 -16,31 0,7 6,10 5,16l-2 8c-1,4 -6,2 -10,2 -12,0 -11,-22 -23,-21 -9,1 3,24 -7,24l-21 0c-15,0 -19,-20 -35,-20 -7,0 -17,4 -15,10 5,13 15,18 15,31 0,16 -20,17 -34,24 -10,5 -13,15 -13,26 -1,25 -23,35 -23,60l0 13c0,12 15,-12 23,-21 15,-18 33,-23 57,-23 14,0 22,5 37,5 11,0 13,-13 20,-21 12,-14 20,-22 36,-31 25,-14 45,-18 60,-44 13,-22 -20,46 -20,53l0 13 14 0c20,0 30,-11 46,-23 13,-10 22,-16 37,-21 3,-1 3,5 3,8 0,14 -15,18 -23,29 -6,9 -3,20 -11,26 -13,10 -28,0 -44,5 -24,7 -33,22 -52,39 -11,10 -22,10 -34,20 -11,9 -13,21 -11,36l2 11 21 0c13,0 19,-10 32,-10l22 0c4,0 5,4 5,8 0,8 -7,10 -13,15 -8,7 -10,14 -20,18 -16,7 -41,5 -41,23 0,8 10,7 16,11 7,5 9,13 10,23 3,28 2,46 15,70 8,15 18,22 31,34 15,15 25,29 46,29 19,0 29,-21 29,-40l0 -29c0,-14 5,-23 13,-34 7,-10 12,-23 25,-23 7,0 17,-3 17,3 2,25 -24,34 -24,58l0 35c0,20 16,29 16,48 0,16 -20,15 -34,23 -16,9 -23,20 -33,36 -9,15 -20,23 -20,41 0,20 23,26 42,26 20,0 27,-18 41,-33 19,-20 34,-31 47,-55 11,-21 18,-33 26,-55 7,-20 21,-29 21,-51l0 -35c0,-17 19,26 36,26 13,0 14,-15 21,-24 11,-14 25,-14 39,-24 22,-17 36,-34 64,-34 9,0 14,-1 22,2 3,1 10,5 7,7 -20,9 -47,10 -47,33 0,17 29,15 29,32l0 12 -45 0c-19,0 -20,22 -30,37 -13,21 -11,36 -16,60 -4,17 -20,19 -36,26 -36,15 -66,21 -85,55 -8,14 -23,19 -23,35 0,16 14,22 16,38 7,43 3,70 16,112 11,37 25,60 57,81 19,12 31,24 54,24 11,0 24,-5 24,-16 0,-12 -16,-11 -23,-21 -11,-17 -19,-35 -8,-52 10,-16 31,1 47,-8 20,-11 16,-33 16,-56l0 -27c0,-36 -85,-3 -85,-40l0 -11 21 0c26,0 31,34 56,34l19 0c5,0 2,-8 2,-13 0,-14 -7,-22 -7,-37 0,-25 3,-39 2,-65 0,-3 5,-3 8,-3 9,0 1,17 10,18 19,2 24,-17 42,-21 8,-2 10,11 10,20 0,21 -13,31 -13,51 0,16 7,35 24,35 11,0 19,-1 27,-8 16,-14 6,-49 28,-49 13,0 9,19 11,33 1,3 4,3 7,3 9,0 9,-12 15,-20 13,-18 27,-29 49,-29 12,0 26,6 26,18 0,11 -14,13 -23,20 -22,17 -30,31 -52,47 -17,12 -37,18 -37,39 0,22 0,35 7,55 6,19 18,28 18,47 0,18 -18,34 -5,46 14,12 26,-15 41,-24 23,-15 42,-16 70,-16l13 0c43,0 -93,26 -85,68 5,26 42,-10 68,-7 4,1 2,6 2,10 0,30 -50,28 -50,58 0,6 7,8 13,8 27,0 33,-27 50,-47 14,-16 30,-19 39,-39 13,-29 4,-81 34,-73l7 2c20,5 -20,30 -20,50 0,16 18,22 18,37 0,18 -15,25 -29,36 -26,20 -41,42 -41,75 0,6 -4,13 2,15 20,7 51,9 46,29l-2 7 -13 3 -32 0c-14,0 -18,15 -26,26 -11,15 -14,28 -18,47 -2,9 -8,13 -8,23 0,9 11,13 20,13l40 0c12,0 18,10 30,10 13,0 16,-12 26,-20 19,-13 29,-28 52,-29 3,0 5,3 5,7 0,6 -5,9 -8,13 -11,16 -19,26 -34,37 -19,14 -39,24 -39,48 0,20 2,34 11,51 11,20 32,16 49,31 13,12 17,23 28,37 13,17 23,29 23,50l0 56c0,9 10,14 20,14 24,0 25,-37 49,-37 24,0 24,33 47,39 13,4 24,-3 34,5 9,6 -1,17 7,24 25,27 37,45 57,75 14,21 33,23 55,36 27,15 33,49 64,49l11 0 0 -35c0,-18 1,-27 5,-44 2,-7 2,-16 10,-16 12,0 13,14 24,18 18,7 42,3 42,22 0,14 -24,13 -24,27 0,12 23,15 18,26 -7,14 -28,15 -28,31 0,18 22,20 37,28 13,6 20,14 31,24 24,22 38,35 67,50 51,29 72,75 130,75 23,0 34,-13 57,-13 8,0 13,7 13,15 0,16 -11,23 -20,36 -8,11 -7,22 -7,36 0,17 -8,29 0,43 4,7 12,0 20,0 18,0 27,-10 44,-10 14,0 20,11 34,11l14 0 0 -78c0,-9 3,-18 11,-18 5,0 12,-2 13,3 6,18 -5,35 8,49 7,8 18,2 29,5 11,2 13,15 13,27 0,9 -12,10 -21,12 -9,2 -14,5 -23,8 -22,9 -29,27 -34,50 -7,33 -3,57 -24,83 -6,8 -15,9 -20,18 -10,16 -5,30 -10,47 -3,9 -11,10 -16,18 -8,12 -9,23 -20,33 -15,13 -41,11 -41,31 0,6 8,7 14,7 27,0 32,-27 56,-39 44,-22 64,-44 114,-52 4,-1 2,6 2,10 0,21 -16,31 -16,51 0,13 3,30 16,30 10,0 12,-11 20,-18 21,-18 58,-68 58,-41l0 38c0,16 -2,26 -12,39 -9,11 -24,16 -24,31 0,10 7,14 11,23 7,13 11,28 26,28 18,0 23,-18 34,-31 12,-14 22,-26 41,-28 2,0 3,4 3,7 0,20 -26,24 -26,44 0,14 16,19 16,33 0,27 -33,35 -33,63 0,22 -11,57 11,57l22 0c19,0 25,-21 44,-21 3,0 2,4 5,7 9,8 17,14 21,26 8,23 15,37 15,62 0,17 15,29 33,29 18,0 13,-39 29,-34 21,7 -11,57 11,57l18 0c3,0 2,4 2,7 0,14 -13,18 -23,27 -8,8 -10,17 -16,26 -5,7 -15,4 -23,8 -11,6 -14,16 -23,26 -13,14 -31,20 -31,39 0,11 6,18 6,29l0 77 22 0c7,0 11,-7 18,-7 34,0 44,41 78,41 13,0 18,-10 31,-11 22,-2 35,-8 57,-8l34 0c21,0 -30,18 -49,28 -18,9 -36,16 -36,36 0,8 12,6 20,8 13,4 20,15 20,29 0,10 -13,13 -23,13 -11,0 -16,-5 -26,-5 -33,0 -51,-2 -84,-2 -14,0 -28,9 -28,22l0 35c0,15 -7,22 -7,37 0,26 -2,42 8,65 14,30 33,40 47,70 15,31 11,55 31,83 11,16 17,36 37,36 18,0 29,-15 35,-31 7,-17 18,-24 24,-41 10,-27 20,-57 49,-57 15,0 6,22 11,36 7,20 26,28 48,28l43 0c20,0 25,25 25,45l0 31 -24 0c-17,0 -19,-20 -35,-24 -9,-2 -14,-2 -23,-2 -20,0 -41,9 -41,29l0 53c0,2 -4,2 -6,2 -29,0 -41,-36 -69,-28 -11,3 0,22 -10,28 -11,7 -26,9 -26,23 0,7 9,7 15,11 13,9 24,16 24,32l0 12c0,5 -8,2 -13,2 -29,0 -40,-23 -62,-41 -12,-10 -19,-19 -34,-23 -8,-2 -16,-1 -21,-8 -14,-19 -21,-41 -45,-41 -15,0 -23,8 -39,8l-40 0 -20 -5c-29,-7 24,42 24,72 0,16 -13,23 -13,39 0,24 17,33 34,49 26,24 34,46 65,62 26,13 59,18 59,47l0 112c0,6 0,13 6,14l7 2c42,11 49,-62 92,-62 11,0 17,5 28,5 34,0 45,-39 79,-39 15,0 16,19 16,34l0 46c0,36 34,48 37,84 3,24 -6,39 2,62 11,32 26,50 26,84 0,16 -4,26 -8,42 -3,10 -18,5 -26,11 -9,7 -8,19 -8,31 0,23 13,33 23,54 10,21 19,42 42,42 24,0 30,-29 54,-29 18,0 13,26 13,44 0,21 16,31 34,41 23,13 37,28 64,28 15,0 25,-2 36,-11 5,-4 7,-11 13,-11 18,0 23,21 41,21l33 0c24,0 47,10 62,-10 18,-23 12,-69 41,-64 12,3 -5,20 -5,33 0,28 41,19 57,42 3,4 -8,5 -14,5 -14,0 -21,-5 -35,-5 -9,0 -11,12 -20,15 -19,7 -31,11 -44,26 -9,9 -21,13 -21,26 0,12 15,13 26,16 9,3 11,13 20,16 14,6 14,26 29,26l9 0c17,0 15,-27 31,-31 20,-4 24,28 44,28 20,0 32,-10 47,-23 10,-9 9,-26 23,-26 16,0 22,20 37,18 51,-6 165,-37 42,11 -11,5 -16,13 -28,18 -42,18 -69,24 -114,33 -12,2 -18,7 -29,11 -25,10 -49,15 -57,41 -4,13 -2,23 -10,34 -13,19 -54,27 -39,46 22,28 51,31 87,31l33 0c39,0 45,50 83,55 35,5 87,-13 86,23 0,16 -5,36 -21,36 -15,0 -19,-15 -33,-23 -24,-13 -42,-12 -65,-26 -29,-18 -43,-42 -77,-42l-66 0c-22,0 -35,-5 -57,-5 -11,0 -13,13 -13,24 0,14 13,17 24,25 31,21 52,26 88,36 44,12 70,8 114,20 37,9 54,24 88,41 49,24 81,31 132,50 29,11 46,17 75,26 36,11 52,30 81,55 17,15 32,17 50,29 44,29 73,38 119,64 28,15 37,37 47,67 4,13 1,33 15,33 11,0 14,-11 24,-11 10,0 21,3 21,13 0,8 -8,11 -8,20 0,8 9,8 16,11 14,7 22,14 37,18 20,5 23,29 43,29 12,0 17,-10 29,-10 16,0 14,22 16,37 2,12 15,14 26,18 31,10 46,21 75,34 15,7 26,10 39,20 16,12 20,25 33,41 15,18 34,20 57,20l55 0c3,0 2,5 2,8 0,10 -15,11 -15,21 0,11 12,13 20,21 17,17 20,32 26,55l2 7c14,57 -68,-85 -127,-85 -3,0 -4,3 -7,3 -15,0 -22,-11 -36,-11l-32 0c-5,0 -8,7 -8,13l0 33c0,20 15,30 33,40 25,15 40,18 67,26 49,15 66,46 116,60 55,16 86,20 135,49 35,20 72,7 94,41l186 275c2,2 -4,3 -7,3 -6,0 -9,-3 -15,-3 -14,0 -24,12 -24,26 0,9 9,13 16,18 26,17 37,32 67,42 36,13 56,19 91,34 31,13 49,22 75,44 28,24 35,62 72,62 7,0 7,-9 10,-15 5,-11 11,-21 24,-21 23,0 13,37 32,49 22,15 44,15 60,36 33,42 64,65 117,68 10,1 17,0 26,5 15,8 6,26 15,41 11,19 24,28 42,39 24,15 42,19 65,36 20,15 22,32 37,50 25,29 38,48 57,81 11,19 13,34 29,49 21,19 25,41 52,52 19,8 33,4 52,8 11,2 22,2 24,13 4,15 -1,27 7,41 9,17 28,10 46,16 11,4 19,5 28,11 9,7 7,18 15,26 16,18 47,2 55,26 3,10 -1,16 -1,26 0,18 0,35 15,42 12,6 22,3 36,3 16,0 49,-19 41,-5 -11,18 -16,31 -16,52 0,27 34,28 60,33 44,8 77,13 104,49 20,27 26,47 44,77 22,38 46,59 46,103 0,20 -16,28 -16,48l0 10c0,48 76,5 122,20 21,7 33,18 46,36 7,11 19,12 26,23 9,14 15,29 33,29 25,0 37,-21 62,-21 13,0 14,15 20,26 4,9 16,11 16,21 0,8 -9,9 -15,15 -10,11 -13,22 -13,37 0,7 -3,12 2,17 4,4 10,2 16,2 13,0 20,-5 33,-5 70,0 110,18 171,52 27,15 43,26 72,37 53,22 81,37 132,64 26,14 41,22 68,33 17,6 31,8 41,23 16,23 17,44 39,62 18,14 37,4 57,16 18,11 21,26 37,37 20,14 39,8 62,16 52,19 74,46 122,73 41,22 68,26 114,36 25,6 40,4 65,10 10,2 14,8 24,8 15,0 23,-5 37,-5 16,0 16,20 28,31 15,13 30,10 47,20 34,19 11,86 50,86l11 0c14,0 22,-6 35,-10 11,-3 18,-11 29,-8l7 2c9,2 -7,15 -7,24 0,11 15,11 26,11l186 4c17,0 27,-7 45,-7 10,0 15,3 26,3l33 0c13,0 18,-10 30,-16 12,-7 20,-11 33,-18 31,-19 48,-30 80,-47 17,-9 25,-18 42,-28 15,-8 27,-9 39,-21 12,-12 20,-16 33,-28 6,-6 9,-13 18,-13 13,0 20,8 33,8 39,0 57,-23 93,-37 34,-14 50,-27 83,-44 18,-9 31,-10 49,-20 11,-6 14,-15 26,-20 11,-4 18,0 29,-3 52,-14 80,-24 132,-37 39,-10 59,-25 91,-49 12,-9 17,-21 31,-21l33 0c40,0 60,-15 98,-28 68,-22 106,-35 169,-68 31,-16 38,-38 73,-46 2,-1 4,2 6,2 25,0 38,-12 62,-20 11,-4 28,-4 28,-16 0,-24 -16,-36 -16,-61l0 -8c0,-4 6,-2 9,-2 8,0 12,8 20,8 18,0 22,-24 39,-24l21 0c20,0 -4,33 5,50 3,7 12,0 19,0 20,0 29,-12 46,-20 33,-15 57,-14 88,-34 30,-20 49,-31 85,-39 47,-10 73,-13 121,-18 30,-3 49,-2 73,-20 12,-9 -7,-37 8,-37l13 0c20,0 28,20 48,20l39 0 114 -24 36 0 150 -28 7 -3 -52 0c-31,0 -89,-13 -70,-39 19,-26 45,-37 45,-69l0 -50c0,-7 11,-2 17,-2 10,0 7,17 16,21 16,8 29,5 48,5 52,0 129,-86 129,-34l0 24c0,44 -71,6 -108,29 -11,7 -13,16 -23,24 -20,18 -46,23 -47,50 0,7 11,3 19,3 44,0 69,-8 113,-13 28,-3 42,-8 70,-11 20,-2 37,4 49,-11 13,-17 4,-36 16,-54 12,-18 27,-21 44,-36 5,-5 5,11 5,19 0,12 -17,32 -5,32l49 0c18,0 -8,46 10,46l60 0 119 -11c11,-1 16,5 26,5l33 0c28,0 44,-10 72,-10l136 0 36 -5 41 0 174 -20c72,-8 114,-2 187,-2 20,0 37,7 53,-7 9,-7 2,-22 -7,-29 -11,-9 -24,-6 -34,-16 -10,-11 -8,-26 -21,-31 -7,-3 -13,0 -21,-2 -20,-4 -31,-15 -51,-15 -17,0 -22,16 -37,23 -25,11 -51,-6 -68,15 -17,20 -34,31 -60,31 -21,0 -30,-18 -51,-18 -31,0 -47,18 -78,18 -25,0 -38,-11 -63,-11 -20,0 -19,34 -39,34 -21,0 -28,-24 -49,-24 -12,0 -13,15 -24,20 -18,8 -29,16 -49,13l-10 -2c-11,-2 0,-18 -3,-28 -6,-15 -24,-15 -41,-15 -17,0 -25,16 -42,13l-10 -2c-10,-2 -6,-18 0,-26 6,-7 15,0 24,0 27,0 3,-55 29,-62l7 -2c3,-1 4,5 8,5 17,0 21,-17 34,-28 12,-9 26,-28 37,-16 12,14 0,29 0,47 0,17 4,37 20,37 28,0 41,-21 69,-21 13,0 18,18 30,15 7,-2 -3,-18 5,-20l7 -2c22,-6 33,16 55,16 12,0 23,-5 27,-16 5,-13 -1,-33 13,-33 20,0 19,34 39,34l43 0c17,0 27,-4 41,-13 14,-10 12,-34 29,-34 18,0 13,36 31,36l45 0c14,0 21,-7 35,-10 16,-3 27,-2 41,-10 14,-7 22,-18 37,-18 8,0 11,8 15,15 8,13 21,15 36,15l53 0c19,0 27,13 46,13 20,0 38,-2 47,-20 11,-21 6,-37 15,-59 5,-13 8,-29 22,-29 18,0 13,26 20,42 4,9 15,8 25,8 19,0 27,-16 46,-16 13,0 19,11 24,23 10,20 25,32 20,54l-2 7 -16 0c-16,0 8,-40 -8,-40l-44 0c-16,0 -25,7 -39,14 -13,6 -15,15 -28,23 -11,7 -21,5 -34,7 -9,1 -15,-3 -23,2 -9,6 -6,17 -13,26 -7,8 -16,8 -26,11 -20,7 -33,8 -53,15 -7,2 -7,17 0,18 49,7 78,0 127,0 41,0 64,5 105,10 27,3 42,1 68,8 27,7 40,15 67,21 48,12 73,17 119,29 44,12 66,34 111,34l45 0 0 -14c0,-12 -16,-12 -21,-23 -9,-18 -14,-29 -15,-49 0,-2 4,-3 7,-3 16,0 24,8 40,8 38,0 64,-35 66,-73 1,-19 -5,-29 -10,-47 -4,-16 -16,-23 -16,-39l0 -14c0,-31 47,-11 75,-23 19,-8 25,-28 46,-28 19,0 28,12 46,18 24,8 64,13 55,37 -11,29 -56,7 -73,33 -10,15 -6,28 -10,46 -6,24 -16,36 -16,60 0,21 26,23 47,24 8,1 13,-2 20,2 14,8 10,33 26,33l32 0c23,0 23,-37 46,-37 26,0 32,34 59,34 27,0 55,-15 55,-43l0 -31 18 0c11,0 14,11 25,13 34,6 74,-4 81,29 6,29 -64,12 -64,42l0 48c0,20 -20,34 -41,34 -31,0 -37,-42 -69,-42l-32 0c-25,0 -35,23 -61,23 -43,0 -63,-31 -106,-31l-42 0c-25,0 -39,-5 -62,-13 -17,-6 -22,-24 -41,-24l-9 0 0 83c0,45 69,20 114,20l37 0c20,0 31,5 51,8 47,8 72,12 119,16 38,4 58,16 96,18 18,1 26,9 44,13 104,23 162,32 264,62 55,16 86,30 140,50 71,27 128,22 179,77 18,19 25,33 42,52 10,11 24,8 37,15 13,7 20,15 29,26 20,23 37,32 65,41 18,6 25,23 45,23 31,0 48,-15 79,-15 19,0 29,5 48,5 21,0 29,-16 43,-31 24,-24 35,-42 62,-64 9,-7 20,-3 33,-7 11,-3 19,0 28,-7 13,-10 4,-29 15,-41 15,-17 44,-15 44,-37 0,-7 -5,-11 -5,-18l0 -37c0,-17 17,-21 24,-36 13,-24 5,-63 33,-64 20,0 26,26 47,26 19,0 24,-20 36,-34 11,-13 26,-7 44,-7 33,1 46,-26 79,-26 40,0 63,10 103,10 125,0 163,-140 288,-140 45,0 70,7 115,7 58,0 103,2 144,-39 31,-31 44,-52 78,-78 16,-13 19,-34 39,-34 10,0 15,5 25,5 22,0 38,6 56,-7 20,-13 28,-29 50,-37 38,-15 57,-29 91,-50 38,-24 59,-38 98,-60 40,-22 80,-29 91,-73l2 -7c3,-12 8,26 21,26 9,0 12,-11 21,-11 14,0 18,15 31,18 18,4 29,2 47,2 22,0 38,5 59,-5 8,-4 15,-9 15,-18l0 -60c0,-8 7,-17 15,-15l13 3c50,13 55,-64 103,-83 20,-8 35,-4 55,-13 26,-11 27,-44 55,-47 44,-5 63,-32 91,-65 13,-16 29,-15 49,-20 32,-8 50,-23 83,-23 42,0 65,11 106,18 68,11 108,15 174,36 41,13 64,26 106,26l64 0c24,0 37,3 61,3 57,0 95,-22 129,-67 26,-34 38,-55 67,-88 40,-46 52,-78 94,-121 22,-22 34,-38 62,-52 10,-5 15,-11 26,-11l71 0c35,0 52,-17 87,-26 51,-14 81,-10 130,-28 28,-10 39,-31 68,-31l58 0c35,0 52,-20 85,-29 20,-6 33,-5 54,-8 17,-3 26,-10 42,-13 45,-8 71,-13 116,-20 35,-5 55,-16 90,-16 63,0 98,0 160,0 55,0 86,-11 140,-21 31,-6 50,-9 81,-11 45,-3 70,-13 114,-20 81,-12 127,-14 208,-23 64,-7 98,-23 162,-23l43 0c38,0 59,-12 96,-15 99,-8 156,-7 256,-7 37,0 60,-8 94,5l96 36c21,8 8,-35 13,-57 1,-2 -4,-2 -6,-2 -8,0 -12,7 -20,7l-33 0c-17,0 -25,-11 -41,-13 -35,-5 -109,-8 -85,-33 33,-34 74,-2 122,-2 11,0 17,8 28,8 24,0 36,-16 60,-20 22,-3 35,-7 54,-18 8,-4 16,-8 16,-17 0,-24 -44,-7 -54,-29 -7,-16 -5,-28 -5,-46 0,-11 13,-13 21,-20 16,-12 22,-23 34,-39 19,-24 27,-42 54,-57 3,-2 2,5 2,9 0,11 -9,15 -16,24 -9,11 -10,22 -10,37 0,30 9,66 38,66 29,0 45,-9 72,-20 11,-4 20,-5 28,-13 10,-10 15,-17 26,-26 36,-29 67,-31 112,-39 27,-5 41,-18 69,-18 56,0 87,2 143,2 51,0 65,53 114,64 29,6 46,3 75,11 15,4 23,13 39,13 20,0 31,-10 50,-10 7,0 13,3 13,10 0,25 -49,18 -49,43 0,48 94,32 94,81 0,10 -10,13 -18,18 -21,12 -37,11 -61,11 -17,0 -25,-11 -42,-11 -11,0 -16,8 -27,8 -21,0 -26,-20 -44,-33 -16,-11 -30,-4 -49,-8 -39,-9 -42,-54 -81,-60 -29,-4 43,12 70,21 14,5 22,10 37,10 22,0 35,-7 56,-15 13,-5 25,-13 25,-28 0,-8 6,-15 0,-20 -7,-6 -14,0 -23,0 -17,0 -26,10 -43,10l-42 0c-19,0 -18,-25 -33,-36 -13,-9 -27,-4 -42,-10 -12,-5 -9,-20 -18,-29 -14,-14 -29,-13 -48,-13 -26,0 -39,17 -64,23 -20,5 -47,0 -47,20 0,9 10,12 10,21l0 8c0,27 -42,2 -68,5 -16,2 -18,19 -29,29 -8,8 -20,5 -32,5 -17,0 -27,-3 -44,-3 -26,0 -35,26 -46,49 -16,33 -45,39 -81,44 -24,3 -34,16 -55,24 -11,5 -20,0 -33,3 -13,3 -13,18 -13,31 0,10 -5,23 5,24 24,4 26,-36 49,-36l116 0c37,0 58,-11 95,-11l30 0c31,0 48,-8 79,-8 61,0 95,-2 156,-2 35,0 53,20 89,20l48 0 116 8 35 0c6,0 9,3 15,3l81 0c35,0 53,11 88,16 55,9 85,17 135,39 44,19 74,23 112,52 15,11 19,24 33,37 18,18 24,33 41,52 14,15 23,24 34,41 19,29 46,32 80,41 6,2 -3,10 -3,16 0,17 7,26 16,39 18,25 22,46 47,64 24,16 44,18 62,41 24,31 22,56 44,88 12,18 22,25 36,41 13,15 16,36 36,36 35,0 43,-34 73,-50 26,-14 55,-19 60,-49 3,-13 1,-21 3,-34 9,-48 49,-164 49,-114l0 96 12 0c25,0 33,-25 56,-34 37,-14 60,-23 100,-23l46 0c11,0 28,16 18,21 -48,26 -85,15 -134,37 -37,17 -49,43 -85,65 -39,24 -65,36 -99,67 -34,30 -65,53 -65,99l0 37c0,29 15,44 36,65 19,19 30,39 57,39 33,0 42,-39 75,-39 10,0 14,10 24,10 20,0 16,-26 24,-44 9,-18 22,-41 39,-33 14,7 -7,24 -7,40 0,35 15,76 50,76 34,0 31,-59 65,-59 15,0 24,10 39,10 18,0 27,-11 44,-16 24,-8 41,-10 67,-10 10,0 23,3 23,13 0,10 -12,11 -21,15 -13,5 -23,6 -37,7 -24,1 -37,11 -60,18 -23,7 -40,4 -57,21 -13,13 -14,34 -32,34 -13,0 -20,-7 -33,-10 -21,-5 -35,-3 -55,-8 -33,-9 -51,-20 -85,-20 -25,0 -41,6 -60,21 -11,9 -26,13 -26,28 0,13 15,15 23,26 18,24 26,40 42,65 21,32 33,67 70,67l35 0c7,0 9,6 15,10 18,10 30,15 50,15 24,0 25,-31 42,-47 10,-9 20,-13 34,-13 7,0 11,3 18,3 15,0 13,-20 16,-34 4,-15 11,-23 23,-33 22,-18 29,-41 57,-46 27,-4 44,-2 68,-15 24,-12 11,-55 37,-55 14,0 20,10 33,15 13,5 29,7 29,21 0,8 -9,9 -15,15 -9,9 -18,10 -28,16 -10,6 -11,20 -23,20l-32 0c-26,0 -38,16 -62,26 -29,12 -64,18 -64,49 0,13 16,16 16,29 0,10 -10,15 -7,24 2,6 10,2 17,2 29,0 50,-14 65,-39 10,-17 15,-37 34,-37 9,0 10,11 15,20 14,24 64,0 65,28 2,40 -71,7 -94,39 -10,13 0,27 -7,42 -6,15 -22,18 -39,18 -49,0 -77,-10 -126,-10 -31,0 -46,16 -77,16 -22,0 -33,-15 -55,-15 -13,0 -27,7 -27,20 0,18 15,24 24,39 11,19 11,33 15,55 5,34 -1,55 15,86 5,11 4,28 16,28 16,0 24,-10 39,-13 26,-5 48,-9 64,-31 26,-35 52,-145 52,-101l0 72c0,31 58,11 67,42 2,5 -8,7 -13,7l-55 0c-22,0 -35,7 -54,18 -8,5 -11,13 -21,15 -28,5 -68,-2 -68,26 0,12 12,17 16,28 11,28 5,47 16,75 7,18 23,19 39,29 28,19 42,43 42,77 0,14 -10,22 -10,36 0,13 7,20 15,31 16,21 14,41 31,62 24,31 38,64 77,64l33 0c7,0 17,2 15,8 -7,17 -26,15 -44,15l-37 0c-7,0 -2,10 -2,17 0,12 13,15 21,24 15,15 20,26 34,41 23,25 33,43 60,62 22,15 35,24 62,29 28,6 72,-12 72,16l0 13 -42 0c-22,0 -33,-13 -54,-13 -3,0 -8,0 -8,3l0 26c0,20 25,19 41,32 19,16 21,32 29,55 2,6 10,2 16,2 11,0 11,-21 22,-18 24,7 25,32 33,55 3,9 12,9 20,13 15,7 24,11 39,20 20,11 28,26 51,26l24 0c21,0 -15,-49 5,-54l7 -2c27,-7 49,26 47,54 -1,16 -26,16 -26,32 0,26 22,45 48,45 17,0 24,-19 25,-36 2,-21 2,-35 16,-50 5,-5 9,10 9,18 0,21 0,32 0,53 0,13 12,22 25,22 21,0 44,-11 44,-32 0,-36 -23,-53 -23,-89 0,-19 19,-25 21,-44 6,-51 -6,-86 21,-130 5,-9 10,14 10,24l0 72c0,17 7,26 11,42 4,14 2,34 16,34 15,0 15,-19 28,-28 18,-13 47,-44 52,-23l2 7c8,31 -20,51 -46,68 -22,15 -50,22 -50,50 0,20 26,24 46,24 15,0 24,5 40,5 31,0 53,4 79,-13 14,-9 15,-24 15,-41 0,-13 -5,-21 -5,-34 0,-3 3,-5 7,-5 11,0 28,3 26,15l-5 23 0 18 31 0c30,0 36,-30 57,-50 8,-8 17,-8 28,-13 18,-8 24,-23 44,-26 3,0 2,4 2,7 0,16 -15,22 -15,38l0 13 14 0c22,0 33,-13 56,-15 11,-1 18,-2 29,-3 9,-1 21,-1 21,-10l0 -13c0,-9 -13,-7 -20,-13 -9,-9 -20,-14 -20,-27 0,-24 36,-10 57,-20 9,-5 10,-13 15,-21 9,-15 21,-22 21,-39 0,-21 -10,-33 -10,-54 0,-21 5,-32 10,-52 4,-17 3,-36 20,-42 7,-3 9,10 9,18 1,40 0,62 0,102 0,34 -12,53 -12,87 0,10 15,11 16,21 2,9 -6,17 0,24 5,6 12,-2 20,-1 29,2 43,21 72,21l27 0c5,0 2,-7 2,-11 0,-26 -21,-36 -24,-62 -5,-42 0,-68 -13,-107 -7,-21 -16,-32 -23,-54 -7,-21 -1,-35 -10,-55 -22,-53 -63,-83 -49,-138l5 -20 0 -36c0,-23 13,34 20,55 7,23 15,36 23,59 9,26 21,39 41,57 13,12 29,19 29,37l0 37c0,20 -7,30 -7,49 0,39 15,60 15,99 0,18 2,35 18,43 32,18 56,11 92,11 28,0 45,1 71,-10 14,-6 28,-13 28,-28 0,-13 -11,-18 -18,-29 -18,-30 -24,-53 -24,-88 0,-10 1,-16 1,-26 0,-15 -15,-20 -19,-34 -4,-13 -2,-21 -2,-34 0,-24 -1,-64 21,-57 22,7 1,39 15,57 7,10 20,13 20,26 0,16 -11,23 -11,39 0,15 11,22 16,36 15,42 -1,82 34,111 24,19 3,-66 33,-70 19,-2 9,41 28,41 18,0 25,-16 42,-16 11,0 18,7 29,7 9,0 16,-7 16,-16 0,-27 -8,-42 -8,-68 0,-8 6,-12 11,-18 11,-13 11,-26 11,-44 0,-16 -21,-14 -31,-26 -24,-28 -46,-48 -44,-85 1,-11 15,8 23,15 25,20 30,44 59,59 28,15 64,16 64,47 0,12 -5,18 -5,30 0,19 24,24 24,43 0,16 -22,16 -38,16l-37 0c-31,0 -16,47 -21,78 -3,20 -24,25 -28,46 -1,3 5,3 8,3 39,0 55,-36 94,-36 15,0 24,10 39,10 11,0 23,-8 23,-20 0,-17 -5,-26 -5,-43l0 -40c0,-23 15,-34 15,-57l0 -36c0,-6 2,-13 8,-13 18,0 22,24 39,24l40 0 2 7c6,26 -64,1 -64,28 0,14 24,17 20,31l-10 32c-4,12 21,0 34,0 26,0 40,-13 66,-13 11,0 25,3 25,15 0,17 -21,20 -37,23 -27,5 -62,5 -62,33l0 15c0,34 52,-2 85,-2l74 0c30,0 48,-31 48,-61 0,-20 -8,-30 -7,-50 0,-2 4,-2 6,-2 12,0 15,11 22,21 11,17 20,33 41,33 27,0 37,-26 64,-26 18,0 26,18 44,18 25,0 34,-22 59,-26 78,-14 122,-26 201,-26 83,0 149,60 213,7l10 -8z"/>
  <polygon class="fil2 str1" points="1636,16698 4979,16698 4979,18291 1636,18291 "/>
  <path class="fil3" d="M1253 18191c0,-17 4,-34 13,-51 9,-17 22,-30 38,-39 17,-9 34,-14 52,-14 18,0 35,5 52,14 17,9 29,22 39,38 9,17 14,34 14,52 0,18 -5,35 -14,52 -9,17 -22,29 -39,39 -17,9 -34,14 -52,14 -18,0 -35,-5 -52,-14 -17,-9 -30,-22 -38,-39 -9,-17 -13,-34 -13,-51zm17 0c0,15 4,29 11,43 7,14 18,25 32,32 14,8 28,12 43,12 15,0 29,-4 43,-12 14,-8 24,-18 32,-32 8,-14 12,-28 12,-43 0,-15 -4,-29 -12,-43 -8,-14 -18,-25 -32,-32 -14,-8 -28,-11 -43,-11 -15,0 -30,4 -43,12 -14,8 -25,19 -32,32 -7,14 -11,28 -11,43zm104 -33l5 -17c12,3 21,9 28,18 7,9 10,20 10,33 0,16 -5,29 -16,39 -10,10 -25,15 -44,15 -12,0 -23,-2 -32,-7 -9,-5 -16,-11 -20,-20 -5,-9 -7,-18 -7,-29 0,-12 3,-22 9,-30 6,-8 14,-14 24,-17l4 16c-7,3 -12,7 -16,12 -4,5 -6,12 -6,19 0,11 4,19 11,26 8,7 18,10 32,10 14,0 25,-3 32,-10 7,-6 11,-15 11,-25 0,-8 -2,-16 -7,-22 -5,-6 -11,-10 -20,-12z"/>
  <path id="1" class="fil3" d="M1459 17896l-19 0c14,9 22,23 22,41 0,12 -3,22 -10,32 -6,10 -15,17 -27,23 -12,5 -25,8 -40,8 -15,0 -28,-2 -40,-7 -12,-5 -21,-12 -27,-22 -6,-10 -10,-21 -10,-33 0,-9 2,-17 6,-24 4,-7 9,-12 15,-17l-73 0 0 -25 202 0 0 23zm-73 78c19,0 33,-4 42,-12 9,-8 14,-17 14,-28 0,-11 -4,-20 -13,-28 -9,-8 -22,-11 -41,-11 -20,0 -35,4 -44,12 -9,8 -14,17 -14,29 0,11 4,20 13,28 9,7 23,11 42,11z"/>
  <polygon id="2" class="fil3" points="1398,17844 1373,17844 1373,17767 1398,17767 "/>
  <path id="3" class="fil3" d="M1459 17740l-146 0 0 -22 21 0c-7,-5 -13,-11 -17,-18 -4,-8 -7,-16 -7,-26 0,-11 2,-20 7,-27 5,-7 11,-12 19,-15 -17,-12 -26,-27 -26,-45 0,-15 4,-26 12,-34 8,-8 20,-12 37,-12l100 0 0 25 -92 0c-10,0 -17,1 -21,2 -4,2 -8,5 -11,9 -3,4 -4,9 -4,15 0,10 3,19 10,26 7,7 18,10 33,10l85 0 0 25 -95 0c-11,0 -19,2 -25,6 -6,4 -8,11 -8,20 0,7 2,13 6,19 4,6 9,10 16,13 7,3 17,4 31,4l76 0 0 25z"/>
  <path id="4" class="fil3" d="M1440 17409c8,9 13,18 17,27 3,9 5,18 5,27 0,16 -4,28 -12,37 -8,9 -18,13 -30,13 -7,0 -14,-2 -20,-5 -6,-3 -11,-8 -14,-13 -4,-5 -6,-11 -8,-18 -1,-5 -2,-12 -4,-22 -2,-20 -5,-35 -9,-44 -3,0 -6,0 -6,0 -10,0 -17,2 -21,7 -6,6 -8,16 -8,28 0,12 2,20 6,26 4,6 11,10 22,12l-3 24c-10,-2 -19,-6 -25,-11 -6,-5 -11,-12 -15,-22 -3,-10 -5,-21 -5,-33 0,-13 1,-23 4,-31 3,-8 7,-14 11,-17 4,-4 10,-6 17,-8 4,-1 12,-1 23,-1l33 0c23,0 38,-1 44,-2 6,-1 12,-3 18,-6l0 26c-5,3 -11,4 -18,5zm-55 2c4,9 7,23 9,41 1,10 3,17 5,22 2,4 5,7 8,10 4,2 7,3 12,3 7,0 12,-2 16,-8 4,-5 7,-12 7,-22 0,-10 -2,-18 -6,-26 -4,-7 -10,-13 -17,-16 -6,-3 -14,-4 -25,-4l-9 0z"/>
  <path id="5" class="fil3" d="M1515 17348l-203 0 0 -23 19 0c-7,-5 -13,-11 -17,-18 -4,-7 -6,-15 -6,-24 0,-13 3,-24 10,-33 6,-10 15,-17 27,-22 12,-5 25,-7 38,-7 15,0 28,3 40,8 12,5 21,13 28,23 6,10 10,21 10,32 0,8 -2,16 -5,22 -3,7 -8,12 -13,16l71 0 0 25zm-129 -23c19,0 33,-4 42,-11 9,-8 13,-17 13,-28 0,-11 -5,-20 -14,-28 -9,-8 -24,-12 -43,-12 -19,0 -33,4 -42,11 -9,8 -14,17 -14,27 0,11 5,20 15,28 10,8 24,12 43,12z"/>
  <path id="6" class="fil3" d="M1415 17201l-4 -25c10,-1 17,-5 23,-12 5,-6 8,-15 8,-26 0,-11 -2,-20 -7,-25 -5,-6 -10,-8 -16,-8 -6,0 -10,3 -13,7 -2,3 -5,12 -8,25 -5,18 -9,31 -12,38 -3,7 -8,12 -14,16 -6,4 -12,5 -20,5 -7,0 -13,-2 -18,-4 -6,-3 -10,-7 -14,-12 -3,-4 -5,-9 -7,-16 -2,-7 -3,-14 -3,-21 0,-11 2,-22 5,-30 3,-9 8,-15 13,-19 6,-4 13,-7 23,-9l3 24c-8,1 -14,4 -18,10 -4,5 -6,13 -6,22 0,11 2,19 6,24 4,5 8,7 13,7 3,0 6,-1 9,-3 3,-2 5,-5 7,-10 1,-3 3,-10 6,-22 5,-18 9,-30 11,-37 3,-7 7,-12 13,-16 6,-4 13,-6 21,-6 8,0 16,2 23,7 7,5 13,12 17,21 4,9 6,19 6,31 0,19 -4,34 -12,44 -8,10 -20,16 -35,19z"/>
  <polygon id="7" class="fil3" points="1459,17043 1431,17043 1431,17015 1459,17015 "/>
  <path id="8" class="fil3" d="M1405 16876l3 -24c17,3 30,9 39,20 9,11 14,24 14,40 0,20 -7,36 -20,48 -13,12 -32,18 -56,18 -16,0 -30,-3 -41,-8 -12,-5 -21,-13 -27,-24 -6,-11 -9,-22 -9,-35 0,-16 4,-29 12,-39 8,-10 19,-17 34,-19l4 24c-10,2 -17,6 -22,12 -5,6 -7,13 -7,21 0,13 4,23 13,31 9,8 23,12 42,12 20,0 34,-4 43,-11 9,-8 13,-17 13,-29 0,-10 -3,-18 -9,-24 -6,-7 -15,-11 -27,-12z"/>
  <path id="9" class="fil3" d="M1385 16840c-27,0 -47,-8 -60,-23 -11,-13 -16,-28 -16,-46 0,-20 7,-37 20,-49 13,-13 31,-19 55,-19 19,0 34,3 44,8 11,6 19,14 25,25 6,11 9,23 9,35 0,21 -7,37 -20,50 -13,13 -32,19 -57,19zm0 -25c19,0 33,-4 42,-12 9,-8 14,-19 14,-31 0,-12 -5,-23 -14,-31 -9,-8 -24,-12 -43,-12 -18,0 -32,4 -41,12 -9,8 -14,18 -14,31 0,12 5,23 14,31 9,8 23,12 42,12z"/>
  <path id="10" class="fil3" d="M1459 16673l-146 0 0 -22 21 0c-7,-5 -13,-11 -17,-18 -4,-8 -7,-16 -7,-26 0,-11 2,-20 7,-27 5,-7 11,-12 19,-15 -17,-12 -26,-27 -26,-45 0,-15 4,-26 12,-34 8,-8 20,-12 37,-12l100 0 0 25 -92 0c-10,0 -17,1 -21,2 -4,2 -8,5 -11,9 -3,4 -4,9 -4,15 0,10 3,19 10,26 7,7 18,10 33,10l85 0 0 25 -95 0c-11,0 -19,2 -25,6 -6,4 -8,11 -8,20 0,7 2,13 6,19 4,6 9,10 16,13 7,3 17,4 31,4l76 0 0 25z"/>
  <g id="_2395619639696">
   <g>
    <polygon class="fil4 str2" points="1774,17307 2728,17307 2728,17407 1774,17407 "/>
    <polygon class="fil5 str2" points="2728,17307 3683,17307 3683,17407 2728,17407 "/>
    <polygon class="fil4 str2" points="3683,17307 4637,17307 4637,17407 3683,17407 "/>
    <polygon class="fil4 str2" points="3304,17606 4830,17606 4830,17705 3304,17705 "/>
    <polygon class="fil5 str2" points="1777,17606 3304,17606 3304,17705 1777,17705 "/>
   </g>
   <path class="fil6" d="M2695 16942c7,-16 15,-28 25,-37 10,-9 23,-13 38,-13 19,0 33,6 43,18 8,9 11,19 11,29 0,17 -11,35 -32,53 14,6 25,14 33,24 7,10 11,23 11,37 0,20 -6,38 -19,53 -17,19 -41,29 -73,29 -16,0 -26,-2 -32,-6 -6,-4 -9,-8 -9,-13 0,-3 1,-6 4,-9 3,-3 6,-4 10,-4 3,0 6,0 9,1 2,1 6,3 13,6 7,4 12,6 14,7 4,1 9,2 14,2 12,0 22,-5 31,-14 9,-9 13,-20 13,-32 0,-9 -2,-18 -6,-27 -3,-6 -6,-11 -10,-15 -5,-5 -12,-9 -20,-13 -9,-4 -17,-6 -26,-6l-6 0 0 -5c9,-1 18,-4 27,-10 9,-5 16,-12 20,-19 4,-8 6,-16 6,-25 0,-12 -4,-21 -11,-29 -7,-7 -17,-11 -28,-11 -18,0 -33,10 -45,29l-6 -3z"/>
   <path id="1" class="fil6" d="M2867 17016c0,-27 4,-50 12,-69 8,-19 19,-34 32,-43 10,-7 21,-11 32,-11 18,0 34,9 48,27 18,23 27,53 27,92 0,27 -4,50 -12,69 -8,19 -18,33 -30,41 -12,9 -24,13 -35,13 -22,0 -41,-13 -56,-39 -13,-22 -19,-49 -19,-80zm34 4c0,32 4,58 12,79 7,17 16,26 29,26 6,0 13,-3 19,-8 7,-6 12,-15 15,-28 5,-20 8,-48 8,-83 0,-27 -3,-49 -8,-67 -4,-13 -9,-23 -16,-28 -5,-4 -10,-6 -17,-6 -8,0 -15,4 -21,11 -8,10 -14,24 -17,45 -3,20 -4,41 -4,60z"/>
   <path id="2" class="fil6" d="M3043 17016c0,-27 4,-50 12,-69 8,-19 19,-34 32,-43 10,-7 21,-11 32,-11 18,0 34,9 48,27 18,23 27,53 27,92 0,27 -4,50 -12,69 -8,19 -18,33 -30,41 -12,9 -24,13 -35,13 -22,0 -41,-13 -56,-39 -13,-22 -19,-49 -19,-80zm34 4c0,32 4,58 12,79 7,17 16,26 29,26 6,0 13,-3 19,-8 7,-6 12,-15 15,-28 5,-20 8,-48 8,-83 0,-27 -3,-49 -8,-67 -4,-13 -9,-23 -16,-28 -5,-4 -10,-6 -17,-6 -8,0 -15,4 -21,11 -8,10 -14,24 -17,45 -3,20 -4,41 -4,60z"/>
   <path id="3" class="fil6" d="M3353 16886l0 157 40 -37c9,-8 13,-13 15,-15 1,-1 1,-3 1,-4 0,-2 -1,-4 -3,-6 -2,-2 -5,-3 -9,-3l0 -6 69 0 0 6c-9,0 -17,2 -23,4 -6,3 -13,7 -21,14l-41 37 40 51c11,14 19,23 23,27 6,5 10,9 15,10 3,1 8,2 15,2l0 6 -77 0 0 -6c4,0 7,-1 9,-2 2,-1 2,-3 2,-5 0,-3 -2,-7 -7,-13l-48 -62 0 52c0,10 1,17 2,20 1,3 3,5 6,7 3,1 8,2 17,2l0 6 -80 0 0 -6c8,0 14,-1 18,-3 2,-1 4,-3 5,-6 2,-4 3,-10 3,-20l0 -144c0,-18 0,-29 -1,-33 -1,-4 -2,-7 -4,-8 -2,-2 -4,-2 -7,-2 -2,0 -6,1 -11,3l-3 -6 47 -19 8 0z"/>
   <path id="4" class="fil6" d="M3530 17002c11,-12 18,-18 20,-20 5,-4 11,-8 17,-10 6,-2 12,-4 18,-4 10,0 18,3 25,9 7,6 12,14 14,25 12,-14 22,-23 30,-27 8,-4 17,-6 25,-6 8,0 16,2 22,6 6,4 12,11 15,21 3,7 4,17 4,31l0 68c0,10 1,17 2,20 1,2 3,5 6,6 3,2 8,3 15,3l0 6 -77 0 0 -6 3 0c7,0 12,-1 16,-4 3,-2 5,-5 6,-9 0,-2 1,-7 1,-17l0 -68c0,-13 -2,-22 -5,-27 -5,-7 -12,-11 -22,-11 -6,0 -12,2 -18,5 -6,3 -14,9 -22,17l0 2 1 7 0 75c0,11 1,17 2,20 1,3 3,5 7,7 3,2 9,3 17,3l0 6 -79 0 0 -6c9,0 15,-1 18,-3 3,-2 5,-5 7,-9 1,-2 1,-8 1,-17l0 -68c0,-13 -2,-22 -6,-28 -5,-7 -12,-11 -21,-11 -6,0 -12,2 -18,5 -9,5 -17,11 -22,17l0 85c0,10 1,17 2,20 1,3 4,5 6,7 3,2 8,2 17,2l0 6 -78 0 0 -6c7,0 12,-1 15,-2 3,-2 5,-4 7,-7 1,-3 2,-10 2,-20l0 -60c0,-17 -1,-28 -2,-34 -1,-4 -2,-6 -4,-8 -2,-1 -4,-2 -7,-2 -3,0 -7,1 -12,3l-3 -6 48 -19 7 0 0 34z"/>
   <path class="fil6" d="M3003 18056l-16 45 -138 0 0 -6c41,-37 69,-67 86,-91 17,-23 25,-45 25,-64 0,-15 -5,-27 -14,-37 -9,-10 -20,-14 -33,-14 -12,0 -22,3 -31,10 -9,7 -16,16 -20,29l-6 0c3,-21 10,-37 22,-49 12,-11 27,-17 45,-17 19,0 35,6 48,18 13,12 19,27 19,43 0,12 -3,24 -8,36 -8,19 -22,38 -41,59 -29,31 -46,50 -53,56l60 0c12,0 21,0 26,-1 5,-1 9,-3 13,-6 4,-3 7,-7 10,-12l7 0z"/>
   <path id="1" class="fil6" d="M3030 17985c0,-27 4,-50 12,-69 8,-19 19,-34 32,-43 10,-7 21,-11 32,-11 18,0 34,9 48,27 18,23 27,53 27,92 0,27 -4,50 -12,69 -8,19 -18,33 -30,41 -12,9 -24,13 -35,13 -22,0 -41,-13 -56,-39 -13,-22 -19,-49 -19,-80zm34 4c0,32 4,58 12,79 7,17 16,26 29,26 6,0 13,-3 19,-8 7,-6 12,-15 15,-28 5,-20 8,-48 8,-83 0,-27 -3,-49 -8,-67 -4,-13 -9,-23 -16,-28 -5,-4 -10,-6 -17,-6 -8,0 -15,4 -21,11 -8,10 -14,24 -17,45 -3,20 -4,41 -4,60z"/>
   <path id="2" class="fil6" d="M3207 17985c0,-27 4,-50 12,-69 8,-19 19,-34 32,-43 10,-7 21,-11 32,-11 18,0 34,9 48,27 18,23 27,53 27,92 0,27 -4,50 -12,69 -8,19 -18,33 -30,41 -12,9 -24,13 -35,13 -22,0 -41,-13 -56,-39 -13,-22 -19,-49 -19,-80zm34 4c0,32 4,58 12,79 7,17 16,26 29,26 6,0 13,-3 19,-8 7,-6 12,-15 15,-28 5,-20 8,-48 8,-83 0,-27 -3,-49 -8,-67 -4,-13 -9,-23 -16,-28 -5,-4 -10,-6 -17,-6 -8,0 -15,4 -21,11 -8,10 -14,24 -17,45 -3,20 -4,41 -4,60z"/>
   <path id="3" class="fil6" d="M3517 17972c11,-12 18,-18 20,-20 5,-4 11,-8 17,-10 6,-2 12,-4 18,-4 10,0 18,3 25,9 7,6 12,14 14,25 12,-14 22,-23 30,-27 8,-4 17,-6 25,-6 8,0 16,2 22,6 6,4 12,11 15,21 3,7 4,17 4,31l0 68c0,10 1,17 2,20 1,2 3,5 6,6 3,2 8,3 15,3l0 6 -77 0 0 -6 3 0c7,0 12,-1 16,-4 3,-2 5,-5 6,-9 0,-2 1,-7 1,-17l0 -68c0,-13 -2,-22 -5,-27 -5,-7 -12,-11 -22,-11 -6,0 -12,2 -18,5 -6,3 -14,9 -22,17l0 2 1 7 0 75c0,11 1,17 2,20 1,3 3,5 7,7 3,2 9,3 17,3l0 6 -79 0 0 -6c9,0 15,-1 18,-3 3,-2 5,-5 7,-9 1,-2 1,-8 1,-17l0 -68c0,-13 -2,-22 -6,-28 -5,-7 -12,-11 -21,-11 -6,0 -12,2 -18,5 -9,5 -17,11 -22,17l0 85c0,10 1,17 2,20 1,3 4,5 6,7 3,2 8,2 17,2l0 6 -78 0 0 -6c7,0 12,-1 15,-2 3,-2 5,-4 7,-7 1,-3 2,-10 2,-20l0 -60c0,-17 -1,-28 -2,-34 -1,-4 -2,-6 -4,-8 -2,-1 -4,-2 -7,-2 -3,0 -7,1 -12,3l-3 -6 48 -19 7 0 0 34z"/>
   <path id="4" class="fil6" d="M3784 17856c5,0 9,2 12,5 3,3 5,8 5,12 0,5 -2,9 -5,12 -3,3 -8,5 -12,5 -5,0 -9,-2 -12,-5 -3,-3 -5,-8 -5,-12 0,-5 2,-9 5,-12 3,-3 8,-5 13,-5zm14 83l0 127c0,10 1,16 2,20 1,3 4,6 6,7 3,2 8,2 15,2l0 6 -77 0 0 -6c8,0 13,-1 15,-2 3,-1 5,-4 6,-7 2,-3 2,-10 2,-20l0 -61c0,-17 -1,-28 -2,-33 -1,-4 -2,-6 -4,-8 -2,-1 -4,-2 -7,-2 -3,0 -7,1 -12,3l-2 -6 47 -19 8 0z"/>
  </g>
  <polygon class="fil7 str3" points="1040,1050 28662,1050 28662,18521 1040,18521 "/>
  <g id="_2395619637360">
   <polygon class="fil2 str1" points="5110,16695 5926,16695 5926,18288 5110,18288 "/>
   <path class="fil8" d="M5458 17131c-1,3 -2,6 -2,9 0,3 -1,5 -1,7 0,6 2,10 5,12 3,2 10,3 18,3l4 0 -5 23 -78 0 5 -23 3 0c7,0 13,-2 16,-5 4,-3 6,-8 8,-16l38 -154c1,-3 1,-6 2,-8 0,-3 1,-6 1,-9 0,-5 -2,-9 -6,-11 -4,-2 -11,-3 -20,-3l-3 0 5 -23 72 0 62 184 31 -129c1,-4 2,-8 2,-10 0,-3 1,-5 1,-6 0,-6 -2,-10 -5,-12 -4,-2 -10,-3 -18,-3l-4 0 5 -23 79 0 -6 23 -3 0c-7,0 -13,2 -16,5 -4,3 -6,8 -8,16l-51 208 -22 0 -72 -209 -37 155z"/>
   <line class="fil9 str4" x1="5519" y1="18154" x2="5519" y2= "17385" />
   <line class="fil9 str4" x1="5237" y1="17878" x2="5800" y2= "17878" />
   <line class="fil9 str4" x1="5374" y1="18018" x2="5668" y2= "17732" />
   <line class="fil9 str4" x1="5371" y1="17731" x2="5669" y2= "18020" />
   <line class="fil9 str4" x1="5519" y1="17388" x2="5423" y2= "17506" />
   <line class="fil9 str4" x1="5519" y1="17388" x2="5607" y2= "17506" />
  </g>
  <g id="_2395619634480">
   <polygon class="fil2 str1" points="8290,17818 8290,18292 6426,18292 6426,17818 "/>
   <path class="fil8" d="M7482 18157l78 -202 29 0 82 202 -30 0 -23 -61 -85 0 -22 61 -28 0zm58 -83l69 0 -21 -56c-6,-17 -11,-31 -14,-42 -3,13 -7,26 -11,39l-22 59z"/>
   <path id="1" class="fil8" d="M7689 17983l0 -28 25 0 0 28 -25 0zm0 174l0 -146 25 0 0 146 -25 0z"/>
   <path id="2" class="fil8" d="M7806 18134l3 22c-7,1 -13,2 -19,2 -9,0 -16,-1 -21,-4 -5,-3 -8,-7 -10,-11 -2,-5 -3,-14 -3,-29l0 -84 -18 0 0 -19 18 0 0 -36 25 -15 0 51 25 0 0 19 -25 0 0 86c0,7 0,12 1,14 1,2 2,4 4,5 2,1 5,2 8,2 3,0 6,0 11,-1z"/>
   <path id="3" class="fil8" d="M7821 18083c0,-27 8,-47 23,-60 13,-11 28,-16 46,-16 20,0 37,7 49,20 13,13 19,31 19,55 0,19 -3,34 -8,44 -6,11 -14,19 -25,25 -11,6 -23,9 -35,9 -21,0 -37,-7 -50,-20 -13,-13 -19,-32 -19,-57zm25 0c0,19 4,33 12,42 8,9 19,14 31,14 12,0 23,-5 31,-14 8,-9 12,-24 12,-43 0,-18 -4,-32 -12,-41 -8,-9 -18,-14 -31,-14 -12,0 -23,5 -31,14 -8,9 -12,23 -12,42z"/>
   <path id="4" class="fil8" d="M7993 18157l0 -127 -22 0 0 -19 22 0 0 -16c0,-10 1,-17 3,-22 2,-6 7,-12 13,-16 6,-4 14,-6 25,-6 7,0 15,1 23,3l-4 22c-5,-1 -10,-1 -15,-1 -8,0 -13,2 -16,5 -3,3 -5,9 -5,18l0 13 29 0 0 19 -28 0 0 127 -25 0z"/>
   <path id="5" class="fil8" d="M8067 18157l0 -127 -22 0 0 -19 22 0 0 -16c0,-10 1,-17 3,-22 2,-6 7,-12 13,-16 6,-4 14,-6 25,-6 7,0 15,1 23,3l-4 22c-5,-1 -10,-1 -15,-1 -8,0 -13,2 -16,5 -3,3 -5,9 -5,18l0 13 29 0 0 19 -28 0 0 127 -25 0z"/>
   <circle class="fil10 str5" cx="6645" cy="18051" r="119"/>
   <rect class="fil10 str5" x="7103" y="17943" width="227" height="227"/>
   <g>
    <line class="fil9 str6" x1="6819" y1="18050" x2="7039" y2= "18050" />
    <line class="fil9 str6" x1="7036" y1="18051" x2="6972" y2= "18116" />
    <line class="fil9 str6" x1="7036" y1="18050" x2="6973" y2= "17989" />
   </g>
  </g>
 </g>
</svg>
