<?xml version="1.0" encoding="UTF-8"?>
<!DOCTYPE svg PUBLIC "-//W3C//DTD SVG 1.1//EN" "http://www.w3.org/Graphics/SVG/1.1/DTD/svg11.dtd">
<!-- Creator: CorelDRAW -->
<svg xmlns="http://www.w3.org/2000/svg" xml:space="preserve" width="210mm" height="297mm" version="1.1" style="shape-rendering:geometricPrecision; text-rendering:geometricPrecision; image-rendering:optimizeQuality; fill-rule:evenodd; clip-rule:evenodd"
viewBox="0 0 21000 29700"
 xmlns:xlink="http://www.w3.org/1999/xlink">
 <defs>
  <style type="text/css">
   <![CDATA[
    .str1 {stroke:black;stroke-width:10;stroke-miterlimit:3.864;stroke-opacity:0.501961}
    .str3 {stroke:black;stroke-width:50;stroke-miterlimit:22.9256}
    .str5 {stroke:#434242;stroke-width:10;stroke-miterlimit:22.9256}
    .str2 {stroke:#3F3E3F;stroke-width:10;stroke-miterlimit:3.864}
    .str0 {stroke:#000066;stroke-width:10;stroke-miterlimit:22.9256}
    .str6 {stroke:#2B2A29;stroke-width:7.62;stroke-miterlimit:22.9256}
    .str4 {stroke:black;stroke-width:7.62;stroke-miterlimit:22.9256}
    .fil7 {fill:none}
    .fil9 {fill:#D9DADA}
    .fil0 {fill:#A2D9F7}
    .fil1 {fill:white}
    .fil5 {fill:#FEFEFE;fill-rule:nonzero}
    .fil4 {fill:#D9DADA;fill-rule:nonzero}
    .fil8 {fill:#434242;fill-rule:nonzero}
    .fil6 {fill:#2B2A29;fill-rule:nonzero}
    .fil3 {fill:black;fill-rule:nonzero}
    .fil2 {fill:#FEFEFE;fill-rule:nonzero;fill-opacity:0.501961}
   ]]>
  </style>
 </defs>
 <g id="Plan_x0020_1">
  <metadata id="CorelCorpID_0Corel-Layer"/>
  <rect class="fil0" x="1000" y="1000" width="19000" height="21256.06"/>
  <path class="fil1 str0" d="M8971.62 22256.06l-23.12 -60.32c-10.41,-28.64 -14.61,-58.37 -14.61,-89.02 0,-28.12 25.59,-66.44 17.04,-90.24 -5.03,-13.98 -26,-15.47 -32.86,-29.26 -15.06,-30.22 -11.75,-63 -14.6,-96.34 6,-89.86 82.94,-218.48 122.9,-299.97l104.66 -213.4c24.3,-49.55 -6.09,-73.17 -6.09,-115.84 43.24,-21.7 54.76,-157.99 54.76,-201.21 0,-133.92 77.61,-27.3 128.99,-59.75 45.89,-28.97 67.08,-136.56 92.48,-186.57l206.87 -407.28c34.37,-67.68 38.27,-195.03 88.83,-249.98 21.62,-23.51 91.25,-69.83 99.78,-90.24 47.42,-27.67 36.79,-110.7 52.33,-158.52 25.55,-78.67 74.37,-75.74 -12.17,-97.55 0,-3.24 -0.31,-2.99 -3.65,-3.66 0,-101.43 58.94,-176.27 137.5,-234.13 75.48,-55.6 158.27,-16.19 242.16,-80.48 22.66,-17.37 104.6,-123.47 113.17,-125.6 93.33,-23.3 92.09,-87.89 182.53,-115.84 39.81,-12.31 62.83,-37.84 40.15,-78.05 -28.06,-49.72 42.53,3.04 82.75,-31.7 148.12,-111.31 262.34,-325.34 354.11,-484.11 94.45,-163.38 294.19,-293.32 366.28,-458.5l174.01 -223.15c40.7,-52.2 96.81,-94.99 141.15,-145.11l313.96 -354.85c40.35,-45.6 144.52,-179.69 194.7,-197.54 163.59,-92.4 306.41,-282.91 455.1,-403.63 135.16,-109.75 299.88,-240.9 452.68,-321.92 62.07,-32.9 228.87,-114.53 268.93,-164.62l548.8 -309.73c128.98,-72.79 212.48,-248.03 330.99,-347.53 73.16,-61.41 182.82,-130.66 228.77,-214.62 239.91,-277.52 553.79,-525.96 754.46,-832.86 170.39,-118.26 171.12,-305.44 294.48,-458.5 107.18,-132.97 287.4,-258.72 337.07,-428.01 49.23,-110.78 120.35,-208.08 167.93,-321.93 37.53,-89.78 46.28,-152.53 64.49,-248.76 11.96,-63.17 67.58,-145.05 104.65,-197.54 28.21,-39.93 141.22,-202.52 138.73,-242.66 112.9,-151.09 188.28,-311.65 257.97,-482.89 14.7,-36.11 -35.84,-76.67 2.44,-110.97l149.67 -134.13c74.52,-66.79 78.72,-127.51 133.86,-201.21 47.92,-29.97 75.05,-98.41 77.88,-151.2 2.79,-52.2 58.14,-156.69 86.39,-199.99 26.39,-40.47 67.88,-70.37 97.35,-109.74 42.08,-56.19 23.35,-89.82 80.32,-142.67 54.14,-50.21 97.34,-99.44 97.34,-174.38l-1.21 -1.22c-62.92,0 -24.8,-99.59 -17.04,-145.11 43.01,-129.05 44.23,-246.69 53.54,-379.24 7.33,-104.37 144.93,-123.11 225.12,-118.28 50.53,3.05 127.77,73.78 127.77,-30.49 0,-62.73 -175.43,-29.51 -181.31,-52.43 -21.3,-82.98 -21.71,-233.28 -21.71,-321.94 0,-63.45 41.56,-80.86 53.35,-128.02 -14.36,-4.78 -66.93,1.05 -66.93,-19.51 -10.89,-2.74 0,-64.23 0,-74.39 0,-34.19 1.95,-66.6 8.52,-98.77 16.35,-80.1 65.45,-114.36 91.27,-185.35l42.59 -117.06 0 -2.44c-83.89,0 -161.08,-12.6 -238.51,-37.8 -99.91,-32.51 -143.18,-78.46 -253.11,-17.08 -40.35,22.52 -53.05,101.88 -80.31,146.33 -35.66,58.12 -231.7,126.89 -299.35,148.77 -27.53,21.49 -176.72,26.68 -216.6,23.17 -101.7,-8.97 -111.14,33.3 -192.27,70.73 -117.07,54.03 -343.6,120.47 -464.84,69.5 -103.78,-43.62 -192.08,-15.31 -299.35,3.66 -98.82,36.04 -128.65,109.7 -242.16,114.63 -79.84,3.46 -218.81,21.24 -289.61,-18.3 -55.8,-31.17 -93.83,-46.56 -158.19,-19.51 -73.74,31 -185.37,79.17 -243.38,134.14 -31.4,29.76 -73.2,80.97 -118.03,86.58 -142.25,89.08 -296.24,150 -442.94,63.41 -41.39,-24.43 -95.1,-13.69 -142.38,-8.54 -69.62,7.58 -115.27,-60.97 -174.01,-60.97 -35.3,107.68 -240.62,143.89 -332.2,143.89 -15.29,45.89 -187.47,162.74 -239.72,169.5 -88.87,44.5 -317.1,51.5 -408.87,18.29 -110.79,-40.08 -224,-131.79 -305.44,-213.4 -47.76,-47.85 -164.59,-125.65 -184.96,-189.01 -69.94,-69.94 -91.54,-209.68 -158.82,-297.96 -35.33,-46.37 -85.06,-39.22 -133.76,-66.01 -33.9,-18.66 -39.37,-68.09 -77.74,-83.48 -59.87,-24.01 -156.33,-7.17 -230.81,15.78 -50.37,15.53 -176.38,139.7 -204.43,25.61l-3.65 -1.22c0,-5.13 1.83,-3.67 3.65,-7.32 16.27,0 89.43,-8.27 93.69,-25.6 39.59,-9.89 57.94,-119.68 115.61,-123.16 65.95,-3.97 125.88,-26.68 181.31,-62.19 38.53,-24.69 56.94,-60.28 102.22,-82.92 56.73,-28.35 109.71,-23.76 133.85,-96.34 18.52,-49.38 -26.41,-216.77 -63.28,-253.64 -80.8,-80.8 -121.89,-157.36 -181.31,-253.63 -36.98,-59.93 -74.03,-109.96 -119.25,-163.4 -12.09,-14.3 -95.56,0.22 -128.99,-17.08 -20.68,-14.79 -107.08,-101.45 -107.08,-123.16 -2.24,-0.56 -1.88,-0.2 -2.44,-2.44 -18.73,0 -102.5,62.77 -114.38,10.98 -10.29,-44.91 -18.21,-126.71 -38.94,-164.62 -16.83,-30.79 -29.5,-63.9 -52.33,-93.9 -35.13,-46.14 -88.17,-19.17 -121.68,-63.41 -31.18,-85.51 -143.88,-140.48 -215.39,-174.37 -92.2,-43.68 -143.86,-146.22 -197.13,-228.03 -33.55,-51.51 -91.93,-76.79 -128.99,-124.38 -17.28,-22.18 -16.08,-63.81 -29.2,-87.8 -20.57,-37.63 -50.32,-63.18 -76.67,-98.77 -48.29,-38.88 -110.49,-0.3 -154.54,-50 -33.18,-37.45 -117.68,19.14 -139.94,-53.65 -20.31,-66.38 -134.35,-233.55 -219.03,-173.16 -55.6,39.64 -92.93,115 -150.9,46.34 -57.26,-67.84 -102.63,-155.26 -85.18,-248.76 -9.68,-35.88 -40.55,-67.6 -74.23,-80.48 -19.59,-7.48 -76.87,-62.62 -79.09,-53.66 -107.69,26.92 -39.11,237.38 -55.98,304.86 -2.23,0.56 -1.88,0.21 -2.43,2.44 -3.85,0.96 -5.12,2.44 -9.74,2.44 -1.32,-4.04 -15.69,-7.95 -17.03,-13.42 -2.91,-0.72 -3.65,-1.89 -3.65,-4.88 -46.54,-13.22 -49.71,-259.5 -96.14,-306.07 -28.3,-28.37 -69.93,11.66 -96.13,-14.63 -20.18,-20.24 2.97,-85.03 -7.3,-115.85 -25.51,-76.58 -9.96,-73.52 -81.53,-126.81 -51.01,-37.99 -75.51,-185.67 -63.28,-251.2 0,-127.8 -70.73,-240.8 -85.18,-357.29 -11.6,-93.45 -57.85,-209.03 -81.53,-301.2 -12.99,-50.6 -71.55,-183.91 -60.84,-225.59 -12.88,-64.2 -82.82,-142.76 -113.17,-199.98 -39.74,-74.95 -91.19,-143.27 -130.2,-215.84l-68.15 -126.81c-29.49,-54.87 -117.66,-53.82 -155.76,-110.97 -26.04,15.72 -22.22,37.61 -36.5,60.97 -14.98,24.48 -51.52,-32.2 -57.2,-42.68 -16.83,-42.44 -17.03,-57.13 -17.03,-103.65 -49.01,-12.25 -61.89,-46.33 -96.13,-76.82 -34.26,-30.5 -69.28,-41 -98.57,-65.85 -22.39,-18.98 -31.84,-42.67 -51.11,-59.75 -32.53,-28.81 -80.26,-10.37 -121.69,-17.07 -153.2,-24.77 -140.1,-347.61 -181.31,-460.94 -8.1,-22.3 -40.3,-137.61 -36.51,-157.31 -40.32,-80.99 53.8,-179.5 -10.95,-262.17 -50.18,-64.08 -29.2,-183.72 -29.2,-264.61 0,-70.78 10,-101.78 25.55,-164.62 9.95,-40.19 -14.24,-77.92 -23.12,-114.63 -18.84,-69.74 -13.95,-140.44 -31.64,-207.3 -15.25,-57.67 -25.55,-108.19 -25.55,-168.28 29.92,7.51 71.33,138.8 103.43,102.43 38.2,-43.26 -0.9,-70.18 -23.12,-110.96 -58.29,-106.99 -218.51,-213.01 -222.68,-348.75 -21.38,-78.42 -19.47,-167.61 -19.47,-249.98 0,-106.81 -26.87,-99.79 -114.39,-146.33 -30.07,-15.99 -67.95,-66.53 -77.88,-96.34 -65.31,0 -160.06,-86.91 -186.48,-145.43 -63.14,-63.4 -103.56,-237.76 -222.54,-187.67 -161.98,68.18 -127.83,-87.33 -212.82,-155.99 -60.99,-49.26 -54.84,-101.08 -77.83,-171.83 -11.63,-35.82 -37.21,-58.6 -31.62,-99.91l-5630.41 0 0 21256.06 7971.62 0zm11028.38 -21256.06l-11192.79 0 80.26 158.41c6.37,65.81 -5.83,96.39 47.43,149.89 62.48,62.77 115.32,201.1 136.2,286.38 14.91,60.86 9.45,107.54 6.08,166.96 -1.17,20.78 -53.38,150.16 -68.1,160.86 -46.69,59.11 -34.8,29.25 -18.24,108.46 15.73,75.2 205.59,354.71 133.77,426.53 -34.64,34.64 -53.86,22.22 -19.46,81.65 30.23,52.25 50.35,112.74 79.04,166.96 26.06,49.23 108.31,122.23 117.97,165.74 58.25,102.17 225.41,356.09 333.2,397.28 179.77,68.68 407.44,148.88 504.68,324.16 -1.63,-0.91 -1.88,-1.81 -3.65,-1.22 2.42,12.12 26.77,52.2 35.27,59.71 28.23,24.91 25.3,-19.49 47.42,-19.49 10.72,42.72 76.62,74.12 76.62,116.99 -82.1,16.47 51.86,78.65 59.59,82.87 73.92,40.44 11.17,121.25 77.83,179.14 22.26,19.34 19.91,74.91 29.18,104.8 12.73,41.06 70.85,30.41 74.18,43.87 18.16,4.56 -20.04,85.89 -23.1,98.72 -11.42,47.89 19.72,71.95 58.37,81.65 5.42,21.51 4.49,63.64 -3.65,85.3 -3.4,36.3 8.16,107.24 52.29,107.24 56.79,0 42.48,-11.76 68.1,36.56 33.09,62.44 34.13,130.17 59.59,191.33 96.38,231.45 225.11,342.19 430.5,470.4 67.89,73.96 159.45,106.46 165.38,210.83 5.06,89.18 28.83,225.81 133.77,252.26 19.78,79.12 7.92,98.36 91.21,142.58 65.79,34.94 41.07,125.31 51.08,185.24 22.46,131.66 127.61,341.96 53.5,477.71 -21.14,38.71 -99.72,103.12 -99.72,138.93 0,63.16 75.4,119.94 75.4,185.24 7.62,40.85 16.94,85.02 4.87,121.86 -34.39,0 -19.02,-69.46 -55.94,-69.46 -5.41,26.97 4.71,81.65 -34.05,81.65 -1.6,-6.41 -12.17,-9.94 -12.17,-20.72 0,-13.58 4.87,-25.34 4.87,-37.78 16.57,-4.17 3.82,-80.85 1.21,-93.83 -2.7,-0.68 -2.43,-1 -2.43,-3.66l-1.21 -1.22c-7.77,0 -26.11,38.1 -32.84,46.31 -15.81,19.32 -40.42,72.52 -19.46,96.27 18.43,20.87 38.3,31.2 45,64.59 46.53,9.33 93.55,-19.33 139.85,10.97 50.39,32.96 28.45,81.29 46.21,129.18 12.39,17.92 37.68,65.22 30.4,88.96 -16.7,54.51 15.81,96.93 15.81,151.11 0,21.38 -16.5,41.5 -10.94,68.25 6.13,29.54 17.47,62.17 27.97,90.18 35.54,28.19 46.08,135.55 49.86,179.14 8.37,96.6 92.81,163.86 124.04,244.95 15.97,41.45 37.7,80.21 37.7,127.96 0,47.23 -24.33,96.03 -24.33,147.46 11.74,60.6 -6.88,112.61 8.52,175.48 33.16,135.41 144.71,196.53 144.71,352.19 -2.06,0.69 -1.21,3.61 -1.21,6.1 -1.31,0.43 -2.44,5.21 -2.44,7.31 -4.37,1.1 -2.47,4.87 -7.29,4.87 -0.56,2.24 -0.2,1.88 -2.44,2.44 -0.55,2.24 -0.2,1.88 -2.43,2.44 -1.88,7.64 -19.17,16.37 -26.75,18.28 -2.17,8.7 -6.08,14.11 -6.08,24.37 59.81,20.15 101.59,-33.59 145.93,-64.59 18.31,-12.79 106.83,35.36 132.55,41.44 104.69,24.75 56.55,81.41 186.06,52.4 98.81,-22.14 196.26,11.63 283.35,-58.5 84.48,-124.71 112.2,-54.34 206.74,-59.71 64,-3.64 127.68,100.08 127.68,-29.25 30.28,10.09 36.49,40.22 82.7,40.22 0,-159.75 101.71,-195.49 245.65,-204.74 21.96,-1.41 106.28,-138.53 132.55,-163.3 75.75,-71.44 153.54,-69.51 248.08,-101.15 177.72,-66.66 395.34,37.08 566.7,-38.99 93.35,-41.43 145.42,-50.5 240.78,-74.34 56.88,-14.21 193.46,-20.88 227.41,-75.56 37.59,2.35 94.23,-104.58 133.77,-127.96 59.96,-35.47 212.14,-136.48 278.49,-136.48 90.8,0 107.54,78.12 215.24,26.81 50.05,-23.85 79.33,8.88 125.26,-14.63 35.28,-18.05 81.67,4.58 117.96,-8.53 42.46,-15.35 123.34,-133.86 154.44,-171.83 17.04,-20.82 46.83,-36.51 68.1,-51.18 25.99,-17.94 13.9,-56.17 40.13,-79.22 8.46,-6.71 13.24,-18.18 21.89,-23.15l207.95 -113.33c69.17,-37.69 343.35,-166.04 418.34,-138.93 109.96,39.74 245.24,-69.22 344.15,-113.34 90.48,-18.6 169.44,-71.18 266.32,-84.08 80.8,-10.75 196.65,-50.75 276.05,-76.78l197.01 -64.59c65.46,-21.46 100.54,-68.18 166.6,-92.62 63.92,-23.64 115.2,-61.2 178.77,-90.18 39.64,-23.05 97.35,-37.81 141.07,-48.74 0,-196.28 -80.34,-298.79 59.58,-485.03 133.68,-177.95 537.48,-280.4 750.33,-318.07 84,-22.1 169.43,7.52 224.97,-73.12 34.36,-49.87 86.51,-51.18 142.29,-51.18 36.52,0 83.86,-41.6 107.01,-67.03 51.28,-56.3 323.74,-40.62 392.8,-14.62l57.09 43.87 0 -4729.58zm-10666.23 21256.06c-23.36,-55.96 -131.42,-101.49 -162.95,-151.4 -34.74,-54.97 -7.32,-143.16 -10.95,-207.18 -2.15,-37.84 55.48,-124.18 81.48,-147.45 31.29,-28.02 45.46,79.45 48.64,98.71 6.38,38.71 21.5,80.29 36.49,116.99 16.07,39.36 59.71,63.17 76.61,103.58 16.87,40.31 27.97,74.4 27.97,119.43l0 67.32 -97.29 0zm267.54 -782.67c25.04,-87.82 51.2,-195.8 30.4,-290.04 -6.89,-31.21 -29.68,-40.23 -60.8,-47.53 -34.92,-8.18 -47.62,-21.21 -58.37,12.19 -8.19,25.48 -6.9,59.18 -12.16,86.53 -5.14,26.67 -23.72,52.98 -29.19,80.43 -9.02,45.31 38.72,67.33 15.81,113.33 -15.57,31.24 -16.5,38.87 -47.43,58.5 -47.41,30.07 65.29,185.09 134.99,35.34l26.75 -48.75zm9984.07 -12663.05c-50.54,28.51 -110.74,-4.93 -169.04,40.22 -41.13,31.86 -77.82,-0.16 -109.45,-29.25 -40.65,-37.4 -139.55,-43.71 -188.49,-13.4 -44.96,27.86 -9.2,43.69 -30.4,75.55 -12.61,18.97 -69.65,26.58 -72.97,36.56 64.1,16.02 119.28,68.98 160.53,114.56 79.62,88 293.49,49.66 395.23,20.71 29.31,-8.33 290.23,-123.87 294.29,-140.14 -62.04,0 -158.67,-75.34 -221.33,-96.28l-58.37 -8.53zm-1259.87 336.96c-27.07,0 -65.85,-5.69 -89.99,-17.06 -10.38,-4.89 -60.5,-19.7 -68.1,-7.31 -10.27,16.72 53.12,34.88 62.02,37.17 29.4,7.57 52.45,24.45 83.91,25.59 14.91,0.54 29.08,5.58 43.17,1.83 27.82,-7.39 11.46,-24.95 -7.29,-36.56l-23.72 -3.66zm-6644.08 -1228.4c0,-26.41 -5.47,-53.07 -5.47,-79.22 0,-7.56 -8.61,-67.49 -19.46,-44.48 -7.89,16.75 -20.89,29.19 -32.84,42.66 -22.18,25.03 -5,35.01 12.77,54.23 14.86,16.09 8.43,48.77 40.13,40.82l4.87 -14.01zm-23.11 106.63c-10.18,0 -21.74,3.31 -30.4,8.53 -12.83,7.72 -10.1,21.79 -10.95,34.12 -0.44,6.31 -10.01,12.16 -13.37,18.28 -3.23,5.87 -4.26,11.1 -4.26,17.67 3.57,1.17 14.5,13.93 17.03,17.67 25.6,37.74 43.63,-72.37 45.6,-82.26l-3.65 -14.01zm-1703.13 -1381.35c-36.09,6.36 -72.39,-21.98 -90.59,-49.35 -10.55,-15.86 -37.14,-62.29 -51.08,-70.68 -9.22,-5.56 -54.02,-5.05 -64.45,-3.05 -15.57,3 -24.92,32.08 -38.92,42.65 -59.84,45.14 -28.36,46.71 -1.21,94.45 22.6,39.76 21.18,63.73 78.43,62.15l88.17 -2.44c33.21,-0.92 66.31,10.97 99.72,10.97 78.48,0 23.54,-40.42 -1.83,-74.34l-18.24 -10.36zm-114.31 -339.39c-6.75,12.62 -19.83,23.19 -34.05,28.03 -28.18,9.58 -45.68,0.18 -66.28,28.64 -9.58,13.23 -41.34,17.96 -37.09,35.95 3.2,13.59 26.11,26.21 37.7,31.68 11.78,5.55 21.42,13.95 34.66,8.53 8.22,-3.37 18.2,-6.16 25.54,-10.36 8.89,-5.1 22.2,-25.5 27.97,-34.73 9.02,-14.46 6.34,-35.8 14.59,-52.4l-3.04 -35.34zm1249.53 -491.12c-4.46,-10.42 -3.83,-26.9 -6.69,-38.39 -2.68,-10.81 -3.25,-20.53 -4.86,-31.68 -2.61,-18.14 -5.1,-19.91 -25.54,-17.06 -10.69,1.48 -33.63,-2.9 -29.19,14.62 5.9,23.25 24.92,42.09 30.41,65.2 2.19,9.2 5.23,16.28 13.37,21.93 10.7,7.44 13.6,23.63 25.54,3.66l-3.04 -18.28zm138.63 85.31c-6.47,-2 -14.88,-13.07 -20.06,-18.28 -4.91,-4.92 -23.12,-40.58 -32.84,-32.91 -6.45,5.1 13.72,31.55 16.42,39 2.63,7.29 4.4,14.5 1.83,22.54 -4,12.46 -2.23,26.29 4.86,36.56 11.67,16.93 28.03,14.36 33.44,-6.09l-3.65 -40.82zm-161.74 -29.86c-11.98,0 -26.83,-13.54 -36.48,-19.5 -12.28,-7.6 -20.48,-27.42 -35.26,-27.42 -3.38,13.76 51.12,60.34 63.23,72.51 9.86,9.9 28.62,18.28 42.56,18.28 30.32,0 -1.42,-20.52 -10.33,-26.2l-23.72 -17.67z"/>
  <path class="fil2 str1" d="M17049.76 20432.72l2354.62 0 0 1592.9 -2354.62 0 0 -1592.9z"/>
  <path class="fil3" d="M19583.11 21932.72c0,-17.45 4.47,-34.48 13.46,-51.13 8.93,-16.61 21.77,-29.59 38.43,-38.86 16.69,-9.26 34.1,-13.92 52.16,-13.92 17.92,0 35.18,4.56 51.69,13.74 16.56,9.12 29.4,21.92 38.53,38.43 9.17,16.51 13.73,33.77 13.73,51.74 0,18.01 -4.56,35.27 -13.73,51.78 -9.13,16.51 -21.97,29.35 -38.53,38.53 -16.51,9.17 -33.77,13.78 -51.69,13.78 -18.06,0 -35.47,-4.66 -52.16,-13.97 -16.66,-9.36 -29.5,-22.34 -38.43,-38.95 -8.99,-16.65 -13.46,-33.68 -13.46,-51.17zm17.22 0c0,14.62 3.76,28.88 11.24,42.7 7.48,13.83 18.2,24.65 32.13,32.46 13.92,7.81 28.41,11.71 43.46,11.71 15,0 29.35,-3.85 43.08,-11.52 13.74,-7.67 24.46,-18.39 32.13,-32.17 7.67,-13.79 11.52,-28.18 11.52,-43.18 0,-14.96 -3.85,-29.36 -11.52,-43.14 -7.67,-13.78 -18.39,-24.5 -32.13,-32.12 -13.73,-7.62 -28.08,-11.43 -43.08,-11.43 -15.05,0 -29.54,3.9 -43.46,11.66 -13.93,7.76 -24.65,18.58 -32.13,32.46 -7.48,13.87 -11.24,28.08 -11.24,42.57zm103.57 -33.35l5.08 -16.94c11.53,2.78 20.7,8.61 27.52,17.55 6.87,8.98 10.3,19.85 10.3,32.59 0,16.19 -5.22,29.31 -15.71,39.42 -10.49,10.11 -24.98,15.15 -43.55,15.15 -12.14,0 -22.68,-2.31 -31.61,-6.92 -8.99,-4.56 -15.71,-11.15 -20.28,-19.61 -4.56,-8.52 -6.82,-18.25 -6.82,-29.16 0,-12.23 2.92,-22.39 8.8,-30.48 5.88,-8.09 13.88,-13.6 23.94,-16.56l4.23 16.37c-6.91,2.77 -12.23,6.82 -15.89,12.23 -3.72,5.41 -5.55,11.71 -5.55,19 0,10.58 3.76,19.33 11.28,26.2 7.53,6.87 18.35,10.3 32.37,10.3 14.06,0 24.69,-3.24 31.89,-9.74 7.19,-6.49 10.81,-14.86 10.81,-25.16 0,-8.28 -2.39,-15.57 -7.24,-21.83 -4.8,-6.25 -11.33,-10.39 -19.57,-12.41z"/>
  <path id="1" class="fil3" d="M19788.57 21637.56l-18.58 0c14.44,9.27 21.68,22.91 21.68,40.92 0,11.67 -3.19,22.39 -9.64,32.13 -6.4,9.78 -15.38,17.35 -26.86,22.76 -11.52,5.37 -24.74,8.05 -39.69,8.05 -14.59,0 -27.8,-2.45 -39.7,-7.29 -11.86,-4.9 -20.98,-12.19 -27.29,-21.92 -6.35,-9.69 -9.5,-20.61 -9.5,-32.6 0,-8.84 1.88,-16.7 5.6,-23.56 3.72,-6.87 8.61,-12.47 14.58,-16.8l-72.67 0 0 -24.83 202.07 0 0 23.14zm-73.05 78.46c18.72,0 32.69,-3.95 41.96,-11.9 9.26,-7.91 13.87,-17.27 13.87,-28.04 0,-10.86 -4.42,-20.08 -13.26,-27.7 -8.84,-7.57 -22.34,-11.38 -40.5,-11.38 -19.94,0 -34.62,3.85 -43.98,11.61 -9.36,7.72 -14.01,17.27 -14.01,28.6 0,11.06 4.46,20.27 13.45,27.71 8.98,7.38 23.14,11.1 42.47,11.1z"/>
  <path id="2" class="fil3" d="M19727.89 21585.02l-24.83 0 0 -76.76 24.83 0 0 76.76z"/>
  <path id="3" class="fil3" d="M19788.57 21481.16l-146.47 0 0 -22.29 20.69 0c-7.15,-4.56 -12.93,-10.68 -17.26,-18.3 -4.37,-7.62 -6.54,-16.27 -6.54,-26.01 0,-10.82 2.26,-19.71 6.73,-26.62 4.52,-6.92 10.77,-11.81 18.86,-14.63 -17.07,-11.67 -25.59,-26.77 -25.59,-45.39 0,-14.58 4,-25.83 12.04,-33.63 8.05,-7.86 20.42,-11.81 37.12,-11.81l100.42 0 0 24.84 -92.19 0c-9.88,0 -17.03,0.84 -21.4,2.44 -4.38,1.6 -7.86,4.52 -10.54,8.8 -2.68,4.23 -4,9.22 -4,14.91 0,10.35 3.44,18.91 10.26,25.73 6.86,6.82 17.82,10.2 32.87,10.2l85 0 0 24.84 -95.06 0c-11.01,0 -19.29,2.02 -24.79,6.07 -5.5,4.04 -8.28,10.67 -8.28,19.85 0,6.96 1.84,13.4 5.51,19.33 3.66,5.93 9.03,10.21 16.13,12.89 7.05,2.63 17.26,3.95 30.57,3.95l75.92 0 0 24.83z"/>
  <path id="4" class="fil3" d="M19770.23 21150.4c7.85,9.22 13.35,18.11 16.6,26.62 3.25,8.52 4.84,17.64 4.84,27.43 0,16.08 -3.9,28.45 -11.75,37.11 -7.81,8.65 -17.83,12.98 -30.01,12.98 -7.15,0 -13.69,-1.65 -19.62,-4.89 -5.93,-3.29 -10.63,-7.57 -14.2,-12.84 -3.58,-5.32 -6.31,-11.24 -8.14,-17.88 -1.27,-4.89 -2.49,-12.27 -3.72,-22.1 -2.35,-20.04 -5.22,-34.86 -8.51,-44.31 -3.39,-0.1 -5.55,-0.14 -6.44,-0.14 -10.07,0 -17.17,2.35 -21.31,7.05 -5.6,6.35 -8.37,15.81 -8.37,28.32 0,11.71 2.07,20.36 6.16,25.92 4.09,5.59 11.38,9.68 21.78,12.37l-3.39 24.27c-10.4,-2.21 -18.82,-5.84 -25.21,-10.92 -6.4,-5.08 -11.29,-12.41 -14.77,-22.01 -3.44,-9.55 -5.18,-20.7 -5.18,-33.3 0,-12.51 1.46,-22.72 4.42,-30.57 2.97,-7.81 6.64,-13.6 11.11,-17.27 4.46,-3.67 10.11,-6.25 16.93,-7.76 4.23,-0.8 11.85,-1.22 22.81,-1.22l32.93 0c23,0 37.53,-0.52 43.69,-1.55 6.17,-0.99 12.05,-3.06 17.69,-6.07l0 25.96c-5.22,2.5 -11.34,4.1 -18.34,4.8zm-55.04 1.98c3.67,9.03 6.78,22.57 9.32,40.64 1.45,10.25 3.1,17.49 4.93,21.73 1.84,4.23 4.52,7.48 8,9.78 3.53,2.31 7.43,3.48 11.76,3.48 6.54,0 12.04,-2.49 16.42,-7.52 4.37,-5.04 6.58,-12.38 6.58,-22.02 0,-9.55 -2.07,-18.06 -6.25,-25.54 -4.14,-7.43 -9.84,-12.93 -17.03,-16.41 -5.6,-2.69 -13.83,-4 -24.7,-4l-9.03 -0.14z"/>
  <path id="5" class="fil3" d="M19844.73 21089.11l-202.63 0 0 -22.57 19.24 0c-7.44,-5.32 -13.03,-11.34 -16.75,-18.07 -3.72,-6.68 -5.6,-14.81 -5.6,-24.36 0,-12.51 3.2,-23.52 9.65,-33.07 6.39,-9.55 15.47,-16.74 27.14,-21.63 11.71,-4.85 24.5,-7.3 38.47,-7.3 14.91,0 28.37,2.69 40.36,8.05 11.95,5.36 21.12,13.17 27.52,23.42 6.35,10.21 9.54,20.98 9.54,32.27 0,8.28 -1.74,15.71 -5.22,22.25 -3.48,6.58 -7.85,11.94 -13.17,16.18l71.45 0 0 24.83zm-128.5 -22.57c18.77,0 32.69,-3.81 41.67,-11.39 8.99,-7.62 13.45,-16.84 13.45,-27.65 0,-11.01 -4.65,-20.42 -13.97,-28.23 -9.31,-7.85 -23.7,-11.76 -43.22,-11.76 -18.63,0 -32.55,3.81 -41.82,11.48 -9.26,7.67 -13.87,16.79 -13.87,27.42 0,10.54 4.94,19.85 14.77,27.94 9.87,8.14 24.17,12.19 42.99,12.19z"/>
  <path id="6" class="fil3" d="M19744.83 20942.03l-3.96 -24.55c9.84,-1.37 17.36,-5.22 22.63,-11.53 5.22,-6.3 7.85,-15.14 7.85,-26.43 0,-11.43 -2.3,-19.9 -6.96,-25.45 -4.61,-5.5 -10.06,-8.28 -16.32,-8.28 -5.6,0 -10.02,2.5 -13.22,7.44 -2.21,3.48 -4.98,11.94 -8.42,25.4 -4.56,18.15 -8.51,30.71 -11.85,37.77 -3.39,7 -7.99,12.32 -13.92,15.94 -5.88,3.62 -12.42,5.46 -19.57,5.46 -6.54,0 -12.56,-1.51 -18.11,-4.47 -5.55,-3.01 -10.16,-7.06 -13.83,-12.18 -2.82,-3.86 -5.22,-9.13 -7.19,-15.76 -1.98,-6.68 -2.97,-13.78 -2.97,-21.4 0,-11.48 1.65,-21.54 4.99,-30.2 3.29,-8.7 7.81,-15.1 13.45,-19.24 5.69,-4.09 13.27,-6.96 22.77,-8.51l3.38 24.27c-7.62,1.08 -13.59,4.28 -17.87,9.55 -4.28,5.27 -6.4,12.7 -6.4,22.34 0,11.34 1.88,19.47 5.65,24.32 3.76,4.84 8.18,7.29 13.21,7.29 3.2,0 6.12,-0.99 8.71,-3.01 2.63,-2.02 4.84,-5.18 6.58,-9.5 0.94,-2.5 3.06,-9.74 6.35,-21.87 4.66,-17.5 8.52,-29.73 11.48,-36.69 2.96,-6.96 7.34,-12.42 12.98,-16.37 5.69,-4 12.75,-5.98 21.21,-5.98 8.24,0 16,2.4 23.29,7.25 7.29,4.84 12.93,11.8 16.93,20.88 4,9.13 5.97,19.43 5.97,30.91 0,19 -3.95,33.53 -11.8,43.5 -7.9,9.98 -19.57,16.33 -35.04,19.1z"/>
  <path id="7" class="fil3" d="M19788.57 20783.99l-28.22 0 0 -28.22 28.22 0 0 28.22z"/>
  <path id="8" class="fil3" d="M19734.95 20616.96l3.38 -24.27c16.7,2.68 29.73,9.45 39.19,20.41 9.45,10.96 14.15,24.46 14.15,40.41 0,19.99 -6.53,36.08 -19.61,48.21 -13.08,12.18 -31.8,18.25 -56.16,18.25 -15.81,0 -29.59,-2.63 -41.39,-7.85 -11.86,-5.22 -20.75,-13.17 -26.63,-23.9 -5.92,-10.68 -8.89,-22.29 -8.89,-34.9 0,-15.85 4,-28.88 12.04,-38.95 8.05,-10.11 19.48,-16.6 34.25,-19.42l3.67 23.99c-9.83,2.3 -17.22,6.35 -22.2,12.23 -4.94,5.83 -7.44,12.88 -7.44,21.16 0,12.51 4.47,22.67 13.41,30.53 8.98,7.81 23.09,11.71 42.47,11.71 19.66,0 33.92,-3.76 42.81,-11.29 8.89,-7.57 13.35,-17.4 13.35,-29.49 0,-9.78 -2.96,-17.92 -8.93,-24.41 -5.93,-6.54 -15.1,-10.68 -27.47,-12.42z"/>
  <path id="9" class="fil3" d="M19715.33 20580.84c-27.04,0 -47.08,-7.53 -60.11,-22.63 -10.82,-12.56 -16.23,-27.94 -16.23,-46.05 0,-20.08 6.59,-36.54 19.76,-49.34 13.12,-12.75 31.33,-19.14 54.51,-19.14 18.82,0 33.59,2.82 44.36,8.46 10.77,5.65 19.14,13.88 25.12,24.7 5.97,10.77 8.93,22.58 8.93,35.32 0,20.51 -6.53,37.07 -19.66,49.72 -13.12,12.65 -32.03,18.96 -56.68,18.96zm0.05 -25.4c18.72,0 32.74,-4.1 42,-12.28 9.32,-8.23 13.97,-18.53 13.97,-31 0,-12.32 -4.65,-22.57 -14.01,-30.81 -9.36,-8.18 -23.61,-12.27 -42.76,-12.27 -18.06,0 -31.75,4.14 -41.01,12.37 -9.32,8.23 -13.97,18.48 -13.97,30.71 0,12.47 4.61,22.77 13.87,31 9.27,8.18 23.24,12.28 41.91,12.28z"/>
  <path id="10" class="fil3" d="M19788.57 20414.56l-146.47 0 0 -22.29 20.69 0c-7.15,-4.56 -12.93,-10.68 -17.26,-18.3 -4.37,-7.62 -6.54,-16.27 -6.54,-26.01 0,-10.82 2.26,-19.71 6.73,-26.62 4.52,-6.92 10.77,-11.81 18.86,-14.63 -17.07,-11.67 -25.59,-26.77 -25.59,-45.39 0,-14.58 4,-25.83 12.04,-33.63 8.05,-7.86 20.42,-11.81 37.12,-11.81l100.42 0 0 24.84 -92.19 0c-9.88,0 -17.03,0.84 -21.4,2.44 -4.38,1.6 -7.86,4.52 -10.54,8.8 -2.68,4.23 -4,9.22 -4,14.91 0,10.35 3.44,18.91 10.26,25.73 6.86,6.82 17.82,10.2 32.87,10.2l85 0 0 24.84 -95.06 0c-11.01,0 -19.29,2.02 -24.79,6.07 -5.5,4.04 -8.28,10.67 -8.28,19.85 0,6.96 1.84,13.4 5.51,19.33 3.66,5.93 9.03,10.21 16.13,12.89 7.05,2.63 17.26,3.95 30.57,3.95l75.92 0 0 24.83z"/>
  <g id="_2094018403488">
   <g>
    <path class="fil4 str2" d="M17171.9 21036.02l659.43 0 0 99.16 -659.43 0 0 -99.16z"/>
    <path class="fil5 str2" d="M17831.33 21036.02l659.44 0 0 99.16 -659.44 0 0 -99.16z"/>
    <path class="fil4 str2" d="M18490.76 21036.02l659.44 0 0 99.16 -659.44 0 0 -99.16z"/>
    <path class="fil4 str2" d="M18228.9 21334.96l1054.7 0 0 99.16 -1054.7 0 0 -99.16z"/>
    <path class="fil5 str2" d="M17174.21 21334.96l1054.7 0 0 99.16 -1054.7 0 0 -99.16z"/>
   </g>
   <path class="fil6" d="M17653.02 20648.46c6.64,-15.76 15.11,-27.93 25.28,-36.51 10.17,-8.59 22.87,-12.88 38.04,-12.88 18.76,0 33.11,6.06 43.1,18.23 7.59,9.05 11.41,18.75 11.41,29.1 0,16.99 -10.7,34.57 -32.11,52.68 14.41,5.65 25.29,13.64 32.7,24.11 7.35,10.41 11.05,22.7 11.05,36.81 0,20.22 -6.47,37.69 -19.34,52.5 -16.76,19.29 -41.1,28.93 -72.97,28.93 -15.76,0 -26.46,-1.94 -32.16,-5.88 -5.71,-3.88 -8.53,-8.11 -8.53,-12.58 0,-3.35 1.35,-6.23 4.06,-8.76 2.7,-2.53 5.94,-3.82 9.76,-3.82 2.88,0 5.82,0.47 8.82,1.41 1.94,0.59 6.35,2.7 13.29,6.35 6.88,3.64 11.7,5.82 14.34,6.52 4.24,1.3 8.82,1.94 13.64,1.94 11.76,0 21.93,-4.52 30.64,-13.64 8.7,-9.05 13.05,-19.81 13.05,-32.22 0,-9.05 -2,-17.93 -6.06,-26.51 -3,-6.47 -6.29,-11.35 -9.82,-14.65 -4.99,-4.58 -11.76,-8.76 -20.4,-12.52 -8.64,-3.7 -17.46,-5.58 -26.46,-5.58l-5.52 0 0 -5.3c9.11,-1.17 18.16,-4.41 27.34,-9.82 9.11,-5.4 15.75,-11.87 19.87,-19.46 4.17,-7.58 6.23,-15.87 6.23,-24.99 0,-11.81 -3.7,-21.34 -11.11,-28.63 -7.47,-7.29 -16.7,-10.94 -27.75,-10.94 -17.82,0 -32.69,9.65 -44.69,28.87l-5.7 -2.76z"/>
   <path id="1" class="fil6" d="M17824.47 20721.96c0,-26.64 4,-49.51 12.05,-68.74 8.06,-19.22 18.7,-33.57 32.05,-42.98 10.29,-7.47 20.99,-11.17 31.98,-11.17 17.94,0 33.99,9.11 48.22,27.34 17.81,22.64 26.69,53.27 26.69,91.96 0,27.05 -3.88,50.09 -11.7,69.03 -7.82,18.93 -17.76,32.63 -29.87,41.21 -12.11,8.53 -23.81,12.82 -35.04,12.82 -22.29,0 -40.81,-13.11 -55.62,-39.39 -12.53,-22.17 -18.76,-48.86 -18.76,-80.08zm33.87 4.23c0,32.1 3.94,58.33 11.82,78.67 6.52,17.11 16.28,25.63 29.22,25.63 6.17,0 12.58,-2.76 19.22,-8.34 6.65,-5.59 11.65,-14.88 15.11,-27.99 5.24,-19.7 7.88,-47.57 7.88,-83.43 0,-26.64 -2.76,-48.86 -8.23,-66.62 -4.11,-13.23 -9.46,-22.58 -15.99,-28.05 -4.65,-3.82 -10.35,-5.7 -16.99,-5.7 -7.76,0 -14.7,3.53 -20.76,10.52 -8.23,9.53 -13.87,24.46 -16.81,44.92 -3,20.41 -4.47,40.52 -4.47,60.39z"/>
   <path id="2" class="fil6" d="M18000.86 20721.96c0,-26.64 4,-49.51 12.05,-68.74 8.06,-19.22 18.7,-33.57 32.05,-42.98 10.29,-7.47 20.99,-11.17 31.98,-11.17 17.94,0 33.99,9.11 48.22,27.34 17.81,22.64 26.69,53.27 26.69,91.96 0,27.05 -3.88,50.09 -11.7,69.03 -7.82,18.93 -17.76,32.63 -29.87,41.21 -12.11,8.53 -23.81,12.82 -35.04,12.82 -22.29,0 -40.81,-13.11 -55.62,-39.39 -12.53,-22.17 -18.76,-48.86 -18.76,-80.08zm33.87 4.23c0,32.1 3.94,58.33 11.82,78.67 6.52,17.11 16.28,25.63 29.22,25.63 6.17,0 12.58,-2.76 19.22,-8.34 6.65,-5.59 11.65,-14.88 15.11,-27.99 5.24,-19.7 7.88,-47.57 7.88,-83.43 0,-26.64 -2.76,-48.86 -8.23,-66.62 -4.11,-13.23 -9.46,-22.58 -15.99,-28.05 -4.65,-3.82 -10.35,-5.7 -16.99,-5.7 -7.76,0 -14.7,3.53 -20.76,10.52 -8.23,9.53 -13.87,24.46 -16.81,44.92 -3,20.41 -4.47,40.52 -4.47,60.39z"/>
   <path id="3" class="fil6" d="M18310.61 20592.37l0 157.16 39.98 -36.63c8.52,-7.82 13.46,-12.76 14.81,-14.82 0.95,-1.41 1.42,-2.76 1.42,-4.17 0,-2.29 -1,-4.23 -2.89,-5.94 -1.88,-1.65 -4.99,-2.59 -9.4,-2.82l0 -5.65 68.61 0 0 5.65c-9.35,0.23 -17.17,1.7 -23.4,4.35 -6.23,2.7 -13.05,7.47 -20.52,14.29l-40.63 37.22 40.34 51.33c11.29,14.05 18.81,23.04 22.58,26.98 5.58,5.24 10.4,8.65 14.58,10.17 2.94,1.12 7.99,1.71 15.17,1.71l0 6.35 -76.73 0 0 -6.35c4.41,-0.12 7.35,-0.76 8.88,-1.94 1.58,-1.24 2.35,-2.88 2.35,-5.06 0,-2.64 -2.3,-6.88 -6.88,-12.7l-48.27 -61.79 0 52.21c0,10.23 0.7,16.93 2.11,20.17 1.47,3.17 3.47,5.46 6.12,6.88 2.64,1.35 8.35,2.11 17.17,2.23l0 6.35 -80.08 0 0 -6.35c7.99,0 14.05,-1 18.05,-2.94 2.41,-1.23 4.23,-3.17 5.46,-5.76 1.71,-3.76 2.59,-10.29 2.59,-19.52l0 -143.94c0,-18.05 -0.41,-29.1 -1.18,-33.16 -0.82,-4.05 -2.11,-6.82 -3.99,-8.35 -1.83,-1.58 -4.24,-2.35 -7.18,-2.35 -2.41,0 -6.05,1 -10.82,2.94l-2.93 -6.35 46.74 -19.4 7.94 0z"/>
   <path id="4" class="fil6" d="M18487.35 20708.67c11.41,-11.53 18.17,-18.17 20.22,-19.93 5.12,-4.36 10.65,-7.77 16.59,-10.18 5.93,-2.41 11.81,-3.64 17.63,-3.64 9.88,0 18.29,2.88 25.4,8.64 7.06,5.76 11.82,14.11 14.17,25.11 11.88,-13.88 21.88,-22.93 30.05,-27.28 8.17,-4.3 16.58,-6.47 25.22,-6.47 8.35,0 15.82,2.17 22.35,6.47 6.46,4.29 11.64,11.34 15.4,21.16 2.53,6.65 3.82,17.11 3.82,31.4l0 67.97c0,9.82 0.71,16.58 2.18,20.23 1.12,2.46 3.23,4.64 6.23,6.4 3.06,1.77 8,2.65 14.88,2.65l0 6.35 -77.26 0 0 -6.35 3.29 0c6.7,0 11.99,-1.29 15.76,-3.94 2.64,-1.82 4.52,-4.76 5.64,-8.76 0.47,-1.94 0.71,-7.47 0.71,-16.58l0 -67.91c0,-12.88 -1.53,-21.93 -4.65,-27.22 -4.52,-7.35 -11.7,-11.06 -21.63,-11.06 -6.06,0 -12.23,1.53 -18.41,4.59 -6.11,3 -13.58,8.7 -22.34,16.93l-0.35 1.94 0.7 7.41 0 75.32c0,10.7 0.59,17.4 1.77,20.05 1.23,2.59 3.46,4.82 6.76,6.58 3.29,1.77 8.93,2.65 16.87,2.65l0 6.35 -79.37 0 0 -6.35c8.64,0 14.58,-1 17.81,-3.06 3.24,-2.06 5.47,-5.17 6.7,-9.29 0.59,-1.94 0.89,-7.58 0.89,-16.93l0 -67.91c0,-12.88 -1.88,-22.17 -5.65,-27.87 -5.05,-7.41 -12.05,-11.11 -21.11,-11.11 -6.17,0 -12.28,1.7 -18.34,5.05 -9.47,5.06 -16.82,10.82 -21.93,17.17l0 84.67c0,10.29 0.7,16.93 2.12,20.05 1.41,3.06 3.52,5.35 6.35,6.94 2.76,1.53 8.4,2.29 16.93,2.29l0 6.35 -77.97 0 0 -6.35c7.24,0 12.29,-0.76 15.17,-2.29 2.89,-1.59 5.06,-4 6.59,-7.41 1.47,-3.35 2.23,-9.88 2.23,-19.58l0 -60.33c0,-17.28 -0.53,-28.45 -1.53,-33.51 -0.82,-3.82 -2.05,-6.41 -3.82,-7.82 -1.7,-1.47 -4.05,-2.18 -6.99,-2.18 -3.24,0 -7.06,0.89 -11.53,2.59l-2.58 -6.35 47.62 -19.4 7.41 0 0 33.75z"/>
   <path class="fil6" d="M17907.6 21762.04l-16.34 45.39 -137.82 0 0 -6.47c40.57,-36.98 69.08,-67.14 85.61,-90.54 16.52,-23.41 24.81,-44.81 24.81,-64.21 0,-14.82 -4.53,-26.99 -13.64,-36.51 -9.06,-9.53 -19.88,-14.29 -32.52,-14.29 -11.52,0 -21.81,3.29 -30.92,9.94 -9.18,6.64 -15.88,16.4 -20.29,29.22l-6.35 0c2.88,-21.11 10.29,-37.34 22.17,-48.69 11.87,-11.28 26.75,-16.93 44.62,-16.93 18.94,0 34.81,6.12 47.51,18.29 12.7,12.17 19.05,26.51 19.05,43.09 0,11.82 -2.76,23.7 -8.29,35.52 -8.47,18.58 -22.28,38.27 -41.33,59.09 -28.64,31.16 -46.28,49.86 -53.04,56.03l60.39 0c12.29,0 20.93,-0.47 25.87,-1.35 4.94,-0.94 9.41,-2.82 13.4,-5.65 4,-2.76 7.47,-6.76 10.41,-11.93l6.7 0z"/>
   <path id="1" class="fil6" d="M17935.12 21691.84c0,-26.64 4,-49.51 12.05,-68.74 8.06,-19.22 18.7,-33.57 32.05,-42.98 10.29,-7.47 20.99,-11.17 31.98,-11.17 17.94,0 33.99,9.11 48.22,27.34 17.81,22.64 26.69,53.27 26.69,91.96 0,27.05 -3.88,50.09 -11.7,69.03 -7.82,18.93 -17.76,32.63 -29.87,41.21 -12.11,8.53 -23.81,12.82 -35.04,12.82 -22.29,0 -40.81,-13.11 -55.62,-39.39 -12.53,-22.17 -18.76,-48.86 -18.76,-80.08zm33.87 4.23c0,32.1 3.94,58.33 11.82,78.67 6.52,17.11 16.28,25.63 29.22,25.63 6.17,0 12.58,-2.76 19.22,-8.34 6.65,-5.59 11.65,-14.88 15.11,-27.99 5.24,-19.7 7.88,-47.57 7.88,-83.43 0,-26.64 -2.76,-48.86 -8.23,-66.62 -4.11,-13.23 -9.46,-22.58 -15.99,-28.05 -4.65,-3.82 -10.35,-5.7 -16.99,-5.7 -7.76,0 -14.7,3.53 -20.76,10.52 -8.23,9.53 -13.87,24.46 -16.81,44.92 -3,20.41 -4.47,40.52 -4.47,60.39z"/>
   <path id="2" class="fil6" d="M18111.51 21691.84c0,-26.64 4,-49.51 12.05,-68.74 8.06,-19.22 18.7,-33.57 32.05,-42.98 10.29,-7.47 20.99,-11.17 31.98,-11.17 17.94,0 33.99,9.11 48.22,27.34 17.81,22.64 26.69,53.27 26.69,91.96 0,27.05 -3.88,50.09 -11.7,69.03 -7.82,18.93 -17.76,32.63 -29.87,41.21 -12.11,8.53 -23.81,12.82 -35.04,12.82 -22.29,0 -40.81,-13.11 -55.62,-39.39 -12.53,-22.17 -18.76,-48.86 -18.76,-80.08zm33.87 4.23c0,32.1 3.94,58.33 11.82,78.67 6.52,17.11 16.28,25.63 29.22,25.63 6.17,0 12.58,-2.76 19.22,-8.34 6.65,-5.59 11.65,-14.88 15.11,-27.99 5.24,-19.7 7.88,-47.57 7.88,-83.43 0,-26.64 -2.76,-48.86 -8.23,-66.62 -4.11,-13.23 -9.46,-22.58 -15.99,-28.05 -4.65,-3.82 -10.35,-5.7 -16.99,-5.7 -7.76,0 -14.7,3.53 -20.76,10.52 -8.23,9.53 -13.87,24.46 -16.81,44.92 -3,20.41 -4.47,40.52 -4.47,60.39z"/>
   <path id="3" class="fil6" d="M18421.61 21678.55c11.41,-11.53 18.17,-18.17 20.22,-19.93 5.12,-4.36 10.65,-7.77 16.59,-10.18 5.93,-2.41 11.81,-3.64 17.63,-3.64 9.88,0 18.29,2.88 25.4,8.64 7.06,5.76 11.82,14.11 14.17,25.11 11.88,-13.88 21.88,-22.93 30.05,-27.28 8.17,-4.3 16.58,-6.47 25.22,-6.47 8.35,0 15.82,2.17 22.35,6.47 6.46,4.29 11.64,11.34 15.4,21.16 2.53,6.65 3.82,17.11 3.82,31.4l0 67.97c0,9.82 0.71,16.58 2.18,20.23 1.12,2.46 3.23,4.64 6.23,6.4 3.06,1.77 8,2.65 14.88,2.65l0 6.35 -77.26 0 0 -6.35 3.29 0c6.7,0 11.99,-1.29 15.76,-3.94 2.64,-1.82 4.52,-4.76 5.64,-8.76 0.47,-1.94 0.71,-7.47 0.71,-16.58l0 -67.91c0,-12.88 -1.53,-21.93 -4.65,-27.22 -4.52,-7.35 -11.7,-11.06 -21.63,-11.06 -6.06,0 -12.23,1.53 -18.41,4.59 -6.11,3 -13.58,8.7 -22.34,16.93l-0.35 1.94 0.7 7.41 0 75.32c0,10.7 0.59,17.4 1.77,20.05 1.23,2.59 3.46,4.82 6.76,6.58 3.29,1.77 8.93,2.65 16.87,2.65l0 6.35 -79.37 0 0 -6.35c8.64,0 14.58,-1 17.81,-3.06 3.24,-2.06 5.47,-5.17 6.7,-9.29 0.59,-1.94 0.89,-7.58 0.89,-16.93l0 -67.91c0,-12.88 -1.88,-22.17 -5.65,-27.87 -5.05,-7.41 -12.05,-11.11 -21.11,-11.11 -6.17,0 -12.28,1.7 -18.34,5.05 -9.47,5.06 -16.82,10.82 -21.93,17.17l0 84.67c0,10.29 0.7,16.93 2.12,20.05 1.41,3.06 3.52,5.35 6.35,6.94 2.76,1.53 8.4,2.29 16.93,2.29l0 6.35 -77.97 0 0 -6.35c7.24,0 12.29,-0.76 15.17,-2.29 2.89,-1.59 5.06,-4 6.59,-7.41 1.47,-3.35 2.23,-9.88 2.23,-19.58l0 -60.33c0,-17.28 -0.53,-28.45 -1.53,-33.51 -0.82,-3.82 -2.05,-6.41 -3.82,-7.82 -1.7,-1.47 -4.05,-2.18 -6.99,-2.18 -3.24,0 -7.06,0.89 -11.53,2.59l-2.58 -6.35 47.62 -19.4 7.41 0 0 33.75z"/>
   <path id="4" class="fil6" d="M18689.25 21562.25c4.76,0 8.88,1.7 12.29,5.05 3.35,3.41 5.05,7.53 5.05,12.29 0,4.82 -1.7,9 -5.05,12.41 -3.41,3.47 -7.53,5.17 -12.29,5.17 -4.82,0 -9,-1.7 -12.41,-5.17 -3.47,-3.41 -5.17,-7.59 -5.17,-12.41 0,-4.76 1.7,-8.88 5.05,-12.29 3.41,-3.35 7.59,-5.05 12.53,-5.05zm14.17 82.55l0 127c0,9.82 0.7,16.34 2.17,19.58 1.41,3.29 3.53,5.7 6.35,7.29 2.82,1.59 8,2.41 15.47,2.41l0 6.35 -76.56 0 0 -6.35c7.65,0 12.82,-0.76 15.41,-2.23 2.64,-1.47 4.7,-3.94 6.29,-7.35 1.53,-3.41 2.29,-10 2.29,-19.7l0 -61.03c0,-16.99 -0.53,-27.99 -1.53,-33.05 -0.82,-3.64 -2.05,-6.17 -3.82,-7.58 -1.7,-1.47 -4.06,-2.18 -7,-2.18 -3.23,0 -7.11,0.89 -11.7,2.59l-2.41 -6.35 47.45 -19.4 7.59 0z"/>
  </g>
  <rect class="fil7 str3" x="1000" y="1000" width="19000" height="21256.06"/>
  <g id="_2094018399456">
   <path class="fil2 str1" d="M16094.59 20429.3l815.93 0 0 1592.89 -815.93 0 0 -1592.89z"/>
   <path class="fil8" d="M16442.69 20865.43c-0.92,3.32 -1.63,6.35 -2.07,9.15 -0.44,2.79 -0.65,5.18 -0.65,7.22 0,5.59 1.8,9.56 5.29,11.89 3.49,2.33 9.55,3.49 18.05,3.49l4.15 0 -4.96 22.72 -78.17 0 5.29 -22.72 2.89 0c7.36,0 12.82,-1.51 16.48,-4.54 3.6,-2.97 6.32,-8.39 8.12,-16.14l37.59 -153.79c0.6,-2.74 1.14,-5.54 1.52,-8.45 0.33,-2.91 0.55,-5.77 0.55,-8.62 0,-5.36 -1.96,-9.15 -5.95,-11.36 -3.92,-2.22 -10.69,-3.32 -20.23,-3.32l-3.06 0 5.29 -22.72 72.33 0 62.14 183.5 31.31 -129.03c1.08,-4.2 1.85,-7.63 2.34,-10.31 0.49,-2.68 0.71,-4.72 0.71,-6.06 0,-5.6 -1.8,-9.56 -5.35,-11.89 -3.6,-2.33 -9.71,-3.49 -18.32,-3.49l-4.15 0 4.96 -22.72 78.5 0 -5.62 22.72 -2.84 0c-7.37,0 -12.87,1.51 -16.47,4.54 -3.66,2.97 -6.33,8.33 -8.18,15.96l-50.68 208.44 -21.54 0 -72.06 -209.48 -37.21 155.01z"/>
   <path class="fil7 str4" d="M16503.38 21888.99l0 -769.27"/>
   <path class="fil7 str4" d="M16221.33 21612.94l563.14 0"/>
   <path class="fil7 str4" d="M16358.48 21752.93l294.22 -286.81"/>
   <path class="fil7 str4" d="M16355.34 21465.88l297.98 288.85"/>
   <path class="fil7 str4" d="M16503.24 21122.45l-95.47 118.01"/>
   <path class="fil7 str4" d="M16503.86 21122.41l87.89 118.05"/>
  </g>
  <g id="_2094018397216">
   <path class="fil2 str1" d="M15332.59 21548.49l0 473.7 -2309.37 0 0 -473.7 2309.37 0z"/>
   <path class="fil8" d="M14100.56 21886.96l0 -202.07 40.07 0 47.79 143.04c4.42,13.31 7.62,23.28 9.64,29.91 2.31,-7.33 5.93,-18.15 10.82,-32.4l48.64 -140.55 35.79 0 0 202.07 -25.68 0 0 -169.05 -58.98 169.05 -24.09 0 -58.32 -172.15 0 172.15 -25.68 0z"/>
   <path id="1" class="fil8" d="M14433.01 21839.55l25.68 3.38c-3.99,14.91 -11.47,26.53 -22.39,34.76 -10.91,8.24 -24.83,12.37 -41.81,12.37 -21.36,0 -38.29,-6.58 -50.8,-19.75 -12.51,-13.12 -18.77,-31.61 -18.77,-55.36 0,-24.56 6.31,-43.65 18.96,-57.2 12.65,-13.59 29.07,-20.37 49.25,-20.37 19.52,0 35.46,6.64 47.83,19.95 12.37,13.31 18.58,32.03 18.58,56.16 0,1.46 -0.05,3.67 -0.14,6.58l-109.08 0c0.94,16.04 5.46,28.37 13.64,36.88 8.14,8.51 18.35,12.79 30.53,12.79 9.08,0 16.84,-2.39 23.24,-7.19 6.44,-4.8 11.52,-12.47 15.28,-23zm-81.28 -39.8l81.56 0c-1.08,-12.32 -4.23,-21.54 -9.36,-27.7 -7.85,-9.55 -18.1,-14.35 -30.66,-14.35 -11.39,0 -20.93,3.81 -28.7,11.43 -7.71,7.62 -11.99,17.83 -12.84,30.62z"/>
   <path id="2" class="fil8" d="M14489.78 21886.96l0 -146.47 22.3 0 0 22.43c5.69,-10.39 10.96,-17.26 15.8,-20.55 4.85,-3.34 10.16,-4.99 15.95,-4.99 8.37,0 16.89,2.64 25.54,7.86l-8.84 22.91c-6.02,-3.39 -12.04,-5.08 -18.06,-5.08 -5.41,0 -10.26,1.64 -14.54,4.89 -4.28,3.24 -7.34,7.76 -9.17,13.54 -2.78,8.8 -4.14,18.44 -4.14,28.93l0 76.53 -24.84 0z"/>
   <path id="3" class="fil8" d="M14679.72 21833.34l24.27 3.38c-2.68,16.7 -9.45,29.73 -20.41,39.19 -10.96,9.45 -24.46,14.15 -40.41,14.15 -19.99,0 -36.08,-6.53 -48.21,-19.61 -12.18,-13.08 -18.25,-31.8 -18.25,-56.16 0,-15.81 2.63,-29.59 7.85,-41.44 5.22,-11.81 13.17,-20.7 23.9,-26.58 10.68,-5.92 22.29,-8.89 34.9,-8.89 15.85,0 28.88,4 38.95,12.04 10.11,8.05 16.6,19.48 19.42,34.25l-23.99 3.67c-2.3,-9.83 -6.35,-17.22 -12.23,-22.2 -5.83,-4.94 -12.88,-7.44 -21.16,-7.44 -12.51,0 -22.67,4.47 -30.53,13.41 -7.81,8.98 -11.71,23.09 -11.71,42.47 0,19.66 3.76,33.92 11.29,42.81 7.57,8.89 17.4,13.35 29.49,13.35 9.78,0 17.92,-2.96 24.41,-8.93 6.54,-5.93 10.68,-15.1 12.42,-27.47z"/>
   <path id="4" class="fil8" d="M14820.83 21868.62c-9.22,7.85 -18.11,13.35 -26.62,16.6 -8.52,3.25 -17.64,4.84 -27.43,4.84 -16.08,0 -28.45,-3.9 -37.11,-11.75 -8.65,-7.81 -12.98,-17.83 -12.98,-30.01 0,-7.15 1.65,-13.69 4.89,-19.62 3.29,-5.93 7.57,-10.63 12.84,-14.2 5.32,-3.58 11.24,-6.31 17.88,-8.14 4.89,-1.27 12.27,-2.49 22.1,-3.72 20.04,-2.35 34.86,-5.22 44.31,-8.51 0.1,-3.39 0.14,-5.55 0.14,-6.44 0,-10.07 -2.35,-17.17 -7.05,-21.31 -6.35,-5.6 -15.81,-8.37 -28.32,-8.37 -11.71,0 -20.36,2.07 -25.92,6.16 -5.59,4.09 -9.68,11.33 -12.37,21.78l-24.27 -3.39c2.21,-10.4 5.84,-18.82 10.92,-25.21 5.08,-6.4 12.41,-11.29 22.01,-14.77 9.55,-3.44 20.7,-5.18 33.3,-5.18 12.51,0 22.72,1.46 30.57,4.42 7.81,2.97 13.6,6.64 17.27,11.11 3.67,4.46 6.25,10.11 7.76,16.93 0.8,4.23 1.22,11.85 1.22,22.81l0 32.93c0,23 0.52,37.53 1.55,43.69 0.99,6.17 3.06,12.05 6.07,17.69l-25.96 0c-2.5,-5.22 -4.1,-11.34 -4.8,-18.34zm-1.98 -55.04c-9.03,3.67 -22.57,6.78 -40.64,9.32 -10.25,1.45 -17.49,3.1 -21.73,4.93 -4.23,1.84 -7.48,4.52 -9.78,8 -2.31,3.53 -3.48,7.43 -3.48,11.76 0,6.54 2.49,12.04 7.52,16.42 5.04,4.37 12.38,6.58 22.02,6.58 9.55,0 18.06,-2.07 25.54,-6.25 7.43,-4.14 12.93,-9.84 16.41,-17.03 2.69,-5.6 4,-13.83 4,-24.7l0.14 -9.03z"/>
   <path id="5" class="fil8" d="M14936.02 21864.81l3.39 21.91c-6.96,1.46 -13.22,2.22 -18.68,2.22 -8.98,0 -15.94,-1.42 -20.93,-4.28 -4.94,-2.87 -8.42,-6.59 -10.44,-11.25 -2.02,-4.65 -3.01,-14.44 -3.01,-29.35l0 -84.38 -18.34 0 0 -19.19 18.34 0 0 -36.22 24.84 -14.91 0 51.13 24.83 0 0 19.19 -24.83 0 0 85.79c0,7.11 0.42,11.67 1.31,13.69 0.85,2.02 2.26,3.62 4.24,4.85 1.97,1.17 4.79,1.78 8.46,1.78 2.73,0 6.35,-0.33 10.82,-0.98z"/>
   <path id="6" class="fil8" d="M14951.21 21813.72c0,-27.04 7.53,-47.08 22.63,-60.11 12.56,-10.82 27.94,-16.23 46.05,-16.23 20.08,0 36.54,6.59 49.34,19.76 12.75,13.12 19.14,31.33 19.14,54.51 0,18.82 -2.82,33.59 -8.46,44.36 -5.65,10.77 -13.88,19.14 -24.7,25.12 -10.77,5.97 -22.58,8.93 -35.32,8.93 -20.51,0 -37.07,-6.53 -49.72,-19.66 -12.65,-13.12 -18.96,-32.03 -18.96,-56.68zm25.4 0.05c0,18.72 4.1,32.74 12.28,42 8.23,9.32 18.53,13.97 31,13.97 12.32,0 22.57,-4.65 30.81,-14.01 8.18,-9.36 12.27,-23.61 12.27,-42.76 0,-18.06 -4.14,-31.75 -12.37,-41.01 -8.23,-9.32 -18.48,-13.97 -30.71,-13.97 -12.47,0 -22.77,4.61 -31,13.87 -8.18,9.27 -12.28,23.24 -12.28,41.91z"/>
   <path id="7" class="fil8" d="M15117.2 21886.96l0 -146.47 22.3 0 0 22.43c5.69,-10.39 10.96,-17.26 15.8,-20.55 4.85,-3.34 10.16,-4.99 15.95,-4.99 8.37,0 16.89,2.64 25.54,7.86l-8.84 22.91c-6.02,-3.39 -12.04,-5.08 -18.06,-5.08 -5.41,0 -10.26,1.64 -14.54,4.89 -4.28,3.24 -7.34,7.76 -9.17,13.54 -2.78,8.8 -4.14,18.44 -4.14,28.93l0 76.53 -24.84 0z"/>
   <circle class="fil9 str5" cx="13241.59" cy="21781.64" r="118.79"/>
   <rect class="fil9 str5" x="13699.52" y="21673.36" width="226.91" height="226.91"/>
   <path class="fil7 str6" d="M13415.49 21780.77l220.31 0"/>
   <path class="fil7 str6" d="M13633.14 21781.43l-64.02 65.38"/>
   <path class="fil7 str6" d="M13633.31 21780.29l-63.42 -61.39"/>
  </g>
 </g>
</svg>
