<?xml version="1.0" encoding="UTF-8"?>
<!DOCTYPE svg PUBLIC "-//W3C//DTD SVG 1.1//EN" "http://www.w3.org/Graphics/SVG/1.1/DTD/svg11.dtd">
<!-- Creator: CorelDRAW -->
<svg xmlns="http://www.w3.org/2000/svg" xml:space="preserve" width="210mm" height="297mm" version="1.1" style="shape-rendering:geometricPrecision; text-rendering:geometricPrecision; image-rendering:optimizeQuality; fill-rule:evenodd; clip-rule:evenodd"
viewBox="0 0 21000 29700"
 xmlns:xlink="http://www.w3.org/1999/xlink">
 <defs>
  <style type="text/css">
   <![CDATA[
    .str3 {stroke:black;stroke-width:10;stroke-miterlimit:3.864;stroke-opacity:0.501961}
    .str5 {stroke:black;stroke-width:50;stroke-miterlimit:22.9256}
    .str2 {stroke:#003399;stroke-width:20;stroke-miterlimit:22.9256}
    .str7 {stroke:#434242;stroke-width:10;stroke-miterlimit:22.9256}
    .str4 {stroke:#3F3E3F;stroke-width:10;stroke-miterlimit:3.864}
    .str0 {stroke:#000066;stroke-width:10;stroke-miterlimit:22.9256}
    .str1 {stroke:#003399;stroke-width:10;stroke-miterlimit:22.9256}
    .str8 {stroke:#2B2A29;stroke-width:7.62;stroke-miterlimit:22.9256}
    .str6 {stroke:black;stroke-width:7.62;stroke-miterlimit:22.9256}
    .fil2 {fill:none}
    .fil0 {fill:#FEFEFE}
    .fil9 {fill:#D9DADA}
    .fil1 {fill:white}
    .fil6 {fill:#FEFEFE;fill-rule:nonzero}
    .fil5 {fill:#D9DADA;fill-rule:nonzero}
    .fil8 {fill:#434242;fill-rule:nonzero}
    .fil7 {fill:#2B2A29;fill-rule:nonzero}
    .fil4 {fill:black;fill-rule:nonzero}
    .fil3 {fill:#FEFEFE;fill-rule:nonzero;fill-opacity:0.501961}
   ]]>
  </style>
 </defs>
 <g id="Plan_x0020_1">
  <metadata id="CorelCorpID_0Corel-Layer"/>
  <rect class="fil0" x="1000" y="1000" width="19000" height="21256.06"/>
  <path class="fil1 str0" d="M8971.62 22256.06l-23.12 -60.32c-10.41,-28.64 -14.61,-58.37 -14.61,-89.02 0,-28.12 25.59,-66.44 17.04,-90.24 -5.03,-13.98 -26,-15.47 -32.86,-29.26 -15.06,-30.22 -11.75,-63 -14.6,-96.34 6,-89.86 82.94,-218.48 122.9,-299.97l104.66 -213.4c24.3,-49.55 -6.09,-73.17 -6.09,-115.84 43.24,-21.7 54.76,-157.99 54.76,-201.21 0,-133.92 77.61,-27.3 128.99,-59.75 45.89,-28.97 67.08,-136.56 92.48,-186.57l206.87 -407.28c34.37,-67.68 38.27,-195.03 88.83,-249.98 21.62,-23.51 91.25,-69.83 99.78,-90.24 47.42,-27.67 36.79,-110.7 52.33,-158.52 25.55,-78.67 74.37,-75.74 -12.17,-97.55 0,-3.24 -0.31,-2.99 -3.65,-3.66 0,-101.43 58.94,-176.27 137.5,-234.13 75.48,-55.6 158.27,-16.19 242.16,-80.48 22.66,-17.37 104.6,-123.47 113.17,-125.6 93.33,-23.3 92.09,-87.89 182.53,-115.84 39.81,-12.31 62.83,-37.84 40.15,-78.05 -28.06,-49.72 42.53,3.04 82.75,-31.7 148.12,-111.31 262.34,-325.34 354.11,-484.11 94.45,-163.38 294.19,-293.32 366.28,-458.5l174.01 -223.15c40.7,-52.2 96.81,-94.99 141.15,-145.11l313.96 -354.85c40.35,-45.6 144.52,-179.69 194.7,-197.54 163.59,-92.4 306.41,-282.91 455.1,-403.63 135.16,-109.75 299.88,-240.9 452.68,-321.92 62.07,-32.9 228.87,-114.53 268.93,-164.62l548.8 -309.73c128.98,-72.79 212.48,-248.03 330.99,-347.53 73.16,-61.41 182.82,-130.66 228.77,-214.62 239.91,-277.52 553.79,-525.96 754.46,-832.86 170.39,-118.26 171.12,-305.44 294.48,-458.5 107.18,-132.97 287.4,-258.72 337.07,-428.01 49.23,-110.78 120.35,-208.08 167.93,-321.93 37.53,-89.78 46.28,-152.53 64.49,-248.76 11.96,-63.17 67.58,-145.05 104.65,-197.54 28.21,-39.93 141.22,-202.52 138.73,-242.66 112.9,-151.09 188.28,-311.65 257.97,-482.89 14.7,-36.11 -35.84,-76.67 2.44,-110.97l149.67 -134.13c74.52,-66.79 78.72,-127.51 133.86,-201.21 47.92,-29.97 75.05,-98.41 77.88,-151.2 2.79,-52.2 58.14,-156.69 86.39,-199.99 26.39,-40.47 67.88,-70.37 97.35,-109.74 42.08,-56.19 23.35,-89.82 80.32,-142.67 54.14,-50.21 97.34,-99.44 97.34,-174.38l-1.21 -1.22c-62.92,0 -24.8,-99.59 -17.04,-145.11 43.01,-129.05 44.23,-246.69 53.54,-379.24 7.33,-104.37 144.93,-123.11 225.12,-118.28 50.53,3.05 127.77,73.78 127.77,-30.49 0,-62.73 -175.43,-29.51 -181.31,-52.43 -21.3,-82.98 -21.71,-233.28 -21.71,-321.94 0,-63.45 41.56,-80.86 53.35,-128.02 -14.36,-4.78 -66.93,1.05 -66.93,-19.51 -10.89,-2.74 0,-64.23 0,-74.39 0,-34.19 1.95,-66.6 8.52,-98.77 16.35,-80.1 65.45,-114.36 91.27,-185.35l42.59 -117.06 0 -2.44c-83.89,0 -161.08,-12.6 -238.51,-37.8 -99.91,-32.51 -143.18,-78.46 -253.11,-17.08 -40.35,22.52 -53.05,101.88 -80.31,146.33 -35.66,58.12 -231.7,126.89 -299.35,148.77 -27.53,21.49 -176.72,26.68 -216.6,23.17 -101.7,-8.97 -111.14,33.3 -192.27,70.73 -117.07,54.03 -343.6,120.47 -464.84,69.5 -103.78,-43.62 -192.08,-15.31 -299.35,3.66 -98.82,36.04 -128.65,109.7 -242.16,114.63 -79.84,3.46 -218.81,21.24 -289.61,-18.3 -55.8,-31.17 -93.83,-46.56 -158.19,-19.51 -73.74,31 -185.37,79.17 -243.38,134.14 -31.4,29.76 -73.2,80.97 -118.03,86.58 -142.25,89.08 -296.24,150 -442.94,63.41 -41.39,-24.43 -95.1,-13.69 -142.38,-8.54 -69.62,7.58 -115.27,-60.97 -174.01,-60.97 -35.3,107.68 -240.62,143.89 -332.2,143.89 -15.29,45.89 -187.47,162.74 -239.72,169.5 -88.87,44.5 -317.1,51.5 -408.87,18.29 -110.79,-40.08 -224,-131.79 -305.44,-213.4 -47.76,-47.85 -164.59,-125.65 -184.96,-189.01 -69.94,-69.94 -91.54,-209.68 -158.82,-297.96 -35.33,-46.37 -85.06,-39.22 -133.76,-66.01 -33.9,-18.66 -39.37,-68.09 -77.74,-83.48 -59.87,-24.01 -156.33,-7.17 -230.81,15.78 -50.37,15.53 -176.38,139.7 -204.43,25.61l-3.65 -1.22c0,-5.13 1.83,-3.67 3.65,-7.32 16.27,0 89.43,-8.27 93.69,-25.6 39.59,-9.89 57.94,-119.68 115.61,-123.16 65.95,-3.97 125.88,-26.68 181.31,-62.19 38.53,-24.69 56.94,-60.28 102.22,-82.92 56.73,-28.35 109.71,-23.76 133.85,-96.34 18.52,-49.38 -26.41,-216.77 -63.28,-253.64 -80.8,-80.8 -121.89,-157.36 -181.31,-253.63 -36.98,-59.93 -74.03,-109.96 -119.25,-163.4 -12.09,-14.3 -95.56,0.22 -128.99,-17.08 -20.68,-14.79 -107.08,-101.45 -107.08,-123.16 -2.24,-0.56 -1.88,-0.2 -2.44,-2.44 -18.73,0 -102.5,62.77 -114.38,10.98 -10.29,-44.91 -18.21,-126.71 -38.94,-164.62 -16.83,-30.79 -29.5,-63.9 -52.33,-93.9 -35.13,-46.14 -88.17,-19.17 -121.68,-63.41 -31.18,-85.51 -143.88,-140.48 -215.39,-174.37 -92.2,-43.68 -143.86,-146.22 -197.13,-228.03 -33.55,-51.51 -91.93,-76.79 -128.99,-124.38 -17.28,-22.18 -16.08,-63.81 -29.2,-87.8 -20.57,-37.63 -50.32,-63.18 -76.67,-98.77 -48.29,-38.88 -110.49,-0.3 -154.54,-50 -33.18,-37.45 -117.68,19.14 -139.94,-53.65 -20.31,-66.38 -134.35,-233.55 -219.03,-173.16 -55.6,39.64 -92.93,115 -150.9,46.34 -57.26,-67.84 -102.63,-155.26 -85.18,-248.76 -9.68,-35.88 -40.55,-67.6 -74.23,-80.48 -19.59,-7.48 -76.87,-62.62 -79.09,-53.66 -107.69,26.92 -39.11,237.38 -55.98,304.86 -2.23,0.56 -1.88,0.21 -2.43,2.44 -3.85,0.96 -5.12,2.44 -9.74,2.44 -1.32,-4.04 -15.69,-7.95 -17.03,-13.42 -2.91,-0.72 -3.65,-1.89 -3.65,-4.88 -46.54,-13.22 -49.71,-259.5 -96.14,-306.07 -28.3,-28.37 -69.93,11.66 -96.13,-14.63 -20.18,-20.24 2.97,-85.03 -7.3,-115.85 -25.51,-76.58 -9.96,-73.52 -81.53,-126.81 -51.01,-37.99 -75.51,-185.67 -63.28,-251.2 0,-127.8 -70.73,-240.8 -85.18,-357.29 -11.6,-93.45 -57.85,-209.03 -81.53,-301.2 -12.99,-50.6 -71.55,-183.91 -60.84,-225.59 -12.88,-64.2 -82.82,-142.76 -113.17,-199.98 -39.74,-74.95 -91.19,-143.27 -130.2,-215.84l-68.15 -126.81c-29.49,-54.87 -117.66,-53.82 -155.76,-110.97 -26.04,15.72 -22.22,37.61 -36.5,60.97 -14.98,24.48 -51.52,-32.2 -57.2,-42.68 -16.83,-42.44 -17.03,-57.13 -17.03,-103.65 -49.01,-12.25 -61.89,-46.33 -96.13,-76.82 -34.26,-30.5 -69.28,-41 -98.57,-65.85 -22.39,-18.98 -31.84,-42.67 -51.11,-59.75 -32.53,-28.81 -80.26,-10.37 -121.69,-17.07 -153.2,-24.77 -140.1,-347.61 -181.31,-460.94 -8.1,-22.3 -40.3,-137.61 -36.51,-157.31 -40.32,-80.99 53.8,-179.5 -10.95,-262.17 -50.18,-64.08 -29.2,-183.72 -29.2,-264.61 0,-70.78 10,-101.78 25.55,-164.62 9.95,-40.19 -14.24,-77.92 -23.12,-114.63 -18.84,-69.74 -13.95,-140.44 -31.64,-207.3 -15.25,-57.67 -25.55,-108.19 -25.55,-168.28 29.92,7.51 71.33,138.8 103.43,102.43 38.2,-43.26 -0.9,-70.18 -23.12,-110.96 -58.29,-106.99 -218.51,-213.01 -222.68,-348.75 -21.38,-78.42 -19.47,-167.61 -19.47,-249.98 0,-106.81 -26.87,-99.79 -114.39,-146.33 -30.07,-15.99 -67.95,-66.53 -77.88,-96.34 -65.31,0 -160.06,-86.91 -186.48,-145.43 -63.14,-63.4 -103.56,-237.76 -222.54,-187.67 -161.98,68.18 -127.83,-87.33 -212.82,-155.99 -60.99,-49.26 -54.84,-101.08 -77.83,-171.83 -11.63,-35.82 -37.21,-58.6 -31.62,-99.91l-5630.41 0 0 21256.06 7971.62 0zm11028.38 -21256.06l-11192.79 0 80.26 158.41c6.37,65.81 -5.83,96.39 47.43,149.89 62.48,62.77 115.32,201.1 136.2,286.38 14.91,60.86 9.45,107.54 6.08,166.96 -1.17,20.78 -53.38,150.16 -68.1,160.86 -46.69,59.11 -34.8,29.25 -18.24,108.46 15.73,75.2 205.59,354.71 133.77,426.53 -34.64,34.64 -53.86,22.22 -19.46,81.65 30.23,52.25 50.35,112.74 79.04,166.96 26.06,49.23 108.31,122.23 117.97,165.74 58.25,102.17 225.41,356.09 333.2,397.28 179.77,68.68 407.44,148.88 504.68,324.16 -1.63,-0.91 -1.88,-1.81 -3.65,-1.22 2.42,12.12 26.77,52.2 35.27,59.71 28.23,24.91 25.3,-19.49 47.42,-19.49 10.72,42.72 76.62,74.12 76.62,116.99 -82.1,16.47 51.86,78.65 59.59,82.87 73.92,40.44 11.17,121.25 77.83,179.14 22.26,19.34 19.91,74.91 29.18,104.8 12.73,41.06 70.85,30.41 74.18,43.87 18.16,4.56 -20.04,85.89 -23.1,98.72 -11.42,47.89 19.72,71.95 58.37,81.65 5.42,21.51 4.49,63.64 -3.65,85.3 -3.4,36.3 8.16,107.24 52.29,107.24 56.79,0 42.48,-11.76 68.1,36.56 33.09,62.44 34.13,130.17 59.59,191.33 96.38,231.45 225.11,342.19 430.5,470.4 67.89,73.96 159.45,106.46 165.38,210.83 5.06,89.18 28.83,225.81 133.77,252.26 19.78,79.12 7.92,98.36 91.21,142.58 65.79,34.94 41.07,125.31 51.08,185.24 22.46,131.66 127.61,341.96 53.5,477.71 -21.14,38.71 -99.72,103.12 -99.72,138.93 0,63.16 75.4,119.94 75.4,185.24 7.62,40.85 16.94,85.02 4.87,121.86 -34.39,0 -19.02,-69.46 -55.94,-69.46 -5.41,26.97 4.71,81.65 -34.05,81.65 -1.6,-6.41 -12.17,-9.94 -12.17,-20.72 0,-13.58 4.87,-25.34 4.87,-37.78 16.57,-4.17 3.82,-80.85 1.21,-93.83 -2.7,-0.68 -2.43,-1 -2.43,-3.66l-1.21 -1.22c-7.77,0 -26.11,38.1 -32.84,46.31 -15.81,19.32 -40.42,72.52 -19.46,96.27 18.43,20.87 38.3,31.2 45,64.59 46.53,9.33 93.55,-19.33 139.85,10.97 50.39,32.96 28.45,81.29 46.21,129.18 12.39,17.92 37.68,65.22 30.4,88.96 -16.7,54.51 15.81,96.93 15.81,151.11 0,21.38 -16.5,41.5 -10.94,68.25 6.13,29.54 17.47,62.17 27.97,90.18 35.54,28.19 46.08,135.55 49.86,179.14 8.37,96.6 92.81,163.86 124.04,244.95 15.97,41.45 37.7,80.21 37.7,127.96 0,47.23 -24.33,96.03 -24.33,147.46 11.74,60.6 -6.88,112.61 8.52,175.48 33.16,135.41 144.71,196.53 144.71,352.19 -2.06,0.69 -1.21,3.61 -1.21,6.1 -1.31,0.43 -2.44,5.21 -2.44,7.31 -4.37,1.1 -2.47,4.87 -7.29,4.87 -0.56,2.24 -0.2,1.88 -2.44,2.44 -0.55,2.24 -0.2,1.88 -2.43,2.44 -1.88,7.64 -19.17,16.37 -26.75,18.28 -2.17,8.7 -6.08,14.11 -6.08,24.37 59.81,20.15 101.59,-33.59 145.93,-64.59 18.31,-12.79 106.83,35.36 132.55,41.44 104.69,24.75 56.55,81.41 186.06,52.4 98.81,-22.14 196.26,11.63 283.35,-58.5 84.48,-124.71 112.2,-54.34 206.74,-59.71 64,-3.64 127.68,100.08 127.68,-29.25 30.28,10.09 36.49,40.22 82.7,40.22 0,-159.75 101.71,-195.49 245.65,-204.74 21.96,-1.41 106.28,-138.53 132.55,-163.3 75.75,-71.44 153.54,-69.51 248.08,-101.15 177.72,-66.66 395.34,37.08 566.7,-38.99 93.35,-41.43 145.42,-50.5 240.78,-74.34 56.88,-14.21 193.46,-20.88 227.41,-75.56 37.59,2.35 94.23,-104.58 133.77,-127.96 59.96,-35.47 212.14,-136.48 278.49,-136.48 90.8,0 107.54,78.12 215.24,26.81 50.05,-23.85 79.33,8.88 125.26,-14.63 35.28,-18.05 81.67,4.58 117.96,-8.53 42.46,-15.35 123.34,-133.86 154.44,-171.83 17.04,-20.82 46.83,-36.51 68.1,-51.18 25.99,-17.94 13.9,-56.17 40.13,-79.22 8.46,-6.71 13.24,-18.18 21.89,-23.15l207.95 -113.33c69.17,-37.69 343.35,-166.04 418.34,-138.93 109.96,39.74 245.24,-69.22 344.15,-113.34 90.48,-18.6 169.44,-71.18 266.32,-84.08 80.8,-10.75 196.65,-50.75 276.05,-76.78l197.01 -64.59c65.46,-21.46 100.54,-68.18 166.6,-92.62 63.92,-23.64 115.2,-61.2 178.77,-90.18 39.64,-23.05 97.35,-37.81 141.07,-48.74 0,-196.28 -80.34,-298.79 59.58,-485.03 133.68,-177.95 537.48,-280.4 750.33,-318.07 84,-22.1 169.43,7.52 224.97,-73.12 34.36,-49.87 86.51,-51.18 142.29,-51.18 36.52,0 83.86,-41.6 107.01,-67.03 51.28,-56.3 323.74,-40.62 392.8,-14.62l57.09 43.87 0 -4729.58zm-10666.23 21256.06c-23.36,-55.96 -131.42,-101.49 -162.95,-151.4 -34.74,-54.97 -7.32,-143.16 -10.95,-207.18 -2.15,-37.84 55.48,-124.18 81.48,-147.45 31.29,-28.02 45.46,79.45 48.64,98.71 6.38,38.71 21.5,80.29 36.49,116.99 16.07,39.36 59.71,63.17 76.61,103.58 16.87,40.31 27.97,74.4 27.97,119.43l0 67.32 -97.29 0zm267.54 -782.67c25.04,-87.82 51.2,-195.8 30.4,-290.04 -6.89,-31.21 -29.68,-40.23 -60.8,-47.53 -34.92,-8.18 -47.62,-21.21 -58.37,12.19 -8.19,25.48 -6.9,59.18 -12.16,86.53 -5.14,26.67 -23.72,52.98 -29.19,80.43 -9.02,45.31 38.72,67.33 15.81,113.33 -15.57,31.24 -16.5,38.87 -47.43,58.5 -47.41,30.07 65.29,185.09 134.99,35.34l26.75 -48.75zm9984.07 -12663.05c-50.54,28.51 -110.74,-4.93 -169.04,40.22 -41.13,31.86 -77.82,-0.16 -109.45,-29.25 -40.65,-37.4 -139.55,-43.71 -188.49,-13.4 -44.96,27.86 -9.2,43.69 -30.4,75.55 -12.61,18.97 -69.65,26.58 -72.97,36.56 64.1,16.02 119.28,68.98 160.53,114.56 79.62,88 293.49,49.66 395.23,20.71 29.31,-8.33 290.23,-123.87 294.29,-140.14 -62.04,0 -158.67,-75.34 -221.33,-96.28l-58.37 -8.53zm-1259.87 336.96c-27.07,0 -65.85,-5.69 -89.99,-17.06 -10.38,-4.89 -60.5,-19.7 -68.1,-7.31 -10.27,16.72 53.12,34.88 62.02,37.17 29.4,7.57 52.45,24.45 83.91,25.59 14.91,0.54 29.08,5.58 43.17,1.83 27.82,-7.39 11.46,-24.95 -7.29,-36.56l-23.72 -3.66zm-6644.08 -1228.4c0,-26.41 -5.47,-53.07 -5.47,-79.22 0,-7.56 -8.61,-67.49 -19.46,-44.48 -7.89,16.75 -20.89,29.19 -32.84,42.66 -22.18,25.03 -5,35.01 12.77,54.23 14.86,16.09 8.43,48.77 40.13,40.82l4.87 -14.01zm-23.11 106.63c-10.18,0 -21.74,3.31 -30.4,8.53 -12.83,7.72 -10.1,21.79 -10.95,34.12 -0.44,6.31 -10.01,12.16 -13.37,18.28 -3.23,5.87 -4.26,11.1 -4.26,17.67 3.57,1.17 14.5,13.93 17.03,17.67 25.6,37.74 43.63,-72.37 45.6,-82.26l-3.65 -14.01zm-1703.13 -1381.35c-36.09,6.36 -72.39,-21.98 -90.59,-49.35 -10.55,-15.86 -37.14,-62.29 -51.08,-70.68 -9.22,-5.56 -54.02,-5.05 -64.45,-3.05 -15.57,3 -24.92,32.08 -38.92,42.65 -59.84,45.14 -28.36,46.71 -1.21,94.45 22.6,39.76 21.18,63.73 78.43,62.15l88.17 -2.44c33.21,-0.92 66.31,10.97 99.72,10.97 78.48,0 23.54,-40.42 -1.83,-74.34l-18.24 -10.36zm-114.31 -339.39c-6.75,12.62 -19.83,23.19 -34.05,28.03 -28.18,9.58 -45.68,0.18 -66.28,28.64 -9.58,13.23 -41.34,17.96 -37.09,35.95 3.2,13.59 26.11,26.21 37.7,31.68 11.78,5.55 21.42,13.95 34.66,8.53 8.22,-3.37 18.2,-6.16 25.54,-10.36 8.89,-5.1 22.2,-25.5 27.97,-34.73 9.02,-14.46 6.34,-35.8 14.59,-52.4l-3.04 -35.34zm1249.53 -491.12c-4.46,-10.42 -3.83,-26.9 -6.69,-38.39 -2.68,-10.81 -3.25,-20.53 -4.86,-31.68 -2.61,-18.14 -5.1,-19.91 -25.54,-17.06 -10.69,1.48 -33.63,-2.9 -29.19,14.62 5.9,23.25 24.92,42.09 30.41,65.2 2.19,9.2 5.23,16.28 13.37,21.93 10.7,7.44 13.6,23.63 25.54,3.66l-3.04 -18.28zm138.63 85.31c-6.47,-2 -14.88,-13.07 -20.06,-18.28 -4.91,-4.92 -23.12,-40.58 -32.84,-32.91 -6.45,5.1 13.72,31.55 16.42,39 2.63,7.29 4.4,14.5 1.83,22.54 -4,12.46 -2.23,26.29 4.86,36.56 11.67,16.93 28.03,14.36 33.44,-6.09l-3.65 -40.82zm-161.74 -29.86c-11.98,0 -26.83,-13.54 -36.48,-19.5 -12.28,-7.6 -20.48,-27.42 -35.26,-27.42 -3.38,13.76 51.12,60.34 63.23,72.51 9.86,9.9 28.62,18.28 42.56,18.28 30.32,0 -1.42,-20.52 -10.33,-26.2l-23.72 -17.67z"/>
  <path class="fil0 str1" d="M3996.37 18142.81c0,-55.15 50.71,-86.31 72.97,-130.4 35.19,-69.67 -10.82,-165.89 52.29,-229.11 49.21,-49.28 98.73,15.7 154.44,-40.21 22.01,-22.08 162.04,-64.1 186.06,-59.72 46.34,8.44 83.22,-131.61 139.85,-131.61 30.98,61.97 17.96,110.29 103.37,71.9 91.5,-41.14 53.03,-18.34 77.83,56.06 98.21,-19.7 74.21,-106.93 147.15,-141.37 57.38,-27.1 93.56,-104.8 170.25,-104.8 16.06,49.01 60.63,47.27 63.23,65.81 52.11,68.66 -9.72,28.69 -9.72,79.21 29.42,4.22 72.71,35.34 82.69,35.34 12.72,-50.88 36.25,-119.5 109.45,-107.24 12.83,91.09 86.74,63.75 125.25,136.49 19.69,37.21 42.28,99.16 80.27,116.99 21.95,10.31 86.63,6.13 89.99,39 7.29,71.38 -50.91,29.31 32.83,85.3 30.65,20.5 66.32,77.08 76.61,108.46 2.37,-0.79 0.07,-0.43 2.44,-1.22 0,-144.23 74.55,-121.65 198.22,-146.23 92.43,-18.36 71.51,-45.35 133.77,17.06 24.28,24.33 47.27,82.92 37.7,112.11 -19.34,0 -35.47,-31.4 -49.86,-2.43 -22.41,45.14 -153.42,27.09 -195.79,37.77 0,25 33.12,74.24 -15.81,90.18 -31.45,10.25 -108.07,1.56 -139.85,-18.28 -46.42,-29 -77.29,44.5 -113.1,80.44 -36.42,51.33 -52.72,88.27 17.03,131.61 100.88,62.7 -41.41,221.6 -99.72,280.29 -10.9,10.96 -65.03,32.92 -63.24,48.75 1.86,16.36 66.89,22.74 66.89,64.59 0,12.01 -127.23,-2.5 -100.94,12.18 17.12,9.55 29.27,16.13 20.67,35.34 -14.42,32.24 68.24,34.8 46.22,70.69 -17.38,28.31 -131.72,2.43 -162.96,2.43 -16.14,0 61.41,132.84 -42.56,132.84 -2.35,26.63 4.74,47.97 -30.4,49.96 -9.66,0.55 -25.5,2.13 -31.62,10.97 -2.42,3.5 -10.23,19.63 -14.6,20.72 0,4.6 -2.74,2.42 -3.64,6.09 -6.48,1.62 -43.75,19.38 -46.22,24.37 -3.15,6.34 24.3,23.86 30.41,30.47 15.04,16.24 26.75,37.22 26.75,60.93 0,36.51 -12.68,25.59 -41.35,25.59 -81.08,-27.83 -102.29,-12.97 -172.68,30.47 -74.82,46.16 -77.91,-21.72 -108.23,-82.87 -31.1,0 -113.1,7.37 -113.1,-41.43 -3.66,-0.61 -4.34,-2.44 -9.73,-2.44 -1.55,6.33 -35.01,21.59 -41.34,23.15l0 2.44c65.82,16.59 -15.92,119.43 117.96,119.43 51.77,0 43.96,46.23 132.55,28.03 78.54,-16.13 127.04,-3.76 215.25,18.28 76.7,19.17 152.39,-86.26 206.73,-68.25 0,50.29 25.83,112.06 -37.7,124.31 -99.71,19.24 -183.68,154.93 -302.8,177.92 -99.72,19.24 -122.73,-107.27 -198.22,-95.05 -53.18,8.61 -104.44,23.76 -119.18,82.86 -3.91,15.66 33.16,97.5 6.08,97.5 -21.27,0 -33.18,-69.21 -60.8,-75.56l-58.38 -13.41c-50.08,-11.51 -1.28,-57.79 -63.23,-19.49 -30.61,18.93 -55.84,41.15 -65.67,-8.53 -75.46,-12.64 -152.89,-31.71 -175.12,-120.65l-2.43 0c-1.72,5.17 -45.89,32.2 -53.51,39 -36.91,17.4 -55.37,24.74 -96.07,32.9 0,23.11 71.75,61.18 71.75,92.62 -32.98,8.28 -51.99,-30.47 -82.69,-30.47 -35.33,0 -54.85,106.63 -45,134.05 2.82,7.88 13.43,69.6 -9.73,52.41 -52.71,-39.15 -14.79,-44.89 -96.07,-32.91 -60.85,8.97 -7.38,-21.41 -4.86,-46.31 1.45,-14.28 -92.81,-42.53 -51.08,-77.99 23.62,-20.06 7.3,-91.83 7.3,-121.87 -34.13,0 -58.44,29.19 -93.64,3.66 -14.71,-10.68 21.04,-59.04 23.11,-74.34l17.02 -125.52c8.42,-62.1 -36.32,-10.97 -63.24,-10.97 0,-21.41 56.05,-116.03 69.32,-143.8 31.76,-66.42 25.84,-120.45 38.92,-190.11 21.61,-63.24 125.54,-374.41 57.15,-419.22 -12.17,-7.98 -30.39,-16.65 -38.91,-28.03 -19.03,-25.43 15.78,-52.81 -32.84,-51.18 -57.85,1.93 -105.29,-8.8 -42.56,-68.24 31.92,-30.25 71.62,-99.03 92.42,-137.71l0 0zm-1670.9 4113.25l-37.7 -128.25c-11.01,-55.28 -70.86,-75.03 -94.85,-123.08 -50.13,-100.43 103.77,-139.47 114.31,-237.64 5.27,-49.03 -1.45,-97.86 -20.67,-143.8 -26.94,-64.37 -106.94,-122.64 -127.69,-185.24 -5.32,-170.1 -90.75,-319.16 -12.16,-494.77 38.16,-85.26 104.3,-260.61 72.96,-354.63 -49,16.33 -22.8,174.27 -114.31,174.27 52.56,-92.74 -15.25,-199.54 7.3,-304.67 5.98,-72.54 31.61,-142.04 31.61,-214.48l0 -160.86c22.33,0 128.5,0.06 130.12,23.15 6.94,98.9 -7.67,185.93 10.95,282.73 16.32,84.86 57.51,191.53 113.1,260.79 5.65,25.93 17.02,74.2 26.75,97.49 28.66,68.61 64.28,26.24 60.8,118.21 -3.78,100.14 -31.61,200.2 -31.61,299.79 0,2.74 84.89,55.88 99.71,71.9 33.23,35.89 35.27,104.57 35.27,151.12 -1.25,40.25 -22.08,71.55 -29.19,108.46 -19.2,99.67 236.76,305.56 108.24,398.5 -29,20.96 -122.83,43.19 -122.83,67.02 0,64.17 -1.67,156.75 43.78,202.3l57.16 91.69 -321.05 0zm-285.78 -3195.61l-23.11 115.78c-7.06,35.43 -47.42,51.72 -47.42,88.96 0,38.96 113.2,67.37 17.02,124.3 -18.34,10.86 -35.26,10.85 -35.26,37.78 0,56.67 55.15,-4.48 66.88,-28.03 29.21,-58.61 26.7,-91.81 30.4,-160.86 1.59,-29.75 12.16,-58.35 12.16,-88.96 0,-29.52 33.96,-37.23 40.13,-56.06l3.65 0c0,56.36 15.8,114.54 1.22,171.83 -10.69,41.99 -8.51,77.3 -8.51,120.65l2.43 1.21c45.77,-36.55 79.05,-117.03 122.82,-164.51 13.36,-14.48 32.7,-21.31 45,-37.78 19.28,-25.8 7.77,-34.28 -13.38,-52.4 -52.57,-45.06 17.18,-150.71 -58.37,-192.55 -23.21,-12.86 -49.12,-67.79 -69.32,-30.47l-62.02 114.55 -24.32 36.56zm482.79 -1244.24c-17.46,14.77 -31.46,31.43 -55.94,36.56 -57.32,12 -68,11.87 -92.43,73.12 -29.31,73.45 -103.39,94.74 -76.61,187.67 3.74,12.98 -0.79,64.12 9.73,67.03 32.44,8.97 122.16,-5.02 134.98,-41.44 17.74,-50.36 39.99,-68.39 85.13,-96.27 40.93,-25.29 127.69,-84.76 127.69,-138.93 0,-20.11 -32.76,-20.03 -45,-36.56 -25.75,-34.74 -7.82,-33.06 -54.72,-48.75l-32.83 -2.43zm1098.12 -1567.19c-3.27,1.5 -6.53,1.77 -7.29,4.87 -62.89,15.72 -190.51,125.13 -238.36,173.05 -114.23,114.37 -219.85,211.05 -316.18,342.44 -5.98,8.15 -36.47,57.01 -18.24,58.5 53.02,4.36 77.88,-22.77 98.5,31.68 14.91,39.35 14.83,75.94 24.32,114.56l1.22 1.22c5.57,0 148.04,-178.9 177.55,-201.08 53.58,-40.26 51.93,-98.67 121.61,-127.96 102.27,-42.98 175.99,-113.89 227.4,-210.83 24.89,-46.92 34.26,-205.37 -36.48,-210.83l-34.05 24.38zm833.02 421.65c-37.07,-28.53 -69.42,-45.71 -97.29,-82.87 61.48,0 138.39,-20.32 203.09,-40.21 60.22,-18.5 85.92,-97.5 149.58,-97.5 60.12,0 94.74,-24.13 138.63,-70.68 0.5,-0.54 -43.17,55.39 -19.45,93.84 19.78,32.04 -77.22,6.56 -104.59,17.06 -33.11,12.69 -198.55,134.51 -184.84,153.55 30.93,42.98 6.22,73.72 83.91,49.97 42.86,-13.11 65.44,-39.05 114.31,-36.56 103.61,5.28 151.46,-54.8 244.43,-76.78 24.53,-5.8 58.83,-9.53 81.48,-18.28 16.35,-6.32 64.45,-52.38 65.67,-51.18 29.08,28.85 -85.08,96.9 -100.94,106.02l-131.33 75.56c-14.39,8.28 52.12,28.58 62.02,56.06 7.39,20.5 168.78,33.48 142.28,54.83 -123.47,99.44 -219.86,-62.95 -342.94,-53.62 -26.89,2.04 -15.31,25.73 -57.15,15.85 -42.18,-9.95 -80.95,19.04 -122.83,10.96 -35.09,-6.76 -59.91,-53.15 -91.21,-73.12l-32.83 -32.9zm2793.38 -1004.18c-39.83,-53.25 -107.57,-128.01 -127.69,-193.77 -23,-75.2 -43.08,-156.74 -46.21,-236.41 -1.95,-49.61 27.03,-120.3 14.59,-163.3 -9.65,-33.32 -24.79,-58.97 -27.97,-95.05 29.54,-78.78 17.93,-147.87 6.09,-225.45 -10.92,-71.5 37.71,-182.89 13.37,-242.51 -2.7,-6.61 -116.53,-7.31 -136.2,-7.31 -46.46,0 -53.94,121.91 -59.59,157.2 -7.24,45.27 -10.94,88.69 -10.94,135.27 11.21,39.96 -11.39,69.64 -25.54,103.59 -6.86,16.44 -13,27.6 -15.81,45.08 -3.22,19.96 0,40.9 0,60.94 9.48,55.55 -14.08,109.06 -7.29,164.51 8.08,65.88 19.62,59.87 55.94,101.15 22.8,25.9 9.69,91.76 40.13,132.83 34.85,47.04 39.88,58.41 98.5,73.12 0,32.42 5.73,136.71 24.32,162.08 14.39,19.62 49.75,11.65 64.45,36.56 17.98,30.44 22.1,40.38 49.86,68.24 40.82,27.73 33.57,49.62 48.64,88.96 11.28,29.42 26.53,45.11 51.08,67.02 32.69,29.16 39.98,78.98 55.94,120.65 5.9,15.4 6.6,25.14 29.18,19.5 16.09,-4.01 37.33,-10.05 52.3,-17.06 14.63,-6.84 6.76,-70.37 6.08,-90.18 -1.04,-30.19 -0.96,-59.16 2.43,-88.96 2.92,-25.76 16.35,-80.11 -9.73,-97.49 -34.86,-23.25 -76.26,-21.39 -111.88,-49.97l-34.05 -29.24zm689.49 -6564.89c-25.56,9.61 -64.88,-19.87 -85.13,4.88 -15.55,18.99 -31.36,62.9 -64.45,42.65 -25.12,-15.38 -24.41,-37.78 -60.8,-37.78 -96.16,0 -86.98,307.53 -48.65,310.76 60.1,5.08 124.56,-14.14 161.74,37.78 10.68,14.93 5.32,42.09 17.03,59.71 12.14,18.25 27.62,38.52 32.83,59.72 28.33,0 84.34,-206.16 107.02,-243.74 20.21,-33.51 43.78,-71.1 43.78,-110.89 0,-39.35 -26.14,-101.35 -60.81,-120.65l-42.56 -2.44zm268.76 4271.39c-34.58,-55.39 -45.54,-113 -19.46,-171.83 10.35,-23.33 28.75,-43.09 40.13,-67.03 26.95,-56.65 40.29,-2.43 83.91,-2.43 24.85,0 65.64,-8.49 53.51,29.24 -5.54,17.21 -22.84,54.75 -35.27,68.25 -22.79,24.78 -25.49,45.23 -27.97,75.55 -2.34,28.5 -35.08,64.77 -64.45,67.03l-30.4 1.22zm-136.21 313.19c10.12,-43.75 26.62,-90.56 31.62,-136.49 1.31,-12.07 5.51,-48.11 -9.73,-53.62 -25.85,-9.33 -38.97,60.78 -54.72,74.34 -35.89,30.87 -76.61,59.34 -76.61,112.12 0,14.19 -11.57,56.68 -2.44,67.02 24.49,27.75 72.46,-26.75 85.13,-45.09l26.75 -18.28zm-1697.65 6608.77c9.54,-26.82 23.43,-50.05 35.26,-74.34 8.63,-17.7 32.03,-30.47 40.14,-49.96 7.12,-17.09 9.68,-62.57 -10.95,-73.12 -37.52,-19.21 -76.46,61.96 -99.72,81.65 -55.45,46.96 -117.96,49.9 -175.11,85.31 -57.22,35.44 -99.72,47.45 -99.72,125.52 58.5,0 86.93,-13.72 133.77,-46.31 37.11,-25.83 102.19,-34.16 145.93,-45.09l30.4 -3.66zm460.89 25.59c0,-17.53 11.76,-34.64 14.6,-51.18 6,-34.99 7.65,-69.26 -4.87,-104.8 -32.87,-93.33 -69.48,58.34 -76.61,86.52 -6.41,25.37 -11.9,52.7 -13.38,80.43 -0.5,9.41 -2.16,26.64 0,35.34 6.76,27.1 52.27,-9.72 60.81,-17.06l19.45 -29.25zm153.23 -874.99c22.57,-49.06 17.03,-92.57 17.03,-143.8 0,-17.82 0.23,-43.03 -17.03,-52.4 -19.33,-10.48 -45.88,-35.34 -68.1,-35.34 -11.76,46.69 -28.86,110.24 -13.38,160.86 9.67,31.61 26.31,56.66 34.05,87.74 10.94,43.95 -25.22,20.42 -43.77,8.53 -24.91,-15.95 -11.04,76.61 -6.09,86.53 18.15,36.3 87.42,-60.26 88.78,-78l8.51 -34.12zm1777.92 -6915.87c1.31,-6.98 3.3,-23.71 1.22,-30.47 -6.81,-22.02 -22.31,-6.2 -13.38,-35.34 5.51,-18.01 9.41,-48.75 0,-65.8 -27.59,-50.02 -25.23,22.88 -43.78,41.43 -14.5,14.5 -38.08,12.6 -55.94,17.06 -37.31,9.31 -59.37,53.43 -10.95,68.25 17.43,5.34 35.27,-1.08 35.27,23.15 0,21.42 44.94,8.15 54.72,2.44l32.84 -20.72zm2264.35 -2651.79c-8,-18.38 -21.99,-45.57 -37.7,-54.84 -9.59,-5.65 -32.52,-7.33 -43.78,-3.66 -11.69,3.82 -25.68,16.08 -27.97,28.03 -5.04,26.21 17.15,31.33 20.68,52.4 1.47,8.75 3.23,20 9.73,25.59 14.09,12.09 41.93,2.73 54.72,-6.09l24.32 -41.43zm-6320.29 -8877.89l-58.08 54.82c-32.85,41.92 -49.39,78.27 -66.88,127.96 -6.23,17.68 -6.08,38.02 -6.08,57.28 0,21.53 -20.64,27.88 -24.33,42.65 -4.44,1.12 -6.74,7.04 -7.29,10.97 -9.89,2.47 -12.57,128.71 -82.7,146.24 -2.33,16.7 -21.69,22.46 -42.79,33.95 -26.51,14.44 -57.04,30.53 -73.95,5.04 -82.1,-123.82 -135.26,-62.37 -226.19,-8.53 -35.32,20.92 -62.26,58.85 -105.8,62.15 -38.85,2.94 -92.25,-50.9 -120.4,-43.87 0,28.64 74.31,94.02 37.7,129.18 -30.79,29.58 -22.16,71.32 -71.75,102.37 -19.05,32.22 -67.93,72.74 -100.93,90.18 -99.5,52.57 -56.64,88.2 -115.53,169.39 -23.22,32.01 -84.51,188.43 -67.4,196.87 22.19,10.97 41.28,-10.41 58.89,-56.72 51.62,-135.73 183.1,-342.62 322.26,-400.94 62.83,-26.32 61.3,2.18 108.23,-65.81 47.77,-69.19 51.83,-132.47 125.26,-181.58 75.07,-50.2 73.4,-11.36 126.47,30.47 52.47,41.34 28.01,44.9 92.43,4.87 44.09,-27.41 100.51,-49.97 127.68,-92.62 28.74,-45.14 28.8,-107.6 83.91,-135.27 27.72,-7.14 21.32,-34.76 34.05,-54.84 11.39,-17.99 11.46,-31.21 27.97,-14.62 9.77,9.81 19.68,18.05 27.97,29.25 9.96,13.44 37.49,44.58 49.86,51.18 21.02,11.23 30.33,-22.86 36.49,-39 13.18,-34.58 -1.64,-38.25 -25.54,-62.15 -43.33,-43.33 -68.79,-85.17 10.94,-54.84 48.82,18.56 6.43,-31.78 8.52,-52.4 1.49,-14.65 19.46,-17.51 30.4,-18.28 17.57,-1.23 19.67,-7.04 25.54,-23.15l23.1 -40.2 -162.03 0z"/>
  <g id="_2093981106864">
   <path class="fil2 str2" d="M3575.09 2176.65c-20.9,31.05 -39.88,63.52 -62.72,93.17 -22.76,29.56 -22.18,87.51 -75.4,93.84 -6.72,0.8 -17.02,3.3 -17.02,21.93 0,79.48 -2.55,92.49 -77.83,121.87 -32.79,12.8 -87.93,35.65 -113.1,60.93 -36.37,36.55 8.42,38.44 10.95,69.46 2.9,35.42 -54.45,71.17 -80.26,86.53 -25.13,14.95 -3.66,102.58 -21.89,125.52 -19.24,24.19 -53.75,21.19 -88.78,25.59 -131.19,16.49 -98.84,154.35 -70.53,246.17 9.89,32.07 9.01,71.52 43.78,88.96 80.4,40.31 106.53,-33.11 99.72,101.15 -3.8,74.82 92.12,256.14 -62.02,226.67 -186.75,-35.7 -3.52,303.59 9.72,383.88 16.1,97.58 14.28,205.47 -1.21,302.22 -15.74,98.33 32.87,207.21 82.69,286.39 43.07,68.43 69.15,73.6 83.91,154.77 8.88,48.82 -7.67,122.95 27.97,163.3 33.64,38.1 80.66,-4.76 103.37,43.87 13.49,28.87 140.4,91.49 175.12,97.49 57.7,9.96 111.8,-43.87 178.76,-43.87 138.21,0 132.01,-119.51 206.74,-180.36 68.6,-55.87 49.49,-166.12 132.55,-190.11 93.26,-26.95 93.33,-69.19 169.03,-92.62 44.06,-13.64 -32.7,-112.36 59.59,-145.02 75.34,-26.65 79.33,-21 134.99,-76.78 78.04,-78.23 158.51,-108.06 228.62,-207.17 71.39,-100.91 297.49,-289.51 402.53,-131.61 18.69,28.11 23.02,67.93 41.34,101.15 30.5,55.28 89.47,37.84 120.4,86.52 25.6,40.29 12.19,108.09 6.08,152.33 -4.2,30.36 -8.44,82.91 -7.3,113.34 2.52,67.21 51.73,25.8 91.21,56.06 38.49,29.49 -6.01,107.03 2.43,155.98 7.6,44.07 78.15,104.25 114.31,130.4 120.71,87.31 110.9,297.7 81.48,436.28 -18.45,86.87 -30.03,140.78 -65.67,221.79 -32.66,74.21 -67.7,115.06 -87.56,201.08 -30.11,130.45 12.5,228.26 -115.53,297.35 -31.61,17.05 -63.25,34.13 -94.85,51.19 -34.87,18.81 -78.64,2.43 -109.45,25.59 -52.25,39.26 -64.99,112.79 -148.36,99.93 -148.17,-22.86 -182.11,100.19 -287,173.05 -121.69,84.52 -82.89,224.32 -98.5,354.63 -5.7,47.55 -13.55,86.55 -20.92,124.66 -8.89,46 -15.16,91.05 -7.05,149.53 3.86,27.84 18.85,70.68 9.73,98.72 -19.9,61.21 -49.86,73.74 -49.86,148.67 0,101.55 -33.92,157.09 -104.58,227.89 -76.03,76.2 -58.87,145.82 -62.02,242.51 -3.05,93.7 69.92,188.17 76.61,276.64 7.72,102.22 88.81,93.89 105.8,163.3 14.43,58.99 7,90.66 72.96,110.89 43.98,13.49 24.32,155.92 24.32,197.43 0,80.15 66.89,131.97 116.75,184.01 54.41,56.77 8.51,119.2 8.51,184.02 0,120 41.75,224.75 3.65,343.66 -44.4,138.6 -23.56,264.12 -17.03,408.25 3.02,66.74 28.74,91.83 -13.37,168.18 -59.27,107.43 -52.29,182.28 -52.29,304.66 0,35.16 5.07,81.55 -13.38,110.9 -16.21,25.81 -55.58,22.14 -70.53,46.31 -34.25,55.4 -28.75,83.01 -98.51,110.89 -67.15,26.85 -139.75,107.32 -184.84,163.3 -26.07,32.35 -30.68,84.03 23.1,70.69 48.66,-12.08 72.64,-7.37 75.4,37.77 7.41,121.24 27.9,201.17 -69.32,298.57 -62.93,63.06 -98.65,132.18 -181.19,176.71 -125.68,67.79 -184.4,253.62 -316.18,275.42 -72.37,11.97 -130.81,-8.96 -195.79,-41.44 -30.36,-15.17 -45.12,-42.93 -80.27,-49.96 -37.65,-7.53 -96.14,-12.62 -132.55,-15.85 -99.44,-8.83 -195.82,-27.19 -289.43,14.63 -126.32,56.43 -26.73,107.77 -62.02,204.73 -17.51,48.1 -79.75,68.35 -96.07,114.56 -15.04,42.55 24.57,80.89 18.24,124.3 -12.87,88.22 45.74,91.95 65.67,164.52 20.72,75.49 -6.85,122.86 -10.94,197.42 -2.14,39.17 -37.55,90.69 -17.03,123.08 22.45,35.46 38.56,1.47 48.64,62.15 12,72.28 85.68,83.01 88.78,148.68 1.87,39.51 -20.39,96.87 -2.43,134.05 28.37,58.69 69.15,120.23 83.91,182.8 12.5,52.95 30.11,139.27 88.77,166.96 44.57,21.05 40.1,66.34 69.32,91.4 52.8,45.26 124.28,85.08 181.19,130.39 41.92,33.39 107.38,71.26 119.18,129.18 17.1,83.94 52.79,137.87 97.29,207.17 45.03,70.1 79.21,136.68 105.8,216.92 25.43,76.76 80.69,75.46 94.85,138.93 9.58,42.92 35.91,78.48 45,123.08 8.34,40.89 16.67,67.6 7.29,109.68 -5.3,23.77 -18.65,48.07 -17.02,73.12 2.09,32.19 17.86,54.81 12.16,90.18 -7.6,47.17 -22.19,89.22 -23.11,138.93 -1.88,100.54 -93.64,123.78 -93.64,229.11 0,55.96 -45.21,117.33 -54.72,179.14 -18.25,118.63 -24.42,219.7 52.29,320.5 66.62,87.52 145.5,148.68 211.6,244.95 20.19,29.4 40.2,102.24 32.84,137.71 -10.78,52 -69.62,22.03 -103.37,17.06 -137.51,-20.29 -158.46,275.2 -246.87,357.07 -44.24,40.98 -87.28,88.23 -32.83,146.24 37.47,39.93 8.51,51.28 8.51,97.49 0,40.29 50.73,65.86 59.59,97.49 9.45,33.69 -8.1,84.35 -22.5,113.95 -17.51,35.97 -48.84,60.81 -66.27,97.49 -5.64,11.86 -10.07,24.3 -15.1,36.45"/>
   <path class="fil2 str2" d="M3696.95 16260.1c25.68,46.77 145.18,98.73 194.84,113.22 87.71,25.58 167.32,1.79 217.68,-77.99 38.56,-61.11 78.71,-129.65 161.74,-126.74 137.3,4.82 106,164.69 44.99,235.2 -44.18,51.05 -183.59,154.53 -31.62,181.58 23.54,4.19 47.83,1.62 71.75,2.43"/>
   <path class="fil2 str2" d="M4773.46 16749.6c38.16,71.15 9.11,150.99 12.15,231.83 1.24,33.13 16.35,107.51 31.62,136.49 24.76,47.01 31.14,102 48.64,152.33 9.44,27.13 22.85,55.81 41.35,77.99 12.85,15.42 19.66,36.01 32.83,51.19 22.34,25.77 46.38,50.07 69.58,75.11"/>
   <path class="fil2 str2" d="M10092.68 19535.28c-10.16,-12.85 -21.58,-24.81 -30.47,-38.55 -53.31,-82.32 -182.06,-15.35 -240.79,-102.36 -37.02,-54.84 -1.24,-179.26 -7.29,-244.95 -7.64,-82.82 -1.49,-236.09 -43.78,-303.45 -52.82,-84.16 -41.87,-180.56 -71.75,-270.54 -19.51,-58.73 -47.44,-113.77 -72.97,-170.61 -24.74,-55.06 -50.56,-235.81 -102.15,-263.23 -29.37,-15.62 -53.94,-8.41 -66.88,-47.53 -15.15,-45.77 -34.22,-81.48 -58.37,-121.86 -22.89,-38.25 -83.01,-75.9 -115.53,-108.47 -59.93,-60 -169.63,-27.41 -249.3,-60.93 -37.71,-15.87 -65.42,-5.9 -104.58,-8.53 -103.38,-6.95 -192.25,-41.88 -280.92,20.72 -72.61,51.25 -122.17,-59.83 -192.14,70.68 -36.11,67.34 -41.49,51.9 -107.02,75.56 -61.16,22.07 -78.63,147.99 -88.77,205.95 -25.68,146.81 -15.77,141.62 -155.66,135.27 -52.93,-2.4 -95.06,40.47 -143.5,58.5 -77.15,28.71 -138.13,-28.63 -173.9,-80.43 -25.93,-37.55 -20.15,-84.02 -59.94,-112.37 -59.01,-42.05 -56.74,-124.31 -100.11,-180.23 -42.56,-54.88 -154.01,-9.58 -208.54,7.16"/>
   <path class="fil2 str2" d="M8871.66 12878.22c107.11,46.78 175.12,-67.33 279.7,-84.09 68.56,-10.98 156.83,-3.55 188.49,-79.21 26.9,-64.3 30.98,-102.95 85.13,-157.21 27.93,-28 61.66,-52.64 102.15,-37.78 69.12,25.38 110.86,-45.26 167.82,-23.15 96.27,37.36 67.86,43.97 175.12,-4.88 58.65,-26.72 108.01,-67.69 161.74,-101.15 44.98,-28.01 89.99,-56.06 134.98,-84.08 44.58,-27.77 58.69,-90.77 105.8,-116.99 48.9,-27.23 68.51,-17.95 120.39,-25.6 73.87,-10.89 86.57,-105.44 179.99,-109.68 83.18,-3.77 209.16,-58.96 209.16,70.69 0,71 95.04,224.47 144.72,271.76 70.03,66.64 101.84,59.82 186.06,46.31 23.88,-3.83 92.75,75.49 109.45,95.05 47.36,55.43 50.61,175.71 32.83,244.95 -20.09,78.28 -107.1,176.56 -103.37,253.48 1.72,35.39 -12.83,54.46 7.3,92.62 22.87,43.38 78.55,99.12 115.53,130.39 84.54,71.46 252.42,-16.03 328.34,69.47 25.8,29.05 46.43,71.96 80.26,93.83 52.68,34.07 105.54,63.48 162.96,90.18 49.34,22.95 80.11,67.7 137.41,60.94 121.21,-14.29 193.34,26.54 304.03,60.93 84.3,26.18 102.73,59.02 154.44,119.43 55.69,65.08 255.06,47.52 300.37,116.99 41.14,63.1 81.57,25.08 131.34,52.4 33.18,18.2 53.79,93.44 88.77,108.46 63.49,27.25 53.99,27.37 87.56,87.75 28.75,51.73 75.8,36.95 109.45,70.68 26.8,26.85 33.95,67.39 58.37,95.05 22.38,25.34 70.07,27.62 88.78,54.84 72.81,105.93 70.12,239.97 138.63,331.48 39.1,52.21 24.81,109.71 59.59,153.55 25.23,31.79 102.08,29.78 69.32,120.64 -11.15,30.91 1.7,74.9 18.24,103.59 30.86,53.55 66.08,56.32 76.61,127.96 11.7,79.65 -44.31,174.91 -63.24,252.26 -11.02,45.03 -26.75,78.67 -26.75,127.96 0,44.91 9.73,92.97 9.73,134.05"/>
   <path class="fil2 str2" d="M13588.69 15682.35c0.26,4.14 1.2,3.17 1.38,7.3 3.38,76.53 -15.64,214.92 -42.56,285.17 -42.4,110.67 -210.59,277.35 -334.42,282.73 -91.56,3.97 -99.59,117.02 -172.69,153.55 -33.33,16.66 -75.9,9.95 -111.88,23.15 -49.1,18.03 -61.76,39.99 -75.39,78 -17.12,47.71 -71.32,75.55 -111.88,75.55 -54.05,0 -91.33,25.02 -125.26,63.37 -32.47,36.72 -86.6,0.8 -116.74,51.19 -19.38,32.38 -28.48,85.5 -58.38,109.68 -30.65,24.77 -61.71,27.94 -82.69,67.02 -75.95,141.51 -234.95,64.71 -331.99,208.39 -35.39,52.39 -1.79,116.24 -87.56,126.74 -51.88,6.35 -76.56,83.41 -108.23,120.65 -31.27,36.76 -67.27,55.92 -92.42,103.58 -32.88,62.33 -56.51,155.96 -96.92,219.85 -7.57,11.97 -15.77,22.94 -24.69,32.42 -46.32,49.18 -103.41,100.99 -81.48,179.14 7.42,26.44 7.34,54.47 11,81.71"/>
   <path class="fil2 str2" d="M9055.3 14191.94c18.57,28.73 56.41,86.99 79.05,109.67 30.38,30.45 69.57,8.04 102.15,32.91 52.98,40.42 54.8,99.75 138.63,134.05 63.04,25.8 141.26,-25.08 204.3,-36.56 97.69,-17.78 149.25,34.53 229.84,-46.31 60.58,-60.78 144.41,-14.98 199.44,24.37 41.78,29.87 88.73,42.12 120.39,85.31 84.34,115.02 130.92,248.91 250.51,338.78 13.3,10 18.58,28.86 29.78,40.2 46.19,46.76 87.54,92.05 162.36,109.69 52.36,12.34 127.69,-4.48 199.18,-14.49 38.76,-5.42 77.29,-2.98 108.49,-6.23 40.88,-4.25 82.38,-0.52 119.62,3.15 25.46,2.51 46.39,12.45 74.13,-9.65 61.29,-48.84 140.86,-173.13 222.14,-89.77 59.57,61.1 96.74,90.07 167.82,135.27 98.2,62.46 -27.38,164.57 7.3,249.82 16.19,39.79 38.74,77.41 9.73,119.43 -29.08,42.14 -16.44,106.32 1.21,153.54 20.98,56.09 39.6,95.45 15.81,157.21 -20.88,54.18 -57.66,40.46 -98.5,60.93 -36.13,18.12 -32.4,52.26 -30.4,87.74 3.86,68.4 -78.3,56.04 -24.32,146.24 81.18,135.68 -181.33,74.38 -122.83,176.7 25.7,44.97 -19.41,98.82 8.51,126.74 31.38,31.38 96.37,11.22 82.7,67.02 -21.12,86.24 10.31,121.57 49.86,187.67 29.78,49.76 42.56,67.16 42.56,127.96 0,87.02 42.48,114.2 81.48,181.57 33.18,57.3 55.77,169.81 47.42,235.2 -7.29,57.04 25.31,90.16 55.94,130.39 47.55,62.48 48.19,115.32 45,192.55 -3,72.63 6.46,182.39 6.46,255.23"/>
   <path class="fil2 str2" d="M4476.48 6684.15c37.78,27.09 78.39,50.65 113.34,81.29 51.29,44.98 81,80.92 143.5,112.12 89.2,44.52 178,102.34 211.6,197.42 33.51,94.79 61.15,181.33 121.61,268.1 79.21,113.7 136.11,235.96 170.25,374.13 14.78,59.83 33.09,130.29 19.46,191.33 -19.6,87.82 11.82,84.55 24.32,169.39 10.86,73.75 11.94,170.58 38.91,241.3 23.76,62.28 77.84,24.75 124.04,38.99 40.01,12.34 59.39,104.08 72.97,140.15 7.55,20.08 16.53,39.78 19.46,62.15 5.16,39.46 10.17,76.6 26.75,113.33 9.34,20.67 34.63,37.11 46.21,57.28 18.31,31.86 20.24,91.16 21.89,127.96 1.09,24.27 3.99,49.35 13.38,71.9 12.78,30.72 22.75,41.42 49.86,56.06 57.4,30.98 86.06,49.16 69.32,123.08 -8.86,39.11 -18.87,82.12 -6.09,121.87 8.17,25.4 30.47,52.09 36.49,75.55 24.18,94.18 -31.73,185.92 40.13,276.64 43.79,55.3 109.37,111.44 156.87,164.52 96.11,107.43 199.35,63.31 301.59,131.61 141.64,94.61 63.61,232.51 52.29,365.6 -5.83,68.48 2.35,94.56 52.3,129.18 86.79,60.14 16.37,230.28 103.36,251.04 118.76,28.33 79.41,45.68 154.45,125.52 86.47,91.98 78.76,-31.81 103.36,-58.49 22.47,-24.38 65.17,37.61 93.64,-1.22 58.84,-80.27 61.27,-69.33 150.8,-65.81 109.09,4.29 121.48,-85.83 187.27,-146.24 20.12,-18.48 65.91,-84.97 100.94,-63.37 26.3,16.23 39.76,118.22 100.93,101.15 67.88,-18.93 304.67,-36.81 340.51,35.34 27.8,55.99 11.88,74.02 66.88,124.3 17.27,15.78 55.3,30.56 80.26,21.94 43.37,-14.97 56.77,10.33 97.29,19.5 84.37,19.09 82.71,135.62 193.36,109.68 68.61,-16.09 157.79,-67.18 214.03,-109.68 81.37,-61.48 268.65,-93.01 278.48,-223.02 4.32,-57.13 -10.28,-123.35 -2.43,-176.7 8.74,-59.47 22.08,-149.18 18.24,-204.74 -5.86,-84.89 -29.32,-116.53 -102.15,-170.61 -50.11,-37.22 -120.63,-45.09 -181.19,-45.09 -141.52,0 -169.04,-68.53 -250.52,-163.3 -54.4,-63.27 -238.33,-87.33 -255.38,-155.98"/>
   <path class="fil2 str2" d="M1000 16766.95c103.29,15.5 94.29,103.86 237.07,67.02 105.72,-27.28 115.77,-50.16 222.55,0 96.69,45.41 193.51,207.25 307.67,210.83 161.17,5.05 123.72,-210.57 300.37,-51.19 23.62,21.3 59.73,-15.83 79.05,10.97 31.75,44.01 129.57,96.75 150.79,6.1 11.31,-48.3 40.22,-102.23 89.99,-119.43 30.76,-10.62 98.65,-2.68 117.96,-34.12 16.51,-26.87 10.02,-58.4 31.62,-82.87 31.7,-35.89 94.76,-23 116.74,-75.56 24.1,-57.6 39.16,-108.86 79.05,-162.08"/>
   <path class="fil2 str2" d="M5489 5204.68c42.9,22.67 85.9,45.17 128.7,68.03 87.77,46.88 58.22,110.33 127.51,174.26 34.24,31.59 117.01,79.09 160.87,90.72 55.7,14.77 81.92,13.04 122.74,57.29 63.39,68.71 115.81,46.98 181.14,94.29 48.99,35.48 33.77,148.16 91.76,214.85 45.77,52.64 126.32,85.69 126.32,168.29 0,72.89 -5.52,120.52 64.35,163.52 26.7,16.43 83.36,44.68 91.76,76.39 8.4,31.71 0.58,61.84 28.6,85.94 115.47,99.3 13.55,149.02 58.39,275.72 12.78,36.11 0.89,83.33 28.6,115.77 22.15,25.93 54.02,40.25 60.77,75.2 16.14,83.64 29.49,107.21 95.34,164.71 33.13,28.93 81.88,65.99 84.61,114.59 4.29,76.19 -118.37,81.01 -54.82,176.65 21.79,32.8 9.32,55.91 -2.38,90.71 -18.08,53.75 -6.73,105.39 -13.11,161.13 -4.73,41.34 14.57,106.55 44.09,136.07 71.36,71.36 133.37,-2.42 212.12,-16.71 35.14,-6.37 51.2,26.24 77.46,39.39 30.21,15.12 76.88,-11.57 106.39,-25.25 3.11,-1.44 8.42,-9.4 13.37,-10.97 25.4,-8.05 88.91,-64.45 133.77,-75.55 112.95,-27.97 147.02,128.85 212.82,23.15 25.06,-40.27 150.05,-150.56 197,-86.52 26.29,35.86 42.64,76.39 68.1,113.33 22.02,31.96 63.6,87.61 87.87,117.4 86.65,106.36 53.27,158.26 199.56,180.74 80.01,12.29 83.6,120.55 193.06,120.55 58.46,0 138.59,-46 190.66,-28.65 173.62,57.86 307.29,274.8 220.46,445.21 -20.65,40.52 -66.18,83.23 -57.2,130.1 5.24,27.35 31.59,69.36 15.5,96.68 -21.08,35.79 -75.57,10.35 -97.72,54.9 -15.92,32.03 -30.1,84.87 -41.71,112.2 -2.19,5.17 4.15,13.47 2.38,16.71 -37.56,68.81 8.3,392.69 110.83,392.69 39.57,0 74.78,-22.26 114.4,-1.2 46.19,24.55 35.29,85.24 100.1,101.46 70.8,17.72 127.69,-17.61 193.05,-39.39"/>
   <path class="fil2 str2" d="M3088.96 12380.48c20.65,-34.61 48.72,-65.77 61.96,-103.84 20.35,-58.51 38.58,-123.33 51.24,-185 29.38,-143.02 -79.41,-245.27 64.36,-358.08 147.41,-115.67 9.88,-218.77 82.22,-342.56 14.74,-25.23 19.02,-47.5 35.75,-63.26 25.8,-24.29 58.57,-30.35 85.8,-53.71 13.66,-11.71 25.56,-25 32.18,-42.97 7.02,-19.07 4.96,-41.07 20.26,-56.09 11.43,-11.22 23.09,-22.22 34.64,-33.34"/>
   <path class="fil2 str2" d="M3849.65 11132.45c9.4,28.09 5.21,65.61 28.2,84.29 76.3,62.01 103.55,-1.91 187.09,-5.97 49.74,-2.41 81.41,50.72 129.89,60.88 56.4,11.82 67.53,51.92 91.76,95.48 40.88,73.47 125.27,-12.1 164.45,115.78 30.21,98.6 165.69,36.04 195.44,179.04 39.3,188.96 326.51,-26.47 328.84,196.25 0.35,34.09 -18.15,32.75 -9.73,64.59 16.26,61.48 -103.36,186.03 -103.36,276.63 0,32.78 4.91,47.31 3.88,58.68 -3.81,41.79 -1.15,93.74 -12.28,124.77 -9.63,26.85 -26.44,60.54 -28.6,89.52 -2.52,33.73 -6.65,151.2 8.34,176.65 11.73,19.92 42.19,34.87 46.48,57.29 5.96,31.11 -23.75,92.75 -21.45,124.13 1.2,16.36 37.95,115.69 47.66,140.84 33.48,86.63 111.16,99.16 127.51,188.59 18.24,99.76 118.23,284.26 212.12,317.49 65.18,23.06 50.77,107.69 97.72,119.36 103.75,25.8 73.04,55.46 116.78,126.52 34.06,55.32 73.8,159.24 123.94,200.52 44.86,36.93 58.22,101.33 106.06,137.26 113.21,85.04 156.16,-79.35 228.8,-38.19 97.62,55.32 118.83,72.6 177.56,-45.36"/>
   <path class="fil2 str2" d="M4866.11 12258.1c5.9,8.16 19.23,10.58 48.41,13.23 88.78,8.07 105.49,76.99 200.65,47.52 69.84,-21.63 249.72,53.24 285.78,118.21 67.13,120.93 159.11,34.7 152.01,207.17 -2.04,49.73 61.75,88.12 98.51,106.03 35.28,17.19 39.99,54.03 62.02,84.08 40.51,55.25 111.76,46.42 155.65,85.31 37.09,32.87 2.98,99.7 75.4,112.12 55.07,9.44 60.77,-2.66 80.26,47.52 34.01,87.56 218.44,28.02 225.36,150.94 0.85,15.23 90.77,10.43 102.8,9.63 28.3,-1.88 102.18,-38.09 119.17,-57.29 26.23,-29.64 118.15,-219.14 176.37,-130.1 76.45,116.9 119.15,35.33 202.58,-17.91"/>
   <path class="fil2 str2" d="M7665 11363.55c-0.39,26.26 -10.76,54.33 -1.19,78.78 25.02,63.91 157.84,48.22 100.1,157.55 -34.99,66.26 -22.61,104.47 45.28,138.46 71.86,35.98 66.13,181.09 166.84,219.62 144.25,55.2 82.22,124.22 82.22,253.03 0,100.1 -57.37,243.53 -122.74,319.88 -34.56,40.37 -54.12,101.85 -32.18,151.59 20.32,46.06 109.56,-23.86 112.02,32.22 2.19,49.97 -83.83,79.82 -67.92,142.04 22.32,87.28 -92.77,70.65 -116.79,137.26 -39.81,110.41 -60.85,90.92 -125.12,119.36 -98.01,43.38 -31.28,-6.16 -112.02,-39.39 -16.73,-6.88 -107.95,3.38 -144.2,-3.58 -69.42,-13.33 -183.68,127.2 -237.14,173.07 -68.11,58.44 -120.48,39.39 -199.01,39.39 -46.33,0 -100.9,176.59 -86.99,222.01 26.52,86.56 -16.78,270.25 -32.18,367.62 -5.37,33.96 -18.85,121.31 8.34,143.23 28.08,22.65 55.03,13.65 82.23,-8.36 15.14,-12.25 54.68,-72.81 69.12,-72.81 52.91,0 2.38,109.98 2.38,128.91 0,35.89 30.54,75.22 -22.64,88.33 -110.84,27.34 -30.98,85.77 -30.98,149.19 0,37.41 -24.18,42.63 -44.1,69.23 -28.66,38.28 -35.29,59.67 -30.98,105.04 0.99,10.48 10.42,18.31 15.63,27.47"/>
   <path class="fil2 str2" d="M8390.73 11472.17c29.39,-2.38 64.77,-25.09 88.18,-7.16 49.67,38.04 65.78,45.34 112.02,74 39.16,24.27 32.49,53.79 58.39,88.32 50.67,67.56 130.38,46.46 196.63,90.72 40.72,27.2 16.64,102.62 52.43,144.42 46.15,53.9 189.44,25.47 238.34,-8.36 61.56,-42.59 114.67,65.53 210.93,9.55 33.48,-19.47 131.13,-69.52 143,-103.84 17.22,-49.78 40.48,-27.58 77.46,-44.16 93.12,-41.77 20.59,-128.91 164.45,-128.91 163.72,0 92.07,-230.7 75.08,-313.91 -36.08,-176.66 148.62,-124.63 97.71,-299.59 -32.29,-110.97 -20.48,-168.61 131.09,-175.45 85.38,-3.85 109.59,-62.72 96.52,-134.88 -8.5,-46.89 -31.08,-75.14 -22.64,-127.71 10.1,-62.87 12.44,-148.86 -19.07,-206.49 -41.63,-76.14 -91.97,-95.33 -52.43,-192.17 31.17,-76.36 44.2,-119.72 128.7,-155.16 137.04,-57.48 173.8,-126 234.76,-255.43 20.67,-43.9 10.64,-212.87 104.87,-176.65 56.57,21.74 100.74,67.4 172.79,53.71 51.81,-9.84 74.09,33.96 109.64,27.45 204.19,-37.38 -82.15,271.59 79.84,263.78 19.16,-0.92 34.26,-17.31 51.4,-25.97"/>
   <path class="fil2 str2" d="M8847.14 13171.83c11.12,26.65 19.55,54.61 33.37,79.97 28.22,51.82 74.51,79.54 94.14,133.68 45.53,125.51 124.26,104.39 214.5,170.68 47.08,34.58 146.26,-22.48 164.46,71.61 10.5,54.33 8.77,110.11 76.26,113.39 157.77,7.66 43.22,91.26 95.34,148.01 23.04,25.08 75.45,3.09 107.25,20.29 32.98,17.84 36.77,64.61 78.65,66.84 75.93,4.04 159.29,46.6 249.06,33.42 187.03,-27.47 248.37,-88.95 387.3,-199.33 146.72,-116.57 274.43,199.35 312.21,312.72 39.6,118.84 88.77,144.19 158.5,237.52 32.27,43.19 21.39,87.5 38.13,134.88 15.64,44.26 88.87,95.75 119.17,132.48 30.58,37.07 48.28,88.41 97.72,100.26 52.95,12.7 47.33,30.28 70.31,74.01 10.79,20.53 31.62,33.96 47.44,50.94"/>
   <path class="fil2 str2" d="M9077.14 15310.72c28.2,33.02 62.31,61.8 84.61,99.07 26.06,43.57 97.72,67.04 137.04,94.29 83.21,57.66 38.02,137.43 66.73,220.81 39.3,114.12 77.1,172.39 57.2,299.59 -25.03,159.95 33.85,184.22 116.79,304.37 104.46,151.33 150.52,379.42 350.35,448.78 109.97,38.17 206.24,-7.1 315.8,75.2 71.15,53.44 95.51,183.01 191.86,186.2 70.42,2.33 284.37,-22.72 330.09,13.13 56.61,44.39 64.81,139.65 125.13,195.74 68.33,63.54 299.11,-85.52 299.11,51.33 0,76.73 25.09,88.57 78.65,131.29 37.1,29.59 67.8,114.3 98.91,152.78 24.54,30.36 26.72,81.33 53.62,114.58 23.92,29.58 84.61,34.54 116.79,57.29 13.81,9.77 30.04,15.61 45.07,23.42"/>
   <path class="fil2 str2" d="M1000 15227.16c23.44,-6.76 47.26,-12.38 70.34,-20.29 29.25,-10.03 80.99,16.8 121.55,8.36 32.52,-6.76 72.14,-45.36 102.49,-45.36 33.93,0 35.7,20.64 79.84,4.78 65.23,-23.44 119.31,-26.09 152.53,40.58 53.87,108.1 156.27,-53.59 231.18,15.52 42.67,39.36 67.83,19.24 117.98,16.71 60.37,-3.04 70.13,53.37 147.77,37 32.09,-6.76 60.97,-44.75 86.99,-22.68 50,42.41 71.6,133.71 134.65,167.1 37.88,20.05 90.64,5.94 125.13,29.84 33.65,23.32 44.68,58.74 48.86,94.29 7.78,66.23 208.11,95.33 259.78,130.09 39.74,26.74 100.53,55.36 148.96,59.68 25.93,2.31 123.49,-12.75 151.34,2.39 43.5,23.66 58.38,98.42 78.65,132.48 21.65,36.38 23.16,82.43 13.11,121.75 -5.91,23.15 -14.64,46.43 -25.03,68.03 -12.2,25.36 -18.08,55.71 -32.17,79.97"/>
   <path class="fil2 str2" d="M7775.82 20150.69c29.39,25.86 66.29,45.13 88.19,77.58 28.29,41.92 59.66,103.21 90.57,144.43 57.38,76.51 1.85,151.09 45.28,229.16 44.35,79.72 9.84,201.59 57.2,281.69 56.72,95.94 215.56,39.1 280.04,99.07 50.49,46.96 93.88,109.1 147.77,159.94 44.08,41.59 49.05,109.01 81.04,159.93 21.25,33.83 77.06,27.65 109.63,47.75 59.82,36.91 45.96,96.82 122.74,125.32 71.78,26.64 50.49,75.95 157.31,78.78 28.02,0.74 55.63,7.16 83.45,10.75"/>
   <path class="fil2 str2" d="M7063.2 21402.76c-16.28,21.08 -33.36,41.59 -48.86,63.26 -1.86,2.6 -3.59,15.28 -7.15,16.71 -45.34,18.3 -57.02,118.76 -39.32,156.35 19.86,42.18 52.97,84.43 76.26,126.52 17.79,32.15 24.66,70.88 42.9,103.85 25.69,46.41 80.11,81.69 77.46,140.84 -3.19,71.05 -28.63,112.77 9.54,180.23 13.65,24.12 34.16,43.69 51.24,65.54"/>
   <path class="fil2 str2" d="M8035.61 22256.06c19.46,-21.45 40.01,-41.97 58.39,-64.35 48.85,-59.49 87.46,-82.24 164.45,-58.48 62.01,19.14 81.86,-37 131.09,-37 32.37,0 69.72,26.34 103.67,32.22 64.7,11.22 120.69,-20.29 188.29,-20.29 85.43,0 136.2,7.23 224.04,-14.32 12.63,-3.1 23.14,-11.9 34.71,-17.86"/>
   <path class="fil2 str2" d="M1000 21920.77c37.32,-11.53 74.45,-23.74 111.96,-34.61 91.89,-26.64 105.34,-91.27 181.14,-131.3 85.7,-45.26 177,132.4 272.89,151.59 77.67,15.54 141.67,-18.7 215.69,-40.59 82.51,-24.4 190.15,8.35 277.67,9.55 57.21,0.78 114.38,3.98 171.58,5.96"/>
   <path class="fil2 str2" d="M2588.05 21402.7c56.14,-10.72 111.27,-31.6 168.43,-32.17 107.01,-1.07 87.94,34.23 196.62,-20.29 40.44,-20.28 197.72,-4.08 288.51,24.91 30.25,9.65 53.15,20.76 61.85,32.38 33.33,44.55 91.62,7.85 125.12,52.52 53.05,70.74 18.42,158.06 82.23,222 31.75,31.82 81.17,102.48 120.36,118.17 77.01,30.83 226.01,38.29 299.11,7.16 119.32,-50.81 209.46,-75.54 280.04,53.71 23.49,43.01 46.88,103.31 71.5,145.62 20.14,34.61 40.51,61.85 76.27,78.77 21.68,10.25 40.51,12.91 57.2,32.23 27.24,31.53 28.35,57.09 76.27,66.84 48.86,9.93 98.89,15.31 146.58,29.84 31.09,9.47 58.78,27.78 88.18,41.67"/>
   <path class="fil2 str2" d="M3241.61 21375.15c31.34,-16.26 61.99,-33.94 94.02,-48.78 79.16,-36.68 107.97,-106.49 200.2,-87.13 216.47,45.45 117.08,-229.04 286.01,-220.82 120.58,5.86 229.24,-105.9 328.9,-161.13 38.57,-21.37 132.82,130.81 173.99,158.75 49.09,33.32 292.9,181.68 333.67,140.84 69.06,-69.18 44.48,-374.83 213.31,-238.72 29.11,23.47 87,27.62 108.44,60.87 15.21,23.59 17.21,47.92 26.22,74.01 9.22,26.69 18.35,52.36 23.83,79.97"/>
  </g>
  <path class="fil3 str3" d="M17049.76 20432.72l2354.62 0 0 1592.9 -2354.62 0 0 -1592.9z"/>
  <path class="fil4" d="M19583.11 21932.72c0,-17.45 4.47,-34.48 13.46,-51.13 8.93,-16.61 21.77,-29.59 38.43,-38.86 16.69,-9.26 34.1,-13.92 52.16,-13.92 17.92,0 35.18,4.56 51.69,13.74 16.56,9.12 29.4,21.92 38.53,38.43 9.17,16.51 13.73,33.77 13.73,51.74 0,18.01 -4.56,35.27 -13.73,51.78 -9.13,16.51 -21.97,29.35 -38.53,38.53 -16.51,9.17 -33.77,13.78 -51.69,13.78 -18.06,0 -35.47,-4.66 -52.16,-13.97 -16.66,-9.36 -29.5,-22.34 -38.43,-38.95 -8.99,-16.65 -13.46,-33.68 -13.46,-51.17zm17.22 0c0,14.62 3.76,28.88 11.24,42.7 7.48,13.83 18.2,24.65 32.13,32.46 13.92,7.81 28.41,11.71 43.46,11.71 15,0 29.35,-3.85 43.08,-11.52 13.74,-7.67 24.46,-18.39 32.13,-32.17 7.67,-13.79 11.52,-28.18 11.52,-43.18 0,-14.96 -3.85,-29.36 -11.52,-43.14 -7.67,-13.78 -18.39,-24.5 -32.13,-32.12 -13.73,-7.62 -28.08,-11.43 -43.08,-11.43 -15.05,0 -29.54,3.9 -43.46,11.66 -13.93,7.76 -24.65,18.58 -32.13,32.46 -7.48,13.87 -11.24,28.08 -11.24,42.57zm103.57 -33.35l5.08 -16.94c11.53,2.78 20.7,8.61 27.52,17.55 6.87,8.98 10.3,19.85 10.3,32.59 0,16.19 -5.22,29.31 -15.71,39.42 -10.49,10.11 -24.98,15.15 -43.55,15.15 -12.14,0 -22.68,-2.31 -31.61,-6.92 -8.99,-4.56 -15.71,-11.15 -20.28,-19.61 -4.56,-8.52 -6.82,-18.25 -6.82,-29.16 0,-12.23 2.92,-22.39 8.8,-30.48 5.88,-8.09 13.88,-13.6 23.94,-16.56l4.23 16.37c-6.91,2.77 -12.23,6.82 -15.89,12.23 -3.72,5.41 -5.55,11.71 -5.55,19 0,10.58 3.76,19.33 11.28,26.2 7.53,6.87 18.35,10.3 32.37,10.3 14.06,0 24.69,-3.24 31.89,-9.74 7.19,-6.49 10.81,-14.86 10.81,-25.16 0,-8.28 -2.39,-15.57 -7.24,-21.83 -4.8,-6.25 -11.33,-10.39 -19.57,-12.41z"/>
  <path id="1" class="fil4" d="M19788.57 21637.56l-18.58 0c14.44,9.27 21.68,22.91 21.68,40.92 0,11.67 -3.19,22.39 -9.64,32.13 -6.4,9.78 -15.38,17.35 -26.86,22.76 -11.52,5.37 -24.74,8.05 -39.69,8.05 -14.59,0 -27.8,-2.45 -39.7,-7.29 -11.86,-4.9 -20.98,-12.19 -27.29,-21.92 -6.35,-9.69 -9.5,-20.61 -9.5,-32.6 0,-8.84 1.88,-16.7 5.6,-23.56 3.72,-6.87 8.61,-12.47 14.58,-16.8l-72.67 0 0 -24.83 202.07 0 0 23.14zm-73.05 78.46c18.72,0 32.69,-3.95 41.96,-11.9 9.26,-7.91 13.87,-17.27 13.87,-28.04 0,-10.86 -4.42,-20.08 -13.26,-27.7 -8.84,-7.57 -22.34,-11.38 -40.5,-11.38 -19.94,0 -34.62,3.85 -43.98,11.61 -9.36,7.72 -14.01,17.27 -14.01,28.6 0,11.06 4.46,20.27 13.45,27.71 8.98,7.38 23.14,11.1 42.47,11.1z"/>
  <path id="2" class="fil4" d="M19727.89 21585.02l-24.83 0 0 -76.76 24.83 0 0 76.76z"/>
  <path id="3" class="fil4" d="M19788.57 21481.16l-146.47 0 0 -22.29 20.69 0c-7.15,-4.56 -12.93,-10.68 -17.26,-18.3 -4.37,-7.62 -6.54,-16.27 -6.54,-26.01 0,-10.82 2.26,-19.71 6.73,-26.62 4.52,-6.92 10.77,-11.81 18.86,-14.63 -17.07,-11.67 -25.59,-26.77 -25.59,-45.39 0,-14.58 4,-25.83 12.04,-33.63 8.05,-7.86 20.42,-11.81 37.12,-11.81l100.42 0 0 24.84 -92.19 0c-9.88,0 -17.03,0.84 -21.4,2.44 -4.38,1.6 -7.86,4.52 -10.54,8.8 -2.68,4.23 -4,9.22 -4,14.91 0,10.35 3.44,18.91 10.26,25.73 6.86,6.82 17.82,10.2 32.87,10.2l85 0 0 24.84 -95.06 0c-11.01,0 -19.29,2.02 -24.79,6.07 -5.5,4.04 -8.28,10.67 -8.28,19.85 0,6.96 1.84,13.4 5.51,19.33 3.66,5.93 9.03,10.21 16.13,12.89 7.05,2.63 17.26,3.95 30.57,3.95l75.92 0 0 24.83z"/>
  <path id="4" class="fil4" d="M19770.23 21150.4c7.85,9.22 13.35,18.11 16.6,26.62 3.25,8.52 4.84,17.64 4.84,27.43 0,16.08 -3.9,28.45 -11.75,37.11 -7.81,8.65 -17.83,12.98 -30.01,12.98 -7.15,0 -13.69,-1.65 -19.62,-4.89 -5.93,-3.29 -10.63,-7.57 -14.2,-12.84 -3.58,-5.32 -6.31,-11.24 -8.14,-17.88 -1.27,-4.89 -2.49,-12.27 -3.72,-22.1 -2.35,-20.04 -5.22,-34.86 -8.51,-44.31 -3.39,-0.1 -5.55,-0.14 -6.44,-0.14 -10.07,0 -17.17,2.35 -21.31,7.05 -5.6,6.35 -8.37,15.81 -8.37,28.32 0,11.71 2.07,20.36 6.16,25.92 4.09,5.59 11.38,9.68 21.78,12.37l-3.39 24.27c-10.4,-2.21 -18.82,-5.84 -25.21,-10.92 -6.4,-5.08 -11.29,-12.41 -14.77,-22.01 -3.44,-9.55 -5.18,-20.7 -5.18,-33.3 0,-12.51 1.46,-22.72 4.42,-30.57 2.97,-7.81 6.64,-13.6 11.11,-17.27 4.46,-3.67 10.11,-6.25 16.93,-7.76 4.23,-0.8 11.85,-1.22 22.81,-1.22l32.93 0c23,0 37.53,-0.52 43.69,-1.55 6.17,-0.99 12.05,-3.06 17.69,-6.07l0 25.96c-5.22,2.5 -11.34,4.1 -18.34,4.8zm-55.04 1.98c3.67,9.03 6.78,22.57 9.32,40.64 1.45,10.25 3.1,17.49 4.93,21.73 1.84,4.23 4.52,7.48 8,9.78 3.53,2.31 7.43,3.48 11.76,3.48 6.54,0 12.04,-2.49 16.42,-7.52 4.37,-5.04 6.58,-12.38 6.58,-22.02 0,-9.55 -2.07,-18.06 -6.25,-25.54 -4.14,-7.43 -9.84,-12.93 -17.03,-16.41 -5.6,-2.69 -13.83,-4 -24.7,-4l-9.03 -0.14z"/>
  <path id="5" class="fil4" d="M19844.73 21089.11l-202.63 0 0 -22.57 19.24 0c-7.44,-5.32 -13.03,-11.34 -16.75,-18.07 -3.72,-6.68 -5.6,-14.81 -5.6,-24.36 0,-12.51 3.2,-23.52 9.65,-33.07 6.39,-9.55 15.47,-16.74 27.14,-21.63 11.71,-4.85 24.5,-7.3 38.47,-7.3 14.91,0 28.37,2.69 40.36,8.05 11.95,5.36 21.12,13.17 27.52,23.42 6.35,10.21 9.54,20.98 9.54,32.27 0,8.28 -1.74,15.71 -5.22,22.25 -3.48,6.58 -7.85,11.94 -13.17,16.18l71.45 0 0 24.83zm-128.5 -22.57c18.77,0 32.69,-3.81 41.67,-11.39 8.99,-7.62 13.45,-16.84 13.45,-27.65 0,-11.01 -4.65,-20.42 -13.97,-28.23 -9.31,-7.85 -23.7,-11.76 -43.22,-11.76 -18.63,0 -32.55,3.81 -41.82,11.48 -9.26,7.67 -13.87,16.79 -13.87,27.42 0,10.54 4.94,19.85 14.77,27.94 9.87,8.14 24.17,12.19 42.99,12.19z"/>
  <path id="6" class="fil4" d="M19744.83 20942.03l-3.96 -24.55c9.84,-1.37 17.36,-5.22 22.63,-11.53 5.22,-6.3 7.85,-15.14 7.85,-26.43 0,-11.43 -2.3,-19.9 -6.96,-25.45 -4.61,-5.5 -10.06,-8.28 -16.32,-8.28 -5.6,0 -10.02,2.5 -13.22,7.44 -2.21,3.48 -4.98,11.94 -8.42,25.4 -4.56,18.15 -8.51,30.71 -11.85,37.77 -3.39,7 -7.99,12.32 -13.92,15.94 -5.88,3.62 -12.42,5.46 -19.57,5.46 -6.54,0 -12.56,-1.51 -18.11,-4.47 -5.55,-3.01 -10.16,-7.06 -13.83,-12.18 -2.82,-3.86 -5.22,-9.13 -7.19,-15.76 -1.98,-6.68 -2.97,-13.78 -2.97,-21.4 0,-11.48 1.65,-21.54 4.99,-30.2 3.29,-8.7 7.81,-15.1 13.45,-19.24 5.69,-4.09 13.27,-6.96 22.77,-8.51l3.38 24.27c-7.62,1.08 -13.59,4.28 -17.87,9.55 -4.28,5.27 -6.4,12.7 -6.4,22.34 0,11.34 1.88,19.47 5.65,24.32 3.76,4.84 8.18,7.29 13.21,7.29 3.2,0 6.12,-0.99 8.71,-3.01 2.63,-2.02 4.84,-5.18 6.58,-9.5 0.94,-2.5 3.06,-9.74 6.35,-21.87 4.66,-17.5 8.52,-29.73 11.48,-36.69 2.96,-6.96 7.34,-12.42 12.98,-16.37 5.69,-4 12.75,-5.98 21.21,-5.98 8.24,0 16,2.4 23.29,7.25 7.29,4.84 12.93,11.8 16.93,20.88 4,9.13 5.97,19.43 5.97,30.91 0,19 -3.95,33.53 -11.8,43.5 -7.9,9.98 -19.57,16.33 -35.04,19.1z"/>
  <path id="7" class="fil4" d="M19788.57 20783.99l-28.22 0 0 -28.22 28.22 0 0 28.22z"/>
  <path id="8" class="fil4" d="M19734.95 20616.96l3.38 -24.27c16.7,2.68 29.73,9.45 39.19,20.41 9.45,10.96 14.15,24.46 14.15,40.41 0,19.99 -6.53,36.08 -19.61,48.21 -13.08,12.18 -31.8,18.25 -56.16,18.25 -15.81,0 -29.59,-2.63 -41.39,-7.85 -11.86,-5.22 -20.75,-13.17 -26.63,-23.9 -5.92,-10.68 -8.89,-22.29 -8.89,-34.9 0,-15.85 4,-28.88 12.04,-38.95 8.05,-10.11 19.48,-16.6 34.25,-19.42l3.67 23.99c-9.83,2.3 -17.22,6.35 -22.2,12.23 -4.94,5.83 -7.44,12.88 -7.44,21.16 0,12.51 4.47,22.67 13.41,30.53 8.98,7.81 23.09,11.71 42.47,11.71 19.66,0 33.92,-3.76 42.81,-11.29 8.89,-7.57 13.35,-17.4 13.35,-29.49 0,-9.78 -2.96,-17.92 -8.93,-24.41 -5.93,-6.54 -15.1,-10.68 -27.47,-12.42z"/>
  <path id="9" class="fil4" d="M19715.33 20580.84c-27.04,0 -47.08,-7.53 -60.11,-22.63 -10.82,-12.56 -16.23,-27.94 -16.23,-46.05 0,-20.08 6.59,-36.54 19.76,-49.34 13.12,-12.75 31.33,-19.14 54.51,-19.14 18.82,0 33.59,2.82 44.36,8.46 10.77,5.65 19.14,13.88 25.12,24.7 5.97,10.77 8.93,22.58 8.93,35.32 0,20.51 -6.53,37.07 -19.66,49.72 -13.12,12.65 -32.03,18.96 -56.68,18.96zm0.05 -25.4c18.72,0 32.74,-4.1 42,-12.28 9.32,-8.23 13.97,-18.53 13.97,-31 0,-12.32 -4.65,-22.57 -14.01,-30.81 -9.36,-8.18 -23.61,-12.27 -42.76,-12.27 -18.06,0 -31.75,4.14 -41.01,12.37 -9.32,8.23 -13.97,18.48 -13.97,30.71 0,12.47 4.61,22.77 13.87,31 9.27,8.18 23.24,12.28 41.91,12.28z"/>
  <path id="10" class="fil4" d="M19788.57 20414.56l-146.47 0 0 -22.29 20.69 0c-7.15,-4.56 -12.93,-10.68 -17.26,-18.3 -4.37,-7.62 -6.54,-16.27 -6.54,-26.01 0,-10.82 2.26,-19.71 6.73,-26.62 4.52,-6.92 10.77,-11.81 18.86,-14.63 -17.07,-11.67 -25.59,-26.77 -25.59,-45.39 0,-14.58 4,-25.83 12.04,-33.63 8.05,-7.86 20.42,-11.81 37.12,-11.81l100.42 0 0 24.84 -92.19 0c-9.88,0 -17.03,0.84 -21.4,2.44 -4.38,1.6 -7.86,4.52 -10.54,8.8 -2.68,4.23 -4,9.22 -4,14.91 0,10.35 3.44,18.91 10.26,25.73 6.86,6.82 17.82,10.2 32.87,10.2l85 0 0 24.84 -95.06 0c-11.01,0 -19.29,2.02 -24.79,6.07 -5.5,4.04 -8.28,10.67 -8.28,19.85 0,6.96 1.84,13.4 5.51,19.33 3.66,5.93 9.03,10.21 16.13,12.89 7.05,2.63 17.26,3.95 30.57,3.95l75.92 0 0 24.83z"/>
  <g id="_2093981117168">
   <g>
    <path class="fil5 str4" d="M17171.9 21036.02l659.43 0 0 99.16 -659.43 0 0 -99.16z"/>
    <path class="fil6 str4" d="M17831.33 21036.02l659.44 0 0 99.16 -659.44 0 0 -99.16z"/>
    <path class="fil5 str4" d="M18490.76 21036.02l659.44 0 0 99.16 -659.44 0 0 -99.16z"/>
    <path class="fil5 str4" d="M18228.9 21334.96l1054.7 0 0 99.16 -1054.7 0 0 -99.16z"/>
    <path class="fil6 str4" d="M17174.21 21334.96l1054.7 0 0 99.16 -1054.7 0 0 -99.16z"/>
   </g>
   <path class="fil7" d="M17653.02 20648.46c6.64,-15.76 15.11,-27.93 25.28,-36.51 10.17,-8.59 22.87,-12.88 38.04,-12.88 18.76,0 33.11,6.06 43.1,18.23 7.59,9.05 11.41,18.75 11.41,29.1 0,16.99 -10.7,34.57 -32.11,52.68 14.41,5.65 25.29,13.64 32.7,24.11 7.35,10.41 11.05,22.7 11.05,36.81 0,20.22 -6.47,37.69 -19.34,52.5 -16.76,19.29 -41.1,28.93 -72.97,28.93 -15.76,0 -26.46,-1.94 -32.16,-5.88 -5.71,-3.88 -8.53,-8.11 -8.53,-12.58 0,-3.35 1.35,-6.23 4.06,-8.76 2.7,-2.53 5.94,-3.82 9.76,-3.82 2.88,0 5.82,0.47 8.82,1.41 1.94,0.59 6.35,2.7 13.29,6.35 6.88,3.64 11.7,5.82 14.34,6.52 4.24,1.3 8.82,1.94 13.64,1.94 11.76,0 21.93,-4.52 30.64,-13.64 8.7,-9.05 13.05,-19.81 13.05,-32.22 0,-9.05 -2,-17.93 -6.06,-26.51 -3,-6.47 -6.29,-11.35 -9.82,-14.65 -4.99,-4.58 -11.76,-8.76 -20.4,-12.52 -8.64,-3.7 -17.46,-5.58 -26.46,-5.58l-5.52 0 0 -5.3c9.11,-1.17 18.16,-4.41 27.34,-9.82 9.11,-5.4 15.75,-11.87 19.87,-19.46 4.17,-7.58 6.23,-15.87 6.23,-24.99 0,-11.81 -3.7,-21.34 -11.11,-28.63 -7.47,-7.29 -16.7,-10.94 -27.75,-10.94 -17.82,0 -32.69,9.65 -44.69,28.87l-5.7 -2.76z"/>
   <path id="1" class="fil7" d="M17824.47 20721.96c0,-26.64 4,-49.51 12.05,-68.74 8.06,-19.22 18.7,-33.57 32.05,-42.98 10.29,-7.47 20.99,-11.17 31.98,-11.17 17.94,0 33.99,9.11 48.22,27.34 17.81,22.64 26.69,53.27 26.69,91.96 0,27.05 -3.88,50.09 -11.7,69.03 -7.82,18.93 -17.76,32.63 -29.87,41.21 -12.11,8.53 -23.81,12.82 -35.04,12.82 -22.29,0 -40.81,-13.11 -55.62,-39.39 -12.53,-22.17 -18.76,-48.86 -18.76,-80.08zm33.87 4.23c0,32.1 3.94,58.33 11.82,78.67 6.52,17.11 16.28,25.63 29.22,25.63 6.17,0 12.58,-2.76 19.22,-8.34 6.65,-5.59 11.65,-14.88 15.11,-27.99 5.24,-19.7 7.88,-47.57 7.88,-83.43 0,-26.64 -2.76,-48.86 -8.23,-66.62 -4.11,-13.23 -9.46,-22.58 -15.99,-28.05 -4.65,-3.82 -10.35,-5.7 -16.99,-5.7 -7.76,0 -14.7,3.53 -20.76,10.52 -8.23,9.53 -13.87,24.46 -16.81,44.92 -3,20.41 -4.47,40.52 -4.47,60.39z"/>
   <path id="2" class="fil7" d="M18000.86 20721.96c0,-26.64 4,-49.51 12.05,-68.74 8.06,-19.22 18.7,-33.57 32.05,-42.98 10.29,-7.47 20.99,-11.17 31.98,-11.17 17.94,0 33.99,9.11 48.22,27.34 17.81,22.64 26.69,53.27 26.69,91.96 0,27.05 -3.88,50.09 -11.7,69.03 -7.82,18.93 -17.76,32.63 -29.87,41.21 -12.11,8.53 -23.81,12.82 -35.04,12.82 -22.29,0 -40.81,-13.11 -55.62,-39.39 -12.53,-22.17 -18.76,-48.86 -18.76,-80.08zm33.87 4.23c0,32.1 3.94,58.33 11.82,78.67 6.52,17.11 16.28,25.63 29.22,25.63 6.17,0 12.58,-2.76 19.22,-8.34 6.65,-5.59 11.65,-14.88 15.11,-27.99 5.24,-19.7 7.88,-47.57 7.88,-83.43 0,-26.64 -2.76,-48.86 -8.23,-66.62 -4.11,-13.23 -9.46,-22.58 -15.99,-28.05 -4.65,-3.82 -10.35,-5.7 -16.99,-5.7 -7.76,0 -14.7,3.53 -20.76,10.52 -8.23,9.53 -13.87,24.46 -16.81,44.92 -3,20.41 -4.47,40.52 -4.47,60.39z"/>
   <path id="3" class="fil7" d="M18310.61 20592.37l0 157.16 39.98 -36.63c8.52,-7.82 13.46,-12.76 14.81,-14.82 0.95,-1.41 1.42,-2.76 1.42,-4.17 0,-2.29 -1,-4.23 -2.89,-5.94 -1.88,-1.65 -4.99,-2.59 -9.4,-2.82l0 -5.65 68.61 0 0 5.65c-9.35,0.23 -17.17,1.7 -23.4,4.35 -6.23,2.7 -13.05,7.47 -20.52,14.29l-40.63 37.22 40.34 51.33c11.29,14.05 18.81,23.04 22.58,26.98 5.58,5.24 10.4,8.65 14.58,10.17 2.94,1.12 7.99,1.71 15.17,1.71l0 6.35 -76.73 0 0 -6.35c4.41,-0.12 7.35,-0.76 8.88,-1.94 1.58,-1.24 2.35,-2.88 2.35,-5.06 0,-2.64 -2.3,-6.88 -6.88,-12.7l-48.27 -61.79 0 52.21c0,10.23 0.7,16.93 2.11,20.17 1.47,3.17 3.47,5.46 6.12,6.88 2.64,1.35 8.35,2.11 17.17,2.23l0 6.35 -80.08 0 0 -6.35c7.99,0 14.05,-1 18.05,-2.94 2.41,-1.23 4.23,-3.17 5.46,-5.76 1.71,-3.76 2.59,-10.29 2.59,-19.52l0 -143.94c0,-18.05 -0.41,-29.1 -1.18,-33.16 -0.82,-4.05 -2.11,-6.82 -3.99,-8.35 -1.83,-1.58 -4.24,-2.35 -7.18,-2.35 -2.41,0 -6.05,1 -10.82,2.94l-2.93 -6.35 46.74 -19.4 7.94 0z"/>
   <path id="4" class="fil7" d="M18487.35 20708.67c11.41,-11.53 18.17,-18.17 20.22,-19.93 5.12,-4.36 10.65,-7.77 16.59,-10.18 5.93,-2.41 11.81,-3.64 17.63,-3.64 9.88,0 18.29,2.88 25.4,8.64 7.06,5.76 11.82,14.11 14.17,25.11 11.88,-13.88 21.88,-22.93 30.05,-27.28 8.17,-4.3 16.58,-6.47 25.22,-6.47 8.35,0 15.82,2.17 22.35,6.47 6.46,4.29 11.64,11.34 15.4,21.16 2.53,6.65 3.82,17.11 3.82,31.4l0 67.97c0,9.82 0.71,16.58 2.18,20.23 1.12,2.46 3.23,4.64 6.23,6.4 3.06,1.77 8,2.65 14.88,2.65l0 6.35 -77.26 0 0 -6.35 3.29 0c6.7,0 11.99,-1.29 15.76,-3.94 2.64,-1.82 4.52,-4.76 5.64,-8.76 0.47,-1.94 0.71,-7.47 0.71,-16.58l0 -67.91c0,-12.88 -1.53,-21.93 -4.65,-27.22 -4.52,-7.35 -11.7,-11.06 -21.63,-11.06 -6.06,0 -12.23,1.53 -18.41,4.59 -6.11,3 -13.58,8.7 -22.34,16.93l-0.35 1.94 0.7 7.41 0 75.32c0,10.7 0.59,17.4 1.77,20.05 1.23,2.59 3.46,4.82 6.76,6.58 3.29,1.77 8.93,2.65 16.87,2.65l0 6.35 -79.37 0 0 -6.35c8.64,0 14.58,-1 17.81,-3.06 3.24,-2.06 5.47,-5.17 6.7,-9.29 0.59,-1.94 0.89,-7.58 0.89,-16.93l0 -67.91c0,-12.88 -1.88,-22.17 -5.65,-27.87 -5.05,-7.41 -12.05,-11.11 -21.11,-11.11 -6.17,0 -12.28,1.7 -18.34,5.05 -9.47,5.06 -16.82,10.82 -21.93,17.17l0 84.67c0,10.29 0.7,16.93 2.12,20.05 1.41,3.06 3.52,5.35 6.35,6.94 2.76,1.53 8.4,2.29 16.93,2.29l0 6.35 -77.97 0 0 -6.35c7.24,0 12.29,-0.76 15.17,-2.29 2.89,-1.59 5.06,-4 6.59,-7.41 1.47,-3.35 2.23,-9.88 2.23,-19.58l0 -60.33c0,-17.28 -0.53,-28.45 -1.53,-33.51 -0.82,-3.82 -2.05,-6.41 -3.82,-7.82 -1.7,-1.47 -4.05,-2.18 -6.99,-2.18 -3.24,0 -7.06,0.89 -11.53,2.59l-2.58 -6.35 47.62 -19.4 7.41 0 0 33.75z"/>
   <path class="fil7" d="M17907.6 21762.04l-16.34 45.39 -137.82 0 0 -6.47c40.57,-36.98 69.08,-67.14 85.61,-90.54 16.52,-23.41 24.81,-44.81 24.81,-64.21 0,-14.82 -4.53,-26.99 -13.64,-36.51 -9.06,-9.53 -19.88,-14.29 -32.52,-14.29 -11.52,0 -21.81,3.29 -30.92,9.94 -9.18,6.64 -15.88,16.4 -20.29,29.22l-6.35 0c2.88,-21.11 10.29,-37.34 22.17,-48.69 11.87,-11.28 26.75,-16.93 44.62,-16.93 18.94,0 34.81,6.12 47.51,18.29 12.7,12.17 19.05,26.51 19.05,43.09 0,11.82 -2.76,23.7 -8.29,35.52 -8.47,18.58 -22.28,38.27 -41.33,59.09 -28.64,31.16 -46.28,49.86 -53.04,56.03l60.39 0c12.29,0 20.93,-0.47 25.87,-1.35 4.94,-0.94 9.41,-2.82 13.4,-5.65 4,-2.76 7.47,-6.76 10.41,-11.93l6.7 0z"/>
   <path id="1" class="fil7" d="M17935.12 21691.84c0,-26.64 4,-49.51 12.05,-68.74 8.06,-19.22 18.7,-33.57 32.05,-42.98 10.29,-7.47 20.99,-11.17 31.98,-11.17 17.94,0 33.99,9.11 48.22,27.34 17.81,22.64 26.69,53.27 26.69,91.96 0,27.05 -3.88,50.09 -11.7,69.03 -7.82,18.93 -17.76,32.63 -29.87,41.21 -12.11,8.53 -23.81,12.82 -35.04,12.82 -22.29,0 -40.81,-13.11 -55.62,-39.39 -12.53,-22.17 -18.76,-48.86 -18.76,-80.08zm33.87 4.23c0,32.1 3.94,58.33 11.82,78.67 6.52,17.11 16.28,25.63 29.22,25.63 6.17,0 12.58,-2.76 19.22,-8.34 6.65,-5.59 11.65,-14.88 15.11,-27.99 5.24,-19.7 7.88,-47.57 7.88,-83.43 0,-26.64 -2.76,-48.86 -8.23,-66.62 -4.11,-13.23 -9.46,-22.58 -15.99,-28.05 -4.65,-3.82 -10.35,-5.7 -16.99,-5.7 -7.76,0 -14.7,3.53 -20.76,10.52 -8.23,9.53 -13.87,24.46 -16.81,44.92 -3,20.41 -4.47,40.52 -4.47,60.39z"/>
   <path id="2" class="fil7" d="M18111.51 21691.84c0,-26.64 4,-49.51 12.05,-68.74 8.06,-19.22 18.7,-33.57 32.05,-42.98 10.29,-7.47 20.99,-11.17 31.98,-11.17 17.94,0 33.99,9.11 48.22,27.34 17.81,22.64 26.69,53.27 26.69,91.96 0,27.05 -3.88,50.09 -11.7,69.03 -7.82,18.93 -17.76,32.63 -29.87,41.21 -12.11,8.53 -23.81,12.82 -35.04,12.82 -22.29,0 -40.81,-13.11 -55.62,-39.39 -12.53,-22.17 -18.76,-48.86 -18.76,-80.08zm33.87 4.23c0,32.1 3.94,58.33 11.82,78.67 6.52,17.11 16.28,25.63 29.22,25.63 6.17,0 12.58,-2.76 19.22,-8.34 6.65,-5.59 11.65,-14.88 15.11,-27.99 5.24,-19.7 7.88,-47.57 7.88,-83.43 0,-26.64 -2.76,-48.86 -8.23,-66.62 -4.11,-13.23 -9.46,-22.58 -15.99,-28.05 -4.65,-3.82 -10.35,-5.7 -16.99,-5.7 -7.76,0 -14.7,3.53 -20.76,10.52 -8.23,9.53 -13.87,24.46 -16.81,44.92 -3,20.41 -4.47,40.52 -4.47,60.39z"/>
   <path id="3" class="fil7" d="M18421.61 21678.55c11.41,-11.53 18.17,-18.17 20.22,-19.93 5.12,-4.36 10.65,-7.77 16.59,-10.18 5.93,-2.41 11.81,-3.64 17.63,-3.64 9.88,0 18.29,2.88 25.4,8.64 7.06,5.76 11.82,14.11 14.17,25.11 11.88,-13.88 21.88,-22.93 30.05,-27.28 8.17,-4.3 16.58,-6.47 25.22,-6.47 8.35,0 15.82,2.17 22.35,6.47 6.46,4.29 11.64,11.34 15.4,21.16 2.53,6.65 3.82,17.11 3.82,31.4l0 67.97c0,9.82 0.71,16.58 2.18,20.23 1.12,2.46 3.23,4.64 6.23,6.4 3.06,1.77 8,2.65 14.88,2.65l0 6.35 -77.26 0 0 -6.35 3.29 0c6.7,0 11.99,-1.29 15.76,-3.94 2.64,-1.82 4.52,-4.76 5.64,-8.76 0.47,-1.94 0.71,-7.47 0.71,-16.58l0 -67.91c0,-12.88 -1.53,-21.93 -4.65,-27.22 -4.52,-7.35 -11.7,-11.06 -21.63,-11.06 -6.06,0 -12.23,1.53 -18.41,4.59 -6.11,3 -13.58,8.7 -22.34,16.93l-0.35 1.94 0.7 7.41 0 75.32c0,10.7 0.59,17.4 1.77,20.05 1.23,2.59 3.46,4.82 6.76,6.58 3.29,1.77 8.93,2.65 16.87,2.65l0 6.35 -79.37 0 0 -6.35c8.64,0 14.58,-1 17.81,-3.06 3.24,-2.06 5.47,-5.17 6.7,-9.29 0.59,-1.94 0.89,-7.58 0.89,-16.93l0 -67.91c0,-12.88 -1.88,-22.17 -5.65,-27.87 -5.05,-7.41 -12.05,-11.11 -21.11,-11.11 -6.17,0 -12.28,1.7 -18.34,5.05 -9.47,5.06 -16.82,10.82 -21.93,17.17l0 84.67c0,10.29 0.7,16.93 2.12,20.05 1.41,3.06 3.52,5.35 6.35,6.94 2.76,1.53 8.4,2.29 16.93,2.29l0 6.35 -77.97 0 0 -6.35c7.24,0 12.29,-0.76 15.17,-2.29 2.89,-1.59 5.06,-4 6.59,-7.41 1.47,-3.35 2.23,-9.88 2.23,-19.58l0 -60.33c0,-17.28 -0.53,-28.45 -1.53,-33.51 -0.82,-3.82 -2.05,-6.41 -3.82,-7.82 -1.7,-1.47 -4.05,-2.18 -6.99,-2.18 -3.24,0 -7.06,0.89 -11.53,2.59l-2.58 -6.35 47.62 -19.4 7.41 0 0 33.75z"/>
   <path id="4" class="fil7" d="M18689.25 21562.25c4.76,0 8.88,1.7 12.29,5.05 3.35,3.41 5.05,7.53 5.05,12.29 0,4.82 -1.7,9 -5.05,12.41 -3.41,3.47 -7.53,5.17 -12.29,5.17 -4.82,0 -9,-1.7 -12.41,-5.17 -3.47,-3.41 -5.17,-7.59 -5.17,-12.41 0,-4.76 1.7,-8.88 5.05,-12.29 3.41,-3.35 7.59,-5.05 12.53,-5.05zm14.17 82.55l0 127c0,9.82 0.7,16.34 2.17,19.58 1.41,3.29 3.53,5.7 6.35,7.29 2.82,1.59 8,2.41 15.47,2.41l0 6.35 -76.56 0 0 -6.35c7.65,0 12.82,-0.76 15.41,-2.23 2.64,-1.47 4.7,-3.94 6.29,-7.35 1.53,-3.41 2.29,-10 2.29,-19.7l0 -61.03c0,-16.99 -0.53,-27.99 -1.53,-33.05 -0.82,-3.64 -2.05,-6.17 -3.82,-7.58 -1.7,-1.47 -4.06,-2.18 -7,-2.18 -3.23,0 -7.11,0.89 -11.7,2.59l-2.41 -6.35 47.45 -19.4 7.59 0z"/>
  </g>
  <rect class="fil2 str5" x="1000" y="1000" width="19000" height="21256.06"/>
  <g id="_2093981111632">
   <path class="fil3 str3" d="M16094.59 20429.3l815.93 0 0 1592.89 -815.93 0 0 -1592.89z"/>
   <path class="fil8" d="M16442.69 20865.43c-0.92,3.32 -1.63,6.35 -2.07,9.15 -0.44,2.79 -0.65,5.18 -0.65,7.22 0,5.59 1.8,9.56 5.29,11.89 3.49,2.33 9.55,3.49 18.05,3.49l4.15 0 -4.96 22.72 -78.17 0 5.29 -22.72 2.89 0c7.36,0 12.82,-1.51 16.48,-4.54 3.6,-2.97 6.32,-8.39 8.12,-16.14l37.59 -153.79c0.6,-2.74 1.14,-5.54 1.52,-8.45 0.33,-2.91 0.55,-5.77 0.55,-8.62 0,-5.36 -1.96,-9.15 -5.95,-11.36 -3.92,-2.22 -10.69,-3.32 -20.23,-3.32l-3.06 0 5.29 -22.72 72.33 0 62.14 183.5 31.31 -129.03c1.08,-4.2 1.85,-7.63 2.34,-10.31 0.49,-2.68 0.71,-4.72 0.71,-6.06 0,-5.6 -1.8,-9.56 -5.35,-11.89 -3.6,-2.33 -9.71,-3.49 -18.32,-3.49l-4.15 0 4.96 -22.72 78.5 0 -5.62 22.72 -2.84 0c-7.37,0 -12.87,1.51 -16.47,4.54 -3.66,2.97 -6.33,8.33 -8.18,15.96l-50.68 208.44 -21.54 0 -72.06 -209.48 -37.21 155.01z"/>
   <path class="fil2 str6" d="M16503.38 21888.99l0 -769.27"/>
   <path class="fil2 str6" d="M16221.33 21612.94l563.14 0"/>
   <path class="fil2 str6" d="M16358.48 21752.93l294.22 -286.81"/>
   <path class="fil2 str6" d="M16355.34 21465.88l297.98 288.85"/>
   <path class="fil2 str6" d="M16503.24 21122.45l-95.47 118.01"/>
   <path class="fil2 str6" d="M16503.86 21122.41l87.89 118.05"/>
  </g>
  <g id="_2093981107920">
   <path class="fil3 str3" d="M15332.59 21548.49l0 473.7 -2309.37 0 0 -473.7 2309.37 0z"/>
   <path class="fil8" d="M14100.56 21886.96l0 -202.07 40.07 0 47.79 143.04c4.42,13.31 7.62,23.28 9.64,29.91 2.31,-7.33 5.93,-18.15 10.82,-32.4l48.64 -140.55 35.79 0 0 202.07 -25.68 0 0 -169.05 -58.98 169.05 -24.09 0 -58.32 -172.15 0 172.15 -25.68 0z"/>
   <path id="1" class="fil8" d="M14433.01 21839.55l25.68 3.38c-3.99,14.91 -11.47,26.53 -22.39,34.76 -10.91,8.24 -24.83,12.37 -41.81,12.37 -21.36,0 -38.29,-6.58 -50.8,-19.75 -12.51,-13.12 -18.77,-31.61 -18.77,-55.36 0,-24.56 6.31,-43.65 18.96,-57.2 12.65,-13.59 29.07,-20.37 49.25,-20.37 19.52,0 35.46,6.64 47.83,19.95 12.37,13.31 18.58,32.03 18.58,56.16 0,1.46 -0.05,3.67 -0.14,6.58l-109.08 0c0.94,16.04 5.46,28.37 13.64,36.88 8.14,8.51 18.35,12.79 30.53,12.79 9.08,0 16.84,-2.39 23.24,-7.19 6.44,-4.8 11.52,-12.47 15.28,-23zm-81.28 -39.8l81.56 0c-1.08,-12.32 -4.23,-21.54 -9.36,-27.7 -7.85,-9.55 -18.1,-14.35 -30.66,-14.35 -11.39,0 -20.93,3.81 -28.7,11.43 -7.71,7.62 -11.99,17.83 -12.84,30.62z"/>
   <path id="2" class="fil8" d="M14489.78 21886.96l0 -146.47 22.3 0 0 22.43c5.69,-10.39 10.96,-17.26 15.8,-20.55 4.85,-3.34 10.16,-4.99 15.95,-4.99 8.37,0 16.89,2.64 25.54,7.86l-8.84 22.91c-6.02,-3.39 -12.04,-5.08 -18.06,-5.08 -5.41,0 -10.26,1.64 -14.54,4.89 -4.28,3.24 -7.34,7.76 -9.17,13.54 -2.78,8.8 -4.14,18.44 -4.14,28.93l0 76.53 -24.84 0z"/>
   <path id="3" class="fil8" d="M14679.72 21833.34l24.27 3.38c-2.68,16.7 -9.45,29.73 -20.41,39.19 -10.96,9.45 -24.46,14.15 -40.41,14.15 -19.99,0 -36.08,-6.53 -48.21,-19.61 -12.18,-13.08 -18.25,-31.8 -18.25,-56.16 0,-15.81 2.63,-29.59 7.85,-41.44 5.22,-11.81 13.17,-20.7 23.9,-26.58 10.68,-5.92 22.29,-8.89 34.9,-8.89 15.85,0 28.88,4 38.95,12.04 10.11,8.05 16.6,19.48 19.42,34.25l-23.99 3.67c-2.3,-9.83 -6.35,-17.22 -12.23,-22.2 -5.83,-4.94 -12.88,-7.44 -21.16,-7.44 -12.51,0 -22.67,4.47 -30.53,13.41 -7.81,8.98 -11.71,23.09 -11.71,42.47 0,19.66 3.76,33.92 11.29,42.81 7.57,8.89 17.4,13.35 29.49,13.35 9.78,0 17.92,-2.96 24.41,-8.93 6.54,-5.93 10.68,-15.1 12.42,-27.47z"/>
   <path id="4" class="fil8" d="M14820.83 21868.62c-9.22,7.85 -18.11,13.35 -26.62,16.6 -8.52,3.25 -17.64,4.84 -27.43,4.84 -16.08,0 -28.45,-3.9 -37.11,-11.75 -8.65,-7.81 -12.98,-17.83 -12.98,-30.01 0,-7.15 1.65,-13.69 4.89,-19.62 3.29,-5.93 7.57,-10.63 12.84,-14.2 5.32,-3.58 11.24,-6.31 17.88,-8.14 4.89,-1.27 12.27,-2.49 22.1,-3.72 20.04,-2.35 34.86,-5.22 44.31,-8.51 0.1,-3.39 0.14,-5.55 0.14,-6.44 0,-10.07 -2.35,-17.17 -7.05,-21.31 -6.35,-5.6 -15.81,-8.37 -28.32,-8.37 -11.71,0 -20.36,2.07 -25.92,6.16 -5.59,4.09 -9.68,11.33 -12.37,21.78l-24.27 -3.39c2.21,-10.4 5.84,-18.82 10.92,-25.21 5.08,-6.4 12.41,-11.29 22.01,-14.77 9.55,-3.44 20.7,-5.18 33.3,-5.18 12.51,0 22.72,1.46 30.57,4.42 7.81,2.97 13.6,6.64 17.27,11.11 3.67,4.46 6.25,10.11 7.76,16.93 0.8,4.23 1.22,11.85 1.22,22.81l0 32.93c0,23 0.52,37.53 1.55,43.69 0.99,6.17 3.06,12.05 6.07,17.69l-25.96 0c-2.5,-5.22 -4.1,-11.34 -4.8,-18.34zm-1.98 -55.04c-9.03,3.67 -22.57,6.78 -40.64,9.32 -10.25,1.45 -17.49,3.1 -21.73,4.93 -4.23,1.84 -7.48,4.52 -9.78,8 -2.31,3.53 -3.48,7.43 -3.48,11.76 0,6.54 2.49,12.04 7.52,16.42 5.04,4.37 12.38,6.58 22.02,6.58 9.55,0 18.06,-2.07 25.54,-6.25 7.43,-4.14 12.93,-9.84 16.41,-17.03 2.69,-5.6 4,-13.83 4,-24.7l0.14 -9.03z"/>
   <path id="5" class="fil8" d="M14936.02 21864.81l3.39 21.91c-6.96,1.46 -13.22,2.22 -18.68,2.22 -8.98,0 -15.94,-1.42 -20.93,-4.28 -4.94,-2.87 -8.42,-6.59 -10.44,-11.25 -2.02,-4.65 -3.01,-14.44 -3.01,-29.35l0 -84.38 -18.34 0 0 -19.19 18.34 0 0 -36.22 24.84 -14.91 0 51.13 24.83 0 0 19.19 -24.83 0 0 85.79c0,7.11 0.42,11.67 1.31,13.69 0.85,2.02 2.26,3.62 4.24,4.85 1.97,1.17 4.79,1.78 8.46,1.78 2.73,0 6.35,-0.33 10.82,-0.98z"/>
   <path id="6" class="fil8" d="M14951.21 21813.72c0,-27.04 7.53,-47.08 22.63,-60.11 12.56,-10.82 27.94,-16.23 46.05,-16.23 20.08,0 36.54,6.59 49.34,19.76 12.75,13.12 19.14,31.33 19.14,54.51 0,18.82 -2.82,33.59 -8.46,44.36 -5.65,10.77 -13.88,19.14 -24.7,25.12 -10.77,5.97 -22.58,8.93 -35.32,8.93 -20.51,0 -37.07,-6.53 -49.72,-19.66 -12.65,-13.12 -18.96,-32.03 -18.96,-56.68zm25.4 0.05c0,18.72 4.1,32.74 12.28,42 8.23,9.32 18.53,13.97 31,13.97 12.32,0 22.57,-4.65 30.81,-14.01 8.18,-9.36 12.27,-23.61 12.27,-42.76 0,-18.06 -4.14,-31.75 -12.37,-41.01 -8.23,-9.32 -18.48,-13.97 -30.71,-13.97 -12.47,0 -22.77,4.61 -31,13.87 -8.18,9.27 -12.28,23.24 -12.28,41.91z"/>
   <path id="7" class="fil8" d="M15117.2 21886.96l0 -146.47 22.3 0 0 22.43c5.69,-10.39 10.96,-17.26 15.8,-20.55 4.85,-3.34 10.16,-4.99 15.95,-4.99 8.37,0 16.89,2.64 25.54,7.86l-8.84 22.91c-6.02,-3.39 -12.04,-5.08 -18.06,-5.08 -5.41,0 -10.26,1.64 -14.54,4.89 -4.28,3.24 -7.34,7.76 -9.17,13.54 -2.78,8.8 -4.14,18.44 -4.14,28.93l0 76.53 -24.84 0z"/>
   <circle class="fil9 str7" cx="13241.59" cy="21781.64" r="118.79"/>
   <rect class="fil9 str7" x="13699.52" y="21673.36" width="226.91" height="226.91"/>
   <path class="fil2 str8" d="M13415.49 21780.77l220.31 0"/>
   <path class="fil2 str8" d="M13633.14 21781.43l-64.02 65.38"/>
   <path class="fil2 str8" d="M13633.31 21780.29l-63.42 -61.39"/>
  </g>
 </g>
</svg>
