<?xml version="1.0" encoding="UTF-8"?>
<!DOCTYPE svg PUBLIC "-//W3C//DTD SVG 1.1//EN" "http://www.w3.org/Graphics/SVG/1.1/DTD/svg11.dtd">
<!-- Creator: CorelDRAW -->
<svg xmlns="http://www.w3.org/2000/svg" xml:space="preserve" width="210mm" height="297mm" version="1.1" style="shape-rendering:geometricPrecision; text-rendering:geometricPrecision; image-rendering:optimizeQuality; fill-rule:evenodd; clip-rule:evenodd"
viewBox="0 0 21000 29700"
 xmlns:xlink="http://www.w3.org/1999/xlink">
 <defs>
  <style type="text/css">
   <![CDATA[
    .str3 {stroke:black;stroke-width:10;stroke-miterlimit:3.864;stroke-opacity:0.501961}
    .str5 {stroke:black;stroke-width:50;stroke-miterlimit:22.9256}
    .str2 {stroke:#003399;stroke-width:20;stroke-miterlimit:3.864}
    .str4 {stroke:#3F3E3F;stroke-width:10;stroke-miterlimit:3.864}
    .str0 {stroke:#000066;stroke-width:10;stroke-miterlimit:22.9256}
    .str1 {stroke:#003399;stroke-width:10;stroke-miterlimit:22.9256}
    .str6 {stroke:black;stroke-width:7.62;stroke-miterlimit:22.9256}
    .fil2 {fill:none}
    .fil0 {fill:#A2D9F7}
    .fil1 {fill:white}
    .fil6 {fill:#FEFEFE;fill-rule:nonzero}
    .fil5 {fill:#D9DADA;fill-rule:nonzero}
    .fil8 {fill:#434242;fill-rule:nonzero}
    .fil7 {fill:#2B2A29;fill-rule:nonzero}
    .fil4 {fill:black;fill-rule:nonzero}
    .fil3 {fill:#FEFEFE;fill-rule:nonzero;fill-opacity:0.501961}
   ]]>
  </style>
 </defs>
 <g id="Plan_x0020_1">
  <metadata id="CorelCorpID_0Corel-Layer"/>
  <rect class="fil0" x="1000" y="999.99" width="13067.96" height="27138.25"/>
  <path class="fil1 str0" d="M14067.96 19339.56l0 8798.69 -13067.96 0 0 -23979.11 0 0c69.33,12.43 146.39,-8.92 215.13,4.28 22,4.22 41.49,-2.85 62.59,-2.85 27.18,0 46.16,28.5 86.76,28.5 69.25,0 149.11,14.68 214.77,-7.13 45.49,-15.1 124.13,-56.32 157.87,2.85 19.87,2.83 33.76,30.32 54.05,37.06 76.96,25.55 124.32,-11.87 174.95,76.97 5.62,0.7 25.93,10.64 28.44,15.67 130.39,0 178.61,66.19 290.15,94.07 2.2,8.85 7.12,15.21 7.12,25.65 4.76,1.19 1.31,5.69 7.11,7.13 0,23.79 201.71,145.91 228.99,165.33 278.97,198.59 711.08,-156.33 952.95,-295.03l273.08 -238.02c87.64,-76.39 320.9,-206.72 382.61,-296.45 72.75,-105.76 47.3,-38.39 86.76,15.68 32.76,44.91 88.97,49.11 137.96,32.78 -42.58,127.75 2.89,98.31 113.79,64.14 25.71,-7.92 58.54,18.42 66.85,-11.41 25.01,-89.76 -70.94,-12.09 -132.28,-35.63 -17.95,-6.88 126.15,-93.08 159.3,-146.8 26.55,-43.04 49.83,-110.42 55.47,-159.63 2.54,-22.23 8.59,-122.13 27.02,-128.27 0,132.13 223.34,82.66 317.18,82.66 95.11,8.17 282.72,-104.12 368.38,-149.65 375.43,-199.55 89.71,5.73 -100.98,101.2 -87.01,43.55 -183.95,101.69 -274.51,126.84 -53.96,14.99 27.45,93.77 129.43,25.66 77.3,-51.62 90.75,47.75 140.81,11.4 67.42,-48.94 31.54,-102.99 123.74,-57.01 22.46,11.19 130.14,18.98 143.65,-2.85 43.87,-70.92 46.24,-16.72 109.52,-42.76 46.8,-19.25 32.63,-81.59 76.81,-99.77 45.11,-18.55 50.23,13.22 83.91,27.08 44.71,18.39 53.12,-28.57 42.67,-62.71 -12.7,-41.47 -133.77,-64.95 -173.52,-88.36 -62.81,-37.01 -30.35,-34.92 31.29,-37.06 165.89,-5.75 557.62,101.09 677.02,220.91 89.76,89.96 245.54,55.13 357,14.26 59.09,-21.66 105.97,-42.82 162.15,-72.69 25.54,-13.57 64.51,-54.02 92.45,-47.04 0,29.3 -91.19,146 -41.25,171.04 36.76,18.42 16.25,47.22 1.42,78.39 -23.11,48.6 27.38,48 36.98,76.96 -79.07,0 -88.13,0.75 -99.56,81.24 -1.61,11.33 -31.51,71.26 -8.53,71.26 27.22,0 43,-32.78 73.96,-32.78 10.56,42.41 -34.45,86.94 56.89,86.94 17.89,9.6 30.66,11.95 51.2,12.83 32.6,1.41 68.4,11.45 100.99,7.12 20.61,-2.74 98.14,-7.9 98.14,21.38 0,22.83 -18.49,48.45 -18.49,75.54 2.35,0.58 8.04,6.59 8.53,8.55 2.67,0.66 4.44,2.19 7.11,2.85 0.78,3.16 1.16,2.86 4.27,2.86 0.65,2.6 0.24,2.2 2.84,2.85 0,23.22 0.25,46.42 -2.84,71.26 6.68,110.7 18.34,17.5 58.31,82.66 3.85,6.27 4.5,13.05 7.12,19.96 15.62,41.26 3.16,-44.77 42.67,-28.51 34.21,14.07 40.58,31.28 48.35,-15.68 1.93,-11.69 86.71,-113.02 42.67,-102.61 -54.76,12.95 -112.36,3.52 -112.36,-66.99l169.26 29.93c59.2,10.46 -25.32,88.82 8.53,109.74 93.99,58.07 114.21,-125 109.52,-182.43 -5.49,-67.09 -66.67,-96.75 34.13,-122.57 21.47,-5.5 -7.6,129.64 -11.37,148.23 -5.14,25.38 -19.93,211.45 29.86,166.75 32.72,-29.39 77.65,-85.25 88.19,-128.27 12.32,-50.33 -21.34,-67.58 -21.34,-108.32 76.54,57.2 105.85,154.05 187.75,203.81l133.7 81.24c43.2,26.24 139.95,55.29 193.43,65.56 47.54,9.12 88.91,-14.02 139.39,-4.27 32.73,6.33 89.8,-77.43 128.01,-86.95 94.79,-27.52 165.59,-27.59 238.94,-106.89 104.91,-113.44 79.3,-15.36 157.88,4.28l0 2.85c-95.9,0 -14.28,91.22 24.18,104.04l-1.42 66.99c73.46,18.36 229.16,-134.91 248.9,-35.63 44.4,11.06 87.17,2.97 102.41,-42.76 18.19,0 38.99,-21.67 44.09,-37.06 31.59,0 49.84,3.86 82.5,-4.27 0,-46.21 37.65,-46.83 39.82,-12.83 2.99,46.63 211.61,21.02 243.22,17.1 90.02,-11.17 234.77,-27.92 315.75,-68.41 24.43,3.82 19.97,-4.65 39.82,-7.13 119,-104.15 387.76,-94.71 470.79,-228.04 66.73,-33.31 114.89,-141.72 182.06,-183.86 29.68,-65.48 143.3,-173.91 192.01,-235.16 35.55,-44.72 181.52,-269.43 213.35,-282.21 37.61,-48.98 55.75,-123.11 93.87,-166.75 13.19,-59.57 56.51,-128.54 78.23,-190.99l227.57 -654.19c0.81,-2.89 3.17,-14.32 5.69,-18.53l1.42 -4.27c7.39,-59.36 34.19,-138.66 52.62,-196.69 30.26,-95.3 51.1,-198.21 66.85,-296.45 18.28,-114.09 56.9,-224.15 56.9,-342.06l45.51 -238.79 2339.08 0 0 11665.08 0 0 -34.93 -47.03 -75.38 -108.32c-2.39,-21.58 -44.77,-79.23 -58.32,-101.2 -16.49,-26.72 -6.14,-69.73 -25.6,-94.06 -1.42,-11.41 -7.56,-22.55 -11.38,-32.78 -41.5,-29.81 -39.73,-122.29 -71.12,-158.21 -2.17,-17.5 -24.59,-36.02 -27.02,-55.58 -6.39,-7.33 -18.67,-27.08 -19.91,-37.06 -19.78,-24.86 -8.99,-53.54 -41.25,-72.69 -5.66,-8.49 -63.24,-39.73 -75.38,-42.76l-18.49 -85.51c-122.99,-30.74 -62.75,-41.19 -125.17,-125.42 -55.36,-74.72 -39.86,-122.88 -59.73,-202.39 -4.46,-1.11 -7.67,-1.43 -12.8,-1.43 -3.37,13.55 -2.74,41.34 -19.92,37.06 -9.91,-39.67 -32.71,-23.8 -32.71,-79.81 0,-14.09 -49.12,-74.64 -59.74,-84.09 -60.32,-53.73 -100.67,-135.36 -159.3,-189.56 -40.98,-37.87 -87.85,-76.38 -113.78,-125.43 -21.29,-40.29 6.58,-54.4 12.8,-85.51 5.59,-1.39 9.08,-8.6 12.8,-12.83 0,-82.43 -85.7,-92.03 -93.87,-149.65 -14.47,-102.06 -87.54,-77.57 -143.66,-145.38l-96.71 -116.87c-20.42,-24.67 -62.58,-121.69 -75.39,-155.35 -31.79,-83.55 -4.32,-174.79 -100.98,-228.04 -34.14,-18.81 -15.55,-115.43 -32.71,-119.72 -2.8,-11.31 -39.64,-40.18 -48.36,-65.57 -11.84,-34.44 -41.58,-36.48 -73.96,-42.75 -61.44,-30.77 -47.26,-104.4 -93.87,-166.76 -40.88,-54.68 -107.3,-101.46 -143.66,-153.93 -14.84,-21.41 -101.54,-55.06 -83.91,-72.69 38.34,-38.34 134.26,-54.6 32.71,-74.11 -85.72,-16.46 -141.48,-45.19 -210.5,-98.34 -1.46,-1.13 -85.34,61.19 -85.34,-1.43 -35.23,-8.8 -281.84,145.03 -240.37,9.98 16,-52.1 -36.06,24.23 -42.67,24.23 0,-94.78 -104.1,42.33 -113.79,39.91 -4.77,-24.03 -19.62,-49.21 -22.76,-76.97 -2.02,-17.84 -39,-25.24 -42.66,-39.9 -44.95,0 -64.72,103.33 -66.85,104.04 0,8.6 -36.41,66.55 -42.67,75.54 -21.38,30.66 -21.22,-38.45 -25.6,-39.91 0,-84.97 -14.94,-55.43 -55.47,-65.56 0,-31.27 94.74,-151.27 116.62,-186.71 47.3,-76.58 63.23,-166.73 105.26,-247.99 39.47,-105.81 64.47,-199.46 116.63,-297.88 27.9,-52.63 9.3,-214.2 -22.76,-260.83 -18.02,-26.2 17.6,-129.5 31.29,-158.2 35.7,-74.8 53.11,-150.47 34.14,-226.62 -22.91,-5.7 27.04,-97.4 36.98,-112.59 0,-28.72 17.94,-96.64 7.11,-118.3 -17.83,-35.69 16.65,-57.88 28.44,-86.94 24.94,-61.51 16.05,-214.83 58.32,-260.82 50.32,-54.76 159.65,-535.52 98.14,-562.98 -35.91,-16.04 -75.4,49.32 -98.14,65.56 -1.3,9.18 -14.71,23.3 -19.91,29.93 -26.82,21.54 -52.83,29.53 -69.7,59.87 -11.59,20.86 -19.75,52.05 -42.67,64.13 -53.65,28.29 -25.56,80.6 -56.89,105.47 -27.86,22.1 -31.35,20.41 -48.36,61.29 -17.24,41.4 -43.65,49.99 -46.93,96.92 -2.07,29.62 2.21,172.1 -15.65,188.13 -16.56,14.88 -53.82,24.88 -59.74,42.76 -17.71,53.43 -70.65,253.5 9.96,273.65 0,36.94 -58.33,39.22 -76.81,64.13 -25.65,34.55 0.73,88.25 5.69,126.85 -17.69,53.23 11.83,60.12 -28.44,109.75 -24.65,30.39 -10.35,91.56 -7.11,126.84 7.73,83.92 -73.96,125.04 -73.96,195.26 -2.78,0.92 -0.08,0.51 -2.85,1.43 -0.45,3.16 -1.42,4.05 -1.42,7.13 -10.07,3.35 -48.38,71.64 -44.09,88.36 13.32,51.8 -58.32,50.86 -58.32,99.77 0,32 17.07,59.43 17.07,89.79 -2.43,1.83 -3.49,1.14 -4.27,4.28 -16.03,3.2 -31.01,5.7 -48.36,5.7 -42.99,64.49 -51.79,245.53 -123.74,289.33 -7.22,28.91 -6.94,50.93 -2.84,79.81 22.17,5.54 25.6,45.91 25.6,65.56 0,34.99 26.76,45.95 32.71,69.84 3.03,0.75 6.36,4.1 7.11,7.13 25.17,6.27 -21.33,162.55 -21.33,193.83 0,101.62 28.23,125.59 -54.05,208.09 -35.33,35.43 -59.46,66.97 -102.41,88.36 0,3.1 0.32,3.49 -2.84,4.28 -3.18,22.36 -1.73,54.7 -11.38,74.11 -9.95,20.04 -32.55,-15.73 -46.93,-8.55 -52.34,26.17 15.65,116.87 -89.61,116.87 -52.06,39.23 -225.71,-4.63 -278.77,-41.33 -45.5,-31.48 -187.26,-222.34 -229,-222.34 -80.32,0 -132.35,-56 -192.01,-114.02 -21.07,-20.48 -27.6,-76.4 -54.05,-99.77 -36.43,-32.2 -55.99,-23.08 -88.18,-75.54 -43.17,-70.38 8.81,-52.63 -71.12,-85.51 -71.78,-29.54 28.36,-106.74 -82.49,-122.57 -10.68,-37.62 -26.45,-111.77 -66.85,-128.28 -59.59,-24.37 -89.23,-65.44 -145.07,-99.77l-91.03 -82.66c-35.24,-31.99 -22.88,-69.88 -45.52,-95.49 -8.99,-10.18 -29.33,-6.66 -41.24,-14.26 -22.2,-14.18 -41.76,-53.16 -59.74,-72.68 -37.37,-40.59 -12.58,-80.53 -35.56,-111.17 -25.33,0 -33.59,28.5 -55.47,28.5 -5.87,-7.34 -49.78,-173.13 -49.78,-185.28 0,-67.47 56.74,-138.89 32.71,-203.81 -13.9,-37.53 -48,-67.69 -66.85,-105.47 -27.97,-56.02 23.49,-111.2 -5.69,-149.66 -13.02,-31.7 -30.61,-50.96 -17.06,-84.09 12.78,-31.27 24,-27.13 4.26,-55.58 -29.03,-41.82 -60.26,-58.32 -100.98,-85.52 -37.7,-25.17 -42.35,-56.29 -61.16,-94.06 -24.06,-48.34 -82.59,-103.72 -126.59,-136.83 -46.08,-34.66 -150.3,-95.18 -163.56,-151.08 -9.49,-39.98 -30.56,-50.09 -41.25,-76.96 -14.59,-2.08 -84.06,-163.44 -86.76,-182.43 -42.13,-10.53 -84.34,-130.25 -100.98,-166.76 0,-50.32 2.21,-135.23 -55.47,-149.65l-1.43 -1.43c0,-70.47 1.79,-131.57 14.23,-200.96 16.06,-89.65 -37.84,-111.91 -89.61,-172.45 -43.64,-51.02 -38.71,-32.65 0,-88.37 17.04,-24.54 -3.06,-22.58 -19.91,-47.03 -44.63,-64.8 -78.23,-50.03 -78.23,-133.98 -2.61,-0.65 -2.19,-0.24 -2.84,-2.85 -29.88,-7.44 -95.22,-19.91 -118.06,8.55 -27.16,33.82 -66.45,100.04 -49.78,143.96 13.49,35.57 38.41,20.38 38.41,64.13 -9.18,3.04 -85.39,85.32 -102.41,99.77 -45.56,38.65 -70.63,114.33 -83.92,171.03 -10.73,45.82 -3.87,93.31 -27.02,135.4 -0.63,1.9 -11.88,19.37 -14.22,19.95 0,110.18 123.33,188.55 193.43,250.85 88.04,78.26 186.29,149.96 223.3,270.8 29.18,95.25 30.91,202.3 55.47,300.73 9.97,39.95 39.39,70.34 14.23,111.17 -29.01,47.09 -67.41,12.87 -51.21,96.92 -24.47,49.12 -1.66,128.25 48.36,152.5 41.19,19.98 31.64,98.45 55.47,131.12 18.78,25.73 56.14,29.71 68.27,57.01 18.84,42.42 35.16,63.8 86.76,74.12 0.73,2.95 2.88,3.57 5.69,4.27 0.68,2.74 1.53,3.6 4.27,4.28 20.97,104.85 108.1,196.7 108.1,309.28 0,118.64 100.89,63.52 149.34,145.37 28.57,48.25 84.9,79.47 98.14,132.55 36.79,73.84 65.32,130.79 139.39,155.36 1.59,6.37 1.42,6.08 1.42,12.82 -3.26,0.81 -1.93,2.07 -4.27,2.85 -18.95,76.35 30.01,96.98 66.85,156.78 42.72,69.36 103.38,94.37 119.47,175.31l1.43 1.43c57.84,0 77.3,48.75 112.36,79.81 43.21,38.3 10.63,102.85 69.69,119.72 9.28,32.61 43.95,14.28 61.16,9.98 4.26,-17.13 73.26,27.8 82.5,37.05 10.93,10.96 59.13,63.64 72.53,66.99 12.77,51.29 68.91,103.51 79.65,161.06 0,19.67 35.36,50.38 46.94,58.43 9.32,6.49 -2.27,85.23 -5.69,95.49 -12.69,-12.69 -8.76,-62.79 -38.4,-51.31 -25.99,10.07 -31.15,2.04 -51.2,-15.67 -65.5,-57.89 -61.75,57.43 -22.76,99.76 37.77,41.02 46.59,25.66 91.03,25.66 0,21.67 -50.99,85.79 -48.36,92.64 20.94,54.61 -60.15,72.67 -49.78,104.05 6.19,18.71 44.65,56.86 62.58,69.83 35.01,25.35 56.23,60.83 44.09,108.32 -9.51,37.18 64.49,78.1 96.72,85.52 9.03,2.07 5.45,76.42 17.07,92.64 20.37,28.4 43.47,60.21 61.16,91.22 16.14,113.25 85.58,204.13 200.54,239.44 108.88,33.43 3.79,147.56 22.76,246.57 12.61,65.87 108.09,34.53 108.09,98.34 -7.03,2.81 -10.11,12.83 -19.91,12.83 0,28.65 65.8,130.19 79.65,166.75 19.38,51.18 65.43,132.67 65.43,185.29 0,50.8 -43.71,46.9 -31.29,111.17 -18.65,24.75 -7.35,57.47 -1.43,81.24 2.62,0.65 2.2,0.23 2.85,2.85l2.84 0c0.65,2.6 0.25,2.2 2.85,2.85l1.42 1.42c0,42.04 -21.33,89.45 -21.33,139.68 0,37.3 83.33,92.64 115.2,92.64 1.57,3.15 2.49,3.75 5.69,4.28 17.12,68.5 72.48,129.15 89.61,206.66 17.01,77 48.27,155.37 102.41,209.51 39.91,39.91 45.16,66.68 68.27,115.45 29.04,61.25 36.03,124.14 71.11,186.71 60.12,68.82 92.1,170.37 132.28,250.84 41.74,83.62 79.66,118.73 136.54,189.56 33.61,41.84 22.67,120.74 34.13,166.76 73.1,18.21 210.72,179.14 221.89,252.27 6.54,42.8 15.26,103.28 49.78,132.55 9.52,38.1 43.61,61.46 65.42,89.79 17.35,22.52 -0.56,61.94 5.69,88.36 6.67,28.16 20.35,20.86 28.45,37.06 5.73,1.43 22.33,45.27 24.18,52.74 3.06,1.53 20.72,17.5 21.33,19.95 3.49,0.86 3.39,3.51 5.69,4.27 0.68,2.76 3.6,9.29 5.69,9.98 0,28.21 1.96,56.42 5.69,82.67 23.9,7.96 68.91,136.91 72.54,162.48 28.2,8.05 36.5,79.16 62.58,94.06 2.89,20.35 39.14,36.47 41.25,51.31 5.89,0.98 11.91,10.55 17.07,11.4 8.14,32.7 43.98,81.35 58.31,118.3l49.78 128.27c1.49,10.5 10.03,20.43 11.38,29.93 3.34,0.83 2.95,2.91 5.69,4.28 0.25,1.76 20.13,26.78 21.33,27.08 0.97,7.85 7.03,9.62 8.54,15.68 3.2,1.06 8.5,10.79 9.95,12.82 1.75,2.34 0.8,2.18 2.85,2.86 16.33,65.33 -53.35,56.37 29.87,131.12 58.92,52.91 31.7,128 69.69,189.56 25.71,41.68 68.85,84.14 109.52,112.59 37.3,26.08 -1.83,127.52 41.25,138.25 0.64,2.6 2.16,6.43 4.26,7.13 0,34.3 -11.2,33.22 0,66.99 57.79,14.39 41.38,76.56 85.34,91.21 2.67,10.72 -2.4,11.03 -4.27,18.53 -2.37,0.59 -5.11,2.56 -5.68,4.28 -3.28,0.81 -1.92,2.07 -4.27,2.85 0,20.1 -8.42,49.51 -32.71,55.58 -0.71,2.87 -1.43,3.75 -1.43,7.13 113.92,28.38 144.12,151.85 194.86,240.87 37.7,30.16 79.99,-1.96 109.52,21.38 27.09,21.42 51.73,86.05 75.38,118.29 38.88,53.02 83.88,223.79 135.12,236.6 0.58,2.35 6.59,8.07 8.53,8.55 2.48,9.95 19.75,21.24 24.18,32.78 5.21,13.6 -0.78,37.73 17.07,44.18 51.24,18.5 16.75,-61.21 28.45,-64.13 1.55,4.66 10.05,9.02 11.38,15.67 30.68,7.67 78.19,43.45 99.56,68.42 51.77,60.46 -0.25,84.31 27.02,125.42 25.45,38.35 297.88,9.32 206.24,101.19 -62.79,62.94 -91.9,63.54 -152.19,15.68 -24.92,-19.77 -66.09,15.85 -95.29,2.85 -19.43,-8.64 -81.23,-61.69 -86.77,-78.39 -8.82,0 -7.37,5.78 -12.8,7.13 -6.65,40.02 -49.33,50.77 -58.31,86.94 -11.13,44.87 21.33,70.91 21.33,102.62 0,86.63 -48.84,112.64 17.07,199.53 2.77,0.92 0.07,0.51 2.85,1.43 1.35,5.43 5.68,10.54 5.68,15.68 12.36,3.08 8.55,72.93 9.96,86.94 2.67,26.34 8.53,56.72 8.53,82.66l-1.42 1.43c-6.26,0 -18.15,1.35 -24.18,2.85 -7.85,31.4 14.23,48.64 14.23,78.39 0,35.07 -5.69,70.02 -5.69,104.04 -65.35,16.28 -5.72,81.18 -1.43,98.34 10.66,2.65 42.25,76.68 46.94,89.79 5.88,16.4 34.3,68.39 25.6,71.27 0,17.52 -7.11,35.59 -7.11,55.58 5.11,1.27 3.96,7.41 8.54,8.55 7.75,46.62 6.66,105.44 21.33,149.66 5.81,1.45 12.57,9.92 18.49,11.4 9.67,38.71 5.9,77.81 9.96,119.72 24.86,124.67 126.58,192.76 135.12,334.94 6.58,109.69 68.36,175.97 136.54,252.27 27.36,30.63 142.52,117.73 150.76,142.52 51.59,7.35 126.99,101.49 192.02,115.45l219.03 47.03c33.95,7.29 71.38,-4.52 100.99,2.85 2.22,8.94 13.71,17.4 15.64,27.08 3.2,0.64 21.68,20.99 22.76,24.23 2.91,0.72 7.74,3.32 8.53,5.7 11.81,2.94 22.27,24.12 34.14,27.08 5.91,23.75 30.25,43.54 47.65,59.86 29.25,39.13 18.96,103.95 51.91,142.53 31.21,36.56 72.08,58.92 115.21,80.53 9.25,4.64 67.55,15.46 69.69,22.09 8.51,1.39 -5.76,62.32 -2.13,76.96 5.67,22.8 31.53,68.52 59.82,65.56l0 0zm-1374.75 -16219.43c0,-42.01 9.18,-55.9 18.49,-91.22 9.45,-35.88 -5.69,-66.51 -5.69,-99.77 -20.17,-6.72 -107.27,-36.87 -116.63,-19.95 -15.43,27.86 -92.45,124.58 -92.45,142.52 -3.32,1.1 -3.29,27.37 -5.69,32.79 -10.49,23.74 -33.32,40.7 -44.09,65.56 -17.23,39.74 -11.76,104.57 -25.6,149.65 -15.16,49.36 -9.21,76.3 -7.12,129.7 2.91,74.1 -29.11,148.01 -15.64,223.76l25.6 143.95c67.9,16.97 66.96,-77.73 120.9,-91.21 0.79,-3.17 3.78,-4.28 7.11,-4.28l1.42 1.43c0,17 2.85,35.63 2.85,54.16 77.65,0 62.47,-20.95 75.38,-88.37 18.3,-95.51 45.27,-177.97 31.29,-269.37 -8.82,-57.64 -22.03,-199.08 22.76,-243.72l7.11 -35.63z"/>
  <path class="fil0 str1" d="M3939.58 4023.03c-3.7,4.81 -8.36,8.67 -11.38,13.54 -2.01,0.28 -21.33,12.27 -24.18,14.25 -15.81,10.94 -44.18,15.17 -34.14,39.91 3.55,8.74 8.37,18.04 13.52,26.36 11.41,18.45 28,10.33 20.62,40.62 -3.84,15.74 -9.94,30.7 -13.51,47.04 -2.96,13.53 -5.51,33 14.22,24.23 15.79,-7.01 31.9,-8.45 48.36,-12.83 19.44,-5.16 21.26,-22.39 27.73,-39.19 9.91,-25.69 37.09,-31.75 2.14,-52.03 -22.82,-13.25 -27.55,-23.03 -8.54,-42.04 22.12,-22.12 29.16,-60.23 29.16,-90.51 0,-18.93 -47.55,13.2 -53.34,17.82l-10.66 12.83zm1172.69 2956.7c-29.62,15.98 -64.96,-9.48 -91.02,8.55 -55.4,38.31 -107.22,77.39 -170.68,105.47 -32.38,14.32 -95.64,-1.43 -133.7,-1.43l-1.42 1.43 0 2.85c9.96,7.47 56.66,29.19 59.74,38.48 3.37,0.48 9.16,3.94 9.95,7.12 4.33,1.08 7.05,4.63 11.38,5.71 0.57,1.72 3.33,3.68 5.69,4.27 0.98,1.97 1.86,2.31 2.84,4.28 33.58,4.78 69.14,14.8 105.26,0 38.92,-15.94 64.06,4.6 100.98,2.85 32.58,-1.55 53.42,-29.76 78.23,-45.61 14.39,-9.18 41.75,5.42 61.16,-4.28 48.74,-24.37 39.42,-58.43 106.67,-58.43 36.35,0 71.33,-8.71 95.3,-37.06 20.26,-23.95 -11.84,-30.36 -27.03,-45.61 -22.6,-22.67 -39.62,-53.51 -72.54,-48.46 -24.77,3.79 -70.97,28.51 -88.18,28.51l-52.63 31.36z"/>
  <g id="_2414781159920">
   <path class="fil2 str2" d="M4636.1 3442.3c0.8,8.73 10.54,20.19 12.5,31.29 0.39,2.2 13.36,21.39 14.22,22.8 2.77,4.54 12.89,18.7 17.07,19.96 72.65,22.03 53.76,33.45 55.47,101.19 0.04,1.82 1.03,2.76 2.85,2.85 32.02,1.69 38.79,27.4 41.24,54.16 2.23,24.46 72.26,-11.08 96.72,57.01 25.29,70.42 -32.95,114.31 -15.65,163.91 1.89,5.41 11.16,4.81 17.07,7.12 2.63,1.02 4.02,1.47 4.27,4.28 2.66,29.21 -6.66,64.17 17.07,74.11 49.24,20.61 63.38,-43.33 110.94,22.81 50.08,69.62 71.54,117.13 149.34,165.33 34.06,21.11 51.2,38.81 51.2,81.24 0,51.03 40.2,51.71 34.14,92.64 -10.01,67.52 54.13,59.26 34.14,119.72 -17.71,53.54 -39.59,53.19 22.75,91.22 26.49,16.17 -19.91,36.88 -19.91,65.56 0,19.87 27.46,4.71 36.98,14.25 10.22,10.26 -51.7,69.79 -61.16,78.39 -40.62,36.97 35.37,29.72 44.09,41.33 17.24,22.92 -62.51,105.21 -19.91,114.02 2.93,0.6 11.84,8.75 14.22,11.41 2,2.22 2.7,6.25 2.85,8.55 2.13,32.54 -9.5,60.94 2.84,91.21 9.06,22.21 36.25,62.48 46.94,75.54 7.66,9.34 -18.35,47.17 -11.38,61.29 1.93,3.93 32.97,8.92 34.14,9.97 1.38,1.25 3.72,-0.35 4.26,1.43 8.84,28.89 -15.64,56.24 -15.64,89.79 0,24.91 21.65,93.92 31.29,121.15 16.19,45.76 72.86,57.19 19.91,92.64 -17.84,11.95 -63.47,42.17 -42.67,71.26 33.95,47.51 72.95,-36.67 105.25,0 40.72,46.21 0.44,34.76 69.7,88.37 55.34,42.85 50.74,214.4 143.65,162.48 61.97,-34.62 104.43,3.37 150.76,49.88 67.82,68.06 148.53,87.77 126.59,202.39 -7.64,39.93 -9.95,111.42 5.69,146.8 17.92,40.51 59.53,67.27 71.12,114.02 16,64.59 42.99,169.16 11.37,230.89 -27.55,53.76 -17.94,90.72 8.54,143.95 23.3,46.82 17.08,54.02 -11.38,96.92 -29.13,43.89 0,136.46 0,186.71 0,60.47 -71.18,136.21 -92.45,183.86 -5.87,13.14 21.33,56.6 19.91,75.54 -2.89,38.63 -20.6,64.91 -25.6,111.17 -7.01,64.85 0.94,190.95 -27.02,243.72 -20.16,38.04 -48.01,70.82 -69.7,109.74 -13.15,23.59 -31.05,88.81 -44.09,108.32 -18.97,28.36 -79.83,49.89 -96.72,91.22 -19.05,46.59 -65.01,199.14 -116.63,212.36 -96.02,24.59 -117.99,122.27 -122.32,212.36 -1.25,26.06 -0.25,56.03 -9.95,79.82 -16.15,39.56 -31.27,51.65 -34.14,99.77 -1.52,25.5 -28.07,40.64 -41.24,61.28 -13.25,20.75 -17.16,113.7 -21.34,141.1 -4.74,31.14 -31.2,91.85 2.85,125.43 14.37,14.18 19.91,27.39 19.91,57.01 0,74.81 -103.86,139.57 -129.43,210.93 -11.82,32.98 -36.98,50.29 -36.98,91.22 0,43.92 11.85,68.56 22.75,106.9 12.06,42.46 -14.22,67.54 -14.22,109.74 0,80.21 45.37,111.12 95.3,161.05 25.93,25.93 88.5,138.47 92.45,156.78 14.62,67.61 -37.48,121.71 -44.1,193.84 -2.72,29.66 -18.85,59.2 -2.84,88.36 17.48,31.81 63.62,10.15 79.65,32.79 3.42,4.82 14.67,15.49 19.91,19.95 10.6,9.05 -38.61,70.97 -45.51,85.51 -19.6,41.31 3.12,73 27.02,92.65 35.31,29.05 -18.34,107.18 -28.44,121.14 -23.9,33.06 -31.67,52.8 -34.14,94.07 -3.27,54.77 48.91,67.73 21.33,128.27 -25.73,56.45 -9.57,86 19.92,125.43 18.12,24.21 53.39,19.28 75.38,41.33 21.6,21.65 45.84,16.66 72.54,22.8 36.53,8.39 -43.92,74.48 15.64,91.22 38.42,10.8 37.54,59.3 66.85,81.24 40.24,30.14 149.35,-37.74 149.35,52.73 0,113.83 -6.1,61.29 69.69,61.29 28.04,0 49.82,42.64 71.11,59.86 36.61,29.59 127.02,14.19 150.77,57.01 28.49,51.39 2.7,137.26 38.4,199.54 7.95,13.88 48.83,38.47 56.89,49.88 21.81,30.87 43.62,61.77 65.43,92.64 55.07,77.98 171.37,185.87 187.75,267.95 19.89,99.6 80.87,117.73 135.12,185.28 38.47,47.92 13.38,106.36 79.65,121.15 61.5,13.73 75.38,-1.3 75.38,75.54 0,20.34 -6.33,109.44 18.49,111.17 37.71,2.63 70.21,-90.74 118.05,-42.76 26.8,26.89 15.28,136.67 22.76,173.88 28.13,140 175.99,194.43 288.73,270.8 63.54,43.05 -12.78,267.33 112.36,176.73 124.68,-90.28 70.78,73.36 119.47,86.95 56.44,15.74 111.48,45.86 137.97,102.61 15.27,32.7 28.82,91.85 75.38,78.39 37.92,-10.97 33.65,-72.43 65.43,-88.36 45.99,-23.04 48.38,67.65 112.36,-12.83 43.02,-54.1 82.42,-42.34 146.5,-39.91 27.13,1.03 52.88,4.15 79.65,-1.42 23.96,-4.99 58.27,-18.32 72.54,-28.51 20.24,-14.47 26.33,-58.15 51.2,-59.86 237.81,-16.4 256.82,286.42 147.92,454.66 -41.61,64.3 128.11,149.85 35.56,181.01 -129.33,43.55 -145.61,108.32 -187.75,213.79 -57.62,144.25 -187.99,46.73 -240.37,139.67 -62.11,110.23 129.43,216.56 129.43,324.96 0,115.13 -16.4,237.53 137.97,272.22 30.1,6.76 52.2,45.42 69.69,79.82 12.23,24.04 34.27,57.95 61.16,79.81 42.69,34.72 94.74,34.34 132.28,85.52 25.58,34.89 99.56,115.27 99.56,158.2 0,50.76 -28.45,88.13 -28.45,135.4 0,78.05 38.83,136.06 71.12,203.81 44.86,94.15 33.3,248.29 -7.11,339.21 -9.28,20.87 -4.33,50.29 -12.81,72.69 -26.05,68.8 -55.63,80.68 28.45,165.33 0.46,0.47 0.95,0.95 1.42,1.43 24.63,24.78 -12.29,117.18 -14.22,162.48 -1.98,46.23 5.18,101.25 -17.07,142.52 -30.5,56.54 -81.95,87.09 -58.31,158.21 15.94,47.93 75.26,78.93 48.36,128.27 -27.57,50.59 -12.8,252.24 -12.8,309.28 0,101.01 42.51,177.83 38.4,275.08 -3.43,81.12 -46.84,159.52 -55.47,243.71 -3.47,33.86 -7.8,67.33 -2.85,101.2 4.53,30.94 8.39,84.48 24.18,105.47 41.34,54.91 85.84,200.2 75.38,267.95 -25.56,165.46 -126.16,235.17 -216.19,366.29 -75.45,109.89 -251.58,191.77 -283.04,324.96 -23.22,98.34 -20.29,206.88 -69.69,295.02 -29.33,52.34 -100.52,65.57 -150.77,98.35 -39.96,26.07 -63.03,96.55 -89.6,133.97 -33.49,47.14 -148.44,46.3 -184.9,19.95 -56.28,-40.66 -94.38,-159.8 -152.19,-199.53 -44.5,-30.59 -85.89,-8.68 -135.12,22.8 -75.38,48.19 -157.46,80.87 -219.04,142.53 -96.03,96.18 -151.43,235.74 -251.75,336.36 -53.07,53.22 -109.71,97.72 -170.67,142.53 -43.9,32.28 -150.63,136.15 -193.44,165.33 -70.01,47.7 -138.67,115.46 -200.54,166.75 -56.82,47.12 -100.89,106.88 -125.17,173.88 -8.2,22.63 -30.54,178.23 -31.29,186.71 -6.64,75.21 -112.82,137.5 -149.34,196.69 -41.74,67.66 -42.67,114.38 -42.67,195.26 0,71.56 -130.4,73.62 -163.57,161.05 -19.52,51.43 -7.36,82.41 -72.54,104.04 -69.18,22.97 -91.05,8.87 -119.47,82.67 -14.35,37.25 47.34,84.33 49.78,116.87 3,39.87 -61.6,12.53 -75.38,48.46 -26.05,67.93 -29.94,98.55 -106.68,136.82 -45.53,22.71 -100.49,2.59 -152.18,25.66 -46.83,20.91 -157.35,99.94 -172.1,145.38 -32.76,100.93 72.15,128.4 55.47,185.28 -0.79,2.7 -1.53,3.56 -4.27,4.27 -43.61,11.25 -52.06,43.39 -85.34,57.01 -24.25,9.93 -62,14.88 -83.92,27.08 -22.54,12.53 -25.27,60.89 -41.24,86.95 -12.27,20 5.3,44.36 12.8,62.71 12.67,31.01 3.35,76.67 -5.69,108.32 -1.96,6.87 -14.17,22.23 -15.65,29.93 -21.7,112.62 -540.54,-9.06 -314.33,222.34 3.1,3.18 1.12,8.63 -1.42,11.4 -38,41.6 -99.56,150.97 -99.56,209.51 0,71.77 75.64,71.69 59.74,133.98 -26.71,104.68 76.8,130.35 76.8,213.79 0,74.49 50.74,53.14 100.98,41.33 75.24,-17.68 87.57,17.54 139.39,37.05 20.11,7.56 44.75,22.07 62.58,32.79 38.31,23.02 -11.96,82.07 -14.22,118.29 -6.17,99.05 -40.66,138.93 -7.11,242.3 19.3,59.45 58.6,62.47 39.82,138.25 -24.26,97.92 -74.29,105.46 -166.41,105.46 -92.67,0 -169.51,-11.92 -260.28,1.43 -2.39,0.35 -11.78,8.56 -12.8,11.4 -8.41,23.38 7.11,57.48 7.11,84.09 0,46.79 -19.49,80 0,124 7.33,16.54 83.27,44.17 100.98,49.88 3.01,0.97 3.07,2.89 4.27,5.7 2.84,6.64 5.69,13.3 8.53,19.96 9.48,22.16 1.43,50.56 1.43,74.11 0,11.2 4.26,21.31 4.26,32.78 0,7.77 2.7,21.4 4.27,28.51 2.28,10.35 1.42,20.47 1.42,31.35 0,60.26 2.63,132.62 22.76,188.14 49.88,137.58 66.22,286.03 89.61,430.43 0.56,3.48 27.8,29.13 31.29,29.93 30.54,7.02 18.27,160.27 22.75,189.56 11.65,76.14 -34.17,170.14 -46.93,243.71 -25.86,149.17 54.38,215.99 105.25,340.64 22.08,54.09 39.93,101.22 54.05,158.2 13.47,54.4 -22.81,124.96 21.33,161.06 52.86,43.22 114.41,105.94 164.99,141.1 48.79,33.9 35.89,179.23 19.91,242.29 -20.89,82.38 45.22,175.37 82.5,248 26.97,52.53 30.44,91.21 102.4,91.21 47.43,0 97.36,-5.21 137.97,15.68 58.58,30.12 24.04,125.18 99.56,152.5 33.03,11.95 67.36,-18.25 100.98,-7.12 20.52,6.8 42.12,49.44 62.59,52.73 75.33,12.11 111.99,55.29 190.59,45.61 17.55,-2.16 118.58,-43.03 123.74,-62.71 24.9,-94.89 94.37,2.66 153.61,-27.08 132.29,-66.4 226.98,-30.45 315.75,-183.86 48.65,-84.07 175.05,-279.99 267.4,-320.68 48.72,-21.46 12.32,-75.8 34.13,-125.42 20.49,-46.59 50.93,-103.61 81.07,-142.53 35.5,-45.82 61.67,-117.03 122.32,-132.55 46.51,-11.91 51.12,55.96 103.83,21.38 176.4,-115.7 14.14,-373.32 166.41,-426.15 27.48,-9.53 57.54,-4.87 75.38,-24.23 16.34,-17.75 28.33,-58.88 54.05,-64.14 20.9,-4.28 28.24,12.83 45.52,12.83 12.74,0 91.48,-66.4 133.69,-15.68 55.04,66.12 167.3,-87.7 211.93,-141.1 40.52,-48.47 50.44,-52.1 100.98,-74.11 43.06,-18.76 -5.14,-84.02 29.87,-95.49 35.79,-11.72 42.36,-94.01 73.96,-106.9 63.52,-25.93 129.3,40.15 166.41,-48.46 26.62,-63.54 46.62,-175.08 109.52,-215.21 4.04,-2.58 1.39,-0.45 4.27,-4.28 16.06,-21.3 55.04,-11.34 78.23,-38.48 43.98,-51.45 96.18,-160.28 160.72,-186.71 41.48,-16.99 79.56,16.54 112.36,-1.42 40.94,-22.41 43.42,-75.34 92.45,-95.5 30.84,-12.69 161.55,-36.96 190.59,-31.35 57.33,11.07 127.83,26.79 184.9,34.2 21.54,2.8 89,-2.53 95.3,21.38 0.82,3.15 6.44,1.09 7.11,4.28 9.14,43.44 29.73,88.34 32.71,138.25 2.13,35.64 -3.14,86.63 22.76,112.59 29.73,29.82 36.23,16.48 39.82,64.14 10.04,133 200.9,146.58 251.75,253.7 29.34,61.79 3.04,139.37 12.8,209.51 5.4,38.88 4.18,83.83 -5.69,121.15 -9.21,34.78 -52.62,65.42 -52.62,96.91 0,55.56 -7.01,208.27 28.44,243.72 21.51,21.51 69.91,19.28 99.57,29.93 40.29,14.46 70,45.88 91.02,76.97 21.13,31.27 26.82,54.94 17.07,104.04 -14.85,74.84 -59.87,116.35 -25.6,193.84 17.15,38.77 73.24,42.83 99.56,72.69 16.61,18.86 59.91,148.98 62.58,178.15 5.32,58 128.72,51.31 172.1,88.37 83.37,71.2 27.34,173.02 56.9,262.25 10.18,30.72 43.18,38.95 39.82,75.53 -6.59,71.85 12.95,92.85 28.45,158.21 9.81,41.34 -43.9,66.73 -32.72,116.87 15.56,69.84 37.19,155.02 15.65,225.19 -7.82,25.47 -31.98,62.68 -19.91,89.79 13.92,31.29 26.57,63.01 11.38,101.19 -1.79,4.52 2.32,2.87 0,7.13 -45.07,82.78 -109.43,108.04 -153.61,188.14 -25.14,45.57 42.61,101.39 21.33,148.22 -25.21,55.46 -141,156.21 -192.01,185.29 -44.65,25.46 -56.15,57.42 -44.09,115.44 14.95,71.89 18.42,102.64 -41.25,162.48 -53.63,53.77 11.66,136.08 14.22,198.11 1.42,34.38 2.84,68.79 4.27,103.19"/>
   <path class="fil2 str2" d="M4186.35 3721.37c2.05,3.07 -10.76,75.03 1.42,88.58 12.14,13.49 104.69,166.67 110.94,196.69 37.76,181.34 201.67,104.7 335.67,125.42 78.02,12.06 94.16,32.21 137.96,88.37 28.54,36.58 135.18,116.05 155.03,145.37 40.23,59.45 90.41,109.85 133.7,166.76 23.87,31.37 46.2,62.29 68.27,95.49 10.55,15.89 50.26,57.6 56.89,72.69 1.82,4.13 14.84,17.85 17.07,19.95 2.45,2.32 5.16,1.38 8.54,2.85 12.23,5.3 27.73,9.92 39.97,15.25"/>
   <path class="fil2 str2" d="M5281.84 4433.48c14.27,30.94 39.49,67.27 50.89,104.78 21.8,71.72 43.62,143.48 65.43,215.21 13.18,43.38 26.06,82.79 45.51,124 12.88,27.27 42.12,94.62 55.47,118.3 13.52,24 35.82,50.23 58.32,68.41 21.52,17.4 47.11,28.22 64,49.88 5.45,6.98 -0.32,19.65 5.69,25.66 0.95,0.94 1.9,1.91 2.85,2.85 29.37,29.37 15.9,98.6 27.02,138.25 9.5,33.85 43.34,134.84 61.16,162.48 20.22,31.34 39.18,61.27 45.51,102.62 5.91,38.6 10.15,88.53 8.54,126.84 -1.04,24.92 -2.1,49.84 -3.15,74.76"/>
   <path class="fil2 str2" d="M5144.86 3581.01c2.74,41.05 26.09,99.73 51.33,136.3 24.14,35 65.88,71.65 82.5,105.47 2.33,4.73 3.7,6.93 8.53,8.55 33.24,11.15 78.49,140.39 86.76,171.03 17.77,65.82 54.19,160.33 32.71,229.47 -17.97,57.81 -50.42,123.77 -4.26,175.3 17.46,19.48 35.05,36.97 56.89,52.74 9.19,6.64 62.93,37.43 64,38.48 1.71,1.7 -0.81,2.73 1.43,4.28 6.59,4.55 7.11,106.55 7.11,121.14 0,123.13 -3.13,276.69 46.93,404.78 9.47,24.22 19.59,47.21 29.07,71.45"/>
   <path class="fil2 str2" d="M5428.04 3560.03c-0.06,83.32 -5.78,166.98 5.68,249.92 7.65,55.34 27.33,174.06 46.93,223.77 15.59,39.57 9.96,85.26 9.96,128.27 0,22.63 -11.61,46.39 -17.07,68.41 -7.25,29.27 -12.99,61 -4.26,89.79 18.01,59.37 36.02,118.77 54.04,178.16"/>
   <path class="fil2 str2" d="M5627.15 5139.72c20.62,-38.61 47.96,-134.4 66.85,-169.61 13.79,-25.69 29.41,-105.88 36.98,-135.4 8.75,-34.09 35.5,-92.75 52.63,-112.59 39.72,-45.97 18.59,-107.17 36.98,-152.51 12.15,-29.98 56.48,-135.97 65.42,-161.05 26.66,-74.7 26.39,-133.96 24.18,-219.49 -1.68,-64.97 -48.81,-154.72 -68.27,-218.06 -24.36,-79.33 -19.04,-180.11 -28.44,-262.25 -5.21,-45.5 -12.81,-88.15 -12.81,-135.4 0,-37.6 -20.96,-105.97 -25.89,-140.57"/>
   <path class="fil2 str2" d="M5718.18 5443.3c14.74,-8.75 62.53,-59.17 69.69,-75.54 1.51,-3.45 2.56,-4.99 5.69,-7.13 27.44,-18.71 72.67,-107.06 91.03,-139.67 43.35,-76.95 93.32,-147.76 112.36,-233.75 17.02,-76.91 -7.36,-185.48 -34.13,-257.97 -12.63,-34.18 -7.11,-71.01 -7.11,-108.32 0,-47.81 4.26,-94.24 4.26,-142.52 0,-20.71 2.12,-44.25 -1.42,-64.14 -3.3,-18.48 -10.92,-44.25 -12.8,-61.29 -0.39,-3.51 -3.17,-5.42 -5.69,-7.12 -13.4,-9.03 -20.08,-12.4 -33.48,-21.45"/>
   <path class="fil2 str2" d="M5960.42 4432.77c7.57,-5.86 21.28,-12.61 23.73,-21.36 13.06,-46.62 83.92,-49.07 83.92,-122.57 0,-50.8 -4.05,-109.74 19.91,-155.35 20.09,-38.27 39.31,-66.98 75.38,-85.52 29.37,-15.1 38.02,-7.48 52.63,-45.61 17.28,-45.13 17.49,-64.55 52.63,-99.77 31.42,-31.48 58.09,-82.98 82.49,-119.72 10.88,-16.4 36.42,-20.14 45.51,-38.48 2.42,-4.88 5.69,-12.74 5.69,-18.53 0,-6.01 2.24,-12.77 -1.42,-17.1 -10.64,-12.62 -29.9,-27.3 -21.33,-47.04 5.96,-13.75 12.2,-27.8 18.49,-41.33 6.28,-13.49 12.89,-29.66 15.64,-44.18 4.19,-22.07 8.38,-44.16 12.58,-66.24"/>
   <path class="fil2 str2" d="M6066.52 4305.92c4.63,-1.64 6.22,-4.33 10.79,-5.68 18.22,-5.39 37.63,1.49 51.92,-12.11 21.71,-20.68 31.73,-39.87 44.8,-69.13 3.24,-7.24 14.37,-19.06 19.2,-25.65 4.61,-6.27 10.99,-11.62 14.94,-17.82 7.08,-11.14 21.66,-29.92 29.87,-41.33 11.8,-16.37 23.48,-33.15 33.42,-50.6 2.89,-5.06 21.2,-33.68 22.76,-38.48 18.93,-58.3 150.57,-38.32 184.9,-65.56 39.16,-31.09 75.94,-65.07 106.67,-105.47 14,-18.4 64.42,-95.97 76.81,-106.9 10.06,-8.86 104.57,-154.41 113.78,-156.77 67.43,-17.25 60.64,-129.02 119.48,-172.46 14.17,-10.47 28.36,-20.94 42.55,-31.42"/>
   <path class="fil2 str2" d="M6003.18 4938.79c2.67,-2.07 16.16,-10.81 17.95,-14.29 5.87,-11.35 25.26,-37.71 36.98,-42.75 31.54,-13.59 186.48,-234.46 210.51,-276.5 34.97,-61.19 65.55,-109.86 82.49,-178.16 13.96,-56.25 30.58,-122.26 78.23,-163.91 22.94,-20.04 47.62,-45.47 72.54,-65.56 16.74,-13.51 44.13,-40.51 61.15,-51.31 19.35,-12.29 62.31,-39.46 81.08,-54.16 45.46,-35.58 94.55,-68.67 152.18,-79.81 54.42,-10.51 119.48,-21 166.41,-57.01 22.27,-17.1 44.56,-34.2 66.85,-51.31"/>
   <path class="fil2 str2" d="M5884.59 5220.96c18.65,-18.7 89.3,-24.99 118.05,-38.48 29.45,-13.83 87.65,-42.56 110.94,-59.87 37.48,-27.85 119.07,-51.72 155.04,-84.09 15.95,-14.34 71.45,-41.79 96.71,-51.31 37.64,-14.18 124.77,-77.61 149.35,-111.17 29.83,-40.75 72.12,-156.31 89.6,-202.38 9,-23.75 18.02,-47.51 27.03,-71.26 7.71,-20.35 12.57,-40.81 24.18,-42.76 62.02,-10.4 50.42,-7.71 62.58,-64.14 0.96,-4.46 4.88,-0.43 7.11,-4.28 7.04,-12.2 105.68,-82.95 123.74,-99.76 30.06,-28 53.19,-53.97 89.61,-74.12 56.25,-31.11 105.98,-58.39 146.49,-112.59 22.73,-30.4 75.24,-112.21 119.48,-109.75 8.53,0.47 17.06,0.96 25.6,1.43"/>
   <path class="fil2 str2" d="M5947.99 5902.65c23.04,-34.61 45.83,-79.57 58.92,-114.44 11.51,-30.69 29.33,-80.06 44.09,-109.75 11.99,-24.14 61.41,-96.22 73.96,-116.87 16.5,-27.17 52.53,-77.22 69.7,-106.89 12.55,-21.67 22.1,-45.04 32.71,-66.99 13.58,-28.12 9,-59.85 19.91,-88.36 69.36,-181.25 141.58,-271.35 320.02,-354.89 66.33,-31.05 177.21,-123.54 233.26,-173.88 32.55,-29.22 53.81,-78.33 71.12,-119.73 14.14,-33.79 78.95,-56.27 85.34,-72.68 0.98,-2.54 5.23,-3.93 7.11,-5.71 2.04,-1.95 1.7,-3.1 4.26,-4.27 48.36,-22.05 100.14,-35.63 153.61,-35.63 33.88,0 127.34,-15.31 157.88,-29.93 40.22,-19.26 71.34,-81.18 95.3,-111.17 66.4,-83.12 107.14,-150.02 210.5,-189.56 76.67,-29.32 166.12,-14.3 246.06,-38.48 40.17,-12.14 80.35,-24.3 120.53,-36.45"/>
   <path class="fil2 str2" d="M7304.72 4484.9c12,-7.64 32.91,-8.46 43.43,2.05 0.94,0.94 1.9,1.91 2.85,2.85 41.24,41.24 95.99,11.36 156.45,-7.13 101.37,-31 179.62,-112.37 281.62,-142.52 44.58,-13.18 85.23,-30.4 130.85,-39.91 43.65,-9.11 82.47,-21.18 123.74,-42.76 26.01,-13.59 52.03,-27.2 78.05,-40.81"/>
   <path class="fil2 str2" d="M6968.39 4568.19c11.06,-20.07 11.42,-40.27 14.23,-62.71 0.71,-5.66 4.73,-20.72 5.69,-27.08 1.76,-11.66 5.69,-24.44 5.69,-37.06 0,-6.59 0.34,-13.41 0,-19.95 -0.43,-8.44 -1.9,-16.37 -4.27,-24.23 -1.99,-6.64 -5.83,-13.43 -8.53,-19.96 -9.38,-22.63 -18.78,-45.26 -28.17,-67.9"/>
   <path class="fil2 str2" d="M6124.96 5561.59c4.69,-4.62 7.44,-9.65 11.2,-11.81 47.17,-27.09 86.2,-89.1 135.3,-115.03 61.67,-32.57 235.57,-108.87 244.64,-188.14 7.39,-64.53 0.61,-92.04 38.4,-142.52 15.88,-21.2 37.11,-44.45 42.67,-71.27 4.59,-22.11 25.72,-36.55 34.14,-59.86 10.83,-30.01 21.68,-60.02 32.52,-90.04"/>
  </g>
  <path class="fil3 str3" d="M1595.62 26314.7l1814.06 0 0 1592.86 -1814.06 0 0 -1592.86z"/>
  <path class="fil4" d="M1213.27 27808.27c0,-17.45 4.47,-34.48 13.46,-51.13 8.93,-16.61 21.77,-29.59 38.43,-38.86 16.69,-9.26 34.1,-13.92 52.16,-13.92 17.92,0 35.18,4.56 51.69,13.74 16.56,9.12 29.4,21.92 38.53,38.43 9.17,16.51 13.73,33.77 13.73,51.74 0,18.01 -4.56,35.27 -13.73,51.78 -9.13,16.51 -21.97,29.35 -38.53,38.53 -16.51,9.17 -33.77,13.78 -51.69,13.78 -18.06,0 -35.47,-4.66 -52.16,-13.97 -16.66,-9.36 -29.5,-22.34 -38.43,-38.95 -8.99,-16.65 -13.46,-33.68 -13.46,-51.17zm17.22 0c0,14.62 3.76,28.88 11.24,42.7 7.48,13.83 18.2,24.65 32.13,32.46 13.92,7.81 28.41,11.71 43.46,11.71 15,0 29.35,-3.85 43.08,-11.52 13.74,-7.67 24.46,-18.39 32.13,-32.17 7.67,-13.79 11.52,-28.18 11.52,-43.18 0,-14.96 -3.85,-29.36 -11.52,-43.14 -7.67,-13.78 -18.39,-24.5 -32.13,-32.12 -13.73,-7.62 -28.08,-11.43 -43.08,-11.43 -15.05,0 -29.54,3.9 -43.46,11.66 -13.93,7.76 -24.65,18.58 -32.13,32.46 -7.48,13.87 -11.24,28.08 -11.24,42.57zm103.57 -33.35l5.08 -16.94c11.53,2.78 20.7,8.61 27.52,17.55 6.87,8.98 10.3,19.85 10.3,32.59 0,16.19 -5.22,29.31 -15.71,39.42 -10.49,10.11 -24.98,15.15 -43.55,15.15 -12.14,0 -22.68,-2.31 -31.61,-6.92 -8.99,-4.56 -15.71,-11.15 -20.28,-19.61 -4.56,-8.52 -6.82,-18.25 -6.82,-29.16 0,-12.23 2.92,-22.39 8.8,-30.48 5.88,-8.09 13.88,-13.6 23.94,-16.56l4.23 16.37c-6.91,2.77 -12.23,6.82 -15.89,12.23 -3.72,5.41 -5.55,11.71 -5.55,19 0,10.58 3.76,19.33 11.28,26.2 7.53,6.87 18.35,10.3 32.37,10.3 14.06,0 24.69,-3.24 31.89,-9.74 7.19,-6.49 10.81,-14.86 10.81,-25.16 0,-8.28 -2.39,-15.57 -7.24,-21.83 -4.8,-6.25 -11.33,-10.39 -19.57,-12.41z"/>
  <path id="1" class="fil4" d="M1418.73 27513.11l-18.58 0c14.44,9.27 21.68,22.91 21.68,40.92 0,11.67 -3.19,22.39 -9.64,32.13 -6.4,9.78 -15.38,17.35 -26.86,22.76 -11.52,5.37 -24.74,8.05 -39.69,8.05 -14.59,0 -27.8,-2.45 -39.7,-7.29 -11.86,-4.9 -20.98,-12.19 -27.29,-21.92 -6.35,-9.69 -9.5,-20.61 -9.5,-32.6 0,-8.84 1.88,-16.7 5.6,-23.56 3.72,-6.87 8.61,-12.47 14.58,-16.8l-72.67 0 0 -24.83 202.07 0 0 23.14zm-73.05 78.46c18.72,0 32.69,-3.95 41.96,-11.9 9.26,-7.91 13.87,-17.27 13.87,-28.04 0,-10.86 -4.42,-20.08 -13.26,-27.7 -8.84,-7.57 -22.34,-11.38 -40.5,-11.38 -19.94,0 -34.62,3.85 -43.98,11.61 -9.36,7.72 -14.01,17.27 -14.01,28.6 0,11.06 4.46,20.27 13.45,27.71 8.98,7.38 23.14,11.1 42.47,11.1z"/>
  <path id="2" class="fil4" d="M1358.05 27460.57l-24.83 0 0 -76.76 24.83 0 0 76.76z"/>
  <path id="3" class="fil4" d="M1418.73 27356.71l-146.47 0 0 -22.29 20.69 0c-7.15,-4.56 -12.93,-10.68 -17.26,-18.3 -4.37,-7.62 -6.54,-16.27 -6.54,-26.01 0,-10.82 2.26,-19.71 6.73,-26.62 4.52,-6.92 10.77,-11.81 18.86,-14.63 -17.07,-11.67 -25.59,-26.77 -25.59,-45.39 0,-14.58 4,-25.83 12.04,-33.63 8.05,-7.86 20.42,-11.81 37.12,-11.81l100.42 0 0 24.84 -92.19 0c-9.88,0 -17.03,0.84 -21.4,2.44 -4.38,1.6 -7.86,4.52 -10.54,8.8 -2.68,4.23 -4,9.22 -4,14.91 0,10.35 3.44,18.91 10.26,25.73 6.86,6.82 17.82,10.2 32.87,10.2l85 0 0 24.84 -95.06 0c-11.01,0 -19.29,2.02 -24.79,6.07 -5.5,4.04 -8.28,10.67 -8.28,19.85 0,6.96 1.84,13.4 5.51,19.33 3.66,5.93 9.03,10.21 16.13,12.89 7.05,2.63 17.26,3.95 30.57,3.95l75.92 0 0 24.83z"/>
  <path id="4" class="fil4" d="M1400.39 27025.95c7.85,9.22 13.35,18.11 16.6,26.62 3.25,8.52 4.84,17.64 4.84,27.43 0,16.08 -3.9,28.45 -11.75,37.11 -7.81,8.65 -17.83,12.98 -30.01,12.98 -7.15,0 -13.69,-1.65 -19.62,-4.89 -5.93,-3.29 -10.63,-7.57 -14.2,-12.84 -3.58,-5.32 -6.31,-11.24 -8.14,-17.88 -1.27,-4.89 -2.49,-12.27 -3.72,-22.1 -2.35,-20.04 -5.22,-34.86 -8.51,-44.31 -3.39,-0.1 -5.55,-0.14 -6.44,-0.14 -10.07,0 -17.17,2.35 -21.31,7.05 -5.6,6.35 -8.37,15.81 -8.37,28.32 0,11.71 2.07,20.36 6.16,25.92 4.09,5.59 11.38,9.68 21.78,12.37l-3.39 24.27c-10.4,-2.21 -18.82,-5.84 -25.21,-10.92 -6.4,-5.08 -11.29,-12.41 -14.77,-22.01 -3.44,-9.55 -5.18,-20.7 -5.18,-33.3 0,-12.51 1.46,-22.72 4.42,-30.57 2.97,-7.81 6.64,-13.6 11.11,-17.27 4.46,-3.67 10.11,-6.25 16.93,-7.76 4.23,-0.8 11.85,-1.22 22.81,-1.22l32.93 0c23,0 37.53,-0.52 43.69,-1.55 6.17,-0.99 12.05,-3.06 17.69,-6.07l0 25.96c-5.22,2.5 -11.34,4.1 -18.34,4.8zm-55.04 1.98c3.67,9.03 6.78,22.57 9.32,40.64 1.45,10.25 3.1,17.49 4.93,21.73 1.84,4.23 4.52,7.48 8,9.78 3.53,2.31 7.43,3.48 11.76,3.48 6.54,0 12.04,-2.49 16.42,-7.52 4.37,-5.04 6.58,-12.38 6.58,-22.02 0,-9.55 -2.07,-18.06 -6.25,-25.54 -4.14,-7.43 -9.84,-12.93 -17.03,-16.41 -5.6,-2.69 -13.83,-4 -24.7,-4l-9.03 -0.14z"/>
  <path id="5" class="fil4" d="M1474.89 26964.66l-202.63 0 0 -22.57 19.24 0c-7.44,-5.32 -13.03,-11.34 -16.75,-18.07 -3.72,-6.68 -5.6,-14.81 -5.6,-24.36 0,-12.51 3.2,-23.52 9.65,-33.07 6.39,-9.55 15.47,-16.74 27.14,-21.63 11.71,-4.85 24.5,-7.3 38.47,-7.3 14.91,0 28.37,2.69 40.36,8.05 11.95,5.36 21.12,13.17 27.52,23.42 6.35,10.21 9.54,20.98 9.54,32.27 0,8.28 -1.74,15.71 -5.22,22.25 -3.48,6.58 -7.85,11.94 -13.17,16.18l71.45 0 0 24.83zm-128.5 -22.57c18.77,0 32.69,-3.81 41.67,-11.39 8.99,-7.62 13.45,-16.84 13.45,-27.65 0,-11.01 -4.65,-20.42 -13.97,-28.23 -9.31,-7.85 -23.7,-11.76 -43.22,-11.76 -18.63,0 -32.55,3.81 -41.82,11.48 -9.26,7.67 -13.87,16.79 -13.87,27.42 0,10.54 4.94,19.85 14.77,27.94 9.87,8.14 24.17,12.19 42.99,12.19z"/>
  <path id="6" class="fil4" d="M1374.99 26817.58l-3.96 -24.55c9.84,-1.37 17.36,-5.22 22.63,-11.53 5.22,-6.3 7.85,-15.14 7.85,-26.43 0,-11.43 -2.3,-19.9 -6.96,-25.45 -4.61,-5.5 -10.06,-8.28 -16.32,-8.28 -5.6,0 -10.02,2.5 -13.22,7.44 -2.21,3.48 -4.98,11.94 -8.42,25.4 -4.56,18.15 -8.51,30.71 -11.85,37.77 -3.39,7 -7.99,12.32 -13.92,15.94 -5.88,3.62 -12.42,5.46 -19.57,5.46 -6.54,0 -12.56,-1.51 -18.11,-4.47 -5.55,-3.01 -10.16,-7.06 -13.83,-12.18 -2.82,-3.86 -5.22,-9.13 -7.19,-15.76 -1.98,-6.68 -2.97,-13.78 -2.97,-21.4 0,-11.48 1.65,-21.54 4.99,-30.2 3.29,-8.7 7.81,-15.1 13.45,-19.24 5.69,-4.09 13.27,-6.96 22.77,-8.51l3.38 24.27c-7.62,1.08 -13.59,4.28 -17.87,9.55 -4.28,5.27 -6.4,12.7 -6.4,22.34 0,11.34 1.88,19.47 5.65,24.32 3.76,4.84 8.18,7.29 13.21,7.29 3.2,0 6.12,-0.99 8.71,-3.01 2.63,-2.02 4.84,-5.18 6.58,-9.5 0.94,-2.5 3.06,-9.74 6.35,-21.87 4.66,-17.5 8.52,-29.73 11.48,-36.69 2.96,-6.96 7.34,-12.42 12.98,-16.37 5.69,-4 12.75,-5.98 21.21,-5.98 8.24,0 16,2.4 23.29,7.25 7.29,4.84 12.93,11.8 16.93,20.88 4,9.13 5.97,19.43 5.97,30.91 0,19 -3.95,33.53 -11.8,43.5 -7.9,9.98 -19.57,16.33 -35.04,19.1z"/>
  <path id="7" class="fil4" d="M1418.73 26659.54l-28.22 0 0 -28.22 28.22 0 0 28.22z"/>
  <path id="8" class="fil4" d="M1365.11 26492.51l3.38 -24.27c16.7,2.68 29.73,9.45 39.19,20.41 9.45,10.96 14.15,24.46 14.15,40.41 0,19.99 -6.53,36.08 -19.61,48.21 -13.08,12.18 -31.8,18.25 -56.16,18.25 -15.81,0 -29.59,-2.63 -41.39,-7.85 -11.86,-5.22 -20.75,-13.17 -26.63,-23.9 -5.92,-10.68 -8.89,-22.29 -8.89,-34.9 0,-15.85 4,-28.88 12.04,-38.95 8.05,-10.11 19.48,-16.6 34.25,-19.42l3.67 23.99c-9.83,2.3 -17.22,6.35 -22.2,12.23 -4.94,5.83 -7.44,12.88 -7.44,21.16 0,12.51 4.47,22.67 13.41,30.53 8.98,7.81 23.09,11.71 42.47,11.71 19.66,0 33.92,-3.76 42.81,-11.29 8.89,-7.57 13.35,-17.4 13.35,-29.49 0,-9.78 -2.96,-17.92 -8.93,-24.41 -5.93,-6.54 -15.1,-10.68 -27.47,-12.42z"/>
  <path id="9" class="fil4" d="M1345.49 26456.39c-27.04,0 -47.08,-7.53 -60.11,-22.63 -10.82,-12.56 -16.23,-27.94 -16.23,-46.05 0,-20.08 6.59,-36.54 19.76,-49.34 13.12,-12.75 31.33,-19.14 54.51,-19.14 18.82,0 33.59,2.82 44.36,8.46 10.77,5.65 19.14,13.88 25.12,24.7 5.97,10.77 8.93,22.58 8.93,35.32 0,20.51 -6.53,37.07 -19.66,49.72 -13.12,12.65 -32.03,18.96 -56.68,18.96zm0.05 -25.4c18.72,0 32.74,-4.1 42,-12.28 9.32,-8.23 13.97,-18.53 13.97,-31 0,-12.32 -4.65,-22.57 -14.01,-30.81 -9.36,-8.18 -23.61,-12.27 -42.76,-12.27 -18.06,0 -31.75,4.14 -41.01,12.37 -9.32,8.23 -13.97,18.48 -13.97,30.71 0,12.47 4.61,22.77 13.87,31 9.27,8.18 23.24,12.28 41.91,12.28z"/>
  <path id="10" class="fil4" d="M1418.73 26290.11l-146.47 0 0 -22.29 20.69 0c-7.15,-4.56 -12.93,-10.68 -17.26,-18.3 -4.37,-7.62 -6.54,-16.27 -6.54,-26.01 0,-10.82 2.26,-19.71 6.73,-26.62 4.52,-6.92 10.77,-11.81 18.86,-14.63 -17.07,-11.67 -25.59,-26.77 -25.59,-45.39 0,-14.58 4,-25.83 12.04,-33.63 8.05,-7.86 20.42,-11.81 37.12,-11.81l100.42 0 0 24.84 -92.19 0c-9.88,0 -17.03,0.84 -21.4,2.44 -4.38,1.6 -7.86,4.52 -10.54,8.8 -2.68,4.23 -4,9.22 -4,14.91 0,10.35 3.44,18.91 10.26,25.73 6.86,6.82 17.82,10.2 32.87,10.2l85 0 0 24.84 -95.06 0c-11.01,0 -19.29,2.02 -24.79,6.07 -5.5,4.04 -8.28,10.67 -8.28,19.85 0,6.96 1.84,13.4 5.51,19.33 3.66,5.93 9.03,10.21 16.13,12.89 7.05,2.63 17.26,3.95 30.57,3.95l75.92 0 0 24.83z"/>
  <g id="_2414781168432">
   <g>
    <path class="fil5 str4" d="M1739.77 26919.5l301.94 0 0 99.16 -301.94 0 0 -99.16z"/>
    <path class="fil6 str4" d="M2041.71 26919.5l301.95 0 0 99.16 -301.95 0 0 -99.16z"/>
    <path class="fil5 str4" d="M2343.65 26919.5l301.95 0 0 99.16 -301.95 0 0 -99.16z"/>
    <path class="fil6 str4" d="M2645.67 26919.5l301.94 0 0 99.16 -301.94 0 0 -99.16z"/>
    <path class="fil5 str4" d="M2947.62 26919.5l301.94 0 0 99.16 -301.94 0 0 -99.16z"/>
    <path class="fil6 str4" d="M2706.68 27218.44l482.92 0 0 99.16 -482.92 0 0 -99.16z"/>
    <path class="fil5 str4" d="M2223.75 27218.44l482.93 0 0 99.16 -482.93 0 0 -99.16z"/>
    <path class="fil6 str4" d="M1740.83 27218.44l482.92 0 0 99.16 -482.92 0 0 -99.16z"/>
   </g>
   <path class="fil7" d="M2005.4 26530.76l57.09 -27.52 5.71 0 0 197.2c0,13.12 0.53,21.35 1.64,24.58 1.12,3.18 3.36,5.71 6.82,7.41 3.47,1.71 10.53,2.7 21.17,2.94l0 6.35 -88.19 0 0 -6.35c11.05,-0.24 18.16,-1.18 21.34,-2.88 3.23,-1.65 5.47,-3.88 6.76,-6.7 1.24,-2.83 1.88,-11.29 1.88,-25.35l0 -126.29c0,-16.99 -0.59,-27.93 -1.7,-32.75 -0.83,-3.7 -2.3,-6.41 -4.41,-8.11 -2.18,-1.71 -4.71,-2.59 -7.71,-2.59 -4.29,0 -10.23,1.76 -17.81,5.35l-2.59 -5.29z"/>
   <path id="1" class="fil7" d="M2639.71 26496.54l0 157.16 39.98 -36.63c8.52,-7.82 13.46,-12.76 14.81,-14.82 0.95,-1.41 1.42,-2.76 1.42,-4.17 0,-2.29 -1,-4.23 -2.89,-5.94 -1.88,-1.65 -4.99,-2.59 -9.4,-2.82l0 -5.65 68.61 0 0 5.65c-9.35,0.23 -17.17,1.7 -23.4,4.35 -6.23,2.7 -13.05,7.47 -20.52,14.29l-40.63 37.22 40.34 51.33c11.29,14.05 18.81,23.04 22.58,26.98 5.58,5.24 10.4,8.65 14.58,10.17 2.94,1.12 7.99,1.71 15.17,1.71l0 6.35 -76.73 0 0 -6.35c4.41,-0.12 7.35,-0.76 8.88,-1.94 1.58,-1.24 2.35,-2.88 2.35,-5.06 0,-2.64 -2.3,-6.88 -6.88,-12.7l-48.27 -61.79 0 52.21c0,10.23 0.7,16.93 2.11,20.17 1.47,3.17 3.47,5.46 6.12,6.88 2.64,1.35 8.35,2.11 17.17,2.23l0 6.35 -80.08 0 0 -6.35c7.99,0 14.05,-1 18.05,-2.94 2.41,-1.23 4.23,-3.17 5.46,-5.76 1.71,-3.76 2.59,-10.29 2.59,-19.52l0 -143.94c0,-18.05 -0.41,-29.1 -1.18,-33.16 -0.82,-4.05 -2.11,-6.82 -3.99,-8.35 -1.83,-1.58 -4.24,-2.35 -7.18,-2.35 -2.41,0 -6.05,1 -10.82,2.94l-2.93 -6.35 46.74 -19.4 7.94 0z"/>
   <path id="2" class="fil7" d="M2816.45 26612.84c11.41,-11.53 18.17,-18.17 20.22,-19.93 5.12,-4.36 10.65,-7.77 16.59,-10.18 5.93,-2.41 11.81,-3.64 17.63,-3.64 9.88,0 18.29,2.88 25.4,8.64 7.06,5.76 11.82,14.11 14.17,25.11 11.88,-13.88 21.88,-22.93 30.05,-27.28 8.17,-4.3 16.58,-6.47 25.22,-6.47 8.35,0 15.82,2.17 22.35,6.47 6.46,4.29 11.64,11.34 15.4,21.16 2.53,6.65 3.82,17.11 3.82,31.4l0 67.97c0,9.82 0.71,16.58 2.18,20.23 1.12,2.46 3.23,4.64 6.23,6.4 3.06,1.77 8,2.65 14.88,2.65l0 6.35 -77.26 0 0 -6.35 3.29 0c6.7,0 11.99,-1.29 15.76,-3.94 2.64,-1.82 4.52,-4.76 5.64,-8.76 0.47,-1.94 0.71,-7.47 0.71,-16.58l0 -67.91c0,-12.88 -1.53,-21.93 -4.65,-27.22 -4.52,-7.35 -11.7,-11.06 -21.63,-11.06 -6.06,0 -12.23,1.53 -18.41,4.59 -6.11,3 -13.58,8.7 -22.34,16.93l-0.35 1.94 0.7 7.41 0 75.32c0,10.7 0.59,17.4 1.77,20.05 1.23,2.59 3.46,4.82 6.76,6.58 3.29,1.77 8.93,2.65 16.87,2.65l0 6.35 -79.37 0 0 -6.35c8.64,0 14.58,-1 17.81,-3.06 3.24,-2.06 5.47,-5.17 6.7,-9.29 0.59,-1.94 0.89,-7.58 0.89,-16.93l0 -67.91c0,-12.88 -1.88,-22.17 -5.65,-27.87 -5.05,-7.41 -12.05,-11.11 -21.11,-11.11 -6.17,0 -12.28,1.7 -18.34,5.05 -9.47,5.06 -16.82,10.82 -21.93,17.17l0 84.67c0,10.29 0.7,16.93 2.12,20.05 1.41,3.06 3.52,5.35 6.35,6.94 2.76,1.53 8.4,2.29 16.93,2.29l0 6.35 -77.97 0 0 -6.35c7.24,0 12.29,-0.76 15.17,-2.29 2.89,-1.59 5.06,-4 6.59,-7.41 1.47,-3.35 2.23,-9.88 2.23,-19.58l0 -60.33c0,-17.28 -0.53,-28.45 -1.53,-33.51 -0.82,-3.82 -2.05,-6.41 -3.82,-7.82 -1.7,-1.47 -4.05,-2.18 -6.99,-2.18 -3.24,0 -7.06,0.89 -11.53,2.59l-2.58 -6.35 47.62 -19.4 7.41 0 0 33.75z"/>
   <path id="3" class="fil7" d="M2153.57 26626.13c0,-26.64 4,-49.51 12.05,-68.74 8.06,-19.22 18.7,-33.57 32.05,-42.98 10.29,-7.47 20.99,-11.17 31.98,-11.17 17.94,0 33.99,9.11 48.22,27.34 17.81,22.64 26.69,53.27 26.69,91.96 0,27.05 -3.88,50.09 -11.7,69.03 -7.82,18.93 -17.76,32.63 -29.87,41.21 -12.11,8.53 -23.81,12.82 -35.04,12.82 -22.29,0 -40.81,-13.11 -55.62,-39.39 -12.53,-22.17 -18.76,-48.86 -18.76,-80.08zm33.87 4.23c0,32.1 3.94,58.33 11.82,78.67 6.52,17.11 16.28,25.63 29.22,25.63 6.17,0 12.58,-2.76 19.22,-8.34 6.65,-5.59 11.65,-14.88 15.11,-27.99 5.24,-19.7 7.88,-47.57 7.88,-83.43 0,-26.64 -2.76,-48.86 -8.23,-66.62 -4.11,-13.23 -9.46,-22.58 -15.99,-28.05 -4.65,-3.82 -10.35,-5.7 -16.99,-5.7 -7.76,0 -14.7,3.53 -20.76,10.52 -8.23,9.53 -13.87,24.46 -16.81,44.92 -3,20.41 -4.47,40.52 -4.47,60.39z"/>
   <path id="4" class="fil7" d="M2329.96 26626.13c0,-26.64 4,-49.51 12.05,-68.74 8.06,-19.22 18.7,-33.57 32.05,-42.98 10.29,-7.47 20.99,-11.17 31.98,-11.17 17.94,0 33.99,9.11 48.22,27.34 17.81,22.64 26.69,53.27 26.69,91.96 0,27.05 -3.88,50.09 -11.7,69.03 -7.82,18.93 -17.76,32.63 -29.87,41.21 -12.11,8.53 -23.81,12.82 -35.04,12.82 -22.29,0 -40.81,-13.11 -55.62,-39.39 -12.53,-22.17 -18.76,-48.86 -18.76,-80.08zm33.87 4.23c0,32.1 3.94,58.33 11.82,78.67 6.52,17.11 16.28,25.63 29.22,25.63 6.17,0 12.58,-2.76 19.22,-8.34 6.65,-5.59 11.65,-14.88 15.11,-27.99 5.24,-19.7 7.88,-47.57 7.88,-83.43 0,-26.64 -2.76,-48.86 -8.23,-66.62 -4.11,-13.23 -9.46,-22.58 -15.99,-28.05 -4.65,-3.82 -10.35,-5.7 -16.99,-5.7 -7.76,0 -14.7,3.53 -20.76,10.52 -8.23,9.53 -13.87,24.46 -16.81,44.92 -3,20.41 -4.47,40.52 -4.47,60.39z"/>
   <path class="fil7" d="M2245.92 27473.03l0 6.7c-15.12,1.47 -27.46,4.47 -37.05,9 -9.58,4.53 -19.05,11.41 -28.34,20.7 -9.35,9.23 -17.11,19.58 -23.22,30.92 -6.12,11.41 -11.23,24.93 -15.35,40.57 16.47,-11.23 32.99,-16.87 49.63,-16.87 15.93,0 29.69,6.41 41.39,19.28 11.7,12.82 17.52,29.34 17.52,49.51 0,19.46 -5.88,37.28 -17.7,53.33 -14.23,19.46 -33.04,29.22 -56.44,29.22 -15.93,0 -29.52,-5.29 -40.63,-15.82 -21.81,-20.57 -32.69,-47.21 -32.69,-79.9 0,-20.87 4.17,-40.75 12.58,-59.56 8.35,-18.82 20.35,-35.51 35.87,-50.1 15.58,-14.52 30.45,-24.34 44.68,-29.39 14.23,-5.06 27.46,-7.59 39.75,-7.59l10 0zm-106.9 120.48c-2.11,15.52 -3.17,28.04 -3.17,37.57 0,11.05 2.06,22.99 6.11,35.92 4.06,12.94 10.12,23.17 18.11,30.75 5.82,5.41 12.94,8.12 21.29,8.12 9.93,0 18.87,-4.71 26.69,-14.12 7.82,-9.46 11.76,-22.87 11.76,-40.33 0,-19.64 -3.88,-36.63 -11.64,-51.04 -7.82,-14.34 -18.82,-21.52 -33.1,-21.52 -4.36,0 -9.06,0.95 -14,2.77 -5,1.82 -12.35,5.82 -22.05,11.88z"/>
   <path id="1" class="fil7" d="M2276.96 27595.92c0,-26.64 4,-49.51 12.05,-68.74 8.06,-19.22 18.7,-33.57 32.05,-42.98 10.29,-7.47 20.99,-11.17 31.98,-11.17 17.94,0 33.99,9.11 48.22,27.34 17.81,22.64 26.69,53.27 26.69,91.96 0,27.05 -3.88,50.09 -11.7,69.03 -7.82,18.93 -17.76,32.63 -29.87,41.21 -12.11,8.53 -23.81,12.82 -35.04,12.82 -22.29,0 -40.81,-13.11 -55.62,-39.39 -12.53,-22.17 -18.76,-48.86 -18.76,-80.08zm33.87 4.23c0,32.1 3.94,58.33 11.82,78.67 6.52,17.11 16.28,25.63 29.22,25.63 6.17,0 12.58,-2.76 19.22,-8.34 6.65,-5.59 11.65,-14.88 15.11,-27.99 5.24,-19.7 7.88,-47.57 7.88,-83.43 0,-26.64 -2.76,-48.86 -8.23,-66.62 -4.11,-13.23 -9.46,-22.58 -15.99,-28.05 -4.65,-3.82 -10.35,-5.7 -16.99,-5.7 -7.76,0 -14.7,3.53 -20.76,10.52 -8.23,9.53 -13.87,24.46 -16.81,44.92 -3,20.41 -4.47,40.52 -4.47,60.39z"/>
   <path id="2" class="fil7" d="M2587.06 27582.63c11.41,-11.53 18.17,-18.17 20.22,-19.93 5.12,-4.36 10.65,-7.77 16.59,-10.18 5.93,-2.41 11.81,-3.64 17.63,-3.64 9.88,0 18.29,2.88 25.4,8.64 7.06,5.76 11.82,14.11 14.17,25.11 11.88,-13.88 21.88,-22.93 30.05,-27.28 8.17,-4.3 16.58,-6.47 25.22,-6.47 8.35,0 15.82,2.17 22.35,6.47 6.46,4.29 11.64,11.34 15.4,21.16 2.53,6.65 3.82,17.11 3.82,31.4l0 67.97c0,9.82 0.71,16.58 2.18,20.23 1.12,2.46 3.23,4.64 6.23,6.4 3.06,1.77 8,2.65 14.88,2.65l0 6.35 -77.26 0 0 -6.35 3.29 0c6.7,0 11.99,-1.29 15.76,-3.94 2.64,-1.82 4.52,-4.76 5.64,-8.76 0.47,-1.94 0.71,-7.47 0.71,-16.58l0 -67.91c0,-12.88 -1.53,-21.93 -4.65,-27.22 -4.52,-7.35 -11.7,-11.06 -21.63,-11.06 -6.06,0 -12.23,1.53 -18.41,4.59 -6.11,3 -13.58,8.7 -22.34,16.93l-0.35 1.94 0.7 7.41 0 75.32c0,10.7 0.59,17.4 1.77,20.05 1.23,2.59 3.46,4.82 6.76,6.58 3.29,1.77 8.93,2.65 16.87,2.65l0 6.35 -79.37 0 0 -6.35c8.64,0 14.58,-1 17.81,-3.06 3.24,-2.06 5.47,-5.17 6.7,-9.29 0.59,-1.94 0.89,-7.58 0.89,-16.93l0 -67.91c0,-12.88 -1.88,-22.17 -5.65,-27.87 -5.05,-7.41 -12.05,-11.11 -21.11,-11.11 -6.17,0 -12.28,1.7 -18.34,5.05 -9.47,5.06 -16.82,10.82 -21.93,17.17l0 84.67c0,10.29 0.7,16.93 2.12,20.05 1.41,3.06 3.52,5.35 6.35,6.94 2.76,1.53 8.4,2.29 16.93,2.29l0 6.35 -77.97 0 0 -6.35c7.24,0 12.29,-0.76 15.17,-2.29 2.89,-1.59 5.06,-4 6.59,-7.41 1.47,-3.35 2.23,-9.88 2.23,-19.58l0 -60.33c0,-17.28 -0.53,-28.45 -1.53,-33.51 -0.82,-3.82 -2.05,-6.41 -3.82,-7.82 -1.7,-1.47 -4.05,-2.18 -6.99,-2.18 -3.24,0 -7.06,0.89 -11.53,2.59l-2.58 -6.35 47.62 -19.4 7.41 0 0 33.75z"/>
   <path id="3" class="fil7" d="M2854.7 27466.33c4.76,0 8.88,1.7 12.29,5.05 3.35,3.41 5.05,7.53 5.05,12.29 0,4.82 -1.7,9 -5.05,12.41 -3.41,3.47 -7.53,5.17 -12.29,5.17 -4.82,0 -9,-1.7 -12.41,-5.17 -3.47,-3.41 -5.17,-7.59 -5.17,-12.41 0,-4.76 1.7,-8.88 5.05,-12.29 3.41,-3.35 7.59,-5.05 12.53,-5.05zm14.17 82.55l0 127c0,9.82 0.7,16.34 2.17,19.58 1.41,3.29 3.53,5.7 6.35,7.29 2.82,1.59 8,2.41 15.47,2.41l0 6.35 -76.56 0 0 -6.35c7.65,0 12.82,-0.76 15.41,-2.23 2.64,-1.47 4.7,-3.94 6.29,-7.35 1.53,-3.41 2.29,-10 2.29,-19.7l0 -61.03c0,-16.99 -0.53,-27.99 -1.53,-33.05 -0.82,-3.64 -2.05,-6.17 -3.82,-7.58 -1.7,-1.47 -4.06,-2.18 -7,-2.18 -3.23,0 -7.11,0.89 -11.7,2.59l-2.41 -6.35 47.45 -19.4 7.59 0z"/>
  </g>
  <rect class="fil2 str5" x="1000" y="999.99" width="13067.96" height="27138.25"/>
  <g id="_2414781160848">
   <path class="fil3 str3" d="M3545.79 26311.49l815.93 0 0 1592.89 -815.93 0 0 -1592.89z"/>
   <path class="fil8" d="M3893.89 26747.62c-0.92,3.32 -1.63,6.35 -2.07,9.15 -0.44,2.79 -0.65,5.18 -0.65,7.22 0,5.59 1.8,9.56 5.29,11.89 3.49,2.33 9.55,3.49 18.05,3.49l4.15 0 -4.96 22.72 -78.17 0 5.29 -22.72 2.89 0c7.36,0 12.82,-1.51 16.48,-4.54 3.6,-2.97 6.32,-8.39 8.12,-16.14l37.59 -153.79c0.6,-2.74 1.14,-5.54 1.52,-8.45 0.33,-2.91 0.55,-5.77 0.55,-8.62 0,-5.36 -1.96,-9.15 -5.95,-11.36 -3.92,-2.22 -10.69,-3.32 -20.23,-3.32l-3.06 0 5.29 -22.72 72.33 0 62.14 183.5 31.31 -129.03c1.08,-4.2 1.85,-7.63 2.34,-10.31 0.49,-2.68 0.71,-4.72 0.71,-6.06 0,-5.6 -1.8,-9.56 -5.35,-11.89 -3.6,-2.33 -9.71,-3.49 -18.32,-3.49l-4.15 0 4.96 -22.72 78.5 0 -5.62 22.72 -2.84 0c-7.37,0 -12.87,1.51 -16.47,4.54 -3.66,2.97 -6.33,8.33 -8.18,15.96l-50.68 208.44 -21.54 0 -72.06 -209.48 -37.21 155.01z"/>
   <path class="fil2 str6" d="M3954.58 27771.18l0 -769.27"/>
   <path class="fil2 str6" d="M3672.53 27495.13l563.14 0"/>
   <path class="fil2 str6" d="M3809.68 27635.12l294.22 -286.81"/>
   <path class="fil2 str6" d="M3806.54 27348.07l297.98 288.85"/>
   <path class="fil2 str6" d="M3954.44 27004.64l-95.47 118.01"/>
   <path class="fil2 str6" d="M3955.06 27004.6l87.89 118.05"/>
  </g>
 </g>
</svg>
