<?xml version="1.0" encoding="UTF-8"?>
<!DOCTYPE svg PUBLIC "-//W3C//DTD SVG 1.1//EN" "http://www.w3.org/Graphics/SVG/1.1/DTD/svg11.dtd">
<!-- Creator: CorelDRAW -->
<svg xmlns="http://www.w3.org/2000/svg" xml:space="preserve" width="297mm" height="210mm" version="1.1" style="shape-rendering:geometricPrecision; text-rendering:geometricPrecision; image-rendering:optimizeQuality; fill-rule:evenodd; clip-rule:evenodd"
viewBox="0 0 29700 21000"
 xmlns:xlink="http://www.w3.org/1999/xlink">
 <defs>
  <style type="text/css">
   <![CDATA[
    .str2 {stroke:black;stroke-width:10;stroke-opacity:0.501961}
    .str1 {stroke:black;stroke-width:50}
    .str5 {stroke:#434242;stroke-width:10}
    .str3 {stroke:black;stroke-width:10}
    .str0 {stroke:#000066;stroke-width:10}
    .str6 {stroke:#2B2A29;stroke-width:7.62}
    .str4 {stroke:black;stroke-width:7.62}
    .fil2 {fill:none}
    .fil0 {fill:#FEFEFE}
    .fil8 {fill:#D9DADA}
    .fil1 {fill:white}
    .fil6 {fill:#FEFEFE;fill-rule:nonzero}
    .fil5 {fill:#D9DADA;fill-rule:nonzero}
    .fil7 {fill:#434242;fill-rule:nonzero}
    .fil4 {fill:black;fill-rule:nonzero}
    .fil3 {fill:#FEFEFE;fill-rule:nonzero;fill-opacity:0.501961}
   ]]>
  </style>
 </defs>
 <g id="Plan_x0020_1">
  <metadata id="CorelCorpID_0Corel-Layer"/>
  <rect class="fil0" x="1000" y="1000" width="27700" height="11300"/>
  <path class="fil1 str0" d="M1000 12300l0 -2647c25,-19 62,-51 82,-75 15,-19 52,-32 77,-27 26,6 98,-12 124,-25 47,-25 80,-49 122,-81 22,-16 43,-26 65,-45 31,-27 66,-43 98,-73 65,-60 118,-98 200,-135 31,-15 61,-24 88,-42 22,-14 57,-26 81,-42 16,-11 36,-21 54,-34 51,-36 99,-64 139,-113 25,-30 53,-43 75,-77 23,-34 51,-52 77,-91 29,-44 60,-86 88,-131 2,-4 3,-5 4,-8 17,-40 33,-61 55,-96 13,-21 38,-56 45,-78 5,-18 16,-37 20,-57 7,-31 28,-60 48,-84 23,-29 44,-63 64,-94 36,-56 76,-105 103,-167 10,-22 21,-43 30,-66l2 -4c12,-23 12,-33 18,-56 10,-35 21,-65 35,-98 10,-23 22,-46 32,-69 32,-75 67,-129 112,-197 18,-27 32,-90 45,-125 12,-32 28,-69 36,-101 4,-16 8,-45 12,-62 8,-24 12,-31 18,-56 6,-26 28,-83 40,-108 15,-29 24,-51 42,-79 23,-36 29,-81 31,-124 1,-29 15,-51 43,-58 13,-3 53,-15 34,-32 -20,-20 -23,-25 -8,-55 21,-40 26,-72 41,-115 9,-26 25,-93 26,-118 0,0 34,-72 34,-72 3,-10 16,-31 21,-49 4,-14 14,-32 18,-50 11,-47 31,-101 43,-148 13,-48 28,-91 38,-141 10,-48 24,-88 29,-139 2,-24 9,-42 12,-63 21,-42 18,-48 67,-44 23,2 43,1 65,-3 36,-7 51,12 78,28 24,14 25,17 50,-6 9,-8 23,-45 35,-59 10,-13 4,-7 17,-19 20,-18 63,6 97,-5 25,-8 44,6 76,-4 55,-17 77,-48 123,-82 27,-20 54,-74 92,-59 33,13 91,10 129,12 41,2 11,41 3,62 -30,73 -40,116 -10,192 20,40 18,42 20,83 5,96 50,69 65,160 5,26 46,60 61,88 7,12 24,32 40,35 69,14 59,46 101,76 12,9 48,38 54,49 18,35 42,85 76,107 29,19 56,37 84,58 12,9 31,46 56,67 25,20 51,50 78,63 26,12 43,26 66,40 26,16 28,12 55,34 29,25 102,71 139,80 37,9 59,23 103,30 60,9 120,5 176,21 32,9 57,32 98,45l3 1c18,-1 22,-2 37,1 11,3 61,-4 73,-8 39,-13 43,-4 81,-30 23,-16 76,-18 103,-14 36,5 79,-40 119,-41 21,-1 79,-28 113,-29 28,-1 20,-2 48,5 38,9 61,-56 109,-42 22,6 22,57 88,75 22,6 58,1 78,-9 63,-29 61,-29 98,-84 12,-18 34,-43 58,-31 29,16 58,26 89,41 20,10 43,20 65,30 80,33 155,57 242,63 25,2 66,11 91,11 80,-2 118,-50 192,-69 51,-14 46,-9 89,-41 35,-26 96,-48 129,-75 88,-72 84,-115 121,-213 4,-12 18,-34 20,-6 2,37 8,67 7,106 -1,54 4,91 30,138 20,35 -2,42 21,84 35,63 -46,61 31,136 41,40 49,66 112,79 34,7 76,5 111,6 48,1 52,9 94,16 101,18 116,29 220,-3 33,-10 74,-40 97,-64 54,-57 97,7 149,25 33,12 62,16 92,33 16,9 62,33 79,31 15,-2 28,-7 43,-11 56,3 87,9 143,20 38,8 119,12 155,1 23,-7 46,-15 70,-22 21,-7 36,-21 58,-30 43,-17 42,-23 87,-18 44,5 94,-22 124,-54 71,-77 67,-33 118,-66 23,-15 66,-66 93,-89 41,-34 43,-50 98,-78 10,-5 18,-10 29,-15 53,-14 74,-12 128,-36 56,-25 87,-24 140,-68 34,-29 57,-70 68,-113 7,-28 60,-158 75,-182 44,-74 41,-84 112,-136 31,-23 57,-53 87,-75 37,-32 21,-29 62,-40 59,-16 50,-89 104,-66 48,21 78,7 111,-29 33,-36 49,-42 87,-14 46,32 76,-2 124,38 24,20 70,12 93,-6 19,-15 44,-22 67,-38 17,-12 40,-21 59,-35 51,-37 50,-30 77,-92 22,-51 16,-109 31,-143 16,-36 30,-4 53,2 35,10 83,13 120,14 45,1 23,37 49,77 27,43 15,33 60,63 6,4 8,5 15,8 34,7 58,14 93,16 32,2 34,5 69,-1 44,-7 90,-18 123,-50 13,-13 40,-34 52,-48 22,-26 51,-37 69,-75 19,-39 46,-77 60,-119 6,-17 22,-51 32,-66 32,-52 49,-88 92,-134 28,-20 22,-21 41,-41 46,-48 151,-20 167,-102 5,-27 30,-46 56,-53 25,-7 81,-25 100,-38 20,-13 32,-20 52,-36 21,-17 45,-23 72,-44 22,-17 55,-21 84,-41 20,-14 36,-20 58,-36 48,-35 63,-39 120,-34 31,2 72,-43 138,-44 70,-1 83,-33 122,-82 19,-23 19,-29 43,-51 12,-11 22,-21 35,-31 37,-4 90,-20 123,-39 20,-11 129,-47 153,-51 42,-6 43,-24 96,-13 84,17 130,-48 175,-48 51,0 109,16 159,26 50,10 103,-36 163,-30 41,5 141,-30 185,-28 40,6 83,0 124,-2 41,-1 86,-3 127,-7 79,-7 185,-1 261,-24 17,-5 28,-6 47,-12 74,-26 144,-38 220,-56 34,-8 135,-49 158,-31 36,28 17,50 88,60 64,8 88,1 150,-1l5 0c64,-4 80,-12 137,-42 30,-16 96,-67 123,-90 37,-31 75,-55 107,-93 16,-18 28,-32 43,-51 18,-22 62,-57 86,-73 23,-16 67,-1 100,-7 27,-5 52,-14 69,10 19,28 39,35 66,55 53,38 82,33 143,13 37,-12 29,-26 51,-53 25,-29 22,-39 60,-20 37,18 42,26 87,35 9,2 17,4 27,6 46,9 73,9 119,11 57,2 160,-22 208,-54 20,-13 41,-20 64,-36 23,-15 42,-27 65,-41 27,-17 60,-54 91,-75 62,-43 74,-41 148,-42 83,-1 166,11 248,19 16,1 34,1 50,0 68,12 136,8 205,10 53,1 104,6 158,5 41,0 86,12 128,-9 16,-8 69,-39 80,-9 14,39 85,30 118,29 43,-2 76,6 117,6 31,0 40,11 80,-2 68,-23 95,15 158,27 28,6 54,13 83,17 33,18 74,33 107,52 29,16 43,18 70,42 72,65 67,70 112,149 12,20 30,39 44,61l1 2c48,30 43,29 100,42 41,9 67,10 108,15 24,3 38,4 62,5 84,2 132,6 206,-39 18,-11 40,-17 63,-32 45,-29 56,-19 75,-79 9,-28 37,-66 70,-68 61,-4 111,-88 169,-77 75,15 49,23 133,5 37,-8 75,-22 113,-25 8,-1 13,-2 21,-3 59,-11 83,-13 140,-40 39,-18 91,-33 132,-50 25,-11 44,-16 70,-30 20,-10 39,-19 59,-30 34,-19 53,-7 63,-56 8,-39 -46,-50 0,-93 30,-28 49,-60 77,-90 35,-39 65,-14 110,-18 31,-3 127,-45 143,-8 16,37 29,54 59,82 35,32 32,56 82,88 53,34 51,31 112,47 21,5 36,6 57,6 32,-7 41,-7 70,-10 23,-3 87,-23 103,-13 9,6 11,27 29,46 48,48 69,74 146,71 47,-2 114,-55 156,-44 26,7 102,0 125,-16 15,-11 18,-9 35,-26 19,-20 30,-29 47,-52 31,-40 30,-44 22,-93 -8,-49 -13,-46 -34,-87 -10,-18 -9,-57 8,-33 46,63 120,21 178,27 48,5 4,72 119,49 47,-9 83,3 118,33l6 6c22,26 45,44 69,69 34,34 55,28 93,52 38,24 170,-32 142,38 -21,53 34,69 56,105 8,12 17,27 30,34 47,26 163,20 214,9 59,-14 92,-23 142,-60 25,-18 45,-30 71,-45 14,-8 33,-26 44,-38 32,-26 64,-58 109,-46 8,2 30,26 51,32 65,19 36,78 69,79 13,0 65,-56 92,-38 16,11 -8,34 72,31 36,-1 62,-26 105,-29 62,-4 80,-21 136,-40 41,-14 34,35 60,14 30,-25 63,-41 101,-49 19,-4 30,3 53,3 36,0 59,-2 87,-28 28,-25 66,-54 89,-81 13,-15 29,-27 46,-37 19,-15 78,-79 81,-103 6,-43 34,-23 69,-56 27,-26 35,-50 73,-40 32,9 90,-33 106,-60 13,-23 38,-73 71,-66 33,7 27,1 60,18 57,28 188,-92 254,-93 73,-2 76,-16 140,-41 50,-20 61,6 119,-43 25,-21 59,-44 92,-43 8,0 14,1 22,2 59,6 111,7 169,24 63,18 81,21 132,64 26,22 29,37 68,52 36,14 54,-3 95,-3 64,0 26,21 78,35 52,14 47,25 85,41 13,5 45,13 62,19 18,6 75,17 76,40 1,13 -35,3 -45,3 -28,0 -120,6 -121,48 0,4 6,20 8,24 27,14 33,12 53,21 11,5 -2,22 -6,33 -16,41 -4,72 9,111 12,33 11,35 30,65 78,123 -10,127 23,189 15,27 26,-35 83,-20 13,4 55,36 66,46 -5,50 1,67 -56,73 -52,5 -48,-20 -90,28 -25,29 -62,4 -100,30 -52,35 0,104 22,97 11,-4 43,-43 66,-56 33,-19 77,-44 116,-44 28,0 -27,55 25,94 17,13 15,14 37,27 45,27 60,30 114,26 76,-5 106,-18 159,-75 73,-77 20,-167 165,-183 25,-3 54,-13 78,-20 23,-12 34,-22 57,-34 36,-18 113,-78 143,-107 22,-20 81,-60 86,-87 8,-37 2,-49 45,-47 45,2 85,-51 126,-60 13,-3 7,46 7,55 1,69 65,108 67,163 3,58 7,83 49,125 50,49 -16,67 -48,87 -34,22 -59,37 -89,65 -25,23 -42,42 -58,73 -24,61 -68,111 -104,165 -13,19 -17,31 -33,51 -34,43 -55,96 -67,149 -10,45 -54,179 -115,170 -44,-7 -59,7 -95,31 -35,24 -40,36 -85,30 -55,-8 -88,4 -123,49l-6 8c-20,55 -63,107 -86,169 -35,97 -22,160 -17,260 4,91 15,92 64,159 15,21 17,60 18,85 29,43 51,86 78,127 21,32 32,43 51,79 22,43 32,51 63,85 29,32 30,47 71,74 13,9 84,67 92,68 30,3 26,-62 51,-64 10,-1 13,55 17,69 12,44 29,56 69,76 23,12 71,13 103,23 20,6 88,39 104,51 39,25 28,26 7,55 -22,30 -8,71 -4,106 3,28 11,39 35,51 33,16 -24,55 -19,107 6,64 -8,48 -26,109 -18,57 -6,95 38,135 22,20 31,40 59,63 18,14 30,32 39,53 -14,40 -4,30 -28,60 -17,22 -4,58 -52,73 -23,7 -40,32 -36,57 10,60 -19,125 -42,178 -9,20 -49,68 -72,73 -51,12 -68,20 -68,75 -2,75 -12,89 -28,156 -11,45 -1,45 -40,80 -34,31 -69,0 -84,49 -8,25 -46,62 -65,81 -48,49 -26,186 -136,153 -34,-11 -60,44 -70,69 -8,21 11,56 -27,86 -22,17 -108,15 -127,51 -47,17 -58,-1 -91,14 -54,25 -39,109 -140,132 -40,9 -21,35 -74,48 -60,14 -30,52 -106,77 -70,23 -130,70 -172,131 -46,67 -53,104 -65,185 -3,23 -7,55 -9,78 13,89 28,180 67,262 27,57 22,57 66,105 36,40 38,54 85,90 36,27 75,59 110,88 36,28 53,43 85,76 15,16 31,27 48,40 49,42 66,42 125,56 46,11 154,11 202,3 24,-4 26,-2 52,-11 46,-15 60,8 95,-3 15,-4 46,-22 56,-15 13,9 -1,42 0,62 0,32 3,64 -2,95l-1 5c-18,27 -15,22 -33,42 -19,21 -52,77 -25,101 21,18 23,30 35,41 15,14 16,1 37,26 16,19 51,25 72,11 37,-25 31,-21 63,-53 19,-19 60,-23 86,-31 29,-8 68,-17 83,-47 22,-43 -48,-102 -36,-125 3,-5 22,6 34,7 62,4 115,-32 159,36 16,26 50,105 48,134l-1 10c-5,50 -17,40 -24,74 -13,64 45,57 25,105 -5,11 -31,86 0,79 19,-5 36,-18 53,3 8,10 75,37 9,50 -26,5 -56,10 -67,39 -5,13 32,32 42,37 40,21 -5,57 47,109 34,34 147,32 191,26 151,-17 192,-32 336,38 31,15 70,42 93,68l4 4c57,72 137,83 224,90 40,3 140,16 170,39 31,23 58,49 83,78 55,63 151,101 220,147 19,13 40,23 60,36l39 22 0 1552 -27700 0zm27391 -8139c-12,-16 -40,-48 -42,-68 -4,-39 26,-60 63,-39 44,26 102,6 90,67 -6,29 6,82 -6,99 -6,9 -35,5 -47,-2 -9,-6 -27,-19 -34,-23l-24 -33zm-1341 3642c-3,-1 -40,-16 -38,-28 1,-6 46,-16 54,-14 30,7 203,-56 105,41 -15,15 -33,25 -55,28 -11,1 -36,-3 -46,-7l-20 -20zm267 -103c-24,27 -42,40 -74,55 -19,9 2,-22 7,-27 27,-28 25,-70 60,-71 7,0 9,2 21,1 13,-1 61,-2 43,22 -2,2 -17,8 -20,7l-36 13zm119 -164c-2,43 14,61 15,99 1,19 -24,14 -34,8 -44,-23 -9,-42 -25,-73 -11,-20 -40,-91 8,-86 15,2 23,17 32,27l4 25zm-341 1631c13,27 25,45 0,71 -19,19 -39,20 -50,48 -17,41 -46,48 -70,80 -16,22 -40,47 -66,58 -28,11 -53,-54 -76,-73 -54,-46 -49,36 -128,5 -28,-11 -16,-67 -16,-94 0,-35 -9,-155 34,-163 53,-10 51,55 137,7 15,-8 50,-22 64,-7 43,46 72,10 112,26 12,5 25,9 36,16l24 26zm-26096 -8167l0 2703c54,-38 43,-60 80,-90 53,-43 25,-55 45,-77 18,-19 58,-10 82,-17 18,-5 24,-18 44,-29 33,-18 64,-32 102,-34 44,-2 81,-56 117,-69 51,-18 47,-10 98,-1 46,8 37,1 76,0 12,0 30,8 47,10 72,8 78,-31 109,-35 16,-2 27,22 53,26 39,-14 38,0 68,0 30,0 65,9 85,-24 20,-32 25,-44 53,-71 14,-13 3,9 28,2 21,-6 40,-3 56,13 6,6 0,73 3,91 8,46 -2,66 50,88 10,4 68,42 80,50 30,20 70,37 103,58 31,20 66,36 97,55 24,16 49,28 74,44 48,37 91,79 138,117 23,19 42,39 67,59 31,24 65,86 90,120 23,32 22,98 47,109 12,5 47,-41 69,-4 13,23 -5,47 -29,54 -45,14 -76,36 -110,67l-5 5c7,23 24,59 36,82 18,33 8,97 45,122 23,16 47,-15 92,13 17,10 38,13 58,22 27,13 121,10 105,53 -4,11 -52,9 -55,40 -2,17 22,6 36,25 15,19 26,16 13,40 -13,26 10,23 17,40 39,96 -28,79 -21,135 10,79 22,53 54,114 6,11 11,23 14,34 49,63 32,27 80,67 9,7 32,31 36,42 10,33 30,56 51,81 48,55 64,79 134,23 13,-11 36,-22 47,-3 37,66 28,76 93,127 27,22 26,29 46,53 36,45 75,48 129,46 71,-4 95,29 134,81 5,7 8,9 14,15 24,-17 52,-18 82,-42 20,-15 85,-39 112,-53 18,-9 38,-30 28,-52 -13,-27 -21,-99 2,-118 14,-11 22,24 45,-23 14,-29 13,-22 36,-10 11,6 27,29 33,40 8,16 45,3 39,-38 -4,-25 0,-55 18,-74 32,-33 35,-77 62,-113 23,-31 28,-50 45,-82l3 -6c20,-44 47,-110 95,-129 32,-13 61,-27 95,-37 48,-14 62,-28 120,-37 71,-12 97,-81 212,-79 36,1 41,-5 81,6 32,9 84,22 116,17 9,-1 22,-5 30,-5 36,-22 48,-33 78,-58 42,-34 32,-75 107,-101 50,-17 70,-28 104,-72 16,-22 31,-59 48,-85 20,-31 26,-51 55,-78 31,-29 30,-10 65,-16 25,-5 51,-2 78,-10 15,-4 33,-5 45,7 16,16 60,6 83,5 52,-1 89,-31 147,-30 25,0 56,-2 82,-2 73,-1 49,6 110,26 21,7 38,3 59,3 49,-24 100,-37 154,-31 55,6 49,49 137,20 36,-12 62,6 102,-5 102,-27 78,22 115,33 24,7 31,-17 79,1 30,11 37,14 66,29 58,30 96,-27 145,-41 50,-15 63,-22 117,-21 48,0 67,-12 110,-21 37,1 32,4 59,7 19,2 42,0 62,2 46,5 122,8 166,-1 31,-7 103,-27 121,11 14,30 15,45 58,43 49,-2 26,7 65,24 30,13 39,-8 88,16 46,22 51,4 101,-1 25,-2 46,-10 57,-33 4,-10 17,-19 25,-37 10,-23 10,-20 17,-45 10,-36 93,-116 127,-122l4 -1c58,-10 35,3 79,7 40,4 100,-33 166,-22 54,10 66,13 92,60 24,42 71,41 86,102 7,29 28,18 58,22 138,19 60,-30 119,-60 23,-12 59,-19 55,-56 -3,-28 -3,-38 23,-58 29,-23 60,-29 64,-72 8,-97 68,-78 111,-127 24,-28 -4,-50 16,-97 16,-39 55,-122 62,-158 7,-41 24,-59 23,-109 17,-46 9,-65 43,-107 29,-34 52,-74 85,-105 37,-35 71,-87 108,-126 58,-62 51,-65 131,-107 43,-23 39,-27 88,-28 71,-1 48,-72 85,-117 16,-19 67,-66 88,-77 30,-11 52,-21 83,-32 30,-10 44,-18 77,-27 26,-6 112,-30 124,5 17,48 25,42 64,13 79,-59 62,-1 116,-30 105,-58 101,5 117,11 30,12 11,-7 30,25 17,30 74,-15 98,-20 21,-5 37,-4 61,-13 17,-6 34,-12 51,-18 28,-15 42,-20 69,-33 6,-3 30,-15 20,-23 -27,-21 -61,-37 -91,-54 -41,-23 -49,-21 -73,-65 -7,-13 -35,-63 -29,-74 9,-17 47,-38 65,-82 14,-35 7,-32 32,-64 35,-45 78,-47 77,-116 0,-35 11,-68 19,-102 23,-44 6,-23 3,-49 -4,-33 65,-8 83,-41 4,-7 -10,-28 0,-58 17,-50 22,-56 9,-108 -11,-43 10,-84 27,-122 13,-28 61,-89 96,-78 20,6 71,17 71,-17 -1,-44 -11,-52 -1,-102 2,-12 3,-53 -5,-63 5,-17 9,-60 20,-74 35,-48 112,19 125,-29 18,-64 -4,-74 52,-117 20,-15 39,-31 59,-46 40,-31 54,-66 109,-94 16,-8 52,-13 75,-21 17,-6 34,-11 51,-17 32,-25 38,-22 78,-22 23,0 30,-16 50,-30l30 -33 -10686 0z"/>
  <rect class="fil2 str1" x="1000" y="1000" width="27700" height="11300"/>
  <polygon class="fil3 str2" points="1596,1232 4992,1232 4992,2825 1596,2825 "/>
  <path class="fil4" d="M2930 1614l-16 45 -138 0 0 -6c41,-37 69,-67 86,-91 17,-23 25,-45 25,-64 0,-15 -5,-27 -14,-37 -9,-10 -20,-14 -33,-14 -12,0 -22,3 -31,10 -9,7 -16,16 -20,29l-6 0c3,-21 10,-37 22,-49 12,-11 27,-17 45,-17 19,0 35,6 48,18 13,12 19,27 19,43 0,12 -3,24 -8,36 -8,19 -22,38 -41,59 -29,31 -46,50 -53,56l60 0c12,0 21,0 26,-1 5,-1 9,-3 13,-6 4,-3 7,-7 10,-12l7 0z"/>
  <path id="1" class="fil4" d="M2958 1544c0,-27 4,-50 12,-69 8,-19 19,-34 32,-43 10,-7 21,-11 32,-11 18,0 34,9 48,27 18,23 27,53 27,92 0,27 -4,50 -12,69 -8,19 -18,33 -30,41 -12,9 -24,13 -35,13 -22,0 -41,-13 -56,-39 -13,-22 -19,-49 -19,-80zm34 4c0,32 4,58 12,79 7,17 16,26 29,26 6,0 13,-3 19,-8 7,-6 12,-15 15,-28 5,-20 8,-48 8,-83 0,-27 -3,-49 -8,-67 -4,-13 -9,-23 -16,-28 -5,-4 -10,-6 -17,-6 -8,0 -15,4 -21,11 -8,10 -14,24 -17,45 -3,20 -4,41 -4,60z"/>
  <path id="2" class="fil4" d="M3134 1544c0,-27 4,-50 12,-69 8,-19 19,-34 32,-43 10,-7 21,-11 32,-11 18,0 34,9 48,27 18,23 27,53 27,92 0,27 -4,50 -12,69 -8,19 -18,33 -30,41 -12,9 -24,13 -35,13 -22,0 -41,-13 -56,-39 -13,-22 -19,-49 -19,-80zm34 4c0,32 4,58 12,79 7,17 16,26 29,26 6,0 13,-3 19,-8 7,-6 12,-15 15,-28 5,-20 8,-48 8,-83 0,-27 -3,-49 -8,-67 -4,-13 -9,-23 -16,-28 -5,-4 -10,-6 -17,-6 -8,0 -15,4 -21,11 -8,10 -14,24 -17,45 -3,20 -4,41 -4,60z"/>
  <path id="3" class="fil4" d="M3444 1414l0 157 40 -37c9,-8 13,-13 15,-15 1,-1 1,-3 1,-4 0,-2 -1,-4 -3,-6 -2,-2 -5,-3 -9,-3l0 -6 69 0 0 6c-9,0 -17,2 -23,4 -6,3 -13,7 -21,14l-41 37 40 51c11,14 19,23 23,27 6,5 10,9 15,10 3,1 8,2 15,2l0 6 -77 0 0 -6c4,0 7,-1 9,-2 2,-1 2,-3 2,-5 0,-3 -2,-7 -7,-13l-48 -62 0 52c0,10 1,17 2,20 1,3 3,5 6,7 3,1 8,2 17,2l0 6 -80 0 0 -6c8,0 14,-1 18,-3 2,-1 4,-3 5,-6 2,-4 3,-10 3,-20l0 -144c0,-18 0,-29 -1,-33 -1,-4 -2,-7 -4,-8 -2,-2 -4,-2 -7,-2 -2,0 -6,1 -11,3l-3 -6 47 -19 8 0z"/>
  <path id="4" class="fil4" d="M3621 1531c11,-12 18,-18 20,-20 5,-4 11,-8 17,-10 6,-2 12,-4 18,-4 10,0 18,3 25,9 7,6 12,14 14,25 12,-14 22,-23 30,-27 8,-4 17,-6 25,-6 8,0 16,2 22,6 6,4 12,11 15,21 3,7 4,17 4,31l0 68c0,10 1,17 2,20 1,2 3,5 6,6 3,2 8,3 15,3l0 6 -77 0 0 -6 3 0c7,0 12,-1 16,-4 3,-2 5,-5 6,-9 0,-2 1,-7 1,-17l0 -68c0,-13 -2,-22 -5,-27 -5,-7 -12,-11 -22,-11 -6,0 -12,2 -18,5 -6,3 -14,9 -22,17l0 2 1 7 0 75c0,11 1,17 2,20 1,3 3,5 7,7 3,2 9,3 17,3l0 6 -79 0 0 -6c9,0 15,-1 18,-3 3,-2 5,-5 7,-9 1,-2 1,-8 1,-17l0 -68c0,-13 -2,-22 -6,-28 -5,-7 -12,-11 -21,-11 -6,0 -12,2 -18,5 -9,5 -17,11 -22,17l0 85c0,10 1,17 2,20 1,3 4,5 6,7 3,2 8,2 17,2l0 6 -78 0 0 -6c7,0 12,-1 15,-2 3,-2 5,-4 7,-7 1,-3 2,-10 2,-20l0 -60c0,-17 -1,-28 -2,-34 -1,-4 -2,-6 -4,-8 -2,-1 -4,-2 -7,-2 -3,0 -7,1 -12,3l-3 -6 48 -19 7 0 0 34z"/>
  <path class="fil4" d="M2528 2418l57 -28 6 0 0 197c0,13 1,21 2,25 1,3 3,6 7,7 3,2 11,3 21,3l0 6 -88 0 0 -6c11,0 18,-1 21,-3 3,-2 5,-4 7,-7 1,-3 2,-11 2,-25l0 -126c0,-17 -1,-28 -2,-33 -1,-4 -2,-6 -4,-8 -2,-2 -5,-3 -8,-3 -4,0 -10,2 -18,5l-3 -5z"/>
  <path id="1" class="fil4" d="M3163 2500c11,-12 18,-18 20,-20 5,-4 11,-8 17,-10 6,-2 12,-4 18,-4 10,0 18,3 25,9 7,6 12,14 14,25 12,-14 22,-23 30,-27 8,-4 17,-6 25,-6 8,0 16,2 22,6 6,4 12,11 15,21 3,7 4,17 4,31l0 68c0,10 1,17 2,20 1,2 3,5 6,6 3,2 8,3 15,3l0 6 -77 0 0 -6 3 0c7,0 12,-1 16,-4 3,-2 5,-5 6,-9 0,-2 1,-7 1,-17l0 -68c0,-13 -2,-22 -5,-27 -5,-7 -12,-11 -22,-11 -6,0 -12,2 -18,5 -6,3 -14,9 -22,17l0 2 1 7 0 75c0,11 1,17 2,20 1,3 3,5 7,7 3,2 9,3 17,3l0 6 -79 0 0 -6c9,0 15,-1 18,-3 3,-2 5,-5 7,-9 1,-2 1,-8 1,-17l0 -68c0,-13 -2,-22 -6,-28 -5,-7 -12,-11 -21,-11 -6,0 -12,2 -18,5 -9,5 -17,11 -22,17l0 85c0,10 1,17 2,20 1,3 4,5 6,7 3,2 8,2 17,2l0 6 -78 0 0 -6c7,0 12,-1 15,-2 3,-2 5,-4 7,-7 1,-3 2,-10 2,-20l0 -60c0,-17 -1,-28 -2,-34 -1,-4 -2,-6 -4,-8 -2,-1 -4,-2 -7,-2 -3,0 -7,1 -12,3l-3 -6 48 -19 7 0 0 34z"/>
  <path id="2" class="fil4" d="M3431 2384c5,0 9,2 12,5 3,3 5,8 5,12 0,5 -2,9 -5,12 -3,3 -8,5 -12,5 -5,0 -9,-2 -12,-5 -3,-3 -5,-8 -5,-12 0,-5 2,-9 5,-12 3,-3 8,-5 13,-5zm14 83l0 127c0,10 1,16 2,20 1,3 4,6 6,7 3,2 8,2 15,2l0 6 -77 0 0 -6c8,0 13,-1 15,-2 3,-1 5,-4 6,-7 2,-3 2,-10 2,-20l0 -61c0,-17 -1,-28 -2,-33 -1,-4 -2,-6 -4,-8 -2,-1 -4,-2 -7,-2 -3,0 -7,1 -12,3l-2 -6 47 -19 8 0z"/>
  <path id="3" class="fil4" d="M2677 2514c0,-27 4,-50 12,-69 8,-19 19,-34 32,-43 10,-7 21,-11 32,-11 18,0 34,9 48,27 18,23 27,53 27,92 0,27 -4,50 -12,69 -8,19 -18,33 -30,41 -12,9 -24,13 -35,13 -22,0 -41,-13 -56,-39 -13,-22 -19,-49 -19,-80zm34 4c0,32 4,58 12,79 7,17 16,26 29,26 6,0 13,-3 19,-8 7,-6 12,-15 15,-28 5,-20 8,-48 8,-83 0,-27 -3,-49 -8,-67 -4,-13 -9,-23 -16,-28 -5,-4 -10,-6 -17,-6 -8,0 -15,4 -21,11 -8,10 -14,24 -17,45 -3,20 -4,41 -4,60z"/>
  <path id="4" class="fil4" d="M2853 2514c0,-27 4,-50 12,-69 8,-19 19,-34 32,-43 10,-7 21,-11 32,-11 18,0 34,9 48,27 18,23 27,53 27,92 0,27 -4,50 -12,69 -8,19 -18,33 -30,41 -12,9 -24,13 -35,13 -22,0 -41,-13 -56,-39 -13,-22 -19,-49 -19,-80zm34 4c0,32 4,58 12,79 7,17 16,26 29,26 6,0 13,-3 19,-8 7,-6 12,-15 15,-28 5,-20 8,-48 8,-83 0,-27 -3,-49 -8,-67 -4,-13 -9,-23 -16,-28 -5,-4 -10,-6 -17,-6 -8,0 -15,4 -21,11 -8,10 -14,24 -17,45 -3,20 -4,41 -4,60z"/>
  <path class="fil4" d="M1198 2963c0,-17 4,-34 13,-51 9,-17 22,-30 38,-39 17,-9 34,-14 52,-14 18,0 35,5 52,14 17,9 29,22 39,38 9,17 14,34 14,52 0,18 -5,35 -14,52 -9,17 -22,29 -39,39 -17,9 -34,14 -52,14 -18,0 -35,-5 -52,-14 -17,-9 -30,-22 -38,-39 -9,-17 -13,-34 -13,-51zm17 0c0,15 4,29 11,43 7,14 18,25 32,32 14,8 28,12 43,12 15,0 29,-4 43,-12 14,-8 24,-18 32,-32 8,-14 12,-28 12,-43 0,-15 -4,-29 -12,-43 -8,-14 -18,-25 -32,-32 -14,-8 -28,-11 -43,-11 -15,0 -30,4 -43,12 -14,8 -25,19 -32,32 -7,14 -11,28 -11,43zm104 -33l5 -17c12,3 21,9 28,18 7,9 10,20 10,33 0,16 -5,29 -16,39 -10,10 -25,15 -44,15 -12,0 -23,-2 -32,-7 -9,-5 -16,-11 -20,-20 -5,-9 -7,-18 -7,-29 0,-12 3,-22 9,-30 6,-8 14,-14 24,-17l4 16c-7,3 -12,7 -16,12 -4,5 -6,12 -6,19 0,11 4,19 11,26 8,7 18,10 32,10 14,0 25,-3 32,-10 7,-6 11,-15 11,-25 0,-8 -2,-16 -7,-22 -5,-6 -11,-10 -20,-12z"/>
  <path id="1" class="fil4" d="M1404 2668l-19 0c14,9 22,23 22,41 0,12 -3,22 -10,32 -6,10 -15,17 -27,23 -12,5 -25,8 -40,8 -15,0 -28,-2 -40,-7 -12,-5 -21,-12 -27,-22 -6,-10 -10,-21 -10,-33 0,-9 2,-17 6,-24 4,-7 9,-12 15,-17l-73 0 0 -25 202 0 0 23zm-73 78c19,0 33,-4 42,-12 9,-8 14,-17 14,-28 0,-11 -4,-20 -13,-28 -9,-8 -22,-11 -41,-11 -20,0 -35,4 -44,12 -9,8 -14,17 -14,29 0,11 4,20 13,28 9,7 23,11 42,11z"/>
  <polygon id="2" class="fil4" points="1343,2616 1318,2616 1318,2539 1343,2539 "/>
  <path id="3" class="fil4" d="M1404 2512l-146 0 0 -22 21 0c-7,-5 -13,-11 -17,-18 -4,-8 -7,-16 -7,-26 0,-11 2,-20 7,-27 5,-7 11,-12 19,-15 -17,-12 -26,-27 -26,-45 0,-15 4,-26 12,-34 8,-8 20,-12 37,-12l100 0 0 25 -92 0c-10,0 -17,1 -21,2 -4,2 -8,5 -11,9 -3,4 -4,9 -4,15 0,10 3,19 10,26 7,7 18,10 33,10l85 0 0 25 -95 0c-11,0 -19,2 -25,6 -6,4 -8,11 -8,20 0,7 2,13 6,19 4,6 9,10 16,13 7,3 17,4 31,4l76 0 0 25z"/>
  <path id="4" class="fil4" d="M1385 2181c8,9 13,18 17,27 3,9 5,18 5,27 0,16 -4,28 -12,37 -8,9 -18,13 -30,13 -7,0 -14,-2 -20,-5 -6,-3 -11,-8 -14,-13 -4,-5 -6,-11 -8,-18 -1,-5 -2,-12 -4,-22 -2,-20 -5,-35 -9,-44 -3,0 -6,0 -6,0 -10,0 -17,2 -21,7 -6,6 -8,16 -8,28 0,12 2,20 6,26 4,6 11,10 22,12l-3 24c-10,-2 -19,-6 -25,-11 -6,-5 -11,-12 -15,-22 -3,-10 -5,-21 -5,-33 0,-13 1,-23 4,-31 3,-8 7,-14 11,-17 4,-4 10,-6 17,-8 4,-1 12,-1 23,-1l33 0c23,0 38,-1 44,-2 6,-1 12,-3 18,-6l0 26c-5,3 -11,4 -18,5zm-55 2c4,9 7,23 9,41 1,10 3,17 5,22 2,4 5,7 8,10 4,2 7,3 12,3 7,0 12,-2 16,-8 4,-5 7,-12 7,-22 0,-10 -2,-18 -6,-26 -4,-7 -10,-13 -17,-16 -6,-3 -14,-4 -25,-4l-9 0z"/>
  <path id="5" class="fil4" d="M1460 2120l-203 0 0 -23 19 0c-7,-5 -13,-11 -17,-18 -4,-7 -6,-15 -6,-24 0,-13 3,-24 10,-33 6,-10 15,-17 27,-22 12,-5 25,-7 38,-7 15,0 28,3 40,8 12,5 21,13 28,23 6,10 10,21 10,32 0,8 -2,16 -5,22 -3,7 -8,12 -13,16l71 0 0 25zm-129 -23c19,0 33,-4 42,-11 9,-8 13,-17 13,-28 0,-11 -5,-20 -14,-28 -9,-8 -24,-12 -43,-12 -19,0 -33,4 -42,11 -9,8 -14,17 -14,27 0,11 5,20 15,28 10,8 24,12 43,12z"/>
  <path id="6" class="fil4" d="M1360 1973l-4 -25c10,-1 17,-5 23,-12 5,-6 8,-15 8,-26 0,-11 -2,-20 -7,-25 -5,-6 -10,-8 -16,-8 -6,0 -10,3 -13,7 -2,3 -5,12 -8,25 -5,18 -9,31 -12,38 -3,7 -8,12 -14,16 -6,4 -12,5 -20,5 -7,0 -13,-2 -18,-4 -6,-3 -10,-7 -14,-12 -3,-4 -5,-9 -7,-16 -2,-7 -3,-14 -3,-21 0,-11 2,-22 5,-30 3,-9 8,-15 13,-19 6,-4 13,-7 23,-9l3 24c-8,1 -14,4 -18,10 -4,5 -6,13 -6,22 0,11 2,19 6,24 4,5 8,7 13,7 3,0 6,-1 9,-3 3,-2 5,-5 7,-10 1,-3 3,-10 6,-22 5,-18 9,-30 11,-37 3,-7 7,-12 13,-16 6,-4 13,-6 21,-6 8,0 16,2 23,7 7,5 13,12 17,21 4,9 6,19 6,31 0,19 -4,34 -12,44 -8,10 -20,16 -35,19z"/>
  <polygon id="7" class="fil4" points="1404,1815 1376,1815 1376,1786 1404,1786 "/>
  <path id="8" class="fil4" d="M1350 1648l3 -24c17,3 30,9 39,20 9,11 14,24 14,40 0,20 -7,36 -20,48 -13,12 -32,18 -56,18 -16,0 -30,-3 -41,-8 -12,-5 -21,-13 -27,-24 -6,-11 -9,-22 -9,-35 0,-16 4,-29 12,-39 8,-10 19,-17 34,-19l4 24c-10,2 -17,6 -22,12 -5,6 -7,13 -7,21 0,13 4,23 13,31 9,8 23,12 42,12 20,0 34,-4 43,-11 9,-8 13,-17 13,-29 0,-10 -3,-18 -9,-24 -6,-7 -15,-11 -27,-12z"/>
  <path id="9" class="fil4" d="M1331 1612c-27,0 -47,-8 -60,-23 -11,-13 -16,-28 -16,-46 0,-20 7,-37 20,-49 13,-13 31,-19 55,-19 19,0 34,3 44,8 11,6 19,14 25,25 6,11 9,23 9,35 0,21 -7,37 -20,50 -13,13 -32,19 -57,19zm0 -25c19,0 33,-4 42,-12 9,-8 14,-19 14,-31 0,-12 -5,-23 -14,-31 -9,-8 -24,-12 -43,-12 -18,0 -32,4 -41,12 -9,8 -14,18 -14,31 0,12 5,23 14,31 9,8 23,12 42,12z"/>
  <path id="10" class="fil4" d="M1404 1445l-146 0 0 -22 21 0c-7,-5 -13,-11 -17,-18 -4,-8 -7,-16 -7,-26 0,-11 2,-20 7,-27 5,-7 11,-12 19,-15 -17,-12 -26,-27 -26,-45 0,-15 4,-26 12,-34 8,-8 20,-12 37,-12l100 0 0 25 -92 0c-10,0 -17,1 -21,2 -4,2 -8,5 -11,9 -3,4 -4,9 -4,15 0,10 3,19 10,26 7,7 18,10 33,10l85 0 0 25 -95 0c-11,0 -19,2 -25,6 -6,4 -8,11 -8,20 0,7 2,13 6,19 4,6 9,10 16,13 7,3 17,4 31,4l76 0 0 25z"/>
  <g id="_2196952127584">
   <polygon class="fil5 str3" points="1738,1828 2517,1828 2517,1927 1738,1927 "/>
   <polygon class="fil6 str3" points="2517,1828 3296,1828 3296,1927 2517,1927 "/>
   <polygon class="fil5 str3" points="3296,1828 4076,1828 4076,1927 3296,1927 "/>
   <polygon class="fil6 str3" points="4076,1828 4855,1828 4855,1927 4076,1927 "/>
   <polygon class="fil5 str3" points="2987,2127 4233,2127 4233,2226 2987,2226 "/>
   <polygon class="fil6 str3" points="1741,2127 2987,2127 2987,2226 1741,2226 "/>
  </g>
  <g id="_2196952125056">
   <polygon class="fil3 str2" points="27629,1234 28445,1234 28445,2827 27629,2827 "/>
   <path class="fil7" d="M27977 1670c-1,3 -2,6 -2,9 0,3 -1,5 -1,7 0,6 2,10 5,12 3,2 10,3 18,3l4 0 -5 23 -78 0 5 -23 3 0c7,0 13,-2 16,-5 4,-3 6,-8 8,-16l38 -154c1,-3 1,-6 2,-8 0,-3 1,-6 1,-9 0,-5 -2,-9 -6,-11 -4,-2 -11,-3 -20,-3l-3 0 5 -23 72 0 62 184 31 -129c1,-4 2,-8 2,-10 0,-3 1,-5 1,-6 0,-6 -2,-10 -5,-12 -4,-2 -10,-3 -18,-3l-4 0 5 -23 79 0 -6 23 -3 0c-7,0 -13,2 -16,5 -4,3 -6,8 -8,16l-51 208 -22 0 -72 -209 -37 155z"/>
   <line class="fil2 str4" x1="28037" y1="2694" x2="28037" y2= "1924" />
   <line class="fil2 str4" x1="27755" y1="2418" x2="28318" y2= "2418" />
   <line class="fil2 str4" x1="27893" y1="2558" x2="28187" y2= "2271" />
   <line class="fil2 str4" x1="27889" y1="2270" x2="28187" y2= "2559" />
   <line class="fil2 str4" x1="28037" y1="1927" x2="27942" y2= "2045" />
   <line class="fil2 str4" x1="28038" y1="1927" x2="28126" y2= "2045" />
  </g>
  <g id="_2196952120704">
   <polygon class="fil3 str2" points="26862,1234 26862,1708 24553,1708 24553,1234 "/>
   <path class="fil7" d="M25630 1572l0 -202 40 0 48 143c4,13 8,23 10,30 2,-7 6,-18 11,-32l49 -141 36 0 0 202 -26 0 0 -169 -59 169 -24 0 -58 -172 0 172 -26 0z"/>
   <path id="1" class="fil7" d="M25963 1525l26 3c-4,15 -11,27 -22,35 -11,8 -25,12 -42,12 -21,0 -38,-7 -51,-20 -13,-13 -19,-32 -19,-55 0,-25 6,-44 19,-57 13,-14 29,-20 49,-20 20,0 35,7 48,20 12,13 19,32 19,56 0,1 0,4 0,7l-109 0c1,16 5,28 14,37 8,9 18,13 31,13 9,0 17,-2 23,-7 6,-5 12,-12 15,-23zm-81 -40l82 0c-1,-12 -4,-22 -9,-28 -8,-10 -18,-14 -31,-14 -11,0 -21,4 -29,11 -8,8 -12,18 -13,31z"/>
   <path id="2" class="fil7" d="M26020 1572l0 -146 22 0 0 22c6,-10 11,-17 16,-21 5,-3 10,-5 16,-5 8,0 17,3 26,8l-9 23c-6,-3 -12,-5 -18,-5 -5,0 -10,2 -15,5 -4,3 -7,8 -9,14 -3,9 -4,18 -4,29l0 77 -25 0z"/>
   <path id="3" class="fil7" d="M26210 1519l24 3c-3,17 -9,30 -20,39 -11,9 -24,14 -40,14 -20,0 -36,-7 -48,-20 -12,-13 -18,-32 -18,-56 0,-16 3,-30 8,-41 5,-12 13,-21 24,-27 11,-6 22,-9 35,-9 16,0 29,4 39,12 10,8 17,19 19,34l-24 4c-2,-10 -6,-17 -12,-22 -6,-5 -13,-7 -21,-7 -13,0 -23,4 -31,13 -8,9 -12,23 -12,42 0,20 4,34 11,43 8,9 17,13 29,13 10,0 18,-3 24,-9 7,-6 11,-15 12,-27z"/>
   <path id="4" class="fil7" d="M26351 1554c-9,8 -18,13 -27,17 -9,3 -18,5 -27,5 -16,0 -28,-4 -37,-12 -9,-8 -13,-18 -13,-30 0,-7 2,-14 5,-20 3,-6 8,-11 13,-14 5,-4 11,-6 18,-8 5,-1 12,-2 22,-4 20,-2 35,-5 44,-9 0,-3 0,-6 0,-6 0,-10 -2,-17 -7,-21 -6,-6 -16,-8 -28,-8 -12,0 -20,2 -26,6 -6,4 -10,11 -12,22l-24 -3c2,-10 6,-19 11,-25 5,-6 12,-11 22,-15 10,-3 21,-5 33,-5 13,0 23,1 31,4 8,3 14,7 17,11 4,4 6,10 8,17 1,4 1,12 1,23l0 33c0,23 1,38 2,44 1,6 3,12 6,18l-26 0c-3,-5 -4,-11 -5,-18zm-2 -55c-9,4 -23,7 -41,9 -10,1 -17,3 -22,5 -4,2 -7,5 -10,8 -2,4 -3,7 -3,12 0,7 2,12 8,16 5,4 12,7 22,7 10,0 18,-2 26,-6 7,-4 13,-10 16,-17 3,-6 4,-14 4,-25l0 -9z"/>
   <path id="5" class="fil7" d="M26466 1550l3 22c-7,1 -13,2 -19,2 -9,0 -16,-1 -21,-4 -5,-3 -8,-7 -10,-11 -2,-5 -3,-14 -3,-29l0 -84 -18 0 0 -19 18 0 0 -36 25 -15 0 51 25 0 0 19 -25 0 0 86c0,7 0,12 1,14 1,2 2,4 4,5 2,1 5,2 8,2 3,0 6,0 11,-1z"/>
   <path id="6" class="fil7" d="M26481 1499c0,-27 8,-47 23,-60 13,-11 28,-16 46,-16 20,0 37,7 49,20 13,13 19,31 19,55 0,19 -3,34 -8,44 -6,11 -14,19 -25,25 -11,6 -23,9 -35,9 -21,0 -37,-7 -50,-20 -13,-13 -19,-32 -19,-57zm25 0c0,19 4,33 12,42 8,9 19,14 31,14 12,0 23,-5 31,-14 8,-9 12,-24 12,-43 0,-18 -4,-32 -12,-41 -8,-9 -18,-14 -31,-14 -12,0 -23,5 -31,14 -8,9 -12,23 -12,42z"/>
   <path id="7" class="fil7" d="M26647 1572l0 -146 22 0 0 22c6,-10 11,-17 16,-21 5,-3 10,-5 16,-5 8,0 17,3 26,8l-9 23c-6,-3 -12,-5 -18,-5 -5,0 -10,2 -15,5 -4,3 -7,8 -9,14 -3,9 -4,18 -4,29l0 77 -25 0z"/>
   <circle class="fil8 str5" cx="24771" cy="1467" r="119"/>
   <rect class="fil8 str5" x="25229" y="1359" width="227" height="227"/>
   <line class="fil2 str6" x1="24945" y1="1466" x2="25166" y2= "1466" />
   <line class="fil2 str6" x1="25163" y1="1467" x2="25099" y2= "1532" />
   <line class="fil2 str6" x1="25163" y1="1466" x2="25100" y2= "1404" />
  </g>
 </g>
</svg>
