<?xml version="1.0" encoding="UTF-8"?>
<!DOCTYPE svg PUBLIC "-//W3C//DTD SVG 1.1//EN" "http://www.w3.org/Graphics/SVG/1.1/DTD/svg11.dtd">
<!-- Creator: CorelDRAW -->
<svg xmlns="http://www.w3.org/2000/svg" xml:space="preserve" width="297mm" height="210mm" version="1.1" style="shape-rendering:geometricPrecision; text-rendering:geometricPrecision; image-rendering:optimizeQuality; fill-rule:evenodd; clip-rule:evenodd"
viewBox="0 0 29700 21000"
 xmlns:xlink="http://www.w3.org/1999/xlink">
 <defs>
  <style type="text/css">
   <![CDATA[
    .str1 {stroke:black;stroke-width:10;stroke-opacity:0.501961}
    .str3 {stroke:black;stroke-width:50}
    .str5 {stroke:#434242;stroke-width:10}
    .str2 {stroke:#3F3E3F;stroke-width:10}
    .str0 {stroke:#000066;stroke-width:10}
    .str6 {stroke:#2B2A29;stroke-width:7.62}
    .str4 {stroke:black;stroke-width:7.62}
    .fil9 {fill:none}
    .fil7 {fill:none;fill-rule:nonzero}
    .fil0 {fill:#FEFEFE}
    .fil10 {fill:#D9DADA}
    .fil5 {fill:#FEFEFE;fill-rule:nonzero}
    .fil4 {fill:#D9DADA;fill-rule:nonzero}
    .fil8 {fill:#434242;fill-rule:nonzero}
    .fil6 {fill:#2B2A29;fill-rule:nonzero}
    .fil3 {fill:black;fill-rule:nonzero}
    .fil1 {fill:white;fill-rule:nonzero}
    .fil2 {fill:#FEFEFE;fill-rule:nonzero;fill-opacity:0.501961}
   ]]>
  </style>
 </defs>
 <g id="Plan_x0020_1">
  <metadata id="CorelCorpID_0Corel-Layer"/>
  <rect class="fil0" x="1027" y="1024" width="25511" height="18928"/>
  <path class="fil1 str0" d="M12634 1024l-5601 0c12,35 35,51 65,71 18,12 20,29 38,43 17,13 22,28 28,48 8,26 15,42 15,69 0,32 -7,50 -7,83 0,21 10,34 25,48 8,7 12,15 23,15 17,0 23,-13 36,-23 4,13 5,21 5,35 0,29 -32,43 -61,43 -14,0 -21,-5 -35,-5 -8,0 -10,8 -13,15 -5,12 -10,19 -10,31 0,7 5,10 5,16l0 37c0,23 8,35 8,57 0,21 -1,51 20,51 18,0 25,-18 43,-18 31,0 52,14 71,38 5,7 6,15 13,20 19,13 33,19 56,23 12,2 31,-4 31,8 0,17 -13,25 -13,43l0 30c0,11 -14,12 -25,13 -18,2 -27,8 -45,8 -12,0 -18,0 -30,-2 -13,-1 -16,-17 -28,-17l-11 0 0 14c0,31 4,53 26,74 10,9 20,9 33,12 17,3 25,19 25,36 0,25 -7,39 -7,64 0,18 14,26 30,35 27,14 51,14 68,40 26,38 23,78 64,99 22,12 39,10 61,21 16,9 17,24 25,40 19,38 36,78 78,78 15,0 25,-3 40,-3 30,5 61,6 68,35 7,31 18,64 50,64l44 0c39,0 38,-64 76,-64 33,0 51,15 85,15 5,0 8,-1 13,-2 0,-9 4,-13 4,-22l0 -50c0,-41 19,-86 60,-86 16,0 19,18 23,33 6,21 11,34 26,50 3,-10 2,-17 5,-28 4,-15 17,-19 30,-26 5,-3 4,-10 8,-15 15,-17 26,-27 38,-46 26,-40 31,-68 56,-109 34,-57 74,-81 139,-96 32,-7 48,-25 81,-25l72 0c29,0 45,-7 73,-13 53,-12 84,-18 139,-18 18,0 26,12 43,15 25,4 39,7 63,15 20,7 31,20 52,20 23,0 40,-1 57,-17 13,-12 12,-27 23,-41 14,-18 27,-30 50,-30l54 0c32,0 49,-19 71,-41 53,-53 76,-117 150,-117 18,0 26,12 41,20 20,10 35,4 56,12 13,5 20,12 33,12l32 0c14,0 23,-10 37,-13 10,2 16,5 26,5 31,0 46,-20 76,-20l32 0c9,0 12,10 20,13 10,4 17,0 28,0l54 0c28,0 40,23 68,23 39,0 59,-18 97,-18 32,0 49,17 81,17l83 0c14,0 19,12 30,20 14,11 27,13 45,13l72 0 17 3 51 0c44,0 66,-23 110,-23l55 0c24,0 31,-25 55,-25 21,0 29,15 50,20 33,8 54,8 88,8 15,0 24,2 39,2 22,0 33,-13 55,-13 17,0 23,15 40,15 8,0 12,-5 21,-5 18,0 26,11 42,20 27,15 41,29 71,38 45,13 71,15 117,15 40,0 68,10 101,-12 10,-7 17,-13 28,-18 46,-23 45,-91 96,-91 10,0 14,7 23,10 17,6 29,5 48,5 37,0 56,-8 89,-25 4,0 6,-2 10,-2 18,0 26,9 43,13 36,9 57,15 86,38 22,18 29,37 35,64 5,23 7,53 31,53 23,0 37,-4 58,-12 18,-7 20,-25 36,-35 14,-9 32,-1 41,-15 17,-25 28,-38 50,-59 6,-6 6,-15 13,-20 14,-10 28,-2 45,-10 30,-15 33,-41 55,-66 15,-18 26,-26 48,-36 24,-11 46,-24 46,-50l0 -32c0,-27 24,-40 48,-52 15,-7 20,-18 30,-31 12,-16 21,-24 30,-43 15,-34 0,-62 23,-91 15,-19 33,-20 46,-41 38,-60 80,-74 134,-119 31,-26 52,-38 83,-64 17,-14 24,-35 46,-35 19,0 28,10 47,10 24,0 31,-28 54,-28l43 0c4,-10 7,-23 10,-33zm12648 5313c0,53 -6,84 -30,132 -16,32 -50,40 -50,76 0,7 11,7 13,13 7,19 3,32 3,53 8,1 12,3 21,3 15,0 21,-11 36,-13 56,-9 91,-3 142,-26 38,-17 92,-14 92,-56 0,-42 -13,-67 -13,-109l65 0c12,0 16,-13 27,-13 36,0 34,47 50,79 26,51 50,78 56,135 7,62 11,107 56,149 62,56 97,30 -12,30 -11,0 -17,5 -27,7 17,26 36,37 50,66 9,21 6,42 23,56 24,20 48,12 79,13 44,2 66,20 110,20l59 0c1,-7 3,-12 3,-19 0,-53 140,18 218,75 55,40 77,78 132,119 5,-8 10,-13 10,-23 0,-13 -3,-20 -7,-33 54,22 91,31 149,40l0 12841 -25511 0 0 -9626c59,-119 97,-190 208,-263 122,-79 210,-125 274,-254 18,-36 32,-61 69,-79 27,-13 53,-7 73,-30 39,-44 36,-86 59,-139 17,-39 42,-54 59,-92 18,-40 15,-68 26,-109 12,-42 26,-68 26,-112 0,-23 -10,-36 -10,-59l0 -81c0,-43 -26,-64 -36,-105 -10,-40 8,-86 -30,-102 -35,-15 -59,-20 -97,-20 -23,0 -36,2 -59,2l0 -21c9,-31 6,-53 20,-83 36,-76 83,-106 112,-185 35,-92 26,-154 63,-244 6,-16 13,-26 13,-43 0,-12 -7,-18 -7,-30 0,-29 -33,-37 -33,-66 0,-40 31,-54 53,-86 38,-56 51,-99 51,-167 0,-19 -2,-29 -2,-48 0,-66 56,-88 99,-139 32,-38 47,-64 83,-99 52,-52 64,-97 102,-159 30,-48 59,-67 92,-112 55,-73 96,-107 159,-175 26,-29 38,-54 69,-76 33,-24 67,-17 96,-46 56,-56 83,-92 145,-139l0 -97c0,-44 46,-60 46,-104l0 -48c0,-60 96,-63 96,-123 0,-17 -11,-26 -13,-43 -17,1 -25,1 -41,0l0 -81c61,-92 141,-99 233,-162 96,-65 144,-116 254,-152 53,-53 110,-47 162,-99 20,-20 15,-45 33,-66 23,-27 50,-31 76,-56 25,-25 34,-44 63,-63 29,-19 38,-40 66,-59 31,-21 54,-31 73,-63 12,-19 9,-36 23,-53 45,-54 100,-50 168,-66 47,-12 73,-25 119,-40 16,-5 31,-2 43,-13 36,-32 40,-79 86,-89 36,-8 59,2 96,-3 64,-11 97,-32 159,-53 51,-17 88,-7 139,-23 32,-11 41,-46 76,-46 17,0 23,13 40,13 26,0 39,-17 63,-26 24,-9 40,-9 66,-17 34,-10 51,-30 87,-30l71 0c79,0 123,-26 196,-56 45,-18 80,-7 122,-33 50,-31 63,-72 116,-96 59,-26 97,-31 155,-59 88,-36 121,-89 205,-135 45,-25 77,-31 119,-59 41,-27 50,-62 89,-92 77,-61 100,-118 152,-202 54,-86 147,-107 155,-208 25,-50 58,-69 66,-122 87,-87 110,-159 175,-264 26,-42 57,-51 83,-92 72,-116 124,-173 198,-287 37,-58 37,-105 76,-162 100,-145 143,-233 228,-386 22,-41 63,-45 89,-83 26,-38 37,-66 73,-96 43,-36 36,-83 56,-135 11,-28 19,-63 50,-63 25,0 39,7 64,7l78 0c28,0 40,-23 67,-30 90,-22 141,-31 231,-53 38,-9 52,-40 91,-40 42,0 73,12 101,43l33 3c14,7 24,10 40,10 -20,81 -83,113 -83,197 0,25 2,58 26,58 8,0 12,-4 20,-7 2,13 3,21 3,34 0,41 -30,60 -30,102 0,22 26,26 43,40 25,21 43,30 66,53 43,43 59,76 106,116 83,70 124,119 185,208 34,50 73,71 132,79 39,5 66,-2 99,20 33,21 22,62 53,86 45,36 89,20 146,20l84 0c23,0 36,-13 59,-13 63,0 97,20 160,20 54,0 79,-29 129,-50 35,-14 63,-9 92,-33l13 3c7,26 13,42 13,69l188 0c48,-43 74,-83 139,-92 9,31 8,53 23,83 26,51 83,43 140,43 51,0 79,3 130,3 56,0 91,-7 143,-26 41,-16 61,-43 106,-50 113,-9 107,-159 215,-195 6,16 10,26 10,43 0,69 -56,99 -56,168 0,45 22,73 56,102 24,21 31,46 59,59 29,13 50,10 83,13 110,13 171,36 281,36 42,0 67,-8 109,-13l459 59 82 0c44,0 62,-30 100,-50 23,-12 40,-7 66,-13 73,-18 107,-51 175,-79 63,-26 97,-47 162,-66 47,-13 78,-5 126,-13 31,-6 39,-33 66,-50 66,-41 107,-66 149,-132 12,-19 13,-37 30,-53 17,-16 34,-17 53,-30 104,-71 169,-107 287,-149 49,-17 69,-56 121,-56 19,0 28,12 45,20 40,21 68,23 112,23 22,0 39,7 56,-7 14,-11 14,-28 30,-36 28,-16 53,1 83,-10 64,-23 37,-106 89,-149 21,-17 44,-6 69,-13 27,-8 41,-21 69,-26 3,7 10,12 10,20 0,8 -4,12 -7,20 10,2 17,4 26,7 -8,20 -20,30 -30,50l0 23c88,0 126,73 215,73 15,0 21,-12 30,-23 59,-5 89,-33 135,-69 37,-30 64,-40 106,-63 35,-19 34,-53 59,-83 46,-53 70,-100 139,-116 31,-7 57,-11 76,-36 13,-18 25,-30 40,-46 11,-12 16,-30 33,-30 13,0 21,7 35,7 31,0 47,-17 74,-30 53,-25 85,-36 139,-59 35,-15 46,-43 83,-53 45,-13 77,3 119,-17 126,-59 192,-111 324,-155 40,-13 55,-46 97,-46 29,0 45,13 74,13 28,0 38,-26 66,-26 29,0 44,17 73,17 29,0 40,-30 69,-30 58,0 89,20 147,20 55,0 85,-20 140,-20 36,0 58,7 94,7 82,0 125,-26 206,-36l99 30 224 0c41,0 59,-33 100,-33 57,0 93,3 145,26 36,16 56,36 96,36 24,0 36,-17 59,-17 26,0 40,20 66,20 25,0 36,-17 59,-23 78,-21 132,-31 185,-92 58,-68 81,-152 169,-152 37,0 58,3 95,3 1,11 3,17 3,27 0,18 -13,27 -13,45 0,43 43,70 86,76 38,-22 56,-40 86,-73 23,-26 31,-63 66,-63 32,0 35,43 66,50 46,11 73,0 121,0 97,0 155,-2 246,-33 83,-29 121,-86 208,-86 30,0 45,14 73,23 63,21 103,23 169,23l68 0c50,0 80,9 123,33 25,13 37,36 66,36 62,0 97,-17 159,-17 63,0 97,23 159,23 65,0 102,-3 167,-3 92,0 140,37 222,76 40,18 61,45 76,86 15,42 3,82 40,109 38,28 70,25 116,40 40,13 65,20 107,20 21,0 34,6 55,0 23,-7 27,-27 50,-36 25,-10 44,-2 69,-10 40,-12 49,-45 79,-73 21,-19 43,-17 69,-26 45,-17 54,-73 102,-73 42,0 64,26 106,26 26,0 43,2 66,-10 18,-9 21,-30 40,-36 49,-18 84,7 135,-7 12,-3 15,-17 27,-17l61 0c32,0 49,-12 80,-20 40,-9 74,-12 96,-46 23,-36 0,-71 20,-109 8,-17 14,-34 33,-36 18,-2 33,5 46,-7 12,-11 3,-27 13,-40 17,-20 40,-17 66,-17 29,-7 46,-13 76,-13 41,0 66,26 86,63 15,27 6,53 26,76 45,50 87,66 152,79 55,12 86,21 142,23 22,1 37,-11 56,0 21,12 17,36 33,53 26,26 57,13 94,13 68,0 107,-19 164,-56 31,-20 66,-32 66,-69 0,-55 -59,-69 -73,-122 5,-1 7,-7 13,-7 49,0 70,36 119,36 21,0 32,-7 53,-7 40,0 55,34 92,46 30,10 50,-3 81,-3 69,0 66,104 134,119 34,7 52,17 86,23 16,2 29,-8 43,0 31,20 10,59 26,92 23,47 73,50 126,50 44,0 66,-18 106,-36 62,-28 105,-24 168,-50 31,-12 45,-36 79,-36 42,0 64,22 102,40 60,27 99,36 165,36 32,0 48,-21 76,-36 51,-26 86,-40 144,-40 41,0 61,26 102,26 34,0 48,-26 74,-46 76,-57 119,-87 195,-145 22,-17 32,-36 59,-40 33,-6 57,-1 86,-17 48,-26 58,-68 106,-96 17,23 39,33 68,33 44,0 66,-24 107,-36 73,-22 121,-21 195,-43 66,-20 100,-53 168,-53 17,0 24,14 40,20 30,12 50,10 83,10 17,-1 26,-3 44,-3 26,0 20,36 36,56 36,45 73,69 130,69l61 0c62,0 101,2 156,30 -12,30 -37,35 -53,63 29,14 69,12 69,45 0,71 -56,102 -56,173 0,68 96,78 96,145 0,16 -20,16 -33,23 -17,9 -23,26 -23,46 0,35 31,47 53,73 23,26 49,36 84,36 64,0 125,0 154,-56 11,-21 24,-29 33,-50 15,-35 28,-73 66,-73 29,0 42,20 71,20 66,0 102,-36 150,-79 14,-12 20,-26 36,-36 16,-9 39,-5 43,-23 6,-26 -1,-47 17,-66 22,-24 52,-9 83,-20 31,-11 45,-26 69,-50l33 0 0 80c0,66 50,95 50,161 0,37 -33,48 -53,79 -67,106 -111,164 -195,258 -42,48 -47,89 -73,149 -16,36 -43,48 -66,79 -34,45 -55,92 -112,92 -30,0 -43,-26 -73,-26 -36,0 -50,36 -86,36 -26,0 -30,-28 -50,-43 -12,23 -12,41 -20,66 -8,26 -26,38 -26,65l0 94c0,46 -17,71 -17,117l0 71c0,40 32,55 56,85 26,34 11,70 30,109 24,49 45,74 76,119 19,27 36,53 69,53 24,0 33,-23 57,-23 21,0 34,2 55,2 0,57 7,119 63,134 29,7 45,14 73,23 25,8 66,-7 66,20 0,70 -36,107 -36,178l0 71c0,44 13,71 13,115 31,31 37,59 69,89 17,15 33,26 33,50 0,17 -21,17 -33,30 -12,12 -9,26 -20,40 -22,26 -48,28 -73,53 -50,50 -65,90 -112,142 -31,34 -35,64 -53,106 -16,36 -40,50 -66,79 -33,36 -36,73 -73,106 -37,33 -52,58 -79,99 -21,31 -57,21 -86,46 -15,12 -14,28 -26,43 -17,19 -36,22 -50,43 -6,9 -1,23 -10,30 -47,36 -103,7 -149,46 -40,35 -58,58 -96,92 -15,13 -19,36 -40,36 -24,0 -36,-17 -59,-17 -13,0 -17,16 -23,26 -17,29 -30,47 -59,63 -33,17 -62,12 -92,33 -36,26 -50,51 -86,79 -26,20 -36,39 -59,59 -8,7 -20,11 -20,22l0 68c0,13 18,16 20,29 3,23 6,37 10,59 9,48 -7,81 13,126 32,72 63,111 126,159 86,65 128,111 221,165 50,29 78,56 135,56 34,0 49,-23 79,-36 46,-21 78,-22 129,-26l7 36zm766 -1381c-5,0 -8,-3 -13,-3 -6,0 -7,7 -13,7 -11,0 -12,-17 -23,-17 -12,0 -10,17 -17,26 -9,13 -26,8 -43,7 -1,7 -2,12 -3,20l7 26c-26,36 -50,47 -83,79l-13 3c0,0 7,10 13,10 17,0 24,-18 40,-23 15,-5 24,2 40,0 38,-4 51,-34 76,-63 20,-23 31,-42 33,-73zm-301 178c-10,-2 -16,-3 -26,-3 -33,0 -55,12 -77,36 24,27 42,53 79,53 20,0 22,-24 40,-33 19,-10 33,-17 43,-36 -20,-7 -39,-15 -59,-17zm-248 932c-21,2 -32,12 -54,12l-111 0c0,31 7,51 -3,80 -10,28 -30,42 -30,73 0,28 12,59 40,59 40,0 60,-18 99,-30 17,36 33,56 33,96 17,-9 16,-29 30,-40 18,-14 36,-13 56,-26 34,-23 47,-45 73,-76 17,-21 35,-35 36,-63 -45,-11 -43,-79 -90,-79 -26,0 -53,-7 -78,-7z"/>
  <polygon class="fil2 str1" points="1596,1232 4469,1232 4469,2825 1596,2825 "/>
  <path class="fil3" d="M1198 2963c0,-17 4,-34 13,-51 9,-17 22,-30 38,-39 17,-9 34,-14 52,-14 18,0 35,5 52,14 17,9 29,22 39,38 9,17 14,34 14,52 0,18 -5,35 -14,52 -9,17 -22,29 -39,39 -17,9 -34,14 -52,14 -18,0 -35,-5 -52,-14 -17,-9 -30,-22 -38,-39 -9,-17 -13,-34 -13,-51zm17 0c0,15 4,29 11,43 7,14 18,25 32,32 14,8 28,12 43,12 15,0 29,-4 43,-12 14,-8 24,-18 32,-32 8,-14 12,-28 12,-43 0,-15 -4,-29 -12,-43 -8,-14 -18,-25 -32,-32 -14,-8 -28,-11 -43,-11 -15,0 -30,4 -43,12 -14,8 -25,19 -32,32 -7,14 -11,28 -11,43zm104 -33l5 -17c12,3 21,9 28,18 7,9 10,20 10,33 0,16 -5,29 -16,39 -10,10 -25,15 -44,15 -12,0 -23,-2 -32,-7 -9,-5 -16,-11 -20,-20 -5,-9 -7,-18 -7,-29 0,-12 3,-22 9,-30 6,-8 14,-14 24,-17l4 16c-7,3 -12,7 -16,12 -4,5 -6,12 -6,19 0,11 4,19 11,26 8,7 18,10 32,10 14,0 25,-3 32,-10 7,-6 11,-15 11,-25 0,-8 -2,-16 -7,-22 -5,-6 -11,-10 -20,-12z"/>
  <path id="1" class="fil3" d="M1404 2668l-19 0c14,9 22,23 22,41 0,12 -3,22 -10,32 -6,10 -15,17 -27,23 -12,5 -25,8 -40,8 -15,0 -28,-2 -40,-7 -12,-5 -21,-12 -27,-22 -6,-10 -10,-21 -10,-33 0,-9 2,-17 6,-24 4,-7 9,-12 15,-17l-73 0 0 -25 202 0 0 23zm-73 78c19,0 33,-4 42,-12 9,-8 14,-17 14,-28 0,-11 -4,-20 -13,-28 -9,-8 -22,-11 -41,-11 -20,0 -35,4 -44,12 -9,8 -14,17 -14,29 0,11 4,20 13,28 9,7 23,11 42,11z"/>
  <polygon id="2" class="fil3" points="1343,2616 1318,2616 1318,2539 1343,2539 "/>
  <path id="3" class="fil3" d="M1404 2512l-146 0 0 -22 21 0c-7,-5 -13,-11 -17,-18 -4,-8 -7,-16 -7,-26 0,-11 2,-20 7,-27 5,-7 11,-12 19,-15 -17,-12 -26,-27 -26,-45 0,-15 4,-26 12,-34 8,-8 20,-12 37,-12l100 0 0 25 -92 0c-10,0 -17,1 -21,2 -4,2 -8,5 -11,9 -3,4 -4,9 -4,15 0,10 3,19 10,26 7,7 18,10 33,10l85 0 0 25 -95 0c-11,0 -19,2 -25,6 -6,4 -8,11 -8,20 0,7 2,13 6,19 4,6 9,10 16,13 7,3 17,4 31,4l76 0 0 25z"/>
  <path id="4" class="fil3" d="M1385 2181c8,9 13,18 17,27 3,9 5,18 5,27 0,16 -4,28 -12,37 -8,9 -18,13 -30,13 -7,0 -14,-2 -20,-5 -6,-3 -11,-8 -14,-13 -4,-5 -6,-11 -8,-18 -1,-5 -2,-12 -4,-22 -2,-20 -5,-35 -9,-44 -3,0 -6,0 -6,0 -10,0 -17,2 -21,7 -6,6 -8,16 -8,28 0,12 2,20 6,26 4,6 11,10 22,12l-3 24c-10,-2 -19,-6 -25,-11 -6,-5 -11,-12 -15,-22 -3,-10 -5,-21 -5,-33 0,-13 1,-23 4,-31 3,-8 7,-14 11,-17 4,-4 10,-6 17,-8 4,-1 12,-1 23,-1l33 0c23,0 38,-1 44,-2 6,-1 12,-3 18,-6l0 26c-5,3 -11,4 -18,5zm-55 2c4,9 7,23 9,41 1,10 3,17 5,22 2,4 5,7 8,10 4,2 7,3 12,3 7,0 12,-2 16,-8 4,-5 7,-12 7,-22 0,-10 -2,-18 -6,-26 -4,-7 -10,-13 -17,-16 -6,-3 -14,-4 -25,-4l-9 0z"/>
  <path id="5" class="fil3" d="M1460 2120l-203 0 0 -23 19 0c-7,-5 -13,-11 -17,-18 -4,-7 -6,-15 -6,-24 0,-13 3,-24 10,-33 6,-10 15,-17 27,-22 12,-5 25,-7 38,-7 15,0 28,3 40,8 12,5 21,13 28,23 6,10 10,21 10,32 0,8 -2,16 -5,22 -3,7 -8,12 -13,16l71 0 0 25zm-129 -23c19,0 33,-4 42,-11 9,-8 13,-17 13,-28 0,-11 -5,-20 -14,-28 -9,-8 -24,-12 -43,-12 -19,0 -33,4 -42,11 -9,8 -14,17 -14,27 0,11 5,20 15,28 10,8 24,12 43,12z"/>
  <path id="6" class="fil3" d="M1360 1973l-4 -25c10,-1 17,-5 23,-12 5,-6 8,-15 8,-26 0,-11 -2,-20 -7,-25 -5,-6 -10,-8 -16,-8 -6,0 -10,3 -13,7 -2,3 -5,12 -8,25 -5,18 -9,31 -12,38 -3,7 -8,12 -14,16 -6,4 -12,5 -20,5 -7,0 -13,-2 -18,-4 -6,-3 -10,-7 -14,-12 -3,-4 -5,-9 -7,-16 -2,-7 -3,-14 -3,-21 0,-11 2,-22 5,-30 3,-9 8,-15 13,-19 6,-4 13,-7 23,-9l3 24c-8,1 -14,4 -18,10 -4,5 -6,13 -6,22 0,11 2,19 6,24 4,5 8,7 13,7 3,0 6,-1 9,-3 3,-2 5,-5 7,-10 1,-3 3,-10 6,-22 5,-18 9,-30 11,-37 3,-7 7,-12 13,-16 6,-4 13,-6 21,-6 8,0 16,2 23,7 7,5 13,12 17,21 4,9 6,19 6,31 0,19 -4,34 -12,44 -8,10 -20,16 -35,19z"/>
  <polygon id="7" class="fil3" points="1404,1815 1376,1815 1376,1786 1404,1786 "/>
  <path id="8" class="fil3" d="M1350 1648l3 -24c17,3 30,9 39,20 9,11 14,24 14,40 0,20 -7,36 -20,48 -13,12 -32,18 -56,18 -16,0 -30,-3 -41,-8 -12,-5 -21,-13 -27,-24 -6,-11 -9,-22 -9,-35 0,-16 4,-29 12,-39 8,-10 19,-17 34,-19l4 24c-10,2 -17,6 -22,12 -5,6 -7,13 -7,21 0,13 4,23 13,31 9,8 23,12 42,12 20,0 34,-4 43,-11 9,-8 13,-17 13,-29 0,-10 -3,-18 -9,-24 -6,-7 -15,-11 -27,-12z"/>
  <path id="9" class="fil3" d="M1331 1612c-27,0 -47,-8 -60,-23 -11,-13 -16,-28 -16,-46 0,-20 7,-37 20,-49 13,-13 31,-19 55,-19 19,0 34,3 44,8 11,6 19,14 25,25 6,11 9,23 9,35 0,21 -7,37 -20,50 -13,13 -32,19 -57,19zm0 -25c19,0 33,-4 42,-12 9,-8 14,-19 14,-31 0,-12 -5,-23 -14,-31 -9,-8 -24,-12 -43,-12 -18,0 -32,4 -41,12 -9,8 -14,18 -14,31 0,12 5,23 14,31 9,8 23,12 42,12z"/>
  <path id="10" class="fil3" d="M1404 1445l-146 0 0 -22 21 0c-7,-5 -13,-11 -17,-18 -4,-8 -7,-16 -7,-26 0,-11 2,-20 7,-27 5,-7 11,-12 19,-15 -17,-12 -26,-27 -26,-45 0,-15 4,-26 12,-34 8,-8 20,-12 37,-12l100 0 0 25 -92 0c-10,0 -17,1 -21,2 -4,2 -8,5 -11,9 -3,4 -4,9 -4,15 0,10 3,19 10,26 7,7 18,10 33,10l85 0 0 25 -95 0c-11,0 -19,2 -25,6 -6,4 -8,11 -8,20 0,7 2,13 6,19 4,6 9,10 16,13 7,3 17,4 31,4l76 0 0 25z"/>
  <g id="_2197069097168">
   <polygon class="fil4 str2" points="1730,1827 2381,1827 2381,1926 1730,1926 "/>
   <polygon class="fil5 str2" points="2381,1827 3031,1827 3031,1926 2381,1926 "/>
   <polygon class="fil4 str2" points="3031,1827 3682,1827 3682,1926 3031,1926 "/>
   <polygon class="fil5 str2" points="3682,1827 4332,1827 4332,1926 3682,1926 "/>
   <polygon class="fil4 str2" points="2773,2126 3813,2126 3813,2225 2773,2225 "/>
   <polygon class="fil5 str2" points="1732,2126 2773,2126 2773,2225 1732,2225 "/>
   <path class="fil6" d="M2653 1620l-16 45 -138 0 0 -6c41,-37 69,-67 86,-91 17,-23 25,-45 25,-64 0,-15 -5,-27 -14,-37 -9,-10 -20,-14 -33,-14 -12,0 -22,3 -31,10 -9,7 -16,16 -20,29l-6 0c3,-21 10,-37 22,-49 12,-11 27,-17 45,-17 19,0 35,6 48,18 13,12 19,27 19,43 0,12 -3,24 -8,36 -8,19 -22,38 -41,59 -29,31 -46,50 -53,56l60 0c12,0 21,0 26,-1 5,-1 9,-3 13,-6 4,-3 7,-7 10,-12l7 0z"/>
   <path id="1" class="fil6" d="M2681 1550c0,-27 4,-50 12,-69 8,-19 19,-34 32,-43 10,-7 21,-11 32,-11 18,0 34,9 48,27 18,23 27,53 27,92 0,27 -4,50 -12,69 -8,19 -18,33 -30,41 -12,9 -24,13 -35,13 -22,0 -41,-13 -56,-39 -13,-22 -19,-49 -19,-80zm34 4c0,32 4,58 12,79 7,17 16,26 29,26 6,0 13,-3 19,-8 7,-6 12,-15 15,-28 5,-20 8,-48 8,-83 0,-27 -3,-49 -8,-67 -4,-13 -9,-23 -16,-28 -5,-4 -10,-6 -17,-6 -8,0 -15,4 -21,11 -8,10 -14,24 -17,45 -3,20 -4,41 -4,60z"/>
   <path id="2" class="fil6" d="M2857 1550c0,-27 4,-50 12,-69 8,-19 19,-34 32,-43 10,-7 21,-11 32,-11 18,0 34,9 48,27 18,23 27,53 27,92 0,27 -4,50 -12,69 -8,19 -18,33 -30,41 -12,9 -24,13 -35,13 -22,0 -41,-13 -56,-39 -13,-22 -19,-49 -19,-80zm34 4c0,32 4,58 12,79 7,17 16,26 29,26 6,0 13,-3 19,-8 7,-6 12,-15 15,-28 5,-20 8,-48 8,-83 0,-27 -3,-49 -8,-67 -4,-13 -9,-23 -16,-28 -5,-4 -10,-6 -17,-6 -8,0 -15,4 -21,11 -8,10 -14,24 -17,45 -3,20 -4,41 -4,60z"/>
   <path id="3" class="fil6" d="M3167 1420l0 157 40 -37c9,-8 13,-13 15,-15 1,-1 1,-3 1,-4 0,-2 -1,-4 -3,-6 -2,-2 -5,-3 -9,-3l0 -6 69 0 0 6c-9,0 -17,2 -23,4 -6,3 -13,7 -21,14l-41 37 40 51c11,14 19,23 23,27 6,5 10,9 15,10 3,1 8,2 15,2l0 6 -77 0 0 -6c4,0 7,-1 9,-2 2,-1 2,-3 2,-5 0,-3 -2,-7 -7,-13l-48 -62 0 52c0,10 1,17 2,20 1,3 3,5 6,7 3,1 8,2 17,2l0 6 -80 0 0 -6c8,0 14,-1 18,-3 2,-1 4,-3 5,-6 2,-4 3,-10 3,-20l0 -144c0,-18 0,-29 -1,-33 -1,-4 -2,-7 -4,-8 -2,-2 -4,-2 -7,-2 -2,0 -6,1 -11,3l-3 -6 47 -19 8 0z"/>
   <path id="4" class="fil6" d="M3343 1536c11,-12 18,-18 20,-20 5,-4 11,-8 17,-10 6,-2 12,-4 18,-4 10,0 18,3 25,9 7,6 12,14 14,25 12,-14 22,-23 30,-27 8,-4 17,-6 25,-6 8,0 16,2 22,6 6,4 12,11 15,21 3,7 4,17 4,31l0 68c0,10 1,17 2,20 1,2 3,5 6,6 3,2 8,3 15,3l0 6 -77 0 0 -6 3 0c7,0 12,-1 16,-4 3,-2 5,-5 6,-9 0,-2 1,-7 1,-17l0 -68c0,-13 -2,-22 -5,-27 -5,-7 -12,-11 -22,-11 -6,0 -12,2 -18,5 -6,3 -14,9 -22,17l0 2 1 7 0 75c0,11 1,17 2,20 1,3 3,5 7,7 3,2 9,3 17,3l0 6 -79 0 0 -6c9,0 15,-1 18,-3 3,-2 5,-5 7,-9 1,-2 1,-8 1,-17l0 -68c0,-13 -2,-22 -6,-28 -5,-7 -12,-11 -21,-11 -6,0 -12,2 -18,5 -9,5 -17,11 -22,17l0 85c0,10 1,17 2,20 1,3 4,5 6,7 3,2 8,2 17,2l0 6 -78 0 0 -6c7,0 12,-1 15,-2 3,-2 5,-4 7,-7 1,-3 2,-10 2,-20l0 -60c0,-17 -1,-28 -2,-34 -1,-4 -2,-6 -4,-8 -2,-1 -4,-2 -7,-2 -3,0 -7,1 -12,3l-3 -6 48 -19 7 0 0 34z"/>
   <path class="fil6" d="M2371 2424l57 -28 6 0 0 197c0,13 1,21 2,25 1,3 3,6 7,7 3,2 11,3 21,3l0 6 -88 0 0 -6c11,0 18,-1 21,-3 3,-2 5,-4 7,-7 1,-3 2,-11 2,-25l0 -126c0,-17 -1,-28 -2,-33 -1,-4 -2,-6 -4,-8 -2,-2 -5,-3 -8,-3 -4,0 -10,2 -18,5l-3 -5z"/>
   <path id="1" class="fil6" d="M3006 2506c11,-12 18,-18 20,-20 5,-4 11,-8 17,-10 6,-2 12,-4 18,-4 10,0 18,3 25,9 7,6 12,14 14,25 12,-14 22,-23 30,-27 8,-4 17,-6 25,-6 8,0 16,2 22,6 6,4 12,11 15,21 3,7 4,17 4,31l0 68c0,10 1,17 2,20 1,2 3,5 6,6 3,2 8,3 15,3l0 6 -77 0 0 -6 3 0c7,0 12,-1 16,-4 3,-2 5,-5 6,-9 0,-2 1,-7 1,-17l0 -68c0,-13 -2,-22 -5,-27 -5,-7 -12,-11 -22,-11 -6,0 -12,2 -18,5 -6,3 -14,9 -22,17l0 2 1 7 0 75c0,11 1,17 2,20 1,3 3,5 7,7 3,2 9,3 17,3l0 6 -79 0 0 -6c9,0 15,-1 18,-3 3,-2 5,-5 7,-9 1,-2 1,-8 1,-17l0 -68c0,-13 -2,-22 -6,-28 -5,-7 -12,-11 -21,-11 -6,0 -12,2 -18,5 -9,5 -17,11 -22,17l0 85c0,10 1,17 2,20 1,3 4,5 6,7 3,2 8,2 17,2l0 6 -78 0 0 -6c7,0 12,-1 15,-2 3,-2 5,-4 7,-7 1,-3 2,-10 2,-20l0 -60c0,-17 -1,-28 -2,-34 -1,-4 -2,-6 -4,-8 -2,-1 -4,-2 -7,-2 -3,0 -7,1 -12,3l-3 -6 48 -19 7 0 0 34z"/>
   <path id="2" class="fil6" d="M3273 2390c5,0 9,2 12,5 3,3 5,8 5,12 0,5 -2,9 -5,12 -3,3 -8,5 -12,5 -5,0 -9,-2 -12,-5 -3,-3 -5,-8 -5,-12 0,-5 2,-9 5,-12 3,-3 8,-5 13,-5zm14 83l0 127c0,10 1,16 2,20 1,3 4,6 6,7 3,2 8,2 15,2l0 6 -77 0 0 -6c8,0 13,-1 15,-2 3,-1 5,-4 6,-7 2,-3 2,-10 2,-20l0 -61c0,-17 -1,-28 -2,-33 -1,-4 -2,-6 -4,-8 -2,-1 -4,-2 -7,-2 -3,0 -7,1 -12,3l-2 -6 47 -19 8 0z"/>
   <path id="3" class="fil6" d="M2519 2519c0,-27 4,-50 12,-69 8,-19 19,-34 32,-43 10,-7 21,-11 32,-11 18,0 34,9 48,27 18,23 27,53 27,92 0,27 -4,50 -12,69 -8,19 -18,33 -30,41 -12,9 -24,13 -35,13 -22,0 -41,-13 -56,-39 -13,-22 -19,-49 -19,-80zm34 4c0,32 4,58 12,79 7,17 16,26 29,26 6,0 13,-3 19,-8 7,-6 12,-15 15,-28 5,-20 8,-48 8,-83 0,-27 -3,-49 -8,-67 -4,-13 -9,-23 -16,-28 -5,-4 -10,-6 -17,-6 -8,0 -15,4 -21,11 -8,10 -14,24 -17,45 -3,20 -4,41 -4,60z"/>
   <path id="4" class="fil6" d="M2696 2519c0,-27 4,-50 12,-69 8,-19 19,-34 32,-43 10,-7 21,-11 32,-11 18,0 34,9 48,27 18,23 27,53 27,92 0,27 -4,50 -12,69 -8,19 -18,33 -30,41 -12,9 -24,13 -35,13 -22,0 -41,-13 -56,-39 -13,-22 -19,-49 -19,-80zm34 4c0,32 4,58 12,79 7,17 16,26 29,26 6,0 13,-3 19,-8 7,-6 12,-15 15,-28 5,-20 8,-48 8,-83 0,-27 -3,-49 -8,-67 -4,-13 -9,-23 -16,-28 -5,-4 -10,-6 -17,-6 -8,0 -15,4 -21,11 -8,10 -14,24 -17,45 -3,20 -4,41 -4,60z"/>
  </g>
  <polygon class="fil7 str3" points="1027,1024 26538,1024 26538,19953 1027,19953 "/>
  <g id="_2197069092944">
   <polygon class="fil2 str1" points="25436,18126 26252,18126 26252,19719 25436,19719 "/>
   <path class="fil8" d="M25784 18562c-1,3 -2,6 -2,9 0,3 -1,5 -1,7 0,6 2,10 5,12 3,2 10,3 18,3l4 0 -5 23 -78 0 5 -23 3 0c7,0 13,-2 16,-5 4,-3 6,-8 8,-16l38 -154c1,-3 1,-6 2,-8 0,-3 1,-6 1,-9 0,-5 -2,-9 -6,-11 -4,-2 -11,-3 -20,-3l-3 0 5 -23 72 0 62 184 31 -129c1,-4 2,-8 2,-10 0,-3 1,-5 1,-6 0,-6 -2,-10 -5,-12 -4,-2 -10,-3 -18,-3l-4 0 5 -23 79 0 -6 23 -3 0c-7,0 -13,2 -16,5 -4,3 -6,8 -8,16l-51 208 -22 0 -72 -209 -37 155z"/>
   <line class="fil9 str4" x1="25845" y1="19585" x2="25845" y2= "18816" />
   <line class="fil9 str4" x1="25563" y1="19309" x2="26126" y2= "19309" />
   <line class="fil9 str4" x1="25700" y1="19449" x2="25994" y2= "19163" />
   <line class="fil9 str4" x1="25697" y1="19162" x2="25995" y2= "19451" />
   <line class="fil9 str4" x1="25845" y1="18819" x2="25749" y2= "18937" />
   <line class="fil9 str4" x1="25845" y1="18819" x2="25933" y2= "18937" />
  </g>
  <g id="_2197069090768">
   <polygon class="fil2 str1" points="24615,19249 24615,19723 22751,19723 22751,19249 "/>
   <path class="fil8" d="M23807 19588l78 -202 29 0 82 202 -30 0 -23 -61 -85 0 -22 61 -28 0zm58 -83l69 0 -21 -56c-6,-17 -11,-31 -14,-42 -3,13 -7,26 -11,39l-22 59z"/>
   <path id="1" class="fil8" d="M24015 19414l0 -28 25 0 0 28 -25 0zm0 174l0 -146 25 0 0 146 -25 0z"/>
   <path id="2" class="fil8" d="M24131 19566l3 22c-7,1 -13,2 -19,2 -9,0 -16,-1 -21,-4 -5,-3 -8,-7 -10,-11 -2,-5 -3,-14 -3,-29l0 -84 -18 0 0 -19 18 0 0 -36 25 -15 0 51 25 0 0 19 -25 0 0 86c0,7 0,12 1,14 1,2 2,4 4,5 2,1 5,2 8,2 3,0 6,0 11,-1z"/>
   <path id="3" class="fil8" d="M24146 19514c0,-27 8,-47 23,-60 13,-11 28,-16 46,-16 20,0 37,7 49,20 13,13 19,31 19,55 0,19 -3,34 -8,44 -6,11 -14,19 -25,25 -11,6 -23,9 -35,9 -21,0 -37,-7 -50,-20 -13,-13 -19,-32 -19,-57zm25 0c0,19 4,33 12,42 8,9 19,14 31,14 12,0 23,-5 31,-14 8,-9 12,-24 12,-43 0,-18 -4,-32 -12,-41 -8,-9 -18,-14 -31,-14 -12,0 -23,5 -31,14 -8,9 -12,23 -12,42z"/>
   <path id="4" class="fil8" d="M24318 19588l0 -127 -22 0 0 -19 22 0 0 -16c0,-10 1,-17 3,-22 2,-6 7,-12 13,-16 6,-4 14,-6 25,-6 7,0 15,1 23,3l-4 22c-5,-1 -10,-1 -15,-1 -8,0 -13,2 -16,5 -3,3 -5,9 -5,18l0 13 29 0 0 19 -28 0 0 127 -25 0z"/>
   <path id="5" class="fil8" d="M24392 19588l0 -127 -22 0 0 -19 22 0 0 -16c0,-10 1,-17 3,-22 2,-6 7,-12 13,-16 6,-4 14,-6 25,-6 7,0 15,1 23,3l-4 22c-5,-1 -10,-1 -15,-1 -8,0 -13,2 -16,5 -3,3 -5,9 -5,18l0 13 29 0 0 19 -28 0 0 127 -25 0z"/>
   <circle class="fil10 str5" cx="22970" cy="19482" r="119"/>
   <rect class="fil10 str5" x="23428" y="19374" width="227" height="227"/>
   <g>
    <line class="fil9 str6" x1="23144" y1="19482" x2="23364" y2= "19482" />
    <line class="fil9 str6" x1="23361" y1="19482" x2="23297" y2= "19548" />
    <line class="fil9 str6" x1="23362" y1="19481" x2="23298" y2= "19420" />
   </g>
  </g>
 </g>
</svg>
