<?xml version="1.0" encoding="UTF-8"?>
<!DOCTYPE svg PUBLIC "-//W3C//DTD SVG 1.1//EN" "http://www.w3.org/Graphics/SVG/1.1/DTD/svg11.dtd">
<!-- Creator: CorelDRAW -->
<svg xmlns="http://www.w3.org/2000/svg" xml:space="preserve" width="297mm" height="210mm" version="1.1" style="shape-rendering:geometricPrecision; text-rendering:geometricPrecision; image-rendering:optimizeQuality; fill-rule:evenodd; clip-rule:evenodd"
viewBox="0 0 29700 21000"
 xmlns:xlink="http://www.w3.org/1999/xlink">
 <defs>
  <style type="text/css">
   <![CDATA[
    .str1 {stroke:black;stroke-width:10;stroke-miterlimit:3.864;stroke-opacity:0.501961}
    .str3 {stroke:black;stroke-width:50;stroke-miterlimit:22.9256}
    .str5 {stroke:#434242;stroke-width:10;stroke-miterlimit:22.9256}
    .str2 {stroke:black;stroke-width:10;stroke-miterlimit:3.864}
    .str0 {stroke:#000066;stroke-width:10;stroke-miterlimit:22.9256}
    .str6 {stroke:#2B2A29;stroke-width:7.62;stroke-miterlimit:22.9256}
    .str4 {stroke:black;stroke-width:7.62;stroke-miterlimit:22.9256}
    .fil6 {fill:none}
    .fil8 {fill:#D9DADA}
    .fil0 {fill:#A2D9F7}
    .fil1 {fill:white}
    .fil5 {fill:#FEFEFE;fill-rule:nonzero}
    .fil4 {fill:#D9DADA;fill-rule:nonzero}
    .fil7 {fill:#434242;fill-rule:nonzero}
    .fil3 {fill:black;fill-rule:nonzero}
    .fil2 {fill:#FEFEFE;fill-rule:nonzero;fill-opacity:0.501961}
   ]]>
  </style>
 </defs>
 <g id="Plan_x0020_1">
  <metadata id="CorelCorpID_0Corel-Layer"/>
  <rect class="fil0" x="1000" y="1000" width="23660.38" height="19000"/>
  <path class="fil1 str0" d="M1088.77 15997.83c5.93,-8.56 17.52,-26.02 16.43,-35.64 -0.52,-4.65 -5.91,-9.21 -3.65,-13.71 2.47,-4.94 8.49,-6.81 11.86,-11.88 6.32,-9.49 10.25,-23.18 14.6,-33.81 5.97,-14.56 15.43,-1.28 22.81,3.65 9.14,6.09 54.74,26.83 45.62,38.39 -10.42,13.22 -22.04,23.01 -28.29,38.38 -3.36,8.24 -8.72,18.99 -14.6,25.59 -13.67,15.36 -26.87,6.36 -39.23,17.36 -4.71,4.18 -7.93,12.38 -15.51,12.8 -11.19,0.63 -27.7,-7.01 -32.85,-17.37l22.81 -23.76zm-88.77 214.76c22.92,11.56 44.12,45.46 76,22.85 50.56,-35.84 29.57,-87.46 52.92,-134.34 5.78,-11.6 67.91,-86.78 77.55,-84.08 58.68,16.45 120.26,93.38 69.35,144.39l-50.18 50.27c-22.2,22.24 -1.97,37.28 4.56,58.48 9.75,31.7 -10.89,76.11 -17.34,107.84 -13.81,67.83 0.71,107.5 -70.26,146.22 -27.52,15.02 -56.5,-2.44 -53.83,42.04 2.95,49 -45.55,34.45 -74.82,17.36l-13.95 0 0 -371.03zm96.98 -534.61c2.72,-8.84 6.04,-22.46 11.86,-29.25 8.74,-10.22 17.53,-16.45 31.03,-16.45 10.48,0 19.97,2.02 19.16,13.71 -0.53,7.56 -3.11,13.44 -7.3,19.19 -2.22,3.04 -7.68,7.15 -10.95,10.06 -4.76,4.23 -6.51,11.06 -10.95,15.53 -9.63,9.67 -25.61,9.56 -37.41,3.66l4.56 -16.45zm23563.4 4322.02l0 -18067.71 -31.78 -4.57c-32.92,0 -43.26,47.97 -61.13,70.37 -28.64,35.88 -67.44,60.09 -114.06,56.66 -29.54,0 -69.9,6.53 -86.68,-21.93 -9.46,-16.04 -1.7,-37.47 -30.11,-37.47 -44.09,0 -102.03,-10.85 -134.13,-42.95 -105.11,-105.11 -61.58,106.01 -180.66,106.01 -105.53,0 -63.17,-77.15 -166.06,38.38 -36.98,41.53 -56.94,27.34 -94.9,42.95 -26.46,10.87 -59.3,67.18 -74.82,90.48 -19.2,28.85 -92,55.26 -122.26,91.39 -43.39,51.82 -82.65,-11.45 -110.41,99.61 -31.75,102.26 -85.99,417.77 -191.61,457.86 -65.42,24.82 -52.83,0.17 -96.72,60.32 -43.68,59.84 -133.22,30.97 -190.7,42.95 -40.3,8.39 -60.4,43.07 -107.67,50.26 -58.95,8.96 -65.62,50.4 -108.58,78.6 -36.21,48.39 -96.19,71.45 -135.04,128.86 -38.32,56.64 -63.73,-1.88 -98.54,39.29 -20.34,24.07 -46.79,59.29 -72.08,77.68 -63.27,46.03 -81.3,-3.14 -114.97,11.88 -23.68,10.57 -26.3,27.52 -47.45,41.13 -25.41,16.36 -53.98,16.97 -82.12,26.5 -102.76,34.79 -185.93,45.73 -296.54,60.32 -53.98,7.12 -127.89,-49.45 -186.14,-59.4 -83.64,25 -88.57,58.24 -173.36,6.39 -70.7,-43.24 -123.81,-54.58 -203.47,-72.19 -33.55,-7.42 -88.79,-50.27 -118.62,-50.27 -21.02,0 -82.77,68.6 -110.41,81.34 -74.96,34.58 -172.16,37.36 -254.57,32.9 -66.21,-4.17 -162.67,-41.15 -218.98,-74.94 -13.62,-8.18 -117.87,-83.24 -65.7,-31.07 18.76,18.76 33.9,27.85 49.28,53.92 34.6,58.67 -54.55,25.88 -83.04,21.93 -89.31,-12.37 -105.2,-76.68 -168.8,-119.72 -30.03,-20.31 -56.89,-55.75 -31.93,-90.47 23.76,-33.03 16.36,-63.95 42.88,-44.78 59.92,43.29 119.44,110.95 175.19,152.61 0,-23.03 -192.64,-203.9 -218.07,-241.26l-83.95 -123.38c0,-14.72 -1.21,-41.07 -8.21,-53.92 -4.78,-8.76 -13.41,-18.99 -16.42,-27.41 -9.54,-26.6 8.07,-37.67 12.77,-59.41 3.09,-14.29 -1.74,-34.13 -2.74,-48.43 -1.43,-20.56 20.11,-36.81 12.78,-54.83 -8.19,-20.11 -37.97,-16.51 -57.49,-13.71l0 1.82c-6.64,1.11 -10.76,44.44 -13.68,53.92 -7.18,23.35 -16.02,48 -28.29,71.29 -35.08,98.32 -53.54,159.01 -139.6,224.81 -27.39,20.93 -46.71,2.62 -73.91,9.14 -17.37,4.17 -35.19,50.11 -45.62,66.72 -27.29,43.41 -91.39,46.17 -135.95,53 -59.55,9.14 -131.17,38.87 -187.97,61.23 -100.12,25.1 -162.85,-28.07 -246.35,-20.1 -73.19,6.99 -101.33,-50.27 -179.76,-50.27 -43.75,0 -76.21,-39.41 -107.66,-65.8 -41.23,-34.58 -153.22,-70.25 -207.13,-76.76 -33.67,-4.07 -24.57,131.62 -61.13,162.67 -62.33,52.96 -261.87,27.44 -261.87,-75.85 0,-45.34 -110.2,24.93 -107.67,23.76 -56.77,17.96 -91.81,-10.43 -150.55,26.5 -39.65,24.94 -81.97,44.18 -127.74,55.75 -99.4,25.15 -225.09,20.95 -312.97,76.76 -58.53,37.16 -110.59,37.28 -177.01,23.76 -89.23,-18.16 -187.64,-57.77 -278.29,-64.88 -91.26,-7.07 -153.46,-66.86 -239.98,-50.26 -62.72,12.04 -163.16,-65.91 -209.86,-102.36 -40.91,-31.94 -81.43,-77.7 -124.09,-102.36 -30.28,-17.49 -52.1,1.63 -81.21,-35.64l-72.08 -92.3c-24.07,-30.81 -65.03,-44.34 -91.24,-74.94 -33.9,-39.59 -84.83,-15.29 -113.16,-63.8 -36.71,-109.95 -161.83,-224.98 -268.26,-269.59 -55.3,-23.17 -137.01,-244.89 -111.31,-293.35 23.02,-43.43 -27.83,-22.85 -44.71,-22.85 -55.63,0 -69.19,-151.13 -61.13,-192.82 -13.32,-88.24 -43.38,-215.45 55.65,-255.89 16.04,-6.55 42.34,-23.14 55.66,-26.5 0,-11.02 0.4,-15.36 -2.74,-24.67 -21.9,0 -42.82,7.78 -63.87,14.62 -29.96,9.73 -29.13,-18.71 -45.62,-22.85 -0.56,-2.29 -0.4,-1.49 -2.73,-1.82 -7.41,-29.51 -112.36,-18.1 -134.13,-12.8 -48.5,37.76 -85.95,-39.7 -135.95,34.73 -28.71,42.72 -87.51,119.43 -137.78,136.16 -78.54,26.13 -300.49,-23.24 -333.95,63.06 -35.18,90.76 -45.12,79.1 -129.56,32.9 -33.94,-18.56 -71.41,3.33 -105.84,0.91 -58.36,-4.1 -79.7,-13.63 -94.9,51.18 -11.27,48.09 -31.95,167.96 -56.57,202.88 -48.52,129.71 -86.09,261.93 -110.4,396.62 -16.03,88.79 -70.63,149.38 -92.16,231.21 -14.45,54.89 -39.68,107.87 -50.18,166.32 -16.61,69.88 -35.83,159.74 -66.61,223.9 -24.82,51.76 -61.21,96.65 -80.29,149.87 -36.39,101.46 -92.65,218.4 -104.02,326.25 0,97.9 -78.85,218.04 -114.05,310.72l-81.21 213.85c-14.21,37.41 -29.1,114.72 -59.3,138.9 -72.11,111.15 -144.03,258.98 -192.53,382 -21.72,55.12 -124.21,296.34 -174.27,308.89 -63.09,84.32 -130.43,209.26 -175.19,305.23 -39.19,84.05 -51.74,163.62 -108.57,244 -33.49,47.35 -77.11,134.37 -122.27,166.33 -110.41,150.21 -246.62,277.69 -385.04,401.18 -46.71,41.66 -68.06,35.06 -119.53,59.41 -51.62,24.41 -94.69,74.76 -156.03,102.35 -38.04,17.1 -80.33,9.19 -111.31,24.67 -47.24,23.62 -73.94,78.35 -120.44,102.36 -35.25,24.37 -56.41,70.81 -94.9,93.21 -11.45,6.67 -64.3,17.67 -69.34,-2.74 -35.11,-8.68 -193.62,151.15 -234.49,183.69 -95.29,75.84 -197.11,23.41 -296.54,73.11 -73.04,36.52 -123.16,103.42 -207.12,126.11 -83.33,21.88 -140.18,83.43 -216.25,108.75 -60.6,20.16 -99.63,21.12 -160.59,47.52l-384.13 166.33c-59.8,25.89 -149.8,43.2 -184.31,96.87 -43.97,68.36 -131.58,136.92 -197.08,187.34 -67.45,44.92 -77.31,12.33 -125.92,-11.88 -17.56,-8.75 -86,43.39 -93.07,59.4 -17.15,38.78 -29.36,28.89 -50.18,53.92l-77.56 93.21c-3.44,4.13 -9.12,77.17 -9.12,93.22l-137.78 192.82c-51.39,71.91 -136.73,213.41 -208.94,256.8 -122.86,151.46 -304.85,249.74 -416.98,399.36 -97.19,129.67 -233.8,240.37 -358.59,348.19 -18.23,11.42 -57.81,37.24 -59.3,62.14 -1.23,20.41 18.43,26.71 20.07,38.38 2.38,0.39 28.45,51.84 31.02,58.49 9.41,24.36 37.41,30.15 37.41,61.23 0,63.65 -47.63,130.78 -91.24,174.55 -52.88,53.09 -6.45,42.86 0.91,87.73 2.68,16.39 2.61,29.4 6.39,44.78l0.91 0.91c7.99,2.01 34.27,20.94 35.59,30.16 26.66,5.28 8.37,65.61 1.82,79.51 -19.74,41.82 -13.07,48.97 -9.12,89.55 3.82,46.61 33.36,48.62 5.47,101.44 -17.38,32.94 -50.16,71.56 -77.56,96.87 -69.69,64.4 -26.3,150.59 -88.5,227.56 -29.43,36.43 -74.71,89.22 -109.49,121.54 -31.19,29 -44.13,83.97 -80.3,105.1l-360.4 443.22c-42.77,52.6 -30.16,37.93 -45.63,102.36 -13.43,55.97 -2.94,144.08 -43.79,190.08 -20.92,37.71 -73.09,118.48 -109.49,142.56 -34.81,23.04 -13.97,54.06 -26.46,86.82 -15.69,41.19 -153.31,165.18 -112.23,206.54 26.07,26.26 61.29,7.43 72.99,60.31 16.61,75.03 -5.84,171.72 -35.58,241.26 -2.3,17.39 -20.14,83.29 -0.92,95.04 21.15,12.94 -0.45,43.36 -12.77,56.66 -30.32,32.71 -36.75,104.44 -23.72,144.4 5.01,0 32.72,12.29 33.76,16.45 14.13,3.49 -24.05,86.14 4.56,93.21 14.24,57.61 8.53,95.83 -16.42,148.05 -7.76,16.26 9.71,39.28 14.59,53.91 6.99,20.92 -1.11,63.21 2.74,87.74 0,40.47 23.49,78.76 -8.21,110.57 -35.3,35.44 12.71,40.74 16.42,55.75 41.72,10.26 -31.02,122.36 -31.02,143.48 0,65.86 -103.6,122.77 -101.28,174.55l5.48 121.54c1.78,0.59 0.04,0.32 1.82,0.91 0.61,2.5 3.39,2.22 4.56,4.57 102.9,0 143.17,-7.27 214.42,90.48 20.79,30.23 62.57,70.59 94.9,87.73 37.7,20 7.33,55.89 51.09,66.71l33.76 147.13c9.72,42.39 81.18,6.59 87.6,31.99 9.15,2.23 10.75,17.67 18.24,20.1 0,74.51 -7.38,177.71 -36.49,249.49 0,59.93 -47.15,149.63 -31.03,201.96 14.27,46.35 -34.72,133.7 -53.83,175.47l-169.71 371.03c-8.75,97.65 -111.52,230.31 -173.36,302.49 -65.75,76.73 -168.74,151.18 -222.63,235.78l-128.66 201.96c-28.32,50.49 -20.72,100.98 -41.97,142.57 -14.8,28.95 -43.05,47.46 -51.09,78.59 -19.48,75.45 -120.76,112.88 -150.55,183.69 -22.28,52.94 -39.26,106.92 -69.35,156.27 -38.6,63.33 -138.15,98 -198,143.47 -140.04,234.31 -290.49,412.12 -513.69,562.95 -66.78,45.13 -173.07,113.14 -245.45,143.47 -66.34,50.03 -600.37,285.56 -600.37,343.62 -39.89,49.97 -56.43,78.92 -107.67,119.72 -27.62,22 -108.22,86.82 -122.26,117.88 -53.86,24.57 -79.38,120.96 -136.87,138.91 -29.31,21.2 -123.18,107.7 -123.18,147.14 0,51.34 -44.68,48.15 -66.6,78.59 -16.34,22.68 -11.58,49.32 -37.41,71.28 -23.78,20.2 -56.98,53.39 -68.43,81.33 -25.34,61.79 -23.26,53.67 -84.86,87.74 -75.24,41.61 -170.74,109.75 -251.83,131.59 -216,75.36 -419.11,144.19 -616.8,257.71 -158.48,90.99 -321.51,167.04 -510.05,184.6l-1093.09 169.07c-46.15,20.23 -91.39,6.17 -132.3,43.87 -23.96,22.07 -51.28,69.72 -76.64,84.07 -51.18,28.94 -33.41,119.19 -62.05,167.24l-75.73 127.03c-43.6,73.14 -108.19,74.86 -177.92,103.26 -44.59,18.15 -105.72,169.78 -116.79,222.07 0,129.15 -69.38,233.46 -99.46,350.93 -25.84,100.87 -59.46,178.28 -104.93,269.93l23194.78 0zm-9955.37 -18995.19c85.33,12.29 194.91,-3.28 262.69,45.79 50.43,36.51 94.33,105.98 118.62,163.58 12.11,28.7 181.58,68.54 222.63,68.54 65.91,0 139.6,71.25 139.6,134.34l0.91 0.92c71.62,0 159.42,-86.86 228.11,-106.93 142.13,-41.52 100.37,-86.29 100.37,-208.36 0,-148.23 134.13,-33.46 134.13,63.06 1.11,0.36 4.97,8.94 5.47,10.97l0.91 0.91c5.06,0 10.04,0.21 14.6,-0.91l0.91 -0.92 11.87 -140.73 17.33 -35.07 -1258.24 0c-29.75,0 -29.14,0.6 0.09,4.81z"/>
  <path class="fil2 str1" d="M1595.62 1232.43l3325.4 0 0 1592.9 -3325.4 0 0 -1592.9z"/>
  <path class="fil3" d="M1198.37 2963.39c0,-17.45 4.47,-34.48 13.46,-51.13 8.93,-16.61 21.77,-29.59 38.43,-38.86 16.69,-9.26 34.1,-13.92 52.16,-13.92 17.92,0 35.18,4.56 51.69,13.74 16.56,9.12 29.4,21.92 38.53,38.43 9.17,16.51 13.73,33.77 13.73,51.74 0,18.01 -4.56,35.27 -13.73,51.78 -9.13,16.51 -21.97,29.35 -38.53,38.53 -16.51,9.17 -33.77,13.78 -51.69,13.78 -18.06,0 -35.47,-4.66 -52.16,-13.97 -16.66,-9.36 -29.5,-22.34 -38.43,-38.95 -8.99,-16.65 -13.46,-33.68 -13.46,-51.17zm17.22 0c0,14.62 3.76,28.88 11.24,42.7 7.48,13.83 18.2,24.65 32.13,32.46 13.92,7.81 28.41,11.71 43.46,11.71 15,0 29.35,-3.85 43.08,-11.52 13.74,-7.67 24.46,-18.39 32.13,-32.17 7.67,-13.79 11.52,-28.18 11.52,-43.18 0,-14.96 -3.85,-29.36 -11.52,-43.14 -7.67,-13.78 -18.39,-24.5 -32.13,-32.12 -13.73,-7.62 -28.08,-11.43 -43.08,-11.43 -15.05,0 -29.54,3.9 -43.46,11.66 -13.93,7.76 -24.65,18.58 -32.13,32.46 -7.48,13.87 -11.24,28.08 -11.24,42.57zm103.57 -33.35l5.08 -16.94c11.53,2.78 20.7,8.61 27.52,17.55 6.87,8.98 10.3,19.85 10.3,32.59 0,16.19 -5.22,29.31 -15.71,39.42 -10.49,10.11 -24.98,15.15 -43.55,15.15 -12.14,0 -22.68,-2.31 -31.61,-6.92 -8.99,-4.56 -15.71,-11.15 -20.28,-19.61 -4.56,-8.52 -6.82,-18.25 -6.82,-29.16 0,-12.23 2.92,-22.39 8.8,-30.48 5.88,-8.09 13.88,-13.6 23.94,-16.56l4.23 16.37c-6.91,2.77 -12.23,6.82 -15.89,12.23 -3.72,5.41 -5.55,11.71 -5.55,19 0,10.58 3.76,19.33 11.28,26.2 7.53,6.87 18.35,10.3 32.37,10.3 14.06,0 24.69,-3.24 31.89,-9.74 7.19,-6.49 10.81,-14.86 10.81,-25.16 0,-8.28 -2.39,-15.57 -7.24,-21.83 -4.8,-6.25 -11.33,-10.39 -19.57,-12.41z"/>
  <path id="1" class="fil3" d="M1403.83 2668.23l-18.58 0c14.44,9.27 21.68,22.91 21.68,40.92 0,11.67 -3.19,22.39 -9.64,32.13 -6.4,9.78 -15.38,17.35 -26.86,22.76 -11.52,5.37 -24.74,8.05 -39.69,8.05 -14.59,0 -27.8,-2.45 -39.7,-7.29 -11.86,-4.9 -20.98,-12.19 -27.29,-21.92 -6.35,-9.69 -9.5,-20.61 -9.5,-32.6 0,-8.84 1.88,-16.7 5.6,-23.56 3.72,-6.87 8.61,-12.47 14.58,-16.8l-72.67 0 0 -24.83 202.07 0 0 23.14zm-73.05 78.46c18.72,0 32.69,-3.95 41.96,-11.9 9.26,-7.91 13.87,-17.27 13.87,-28.04 0,-10.86 -4.42,-20.08 -13.26,-27.7 -8.84,-7.57 -22.34,-11.38 -40.5,-11.38 -19.94,0 -34.62,3.85 -43.98,11.61 -9.36,7.72 -14.01,17.27 -14.01,28.6 0,11.06 4.46,20.27 13.45,27.71 8.98,7.38 23.14,11.1 42.47,11.1z"/>
  <path id="2" class="fil3" d="M1343.15 2615.69l-24.83 0 0 -76.76 24.83 0 0 76.76z"/>
  <path id="3" class="fil3" d="M1403.83 2511.83l-146.47 0 0 -22.29 20.69 0c-7.15,-4.56 -12.93,-10.68 -17.26,-18.3 -4.37,-7.62 -6.54,-16.27 -6.54,-26.01 0,-10.82 2.26,-19.71 6.73,-26.62 4.52,-6.92 10.77,-11.81 18.86,-14.63 -17.07,-11.67 -25.59,-26.77 -25.59,-45.39 0,-14.58 4,-25.83 12.04,-33.63 8.05,-7.86 20.42,-11.81 37.12,-11.81l100.42 0 0 24.84 -92.19 0c-9.88,0 -17.03,0.84 -21.4,2.44 -4.38,1.6 -7.86,4.52 -10.54,8.8 -2.68,4.23 -4,9.22 -4,14.91 0,10.35 3.44,18.91 10.26,25.73 6.86,6.82 17.82,10.2 32.87,10.2l85 0 0 24.84 -95.06 0c-11.01,0 -19.29,2.02 -24.79,6.07 -5.5,4.04 -8.28,10.67 -8.28,19.85 0,6.96 1.84,13.4 5.51,19.33 3.66,5.93 9.03,10.21 16.13,12.89 7.05,2.63 17.26,3.95 30.57,3.95l75.92 0 0 24.83z"/>
  <path id="4" class="fil3" d="M1385.49 2181.07c7.85,9.22 13.35,18.11 16.6,26.62 3.25,8.52 4.84,17.64 4.84,27.43 0,16.08 -3.9,28.45 -11.75,37.11 -7.81,8.65 -17.83,12.98 -30.01,12.98 -7.15,0 -13.69,-1.65 -19.62,-4.89 -5.93,-3.29 -10.63,-7.57 -14.2,-12.84 -3.58,-5.32 -6.31,-11.24 -8.14,-17.88 -1.27,-4.89 -2.49,-12.27 -3.72,-22.1 -2.35,-20.04 -5.22,-34.86 -8.51,-44.31 -3.39,-0.1 -5.55,-0.14 -6.44,-0.14 -10.07,0 -17.17,2.35 -21.31,7.05 -5.6,6.35 -8.37,15.81 -8.37,28.32 0,11.71 2.07,20.36 6.16,25.92 4.09,5.59 11.38,9.68 21.78,12.37l-3.39 24.27c-10.4,-2.21 -18.82,-5.84 -25.21,-10.92 -6.4,-5.08 -11.29,-12.41 -14.77,-22.01 -3.44,-9.55 -5.18,-20.7 -5.18,-33.3 0,-12.51 1.46,-22.72 4.42,-30.57 2.97,-7.81 6.64,-13.6 11.11,-17.27 4.46,-3.67 10.11,-6.25 16.93,-7.76 4.23,-0.8 11.85,-1.22 22.81,-1.22l32.93 0c23,0 37.53,-0.52 43.69,-1.55 6.17,-0.99 12.05,-3.06 17.69,-6.07l0 25.96c-5.22,2.5 -11.34,4.1 -18.34,4.8zm-55.04 1.98c3.67,9.03 6.78,22.57 9.32,40.64 1.45,10.25 3.1,17.49 4.93,21.73 1.84,4.23 4.52,7.48 8,9.78 3.53,2.31 7.43,3.48 11.76,3.48 6.54,0 12.04,-2.49 16.42,-7.52 4.37,-5.04 6.58,-12.38 6.58,-22.02 0,-9.55 -2.07,-18.06 -6.25,-25.54 -4.14,-7.43 -9.84,-12.93 -17.03,-16.41 -5.6,-2.69 -13.83,-4 -24.7,-4l-9.03 -0.14z"/>
  <path id="5" class="fil3" d="M1459.99 2119.78l-202.63 0 0 -22.57 19.24 0c-7.44,-5.32 -13.03,-11.34 -16.75,-18.07 -3.72,-6.68 -5.6,-14.81 -5.6,-24.36 0,-12.51 3.2,-23.52 9.65,-33.07 6.39,-9.55 15.47,-16.74 27.14,-21.63 11.71,-4.85 24.5,-7.3 38.47,-7.3 14.91,0 28.37,2.69 40.36,8.05 11.95,5.36 21.12,13.17 27.52,23.42 6.35,10.21 9.54,20.98 9.54,32.27 0,8.28 -1.74,15.71 -5.22,22.25 -3.48,6.58 -7.85,11.94 -13.17,16.18l71.45 0 0 24.83zm-128.5 -22.57c18.77,0 32.69,-3.81 41.67,-11.39 8.99,-7.62 13.45,-16.84 13.45,-27.65 0,-11.01 -4.65,-20.42 -13.97,-28.23 -9.31,-7.85 -23.7,-11.76 -43.22,-11.76 -18.63,0 -32.55,3.81 -41.82,11.48 -9.26,7.67 -13.87,16.79 -13.87,27.42 0,10.54 4.94,19.85 14.77,27.94 9.87,8.14 24.17,12.19 42.99,12.19z"/>
  <path id="6" class="fil3" d="M1360.09 1972.7l-3.96 -24.55c9.84,-1.37 17.36,-5.22 22.63,-11.53 5.22,-6.3 7.85,-15.14 7.85,-26.43 0,-11.43 -2.3,-19.9 -6.96,-25.45 -4.61,-5.5 -10.06,-8.28 -16.32,-8.28 -5.6,0 -10.02,2.5 -13.22,7.44 -2.21,3.48 -4.98,11.94 -8.42,25.4 -4.56,18.15 -8.51,30.71 -11.85,37.77 -3.39,7 -7.99,12.32 -13.92,15.94 -5.88,3.62 -12.42,5.46 -19.57,5.46 -6.54,0 -12.56,-1.51 -18.11,-4.47 -5.55,-3.01 -10.16,-7.06 -13.83,-12.18 -2.82,-3.86 -5.22,-9.13 -7.19,-15.76 -1.98,-6.68 -2.97,-13.78 -2.97,-21.4 0,-11.48 1.65,-21.54 4.99,-30.2 3.29,-8.7 7.81,-15.1 13.45,-19.24 5.69,-4.09 13.27,-6.96 22.77,-8.51l3.38 24.27c-7.62,1.08 -13.59,4.28 -17.87,9.55 -4.28,5.27 -6.4,12.7 -6.4,22.34 0,11.34 1.88,19.47 5.65,24.32 3.76,4.84 8.18,7.29 13.21,7.29 3.2,0 6.12,-0.99 8.71,-3.01 2.63,-2.02 4.84,-5.18 6.58,-9.5 0.94,-2.5 3.06,-9.74 6.35,-21.87 4.66,-17.5 8.52,-29.73 11.48,-36.69 2.96,-6.96 7.34,-12.42 12.98,-16.37 5.69,-4 12.75,-5.98 21.21,-5.98 8.24,0 16,2.4 23.29,7.25 7.29,4.84 12.93,11.8 16.93,20.88 4,9.13 5.97,19.43 5.97,30.91 0,19 -3.95,33.53 -11.8,43.5 -7.9,9.98 -19.57,16.33 -35.04,19.1z"/>
  <path id="7" class="fil3" d="M1403.83 1814.66l-28.22 0 0 -28.22 28.22 0 0 28.22z"/>
  <path id="8" class="fil3" d="M1350.21 1647.63l3.38 -24.27c16.7,2.68 29.73,9.45 39.19,20.41 9.45,10.96 14.15,24.46 14.15,40.41 0,19.99 -6.53,36.08 -19.61,48.21 -13.08,12.18 -31.8,18.25 -56.16,18.25 -15.81,0 -29.59,-2.63 -41.39,-7.85 -11.86,-5.22 -20.75,-13.17 -26.63,-23.9 -5.92,-10.68 -8.89,-22.29 -8.89,-34.9 0,-15.85 4,-28.88 12.04,-38.95 8.05,-10.11 19.48,-16.6 34.25,-19.42l3.67 23.99c-9.83,2.3 -17.22,6.35 -22.2,12.23 -4.94,5.83 -7.44,12.88 -7.44,21.16 0,12.51 4.47,22.67 13.41,30.53 8.98,7.81 23.09,11.71 42.47,11.71 19.66,0 33.92,-3.76 42.81,-11.29 8.89,-7.57 13.35,-17.4 13.35,-29.49 0,-9.78 -2.96,-17.92 -8.93,-24.41 -5.93,-6.54 -15.1,-10.68 -27.47,-12.42z"/>
  <path id="9" class="fil3" d="M1330.59 1611.51c-27.04,0 -47.08,-7.53 -60.11,-22.63 -10.82,-12.56 -16.23,-27.94 -16.23,-46.05 0,-20.08 6.59,-36.54 19.76,-49.34 13.12,-12.75 31.33,-19.14 54.51,-19.14 18.82,0 33.59,2.82 44.36,8.46 10.77,5.65 19.14,13.88 25.12,24.7 5.97,10.77 8.93,22.58 8.93,35.32 0,20.51 -6.53,37.07 -19.66,49.72 -13.12,12.65 -32.03,18.96 -56.68,18.96zm0.05 -25.4c18.72,0 32.74,-4.1 42,-12.28 9.32,-8.23 13.97,-18.53 13.97,-31 0,-12.32 -4.65,-22.57 -14.01,-30.81 -9.36,-8.18 -23.61,-12.27 -42.76,-12.27 -18.06,0 -31.75,4.14 -41.01,12.37 -9.32,8.23 -13.97,18.48 -13.97,30.71 0,12.47 4.61,22.77 13.87,31 9.27,8.18 23.24,12.28 41.91,12.28z"/>
  <path id="10" class="fil3" d="M1403.83 1445.23l-146.47 0 0 -22.29 20.69 0c-7.15,-4.56 -12.93,-10.68 -17.26,-18.3 -4.37,-7.62 -6.54,-16.27 -6.54,-26.01 0,-10.82 2.26,-19.71 6.73,-26.62 4.52,-6.92 10.77,-11.81 18.86,-14.63 -17.07,-11.67 -25.59,-26.77 -25.59,-45.39 0,-14.58 4,-25.83 12.04,-33.63 8.05,-7.86 20.42,-11.81 37.12,-11.81l100.42 0 0 24.84 -92.19 0c-9.88,0 -17.03,0.84 -21.4,2.44 -4.38,1.6 -7.86,4.52 -10.54,8.8 -2.68,4.23 -4,9.22 -4,14.91 0,10.35 3.44,18.91 10.26,25.73 6.86,6.82 17.82,10.2 32.87,10.2l85 0 0 24.84 -95.06 0c-11.01,0 -19.29,2.02 -24.79,6.07 -5.5,4.04 -8.28,10.67 -8.28,19.85 0,6.96 1.84,13.4 5.51,19.33 3.66,5.93 9.03,10.21 16.13,12.89 7.05,2.63 17.26,3.95 30.57,3.95l75.92 0 0 24.83z"/>
  <g id="_1719324082000">
   <path class="fil4 str2" d="M1739.19 1821.52l948.29 0 0 99.16 -948.29 0 0 -99.16z"/>
   <path class="fil5 str2" d="M2687.48 1821.52l948.29 0 0 99.16 -948.29 0 0 -99.16z"/>
   <path class="fil4 str2" d="M3635.76 1821.52l948.3 0 0 99.16 -948.3 0 0 -99.16z"/>
   <path class="fil4 str2" d="M3259.2 2120.46l1516.69 0 0 99.16 -1516.69 0 0 -99.16z"/>
   <path class="fil5 str2" d="M1742.51 2120.46l1516.7 0 0 99.16 -1516.7 0 0 -99.16z"/>
   <path class="fil3" d="M2702.29 1445.2l57.09 -27.52 5.71 0 0 197.2c0,13.12 0.53,21.35 1.64,24.58 1.12,3.18 3.36,5.71 6.82,7.41 3.47,1.71 10.53,2.7 21.17,2.94l0 6.35 -88.19 0 0 -6.35c11.05,-0.24 18.16,-1.18 21.34,-2.88 3.23,-1.65 5.47,-3.88 6.76,-6.7 1.24,-2.83 1.88,-11.29 1.88,-25.35l0 -126.29c0,-16.99 -0.59,-27.93 -1.7,-32.75 -0.83,-3.7 -2.3,-6.41 -4.41,-8.11 -2.18,-1.71 -4.71,-2.59 -7.71,-2.59 -4.29,0 -10.23,1.76 -17.81,5.35l-2.59 -5.29z"/>
   <path id="1" class="fil3" d="M3336.6 1410.98l0 157.16 39.98 -36.63c8.52,-7.82 13.46,-12.76 14.81,-14.82 0.95,-1.41 1.42,-2.76 1.42,-4.17 0,-2.29 -1,-4.23 -2.89,-5.94 -1.88,-1.65 -4.99,-2.59 -9.4,-2.82l0 -5.65 68.61 0 0 5.65c-9.35,0.23 -17.17,1.7 -23.4,4.35 -6.23,2.7 -13.05,7.47 -20.52,14.29l-40.63 37.22 40.34 51.33c11.29,14.05 18.81,23.04 22.58,26.98 5.58,5.24 10.4,8.65 14.58,10.17 2.94,1.12 7.99,1.71 15.17,1.71l0 6.35 -76.73 0 0 -6.35c4.41,-0.12 7.35,-0.76 8.88,-1.94 1.58,-1.24 2.35,-2.88 2.35,-5.06 0,-2.64 -2.3,-6.88 -6.88,-12.7l-48.27 -61.79 0 52.21c0,10.23 0.7,16.93 2.11,20.17 1.47,3.17 3.47,5.46 6.12,6.88 2.64,1.35 8.35,2.11 17.17,2.23l0 6.35 -80.08 0 0 -6.35c7.99,0 14.05,-1 18.05,-2.94 2.41,-1.23 4.23,-3.17 5.46,-5.76 1.71,-3.76 2.59,-10.29 2.59,-19.52l0 -143.94c0,-18.05 -0.41,-29.1 -1.18,-33.16 -0.82,-4.05 -2.11,-6.82 -3.99,-8.35 -1.83,-1.58 -4.24,-2.35 -7.18,-2.35 -2.41,0 -6.05,1 -10.82,2.94l-2.93 -6.35 46.74 -19.4 7.94 0z"/>
   <path id="2" class="fil3" d="M3513.34 1527.28c11.41,-11.53 18.17,-18.17 20.22,-19.93 5.12,-4.36 10.65,-7.77 16.59,-10.18 5.93,-2.41 11.81,-3.64 17.63,-3.64 9.88,0 18.29,2.88 25.4,8.64 7.06,5.76 11.82,14.11 14.17,25.11 11.88,-13.88 21.88,-22.93 30.05,-27.28 8.17,-4.3 16.58,-6.47 25.22,-6.47 8.35,0 15.82,2.17 22.35,6.47 6.46,4.29 11.64,11.34 15.4,21.16 2.53,6.65 3.82,17.11 3.82,31.4l0 67.97c0,9.82 0.71,16.58 2.18,20.23 1.12,2.46 3.23,4.64 6.23,6.4 3.06,1.77 8,2.65 14.88,2.65l0 6.35 -77.26 0 0 -6.35 3.29 0c6.7,0 11.99,-1.29 15.76,-3.94 2.64,-1.82 4.52,-4.76 5.64,-8.76 0.47,-1.94 0.71,-7.47 0.71,-16.58l0 -67.91c0,-12.88 -1.53,-21.93 -4.65,-27.22 -4.52,-7.35 -11.7,-11.06 -21.63,-11.06 -6.06,0 -12.23,1.53 -18.41,4.59 -6.11,3 -13.58,8.7 -22.34,16.93l-0.35 1.94 0.7 7.41 0 75.32c0,10.7 0.59,17.4 1.77,20.05 1.23,2.59 3.46,4.82 6.76,6.58 3.29,1.77 8.93,2.65 16.87,2.65l0 6.35 -79.37 0 0 -6.35c8.64,0 14.58,-1 17.81,-3.06 3.24,-2.06 5.47,-5.17 6.7,-9.29 0.59,-1.94 0.89,-7.58 0.89,-16.93l0 -67.91c0,-12.88 -1.88,-22.17 -5.65,-27.87 -5.05,-7.41 -12.05,-11.11 -21.11,-11.11 -6.17,0 -12.28,1.7 -18.34,5.05 -9.47,5.06 -16.82,10.82 -21.93,17.17l0 84.67c0,10.29 0.7,16.93 2.12,20.05 1.41,3.06 3.52,5.35 6.35,6.94 2.76,1.53 8.4,2.29 16.93,2.29l0 6.35 -77.97 0 0 -6.35c7.24,0 12.29,-0.76 15.17,-2.29 2.89,-1.59 5.06,-4 6.59,-7.41 1.47,-3.35 2.23,-9.88 2.23,-19.58l0 -60.33c0,-17.28 -0.53,-28.45 -1.53,-33.51 -0.82,-3.82 -2.05,-6.41 -3.82,-7.82 -1.7,-1.47 -4.05,-2.18 -6.99,-2.18 -3.24,0 -7.06,0.89 -11.53,2.59l-2.58 -6.35 47.62 -19.4 7.41 0 0 33.75z"/>
   <path id="3" class="fil3" d="M2990.87 1422.27l-13.47 29.28 -70.55 0 -15.47 31.28c30.81,4.52 55.04,15.81 72.79,33.98 15.23,15.64 22.82,33.99 22.82,55.15 0,12.29 -2.47,23.7 -7.47,34.11 -5,10.46 -11.29,19.4 -18.87,26.75 -7.53,7.35 -16,13.29 -25.29,17.75 -13.17,6.3 -26.69,9.47 -40.57,9.47 -13.99,0 -24.16,-2.35 -30.57,-7.11 -6.35,-4.71 -9.53,-9.94 -9.53,-15.64 0,-3.18 1.3,-6 3.94,-8.47 2.65,-2.47 6,-3.65 10,-3.65 2.94,0 5.58,0.42 7.82,1.36 2.23,0.88 6,3.23 11.4,6.99 8.59,5.94 17.35,8.88 26.17,8.88 13.4,0 25.22,-5.11 35.39,-15.29 10.12,-10.17 15.23,-22.57 15.23,-37.21 0,-14.12 -4.52,-27.34 -13.58,-39.57 -9.11,-12.29 -21.58,-21.76 -37.57,-28.4 -12.46,-5.18 -29.52,-8.18 -51.09,-9l44.8 -90.66 83.67 0z"/>
   <path id="4" class="fil3" d="M3026.85 1540.57c0,-26.64 4,-49.51 12.05,-68.74 8.06,-19.22 18.7,-33.57 32.05,-42.98 10.29,-7.47 20.99,-11.17 31.98,-11.17 17.94,0 33.99,9.11 48.22,27.34 17.81,22.64 26.69,53.27 26.69,91.96 0,27.05 -3.88,50.09 -11.7,69.03 -7.82,18.93 -17.76,32.63 -29.87,41.21 -12.11,8.53 -23.81,12.82 -35.04,12.82 -22.29,0 -40.81,-13.11 -55.62,-39.39 -12.53,-22.17 -18.76,-48.86 -18.76,-80.08zm33.87 4.23c0,32.1 3.94,58.33 11.82,78.67 6.52,17.11 16.28,25.63 29.22,25.63 6.17,0 12.58,-2.76 19.22,-8.34 6.65,-5.59 11.65,-14.88 15.11,-27.99 5.24,-19.7 7.88,-47.57 7.88,-83.43 0,-26.64 -2.76,-48.86 -8.23,-66.62 -4.11,-13.23 -9.46,-22.58 -15.99,-28.05 -4.65,-3.82 -10.35,-5.7 -16.99,-5.7 -7.76,0 -14.7,3.53 -20.76,10.52 -8.23,9.53 -13.87,24.46 -16.81,44.92 -3,20.41 -4.47,40.52 -4.47,60.39z"/>
   <path class="fil3" d="M2840.96 2414.98l57.09 -27.52 5.71 0 0 197.2c0,13.12 0.53,21.35 1.64,24.58 1.12,3.18 3.36,5.71 6.82,7.41 3.47,1.71 10.53,2.7 21.17,2.94l0 6.35 -88.19 0 0 -6.35c11.05,-0.24 18.16,-1.18 21.34,-2.88 3.23,-1.65 5.47,-3.88 6.76,-6.7 1.24,-2.83 1.88,-11.29 1.88,-25.35l0 -126.29c0,-16.99 -0.59,-27.93 -1.7,-32.75 -0.83,-3.7 -2.3,-6.41 -4.41,-8.11 -2.18,-1.71 -4.71,-2.59 -7.71,-2.59 -4.29,0 -10.23,1.76 -17.81,5.35l-2.59 -5.29z"/>
   <path id="1" class="fil3" d="M3475.62 2497.06c11.41,-11.53 18.17,-18.17 20.22,-19.93 5.12,-4.36 10.65,-7.77 16.59,-10.18 5.93,-2.41 11.81,-3.64 17.63,-3.64 9.88,0 18.29,2.88 25.4,8.64 7.06,5.76 11.82,14.11 14.17,25.11 11.88,-13.88 21.88,-22.93 30.05,-27.28 8.17,-4.3 16.58,-6.47 25.22,-6.47 8.35,0 15.82,2.17 22.35,6.47 6.46,4.29 11.64,11.34 15.4,21.16 2.53,6.65 3.82,17.11 3.82,31.4l0 67.97c0,9.82 0.71,16.58 2.18,20.23 1.12,2.46 3.23,4.64 6.23,6.4 3.06,1.77 8,2.65 14.88,2.65l0 6.35 -77.26 0 0 -6.35 3.29 0c6.7,0 11.99,-1.29 15.76,-3.94 2.64,-1.82 4.52,-4.76 5.64,-8.76 0.47,-1.94 0.71,-7.47 0.71,-16.58l0 -67.91c0,-12.88 -1.53,-21.93 -4.65,-27.22 -4.52,-7.35 -11.7,-11.06 -21.63,-11.06 -6.06,0 -12.23,1.53 -18.41,4.59 -6.11,3 -13.58,8.7 -22.34,16.93l-0.35 1.94 0.7 7.41 0 75.32c0,10.7 0.59,17.4 1.77,20.05 1.23,2.59 3.46,4.82 6.76,6.58 3.29,1.77 8.93,2.65 16.87,2.65l0 6.35 -79.37 0 0 -6.35c8.64,0 14.58,-1 17.81,-3.06 3.24,-2.06 5.47,-5.17 6.7,-9.29 0.59,-1.94 0.89,-7.58 0.89,-16.93l0 -67.91c0,-12.88 -1.88,-22.17 -5.65,-27.87 -5.05,-7.41 -12.05,-11.11 -21.11,-11.11 -6.17,0 -12.28,1.7 -18.34,5.05 -9.47,5.06 -16.82,10.82 -21.93,17.17l0 84.67c0,10.29 0.7,16.93 2.12,20.05 1.41,3.06 3.52,5.35 6.35,6.94 2.76,1.53 8.4,2.29 16.93,2.29l0 6.35 -77.97 0 0 -6.35c7.24,0 12.29,-0.76 15.17,-2.29 2.89,-1.59 5.06,-4 6.59,-7.41 1.47,-3.35 2.23,-9.88 2.23,-19.58l0 -60.33c0,-17.28 -0.53,-28.45 -1.53,-33.51 -0.82,-3.82 -2.05,-6.41 -3.82,-7.82 -1.7,-1.47 -4.05,-2.18 -6.99,-2.18 -3.24,0 -7.06,0.89 -11.53,2.59l-2.58 -6.35 47.62 -19.4 7.41 0 0 33.75z"/>
   <path id="2" class="fil3" d="M3743.26 2380.76c4.76,0 8.88,1.7 12.29,5.05 3.35,3.41 5.05,7.53 5.05,12.29 0,4.82 -1.7,9 -5.05,12.41 -3.41,3.47 -7.53,5.17 -12.29,5.17 -4.82,0 -9,-1.7 -12.41,-5.17 -3.47,-3.41 -5.17,-7.59 -5.17,-12.41 0,-4.76 1.7,-8.88 5.05,-12.29 3.41,-3.35 7.59,-5.05 12.53,-5.05zm14.17 82.55l0 127c0,9.82 0.7,16.34 2.17,19.58 1.41,3.29 3.53,5.7 6.35,7.29 2.82,1.59 8,2.41 15.47,2.41l0 6.35 -76.56 0 0 -6.35c7.65,0 12.82,-0.76 15.41,-2.23 2.64,-1.47 4.7,-3.94 6.29,-7.35 1.53,-3.41 2.29,-10 2.29,-19.7l0 -61.03c0,-16.99 -0.53,-27.99 -1.53,-33.05 -0.82,-3.64 -2.05,-6.17 -3.82,-7.58 -1.7,-1.47 -4.06,-2.18 -7,-2.18 -3.23,0 -7.11,0.89 -11.7,2.59l-2.41 -6.35 47.45 -19.4 7.59 0z"/>
   <path id="3" class="fil3" d="M2989.13 2510.35c0,-26.64 4,-49.51 12.05,-68.74 8.06,-19.22 18.7,-33.57 32.05,-42.98 10.29,-7.47 20.99,-11.17 31.98,-11.17 17.94,0 33.99,9.11 48.22,27.34 17.81,22.64 26.69,53.27 26.69,91.96 0,27.05 -3.88,50.09 -11.7,69.03 -7.82,18.93 -17.76,32.63 -29.87,41.21 -12.11,8.53 -23.81,12.82 -35.04,12.82 -22.29,0 -40.81,-13.11 -55.62,-39.39 -12.53,-22.17 -18.76,-48.86 -18.76,-80.08zm33.87 4.23c0,32.1 3.94,58.33 11.82,78.67 6.52,17.11 16.28,25.63 29.22,25.63 6.17,0 12.58,-2.76 19.22,-8.34 6.65,-5.59 11.65,-14.88 15.11,-27.99 5.24,-19.7 7.88,-47.57 7.88,-83.43 0,-26.64 -2.76,-48.86 -8.23,-66.62 -4.11,-13.23 -9.46,-22.58 -15.99,-28.05 -4.65,-3.82 -10.35,-5.7 -16.99,-5.7 -7.76,0 -14.7,3.53 -20.76,10.52 -8.23,9.53 -13.87,24.46 -16.81,44.92 -3,20.41 -4.47,40.52 -4.47,60.39z"/>
   <path id="4" class="fil3" d="M3165.52 2510.35c0,-26.64 4,-49.51 12.05,-68.74 8.06,-19.22 18.7,-33.57 32.05,-42.98 10.29,-7.47 20.99,-11.17 31.98,-11.17 17.94,0 33.99,9.11 48.22,27.34 17.81,22.64 26.69,53.27 26.69,91.96 0,27.05 -3.88,50.09 -11.7,69.03 -7.82,18.93 -17.76,32.63 -29.87,41.21 -12.11,8.53 -23.81,12.82 -35.04,12.82 -22.29,0 -40.81,-13.11 -55.62,-39.39 -12.53,-22.17 -18.76,-48.86 -18.76,-80.08zm33.87 4.23c0,32.1 3.94,58.33 11.82,78.67 6.52,17.11 16.28,25.63 29.22,25.63 6.17,0 12.58,-2.76 19.22,-8.34 6.65,-5.59 11.65,-14.88 15.11,-27.99 5.24,-19.7 7.88,-47.57 7.88,-83.43 0,-26.64 -2.76,-48.86 -8.23,-66.62 -4.11,-13.23 -9.46,-22.58 -15.99,-28.05 -4.65,-3.82 -10.35,-5.7 -16.99,-5.7 -7.76,0 -14.7,3.53 -20.76,10.52 -8.23,9.53 -13.87,24.46 -16.81,44.92 -3,20.41 -4.47,40.52 -4.47,60.39z"/>
  </g>
  <rect class="fil6 str3" x="1000" y="1000" width="23660.38" height="19000"/>
  <g id="_1719324076656">
   <path class="fil2 str1" d="M5066.46 1239.44l815.93 0 0 1592.89 -815.93 0 0 -1592.89z"/>
   <path class="fil7" d="M5414.56 1675.57c-0.92,3.32 -1.63,6.35 -2.07,9.15 -0.44,2.79 -0.65,5.18 -0.65,7.22 0,5.59 1.8,9.56 5.29,11.89 3.49,2.33 9.55,3.49 18.05,3.49l4.15 0 -4.96 22.72 -78.17 0 5.29 -22.72 2.89 0c7.36,0 12.82,-1.51 16.48,-4.54 3.6,-2.97 6.32,-8.39 8.12,-16.14l37.59 -153.79c0.6,-2.74 1.14,-5.54 1.52,-8.45 0.33,-2.91 0.55,-5.77 0.55,-8.62 0,-5.36 -1.96,-9.15 -5.95,-11.36 -3.92,-2.22 -10.69,-3.32 -20.23,-3.32l-3.06 0 5.29 -22.72 72.33 0 62.14 183.5 31.31 -129.03c1.08,-4.2 1.85,-7.63 2.34,-10.31 0.49,-2.68 0.71,-4.72 0.71,-6.06 0,-5.6 -1.8,-9.56 -5.35,-11.89 -3.6,-2.33 -9.71,-3.49 -18.32,-3.49l-4.15 0 4.96 -22.72 78.5 0 -5.62 22.72 -2.84 0c-7.37,0 -12.87,1.51 -16.47,4.54 -3.66,2.97 -6.33,8.33 -8.18,15.96l-50.68 208.44 -21.54 0 -72.06 -209.48 -37.21 155.01z"/>
   <path class="fil6 str4" d="M5475.25 2699.13l0 -769.27"/>
   <path class="fil6 str4" d="M5193.2 2423.08l563.14 0"/>
   <path class="fil6 str4" d="M5330.35 2563.07l294.22 -286.81"/>
   <path class="fil6 str4" d="M5327.21 2276.02l297.98 288.85"/>
   <path class="fil6 str4" d="M5475.11 1932.59l-95.47 118.01"/>
   <path class="fil6 str4" d="M5475.73 1932.55l87.89 118.05"/>
  </g>
  <g id="_1719324074544">
   <path class="fil2 str1" d="M8952.46 1239.44l0 473.7 -2309.37 0 0 -473.7 2309.37 0z"/>
   <path class="fil7" d="M7720.43 1577.91l0 -202.07 40.07 0 47.79 143.04c4.42,13.31 7.62,23.28 9.64,29.91 2.31,-7.33 5.93,-18.15 10.82,-32.4l48.64 -140.55 35.79 0 0 202.07 -25.68 0 0 -169.05 -58.98 169.05 -24.09 0 -58.32 -172.15 0 172.15 -25.68 0z"/>
   <path id="1" class="fil7" d="M8052.88 1530.5l25.68 3.38c-3.99,14.91 -11.47,26.53 -22.39,34.76 -10.91,8.24 -24.83,12.37 -41.81,12.37 -21.36,0 -38.29,-6.58 -50.8,-19.75 -12.51,-13.12 -18.77,-31.61 -18.77,-55.36 0,-24.56 6.31,-43.65 18.96,-57.2 12.65,-13.59 29.07,-20.37 49.25,-20.37 19.52,0 35.46,6.64 47.83,19.95 12.37,13.31 18.58,32.03 18.58,56.16 0,1.46 -0.05,3.67 -0.14,6.58l-109.08 0c0.94,16.04 5.46,28.37 13.64,36.88 8.14,8.51 18.35,12.79 30.53,12.79 9.08,0 16.84,-2.39 23.24,-7.19 6.44,-4.8 11.52,-12.47 15.28,-23zm-81.28 -39.8l81.56 0c-1.08,-12.32 -4.23,-21.54 -9.36,-27.7 -7.85,-9.55 -18.1,-14.35 -30.66,-14.35 -11.39,0 -20.93,3.81 -28.7,11.43 -7.71,7.62 -11.99,17.83 -12.84,30.62z"/>
   <path id="2" class="fil7" d="M8109.65 1577.91l0 -146.47 22.3 0 0 22.43c5.69,-10.39 10.96,-17.26 15.8,-20.55 4.85,-3.34 10.16,-4.99 15.95,-4.99 8.37,0 16.89,2.64 25.54,7.86l-8.84 22.91c-6.02,-3.39 -12.04,-5.08 -18.06,-5.08 -5.41,0 -10.26,1.64 -14.54,4.89 -4.28,3.24 -7.34,7.76 -9.17,13.54 -2.78,8.8 -4.14,18.44 -4.14,28.93l0 76.53 -24.84 0z"/>
   <path id="3" class="fil7" d="M8299.59 1524.29l24.27 3.38c-2.68,16.7 -9.45,29.73 -20.41,39.19 -10.96,9.45 -24.46,14.15 -40.41,14.15 -19.99,0 -36.08,-6.53 -48.21,-19.61 -12.18,-13.08 -18.25,-31.8 -18.25,-56.16 0,-15.81 2.63,-29.59 7.85,-41.44 5.22,-11.81 13.17,-20.7 23.9,-26.58 10.68,-5.92 22.29,-8.89 34.9,-8.89 15.85,0 28.88,4 38.95,12.04 10.11,8.05 16.6,19.48 19.42,34.25l-23.99 3.67c-2.3,-9.83 -6.35,-17.22 -12.23,-22.2 -5.83,-4.94 -12.88,-7.44 -21.16,-7.44 -12.51,0 -22.67,4.47 -30.53,13.41 -7.81,8.98 -11.71,23.09 -11.71,42.47 0,19.66 3.76,33.92 11.29,42.81 7.57,8.89 17.4,13.35 29.49,13.35 9.78,0 17.92,-2.96 24.41,-8.93 6.54,-5.93 10.68,-15.1 12.42,-27.47z"/>
   <path id="4" class="fil7" d="M8440.7 1559.57c-9.22,7.85 -18.11,13.35 -26.62,16.6 -8.52,3.25 -17.64,4.84 -27.43,4.84 -16.08,0 -28.45,-3.9 -37.11,-11.75 -8.65,-7.81 -12.98,-17.83 -12.98,-30.01 0,-7.15 1.65,-13.69 4.89,-19.62 3.29,-5.93 7.57,-10.63 12.84,-14.2 5.32,-3.58 11.24,-6.31 17.88,-8.14 4.89,-1.27 12.27,-2.49 22.1,-3.72 20.04,-2.35 34.86,-5.22 44.31,-8.51 0.1,-3.39 0.14,-5.55 0.14,-6.44 0,-10.07 -2.35,-17.17 -7.05,-21.31 -6.35,-5.6 -15.81,-8.37 -28.32,-8.37 -11.71,0 -20.36,2.07 -25.92,6.16 -5.59,4.09 -9.68,11.33 -12.37,21.78l-24.27 -3.39c2.21,-10.4 5.84,-18.82 10.92,-25.21 5.08,-6.4 12.41,-11.29 22.01,-14.77 9.55,-3.44 20.7,-5.18 33.3,-5.18 12.51,0 22.72,1.46 30.57,4.42 7.81,2.97 13.6,6.64 17.27,11.11 3.67,4.46 6.25,10.11 7.76,16.93 0.8,4.23 1.22,11.85 1.22,22.81l0 32.93c0,23 0.52,37.53 1.55,43.69 0.99,6.17 3.06,12.05 6.07,17.69l-25.96 0c-2.5,-5.22 -4.1,-11.34 -4.8,-18.34zm-1.98 -55.04c-9.03,3.67 -22.57,6.78 -40.64,9.32 -10.25,1.45 -17.49,3.1 -21.73,4.93 -4.23,1.84 -7.48,4.52 -9.78,8 -2.31,3.53 -3.48,7.43 -3.48,11.76 0,6.54 2.49,12.04 7.52,16.42 5.04,4.37 12.38,6.58 22.02,6.58 9.55,0 18.06,-2.07 25.54,-6.25 7.43,-4.14 12.93,-9.84 16.41,-17.03 2.69,-5.6 4,-13.83 4,-24.7l0.14 -9.03z"/>
   <path id="5" class="fil7" d="M8555.89 1555.76l3.39 21.91c-6.96,1.46 -13.22,2.22 -18.68,2.22 -8.98,0 -15.94,-1.42 -20.93,-4.28 -4.94,-2.87 -8.42,-6.59 -10.44,-11.25 -2.02,-4.65 -3.01,-14.44 -3.01,-29.35l0 -84.38 -18.34 0 0 -19.19 18.34 0 0 -36.22 24.84 -14.91 0 51.13 24.83 0 0 19.19 -24.83 0 0 85.79c0,7.11 0.42,11.67 1.31,13.69 0.85,2.02 2.26,3.62 4.24,4.85 1.97,1.17 4.79,1.78 8.46,1.78 2.73,0 6.35,-0.33 10.82,-0.98z"/>
   <path id="6" class="fil7" d="M8571.08 1504.67c0,-27.04 7.53,-47.08 22.63,-60.11 12.56,-10.82 27.94,-16.23 46.05,-16.23 20.08,0 36.54,6.59 49.34,19.76 12.75,13.12 19.14,31.33 19.14,54.51 0,18.82 -2.82,33.59 -8.46,44.36 -5.65,10.77 -13.88,19.14 -24.7,25.12 -10.77,5.97 -22.58,8.93 -35.32,8.93 -20.51,0 -37.07,-6.53 -49.72,-19.66 -12.65,-13.12 -18.96,-32.03 -18.96,-56.68zm25.4 0.05c0,18.72 4.1,32.74 12.28,42 8.23,9.32 18.53,13.97 31,13.97 12.32,0 22.57,-4.65 30.81,-14.01 8.18,-9.36 12.27,-23.61 12.27,-42.76 0,-18.06 -4.14,-31.75 -12.37,-41.01 -8.23,-9.32 -18.48,-13.97 -30.71,-13.97 -12.47,0 -22.77,4.61 -31,13.87 -8.18,9.27 -12.28,23.24 -12.28,41.91z"/>
   <path id="7" class="fil7" d="M8737.07 1577.91l0 -146.47 22.3 0 0 22.43c5.69,-10.39 10.96,-17.26 15.8,-20.55 4.85,-3.34 10.16,-4.99 15.95,-4.99 8.37,0 16.89,2.64 25.54,7.86l-8.84 22.91c-6.02,-3.39 -12.04,-5.08 -18.06,-5.08 -5.41,0 -10.26,1.64 -14.54,4.89 -4.28,3.24 -7.34,7.76 -9.17,13.54 -2.78,8.8 -4.14,18.44 -4.14,28.93l0 76.53 -24.84 0z"/>
   <circle class="fil8 str5" cx="6861.46" cy="1472.59" r="118.79"/>
   <rect class="fil8 str5" x="7319.39" y="1364.31" width="226.91" height="226.91"/>
   <path class="fil6 str6" d="M7035.36 1471.72l220.31 0"/>
   <path class="fil6 str6" d="M7253.01 1472.38l-64.02 65.38"/>
   <path class="fil6 str6" d="M7253.18 1471.24l-63.42 -61.39"/>
  </g>
 </g>
</svg>
