<?xml version="1.0" encoding="UTF-8"?>
<!DOCTYPE svg PUBLIC "-//W3C//DTD SVG 1.1//EN" "http://www.w3.org/Graphics/SVG/1.1/DTD/svg11.dtd">
<!-- Creator: CorelDRAW -->
<svg xmlns="http://www.w3.org/2000/svg" xml:space="preserve" width="210mm" height="297mm" version="1.1" style="shape-rendering:geometricPrecision; text-rendering:geometricPrecision; image-rendering:optimizeQuality; fill-rule:evenodd; clip-rule:evenodd"
viewBox="0 0 21000 29700"
 xmlns:xlink="http://www.w3.org/1999/xlink">
 <defs>
  <style type="text/css">
   <![CDATA[
    .str3 {stroke:black;stroke-width:10;stroke-opacity:0.501961}
    .str5 {stroke:black;stroke-width:50}
    .str2 {stroke:#003399;stroke-width:20}
    .str7 {stroke:#434242;stroke-width:10}
    .str4 {stroke:black;stroke-width:10}
    .str0 {stroke:#000066;stroke-width:10}
    .str1 {stroke:#003399;stroke-width:10}
    .str8 {stroke:#2B2A29;stroke-width:7.62}
    .str6 {stroke:black;stroke-width:7.62}
    .fil2 {fill:none}
    .fil0 {fill:#FEFEFE}
    .fil9 {fill:#D9DADA}
    .fil1 {fill:white}
    .fil6 {fill:#FEFEFE;fill-rule:nonzero}
    .fil5 {fill:#D9DADA;fill-rule:nonzero}
    .fil8 {fill:#434242;fill-rule:nonzero}
    .fil7 {fill:#2B2A29;fill-rule:nonzero}
    .fil4 {fill:black;fill-rule:nonzero}
    .fil3 {fill:#FEFEFE;fill-rule:nonzero;fill-opacity:0.501961}
   ]]>
  </style>
 </defs>
 <g id="Plan_x0020_1">
  <metadata id="CorelCorpID_0Corel-Layer"/>
  <rect class="fil0" x="1000" y="1000" width="18702" height="27700"/>
  <path class="fil1 str0" d="M13054 3082c22,-7 23,-43 40,-47 1,-3 2,-2 3,-4l4 0c0,14 7,26 7,36 8,3 12,15 24,1 16,-18 7,-71 11,-95 3,-19 -1,-49 -1,-70 0,-37 5,-80 17,-113 7,-19 0,-56 0,-78 -2,-1 -1,0 -1,-3 -15,0 -32,6 -44,6 -6,26 -16,53 -26,78 -8,22 -22,49 -33,70 -16,32 -1,67 -11,95 -15,43 -8,72 -4,117l14 7z"/>
  <path class="fil1 str0" d="M11954 5911c-1,1 -2,2 -3,3 -1,2 -7,9 -9,11 -1,6 -4,11 -7,16 -7,11 -5,28 -7,41 -1,7 -2,26 7,28 7,2 15,-8 18,-12 9,-11 4,-25 4,-37 0,-6 2,-11 2,-16 0,-6 -2,-14 0,-19l-6 -14z"/>
  <path class="fil1 str0" d="M12080 6013c-10,0 -22,-6 -31,1 -16,13 20,29 28,33 12,8 27,17 41,14 0,-5 -7,-11 -11,-15 -3,-4 -8,-12 -12,-13l-15 -21z"/>
  <path class="fil1 str0" d="M11912 5882c-3,1 -3,1 -6,-1 -3,-2 -7,-4 -10,-6 -5,-3 -11,-4 -15,3 -1,1 -1,5 -1,6 0,3 1,6 1,9 0,5 3,13 6,18 4,5 11,5 16,4 6,-2 8,-7 8,-13l1 -1 0 -20z"/>
  <path class="fil1 str0" d="M12503 5690c-2,1 -3,1 -6,1 -5,-4 -9,-7 -14,-11 -3,-2 -7,-4 -10,-6 -6,-4 -7,-15 -13,-21 -7,-7 -13,-6 -22,-6 -9,7 -5,22 -1,31 4,10 7,14 15,21 4,4 10,7 14,12 9,12 39,25 39,-1l-3 -21z"/>
  <path class="fil1 str0" d="M12585 5691c-5,0 -9,0 -14,-1 -5,-1 -10,-1 -15,-1 -4,0 -9,1 -11,4 -5,6 -6,17 0,23 5,5 11,5 16,4 9,-2 10,10 19,10 6,0 8,-5 11,-10 2,-4 3,-6 1,-10l-1 0 -5 -18z"/>
  <path class="fil1 str0" d="M14314 11014c1,-9 -2,-19 -4,-29 -2,-9 -8,-22 -15,-29l-5 0c-5,5 -6,14 -6,21 -1,13 -2,24 1,37 1,4 5,12 7,14 6,7 10,-1 15,-4l6 -12z"/>
  <path class="fil1 str0" d="M16267 14331c-9,10 -18,24 -33,24 -6,5 -14,5 -21,9 -17,8 -30,17 -40,34 -9,15 -12,35 1,47 27,0 38,-3 54,-26 11,-15 23,-20 36,-30 14,0 24,2 34,-9 7,-7 13,-33 -3,-33l-28 -17z"/>
  <path class="fil1 str0" d="M16289 14579c-16,-10 -22,-28 -36,-41 -10,-10 -23,-18 -33,-27l-7 0c-8,8 -10,19 -20,29 -21,19 -54,29 -47,66 4,17 12,45 21,60 12,19 32,17 48,30 18,14 16,20 40,13 38,-12 182,41 192,-16 8,-45 -62,-27 -84,-23 -25,5 -50,3 -74,3 -9,-9 -16,-12 -16,-26 3,-3 4,-7 4,-11 8,-7 10,-25 3,-34l7 -21z"/>
  <path class="fil1 str0" d="M17649 13916c-34,-15 -52,-55 -88,-70 -15,-6 -60,-27 -61,-44 -2,-20 14,-40 9,-60 -7,-27 -48,1 -48,19 0,17 13,83 27,90l0 6c-34,0 -47,-29 -75,-40 -15,-6 -36,11 -31,27 3,13 42,57 57,57 11,0 22,-3 34,-3 10,0 19,4 27,4 0,18 -15,53 18,44 18,-5 36,-17 55,-17 15,0 21,47 28,61 5,9 11,26 21,29 17,4 24,-32 33,-40l-6 -63z"/>
  <path class="fil1 str0" d="M18069 15870c3,-18 -1,-39 -4,-57 -3,-15 -2,-28 -10,-41 -5,-1 -5,-3 -11,-1 -7,3 -12,7 -20,8 -10,1 -25,4 -28,16 -3,8 4,20 9,26 5,7 7,15 11,21 3,4 7,7 11,9 5,3 10,12 15,16 5,5 9,9 13,16l15 -14z"/>
  <path class="fil1 str0" d="M18022 15989c-8,12 -16,24 -23,36 -5,9 -10,30 -2,38 15,0 36,-26 43,-38 5,-8 6,-21 6,-31 1,-6 0,-14 0,-21 0,-4 -2,-5 -3,-8 -6,-2 -10,0 -14,4l-8 18z"/>
  <path class="fil1 str0" d="M9126 28700l0 0 6465 0c0,-21 28,-188 59,-203 1,-3 2,-2 3,-4 35,0 38,60 74,17 19,-22 33,-65 50,-93 36,-59 69,-117 95,-181 24,-58 66,-149 104,-197 59,-70 106,-209 132,-295 13,-44 29,-72 54,-107 19,-26 62,-18 74,-38 9,-2 7,-124 26,-154 37,-59 4,-34 1,-84 -8,-177 150,-252 306,-252l161 -157 3 0c52,-15 94,-48 124,-94 24,-37 72,-33 91,-60 22,-6 78,-91 100,-113 74,-74 148,-166 205,-255 73,-116 169,-219 242,-335 120,-88 245,-299 325,-419 51,-77 250,-363 332,-383 60,-97 202,-194 284,-281 144,-152 327,-254 463,-400 108,-117 324,-301 463,-381l342 -200 0 0 0 -5849 0 0 -40 17c-111,140 -252,84 -410,101 -141,15 -204,-81 -311,-144 -67,-39 -137,-77 -189,-134l-60 -66 3 -16c-6,-47 -114,-146 -142,-197 -29,-52 -30,-107 -30,-168l-4 0c-12,36 -78,5 -107,-6 -50,-19 -56,-55 -85,-91 -16,-20 -101,-6 -125,-6 -53,0 -110,-8 -159,10 -46,17 -126,116 -171,64 -58,-68 91,-41 115,-63 23,-21 25,-70 63,-70 22,-13 21,-38 53,-43 26,-4 55,-10 81,-10 82,0 75,-81 114,-91 1,-2 1,-4 3,-4 1,-3 2,-4 3,-7 3,-1 3,-5 7,-6 4,-13 130,-4 152,-31 38,-47 43,-103 30,-162 -30,-136 -121,-222 -182,-345 -28,-56 -113,-203 -166,-232 -25,-14 -12,111 -17,127 -20,0 -68,-32 -71,-51 -10,-1 -87,-110 -90,-123 -3,-18 -65,-115 -83,-80 -42,6 -40,45 -100,19 -26,-12 -11,-96 -16,-125 -15,-99 -77,-184 -169,-197 -45,-79 -161,-202 -253,-202 -63,0 -150,-212 -201,-262 -49,-49 -130,-137 -149,-204 -27,-34 -65,-26 -102,-31 -37,-5 -55,-29 -91,-37 -56,-13 -111,-8 -111,-86 0,-52 -21,-46 -60,-73 -43,-30 -82,-68 -122,-95 -75,-50 -58,104 -127,104 -66,0 -118,-128 -141,-177 -8,-16 -14,-111 -18,-113l0 -3 -3 0c-6,-19 -111,-60 -131,-120l-3 0c-13,52 -66,93 -61,161 5,60 87,85 4,153 -38,31 -60,-66 -60,-88 0,-32 18,-99 -23,-113l0 -3c-5,-2 -8,-19 -9,-21l-1 -4c-3,-5 -5,-10 -7,-16 0,-28 -16,-48 -21,-71 -2,0 -2,-1 -4,-1 -3,-14 -63,11 -73,6 -21,-12 -22,-40 -14,-58 12,-26 9,-96 1,-127 -216,-54 -161,-421 -213,-582l-77 -235c-16,-197 -80,-375 -182,-540 -56,-91 -135,-335 -239,-352 -2,-4 -14,-17 -16,-20 -17,-14 -64,-53 -82,-56 -28,-3 -33,50 -73,50 -72,0 -55,-112 -61,-150 -4,-1 -5,-5 -9,-6 -1,-6 -53,-52 -60,-53 -1,-4 -11,-16 -16,-17 -3,-19 -61,-33 -75,-41 -14,-8 -57,-56 -63,-57 -7,-27 -106,-14 -129,-29 -53,-32 -63,-87 -78,-144l-95 -352c-1,0 -5,-4 -6,-6 -6,0 -10,-4 -16,-6 -1,-3 0,-2 -3,-3 -14,-57 -46,-91 -18,-158 0,-48 13,-156 -31,-188 -10,-39 -22,-35 -17,-83 4,-36 4,-69 4,-105 0,-46 -20,-146 13,-180 0,-64 -8,-98 -24,-160 -17,-65 -10,-140 -24,-207 -8,-31 -50,-47 -41,-80 9,-37 9,-73 9,-113 20,7 52,69 63,90 25,50 24,61 64,51 0,-33 24,-31 -7,-67l-74 -86c-60,-69 -136,-172 -171,-257 -30,-73 -21,-179 -21,-259 0,-130 -17,-109 -110,-171 -39,-26 -45,-68 -70,-87 -36,-28 -103,16 -119,-64 0,-29 -68,-57 -90,-60 -56,-113 -61,-235 -215,-204 -141,29 -249,-199 -249,-314 0,-68 -13,-21 -37,-60 -14,-22 -10,-77 -18,-107 -18,-61 -41,-97 -23,-165 20,-74 -14,-151 -4,-221 3,0 3,0 4,-3 3,-1 2,0 3,-3 2,-1 4,-1 4,-3 35,0 63,0 97,9 7,2 68,8 70,4l3 0 0 -4c-2,-1 -2,-2 -3,-4 -2,0 -15,-12 -16,-14 -3,-1 -4,-3 -7,-4 -3,-10 -25,-14 -27,-23 -2,0 -2,-1 -4,-1 -3,-11 -40,-7 -44,-21 -2,0 -51,-56 -68,-66 -42,-22 -46,-61 -75,-93 -58,-62 -140,-129 -188,-198 -25,-36 -12,-103 -36,-144l-131 -232 -97 -238c-16,-41 -62,-184 -92,-208 -39,-85 -78,-179 -139,-249 -58,-67 -95,-193 -156,-242 -29,-113 -100,-244 -155,-345 -14,-26 26,-1 34,-1 5,-19 -3,-52 -24,-57 -1,-2 -1,-4 -3,-4l0 -7c73,-24 -113,-255 -83,-289 14,-16 67,-26 88,-26 1,-3 1,0 1,-3 -2,-1 -1,0 -1,-3 -9,-2 -12,-14 -20,-16 -1,-4 -6,-4 -7,-9 -35,-5 -84,-15 -110,-41 -42,-43 -58,-115 -105,-153 -3,-17 -63,-116 -14,-123 0,-3 -1,-2 1,-3 0,-24 -25,-37 -21,-66 43,-11 39,-60 0,-80 -8,-53 -107,-116 -145,-147 -65,-53 -121,-148 -165,-219 -30,-48 -49,-125 -101,-153 -85,-45 -70,-89 -102,-167 -35,-46 -73,-93 -97,-148 -13,-7 -15,-47 -13,-61 3,-21 8,-37 14,-57 4,-12 1,-22 1,-34 -5,-6 -10,-24 -11,-30 -13,-42 -21,-116 -60,-144 -56,-41 -149,-132 -122,-212 14,-42 39,-75 63,-114 27,-44 15,-71 26,-115l1 -1 4 0c1,-4 4,1 6,-3 7,0 11,-3 17,-3 1,-2 2,-1 4,-1 6,23 2,66 34,73 1,3 0,2 3,3 18,73 40,130 40,207 2,1 24,18 24,19 17,4 2,102 34,120 63,35 57,122 117,165 64,46 174,122 183,208 11,117 -26,209 50,315 32,45 89,112 131,147 27,22 48,51 74,77 22,22 42,67 64,83 9,62 233,259 300,259 19,8 92,53 104,50 4,-34 -7,-47 14,-78 32,-47 90,-96 112,-144 34,-73 -71,-168 -27,-259l58 -121c24,-49 76,-124 88,-172 9,-55 -6,-135 14,-184 17,-41 0,-85 11,-127 13,-51 44,-162 80,-201 30,-32 82,-113 127,-124 1,-3 1,-3 4,-3 0,3 -1,4 1,4 0,46 -21,108 -30,155 -8,41 -8,85 -16,127l-36 198c-13,71 -40,148 -40,221 0,87 -26,182 -64,259l-47 95c-9,19 -46,50 -50,64 -2,1 14,46 17,54 3,9 87,-20 110,-19 108,8 151,-100 250,0 14,14 9,43 28,66 15,16 45,-2 57,16 25,39 63,74 81,115 14,32 46,3 65,53 21,56 36,98 50,157 9,37 87,112 112,145 22,29 51,51 60,87 8,32 -22,60 -7,86 55,8 126,139 168,168 2,13 42,125 46,127 53,27 96,86 122,141 35,74 111,173 119,254 38,78 70,96 156,96 1,2 0,1 3,1 12,62 15,141 -58,165 0,13 61,67 73,78 17,17 94,28 95,33 2,0 2,1 4,1 10,29 35,82 43,113 28,4 17,54 17,71 -1,0 -4,5 -4,6l-3 0c-5,15 -54,-27 -61,-33 -49,-39 -131,-108 -195,-108 -1,-2 -11,-6 -14,-7l-1 -1c0,-22 20,-48 20,-80 2,-1 1,-2 1,0 -2,1 -1,2 -4,3 -3,14 -66,50 -50,68 52,59 96,80 166,115 30,15 115,76 115,114l1 1 3 0c1,-3 5,-6 7,-10 21,-5 36,-43 60,-37l77 74c51,49 75,72 71,141 -3,54 50,74 23,137 -8,31 -29,102 -80,64 0,68 147,196 179,268 16,35 -10,56 16,88 36,46 71,123 127,67 35,-35 82,37 100,63 45,66 84,20 149,67 53,38 195,121 226,175 31,21 90,77 100,114 30,26 30,127 70,137 6,7 12,19 18,26 1,7 7,15 11,20 4,31 33,70 37,100 19,19 73,115 80,141 8,31 -8,66 10,97 66,113 185,235 185,371 9,55 13,116 -4,168 -11,34 -32,69 -47,101 -12,25 -3,50 -33,66 -64,34 74,225 92,268 16,37 4,111 38,138 42,33 -7,98 -44,107 -1,2 -1,5 -3,7 24,32 53,76 64,118 39,57 46,139 101,194 83,83 157,180 216,282 62,107 158,174 280,187 4,4 5,4 6,9 85,41 272,122 306,215 16,45 39,98 81,124 21,13 64,-60 80,4 30,5 36,127 70,153 65,49 65,90 118,153 23,27 25,68 40,100 13,29 60,67 61,70 22,5 1,55 -3,68 -11,37 23,52 23,83 8,9 27,29 37,34 7,49 5,105 17,153 69,17 91,71 121,128 29,55 27,127 58,187 47,90 137,168 201,248 69,88 182,119 259,197 12,37 48,35 68,60 29,36 50,185 50,232 36,9 41,80 75,80 1,2 26,12 30,13 1,2 2,4 4,4 0,93 0,72 55,134 29,32 68,73 68,121 0,22 -6,74 0,93 15,46 34,78 47,130 19,75 24,176 24,254 -4,50 -25,87 -58,125 -61,71 -54,101 -1,180 45,68 41,109 41,187 -20,-5 -41,-71 -58,-71 -17,0 -7,29 -7,40 0,18 -16,34 -20,50 -67,0 36,-197 -57,-151 -43,21 -15,162 24,187 32,20 91,-27 124,6 12,12 33,64 33,81 0,37 71,110 47,130 -20,17 9,32 13,44 10,31 4,60 4,93 -14,71 50,310 94,369 6,61 69,209 108,254 1,6 7,19 11,24 15,122 -35,234 -23,362 9,70 100,155 138,217 38,62 16,101 16,168l3 1 1 3c62,0 52,-60 135,-38 35,9 110,37 138,60 61,49 136,10 215,10 54,0 210,-90 240,-133 49,-6 73,8 112,34 33,22 68,-10 107,13 21,-2 22,-3 31,-20 6,-10 13,-19 18,-29 12,-2 10,-5 17,9 10,18 10,43 37,43 17,0 16,-18 16,-31 0,-19 2,-37 10,-54 8,-16 15,-33 24,-47 14,-21 31,-33 53,-46l34 -16 0 0 0 -15503 -6608 0 -11 81c-4,40 -30,82 -43,118 -9,26 -38,94 -55,108 -4,17 -20,37 -27,54 -9,22 -15,50 -26,71 -25,50 -18,110 -44,158 -39,49 -81,112 -81,178 0,22 10,119 -18,121 -28,2 -35,-33 -53,-33 -39,194 -37,408 -122,590 -40,159 -142,321 -232,455 -108,160 -201,258 -391,312 -57,16 -231,31 -280,-9l-17 -1c-43,5 -129,111 -168,74 -25,-23 -55,-88 -65,-118 -26,0 -100,83 -131,98 -56,29 -107,34 -166,11 -88,-34 -131,-124 -206,-171 -47,-29 -97,-31 -148,-73 -49,-40 -101,-133 -172,-113 -71,19 -152,70 -222,31l-159 -87c-139,-76 -272,2 -401,77 -27,16 -200,72 -213,19 -3,0 -6,-1 -7,-3 -12,3 -40,108 -77,130 -19,11 -114,31 -122,-3 -3,-1 -4,-2 -4,-6 -20,-7 -57,53 -88,60 -46,28 -85,78 -124,117 -34,34 -79,57 -117,86 -63,48 -152,99 -228,121 -152,45 -198,-32 -304,-105 -60,-41 -165,-36 -215,-94 -47,-6 -57,15 -101,23 -47,12 -192,1 -240,-11 -47,-12 -52,-89 -61,-127 -23,-6 -60,23 -87,31 -47,14 -86,12 -134,3 -76,-15 -117,-62 -132,-137 -79,-20 -158,-8 -239,-40 -95,-37 -175,-56 -282,-60 -49,-2 -145,-3 -189,-24 -77,-28 -166,-43 -235,-80 -44,-24 -155,40 -202,57 -52,18 -109,33 -164,38 -81,8 -104,-22 -169,-31 -1,-2 -2,-3 -4,-4 0,-118 -56,-202 -83,-308 -3,-1 -2,0 -3,-3l-235 -68c-112,0 -381,94 -441,-40 -15,-33 -59,-29 -92,-36 -68,-14 -88,-50 -169,-50 -69,0 -217,24 -262,-33 -30,-37 -43,-51 -87,-63 -41,-11 -42,-44 -30,-81 39,-8 89,-64 26,-80 -11,-44 14,-67 -6,-105 -9,0 -10,-4 -18,-11 -105,-38 -222,-66 -321,-115 -96,-48 -152,-55 -253,-76 -46,-9 -58,-53 -107,-37 -53,18 -165,33 -218,13 -23,-9 -80,-56 -94,-7 -59,34 -60,112 -145,130 -74,7 -260,-20 -317,26 -65,8 -228,147 -286,185 -77,50 -205,133 -245,219 -5,3 -5,3 -7,9 -52,33 -75,121 -111,167 -14,111 -44,252 14,358 0,92 15,172 65,248 22,33 77,143 31,175 -8,58 -123,212 -165,261 -43,50 -148,210 -215,219 -10,15 -40,33 -57,40 -77,26 -96,73 -193,73 -55,0 -133,-1 -183,-21 -29,-12 -78,-48 -105,-51 -69,-70 -160,-123 -235,-192 -81,-76 -129,-139 -233,-187 -58,-27 -148,-40 -196,-83l-141 -36 0 35 0 25332 7790 0 0 0 336 0z"/>
  <path class="fil0 str1" d="M12043 25340c19,19 63,71 68,97 10,55 47,50 94,58 88,16 19,142 121,105 55,-20 -6,-102 36,-103l107 -1c46,-1 68,-24 104,-33 8,24 51,92 0,95 -42,3 -67,61 -118,41 -21,-8 -49,-12 -63,11 -32,55 -11,62 -87,74 -43,7 -108,-54 -111,4 -2,43 -11,47 -34,78 -53,71 -42,178 55,202 0,29 -53,61 -68,88l-55 103 -152 141 0 4c14,4 29,24 41,33 21,15 51,20 77,27 21,6 160,49 162,58 -63,21 -123,-2 -189,-6 -60,-3 -162,-88 -168,19 -3,63 20,66 -54,66 -36,0 53,100 -71,100 -34,0 -61,-45 -71,3 -12,54 -54,74 30,70 36,-2 92,10 104,56 -39,13 -94,-1 -135,-1 -33,0 -42,40 -85,40 0,17 35,62 50,70 52,28 91,-23 137,-7 38,13 57,39 92,0 12,-14 89,-73 101,-77 0,64 47,128 -14,158 -47,24 -104,34 -145,63 -32,23 -45,67 -80,81 -44,0 -89,36 -132,27 -58,-11 -46,-53 -77,-80 -19,-17 -58,-1 -83,-16 -135,-78 -94,145 -74,214 9,32 40,55 48,81 -71,-18 -66,34 -104,34 0,-63 21,-84 3,-145 -10,-35 4,-121 -34,-121 -61,0 -55,12 -67,-47 -2,-11 -73,91 -95,88 -19,-2 9,-55 0,-60 -62,-31 -132,5 -162,-93 -20,-66 -45,-9 -78,29 -51,57 -79,8 -10,100 44,58 -94,-31 -104,-1 -10,29 -38,36 -36,76 1,24 42,57 1,57 -25,0 -52,-1 -73,11 -18,11 -41,63 -53,40 -15,-29 -10,-77 16,-100 13,-12 -57,-55 -57,-73 0,-13 32,-10 40,-21 6,-9 -11,-37 -13,-50 -8,-14 -22,-49 -41,-47 -11,1 -43,26 -43,0 0,-55 15,-112 28,-165 13,-53 -25,-13 -48,-13 0,-62 33,-106 48,-162 12,-43 56,-144 40,-182 -36,-87 108,-224 74,-334 -10,-31 -44,-51 -54,-84 -26,-70 -82,-94 -31,-177l156 -257c42,-68 -12,-81 3,-140 20,-80 90,-47 154,-60 38,-66 106,-20 147,-77 36,-50 89,44 121,-61 14,-14 44,-39 48,-57l3 0c4,16 40,97 53,97 41,0 86,-58 127,-58 4,16 0,85 11,90 22,10 57,-24 64,-41 6,-15 11,-50 20,-60 13,-14 45,-23 63,-34 26,-16 38,-46 63,-66 11,-8 60,-53 70,-53 3,11 11,43 23,47 11,4 47,1 60,1 8,24 20,131 60,131 7,-27 27,-83 55,-90l61 -14c10,-2 -1,40 4,51 9,19 36,9 50,21 15,13 31,42 41,63l37 61zm1858 -1794c0,-27 -7,-53 -7,-80l-3 -3 0 -4c-30,-30 -63,-19 -101,-31 -41,-13 -67,-66 -77,-104 -15,-57 -79,-145 -119,-185 0,-45 6,-81 -3,-128 -10,-54 -22,-103 3,-155 15,-31 -15,-71 -27,-100 0,-80 38,-155 38,-234 0,-52 -44,-94 -44,-150 0,-40 16,-97 7,-134l-1 -1c-24,-6 -56,0 -81,0 -25,0 -54,-10 -77,0 -12,49 -1,100 -14,150 -10,40 -19,102 -10,144 7,73 -15,112 -38,181 -18,51 -23,214 24,245 37,25 41,35 43,83 2,55 2,54 23,97 25,3 45,48 78,56 75,18 7,103 44,148 18,22 47,20 67,40 14,14 33,50 53,53 14,25 37,45 41,76 1,16 6,35 10,50 3,10 2,16 9,26 13,20 38,12 47,40 12,39 2,77 27,114 11,17 40,0 53,-7 18,-10 36,-13 54,-17 4,-15 -4,-38 -7,-54 -4,-22 0,-45 0,-67l-10 -46zm-3648 351c-82,123 -246,185 -343,294 -50,56 -239,250 -239,324 21,0 113,-2 118,23 3,17 -12,118 7,120 19,2 171,-199 196,-231 27,-35 32,-75 67,-107 28,-26 88,-22 128,-50 42,-30 152,-138 148,-194 -3,-41 -23,-80 -23,-121 0,-33 -1,-67 -9,-97 -3,-1 -2,0 -3,-3 -9,0 -11,2 -16,10l-33 33zm1254 2898c0,1 -1,2 -1,3 -6,-23 -11,-49 -19,-72 -9,-27 -19,-10 -38,-6 -17,3 -33,-4 -44,-16 -6,-7 -14,-12 -20,-19 -6,-6 -16,-28 -26,-21 -10,7 -31,50 -28,62 4,15 21,33 32,44 11,11 12,31 28,38 18,8 37,-7 56,6 19,13 25,25 48,16l12 -35zm-43 -206c-5,0 -8,0 -13,0 -11,-1 -18,0 -22,11 -3,8 -3,20 -4,29 0,5 0,15 5,19 6,5 14,5 21,5 4,0 7,-1 11,-2 4,-1 5,-4 9,-6 1,-6 1,-10 1,-16 0,-6 -3,-16 1,-22l-9 -18zm-2279 -1154c-1,4 -3,8 -3,11 -10,2 -28,21 -43,26 -40,12 -88,11 -104,56 -23,67 -110,170 -84,241 4,12 11,57 30,53 23,-5 34,-13 60,-14 73,-4 63,-51 87,-100 14,-29 50,-35 77,-44 44,-16 117,-79 117,-130 0,-34 -86,-70 -100,-105l-37 7zm-294 1103c-6,1 -6,3 -9,-1 -12,-2 -46,-42 -53,-53 -21,-36 -24,-18 -36,9 -25,57 -63,108 -83,164 -17,49 -32,98 -41,148 -9,50 -16,42 11,83 24,36 -3,50 -27,74 -19,19 -24,79 13,50 46,-36 75,-86 63,-147 -10,-47 15,-78 17,-121 1,-15 26,-85 33,-41 5,32 -17,111 -24,145 -5,24 -1,101 11,118 4,0 5,-1 9,-1 39,-79 102,-144 162,-204 21,-21 -4,-48 -16,-73 -17,-36 -31,-54 -31,-97l0 -53zm-101 2163c5,-44 -14,-97 -4,-142 8,-38 20,-79 41,-114 33,-54 45,-149 48,-214 1,-23 5,-43 1,-66 -2,-10 -54,114 -84,121l-1 -1c0,-77 -14,-163 0,-238 9,-47 49,-227 21,-261 3,-33 -12,-132 4,-153 4,-6 104,-6 115,-3l1 3c12,97 -28,197 11,291 19,45 32,93 51,138 10,24 16,43 30,66 11,18 37,42 40,63 1,3 8,19 9,24l3 3c6,41 25,63 53,91 7,1 9,7 13,11 16,97 -27,201 -27,299 3,4 3,9 3,14 5,6 3,31 3,40l4 26 -336 0zm2441 -19257c14,-20 23,-39 23,-66 18,0 82,73 105,84 15,7 28,-6 40,-6 1,-2 5,-4 7,-4 0,-3 -1,-2 1,-3 -1,-5 -7,-16 -11,-17 0,-53 -84,-88 -84,-143 3,0 2,-1 3,1 24,0 48,36 74,36l1 -1c0,-31 -39,-94 -3,-94 13,0 18,10 30,9l0 -3c14,-3 7,-44 16,-47 0,-4 7,-19 0,-21 0,-14 -51,-54 -60,-78 -8,-22 -22,-71 7,-81 0,-6 -19,-27 -24,-29 0,-3 1,-2 -1,-3 0,-53 69,-19 54,-77 -13,-51 -31,-75 -51,-121 -14,-30 -7,-64 -16,-98 -15,5 -30,19 -43,21 -10,26 3,27 9,50 33,8 29,81 20,105 -9,23 -16,28 -16,53 0,13 1,50 -14,54 -10,38 -86,-63 -91,-64 -5,-16 -10,16 -13,17 -2,10 -6,11 -6,21 2,1 1,2 4,3 4,15 7,16 3,31l-1 1c-8,0 -19,11 -21,19 -2,1 -1,2 -4,3 -1,3 -12,5 -13,1 -6,0 -19,-5 -20,-10 -6,-1 -5,-10 -11,-11 -3,-11 -13,-6 -18,-4 0,27 23,49 28,74 32,8 37,3 68,-10 9,-4 59,-24 64,-9 12,0 35,6 47,9 4,16 -2,87 10,91l0 3c18,6 -35,46 -36,48 -14,4 -56,40 -65,53 -21,29 -25,66 -44,95 0,51 -32,82 -41,124 -7,31 -6,66 -16,95 -8,24 -105,100 -131,110 -52,20 -64,-54 -98,-81 -40,-32 -181,37 -199,78 -40,90 -167,4 -212,-30 0,59 85,112 43,160 -15,16 9,37 -7,54 -54,60 -179,145 -208,221l-54 143c-14,38 -118,134 3,94 19,-6 58,-145 70,-175 20,-54 208,-280 260,-262 97,32 80,-138 149,-181 57,-35 72,-94 137,-47 12,9 50,31 53,46 4,18 1,74 13,64l71 -58 119 -111c21,-19 28,-51 36,-76 4,-13 4,-28 9,-40 2,-6 30,-9 31,-3l26 -7zm1956 -7483c11,-3 14,-26 14,-36 0,-24 -2,-48 -2,-73 0,-19 1,-44 -23,-24 -6,5 -11,12 -18,14 -5,2 -31,14 -28,21 8,20 22,37 22,59 0,12 4,39 17,41l1 1 18 -4zm-2154 1947c7,-4 6,-2 6,-9 0,-13 -4,-30 -7,-43 -2,-7 -5,-23 -9,-29 -11,-16 -27,-26 -40,-40 -6,-7 -15,-14 -24,-16 -9,-2 -9,-1 -17,1 -2,6 -3,9 -3,17 1,13 9,24 11,37 3,13 7,34 14,44 2,3 12,11 16,13 10,5 18,9 27,17l26 6zm6380 13908c6,-4 11,-5 13,-11 5,-1 15,-12 18,-16 4,-4 3,-10 3,-16 -3,-1 0,-1 -3,-1 -1,-4 -8,-10 -10,-14 -2,-5 -6,-5 -9,-9 -5,-6 -9,-12 -14,-19 -3,-4 -13,-12 -14,-16 -5,0 -8,-3 -14,-3 -14,1 -41,34 -43,46 -1,9 -3,16 -3,26 0,11 6,19 6,29 3,1 2,0 3,3 2,1 4,1 4,3l23 0 1 3 38 -4zm-3163 -469c34,-7 68,-30 92,10 13,21 36,164 67,114 14,-23 16,-53 28,-78 24,-48 40,-97 63,-143 18,-37 31,-76 47,-113 11,-24 12,-52 -10,-67 -30,-21 -36,-59 -75,-57 -19,1 -37,10 -58,10 -17,0 -31,-7 -47,-7 -16,47 -45,36 -87,23 -43,-13 -65,-2 -80,40 -16,47 -57,123 -46,172 6,25 5,41 23,63 14,18 43,31 53,47l30 -14zm999 2951c-11,3 -21,-14 -21,-24 31,-10 35,-25 35,-56 0,-18 -45,-39 -61,-36 -25,4 38,93 -10,93 -14,0 -26,-7 -40,-7 -17,0 -49,24 -57,39 -13,25 4,25 23,32 16,6 32,3 43,19 20,28 31,20 61,6 22,-10 34,-14 34,-41l-8 -24zm-4303 3976c47,-61 96,-26 155,-36 77,-13 98,-94 159,-120 36,-15 81,34 121,-21 43,-59 46,-40 33,11 -4,14 25,71 1,71 -58,0 -126,-53 -178,20 -21,29 -68,55 -81,83 -63,127 87,58 142,38 42,-15 72,13 111,0 28,-9 51,-57 74,-74 4,11 128,-5 145,-14 18,-10 63,-56 75,-57 8,-1 8,55 3,63 -14,19 -135,46 -171,74 -21,16 -111,60 -37,60 9,0 52,-8 58,-3 4,3 -12,34 -3,46 4,5 62,2 81,10 62,26 102,7 162,19 23,4 143,4 63,23 -19,4 -92,21 -58,46 18,13 68,98 7,67 -100,-51 -24,56 -88,56 0,-44 -7,-155 -73,-138 -15,4 -47,-1 -57,4 -9,5 -6,34 -18,17 -36,-49 -149,-74 -203,-94 -99,-37 24,79 24,120 -27,0 -80,-91 -105,-107 -43,-28 -117,27 -185,-27 -46,-36 -78,-85 -131,-111l-27 -24zm1976 3374c-1,3 -4,6 -4,9 -11,5 -25,38 -37,48 -22,19 -41,38 -64,56 -13,9 -57,47 -68,48 -8,15 -43,23 -58,27 -19,5 -90,45 -67,70 26,28 76,-12 101,-21l90 -33c19,-7 34,-3 50,-19 23,-23 49,-48 58,-78 5,-14 22,-48 36,-56 2,-17 21,-50 -16,-43l-20 -9zm458 123c-5,-16 -14,-74 -34,-76 -18,-2 -28,28 -36,40 -4,6 -5,15 -9,20 -10,12 -15,26 -24,40 -5,8 -1,34 -4,44 -5,17 -6,42 -1,58 5,1 8,8 13,9 19,2 46,-7 58,-21 8,-9 8,-24 11,-36 3,-13 10,-27 17,-37l9 -41zm139 -831c3,-18 4,-36 4,-54 1,-28 3,-34 -28,-43 -21,-6 -47,-19 -68,-19 0,18 13,36 13,57 0,35 -36,58 -24,97 4,12 99,94 27,88 -12,-1 -47,-28 -48,-1 -2,26 0,51 6,74 26,0 80,-35 90,-58 12,-28 -1,-78 21,-101l9 -40zm-12078 145c-20,-47 15,-66 37,-100 19,-29 6,-52 -1,-83 -8,-32 -7,-56 -7,-88 0,-50 -84,-39 -63,-125 16,-64 -59,-89 -61,-145 -2,-44 48,-78 88,-67 45,13 56,-13 98,-13 16,0 36,2 51,-1 11,-2 83,-26 46,19 -22,26 -45,44 -75,60 -61,31 -77,16 -63,86 5,23 -18,85 4,95 16,7 70,-21 70,-9 0,40 1,70 6,108 6,45 78,-23 97,-37 32,24 -33,66 -50,78 -19,14 -7,33 -16,50 -9,17 -30,13 -46,27 -24,22 -50,148 -55,150 0,11 -13,20 -18,30l-41 -34zm13183 -5805c40,-19 57,-63 81,-98 48,-70 120,-107 161,-185 14,-26 30,-54 1,-73 -14,-9 -33,-8 -50,-11 -57,-12 -74,-55 -117,14 -18,29 -11,71 -10,104 3,69 -24,105 -77,148 -22,18 -90,94 -58,125 12,0 21,-4 33,-4l36 -20zm-2046 -3653c-6,-10 -11,-14 -17,-23l-6 0c-1,-5 0,-4 -6,-6 -1,-3 -7,-7 -11,-11l-6 0c-1,-4 -9,-7 -14,-9 -4,-12 -38,-22 -43,-40 -5,-1 -6,-4 -11,-6l-3 -6c-4,-1 -5,-2 -9,-3l-3 -6c-10,-3 -18,-14 -28,-17 -1,-5 0,-4 -6,-6l-3 -6c-15,-4 -26,-33 -26,-48l3 -3c12,-3 39,-36 34,-48 -8,-20 -12,-35 -28,-51l-17 0c-6,6 -3,5 -11,6 -2,6 -32,25 -40,28 -2,8 -9,17 -14,23 0,21 -5,31 3,54 5,14 21,29 23,43 21,11 35,70 60,77l6 9c16,4 38,22 54,31l3 6c6,1 6,1 9,6 29,4 52,34 77,40 2,7 11,14 17,20l0 6 6 3 3 6c5,1 7,3 9,9l6 0 3 6 6 0c1,4 9,6 14,6 0,-15 5,-46 -17,-51l-14 -37z"/>
  <g id="_2154407995072">
   <path class="fil2 str2" d="M9685 2976c-4,19 -11,31 0,43 16,17 68,125 94,136 6,3 5,9 9,14 3,4 16,23 20,28 3,4 2,7 6,11l3 3 6 0c4,0 0,6 3,9 3,3 11,12 14,14 5,4 0,6 6,9 37,15 64,441 99,494 21,32 114,168 182,190 6,2 46,39 48,45 29,89 71,162 94,256 16,68 -41,308 -34,344 5,24 -37,98 -37,102l0 9c0,5 -40,106 -43,108 -9,5 -8,10 -17,14 -3,1 -35,35 -37,40 -6,12 -50,125 -54,133 -11,21 -18,46 -28,68 -4,9 -15,15 -17,26 -20,82 -47,138 -51,244 0,5 -3,12 -9,14 -84,34 -40,196 -17,247 18,40 57,213 77,239 18,25 -5,59 -14,82 -5,14 -34,79 -20,94 20,21 13,115 34,128 9,5 9,18 17,26 9,8 18,24 26,31 4,4 47,48 68,57 35,15 67,16 99,17 1,0 26,20 28,26 8,15 23,27 26,45 1,13 1,38 11,48l3 3c3,3 0,6 3,9l40 43c10,11 25,9 37,17 6,4 4,10 9,14 6,5 5,4 11,9 4,3 0,5 6,9 24,13 77,128 77,159l0 6c0,5 4,1 9,6 5,6 3,10 11,14 23,13 51,33 71,43 5,2 5,4 9,9 6,8 8,19 14,28 3,5 8,5 9,11 5,49 46,94 60,125 5,11 15,6 23,14 8,8 11,16 17,26 3,5 17,29 23,34 6,6 19,18 23,26 1,3 23,34 26,34 18,2 60,1 74,14 17,15 42,55 48,71 33,90 124,25 168,9 13,-5 153,-86 168,-45 2,5 4,6 9,9 15,9 20,58 26,74 7,18 -8,93 -3,99 4,5 2,9 3,14 4,37 -1,82 -17,114 -18,35 -87,78 -99,80 -121,12 -33,205 3,239 16,15 56,79 68,97 22,31 127,57 139,88 63,161 18,334 17,500 0,9 2,15 -1,22 -13,29 -34,82 -34,114 0,20 -1,39 0,58 1,21 1,55 7,74l16 46"/>
   <path class="fil2 str2" d="M10659 2911c-30,12 -24,-13 -3,17 4,5 -10,9 -14,14 -6,7 -32,30 -40,34 -5,3 -11,9 -14,14 -8,14 -35,37 -40,57 -2,11 -3,41 -11,48 -6,6 -6,20 -14,23 -70,25 -14,163 -14,202 0,29 22,60 9,88 -11,23 -28,68 -37,94 -4,11 -15,40 -26,48 -6,5 -11,22 -9,28 11,25 39,117 43,145 8,72 -29,94 -48,151 -2,6 -7,7 -11,11 -4,4 -7,7 -11,11 -4,4 -25,25 -28,28 -4,4 -19,17 -23,20 -7,5 -10,3 -14,11 -14,28 -12,38 -31,74l-74 134"/>
   <path class="fil2 str2" d="M10207 10302c-10,23 -8,57 -23,77 -8,11 -24,16 -34,23 -15,9 -23,48 -37,64 -10,12 -45,25 -53,37 -3,5 -21,66 -28,77 -34,51 -104,68 -145,113 -37,41 9,65 -13,94 -18,25 -55,30 -73,60 -24,41 3,150 -73,150 -29,0 -66,-3 -88,17 -26,24 -8,48 -24,80 -33,62 -7,119 13,178 23,68 123,12 132,74l31 200c13,85 -22,83 -91,83 -168,0 -75,84 -50,177 15,54 1,84 33,133 29,44 36,88 37,140 0,31 9,64 9,97 0,61 -44,106 -24,171 15,48 39,133 58,178 18,42 57,104 87,137 52,57 23,101 43,168 7,23 12,64 31,81 23,21 53,-7 78,30 26,37 150,78 195,87 28,5 151,-45 186,-56 76,-24 182,-156 209,-229 16,-42 0,-104 57,-120 16,-5 75,-31 84,-47 4,-7 30,-89 38,-105 16,-32 86,-96 125,-88 33,7 70,1 90,-29 17,-27 35,-74 61,-80 43,-9 86,14 124,-10 50,-32 10,-131 94,-184 53,-34 81,-129 154,-135 59,-5 157,-13 213,-1 42,9 41,91 53,124 32,94 157,65 127,190 -17,70 -52,141 -18,212 19,41 82,16 98,64 19,58 -39,130 13,182 49,50 82,58 135,103 14,11 17,42 20,63 4,31 16,159 20,182 12,81 8,141 -16,222 -26,89 -138,173 -138,254 0,54 -34,98 -24,150 10,53 8,115 -31,157 -92,97 -210,88 -329,190 -55,47 -177,-4 -233,58l-144 158c-67,74 -124,448 -90,556 27,83 -51,158 -51,244 0,32 20,86 -6,108 -22,19 -40,77 -61,97 -98,93 -58,122 -85,229 -26,105 36,176 61,279 15,60 31,151 102,165 5,1 1,5 6,9 11,7 18,70 27,86 25,40 47,21 73,40 29,21 -10,156 -10,192 0,115 147,142 147,231 0,47 -18,92 -24,138 -7,53 35,120 26,177l-20 115c-13,74 -46,121 -31,201 9,52 -4,110 7,162 7,33 29,65 31,100 3,56 -27,80 -40,130 -11,45 -29,89 -48,134 -19,44 4,80 1,128 -6,103 -23,98 -74,174 -61,91 -142,92 -209,175 -23,29 -84,85 -87,125 -3,52 82,4 91,37 17,59 40,197 11,241 -50,75 -118,144 -176,212 -38,45 -118,68 -154,114 -33,42 -143,168 -196,182 -33,9 -66,-10 -95,-21 -72,-28 -107,29 -178,-50 -44,-49 -88,-30 -144,-20 -74,14 -145,-56 -223,-31 -30,9 -141,102 -125,127 39,62 -2,111 -26,158 -7,14 -50,33 -53,48 -15,79 0,167 57,228 86,93 7,267 7,379 0,21 39,28 53,46 11,14 12,45 21,64 18,36 67,21 87,66 16,37 -19,104 -23,140 -9,81 6,76 46,147 35,62 69,141 127,188 39,32 80,99 119,137l212 202c30,29 27,79 53,114 12,17 64,103 74,111 38,31 57,104 60,148 3,43 17,75 30,120 8,27 48,20 65,44 32,44 47,138 65,192 23,68 -17,103 -17,164 0,43 19,66 -6,107 -41,69 -21,97 -36,168 -6,29 -38,51 -57,74 -20,24 -16,54 -16,84 0,50 -50,51 -61,98 -14,59 15,158 21,219 9,92 113,189 169,255 31,36 81,67 101,111 18,41 64,138 16,153 -65,19 -143,-29 -198,30 -45,48 -53,138 -78,201 -23,57 -149,162 -119,229 7,15 33,15 38,29 11,28 -17,58 -6,90 7,20 16,47 30,57 29,19 -5,111 -13,128 -1,2 -13,14 -17,17 -2,1 -4,1 -6,3 -3,3 -4,5 -7,7 -2,2 -4,5 -6,7 -2,2 -1,3 -3,6 -2,3 -3,6 -6,9 -2,3 -3,6 -4,9l-16 29"/>
   <path class="fil2 str2" d="M10308 23879c9,2 11,4 18,0 28,-17 76,-51 110,-53 34,-2 65,11 101,4 39,-8 74,-26 112,-36 28,-7 55,14 78,24 125,56 256,-26 263,168 2,59 -8,98 -57,135 -38,29 -115,49 -128,93 -16,53 89,19 115,38l26 19"/>
   <path class="fil2 str2" d="M11395 24542c-27,98 -25,203 34,285 18,24 31,72 31,102 0,33 5,63 23,85 11,15 39,27 51,43l49 63"/>
   <path class="fil2 str2" d="M10572 25997c-106,21 -48,146 -114,168 -6,2 -3,8 -9,9 -35,5 -75,28 -116,28 -51,0 -39,-11 -80,-31 -66,-33 -96,35 -176,-45 -105,-105 -140,-20 -267,-20 -103,0 -144,-3 -151,131 0,7 -4,24 0,28l3 3 6 0c12,0 40,21 48,23 51,8 177,61 185,119 1,9 10,32 11,43 0,2 6,54 6,62 0,65 11,135 20,190 2,9 16,27 23,34 4,4 1,4 6,9l3 3 0 9c0,5 -1,2 3,6 7,7 11,19 11,26 6,80 -20,216 -65,273 -31,39 -115,58 -148,74 -9,4 -11,15 -14,26 -2,4 2,2 -3,6 -13,9 -1,43 3,54 2,5 -2,8 3,11 11,8 4,57 0,68 -1,4 0,1 -3,6 -2,4 -2,0 -3,6 -8,49 3,85 -34,122 -27,27 -66,46 -99,68 -27,18 -30,54 -48,80 -40,55 -332,6 -284,125 16,41 67,102 6,136 -46,25 -78,41 -51,88 11,19 23,102 23,125"/>
   <path class="fil2 str2" d="M11067 14665c4,18 116,108 135,123 23,19 124,54 159,82 84,67 177,125 204,233 26,101 18,121 77,210 64,96 137,203 173,315 21,65 7,287 9,295 6,35 -42,62 -17,85 47,43 62,213 91,261 18,30 120,-8 133,60 2,10 6,25 9,34 8,29 13,75 17,108 6,55 45,49 57,77 2,5 4,-3 6,3 5,15 -6,72 17,77 6,1 7,3 9,9 34,115 -6,203 139,267 30,13 23,49 20,88 -4,50 -34,105 -6,156 33,60 21,82 51,151l20 45"/>
   <path class="fil2 str2" d="M12610 17713c11,-1 23,-6 34,3 15,12 38,15 60,20 46,10 88,9 133,23 62,19 68,88 68,145 0,74 -1,152 -17,224 -12,54 -24,55 6,77 66,48 52,166 82,227l3 6c3,5 3,9 9,11 36,14 117,47 139,80 48,72 74,97 151,20l3 -3c22,-22 36,43 74,40 27,-2 30,-99 111,-99 39,0 131,24 148,-37 2,-7 3,-8 9,-11 53,-32 43,-140 133,-148 37,-3 77,26 102,48 53,47 116,-15 179,23 85,50 163,6 239,57 31,21 -48,87 31,119 12,5 -3,31 9,37 45,24 55,-26 133,0 113,38 114,169 247,80 37,-25 263,-138 287,-139 47,-3 74,3 105,-40 12,-16 12,-43 23,-54 54,-54 74,-68 43,-139 -16,-35 -14,-78 -14,-119 0,-29 41,-63 28,-97 -11,-28 -32,-43 -43,-77 -15,-50 2,-153 -54,-173 -109,-39 -217,28 -287,-77 -40,-59 -136,-27 -187,-125 -16,-31 -100,-16 -122,-43l-77 -91"/>
   <path class="fil2 str2" d="M13834 25582c86,55 151,11 241,91 99,88 192,151 281,250 38,43 293,9 355,-23 23,-11 12,-155 14,-168 27,-136 96,-80 156,-165 120,-170 158,-96 298,-170 20,-11 235,8 270,17 84,22 122,48 219,48 147,0 210,155 239,264 6,22 94,73 105,131l37 199c9,50 58,62 74,111 24,72 13,146 43,219 47,114 40,233 65,355 11,55 15,114 11,170 -3,47 22,78 48,108 38,43 110,25 170,37 5,1 29,16 37,23"/>
   <path class="fil2 str2" d="M16024 20496c0,-188 205,-73 267,-6 83,90 133,73 236,125l287 145 173 258c3,4 2,2 6,6l3 3c8,8 3,31 14,37 48,26 124,121 153,170 17,30 54,95 54,128l0 9c0,3 15,14 17,14 158,2 79,299 111,324 21,16 48,95 62,142 13,42 77,97 114,128 27,23 51,67 40,111 -16,61 -57,103 -57,176 0,119 0,185 48,270 19,32 98,15 125,51 16,22 81,21 105,45 24,24 23,52 45,68 22,16 38,26 40,40 10,68 -83,269 11,312 12,5 -13,33 -17,45 -25,81 -28,88 3,182 42,126 -99,134 -99,247 0,81 -53,69 -68,114 -9,26 31,98 3,122 -23,19 -54,10 -65,28 -4,7 -16,9 -17,14 -5,20 1,18 9,31 3,5 7,4 11,9l3 3c19,19 -25,50 -26,60 -3,38 4,44 20,74 5,10 33,14 40,28 17,37 -35,102 0,122 125,72 73,64 122,165 5,10 -12,18 -17,28 -3,6 -7,2 -9,9 -14,55 1,41 20,85 4,9 16,23 23,34 15,25 40,53 40,88 0,30 -16,70 6,94 29,33 28,128 31,165 0,4 7,9 11,11 21,9 44,10 54,28 23,42 27,95 31,145 4,46 -4,81 -9,122 0,5 -6,1 -3,6 3,5 8,26 9,34 6,68 -18,227 -91,270 -18,10 -6,46 -3,68l12 74"/>
   <path class="fil2 str2" d="M1000 25903c2,-37 22,-64 54,-85 67,-44 212,-199 273,-227 13,-6 8,-3 11,-17 38,-173 119,-278 119,-500 0,-754 1100,-1024 1721,-1068 393,-28 761,-234 1119,-62l415 199c123,59 135,261 307,369 106,67 406,142 437,227 4,11 13,6 17,17 2,6 14,31 20,40 3,4 15,24 20,26 52,18 132,-8 170,31 40,41 150,132 207,136 77,5 194,-26 253,26 57,50 217,145 224,239 8,101 60,225 6,304 -56,81 -110,146 -80,247 53,173 174,162 216,324 18,69 61,115 77,182 20,87 29,183 6,273 -41,158 -72,330 -37,491 15,68 15,101 51,159 112,182 -24,345 40,548 13,42 64,56 80,102 57,172 -83,261 133,375 23,12 53,31 62,51l3 6c37,73 232,119 275,187l125 197"/>
   <path class="fil2 str2" d="M9759 22893c-47,-16 -92,21 -139,31 -65,14 -102,7 -151,-31 -36,-29 -84,-15 -122,0 -26,10 -54,-28 -71,-40 -21,-14 -42,-11 -71,-11 -81,0 -50,-93 -131,0 -46,53 -79,36 -136,20 -42,-12 -58,14 -91,28 -51,23 -103,-50 -139,-74 -46,-31 -95,44 -125,71 -27,25 -59,-15 -97,14 -17,13 -61,3 -85,0 -128,-18 -73,61 -199,-20 -142,-92 -202,14 -361,14 -65,0 -118,10 -176,-17 -61,-29 -106,-112 -170,-111 -2,0 -11,7 -11,9 -2,65 -3,80 -23,133 -3,7 -12,-2 -14,6 -27,80 -90,97 -162,57 -98,-55 -11,-141 -68,-219 -32,-43 -97,-70 -119,-80 -5,-2 2,-2 -3,-6 -4,-3 -10,-2 -11,3 -33,115 -177,142 -241,236 -69,100 -100,-93 -179,-43 -65,42 -25,95 -111,116 -49,13 -190,17 -244,17 -134,0 -99,31 -202,88 -16,9 -154,-56 -170,-57 -10,-1 -23,-6 -31,-9 -147,-44 -268,42 -389,-142 -59,-90 -219,8 -321,-34 -108,-44 -63,-95 -210,-60 -67,16 -106,-48 -165,-48 -78,0 -199,51 -287,57 -124,9 -148,-124 -224,-168 -6,-3 -3,-10 -9,-11 -108,-26 -128,-15 -233,-80 -56,-34 -159,27 -224,-60 -26,-34 -80,24 -114,23 -8,0 -88,-11 -99,-14l-273 -88c-151,-49 -153,12 -273,-11 -168,-32 -72,-135 -162,-207 -52,-42 -134,-37 -204,-94 -241,-196 -406,-224 -679,-43 -158,105 -392,595 -400,781 0,9 -5,25 -6,34 -8,180 189,278 65,446 -21,28 -82,37 -88,57 -37,132 -109,160 -148,273l-116 338c-39,114 -10,249 -51,355 -22,57 -52,148 -57,210 -4,54 -37,102 -60,151 -21,45 11,208 11,270 0,94 71,91 37,207 -2,5 -2,2 -6,6 -4,4 -12,0 -14,6 -17,50 -34,124 -48,179 -2,7 -16,26 -23,28 -55,17 -31,110 -34,151l-18 264"/>
   <path class="fil2 str2" d="M17904 1000c20,26 30,26 62,31 7,1 30,20 17,51 -19,48 30,75 45,116 2,5 1,3 6,6 11,6 37,30 40,45 1,4 6,8 9,11 2,3 6,7 9,11 1,2 11,12 14,14 7,5 20,4 26,11 11,15 99,-15 111,3 31,47 317,89 372,125 24,16 60,159 168,159l23 0c4,0 6,3 9,6 3,4 2,2 6,6 4,4 3,1 6,6 7,10 42,13 51,23 24,27 36,84 57,116 10,16 58,45 68,68 38,87 -24,228 6,318 17,52 52,89 65,148 17,77 10,131 45,204 5,10 18,40 24,47 27,28 36,160 36,198 0,40 -4,98 40,115 36,15 51,44 81,67 27,20 61,14 88,34 52,40 34,91 112,91 57,0 70,62 137,74l68 13"/>
   <path class="fil2 str2" d="M19146 1000c-2,42 -43,44 -21,103 18,48 -14,66 -41,100 -44,56 -18,166 16,221 33,53 75,76 95,141 16,53 40,99 85,134 31,24 59,30 92,47 52,26 52,66 122,66 55,0 65,35 90,81 11,21 43,20 64,31l54 30"/>
  </g>
  <polygon class="fil3 str3" points="1596,26876 3991,26876 3991,28469 1596,28469 "/>
  <path class="fil4" d="M1213 28370c0,-17 4,-34 13,-51 9,-17 22,-30 38,-39 17,-9 34,-14 52,-14 18,0 35,5 52,14 17,9 29,22 39,38 9,17 14,34 14,52 0,18 -5,35 -14,52 -9,17 -22,29 -39,39 -17,9 -34,14 -52,14 -18,0 -35,-5 -52,-14 -17,-9 -30,-22 -38,-39 -9,-17 -13,-34 -13,-51zm17 0c0,15 4,29 11,43 7,14 18,25 32,32 14,8 28,12 43,12 15,0 29,-4 43,-12 14,-8 24,-18 32,-32 8,-14 12,-28 12,-43 0,-15 -4,-29 -12,-43 -8,-14 -18,-25 -32,-32 -14,-8 -28,-11 -43,-11 -15,0 -30,4 -43,12 -14,8 -25,19 -32,32 -7,14 -11,28 -11,43zm104 -33l5 -17c12,3 21,9 28,18 7,9 10,20 10,33 0,16 -5,29 -16,39 -10,10 -25,15 -44,15 -12,0 -23,-2 -32,-7 -9,-5 -16,-11 -20,-20 -5,-9 -7,-18 -7,-29 0,-12 3,-22 9,-30 6,-8 14,-14 24,-17l4 16c-7,3 -12,7 -16,12 -4,5 -6,12 -6,19 0,11 4,19 11,26 8,7 18,10 32,10 14,0 25,-3 32,-10 7,-6 11,-15 11,-25 0,-8 -2,-16 -7,-22 -5,-6 -11,-10 -20,-12z"/>
  <path id="1" class="fil4" d="M1419 28075l-19 0c14,9 22,23 22,41 0,12 -3,22 -10,32 -6,10 -15,17 -27,23 -12,5 -25,8 -40,8 -15,0 -28,-2 -40,-7 -12,-5 -21,-12 -27,-22 -6,-10 -10,-21 -10,-33 0,-9 2,-17 6,-24 4,-7 9,-12 15,-17l-73 0 0 -25 202 0 0 23zm-73 78c19,0 33,-4 42,-12 9,-8 14,-17 14,-28 0,-11 -4,-20 -13,-28 -9,-8 -22,-11 -41,-11 -20,0 -35,4 -44,12 -9,8 -14,17 -14,29 0,11 4,20 13,28 9,7 23,11 42,11z"/>
  <polygon id="2" class="fil4" points="1358,28022 1333,28022 1333,27946 1358,27946 "/>
  <path id="3" class="fil4" d="M1419 27918l-146 0 0 -22 21 0c-7,-5 -13,-11 -17,-18 -4,-8 -7,-16 -7,-26 0,-11 2,-20 7,-27 5,-7 11,-12 19,-15 -17,-12 -26,-27 -26,-45 0,-15 4,-26 12,-34 8,-8 20,-12 37,-12l100 0 0 25 -92 0c-10,0 -17,1 -21,2 -4,2 -8,5 -11,9 -3,4 -4,9 -4,15 0,10 3,19 10,26 7,7 18,10 33,10l85 0 0 25 -95 0c-11,0 -19,2 -25,6 -6,4 -8,11 -8,20 0,7 2,13 6,19 4,6 9,10 16,13 7,3 17,4 31,4l76 0 0 25z"/>
  <path id="4" class="fil4" d="M1400 27588c8,9 13,18 17,27 3,9 5,18 5,27 0,16 -4,28 -12,37 -8,9 -18,13 -30,13 -7,0 -14,-2 -20,-5 -6,-3 -11,-8 -14,-13 -4,-5 -6,-11 -8,-18 -1,-5 -2,-12 -4,-22 -2,-20 -5,-35 -9,-44 -3,0 -6,0 -6,0 -10,0 -17,2 -21,7 -6,6 -8,16 -8,28 0,12 2,20 6,26 4,6 11,10 22,12l-3 24c-10,-2 -19,-6 -25,-11 -6,-5 -11,-12 -15,-22 -3,-10 -5,-21 -5,-33 0,-13 1,-23 4,-31 3,-8 7,-14 11,-17 4,-4 10,-6 17,-8 4,-1 12,-1 23,-1l33 0c23,0 38,-1 44,-2 6,-1 12,-3 18,-6l0 26c-5,3 -11,4 -18,5zm-55 2c4,9 7,23 9,41 1,10 3,17 5,22 2,4 5,7 8,10 4,2 7,3 12,3 7,0 12,-2 16,-8 4,-5 7,-12 7,-22 0,-10 -2,-18 -6,-26 -4,-7 -10,-13 -17,-16 -6,-3 -14,-4 -25,-4l-9 0z"/>
  <path id="5" class="fil4" d="M1475 27526l-203 0 0 -23 19 0c-7,-5 -13,-11 -17,-18 -4,-7 -6,-15 -6,-24 0,-13 3,-24 10,-33 6,-10 15,-17 27,-22 12,-5 25,-7 38,-7 15,0 28,3 40,8 12,5 21,13 28,23 6,10 10,21 10,32 0,8 -2,16 -5,22 -3,7 -8,12 -13,16l71 0 0 25zm-129 -23c19,0 33,-4 42,-11 9,-8 13,-17 13,-28 0,-11 -5,-20 -14,-28 -9,-8 -24,-12 -43,-12 -19,0 -33,4 -42,11 -9,8 -14,17 -14,27 0,11 5,20 15,28 10,8 24,12 43,12z"/>
  <path id="6" class="fil4" d="M1375 27379l-4 -25c10,-1 17,-5 23,-12 5,-6 8,-15 8,-26 0,-11 -2,-20 -7,-25 -5,-6 -10,-8 -16,-8 -6,0 -10,3 -13,7 -2,3 -5,12 -8,25 -5,18 -9,31 -12,38 -3,7 -8,12 -14,16 -6,4 -12,5 -20,5 -7,0 -13,-2 -18,-4 -6,-3 -10,-7 -14,-12 -3,-4 -5,-9 -7,-16 -2,-7 -3,-14 -3,-21 0,-11 2,-22 5,-30 3,-9 8,-15 13,-19 6,-4 13,-7 23,-9l3 24c-8,1 -14,4 -18,10 -4,5 -6,13 -6,22 0,11 2,19 6,24 4,5 8,7 13,7 3,0 6,-1 9,-3 3,-2 5,-5 7,-10 1,-3 3,-10 6,-22 5,-18 9,-30 11,-37 3,-7 7,-12 13,-16 6,-4 13,-6 21,-6 8,0 16,2 23,7 7,5 13,12 17,21 4,9 6,19 6,31 0,19 -4,34 -12,44 -8,10 -20,16 -35,19z"/>
  <polygon id="7" class="fil4" points="1419,27221 1391,27221 1391,27193 1419,27193 "/>
  <path id="8" class="fil4" d="M1365 27054l3 -24c17,3 30,9 39,20 9,11 14,24 14,40 0,20 -7,36 -20,48 -13,12 -32,18 -56,18 -16,0 -30,-3 -41,-8 -12,-5 -21,-13 -27,-24 -6,-11 -9,-22 -9,-35 0,-16 4,-29 12,-39 8,-10 19,-17 34,-19l4 24c-10,2 -17,6 -22,12 -5,6 -7,13 -7,21 0,13 4,23 13,31 9,8 23,12 42,12 20,0 34,-4 43,-11 9,-8 13,-17 13,-29 0,-10 -3,-18 -9,-24 -6,-7 -15,-11 -27,-12z"/>
  <path id="9" class="fil4" d="M1345 27018c-27,0 -47,-8 -60,-23 -11,-13 -16,-28 -16,-46 0,-20 7,-37 20,-49 13,-13 31,-19 55,-19 19,0 34,3 44,8 11,6 19,14 25,25 6,11 9,23 9,35 0,21 -7,37 -20,50 -13,13 -32,19 -57,19zm0 -25c19,0 33,-4 42,-12 9,-8 14,-19 14,-31 0,-12 -5,-23 -14,-31 -9,-8 -24,-12 -43,-12 -18,0 -32,4 -41,12 -9,8 -14,18 -14,31 0,12 5,23 14,31 9,8 23,12 42,12z"/>
  <path id="10" class="fil4" d="M1419 26852l-146 0 0 -22 21 0c-7,-5 -13,-11 -17,-18 -4,-8 -7,-16 -7,-26 0,-11 2,-20 7,-27 5,-7 11,-12 19,-15 -17,-12 -26,-27 -26,-45 0,-15 4,-26 12,-34 8,-8 20,-12 37,-12l100 0 0 25 -92 0c-10,0 -17,1 -21,2 -4,2 -8,5 -11,9 -3,4 -4,9 -4,15 0,10 3,19 10,26 7,7 18,10 33,10l85 0 0 25 -95 0c-11,0 -19,2 -25,6 -6,4 -8,11 -8,20 0,7 2,13 6,19 4,6 9,10 16,13 7,3 17,4 31,4l76 0 0 25z"/>
  <g id="_2154407998688">
   <g>
    <polygon class="fil5 str4" points="1738,27477 2404,27477 2404,27576 1738,27576 "/>
    <polygon class="fil6 str4" points="2404,27477 3071,27477 3071,27576 2404,27576 "/>
    <polygon class="fil5 str4" points="3071,27477 3737,27477 3737,27576 3071,27576 "/>
    <polygon class="fil5 str4" points="2806,27776 3872,27776 3872,27875 2806,27875 "/>
    <polygon class="fil6 str4" points="1740,27776 2806,27776 2806,27875 1740,27875 "/>
   </g>
   <path class="fil7" d="M2238 27108c7,-16 15,-28 25,-37 10,-9 23,-13 38,-13 19,0 33,6 43,18 8,9 11,19 11,29 0,17 -11,35 -32,53 14,6 25,14 33,24 7,10 11,23 11,37 0,20 -6,38 -19,53 -17,19 -41,29 -73,29 -16,0 -26,-2 -32,-6 -6,-4 -9,-8 -9,-13 0,-3 1,-6 4,-9 3,-3 6,-4 10,-4 3,0 6,0 9,1 2,1 6,3 13,6 7,4 12,6 14,7 4,1 9,2 14,2 12,0 22,-5 31,-14 9,-9 13,-20 13,-32 0,-9 -2,-18 -6,-27 -3,-6 -6,-11 -10,-15 -5,-5 -12,-9 -20,-13 -9,-4 -17,-6 -26,-6l-6 0 0 -5c9,-1 18,-4 27,-10 9,-5 16,-12 20,-19 4,-8 6,-16 6,-25 0,-12 -4,-21 -11,-29 -7,-7 -17,-11 -28,-11 -18,0 -33,10 -45,29l-6 -3z"/>
   <path id="1" class="fil7" d="M2410 27182c0,-27 4,-50 12,-69 8,-19 19,-34 32,-43 10,-7 21,-11 32,-11 18,0 34,9 48,27 18,23 27,53 27,92 0,27 -4,50 -12,69 -8,19 -18,33 -30,41 -12,9 -24,13 -35,13 -22,0 -41,-13 -56,-39 -13,-22 -19,-49 -19,-80zm34 4c0,32 4,58 12,79 7,17 16,26 29,26 6,0 13,-3 19,-8 7,-6 12,-15 15,-28 5,-20 8,-48 8,-83 0,-27 -3,-49 -8,-67 -4,-13 -9,-23 -16,-28 -5,-4 -10,-6 -17,-6 -8,0 -15,4 -21,11 -8,10 -14,24 -17,45 -3,20 -4,41 -4,60z"/>
   <path id="2" class="fil7" d="M2586 27182c0,-27 4,-50 12,-69 8,-19 19,-34 32,-43 10,-7 21,-11 32,-11 18,0 34,9 48,27 18,23 27,53 27,92 0,27 -4,50 -12,69 -8,19 -18,33 -30,41 -12,9 -24,13 -35,13 -22,0 -41,-13 -56,-39 -13,-22 -19,-49 -19,-80zm34 4c0,32 4,58 12,79 7,17 16,26 29,26 6,0 13,-3 19,-8 7,-6 12,-15 15,-28 5,-20 8,-48 8,-83 0,-27 -3,-49 -8,-67 -4,-13 -9,-23 -16,-28 -5,-4 -10,-6 -17,-6 -8,0 -15,4 -21,11 -8,10 -14,24 -17,45 -3,20 -4,41 -4,60z"/>
   <path id="3" class="fil7" d="M2896 27052l0 157 40 -37c9,-8 13,-13 15,-15 1,-1 1,-3 1,-4 0,-2 -1,-4 -3,-6 -2,-2 -5,-3 -9,-3l0 -6 69 0 0 6c-9,0 -17,2 -23,4 -6,3 -13,7 -21,14l-41 37 40 51c11,14 19,23 23,27 6,5 10,9 15,10 3,1 8,2 15,2l0 6 -77 0 0 -6c4,0 7,-1 9,-2 2,-1 2,-3 2,-5 0,-3 -2,-7 -7,-13l-48 -62 0 52c0,10 1,17 2,20 1,3 3,5 6,7 3,1 8,2 17,2l0 6 -80 0 0 -6c8,0 14,-1 18,-3 2,-1 4,-3 5,-6 2,-4 3,-10 3,-20l0 -144c0,-18 0,-29 -1,-33 -1,-4 -2,-7 -4,-8 -2,-2 -4,-2 -7,-2 -2,0 -6,1 -11,3l-3 -6 47 -19 8 0z"/>
   <path id="4" class="fil7" d="M3073 27169c11,-12 18,-18 20,-20 5,-4 11,-8 17,-10 6,-2 12,-4 18,-4 10,0 18,3 25,9 7,6 12,14 14,25 12,-14 22,-23 30,-27 8,-4 17,-6 25,-6 8,0 16,2 22,6 6,4 12,11 15,21 3,7 4,17 4,31l0 68c0,10 1,17 2,20 1,2 3,5 6,6 3,2 8,3 15,3l0 6 -77 0 0 -6 3 0c7,0 12,-1 16,-4 3,-2 5,-5 6,-9 0,-2 1,-7 1,-17l0 -68c0,-13 -2,-22 -5,-27 -5,-7 -12,-11 -22,-11 -6,0 -12,2 -18,5 -6,3 -14,9 -22,17l0 2 1 7 0 75c0,11 1,17 2,20 1,3 3,5 7,7 3,2 9,3 17,3l0 6 -79 0 0 -6c9,0 15,-1 18,-3 3,-2 5,-5 7,-9 1,-2 1,-8 1,-17l0 -68c0,-13 -2,-22 -6,-28 -5,-7 -12,-11 -21,-11 -6,0 -12,2 -18,5 -9,5 -17,11 -22,17l0 85c0,10 1,17 2,20 1,3 4,5 6,7 3,2 8,2 17,2l0 6 -78 0 0 -6c7,0 12,-1 15,-2 3,-2 5,-4 7,-7 1,-3 2,-10 2,-20l0 -60c0,-17 -1,-28 -2,-34 -1,-4 -2,-6 -4,-8 -2,-1 -4,-2 -7,-2 -3,0 -7,1 -12,3l-3 -6 48 -19 7 0 0 34z"/>
   <path class="fil7" d="M2486 28222l-16 45 -138 0 0 -6c41,-37 69,-67 86,-91 17,-23 25,-45 25,-64 0,-15 -5,-27 -14,-37 -9,-10 -20,-14 -33,-14 -12,0 -22,3 -31,10 -9,7 -16,16 -20,29l-6 0c3,-21 10,-37 22,-49 12,-11 27,-17 45,-17 19,0 35,6 48,18 13,12 19,27 19,43 0,12 -3,24 -8,36 -8,19 -22,38 -41,59 -29,31 -46,50 -53,56l60 0c12,0 21,0 26,-1 5,-1 9,-3 13,-6 4,-3 7,-7 10,-12l7 0z"/>
   <path id="1" class="fil7" d="M2513 28152c0,-27 4,-50 12,-69 8,-19 19,-34 32,-43 10,-7 21,-11 32,-11 18,0 34,9 48,27 18,23 27,53 27,92 0,27 -4,50 -12,69 -8,19 -18,33 -30,41 -12,9 -24,13 -35,13 -22,0 -41,-13 -56,-39 -13,-22 -19,-49 -19,-80zm34 4c0,32 4,58 12,79 7,17 16,26 29,26 6,0 13,-3 19,-8 7,-6 12,-15 15,-28 5,-20 8,-48 8,-83 0,-27 -3,-49 -8,-67 -4,-13 -9,-23 -16,-28 -5,-4 -10,-6 -17,-6 -8,0 -15,4 -21,11 -8,10 -14,24 -17,45 -3,20 -4,41 -4,60z"/>
   <path id="2" class="fil7" d="M2690 28152c0,-27 4,-50 12,-69 8,-19 19,-34 32,-43 10,-7 21,-11 32,-11 18,0 34,9 48,27 18,23 27,53 27,92 0,27 -4,50 -12,69 -8,19 -18,33 -30,41 -12,9 -24,13 -35,13 -22,0 -41,-13 -56,-39 -13,-22 -19,-49 -19,-80zm34 4c0,32 4,58 12,79 7,17 16,26 29,26 6,0 13,-3 19,-8 7,-6 12,-15 15,-28 5,-20 8,-48 8,-83 0,-27 -3,-49 -8,-67 -4,-13 -9,-23 -16,-28 -5,-4 -10,-6 -17,-6 -8,0 -15,4 -21,11 -8,10 -14,24 -17,45 -3,20 -4,41 -4,60z"/>
   <path id="3" class="fil7" d="M3000 28138c11,-12 18,-18 20,-20 5,-4 11,-8 17,-10 6,-2 12,-4 18,-4 10,0 18,3 25,9 7,6 12,14 14,25 12,-14 22,-23 30,-27 8,-4 17,-6 25,-6 8,0 16,2 22,6 6,4 12,11 15,21 3,7 4,17 4,31l0 68c0,10 1,17 2,20 1,2 3,5 6,6 3,2 8,3 15,3l0 6 -77 0 0 -6 3 0c7,0 12,-1 16,-4 3,-2 5,-5 6,-9 0,-2 1,-7 1,-17l0 -68c0,-13 -2,-22 -5,-27 -5,-7 -12,-11 -22,-11 -6,0 -12,2 -18,5 -6,3 -14,9 -22,17l0 2 1 7 0 75c0,11 1,17 2,20 1,3 3,5 7,7 3,2 9,3 17,3l0 6 -79 0 0 -6c9,0 15,-1 18,-3 3,-2 5,-5 7,-9 1,-2 1,-8 1,-17l0 -68c0,-13 -2,-22 -6,-28 -5,-7 -12,-11 -21,-11 -6,0 -12,2 -18,5 -9,5 -17,11 -22,17l0 85c0,10 1,17 2,20 1,3 4,5 6,7 3,2 8,2 17,2l0 6 -78 0 0 -6c7,0 12,-1 15,-2 3,-2 5,-4 7,-7 1,-3 2,-10 2,-20l0 -60c0,-17 -1,-28 -2,-34 -1,-4 -2,-6 -4,-8 -2,-1 -4,-2 -7,-2 -3,0 -7,1 -12,3l-3 -6 48 -19 7 0 0 34z"/>
   <path id="4" class="fil7" d="M3267 28022c5,0 9,2 12,5 3,3 5,8 5,12 0,5 -2,9 -5,12 -3,3 -8,5 -12,5 -5,0 -9,-2 -12,-5 -3,-3 -5,-8 -5,-12 0,-5 2,-9 5,-12 3,-3 8,-5 13,-5zm14 83l0 127c0,10 1,16 2,20 1,3 4,6 6,7 3,2 8,2 15,2l0 6 -77 0 0 -6c8,0 13,-1 15,-2 3,-1 5,-4 6,-7 2,-3 2,-10 2,-20l0 -61c0,-17 -1,-28 -2,-33 -1,-4 -2,-6 -4,-8 -2,-1 -4,-2 -7,-2 -3,0 -7,1 -12,3l-2 -6 47 -19 8 0z"/>
  </g>
  <rect class="fil2 str5" x="1000" y="1000" width="18702" height="27700"/>
  <g id="_2154407996096">
   <polygon class="fil3 str3" points="4129,26873 4945,26873 4945,28466 4129,28466 "/>
   <path class="fil8" d="M4477 27309c-1,3 -2,6 -2,9 0,3 -1,5 -1,7 0,6 2,10 5,12 3,2 10,3 18,3l4 0 -5 23 -78 0 5 -23 3 0c7,0 13,-2 16,-5 4,-3 6,-8 8,-16l38 -154c1,-3 1,-6 2,-8 0,-3 1,-6 1,-9 0,-5 -2,-9 -6,-11 -4,-2 -11,-3 -20,-3l-3 0 5 -23 72 0 62 184 31 -129c1,-4 2,-8 2,-10 0,-3 1,-5 1,-6 0,-6 -2,-10 -5,-12 -4,-2 -10,-3 -18,-3l-4 0 5 -23 79 0 -6 23 -3 0c-7,0 -13,2 -16,5 -4,3 -6,8 -8,16l-51 208 -22 0 -72 -209 -37 155z"/>
   <line class="fil2 str6" x1="4538" y1="28333" x2="4538" y2= "27564" />
   <line class="fil2 str6" x1="4256" y1="28057" x2="4819" y2= "28057" />
   <line class="fil2 str6" x1="4393" y1="28197" x2="4687" y2= "27910" />
   <line class="fil2 str6" x1="4390" y1="27910" x2="4688" y2= "28199" />
   <line class="fil2 str6" x1="4538" y1="27566" x2="4442" y2= "27684" />
   <line class="fil2 str6" x1="4538" y1="27566" x2="4626" y2= "27684" />
  </g>
  <g id="_2154407994464">
   <polygon class="fil3 str3" points="19472,27997 19472,28470 17163,28470 17163,27997 "/>
   <path class="fil8" d="M18240 28335l0 -202 40 0 48 143c4,13 8,23 10,30 2,-7 6,-18 11,-32l49 -141 36 0 0 202 -26 0 0 -169 -59 169 -24 0 -58 -172 0 172 -26 0z"/>
   <path id="1" class="fil8" d="M18572 28288l26 3c-4,15 -11,27 -22,35 -11,8 -25,12 -42,12 -21,0 -38,-7 -51,-20 -13,-13 -19,-32 -19,-55 0,-25 6,-44 19,-57 13,-14 29,-20 49,-20 20,0 35,7 48,20 12,13 19,32 19,56 0,1 0,4 0,7l-109 0c1,16 5,28 14,37 8,9 18,13 31,13 9,0 17,-2 23,-7 6,-5 12,-12 15,-23zm-81 -40l82 0c-1,-12 -4,-22 -9,-28 -8,-10 -18,-14 -31,-14 -11,0 -21,4 -29,11 -8,8 -12,18 -13,31z"/>
   <path id="2" class="fil8" d="M18629 28335l0 -146 22 0 0 22c6,-10 11,-17 16,-21 5,-3 10,-5 16,-5 8,0 17,3 26,8l-9 23c-6,-3 -12,-5 -18,-5 -5,0 -10,2 -15,5 -4,3 -7,8 -9,14 -3,9 -4,18 -4,29l0 77 -25 0z"/>
   <path id="3" class="fil8" d="M18819 28282l24 3c-3,17 -9,30 -20,39 -11,9 -24,14 -40,14 -20,0 -36,-7 -48,-20 -12,-13 -18,-32 -18,-56 0,-16 3,-30 8,-41 5,-12 13,-21 24,-27 11,-6 22,-9 35,-9 16,0 29,4 39,12 10,8 17,19 19,34l-24 4c-2,-10 -6,-17 -12,-22 -6,-5 -13,-7 -21,-7 -13,0 -23,4 -31,13 -8,9 -12,23 -12,42 0,20 4,34 11,43 8,9 17,13 29,13 10,0 18,-3 24,-9 7,-6 11,-15 12,-27z"/>
   <path id="4" class="fil8" d="M18960 28317c-9,8 -18,13 -27,17 -9,3 -18,5 -27,5 -16,0 -28,-4 -37,-12 -9,-8 -13,-18 -13,-30 0,-7 2,-14 5,-20 3,-6 8,-11 13,-14 5,-4 11,-6 18,-8 5,-1 12,-2 22,-4 20,-2 35,-5 44,-9 0,-3 0,-6 0,-6 0,-10 -2,-17 -7,-21 -6,-6 -16,-8 -28,-8 -12,0 -20,2 -26,6 -6,4 -10,11 -12,22l-24 -3c2,-10 6,-19 11,-25 5,-6 12,-11 22,-15 10,-3 21,-5 33,-5 13,0 23,1 31,4 8,3 14,7 17,11 4,4 6,10 8,17 1,4 1,12 1,23l0 33c0,23 1,38 2,44 1,6 3,12 6,18l-26 0c-3,-5 -4,-11 -5,-18zm-2 -55c-9,4 -23,7 -41,9 -10,1 -17,3 -22,5 -4,2 -7,5 -10,8 -2,4 -3,7 -3,12 0,7 2,12 8,16 5,4 12,7 22,7 10,0 18,-2 26,-6 7,-4 13,-10 16,-17 3,-6 4,-14 4,-25l0 -9z"/>
   <path id="5" class="fil8" d="M19075 28313l3 22c-7,1 -13,2 -19,2 -9,0 -16,-1 -21,-4 -5,-3 -8,-7 -10,-11 -2,-5 -3,-14 -3,-29l0 -84 -18 0 0 -19 18 0 0 -36 25 -15 0 51 25 0 0 19 -25 0 0 86c0,7 0,12 1,14 1,2 2,4 4,5 2,1 5,2 8,2 3,0 6,0 11,-1z"/>
   <path id="6" class="fil8" d="M19091 28262c0,-27 8,-47 23,-60 13,-11 28,-16 46,-16 20,0 37,7 49,20 13,13 19,31 19,55 0,19 -3,34 -8,44 -6,11 -14,19 -25,25 -11,6 -23,9 -35,9 -21,0 -37,-7 -50,-20 -13,-13 -19,-32 -19,-57zm25 0c0,19 4,33 12,42 8,9 19,14 31,14 12,0 23,-5 31,-14 8,-9 12,-24 12,-43 0,-18 -4,-32 -12,-41 -8,-9 -18,-14 -31,-14 -12,0 -23,5 -31,14 -8,9 -12,23 -12,42z"/>
   <path id="7" class="fil8" d="M19257 28335l0 -146 22 0 0 22c6,-10 11,-17 16,-21 5,-3 10,-5 16,-5 8,0 17,3 26,8l-9 23c-6,-3 -12,-5 -18,-5 -5,0 -10,2 -15,5 -4,3 -7,8 -9,14 -3,9 -4,18 -4,29l0 77 -25 0z"/>
   <circle class="fil9 str7" cx="17381" cy="28230" r="119"/>
   <rect class="fil9 str7" x="17839" y="28122" width="227" height="227"/>
   <line class="fil2 str8" x1="17555" y1="28229" x2="17775" y2= "28229" />
  </g>
  <line class="fil2 str8" x1="17772" y1="28230" x2="17708" y2= "28295" />
  <line class="fil2 str8" x1="17773" y1="28228" x2="17709" y2= "28167" />
 </g>
</svg>
