<?xml version="1.0" encoding="UTF-8"?>
<!DOCTYPE svg PUBLIC "-//W3C//DTD SVG 1.1//EN" "http://www.w3.org/Graphics/SVG/1.1/DTD/svg11.dtd">
<!-- Creator: CorelDRAW -->
<svg xmlns="http://www.w3.org/2000/svg" xml:space="preserve" width="297mm" height="210mm" version="1.1" style="shape-rendering:geometricPrecision; text-rendering:geometricPrecision; image-rendering:optimizeQuality; fill-rule:evenodd; clip-rule:evenodd"
viewBox="0 0 29700 21000"
 xmlns:xlink="http://www.w3.org/1999/xlink">
 <defs>
  <style type="text/css">
   <![CDATA[
    .str3 {stroke:black;stroke-width:10;stroke-miterlimit:3.864;stroke-opacity:0.501961}
    .str7 {stroke:black;stroke-width:50;stroke-miterlimit:22.9256}
    .str2 {stroke:#003399;stroke-width:20;stroke-miterlimit:22.9256}
    .str5 {stroke:#434242;stroke-width:10;stroke-miterlimit:22.9256}
    .str8 {stroke:black;stroke-width:10;stroke-miterlimit:3.864}
    .str0 {stroke:#000066;stroke-width:10;stroke-miterlimit:22.9256}
    .str1 {stroke:#003399;stroke-width:10;stroke-miterlimit:22.9256}
    .str6 {stroke:#2B2A29;stroke-width:7.62;stroke-miterlimit:22.9256}
    .str4 {stroke:black;stroke-width:7.62;stroke-miterlimit:22.9256}
    .fil2 {fill:none}
    .fil0 {fill:#FEFEFE}
    .fil5 {fill:#D9DADA}
    .fil1 {fill:white}
    .fil8 {fill:#FEFEFE;fill-rule:nonzero}
    .fil7 {fill:#D9DADA;fill-rule:nonzero}
    .fil4 {fill:#434242;fill-rule:nonzero}
    .fil6 {fill:black;fill-rule:nonzero}
    .fil3 {fill:#FEFEFE;fill-rule:nonzero;fill-opacity:0.501961}
   ]]>
  </style>
 </defs>
 <g id="Plan_x0020_1">
  <metadata id="CorelCorpID_0Corel-Layer"/>
  <rect class="fil0" x="999.99" y="1000" width="25340.35" height="19000"/>
  <path class="fil1 str0" d="M5055.96 1000l-56.22 110.56c-3,5.05 -14.03,47.17 -14.89,53.34 -9.23,65.99 -23.57,82.83 -38.6,138.48 -16.64,61.63 -54.39,97.88 -62.84,126.25 -7.48,25.13 -55.76,101.76 -73.7,119.86 -63.96,64.53 -112.05,61.45 -196.93,64.78 -7.5,1.39 -17.93,3.2 -25.51,3.44 -72.4,2.31 -105.41,-0.41 -178.31,19.57 -35.11,9.61 -39.5,6.7 -68.47,12.14 -51.62,9.68 -88.71,-35.77 -93.16,-81.31 -8.22,-84.18 -96.32,-37.86 -134.65,-48.52 -93.62,-26.05 -129.87,41.47 -190.13,7.03 -68.81,-39.33 -221.16,88.38 -280.46,125.39 -48.03,29.99 -142.86,25.34 -188,-2.35 -33.28,-20.42 -97.39,-37.59 -135.31,-44.23 -88.41,-15.46 -69.14,-11.74 -143.02,-51.12 -46.56,-24.81 -40.89,-19.47 -88.06,-31.42 -53.13,-13.45 -76.82,-4.69 -116.99,-9.64 -37.66,-4.65 -19.56,-31.23 -133.94,-34.58 -23.72,5.68 -65.99,11.29 -92.42,16.01 -44.89,8.03 -36.49,2.67 -72,2.04 -54.66,-0.97 -76.33,-99.33 -133.81,-120.72 -69.86,-25.99 -98.86,3.44 -173.72,-17.62 -47.15,-13.26 -62.65,-55.32 -144.86,-66.15 -59.96,-7.89 -71.06,-61.58 -112.74,-103.24 -33.93,-33.91 -157.59,-57.83 -207.41,-67.93 -37.16,-7.54 -229.88,16.32 -266.9,31.98 -43.44,18.38 -59.29,33.15 -97.99,56.08 -46.23,27.4 -87.31,51.16 -109.28,102.67 -30.82,72.26 -34.16,72.41 -34.16,153.79 0,38.84 11.94,54.81 13.37,72.62 2.15,26.71 22.28,81.95 24.8,102.53 7.96,64.86 -54.23,129.68 -104.32,160.82 -65.3,40.6 -50.89,27.95 -122.37,31 -36.16,1.54 -102.19,-12.85 -129.4,-35.81 -34.21,-28.86 -24.63,-27.04 -73.56,-63.41l0 16266.92c47.64,62.46 51.18,84.83 81.01,148.56 8.57,18.3 58.3,82.5 77.06,97 95.94,74.2 86.68,50.34 200.75,65.72 43.31,5.84 144.81,-7.21 187.58,-27.26 148.3,-69.54 161.76,34.8 323.97,-68.66 88.34,-56.34 102.46,-47.52 197.63,-34.72 24.88,3.35 116.78,-18.56 164.66,-17.76 84.38,1.41 78.31,-24.63 176.65,12.8 108.09,41.14 126.74,-67.95 227.36,-32.51 13.61,4.8 36.14,9.38 50.46,9.79 144.23,-31.26 73.77,-34.27 151.71,-74.14 59.82,-30.61 100.93,52.51 246.82,-58.16 51.03,-38.71 94.15,-63.15 146.46,-108.43 63.53,-54.98 83.43,-50.72 147.61,-123.36 63.1,-71.43 114.61,-88.42 181.37,-156.01 82.34,-83.36 168.88,-159.11 245.97,-246.25 52.45,-59.28 102.17,-144.58 137.11,-215.26 4.68,-9.47 9.97,-17.09 16.26,-25.46 55.8,-66.76 75.34,-84.04 113.96,-165.08 35.49,-74.49 76.94,-130.37 142.07,-180.4 38.73,-29.75 134.58,-129.43 150.48,-173.77 6.68,-18.63 21.76,-42.12 31.56,-66.95 37.68,-95.52 22.78,-116.38 41.48,-201.23 10.69,-48.48 49.9,-96.9 57.31,-159.31 5.06,-42.55 8.84,-46.38 8.84,-93.27 0,-70.71 -45.76,-235.29 -24.24,-283.34 2.9,-6.48 8.48,-13.47 12.66,-19.42 57.83,-48.02 79.55,-54.3 144.53,-80.74 46.93,-19.09 69.63,-22.32 118.4,-48.24 52.83,-28.08 84.4,-25.98 141.41,-68.23 63.74,-47.23 89.43,-35.13 147.84,-106.49 35.33,-43.17 71.91,-79.16 72.76,-139.19 1.35,-96 19.57,-172.93 9.64,-274.65 -6.7,-68.53 11.52,-159.96 -34.3,-216.77 -25.77,-31.94 -36.67,-144.55 -41.77,-186.86 -9.08,-75.5 -53.87,-143.84 -96,-204.77 -7.14,-10.33 -13.27,-28.8 -20.98,-38.31 22.12,-67.63 29.35,-74.74 73.18,-121.29 36.62,-38.88 96,-100.27 140.14,-126.19 64.42,-37.84 110.2,-98.76 171.13,-146.38 68.02,-53.16 139.34,-152.44 203.68,-218.42 56.85,-58.29 119.65,-156.13 213.61,-143.02 92.18,12.87 359.81,-161.32 423.23,-228.53 38.7,-41 76.37,-79.22 116.13,-119.16 102.75,-149.4 102.25,-183.08 105.84,-357.18 0.96,-46.3 -27.32,-133.58 -33.07,-188.38 -6.62,-63.12 -14.28,-123.09 -13.23,-187.52 1.02,-62.88 1.8,-112.53 15.45,-175.34 12.14,-55.87 -0.79,-104.87 -22.07,-155.82 -31.69,-75.88 -2.35,-166.76 16.54,-242.14 -10.05,-82.23 -9.98,-79.42 -85.85,-111.22 -22.03,-9.23 -109.85,-43.5 -119.2,-58.3 -17.19,-27.19 1.03,-124.79 -42.43,-205.29 -66.5,-123.17 -43.75,-129.21 -38.46,-261.42 4.93,-122.9 -42.84,-45.1 14.88,-211.24 14.39,-41.4 -14.2,-79.59 -42.05,-106.11 -32.12,-30.59 -32.97,-103.34 -54,-150.77 -20.26,-45.67 -21.66,-35.09 -14.46,-95.2 2.66,-22.17 9.85,-38.27 12.8,-55.57 41.1,-170.46 141.61,-224.63 180.25,-341.02 15.62,-47.04 58.47,-117.01 79.38,-167.21 16.45,-39.51 35.97,-76.6 53.34,-119.58 19.54,-48.37 55.26,-87.97 108,-95.11 101.28,-13.72 74.1,-123.36 118.41,-170.47 43.38,-46.13 46.17,-4.4 95.06,-81.13 23.91,-37.52 106.9,-169.66 134.51,-191.3 72.49,-75.63 160.61,-132.27 234.44,-207.13 27.3,-27.68 64.3,-56.04 90.39,-85.99 48.85,-56.08 118.64,-96.57 168.9,-156.39 49.67,-59.11 137.48,-99.58 201.89,-144.58 83.68,-58.45 136.53,-37.91 230.52,-131.95 37.57,-37.59 66.98,-74.92 107.53,-114.01 36.17,-34.87 68.02,-58.77 102.25,-98.13 32.42,-37.28 68.83,-65.51 102.95,-106.78 76.35,-92.38 137.72,-197.44 193.61,-303.18 10.13,-19.15 19.92,-35.68 31,-54.15 78.72,-89.87 109.83,-106.64 154.35,-222.87 20.01,-52.23 35.01,-89.83 52.35,-143.67 14.79,-45.9 67.12,-84.69 87.22,-130.5 14.7,-33.49 39.27,-69.15 54.33,-109.33 22.6,-60.3 37.25,-91.69 87.08,-133.66 67.64,-56.96 58.41,-168.72 113.68,-238.93 45.04,-57.21 39.62,-150.46 71.11,-214.4 27.31,-55.47 38.54,-116.79 47.95,-177.51 -15.12,-119.87 -4.03,-79.76 14.46,-183.7 7.61,-42.81 -38.04,-18.78 -86.79,-62.27 -30.44,-27.16 -69.62,35.29 -107.21,57.31 -68.21,39.96 -122.24,59.14 -201.08,61.19 -84.64,2.2 -146.66,63.18 -216.21,41.34 -75.73,-23.79 -110.04,69.07 -195.55,39.69 -66.03,-22.7 -105.32,-32.99 -152.56,26.87 -43.16,54.7 -102.45,48.31 -168.39,60.91 -98.6,18.84 -77.18,-23.82 -206.52,23.29 -55.1,20.07 -221.55,63.16 -277.14,47.82 -70.18,-19.36 -194.33,-138.5 -233.03,-200.53 -33.35,-53.43 -82.93,-20.78 -152.7,-53.71 -36.02,-17 -69.12,2.64 -7.14,-52.4 30.71,-27.27 170.49,-84.09 109.1,-141.93 -39.14,-36.87 -4.53,-78.71 -73.42,-109.8 -38.16,-17.22 -86.58,-87.57 -111.22,-119.77 -4.01,-5.24 -10.78,-9.45 -11.58,-13.09 -21.54,-31.18 -70.14,-97.6 -102.24,-121.95 -40.28,-30.55 -50.67,-30.78 -89.44,-70.86 -44.02,-45.52 -43.4,-30.23 -81.45,-93.98 -27.89,-46.73 -59.09,-63.13 -110.38,-80.32 -37.48,-12.56 -45.4,4.48 -101.1,-19.42 -68.07,-29.21 -65.89,3.2 -90.72,-83.91 -8.13,-28.53 -22.48,-39.79 -45.35,-20.12 -27.77,23.87 -13.63,-45.07 -72.34,-63.83 -51.98,-16.62 -72.83,-131.47 -74.13,-177.89 -4.35,-155.23 -20.09,-92.22 -60.24,-212.23 -18.6,-55.6 -18.95,-56.08 -51.92,-105.27 -9.52,-14.19 -19.89,-35.91 -20.27,-53.2 -31.55,-44.4 -108.73,-138.29 -154.64,-174.06 -38.37,-29.9 -168.55,-107.39 -181.05,-140.84 -34.08,-91.15 28.23,-167.73 -32.09,-305.31 -26.43,-60.29 -1.29,-104.63 -12.42,-158.66 -17.55,-85.16 2.99,-68.55 -38.32,-163.28 -7.13,-16.37 -10.29,-26.04 -13.08,-43.42 -26.07,-88.14 -18.8,-100.08 -71.11,-170.9 -62.69,-84.87 -110.91,-29.55 -178.31,-102.76 -36.5,-39.65 -15.44,-55.14 -60.39,-106.02 -54.7,-61.93 -53.23,-131.08 -18.84,-204.2 19.72,-41.93 70.73,-27.78 -36.53,-106.78 -90.32,-66.54 -92.82,-124.87 -119.2,-225.33 -8.85,-33.69 -28.61,-80.64 -53.72,-104.27 -23.04,-21.69 -82.02,-126.3 -96.91,-158.8 -10.08,-26.12 -68.01,-137.64 -70.68,-159.55 -6.24,-51.38 24.3,-89.23 -27.31,-153.12 -29.72,-36.81 -67.51,-42.16 -55.22,-101.16 18.2,-87.4 -125.42,-111.03 -155.59,-244.32 -27.53,-121.62 -106.91,-75.69 -74.7,-165.78 19.08,-53.36 -64.71,-53.81 -38.32,-144.82 9.22,-31.8 0.55,-109.79 31.14,-45.78 26.87,56.23 0.89,80.5 41.62,125.3 2.08,2.28 113.97,216.42 122.66,234.68 10.5,22.07 69.79,103.56 92.46,113.95 47.83,21.94 100.55,97.73 118.64,96.72 33.96,-1.9 16.78,-56.14 29.62,-93.98 15.89,-46.82 20.66,-37.45 21.93,-91.61 0.71,-30.36 88.6,-241.72 112.16,-241.72 2.53,3.68 -33.15,125.92 -35.53,144.68 -7.68,60.41 4.04,91.92 -5.67,151.05 -6.55,39.86 34.91,13.21 75.27,46.3 42.51,34.87 76.23,32.95 111.73,95.77 40.19,71.11 40.84,49.56 65.06,139.47 26.65,98.94 56.6,90.7 109.8,172.5 15.16,23.3 32.2,49.95 46.87,73.47 71.75,98.33 51.62,132.27 147.32,215.54 76.99,66.98 48.13,113.44 79.8,206.8 42.54,125.41 65.13,87.44 150.72,157.67 79.16,64.94 118.77,49.83 167.87,164.56 35.34,82.59 15.08,84.47 74.55,165.07 37.03,50.19 23.62,88.64 24.66,145.39 -5.84,39.27 -28.52,116.97 -13.93,155.01 22.25,58.01 39.61,5.62 38.74,112.78 -1.06,130.64 78.56,166 178.31,221.26 39.93,22.12 157.9,121.45 183.7,156.95 82.83,114 94.46,198.19 141.64,323.56 42.03,111.65 147.21,167.39 225.08,249.88l7.14 7.56c34.03,81.17 33.92,106.79 57.31,180.34 19.1,60.07 41.12,75.28 40.26,149.26 -1.53,132.24 -22.73,163.18 42.85,289.01 34.9,66.95 31.13,199.98 65.2,288.39 37.15,96.42 -32.88,114.73 51.12,197.5 50.97,50.22 55.16,74.53 135.7,83.39 84.05,9.24 118,-66.61 183.74,-50.04 132.02,33.28 131.21,-107.53 331.25,-105.97 130.04,1.01 141.28,-0.77 256.74,-57.46 47.3,-23.22 44.83,-15.85 94.4,-49.75 114.67,-78.41 97.85,-7.31 229.57,-40.77 27.86,-7.07 110.25,-54.13 125.82,-75.27 78.75,-84.79 29.64,-75.3 144.53,-136.82 60.26,-32.27 72.24,16.59 157.8,-43.8 65.23,-46.04 151.53,-83.02 231.38,-91.14 80.74,-8.21 138.35,-30.06 197.06,-90.1 64.39,-65.85 23.33,-169.15 176.14,-199.57 105.08,-20.92 233.36,-114.26 334.27,-147.55 95.65,-31.56 76.86,57.28 191.59,17.05 110.72,-38.83 -19.81,-121.69 119.48,-202.97 26.25,-15.32 72.22,-12.33 112.97,-24.52 50.52,-12.15 115.16,-32.82 128.42,-90.95 15.35,-67.26 75.42,-127.22 143.59,-141.79 26.79,-5.73 142.41,-24.74 155.34,-33.64 65.67,-45.21 -34.43,-125.6 26.6,-201.89 56.39,-70.49 9.13,-123.5 57.46,-156.95 21.51,-14.89 115.35,30.57 113.67,-62.84 -1.05,-58.54 41.04,-73.37 67.38,-123.88 19.5,-37.4 46.62,-48.24 62.03,-76.07 23.4,-42.26 92.74,-59.38 118.5,-142.64 7.74,-25.03 24.06,-52.83 43.13,-70.68 20.57,-148.48 -25.16,-88.88 -108.62,-117.41 -53.27,-18.21 -45.69,-115.74 -95.34,-162.63 -29.95,-28.28 -19.77,-52.89 -76.59,-67.66 -45.13,-11.73 -48.02,-43.05 -131.2,-56.87 -11.37,-1.89 -162.26,-45.51 -168.68,-48.53 -77.91,-36.67 -116.95,-8.9 -98.64,-137.54 12.59,-88.49 2.5,-66.08 -35.3,-127.04 -48.75,-60.31 -50.95,-52.6 -106.4,-87.36 -31.54,-19.77 -3.2,-76.98 -8.13,-121.28 -5.22,-46.95 -4.71,-65.61 -6.05,-111.75 -2.26,-78.05 -39.53,-2.74 -48.52,24.38 -37.61,113.54 -79.18,113.25 -164.94,165.37 -39,23.7 -22.6,59 -89.29,99.22 -20.31,12.24 -58.6,53.85 -77.73,34.72 -29.57,-29.57 -50.41,25.16 -45.87,54 5.52,35.16 -20.33,111.97 -59.54,113.16 -57.38,1.75 -102.3,57.47 -181.23,42.72 -36.37,-6.8 -38.6,1.96 -62.28,3.44 -51.64,-24.49 -67.25,-5.53 -119.06,8.27 -26.9,7.16 -159.38,36.55 -181.9,34.3 -35.65,-3.56 -80.79,-32.74 -76.49,-72.76 9.33,-87.03 1.92,-20.43 -46.45,-101.01 -31.29,-52.12 13.13,-47.39 -6.04,-114.11 -30.08,-104.62 22.39,-73.88 -10.07,-170.17 -11.32,-33.6 -10.36,-59.72 -51.26,-83.92 -44.61,-26.39 -41.35,95.52 -82.96,137.82 -37.92,38.56 -81.03,107.05 -112.03,5.11 -26.23,-86.25 -106.93,-67.44 -62.41,-181.49 17.96,-46 16.4,-85.31 -20.13,-121.98 -35.3,-35.45 -19.37,21.22 -59.81,-70.16 -24.15,-54.55 -45.77,-20.17 -87.51,-70.26 -27.63,-33.15 -65.63,-70.09 -93.83,-103.76 -5.68,-6.78 -51.18,-46.57 -51.69,-48.38 -51.18,-83.42 -52.34,-152.53 -100.87,-233.02 -97.48,-161.68 6.38,-122.21 -15.45,-258.39 -3.75,-23.4 -18.42,-134.85 27.55,-120.58 91.51,28.42 103.05,-123.45 146.79,-77.44 16.59,17.45 39.28,1.19 79.24,23.01 58.94,32.18 162.07,-68.2 168.24,-2.22 17.47,186.69 79.28,106.73 128.05,230 19.97,50.51 56.75,38.29 67.37,114.25 14.66,104.89 71.7,102.36 107.2,202.31 62.06,174.72 148.13,0.37 296.43,193.33 52,67.66 69.29,53.76 147.17,86.42 93.17,39.06 68.12,51.82 116.04,78.52 35.96,20.03 90.2,-1.07 169.1,40.25 62.37,32.67 67.55,8.11 128.27,-1.93 153.89,-65.83 81.66,-18.04 122.37,-21.36 33.05,-2.69 77.64,-92.74 171.41,-92.74 103.67,0 91.94,-36.92 156.02,49.89 23.33,31.61 36.77,106.36 68.74,157.33 35.19,56.11 49.75,129.08 130.12,151.62 68.78,19.28 115.11,14.79 182.18,47.81 71.16,35.03 130.71,25.18 206.42,34.45 63.86,7.81 123.89,8.78 189.38,20.26 92.96,16.3 162.22,9.3 246.19,64.92 109.42,72.48 105.01,21.41 209.59,-5.38 90.49,-23.18 48.93,-14.55 134.94,-6.76 37.09,3.36 141.78,-21.08 193.48,-19.7 90.77,-13.83 153.39,-10.15 243.93,-13.37 56.78,-2.02 109.77,2.75 169.48,0 126.65,-5.83 86.93,35.56 227.07,-30.29 59.41,-27.91 146.41,-41.23 145,49.04 -1.37,88.16 101.76,80.6 165.65,122.09 22.53,14.63 -66.79,64.39 -35.81,111.22 18.43,27.85 46.39,5.47 60.75,64.35 11.09,45.44 57.33,1.99 104.61,-7.46 56.1,-11.22 75.6,-50.06 122.46,-27.55 36.7,17.62 242.42,-2.25 152.85,73.85 -32.75,27.82 -78.91,23.8 -91.37,93.6 -1.5,8.36 -3.14,15.46 -4.54,24.23 26.07,85.3 71.89,113.9 136.59,165.93 39.58,31.84 91.09,19.46 129.07,-9.5 35.66,-27.18 164.47,-54.29 213.37,-66.05 40.68,-9.78 -21.95,56.2 -33.91,75.7 -29.76,48.49 -161.07,118.44 -214.7,146.03 -28.11,14.47 -115.17,-19.78 -135.88,15.17 -3.85,6.5 53.65,24.91 74.7,45.5 47.58,46.57 132.6,111.2 171.13,164.52 21.32,29.5 44.72,53.69 66.85,87.36 27.49,41.82 92.63,83.24 145.1,76.06 102.14,-13.98 284.35,-100.06 302.04,-213.55 9.97,-63.93 118.32,-212.99 106.98,-129.61 -7.26,53.29 -17.43,181.3 -0.57,228.4 26.58,74.25 22.71,86.39 24.66,164.37 1.34,53.49 46.75,30.89 7.32,110.56 -34.47,69.66 -8.49,96.27 -5.53,166.03 37.04,142.17 68.57,285.6 90.39,430.75 15.25,101.43 6.19,168.46 37.09,274.83 37.45,128.93 21.37,158.69 108.71,269.22 29.89,37.82 71.06,113.34 102.01,158.65 47.66,69.76 75.43,135.76 114.9,209.31 -8.26,69.33 13.12,192.64 30.99,263.21 32.18,127.03 49.11,128.77 107.35,235.34 21.5,39.33 54.57,95.65 82.83,130.4 35.73,43.93 106.29,208.75 121.14,264.39 42.38,158.85 58.97,262.62 148.83,407.94 6.8,11 11.56,21.77 19.84,31.56 30.97,29.05 92.84,100.28 130.35,114.81 58.81,22.77 78.42,23.38 135.47,-16.68 64.94,-45.6 103.46,-158.76 163,-190.6 34.22,-18.3 21.68,-12.82 57.07,-22.72 70.2,-19.65 -27.65,-70.24 34.73,-126.53 54.13,-48.85 55.36,-77.87 90.8,-115.76 35.17,-37.58 186.25,15.71 132.72,-101.01 -5.21,-11.37 -5.49,-63.59 -11.14,-88.87 -1.05,-4.66 -20.19,-186.28 -20,-187 12.8,-47.3 88.64,-56.74 90.53,-157.2 0.42,-22.48 25.59,-73.54 31.56,-110.55 4.53,-28.09 30.96,-117.22 29.77,-132.3 -18.53,-73.24 -27.14,-56.87 -49.61,-108.85 -52.69,-121.91 25.31,-64.87 -2.88,-178.03 -2.22,-8.89 -13.2,-136.39 -11.58,-144.05 10.31,-48.48 40.23,-50.32 60.1,-122.52 10.75,-39.07 36.94,-90.57 82.64,-60.05 44.83,29.95 90.83,10.37 101.15,-45.02 20.59,-110.52 162.57,-76.74 219.93,-111.79 47.72,-29.15 72,-26.82 64.5,-99.5 -5.09,-49.27 31.06,-58.88 66.71,-98.8 38.75,-43.37 105.39,-50.32 146.37,-114.71 39.53,-62.11 28.44,-50.09 94.87,-67.33 37.13,-9.63 148.51,-110.66 172.74,-143.35l7.56 -9.07c47.16,-58.95 105.64,-134.93 155.02,-190.59 21.27,-23.99 76.94,-107.68 113.96,-85.71 37.43,22.22 81.96,-37.89 146.79,-54.85 105.3,-27.56 95.04,-32.43 156.1,-117.93 63.55,-88.98 66.03,-52.45 41.49,-172.55 -30.9,-151.25 147.52,-109.86 213.18,-192.24 71.56,-89.8 76,-1.38 112.02,-1.38 59.59,0 49.55,-29.1 111.08,15.03 41.3,29.62 138.02,0.08 178.45,-19.56 72.86,-35.4 100.45,-13.46 173.07,-5.67 65.42,7.01 86.67,-71.37 122.13,-87.93 49.75,-23.23 37.72,10.98 78.29,-49.75 37.4,-55.98 154.37,-105.48 145.9,20.93 -7.69,114.68 41.37,125.12 80.22,222.06 9.82,24.48 13.65,31.08 32.65,50.41 47.8,55.68 36.92,57.27 69.74,103.9 39.04,55.48 31.58,37.6 77.16,79.8 44.18,40.92 35.48,65.44 109.65,89.16 95.08,30.39 38.08,107.46 104.61,145.38 76.56,43.63 -52.04,97.12 93.73,188.65 53.62,33.66 41.39,91.18 66.01,146.09 41.71,93.03 31.08,66.19 48.53,167.58 4.81,28.01 -4.93,82.23 -12.15,109.67 -12.32,73.1 -8.61,71.2 -28.11,137.96 -7.77,26.59 -29.76,127.02 11.86,133.66 51.14,8.15 92.7,41 150.62,56.88 51.48,14.12 60.59,39.01 115.76,-4.96 26.47,-21.1 136.19,-109.94 162.34,-117.26 46.72,-13.1 116.86,-50.51 127.04,-102.95 10.34,-53.2 90.76,-151.91 100.45,-68.61 8.47,72.82 8.94,142.38 73.99,188.52 19.68,13.95 5.84,73.81 42.47,125.15 60.89,85.35 51.46,200.74 98.24,294.02 42.97,85.69 -33.17,120.57 42.04,193.1 29.25,28.2 35.96,54.05 35.96,93.84 -7.38,58.56 6.12,89.75 15.96,143.15 12.78,69.27 63.22,69.68 45.79,145.01 -23.01,99.41 32.51,97.01 32.51,192.48 0,89.02 20.72,71.95 -27.69,147.74 -49.23,77.07 57.1,144.49 14.6,245.54 -7.43,17.66 -24.88,19.81 -41.49,65.35 -19.06,52.28 -32.48,69.53 -32.93,129.5 -0.06,7.81 -2.06,16.62 -3.45,24.29 -3.91,33.1 -28.7,193.79 -24.66,223.24 3.23,23.54 95.4,-125.12 122.09,-73.47 29.82,57.72 48.72,39.35 75.54,134.13 28.2,99.65 134.75,83.88 146.61,170.94 14.77,108.36 157.17,167.22 163.29,275.69 2.91,51.59 10.15,93.86 18.19,144.25 9.51,50.47 43.3,158.46 72.9,204.62 36.21,56.47 -87.97,122.87 48.81,222.44 119.73,87.15 40.71,141.2 144.53,198.01 53.28,29.16 8.75,87.7 83.25,107.91 36.04,9.78 83.52,60.14 148.83,77.73 38.19,10.28 101.94,34.2 127.18,65.72 43.12,53.84 100.9,37.55 138.48,94.4 19.54,29.54 160.04,84.41 170.33,72.62 26.33,-30.18 -32,-107.37 -31.42,-168.68 1.85,-195.68 -173.15,-202.88 -165.36,-322.69 3.2,-49.2 14.44,-105.21 14.74,-152.43 0.41,-64.72 28.45,-64.97 6.75,-159.03 -17.3,-75.03 -10.45,-63.25 -51.92,-125.53 -28.76,-43.19 -12.1,-47.75 -65.49,-94.02 -66.66,-57.78 -35.71,-65.01 -73.99,-111.32 -39.16,-47.38 -67.53,-34.4 -111.07,-101.58 -14.07,-21.71 -100.78,-66.51 -130.78,-87.64 -28.83,-58.25 -36.49,-91.97 -99.64,-90.95 -66.04,1.07 -195.3,-40.34 -208.51,-116.04 -12.75,-73.13 -8.16,-156.62 -63.22,-219.37 -56.12,-63.96 -2.37,-105.39 -38.31,-151.85 -18.6,-24.04 15.91,-138.39 -55.56,-101.3 -20.27,10.52 -130.24,3.11 -139.57,-5.39 -38.85,-35.38 -4.37,-136.44 -11.58,-194.84 -17.65,-143.18 50.59,-100.9 67.81,-191.96 1.14,-6.06 4.16,-13.64 6.18,-19.71 37.17,-97.39 49.83,-170.95 98.27,-268.17 53.52,-107.41 40.85,-136.5 69.84,-239.22 12.97,-45.95 59.6,-115.48 79.94,-28.39 15.76,67.48 61.5,44.52 119.49,77.06 81.91,45.97 91.65,0.98 181.61,61.99 72.25,49 74.16,34.68 125.96,114.53 28.24,43.51 71.87,34.79 119.45,72.99 44.54,35.77 40.61,180.58 95.67,203.16 21.96,9.01 101.41,45.9 108.57,67.1 12.11,35.82 -2.35,61.26 63.93,70.16 67.4,9.04 74.64,2.93 131.34,50.27 29.83,24.9 -16.09,84.44 24.67,107.91 39.09,22.51 -9.12,116.76 -0.57,175.01 32.28,219.72 115.41,30.49 187.43,-12.95 51.07,-40.85 55.81,-27.83 106.55,-44.79 58.62,-19.6 68.31,-22.62 120.85,-62.98 46.39,-35.64 41.86,-42.32 68.04,-87.74 54.67,-94.88 123.05,-117.16 221.21,-157.95 50.62,-21.03 62.52,-15.99 119.87,-50.17 28.9,-17.23 69.97,-31.86 101.01,-47.82 53.78,-56.92 96.17,-84.08 147.84,-135.46 43.17,-42.93 64.97,-125.86 50.03,-184.54 -9.82,-38.6 21.23,-91.01 12.56,-161.45 -10.95,-89.03 -9.33,-161.38 -13.51,-248.61 -6.37,-132.83 -62.67,-190.49 -85.56,-317.78 -8.71,-48.4 -87.2,-112.54 -116.32,-159.32 -35.79,-38.76 -60.79,-62.23 -92.75,-102.1 -52.22,-65.15 -91.45,-60.87 -142.73,-106.92 -38.59,-34.66 -79.24,-40.74 -107.91,-104.6 -42.17,-93.92 -142,-118.04 -160.41,-238.7 -5.28,-34.61 -30.21,-57.47 -48.94,-85.04 -40.76,-59.99 -91.36,-67.07 -52.5,-164.24 35.27,-88.16 -38.45,-190 70.83,-228.48 19.84,-6.99 43.57,-54.33 56.78,-74.7 20.63,-31.8 34.9,-62.58 59.11,-97.42 5.94,-8.55 46.82,-62.79 48.1,-67.8 145.05,-27.13 103.32,-13.45 205.86,-118.21 65.8,-67.22 69.49,-8.31 127.09,-31.61 47.45,-19.2 122.52,-34.36 167.3,-1.89 63.57,46.08 226.88,-20.49 205.43,45.74 -12.93,39.94 -104.63,60.38 -48.1,128.55 42.57,51.33 -10.4,122.6 96.05,98.57 65.58,-14.81 118.24,24.7 144.3,16.53 61.56,-19.31 -16.58,-46.99 -16.54,-92.46 0.01,-17.42 -25.88,-82.78 -17.5,-116.56 8.37,-33.69 51.06,-35.87 62.58,-49.52 30.56,-36.2 57.83,-2.92 123.6,-19.7 99.91,-15.96 87.14,-21.44 168.13,-62.15 80.05,-40.24 66.85,48.23 206.99,-49.04 51.99,-36.09 58.89,4.29 132.81,-36.1 53.36,-29.15 57.55,-33.12 104.61,-72.38 36.44,-30.4 167.26,-99.89 214.31,-110.37 46.64,-10.39 92.04,-12.3 142.45,-23.15 67.59,-14.55 131.75,-7.54 200.66,-32.93 160.89,-76.56 95.47,-48.42 203.82,-171.55 71.24,-80.96 135.67,-14.94 202.41,-143.3 22.07,-42.47 115.42,-110.6 154.07,-143.87 49.86,-42.94 95.28,-89.8 136.16,-141.27 41.08,-51.72 114.6,-68.45 144.96,-146.89 27.51,-71.09 -88.56,-133.47 11.72,-207.13 13.35,-9.81 123.3,-109.71 132.43,-119.77l8.27 -7.71c40.15,-77.55 28.47,-59.53 53.34,-130.21 31.96,-90.83 74.43,-96.78 155.82,-126.1 60.17,-21.67 82.55,-73.01 72.38,-133.1 -7.9,-46.76 50.68,-99.27 63.5,-154.78 11.77,-50.9 116.58,-123.15 34.87,-218.42 -30.22,-35.24 -52.72,-14.49 -89.44,-92.46 -39.67,-84.24 -103.88,-2.08 -147.74,-55.85 -46.53,-57.05 181.91,-91.48 211.15,-108 15.41,-8.71 29.16,-17.14 38.03,-32.79 6.59,-63.95 0.59,-43.08 -26.88,-87.23 -23.63,-37.97 -68.31,-21.85 -38.6,-111.17 28.41,-85.43 -6.03,-84.51 -18.28,-158.08 -7.75,-46.5 -66.78,-83.42 -100.36,-113.87 -29.34,-26.6 -72.34,-8.99 -80.04,-83.49 -1.42,-13.82 0.8,-31.34 4.54,-44.79l-19.84 -87.4 -20506.9 0zm3033.64 14089.65c11.89,-55.01 26.52,-111.89 34.73,-167.44 23,-155.67 96.36,-316.91 144.67,-467.14 12.95,-40.27 44.38,-110.93 52.25,-144.33 23.66,-100.29 78.28,-242.06 114.91,-342.22 38.68,-105.74 39.15,-135.47 43.7,-246.44 17.2,-93.05 -0.67,-126.18 61.61,-207.27 46.09,-60 3.5,-97.38 -11.57,-170.33 -8.28,-40.07 -33.54,-61.25 -7.33,-67.37 126.99,-29.62 145.81,109.56 145.81,-68.32 0,-102.86 -8.56,-140.02 -25.66,-238.83 -22.51,-130.05 -85.22,-240.59 -111.59,-364.37 -18.91,-88.76 -55.28,-124.86 -85.85,-199.24 -20.91,-50.88 -66.6,14.36 -77.44,39.92 -23.24,54.78 -54.02,56.18 -47.15,118.97 19.13,175 -71.95,120.06 -90.67,174.16 -35.87,103.69 -91.42,39.7 -116.04,55.84 -46.4,30.43 61.05,123.55 -13.93,153.08 -60.02,23.63 -44.3,135.28 -125.63,165.36 -35.15,13.01 -59.68,30.62 -90.01,42.57 -80.85,31.87 -191.29,134.25 -261.14,160.69 -66.35,25.11 -80.13,26.46 -148.26,26.46 -66.19,0 -78.97,79.49 -130.78,54.57 -30.05,-14.45 -58.89,2.51 -67.8,31.56 -15.86,51.76 -4.75,63.83 -25.23,122.23 -40.52,72.33 -126.01,174.69 -92.17,263.5 16.84,44.19 28.55,89.06 42.42,133.09 27.96,88.74 52.95,200.3 61.9,292.7 5.27,54.48 -1.24,66.18 -2.36,112.02 -1.37,56.14 -43.81,128.13 -78.67,169.95 -30.88,37.04 -35.86,50.48 -59.53,91.47 -61.63,106.67 -98.65,93.24 -126.25,223.81 -20.1,104.27 -20.45,171.4 29.77,264.44 58.91,109.14 74.73,50.2 44.08,193.24 -21.96,102.47 -16.72,159.72 61.89,235.33 69.58,66.94 -1.8,128.63 145.66,176.8 102.46,33.47 79.49,54.84 149.21,87.65 93.86,44.17 168.04,-62.08 257.88,-81.03 43.22,-9.12 177.1,-27.1 204.39,-52.54 86.84,-80.96 47.22,-118.55 85.65,-213.7 31.64,-78.32 58.8,-131.31 79.67,-215.54 3.59,-14.53 16.6,-51.17 23.29,-63.92l11.57 -79.38zm-1097.61 -2779.36c-12.01,-26.06 -14.86,-43.08 -13.3,-71.18 1.59,-28.73 13.64,-32.28 26.67,-7.3 2.85,5.47 19.25,71.32 24.39,87.29 1.7,5.31 6.16,20.37 -4.68,20.27 -4.13,-0.04 -12.37,-7.86 -14.89,-10.89l-18.19 -18.19zm93.43 153.79c-7.59,-11.83 -19.2,-25.7 -4.96,-37.28 19.13,-15.55 39.99,36.65 18.19,35.63l-13.23 1.65zm176.95 -25.63c-8.69,-16.66 -15.46,-30.79 -4.75,-47.96 10.37,-16.62 51.86,32.77 18.8,47.68l-1.65 1.1 -12.4 -0.82zm160.4 138.08c-3.47,-23.92 -3.39,-32.1 13.85,-46.58 2.21,-1.86 25.89,-0.43 14.54,20.95 -12.16,22.91 19.12,39.59 -5.24,62.08 -6.7,6.19 -19.78,2.75 -23.69,-9.38l-1.11 -2.27 1.65 -24.8zm2468.47 2116.25c-30.92,-35.44 -57.88,-85.86 5.25,-102.74 23.92,-6.4 87.04,59.94 89.01,83.18 1.47,17.32 13.79,31.62 -17.43,32.72 -21.68,0.76 -29.92,0.2 -51.19,-7.37l-25.64 -5.79zm510.99 -224.07c-23.19,-15.66 -22.86,-15.78 -25.42,-41.44 -3.4,-34.14 17.5,-56.08 50.84,-60.33 31.72,-4.05 50.03,55.67 33.14,77.39 -7.09,9.12 -16.5,20.82 -26.32,26.86l-32.24 -2.48zm-959.54 -7993.32c-14.74,-19.02 -31.96,-44.89 -15.78,-68.34 8.44,-12.22 54.41,9.18 71.39,11.84 29.19,4.55 26.24,-0.31 49.14,-1.44 16.35,-0.81 55.68,2 70.52,5.78 18.55,4.74 50.73,-9.15 53.63,8.95 1.59,9.94 -39.48,20.97 -49.95,27.76 -10.02,6.51 -83.33,22.61 -98.72,22.82 -13.97,0.18 -40.06,9.58 -49.64,5.86l-30.59 -13.23zm6356.62 1452.73c-2,-23.58 -2.06,-126.53 -8.41,-142.78 -11.6,-29.63 -37.78,-112.18 -30.86,-142.87 17.13,-75.85 6.34,-114.93 -8.26,-186.58 -7.32,-35.9 46.82,-130.63 55.8,-171.03 3.76,-16.91 65.13,-87.17 64.49,-90.96 -1.42,-8.41 -65.17,-50.61 -34.73,-81.02 7.76,-7.75 46.1,25.06 64.06,32.5 59.22,24.54 117.49,145.93 160.56,203.12 35.67,47.38 48.79,90.8 51.4,149.4 1.81,40.64 34.5,85.34 64.63,109.84 21.02,17.09 69.76,76.75 71.25,106.64 2.08,41.61 -47.63,173.42 -78.29,204.91 -71.6,73.56 -90.59,60.11 -182.7,91.66 -27.85,9.54 -125.98,33.9 -150.48,11.15 -13.67,-12.69 -12.16,-20.85 -18.62,-29.48l-19.84 -64.5zm10541.04 5537.25c-13.33,-6.81 -36.66,-14.89 -45.6,-28.91 -7.22,-11.33 -43.17,-22.46 -30.75,25.18 13.2,50.68 -46.72,34.09 -12.81,94.26 18.18,32.25 -8.96,42.69 -9.78,78.24 -0.58,25.19 -22.66,86.2 -52.4,33.21 -29.6,-52.75 -51.3,-65.98 -80.98,-130.82 -21.9,-47.83 -57.83,-87.41 -70.73,-7.18 -17.09,106.33 -89.12,12.44 -118.21,185.3 -12.66,75.28 62.99,129.2 -19.42,168.96 -65.99,31.83 -73.86,74.19 -110.27,129.4 -22.39,33.95 -23.18,88.27 -67.38,125.82 -33.91,28.81 -65.59,66.65 -101.38,98.61 -14.06,12.55 -31.55,32.24 -45.79,46.49 -49.35,22.56 -80.4,38.67 -133.95,36.38 -35.11,-1.5 -62.51,63.5 -185.63,31.84 -37.99,-9.76 -104.04,19.2 -126.91,52.92 -39.27,57.92 -102.51,54.17 -163.99,52.49 -53.23,-1.46 -107.19,79.03 -167.3,82.54 -64.68,3.78 -55.28,8.94 -118.92,-14.74 -32.53,-12.1 -139.62,36.38 -166.07,56.79 -51.87,40.02 -97.1,62.63 -150.3,99.46 -62.37,43.18 -134.28,136.18 -200.8,161.11 -90.29,33.84 -67.2,112.6 -139.85,160.55 -33.53,22.13 -45.36,-17.56 -45.36,-46.31 0,-26.2 -7.01,-202.01 -38.17,-81.73 -17.89,69.04 -16.34,59.11 -54.43,110.93 -56.58,77 22.48,92.38 11,172.41 -8.35,58.25 13.49,83.1 -34.01,130.64 -28.51,28.54 -34.7,41.44 -41.48,81.17 -27.49,69.07 -21.17,101.2 -16.4,168.1 5.54,77.66 103.29,181.22 120.29,247.76 6.69,26.14 24.73,21.32 28.54,88.5 3.49,61.42 2.77,65.53 15.97,124.02 6.25,27.71 -5.43,44.38 -31,3.88 -38.94,-61.7 -16.74,-73.18 -89.57,-126.82 -24.45,-18 -48.23,-53.06 -13.09,18.62 2.41,4.92 91.61,211.5 32.79,170.04 -38.16,-26.89 -44.3,-75.95 -97.28,-120.86 -5.51,-4.67 -102.85,-96.81 -64.5,-42.7 26.99,38.07 46.24,111.2 79.52,163.99 41.53,65.89 44.43,82.39 105.97,140.56 59.12,55.88 57.63,60.63 70.97,137.25 -4.89,88.3 -8.7,123.92 31.42,199.1 14.9,27.91 52.9,92.37 54.43,121.28 4.81,91.1 117.99,71.25 115.89,231.56 -0.31,23.45 2.81,46.33 -1.23,71.77 -4.81,30.36 -1.31,102.49 7.85,133.09 19.82,66.21 9.15,55.48 46.3,119.63 28.8,49.73 49.7,102.92 73.99,154.88l2.08 3.87c32.16,81.58 63.8,205.79 41.76,293.55 -15.48,61.68 18.16,117.17 1.66,182.28 -8.4,33.13 -3.53,79.89 -25.89,118.78 -18.51,32.19 -33.5,57.77 -78.29,38.88 -13.79,-5.81 -53.84,-39.23 -66.29,0.95 -3.41,11 11.94,37.13 12.81,62.17 1.44,41.91 -1.06,67.25 -1.52,107.77 -1.36,120.21 48,10.97 152.14,93.98 50.74,40.44 5.12,96.58 139.61,109.14 29.89,2.79 50.27,9.04 85.15,11.57 74.38,5.42 77.53,7.29 133.23,48.91 57.99,43.32 172.92,23.41 230.75,-13.94 42.13,-27.22 178.91,-145.92 214.08,-141.08 55.39,7.63 111.69,50.31 128.18,-36.52 14.77,-77.74 67.72,-109.3 140.99,-116.84 51.42,-5.29 33.61,-17.23 100.58,-8.27 29.58,3.95 83.19,9.03 110.66,4.39 84.73,-23.91 155.92,-39.37 243.46,-31.42 44.89,4.07 16.51,67.56 125.21,24.8 124.06,-48.8 98.04,56.3 220.26,-10.72 12.26,-6.72 48.38,-19.44 62.61,-22.35l77.58 -84.33 0 -4544.23zm-3671.78 -8530.33c-6.41,-66.2 -33.38,-199.19 58.87,-219.37 67.86,-14.85 56.62,-117.69 119.3,-97.57 60.69,19.48 66.71,-60.83 166.64,-34.72 39.04,10.2 74.79,-10.17 123.98,-1 39.95,7.45 123.01,-17.82 39.02,72.25 -35,37.53 -59.99,90.91 -62.84,141.64 -4.73,84.09 -34.68,104.97 -102.24,143.73 -35.53,20.38 -20.03,56.82 -104.32,75.64 -23.98,5.35 -135.9,-10.64 -154.92,-18.48 -5.33,-2.19 -33.54,-19.47 -38.84,-24.09l-44.65 -38.03zm2794.25 -1013.29c-11.82,-32.85 -66.76,-148.53 -62.41,-177.51 4.37,-29.21 52.9,-86.7 64.5,-149.63 15.99,-86.8 70.84,-161.6 103.18,-242.8 7.39,-18.57 49.55,-80.05 68.36,-86.56 27.96,-9.67 111.3,-37.15 135.6,-28.11 62.82,23.36 64.71,1.18 47.54,103.09 -16.84,99.89 -5.17,84.52 -56.37,174.3 -36.36,63.77 18.8,140.19 -51.92,256.74 -20.45,33.69 -35.35,70.62 -66.15,100.44 -67.85,65.7 -48.74,219.93 -78.15,218.71 -29.55,-1.23 -19.24,-64.32 -28.25,-82.68 -25.75,-52.43 -42.9,-9.13 -69.31,-64.49l-6.62 -21.5zm253.83 1829.75c-0.7,-9.33 -1.33,-13.1 -1.51,-22.77 -1.49,-79.14 -22.19,-129.52 81.31,-150.44 53.41,-10.8 70.78,-100.89 102.1,-150.91 56.07,-89.58 111.61,-119.7 34.16,-222.72 -45.15,-60.06 -9.01,-111.03 13.8,-176.94 25.11,-72.57 -39.87,-43.22 -77.2,-21.46 -32.12,18.72 -92.07,34.79 -124.69,10.59 -39.66,-29.42 -39.78,-22.54 -85.42,-40.49 -18.95,-7.45 -71.51,-52.29 -73.19,-51.4 -38.66,20.43 -71.56,133.33 -76.07,176.65 -9.66,92.79 -69.34,85.15 -60.76,136.82 24.49,147.45 125.4,122.19 20.65,223.25 -58.5,56.45 45.01,121.23 -55.51,139.33 -42.88,7.72 -105.21,-50.46 -75.79,74.99 13.9,59.25 27.23,37.38 27.55,111.88 -4.56,68.29 -3.51,71.7 50.69,95.48 24.68,10.83 73.33,43.92 73.33,72.76 0,66.4 17.59,52.87 77.3,75.51 41.06,15.57 48.79,15.73 50.03,68.78 0.45,19.4 -37.28,64.42 -44.65,113.82 -9.67,64.82 52.76,62.57 38.46,158.19 -12.76,85.31 81.43,210.59 92.18,21.26 1.62,-28.48 17.05,-79.22 19.84,-118.03 2.48,-34.47 -1.84,-107.68 33.64,-121.09 10.33,-3.9 40.32,-48.35 73.71,-21.5 22.06,17.75 57.15,-9.85 -16.54,-65.05 -48.24,-36.14 -57.31,-24.39 -33.35,-87.23 12.1,-31.73 -25.8,-71.05 -33.74,-106.06 -4.04,-17.81 -16.26,-26 -18.76,-55.47l-1.65 -6.57 -9.92 -61.18zm623.7 686.26l-46.58 -49.61c-3.31,-2.58 -12.5,-9.33 -14.88,-12 -51.79,-58.26 -76.7,-50.84 -154.36,-50.84 -52.7,0 -44.5,-61.81 -84.19,-78.14 -55.55,-22.87 -20.25,6.16 -102.1,-19.42 -10.6,-16.82 -55.61,-85.6 -31.42,-110.66 16.03,-16.6 31.24,-159.74 81.83,-116.03 40.99,35.41 -32.08,155.35 141.03,97.7 17.98,-5.99 137.57,-27.08 112.16,28.78 -28.35,62.34 9,44.62 55.24,85.46 4.23,3.74 15.49,10.06 21.5,9.78l21.77 28.12 0 186.86zm0 120.71c-50.03,-20.72 -39.2,-16.55 -64.91,-49.46 -16.01,-20.49 -75.67,-102.95 -97,-43.14 -31.72,88.96 4.61,23.55 59.11,84.76 13.56,15.24 43.01,28.24 56.22,55.8l46.58 14.88 0 -62.84zm-233.44 201.75c-0.97,-114.14 -10.89,-33.56 -100.87,-97.14 -19.46,-13.75 -25.52,-10.65 -49.61,-31.98 -43.4,-38.43 -39.12,71.64 -44.51,88.63 -18.69,58.9 -94.91,159.29 -52.63,219.22 15.92,22.58 53.46,-5.63 67.13,-22.48 55.79,-68.74 79.05,-34.75 144.11,-70.26 17.37,-9.48 24.21,-38.38 34.73,-47.96l3.3 -3.3 -1.65 -34.73zm114.1 165.36c3.01,-14.18 33.59,-119.7 -14.88,-113.96 -32.39,3.84 -104.35,44.73 -107.35,88.07 -3.6,52.01 -52.14,113.89 -102.23,127.85 -55.61,15.5 -66.16,95.3 -13.52,121.29 50.76,25.06 83.86,71.12 121,110.37 30.12,31.83 74,15.04 43.65,-30.34 -31.63,-47.29 -4.37,-102.98 -1.22,-148.4 1.14,-16.43 27.8,-64.53 41.48,-68.89l33.07 -85.99zm119.34 -153.78c-58.91,79.1 -43.47,98.41 -71.38,180.24 -8.43,24.71 -54.67,43.65 -69.89,83.25 -7.98,20.78 -18.08,28.05 -19.27,58.4 -0.84,21.54 -14.3,71.98 19.7,19.84 25.36,-38.88 60.68,-102.72 100.88,-128.41l39.96 -57.88 0 -155.44zm0 757.37c-66.89,-68.21 -28.93,-73.57 -59.67,-120.72 -22.7,-34.83 -86.12,-40.99 -109.85,15.02 -20.05,47.34 -75.64,-33.71 -117.26,100.87 -11.65,37.65 -99.48,27.61 -127.05,52.78 -27.02,24.67 -18.87,59.94 -41.06,100.45 -20.47,37.37 -69.27,146.66 10.73,50.46 35.22,-42.36 89.23,-164.74 155.58,-117.98 18.77,13.23 18.98,95.86 107.49,-20.36 20.81,-27.32 41.7,-33.74 64.92,-9.93 6.77,6.95 57.89,36.06 67.94,40.36l48.23 14.88 0 -105.83zm-441.8 343.95c-26.02,-6.06 -62.44,-18.66 -75.64,13.23 -4.74,11.43 -2.63,59.03 28.25,40.11 10.51,-6.44 33.3,9.82 62.27,-38.45l-14.88 -14.89zm-218.28 153.79c-22.2,-6.99 -82.69,-29.29 -102.81,1.52 12.77,32.21 45.17,24.16 80.08,34.44 12.33,3.63 81.31,1.23 39.27,-35.96l-16.54 0zm-271.2 163.71c-17.34,5.58 -68.57,17.27 -66.29,47.96 1.8,24.33 111.53,1.64 104.46,-33.21 -1.28,-6.33 -14.96,-6.48 -19.98,-6.48l-18.19 -8.27zm14.88 -1647.03c-0.58,-0.32 -119.16,-70.3 -79.37,-11.43 17.24,25.51 11.39,50.2 44.65,54.29 15.52,1.91 71.11,27.17 44.65,-31.28l-9.93 -11.58zm-150.48 317.5c-1.11,-23.15 2.15,-94.83 -43.42,-91.09 -44.63,3.66 20.92,87.46 -9.36,142.78 -40.62,74.22 -58.22,-4.32 -90.66,73.99 -7.77,18.74 -0.38,29.73 -33.07,40.77 -32.54,11 -60.48,44.44 -70.97,75.55 -15.55,46.08 -42.09,34.91 -72.33,63.08 -34.06,31.72 -41.33,39.33 -67.99,77.34 -26.81,38.2 -132.18,42 -134.75,146.89 -1.31,53.41 161.73,-99.82 178.07,-110.41 131.6,-85.33 101.72,-29.26 194.95,-178.55 24.14,-38.67 93.11,-137.6 142.49,-136.17 46.38,1.34 14.99,-21.01 13.8,-62.27 -0.07,-2.68 -1.38,-7.22 -1.8,-10.49l-4.96 -31.42zm-497.75 2673.95c-0.76,-17.72 10.56,-95.33 18.19,-111.22 35.17,-73.26 52.95,-172.84 158.47,-158.9 73.81,9.76 78.6,-8.31 131.63,-7.69 67.93,0.79 56.41,-42.82 16.25,-70.68 -50.41,-34.99 -93.96,-81.38 -138.34,-123.32 -40.15,-37.94 -123.2,-44.59 -88.77,-117.97 41,-87.4 -42.72,-58.85 -41.2,-133.29 1.91,-93.31 -112.5,-94.21 -72.9,-147.98 45.21,-61.4 53.29,-5.12 72.9,-106.26 0,-17.2 -11.23,-60.67 -15.97,-79.89 -9.75,-39.53 52.53,-57.87 82.49,-59.15 51.57,-2.21 47.24,0.15 99.51,-9.36 86.3,-15.69 7.01,-68.77 -29.35,-82.58 -60.27,-22.91 -20.53,-61.38 16.16,-63.51 58.91,-3.42 70.77,0.44 130.07,-21.78 29.56,-11.07 78.65,-23.78 76.07,-55.8 -0.89,-11.14 -101.23,-57.11 -102.67,-57.87 -33.34,-26.61 -30.06,-25.9 -51.68,-47.54 -33.95,-33.97 -79.01,52.2 -137.26,-30.33 -10.22,-14.48 -131.06,13.87 -72.19,-89.86 16.29,-28.71 -40.5,-53.21 -60.24,-85.42 -22.31,-36.43 -61.86,-11.78 -46.02,-47.96 15.14,-34.59 -16.47,-111.19 -34.87,-8.27 -3.48,19.5 -34.43,93.56 -56.37,29.63 -14.94,-43.55 -48.14,-60.98 -54,6.37 -9.7,111.37 -88.66,72.27 -122.65,179.97 -23.06,73.06 -45.56,100.61 -123.32,108.71 -82.55,8.61 -7.45,112.37 -82.02,141.93 -18.64,7.39 -97.72,-39.31 -106.92,31.71 -2.96,22.82 -60.44,13.46 -93.83,24.52 -90.62,30.02 -58.7,23.53 -120.43,96.14 -30.61,36 -64.19,63.61 -91.66,97.19 -76.75,122.36 -57.51,92.48 -164.52,180.11 -60.55,49.58 -171.6,96.05 -250.55,96.05 -81.4,0 -88.48,-22.47 -90.81,76.59 -1.56,66.37 -57.8,171.38 -119.34,199.57 -109.32,50.07 -81.79,-9.92 -180.77,-9.92 -122.85,0 -128.67,-91.12 -191.44,-72.05 -25.05,7.61 -29.59,47.39 -72.06,78.66 -35.36,26.05 -27.79,76.67 -36.8,119.5 -8.9,42.28 -7.56,56.36 -22.07,103.79 -3.68,12.03 -6.84,22.73 -11,34.68 14.11,54.7 11.09,78.05 57.45,82.54 39.06,3.78 -63.83,110.06 8.27,130.35 33.08,9.31 38.13,36.98 63.83,62.7 12.48,12.5 -15,46.71 12.8,78.29 20.52,23.31 -29.23,123.03 64.21,48.67 56,-44.57 45.59,47.95 51.83,82.02 13.77,75.18 40.16,24.84 49.61,110.04 5.2,46.89 19.66,92.3 22.73,145 8.57,146.96 37.38,16.21 140.13,78.52 86.37,52.38 267.93,-54.78 266.66,52.12 -1.5,126.18 38.52,35.38 89.3,61.18 123.46,62.73 108.66,-140.18 248.71,-47.72 35.25,23.27 115.73,2.25 136.16,43.14 28.22,56.45 130.88,-7.76 189.23,67.7 28.35,36.67 -17.98,153.73 57.45,105.27 44.85,-28.81 81.46,-49.84 127.47,-76.21 12.88,-5.35 84.12,-45.5 101.3,-35.01 6.05,3.7 62.65,102.79 93.41,50.6 47.24,-80.15 -92.46,-78.53 -3.87,-184.78 93.82,-112.54 18.52,-122.02 36.14,-219.56 2.56,-14.21 22.89,-106.54 27.4,-113.68 31.55,-49.9 73.65,-69.35 114.39,-111.07 30.24,-30.98 78.28,-43.83 94.11,-77.72 18.38,-39.36 25.19,-41.52 35.15,-85.99l3.03 -6.62 -6.62 -46.3zm964.08 431.6l-5.53 -8.27c-45.2,-85.35 37.16,-37.35 80.89,-56.22 25.53,-11.01 141.64,-81.59 161.11,-99.22 70.81,-64.12 14.94,-61.63 136.45,-125.01 20.1,-10.49 73.97,-15.07 73.56,-25.47 -1.68,-42.69 -130.08,-22.31 -158.32,-32.5 -49.51,-17.87 -108.04,75.72 -158.47,73.84 -51.88,-1.94 -87.44,-5.26 -139.61,8.27 -50.79,13.17 -77.77,106.74 -169.76,80.6 -128.01,-36.37 -79.45,-159.11 -139.9,-219.8 -34.06,-34.2 -32.71,-109.6 -5.76,-149.39 36.61,-54.04 65.51,-34.58 105.12,-42.57 36.5,-7.36 154.94,0.43 199.24,0.43 29.22,0 191.8,-21.77 197.64,-19.42 68.46,27.53 201.53,-21.48 238.69,0.8 71.75,43.02 31.15,22.39 104.75,26.75 41.36,2.45 16.41,3.64 80.45,-1.52l0 -115.75c-61.99,5.25 -86.19,8.95 -144.28,-0.43 -84.15,-13.58 -90.51,62.17 -177.37,-27.4 -46.05,-47.49 -100.44,40.92 -156.96,-14.08 -33.54,-32.64 -90.92,5.12 -115.75,-27.55 -35.6,-46.83 -133.11,-82.61 -159.98,-8.69 -58.24,160.23 -93.7,49.33 -155.02,78.01 -19.64,9.18 -31.83,72.34 -43.42,98.13 -54.22,120.69 -71.35,55.84 -69.45,203.54 0.68,52.92 -65.92,137.66 -87.64,187.95 -38.22,82.89 -61.38,94.46 -26.89,173.63 9.38,21.51 -51.1,58.16 -64.2,77.29 -23.83,34.79 -54.84,96.53 -23.44,133.95 47.28,56.34 -43.75,210.88 38.41,187.71 30.64,-8.63 91.61,-24.1 99.27,18.86 10.1,56.64 29.76,70.42 29.76,141.97 0,80.17 -3.53,154.92 -24.8,232.18 -5.33,19.35 -28.73,105.78 9.92,98.93 46.43,-8.23 168.4,-0.99 179.16,-4.97 57.51,-21.24 -39.37,-69.57 2.32,-171.97 41.41,-101.72 19.41,-111.96 13.79,-216.91 -1.92,-35.83 -2.2,-56.93 -7.98,-92.61 -3.36,-20.72 2.69,-56.49 1.09,-84.05 -2.22,-38.24 38.03,-79.46 60.9,-108.71 0.36,-0.46 61.61,-32.95 61.61,4.82 0,77.7 84.15,47.08 24.94,139.61 -38.55,60.25 35.67,65.31 73.85,104.84 76.44,79.14 62.21,21.32 66.43,140.14 1.61,45.46 38.9,73.26 72.9,98.41 28.32,20.95 18.77,-49.82 83.63,-69.31 52.39,-15.74 46.15,-22.28 104.6,-24.81 13.84,-0.6 69.84,-21.62 38.84,-47.29 -35.67,-29.53 -136.92,-102.91 -126.2,-153.51 17.27,-81.47 15.57,-19.19 1.94,-94.92 -7.69,-42.76 3.07,-46.72 -32.27,-92.51 -32.65,-42.29 -57.46,-64.89 -92.04,-103.04 -6.04,-6.67 -6.9,-9.18 -11.57,-16.54l-44.65 -56.22zm367.11 649.88c2.83,-10.3 25.43,-69.21 -3.17,-76.2 -26.85,-6.57 -30.98,105.85 -41.9,132.43 -15.67,38.11 -46.49,132.08 -39.13,18.9 1.28,-19.71 9.08,-79.51 -19.84,-65.77 -33.87,16.1 -125.28,-2.79 -35.29,76.35 57.26,50.36 5.01,101.05 78.99,102.81 67.94,1.61 25.93,-62.75 41.73,-99.22 4.02,-9.28 -6.62,-20.22 8.69,-52.92l9.92 -36.38zm124.02 845.02c-66.21,23.19 -42.7,10.47 -95.91,-1.23 -42.33,-9.31 -46.08,57.45 -133.94,57.45 -46.57,0 -30.03,-17.14 -77.73,1.23 -50.8,19.57 -104.8,-2.75 -157.52,-1.23 -14.05,0.4 -35.02,-8.38 -54.14,-2.08 -40.16,13.24 -89.51,-33.65 -137.25,-37.47 -37.46,-2.99 -21.92,-19.15 -87.65,-2.87 -21.51,5.32 -159.66,64.63 -128.98,95.34 40.94,40.98 142.83,-10.71 216.91,36.8 40.97,26.28 163.96,1.63 210.44,-12 53.5,-15.68 109.96,-14.42 164.37,-11.43 90.86,5.01 88.31,-20.4 169.76,-35.29 17.28,-3.16 45.46,-23.25 78.57,-25.9 14.8,-1.18 82.73,-28.1 71.11,-51.4l-38.04 -9.92zm-1061.64 337.34c-28.65,-26.82 -45.05,-44.35 -8.41,-72.9 19.82,-15.45 76.77,-0.3 98.28,7.33 32.12,11.38 180.59,-46.62 187.8,42.42 3.4,41.98 113.21,34.2 106.12,122.8 -4.28,53.61 -134.2,37.72 -170.61,7.7 -32.71,-26.97 -13.96,-35.82 -63.92,-66.67 -40.08,-24.74 -41.71,-16.36 -83.11,-22.49l-66.15 -18.19zm1171.06 -67.8c-14.56,6.45 -81.47,32.5 -58.58,61.05 20.18,25.16 -85.8,92.39 -67.37,145.66 25.38,8.78 9.28,9.62 44.65,2.08 5.82,-1.25 23.1,-3.96 28.11,-3.74l53.19 -16.53 0 -188.52zm-220.21 307.58c-17.63,9.11 -66.63,33.16 -67.8,62.84 -1.05,26.71 70.71,-36.19 87.21,-24.38 16.5,11.79 98.07,-56.94 51.56,-66.43 -29.5,-6.01 -67.02,25.93 -70.97,27.97zm-998.8 -535.78c-55.43,-36.14 -35.66,-22 -85.99,-19.84 -47.11,2.02 -5.26,-42.41 -88.07,-46.17 -13.4,-0.61 -106.66,-16.1 -105.69,9.78 0.65,17.45 99.64,26 120.43,91.38 10.57,33.24 56.9,17.89 91.52,32.22 10.01,4.15 91.28,8.21 79.8,-33.07 -2.61,-9.35 -6.1,-14.12 -7.04,-17.76l-4.96 -16.54zm-223.25 71.11c-58.16,-25.79 -40.17,-19.6 -79.37,-45.88 -27.51,-18.45 -129.85,-31.02 -159.98,-10.35 -22.54,15.47 -74.69,35.22 -46.87,83.25 25.43,43.89 95.17,17.62 145.66,17.62 42.82,0 62.19,-6.86 109.28,-3.16 7.16,0.56 125.63,-1.3 99.08,-22.06 -23.79,-18.6 -14.04,-6.99 -29.76,-14.46l-38.04 -4.96zm-324.11 -46.31c8.1,-46.63 13.33,-63.91 -31.85,-77.29 -30.23,-8.96 -83.99,23.06 -90.52,55.94 -11.41,57.47 -136.73,95.86 -36.38,103.9 32.63,2.61 29.14,23.86 82.68,-9.79 11.29,-7.09 34.26,-28.77 46.3,-29.76l29.77 -43zm-272.85 -67.8c-70.34,-20.15 -56.23,-7.79 -116.18,-16.96 -15.94,-2.43 -88.11,-15.88 -85.85,18.76 1.7,26.2 59.1,13.11 81.73,68.08 16.62,40.38 62.2,14.7 92.33,16.11 27.17,1.27 27.97,-33.04 27.97,-51.26l0 -34.73zm-1243.55 -77.72c67,16.1 71.99,50.99 149.92,56.09 74.57,4.87 73.19,40.55 161.49,26.02 44.36,-7.29 99.93,-23.47 140.56,1.66 18.87,11.67 92.79,27.03 114.57,27.03 32.32,0 69.52,-50.58 120.58,-14.46 87.62,61.98 88.62,16.83 133.66,26.46 52.99,11.33 87.75,21.27 139.33,35.95 49.77,14.17 40.99,-40.45 33.31,-71.53 -15.8,-63.95 49.53,-99.58 12.14,-115.9 -26.23,-11.45 -78.15,-5.74 -135.03,-29.62 -18.8,-7.89 -138.46,0.85 -161.25,5.81 -66.48,14.49 -43.38,-35.1 -72.62,-44.65 -77.02,-25.13 -46.95,-73.41 1.65,-76.63 59.14,-3.92 39.17,4.58 124.03,-11.44 0.35,-0.1 131.65,-38.79 116.32,-56.79 -10.89,-12.77 -116.09,11.39 -151.05,4.3 -87.19,-17.68 -140.82,74.54 -180.67,6.19 -31.41,-53.86 -116.78,-11.99 -145.1,-23.15 -60.05,-23.65 6.87,-62.6 -122.65,-30.85 -55.74,13.66 -66.43,-93.16 -121.15,-69.17 -28.26,12.4 -50.72,100.24 -132.94,85.14 -28.98,-5.32 -32.97,-13.99 -67.71,1.79 -8.49,3.86 -66.7,6.81 -76.45,6.48 -28.28,-0.3 -225.2,-5.61 -245.54,-18.19 -60.63,-37.51 -70,-77.48 -101.72,-95.92 -32.93,-19.14 -51.33,34.54 -97.28,-17.76 -32.96,-37.52 -24.52,-34.37 -74.98,-49.61 -42.82,-12.92 -57.99,30.3 -101.97,-26.74 -30.41,-39.46 -77.9,0.5 -122.79,8.7 -46.42,8.47 -50.97,15.13 -98.94,-1.14 -36.83,-12.48 -81.49,8.88 -99.4,44.37 -10.29,20.39 9.26,56.55 -9.5,65.34 -41.91,19.64 -140.96,87.29 -18.14,76.49 51.88,-4.57 111.98,26.84 134.51,73.61 62.39,129.55 107.23,94.38 233.16,109.94 86.31,10.67 136.6,-17.63 240.96,15.12 98.6,30.94 92.27,36.89 202.03,35.72 79.84,-0.85 143.66,9.01 220.79,24.81l57.87 16.53zm-620.94 -1150.11c-29.44,-84.67 -31.48,-46.65 -6.18,-125.82 12.54,-39.26 83.4,-43.67 104.83,32.13 10.74,37.95 29.29,66.27 -28.11,90.67 -5.24,2.22 -13.47,1.37 -19.28,1.37l-51.26 1.65zm-463.84 401.01c1.47,-11.94 1.73,-17.91 1.65,-30.1 -0.64,-94.79 27.68,-137.56 12.01,-232.31 -17.89,-108.09 10.23,-77.83 19.27,-153.32 3.61,-30.14 -64.15,-90.18 -12.14,-107.76 59.49,-20.11 130.78,50.27 160.59,41.57 52.05,-15.2 -6.99,-80.46 -17.81,-105.26 -34.5,-79.02 -86.18,-71.8 -95.34,-129.51 -10.92,-68.76 -30.11,-43.02 -93.61,-36.95 -53.92,5.16 -71.45,25.25 -113.11,35.53 -45.92,11.34 -58.46,64.63 -109.56,41.63 -79.55,-35.81 -42.6,-107.07 -94.26,-121.81 -78.31,-22.34 22.02,-125.94 -68.03,-137.25 -40.66,-5.1 -124.75,-26.97 -131.64,-76.21 -4.81,-34.46 18.86,-21.07 9.5,-97.85 0.26,-7.28 -0.63,-13.75 -1.23,-21.07 -5.57,-68.36 58.5,-73.31 -9.54,-125.44 -49.99,-38.29 -51.85,-30.44 -97,-81.83 -39.3,-44.75 -70.14,-19.83 -83.63,-74.55 -12.38,-50.27 -68.57,-70.23 -115.37,-63.79 -45.34,6.23 -88.51,-5.74 -113.25,-48.24 -55.57,-95.44 -80.94,-47.23 -147.6,-113.82 -25.64,-25.61 -41.76,-94.76 -70.82,-85.99 -52.96,15.99 -34.16,14.12 -69.6,-7.46 -65.93,-40.14 -94.14,-49.74 -146.89,-112.03 -22.78,-26.89 -77.76,-84.15 -107.35,-101.01 -53.88,-30.71 -67.14,-39.86 -120.86,-85.85 -28.69,-20.69 -70.64,-29.19 -92.46,-59.39 -39.06,-54.07 -37.93,-47.65 -83.67,-90.15 -29.09,-27.02 -46.66,-35.33 -74.7,-57.73 -97.4,-77.82 -90.09,-173.07 -229.53,-173.07 -48.24,0 -69.29,-13.61 -106.68,-13.23 -87.01,0.89 -115.49,-7.04 -200.09,-24.8 -55.66,-11.68 -85.23,-82.57 -110.8,-64.49 -33.22,23.5 -8.46,71.32 3.17,98.23 32.57,75.36 26.63,135.65 91.09,187.99 27.21,22.09 35.99,26.62 69.45,56.08 74.4,68.06 73.6,88.36 168.39,126.91 57.9,23.54 51.08,80.4 119.07,114.39 65.59,32.78 108.37,38.32 110.93,114.38 2.84,84.37 75.43,72.24 128.61,112.87 24.75,18.92 64.55,38.05 93.12,52.35 23.16,64.82 31.55,88.96 44.51,150.48 15.12,71.78 50.19,97.11 64.92,159.75 23.76,101.08 70.07,120.76 145.23,177.6 80.68,61.01 28.08,93.15 124.03,166.59 65.17,49.88 65.2,73.04 97.56,142.64 28.41,86.05 55.07,126.72 68.37,217 10.66,72.39 98.91,144.35 156.96,183.04 51.22,34.15 31.94,85.58 119.86,144.43 95.76,64.11 57.37,61.6 115.61,134.47 7.97,9.98 79.83,45.52 103.81,65.48 27.94,23.27 105.33,62.18 139.85,77.44 39.45,38.05 63.95,67.61 105.55,101.01 31.03,24.93 71.26,64.23 85.85,101.3 9.65,24.54 43.96,98.54 75.26,58.12 59.97,-77.45 52.29,-3.09 108.99,-57.46 32.87,-31.51 115.96,11.7 143.59,42.2 8.09,8.92 56.6,56.16 54.57,15.26 -1.42,-28.69 3.05,-13.72 -5.53,-44.65 -9.12,-32.92 -9.72,-59.83 -24.8,-95.06 -2.32,-5.42 -2.74,-13.91 -2.74,-19.85l8.27 -69.45zm-2378.77 -1803.3c-47.57,-91.68 3.39,-44.21 53.72,-16.54 28.05,15.42 88.22,48.31 74.84,89.44 -4.62,14.18 -62.51,-28.47 -78.95,-36.52 -13.79,-6.75 -32.35,-17.18 -46.31,-24.8l-3.3 -11.58zm368.76 385.3c-15.7,-18.49 -90.16,-100.14 -6.75,-81.45 45.49,10.19 64.71,-3.58 81.59,45.07 10.01,28.87 11.45,56.56 28.92,82.68 21.45,32.09 18.1,137.51 -60.77,4.96l-42.99 -51.26zm334.04 630.04c-26.09,-43.63 -30.59,-56.78 -21.08,-104.61 16.79,-84.38 69.99,-4.3 72.34,9.26 11.81,67.99 33.65,73.68 54.15,123.46 14.81,35.96 -68.99,33.47 -93.84,6.62l-11.57 -34.73zm320.8 314.19c-9.02,-18.54 -26.61,-40.34 -12.8,-59.39 16.64,2.18 43.09,21.34 45.74,42.86 0.42,3.47 59.45,111.71 18.33,97.14 -10.95,-3.89 -43.21,-43.82 -46.31,-55.8l-4.96 -24.81zm-119.06 -145.52c-48.89,-103.82 12.79,-50.01 14.46,-44.65 13.86,44.64 8.08,20.62 26.46,51.7 6.87,11.61 -11.63,26.93 -35.96,7.83l-3.31 -1.65 -1.65 -13.23zm-300.96 -431.6c-0.01,-0.04 -35.1,-122.75 -1.52,-115.9 24.23,4.94 17.68,73.8 24.67,96.2 5.66,18.13 22.81,49.42 -13.23,47.95 -3.11,-0.13 -10.97,-7.8 -13.23,-10.06l3.31 -18.19zm-1391.54 -2993.93c5.19,-56.79 10.22,-111.2 8.27,-168.67 -0.69,-20.37 62.66,-230.08 84.9,-186.86 8.62,16.75 -20.03,126.4 -20.55,160.45 -0.7,45.64 -15.16,86.72 -27.69,128.65 -12.46,41.73 1.06,108.34 -18.9,161.54 -15.84,42.23 -23.48,67.47 -32.22,-1.37 -2.7,-21.24 2.88,-39.54 2.88,-60.67l3.31 -33.07zm280.71 1213.37c-5.73,-23.91 -21.57,-62.62 -16.82,-85.99 8.55,-42.19 48.67,-8.8 49.82,40.44 0.11,4.98 34.95,53.97 -1.4,64.17 -5.48,1.53 -10.33,-0.8 -13.41,-5.39l-18.19 -13.23zm3445.37 767.3c-8.9,-19.65 -46.55,-85.86 9.5,-87.64 24.85,-0.79 37,40.32 52.77,59.95 15.5,19.29 -13.68,46.55 -42.42,45.88l-19.85 -18.19z"/>
  <path class="fil0 str1" d="M5519.92 6642.53c-22.3,-45.63 -2.55,-23.01 2.48,-62.62 3.66,-28.82 34.64,-26.39 55.12,-35.15 28.52,-12.2 53.7,-11.23 49.96,26.12 -3.35,33.39 -14.51,37.24 -10.89,78.88 1.64,18.86 6.44,42.12 -19.77,39.97 -7.55,-0.62 -11.06,-17.88 -28.73,-24.26 -3.83,-1.38 -11.98,-6.61 -15.92,-8.88l-32.25 -14.06zm-291.04 1988.52c-47.7,-89.37 -19.71,-41.99 -8.13,-99.08 4.61,-22.69 -2.7,-30.88 10.87,-66.71 17.85,-47.13 58.51,-110.36 46.73,-14.46 -2.97,24.13 6.66,159.51 17.76,180.25 15.03,28.08 21.82,88.57 60.1,118.63 20.47,16.08 23.26,41.97 46.87,64.36 38.27,36.31 32.5,144.88 -20.41,49.75 -24.06,-43.25 -3.47,-36.03 -57.88,-52.07 -56.08,-16.53 -14.39,-60.6 -45.73,-91.94 -18.67,-18.66 -14.1,-46.41 -20.42,-54l-29.76 -34.73zm-1200.55 527.52c47.72,-61.69 35.91,-24.38 72.34,-57.32 49.64,-44.88 78.4,-195.79 -17.91,-74.98 -4.41,5.53 -53.65,42.23 -68.74,57.31 -32.46,32.42 -111.53,103.15 -63.83,148.18 18.47,17.43 47.12,-18.99 67.51,-34.59l4.02 -5.53 6.61 -33.07zm-253.01 424.98c18.04,-46.99 45.97,-91.43 -26.88,-68.37 -45.01,14.26 -102.25,117.24 -42.57,114.81 4.45,-0.18 31.55,-24.72 36.38,-28.25l33.07 -18.19zm921.08 297.66c31.04,-60.67 25.85,-44.85 60.77,-79.81 58.69,-58.76 24.56,-66.68 47.29,-132.43 32.83,-94.97 66.16,-31.24 103.19,-89.15 11.48,-17.95 -38.01,23 -72.34,-12.8 -28.52,-29.74 -20.94,-37.21 -45.88,-71.25 -23.23,-31.72 -69.81,-3.89 -103.8,-49.9 -47.28,-63.99 -62.34,54.36 -103.89,30.86 -19.58,-11.08 -86.28,-33.78 -105.7,-18.85 -52.06,40.03 -86.51,30.18 -126.47,67.51 -15.54,14.51 -29.13,16.77 -50.99,42.29 -44.37,51.8 -36.24,62.48 -30.61,125.82 4.43,49.83 9.67,32.77 -3.74,87.78 -8.57,35.21 -19.47,78.72 -15.82,114.24 2.83,27.48 1.51,68.29 1.51,97.19 0,145.49 13.15,65.13 101.44,67.09 39.91,0.88 38.5,-2.22 77.58,15.03 24.5,10.82 142.35,-20.64 201.74,-8.84 40.46,8.04 137.21,-40.07 43.94,-53.06 -23.64,-3.29 -172.31,-12.11 -124.16,-63.5 24.89,-26.57 26.58,22.77 99.5,-18.75 11.22,-6.39 20.64,-10.68 31.56,-16.4l14.88 -33.07zm-896.27 1279.92c-13.81,-11.28 -23.2,-20.76 -35.81,-32.22 -93.71,-85.11 -40.18,-72.33 -78.29,-141.55 -57.57,-104.56 28.02,-125.18 -21.93,-178.74 -44.7,-47.94 28.88,-63 -49.18,-168.39 -40.94,-55.27 44.32,-102.68 28.54,-144 -20.56,-53.81 -60.06,27.51 -3.17,-125.97 25.63,-69.16 62.42,63.31 66.81,70.31 29.52,47.09 30.48,78.26 40.11,136.82 -5.99,64.04 -15.64,70.01 23.29,114.11 48.41,54.82 -75.05,87.48 -26.6,133.94 18.91,18.13 -0.41,11.5 29.35,28.54 26.83,15.37 -48.17,81.06 17.1,155.02 37.27,42.24 48.28,23.84 100.73,50.18 21.86,10.97 41.86,50.01 69.45,73.84 -4.9,125.01 -15.77,125.86 56.09,216.49 31.42,39.63 21.4,74.94 37.09,104.32 37.97,71.14 23.84,141.36 13.89,110.79 -25.8,-79.18 -116.18,-3.92 -113.82,-62.7 1.15,-28.63 29.12,-43.32 5.52,-104.32 -18.45,-47.71 -50.42,-16.48 -84.19,-114.52 -16.13,-46.82 -23.26,-34.52 -37.09,-62.56 -1.06,-2.15 -3.39,-12.46 -3.17,-14.74l-34.72 -44.65zm456.4 188.52c-15.99,-27.39 -52.19,-90.01 11.58,-69.03 24.86,8.18 18.93,32.09 49.61,46.16 19.42,8.91 63.39,29.32 73.42,45.59 9.36,15.18 49.91,77.65 62.04,86.84 74.33,56.38 23.67,95.7 -17.63,12.95 -15.1,-30.26 -66.37,-22.45 -101.29,-26.74 -45,-5.53 -51.03,-50.43 -64.5,-62.7l-13.23 -33.07zm-679.64 297.65c6.48,-8.25 86.26,-102.99 39.68,-119.06 -33.05,-11.4 -232.57,150.46 -163.71,215.83 44.87,42.59 79.63,-53.3 107.49,-57.08l16.54 -39.69zm1230.31 287.74c-36.76,-64.9 -15.66,-53.69 -31,-90.95 -27.46,-66.74 53.66,-95.79 58.97,-29.77 1.34,16.74 53.78,50.74 69.02,93.83 23.94,67.68 -2.85,78.96 5.4,134.52 4.34,29.24 29.07,53.98 31.69,106.92 2.66,53.54 126.42,140.24 29.2,237.17 -64.77,64.59 -11.15,132.68 -11.15,209.03 0,76.77 -42.35,143.08 44.65,184.12 34.55,16.3 49.67,93.42 51.27,127.61 0.69,14.73 -7.62,-6.64 -28.54,-0.57 -39.4,11.44 -68.56,19.16 -93.4,-25.22 -16.24,-29.01 42.62,-55.37 -34.73,-145.1 -46.75,-54.22 -3.64,-194.65 -53.07,-234.39 -16.2,-13.03 -47.06,-81.34 -41.19,-110.66 7.46,-37.28 71.14,-78.81 43,-143.44 -16.46,-37.78 10.4,-61.21 -4.16,-116.89 -13.93,-53.23 11.68,-59.4 2.5,-108.01 -1,-5.28 -0.43,-23.36 -0.43,-30.32l-38.03 -57.88z"/>
  <g id="_1838988211824">
   <path class="fil2 str2" d="M3957.68 1535.64c-20.27,108.48 23.66,77.76 29.66,147.23 9.5,109.81 -32.99,82.19 62.84,173.21 11.8,11.2 53.76,50.93 56.36,66.15"/>
   <path class="fil2 str2" d="M4245.27 1554.38c-28.05,28.36 -57.57,55.35 -84.16,85.07 -10.43,11.66 -26.35,28.34 -32.64,45.88 -22.52,62.81 -42.88,41.88 -33.36,119.49 4.93,40.23 13.22,75.31 11.43,117.41 -3.11,73.1 -3.88,169.29 -30.33,237.7 -8.31,21.48 -58.96,294.14 -58.96,318.35 0,63.61 11.03,106.53 46.3,158.89 41.31,61.34 55.71,58.59 73.33,141.27 13.34,62.6 56.43,84.95 72.47,124.83 10.24,25.48 57.93,56.61 88.59,57.59 53.05,1.71 78.92,-7.61 127.1,-8.41 50.23,-0.84 49.86,50.88 58.11,87.5 9.57,42.51 -26.03,60.87 -26.03,113.44 0,3.58 -1.04,7.31 0,10.73 11.97,39.27 16.39,74.63 26.74,104.74 27.68,80.56 41.44,71.26 34.3,167.68 -2.95,39.89 -7.06,80.81 -9.92,120.06 -7.71,105.8 25.14,115.64 -24.8,235.48 -14.92,35.82 -44.9,122.68 -94.54,109.14 -49.2,-13.42 -104.53,-40.11 -116.99,32.41 -9.89,57.62 -94.4,30.49 -105.83,123.45 -2.24,18.22 -52.39,60.22 -62.27,80.33 -2.63,5.35 -35.92,55.14 -40.26,63.54 -32.95,63.71 -23.77,26.42 -66.29,55.8 -22.13,15.29 -15.67,97.95 -75.92,102.81 -40.46,3.27 -6.16,78.75 -1.66,104.89 5.94,34.46 7.81,36.04 6.62,73.71 -1.92,60.41 5.56,29.13 -26.89,82.58 -35.89,59.1 14.4,91.66 23.58,159.98 5.83,43.36 9.83,50.81 8.27,98.79 -1.14,35.26 22.65,78.59 53.72,95.35 47.41,25.58 58.97,153.7 214.74,62.41 46.57,-27.3 51,-117.72 146.74,-143.86 56.63,-15.46 105.36,-156.09 159.7,-153.37 54.6,2.74 129.55,-44.75 129.55,67.38 0,88.63 -5.29,70.97 59.53,136.82 60.95,61.9 41.06,64.8 62.56,141.55 11.53,41.15 -24.32,142.93 -37.33,182.52 -1.52,4.62 -1.63,9.74 -3.73,14.13 -40.31,84.21 -17.42,65.35 -84.34,122.23 -26.32,22.36 -37.76,20.14 -64.35,51.4 -39.64,46.58 -10.92,60.94 -92.32,87.07 -54.45,17.47 -45.64,78.7 -39.97,121.29 5.38,40.34 26.6,72.72 63.12,92.89 37.72,20.83 102.09,76.97 119.3,116.13 27.05,61.57 46.92,68.82 52.12,147.64 2.97,44.98 8.41,73.29 8.41,122.85 0,88.13 39.66,69.65 72.76,160.45 21.09,57.84 72.48,110.22 89.29,168.67 20.23,70.32 5.75,50.21 8.13,107.49 0.88,21.2 59.73,64.21 56.37,119.49 -3.61,59.56 134.5,37.13 127.33,165.36 -1.77,31.83 21.97,68.63 46.3,85.85 25.92,18.34 41.97,103.78 136.83,84.62 3.02,-0.6 49.79,-27.9 70.44,-35.29 38.37,-13.72 95.41,-37.98 128.85,-4.54 61.68,61.67 47.07,27.32 124.44,52.49 77.79,25.3 159.28,50.33 236.19,4.68 49.28,-29.24 62.94,-81.29 55.09,-134.09 -9.27,-62.43 14.37,-128.56 -53.01,-128.56 -59.65,0 -61.48,-10.78 -111.22,-36.38 -1.5,-0.77 -2.81,-1.98 -3.87,-3.3 -17.13,-21.26 -33.79,-42.92 -50.68,-64.38"/>
   <path class="fil2 str2" d="M4435.76 5664.43c-45.72,85.12 -20.46,74.3 -38.6,140.14 -28.79,104.47 -110.71,74.77 -60.33,203.29 10.14,25.86 31.05,43.05 45.87,86.66 24.82,73.08 38.59,152.36 66.15,223.1 24.84,63.78 16.54,183.01 16.54,254.52 0,72.98 11.95,141.64 -21.5,208.5 -29.22,58.43 -16.99,65.44 -73.99,101.3 -30.71,19.33 -37.83,45.08 -17.39,73.99 19.86,28.11 6.77,53.28 -9.49,82.68 -41.86,75.7 -73.76,164.36 -176.53,155.58 -52.76,-4.5 -135.71,20.31 -140.84,82.97 -7.89,96.26 -59.36,97.85 -74.7,174.72 -4.9,24.58 32.13,71.15 24.52,108.48 -17.67,86.61 -16.81,67.15 24.15,143.02 7.62,14.11 11.19,105.82 51.12,144.58 20.01,19.43 89.74,85.77 96.57,108.85 10.99,37.17 119.24,147.09 94.55,207.8 -12.38,30.44 -16.57,55.35 -34.88,90.28 -3.77,7.19 -4.71,7.58 -6.19,15.69 -10.13,55.4 -25.17,106.38 -21.35,160.97 1.38,19.83 28.2,89.17 46.73,103.61 13.35,10.39 54.45,58.23 61.84,76.07 11.74,28.35 -63.54,9.44 -88.87,47.53 -23.08,34.69 -24.8,18.83 -24.8,70.17 0,59.67 2.5,70.7 -9.5,128.69 -1.45,7.04 -7.23,34.71 -8.69,39.69 -8.01,27.26 -12.05,55.53 -18.08,83.3"/>
   <path class="fil2 str2" d="M4156.15 8897.31c93.91,48.22 54.23,11.44 122.37,21.5 40.28,5.94 76.27,46.79 77.58,87.5 1.12,34.69 46.71,90.09 79.94,103.9 34.02,14.15 75.66,56.31 77.15,97.42 1.6,43.95 17.54,93.78 48.1,126.24 29.89,31.75 60.69,62.65 91.03,93.98"/>
   <path class="fil2 str2" d="M3888.26 8907.23c22.31,-53.23 36.69,-97.71 -21.5,-120.29 -0.39,-0.15 -91.58,-15.28 -105.7,-18.61 -37.16,-8.75 -38.17,-20.56 -38.17,-61.99 0,-52.54 -94.18,2.45 -125.68,-54.57 -37.61,-68.07 -58.75,-17.44 -107.48,-33.5 -11.64,-3.84 -56.73,3.48 -94.83,-13.65 -52.78,-23.72 -86.2,17.4 -140.55,-19.56 -88.79,-60.36 -118.31,105.51 -186.73,32.22 -35.05,-37.54 -35.98,-110.25 -93.55,-68.46 -41.43,30.07 -112.57,28.28 -133.8,43.23 -30.46,21.45 -101.51,9.89 -152.56,27.45"/>
   <path class="fil2 str2" d="M2696.17 8616.89c-61.79,62.67 -66.08,50.89 -132.91,8.23 -52.78,-33.68 -61.64,37.64 -157.48,-36.61 -19.27,-14.92 -7.59,-15.66 -39.31,-24.01 -114.23,-30.09 -195.58,16.13 -278.33,-0.66 -89.11,-18.09 -17.56,-103.12 -147.31,-88.07 -30.95,3.59 -60.1,-17.44 -98.56,-15.02 -0.61,0.03 -81.27,-16.84 -92.6,-18.19 -50.39,-6.04 -85.48,-19.39 -139.62,-23.01 -21.09,-1.4 -62.55,-11.41 -71.49,-31.42 -24.16,-54.01 -75.91,-104.44 -133.66,-117.97 -10.04,-2.35 -15.9,-3.21 -26.88,-6.2 -70.98,-19.39 -96.8,-19.96 -165.37,9.79 -43.08,18.68 -79.64,54.97 -105.83,92.6 -35.53,51.06 -1.65,169.31 -1.65,235.9 0,31.13 1.81,49.31 -9.5,78.43 -8.53,21.96 -21.22,78.98 -30.19,92.61 -21.29,32.33 -43.65,63.94 -65.48,95.91"/>
   <path class="fil2 str2" d="M1000 9365.29c23.24,-55.97 23.89,-62.88 39.45,-112.44 17.59,-56.02 50.72,-57.03 89.82,-92.18 32.45,-29.17 237.66,-129.43 279.32,-132.72 25.94,-2.04 57.98,-9.65 90.15,-11.58 95.35,-5.75 217.39,-17.53 307.43,-46.58 87.57,-28.25 223.61,-32.9 289.96,42.47 31.46,35.73 58.65,44.59 91.75,94.63 26.28,39.75 71.53,86.48 114.39,106.83 48.58,23.06 102.85,32.93 145.09,65.72 81.77,63.46 325.17,46.72 263.5,211.53 -14.18,37.89 -1.13,86.11 13.23,122.37 10.67,26.96 68.52,128.68 54.14,162.06 -38.61,89.59 23.48,92.91 15.17,194.99 -7.44,91.44 -11.39,83.9 15.45,170.32 4.35,14.01 -11.35,144.21 5.1,202.74 25.54,90.91 3.25,122.17 104.56,170.99 70.64,34.04 136.18,100.77 149.11,179.96 1.53,9.39 10.65,38.57 10.35,46.73 -2.83,74.74 7.86,100.22 -11.15,183.41 -13.15,57.54 -2.16,124.78 4.67,180.39 5.7,46.44 -51.59,98.89 -12.94,189.46 20.68,48.46 26.98,101.69 -29.76,123.65 -118.99,46.07 -53.26,122.76 -161.5,184.5 -16.25,9.27 -85.85,82.5 -94.72,99.5 -33.46,64.15 -10.15,107.97 -27.12,161.2 -0.75,2.37 -0.79,4.95 -1.52,7.33 -18.93,61.18 -54.35,107.8 1.23,147.17 58.3,41.3 -45.07,140.28 46.3,206.71 27.27,19.83 27.61,25 61.9,44.65 41.8,23.94 63.69,37.99 103.32,64.49 1.78,1.19 3.69,2.21 5.53,3.31"/>
   <path class="fil2 str2" d="M2351.2 12160.79c-43.28,76.74 -37.19,60.46 -99.65,74.41 -29.64,6.61 -35.01,59.31 -104.84,78.81 -54.05,15.1 -107.6,60.83 -109.57,120.05 -2.27,68.01 12.97,160.93 51.27,218.43 28.4,42.65 75.48,86.01 102.52,130.78 19.93,33.01 -9.1,39.2 9.36,100.16 26.19,86.53 -94.42,116.61 -50.41,263.22 5.41,18.02 8.47,32.79 11.15,50.97 6.8,46.05 10.23,160.26 46.73,195.56 61.62,59.62 27.95,126.63 83.34,158.19 65.93,37.57 63.79,30.86 101.01,92.74 20.96,34.86 114.88,50.48 167.45,108.71 28.59,31.66 95.54,44.1 136.16,48.25 13.48,1.38 70.9,31.39 105.98,36.8 44,6.79 51.16,17.91 105.55,17.91 75.19,0 130.05,-2.42 197.02,-41.34 64.7,-37.59 116.4,-86.58 158.51,-148.6 37.53,-55.29 111.42,-103.88 173.63,-125.77 38.7,-13.62 83.19,-64.26 87.22,-108.57 6.18,-67.9 76.03,-115.9 131.21,-146.66 29.53,-16.47 47.11,2.53 103.32,-21.07 34.87,-14.65 65.27,-19.8 102.39,-10.06 1.83,0.48 3.54,1.4 5.39,1.79 84.63,18.01 141.73,17.9 226.17,6.33 66.08,-9.06 124.37,-4.43 190.92,-12.52 29.55,-3.59 177.09,0.43 207.04,7.71 107.95,26.24 65.17,42.43 132.67,106.39 31.95,30.26 67.34,43.56 100.87,86.23 30.45,38.73 76.9,80.5 119.77,104.89 79.25,45.11 144.04,40.97 165.8,134.37 12.93,55.52 54.54,38.95 76.87,114.39 1.2,4.08 20.86,41.62 28.39,49.18 66.23,66.47 137.4,127.86 206.1,191.79"/>
   <path class="fil2 str2" d="M5086.05 13803.29c1.29,-77.97 5.63,-90.13 -15.17,-159.18 -10.34,-34.31 10.77,-33.95 -25.75,-88.59 -44.41,-66.47 -56.21,-130.85 -81.03,-204.25 -20.66,-61.07 18.35,-106.53 57.46,-149.91 16.96,-18.81 54.02,-88.13 59.38,-113.54 3.11,-14.77 10.9,-29.47 8.7,-43.98 -6.81,-44.74 -23.67,-87.38 -35.5,-131.07"/>
   <path class="fil2 str2" d="M1000 16696.33c56.92,3.89 50.63,-2.01 89.07,17.1 81.35,40.44 119.17,-54.55 190.17,-61.61 31.64,-3.15 123.73,-117.07 193.33,-31.56 18.83,23.14 75.27,41.39 103.75,35.29 65.11,-13.94 86.28,-49.66 158.75,-62.83 67.47,-12.25 63.28,-4.25 111.79,42.85 24.62,23.89 -1.68,35.29 53.02,71.62 37.02,24.6 58.7,95.5 111.12,133.28 68.54,49.4 55.36,89.21 139.05,10.31 42.51,-40.07 121.76,-98.74 166.16,-28.92 28.92,45.49 14.7,36.52 69.32,66.29 84.86,46.25 106.84,72.19 140.99,156.01 26.72,65.57 124.18,66.28 186.43,93.83 47.11,20.84 97.01,23.93 147.03,41.34 52.49,18.26 150.67,26.35 199.43,-7.18 69.52,-47.81 79.08,-42.29 156.96,-53.06 65.66,-9.08 66.59,-80.31 195.65,-100.73 52.2,-8.26 79.14,-36.7 87.49,-86.7 8.9,-53.28 60.96,-132.56 61.76,-142.73"/>
   <path class="fil2 str2" d="M7093.05 1000c40.44,59.14 26.45,27.24 66.15,50.36 11.1,6.46 37.56,45.2 36.38,63.65 -1.5,23.25 14,84.12 28.77,105.83 24.34,35.75 10.27,83.37 24.15,123.08 29.52,84.4 18.49,102.59 100.02,162.86 38.11,28.16 77.16,41.68 106.02,73.9 25.21,28.16 124.16,81.58 163.24,87.64 68.92,10.7 147.86,-5.31 221.92,-7.04 68.01,-1.59 83.35,-11.47 139.57,39.26 40.91,36.93 28.97,44.7 90.66,79.09 23.22,12.94 41.58,16.82 63.27,36.95 40.51,37.6 69.39,86.06 104.09,129.09"/>
   <path class="fil2 str2" d="M7979.27 1699.54c9.76,-92.17 16.68,-132.16 -36.77,-209.3 -5.95,-8.59 -61.99,-43.66 -88.91,-82.17 -34.46,-49.27 -10.26,-49.38 -26.74,-79.89 -11.03,-20.43 -60.89,-41.72 -65.72,-43.42 -38.85,-13.72 -99.91,-22.61 -140.56,-33.08 -23.84,-6.13 -30.89,-49.17 -95.49,-64.91 -21.05,-5.12 -81.57,-35.2 -109.57,-37.47 -30.82,-2.49 -79.39,-46.61 -99.22,-67.94 -24.52,-26.37 -47.4,-54.24 -71.1,-81.36"/>
   <path class="fil2 str2" d="M13829.19 1000c-34.87,132 -52.76,47.32 -73.99,118.98 -12.96,43.76 23.84,46.04 -27.97,106.5 -27.41,31.99 -22.37,104.7 -48.52,153.93 -24.3,45.76 -43.89,77.04 -70.68,120.43 -45.08,73.04 -21.4,130.55 -29.63,211.9 -1.33,13.14 -4.86,20.62 -2.22,33.55 23.54,115.09 18.26,163.25 -7.84,272.85 -10.87,45.66 21.24,159.9 9.92,196.36 -7.55,24.33 5.91,116 -63.4,99.78 -29.62,-6.93 -32.23,-38.46 -70.97,-4.96 -15.1,13.07 -15.53,12.06 -31.42,27.97 -31.84,31.86 -76.17,14.54 -136.31,78.15 -45.12,47.74 -70.92,-10.65 -129.79,94.36 -22.14,39.48 -44.3,11.25 -100.07,46.05 -61.46,38.35 -97.2,95.45 -120.28,162.59 -4.15,12.09 -9.87,23.61 -14.61,35.57 -29.58,74.67 -19.88,112.86 -6.19,188.38 16.52,91.13 101.1,112.68 69.6,229.71 -10.38,38.55 -38.2,123.52 -36.95,157.81 1.32,36.04 -31.38,76.19 -41.34,102.1 -12.96,33.71 -39.19,60.67 -58.79,91.01"/>
   <path class="fil2 str2" d="M15767.25 1710.57c-47.9,72 -39.07,74.72 -118.92,90.95 -35.11,7.13 -43.31,69.13 -115.89,67.8 -21.61,-0.39 -124.69,33.57 -141.69,46.87 -54.72,42.82 -20.8,64.07 -28.22,141.51 -3.18,33.23 2.96,87.75 -1.65,127.04 -12.04,102.4 -5.38,138.13 58.16,220.79 18.98,24.7 147.5,91.33 189.89,130.21 30.91,28.34 81.05,64.12 103.75,97.57 85.93,126.61 72.05,195.72 187.3,324.53 37.5,41.91 118.49,40.3 184.49,100.31 37.17,33.79 94.81,64.02 138.34,93.98 74.52,51.27 186.15,111.92 272,54.05 41.31,-27.84 83.59,-70.8 136.22,-68.37 90.42,4.18 147.84,-90.41 333.04,-55.93 85.35,15.89 12.8,82.35 256.32,72.33 5.67,-0.23 11.88,-4.17 16.96,-1.66 81.34,40.23 38.3,19.39 109.14,28.11 40.28,4.95 20.61,47.05 146.09,39.83 59.79,-3.43 80.75,-8.51 123.45,36.24 10.03,10.5 41.18,29.29 49.89,48.38 8.36,18.35 81.3,43.61 103.76,69.03 28.37,32.09 31.05,38.47 54.71,72.34 20.92,29.97 97.92,36.54 144.81,93.69 31.83,38.8 113.12,39.7 163.05,70.44 52.26,32.16 74.79,28.2 90.1,103.1 21.34,104.39 31.9,112.06 101.72,196.21 1.44,1.74 3,3.44 4.68,4.96 29.39,26.67 59.01,53.11 88.52,79.66"/>
   <path class="fil2 str2" d="M18132.25 3610.61c-31.73,-113.81 -66.22,-215.64 -47.01,-336.11 10.86,-68.15 61.18,-246.16 119.49,-278.62 60.69,-33.8 180.7,-25.45 249.13,-19.84 176.63,14.49 130.19,-30.45 266.43,-76.5 31.2,-10.55 125.71,-36.95 150.86,-44.64 86.32,-26.41 90.13,-14.75 168.67,-27.69 148.15,-24.41 135.59,-68.48 235.67,-151.19 39.92,-32.98 43.3,-44.96 94.69,-74.84 60.71,-35.29 85.5,-76.97 76.44,-146.04 -5.73,-43.67 -69.45,-57.85 -69.45,-96.62 0,-70.88 26.34,-29.71 -17.11,-97.71 -43.38,-67.9 63.96,-66.59 61.75,-144.53 -0.35,-12.57 45.68,-138.52 -11.85,-132.58 -55.05,5.68 -46.89,95.64 -117.41,95.64 -55.26,0 -67.97,48.14 -122.94,71.1 -43.48,18.17 -46.11,-17.14 -104.98,4.54 -35.25,12.99 -160.7,44.76 -195.27,33.21 -80.63,-26.96 -74.12,-53.9 -179.69,-52.63 -33.25,0.4 -66.63,-14.88 -118.92,-14.88 -16.43,0 -44.51,0.36 -60.1,3.3 -124.71,23.51 -103.89,-1.75 -209.82,-12.8 -130.73,-13.64 -150.5,64.32 -280.22,-7.32 -32.64,-18.02 -133.09,46.3 -190.41,26.88 -81.26,-27.52 -100.37,-48.02 -189.5,-0.57 -54.53,29.04 -138.05,41.75 -196.51,20.41 -125.05,-45.66 -135.64,62.6 -299.83,-24.66 -33.24,-17.66 -66.96,-1.31 -87.26,4.68 -71.64,21.13 -149.63,40.32 -185.35,-42.33 -17.85,-41.31 -93.9,12.84 -157.38,-88.73 -18.42,-29.47 -93.11,-72.87 -126.63,-81.03 -55.71,-13.57 -83.27,-22.75 -123.45,-64.87 -24.94,-26.13 -54.64,-8.7 -94.68,-20.7 -30.68,-9.19 -58.46,-1.02 -78.15,-6.61"/>
   <path class="fil2 str2" d="M15405.93 1000c69.71,72.98 44.98,9.72 104.84,49.51 55.19,36.67 43.59,19.2 75.55,85.75 27.73,57.72 36.01,54.57 101.81,73.42 56.65,16.22 42.35,18.13 86.14,38.18 37.75,17.28 145.98,-11.59 201.79,4.82 40.4,11.87 87.14,12.66 114.48,60.62 27.92,48.99 -67.3,123.94 9.35,192.63 19.53,17.5 38.91,19.22 58.45,27.87"/>
   <path class="fil2 str2" d="M18526.36 1360.84c24.2,28.92 35.99,44.62 53.35,74.41 36.14,62 20.1,133.05 128.98,98.65 25.53,-8.07 66.28,-19.98 92.32,-11.43 32.08,10.53 118.48,16.84 151.99,9.93 61.21,-12.62 216.44,-26.7 259.48,30.61 53.83,71.69 110.81,23.26 188.23,70.54 34.46,21.05 6.11,38.18 85.2,38.18 98.95,0 123.33,-4.46 202.96,56.79 5.66,4.36 7.16,3.85 11.58,9.35 25.02,31.14 74.39,93.33 89.58,132.58 16.97,43.85 109.24,67.32 151.85,142.73 26.22,46.41 15.16,23.51 32.65,74.42 17.14,49.92 96.48,93.9 131.06,146.93 41.13,63.05 61.44,78.83 94.69,152 12.59,27.73 21.4,54.96 35.95,84.99 8.94,18.43 11.63,73.83 18.19,93.18 19.33,57.02 39.4,138.2 23.78,196.99 -5.08,19.13 -5.22,101.18 3.31,121.8 20.06,48.45 6.03,147.1 -8.27,196.36 -10.45,35.99 15.2,126.97 17.63,172.83 3.92,74.15 23.87,118.88 49.32,185.78 7.69,20.23 -3.58,42.64 -14.46,58.54 -45.6,66.64 -29.32,23.65 -69.59,62.7 -47.6,46.17 38.03,70.2 -11.44,120.71 -17.6,17.96 -40.29,71.95 -29.34,101.15 12.63,33.68 24.73,133.99 20.94,168.82 -8.66,79.62 40.3,76.25 8.83,194.28 -21.52,80.74 48.28,117.61 5.62,163.05 -34.87,37.15 -29.31,101.35 -6.61,144.66 22.74,43.37 14.94,115.36 -43.8,114.54 -62.65,-0.88 -102.99,2.65 -132.58,62.31 -0.94,1.91 -2.06,3.76 -3.3,5.49 -46.18,64.49 -84.11,106.41 -75.93,186.29 6.5,63.51 -87.43,128.78 -6.76,177.93 50.86,30.98 45.61,57.35 43.14,108.01 -1.93,39.56 -7.58,78.16 -6.76,119.91 1.17,60.03 -35.24,106.48 -13.65,192.53 2.92,11.63 -3.86,50.83 -9.5,60.34 -9.37,15.8 -17.47,32.35 -26.2,48.52"/>
   <path class="fil2 str2" d="M19845.36 1000c55.18,72.99 19,39.96 44.78,87.39 19.59,36.06 81.41,44.65 122.23,124.44 43.53,85.1 119.88,25.84 154.22,163.57 16.99,68.14 51.53,110.21 91.9,163.67 50.25,66.52 -15.6,94.63 43.7,181.52 63.59,93.2 45.44,111.95 42.71,220.84 -0.11,4.55 -1.19,9.04 -1.8,13.55 -15.81,116.67 -32.32,102.24 12.15,215.4 9.23,23.48 9.85,126.02 12.8,160.41 5.58,64.85 19.45,87.17 45.08,143.3 18.66,40.84 31.28,74.05 42.42,117.55 10.14,39.56 46.23,65.32 57.88,102.66 13.9,44.59 72.3,59.74 71.11,-12.37 -0.25,-15.57 39.15,-151.49 64.35,-141.98 47.47,17.92 20.55,47.39 10.06,96.29 -29.04,135.27 28.11,111.1 28.11,233.78 0,65.14 14.1,111.38 92.04,99.88 2.46,-0.36 117.02,-61.68 124.59,-67.38 58.99,-44.4 99.12,-68.22 111.88,22.59 15.62,111.23 60.89,22.46 118.4,11.57 57.24,-10.84 153.37,24.42 153.37,-77.81 0,-90.63 -8.51,-206.96 82.25,-258.82 67.01,-38.3 -13.19,-133.47 95.11,-165.37 80.61,-23.75 17.08,-100.42 119.06,-113.96 55.55,-7.38 26.03,40.55 110.23,-26.74 78.5,-62.75 129.37,-0.67 187.43,-27.17 32.34,-14.77 85.07,-50.9 116.98,-67.09 70.27,-35.66 65.41,-42 110.8,-92.74 43.84,-48.99 105.31,-72.64 170.46,-70.97 66.31,1.71 146.74,-119.82 205.72,-162.86 84.34,-61.56 130.79,-234.35 258.4,-222.44 27.66,2.58 36.96,15.55 81.87,10.5 58.65,-6.59 73.82,-16.5 138.06,-17.11 78.5,-0.74 172.44,-7.64 225.18,62.84 36.77,49.12 84.74,41.56 141.93,98.79 59.19,59.23 81.11,14.94 152.32,61.09 55.79,36.15 0.24,112.3 106.07,111.32 117.31,-1.08 28.9,130.85 162.44,58.01 53,-28.9 38.1,-53.88 108.34,-56.22 76.77,-2.56 16.63,-107.91 99.35,-136.02 1.71,-0.58 3.69,-0.47 5.25,-1.37 39.2,-22.48 56.03,-42.16 86.13,-59.54 29.22,-16.88 50.24,1.97 85.61,13.23 34.35,10.93 44.74,41.28 77.11,68.89 37.83,32.25 72.13,98.42 127.1,119.11 77.01,28.98 86.38,34.91 171.17,-1.56 84.7,-36.44 100.26,-165.45 211.62,-207.93 48.89,-18.64 60.62,-110.96 159.03,-152.14 151.48,-63.4 30.08,-162.26 187.43,-266.81 53.69,-35.67 180.12,-44.17 237.14,-11.99 90.58,51.11 51.61,40.93 160.78,37.23 88.67,-3.01 122.92,53.95 175.33,72.9 44.46,16.07 83.49,44.41 125.24,66.61"/>
   <path class="fil2 str2" d="M23917.77 3972.05c-16.63,-15.03 -33.02,-30.35 -49.9,-45.09 -11.55,-10.08 -16.63,-12.38 -26.59,-25.52 -35.91,-47.32 -89.64,-75.68 -147.89,-85.85 -104.83,-18.31 -82.77,-67.24 -241.39,-59.1 -150.83,7.75 -65.71,-76.55 -189.78,-70.82 -48.84,2.25 -126.41,24.14 -166.74,-6.76 -77.97,-59.74 -103.22,44.31 -154.88,4.96 -54.53,-41.52 -14.54,-43.83 -101.29,-79.37 -9.03,-3.7 -18.19,-1.32 -27.69,-2.08 -93.69,-7.5 -78.54,62.06 -157.29,-2.08 -96.84,-78.86 -116.95,-2.74 -170.27,-2.18 -48.09,0.5 -111.92,-103.92 -122.37,-142.07 -23.69,-86.49 -41.88,-57.07 -70.83,-101.43 -56.65,-86.77 -63.7,-121.76 -175.85,-79.24 -48.74,18.47 -89.29,50.03 -128.99,64.21 -117.29,41.88 -105.26,-19.46 -172.97,-19.56 -59.2,-0.08 -97.29,77.6 -200.89,92.03 -123.29,17.17 -106.42,45.93 -184.98,109.19 -131.74,106.09 -55.85,-77.81 -83.43,-106.96 -24.98,-26.42 19.17,-101.15 38.69,-117.27 9.48,-7.84 75.55,-33.27 89.3,-37.75 38.5,-12.56 36.38,-143.38 36.38,-170.75"/>
   <path class="fil2 str2" d="M19119.43 1009.1c35.04,65.46 31.16,37.82 86.13,29.2 50.51,-7.91 121.7,4.76 154.74,45.88 36.68,45.64 130.28,18.68 179.73,84.24 24.12,31.97 100.15,83.75 135.6,103.61 47.49,26.59 142.73,115.22 161.91,166.59 25.17,67.42 26.3,60.73 38.6,135.51 22.62,137.56 32.91,187.79 140.08,284.24 138.66,124.79 146.25,175.97 218.2,338.47 30.92,69.83 29.21,103.44 55.79,173.21 33.99,89.22 45.67,112.09 65.73,201.61 11.2,49.98 -3.12,194.12 9.92,240.48 5.31,18.89 9.03,179.8 10.2,210.82 3.37,89.48 31.07,178.74 88.31,248.28 50.72,61.61 84.67,57.11 156.29,75.83 48.98,12.8 109.84,18.53 102.81,76.35 -10.77,88.54 -42.33,52.76 -67.8,101.3 -56.22,107.17 -86.14,192.53 -0.14,298.46 33.17,40.85 60.53,27.1 52.92,95.77 -7.96,71.73 24.97,75.1 59.67,124.17 36.67,51.84 75.26,111.96 12.14,159.03 -35.99,26.83 -48.24,75.8 -46.87,118.12 1.76,54.16 -132.35,118.82 -71.11,186.29 7.16,7.9 30.5,66.43 36.38,76.07 34.07,55.8 33.3,27.47 83.65,20.8 68.17,-9.02 26.14,12.95 73.85,28.55 47.26,15.46 232.91,-116.1 222.15,-25.66 -0.88,7.38 -56.35,73.11 -69.02,116.04 -11.75,39.85 24.3,31.92 -17.25,88.35 -18.64,25.33 -43.35,81.55 -27.97,112.31 29.16,58.29 -74.64,93.13 -69.59,183.5 2.16,38.6 42.08,35.61 67.37,15.36 73.53,-58.91 129.01,-61.04 210.3,-16.44 63.35,34.77 103.37,-54.79 162.48,-88.16 59.83,-33.77 115.85,-51.37 174.72,-3.88 11.08,8.93 18.68,30.27 48.95,54.57 107.81,86.51 150.27,94.82 154.73,248.33 0.52,17.97 6.64,33.29 5.1,55.94 -5.59,81.87 2.08,88.6 39.55,150.06 20.1,32.99 83.21,33.85 120.29,94.82 34.82,57.27 -36.46,102.9 67.94,176.8 84.31,59.69 49.57,87.14 53.2,182.42 2.84,74.42 22.66,90.36 5.53,170.47 -15.67,73.31 14.83,103.08 33.88,175.43 41.79,158.77 -92.46,128.28 -134.52,215.02 -3.82,7.87 -13.89,23.87 -15.54,30.57 -17.1,69.05 -24.01,41.78 -76.07,67.8 -44.84,22.42 -6.73,71.38 14.88,103.9 22.87,34.43 37.31,26.4 22.07,90.8 -11.36,48.03 16.27,94.21 56.74,117.84 55.32,32.31 77.04,-5.4 140.56,13.23 10.93,3.21 53.84,7.6 65.06,11.57 35.51,12.56 68.97,30.37 103.45,45.55"/>
  </g>
  <g id="_1838988169136">
   <path class="fil3 str3" d="M22376.94 18173.24l815.93 0 0 1592.89 -815.93 0 0 -1592.89z"/>
   <path class="fil4" d="M22725.04 18609.37c-0.92,3.32 -1.63,6.35 -2.07,9.15 -0.44,2.79 -0.65,5.18 -0.65,7.22 0,5.59 1.8,9.56 5.29,11.89 3.49,2.33 9.55,3.49 18.05,3.49l4.15 0 -4.96 22.72 -78.17 0 5.29 -22.72 2.89 0c7.36,0 12.82,-1.51 16.48,-4.54 3.6,-2.97 6.32,-8.39 8.12,-16.14l37.59 -153.79c0.6,-2.74 1.14,-5.54 1.52,-8.45 0.33,-2.91 0.55,-5.77 0.55,-8.62 0,-5.36 -1.96,-9.15 -5.95,-11.36 -3.92,-2.22 -10.69,-3.32 -20.23,-3.32l-3.06 0 5.29 -22.72 72.33 0 62.14 183.5 31.31 -129.03c1.08,-4.2 1.85,-7.63 2.34,-10.31 0.49,-2.68 0.71,-4.72 0.71,-6.06 0,-5.6 -1.8,-9.56 -5.35,-11.89 -3.6,-2.33 -9.71,-3.49 -18.32,-3.49l-4.15 0 4.96 -22.72 78.5 0 -5.62 22.72 -2.84 0c-7.37,0 -12.87,1.51 -16.47,4.54 -3.66,2.97 -6.33,8.33 -8.18,15.96l-50.68 208.44 -21.54 0 -72.06 -209.48 -37.21 155.01z"/>
   <path class="fil2 str4" d="M22785.73 19632.93l0 -769.27"/>
   <path class="fil2 str4" d="M22503.68 19356.88l563.14 0"/>
   <path class="fil2 str4" d="M22640.83 19496.87l294.22 -286.81"/>
   <path class="fil2 str4" d="M22637.69 19209.82l297.98 288.85"/>
   <path class="fil2 str4" d="M22785.59 18866.39l-95.47 118.01"/>
   <path class="fil2 str4" d="M22786.21 18866.35l87.89 118.05"/>
  </g>
  <g id="_1838988229936">
   <path class="fil3 str3" d="M21886.86 19296.68l0 473.7 -2309.37 0 0 -473.7 2309.37 0z"/>
   <path class="fil4" d="M20654.83 19635.15l0 -202.07 40.07 0 47.79 143.04c4.42,13.31 7.62,23.28 9.64,29.91 2.31,-7.33 5.93,-18.15 10.82,-32.4l48.64 -140.55 35.79 0 0 202.07 -25.68 0 0 -169.05 -58.98 169.05 -24.09 0 -58.32 -172.15 0 172.15 -25.68 0z"/>
   <path id="1" class="fil4" d="M20987.28 19587.74l25.68 3.38c-3.99,14.91 -11.47,26.53 -22.39,34.76 -10.91,8.24 -24.83,12.37 -41.81,12.37 -21.36,0 -38.29,-6.58 -50.8,-19.75 -12.51,-13.12 -18.77,-31.61 -18.77,-55.36 0,-24.56 6.31,-43.65 18.96,-57.2 12.65,-13.59 29.07,-20.37 49.25,-20.37 19.52,0 35.46,6.64 47.83,19.95 12.37,13.31 18.58,32.03 18.58,56.16 0,1.46 -0.05,3.67 -0.14,6.58l-109.08 0c0.94,16.04 5.46,28.37 13.64,36.88 8.14,8.51 18.35,12.79 30.53,12.79 9.08,0 16.84,-2.39 23.24,-7.19 6.44,-4.8 11.52,-12.47 15.28,-23zm-81.28 -39.8l81.56 0c-1.08,-12.32 -4.23,-21.54 -9.36,-27.7 -7.85,-9.55 -18.1,-14.35 -30.66,-14.35 -11.39,0 -20.93,3.81 -28.7,11.43 -7.71,7.62 -11.99,17.83 -12.84,30.62z"/>
   <path id="2" class="fil4" d="M21044.05 19635.15l0 -146.47 22.3 0 0 22.43c5.69,-10.39 10.96,-17.26 15.8,-20.55 4.85,-3.34 10.16,-4.99 15.95,-4.99 8.37,0 16.89,2.64 25.54,7.86l-8.84 22.91c-6.02,-3.39 -12.04,-5.08 -18.06,-5.08 -5.41,0 -10.26,1.64 -14.54,4.89 -4.28,3.24 -7.34,7.76 -9.17,13.54 -2.78,8.8 -4.14,18.44 -4.14,28.93l0 76.53 -24.84 0z"/>
   <path id="3" class="fil4" d="M21233.99 19581.53l24.27 3.38c-2.68,16.7 -9.45,29.73 -20.41,39.19 -10.96,9.45 -24.46,14.15 -40.41,14.15 -19.99,0 -36.08,-6.53 -48.21,-19.61 -12.18,-13.08 -18.25,-31.8 -18.25,-56.16 0,-15.81 2.63,-29.59 7.85,-41.44 5.22,-11.81 13.17,-20.7 23.9,-26.58 10.68,-5.92 22.29,-8.89 34.9,-8.89 15.85,0 28.88,4 38.95,12.04 10.11,8.05 16.6,19.48 19.42,34.25l-23.99 3.67c-2.3,-9.83 -6.35,-17.22 -12.23,-22.2 -5.83,-4.94 -12.88,-7.44 -21.16,-7.44 -12.51,0 -22.67,4.47 -30.53,13.41 -7.81,8.98 -11.71,23.09 -11.71,42.47 0,19.66 3.76,33.92 11.29,42.81 7.57,8.89 17.4,13.35 29.49,13.35 9.78,0 17.92,-2.96 24.41,-8.93 6.54,-5.93 10.68,-15.1 12.42,-27.47z"/>
   <path id="4" class="fil4" d="M21375.1 19616.81c-9.22,7.85 -18.11,13.35 -26.62,16.6 -8.52,3.25 -17.64,4.84 -27.43,4.84 -16.08,0 -28.45,-3.9 -37.11,-11.75 -8.65,-7.81 -12.98,-17.83 -12.98,-30.01 0,-7.15 1.65,-13.69 4.89,-19.62 3.29,-5.93 7.57,-10.63 12.84,-14.2 5.32,-3.58 11.24,-6.31 17.88,-8.14 4.89,-1.27 12.27,-2.49 22.1,-3.72 20.04,-2.35 34.86,-5.22 44.31,-8.51 0.1,-3.39 0.14,-5.55 0.14,-6.44 0,-10.07 -2.35,-17.17 -7.05,-21.31 -6.35,-5.6 -15.81,-8.37 -28.32,-8.37 -11.71,0 -20.36,2.07 -25.92,6.16 -5.59,4.09 -9.68,11.33 -12.37,21.78l-24.27 -3.39c2.21,-10.4 5.84,-18.82 10.92,-25.21 5.08,-6.4 12.41,-11.29 22.01,-14.77 9.55,-3.44 20.7,-5.18 33.3,-5.18 12.51,0 22.72,1.46 30.57,4.42 7.81,2.97 13.6,6.64 17.27,11.11 3.67,4.46 6.25,10.11 7.76,16.93 0.8,4.23 1.22,11.85 1.22,22.81l0 32.93c0,23 0.52,37.53 1.55,43.69 0.99,6.17 3.06,12.05 6.07,17.69l-25.96 0c-2.5,-5.22 -4.1,-11.34 -4.8,-18.34zm-1.98 -55.04c-9.03,3.67 -22.57,6.78 -40.64,9.32 -10.25,1.45 -17.49,3.1 -21.73,4.93 -4.23,1.84 -7.48,4.52 -9.78,8 -2.31,3.53 -3.48,7.43 -3.48,11.76 0,6.54 2.49,12.04 7.52,16.42 5.04,4.37 12.38,6.58 22.02,6.58 9.55,0 18.06,-2.07 25.54,-6.25 7.43,-4.14 12.93,-9.84 16.41,-17.03 2.69,-5.6 4,-13.83 4,-24.7l0.14 -9.03z"/>
   <path id="5" class="fil4" d="M21490.29 19613l3.39 21.91c-6.96,1.46 -13.22,2.22 -18.68,2.22 -8.98,0 -15.94,-1.42 -20.93,-4.28 -4.94,-2.87 -8.42,-6.59 -10.44,-11.25 -2.02,-4.65 -3.01,-14.44 -3.01,-29.35l0 -84.38 -18.34 0 0 -19.19 18.34 0 0 -36.22 24.84 -14.91 0 51.13 24.83 0 0 19.19 -24.83 0 0 85.79c0,7.11 0.42,11.67 1.31,13.69 0.85,2.02 2.26,3.62 4.24,4.85 1.97,1.17 4.79,1.78 8.46,1.78 2.73,0 6.35,-0.33 10.82,-0.98z"/>
   <path id="6" class="fil4" d="M21505.48 19561.91c0,-27.04 7.53,-47.08 22.63,-60.11 12.56,-10.82 27.94,-16.23 46.05,-16.23 20.08,0 36.54,6.59 49.34,19.76 12.75,13.12 19.14,31.33 19.14,54.51 0,18.82 -2.82,33.59 -8.46,44.36 -5.65,10.77 -13.88,19.14 -24.7,25.12 -10.77,5.97 -22.58,8.93 -35.32,8.93 -20.51,0 -37.07,-6.53 -49.72,-19.66 -12.65,-13.12 -18.96,-32.03 -18.96,-56.68zm25.4 0.05c0,18.72 4.1,32.74 12.28,42 8.23,9.32 18.53,13.97 31,13.97 12.32,0 22.57,-4.65 30.81,-14.01 8.18,-9.36 12.27,-23.61 12.27,-42.76 0,-18.06 -4.14,-31.75 -12.37,-41.01 -8.23,-9.32 -18.48,-13.97 -30.71,-13.97 -12.47,0 -22.77,4.61 -31,13.87 -8.18,9.27 -12.28,23.24 -12.28,41.91z"/>
   <path id="7" class="fil4" d="M21671.47 19635.15l0 -146.47 22.3 0 0 22.43c5.69,-10.39 10.96,-17.26 15.8,-20.55 4.85,-3.34 10.16,-4.99 15.95,-4.99 8.37,0 16.89,2.64 25.54,7.86l-8.84 22.91c-6.02,-3.39 -12.04,-5.08 -18.06,-5.08 -5.41,0 -10.26,1.64 -14.54,4.89 -4.28,3.24 -7.34,7.76 -9.17,13.54 -2.78,8.8 -4.14,18.44 -4.14,28.93l0 76.53 -24.84 0z"/>
   <circle class="fil5 str5" cx="19795.86" cy="19529.83" r="118.79"/>
   <rect class="fil5 str5" x="20253.79" y="19421.55" width="226.91" height="226.91"/>
   <path class="fil2 str6" d="M19969.76 19528.96l220.31 0"/>
   <path class="fil2 str6" d="M20187.41 19529.62l-64.02 65.38"/>
   <path class="fil2 str6" d="M20187.58 19528.48l-63.42 -61.39"/>
  </g>
  <rect class="fil2 str7" x="999.99" y="1000" width="25340.35" height="19000"/>
  <path class="fil3 str3" d="M23385.32 18176.66l2359.41 0 0 1592.9 -2359.41 0 0 -1592.9z"/>
  <path class="fil6" d="M23974.56 18370.69l57.09 -27.52 5.71 0 0 197.2c0,13.12 0.53,21.35 1.64,24.58 1.12,3.18 3.36,5.71 6.82,7.41 3.47,1.71 10.53,2.7 21.17,2.94l0 6.35 -88.19 0 0 -6.35c11.05,-0.24 18.16,-1.18 21.34,-2.88 3.23,-1.65 5.47,-3.88 6.76,-6.7 1.24,-2.83 1.88,-11.29 1.88,-25.35l0 -126.29c0,-16.99 -0.59,-27.93 -1.7,-32.75 -0.83,-3.7 -2.3,-6.41 -4.41,-8.11 -2.18,-1.71 -4.71,-2.59 -7.71,-2.59 -4.29,0 -10.23,1.76 -17.81,5.35l-2.59 -5.29z"/>
  <path id="1" class="fil6" d="M24785.26 18336.47l0 157.16 39.98 -36.63c8.52,-7.82 13.46,-12.76 14.81,-14.82 0.95,-1.41 1.42,-2.76 1.42,-4.17 0,-2.29 -1,-4.23 -2.89,-5.94 -1.88,-1.65 -4.99,-2.59 -9.4,-2.82l0 -5.65 68.61 0 0 5.65c-9.35,0.23 -17.17,1.7 -23.4,4.35 -6.23,2.7 -13.05,7.47 -20.52,14.29l-40.63 37.22 40.34 51.33c11.29,14.05 18.81,23.04 22.58,26.98 5.58,5.24 10.4,8.65 14.58,10.17 2.94,1.12 7.99,1.71 15.17,1.71l0 6.35 -76.73 0 0 -6.35c4.41,-0.12 7.35,-0.76 8.88,-1.94 1.58,-1.24 2.35,-2.88 2.35,-5.06 0,-2.64 -2.3,-6.88 -6.88,-12.7l-48.27 -61.79 0 52.21c0,10.23 0.7,16.93 2.11,20.17 1.47,3.17 3.47,5.46 6.12,6.88 2.64,1.35 8.35,2.11 17.17,2.23l0 6.35 -80.08 0 0 -6.35c7.99,0 14.05,-1 18.05,-2.94 2.41,-1.23 4.23,-3.17 5.46,-5.76 1.71,-3.76 2.59,-10.29 2.59,-19.52l0 -143.94c0,-18.05 -0.41,-29.1 -1.18,-33.16 -0.82,-4.05 -2.11,-6.82 -3.99,-8.35 -1.83,-1.58 -4.24,-2.35 -7.18,-2.35 -2.41,0 -6.05,1 -10.82,2.94l-2.93 -6.35 46.74 -19.4 7.94 0z"/>
  <path id="2" class="fil6" d="M24962 18452.77c11.41,-11.53 18.17,-18.17 20.22,-19.93 5.12,-4.36 10.65,-7.77 16.59,-10.18 5.93,-2.41 11.81,-3.64 17.63,-3.64 9.88,0 18.29,2.88 25.4,8.64 7.06,5.76 11.82,14.11 14.17,25.11 11.88,-13.88 21.88,-22.93 30.05,-27.28 8.17,-4.3 16.58,-6.47 25.22,-6.47 8.35,0 15.82,2.17 22.35,6.47 6.46,4.29 11.64,11.34 15.4,21.16 2.53,6.65 3.82,17.11 3.82,31.4l0 67.97c0,9.82 0.71,16.58 2.18,20.23 1.12,2.46 3.23,4.64 6.23,6.4 3.06,1.77 8,2.65 14.88,2.65l0 6.35 -77.26 0 0 -6.35 3.29 0c6.7,0 11.99,-1.29 15.76,-3.94 2.64,-1.82 4.52,-4.76 5.64,-8.76 0.47,-1.94 0.71,-7.47 0.71,-16.58l0 -67.91c0,-12.88 -1.53,-21.93 -4.65,-27.22 -4.52,-7.35 -11.7,-11.06 -21.63,-11.06 -6.06,0 -12.23,1.53 -18.41,4.59 -6.11,3 -13.58,8.7 -22.34,16.93l-0.35 1.94 0.7 7.41 0 75.32c0,10.7 0.59,17.4 1.77,20.05 1.23,2.59 3.46,4.82 6.76,6.58 3.29,1.77 8.93,2.65 16.87,2.65l0 6.35 -79.37 0 0 -6.35c8.64,0 14.58,-1 17.81,-3.06 3.24,-2.06 5.47,-5.17 6.7,-9.29 0.59,-1.94 0.89,-7.58 0.89,-16.93l0 -67.91c0,-12.88 -1.88,-22.17 -5.65,-27.87 -5.05,-7.41 -12.05,-11.11 -21.11,-11.11 -6.17,0 -12.28,1.7 -18.34,5.05 -9.47,5.06 -16.82,10.82 -21.93,17.17l0 84.67c0,10.29 0.7,16.93 2.12,20.05 1.41,3.06 3.52,5.35 6.35,6.94 2.76,1.53 8.4,2.29 16.93,2.29l0 6.35 -77.97 0 0 -6.35c7.24,0 12.29,-0.76 15.17,-2.29 2.89,-1.59 5.06,-4 6.59,-7.41 1.47,-3.35 2.23,-9.88 2.23,-19.58l0 -60.33c0,-17.28 -0.53,-28.45 -1.53,-33.51 -0.82,-3.82 -2.05,-6.41 -3.82,-7.82 -1.7,-1.47 -4.05,-2.18 -6.99,-2.18 -3.24,0 -7.06,0.89 -11.53,2.59l-2.58 -6.35 47.62 -19.4 7.41 0 0 33.75z"/>
  <path id="3" class="fil6" d="M24122.73 18466.06c0,-26.64 4,-49.51 12.05,-68.74 8.06,-19.22 18.7,-33.57 32.05,-42.98 10.29,-7.47 20.99,-11.17 31.98,-11.17 17.94,0 33.99,9.11 48.22,27.34 17.81,22.64 26.69,53.27 26.69,91.96 0,27.05 -3.88,50.09 -11.7,69.03 -7.82,18.93 -17.76,32.63 -29.87,41.21 -12.11,8.53 -23.81,12.82 -35.04,12.82 -22.29,0 -40.81,-13.11 -55.62,-39.39 -12.53,-22.17 -18.76,-48.86 -18.76,-80.08zm33.87 4.23c0,32.1 3.94,58.33 11.82,78.67 6.52,17.11 16.28,25.63 29.22,25.63 6.17,0 12.58,-2.76 19.22,-8.34 6.65,-5.59 11.65,-14.88 15.11,-27.99 5.24,-19.7 7.88,-47.57 7.88,-83.43 0,-26.64 -2.76,-48.86 -8.23,-66.62 -4.11,-13.23 -9.46,-22.58 -15.99,-28.05 -4.65,-3.82 -10.35,-5.7 -16.99,-5.7 -7.76,0 -14.7,3.53 -20.76,10.52 -8.23,9.53 -13.87,24.46 -16.81,44.92 -3,20.41 -4.47,40.52 -4.47,60.39z"/>
  <path id="4" class="fil6" d="M24299.12 18466.06c0,-26.64 4,-49.51 12.05,-68.74 8.06,-19.22 18.7,-33.57 32.05,-42.98 10.29,-7.47 20.99,-11.17 31.98,-11.17 17.94,0 33.99,9.11 48.22,27.34 17.81,22.64 26.69,53.27 26.69,91.96 0,27.05 -3.88,50.09 -11.7,69.03 -7.82,18.93 -17.76,32.63 -29.87,41.21 -12.11,8.53 -23.81,12.82 -35.04,12.82 -22.29,0 -40.81,-13.11 -55.62,-39.39 -12.53,-22.17 -18.76,-48.86 -18.76,-80.08zm33.87 4.23c0,32.1 3.94,58.33 11.82,78.67 6.52,17.11 16.28,25.63 29.22,25.63 6.17,0 12.58,-2.76 19.22,-8.34 6.65,-5.59 11.65,-14.88 15.11,-27.99 5.24,-19.7 7.88,-47.57 7.88,-83.43 0,-26.64 -2.76,-48.86 -8.23,-66.62 -4.11,-13.23 -9.46,-22.58 -15.99,-28.05 -4.65,-3.82 -10.35,-5.7 -16.99,-5.7 -7.76,0 -14.7,3.53 -20.76,10.52 -8.23,9.53 -13.87,24.46 -16.81,44.92 -3,20.41 -4.47,40.52 -4.47,60.39z"/>
  <path id="5" class="fil6" d="M24475.51 18466.06c0,-26.64 4,-49.51 12.05,-68.74 8.06,-19.22 18.7,-33.57 32.05,-42.98 10.29,-7.47 20.99,-11.17 31.98,-11.17 17.94,0 33.99,9.11 48.22,27.34 17.81,22.64 26.69,53.27 26.69,91.96 0,27.05 -3.88,50.09 -11.7,69.03 -7.82,18.93 -17.76,32.63 -29.87,41.21 -12.11,8.53 -23.81,12.82 -35.04,12.82 -22.29,0 -40.81,-13.11 -55.62,-39.39 -12.53,-22.17 -18.76,-48.86 -18.76,-80.08zm33.87 4.23c0,32.1 3.94,58.33 11.82,78.67 6.52,17.11 16.28,25.63 29.22,25.63 6.17,0 12.58,-2.76 19.22,-8.34 6.65,-5.59 11.65,-14.88 15.11,-27.99 5.24,-19.7 7.88,-47.57 7.88,-83.43 0,-26.64 -2.76,-48.86 -8.23,-66.62 -4.11,-13.23 -9.46,-22.58 -15.99,-28.05 -4.65,-3.82 -10.35,-5.7 -16.99,-5.7 -7.76,0 -14.7,3.53 -20.76,10.52 -8.23,9.53 -13.87,24.46 -16.81,44.92 -3,20.41 -4.47,40.52 -4.47,60.39z"/>
  <path class="fil6" d="M24027.4 19317.64l-13.47 29.28 -70.55 0 -15.47 31.28c30.81,4.52 55.04,15.81 72.79,33.98 15.23,15.64 22.82,33.99 22.82,55.15 0,12.29 -2.47,23.7 -7.47,34.11 -5,10.46 -11.29,19.4 -18.87,26.75 -7.53,7.35 -16,13.29 -25.29,17.75 -13.17,6.3 -26.69,9.47 -40.57,9.47 -13.99,0 -24.16,-2.35 -30.57,-7.11 -6.35,-4.71 -9.53,-9.94 -9.53,-15.64 0,-3.18 1.3,-6 3.94,-8.47 2.65,-2.47 6,-3.65 10,-3.65 2.94,0 5.58,0.42 7.82,1.36 2.23,0.88 6,3.23 11.4,6.99 8.59,5.94 17.35,8.88 26.17,8.88 13.4,0 25.22,-5.11 35.39,-15.29 10.12,-10.17 15.23,-22.57 15.23,-37.21 0,-14.12 -4.52,-27.34 -13.58,-39.57 -9.11,-12.29 -21.58,-21.76 -37.57,-28.4 -12.46,-5.18 -29.52,-8.18 -51.09,-9l44.8 -90.66 83.67 0z"/>
  <path id="1" class="fil6" d="M24063.38 19435.94c0,-26.64 4,-49.51 12.05,-68.74 8.06,-19.22 18.7,-33.57 32.05,-42.98 10.29,-7.47 20.99,-11.17 31.98,-11.17 17.94,0 33.99,9.11 48.22,27.34 17.81,22.64 26.69,53.27 26.69,91.96 0,27.05 -3.88,50.09 -11.7,69.03 -7.82,18.93 -17.76,32.63 -29.87,41.21 -12.11,8.53 -23.81,12.82 -35.04,12.82 -22.29,0 -40.81,-13.11 -55.62,-39.39 -12.53,-22.17 -18.76,-48.86 -18.76,-80.08zm33.87 4.23c0,32.1 3.94,58.33 11.82,78.67 6.52,17.11 16.28,25.63 29.22,25.63 6.17,0 12.58,-2.76 19.22,-8.34 6.65,-5.59 11.65,-14.88 15.11,-27.99 5.24,-19.7 7.88,-47.57 7.88,-83.43 0,-26.64 -2.76,-48.86 -8.23,-66.62 -4.11,-13.23 -9.46,-22.58 -15.99,-28.05 -4.65,-3.82 -10.35,-5.7 -16.99,-5.7 -7.76,0 -14.7,3.53 -20.76,10.52 -8.23,9.53 -13.87,24.46 -16.81,44.92 -3,20.41 -4.47,40.52 -4.47,60.39z"/>
  <path id="2" class="fil6" d="M24239.77 19435.94c0,-26.64 4,-49.51 12.05,-68.74 8.06,-19.22 18.7,-33.57 32.05,-42.98 10.29,-7.47 20.99,-11.17 31.98,-11.17 17.94,0 33.99,9.11 48.22,27.34 17.81,22.64 26.69,53.27 26.69,91.96 0,27.05 -3.88,50.09 -11.7,69.03 -7.82,18.93 -17.76,32.63 -29.87,41.21 -12.11,8.53 -23.81,12.82 -35.04,12.82 -22.29,0 -40.81,-13.11 -55.62,-39.39 -12.53,-22.17 -18.76,-48.86 -18.76,-80.08zm33.87 4.23c0,32.1 3.94,58.33 11.82,78.67 6.52,17.11 16.28,25.63 29.22,25.63 6.17,0 12.58,-2.76 19.22,-8.34 6.65,-5.59 11.65,-14.88 15.11,-27.99 5.24,-19.7 7.88,-47.57 7.88,-83.43 0,-26.64 -2.76,-48.86 -8.23,-66.62 -4.11,-13.23 -9.46,-22.58 -15.99,-28.05 -4.65,-3.82 -10.35,-5.7 -16.99,-5.7 -7.76,0 -14.7,3.53 -20.76,10.52 -8.23,9.53 -13.87,24.46 -16.81,44.92 -3,20.41 -4.47,40.52 -4.47,60.39z"/>
  <path id="3" class="fil6" d="M24549.87 19422.65c11.41,-11.53 18.17,-18.17 20.22,-19.93 5.12,-4.36 10.65,-7.77 16.59,-10.18 5.93,-2.41 11.81,-3.64 17.63,-3.64 9.88,0 18.29,2.88 25.4,8.64 7.06,5.76 11.82,14.11 14.17,25.11 11.88,-13.88 21.88,-22.93 30.05,-27.28 8.17,-4.3 16.58,-6.47 25.22,-6.47 8.35,0 15.82,2.17 22.35,6.47 6.46,4.29 11.64,11.34 15.4,21.16 2.53,6.65 3.82,17.11 3.82,31.4l0 67.97c0,9.82 0.71,16.58 2.18,20.23 1.12,2.46 3.23,4.64 6.23,6.4 3.06,1.77 8,2.65 14.88,2.65l0 6.35 -77.26 0 0 -6.35 3.29 0c6.7,0 11.99,-1.29 15.76,-3.94 2.64,-1.82 4.52,-4.76 5.64,-8.76 0.47,-1.94 0.71,-7.47 0.71,-16.58l0 -67.91c0,-12.88 -1.53,-21.93 -4.65,-27.22 -4.52,-7.35 -11.7,-11.06 -21.63,-11.06 -6.06,0 -12.23,1.53 -18.41,4.59 -6.11,3 -13.58,8.7 -22.34,16.93l-0.35 1.94 0.7 7.41 0 75.32c0,10.7 0.59,17.4 1.77,20.05 1.23,2.59 3.46,4.82 6.76,6.58 3.29,1.77 8.93,2.65 16.87,2.65l0 6.35 -79.37 0 0 -6.35c8.64,0 14.58,-1 17.81,-3.06 3.24,-2.06 5.47,-5.17 6.7,-9.29 0.59,-1.94 0.89,-7.58 0.89,-16.93l0 -67.91c0,-12.88 -1.88,-22.17 -5.65,-27.87 -5.05,-7.41 -12.05,-11.11 -21.11,-11.11 -6.17,0 -12.28,1.7 -18.34,5.05 -9.47,5.06 -16.82,10.82 -21.93,17.17l0 84.67c0,10.29 0.7,16.93 2.12,20.05 1.41,3.06 3.52,5.35 6.35,6.94 2.76,1.53 8.4,2.29 16.93,2.29l0 6.35 -77.97 0 0 -6.35c7.24,0 12.29,-0.76 15.17,-2.29 2.89,-1.59 5.06,-4 6.59,-7.41 1.47,-3.35 2.23,-9.88 2.23,-19.58l0 -60.33c0,-17.28 -0.53,-28.45 -1.53,-33.51 -0.82,-3.82 -2.05,-6.41 -3.82,-7.82 -1.7,-1.47 -4.05,-2.18 -6.99,-2.18 -3.24,0 -7.06,0.89 -11.53,2.59l-2.58 -6.35 47.62 -19.4 7.41 0 0 33.75z"/>
  <path id="4" class="fil6" d="M24817.51 19306.35c4.76,0 8.88,1.7 12.29,5.05 3.35,3.41 5.05,7.53 5.05,12.29 0,4.82 -1.7,9 -5.05,12.41 -3.41,3.47 -7.53,5.17 -12.29,5.17 -4.82,0 -9,-1.7 -12.41,-5.17 -3.47,-3.41 -5.17,-7.59 -5.17,-12.41 0,-4.76 1.7,-8.88 5.05,-12.29 3.41,-3.35 7.59,-5.05 12.53,-5.05zm14.17 82.55l0 127c0,9.82 0.7,16.34 2.17,19.58 1.41,3.29 3.53,5.7 6.35,7.29 2.82,1.59 8,2.41 15.47,2.41l0 6.35 -76.56 0 0 -6.35c7.65,0 12.82,-0.76 15.41,-2.23 2.64,-1.47 4.7,-3.94 6.29,-7.35 1.53,-3.41 2.29,-10 2.29,-19.7l0 -61.03c0,-16.99 -0.53,-27.99 -1.53,-33.05 -0.82,-3.64 -2.05,-6.17 -3.82,-7.58 -1.7,-1.47 -4.06,-2.18 -7,-2.18 -3.23,0 -7.11,0.89 -11.7,2.59l-2.41 -6.35 47.45 -19.4 7.59 0z"/>
  <path class="fil6" d="M25923.46 19676.66c0,-17.45 4.47,-34.48 13.46,-51.13 8.93,-16.61 21.77,-29.59 38.43,-38.86 16.69,-9.26 34.1,-13.92 52.16,-13.92 17.92,0 35.18,4.56 51.69,13.74 16.56,9.12 29.4,21.92 38.53,38.43 9.17,16.51 13.73,33.77 13.73,51.74 0,18.01 -4.56,35.27 -13.73,51.78 -9.13,16.51 -21.97,29.35 -38.53,38.53 -16.51,9.17 -33.77,13.78 -51.69,13.78 -18.06,0 -35.47,-4.66 -52.16,-13.97 -16.66,-9.36 -29.5,-22.34 -38.43,-38.95 -8.99,-16.65 -13.46,-33.68 -13.46,-51.17zm17.22 0c0,14.62 3.76,28.88 11.24,42.7 7.48,13.83 18.2,24.65 32.13,32.46 13.92,7.81 28.41,11.71 43.46,11.71 15,0 29.35,-3.85 43.08,-11.52 13.74,-7.67 24.46,-18.39 32.13,-32.17 7.67,-13.79 11.52,-28.18 11.52,-43.18 0,-14.96 -3.85,-29.36 -11.52,-43.14 -7.67,-13.78 -18.39,-24.5 -32.13,-32.12 -13.73,-7.62 -28.08,-11.43 -43.08,-11.43 -15.05,0 -29.54,3.9 -43.46,11.66 -13.93,7.76 -24.65,18.58 -32.13,32.46 -7.48,13.87 -11.24,28.08 -11.24,42.57zm103.57 -33.35l5.08 -16.94c11.53,2.78 20.7,8.61 27.52,17.55 6.87,8.98 10.3,19.85 10.3,32.59 0,16.19 -5.22,29.31 -15.71,39.42 -10.49,10.11 -24.98,15.15 -43.55,15.15 -12.14,0 -22.68,-2.31 -31.61,-6.92 -8.99,-4.56 -15.71,-11.15 -20.28,-19.61 -4.56,-8.52 -6.82,-18.25 -6.82,-29.16 0,-12.23 2.92,-22.39 8.8,-30.48 5.88,-8.09 13.88,-13.6 23.94,-16.56l4.23 16.37c-6.91,2.77 -12.23,6.82 -15.89,12.23 -3.72,5.41 -5.55,11.71 -5.55,19 0,10.58 3.76,19.33 11.28,26.2 7.53,6.87 18.35,10.3 32.37,10.3 14.06,0 24.69,-3.24 31.89,-9.74 7.19,-6.49 10.81,-14.86 10.81,-25.16 0,-8.28 -2.39,-15.57 -7.24,-21.83 -4.8,-6.25 -11.33,-10.39 -19.57,-12.41z"/>
  <path id="1" class="fil6" d="M26128.92 19381.5l-18.58 0c14.44,9.27 21.68,22.91 21.68,40.92 0,11.67 -3.19,22.39 -9.64,32.13 -6.4,9.78 -15.38,17.35 -26.86,22.76 -11.52,5.37 -24.74,8.05 -39.69,8.05 -14.59,0 -27.8,-2.45 -39.7,-7.29 -11.86,-4.9 -20.98,-12.19 -27.29,-21.92 -6.35,-9.69 -9.5,-20.61 -9.5,-32.6 0,-8.84 1.88,-16.7 5.6,-23.56 3.72,-6.87 8.61,-12.47 14.58,-16.8l-72.67 0 0 -24.83 202.07 0 0 23.14zm-73.05 78.46c18.72,0 32.69,-3.95 41.96,-11.9 9.26,-7.91 13.87,-17.27 13.87,-28.04 0,-10.86 -4.42,-20.08 -13.26,-27.7 -8.84,-7.57 -22.34,-11.38 -40.5,-11.38 -19.94,0 -34.62,3.85 -43.98,11.61 -9.36,7.72 -14.01,17.27 -14.01,28.6 0,11.06 4.46,20.27 13.45,27.71 8.98,7.38 23.14,11.1 42.47,11.1z"/>
  <path id="2" class="fil6" d="M26068.24 19328.96l-24.83 0 0 -76.76 24.83 0 0 76.76z"/>
  <path id="3" class="fil6" d="M26128.92 19225.1l-146.47 0 0 -22.29 20.69 0c-7.15,-4.56 -12.93,-10.68 -17.26,-18.3 -4.37,-7.62 -6.54,-16.27 -6.54,-26.01 0,-10.82 2.26,-19.71 6.73,-26.62 4.52,-6.92 10.77,-11.81 18.86,-14.63 -17.07,-11.67 -25.59,-26.77 -25.59,-45.39 0,-14.58 4,-25.83 12.04,-33.63 8.05,-7.86 20.42,-11.81 37.12,-11.81l100.42 0 0 24.84 -92.19 0c-9.88,0 -17.03,0.84 -21.4,2.44 -4.38,1.6 -7.86,4.52 -10.54,8.8 -2.68,4.23 -4,9.22 -4,14.91 0,10.35 3.44,18.91 10.26,25.73 6.86,6.82 17.82,10.2 32.87,10.2l85 0 0 24.84 -95.06 0c-11.01,0 -19.29,2.02 -24.79,6.07 -5.5,4.04 -8.28,10.67 -8.28,19.85 0,6.96 1.84,13.4 5.51,19.33 3.66,5.93 9.03,10.21 16.13,12.89 7.05,2.63 17.26,3.95 30.57,3.95l75.92 0 0 24.83z"/>
  <path id="4" class="fil6" d="M26110.58 18894.34c7.85,9.22 13.35,18.11 16.6,26.62 3.25,8.52 4.84,17.64 4.84,27.43 0,16.08 -3.9,28.45 -11.75,37.11 -7.81,8.65 -17.83,12.98 -30.01,12.98 -7.15,0 -13.69,-1.65 -19.62,-4.89 -5.93,-3.29 -10.63,-7.57 -14.2,-12.84 -3.58,-5.32 -6.31,-11.24 -8.14,-17.88 -1.27,-4.89 -2.49,-12.27 -3.72,-22.1 -2.35,-20.04 -5.22,-34.86 -8.51,-44.31 -3.39,-0.1 -5.55,-0.14 -6.44,-0.14 -10.07,0 -17.17,2.35 -21.31,7.05 -5.6,6.35 -8.37,15.81 -8.37,28.32 0,11.71 2.07,20.36 6.16,25.92 4.09,5.59 11.38,9.68 21.78,12.37l-3.39 24.27c-10.4,-2.21 -18.82,-5.84 -25.21,-10.92 -6.4,-5.08 -11.29,-12.41 -14.77,-22.01 -3.44,-9.55 -5.18,-20.7 -5.18,-33.3 0,-12.51 1.46,-22.72 4.42,-30.57 2.97,-7.81 6.64,-13.6 11.11,-17.27 4.46,-3.67 10.11,-6.25 16.93,-7.76 4.23,-0.8 11.85,-1.22 22.81,-1.22l32.93 0c23,0 37.53,-0.52 43.69,-1.55 6.17,-0.99 12.05,-3.06 17.69,-6.07l0 25.96c-5.22,2.5 -11.34,4.1 -18.34,4.8zm-55.04 1.98c3.67,9.03 6.78,22.57 9.32,40.64 1.45,10.25 3.1,17.49 4.93,21.73 1.84,4.23 4.52,7.48 8,9.78 3.53,2.31 7.43,3.48 11.76,3.48 6.54,0 12.04,-2.49 16.42,-7.52 4.37,-5.04 6.58,-12.38 6.58,-22.02 0,-9.55 -2.07,-18.06 -6.25,-25.54 -4.14,-7.43 -9.84,-12.93 -17.03,-16.41 -5.6,-2.69 -13.83,-4 -24.7,-4l-9.03 -0.14z"/>
  <path id="5" class="fil6" d="M26185.08 18833.05l-202.63 0 0 -22.57 19.24 0c-7.44,-5.32 -13.03,-11.34 -16.75,-18.07 -3.72,-6.68 -5.6,-14.81 -5.6,-24.36 0,-12.51 3.2,-23.52 9.65,-33.07 6.39,-9.55 15.47,-16.74 27.14,-21.63 11.71,-4.85 24.5,-7.3 38.47,-7.3 14.91,0 28.37,2.69 40.36,8.05 11.95,5.36 21.12,13.17 27.52,23.42 6.35,10.21 9.54,20.98 9.54,32.27 0,8.28 -1.74,15.71 -5.22,22.25 -3.48,6.58 -7.85,11.94 -13.17,16.18l71.45 0 0 24.83zm-128.5 -22.57c18.77,0 32.69,-3.81 41.67,-11.39 8.99,-7.62 13.45,-16.84 13.45,-27.65 0,-11.01 -4.65,-20.42 -13.97,-28.23 -9.31,-7.85 -23.7,-11.76 -43.22,-11.76 -18.63,0 -32.55,3.81 -41.82,11.48 -9.26,7.67 -13.87,16.79 -13.87,27.42 0,10.54 4.94,19.85 14.77,27.94 9.87,8.14 24.17,12.19 42.99,12.19z"/>
  <path id="6" class="fil6" d="M26085.18 18685.97l-3.96 -24.55c9.84,-1.37 17.36,-5.22 22.63,-11.53 5.22,-6.3 7.85,-15.14 7.85,-26.43 0,-11.43 -2.3,-19.9 -6.96,-25.45 -4.61,-5.5 -10.06,-8.28 -16.32,-8.28 -5.6,0 -10.02,2.5 -13.22,7.44 -2.21,3.48 -4.98,11.94 -8.42,25.4 -4.56,18.15 -8.51,30.71 -11.85,37.77 -3.39,7 -7.99,12.32 -13.92,15.94 -5.88,3.62 -12.42,5.46 -19.57,5.46 -6.54,0 -12.56,-1.51 -18.11,-4.47 -5.55,-3.01 -10.16,-7.06 -13.83,-12.18 -2.82,-3.86 -5.22,-9.13 -7.19,-15.76 -1.98,-6.68 -2.97,-13.78 -2.97,-21.4 0,-11.48 1.65,-21.54 4.99,-30.2 3.29,-8.7 7.81,-15.1 13.45,-19.24 5.69,-4.09 13.27,-6.96 22.77,-8.51l3.38 24.27c-7.62,1.08 -13.59,4.28 -17.87,9.55 -4.28,5.27 -6.4,12.7 -6.4,22.34 0,11.34 1.88,19.47 5.65,24.32 3.76,4.84 8.18,7.29 13.21,7.29 3.2,0 6.12,-0.99 8.71,-3.01 2.63,-2.02 4.84,-5.18 6.58,-9.5 0.94,-2.5 3.06,-9.74 6.35,-21.87 4.66,-17.5 8.52,-29.73 11.48,-36.69 2.96,-6.96 7.34,-12.42 12.98,-16.37 5.69,-4 12.75,-5.98 21.21,-5.98 8.24,0 16,2.4 23.29,7.25 7.29,4.84 12.93,11.8 16.93,20.88 4,9.13 5.97,19.43 5.97,30.91 0,19 -3.95,33.53 -11.8,43.5 -7.9,9.98 -19.57,16.33 -35.04,19.1z"/>
  <path id="7" class="fil6" d="M26128.92 18527.93l-28.22 0 0 -28.22 28.22 0 0 28.22z"/>
  <path id="8" class="fil6" d="M26075.3 18360.9l3.38 -24.27c16.7,2.68 29.73,9.45 39.19,20.41 9.45,10.96 14.15,24.46 14.15,40.41 0,19.99 -6.53,36.08 -19.61,48.21 -13.08,12.18 -31.8,18.25 -56.16,18.25 -15.81,0 -29.59,-2.63 -41.39,-7.85 -11.86,-5.22 -20.75,-13.17 -26.63,-23.9 -5.92,-10.68 -8.89,-22.29 -8.89,-34.9 0,-15.85 4,-28.88 12.04,-38.95 8.05,-10.11 19.48,-16.6 34.25,-19.42l3.67 23.99c-9.83,2.3 -17.22,6.35 -22.2,12.23 -4.94,5.83 -7.44,12.88 -7.44,21.16 0,12.51 4.47,22.67 13.41,30.53 8.98,7.81 23.09,11.71 42.47,11.71 19.66,0 33.92,-3.76 42.81,-11.29 8.89,-7.57 13.35,-17.4 13.35,-29.49 0,-9.78 -2.96,-17.92 -8.93,-24.41 -5.93,-6.54 -15.1,-10.68 -27.47,-12.42z"/>
  <path id="9" class="fil6" d="M26055.68 18324.78c-27.04,0 -47.08,-7.53 -60.11,-22.63 -10.82,-12.56 -16.23,-27.94 -16.23,-46.05 0,-20.08 6.59,-36.54 19.76,-49.34 13.12,-12.75 31.33,-19.14 54.51,-19.14 18.82,0 33.59,2.82 44.36,8.46 10.77,5.65 19.14,13.88 25.12,24.7 5.97,10.77 8.93,22.58 8.93,35.32 0,20.51 -6.53,37.07 -19.66,49.72 -13.12,12.65 -32.03,18.96 -56.68,18.96zm0.05 -25.4c18.72,0 32.74,-4.1 42,-12.28 9.32,-8.23 13.97,-18.53 13.97,-31 0,-12.32 -4.65,-22.57 -14.01,-30.81 -9.36,-8.18 -23.61,-12.27 -42.76,-12.27 -18.06,0 -31.75,4.14 -41.01,12.37 -9.32,8.23 -13.97,18.48 -13.97,30.71 0,12.47 4.61,22.77 13.87,31 9.27,8.18 23.24,12.28 41.91,12.28z"/>
  <path id="10" class="fil6" d="M26128.92 18158.5l-146.47 0 0 -22.29 20.69 0c-7.15,-4.56 -12.93,-10.68 -17.26,-18.3 -4.37,-7.62 -6.54,-16.27 -6.54,-26.01 0,-10.82 2.26,-19.71 6.73,-26.62 4.52,-6.92 10.77,-11.81 18.86,-14.63 -17.07,-11.67 -25.59,-26.77 -25.59,-45.39 0,-14.58 4,-25.83 12.04,-33.63 8.05,-7.86 20.42,-11.81 37.12,-11.81l100.42 0 0 24.84 -92.19 0c-9.88,0 -17.03,0.84 -21.4,2.44 -4.38,1.6 -7.86,4.52 -10.54,8.8 -2.68,4.23 -4,9.22 -4,14.91 0,10.35 3.44,18.91 10.26,25.73 6.86,6.82 17.82,10.2 32.87,10.2l85 0 0 24.84 -95.06 0c-11.01,0 -19.29,2.02 -24.79,6.07 -5.5,4.04 -8.28,10.67 -8.28,19.85 0,6.96 1.84,13.4 5.51,19.33 3.66,5.93 9.03,10.21 16.13,12.89 7.05,2.63 17.26,3.95 30.57,3.95l75.92 0 0 24.83z"/>
  <g id="_1838988211728">
   <path class="fil7 str8" d="M23526.07 18778.42l524.97 0 0 99.16 -524.97 0 0 -99.16z"/>
   <path class="fil8 str8" d="M24051.04 18778.42l524.97 0 0 99.16 -524.97 0 0 -99.16z"/>
   <path class="fil7 str8" d="M24576.01 18778.42l524.97 0 0 99.16 -524.97 0 0 -99.16z"/>
   <path class="fil8 str8" d="M25101.1 18778.42l524.97 0 0 99.16 -524.97 0 0 -99.16z"/>
   <path class="fil7 str8" d="M24367.54 19077.36l839.64 0 0 99.16 -839.64 0 0 -99.16z"/>
   <path class="fil8 str8" d="M23527.91 19077.36l839.64 0 0 99.16 -839.64 0 0 -99.16z"/>
  </g>
 </g>
</svg>
