<?xml version="1.0" encoding="UTF-8"?>
<!DOCTYPE svg PUBLIC "-//W3C//DTD SVG 1.1//EN" "http://www.w3.org/Graphics/SVG/1.1/DTD/svg11.dtd">
<!-- Creator: CorelDRAW -->
<svg xmlns="http://www.w3.org/2000/svg" xml:space="preserve" width="297mm" height="210mm" version="1.1" style="shape-rendering:geometricPrecision; text-rendering:geometricPrecision; image-rendering:optimizeQuality; fill-rule:evenodd; clip-rule:evenodd"
viewBox="0 0 29700 21000"
 xmlns:xlink="http://www.w3.org/1999/xlink">
 <defs>
  <style type="text/css">
   <![CDATA[
    .str1 {stroke:black;stroke-width:10;stroke-opacity:0.501961}
    .str3 {stroke:black;stroke-width:50}
    .str5 {stroke:#434242;stroke-width:10}
    .str2 {stroke:black;stroke-width:10}
    .str0 {stroke:#000066;stroke-width:10}
    .str6 {stroke:#2B2A29;stroke-width:7.62}
    .str4 {stroke:black;stroke-width:7.62}
    .fil7 {fill:none}
    .fil9 {fill:#D9DADA}
    .fil0 {fill:#A2D9F7}
    .fil1 {fill:white}
    .fil5 {fill:#FEFEFE;fill-rule:nonzero}
    .fil4 {fill:#D9DADA;fill-rule:nonzero}
    .fil8 {fill:#434242;fill-rule:nonzero}
    .fil6 {fill:#2B2A29;fill-rule:nonzero}
    .fil3 {fill:black;fill-rule:nonzero}
    .fil2 {fill:#FEFEFE;fill-rule:nonzero;fill-opacity:0.501961}
   ]]>
  </style>
 </defs>
 <g id="Plan_x0020_1">
  <metadata id="CorelCorpID_0Corel-Layer"/>
  <rect class="fil0" x="1005" y="1003" width="26146" height="18955"/>
  <path class="fil1 str0" d="M1005 1003l26146 0 0 18955 -26146 0 0 -11023 25 38c2,31 41,85 54,117 14,36 35,79 55,112 56,92 72,50 152,90 33,17 64,80 83,113 36,64 99,105 134,167 57,119 241,282 244,410 4,161 50,212 155,327 41,38 106,49 106,111 0,45 -20,103 20,137 65,56 201,58 280,48 67,-9 99,-22 137,46 10,18 56,31 74,44 50,33 118,123 118,186 -39,0 -67,-44 -109,-52 -87,-18 -115,16 -190,16 -37,0 -47,-51 -85,-6 -43,51 -84,91 -152,103 -49,10 -106,53 -126,97 -23,52 -41,57 -14,113 18,38 5,34 -17,60 -28,33 12,60 12,96 0,52 -54,56 -27,116 41,92 -80,58 -82,129 -4,76 18,205 -6,273 -24,69 -76,86 -62,176 9,61 17,61 -48,49 -79,-15 -36,-98 -88,-98 -68,0 -90,159 -84,208 7,62 -9,52 -48,52 -6,26 8,68 10,96 0,66 12,130 14,196l7 182c3,89 -11,198 19,281 -4,67 4,172 11,242 7,71 34,150 77,206 85,111 215,140 331,203l300 21c111,8 175,59 234,144 95,138 240,245 373,341 26,78 256,180 331,197l277 63c61,14 108,31 172,35 195,78 391,-14 578,-60 159,-38 256,-132 426,-146 86,8 140,12 223,-16 46,-16 108,-33 157,-27 108,14 205,119 325,70 75,-31 33,-96 10,-149 -28,-66 -17,-161 -45,-230 -37,-94 -24,-190 -52,-282 -22,-117 -64,-232 -74,-353 -10,-110 50,-223 62,-331 3,-54 13,-125 -6,-176 -19,-52 -38,-99 -31,-157 10,-82 60,-151 84,-228 24,-24 44,-160 1,-179 -54,-24 -112,-30 -157,-76 -97,-98 -161,-349 -344,-279 -30,11 -71,67 -84,22 -13,-45 -43,-49 -25,-106 9,-27 81,-213 100,-215 24,-2 25,39 25,54 0,41 -7,67 42,64 45,-2 72,-18 111,-34l78 -32c21,-9 -40,-24 -44,-55 -2,-15 -51,-31 -66,-41 -99,-69 46,-175 85,-231 37,-54 -36,-37 -79,-48 -80,-19 -110,35 -189,35 -43,0 -190,-50 -211,-21 -41,56 56,159 56,216 -69,-69 -161,-222 -184,-318 0,-74 -25,-140 -25,-211 0,-63 -4,-163 18,-220 17,-46 58,-76 75,-124 9,-25 0,-55 10,-77 8,-19 7,-47 13,-68 5,-18 12,-31 16,-49 5,-26 11,-57 20,-82 11,-34 -16,-110 -37,-138 -13,-18 -13,-55 -13,-77 11,0 29,34 32,45 36,61 74,123 88,193 13,66 -34,198 42,198 52,0 116,-15 164,-34 56,-22 174,14 200,-8 19,-16 39,-101 41,-101 1,2 4,2 5,5 11,3 23,78 28,91 14,37 28,70 48,104 41,68 206,-37 266,-52 61,0 120,39 173,25 30,-7 130,-1 144,-20 9,-12 14,-53 -4,-57 -25,-5 -95,2 -104,-27 -7,-23 0,-90 6,-113 23,8 19,72 57,88 41,17 71,-10 111,0 68,17 103,-107 110,-160 9,-66 33,-71 -3,-131 -34,-57 -114,-141 -170,-174 -54,-36 -92,-54 -155,-74 -56,-17 -110,-83 -149,-124 -106,-111 -39,-201 -74,-325 -9,-32 -29,-38 -43,-65 -53,-75 -1,-186 -34,-226 -24,-29 -199,-56 -237,-51 -81,10 -179,64 -252,62 -36,-1 -76,-12 -111,5 -43,22 -71,66 -96,105 -48,76 -177,234 -159,323 10,53 78,-28 101,-22 0,46 -8,81 -21,125 -13,31 -14,94 -14,129l0 97c0,47 7,93 7,141 -16,-21 -13,-56 -27,-77 -15,-22 -30,-70 -41,-98 -6,-44 -48,-98 -82,-124 -53,-40 -80,-69 -55,-133 13,-33 11,-69 -23,-85 -36,-7 -84,-53 -74,-91 11,-44 30,-62 33,-114 5,-86 -84,-165 -42,-250 25,-49 70,-89 90,-143 14,-38 23,-72 50,-104 40,-30 53,-124 72,-170 28,-67 34,-80 15,-150 -9,-35 -64,-34 -87,-54 -13,-12 -16,-29 -30,-42 -16,-14 -55,-18 -75,-21 -82,-9 -134,84 -171,7 -22,-46 -62,-63 -112,-57 -50,6 -85,31 -129,53 -43,22 -56,-84 -67,-103 -14,-16 -18,-52 -30,-72 -12,-21 -37,-27 -51,-45 -31,-39 -49,-65 -65,-113 -10,-30 7,-31 -31,-26 -37,4 -87,12 -122,23 -42,14 -101,13 -143,3l7 -45c3,-17 7,-32 8,-50 2,-49 0,-104 10,-152 7,-33 4,-102 20,-126 -25,-74 -68,-86 -114,-140 -43,-51 -77,-121 -109,-180 -19,-36 -5,-80 -20,-119 -22,-55 -77,-60 -95,-105 -11,-27 -15,-61 -13,-91 0,-280 -516,-62 -457,-419 20,-120 29,-108 137,-108l328 -1c69,0 95,84 149,119 92,59 112,38 171,-26 40,-44 142,26 196,13 0,-111 -232,-31 -237,-195 0,-69 -126,-105 -167,-139 -16,-13 -21,-128 -9,-135 33,-20 71,1 101,-43 47,-66 111,21 111,-43 0,-36 -7,-72 -7,-108 0,-71 72,-197 152,-186 68,10 117,-12 172,-46 101,-34 189,26 305,0 104,-23 278,-42 375,-1 82,34 172,64 261,77 88,13 188,-14 258,-66l-113 -31c-39,-11 -92,-28 -125,-50 -54,-37 -242,-102 -105,-129 92,-18 -14,-92 -16,-129 -2,-41 91,-147 115,-191 88,-152 168,-371 133,-546 -9,-43 -58,-46 -41,-84 9,-21 12,-36 -15,-43 -58,-16 -26,-30 -26,-73 25,-31 70,-13 87,-65 6,-20 51,-65 47,-76 -8,-23 -26,-42 -46,-56 -28,-20 -38,-69 -47,-100 -22,-70 -5,-76 -80,-90 -31,-5 -35,-29 -53,-50 -26,-31 -63,-6 -95,-1 -57,8 -92,9 -148,-7 -38,-19 -48,-64 -94,-60 -43,4 -65,90 -107,118 -22,14 -61,28 -75,49 -35,52 -11,64 -84,21 -33,-19 -73,-106 -85,-110 -25,-9 -41,55 -74,41 -43,-18 -19,-50 -79,-50 -56,0 -72,-20 -83,-73 -16,-78 -1,-40 -61,2 -36,25 -57,-73 -119,-77 -48,-3 -95,-32 -143,-32 -58,0 -99,13 -152,38 -32,16 -61,51 -99,51 -43,0 -76,32 -98,68 -39,64 -68,28 -126,28 -63,37 -62,80 -132,54 -27,-10 -96,80 -114,101 -13,16 -50,86 -63,46 -6,-17 -25,15 -32,21l-183 152c-54,45 -155,67 -224,50 -109,38 -160,-48 -253,74 -58,76 -143,46 -162,157 -11,61 -6,88 -33,145 -19,42 -158,113 -202,92 -56,-27 -34,-8 -73,35 0,67 56,49 32,122 -14,43 37,63 17,120 -8,24 -31,-12 -37,-20 -24,-26 -34,-50 -69,-64 -95,-40 -226,188 -311,231l0 -4322zm9446 3709c-13,-41 -14,-88 -36,-121 -38,0 -84,124 -146,96 -42,-18 -100,-147 -146,-117 -99,66 -248,76 -248,-85 0,-82 137,-238 224,-194 66,33 27,125 48,175 29,69 35,-46 66,-71 16,-13 171,54 195,-59 16,-78 -137,-78 -110,-160 13,0 141,66 145,78 29,96 -17,183 87,254 75,51 155,47 237,19 115,-39 32,183 -7,223 -75,75 -266,169 -302,-1l-7 -38zm-738 113c33,67 -78,150 0,174 41,13 161,-77 161,-6 0,56 3,103 -60,116 -39,8 -134,7 -120,65 22,94 -69,167 -59,256 20,171 226,5 247,139 0,88 -45,247 -9,325 6,99 36,220 9,319l-5 387c-1,110 28,199 -57,284 -130,130 -252,-81 -348,-120 -2,-8 -17,-21 -23,-27 -9,-8 -16,-21 -21,-32 -13,-28 -51,-43 -66,-72 -11,-22 -24,-42 -46,-55 -46,-111 -61,-169 -15,-282 38,-94 101,-182 153,-269 31,-105 -6,-246 -49,-341 -21,-45 1,-73 9,-118 5,-25 0,-44 3,-67 -12,-27 -15,-34 -37,-53 -14,-12 -36,-15 -50,-29 -32,-32 -46,-62 -72,-96 -17,-22 -16,-53 -24,-77 -10,-29 -111,18 -123,30 -25,25 -12,62 -26,90 -27,116 -85,138 -156,221 -52,62 -79,152 -56,230 12,42 37,105 26,147 -25,66 -75,91 -80,171 -4,63 53,22 88,22 0,2 -1,1 1,2l-8 155c-3,63 -46,16 -66,58 -52,108 -34,208 -115,316 -35,47 -112,65 -142,-1 -32,-72 11,-113 27,-176 7,-28 -31,-78 -41,-105 -16,-44 -24,-89 -24,-136 0,-71 64,-256 112,-307 41,-102 18,-191 102,-280 42,-45 27,-94 51,-143 34,-69 44,-88 44,-167 22,-109 76,-234 197,-255 58,-10 112,-31 168,-41 42,-7 113,-69 150,-53 0,56 -86,131 -89,205 -2,45 24,98 46,136 35,61 62,-5 91,-21 41,-22 109,-10 151,-29 92,-41 25,-64 44,-129 -2,-42 18,-69 34,-105 20,-47 19,-79 19,-130 0,-49 -53,-75 -74,-122 -19,-42 -61,-83 -61,-131 19,-11 33,-8 56,-7 21,1 81,-5 97,8 21,17 27,56 32,80l7 43z"/>
  <polygon class="fil2 str1" points="1601,18135 3995,18135 3995,19728 1601,19728 "/>
  <path class="fil3" d="M1218 19629c0,-17 4,-34 13,-51 9,-17 22,-30 38,-39 17,-9 34,-14 52,-14 18,0 35,5 52,14 17,9 29,22 39,38 9,17 14,34 14,52 0,18 -5,35 -14,52 -9,17 -22,29 -39,39 -17,9 -34,14 -52,14 -18,0 -35,-5 -52,-14 -17,-9 -30,-22 -38,-39 -9,-17 -13,-34 -13,-51zm17 0c0,15 4,29 11,43 7,14 18,25 32,32 14,8 28,12 43,12 15,0 29,-4 43,-12 14,-8 24,-18 32,-32 8,-14 12,-28 12,-43 0,-15 -4,-29 -12,-43 -8,-14 -18,-25 -32,-32 -14,-8 -28,-11 -43,-11 -15,0 -30,4 -43,12 -14,8 -25,19 -32,32 -7,14 -11,28 -11,43zm104 -33l5 -17c12,3 21,9 28,18 7,9 10,20 10,33 0,16 -5,29 -16,39 -10,10 -25,15 -44,15 -12,0 -23,-2 -32,-7 -9,-5 -16,-11 -20,-20 -5,-9 -7,-18 -7,-29 0,-12 3,-22 9,-30 6,-8 14,-14 24,-17l4 16c-7,3 -12,7 -16,12 -4,5 -6,12 -6,19 0,11 4,19 11,26 8,7 18,10 32,10 14,0 25,-3 32,-10 7,-6 11,-15 11,-25 0,-8 -2,-16 -7,-22 -5,-6 -11,-10 -20,-12z"/>
  <path id="1" class="fil3" d="M1424 19333l-19 0c14,9 22,23 22,41 0,12 -3,22 -10,32 -6,10 -15,17 -27,23 -12,5 -25,8 -40,8 -15,0 -28,-2 -40,-7 -12,-5 -21,-12 -27,-22 -6,-10 -10,-21 -10,-33 0,-9 2,-17 6,-24 4,-7 9,-12 15,-17l-73 0 0 -25 202 0 0 23zm-73 78c19,0 33,-4 42,-12 9,-8 14,-17 14,-28 0,-11 -4,-20 -13,-28 -9,-8 -22,-11 -41,-11 -20,0 -35,4 -44,12 -9,8 -14,17 -14,29 0,11 4,20 13,28 9,7 23,11 42,11z"/>
  <polygon id="2" class="fil3" points="1363,19281 1338,19281 1338,19204 1363,19204 "/>
  <path id="3" class="fil3" d="M1424 19177l-146 0 0 -22 21 0c-7,-5 -13,-11 -17,-18 -4,-8 -7,-16 -7,-26 0,-11 2,-20 7,-27 5,-7 11,-12 19,-15 -17,-12 -26,-27 -26,-45 0,-15 4,-26 12,-34 8,-8 20,-12 37,-12l100 0 0 25 -92 0c-10,0 -17,1 -21,2 -4,2 -8,5 -11,9 -3,4 -4,9 -4,15 0,10 3,19 10,26 7,7 18,10 33,10l85 0 0 25 -95 0c-11,0 -19,2 -25,6 -6,4 -8,11 -8,20 0,7 2,13 6,19 4,6 9,10 16,13 7,3 17,4 31,4l76 0 0 25z"/>
  <path id="4" class="fil3" d="M1405 18846c8,9 13,18 17,27 3,9 5,18 5,27 0,16 -4,28 -12,37 -8,9 -18,13 -30,13 -7,0 -14,-2 -20,-5 -6,-3 -11,-8 -14,-13 -4,-5 -6,-11 -8,-18 -1,-5 -2,-12 -4,-22 -2,-20 -5,-35 -9,-44 -3,0 -6,0 -6,0 -10,0 -17,2 -21,7 -6,6 -8,16 -8,28 0,12 2,20 6,26 4,6 11,10 22,12l-3 24c-10,-2 -19,-6 -25,-11 -6,-5 -11,-12 -15,-22 -3,-10 -5,-21 -5,-33 0,-13 1,-23 4,-31 3,-8 7,-14 11,-17 4,-4 10,-6 17,-8 4,-1 12,-1 23,-1l33 0c23,0 38,-1 44,-2 6,-1 12,-3 18,-6l0 26c-5,3 -11,4 -18,5zm-55 2c4,9 7,23 9,41 1,10 3,17 5,22 2,4 5,7 8,10 4,2 7,3 12,3 7,0 12,-2 16,-8 4,-5 7,-12 7,-22 0,-10 -2,-18 -6,-26 -4,-7 -10,-13 -17,-16 -6,-3 -14,-4 -25,-4l-9 0z"/>
  <path id="5" class="fil3" d="M1480 18785l-203 0 0 -23 19 0c-7,-5 -13,-11 -17,-18 -4,-7 -6,-15 -6,-24 0,-13 3,-24 10,-33 6,-10 15,-17 27,-22 12,-5 25,-7 38,-7 15,0 28,3 40,8 12,5 21,13 28,23 6,10 10,21 10,32 0,8 -2,16 -5,22 -3,7 -8,12 -13,16l71 0 0 25zm-129 -23c19,0 33,-4 42,-11 9,-8 13,-17 13,-28 0,-11 -5,-20 -14,-28 -9,-8 -24,-12 -43,-12 -19,0 -33,4 -42,11 -9,8 -14,17 -14,27 0,11 5,20 15,28 10,8 24,12 43,12z"/>
  <path id="6" class="fil3" d="M1380 18638l-4 -25c10,-1 17,-5 23,-12 5,-6 8,-15 8,-26 0,-11 -2,-20 -7,-25 -5,-6 -10,-8 -16,-8 -6,0 -10,3 -13,7 -2,3 -5,12 -8,25 -5,18 -9,31 -12,38 -3,7 -8,12 -14,16 -6,4 -12,5 -20,5 -7,0 -13,-2 -18,-4 -6,-3 -10,-7 -14,-12 -3,-4 -5,-9 -7,-16 -2,-7 -3,-14 -3,-21 0,-11 2,-22 5,-30 3,-9 8,-15 13,-19 6,-4 13,-7 23,-9l3 24c-8,1 -14,4 -18,10 -4,5 -6,13 -6,22 0,11 2,19 6,24 4,5 8,7 13,7 3,0 6,-1 9,-3 3,-2 5,-5 7,-10 1,-3 3,-10 6,-22 5,-18 9,-30 11,-37 3,-7 7,-12 13,-16 6,-4 13,-6 21,-6 8,0 16,2 23,7 7,5 13,12 17,21 4,9 6,19 6,31 0,19 -4,34 -12,44 -8,10 -20,16 -35,19z"/>
  <polygon id="7" class="fil3" points="1424,18480 1396,18480 1396,18452 1424,18452 "/>
  <path id="8" class="fil3" d="M1370 18313l3 -24c17,3 30,9 39,20 9,11 14,24 14,40 0,20 -7,36 -20,48 -13,12 -32,18 -56,18 -16,0 -30,-3 -41,-8 -12,-5 -21,-13 -27,-24 -6,-11 -9,-22 -9,-35 0,-16 4,-29 12,-39 8,-10 19,-17 34,-19l4 24c-10,2 -17,6 -22,12 -5,6 -7,13 -7,21 0,13 4,23 13,31 9,8 23,12 42,12 20,0 34,-4 43,-11 9,-8 13,-17 13,-29 0,-10 -3,-18 -9,-24 -6,-7 -15,-11 -27,-12z"/>
  <path id="9" class="fil3" d="M1350 18277c-27,0 -47,-8 -60,-23 -11,-13 -16,-28 -16,-46 0,-20 7,-37 20,-49 13,-13 31,-19 55,-19 19,0 34,3 44,8 11,6 19,14 25,25 6,11 9,23 9,35 0,21 -7,37 -20,50 -13,13 -32,19 -57,19zm0 -25c19,0 33,-4 42,-12 9,-8 14,-19 14,-31 0,-12 -5,-23 -14,-31 -9,-8 -24,-12 -43,-12 -18,0 -32,4 -41,12 -9,8 -14,18 -14,31 0,12 5,23 14,31 9,8 23,12 42,12z"/>
  <path id="10" class="fil3" d="M1424 18110l-146 0 0 -22 21 0c-7,-5 -13,-11 -17,-18 -4,-8 -7,-16 -7,-26 0,-11 2,-20 7,-27 5,-7 11,-12 19,-15 -17,-12 -26,-27 -26,-45 0,-15 4,-26 12,-34 8,-8 20,-12 37,-12l100 0 0 25 -92 0c-10,0 -17,1 -21,2 -4,2 -8,5 -11,9 -3,4 -4,9 -4,15 0,10 3,19 10,26 7,7 18,10 33,10l85 0 0 25 -95 0c-11,0 -19,2 -25,6 -6,4 -8,11 -8,20 0,7 2,13 6,19 4,6 9,10 16,13 7,3 17,4 31,4l76 0 0 25z"/>
  <g id="_2434270189888">
   <g>
    <polygon class="fil4 str2" points="1744,18739 2166,18739 2166,18838 1744,18838 "/>
    <polygon class="fil5 str2" points="2166,18739 2589,18739 2589,18838 2166,18838 "/>
    <polygon class="fil4 str2" points="2589,18739 3011,18739 3011,18838 2589,18838 "/>
    <polygon class="fil5 str2" points="3011,18739 3434,18739 3434,18838 3011,18838 "/>
    <polygon class="fil4 str2" points="3434,18739 3857,18739 3857,18838 3434,18838 "/>
    <polygon class="fil5 str2" points="3097,19038 3773,19038 3773,19137 3097,19137 "/>
    <polygon class="fil4 str2" points="2421,19038 3097,19038 3097,19137 2421,19137 "/>
    <polygon class="fil5 str2" points="1745,19038 2421,19038 2421,19137 1745,19137 "/>
   </g>
   <path class="fil6" d="M2307 18349l57 -28 6 0 0 197c0,13 1,21 2,25 1,3 3,6 7,7 3,2 11,3 21,3l0 6 -88 0 0 -6c11,0 18,-1 21,-3 3,-2 5,-4 7,-7 1,-3 2,-11 2,-25l0 -126c0,-17 -1,-28 -2,-33 -1,-4 -2,-6 -4,-8 -2,-2 -5,-3 -8,-3 -4,0 -10,2 -18,5l-3 -5z"/>
   <path id="1" class="fil6" d="M2941 18315l0 157 40 -37c9,-8 13,-13 15,-15 1,-1 1,-3 1,-4 0,-2 -1,-4 -3,-6 -2,-2 -5,-3 -9,-3l0 -6 69 0 0 6c-9,0 -17,2 -23,4 -6,3 -13,7 -21,14l-41 37 40 51c11,14 19,23 23,27 6,5 10,9 15,10 3,1 8,2 15,2l0 6 -77 0 0 -6c4,0 7,-1 9,-2 2,-1 2,-3 2,-5 0,-3 -2,-7 -7,-13l-48 -62 0 52c0,10 1,17 2,20 1,3 3,5 6,7 3,1 8,2 17,2l0 6 -80 0 0 -6c8,0 14,-1 18,-3 2,-1 4,-3 5,-6 2,-4 3,-10 3,-20l0 -144c0,-18 0,-29 -1,-33 -1,-4 -2,-7 -4,-8 -2,-2 -4,-2 -7,-2 -2,0 -6,1 -11,3l-3 -6 47 -19 8 0z"/>
   <path id="2" class="fil6" d="M3118 18431c11,-12 18,-18 20,-20 5,-4 11,-8 17,-10 6,-2 12,-4 18,-4 10,0 18,3 25,9 7,6 12,14 14,25 12,-14 22,-23 30,-27 8,-4 17,-6 25,-6 8,0 16,2 22,6 6,4 12,11 15,21 3,7 4,17 4,31l0 68c0,10 1,17 2,20 1,2 3,5 6,6 3,2 8,3 15,3l0 6 -77 0 0 -6 3 0c7,0 12,-1 16,-4 3,-2 5,-5 6,-9 0,-2 1,-7 1,-17l0 -68c0,-13 -2,-22 -5,-27 -5,-7 -12,-11 -22,-11 -6,0 -12,2 -18,5 -6,3 -14,9 -22,17l0 2 1 7 0 75c0,11 1,17 2,20 1,3 3,5 7,7 3,2 9,3 17,3l0 6 -79 0 0 -6c9,0 15,-1 18,-3 3,-2 5,-5 7,-9 1,-2 1,-8 1,-17l0 -68c0,-13 -2,-22 -6,-28 -5,-7 -12,-11 -21,-11 -6,0 -12,2 -18,5 -9,5 -17,11 -22,17l0 85c0,10 1,17 2,20 1,3 4,5 6,7 3,2 8,2 17,2l0 6 -78 0 0 -6c7,0 12,-1 15,-2 3,-2 5,-4 7,-7 1,-3 2,-10 2,-20l0 -60c0,-17 -1,-28 -2,-34 -1,-4 -2,-6 -4,-8 -2,-1 -4,-2 -7,-2 -3,0 -7,1 -12,3l-3 -6 48 -19 7 0 0 34z"/>
   <path id="3" class="fil6" d="M2455 18444c0,-27 4,-50 12,-69 8,-19 19,-34 32,-43 10,-7 21,-11 32,-11 18,0 34,9 48,27 18,23 27,53 27,92 0,27 -4,50 -12,69 -8,19 -18,33 -30,41 -12,9 -24,13 -35,13 -22,0 -41,-13 -56,-39 -13,-22 -19,-49 -19,-80zm34 4c0,32 4,58 12,79 7,17 16,26 29,26 6,0 13,-3 19,-8 7,-6 12,-15 15,-28 5,-20 8,-48 8,-83 0,-27 -3,-49 -8,-67 -4,-13 -9,-23 -16,-28 -5,-4 -10,-6 -17,-6 -8,0 -15,4 -21,11 -8,10 -14,24 -17,45 -3,20 -4,41 -4,60z"/>
   <path id="4" class="fil6" d="M2632 18444c0,-27 4,-50 12,-69 8,-19 19,-34 32,-43 10,-7 21,-11 32,-11 18,0 34,9 48,27 18,23 27,53 27,92 0,27 -4,50 -12,69 -8,19 -18,33 -30,41 -12,9 -24,13 -35,13 -22,0 -41,-13 -56,-39 -13,-22 -19,-49 -19,-80zm34 4c0,32 4,58 12,79 7,17 16,26 29,26 6,0 13,-3 19,-8 7,-6 12,-15 15,-28 5,-20 8,-48 8,-83 0,-27 -3,-49 -8,-67 -4,-13 -9,-23 -16,-28 -5,-4 -10,-6 -17,-6 -8,0 -15,4 -21,11 -8,10 -14,24 -17,45 -3,20 -4,41 -4,60z"/>
   <path class="fil6" d="M2568 19291l0 7c-15,1 -27,4 -37,9 -10,5 -19,11 -28,21 -9,9 -17,20 -23,31 -6,11 -11,25 -15,41 16,-11 33,-17 50,-17 16,0 30,6 41,19 12,13 18,29 18,50 0,19 -6,37 -18,53 -14,19 -33,29 -56,29 -16,0 -30,-5 -41,-16 -22,-21 -33,-47 -33,-80 0,-21 4,-41 13,-60 8,-19 20,-36 36,-50 16,-15 30,-24 45,-29 14,-5 27,-8 40,-8l10 0zm-107 120c-2,16 -3,28 -3,38 0,11 2,23 6,36 4,13 10,23 18,31 6,5 13,8 21,8 10,0 19,-5 27,-14 8,-9 12,-23 12,-40 0,-20 -4,-37 -12,-51 -8,-14 -19,-22 -33,-22 -4,0 -9,1 -14,3 -5,2 -12,6 -22,12z"/>
   <path id="1" class="fil6" d="M2599 19414c0,-27 4,-50 12,-69 8,-19 19,-34 32,-43 10,-7 21,-11 32,-11 18,0 34,9 48,27 18,23 27,53 27,92 0,27 -4,50 -12,69 -8,19 -18,33 -30,41 -12,9 -24,13 -35,13 -22,0 -41,-13 -56,-39 -13,-22 -19,-49 -19,-80zm34 4c0,32 4,58 12,79 7,17 16,26 29,26 6,0 13,-3 19,-8 7,-6 12,-15 15,-28 5,-20 8,-48 8,-83 0,-27 -3,-49 -8,-67 -4,-13 -9,-23 -16,-28 -5,-4 -10,-6 -17,-6 -8,0 -15,4 -21,11 -8,10 -14,24 -17,45 -3,20 -4,41 -4,60z"/>
   <path id="2" class="fil6" d="M2909 19401c11,-12 18,-18 20,-20 5,-4 11,-8 17,-10 6,-2 12,-4 18,-4 10,0 18,3 25,9 7,6 12,14 14,25 12,-14 22,-23 30,-27 8,-4 17,-6 25,-6 8,0 16,2 22,6 6,4 12,11 15,21 3,7 4,17 4,31l0 68c0,10 1,17 2,20 1,2 3,5 6,6 3,2 8,3 15,3l0 6 -77 0 0 -6 3 0c7,0 12,-1 16,-4 3,-2 5,-5 6,-9 0,-2 1,-7 1,-17l0 -68c0,-13 -2,-22 -5,-27 -5,-7 -12,-11 -22,-11 -6,0 -12,2 -18,5 -6,3 -14,9 -22,17l0 2 1 7 0 75c0,11 1,17 2,20 1,3 3,5 7,7 3,2 9,3 17,3l0 6 -79 0 0 -6c9,0 15,-1 18,-3 3,-2 5,-5 7,-9 1,-2 1,-8 1,-17l0 -68c0,-13 -2,-22 -6,-28 -5,-7 -12,-11 -21,-11 -6,0 -12,2 -18,5 -9,5 -17,11 -22,17l0 85c0,10 1,17 2,20 1,3 4,5 6,7 3,2 8,2 17,2l0 6 -78 0 0 -6c7,0 12,-1 15,-2 3,-2 5,-4 7,-7 1,-3 2,-10 2,-20l0 -60c0,-17 -1,-28 -2,-34 -1,-4 -2,-6 -4,-8 -2,-1 -4,-2 -7,-2 -3,0 -7,1 -12,3l-3 -6 48 -19 7 0 0 34z"/>
   <path id="3" class="fil6" d="M3176 19284c5,0 9,2 12,5 3,3 5,8 5,12 0,5 -2,9 -5,12 -3,3 -8,5 -12,5 -5,0 -9,-2 -12,-5 -3,-3 -5,-8 -5,-12 0,-5 2,-9 5,-12 3,-3 8,-5 13,-5zm14 83l0 127c0,10 1,16 2,20 1,3 4,6 6,7 3,2 8,2 15,2l0 6 -77 0 0 -6c8,0 13,-1 15,-2 3,-1 5,-4 6,-7 2,-3 2,-10 2,-20l0 -61c0,-17 -1,-28 -2,-33 -1,-4 -2,-6 -4,-8 -2,-1 -4,-2 -7,-2 -3,0 -7,1 -12,3l-2 -6 47 -19 8 0z"/>
  </g>
  <rect class="fil7 str3" x="1005" y="1003" width="26146" height="18955"/>
  <g id="_2434270184416">
   <polygon class="fil2 str1" points="4126,18132 4942,18132 4942,19725 4126,19725 "/>
   <path class="fil8" d="M4474 18568c-1,3 -2,6 -2,9 0,3 -1,5 -1,7 0,6 2,10 5,12 3,2 10,3 18,3l4 0 -5 23 -78 0 5 -23 3 0c7,0 13,-2 16,-5 4,-3 6,-8 8,-16l38 -154c1,-3 1,-6 2,-8 0,-3 1,-6 1,-9 0,-5 -2,-9 -6,-11 -4,-2 -11,-3 -20,-3l-3 0 5 -23 72 0 62 184 31 -129c1,-4 2,-8 2,-10 0,-3 1,-5 1,-6 0,-6 -2,-10 -5,-12 -4,-2 -10,-3 -18,-3l-4 0 5 -23 79 0 -6 23 -3 0c-7,0 -13,2 -16,5 -4,3 -6,8 -8,16l-51 208 -22 0 -72 -209 -37 155z"/>
   <line class="fil7 str4" x1="4535" y1="19591" x2="4535" y2= "18822" />
   <line class="fil7 str4" x1="4253" y1="19315" x2="4816" y2= "19315" />
   <line class="fil7 str4" x1="4390" y1="19455" x2="4684" y2= "19169" />
   <line class="fil7 str4" x1="4387" y1="19168" x2="4685" y2= "19457" />
   <line class="fil7 str4" x1="4535" y1="18825" x2="4439" y2= "18943" />
   <line class="fil7 str4" x1="4535" y1="18825" x2="4623" y2= "18943" />
  </g>
  <g id="_2434270221888">
   <polygon class="fil2 str1" points="8009,19251 8009,19725 5700,19725 5700,19251 "/>
   <path class="fil8" d="M6777 19589l0 -202 40 0 48 143c4,13 8,23 10,30 2,-7 6,-18 11,-32l49 -141 36 0 0 202 -26 0 0 -169 -59 169 -24 0 -58 -172 0 172 -26 0z"/>
   <path id="1" class="fil8" d="M7110 19542l26 3c-4,15 -11,27 -22,35 -11,8 -25,12 -42,12 -21,0 -38,-7 -51,-20 -13,-13 -19,-32 -19,-55 0,-25 6,-44 19,-57 13,-14 29,-20 49,-20 20,0 35,7 48,20 12,13 19,32 19,56 0,1 0,4 0,7l-109 0c1,16 5,28 14,37 8,9 18,13 31,13 9,0 17,-2 23,-7 6,-5 12,-12 15,-23zm-81 -40l82 0c-1,-12 -4,-22 -9,-28 -8,-10 -18,-14 -31,-14 -11,0 -21,4 -29,11 -8,8 -12,18 -13,31z"/>
   <path id="2" class="fil8" d="M7167 19589l0 -146 22 0 0 22c6,-10 11,-17 16,-21 5,-3 10,-5 16,-5 8,0 17,3 26,8l-9 23c-6,-3 -12,-5 -18,-5 -5,0 -10,2 -15,5 -4,3 -7,8 -9,14 -3,9 -4,18 -4,29l0 77 -25 0z"/>
   <path id="3" class="fil8" d="M7357 19536l24 3c-3,17 -9,30 -20,39 -11,9 -24,14 -40,14 -20,0 -36,-7 -48,-20 -12,-13 -18,-32 -18,-56 0,-16 3,-30 8,-41 5,-12 13,-21 24,-27 11,-6 22,-9 35,-9 16,0 29,4 39,12 10,8 17,19 19,34l-24 4c-2,-10 -6,-17 -12,-22 -6,-5 -13,-7 -21,-7 -13,0 -23,4 -31,13 -8,9 -12,23 -12,42 0,20 4,34 11,43 8,9 17,13 29,13 10,0 18,-3 24,-9 7,-6 11,-15 12,-27z"/>
   <path id="4" class="fil8" d="M7498 19571c-9,8 -18,13 -27,17 -9,3 -18,5 -27,5 -16,0 -28,-4 -37,-12 -9,-8 -13,-18 -13,-30 0,-7 2,-14 5,-20 3,-6 8,-11 13,-14 5,-4 11,-6 18,-8 5,-1 12,-2 22,-4 20,-2 35,-5 44,-9 0,-3 0,-6 0,-6 0,-10 -2,-17 -7,-21 -6,-6 -16,-8 -28,-8 -12,0 -20,2 -26,6 -6,4 -10,11 -12,22l-24 -3c2,-10 6,-19 11,-25 5,-6 12,-11 22,-15 10,-3 21,-5 33,-5 13,0 23,1 31,4 8,3 14,7 17,11 4,4 6,10 8,17 1,4 1,12 1,23l0 33c0,23 1,38 2,44 1,6 3,12 6,18l-26 0c-3,-5 -4,-11 -5,-18zm-2 -55c-9,4 -23,7 -41,9 -10,1 -17,3 -22,5 -4,2 -7,5 -10,8 -2,4 -3,7 -3,12 0,7 2,12 8,16 5,4 12,7 22,7 10,0 18,-2 26,-6 7,-4 13,-10 16,-17 3,-6 4,-14 4,-25l0 -9z"/>
   <path id="5" class="fil8" d="M7613 19567l3 22c-7,1 -13,2 -19,2 -9,0 -16,-1 -21,-4 -5,-3 -8,-7 -10,-11 -2,-5 -3,-14 -3,-29l0 -84 -18 0 0 -19 18 0 0 -36 25 -15 0 51 25 0 0 19 -25 0 0 86c0,7 0,12 1,14 1,2 2,4 4,5 2,1 5,2 8,2 3,0 6,0 11,-1z"/>
   <path id="6" class="fil8" d="M7628 19516c0,-27 8,-47 23,-60 13,-11 28,-16 46,-16 20,0 37,7 49,20 13,13 19,31 19,55 0,19 -3,34 -8,44 -6,11 -14,19 -25,25 -11,6 -23,9 -35,9 -21,0 -37,-7 -50,-20 -13,-13 -19,-32 -19,-57zm25 0c0,19 4,33 12,42 8,9 19,14 31,14 12,0 23,-5 31,-14 8,-9 12,-24 12,-43 0,-18 -4,-32 -12,-41 -8,-9 -18,-14 -31,-14 -12,0 -23,5 -31,14 -8,9 -12,23 -12,42z"/>
   <path id="7" class="fil8" d="M7794 19589l0 -146 22 0 0 22c6,-10 11,-17 16,-21 5,-3 10,-5 16,-5 8,0 17,3 26,8l-9 23c-6,-3 -12,-5 -18,-5 -5,0 -10,2 -15,5 -4,3 -7,8 -9,14 -3,9 -4,18 -4,29l0 77 -25 0z"/>
   <circle class="fil9 str5" cx="5918" cy="19484" r="119"/>
   <rect class="fil9 str5" x="6376" y="19376" width="227" height="227"/>
   <line class="fil7 str6" x1="6092" y1="19483" x2="6313" y2= "19483" />
   <line class="fil7 str6" x1="6310" y1="19484" x2="6246" y2= "19549" />
   <line class="fil7 str6" x1="6310" y1="19483" x2="6247" y2= "19421" />
  </g>
 </g>
</svg>
