<?xml version="1.0" encoding="UTF-8"?>
<!DOCTYPE svg PUBLIC "-//W3C//DTD SVG 1.1//EN" "http://www.w3.org/Graphics/SVG/1.1/DTD/svg11.dtd">
<!-- Creator: CorelDRAW -->
<svg xmlns="http://www.w3.org/2000/svg" xml:space="preserve" width="210mm" height="297mm" version="1.1" style="shape-rendering:geometricPrecision; text-rendering:geometricPrecision; image-rendering:optimizeQuality; fill-rule:evenodd; clip-rule:evenodd"
viewBox="0 0 21000 29700"
 xmlns:xlink="http://www.w3.org/1999/xlink">
 <defs>
  <style type="text/css">
   <![CDATA[
    .str1 {stroke:black;stroke-width:10;stroke-opacity:0.501961}
    .str3 {stroke:black;stroke-width:50}
    .str5 {stroke:#434242;stroke-width:10}
    .str2 {stroke:black;stroke-width:10}
    .str0 {stroke:#000066;stroke-width:10}
    .str6 {stroke:#2B2A29;stroke-width:7.62}
    .str4 {stroke:black;stroke-width:7.62}
    .fil7 {fill:none}
    .fil0 {fill:#FEFEFE}
    .fil9 {fill:#D9DADA}
    .fil1 {fill:white}
    .fil5 {fill:#FEFEFE;fill-rule:nonzero}
    .fil4 {fill:#D9DADA;fill-rule:nonzero}
    .fil8 {fill:#434242;fill-rule:nonzero}
    .fil6 {fill:#2B2A29;fill-rule:nonzero}
    .fil3 {fill:black;fill-rule:nonzero}
    .fil2 {fill:#FEFEFE;fill-rule:nonzero;fill-opacity:0.501961}
   ]]>
  </style>
 </defs>
 <g id="Plan_x0020_1">
  <metadata id="CorelCorpID_0Corel-Layer"/>
  <rect class="fil0" x="1000" y="1000" width="19000" height="23178"/>
  <path class="fil1 str0" d="M1000 13115l0 -12115 0 0 16462 0 0 0c-44,13 -125,113 -147,158 -23,48 -42,189 -88,219 -4,36 -78,66 -102,88 -58,52 -58,122 -83,191 -13,38 -16,79 -30,115 -14,36 -78,47 -81,86 -5,29 -17,93 -40,110 -5,39 -112,156 -145,190 -44,44 -74,110 -118,151 -67,62 -127,146 -193,212 -84,84 -132,179 -203,271 -28,32 -50,31 -83,50 -30,18 -161,247 -152,271 25,65 -333,318 -391,358l-139 96c-67,46 -149,56 -220,94 -67,36 -101,48 -138,-26 -21,0 -28,33 -47,23 -38,-21 -21,-43 -78,-43 -14,0 -99,-1 -101,-9 -9,-2 -5,-91 -6,-105 -1,-30 -4,-61 -11,-88l-7 0c-13,10 -71,63 -87,63 0,-13 -9,-84 -24,-84 -7,-21 -82,82 -92,93 -55,55 -151,137 -162,217 -11,76 -120,7 -172,7 -11,32 11,98 0,145 -11,46 -33,49 -71,27 -60,-36 -240,218 -276,264 -30,44 -66,117 13,133 6,25 -6,41 -14,67 -16,47 -12,83 -9,133 2,26 25,73 -7,84 -24,8 -64,3 -91,10 -36,10 -69,55 -78,88 -11,38 -62,86 -101,101 -15,14 -40,31 -58,36 -1,3 -2,4 -4,4 -5,20 -20,41 -20,64 -72,18 -141,112 -206,80 -47,-23 -49,31 -75,47 -19,12 -99,38 -102,60 -40,6 -15,124 -21,155 -5,27 -51,88 -41,105 9,17 77,24 98,38 56,39 96,106 152,147 55,40 113,87 121,160 5,9 11,24 11,34 11,14 39,84 44,104 15,60 82,146 117,200 69,105 127,179 155,305 25,115 -16,240 7,353 4,24 10,33 21,53 5,1 3,0 6,4 50,7 26,72 20,104 -14,74 -34,154 -74,219 -39,63 -57,118 -137,128 -30,-10 -76,-20 -100,-41 -18,-16 -100,27 -101,48 -4,58 -55,44 -108,44 -6,-24 -17,-47 -23,-66 -5,-1 -4,-1 -9,0 -16,62 -100,1 -134,48 -28,40 -84,-2 -104,78 -24,5 -96,-1 -104,31 -17,4 -31,64 -40,80 -28,50 -37,-1 -60,-19 -11,4 -32,47 -51,60 -102,68 -11,-130 -11,-177 -56,-14 -73,-107 -73,-157 -5,-54 0,-90 20,-140 12,-31 35,-65 37,-98 4,-89 5,-211 -16,-295 -11,0 -19,14 -33,7 -22,-11 -19,-70 -40,-87 -11,-9 -32,-11 -40,-23 -9,-15 -19,-27 -30,-40 50,-64 194,-79 270,-98 0,-32 -33,-122 -44,-157 -15,-48 -41,-99 -53,-147l-165 -44c-59,-16 -124,-5 -179,-38 -64,-40 -62,-17 -129,-26 -157,-21 65,-101 -43,-101 -26,0 -85,14 -82,-27 1,-14 13,-72 18,-86 42,-53 164,-96 226,-117l0 -4c-30,-8 -107,-56 -129,-78 -39,-39 36,-106 36,-158 0,-70 57,-127 57,-194 -4,0 -2,2 -6,3 -22,90 -239,-156 -257,-93 -22,77 -94,-44 -129,-80 -20,-20 -76,52 -125,47 -34,-3 -79,-18 -111,-9 -26,8 -33,33 -65,33 -38,0 -99,-45 -115,7 -11,37 -37,43 -70,51 -9,35 -70,33 -97,60 -48,10 -127,58 -154,95 -65,90 -71,102 -178,128 -61,15 -37,-29 -50,-80 -11,-43 100,-38 100,-77 -43,0 -107,14 -142,-14 -10,-8 16,-87 13,-111 -14,-122 82,-68 135,-158l82 -141c18,-31 48,-54 27,-90 -25,-43 31,-101 -31,-101 -83,0 -82,-85 -114,-93 0,78 -107,10 -134,1 -127,-39 -151,88 -233,164 -22,20 -94,65 -95,94 -6,101 -35,40 -94,98 -21,18 -46,26 -65,41 -56,10 -138,56 -191,83 -29,41 -59,48 -70,105 -6,33 -21,110 -48,130l-3 6c-6,4 -13,15 -17,21 -14,9 -23,23 -36,31 -4,9 -13,15 -23,20 -23,33 -63,56 -97,77 -40,7 -66,-23 -102,-23l-1 1c-12,50 -54,-2 -65,-16 -22,-26 -35,-58 -74,-60 -52,-3 -91,86 -114,124 -64,108 -78,176 4,278 32,40 57,54 98,78 43,26 80,21 127,34 66,26 94,20 161,0 31,-10 110,129 78,164 -53,58 -55,123 -40,197 10,5 12,19 30,19 40,40 172,46 223,36 125,-25 221,-203 326,-269 32,-20 109,-70 137,-33 32,43 79,100 122,131 64,18 121,50 191,50 41,0 92,-59 107,-51 10,5 10,26 26,34 32,16 99,33 135,29 107,-14 -7,74 -23,121 -16,47 -38,105 -88,121 -20,6 -73,-34 -111,-29 -31,5 -62,27 -88,44 -44,29 -108,-15 -148,31 -20,23 -69,83 -97,94 -4,15 -12,41 -14,57 -26,4 -52,-13 -73,11 -12,14 -7,34 -28,38 -102,21 -4,31 -73,100 -34,-4 -40,-46 -73,-46 -16,37 40,81 -9,123 -35,30 -54,21 -80,67 -37,66 -116,85 -147,158 -18,43 -63,107 -90,145 -50,73 35,114 83,165 30,33 71,35 114,37 9,5 26,13 31,23 34,17 76,69 87,107 24,82 82,156 102,235 15,57 10,161 47,208 4,29 40,60 54,87 16,31 20,91 20,125 47,55 64,67 122,107 37,26 17,55 41,81 55,60 191,109 164,217 -16,0 -129,-41 -122,-23 21,57 153,69 165,118 -39,29 -185,-76 -219,-98 -26,-17 -56,-16 -84,-27 -43,-16 -13,-87 -73,-87 -129,0 -214,53 -331,83l0 4c20,5 109,75 122,93 29,36 37,50 27,90 -98,20 -74,39 -74,135l198 -58c35,-10 250,-85 276,-46 31,47 87,73 102,133 3,11 -223,128 -246,154 -64,34 -62,139 -141,100 -21,-11 -29,-9 -51,-4 -20,4 -112,-35 -111,-13 2,33 41,97 60,124 20,29 111,-40 151,-40 56,0 100,-36 155,-29 1,6 10,10 11,16 14,2 39,13 55,17 48,12 15,37 6,70 -10,33 -11,60 -3,91l1 1c51,13 89,-84 125,-84 101,48 -138,158 -110,242 21,0 41,-16 63,-17 50,-3 -45,85 -48,91 -6,12 16,31 20,46 5,21 12,116 -4,127 -34,21 -85,-18 -54,36 38,65 62,120 -30,140 -25,5 -49,0 -71,16 -38,28 -25,68 -78,100 -83,50 5,75 -46,108 -77,51 -14,98 -63,154 -32,50 -44,45 -90,36 -49,-10 -24,20 -26,50 -1,15 -105,141 -119,150 -39,23 -86,-100 -90,-27 -2,38 -31,64 -31,94 0,47 20,64 3,121 -7,24 -2,42 -21,61 -15,15 -33,28 -33,51 107,27 6,46 13,124 7,91 31,63 -65,87 -6,22 -38,55 -38,73 -30,29 -84,31 -107,63 -28,41 -72,97 -124,108 -54,11 -33,77 -51,114 -31,4 -54,-42 -87,-9 -28,28 -76,17 -95,43 83,111 6,105 -61,188 -16,20 -54,30 -60,56 -21,99 -33,38 -97,76 -69,41 -105,72 -142,133 -17,28 -76,6 -102,27 -23,18 39,53 1,74 -23,20 -189,77 -219,77 -32,0 -61,-11 -91,-11 -54,0 -39,116 -101,54 -37,-37 -40,-39 -91,-26 -26,7 -49,1 -63,27 -10,21 -20,45 -47,43 -23,-2 -31,-75 -54,-36 -7,12 -36,67 -50,67 -3,8 -45,-35 -51,-11 -2,0 -2,1 -4,1 0,44 -28,86 -77,86 -14,0 -45,-8 -57,-14 -17,-9 -32,-49 -41,-51 -10,-31 -42,-71 -51,-108 -8,-31 -11,-22 -4,-54 4,-21 12,-44 6,-63 -22,0 -46,30 -71,31 -22,1 -104,3 -111,27 -14,50 -74,8 -97,26 22,29 29,53 44,86 4,10 18,66 18,76 -3,1 -34,11 -34,13l-3 0 -1 1c0,24 21,41 11,71 -4,14 -14,26 -18,41 -6,23 13,44 -23,44 -46,0 -61,31 -95,53 -17,21 -63,66 -92,57 -36,-11 -72,-35 -104,-6 -35,32 -30,56 -90,56 -65,0 -391,63 -403,115 -10,47 -22,104 -75,117 -62,16 -66,-11 -30,54 16,29 93,160 61,177 -46,24 -127,42 -178,44 -72,4 -23,-39 -31,-91 -5,-33 -48,-42 -65,-70 -60,-97 -20,-228 -47,-336 -17,0 -26,26 -41,34 -31,18 -45,15 -78,26 -75,7 -54,-5 -105,-48 -54,-47 -198,-28 -272,-20 -41,5 -148,28 -174,63 -51,69 -50,140 -142,181 -84,37 -165,6 -181,130 -64,43 -55,46 -50,113 3,39 -27,31 -57,33 -49,3 -55,17 -80,56 -61,69 -119,110 -152,197 -21,57 -57,114 -74,172 -13,44 -2,66 30,94 26,23 26,52 34,84 18,69 161,175 230,185 6,23 -3,44 -3,68 0,35 26,62 26,97 27,36 41,89 78,117 51,38 122,130 165,180 68,80 324,163 350,247 15,50 44,116 84,153 22,20 109,106 115,131 4,2 5,2 6,7 56,31 47,126 63,187 8,31 52,176 73,191 11,89 46,138 23,232 -10,41 21,96 21,145 0,71 26,118 34,187 6,55 -23,12 -41,33 -13,15 9,69 -7,91 -12,48 -31,54 -20,107 6,27 11,65 11,90 -43,43 -33,86 -64,137 -10,17 -27,48 -44,58 -18,11 -32,9 -50,24 -28,23 -34,54 -73,64 -50,13 -91,52 -142,66 -34,9 -35,12 -61,33 -14,11 -22,41 -46,41 -12,12 -58,16 -77,26 -28,14 -54,34 -83,48 -31,56 -34,60 -94,43 -30,-9 -67,-35 -82,-63 -63,-113 -23,-5 -115,10 -47,8 -23,66 -85,58 -47,-6 -64,-7 -110,-4 -50,3 -70,-31 -127,-31 -62,0 -102,-56 -152,-56 0,67 241,326 296,389 81,94 -88,85 -152,117 -69,34 -119,82 -138,157 -44,11 -93,62 -152,47 -20,-81 -17,-198 -4,-282 6,-38 15,-93 37,-124 11,-15 63,-62 63,-76 -56,-14 -108,-75 -156,-87 -55,-31 -100,-80 -154,-107 -13,-6 -75,-38 -84,-38 -30,0 -58,29 -90,31 -71,6 -29,-79 -41,-133 -6,-25 -27,-93 -58,-93 -10,40 -24,89 -61,114 -64,43 -77,-98 -77,-128 0,-35 7,-70 -3,-104 -11,-37 -40,-61 -54,-98 -31,-26 -47,-56 -64,-90 -39,0 -75,62 -122,44 -29,-11 -50,-84 -60,-114 -12,-38 -121,-154 -158,-161 -20,-4 -52,21 -73,26 -47,10 -90,-37 -138,-26 -101,24 -125,54 -125,-70 0,-83 18,-167 18,-249l-1 -1c-23,0 -41,10 -65,10 -45,17 -97,5 -144,20 -43,14 -86,20 -118,53l0 9c2,2 2,2 4,3 16,28 53,34 53,74 0,21 -16,41 -26,60 -47,89 36,164 6,257 -16,50 -59,79 -75,134 -12,40 -43,68 -60,104 -48,104 -54,258 -129,345l-24 158c-8,53 3,118 3,172 0,53 11,211 94,162 88,-51 139,-78 139,38 0,134 -8,176 101,251 25,18 64,193 64,229 -14,0 -26,-28 -54,-17 -53,21 51,172 58,201 33,23 74,72 115,77 83,83 160,62 270,76l4 4c37,5 53,46 78,66l169 133c76,59 141,161 215,229 39,36 98,64 141,103 44,39 66,127 74,182 4,47 7,91 7,138 -15,26 -10,116 -10,148 0,132 -5,287 27,413 73,87 140,152 186,258 34,77 109,173 87,262 -5,1 -11,3 -13,-4 -5,-1 -6,-10 -13,-10 -1,-2 -3,-3 -6,-3 -8,-25 -130,4 -152,4 -8,24 -74,-22 -84,-31 -64,-60 -306,-145 -306,-228 -111,0 -161,-94 -252,-140 -56,-28 -73,-52 -104,-104 -21,-36 -84,-99 -94,-130 -21,-54 -78,-145 -125,-175 -24,-15 -78,-59 -68,-93 18,-66 -79,-70 -64,-130 19,-77 9,-127 -1,-201l-4 -1c-5,-10 -41,-34 -51,-41 -18,-141 19,-249 -54,-378 -76,-192 -222,-319 -329,-492 -17,-28 -16,-110 -51,-123 -31,-11 -48,12 -48,-40 0,-56 -59,-58 -98,-91 -23,-20 -60,-114 -87,-114 -15,29 -46,110 -85,110 -12,-49 -4,-122 -4,-175 3,-32 -3,-64 -3,-97 28,-47 40,-125 68,-180 27,-52 40,-120 40,-178 0,-34 -22,-65 -31,-97 -37,-124 80,-241 80,-366 0,-15 -21,-124 -43,-104 -53,49 -173,19 -132,-66 30,-63 75,-116 57,-190 -1,0 -4,-3 -4,-4 -21,0 -41,24 -65,24 -15,0 12,-61 16,-68 9,-19 17,-121 40,-123 26,-2 40,24 65,24 7,-29 -11,-80 -11,-114 0,-14 3,-65 -7,-70 -10,-5 -85,39 -61,-6 17,-33 21,-77 21,-114 -16,-18 -37,-32 -55,-48 -31,-29 -52,-66 -60,-108 -6,-33 -4,-83 -27,-110 -2,-8 -6,-14 -7,-23 -4,-6 -4,-10 -9,-16 -7,-38 -35,-73 -43,-115 -8,-47 -5,-100 -11,-147 0,-50 -21,-100 -21,-153 0,-28 6,-101 -6,-123 -36,-66 -18,-97 -18,-168 0,-14 -39,-54 -51,-70 -25,-32 -29,-81 -48,-115 -13,-23 -37,-44 -46,-68 -13,-38 -1,-87 -46,-104 -40,-15 -57,-20 -82,-86 0,100 -16,291 -124,334 -30,12 -53,-41 -68,-61 -29,-38 -41,36 -48,60 -18,54 -40,36 -81,51 -49,36 -78,70 -95,130 -17,60 -97,119 -155,130 -28,5 -75,-17 -97,-33 -35,-26 -33,-27 -33,-73 -8,-6 -33,3 -43,3 -35,0 -63,-13 -101,-13 -25,0 -52,19 -65,-11 -25,-57 10,-142 30,-195 9,-23 23,-43 26,-68 3,-27 23,-48 26,-73l3 -16c-16,-21 0,-146 0,-177 0,-92 -28,-190 -47,-279 -8,-37 -40,-81 -61,-111 -10,-14 -57,-77 -58,-88 -12,-7 -36,-40 -41,-51 -18,0 -33,81 -43,100 -20,4 -115,-86 -115,-107 89,-72 -27,-106 -1,-210 1,-2 17,-35 18,-36 -1,-3 0,-2 -3,-3 -1,-4 -21,-9 -26,-16 -19,-26 -11,-68 -23,-97 -16,-38 -29,11 -60,11 -15,0 -29,-12 -38,-23 -7,-8 -13,-16 -21,-23 -8,-7 -20,-15 -26,-24l-26 -19 0 0zm19000 9281l-161 -88c-68,-26 -148,-42 -218,-56 -3,-3 -3,-6 -6,-9 0,-63 26,-157 7,-212 -10,-27 -126,-154 -154,-155 -70,-3 -115,20 -156,-50 -35,-60 -101,-87 -101,-161 -2,-2 -2,-4 -3,-7l-9 -7c-135,0 -194,-5 -319,-63 -102,-47 -212,-102 -327,-95 -216,-54 -418,-178 -626,-252 -153,-55 -303,-79 -458,-107 -21,-19 -107,-63 -134,-64l-273 -125c-85,-39 -137,-73 -201,-137 -43,0 -164,102 -211,124 -85,40 -91,44 -91,141 0,40 -55,23 -81,33 -61,22 -96,20 -156,17 -37,-2 -56,138 -112,167 -25,18 -30,24 -38,54 -11,37 -40,48 -61,74 -42,51 -110,108 -175,121 -117,24 -219,-120 -236,-217 -25,-140 -54,-65 -54,26 -13,-4 -26,-52 -36,-66 -18,-25 -49,-47 -64,-71 -39,-63 -37,-98 -37,-170 0,-40 -23,-75 -23,-107 0,-30 59,-69 64,-118 0,-31 -11,-57 -30,-80 -18,-21 -44,-48 -44,-76 0,-17 10,-29 10,-44 -30,0 -65,3 -91,-11 -56,-19 -128,9 -181,-23l-119 -73c-78,-47 -209,-67 -282,-4 -48,42 -85,88 -142,115 -79,38 -161,-43 -161,87 0,36 -15,87 -58,87 -3,3 -4,5 -9,6 -7,9 -20,20 -28,29 35,28 55,20 95,10 49,-13 96,20 152,11 49,-8 72,45 111,67 8,56 -27,52 33,111 20,20 65,100 87,100 51,0 60,-12 114,1 89,23 124,-26 206,-26 31,0 56,20 88,20 33,0 86,-22 118,-33 37,35 53,76 53,127 -2,1 -1,0 -1,3 -31,0 -60,-26 -85,-17 -29,10 -71,15 -102,10 -79,-12 -140,3 -218,13 -23,3 -154,27 -161,48 -44,4 -157,-7 -154,60 2,45 157,42 202,67 20,92 134,99 134,210 -20,15 -90,-22 -46,38 29,39 43,78 63,123 13,31 144,-26 154,-48 14,-31 37,-135 92,-98 34,23 78,-2 98,44 32,72 104,53 174,68 65,14 100,109 176,115 11,5 38,18 50,20 36,36 106,38 155,46 110,18 194,69 296,104 100,35 181,103 293,117 80,42 165,64 250,97 60,23 51,111 98,137 62,34 31,-3 44,68 7,36 33,65 40,100 16,78 21,71 77,123 22,20 95,50 87,84 -21,5 -53,27 -81,34l0 3c56,19 95,74 162,74 1,3 1,0 1,3 -26,7 -22,17 -57,9 -128,-32 4,61 4,113 -19,0 -56,-20 -80,-24 -28,-5 -72,13 -101,16 -87,25 -127,23 -165,114 -20,47 -115,160 -115,198 69,0 232,35 286,13 41,-17 66,-67 102,-90 14,-9 31,-28 46,-11 7,8 13,44 23,44 2,8 22,-13 26,-16 12,-11 84,-53 87,-41 17,4 13,32 46,30 38,-2 69,-29 110,-13 47,18 72,-11 115,-11 8,33 -11,48 36,67 80,34 92,24 129,104 26,56 88,93 117,151 47,42 54,97 124,64 68,-32 111,17 176,17 57,0 117,-1 169,-21 55,-22 128,92 189,47 53,-39 120,-64 175,-97 13,-7 88,-39 74,-58 -39,-53 -67,-92 -129,-118 -35,-15 -72,-30 -110,-38 -32,-8 -62,-39 -87,-46l0 -3c135,0 274,18 400,-24 0,-22 -43,-55 -43,-90 6,0 12,-1 17,1 6,3 12,7 18,10 29,8 60,41 81,9 24,-38 -42,-116 -33,-160 8,-38 84,56 104,58 35,-28 35,-102 64,-143 51,-7 99,31 151,41 66,13 36,25 64,71 39,63 119,50 178,97 34,27 66,24 108,24 47,0 73,13 115,29 27,17 97,42 107,73 6,21 8,42 16,63 8,23 18,33 30,53 33,13 72,59 63,97 -4,18 -9,43 3,58 14,19 49,4 65,17l32 21 0 -1169zm-1657 -21397c0,100 -44,185 -44,290 0,91 18,186 1,275 -21,111 -103,179 -63,294l75 214c2,1 3,1 6,1 1,2 3,1 6,1l1 -3c9,-2 40,-133 43,-151 9,-60 61,-230 134,-235 29,-2 57,-26 57,16 0,66 65,41 121,60 95,32 76,78 111,157 20,44 17,-84 17,-88 0,-44 11,-133 -10,-170 -17,0 -43,52 -74,54 -91,5 -68,-267 -102,-322 -32,-51 -91,-73 -124,-127 -33,-55 -30,-148 -30,-212l0 -54 -125 0zm1024 2139c9,11 72,134 73,148 5,89 34,98 108,98 -31,42 3,73 -78,73 -73,0 -74,66 -124,88 -32,14 -36,-42 -63,-29 -43,21 -56,72 -119,58 -81,-18 -100,-32 -181,29 -111,83 -199,182 -235,322 -6,24 -12,144 -53,98 -30,-34 -48,-73 -107,-67 -69,-69 -204,-107 -286,-170 -93,-71 -112,-103 -220,-21 -46,35 -109,33 -137,93 -37,80 -59,-97 -91,-100 -18,-2 -97,-7 -110,0 -31,18 -39,101 -60,111 0,3 -1,9 -3,10l0 17c6,2 45,21 47,27 10,1 47,36 60,44 21,13 38,-20 53,-20l3 1c14,55 151,143 142,167 -7,20 -29,43 -50,43l-1 -3 -75 -37c-37,-18 -42,-17 -68,27 -14,22 -160,162 -179,158 -32,-6 -50,-79 -47,-107 9,-75 85,-100 41,-180l-100 -113c-33,-38 -11,-61 6,-104 11,-28 -7,-53 -7,-78l1 -3c92,-31 140,-88 219,-145 92,-67 -77,-151 -27,-185 7,-5 43,-31 48,-31l102 76c28,21 94,8 128,6 103,-7 78,-178 78,-245 0,-87 102,-38 92,-137 0,-99 39,-171 57,-259 18,-85 -21,-149 -37,-228 -7,-37 -39,-96 -37,-130 3,-42 82,-90 114,-113 1,-9 7,-12 7,-23 12,5 15,6 24,11 36,72 111,171 168,228 42,42 80,87 111,135 30,46 89,77 114,117 84,42 141,129 236,167 61,24 175,27 205,88 9,6 17,17 26,24 33,13 63,23 98,11 51,-16 85,-55 122,-93 20,-20 41,-37 61,-56 14,-13 30,-46 51,-46 1,2 1,4 3,4 0,44 -33,75 -44,115 -9,30 -57,59 -57,91l-4 33zm-1407 2989c14,-37 -28,-174 -33,-221 -7,-64 -24,-139 38,-178 16,-10 57,-58 73,-58 40,0 40,66 83,66 2,-3 3,0 4,-4 13,-3 -6,-77 -9,-90 -8,-33 -6,-81 6,-111 30,-79 115,-138 131,-218 0,-60 60,-97 60,-145 0,-42 -24,-88 -31,-131 -17,-104 -52,-198 -115,-284 -39,-53 -81,-100 -91,-168 -6,-40 -19,-239 30,-255l0 -3c-31,0 -75,-21 -104,-33 -14,-9 -51,-36 -54,-50 -20,-5 -65,123 -65,147l3 0c2,5 54,-2 65,-1 20,1 44,-4 61,0 0,45 -6,89 -17,133 -76,0 -36,-79 -94,7 -39,58 -61,37 -77,-16 -7,-23 -8,-120 -37,-120 -37,0 -87,-39 -87,11 0,115 6,183 -114,205 -113,21 -28,63 -28,124 17,58 30,104 16,165 -11,48 -65,53 -104,63 -1,4 -1,6 -1,10 9,2 15,20 27,21 67,10 93,15 98,87 2,28 5,56 1,84 -2,13 -21,88 -30,91l-3 19c-17,22 -17,67 -23,94 -9,41 -36,75 -53,113 -30,22 -46,84 -71,113 -8,47 -31,94 -37,144 -12,14 -17,44 -27,61 -13,23 -35,44 -47,64 -40,33 -107,6 -135,63 -52,104 -109,260 -229,304 -55,20 -189,53 -228,87 -39,34 -43,86 -110,88 -99,4 -73,-121 -46,-182 15,-34 49,-45 65,-86 7,-17 27,-36 27,-54 0,-10 -11,-41 -17,-24 -13,0 -63,26 -73,36 -72,23 -179,50 -127,134 70,113 -70,287 -152,349 -40,30 -114,83 -114,138 0,41 27,90 20,125 -49,16 -103,112 -161,97 -23,-6 -121,-6 -122,-13 -8,-37 33,-71 1,-114 -36,9 -66,41 -94,63 -22,18 -106,-5 -141,4 -44,5 -80,40 -125,46l-236 27c-82,9 -94,-31 -165,-31 -34,27 -93,17 -122,54 -56,70 -104,127 -175,187 -35,30 -62,67 -95,100 -32,32 -70,41 -105,67 -52,25 -80,111 -144,111 -48,0 -66,-48 -104,19 -13,2 -34,36 -17,44 5,37 -4,91 36,101 28,7 49,34 78,34 61,0 114,-73 181,-50 51,17 98,63 155,48l1 -1 0 -4c-17,-6 13,-82 23,-91 36,-36 61,26 114,-13 33,-25 108,-74 148,-51 10,81 81,-4 105,-14 44,-20 94,-44 135,-68 69,53 145,-58 216,-91 99,-47 129,-10 211,23 87,36 91,-52 145,36 37,60 -32,55 -48,107 -8,26 -5,81 -10,113 -13,93 74,103 97,182 13,44 109,89 147,64 43,-29 51,-121 90,-165 31,-36 52,-59 71,-100 10,-21 103,-96 128,-73 58,52 45,-52 78,-60l0 -4c-85,-21 -126,-113 -88,-191 42,-87 93,11 102,66 4,1 47,-22 55,-27 13,-6 40,-17 54,-17 2,2 1,2 3,3 0,13 -18,54 0,58 21,5 68,-18 92,-19 53,-2 120,1 165,31 47,31 68,-2 94,-37 30,-40 88,-152 135,-164 73,-19 63,-11 63,48 0,42 7,84 7,125 0,87 65,38 95,-4 38,-53 24,-74 24,-135 -4,-42 -19,-128 55,-110 37,9 65,41 98,50 35,9 17,-86 43,-123 12,-18 81,-87 100,-87 2,8 23,23 27,34 3,8 -54,62 -63,74 -25,33 -21,112 -26,155 -4,37 37,87 50,58 17,-39 46,-77 90,-87 125,-28 45,-30 81,-138 19,-57 93,-134 148,-153 -1,-3 -4,-3 -6,-6 -44,0 -86,-101 -92,-137 -16,-83 7,-207 55,-278 19,-28 57,-72 84,-90 32,-22 7,-78 24,-101l7 -95zm-2490 1316c-125,-29 -50,173 -179,167 -46,-2 -89,19 -134,19 -35,0 -44,-79 -74,-87 -8,34 -36,59 -55,90 -22,34 -4,68 -34,100 -14,15 -152,86 -125,95 59,20 8,74 47,98 24,16 -44,172 73,127 20,-8 -19,68 27,68 40,0 81,9 117,9 0,-94 52,-250 152,-281 57,-18 77,-55 139,-24 25,12 91,68 98,95 20,0 24,-13 40,-16 10,-40 6,-67 33,-108 26,-40 138,-96 127,-137 -13,-48 -30,-105 -30,-157 -31,-8 -63,13 -97,-10 -20,-14 -57,-53 -80,-47l-44 -1zm337 -88c-8,11 -14,23 -23,34 -10,14 -25,28 -38,40 -10,8 -28,29 -28,41l1 1c18,5 27,12 40,27 7,8 26,20 31,3 3,-8 0,-25 1,-34 1,-8 2,-20 4,-27 3,-10 9,-19 9,-30 0,-10 4,-16 4,-24 2,-1 1,0 1,-3l-3 -29zm-1240 1159c0,-63 42,-124 53,-185 12,-70 51,-150 104,-200 19,-18 65,-47 43,-73 -31,-37 -57,-77 -71,-123 -8,-26 -132,-18 -98,-71 15,-23 80,-15 83,-46 2,-33 -49,-64 -55,-88 -43,0 -81,103 -132,54 -40,-38 -50,-102 -91,-138 -6,0 -6,2 -7,-3 -32,-5 -22,-59 -64,-29l-102 74c-31,22 -35,61 -75,77 -33,13 -56,12 -88,30l-85 47c-38,21 -72,34 -112,50 -32,13 74,69 81,105 7,35 -8,118 47,118 37,0 88,-13 112,23 28,42 31,51 71,7 16,-17 -22,-63 -26,-88 -1,-10 0,-106 26,-74 16,20 77,140 78,164 4,61 -125,65 -145,88 -12,15 -23,99 17,68 23,-17 82,-72 105,-77 12,36 8,171 -64,141 -29,-12 -72,-33 -60,14 13,50 16,89 16,141 22,39 50,61 55,108 7,57 -69,35 -78,70 53,0 95,35 128,73 12,13 38,24 51,10 22,-23 -26,-80 -11,-120 9,-23 14,-80 47,-77 13,1 12,80 14,94 5,32 10,55 9,88 0,10 -14,57 -10,60 5,3 40,-26 47,-30 48,-28 82,11 80,-70 0,-8 -9,-86 20,-66 29,21 84,69 102,1 11,-42 -11,-92 -4,-135l-7 -16zm-1670 -738c-20,5 -39,8 -60,13 -20,5 -33,4 -51,14 -28,15 -57,25 -70,60 -8,22 -15,46 3,64 39,0 74,-7 112,-16 54,-13 117,-1 151,-57 23,-38 -8,-50 -28,-71 -3,0 -15,-1 -16,-3l-41 -4zm6930 -4919c-43,-10 -54,-77 -85,-100 -11,8 -8,30 -10,44 -7,39 -38,75 -60,107 -44,64 -89,143 -148,194 -10,8 -40,32 -40,44 0,58 25,42 50,7 22,-30 66,-63 94,-88 46,-41 96,-77 142,-115 35,-29 74,-33 85,-80l-28 -13zm83 229c-17,0 -27,5 -41,14 -10,7 -16,12 -24,20 -5,5 -9,14 -13,20 -5,8 -20,35 -7,41 11,5 30,0 40,-6 8,-5 18,-4 26,-9 7,-4 12,-10 20,-11 11,-2 20,-10 28,-19 3,-3 6,-7 9,-10 4,-5 4,-12 9,-16 0,-7 7,-18 4,-24 -5,-11 -10,-11 -21,-13 -2,2 -4,1 -4,3l-24 9zm-6473 7450c-24,46 -58,33 -100,41 -36,7 -7,40 -20,58 -11,16 -38,17 -51,34 -17,23 -10,41 -11,64 -2,27 -41,69 -23,93 33,0 35,-65 65,-84 13,-8 25,-10 36,-23 14,-18 12,-43 31,-56 31,-20 66,-31 88,-61 12,-16 45,-60 30,-80 -6,0 -14,1 -18,4l-27 9zm511 -674c-15,-2 -34,24 -50,30 -22,9 -45,20 -67,30 -18,8 -39,9 -53,24 -20,21 -4,57 -3,86 2,30 26,-3 33,-11 14,-17 30,-40 48,-53 27,-18 50,-29 71,-53 23,-26 41,-23 20,-53zm488 -852c5,-14 13,-81 -3,-87 -10,-4 -28,26 -31,33 -14,27 -20,55 -20,86 0,16 0,35 -1,51 -1,16 -5,28 -1,44l13 0c11,-19 22,-35 28,-56 2,-8 4,-16 6,-24 1,-5 2,-9 3,-14 1,-5 3,-8 4,-13 3,-1 0,-1 3,-1l0 -19zm-168 71c-10,-2 -20,-6 -30,-6l-14 0c-6,0 -8,2 -13,3 -4,6 -12,10 -13,19 -1,11 0,23 1,33 3,16 -3,27 17,27l18 0c7,0 12,1 18,3 21,6 39,1 53,-16 14,-16 -8,-28 -11,-43l-3 -1 -24 -19zm-442 -1558c4,-21 17,-43 17,-64 0,-17 8,-35 17,-48 8,-12 13,-32 13,-47 0,-23 21,-64 -18,-64 -30,0 -22,37 -28,57 -7,20 -10,44 -10,66 0,30 -28,50 -33,80 -2,11 -6,22 -9,33 -3,15 -1,14 9,23 13,0 30,-15 33,-27l10 -7zm-2920 1050c-25,-6 -41,-19 -55,-41 -7,-10 -19,-38 -31,-43 -17,-6 -40,18 -60,20 -21,2 -43,1 -64,1 -21,1 -29,9 -44,14 0,29 42,47 55,70 14,25 15,51 31,73 11,14 32,3 44,-4 26,-16 59,1 85,10 18,6 34,7 53,10 21,3 22,-4 38,-9 0,-23 -20,-42 -20,-68l-33 -33zm129 3364c18,-193 166,-354 166,-552 0,-43 -4,-125 27,-157l0 -6c-2,-2 -2,-2 -4,-3 -2,-4 -38,-30 -44,-36 -21,0 -26,-19 -40,-23 -3,-19 -63,-60 -71,-26 -3,1 -33,42 -46,50 -44,27 -108,-12 -127,50 -35,113 -133,198 -186,302 -27,54 -80,104 -98,162 -16,52 -26,137 -26,192 -5,26 -25,66 -14,91 42,11 47,111 47,144 0,88 121,105 154,175 25,54 -6,130 74,130 20,-35 8,-74 13,-115 9,-77 26,-135 80,-192 37,-39 43,-119 83,-158l13 -30zm-3815 1162c-58,4 -127,30 -178,56 -48,24 -92,-3 -142,-3 -49,0 -133,66 -172,94 -38,28 -74,59 -105,94 -23,26 -61,34 -84,63 0,71 -28,272 36,308 65,36 275,118 344,108 19,-37 43,-64 87,-64 54,0 76,-43 105,-84 26,-6 53,-30 83,-36 20,-36 21,-132 34,-178 15,-52 40,-82 80,-117 72,-62 83,-65 71,-158 -10,-79 -49,-19 -97,-67l-61 -16zm-2384 7173c0,31 8,70 -7,97 -5,9 -41,53 -14,57 13,27 36,27 3,63 -15,16 -46,48 -64,57 0,68 54,99 108,128 59,32 121,11 182,11 18,18 23,172 33,210 19,74 78,107 137,148 28,45 74,102 124,120 53,19 89,-5 129,3 54,11 47,218 155,234 1,3 2,4 4,4 14,58 -4,131 -40,177 -44,56 18,127 -1,192 -15,53 -5,92 11,143 0,81 15,163 6,245 -8,77 -43,154 -55,231 -12,75 -63,-19 -83,-40 -21,-22 -52,-31 -74,-54 -23,-24 -35,-40 -51,3 -13,35 -6,73 -21,104 -62,0 -133,-117 -183,-117 -1,2 -1,1 -3,3l20 174c-88,0 -91,-67 -142,-123 -58,-63 -84,-137 -129,-207l-314 -197c-61,-38 -223,-141 -253,-201 -21,-12 -25,-35 -38,-51 -14,-127 -207,-173 -270,-274 -59,-94 -149,-185 -189,-289 -6,-76 -60,-126 -88,-192 -30,-71 -86,-131 -114,-200 -17,-44 -27,-87 -43,-130 -23,-61 -83,-95 -117,-150 -13,-8 -20,-18 -27,-31 -12,-31 -37,-102 -64,-120 1,-11 -59,-38 -71,-43 -29,-12 -51,-22 -71,-47 -36,-45 -47,-110 -68,-162 0,-75 -23,-118 -65,-178 -43,-60 30,-95 -1,-150 -34,-6 -87,-26 -121,-38 -44,-17 -67,-44 -104,-67 -76,-48 -133,-65 -179,-148 -3,-22 -18,-46 -24,-67 -2,-8 -2,-36 -6,-40 0,-19 -46,-42 -60,-51 -27,-20 -53,-46 -73,-74 -8,-11 -26,-41 -27,-53 -15,-15 -26,-51 -34,-71 -37,-75 -74,-90 -156,-90 -79,0 -95,-67 -149,-121 -33,-33 -107,-79 -127,-115 -53,-24 -142,-186 -168,-242 -11,-30 -47,-148 -14,-168 17,-11 119,3 147,3 47,0 69,44 94,76 88,111 316,-4 405,74 51,6 114,-24 156,-4 39,18 74,82 104,113 3,22 19,48 31,67 11,38 12,54 46,77 30,21 30,59 40,91 23,16 42,47 73,58 18,26 69,37 84,71l139 80c74,42 115,50 178,110 44,42 137,83 166,130 28,32 31,85 60,115 56,60 181,247 277,170 27,0 50,10 68,30 15,16 57,57 60,77 54,59 116,46 188,56 45,6 70,51 118,63 81,20 132,35 189,97 51,55 98,67 165,84 17,21 14,49 37,73l158 165 11 24zm851 792c-6,-30 -17,-50 -31,-77 -21,-37 -12,-108 -70,-91 -72,21 -129,-31 -185,30 -36,39 -106,99 -90,148 46,7 101,-1 146,9 72,14 96,137 129,195 33,58 268,210 334,144 5,-5 4,-111 7,-128 9,-55 -64,-35 -108,-46 -53,-12 -117,-75 -124,-130l-10 -54zm693 207c-18,-7 -35,-12 -53,-20 -25,-11 -72,-51 -101,-30 -17,12 -21,35 -30,51 -16,28 -68,55 -75,80 -2,8 12,33 16,43 8,23 2,49 10,71 27,15 66,-10 100,1 33,11 43,37 82,37 57,0 66,-53 102,-86 42,-37 18,-55 9,-101l-60 -47zm2122 2114c-81,-30 -219,-82 -304,-91 -19,-17 -87,-13 -107,3 -42,4 -78,37 -127,31 -43,-5 -83,-16 -124,-30 -97,-32 -189,21 -277,-16 -48,-20 -134,-14 -128,-14 -65,-16 -136,-16 -198,-46 -48,-23 -105,-44 -156,-61 -126,-42 -239,-99 -378,-87l-222 20c-10,8 -39,13 -51,11 -193,-18 -329,-157 -536,-140 -18,1 -138,-13 -138,-26 0,-56 75,-74 75,-123l-1 -1c-28,-7 -66,9 -97,9 -35,0 -69,-29 -104,-40 -56,-17 -206,1 -233,-47 8,-4 15,-8 20,-17 15,-4 38,-49 60,-58 70,-31 63,-32 81,-104 9,-36 30,-69 48,-103 19,-34 20,-24 54,-10 54,22 136,40 195,44 78,6 89,-6 128,-74 29,-4 86,-2 112,11 53,27 55,107 135,107 28,0 53,11 80,17 41,9 69,-13 110,-13 51,-9 60,48 74,84 47,126 135,62 226,117 61,37 153,6 226,21 135,28 230,57 302,-80 21,-40 61,-88 110,-88 51,0 45,39 55,77 32,19 86,9 124,9 82,8 156,50 239,64 149,25 305,-3 454,16 51,7 236,-21 265,17l0 3c2,3 2,7 0,10 0,105 -190,103 -257,103 -125,0 -163,-6 -235,90l0 14c3,3 4,6 9,7l3 6c84,48 130,85 232,70 78,-12 167,-21 246,-21 28,-3 63,2 82,23 20,23 6,51 6,77 0,37 20,23 43,36 53,29 84,54 149,40 53,-11 52,-54 114,-34 33,11 153,72 148,114 -5,43 -124,25 -139,57 -14,28 6,65 -37,84 -10,5 -39,-47 -50,-60 -32,-40 -65,-66 -117,-71 -32,-3 -47,-14 -73,-33 -14,-10 -37,-50 -50,-53 0,64 16,101 44,154 27,51 -59,3 -80,3l-28 -7zm792 -153c-19,9 -26,1 -44,1 -24,0 -41,21 -57,37 -14,14 -34,24 -38,46 -6,32 5,67 -20,94 -14,16 -58,18 -53,41 11,3 25,19 38,21 41,6 79,21 119,31 18,5 78,23 78,-7 0,-32 -11,-52 14,-77 26,-26 63,-73 53,-111 -2,-8 -46,-75 -48,-76l-43 -1zm427 91c-10,-2 -19,-12 -28,-13 -10,-15 -55,-2 -70,1 -34,8 -100,-34 -119,-14 -11,11 -20,27 -34,31 -26,9 -70,20 -70,54 0,37 16,49 4,91 -8,29 -17,70 24,77 81,14 160,-5 239,-16 46,-6 100,-36 147,-50 27,-8 60,16 81,-13 43,-59 -44,-44 -74,-44 -50,0 -72,-48 -85,-87l-14 -19zm178 -93c-3,-1 -5,-2 -7,-3 -9,-34 -22,-51 -55,-38 -19,7 -86,12 -92,31 -9,30 88,121 117,128 42,10 36,47 63,70 46,39 117,49 172,37 32,-7 60,-28 90,-34 25,-5 62,8 83,-7 0,-3 0,-2 1,-4 -6,-23 -29,-25 -47,-36 -48,-28 -21,-74 -47,-113 -24,-35 -145,12 -176,23 -34,12 -87,1 -110,-29l10 -26zm731 472l-7 0c-5,-20 -56,-18 -68,-34 -16,-22 -32,-70 -55,-27 -21,37 -120,0 -166,11l-135 34c-60,15 -29,41 6,74 32,29 126,37 168,43 84,11 147,72 203,128 58,58 79,53 161,53 32,0 127,-4 127,-53 0,-22 -102,-144 -124,-160 -22,-16 -118,-18 -118,-47l10 -23zm525 -219c-50,17 -101,-11 -151,19 -82,49 -143,20 -225,-4 -114,-34 -277,7 -367,-83 0,-41 123,-93 155,-123 59,-53 109,-58 183,-44 55,27 108,32 158,70 34,26 57,44 100,48 66,7 139,-43 208,-29 20,4 29,18 47,26 11,5 65,10 67,17 25,8 -42,41 -51,44 -8,3 -52,22 -54,29 -13,0 -25,24 -37,24l-33 6zm424 -231c-23,11 -46,21 -70,27 -16,4 -51,12 -61,24 -5,6 -9,12 -13,19 -4,7 -5,19 -6,27 -2,20 -23,30 -23,56 0,31 32,10 46,1 18,-12 36,-24 57,-33 27,-11 148,-31 135,-77 -6,-21 -27,-27 -34,-44 -6,-14 -14,-40 -31,-40 0,11 3,18 3,29 -2,1 -1,2 -1,4l-1 7zm232 0c-8,5 -10,10 -17,16 -10,8 -28,10 -40,16 -12,6 -19,11 -27,23 -6,9 -35,53 -6,56 30,2 53,-23 75,-37 15,-9 36,-15 54,-16 19,-1 49,-11 63,-21 12,-10 6,-31 6,-46l-3 0c-1,-3 -21,-1 -26,-1 -13,0 -25,-7 -37,1l-43 10zm225 -3c-17,5 -25,21 -40,30 -10,6 -23,9 -34,9 -13,13 3,47 3,63 15,11 23,-4 31,-14 13,-15 24,-22 40,-30 4,-2 12,-13 14,-17 3,-6 0,-14 0,-20l-3 -3 -11 -17zm148 -33c-13,-4 -26,-3 -40,0 -12,3 -18,1 -28,1l-1 1c0,14 0,25 -3,38 -7,29 -38,74 17,60 53,-13 103,-20 158,-17 47,3 67,-26 67,-71 -16,-5 -34,-5 -53,-9 -22,-4 -44,0 -65,-4l-51 0zm732 -187c-17,-5 -23,-21 -38,-26 -32,-10 -49,28 -80,31 -27,3 -53,3 -80,-1 -32,-6 -55,-12 -68,19 -12,28 -53,71 -53,103 14,0 29,-6 43,-10 32,-9 71,-1 100,14 25,13 51,23 74,1 31,-29 43,-48 84,-64 16,-7 26,-10 40,-21 15,-12 7,-19 7,-33l-28 -13zm-7993 -3157c-9,0 -18,-1 -27,-1 -13,0 -28,2 -38,9 -10,6 -22,27 -17,38 4,8 21,4 28,3 3,-1 8,1 11,0 7,-2 13,-3 21,-3 9,0 18,3 27,3 5,0 8,0 13,-1 3,-1 7,-3 10,-3 1,-4 7,-4 7,-10 1,-7 -3,-17 -6,-23 -1,-3 -5,-7 -7,-9 -8,-7 -12,-5 -23,-3zm216 130c-9,-20 -16,-47 -21,-68 -4,0 -17,8 -23,10 -14,5 -70,2 -71,19 -1,15 19,33 27,44 9,11 16,23 23,36 10,17 15,34 37,36 13,1 27,-3 41,-3 1,-4 3,-5 3,-11 -1,-9 -4,-17 -4,-27l0 -14c0,-4 4,-13 0,-4l-11 -16zm-21 522c-7,-13 -17,-35 -34,-33 -10,1 -22,1 -33,1 -16,0 -25,-2 -37,10 0,9 4,15 9,23 8,14 18,26 28,38 7,9 18,13 26,20 11,0 21,5 31,-3 13,-9 8,-24 17,-36l-7 -21zm24 -93c-9,5 -8,6 -17,4 -18,-4 -40,-18 -43,-38 -1,-13 -1,-25 -1,-38 0,-5 0,-11 0,-16 0,-4 3,-7 4,-11 6,0 9,-2 16,1 17,8 29,14 48,10 7,-1 16,-3 20,4 3,6 3,13 3,20 0,15 -8,23 -13,36 -3,8 -11,15 -11,24l-6 4zm3732 -1856c23,0 38,32 53,1 4,-9 31,-37 31,-41 5,-40 -68,-67 -53,-94 15,-26 51,-29 67,-60 19,-36 59,18 94,4 25,-10 89,-169 105,-201 52,-101 149,-156 196,-262 6,-12 18,-71 28,-71 32,0 40,129 47,151 29,-22 52,-64 64,-98 24,-71 31,-40 77,-19 11,20 14,71 24,81 24,0 56,-7 81,-11 19,-3 52,89 60,105 16,34 49,88 83,107 16,79 108,63 156,97 25,18 53,40 73,64 23,29 69,44 88,71 42,26 73,23 121,23 0,34 35,87 -4,113 -27,17 -73,26 -105,34 -30,8 -57,26 -90,33 -35,7 -74,-26 -101,-14 -29,13 -61,25 -90,34 32,32 50,74 101,80 16,2 97,0 104,11 28,50 40,101 -36,101 -65,0 -126,8 -182,40 -53,-12 -112,-78 -164,-78 0,1 -3,4 -4,4 0,53 -58,63 -58,88 -3,1 -2,5 -6,6 -4,16 -47,25 -31,54 4,7 50,45 58,47 0,49 -62,14 -80,21 -11,5 -14,33 -33,43 -19,9 -47,9 -67,14 0,2 -1,2 -1,4 85,64 85,92 108,190 11,45 45,97 50,137 2,21 -26,58 -13,76 29,37 -12,117 6,130 23,17 68,13 97,30 23,14 77,65 91,87 31,55 135,140 195,157 50,14 44,57 80,73 16,7 91,33 95,48 27,14 -34,41 -41,43 -59,14 -123,-5 -183,3 -28,4 -52,7 -77,-4 -12,-5 -43,-39 -51,-33 0,85 -88,33 -102,113 -10,55 -66,88 -68,145 -2,34 -24,168 -13,188 27,46 -78,131 -78,187 -14,34 -45,49 -61,80 -15,29 -38,70 -67,87 -18,11 -33,-64 -38,-86 -2,1 -7,65 -11,83 -10,41 -97,60 -80,95 16,32 -3,54 -26,77 -18,18 -77,128 -51,140 64,28 86,38 70,123 -22,6 -87,-8 -67,38 12,27 18,51 18,83 -8,11 -15,18 -20,30 -1,4 -4,8 -4,11 0,4 -1,8 -3,11 -2,5 -4,24 -9,26 0,8 -4,17 -4,26 0,8 1,15 1,23 52,69 54,210 -4,281 -12,15 -9,40 -21,51 -42,37 -64,-195 -84,-221 -35,0 -74,78 -112,93 -115,44 -258,155 -378,155l10 -165c8,-127 -38,-60 -127,-83 -35,-9 -51,2 -82,17 -44,21 -80,4 -119,-14 -52,-63 -157,-50 -182,-153 -16,0 -88,78 -118,91 -22,10 -62,50 -87,36 -77,-46 -77,-79 -161,-9 -13,11 -118,84 -117,34 2,-56 15,-104 1,-161 -4,-19 -6,-74 -30,-41 -59,81 -51,19 -104,1 -47,-16 -85,38 -124,56 -65,-44 -103,16 -169,-21 -54,-30 -130,69 -138,-40l-16 -208c-4,-54 -7,-82 -44,-120 -15,-15 -27,-37 -37,-56 -11,-20 34,-28 40,-64 4,-27 -3,-167 -28,-167 -82,0 -95,136 -182,57 -19,-17 -79,-22 -55,-57 37,-55 10,-52 -4,-110l-1 -1c-20,-54 -82,-113 -82,-171 0,-40 33,-118 18,-148 -10,-21 -40,-31 -53,-51 -32,-52 -41,-238 -4,-285 6,-46 -32,-78 -6,-124 28,-50 62,-84 77,-145 59,-78 46,-123 154,-88 55,18 107,9 159,38 59,33 124,79 192,91 52,9 127,77 165,77 0,-76 60,-94 60,-175 0,-73 54,-103 111,-131 0,-59 -47,-173 55,-182 126,-11 260,-96 385,-96 72,-9 93,-69 137,-114l179 -187 104 -110c35,-37 52,-79 81,-115 94,-13 107,-24 181,-86 57,-48 102,-57 172,-67l40 -10zm2940 5353c-36,8 -50,91 1,80 70,-15 98,-62 183,-58 145,6 211,-150 314,-232 55,-45 172,-119 238,-134 111,-26 222,-66 319,-120 58,-32 238,-93 256,-167 -253,0 -503,70 -755,70 -19,78 -91,147 -165,180 -131,58 -223,69 -336,165 -45,38 -33,146 -33,198l-23 19zm2917 -1100c-32,26 -79,21 -118,21 -21,0 -26,36 -34,53 -19,40 -69,69 -100,100 -26,26 -60,58 -88,77 0,6 22,17 28,21 28,20 49,109 94,91 23,-9 28,-38 43,-56 28,-33 90,-77 92,-124 2,-46 -6,-160 70,-131 16,6 35,21 46,-3 8,-19 13,-37 9,-56 -5,-1 -6,-3 -11,-3l-30 9zm-806 242l60 10c11,4 20,6 27,16 10,13 11,25 11,43 0,6 1,11 -3,16 -4,5 -8,8 -13,13 -16,14 -37,22 -51,4 -13,-17 -40,-18 -60,-23 -1,-4 -4,-6 -4,-11 0,-10 0,-19 3,-29 8,-27 4,-24 30,-38zm1789 -660c4,-8 23,-68 11,-71l0 -3 -17 -4c-2,-8 -18,-30 -26,-31 -16,-3 -17,7 -24,19 -6,10 -19,14 -26,24 -13,20 -24,52 -13,74 3,7 15,31 11,38 -5,10 -55,31 -30,46 8,4 48,34 50,41 11,3 8,38 31,20 14,-10 18,-29 33,-40 26,-19 8,-22 -7,-44 -7,-10 -20,-51 0,-56l6 -13zm-57 164c-15,5 -18,6 -27,20 -13,19 -26,31 -46,7 -10,-13 -34,-57 -50,-57 0,27 19,51 14,80 -6,33 -48,7 -46,54 1,25 27,72 43,88 19,19 36,-22 43,-36 10,-21 23,-44 38,-60 13,-14 31,-12 36,-31 3,-10 2,-18 1,-29 0,-6 3,-30 3,-30l-10 -7zm-2755 -1135c-46,0 -84,-2 -128,9 -21,5 -35,13 -58,13 -26,0 -46,-2 -70,11 -7,30 28,50 34,76 25,18 35,48 67,63 28,13 57,32 83,50 16,62 134,12 168,-1 29,-12 67,-20 92,-34 21,-12 34,-51 16,-70 -34,0 -80,-4 -85,-47 -3,-29 -19,-66 -53,-66l-65 -3zm579 -105c-41,31 -66,-9 -84,61 -2,1 -3,1 -6,1 -7,21 -93,39 -110,54 -6,5 43,36 38,74 -2,12 -9,89 16,60 15,-17 81,-144 101,-104 13,25 61,52 67,68 54,8 62,19 100,-21 21,-22 50,-67 78,-36 31,34 70,33 115,33 42,0 67,8 102,30 33,21 39,-31 63,-38 48,-16 252,107 296,138 13,9 106,74 108,44 3,-52 5,-107 -7,-155 -31,-8 -66,20 -74,-26 -15,-85 -16,-114 -108,-114 -58,0 -120,-4 -171,-34 -32,-19 -83,-57 -122,-57 -62,0 -70,65 -142,23 -30,-18 -129,-11 -166,-11l-94 10zm639 -445c-22,7 -38,30 -60,40 -27,13 -96,48 -48,83 18,13 23,12 44,16 33,5 67,10 100,17 14,3 49,12 60,0 9,-10 2,-35 -1,-47 -8,-28 -10,-57 -16,-86 -4,-21 -12,-39 -17,-58 -13,0 -13,8 -20,17l-41 19zm-687 693c-3,1 -6,1 -9,1 -1,2 -29,15 -34,16 -12,2 -22,13 -33,17 -7,3 -23,14 -27,20 -16,29 22,27 41,24 12,-2 24,-2 34,-9 16,-10 30,-15 44,-27 8,-7 22,-8 31,-13 7,-4 25,-21 17,-30 -4,-5 -9,-10 -16,-10 -8,-1 -13,3 -20,3l-1 1 -28 6zm-1374 -653l0 145c2,1 1,1 3,3 145,0 281,-53 430,-53 67,0 131,-13 198,-13 18,0 121,-1 121,-19 -53,-32 -117,-28 -179,-36 -111,-13 -224,-4 -334,-16 -68,-7 -131,-43 -203,-29l-34 16zm589 184c-2,-10 -2,-22 -3,-31 0,-7 -1,-16 -1,-23 -4,-1 -6,-6 -10,-7 -5,-2 -28,-5 -34,-3 -18,7 4,54 9,67 3,9 5,19 7,29 5,24 20,46 43,54 11,4 12,-9 10,-17 -3,-15 -14,-29 -14,-44l-6 -24zm673 -259c-18,-8 -34,-27 -46,-43 -12,-16 -27,-51 -50,-51 0,21 -4,40 -24,48 -14,6 -30,15 -46,16 -47,4 0,23 0,44 0,27 -6,62 13,83 20,22 40,7 64,1 28,-7 80,-8 108,0 15,4 39,9 55,9 20,-1 28,-20 40,-23 0,-21 -48,-65 -64,-77l-51 -7zm-91 -368c-5,-18 -19,-26 -24,-40 -20,0 -36,19 -55,11 -15,-6 -109,-103 -125,-54 -8,24 18,57 28,76 10,19 17,38 41,44 5,21 -26,56 18,58 37,2 44,3 67,30 24,28 103,41 138,29 28,-10 22,-30 0,-43 -10,-6 -55,-29 -64,-30 -5,-10 -14,-11 -17,-23 -2,-9 -1,-26 -1,-36l-6 -23zm107 -909c-67,21 -121,159 -135,221 -21,88 -34,124 -13,210 3,1 9,8 10,11 3,1 2,0 3,3 3,1 2,0 3,3 6,1 10,10 16,11 12,50 -14,96 3,150 18,57 46,33 30,104 -17,78 25,125 63,184 38,60 7,117 108,117 0,-46 -65,-133 -84,-181 -13,-33 -39,-317 41,-242 40,37 81,21 127,31 20,5 69,50 78,43 12,-9 8,-99 -9,-103 -41,-9 -241,-65 -111,-111 28,-10 162,-62 151,-94 -8,-23 -5,-150 -36,-130 -46,31 -105,42 -155,63 -24,10 31,94 -18,94 -32,0 -65,-13 -65,34 0,68 -53,82 -83,20 -36,-76 20,-27 50,-83 20,-38 70,-178 27,-210 -84,-63 25,-73 10,-134l-10 -11zm223 -156c-17,-4 -38,3 -51,15 -15,14 -19,24 -28,41 -8,15 -18,22 -24,41 -3,11 -1,20 -3,31 -2,18 -16,66 12,66 22,0 42,-9 65,-7 51,5 41,-29 41,-65 0,-30 5,-59 5,-90l-1 -1 -17 -31zm-2223 2213c25,16 54,30 78,47 26,18 35,30 51,57 30,48 86,33 111,90 10,22 -29,67 -46,77 -14,35 -41,-1 -63,-9 -10,-18 -79,13 -102,14 -56,3 -74,22 -90,77 -5,16 -10,94 -31,90 -42,-9 -64,-43 -115,-47 -79,-7 -55,-20 -58,-76 -4,-65 21,-113 21,-174 -36,-12 -70,-57 -102,-80 -52,-36 -102,-60 -149,-107 -30,-30 33,-61 53,-81 36,-39 23,-107 21,-158 -2,-55 -72,-119 -128,-86l-107 64c-43,26 -49,74 -27,121 27,57 40,50 40,128 0,90 6,226 -20,309 -18,49 39,115 16,157 -72,14 -36,154 -9,195 59,89 -42,68 -102,68 -49,0 -114,41 -155,31 -58,-14 -100,-105 -100,-160 0,-53 48,-95 37,-144 -12,-56 18,-91 33,-144 13,-45 11,-82 7,-127 -4,-46 -45,-89 -47,-131 -1,-19 14,-49 7,-63 -27,-53 -159,19 -198,19 -8,-30 -12,-69 -24,-101 -20,-53 -4,-96 -14,-145 -6,-30 -24,-35 -24,-73 27,-27 75,-21 105,-43 22,-16 37,-86 40,-113 1,-10 2,-57 11,-60 2,-9 23,-10 30,-17 14,-15 10,-45 10,-64 0,-46 7,-96 3,-141 -2,-25 -14,-44 0,-68 12,-21 43,-54 60,-73 34,-40 30,-75 80,-107 22,-27 22,-173 1,-201 -6,-8 -27,-25 -14,-36 16,-14 42,20 54,9 22,-19 27,-74 27,-103 0,-35 -23,-90 36,-97 17,-34 11,-64 48,-84 46,-25 31,-50 48,-93 7,-17 27,29 31,36 20,31 10,44 57,41 41,-3 63,-88 94,-114 11,-24 17,-59 23,-84 34,0 66,19 100,26 27,5 56,-7 84,-3 5,32 39,68 73,68 39,0 83,-2 121,4 80,12 194,8 267,38 17,7 41,27 60,27 28,0 44,-23 70,-21 78,-29 199,15 275,30 95,18 128,-53 196,-95 46,-29 54,-94 101,-103 66,-12 84,-123 129,-123 23,24 44,83 74,93l-9 21c-70,17 -69,103 -124,147 -62,50 -83,109 -112,178 -23,55 -235,87 -297,87 -50,0 -149,18 -183,-19 -19,-20 -72,-95 -111,-57 -50,4 -97,4 -148,4 -44,0 -83,32 -128,37 -34,3 -67,4 -100,-7 -40,-13 -77,-43 -121,-31 -26,7 -71,20 -92,34 -7,1 -12,4 -20,4l-9 4c-35,0 -59,1 -91,-16l-10 -13c-8,-3 -16,-4 -23,-9l-6 0c-24,-15 -64,-24 -94,-24 -14,8 -35,10 -51,19 -14,8 -23,21 -37,29l-38 73c-55,104 -13,244 -13,355 47,26 152,31 175,80 13,29 13,85 41,104 18,12 65,20 90,30 81,32 161,-228 229,-228 0,72 80,83 138,58 38,-16 37,-57 85,-57 50,0 90,-13 138,-19 50,20 45,5 65,-34 13,-24 128,-29 155,-27 66,4 87,184 16,184 -58,0 -57,-81 -139,-50 -39,15 -78,69 -102,101 -58,78 -134,144 -229,175 -42,14 -67,51 -101,61 -30,9 -60,-9 -92,-1 -1,3 0,2 -3,3l0 7c31,8 113,102 138,128 48,51 83,128 104,194 25,10 43,28 64,44 22,17 69,31 43,67 -10,14 -28,30 -43,38 -18,11 -18,17 -30,31 0,13 -4,27 -3,41 2,18 7,39 7,57l14 23zm323 302c-17,-17 -55,-69 -81,-43 -16,16 -21,44 -17,67 6,37 -33,237 -84,237 -8,-32 17,-80 18,-114 2,-44 9,-81 -1,-124 -18,-4 -29,9 -43,20 -24,20 -104,20 -104,51 0,43 10,60 -7,104 -48,125 56,50 84,120 9,23 45,118 73,118 17,0 58,-93 80,-108 25,-18 65,-11 85,-31 12,-12 -11,-31 -20,-40 -26,-26 -40,-85 -14,-115 13,-16 61,-22 81,-26 3,-20 -30,-63 -34,-91l-16 -24zm-1 -195c-16,0 -26,4 -43,0 -7,-2 -13,-5 -20,-6 -7,0 -9,2 -14,3 -4,18 16,28 24,41 5,8 8,14 9,24 0,5 0,12 1,17 1,5 5,8 6,13 10,0 9,1 20,-4 11,-6 20,-11 33,-11 5,0 9,-1 13,-1 6,0 8,-3 11,-4 3,-11 -3,-17 -9,-27 -4,-6 -10,-28 -16,-30l-16 -14zm-395 422c-19,-19 -34,-47 -58,-53 -11,8 -18,21 -26,33 -4,7 -14,16 -16,24 -2,12 3,15 6,23 21,10 32,32 43,53 9,17 12,46 36,46 11,-11 11,-25 11,-40 1,-16 5,-35 9,-50l-4 -36zm408 -1411c-15,0 -23,-7 -37,-10 -15,-3 -40,2 -55,4 -29,4 -38,41 -41,66 -1,10 -6,56 6,58 12,2 36,-23 47,-29 17,-10 45,-33 64,-34 21,-2 16,43 20,57 12,0 23,-14 36,-17 31,-8 57,19 73,41 5,8 38,61 40,19 1,-29 -10,-52 -16,-80 -7,-33 -8,-42 -43,-47 -15,-2 -40,1 -51,-10l-41 -19zm2732 -419c-24,2 -48,-1 -73,-1 -36,0 -196,40 -196,80 18,18 70,27 95,36 42,15 17,42 17,74l6 6c27,0 57,-18 78,-33 64,-46 189,-1 233,-54 0,-50 -83,-95 -121,-114l-40 7zm11 465c5,-21 11,-44 18,-66 6,-18 18,-36 18,-56l-3 -3c-10,0 -16,0 -27,1 -16,3 -29,0 -44,-6 -26,-10 -43,-7 -38,26 1,9 2,19 3,29 3,21 2,44 -1,64 -2,10 -13,47 3,47 20,0 33,-9 50,-19l21 -19zm1836 118c-18,8 -57,-6 -77,-9 -40,-5 -69,-14 -105,4 0,40 139,63 168,84 40,29 54,14 97,-4 28,-12 59,-17 85,-26 0,-20 -128,-37 -149,-43l-18 -7zm-73 -292c-20,-6 -34,-25 -53,-31 -20,-7 -33,-6 -54,-1 -40,8 -64,-62 -74,16 -3,26 58,26 75,37 33,21 -4,117 60,107 14,-2 26,-6 40,-7 24,-3 112,21 118,-9 -27,-27 -59,-45 -78,-78l-34 -33zm-3210 -1780c6,-20 1,-40 -1,-60 -4,-29 -12,-51 -40,-61 -26,-9 -47,5 -48,31 0,6 4,11 7,16 13,22 13,52 14,77 1,20 11,37 31,34 5,-8 12,-13 16,-21l21 -16zm-2631 -221c-25,-14 -46,6 -50,31 -4,26 -3,55 7,78 13,3 18,5 33,0 20,-7 36,-16 48,-33 6,-8 0,-21 -3,-30 -3,-10 -6,-24 -6,-34l-30 -13zm272 -157c-39,11 -79,32 -114,53 -8,5 -27,19 -21,31 8,19 60,-2 60,19 0,9 -26,56 -6,56 15,0 38,-29 50,-38 30,-25 52,-14 85,-24 16,-5 53,-20 53,-40 -10,-3 -26,-20 -38,-26 -11,-5 -31,-19 -34,-30l-34 0zm256 -98c-6,0 -16,-1 -21,0 -7,1 -12,1 -18,4 -18,10 -32,41 -16,57 11,2 16,-1 24,-9 2,-2 5,-3 7,-4 4,-2 5,-5 10,-7 3,-1 5,-1 7,-3l7 0c2,-2 6,-3 9,-4 5,-3 8,-9 10,-14 1,-4 8,-19 4,-20l-23 0zm98 -187c-21,10 -43,2 -64,9 -43,13 -33,93 13,80 26,-7 47,-17 74,-17 22,0 36,-7 53,-20 1,-3 1,-4 3,-6 0,-40 -31,-32 -54,-50l-24 4zm333 -221c-35,0 -67,-3 -92,26 -22,25 -25,60 -9,90 13,23 38,9 53,-4 9,-8 38,-19 50,-21 13,-3 28,-7 41,-9 13,-2 29,-2 26,-19 -2,-11 -21,-38 -33,-41l-1 -3 -34 -19zm3761 4361c-7,-9 -7,-16 -11,-26 -3,-7 -4,-13 -10,-19 -6,-6 -15,-16 -23,-6 -6,9 -12,24 -11,36 1,11 3,19 3,30 -1,14 5,97 20,95 13,-1 21,-28 23,-38 4,-24 7,-48 10,-73zm-5221 -5141c19,-33 40,-93 85,-93 50,0 78,-4 102,-53 12,-24 36,-37 48,-58 3,-1 13,-8 17,-10 18,-39 13,-126 37,-151 27,-29 88,17 125,-9 62,-43 47,-119 134,-131 29,-4 29,-33 51,-41 15,-6 31,8 50,0 37,-15 -44,-31 -55,-38 -17,-10 -56,-135 -38,-147 70,-47 -1,-73 -23,-140l-6 0c-8,32 1,81 -36,98 -84,40 -12,119 -38,191 -33,89 -61,22 -110,53 -20,13 -43,59 -60,80l-257 321c-51,11 -85,26 -121,63l-71 73c-34,35 -77,61 -102,104 -29,49 -43,86 -43,145 10,7 65,-59 73,-67 33,-36 83,-66 124,-91 39,-24 60,-50 94,-77l20 -21zm1916 507c-23,-152 130,-81 195,-30 81,65 125,77 44,158 -64,64 -51,64 -30,145 35,134 39,187 172,261 62,35 205,111 235,-7 3,-1 5,-1 9,-1 0,40 -8,62 1,98 6,2 12,19 21,21 2,9 26,38 31,53 46,0 153,-191 105,-251 -31,-38 -105,-156 -95,-204 14,-68 51,-73 105,-73 12,0 -1,-104 37,-90 25,10 74,147 75,177 1,27 26,180 47,180 18,-91 8,-195 100,-247 101,-57 31,-165 31,-252 -25,-93 -16,-188 -30,-284 -4,-29 -166,-25 -74,-80 61,-36 69,-55 16,-100 -31,-26 -32,-71 -57,-104 -31,-42 -86,-83 -131,-110 -26,-15 -75,-91 -100,-91 0,76 22,159 37,232 6,32 3,89 -43,87 -40,-2 -53,-56 -74,-61 0,81 -21,133 -90,58 -16,-17 -73,-53 -68,-6 5,52 1,84 -3,135 -8,97 -71,20 -107,-20 -21,-23 -70,115 -84,140 -121,109 -115,-35 -166,-105 -20,-27 -51,-27 -78,-44 -45,-28 -36,15 -67,37 -56,40 -123,-54 -115,71 9,154 -171,38 -259,125 -66,66 -50,187 -95,264 -34,57 -45,88 14,135 34,28 75,-90 83,-110 23,-59 60,-175 138,-175 55,0 46,110 57,154 68,0 55,-141 107,-141 5,15 42,102 58,108 1,3 0,2 3,3 1,2 7,4 10,4 2,-7 34,-45 34,-63zm344 -928c-42,-10 -71,-36 -102,19 -9,1 -41,29 -51,36 -23,16 -80,29 -64,66 15,34 -11,38 -11,74l1 1c22,0 40,-7 64,-7 37,0 84,10 117,-7 28,-14 71,-21 101,-29 1,-3 1,0 1,-3 17,-4 13,-112 13,-131 -2,-1 -2,-3 -6,-4l-1 -3c-9,0 -18,-3 -26,-3l-36 -9zm-152 -413c-29,125 -75,253 -148,361 -66,98 -70,169 -70,285 2,1 1,1 3,3 17,-4 74,-150 85,-174 19,-41 35,-69 73,-91 62,-37 70,-121 70,-191 0,-24 19,-146 9,-161l-21 -31zm-286 510c0,-59 59,-139 80,-194 20,-53 63,-126 63,-181 -54,-18 -126,-28 -179,-1 -58,29 -36,72 -50,125 -6,24 -20,42 -26,68 -18,91 17,137 -107,137 -126,0 -26,113 -14,168 34,31 72,42 114,53 8,31 19,56 33,86 12,24 41,35 64,29 52,-15 70,-36 55,-91 -6,-22 -19,-41 -28,-60 -11,-22 -16,-52 -16,-77l11 -61zm-414 -218c52,-28 57,-83 129,-88 42,-3 28,79 36,108l3 0c1,3 57,-16 68,-26 32,-29 7,-121 41,-167 16,-21 93,-80 115,-86 7,-52 13,-101 13,-155 -17,-6 -28,12 -47,16 -49,10 -67,-43 -112,-7 -54,43 -105,-78 -166,-81 -38,-2 -86,-42 -121,-38 -13,1 12,31 14,36 18,38 49,74 58,114 6,26 -20,70 -24,97 -8,47 -1,107 -21,150 -17,36 -20,58 -10,97l24 31zm511 -733c-17,-12 -41,-33 -63,-33 -7,30 0,59 -6,90 -5,24 -8,68 -24,88 -20,25 -33,114 14,50 16,-21 62,-69 87,-76 26,-7 80,71 100,88 25,22 82,53 112,46 0,-41 -23,-98 -48,-131 -23,-31 -93,-93 -132,-93l-40 -30zm555 574c8,-22 -1,-60 -1,-84 0,-23 9,-37 11,-57 55,-9 33,32 75,50 38,16 72,-9 114,11 18,9 42,34 60,30 0,-16 -26,-49 -31,-70 -7,-28 -28,-52 -41,-76 -23,-39 -38,-123 -46,-170 -6,-36 31,-87 14,-113 -25,-38 -75,-76 -92,-118 -36,-5 -83,16 -122,23 -46,8 -104,1 -151,-1 -17,-1 -64,-28 -44,11 20,40 33,80 63,114 18,20 92,73 97,91 2,1 5,2 7,3 3,6 12,19 13,26 12,7 50,45 26,54 -40,14 -28,45 -23,78 13,83 -105,57 -94,3 6,-28 35,-105 -10,-111 -28,-4 -53,7 -68,31 -11,18 -7,24 1,44 17,38 26,86 34,127 7,32 -13,83 9,110 19,0 56,-45 67,-26 18,33 41,67 58,101 -23,34 -27,59 -27,100 0,47 30,82 54,118 14,20 20,2 26,-13 5,-12 5,-24 10,-36 3,-8 11,-20 13,-27 19,0 26,60 57,60 45,0 14,-104 3,-123 -11,-19 -20,-37 -30,-57 -4,-8 -30,-56 -20,-60l-10 -46zm-1321 -904c-52,-24 -116,-17 -172,-29l-83 -17c-32,-7 -62,19 -88,19 -3,4 -1,5 0,9 13,7 29,23 46,31 84,45 121,71 127,170 4,71 65,97 74,158 31,15 10,129 44,118 20,-6 48,-33 65,-46 45,-31 64,-11 75,-76 5,-29 -20,-61 -16,-86 7,-38 32,-105 11,-141 -8,-15 -26,-23 -31,-38 -5,-15 -16,-41 -26,-53l-27 -20zm270 -53c-20,0 -65,3 -74,26 -7,18 4,30 16,44 11,14 13,28 20,44 14,33 30,1 41,-14 6,-9 11,-13 21,-14 9,-1 14,-6 20,-11 0,-12 -3,-14 -9,-24 -3,-5 -13,-34 -13,-33l-23 -17zm-671 477c-17,4 -31,-13 -43,-23 -10,-9 -25,-22 -30,-4 -4,15 -3,30 -7,46 -3,11 -8,38 -1,48 4,6 28,11 36,13 23,7 44,22 65,34 15,9 30,17 47,10 17,-7 48,-31 24,-48 -11,-8 -21,-24 -30,-36 -6,-8 -28,-27 -30,-34 -3,0 -2,1 -3,-1l-28 -4zm1025 -656c-47,-47 -94,-124 -169,-124 -83,0 -101,180 -166,171 -32,-5 -85,-73 -102,-100 -40,-60 -54,-120 -40,-190 7,-36 -74,-182 -110,-202 -4,-22 5,-26 10,-47 31,-19 50,-59 70,-88 21,-31 -1,-61 26,-87 35,-70 61,-87 137,-98 81,-12 55,-65 90,-125 43,-74 140,-244 30,-298 -57,-28 -74,-190 -77,-248 -2,-55 35,-79 46,-125 5,-22 -32,-123 -51,-123 -63,255 -333,-17 -485,-17 -50,0 -75,117 -101,157 -14,22 -69,226 -64,247 15,59 46,86 46,154 -6,20 -3,40 -14,57 -43,66 -40,136 -10,207 15,36 23,60 23,100 0,15 -2,24 -6,37 -3,12 -15,19 -17,27 -14,4 -21,15 -36,-1 -20,-22 -44,-59 -54,-87 -6,-18 -31,-80 -51,-80 -80,4 -84,117 -71,180 13,61 49,104 57,174 9,82 113,401 220,401l0 -3c16,-5 22,-127 88,-127 28,0 53,53 53,77 0,37 -107,75 -128,107 -15,22 6,123 13,151 50,0 47,-55 107,10 65,71 135,113 203,9 32,-48 69,-54 119,-33 35,14 98,81 121,84 46,34 70,43 100,95 11,20 8,74 30,84 23,10 47,-14 48,-37 3,-41 -45,-78 -58,-121 -8,-27 -4,-95 3,-121l6 0c8,15 43,34 57,46 37,31 70,70 107,103 29,26 75,52 82,90 21,100 55,93 135,138l58 33c35,20 39,72 85,90 18,7 15,-112 13,-128 -9,-74 -54,-115 -108,-165 -10,-10 -88,-112 -88,-121 45,0 87,-3 131,-14 0,-26 -44,-60 -68,-63 -46,-5 -59,-16 -95,-44 -52,-40 -36,48 -64,76 -26,26 -59,-46 -64,-64l-13 -19zm478 74c-6,-10 -9,-20 -14,-31 -9,-17 -29,-47 -47,-54 -48,-18 -36,51 -44,80 -10,35 -6,74 -6,110 14,14 25,6 43,3 15,-3 33,-4 48,-4 15,-15 16,-47 16,-70l4 -33z"/>
  <polygon class="fil2 str1" points="1596,1232 4067,1232 4067,2825 1596,2825 "/>
  <path class="fil3" d="M1198 2963c0,-17 4,-34 13,-51 9,-17 22,-30 38,-39 17,-9 34,-14 52,-14 18,0 35,5 52,14 17,9 29,22 39,38 9,17 14,34 14,52 0,18 -5,35 -14,52 -9,17 -22,29 -39,39 -17,9 -34,14 -52,14 -18,0 -35,-5 -52,-14 -17,-9 -30,-22 -38,-39 -9,-17 -13,-34 -13,-51zm17 0c0,15 4,29 11,43 7,14 18,25 32,32 14,8 28,12 43,12 15,0 29,-4 43,-12 14,-8 24,-18 32,-32 8,-14 12,-28 12,-43 0,-15 -4,-29 -12,-43 -8,-14 -18,-25 -32,-32 -14,-8 -28,-11 -43,-11 -15,0 -30,4 -43,12 -14,8 -25,19 -32,32 -7,14 -11,28 -11,43zm104 -33l5 -17c12,3 21,9 28,18 7,9 10,20 10,33 0,16 -5,29 -16,39 -10,10 -25,15 -44,15 -12,0 -23,-2 -32,-7 -9,-5 -16,-11 -20,-20 -5,-9 -7,-18 -7,-29 0,-12 3,-22 9,-30 6,-8 14,-14 24,-17l4 16c-7,3 -12,7 -16,12 -4,5 -6,12 -6,19 0,11 4,19 11,26 8,7 18,10 32,10 14,0 25,-3 32,-10 7,-6 11,-15 11,-25 0,-8 -2,-16 -7,-22 -5,-6 -11,-10 -20,-12z"/>
  <path id="1" class="fil3" d="M1404 2668l-19 0c14,9 22,23 22,41 0,12 -3,22 -10,32 -6,10 -15,17 -27,23 -12,5 -25,8 -40,8 -15,0 -28,-2 -40,-7 -12,-5 -21,-12 -27,-22 -6,-10 -10,-21 -10,-33 0,-9 2,-17 6,-24 4,-7 9,-12 15,-17l-73 0 0 -25 202 0 0 23zm-73 78c19,0 33,-4 42,-12 9,-8 14,-17 14,-28 0,-11 -4,-20 -13,-28 -9,-8 -22,-11 -41,-11 -20,0 -35,4 -44,12 -9,8 -14,17 -14,29 0,11 4,20 13,28 9,7 23,11 42,11z"/>
  <polygon id="2" class="fil3" points="1343,2616 1318,2616 1318,2539 1343,2539 "/>
  <path id="3" class="fil3" d="M1404 2512l-146 0 0 -22 21 0c-7,-5 -13,-11 -17,-18 -4,-8 -7,-16 -7,-26 0,-11 2,-20 7,-27 5,-7 11,-12 19,-15 -17,-12 -26,-27 -26,-45 0,-15 4,-26 12,-34 8,-8 20,-12 37,-12l100 0 0 25 -92 0c-10,0 -17,1 -21,2 -4,2 -8,5 -11,9 -3,4 -4,9 -4,15 0,10 3,19 10,26 7,7 18,10 33,10l85 0 0 25 -95 0c-11,0 -19,2 -25,6 -6,4 -8,11 -8,20 0,7 2,13 6,19 4,6 9,10 16,13 7,3 17,4 31,4l76 0 0 25z"/>
  <path id="4" class="fil3" d="M1385 2181c8,9 13,18 17,27 3,9 5,18 5,27 0,16 -4,28 -12,37 -8,9 -18,13 -30,13 -7,0 -14,-2 -20,-5 -6,-3 -11,-8 -14,-13 -4,-5 -6,-11 -8,-18 -1,-5 -2,-12 -4,-22 -2,-20 -5,-35 -9,-44 -3,0 -6,0 -6,0 -10,0 -17,2 -21,7 -6,6 -8,16 -8,28 0,12 2,20 6,26 4,6 11,10 22,12l-3 24c-10,-2 -19,-6 -25,-11 -6,-5 -11,-12 -15,-22 -3,-10 -5,-21 -5,-33 0,-13 1,-23 4,-31 3,-8 7,-14 11,-17 4,-4 10,-6 17,-8 4,-1 12,-1 23,-1l33 0c23,0 38,-1 44,-2 6,-1 12,-3 18,-6l0 26c-5,3 -11,4 -18,5zm-55 2c4,9 7,23 9,41 1,10 3,17 5,22 2,4 5,7 8,10 4,2 7,3 12,3 7,0 12,-2 16,-8 4,-5 7,-12 7,-22 0,-10 -2,-18 -6,-26 -4,-7 -10,-13 -17,-16 -6,-3 -14,-4 -25,-4l-9 0z"/>
  <path id="5" class="fil3" d="M1460 2120l-203 0 0 -23 19 0c-7,-5 -13,-11 -17,-18 -4,-7 -6,-15 -6,-24 0,-13 3,-24 10,-33 6,-10 15,-17 27,-22 12,-5 25,-7 38,-7 15,0 28,3 40,8 12,5 21,13 28,23 6,10 10,21 10,32 0,8 -2,16 -5,22 -3,7 -8,12 -13,16l71 0 0 25zm-129 -23c19,0 33,-4 42,-11 9,-8 13,-17 13,-28 0,-11 -5,-20 -14,-28 -9,-8 -24,-12 -43,-12 -19,0 -33,4 -42,11 -9,8 -14,17 -14,27 0,11 5,20 15,28 10,8 24,12 43,12z"/>
  <path id="6" class="fil3" d="M1360 1973l-4 -25c10,-1 17,-5 23,-12 5,-6 8,-15 8,-26 0,-11 -2,-20 -7,-25 -5,-6 -10,-8 -16,-8 -6,0 -10,3 -13,7 -2,3 -5,12 -8,25 -5,18 -9,31 -12,38 -3,7 -8,12 -14,16 -6,4 -12,5 -20,5 -7,0 -13,-2 -18,-4 -6,-3 -10,-7 -14,-12 -3,-4 -5,-9 -7,-16 -2,-7 -3,-14 -3,-21 0,-11 2,-22 5,-30 3,-9 8,-15 13,-19 6,-4 13,-7 23,-9l3 24c-8,1 -14,4 -18,10 -4,5 -6,13 -6,22 0,11 2,19 6,24 4,5 8,7 13,7 3,0 6,-1 9,-3 3,-2 5,-5 7,-10 1,-3 3,-10 6,-22 5,-18 9,-30 11,-37 3,-7 7,-12 13,-16 6,-4 13,-6 21,-6 8,0 16,2 23,7 7,5 13,12 17,21 4,9 6,19 6,31 0,19 -4,34 -12,44 -8,10 -20,16 -35,19z"/>
  <polygon id="7" class="fil3" points="1404,1815 1376,1815 1376,1786 1404,1786 "/>
  <path id="8" class="fil3" d="M1350 1648l3 -24c17,3 30,9 39,20 9,11 14,24 14,40 0,20 -7,36 -20,48 -13,12 -32,18 -56,18 -16,0 -30,-3 -41,-8 -12,-5 -21,-13 -27,-24 -6,-11 -9,-22 -9,-35 0,-16 4,-29 12,-39 8,-10 19,-17 34,-19l4 24c-10,2 -17,6 -22,12 -5,6 -7,13 -7,21 0,13 4,23 13,31 9,8 23,12 42,12 20,0 34,-4 43,-11 9,-8 13,-17 13,-29 0,-10 -3,-18 -9,-24 -6,-7 -15,-11 -27,-12z"/>
  <path id="9" class="fil3" d="M1331 1612c-27,0 -47,-8 -60,-23 -11,-13 -16,-28 -16,-46 0,-20 7,-37 20,-49 13,-13 31,-19 55,-19 19,0 34,3 44,8 11,6 19,14 25,25 6,11 9,23 9,35 0,21 -7,37 -20,50 -13,13 -32,19 -57,19zm0 -25c19,0 33,-4 42,-12 9,-8 14,-19 14,-31 0,-12 -5,-23 -14,-31 -9,-8 -24,-12 -43,-12 -18,0 -32,4 -41,12 -9,8 -14,18 -14,31 0,12 5,23 14,31 9,8 23,12 42,12z"/>
  <path id="10" class="fil3" d="M1404 1445l-146 0 0 -22 21 0c-7,-5 -13,-11 -17,-18 -4,-8 -7,-16 -7,-26 0,-11 2,-20 7,-27 5,-7 11,-12 19,-15 -17,-12 -26,-27 -26,-45 0,-15 4,-26 12,-34 8,-8 20,-12 37,-12l100 0 0 25 -92 0c-10,0 -17,1 -21,2 -4,2 -8,5 -11,9 -3,4 -4,9 -4,15 0,10 3,19 10,26 7,7 18,10 33,10l85 0 0 25 -95 0c-11,0 -19,2 -25,6 -6,4 -8,11 -8,20 0,7 2,13 6,19 4,6 9,10 16,13 7,3 17,4 31,4l76 0 0 25z"/>
  <g id="_2434041397424">
   <g>
    <polygon class="fil4 str2" points="1738,1822 2176,1822 2176,1922 1738,1922 "/>
    <polygon class="fil5 str2" points="2176,1822 2613,1822 2613,1922 2176,1922 "/>
    <polygon class="fil4 str2" points="2613,1822 3050,1822 3050,1922 2613,1922 "/>
    <polygon class="fil5 str2" points="3050,1822 3488,1822 3488,1922 3050,1922 "/>
    <polygon class="fil4 str2" points="3488,1822 3925,1822 3925,1922 3488,1922 "/>
    <polygon class="fil5 str2" points="3139,2121 3838,2121 3838,2221 3139,2221 "/>
    <polygon class="fil4 str2" points="2439,2121 3139,2121 3139,2221 2439,2221 "/>
    <polygon class="fil5 str2" points="1740,2121 2439,2121 2439,2221 1740,2221 "/>
   </g>
   <path class="fil6" d="M2453 1425l-13 29 -71 0 -15 31c31,5 55,16 73,34 15,16 23,34 23,55 0,12 -2,24 -7,34 -5,10 -11,19 -19,27 -8,7 -16,13 -25,18 -13,6 -27,9 -41,9 -14,0 -24,-2 -31,-7 -6,-5 -10,-10 -10,-16 0,-3 1,-6 4,-8 3,-2 6,-4 10,-4 3,0 6,0 8,1 2,1 6,3 11,7 9,6 17,9 26,9 13,0 25,-5 35,-15 10,-10 15,-23 15,-37 0,-14 -5,-27 -14,-40 -9,-12 -22,-22 -38,-28 -12,-5 -30,-8 -51,-9l45 -91 84 0z"/>
   <path id="1" class="fil6" d="M2489 1543c0,-27 4,-50 12,-69 8,-19 19,-34 32,-43 10,-7 21,-11 32,-11 18,0 34,9 48,27 18,23 27,53 27,92 0,27 -4,50 -12,69 -8,19 -18,33 -30,41 -12,9 -24,13 -35,13 -22,0 -41,-13 -56,-39 -13,-22 -19,-49 -19,-80zm34 4c0,32 4,58 12,79 7,17 16,26 29,26 6,0 13,-3 19,-8 7,-6 12,-15 15,-28 5,-20 8,-48 8,-83 0,-27 -3,-49 -8,-67 -4,-13 -9,-23 -16,-28 -5,-4 -10,-6 -17,-6 -8,0 -15,4 -21,11 -8,10 -14,24 -17,45 -3,20 -4,41 -4,60z"/>
   <path id="2" class="fil6" d="M2665 1543c0,-27 4,-50 12,-69 8,-19 19,-34 32,-43 10,-7 21,-11 32,-11 18,0 34,9 48,27 18,23 27,53 27,92 0,27 -4,50 -12,69 -8,19 -18,33 -30,41 -12,9 -24,13 -35,13 -22,0 -41,-13 -56,-39 -13,-22 -19,-49 -19,-80zm34 4c0,32 4,58 12,79 7,17 16,26 29,26 6,0 13,-3 19,-8 7,-6 12,-15 15,-28 5,-20 8,-48 8,-83 0,-27 -3,-49 -8,-67 -4,-13 -9,-23 -16,-28 -5,-4 -10,-6 -17,-6 -8,0 -15,4 -21,11 -8,10 -14,24 -17,45 -3,20 -4,41 -4,60z"/>
   <path id="3" class="fil6" d="M2975 1413l0 157 40 -37c9,-8 13,-13 15,-15 1,-1 1,-3 1,-4 0,-2 -1,-4 -3,-6 -2,-2 -5,-3 -9,-3l0 -6 69 0 0 6c-9,0 -17,2 -23,4 -6,3 -13,7 -21,14l-41 37 40 51c11,14 19,23 23,27 6,5 10,9 15,10 3,1 8,2 15,2l0 6 -77 0 0 -6c4,0 7,-1 9,-2 2,-1 2,-3 2,-5 0,-3 -2,-7 -7,-13l-48 -62 0 52c0,10 1,17 2,20 1,3 3,5 6,7 3,1 8,2 17,2l0 6 -80 0 0 -6c8,0 14,-1 18,-3 2,-1 4,-3 5,-6 2,-4 3,-10 3,-20l0 -144c0,-18 0,-29 -1,-33 -1,-4 -2,-7 -4,-8 -2,-2 -4,-2 -7,-2 -2,0 -6,1 -11,3l-3 -6 47 -19 8 0z"/>
   <path id="4" class="fil6" d="M3151 1530c11,-12 18,-18 20,-20 5,-4 11,-8 17,-10 6,-2 12,-4 18,-4 10,0 18,3 25,9 7,6 12,14 14,25 12,-14 22,-23 30,-27 8,-4 17,-6 25,-6 8,0 16,2 22,6 6,4 12,11 15,21 3,7 4,17 4,31l0 68c0,10 1,17 2,20 1,2 3,5 6,6 3,2 8,3 15,3l0 6 -77 0 0 -6 3 0c7,0 12,-1 16,-4 3,-2 5,-5 6,-9 0,-2 1,-7 1,-17l0 -68c0,-13 -2,-22 -5,-27 -5,-7 -12,-11 -22,-11 -6,0 -12,2 -18,5 -6,3 -14,9 -22,17l0 2 1 7 0 75c0,11 1,17 2,20 1,3 3,5 7,7 3,2 9,3 17,3l0 6 -79 0 0 -6c9,0 15,-1 18,-3 3,-2 5,-5 7,-9 1,-2 1,-8 1,-17l0 -68c0,-13 -2,-22 -6,-28 -5,-7 -12,-11 -21,-11 -6,0 -12,2 -18,5 -9,5 -17,11 -22,17l0 85c0,10 1,17 2,20 1,3 4,5 6,7 3,2 8,2 17,2l0 6 -78 0 0 -6c7,0 12,-1 15,-2 3,-2 5,-4 7,-7 1,-3 2,-10 2,-20l0 -60c0,-17 -1,-28 -2,-34 -1,-4 -2,-6 -4,-8 -2,-1 -4,-2 -7,-2 -3,0 -7,1 -12,3l-3 -6 48 -19 7 0 0 34z"/>
   <path class="fil6" d="M2356 2439c7,-16 15,-28 25,-37 10,-9 23,-13 38,-13 19,0 33,6 43,18 8,9 11,19 11,29 0,17 -11,35 -32,53 14,6 25,14 33,24 7,10 11,23 11,37 0,20 -6,38 -19,53 -17,19 -41,29 -73,29 -16,0 -26,-2 -32,-6 -6,-4 -9,-8 -9,-13 0,-3 1,-6 4,-9 3,-3 6,-4 10,-4 3,0 6,0 9,1 2,1 6,3 13,6 7,4 12,6 14,7 4,1 9,2 14,2 12,0 22,-5 31,-14 9,-9 13,-20 13,-32 0,-9 -2,-18 -6,-27 -3,-6 -6,-11 -10,-15 -5,-5 -12,-9 -20,-13 -9,-4 -17,-6 -26,-6l-6 0 0 -5c9,-1 18,-4 27,-10 9,-5 16,-12 20,-19 4,-8 6,-16 6,-25 0,-12 -4,-21 -11,-29 -7,-7 -17,-11 -28,-11 -18,0 -33,10 -45,29l-6 -3z"/>
   <path id="1" class="fil6" d="M2527 2513c0,-27 4,-50 12,-69 8,-19 19,-34 32,-43 10,-7 21,-11 32,-11 18,0 34,9 48,27 18,23 27,53 27,92 0,27 -4,50 -12,69 -8,19 -18,33 -30,41 -12,9 -24,13 -35,13 -22,0 -41,-13 -56,-39 -13,-22 -19,-49 -19,-80zm34 4c0,32 4,58 12,79 7,17 16,26 29,26 6,0 13,-3 19,-8 7,-6 12,-15 15,-28 5,-20 8,-48 8,-83 0,-27 -3,-49 -8,-67 -4,-13 -9,-23 -16,-28 -5,-4 -10,-6 -17,-6 -8,0 -15,4 -21,11 -8,10 -14,24 -17,45 -3,20 -4,41 -4,60z"/>
   <path id="2" class="fil6" d="M2704 2513c0,-27 4,-50 12,-69 8,-19 19,-34 32,-43 10,-7 21,-11 32,-11 18,0 34,9 48,27 18,23 27,53 27,92 0,27 -4,50 -12,69 -8,19 -18,33 -30,41 -12,9 -24,13 -35,13 -22,0 -41,-13 -56,-39 -13,-22 -19,-49 -19,-80zm34 4c0,32 4,58 12,79 7,17 16,26 29,26 6,0 13,-3 19,-8 7,-6 12,-15 15,-28 5,-20 8,-48 8,-83 0,-27 -3,-49 -8,-67 -4,-13 -9,-23 -16,-28 -5,-4 -10,-6 -17,-6 -8,0 -15,4 -21,11 -8,10 -14,24 -17,45 -3,20 -4,41 -4,60z"/>
   <path id="3" class="fil6" d="M3014 2500c11,-12 18,-18 20,-20 5,-4 11,-8 17,-10 6,-2 12,-4 18,-4 10,0 18,3 25,9 7,6 12,14 14,25 12,-14 22,-23 30,-27 8,-4 17,-6 25,-6 8,0 16,2 22,6 6,4 12,11 15,21 3,7 4,17 4,31l0 68c0,10 1,17 2,20 1,2 3,5 6,6 3,2 8,3 15,3l0 6 -77 0 0 -6 3 0c7,0 12,-1 16,-4 3,-2 5,-5 6,-9 0,-2 1,-7 1,-17l0 -68c0,-13 -2,-22 -5,-27 -5,-7 -12,-11 -22,-11 -6,0 -12,2 -18,5 -6,3 -14,9 -22,17l0 2 1 7 0 75c0,11 1,17 2,20 1,3 3,5 7,7 3,2 9,3 17,3l0 6 -79 0 0 -6c9,0 15,-1 18,-3 3,-2 5,-5 7,-9 1,-2 1,-8 1,-17l0 -68c0,-13 -2,-22 -6,-28 -5,-7 -12,-11 -21,-11 -6,0 -12,2 -18,5 -9,5 -17,11 -22,17l0 85c0,10 1,17 2,20 1,3 4,5 6,7 3,2 8,2 17,2l0 6 -78 0 0 -6c7,0 12,-1 15,-2 3,-2 5,-4 7,-7 1,-3 2,-10 2,-20l0 -60c0,-17 -1,-28 -2,-34 -1,-4 -2,-6 -4,-8 -2,-1 -4,-2 -7,-2 -3,0 -7,1 -12,3l-3 -6 48 -19 7 0 0 34z"/>
   <path id="4" class="fil6" d="M3281 2383c5,0 9,2 12,5 3,3 5,8 5,12 0,5 -2,9 -5,12 -3,3 -8,5 -12,5 -5,0 -9,-2 -12,-5 -3,-3 -5,-8 -5,-12 0,-5 2,-9 5,-12 3,-3 8,-5 13,-5zm14 83l0 127c0,10 1,16 2,20 1,3 4,6 6,7 3,2 8,2 15,2l0 6 -77 0 0 -6c8,0 13,-1 15,-2 3,-1 5,-4 6,-7 2,-3 2,-10 2,-20l0 -61c0,-17 -1,-28 -2,-33 -1,-4 -2,-6 -4,-8 -2,-1 -4,-2 -7,-2 -3,0 -7,1 -12,3l-2 -6 47 -19 8 0z"/>
  </g>
  <rect class="fil7 str3" x="1000" y="1000" width="19000" height="23178"/>
  <g id="_2434041392848">
   <polygon class="fil2 str1" points="4202,1239 5018,1239 5018,2832 4202,2832 "/>
   <path class="fil8" d="M4550 1676c-1,3 -2,6 -2,9 0,3 -1,5 -1,7 0,6 2,10 5,12 3,2 10,3 18,3l4 0 -5 23 -78 0 5 -23 3 0c7,0 13,-2 16,-5 4,-3 6,-8 8,-16l38 -154c1,-3 1,-6 2,-8 0,-3 1,-6 1,-9 0,-5 -2,-9 -6,-11 -4,-2 -11,-3 -20,-3l-3 0 5 -23 72 0 62 184 31 -129c1,-4 2,-8 2,-10 0,-3 1,-5 1,-6 0,-6 -2,-10 -5,-12 -4,-2 -10,-3 -18,-3l-4 0 5 -23 79 0 -6 23 -3 0c-7,0 -13,2 -16,5 -4,3 -6,8 -8,16l-51 208 -22 0 -72 -209 -37 155z"/>
   <line class="fil7 str4" x1="4611" y1="2699" x2="4611" y2= "1930" />
   <line class="fil7 str4" x1="4329" y1="2423" x2="4892" y2= "2423" />
   <line class="fil7 str4" x1="4466" y1="2563" x2="4760" y2= "2276" />
   <line class="fil7 str4" x1="4463" y1="2276" x2="4761" y2= "2565" />
   <line class="fil7 str4" x1="4610" y1="1933" x2="4515" y2= "2051" />
   <line class="fil7 str4" x1="4611" y1="1933" x2="4699" y2= "2051" />
  </g>
  <g id="_2434041387728">
   <polygon class="fil2 str1" points="8088,1239 8088,1713 5778,1713 5778,1239 "/>
   <path class="fil8" d="M6856 1578l0 -202 40 0 48 143c4,13 8,23 10,30 2,-7 6,-18 11,-32l49 -141 36 0 0 202 -26 0 0 -169 -59 169 -24 0 -58 -172 0 172 -26 0z"/>
   <path id="1" class="fil8" d="M7188 1531l26 3c-4,15 -11,27 -22,35 -11,8 -25,12 -42,12 -21,0 -38,-7 -51,-20 -13,-13 -19,-32 -19,-55 0,-25 6,-44 19,-57 13,-14 29,-20 49,-20 20,0 35,7 48,20 12,13 19,32 19,56 0,1 0,4 0,7l-109 0c1,16 5,28 14,37 8,9 18,13 31,13 9,0 17,-2 23,-7 6,-5 12,-12 15,-23zm-81 -40l82 0c-1,-12 -4,-22 -9,-28 -8,-10 -18,-14 -31,-14 -11,0 -21,4 -29,11 -8,8 -12,18 -13,31z"/>
   <path id="2" class="fil8" d="M7245 1578l0 -146 22 0 0 22c6,-10 11,-17 16,-21 5,-3 10,-5 16,-5 8,0 17,3 26,8l-9 23c-6,-3 -12,-5 -18,-5 -5,0 -10,2 -15,5 -4,3 -7,8 -9,14 -3,9 -4,18 -4,29l0 77 -25 0z"/>
   <path id="3" class="fil8" d="M7435 1524l24 3c-3,17 -9,30 -20,39 -11,9 -24,14 -40,14 -20,0 -36,-7 -48,-20 -12,-13 -18,-32 -18,-56 0,-16 3,-30 8,-41 5,-12 13,-21 24,-27 11,-6 22,-9 35,-9 16,0 29,4 39,12 10,8 17,19 19,34l-24 4c-2,-10 -6,-17 -12,-22 -6,-5 -13,-7 -21,-7 -13,0 -23,4 -31,13 -8,9 -12,23 -12,42 0,20 4,34 11,43 8,9 17,13 29,13 10,0 18,-3 24,-9 7,-6 11,-15 12,-27z"/>
   <path id="4" class="fil8" d="M7576 1560c-9,8 -18,13 -27,17 -9,3 -18,5 -27,5 -16,0 -28,-4 -37,-12 -9,-8 -13,-18 -13,-30 0,-7 2,-14 5,-20 3,-6 8,-11 13,-14 5,-4 11,-6 18,-8 5,-1 12,-2 22,-4 20,-2 35,-5 44,-9 0,-3 0,-6 0,-6 0,-10 -2,-17 -7,-21 -6,-6 -16,-8 -28,-8 -12,0 -20,2 -26,6 -6,4 -10,11 -12,22l-24 -3c2,-10 6,-19 11,-25 5,-6 12,-11 22,-15 10,-3 21,-5 33,-5 13,0 23,1 31,4 8,3 14,7 17,11 4,4 6,10 8,17 1,4 1,12 1,23l0 33c0,23 1,38 2,44 1,6 3,12 6,18l-26 0c-3,-5 -4,-11 -5,-18zm-2 -55c-9,4 -23,7 -41,9 -10,1 -17,3 -22,5 -4,2 -7,5 -10,8 -2,4 -3,7 -3,12 0,7 2,12 8,16 5,4 12,7 22,7 10,0 18,-2 26,-6 7,-4 13,-10 16,-17 3,-6 4,-14 4,-25l0 -9z"/>
   <path id="5" class="fil8" d="M7691 1556l3 22c-7,1 -13,2 -19,2 -9,0 -16,-1 -21,-4 -5,-3 -8,-7 -10,-11 -2,-5 -3,-14 -3,-29l0 -84 -18 0 0 -19 18 0 0 -36 25 -15 0 51 25 0 0 19 -25 0 0 86c0,7 0,12 1,14 1,2 2,4 4,5 2,1 5,2 8,2 3,0 6,0 11,-1z"/>
   <path id="6" class="fil8" d="M7706 1505c0,-27 8,-47 23,-60 13,-11 28,-16 46,-16 20,0 37,7 49,20 13,13 19,31 19,55 0,19 -3,34 -8,44 -6,11 -14,19 -25,25 -11,6 -23,9 -35,9 -21,0 -37,-7 -50,-20 -13,-13 -19,-32 -19,-57zm25 0c0,19 4,33 12,42 8,9 19,14 31,14 12,0 23,-5 31,-14 8,-9 12,-24 12,-43 0,-18 -4,-32 -12,-41 -8,-9 -18,-14 -31,-14 -12,0 -23,5 -31,14 -8,9 -12,23 -12,42z"/>
   <path id="7" class="fil8" d="M7872 1578l0 -146 22 0 0 22c6,-10 11,-17 16,-21 5,-3 10,-5 16,-5 8,0 17,3 26,8l-9 23c-6,-3 -12,-5 -18,-5 -5,0 -10,2 -15,5 -4,3 -7,8 -9,14 -3,9 -4,18 -4,29l0 77 -25 0z"/>
   <circle class="fil9 str5" cx="5997" cy="1473" r="119"/>
   <rect class="fil9 str5" x="6455" y="1364" width="227" height="227"/>
   <line class="fil7 str6" x1="6171" y1="1472" x2="6391" y2= "1472" />
   <line class="fil7 str6" x1="6388" y1="1472" x2="6324" y2= "1538" />
   <line class="fil7 str6" x1="6389" y1="1471" x2="6325" y2= "1410" />
  </g>
 </g>
</svg>
