<?xml version="1.0" encoding="UTF-8"?>
<!DOCTYPE svg PUBLIC "-//W3C//DTD SVG 1.1//EN" "http://www.w3.org/Graphics/SVG/1.1/DTD/svg11.dtd">
<!-- Creator: CorelDRAW -->
<svg xmlns="http://www.w3.org/2000/svg" xml:space="preserve" width="297mm" height="210mm" version="1.1" style="shape-rendering:geometricPrecision; text-rendering:geometricPrecision; image-rendering:optimizeQuality; fill-rule:evenodd; clip-rule:evenodd"
viewBox="0 0 29700 21000"
 xmlns:xlink="http://www.w3.org/1999/xlink">
 <defs>
  <style type="text/css">
   <![CDATA[
    .str3 {stroke:black;stroke-width:10;stroke-opacity:0.501961}
    .str5 {stroke:black;stroke-width:50}
    .str2 {stroke:#003399;stroke-width:20}
    .str7 {stroke:#434242;stroke-width:10}
    .str4 {stroke:black;stroke-width:10}
    .str0 {stroke:#000066;stroke-width:10}
    .str1 {stroke:#003399;stroke-width:10}
    .str8 {stroke:#2B2A29;stroke-width:7.62}
    .str6 {stroke:black;stroke-width:7.62}
    .fil2 {fill:none}
    .fil0 {fill:#FEFEFE}
    .fil9 {fill:#D9DADA}
    .fil1 {fill:white}
    .fil6 {fill:#FEFEFE;fill-rule:nonzero}
    .fil5 {fill:#D9DADA;fill-rule:nonzero}
    .fil8 {fill:#434242;fill-rule:nonzero}
    .fil7 {fill:#2B2A29;fill-rule:nonzero}
    .fil4 {fill:black;fill-rule:nonzero}
    .fil3 {fill:#FEFEFE;fill-rule:nonzero;fill-opacity:0.501961}
   ]]>
  </style>
 </defs>
 <g id="Plan_x0020_1">
  <metadata id="CorelCorpID_0Corel-Layer"/>
  <rect class="fil0" x="1005" y="1003" width="26146" height="18955"/>
  <path class="fil1 str0" d="M1005 1003l26146 0 0 18955 -26146 0 0 -11023 25 38c2,31 41,85 54,117 14,36 35,79 55,112 56,92 72,50 152,90 33,17 64,80 83,113 36,64 99,105 134,167 57,119 241,282 244,410 4,161 50,212 155,327 41,38 106,49 106,111 0,45 -20,103 20,137 65,56 201,58 280,48 67,-9 99,-22 137,46 10,18 56,31 74,44 50,33 118,123 118,186 -39,0 -67,-44 -109,-52 -87,-18 -115,16 -190,16 -37,0 -47,-51 -85,-6 -43,51 -84,91 -152,103 -49,10 -106,53 -126,97 -23,52 -41,57 -14,113 18,38 5,34 -17,60 -28,33 12,60 12,96 0,52 -54,56 -27,116 41,92 -80,58 -82,129 -4,76 18,205 -6,273 -24,69 -76,86 -62,176 9,61 17,61 -48,49 -79,-15 -36,-98 -88,-98 -68,0 -90,159 -84,208 7,62 -9,52 -48,52 -6,26 8,68 10,96 0,66 12,130 14,196l7 182c3,89 -11,198 19,281 -4,67 4,172 11,242 7,71 34,150 77,206 85,111 215,140 331,203l300 21c111,8 175,59 234,144 95,138 240,245 373,341 26,78 256,180 331,197l277 63c61,14 108,31 172,35 195,78 391,-14 578,-60 159,-38 256,-132 426,-146 86,8 140,12 223,-16 46,-16 108,-33 157,-27 108,14 205,119 325,70 75,-31 33,-96 10,-149 -28,-66 -17,-161 -45,-230 -37,-94 -24,-190 -52,-282 -22,-117 -64,-232 -74,-353 -10,-110 50,-223 62,-331 3,-54 13,-125 -6,-176 -19,-52 -38,-99 -31,-157 10,-82 60,-151 84,-228 24,-24 44,-160 1,-179 -54,-24 -112,-30 -157,-76 -97,-98 -161,-349 -344,-279 -30,11 -71,67 -84,22 -13,-45 -43,-49 -25,-106 9,-27 81,-213 100,-215 24,-2 25,39 25,54 0,41 -7,67 42,64 45,-2 72,-18 111,-34l78 -32c21,-9 -40,-24 -44,-55 -2,-15 -51,-31 -66,-41 -99,-69 46,-175 85,-231 37,-54 -36,-37 -79,-48 -80,-19 -110,35 -189,35 -43,0 -190,-50 -211,-21 -41,56 56,159 56,216 -69,-69 -161,-222 -184,-318 0,-74 -25,-140 -25,-211 0,-63 -4,-163 18,-220 17,-46 58,-76 75,-124 9,-25 0,-55 10,-77 8,-19 7,-47 13,-68 5,-18 12,-31 16,-49 5,-26 11,-57 20,-82 11,-34 -16,-110 -37,-138 -13,-18 -13,-55 -13,-77 11,0 29,34 32,45 36,61 74,123 88,193 13,66 -34,198 42,198 52,0 116,-15 164,-34 56,-22 174,14 200,-8 19,-16 39,-101 41,-101 1,2 4,2 5,5 11,3 23,78 28,91 14,37 28,70 48,104 41,68 206,-37 266,-52 61,0 120,39 173,25 30,-7 130,-1 144,-20 9,-12 14,-53 -4,-57 -25,-5 -95,2 -104,-27 -7,-23 0,-90 6,-113 23,8 19,72 57,88 41,17 71,-10 111,0 68,17 103,-107 110,-160 9,-66 33,-71 -3,-131 -34,-57 -114,-141 -170,-174 -54,-36 -92,-54 -155,-74 -56,-17 -110,-83 -149,-124 -106,-111 -39,-201 -74,-325 -9,-32 -29,-38 -43,-65 -53,-75 -1,-186 -34,-226 -24,-29 -199,-56 -237,-51 -81,10 -179,64 -252,62 -36,-1 -76,-12 -111,5 -43,22 -71,66 -96,105 -48,76 -177,234 -159,323 10,53 78,-28 101,-22 0,46 -8,81 -21,125 -13,31 -14,94 -14,129l0 97c0,47 7,93 7,141 -16,-21 -13,-56 -27,-77 -15,-22 -30,-70 -41,-98 -6,-44 -48,-98 -82,-124 -53,-40 -80,-69 -55,-133 13,-33 11,-69 -23,-85 -36,-7 -84,-53 -74,-91 11,-44 30,-62 33,-114 5,-86 -84,-165 -42,-250 25,-49 70,-89 90,-143 14,-38 23,-72 50,-104 40,-30 53,-124 72,-170 28,-67 34,-80 15,-150 -9,-35 -64,-34 -87,-54 -13,-12 -16,-29 -30,-42 -16,-14 -55,-18 -75,-21 -82,-9 -134,84 -171,7 -22,-46 -62,-63 -112,-57 -50,6 -85,31 -129,53 -43,22 -56,-84 -67,-103 -14,-16 -18,-52 -30,-72 -12,-21 -37,-27 -51,-45 -31,-39 -49,-65 -65,-113 -10,-30 7,-31 -31,-26 -37,4 -87,12 -122,23 -42,14 -101,13 -143,3l7 -45c3,-17 7,-32 8,-50 2,-49 0,-104 10,-152 7,-33 4,-102 20,-126 -25,-74 -68,-86 -114,-140 -43,-51 -77,-121 -109,-180 -19,-36 -5,-80 -20,-119 -22,-55 -77,-60 -95,-105 -11,-27 -15,-61 -13,-91 0,-280 -516,-62 -457,-419 20,-120 29,-108 137,-108l328 -1c69,0 95,84 149,119 92,59 112,38 171,-26 40,-44 142,26 196,13 0,-111 -232,-31 -237,-195 0,-69 -126,-105 -167,-139 -16,-13 -21,-128 -9,-135 33,-20 71,1 101,-43 47,-66 111,21 111,-43 0,-36 -7,-72 -7,-108 0,-71 72,-197 152,-186 68,10 117,-12 172,-46 101,-34 189,26 305,0 104,-23 278,-42 375,-1 82,34 172,64 261,77 88,13 188,-14 258,-66l-113 -31c-39,-11 -92,-28 -125,-50 -54,-37 -242,-102 -105,-129 92,-18 -14,-92 -16,-129 -2,-41 91,-147 115,-191 88,-152 168,-371 133,-546 -9,-43 -58,-46 -41,-84 9,-21 12,-36 -15,-43 -58,-16 -26,-30 -26,-73 25,-31 70,-13 87,-65 6,-20 51,-65 47,-76 -8,-23 -26,-42 -46,-56 -28,-20 -38,-69 -47,-100 -22,-70 -5,-76 -80,-90 -31,-5 -35,-29 -53,-50 -26,-31 -63,-6 -95,-1 -57,8 -92,9 -148,-7 -38,-19 -48,-64 -94,-60 -43,4 -65,90 -107,118 -22,14 -61,28 -75,49 -35,52 -11,64 -84,21 -33,-19 -73,-106 -85,-110 -25,-9 -41,55 -74,41 -43,-18 -19,-50 -79,-50 -56,0 -72,-20 -83,-73 -16,-78 -1,-40 -61,2 -36,25 -57,-73 -119,-77 -48,-3 -95,-32 -143,-32 -58,0 -99,13 -152,38 -32,16 -61,51 -99,51 -43,0 -76,32 -98,68 -39,64 -68,28 -126,28 -63,37 -62,80 -132,54 -27,-10 -96,80 -114,101 -13,16 -50,86 -63,46 -6,-17 -25,15 -32,21l-183 152c-54,45 -155,67 -224,50 -109,38 -160,-48 -253,74 -58,76 -143,46 -162,157 -11,61 -6,88 -33,145 -19,42 -158,113 -202,92 -56,-27 -34,-8 -73,35 0,67 56,49 32,122 -14,43 37,63 17,120 -8,24 -31,-12 -37,-20 -24,-26 -34,-50 -69,-64 -95,-40 -226,188 -311,231l0 -4322zm9446 3709c-13,-41 -14,-88 -36,-121 -38,0 -84,124 -146,96 -42,-18 -100,-147 -146,-117 -99,66 -248,76 -248,-85 0,-82 137,-238 224,-194 66,33 27,125 48,175 29,69 35,-46 66,-71 16,-13 171,54 195,-59 16,-78 -137,-78 -110,-160 13,0 141,66 145,78 29,96 -17,183 87,254 75,51 155,47 237,19 115,-39 32,183 -7,223 -75,75 -266,169 -302,-1l-7 -38zm-738 113c33,67 -78,150 0,174 41,13 161,-77 161,-6 0,56 3,103 -60,116 -39,8 -134,7 -120,65 22,94 -69,167 -59,256 20,171 226,5 247,139 0,88 -45,247 -9,325 6,99 36,220 9,319l-5 387c-1,110 28,199 -57,284 -130,130 -252,-81 -348,-120 -2,-8 -17,-21 -23,-27 -9,-8 -16,-21 -21,-32 -13,-28 -51,-43 -66,-72 -11,-22 -24,-42 -46,-55 -46,-111 -61,-169 -15,-282 38,-94 101,-182 153,-269 31,-105 -6,-246 -49,-341 -21,-45 1,-73 9,-118 5,-25 0,-44 3,-67 -12,-27 -15,-34 -37,-53 -14,-12 -36,-15 -50,-29 -32,-32 -46,-62 -72,-96 -17,-22 -16,-53 -24,-77 -10,-29 -111,18 -123,30 -25,25 -12,62 -26,90 -27,116 -85,138 -156,221 -52,62 -79,152 -56,230 12,42 37,105 26,147 -25,66 -75,91 -80,171 -4,63 53,22 88,22 0,2 -1,1 1,2l-8 155c-3,63 -46,16 -66,58 -52,108 -34,208 -115,316 -35,47 -112,65 -142,-1 -32,-72 11,-113 27,-176 7,-28 -31,-78 -41,-105 -16,-44 -24,-89 -24,-136 0,-71 64,-256 112,-307 41,-102 18,-191 102,-280 42,-45 27,-94 51,-143 34,-69 44,-88 44,-167 22,-109 76,-234 197,-255 58,-10 112,-31 168,-41 42,-7 113,-69 150,-53 0,56 -86,131 -89,205 -2,45 24,98 46,136 35,61 62,-5 91,-21 41,-22 109,-10 151,-29 92,-41 25,-64 44,-129 -2,-42 18,-69 34,-105 20,-47 19,-79 19,-130 0,-49 -53,-75 -74,-122 -19,-42 -61,-83 -61,-131 19,-11 33,-8 56,-7 21,1 81,-5 97,8 21,17 27,56 32,80l7 43z"/>
  <path class="fil0 str1" d="M16083 10067c-14,-18 -24,-81 -50,-81 -37,0 -93,84 -116,25 -26,-65 -27,-35 -88,-44 -25,-4 -20,5 -10,21 20,34 27,78 60,100 24,16 53,12 79,21 29,9 60,33 84,51 37,29 62,-9 46,-47l-3 -47zm7054 -5502c47,20 101,16 148,35 36,15 49,54 88,69 65,25 139,30 204,4 58,-23 50,28 89,26 64,-3 -30,-100 43,-100 223,0 408,91 480,-196 63,-16 61,10 108,-66 41,-66 -31,-45 -63,-105 -75,-136 -143,-3 -220,-55 -74,-50 -102,57 -157,61 -51,3 -44,-13 -88,28 -100,93 -141,128 -182,266 -17,58 -62,-48 -72,-59 -52,-62 -71,-70 -152,-93 -112,-60 -502,-113 -561,37 -11,28 -81,56 -102,32 -35,-39 -22,-74 -78,-112 -28,-8 -44,18 -69,7 -22,-9 -50,-45 -66,-49 0,26 48,106 37,115 -17,13 -72,-27 -87,-38 -75,-55 -116,-76 -208,-42 -55,21 -70,-67 -96,-102 -44,-59 -158,-58 -222,-49 -36,5 -89,43 -96,-5 8,-17 12,-32 7,-49 -38,-5 -64,13 -101,25 -41,14 -74,2 -114,19 -32,14 -57,32 -90,44 -135,49 -229,57 -334,-49 -72,-72 -53,-22 -146,-11 -41,13 -80,44 -122,46 -33,1 -53,-3 -86,9 -98,37 -54,117 -102,165 -26,26 -68,20 -95,55l-110 144c-21,28 -115,52 -150,57 -4,16 -37,30 -46,46 -14,24 -12,45 -17,73 4,14 39,73 34,74 -20,2 -43,-11 -60,-21 -43,-25 -72,46 -92,-13 -12,-34 -7,-61 -40,-29 -28,27 -16,77 -45,81 -25,4 -49,118 -27,136 18,15 71,44 29,52 -62,12 -47,-1 -47,58 0,46 -7,67 -29,106 -41,73 -76,-15 -90,7 -13,19 -16,53 -27,76 -11,23 125,87 41,105 -27,6 -41,-26 -49,21 -4,24 4,62 10,86 10,38 92,36 125,63 42,35 26,108 56,146 59,73 134,153 208,213 50,40 3,177 57,209 25,15 72,13 95,-7 22,-18 -2,-82 34,-75 -24,-96 -21,-181 -25,-282 -2,-51 -30,-41 -47,-77 -15,-32 -14,-120 23,-135 28,-18 31,-66 46,-94 32,-64 39,-104 54,-170 16,-70 44,-124 22,-201 0,-97 114,-92 181,-94 62,-2 158,-88 191,-137 28,-42 67,-275 92,-267 60,20 100,-38 142,-63 24,-15 44,-15 69,-22 40,-12 41,-41 71,-61 66,6 39,91 100,91 31,0 -18,-130 13,-137 3,-10 38,31 45,37 27,24 20,103 68,96 40,-6 66,-35 114,-35 55,0 109,-22 159,11 48,31 113,33 165,7 44,-8 77,13 121,-10 92,-49 119,-7 210,-4 56,2 121,-4 169,32 36,27 89,36 134,36 39,0 66,-13 101,-18 52,-6 64,14 122,-16 43,-22 75,-3 111,21 16,6 26,14 40,23 12,9 28,18 44,13 23,-7 44,-22 69,-25l42 11zm2753 352c-11,-49 10,-90 -3,-144 -9,-37 -9,-110 9,-142 19,-33 69,-88 100,-110 22,-16 231,73 255,99 49,54 79,145 115,209 22,38 2,127 14,174 10,39 90,317 43,305 -7,-29 -67,-95 -99,-96 -113,-5 -175,62 -244,-72 -52,-100 -183,-79 -183,-186l-7 -38zm-228 -598c-53,2 -181,27 -208,-27 -10,-21 -118,-18 -144,-18l-1 1c0,16 15,88 26,98 20,18 60,21 72,46 24,51 77,87 135,90 34,2 87,-8 118,4 25,10 59,36 61,-7 2,-43 61,-53 61,-111 0,-70 -41,-58 -87,-81l-33 7zm196 253c0,-29 2,-69 -16,-91 -6,-8 -25,-7 -32,-2 -15,11 -17,39 -22,56 -5,17 -22,30 -31,45 -8,12 3,22 14,27 26,11 19,29 33,48 14,20 43,-43 48,-52l6 -30zm1293 1614l-51 -49c-34,-10 -84,-39 -119,-31 -30,7 -56,33 -73,58 -13,20 -33,50 -23,74 23,55 92,34 131,66 32,26 51,63 98,63l37 0 0 -181zm-258 -192c-26,-6 -64,-12 -82,12 -14,18 -19,37 -19,62 0,15 13,38 32,26 13,-8 18,-18 34,-25 10,-5 14,-7 26,-7 20,0 22,-3 35,-15 14,-13 18,-34 -1,-45l-25 -7zm-3839 2526c-38,20 -82,17 -124,14 -24,-2 -31,-25 -55,-27 -56,-4 -89,37 -141,50 -31,8 -70,9 -99,20 -66,31 -122,7 -191,16 -60,8 -75,45 -118,77 -21,16 -157,58 -182,52 -60,-15 -91,-17 -139,31l0 3c41,21 34,46 46,85 8,26 121,21 164,41 49,23 92,29 145,38 75,14 146,80 223,102 78,22 218,-1 304,-1 103,18 199,-33 272,-102 25,-24 44,-55 70,-77 27,-24 25,-27 -8,-34 -88,-18 12,-59 37,-69 44,-17 179,-14 165,-102 -3,-21 -42,-59 -20,-81 23,-23 57,-62 48,-98 -70,0 -116,24 -194,11 -63,-11 -102,15 -161,31l-44 20zm2766 -2048c-36,-18 -122,-129 -157,-69 -19,32 -84,57 -86,96 -1,21 14,33 28,47 22,22 29,60 56,77 40,25 93,-6 130,-22 24,-11 43,-31 61,-49 22,-22 9,-45 -8,-67l-24 -12zm154 13371c0,-20 25,-48 39,-60 26,-20 48,-68 7,-85 -32,-13 -53,-29 -88,-34 -68,-9 -44,75 -44,114 0,19 -8,37 0,55 12,27 38,25 63,25l23 -16zm-144 -90c-19,7 -45,-22 -47,-40 -1,-20 20,-32 24,-49 4,-16 -19,-47 -35,-47 -21,0 -15,15 -19,31 -7,30 -17,63 -38,86 -9,10 -37,36 -21,51 21,21 48,43 76,51 29,9 81,-18 67,-55l-7 -29zm1321 -836l-57 -6c-12,0 -33,-3 -42,6 -17,16 -12,31 -37,41 -16,7 -35,6 -49,18 -5,4 -10,24 -7,30 9,16 45,27 62,30 17,3 25,-6 40,-9 13,-3 27,-1 40,-4l51 0 0 -105zm-4056 -11632c-74,17 -164,-79 -227,-79 -2,2 -1,2 -4,2 -16,33 -227,63 -176,99 9,88 497,115 588,126 57,7 229,-95 140,-121 -96,-28 -201,36 -293,-13l-28 -13z"/>
  <g id="_2434041353008">
   <path class="fil2 str2" d="M9613 6872c-31,58 -66,113 -93,173 -35,79 -86,165 -135,235 -62,89 -71,165 -65,271 3,45 -16,80 11,128 36,64 -33,191 -54,256 -14,45 -15,95 -30,141 -7,21 -20,42 -20,64 -1,30 9,50 13,77 6,36 26,48 24,88 -1,26 -14,56 -6,83 12,38 104,18 73,90 -38,88 72,146 135,176 88,42 92,157 169,201 42,23 18,58 86,37 54,-16 97,73 139,96 61,34 107,24 167,49 48,20 38,65 50,105 26,84 105,49 127,122 25,84 43,125 115,180 90,70 165,158 247,237 64,62 134,98 210,143 48,28 66,91 97,133 36,49 47,37 61,14 12,-20 27,-45 29,-64 10,-13 31,-1 56,9 76,30 187,111 215,138 27,27 43,71 66,108 19,32 47,56 55,87 11,40 18,57 27,97 10,46 12,114 35,157 29,55 70,101 104,154 28,43 61,58 87,96 11,17 24,56 38,91 11,27 25,51 25,66 0,83 -30,162 5,238 25,53 95,109 156,154 56,42 -5,85 58,127 35,24 18,60 77,79 117,37 209,179 275,280 31,48 145,151 198,170 92,33 132,27 180,121 51,102 159,91 196,199 16,46 17,103 50,140 32,35 94,43 87,102 -8,59 91,131 123,169 51,60 61,128 144,164 107,47 178,154 291,172 66,10 179,74 201,141"/>
   <path class="fil2 str2" d="M13709 13163c1,2 -2,2 0,4 41,55 87,200 149,220 90,30 128,7 198,80 33,34 95,42 138,68 19,12 34,37 54,50 37,24 87,28 128,49 73,38 139,106 217,106 20,0 43,12 67,10 31,-3 61,-19 93,-25 11,-2 12,10 20,15 11,6 28,6 41,5 23,-2 57,-10 72,-15 127,-43 216,-109 313,32 67,98 141,128 256,74 52,-25 134,-60 156,12 4,14 7,30 16,42 18,22 48,27 75,41 37,20 70,49 87,76 17,28 48,94 79,104 63,19 171,-99 218,-139 50,-43 205,-70 233,-111 17,-25 33,-42 62,-57 46,-23 60,25 111,-21 48,-42 34,-57 93,-11 63,48 93,126 158,166 44,27 112,14 145,-25 69,-80 11,-120 -7,-214 -16,-84 91,-170 163,-187 43,-10 87,-4 130,-4 44,0 63,-20 101,-32 19,-6 93,62 125,70 53,13 92,16 128,-30 47,-59 96,-149 28,-213 -21,-20 -53,-53 -59,-81 -8,-44 28,-51 49,-86 23,-36 46,-8 69,-24 101,-72 110,-195 179,-286 60,-79 123,-108 214,-145 84,-34 79,-24 125,41 54,76 148,53 212,105 71,57 -13,198 -25,264 -14,71 -17,142 79,118 52,-13 104,-75 142,-2 11,23 -25,178 -31,211 -7,37 3,79 3,117 0,39 -24,90 -31,128 -16,88 -37,171 -37,263 0,44 19,114 31,159 15,56 35,114 63,160 30,49 73,186 166,116 56,-42 111,-83 167,-125 78,-58 171,-200 284,-180 132,23 201,13 257,-129 15,-38 31,-102 81,-102 111,0 134,-40 214,-114 119,-110 197,-94 349,-77 35,4 151,-9 120,59 -22,50 -129,56 -115,131 9,51 177,-20 215,-26 47,-7 127,-48 169,-69 40,-20 91,-51 135,-55 32,-3 60,10 91,11 94,3 168,-49 252,17"/>
   <path class="fil2 str2" d="M9874 5019c69,-8 138,-17 207,-24 81,-8 213,-9 281,-56 45,-31 122,-52 177,-47 117,11 138,162 302,63 145,-87 120,-42 259,-11 54,12 158,26 162,97 5,89 -222,136 -76,259 37,31 61,14 97,62 36,49 130,-49 171,-65 36,-15 82,-46 104,-17 34,43 93,-22 123,-6 78,44 88,-82 132,-49 43,33 84,172 151,136 112,-60 132,-51 205,9 50,42 91,127 156,80 37,-26 296,-213 337,-153 14,20 -12,50 15,65 126,75 67,10 82,157 17,169 146,10 201,110 11,21 32,118 65,159 29,36 67,17 69,20 2,3 81,115 95,127 89,72 172,97 259,160 67,49 337,-24 391,50 31,42 108,76 123,112 27,66 29,119 132,101 174,-30 74,50 125,101 44,44 73,42 73,114 0,54 72,59 110,69 73,18 159,115 203,175 40,54 66,150 110,190 70,65 85,194 218,202 108,6 104,-145 227,-7 43,49 78,17 86,90 7,66 69,89 114,134 59,59 110,181 160,252 24,33 47,66 71,99 50,70 104,26 127,112 18,67 -11,209 56,230 53,16 221,65 190,147 -26,69 57,63 61,146 3,53 24,113 4,162 -12,29 -44,85 -28,116 18,34 44,53 52,97 16,81 25,126 -17,192 -55,87 14,54 -6,108 -13,35 -44,43 -56,88 -10,36 -43,137 -32,168 37,96 -86,63 -52,153 18,48 28,93 35,142 7,41 36,137 11,174 -17,26 -24,42 -56,52 -27,8 -71,25 -67,60 2,15 10,28 15,42"/>
   <path class="fil2 str2" d="M10539 4892c2,-16 5,-32 7,-48"/>
   <path class="fil2 str2" d="M16084 10090c91,-13 170,4 213,91 62,124 174,162 240,276 29,50 75,67 114,108 44,47 57,131 50,194 -9,94 84,245 185,223 78,-17 137,-73 220,-81 31,-3 69,7 99,15 50,13 102,-12 151,-18 82,-10 106,-45 160,-95 42,-39 34,-75 93,-90 27,-7 53,-3 77,-13 26,-10 26,-37 49,-55 10,-8 27,-12 41,-23 17,-14 31,-35 42,-48 21,-25 44,-20 70,-40 5,-4 3,-13 6,-19 6,-13 17,-25 30,-39 20,-20 58,-35 72,-49 13,-13 34,-24 53,-17 81,28 180,-100 276,-103 54,-1 107,14 160,17 82,5 127,2 203,-41 40,-22 87,-79 120,-113 52,-52 117,-101 165,-156 56,-65 -2,-210 28,-283 14,-33 46,-50 80,-65 45,-21 103,-5 152,-32 62,-34 138,-139 169,-199"/>
   <path class="fil2 str2" d="M20453 5711c21,-15 37,-40 62,-46 210,-48 240,45 397,160 68,50 151,17 201,52 60,41 75,7 134,71 65,70 120,46 181,75 55,26 104,65 160,93 51,26 113,25 164,50 68,34 100,88 175,119 86,36 122,-1 177,86 41,66 175,82 216,183 28,68 104,117 45,181 -38,41 10,114 47,146 31,27 117,-16 138,30 13,30 -9,43 20,75 39,43 77,24 63,101 -7,39 -20,129 15,160 16,14 23,35 35,53"/>
   <path class="fil2 str2" d="M23439 7325c35,-19 66,-52 105,-57 80,-12 144,61 227,73 133,20 277,-7 415,0 92,4 202,-102 277,-146 143,-82 206,124 335,162 49,15 157,-28 177,24 24,62 157,-13 207,-13 119,-1 202,-92 300,-146 70,-39 114,18 183,24 60,6 142,-4 192,34 36,27 160,84 169,121 25,100 90,142 201,142"/>
   <path class="fil2 str2" d="M3690 4000c19,-22 38,-45 58,-67 86,-94 22,-226 39,-323 30,-166 -168,-252 -190,-388 -12,-72 -11,-199 0,-271 7,-44 14,-114 4,-157 -14,-55 -79,-102 -76,-144 4,-69 19,-128 32,-194 20,-103 -38,-160 80,-228 87,-50 88,-92 88,-187 0,-63 50,-113 50,-170 0,-96 -52,-187 35,-269 53,-50 -11,-215 -48,-267 -73,-101 -113,-223 -169,-334"/>
   <path class="fil2 str2" d="M17967 19959c-11,-80 -51,-161 -33,-240 54,-239 -5,-454 4,-686 7,-198 197,-414 302,-567 67,-98 105,-276 119,-390 10,-77 55,-206 121,-250 71,-47 111,-102 155,-172 59,-95 -47,-208 61,-287 95,-70 94,-164 147,-259 34,-62 138,-45 145,-63 42,-109 20,-144 160,-144 67,0 117,-111 179,-142 130,-65 70,-132 110,-244 18,-50 41,-130 30,-185 -19,-91 -43,-135 34,-218 99,-108 206,-528 268,-602 89,-107 650,-2 729,-11 330,-38 221,-542 506,-234 107,115 237,192 368,275 323,203 406,138 595,517 68,136 516,442 670,484 113,30 224,115 350,149 47,13 416,410 446,458 114,177 202,325 424,335 308,13 392,353 599,528 116,98 180,237 353,197 146,-33 290,-80 439,-100 80,-11 150,54 227,67 122,21 270,48 312,186 21,69 61,119 52,197 -5,43 -75,106 -93,153 -37,93 -23,258 37,339 107,143 261,93 398,15"/>
  </g>
  <polygon class="fil3 str3" points="1601,18135 3995,18135 3995,19728 1601,19728 "/>
  <path class="fil4" d="M1218 19629c0,-17 4,-34 13,-51 9,-17 22,-30 38,-39 17,-9 34,-14 52,-14 18,0 35,5 52,14 17,9 29,22 39,38 9,17 14,34 14,52 0,18 -5,35 -14,52 -9,17 -22,29 -39,39 -17,9 -34,14 -52,14 -18,0 -35,-5 -52,-14 -17,-9 -30,-22 -38,-39 -9,-17 -13,-34 -13,-51zm17 0c0,15 4,29 11,43 7,14 18,25 32,32 14,8 28,12 43,12 15,0 29,-4 43,-12 14,-8 24,-18 32,-32 8,-14 12,-28 12,-43 0,-15 -4,-29 -12,-43 -8,-14 -18,-25 -32,-32 -14,-8 -28,-11 -43,-11 -15,0 -30,4 -43,12 -14,8 -25,19 -32,32 -7,14 -11,28 -11,43zm104 -33l5 -17c12,3 21,9 28,18 7,9 10,20 10,33 0,16 -5,29 -16,39 -10,10 -25,15 -44,15 -12,0 -23,-2 -32,-7 -9,-5 -16,-11 -20,-20 -5,-9 -7,-18 -7,-29 0,-12 3,-22 9,-30 6,-8 14,-14 24,-17l4 16c-7,3 -12,7 -16,12 -4,5 -6,12 -6,19 0,11 4,19 11,26 8,7 18,10 32,10 14,0 25,-3 32,-10 7,-6 11,-15 11,-25 0,-8 -2,-16 -7,-22 -5,-6 -11,-10 -20,-12z"/>
  <path id="1" class="fil4" d="M1424 19333l-19 0c14,9 22,23 22,41 0,12 -3,22 -10,32 -6,10 -15,17 -27,23 -12,5 -25,8 -40,8 -15,0 -28,-2 -40,-7 -12,-5 -21,-12 -27,-22 -6,-10 -10,-21 -10,-33 0,-9 2,-17 6,-24 4,-7 9,-12 15,-17l-73 0 0 -25 202 0 0 23zm-73 78c19,0 33,-4 42,-12 9,-8 14,-17 14,-28 0,-11 -4,-20 -13,-28 -9,-8 -22,-11 -41,-11 -20,0 -35,4 -44,12 -9,8 -14,17 -14,29 0,11 4,20 13,28 9,7 23,11 42,11z"/>
  <polygon id="2" class="fil4" points="1363,19281 1338,19281 1338,19204 1363,19204 "/>
  <path id="3" class="fil4" d="M1424 19177l-146 0 0 -22 21 0c-7,-5 -13,-11 -17,-18 -4,-8 -7,-16 -7,-26 0,-11 2,-20 7,-27 5,-7 11,-12 19,-15 -17,-12 -26,-27 -26,-45 0,-15 4,-26 12,-34 8,-8 20,-12 37,-12l100 0 0 25 -92 0c-10,0 -17,1 -21,2 -4,2 -8,5 -11,9 -3,4 -4,9 -4,15 0,10 3,19 10,26 7,7 18,10 33,10l85 0 0 25 -95 0c-11,0 -19,2 -25,6 -6,4 -8,11 -8,20 0,7 2,13 6,19 4,6 9,10 16,13 7,3 17,4 31,4l76 0 0 25z"/>
  <path id="4" class="fil4" d="M1405 18846c8,9 13,18 17,27 3,9 5,18 5,27 0,16 -4,28 -12,37 -8,9 -18,13 -30,13 -7,0 -14,-2 -20,-5 -6,-3 -11,-8 -14,-13 -4,-5 -6,-11 -8,-18 -1,-5 -2,-12 -4,-22 -2,-20 -5,-35 -9,-44 -3,0 -6,0 -6,0 -10,0 -17,2 -21,7 -6,6 -8,16 -8,28 0,12 2,20 6,26 4,6 11,10 22,12l-3 24c-10,-2 -19,-6 -25,-11 -6,-5 -11,-12 -15,-22 -3,-10 -5,-21 -5,-33 0,-13 1,-23 4,-31 3,-8 7,-14 11,-17 4,-4 10,-6 17,-8 4,-1 12,-1 23,-1l33 0c23,0 38,-1 44,-2 6,-1 12,-3 18,-6l0 26c-5,3 -11,4 -18,5zm-55 2c4,9 7,23 9,41 1,10 3,17 5,22 2,4 5,7 8,10 4,2 7,3 12,3 7,0 12,-2 16,-8 4,-5 7,-12 7,-22 0,-10 -2,-18 -6,-26 -4,-7 -10,-13 -17,-16 -6,-3 -14,-4 -25,-4l-9 0z"/>
  <path id="5" class="fil4" d="M1480 18785l-203 0 0 -23 19 0c-7,-5 -13,-11 -17,-18 -4,-7 -6,-15 -6,-24 0,-13 3,-24 10,-33 6,-10 15,-17 27,-22 12,-5 25,-7 38,-7 15,0 28,3 40,8 12,5 21,13 28,23 6,10 10,21 10,32 0,8 -2,16 -5,22 -3,7 -8,12 -13,16l71 0 0 25zm-129 -23c19,0 33,-4 42,-11 9,-8 13,-17 13,-28 0,-11 -5,-20 -14,-28 -9,-8 -24,-12 -43,-12 -19,0 -33,4 -42,11 -9,8 -14,17 -14,27 0,11 5,20 15,28 10,8 24,12 43,12z"/>
  <path id="6" class="fil4" d="M1380 18638l-4 -25c10,-1 17,-5 23,-12 5,-6 8,-15 8,-26 0,-11 -2,-20 -7,-25 -5,-6 -10,-8 -16,-8 -6,0 -10,3 -13,7 -2,3 -5,12 -8,25 -5,18 -9,31 -12,38 -3,7 -8,12 -14,16 -6,4 -12,5 -20,5 -7,0 -13,-2 -18,-4 -6,-3 -10,-7 -14,-12 -3,-4 -5,-9 -7,-16 -2,-7 -3,-14 -3,-21 0,-11 2,-22 5,-30 3,-9 8,-15 13,-19 6,-4 13,-7 23,-9l3 24c-8,1 -14,4 -18,10 -4,5 -6,13 -6,22 0,11 2,19 6,24 4,5 8,7 13,7 3,0 6,-1 9,-3 3,-2 5,-5 7,-10 1,-3 3,-10 6,-22 5,-18 9,-30 11,-37 3,-7 7,-12 13,-16 6,-4 13,-6 21,-6 8,0 16,2 23,7 7,5 13,12 17,21 4,9 6,19 6,31 0,19 -4,34 -12,44 -8,10 -20,16 -35,19z"/>
  <polygon id="7" class="fil4" points="1424,18480 1396,18480 1396,18452 1424,18452 "/>
  <path id="8" class="fil4" d="M1370 18313l3 -24c17,3 30,9 39,20 9,11 14,24 14,40 0,20 -7,36 -20,48 -13,12 -32,18 -56,18 -16,0 -30,-3 -41,-8 -12,-5 -21,-13 -27,-24 -6,-11 -9,-22 -9,-35 0,-16 4,-29 12,-39 8,-10 19,-17 34,-19l4 24c-10,2 -17,6 -22,12 -5,6 -7,13 -7,21 0,13 4,23 13,31 9,8 23,12 42,12 20,0 34,-4 43,-11 9,-8 13,-17 13,-29 0,-10 -3,-18 -9,-24 -6,-7 -15,-11 -27,-12z"/>
  <path id="9" class="fil4" d="M1350 18277c-27,0 -47,-8 -60,-23 -11,-13 -16,-28 -16,-46 0,-20 7,-37 20,-49 13,-13 31,-19 55,-19 19,0 34,3 44,8 11,6 19,14 25,25 6,11 9,23 9,35 0,21 -7,37 -20,50 -13,13 -32,19 -57,19zm0 -25c19,0 33,-4 42,-12 9,-8 14,-19 14,-31 0,-12 -5,-23 -14,-31 -9,-8 -24,-12 -43,-12 -18,0 -32,4 -41,12 -9,8 -14,18 -14,31 0,12 5,23 14,31 9,8 23,12 42,12z"/>
  <path id="10" class="fil4" d="M1424 18110l-146 0 0 -22 21 0c-7,-5 -13,-11 -17,-18 -4,-8 -7,-16 -7,-26 0,-11 2,-20 7,-27 5,-7 11,-12 19,-15 -17,-12 -26,-27 -26,-45 0,-15 4,-26 12,-34 8,-8 20,-12 37,-12l100 0 0 25 -92 0c-10,0 -17,1 -21,2 -4,2 -8,5 -11,9 -3,4 -4,9 -4,15 0,10 3,19 10,26 7,7 18,10 33,10l85 0 0 25 -95 0c-11,0 -19,2 -25,6 -6,4 -8,11 -8,20 0,7 2,13 6,19 4,6 9,10 16,13 7,3 17,4 31,4l76 0 0 25z"/>
  <g id="_2434041359984">
   <g>
    <polygon class="fil5 str4" points="1744,18739 2166,18739 2166,18838 1744,18838 "/>
    <polygon class="fil6 str4" points="2166,18739 2589,18739 2589,18838 2166,18838 "/>
    <polygon class="fil5 str4" points="2589,18739 3011,18739 3011,18838 2589,18838 "/>
    <polygon class="fil6 str4" points="3011,18739 3434,18739 3434,18838 3011,18838 "/>
    <polygon class="fil5 str4" points="3434,18739 3857,18739 3857,18838 3434,18838 "/>
    <polygon class="fil6 str4" points="3097,19038 3773,19038 3773,19137 3097,19137 "/>
    <polygon class="fil5 str4" points="2421,19038 3097,19038 3097,19137 2421,19137 "/>
    <polygon class="fil6 str4" points="1745,19038 2421,19038 2421,19137 1745,19137 "/>
   </g>
   <path class="fil7" d="M2307 18349l57 -28 6 0 0 197c0,13 1,21 2,25 1,3 3,6 7,7 3,2 11,3 21,3l0 6 -88 0 0 -6c11,0 18,-1 21,-3 3,-2 5,-4 7,-7 1,-3 2,-11 2,-25l0 -126c0,-17 -1,-28 -2,-33 -1,-4 -2,-6 -4,-8 -2,-2 -5,-3 -8,-3 -4,0 -10,2 -18,5l-3 -5z"/>
   <path id="1" class="fil7" d="M2941 18315l0 157 40 -37c9,-8 13,-13 15,-15 1,-1 1,-3 1,-4 0,-2 -1,-4 -3,-6 -2,-2 -5,-3 -9,-3l0 -6 69 0 0 6c-9,0 -17,2 -23,4 -6,3 -13,7 -21,14l-41 37 40 51c11,14 19,23 23,27 6,5 10,9 15,10 3,1 8,2 15,2l0 6 -77 0 0 -6c4,0 7,-1 9,-2 2,-1 2,-3 2,-5 0,-3 -2,-7 -7,-13l-48 -62 0 52c0,10 1,17 2,20 1,3 3,5 6,7 3,1 8,2 17,2l0 6 -80 0 0 -6c8,0 14,-1 18,-3 2,-1 4,-3 5,-6 2,-4 3,-10 3,-20l0 -144c0,-18 0,-29 -1,-33 -1,-4 -2,-7 -4,-8 -2,-2 -4,-2 -7,-2 -2,0 -6,1 -11,3l-3 -6 47 -19 8 0z"/>
   <path id="2" class="fil7" d="M3118 18431c11,-12 18,-18 20,-20 5,-4 11,-8 17,-10 6,-2 12,-4 18,-4 10,0 18,3 25,9 7,6 12,14 14,25 12,-14 22,-23 30,-27 8,-4 17,-6 25,-6 8,0 16,2 22,6 6,4 12,11 15,21 3,7 4,17 4,31l0 68c0,10 1,17 2,20 1,2 3,5 6,6 3,2 8,3 15,3l0 6 -77 0 0 -6 3 0c7,0 12,-1 16,-4 3,-2 5,-5 6,-9 0,-2 1,-7 1,-17l0 -68c0,-13 -2,-22 -5,-27 -5,-7 -12,-11 -22,-11 -6,0 -12,2 -18,5 -6,3 -14,9 -22,17l0 2 1 7 0 75c0,11 1,17 2,20 1,3 3,5 7,7 3,2 9,3 17,3l0 6 -79 0 0 -6c9,0 15,-1 18,-3 3,-2 5,-5 7,-9 1,-2 1,-8 1,-17l0 -68c0,-13 -2,-22 -6,-28 -5,-7 -12,-11 -21,-11 -6,0 -12,2 -18,5 -9,5 -17,11 -22,17l0 85c0,10 1,17 2,20 1,3 4,5 6,7 3,2 8,2 17,2l0 6 -78 0 0 -6c7,0 12,-1 15,-2 3,-2 5,-4 7,-7 1,-3 2,-10 2,-20l0 -60c0,-17 -1,-28 -2,-34 -1,-4 -2,-6 -4,-8 -2,-1 -4,-2 -7,-2 -3,0 -7,1 -12,3l-3 -6 48 -19 7 0 0 34z"/>
   <path id="3" class="fil7" d="M2455 18444c0,-27 4,-50 12,-69 8,-19 19,-34 32,-43 10,-7 21,-11 32,-11 18,0 34,9 48,27 18,23 27,53 27,92 0,27 -4,50 -12,69 -8,19 -18,33 -30,41 -12,9 -24,13 -35,13 -22,0 -41,-13 -56,-39 -13,-22 -19,-49 -19,-80zm34 4c0,32 4,58 12,79 7,17 16,26 29,26 6,0 13,-3 19,-8 7,-6 12,-15 15,-28 5,-20 8,-48 8,-83 0,-27 -3,-49 -8,-67 -4,-13 -9,-23 -16,-28 -5,-4 -10,-6 -17,-6 -8,0 -15,4 -21,11 -8,10 -14,24 -17,45 -3,20 -4,41 -4,60z"/>
   <path id="4" class="fil7" d="M2632 18444c0,-27 4,-50 12,-69 8,-19 19,-34 32,-43 10,-7 21,-11 32,-11 18,0 34,9 48,27 18,23 27,53 27,92 0,27 -4,50 -12,69 -8,19 -18,33 -30,41 -12,9 -24,13 -35,13 -22,0 -41,-13 -56,-39 -13,-22 -19,-49 -19,-80zm34 4c0,32 4,58 12,79 7,17 16,26 29,26 6,0 13,-3 19,-8 7,-6 12,-15 15,-28 5,-20 8,-48 8,-83 0,-27 -3,-49 -8,-67 -4,-13 -9,-23 -16,-28 -5,-4 -10,-6 -17,-6 -8,0 -15,4 -21,11 -8,10 -14,24 -17,45 -3,20 -4,41 -4,60z"/>
   <path class="fil7" d="M2568 19291l0 7c-15,1 -27,4 -37,9 -10,5 -19,11 -28,21 -9,9 -17,20 -23,31 -6,11 -11,25 -15,41 16,-11 33,-17 50,-17 16,0 30,6 41,19 12,13 18,29 18,50 0,19 -6,37 -18,53 -14,19 -33,29 -56,29 -16,0 -30,-5 -41,-16 -22,-21 -33,-47 -33,-80 0,-21 4,-41 13,-60 8,-19 20,-36 36,-50 16,-15 30,-24 45,-29 14,-5 27,-8 40,-8l10 0zm-107 120c-2,16 -3,28 -3,38 0,11 2,23 6,36 4,13 10,23 18,31 6,5 13,8 21,8 10,0 19,-5 27,-14 8,-9 12,-23 12,-40 0,-20 -4,-37 -12,-51 -8,-14 -19,-22 -33,-22 -4,0 -9,1 -14,3 -5,2 -12,6 -22,12z"/>
   <path id="1" class="fil7" d="M2599 19414c0,-27 4,-50 12,-69 8,-19 19,-34 32,-43 10,-7 21,-11 32,-11 18,0 34,9 48,27 18,23 27,53 27,92 0,27 -4,50 -12,69 -8,19 -18,33 -30,41 -12,9 -24,13 -35,13 -22,0 -41,-13 -56,-39 -13,-22 -19,-49 -19,-80zm34 4c0,32 4,58 12,79 7,17 16,26 29,26 6,0 13,-3 19,-8 7,-6 12,-15 15,-28 5,-20 8,-48 8,-83 0,-27 -3,-49 -8,-67 -4,-13 -9,-23 -16,-28 -5,-4 -10,-6 -17,-6 -8,0 -15,4 -21,11 -8,10 -14,24 -17,45 -3,20 -4,41 -4,60z"/>
   <path id="2" class="fil7" d="M2909 19401c11,-12 18,-18 20,-20 5,-4 11,-8 17,-10 6,-2 12,-4 18,-4 10,0 18,3 25,9 7,6 12,14 14,25 12,-14 22,-23 30,-27 8,-4 17,-6 25,-6 8,0 16,2 22,6 6,4 12,11 15,21 3,7 4,17 4,31l0 68c0,10 1,17 2,20 1,2 3,5 6,6 3,2 8,3 15,3l0 6 -77 0 0 -6 3 0c7,0 12,-1 16,-4 3,-2 5,-5 6,-9 0,-2 1,-7 1,-17l0 -68c0,-13 -2,-22 -5,-27 -5,-7 -12,-11 -22,-11 -6,0 -12,2 -18,5 -6,3 -14,9 -22,17l0 2 1 7 0 75c0,11 1,17 2,20 1,3 3,5 7,7 3,2 9,3 17,3l0 6 -79 0 0 -6c9,0 15,-1 18,-3 3,-2 5,-5 7,-9 1,-2 1,-8 1,-17l0 -68c0,-13 -2,-22 -6,-28 -5,-7 -12,-11 -21,-11 -6,0 -12,2 -18,5 -9,5 -17,11 -22,17l0 85c0,10 1,17 2,20 1,3 4,5 6,7 3,2 8,2 17,2l0 6 -78 0 0 -6c7,0 12,-1 15,-2 3,-2 5,-4 7,-7 1,-3 2,-10 2,-20l0 -60c0,-17 -1,-28 -2,-34 -1,-4 -2,-6 -4,-8 -2,-1 -4,-2 -7,-2 -3,0 -7,1 -12,3l-3 -6 48 -19 7 0 0 34z"/>
   <path id="3" class="fil7" d="M3176 19284c5,0 9,2 12,5 3,3 5,8 5,12 0,5 -2,9 -5,12 -3,3 -8,5 -12,5 -5,0 -9,-2 -12,-5 -3,-3 -5,-8 -5,-12 0,-5 2,-9 5,-12 3,-3 8,-5 13,-5zm14 83l0 127c0,10 1,16 2,20 1,3 4,6 6,7 3,2 8,2 15,2l0 6 -77 0 0 -6c8,0 13,-1 15,-2 3,-1 5,-4 6,-7 2,-3 2,-10 2,-20l0 -61c0,-17 -1,-28 -2,-33 -1,-4 -2,-6 -4,-8 -2,-1 -4,-2 -7,-2 -3,0 -7,1 -12,3l-2 -6 47 -19 8 0z"/>
  </g>
  <rect class="fil2 str5" x="1005" y="1003" width="26146" height="18955"/>
  <g id="_2434041358256">
   <polygon class="fil3 str3" points="4126,18132 4942,18132 4942,19725 4126,19725 "/>
   <path class="fil8" d="M4474 18568c-1,3 -2,6 -2,9 0,3 -1,5 -1,7 0,6 2,10 5,12 3,2 10,3 18,3l4 0 -5 23 -78 0 5 -23 3 0c7,0 13,-2 16,-5 4,-3 6,-8 8,-16l38 -154c1,-3 1,-6 2,-8 0,-3 1,-6 1,-9 0,-5 -2,-9 -6,-11 -4,-2 -11,-3 -20,-3l-3 0 5 -23 72 0 62 184 31 -129c1,-4 2,-8 2,-10 0,-3 1,-5 1,-6 0,-6 -2,-10 -5,-12 -4,-2 -10,-3 -18,-3l-4 0 5 -23 79 0 -6 23 -3 0c-7,0 -13,2 -16,5 -4,3 -6,8 -8,16l-51 208 -22 0 -72 -209 -37 155z"/>
   <line class="fil2 str6" x1="4535" y1="19591" x2="4535" y2= "18822" />
   <line class="fil2 str6" x1="4253" y1="19315" x2="4816" y2= "19315" />
   <line class="fil2 str6" x1="4390" y1="19455" x2="4684" y2= "19169" />
   <line class="fil2 str6" x1="4387" y1="19168" x2="4685" y2= "19457" />
   <line class="fil2 str6" x1="4535" y1="18825" x2="4439" y2= "18943" />
   <line class="fil2 str6" x1="4535" y1="18825" x2="4623" y2= "18943" />
  </g>
  <g id="_2434041352752">
   <polygon class="fil3 str3" points="8009,19251 8009,19725 5700,19725 5700,19251 "/>
   <path class="fil8" d="M6777 19589l0 -202 40 0 48 143c4,13 8,23 10,30 2,-7 6,-18 11,-32l49 -141 36 0 0 202 -26 0 0 -169 -59 169 -24 0 -58 -172 0 172 -26 0z"/>
   <path id="1" class="fil8" d="M7110 19542l26 3c-4,15 -11,27 -22,35 -11,8 -25,12 -42,12 -21,0 -38,-7 -51,-20 -13,-13 -19,-32 -19,-55 0,-25 6,-44 19,-57 13,-14 29,-20 49,-20 20,0 35,7 48,20 12,13 19,32 19,56 0,1 0,4 0,7l-109 0c1,16 5,28 14,37 8,9 18,13 31,13 9,0 17,-2 23,-7 6,-5 12,-12 15,-23zm-81 -40l82 0c-1,-12 -4,-22 -9,-28 -8,-10 -18,-14 -31,-14 -11,0 -21,4 -29,11 -8,8 -12,18 -13,31z"/>
   <path id="2" class="fil8" d="M7167 19589l0 -146 22 0 0 22c6,-10 11,-17 16,-21 5,-3 10,-5 16,-5 8,0 17,3 26,8l-9 23c-6,-3 -12,-5 -18,-5 -5,0 -10,2 -15,5 -4,3 -7,8 -9,14 -3,9 -4,18 -4,29l0 77 -25 0z"/>
   <path id="3" class="fil8" d="M7357 19536l24 3c-3,17 -9,30 -20,39 -11,9 -24,14 -40,14 -20,0 -36,-7 -48,-20 -12,-13 -18,-32 -18,-56 0,-16 3,-30 8,-41 5,-12 13,-21 24,-27 11,-6 22,-9 35,-9 16,0 29,4 39,12 10,8 17,19 19,34l-24 4c-2,-10 -6,-17 -12,-22 -6,-5 -13,-7 -21,-7 -13,0 -23,4 -31,13 -8,9 -12,23 -12,42 0,20 4,34 11,43 8,9 17,13 29,13 10,0 18,-3 24,-9 7,-6 11,-15 12,-27z"/>
   <path id="4" class="fil8" d="M7498 19571c-9,8 -18,13 -27,17 -9,3 -18,5 -27,5 -16,0 -28,-4 -37,-12 -9,-8 -13,-18 -13,-30 0,-7 2,-14 5,-20 3,-6 8,-11 13,-14 5,-4 11,-6 18,-8 5,-1 12,-2 22,-4 20,-2 35,-5 44,-9 0,-3 0,-6 0,-6 0,-10 -2,-17 -7,-21 -6,-6 -16,-8 -28,-8 -12,0 -20,2 -26,6 -6,4 -10,11 -12,22l-24 -3c2,-10 6,-19 11,-25 5,-6 12,-11 22,-15 10,-3 21,-5 33,-5 13,0 23,1 31,4 8,3 14,7 17,11 4,4 6,10 8,17 1,4 1,12 1,23l0 33c0,23 1,38 2,44 1,6 3,12 6,18l-26 0c-3,-5 -4,-11 -5,-18zm-2 -55c-9,4 -23,7 -41,9 -10,1 -17,3 -22,5 -4,2 -7,5 -10,8 -2,4 -3,7 -3,12 0,7 2,12 8,16 5,4 12,7 22,7 10,0 18,-2 26,-6 7,-4 13,-10 16,-17 3,-6 4,-14 4,-25l0 -9z"/>
   <path id="5" class="fil8" d="M7613 19567l3 22c-7,1 -13,2 -19,2 -9,0 -16,-1 -21,-4 -5,-3 -8,-7 -10,-11 -2,-5 -3,-14 -3,-29l0 -84 -18 0 0 -19 18 0 0 -36 25 -15 0 51 25 0 0 19 -25 0 0 86c0,7 0,12 1,14 1,2 2,4 4,5 2,1 5,2 8,2 3,0 6,0 11,-1z"/>
   <path id="6" class="fil8" d="M7628 19516c0,-27 8,-47 23,-60 13,-11 28,-16 46,-16 20,0 37,7 49,20 13,13 19,31 19,55 0,19 -3,34 -8,44 -6,11 -14,19 -25,25 -11,6 -23,9 -35,9 -21,0 -37,-7 -50,-20 -13,-13 -19,-32 -19,-57zm25 0c0,19 4,33 12,42 8,9 19,14 31,14 12,0 23,-5 31,-14 8,-9 12,-24 12,-43 0,-18 -4,-32 -12,-41 -8,-9 -18,-14 -31,-14 -12,0 -23,5 -31,14 -8,9 -12,23 -12,42z"/>
   <path id="7" class="fil8" d="M7794 19589l0 -146 22 0 0 22c6,-10 11,-17 16,-21 5,-3 10,-5 16,-5 8,0 17,3 26,8l-9 23c-6,-3 -12,-5 -18,-5 -5,0 -10,2 -15,5 -4,3 -7,8 -9,14 -3,9 -4,18 -4,29l0 77 -25 0z"/>
   <circle class="fil9 str7" cx="5918" cy="19484" r="119"/>
   <rect class="fil9 str7" x="6376" y="19376" width="227" height="227"/>
   <line class="fil2 str8" x1="6092" y1="19483" x2="6313" y2= "19483" />
   <line class="fil2 str8" x1="6310" y1="19484" x2="6246" y2= "19549" />
   <line class="fil2 str8" x1="6310" y1="19483" x2="6247" y2= "19421" />
  </g>
 </g>
</svg>
