<?xml version="1.0" encoding="UTF-8"?>
<!DOCTYPE svg PUBLIC "-//W3C//DTD SVG 1.1//EN" "http://www.w3.org/Graphics/SVG/1.1/DTD/svg11.dtd">
<!-- Creator: CorelDRAW -->
<svg xmlns="http://www.w3.org/2000/svg" xml:space="preserve" width="297mm" height="210mm" version="1.1" style="shape-rendering:geometricPrecision; text-rendering:geometricPrecision; image-rendering:optimizeQuality; fill-rule:evenodd; clip-rule:evenodd"
viewBox="0 0 29700 21000"
 xmlns:xlink="http://www.w3.org/1999/xlink">
 <defs>
  <style type="text/css">
   <![CDATA[
    .str1 {stroke:black;stroke-width:10;stroke-opacity:0.501961}
    .str3 {stroke:black;stroke-width:50}
    .str5 {stroke:#434242;stroke-width:10}
    .str2 {stroke:black;stroke-width:10}
    .str0 {stroke:#000066;stroke-width:10}
    .str6 {stroke:#2B2A29;stroke-width:7.62}
    .str4 {stroke:black;stroke-width:7.62}
    .fil6 {fill:none}
    .fil8 {fill:#D9DADA}
    .fil0 {fill:#A2D9F7}
    .fil1 {fill:white}
    .fil5 {fill:#FEFEFE;fill-rule:nonzero}
    .fil4 {fill:#D9DADA;fill-rule:nonzero}
    .fil7 {fill:#434242;fill-rule:nonzero}
    .fil3 {fill:black;fill-rule:nonzero}
    .fil2 {fill:#FEFEFE;fill-rule:nonzero;fill-opacity:0.501961}
   ]]>
  </style>
 </defs>
 <g id="Plan_x0020_1">
  <metadata id="CorelCorpID_0Corel-Layer"/>
  <rect class="fil0" x="1000" y="1000" width="27700" height="18727"/>
  <path class="fil1 str0" d="M1005 3009l136 75c64,88 194,91 286,132 48,21 103,73 139,112 48,51 186,101 252,127 48,19 42,36 67,75 24,37 79,48 101,84 51,64 163,168 87,244 -45,45 -6,182 -77,150 -35,-16 -131,-76 -131,-119 0,-56 -1,-97 -43,-139 -36,-36 -12,-61 -78,-63 -81,-3 -126,16 -203,-22 -58,-29 -68,-60 -114,-106 -74,-19 -93,28 -130,75 -49,62 -150,153 -122,236 13,40 -7,68 -34,99 -28,31 -24,99 -10,135 23,11 38,30 66,31 62,2 63,-1 101,46 25,31 68,43 100,68 60,48 0,77 20,142 12,38 -6,67 14,101 14,23 2,54 0,80 -3,47 -75,-7 -109,6 -29,11 -64,20 -92,35 -31,16 -53,46 -80,60 0,60 5,119 5,178 -3,4 -6,24 -7,30 -8,6 -12,20 -20,28 -35,33 -85,34 -115,77l-13 21 5 -1996zm-5 -2009l0 579c36,0 45,-45 77,-19 43,36 138,71 193,84 69,16 70,34 111,88 45,59 122,93 178,141 29,25 67,96 102,107 -40,0 -94,-54 -135,-64 -31,-8 -92,-18 -123,-10 -36,9 68,34 82,39 51,19 95,42 142,68 25,14 53,29 82,29 24,0 48,-17 70,0 134,88 208,213 368,281 39,17 42,62 88,71 88,16 51,44 110,87 47,34 74,61 74,122 42,57 165,84 228,105 0,10 -31,122 -35,125 -41,29 16,72 -28,79 -80,14 -18,114 8,142 14,15 -23,128 -31,149 -15,45 -11,102 -16,149 -5,44 -28,52 -39,90 -7,24 44,102 55,130 9,22 18,30 22,56 4,24 -13,36 -13,52l-1 1c-19,0 -18,-82 -67,-69 0,8 20,45 23,63 18,114 197,114 219,193 15,8 44,-1 48,21 9,49 14,41 51,75 38,35 -45,104 29,117 79,14 12,63 57,105 38,36 11,36 34,77 12,21 10,70 36,71 61,3 59,54 95,88 22,21 69,48 76,76 11,33 54,67 44,106 -3,11 -39,15 -54,32 -42,45 -71,153 25,153 1,2 3,1 5,1 10,-40 38,-122 90,-109 3,23 -6,77 16,73 59,-12 69,109 79,152 17,73 5,83 85,41 64,-33 66,0 115,21 31,14 130,-22 164,-33 37,-11 76,-28 115,-23 29,4 60,34 88,34 22,-9 56,3 81,-4 17,-5 13,-35 24,-49 4,-5 45,42 47,54 12,71 42,-64 100,28 36,58 43,23 96,54 29,17 65,21 100,23 37,2 31,61 -30,49 -15,-3 -99,16 -102,29 16,4 79,45 33,52 -47,7 -68,-14 -92,-49 -35,-51 -143,-66 -203,-89 -40,-15 -169,-107 -204,-97 -34,10 -58,2 -81,36 -36,55 -49,70 -119,67 -21,-5 -72,-65 -72,-15 0,56 -24,119 -74,146 -11,6 -34,-6 -41,6 -5,8 -1,28 -8,41 -18,29 57,39 76,55 17,14 14,40 13,60 -2,28 65,44 89,71 27,31 80,68 84,112 39,115 -36,71 -39,127 -2,41 37,210 73,231l81 49c60,36 24,-8 24,-71 0,-41 71,-139 92,-77 5,15 -5,42 12,46 65,15 94,107 106,168 5,23 -10,70 4,81 30,24 36,51 61,77 27,-82 -8,-174 76,-244 57,-47 94,58 135,94 21,19 8,48 8,72 0,33 21,-10 43,3 11,7 21,37 29,37 109,0 28,-11 5,-75 -37,-100 45,-64 9,-156l-106 -271c-20,-50 -49,-90 -62,-145 -22,-91 11,-35 59,-18 62,22 69,22 102,91l29 59c9,18 46,-44 57,-51 27,-46 46,-35 92,-35 47,0 21,-40 30,-75 -59,0 -46,-59 -79,-27 -35,34 -102,-14 -93,-61 5,-26 11,-84 -20,-93 -21,-6 -61,-20 -62,-47 0,-6 72,-12 94,-21 21,-8 82,-39 101,-26 8,5 22,73 34,56 55,-74 -2,-50 94,-21 21,6 25,30 32,47 12,28 67,10 81,59 26,92 111,76 81,-27 -12,-41 -50,-170 -17,-202 83,-83 -102,-113 -153,-147 -36,-25 -28,-73 -64,-90 -46,-22 -90,13 -126,-53 2,-18 6,-37 6,-55 -30,-10 -43,-3 -75,8 -37,13 -44,-27 -54,-50 -4,-10 -121,-39 -141,-45 -57,-17 -130,-58 -19,-58 61,0 95,-27 143,-61 34,-23 -53,-35 -53,-76 0,-49 -28,-46 -34,-86 -13,-81 98,-35 129,-20 22,11 83,67 29,78 -24,5 -45,34 0,21 22,-6 62,-18 80,-34 6,-5 -47,-86 -57,-105 -22,-42 -33,-72 -65,-107 -24,-25 -50,-43 -76,-65 -32,-27 -39,-125 -72,-164 -37,-44 -133,-136 -109,-200 14,-38 36,-72 43,-113 10,-61 -29,-49 37,-110 19,-24 33,-70 64,-75 26,-4 24,25 41,41 48,45 -101,30 -74,50 35,26 47,63 77,89 44,37 95,65 152,71 23,3 16,28 15,44 -2,31 6,51 17,82 31,58 -4,42 64,51 26,3 51,27 77,35 104,31 6,-57 -26,-75 -42,-23 -76,-50 -88,-97 -20,-77 28,-57 74,-40 54,20 59,11 98,60 20,26 47,49 62,78 4,8 25,53 31,53 52,4 36,-119 3,-137 -44,-24 -88,-33 -101,-85 -9,-37 21,-53 50,-40 32,14 37,28 75,29 66,2 158,56 158,130 8,0 19,-12 27,-16 38,-39 -33,-92 -57,-128 -38,-57 -207,-20 -187,-128 3,-17 -41,-62 -53,-76 -24,-26 -6,-81 28,-88 35,-7 47,18 74,30 155,66 151,-116 266,-146 17,-4 81,62 125,67 66,8 92,-60 146,-78 73,-7 180,47 249,74 48,19 171,2 201,23 26,18 23,82 37,111 49,100 286,-8 377,10 14,58 -113,111 -162,119 -36,26 -60,56 -106,67 -32,8 7,78 -5,109 -11,28 -30,60 -37,89 53,0 77,-56 108,-89 118,-126 241,-243 409,-311 103,-15 102,-202 204,-228 40,-10 77,-8 103,24 32,39 136,-54 197,-54 50,0 96,37 139,57 28,13 194,1 221,-15 16,-9 73,-144 73,-165 -85,0 -141,-28 -212,-73 -91,-57 -181,-54 -257,-148 -27,-54 -75,-115 -75,-175 45,-11 -4,-147 -20,-174 -27,-49 -89,-54 -98,-117 -15,-105 -70,-76 -127,-137 -36,-38 27,-34 49,-74 23,-41 42,-49 87,-68 61,-22 47,-8 53,-77 13,-152 -5,-356 189,-393 27,-5 56,12 78,24 2,1 88,-66 84,-87 -6,-28 -29,-32 -24,-69l17 -122c-10,-57 24,-110 37,-162 7,-26 8,-51 2,-77 -6,-25 -22,-43 -22,-70l12 -77 -6113 0zm21583 0l6117 0 0 13193 -54 56c-11,33 -32,61 -39,98 -6,29 0,58 13,84 29,58 40,113 1,172 -26,28 -34,81 -61,116 -27,35 -102,69 -141,91 -80,44 -191,136 -282,143 -296,159 -617,-161 -783,-387 -40,-54 -168,-127 -186,-176 -28,-19 -199,-201 -189,-234 33,-109 61,-49 120,-49l1 1c36,141 350,-77 438,-86 97,-10 109,-60 157,-136 54,-84 102,-140 180,-202l0 -3 -208 28c-78,10 -72,116 -156,142 -47,14 -128,82 -168,83 -21,0 -218,-48 -229,-63 -171,-114 -341,-148 -395,-367 -33,-17 -85,-10 -115,-34l-98 -79c-68,-55 -136,-27 -210,-77 -32,-22 -109,-57 -85,-112 0,-83 -84,-214 -113,-295 -33,-91 -129,-134 -223,-113 -43,10 5,-61 5,-84 0,-25 -7,-61 4,-83 43,-89 -123,-155 -195,-173l-190 18c-53,5 -108,45 -158,44 -27,-1 -55,-21 -85,-21 -57,-2 -78,12 -127,36 -42,21 -117,-3 -168,3 -89,10 -91,5 -91,76 -44,22 -10,-44 -81,-34 -62,10 -117,-48 -197,-35 -85,26 -199,-99 -260,-43 -76,69 18,134 -140,85 -61,-19 -128,23 -184,-1 -93,-39 -151,-14 -237,14 -42,13 -29,46 -61,59 -24,9 -10,-51 -38,-59 -46,-13 -80,24 -80,63l-96 4c-6,48 -114,64 -72,-8 20,-34 -96,-44 -102,-33 -23,38 -16,56 -64,46 -64,-13 -115,-43 -174,-66 -50,-20 -203,-19 -219,-70 -5,-16 -25,-86 -55,-63 -71,53 1,42 -9,83 -5,19 -32,-5 -40,-10 -63,-42 -82,-4 -127,-29 -23,-13 -76,-2 -101,0 -51,5 -168,-21 -215,-41 -70,-23 -132,23 -192,23 -40,0 -95,-73 -139,-94 -137,-69 -324,67 -411,-35 -46,-54 -118,42 -101,-35 11,-51 -227,13 -237,-79 0,-60 -26,-51 -49,-90 -22,-36 23,-67 -7,-97 -104,-105 -42,-174 -63,-300 -12,-72 -49,-156 -113,-195 -100,-62 -224,-43 -331,-43l-138 107c-30,23 -78,12 -115,24 -80,28 -48,130 -133,91 -43,-20 -66,-4 -101,19l-169 105c-85,53 -134,-54 -217,-47 -33,-4 2,-55 -55,-58l-127 -7c-35,-2 -64,18 -94,19 -39,1 -70,-42 -107,-56 -65,-24 -46,-59 -84,-94 -33,-31 -177,-75 -228,-99 -40,-19 -238,-131 -171,-160 0,-16 -49,-39 -58,-60 -21,-65 -70,-54 -121,-81 -69,-37 -47,-80 -141,-85 -196,-11 -252,31 -352,-153 -15,-27 2,-60 -14,-89 -54,-93 -87,-163 -101,-273 -6,-42 -63,-29 -98,-60 -39,-50 76,-112 -1,-132 -94,-24 -99,23 -99,-91 0,-120 -123,-279 -222,-341 -27,-54 -22,-58 -33,-113 -7,-37 -27,-59 -49,-85 -101,0 -169,145 -239,134 -28,-4 -27,-40 -40,-60 -30,-44 -77,-39 -126,-43 -28,-2 -125,-58 -131,-43 -15,37 2,75 -7,108 -7,26 -170,62 -202,62 -16,12 -68,-9 -84,-20 -19,-13 -46,-37 -71,-34 -9,1 31,52 36,62 23,38 62,73 41,122 -32,77 -90,58 -160,78 -33,10 -106,76 -106,110 39,0 87,-18 126,-8 15,4 13,68 13,83 0,47 12,140 40,178 12,16 47,1 54,26 9,34 23,41 39,70 7,29 22,86 35,112 33,63 29,106 72,168 31,44 18,101 73,130 43,23 30,40 54,81 18,31 21,136 58,146 40,11 29,8 65,30 29,17 50,-5 78,23 15,35 35,86 54,118 14,23 28,30 34,60 1,6 19,47 23,23 3,-18 -35,-70 2,-80 10,-3 73,-12 74,-16 0,18 -42,40 -34,83 13,69 55,107 109,145 34,24 88,17 112,59 11,20 42,40 23,60 -23,24 -3,122 33,130 39,8 64,0 64,54 -15,60 -27,101 -27,162 0,66 -56,-60 -75,-60 0,51 -17,74 33,102 20,11 18,70 26,94 43,122 161,194 201,314 -16,22 3,74 13,96 17,37 61,71 68,112 7,45 14,53 61,53 8,-24 -4,-44 -17,-65 -54,-88 -30,-223 -37,-323 21,-47 -19,-117 63,-56 4,3 13,-73 18,-91 11,-42 47,-113 67,-154 8,-16 87,-86 102,-86 6,26 51,103 74,113 23,10 87,-9 87,26 0,27 4,55 1,82 -6,52 -40,77 -33,139 5,43 34,96 34,135 4,30 29,107 23,131 -10,42 -42,63 -52,100 -8,29 -12,61 -25,88 -21,43 8,33 10,61 0,6 -58,59 -66,78 -15,34 -7,64 28,64 22,0 67,34 72,33 6,-2 16,-43 26,-52 1,-1 22,12 29,14 11,4 53,-2 47,16 -6,20 2,51 7,72 -5,24 15,70 26,92 23,10 162,25 188,16 35,-12 74,-35 101,-61 11,-11 61,-73 76,-61 104,13 210,-8 312,15 121,27 196,44 321,38 83,-7 76,-48 121,-103 65,-78 170,-150 247,-217l128 -112c48,-42 104,-75 143,-127 79,-29 149,-184 210,-245 49,-49 111,-57 163,-105 44,-40 123,-248 142,-253 53,-12 41,-28 61,-64 3,-6 78,-13 88,-13 1,1 1,1 1,3 -17,17 -41,23 -38,51 41,26 7,73 -7,103 36,109 -70,178 -70,270 10,10 25,3 37,8 19,96 -4,209 19,301 -47,84 160,334 212,395 106,122 260,274 437,285 28,8 54,-7 82,4 22,9 36,22 61,27 27,6 58,-2 84,12 36,19 71,54 115,41 81,-23 73,-9 133,34 14,10 43,13 52,27 8,12 29,66 40,74 25,54 56,107 98,149 35,36 73,54 101,98 81,130 118,193 280,193l1 1c0,127 -24,212 -88,322 -33,48 -77,101 -99,155 -17,41 -36,105 -75,121 -104,42 -162,150 -224,237 -47,66 -70,138 -123,202 -40,45 -10,147 -112,116 -118,-37 -71,-8 -71,-112 -16,0 -74,16 -78,31 -9,35 -41,42 -47,63 -6,18 8,36 -11,50 -23,17 -43,28 -47,58l-19 133c-6,46 -94,124 -44,146 10,5 21,160 20,182 -4,65 47,119 47,163 -2,2 -3,3 -5,6 -3,1 -2,1 -4,3 -161,18 -400,-16 -517,120 -119,138 -49,300 -211,415 -43,27 -175,17 -229,21 -66,6 -129,-3 -189,32 -36,20 -171,178 -130,219l0 2 3 2c0,143 -86,268 -255,242 -43,-4 -67,-40 -134,-38 -62,2 -132,6 -192,21 -36,9 -51,38 -92,44 -56,8 -74,11 -120,49 -32,26 -133,18 -186,44 -89,44 -219,94 -317,112 -170,43 -282,293 -192,445 -1,1 -1,1 -1,3 -50,8 -145,55 -196,77 -70,30 -133,88 -207,103 -112,39 -210,80 -329,100 -110,19 -167,64 -264,105 -58,25 -90,9 -139,23 -69,20 -156,69 -223,75 -42,14 -126,52 -153,90 -39,5 -79,31 -79,76 -45,56 -135,155 -202,160 -69,5 -196,59 -251,7 -35,-33 -140,45 -173,69 -63,46 -155,161 -239,144 -131,18 -230,116 -365,92 -117,-20 -341,-8 -430,78 -54,52 -98,131 -175,119 -90,8 -111,85 -127,149l-1 1c-33,0 -47,-50 -79,-22 -28,24 -35,34 -69,8 -71,-52 -125,32 -193,65 -37,18 -129,35 -170,41 -35,5 -30,-37 -61,-43 -30,-5 -67,-6 -94,-21 -48,-28 -48,-16 -91,9 -25,15 -46,33 -28,-14 18,-47 -11,-50 -12,-93 -49,-84 -94,-163 -83,-264 9,-83 18,-158 -17,-236 -18,-41 -81,-97 -69,-145 -32,-70 -88,-182 -73,-259 15,-77 -26,-138 -39,-209 -10,-50 -30,-50 -80,-44 -43,6 -63,-92 -48,-117 31,0 24,53 46,63 44,-33 11,-6 55,-6 12,-12 -10,-77 -20,-89l3 -11c-11,-47 -67,-100 -24,-133 56,-44 62,-85 61,-151 -3,-113 -70,-235 -70,-345 0,-72 -105,-61 -85,-145 -3,-32 -46,-47 -60,-74 -18,-36 -35,-71 -41,-111 -12,-87 -94,-124 -156,-173 -66,-51 -292,-276 -267,-365 -7,-97 -134,-108 -120,-191 6,-39 20,-26 -11,-49 -11,-9 -30,-73 -30,-88 0,-9 9,-36 7,-40 -5,-15 -30,-11 -38,-26 -20,-38 -40,-109 -47,-153 -6,-39 -53,-49 -80,-76 -28,-20 -16,-70 -32,-85 -18,-18 -34,-6 -63,-38 -63,-71 -111,-140 -205,-178 -210,-86 -327,-226 -447,-414 -31,-31 -56,-84 -72,-124 -8,-19 -52,-94 -37,-101 91,-43 23,-78 10,-153 -8,-46 -14,-92 -55,-122 -83,-61 9,-78 23,-119 12,-35 20,-80 36,-112 0,-113 -44,-214 -106,-307 -55,-83 -90,-181 -121,-276 -10,-31 -41,-48 -42,-81 -35,-115 -155,-217 -253,-283 -35,-24 -61,-21 -96,-36 -24,-11 -82,-84 -97,-80 -21,5 -29,49 -56,28 -22,-18 -33,-54 -52,-77 -31,-37 -2,-38 -9,-71 -7,-29 -65,-67 -83,-94 -7,-13 -71,-85 -36,-85 42,0 55,-18 55,-58 0,-89 -20,-127 -72,-195 -31,-40 -88,-97 -94,-149 -6,-58 -14,-46 -62,-71 -39,-20 -69,-42 -84,-86 41,-51 20,-43 20,-95 -142,-35 -95,-147 -177,-245 -92,-111 -137,-249 -259,-337 -20,-14 -15,-62 -19,-90 -15,-46 -66,-67 -96,-105 -32,-40 -36,-98 -61,-142 -48,-85 -130,-181 -221,-217 -84,-33 -143,50 -205,41 -5,-19 2,-51 5,-72 23,-12 41,-88 51,-110 2,-27 35,-53 46,-77 11,-24 3,-51 6,-77 7,-63 1,-129 9,-191 10,-70 110,-286 75,-343 -69,35 -134,172 -144,245 -12,86 -8,280 -83,331 -26,31 -63,115 -60,155 4,40 19,70 11,112 -12,66 -84,131 -84,190 -25,-25 -70,-42 -100,-63l-118 -84c-50,-51 -78,-129 -135,-169 -54,-38 -120,-108 -156,-163 -28,-43 -20,-63 -20,-111 0,-47 3,-111 -30,-148 -16,-18 -61,-32 -58,-57 -25,-25 -53,-46 -74,-75 -14,-19 -16,-52 -34,-66 -14,-10 -21,-14 -28,-30 -9,-22 10,-44 -9,-64 -26,-27 -23,-46 -23,-80 0,-28 -20,-73 -27,-102 -6,-27 -26,-28 -33,-49 -27,12 -14,43 -19,68 -8,44 -70,55 -70,106 0,41 25,66 45,99 14,23 40,36 58,57 23,26 19,82 36,115 23,43 -7,61 4,101 18,54 69,85 89,132 11,26 6,90 30,106 57,40 82,95 115,156 39,70 94,117 156,162 20,31 52,51 69,86 17,36 -20,25 -20,51 0,82 35,185 97,249 13,13 45,15 54,28 6,9 8,82 15,104 11,38 47,76 53,111 0,59 -9,89 9,149 27,90 88,195 137,276 29,49 189,238 176,287 32,40 50,132 75,182l164 323c22,43 36,88 65,126 29,38 72,58 86,107 19,39 55,68 87,93 21,17 105,37 101,73 -1,8 -30,-2 -35,-2 -41,0 -84,-16 -121,-4 0,47 34,78 20,133 -22,91 10,154 24,241 7,41 52,153 81,182 24,33 72,87 110,103 44,18 91,6 137,13 14,2 68,127 94,155 66,70 154,97 221,164 26,26 4,71 8,109 6,56 29,113 34,166 8,84 99,175 154,233 16,17 55,88 -9,56 -31,-15 -44,-76 -76,-87 16,21 16,68 23,97 18,70 0,141 31,208 14,30 9,65 4,97 -7,43 6,82 6,124 -17,61 -5,98 12,155 12,41 -11,71 -13,108 -3,62 36,130 43,197 10,89 57,168 78,255 25,58 82,38 128,60 19,9 181,122 180,135 -3,41 -18,28 3,76 43,102 87,-7 111,11 83,65 105,87 149,183 33,71 115,148 115,230 3,26 22,53 34,77 40,81 69,193 92,282 29,114 55,210 62,330 -5,97 81,145 100,209l22 77c9,31 69,44 85,105 5,20 25,175 70,148 24,-14 -14,-78 -13,-105 2,-35 29,-69 29,-105 43,11 102,61 107,105 5,41 39,134 67,165 74,81 78,-89 165,-26 32,24 75,28 104,58 29,29 31,75 76,90 143,0 245,160 312,272 20,34 75,131 113,136 87,11 104,47 168,95 24,24 59,23 76,41 36,36 60,118 70,165 3,17 12,104 45,79 29,-21 32,-50 58,-13 26,38 69,71 88,112 2,5 24,49 31,35 9,-17 -5,-53 0,-74 42,0 108,97 121,133 26,70 82,109 115,171 28,66 56,127 52,202 -4,65 -80,26 -106,52 -10,10 -5,24 -17,35 -57,50 -94,35 -156,60 -18,7 -41,22 -51,38 -3,4 -30,36 -20,38 2,16 106,-3 124,-3 52,0 74,20 111,52l-13282 0 0 -10507 11 0 161 -4c88,-2 203,52 291,68 106,19 200,91 303,125 93,40 149,45 230,117 112,99 239,193 386,232 130,34 357,-110 417,-222 30,-12 80,-117 94,-150 36,-85 47,-130 -2,-217 -50,-90 -113,-180 -90,-293 38,-110 55,-189 142,-279 100,-104 318,-269 467,-269 99,0 127,5 203,-63 87,-78 102,-17 195,-17 40,-4 76,-30 108,0 29,27 194,57 247,77 69,27 142,61 215,71 4,19 -3,39 0,61 3,16 15,34 15,49 0,31 -57,27 -12,72 35,35 103,81 154,81 97,0 155,-20 241,45 54,7 70,62 129,68 88,8 228,-22 301,3 36,12 74,8 110,17 32,8 75,250 132,269 75,25 136,-27 206,-49 84,-26 115,-20 201,3 148,33 348,37 483,102 66,31 127,-6 161,70 34,76 117,54 178,45 11,-10 34,-27 48,-27 2,2 3,3 5,4 57,133 98,94 233,94 93,8 137,21 212,75 133,95 173,102 321,15 90,-53 230,-140 292,-223 40,-6 66,50 125,17 10,-25 15,-97 31,-109l2 0c16,-12 117,41 176,-19 57,-12 112,-61 169,-68 90,-12 168,111 260,111 63,0 110,-46 182,-46 40,0 30,57 68,80 63,38 112,45 167,100 50,50 126,89 194,48 40,9 97,-35 142,-35 77,77 11,76 134,46 128,-32 254,-15 373,-91 59,-38 115,-88 150,-149 31,-54 94,-137 118,-199 38,-95 76,-195 99,-294 16,-72 22,-167 48,-233 19,-48 53,-53 61,-99 5,-87 -6,-84 47,-147 32,-38 8,-105 35,-136 75,-85 109,-170 109,-281 42,0 59,27 74,-33 11,-45 7,-86 11,-132 3,-49 -5,-66 33,-102 14,-14 69,-71 84,-74 95,-20 50,-91 26,-160 -18,-52 -21,-79 -21,-136 0,-69 25,-132 19,-199 0,-42 -6,-91 -41,-118 -35,-27 -74,-32 -26,-77 17,-16 -10,-30 4,-53 16,-26 37,-56 11,-84 -22,-23 17,-17 28,-21 13,-5 20,-19 27,-31 45,-73 -20,-118 -42,-182 -83,-151 239,-173 165,-342 -10,-24 -63,-91 -91,-91 -18,27 -87,93 -121,99 -96,17 -55,96 -105,101l-106 9c-16,1 -91,-67 -126,-77 -78,-23 -113,-86 -196,-63 -91,26 -191,134 -260,198 -55,31 -25,73 -48,112 -19,31 -49,6 -75,6 -79,0 -118,89 -217,79 -73,-7 -115,14 -183,33 -32,8 -61,-3 -93,9 -29,12 -60,28 -91,33 -63,10 -148,-96 -197,-129l0 0c-10,-14 -31,-63 -44,-71 -11,-91 -219,-153 -288,-185 -37,-17 -66,-45 -102,-63 -63,-32 -102,-32 -169,-45 -36,3 -72,-7 -108,-7 -28,0 -51,2 -77,-7 -72,-22 -69,98 -71,141 -2,42 -8,52 -29,89 -12,20 -3,38 -6,61 -4,30 -17,51 -30,78 -2,3 -7,7 -7,10l-1 1c-26,0 -55,-47 -79,-42 -33,6 -57,18 -89,28 -61,19 -152,92 -212,51 -45,-30 -104,-15 -148,-41 -30,-18 -43,-54 -77,-62 -3,-5 -34,-31 -40,-33 0,-21 16,-34 14,-60 -2,-26 -61,-30 -62,-54 -1,-22 27,-38 26,-50 -2,-23 -58,-8 -63,-24 -19,0 -26,54 -31,66 -8,21 -30,-35 -33,-41 -9,-17 -102,-102 -120,-102 -32,0 -44,29 -82,21 -66,-13 -49,55 -93,77 -20,10 -101,135 -101,46 14,-5 29,-16 42,-21 0,-10 2,-13 -7,-21 -6,-5 -34,-11 -33,-16 8,-21 89,-60 60,-57l-170 18c-46,5 -88,49 -134,55 -98,12 -74,-32 1,-47 59,-11 120,-40 182,-40 26,0 108,24 99,-21 -3,-17 -16,-32 -7,-50 16,-35 112,-3 112,-91 -44,0 -108,23 -152,33 -52,12 -114,18 -168,18 -68,0 -103,-17 -168,12 -25,11 -24,-51 -19,-63 8,-19 9,-71 42,-53 80,44 96,37 96,-46 0,-17 -39,-31 -53,-42 -38,-30 -21,-47 -70,-35 -46,11 -42,-19 -52,-58 -8,-29 -4,-76 -30,-96 -41,-33 -82,-35 -10,-49 16,-3 31,-6 47,-12 65,0 33,-85 32,-121 0,-11 7,-34 4,-43 -5,-14 -49,-16 -61,-17 -40,-9 -71,-53 -116,-28 -6,3 -19,21 -22,17 -42,-52 3,-109 -87,-120 -80,-10 -21,34 -54,52 -9,5 -80,-67 -103,-76 -36,-14 -69,-10 -47,-49 4,-7 -1,-26 3,-26 11,44 107,17 107,-33 0,-15 -105,-139 -69,-153 126,-48 101,236 172,162 21,-21 67,10 93,10 16,0 92,-31 95,-45 -39,-10 -108,19 -111,-44 -3,-48 -64,-72 -66,-113 -2,-43 27,-27 54,-28 51,-3 56,-44 80,-78 2,-3 23,-26 17,-29 -44,-22 -119,19 -125,-24 2,-20 -5,-36 -4,-56 0,-8 32,-18 40,-29 11,-15 -64,-52 -71,-68 -8,-22 8,-41 -24,-48 -30,-6 -21,-50 -21,-78 43,0 60,68 93,-15 18,-45 71,-49 58,-103l-146 5c-68,2 -139,40 -205,56 -14,3 -86,29 -79,1l27 -105c16,-61 36,-124 19,-189 -12,-43 -10,-36 26,-41 15,-2 30,-9 43,-17 74,-41 162,-264 269,-244 84,16 152,-35 222,-35 27,109 138,91 223,91 154,0 -115,-150 58,-112 24,5 46,0 70,0 0,25 -40,57 -40,72 71,0 141,-23 213,-23 74,0 160,37 229,6 69,0 240,-11 145,-35l-154 -40c0,-54 337,-129 378,-128 101,4 46,-25 -1,-39 -75,-23 -104,30 -149,-50 -26,-47 -59,-40 -102,-63 -27,-14 35,-142 43,-173 4,-1 20,-4 21,3 140,0 313,77 448,64 49,-5 88,-51 109,-52 51,-3 148,42 198,59 78,26 221,17 291,-30 56,-15 32,-79 51,-105 16,-21 111,-48 139,-66l344 -229c84,-56 144,-53 237,-71 108,-20 182,-105 287,-102l358 32c75,7 218,33 289,12 59,-17 63,-68 98,-103 28,0 46,51 84,51 11,14 -37,63 -17,77 2,13 43,56 53,72 53,130 240,119 338,60 121,-73 120,129 128,186 5,36 105,113 141,117 111,12 105,-123 196,-50 20,16 47,19 68,30 35,19 24,75 59,84 66,17 127,-6 176,49 16,25 43,57 74,35 29,-20 -9,-43 25,-63 43,-25 70,44 92,75 49,70 296,73 369,51l300 -91c36,-11 69,20 97,1 73,-49 50,1 106,35 38,23 100,19 143,15 99,19 112,57 215,8l206 -96c125,-58 359,-140 407,-289 22,-67 6,-37 57,-71 18,-12 24,-45 31,-63 51,-87 -40,-201 -49,-292 -12,-119 -48,-246 -115,-345 -46,-68 -112,-22 -156,-75 -20,-25 -13,-94 -47,-101 -55,-11 -61,-32 -105,-53 -34,-17 -68,0 -100,-10 -37,-13 -63,-38 -103,-51 -83,-28 -38,-86 -93,-122 -32,-21 -74,-37 -111,-48 -31,-9 -140,-121 -142,-152 -29,-48 -102,-101 -144,-142 -49,-47 -85,-108 -128,-160 -53,-65 -163,-145 -238,-180l4134 0c29,8 10,78 61,71 47,-6 34,9 48,47 18,46 70,84 81,132 3,15 19,71 34,78 13,6 98,-110 98,-36 0,63 -32,113 -59,170 -12,36 -7,75 -21,111 -10,25 -42,141 -2,148 34,6 -5,41 -8,70 -7,66 -24,96 26,145 45,43 87,39 87,110 -7,27 5,85 18,111 12,23 41,2 53,23 28,47 30,112 73,159 69,75 114,144 155,236 23,51 20,47 71,63 29,9 66,36 70,68 70,56 111,128 169,194 37,42 93,90 110,145 13,41 6,87 17,130 12,47 54,122 96,148 35,22 94,18 65,84 -25,115 159,101 224,101 56,0 207,96 177,172 -12,29 -71,-53 -115,-24 -58,38 -66,-9 -115,-9 0,2 0,1 -2,2 0,52 -109,61 -148,84 -42,24 -48,53 -73,92 -28,45 28,50 21,68 -7,17 -29,2 -29,42 0,71 6,121 -36,188 -18,16 -54,75 -35,97 23,27 34,40 34,76 0,15 22,58 -27,29 -52,-30 21,102 -42,106 -35,3 -78,-68 -102,-49 -26,19 -18,76 -18,104 0,62 -70,115 -52,169 24,70 33,99 12,176 -13,73 -5,196 8,270l28 153c10,55 47,75 67,119 36,20 63,52 102,70 49,23 100,36 155,43l215 29c79,11 73,68 115,120 142,178 316,291 540,347 63,-12 143,37 204,52 139,34 302,-59 435,-92 131,-33 282,-91 416,-98 58,4 164,7 220,-8 81,-23 -30,-222 -37,-281 -11,-90 -78,-299 -46,-377 14,-57 32,-119 34,-178 3,-95 -48,-157 -3,-252 31,-64 93,-125 62,-197 -78,-28 -128,-66 -188,-126 -7,-60 -15,-124 -101,-129l-114 -7c-71,-4 4,-102 20,-141 23,-56 42,19 88,19 21,0 96,15 83,-22 -9,-27 -65,-38 -70,-73 -4,-25 8,-56 22,-77 55,-80 35,-35 0,-100 -15,-28 -30,28 -76,15 -57,-16 -118,-19 -176,-34 -55,-14 35,109 39,126l-115 -111c-53,-51 -38,-123 -38,-199 27,-51 -14,-128 31,-180 30,-35 37,-50 28,-96 -9,-50 47,-101 47,-157 0,-28 -30,-54 -30,-96 35,0 67,108 74,134 11,37 -1,76 8,115 10,41 102,-5 146,-4 79,3 111,4 132,-83 33,8 27,159 92,166 43,5 69,-9 104,-29 31,-17 71,-6 105,-8 43,-8 161,-2 172,-59 -29,0 -49,20 -84,13 -12,-3 -32,-67 -32,-79 10,0 52,36 74,40 45,9 78,5 93,-38 12,-35 39,-43 46,-87 12,-81 -42,-95 -81,-152 -37,-53 -140,-62 -167,-105 -60,-77 -115,-55 -115,-176 0,-70 14,-103 -49,-146 -16,-11 -5,-108 -23,-138 -34,-57 -392,3 -425,42 -40,47 -87,135 -109,194 -3,9 -20,55 -11,61 9,6 47,-22 63,-25 13,-3 -16,86 -20,104 -21,85 12,167 12,247 -21,0 -39,-114 -50,-137 -17,-33 -51,-72 -83,-93 -40,-27 -7,-42 -7,-89 0,-52 -96,-75 -85,-110 12,-35 31,-56 29,-96 -2,-40 -43,-81 -13,-123 22,-39 34,-91 54,-133 14,-29 37,-55 43,-89 8,-48 30,-79 41,-123 12,-47 -35,-36 -50,-68 -23,-47 -83,-90 -133,-48 -42,36 -65,-17 -88,-49 -75,0 -108,100 -162,-8 -42,-75 -83,-111 -102,-194 -3,-14 -70,10 -85,13 -31,6 -74,22 -104,15 0,-78 69,-261 -3,-312 -46,-33 -79,-62 -108,-113 -28,-49 -13,-121 -51,-159 -8,-11 -32,-19 -37,-29 -12,-24 3,-56 -8,-84 -17,-42 -46,-60 -88,-68 -33,-7 -128,-3 -149,-30l-32 -20 4549 0c3,19 10,39 10,57 0,25 -6,48 -5,74 1,16 11,47 24,56 15,10 29,7 43,-6 15,-13 26,-31 47,-35 25,-4 51,-4 74,-15 34,-15 10,-46 22,-70l28 -62zm-21345 665c-16,4 -42,0 -60,0 -27,0 -39,-10 -63,-15 -29,-6 -52,42 -32,61 41,38 89,11 137,20 19,3 45,2 63,-5 8,-3 22,-9 18,-20 -3,-9 -31,-43 -40,-44l-23 3zm97 140c-13,6 -41,2 -55,1 -22,-1 -33,-2 -47,-18 -23,-24 -142,-26 -168,-11 0,7 85,41 100,48 39,17 102,7 144,7 45,0 102,9 144,0l3 -3c0,-21 -55,-25 -71,-26l-50 3zm42 116c-16,5 -31,4 -47,7 -19,3 -38,7 -58,5 -27,-3 -73,-37 -72,7 2,70 77,25 115,25 21,0 47,5 67,10 7,2 47,11 50,2 14,0 -26,-37 -33,-39l-23 -17zm1419 2322c-19,-1 -35,-35 -39,-51 -10,-41 -17,-49 -42,-80 -17,-21 -53,-51 -45,-83 19,0 39,2 60,2 18,0 35,-6 51,-2 4,23 -18,58 -4,77 17,23 16,21 19,50 2,26 26,73 53,80 22,6 57,29 57,55 -21,7 -68,-11 -82,-29l-28 -20zm268 816c-28,13 -58,-4 -56,-36 1,-18 26,-22 28,-45 4,-46 37,1 62,-21 11,-10 3,-32 5,-45 3,-17 18,-27 22,-39 10,0 15,57 17,67 8,42 60,52 64,85 3,20 18,45 28,59 6,8 22,42 -3,38 -21,-3 -29,-27 -43,-40 -7,-7 -35,14 -45,15 -34,2 -33,-5 -56,-31l-24 -7zm206 277c-10,13 -8,31 -20,43 -15,15 -32,-22 -38,-31 -10,-14 -10,-21 -25,-30 -27,-16 -36,-38 -28,-68 4,-14 7,-25 12,-38 2,-4 33,27 39,32 25,19 57,24 79,44 9,8 20,17 30,24 14,10 -19,21 -27,21l-22 3zm1045 964c-30,-2 -36,-59 -28,-81 4,-12 2,-71 16,-71 9,0 12,12 15,19 8,17 23,34 37,45 28,21 24,22 7,51 -12,21 -2,34 -29,52l-18 -15zm1259 690c-58,0 -124,15 -179,36 -60,23 -111,20 -174,20 -29,0 -43,4 -42,-29 1,-26 -2,-54 -2,-78 -11,-4 -24,-3 -37,-2 -34,16 -86,-23 -118,-34 -67,-22 -415,-31 -432,-88 -6,-18 12,-185 32,-159 6,8 45,44 50,24 8,-29 -19,-53 5,-85 0,117 126,94 185,47 17,-14 52,-8 60,14 6,17 -43,52 3,54 41,2 -3,78 80,76 59,-2 109,-35 167,-47 46,-10 77,4 121,4 80,0 21,49 81,51l158 7c30,-3 59,-1 88,-5 67,-9 49,-9 42,49 -4,28 5,86 46,77 65,-13 70,-73 146,-47 41,14 63,-54 99,-54 0,53 1,170 -74,170 -49,0 -47,-35 -101,-12 -63,26 -74,13 -142,9l-61 0zm783 -305c-15,-4 -25,-38 -25,-52 0,-8 18,-30 23,-38 16,-22 14,-44 20,-68 3,-11 7,-29 13,-38 4,-6 17,-25 19,-29 8,37 -7,73 -18,107 -6,21 -20,46 -7,67 20,34 35,48 6,81 -7,8 -1,20 -11,29 -6,6 -16,2 -22,-3 -12,-9 -4,-18 -3,-30l6 -26zm300 -404c49,-23 62,-99 119,-128 19,-9 48,-14 69,-22 21,-8 56,-19 77,-19 0,2 0,1 2,2 0,24 -32,57 -43,77 -22,40 -48,74 -48,118 0,46 -43,28 -60,70 -10,24 -82,109 -115,78 -22,-20 7,-55 7,-75 0,-33 0,-28 -16,-60l7 -42zm-263 -438c-16,6 -43,13 -57,25 -17,16 -19,45 -46,45 -33,0 -31,23 -31,49 13,3 51,-29 64,-37 8,-5 18,-5 26,-7 13,-4 26,-23 36,-33 16,-15 36,-20 56,-26 7,-2 21,-8 20,-18 -1,-9 -33,-8 -40,-8l-30 10zm-88 -84c-10,0 -21,-10 -29,-15 -10,-6 -17,-11 -28,-11 0,13 4,24 4,37 -1,22 -6,40 20,47 13,3 20,-2 31,-7 3,-2 6,0 7,-4 3,-7 2,-16 1,-23l-7 -23zm-311 239c6,26 -21,20 -37,24 -12,3 -9,19 -9,29 0,13 4,23 19,18 20,-6 25,-31 47,-32 8,0 18,-3 18,-13 0,-8 -2,-12 -7,-18 -4,-4 -9,-4 -14,-7l-16 -2zm-466 -194c-13,-7 -25,-37 -29,-50 -2,-6 -5,-21 0,-25 7,-6 12,-13 19,-19 12,-11 28,-19 38,-31 5,-6 16,-21 25,-19 4,22 6,44 7,67 0,8 0,18 -3,25 -2,5 -8,10 -8,15 -15,7 -16,28 -36,28l-13 8zm-87 -56c3,-12 -3,-42 -9,-52 -7,-11 -23,-4 -31,1 -14,8 -20,13 -27,27 -17,34 -74,38 -69,82 18,0 28,-9 44,-16 13,-6 24,-12 32,1 9,15 39,-18 47,-21l14 -21zm52 188c-15,-8 -22,-30 -42,-30 -8,0 -23,19 -24,26 -2,9 17,20 23,24 4,3 7,5 10,8 9,10 9,24 16,33 3,4 8,6 13,2 10,-8 9,-24 7,-35l-4 -28zm-416 -35c-11,24 -23,34 -50,34 -15,0 -31,-4 -41,12 -10,15 -15,34 2,45 15,10 61,21 74,2 14,-21 11,-51 28,-72l-12 -21zm886 -550c-13,10 -25,22 -40,31 -15,9 -25,0 -39,-2 -23,-4 -45,9 -61,24 -8,8 -28,37 -21,48 8,13 33,-10 41,-14 19,-10 43,-12 64,-19 16,-5 47,-27 47,-46l9 -22zm-567 35c-11,-1 -31,-18 -44,-23 -18,-7 -41,-2 -59,-2 0,8 5,11 10,19 12,16 36,22 50,36 6,6 14,12 19,19 8,13 16,21 34,13 18,-8 42,-32 16,-47l-26 -15zm-396 21c6,-12 17,-36 5,-47 -7,-6 -26,-10 -35,-6 -23,10 -20,41 -16,61 2,11 -5,23 1,34 9,16 27,-6 34,-13l12 -29zm46 117c-2,-10 -3,-19 -7,-29 -4,-9 -23,-20 -31,-10 -7,10 -3,26 -2,37 2,18 -4,34 -3,52 2,32 31,-15 39,-21l4 -30zm1278 -184c-7,-17 -6,-47 -31,-47 -19,0 -36,6 -55,-2 -18,-7 -31,-21 -51,-24 -21,-3 -71,29 -90,39 -35,19 -19,45 19,36 16,-4 39,-9 50,7 6,9 4,20 14,27 13,9 39,-7 51,-12 21,-10 48,-16 71,-21l22 -3zm-450 -363c0,-29 9,-63 4,-91 -3,-14 2,-32 0,-48 -1,-13 -7,-30 -7,-42 -41,-10 -95,-26 -136,-4 -11,6 -47,21 -17,37 31,17 66,47 71,83 3,26 -7,49 -29,61 -47,26 10,42 20,77 18,63 57,-37 73,-47l21 -27zm-612 353c-10,-8 -21,-21 -28,-32 -12,-18 -26,-39 -42,-54 -9,-8 -28,-18 -34,-26 -5,-7 27,-61 43,-50 18,12 18,40 45,46 45,10 49,23 46,66 -1,11 -5,17 -2,29 3,12 5,32 -11,34l-16 -12zm29 177c-3,-9 -3,-15 -4,-24 -1,-7 -5,-12 -7,-17 -13,0 -17,-6 -20,13 -1,7 -1,10 -5,16 -5,8 -14,7 -20,16 -10,14 -9,23 5,31 5,3 12,9 19,10 12,3 17,-12 23,-18l9 -27zm-374 -612c-13,-43 -12,-151 -70,-160 -91,-15 -187,-16 -260,-81 -37,-33 -76,-130 -104,-146 -36,-21 -139,102 -187,85 -6,6 -28,27 -28,35 41,8 89,-8 129,7 52,21 96,83 145,114 23,14 63,79 84,84 0,3 -7,25 -4,25 0,10 37,29 41,43 61,15 120,-21 169,38 17,20 47,40 52,66 5,25 22,63 24,82 11,9 21,18 35,21 4,1 23,4 23,10 0,6 -42,37 -14,46 15,5 31,-11 47,1 15,11 63,16 82,9 30,-11 38,-60 32,-88 -4,-17 -40,-8 -54,-10 -35,-5 -78,-12 -101,-42 -17,-22 -28,-75 -34,-102l-7 -36zm173 -230c-3,-11 -10,-25 -17,-35 -12,-18 -39,-33 -25,-57 5,-9 12,-20 16,-31 5,-15 23,22 27,26 9,10 15,29 21,41 9,16 27,23 36,38 4,7 -2,18 -6,23 -10,12 -23,12 -38,11l-15 -17zm814 -146c-23,4 -39,-42 -68,-46 -31,-4 -61,-6 -76,-38 -7,-15 -35,-80 -18,-92 16,-11 72,-1 95,-4 50,-6 81,-79 135,-38 9,6 15,28 20,39 29,54 95,102 107,163 5,28 -48,31 -65,26 -36,-10 -71,-11 -109,-3l-21 -7zm-531 -526c-8,4 -30,3 -35,-7 -7,-13 2,-32 3,-46 1,-17 -23,-73 15,-70 37,3 53,59 90,48 13,-4 59,-48 73,-37 -12,16 -31,45 -34,65 -3,19 7,41 7,61 -1,25 -21,9 -26,-3 -4,-9 -10,-24 -19,-29 -16,-10 -17,7 -18,17 -2,18 -30,17 -43,17l-12 -16zm379 -258c-26,6 -50,19 -74,28 -17,7 -32,10 -32,30 0,12 6,33 17,38 15,7 47,-17 63,-20 12,-2 24,-3 35,-6 8,-2 14,-6 21,-7 3,-10 9,-18 7,-31 -2,-15 -2,-28 -22,-28l-16 -5zm-125 -167c-11,3 -15,-3 -25,-7 -15,-5 -39,-10 -48,5 -15,23 15,63 34,73 16,9 33,-10 43,-21 9,-10 26,-16 20,-31l-22 -20zm-497 -61c-6,-2 -9,-7 -14,-10 -13,-6 -31,-10 -38,-24 -7,-13 10,-28 14,-40 6,-19 11,-65 40,-64 5,0 16,12 20,16 12,12 34,11 48,20 9,5 3,24 0,32 -3,10 -6,17 -6,28 0,33 -17,39 -47,46l-16 -4zm4787 3167c-28,20 -89,63 -108,90 -36,52 -34,13 -76,55 -88,87 64,151 64,199 -54,0 -200,-26 -221,27 -59,149 -204,73 -290,153 -23,22 3,71 -30,63 -25,-6 -53,-7 -53,-34 0,-61 -27,-29 -74,-27 -80,3 -86,-29 -150,-39 -30,-37 -83,-176 -83,-226l1 -1c38,10 64,66 101,12 53,-75 104,-29 183,-32 71,-2 28,-110 40,-160 10,0 29,21 44,25 190,50 465,-14 622,-132 27,-11 50,-30 74,-44 20,-12 41,-22 65,-22l1 1c0,9 -14,18 -20,23 -8,7 -16,10 -23,17 -9,8 -18,18 -27,25l-40 26zm2928 10918c-19,9 -33,-3 -45,-19 -24,-33 -47,-41 -88,-41 -30,0 -46,21 -34,50 22,52 64,40 110,43 17,1 29,25 48,26 20,2 45,6 45,-21l-37 -39zm885 -577l-9 0c-6,-13 -20,-32 -28,-45 -7,-11 -14,-13 -26,-9 -17,5 -85,9 -63,41 17,25 35,27 61,39 21,10 11,20 20,34 12,17 17,42 41,47 15,3 34,4 45,-7 18,-18 0,-25 -11,-39l-30 -60zm3964 2712c17,-6 45,-30 67,-41 46,-22 78,-23 110,-70 23,-35 26,-59 70,-77 68,-29 107,-53 173,-5 25,19 63,29 94,34 24,3 63,-3 81,3 8,31 -51,94 -65,120l-19 36 -511 0zm1784 -566c-15,-18 -97,-54 -114,-31 -22,30 -52,70 -91,79 -1,3 45,28 54,35 32,23 35,75 75,87 61,17 219,-3 279,-24 39,-14 74,-39 113,-53 11,-4 74,-28 74,-36 -34,-7 -61,-9 -85,-36 -38,-43 -83,-43 -134,-29 -55,15 -88,23 -150,23l-21 -14zm-1579 -6939c-20,-8 -41,-41 -26,-61 24,-33 -11,-70 -11,-107 0,-18 10,-24 27,-25 19,-2 41,-12 58,-12 0,28 -6,56 -6,85 0,18 6,33 8,49 4,24 -7,47 -7,72 0,11 5,22 1,33 -7,19 -32,-6 -38,-13l-6 -21zm2597 -559c14,47 7,64 -47,82 -35,12 -81,33 -116,41 -35,8 -92,-8 -96,32 -5,50 57,26 91,15 28,-9 208,-88 208,-40 0,40 20,6 32,-5 37,-36 82,-81 125,-110 31,-21 52,-33 23,-63 -22,-23 -83,32 -115,35 -37,3 -64,4 -101,4l-4 10zm-9973 -2566c-11,-29 4,-71 6,-99 2,-27 5,-57 5,-83 -13,-3 -30,0 -44,0 -16,0 -21,17 -24,30 -8,32 -23,54 -28,88 -3,23 3,41 8,61 3,12 2,26 2,39 0,15 18,30 31,35 31,11 26,-39 42,-50l3 -20z"/>
  <polygon class="fil2 str1" points="25049,17903 28104,17903 28104,19496 25049,19496 "/>
  <path class="fil3" d="M28283 19403c0,-17 4,-34 13,-51 9,-17 22,-30 38,-39 17,-9 34,-14 52,-14 18,0 35,5 52,14 17,9 29,22 39,38 9,17 14,34 14,52 0,18 -5,35 -14,52 -9,17 -22,29 -39,39 -17,9 -34,14 -52,14 -18,0 -35,-5 -52,-14 -17,-9 -30,-22 -38,-39 -9,-17 -13,-34 -13,-51zm17 0c0,15 4,29 11,43 7,14 18,25 32,32 14,8 28,12 43,12 15,0 29,-4 43,-12 14,-8 24,-18 32,-32 8,-14 12,-28 12,-43 0,-15 -4,-29 -12,-43 -8,-14 -18,-25 -32,-32 -14,-8 -28,-11 -43,-11 -15,0 -30,4 -43,12 -14,8 -25,19 -32,32 -7,14 -11,28 -11,43zm104 -33l5 -17c12,3 21,9 28,18 7,9 10,20 10,33 0,16 -5,29 -16,39 -10,10 -25,15 -44,15 -12,0 -23,-2 -32,-7 -9,-5 -16,-11 -20,-20 -5,-9 -7,-18 -7,-29 0,-12 3,-22 9,-30 6,-8 14,-14 24,-17l4 16c-7,3 -12,7 -16,12 -4,5 -6,12 -6,19 0,11 4,19 11,26 8,7 18,10 32,10 14,0 25,-3 32,-10 7,-6 11,-15 11,-25 0,-8 -2,-16 -7,-22 -5,-6 -11,-10 -20,-12z"/>
  <path id="1" class="fil3" d="M28489 19108l-19 0c14,9 22,23 22,41 0,12 -3,22 -10,32 -6,10 -15,17 -27,23 -12,5 -25,8 -40,8 -15,0 -28,-2 -40,-7 -12,-5 -21,-12 -27,-22 -6,-10 -10,-21 -10,-33 0,-9 2,-17 6,-24 4,-7 9,-12 15,-17l-73 0 0 -25 202 0 0 23zm-73 78c19,0 33,-4 42,-12 9,-8 14,-17 14,-28 0,-11 -4,-20 -13,-28 -9,-8 -22,-11 -41,-11 -20,0 -35,4 -44,12 -9,8 -14,17 -14,29 0,11 4,20 13,28 9,7 23,11 42,11z"/>
  <polygon id="2" class="fil3" points="28428,19056 28403,19056 28403,18979 28428,18979 "/>
  <path id="3" class="fil3" d="M28489 18952l-146 0 0 -22 21 0c-7,-5 -13,-11 -17,-18 -4,-8 -7,-16 -7,-26 0,-11 2,-20 7,-27 5,-7 11,-12 19,-15 -17,-12 -26,-27 -26,-45 0,-15 4,-26 12,-34 8,-8 20,-12 37,-12l100 0 0 25 -92 0c-10,0 -17,1 -21,2 -4,2 -8,5 -11,9 -3,4 -4,9 -4,15 0,10 3,19 10,26 7,7 18,10 33,10l85 0 0 25 -95 0c-11,0 -19,2 -25,6 -6,4 -8,11 -8,20 0,7 2,13 6,19 4,6 9,10 16,13 7,3 17,4 31,4l76 0 0 25z"/>
  <path id="4" class="fil3" d="M28470 18621c8,9 13,18 17,27 3,9 5,18 5,27 0,16 -4,28 -12,37 -8,9 -18,13 -30,13 -7,0 -14,-2 -20,-5 -6,-3 -11,-8 -14,-13 -4,-5 -6,-11 -8,-18 -1,-5 -2,-12 -4,-22 -2,-20 -5,-35 -9,-44 -3,0 -6,0 -6,0 -10,0 -17,2 -21,7 -6,6 -8,16 -8,28 0,12 2,20 6,26 4,6 11,10 22,12l-3 24c-10,-2 -19,-6 -25,-11 -6,-5 -11,-12 -15,-22 -3,-10 -5,-21 -5,-33 0,-13 1,-23 4,-31 3,-8 7,-14 11,-17 4,-4 10,-6 17,-8 4,-1 12,-1 23,-1l33 0c23,0 38,-1 44,-2 6,-1 12,-3 18,-6l0 26c-5,3 -11,4 -18,5zm-55 2c4,9 7,23 9,41 1,10 3,17 5,22 2,4 5,7 8,10 4,2 7,3 12,3 7,0 12,-2 16,-8 4,-5 7,-12 7,-22 0,-10 -2,-18 -6,-26 -4,-7 -10,-13 -17,-16 -6,-3 -14,-4 -25,-4l-9 0z"/>
  <path id="5" class="fil3" d="M28545 18560l-203 0 0 -23 19 0c-7,-5 -13,-11 -17,-18 -4,-7 -6,-15 -6,-24 0,-13 3,-24 10,-33 6,-10 15,-17 27,-22 12,-5 25,-7 38,-7 15,0 28,3 40,8 12,5 21,13 28,23 6,10 10,21 10,32 0,8 -2,16 -5,22 -3,7 -8,12 -13,16l71 0 0 25zm-129 -23c19,0 33,-4 42,-11 9,-8 13,-17 13,-28 0,-11 -5,-20 -14,-28 -9,-8 -24,-12 -43,-12 -19,0 -33,4 -42,11 -9,8 -14,17 -14,27 0,11 5,20 15,28 10,8 24,12 43,12z"/>
  <path id="6" class="fil3" d="M28445 18413l-4 -25c10,-1 17,-5 23,-12 5,-6 8,-15 8,-26 0,-11 -2,-20 -7,-25 -5,-6 -10,-8 -16,-8 -6,0 -10,3 -13,7 -2,3 -5,12 -8,25 -5,18 -9,31 -12,38 -3,7 -8,12 -14,16 -6,4 -12,5 -20,5 -7,0 -13,-2 -18,-4 -6,-3 -10,-7 -14,-12 -3,-4 -5,-9 -7,-16 -2,-7 -3,-14 -3,-21 0,-11 2,-22 5,-30 3,-9 8,-15 13,-19 6,-4 13,-7 23,-9l3 24c-8,1 -14,4 -18,10 -4,5 -6,13 -6,22 0,11 2,19 6,24 4,5 8,7 13,7 3,0 6,-1 9,-3 3,-2 5,-5 7,-10 1,-3 3,-10 6,-22 5,-18 9,-30 11,-37 3,-7 7,-12 13,-16 6,-4 13,-6 21,-6 8,0 16,2 23,7 7,5 13,12 17,21 4,9 6,19 6,31 0,19 -4,34 -12,44 -8,10 -20,16 -35,19z"/>
  <polygon id="7" class="fil3" points="28489,18255 28460,18255 28460,18226 28489,18226 "/>
  <path id="8" class="fil3" d="M28435 18088l3 -24c17,3 30,9 39,20 9,11 14,24 14,40 0,20 -7,36 -20,48 -13,12 -32,18 -56,18 -16,0 -30,-3 -41,-8 -12,-5 -21,-13 -27,-24 -6,-11 -9,-22 -9,-35 0,-16 4,-29 12,-39 8,-10 19,-17 34,-19l4 24c-10,2 -17,6 -22,12 -5,6 -7,13 -7,21 0,13 4,23 13,31 9,8 23,12 42,12 20,0 34,-4 43,-11 9,-8 13,-17 13,-29 0,-10 -3,-18 -9,-24 -6,-7 -15,-11 -27,-12z"/>
  <path id="9" class="fil3" d="M28415 18052c-27,0 -47,-8 -60,-23 -11,-13 -16,-28 -16,-46 0,-20 7,-37 20,-49 13,-13 31,-19 55,-19 19,0 34,3 44,8 11,6 19,14 25,25 6,11 9,23 9,35 0,21 -7,37 -20,50 -13,13 -32,19 -57,19zm0 -25c19,0 33,-4 42,-12 9,-8 14,-19 14,-31 0,-12 -5,-23 -14,-31 -9,-8 -24,-12 -43,-12 -18,0 -32,4 -41,12 -9,8 -14,18 -14,31 0,12 5,23 14,31 9,8 23,12 42,12z"/>
  <path id="10" class="fil3" d="M28489 17885l-146 0 0 -22 21 0c-7,-5 -13,-11 -17,-18 -4,-8 -7,-16 -7,-26 0,-11 2,-20 7,-27 5,-7 11,-12 19,-15 -17,-12 -26,-27 -26,-45 0,-15 4,-26 12,-34 8,-8 20,-12 37,-12l100 0 0 25 -92 0c-10,0 -17,1 -21,2 -4,2 -8,5 -11,9 -3,4 -4,9 -4,15 0,10 3,19 10,26 7,7 18,10 33,10l85 0 0 25 -95 0c-11,0 -19,2 -25,6 -6,4 -8,11 -8,20 0,7 2,13 6,19 4,6 9,10 16,13 7,3 17,4 31,4l76 0 0 25z"/>
  <g id="_2434361154960">
   <g>
    <polygon class="fil4 str2" points="25188,18504 25748,18504 25748,18603 25188,18603 "/>
    <polygon class="fil5 str2" points="25748,18504 26308,18504 26308,18603 25748,18603 "/>
    <polygon class="fil4 str2" points="26308,18504 26868,18504 26868,18603 26308,18603 "/>
    <polygon class="fil5 str2" points="26868,18504 27428,18504 27428,18603 26868,18603 "/>
    <polygon class="fil4 str2" points="27428,18504 27988,18504 27988,18603 27428,18603 "/>
    <polygon class="fil5 str2" points="26981,18803 27877,18803 27877,18902 26981,18902 "/>
    <polygon class="fil4 str2" points="26086,18803 26981,18803 26981,18902 26086,18902 "/>
    <polygon class="fil5 str2" points="25190,18803 26086,18803 26086,18902 25190,18902 "/>
   </g>
   <path class="fil3" d="M26229 18075l-13 29 -71 0 -15 31c31,5 55,16 73,34 15,16 23,34 23,55 0,12 -2,24 -7,34 -5,10 -11,19 -19,27 -8,7 -16,13 -25,18 -13,6 -27,9 -41,9 -14,0 -24,-2 -31,-7 -6,-5 -10,-10 -10,-16 0,-3 1,-6 4,-8 3,-2 6,-4 10,-4 3,0 6,0 8,1 2,1 6,3 11,7 9,6 17,9 26,9 13,0 25,-5 35,-15 10,-10 15,-23 15,-37 0,-14 -5,-27 -14,-40 -9,-12 -22,-22 -38,-28 -12,-5 -30,-8 -51,-9l45 -91 84 0z"/>
   <path id="1" class="fil3" d="M26265 18194c0,-27 4,-50 12,-69 8,-19 19,-34 32,-43 10,-7 21,-11 32,-11 18,0 34,9 48,27 18,23 27,53 27,92 0,27 -4,50 -12,69 -8,19 -18,33 -30,41 -12,9 -24,13 -35,13 -22,0 -41,-13 -56,-39 -13,-22 -19,-49 -19,-80zm34 4c0,32 4,58 12,79 7,17 16,26 29,26 6,0 13,-3 19,-8 7,-6 12,-15 15,-28 5,-20 8,-48 8,-83 0,-27 -3,-49 -8,-67 -4,-13 -9,-23 -16,-28 -5,-4 -10,-6 -17,-6 -8,0 -15,4 -21,11 -8,10 -14,24 -17,45 -3,20 -4,41 -4,60z"/>
   <path id="2" class="fil3" d="M26441 18194c0,-27 4,-50 12,-69 8,-19 19,-34 32,-43 10,-7 21,-11 32,-11 18,0 34,9 48,27 18,23 27,53 27,92 0,27 -4,50 -12,69 -8,19 -18,33 -30,41 -12,9 -24,13 -35,13 -22,0 -41,-13 -56,-39 -13,-22 -19,-49 -19,-80zm34 4c0,32 4,58 12,79 7,17 16,26 29,26 6,0 13,-3 19,-8 7,-6 12,-15 15,-28 5,-20 8,-48 8,-83 0,-27 -3,-49 -8,-67 -4,-13 -9,-23 -16,-28 -5,-4 -10,-6 -17,-6 -8,0 -15,4 -21,11 -8,10 -14,24 -17,45 -3,20 -4,41 -4,60z"/>
   <path id="3" class="fil3" d="M26751 18064l0 157 40 -37c9,-8 13,-13 15,-15 1,-1 1,-3 1,-4 0,-2 -1,-4 -3,-6 -2,-2 -5,-3 -9,-3l0 -6 69 0 0 6c-9,0 -17,2 -23,4 -6,3 -13,7 -21,14l-41 37 40 51c11,14 19,23 23,27 6,5 10,9 15,10 3,1 8,2 15,2l0 6 -77 0 0 -6c4,0 7,-1 9,-2 2,-1 2,-3 2,-5 0,-3 -2,-7 -7,-13l-48 -62 0 52c0,10 1,17 2,20 1,3 3,5 6,7 3,1 8,2 17,2l0 6 -80 0 0 -6c8,0 14,-1 18,-3 2,-1 4,-3 5,-6 2,-4 3,-10 3,-20l0 -144c0,-18 0,-29 -1,-33 -1,-4 -2,-7 -4,-8 -2,-2 -4,-2 -7,-2 -2,0 -6,1 -11,3l-3 -6 47 -19 8 0z"/>
   <path id="4" class="fil3" d="M26927 18180c11,-12 18,-18 20,-20 5,-4 11,-8 17,-10 6,-2 12,-4 18,-4 10,0 18,3 25,9 7,6 12,14 14,25 12,-14 22,-23 30,-27 8,-4 17,-6 25,-6 8,0 16,2 22,6 6,4 12,11 15,21 3,7 4,17 4,31l0 68c0,10 1,17 2,20 1,2 3,5 6,6 3,2 8,3 15,3l0 6 -77 0 0 -6 3 0c7,0 12,-1 16,-4 3,-2 5,-5 6,-9 0,-2 1,-7 1,-17l0 -68c0,-13 -2,-22 -5,-27 -5,-7 -12,-11 -22,-11 -6,0 -12,2 -18,5 -6,3 -14,9 -22,17l0 2 1 7 0 75c0,11 1,17 2,20 1,3 3,5 7,7 3,2 9,3 17,3l0 6 -79 0 0 -6c9,0 15,-1 18,-3 3,-2 5,-5 7,-9 1,-2 1,-8 1,-17l0 -68c0,-13 -2,-22 -6,-28 -5,-7 -12,-11 -21,-11 -6,0 -12,2 -18,5 -9,5 -17,11 -22,17l0 85c0,10 1,17 2,20 1,3 4,5 6,7 3,2 8,2 17,2l0 6 -78 0 0 -6c7,0 12,-1 15,-2 3,-2 5,-4 7,-7 1,-3 2,-10 2,-20l0 -60c0,-17 -1,-28 -2,-34 -1,-4 -2,-6 -4,-8 -2,-1 -4,-2 -7,-2 -3,0 -7,1 -12,3l-3 -6 48 -19 7 0 0 34z"/>
   <path class="fil3" d="M26044 19090c7,-16 15,-28 25,-37 10,-9 23,-13 38,-13 19,0 33,6 43,18 8,9 11,19 11,29 0,17 -11,35 -32,53 14,6 25,14 33,24 7,10 11,23 11,37 0,20 -6,38 -19,53 -17,19 -41,29 -73,29 -16,0 -26,-2 -32,-6 -6,-4 -9,-8 -9,-13 0,-3 1,-6 4,-9 3,-3 6,-4 10,-4 3,0 6,0 9,1 2,1 6,3 13,6 7,4 12,6 14,7 4,1 9,2 14,2 12,0 22,-5 31,-14 9,-9 13,-20 13,-32 0,-9 -2,-18 -6,-27 -3,-6 -6,-11 -10,-15 -5,-5 -12,-9 -20,-13 -9,-4 -17,-6 -26,-6l-6 0 0 -5c9,-1 18,-4 27,-10 9,-5 16,-12 20,-19 4,-8 6,-16 6,-25 0,-12 -4,-21 -11,-29 -7,-7 -17,-11 -28,-11 -18,0 -33,10 -45,29l-6 -3z"/>
   <path id="1" class="fil3" d="M26215 19164c0,-27 4,-50 12,-69 8,-19 19,-34 32,-43 10,-7 21,-11 32,-11 18,0 34,9 48,27 18,23 27,53 27,92 0,27 -4,50 -12,69 -8,19 -18,33 -30,41 -12,9 -24,13 -35,13 -22,0 -41,-13 -56,-39 -13,-22 -19,-49 -19,-80zm34 4c0,32 4,58 12,79 7,17 16,26 29,26 6,0 13,-3 19,-8 7,-6 12,-15 15,-28 5,-20 8,-48 8,-83 0,-27 -3,-49 -8,-67 -4,-13 -9,-23 -16,-28 -5,-4 -10,-6 -17,-6 -8,0 -15,4 -21,11 -8,10 -14,24 -17,45 -3,20 -4,41 -4,60z"/>
   <path id="2" class="fil3" d="M26392 19164c0,-27 4,-50 12,-69 8,-19 19,-34 32,-43 10,-7 21,-11 32,-11 18,0 34,9 48,27 18,23 27,53 27,92 0,27 -4,50 -12,69 -8,19 -18,33 -30,41 -12,9 -24,13 -35,13 -22,0 -41,-13 -56,-39 -13,-22 -19,-49 -19,-80zm34 4c0,32 4,58 12,79 7,17 16,26 29,26 6,0 13,-3 19,-8 7,-6 12,-15 15,-28 5,-20 8,-48 8,-83 0,-27 -3,-49 -8,-67 -4,-13 -9,-23 -16,-28 -5,-4 -10,-6 -17,-6 -8,0 -15,4 -21,11 -8,10 -14,24 -17,45 -3,20 -4,41 -4,60z"/>
   <path id="3" class="fil3" d="M26702 19150c11,-12 18,-18 20,-20 5,-4 11,-8 17,-10 6,-2 12,-4 18,-4 10,0 18,3 25,9 7,6 12,14 14,25 12,-14 22,-23 30,-27 8,-4 17,-6 25,-6 8,0 16,2 22,6 6,4 12,11 15,21 3,7 4,17 4,31l0 68c0,10 1,17 2,20 1,2 3,5 6,6 3,2 8,3 15,3l0 6 -77 0 0 -6 3 0c7,0 12,-1 16,-4 3,-2 5,-5 6,-9 0,-2 1,-7 1,-17l0 -68c0,-13 -2,-22 -5,-27 -5,-7 -12,-11 -22,-11 -6,0 -12,2 -18,5 -6,3 -14,9 -22,17l0 2 1 7 0 75c0,11 1,17 2,20 1,3 3,5 7,7 3,2 9,3 17,3l0 6 -79 0 0 -6c9,0 15,-1 18,-3 3,-2 5,-5 7,-9 1,-2 1,-8 1,-17l0 -68c0,-13 -2,-22 -6,-28 -5,-7 -12,-11 -21,-11 -6,0 -12,2 -18,5 -9,5 -17,11 -22,17l0 85c0,10 1,17 2,20 1,3 4,5 6,7 3,2 8,2 17,2l0 6 -78 0 0 -6c7,0 12,-1 15,-2 3,-2 5,-4 7,-7 1,-3 2,-10 2,-20l0 -60c0,-17 -1,-28 -2,-34 -1,-4 -2,-6 -4,-8 -2,-1 -4,-2 -7,-2 -3,0 -7,1 -12,3l-3 -6 48 -19 7 0 0 34z"/>
   <path id="4" class="fil3" d="M26969 19034c5,0 9,2 12,5 3,3 5,8 5,12 0,5 -2,9 -5,12 -3,3 -8,5 -12,5 -5,0 -9,-2 -12,-5 -3,-3 -5,-8 -5,-12 0,-5 2,-9 5,-12 3,-3 8,-5 13,-5zm14 83l0 127c0,10 1,16 2,20 1,3 4,6 6,7 3,2 8,2 15,2l0 6 -77 0 0 -6c8,0 13,-1 15,-2 3,-1 5,-4 6,-7 2,-3 2,-10 2,-20l0 -61c0,-17 -1,-28 -2,-33 -1,-4 -2,-6 -4,-8 -2,-1 -4,-2 -7,-2 -3,0 -7,1 -12,3l-2 -6 47 -19 8 0z"/>
  </g>
  <rect class="fil6 str3" x="1000" y="1000" width="27700" height="18727"/>
  <g id="_2434361149808">
   <polygon class="fil2 str1" points="24098,17900 24914,17900 24914,19493 24098,19493 "/>
   <path class="fil7" d="M24446 18336c-1,3 -2,6 -2,9 0,3 -1,5 -1,7 0,6 2,10 5,12 3,2 10,3 18,3l4 0 -5 23 -78 0 5 -23 3 0c7,0 13,-2 16,-5 4,-3 6,-8 8,-16l38 -154c1,-3 1,-6 2,-8 0,-3 1,-6 1,-9 0,-5 -2,-9 -6,-11 -4,-2 -11,-3 -20,-3l-3 0 5 -23 72 0 62 184 31 -129c1,-4 2,-8 2,-10 0,-3 1,-5 1,-6 0,-6 -2,-10 -5,-12 -4,-2 -10,-3 -18,-3l-4 0 5 -23 79 0 -6 23 -3 0c-7,0 -13,2 -16,5 -4,3 -6,8 -8,16l-51 208 -22 0 -72 -209 -37 155z"/>
   <line class="fil6 str4" x1="24507" y1="19360" x2="24507" y2= "18590" />
   <line class="fil6 str4" x1="24225" y1="19084" x2="24788" y2= "19084" />
   <line class="fil6 str4" x1="24362" y1="19224" x2="24656" y2= "18937" />
   <line class="fil6 str4" x1="24359" y1="18937" x2="24657" y2= "19225" />
   <line class="fil6 str4" x1="24507" y1="18593" x2="24411" y2= "18711" />
   <line class="fil6 str4" x1="24507" y1="18593" x2="24595" y2= "18711" />
  </g>
  <g id="_2434361147664">
   <polygon class="fil2 str1" points="23336,19019 23336,19493 21027,19493 21027,19019 "/>
   <path class="fil7" d="M22104 19358l0 -202 40 0 48 143c4,13 8,23 10,30 2,-7 6,-18 11,-32l49 -141 36 0 0 202 -26 0 0 -169 -59 169 -24 0 -58 -172 0 172 -26 0z"/>
   <path id="1" class="fil7" d="M22436 19310l26 3c-4,15 -11,27 -22,35 -11,8 -25,12 -42,12 -21,0 -38,-7 -51,-20 -13,-13 -19,-32 -19,-55 0,-25 6,-44 19,-57 13,-14 29,-20 49,-20 20,0 35,7 48,20 12,13 19,32 19,56 0,1 0,4 0,7l-109 0c1,16 5,28 14,37 8,9 18,13 31,13 9,0 17,-2 23,-7 6,-5 12,-12 15,-23zm-81 -40l82 0c-1,-12 -4,-22 -9,-28 -8,-10 -18,-14 -31,-14 -11,0 -21,4 -29,11 -8,8 -12,18 -13,31z"/>
   <path id="2" class="fil7" d="M22493 19358l0 -146 22 0 0 22c6,-10 11,-17 16,-21 5,-3 10,-5 16,-5 8,0 17,3 26,8l-9 23c-6,-3 -12,-5 -18,-5 -5,0 -10,2 -15,5 -4,3 -7,8 -9,14 -3,9 -4,18 -4,29l0 77 -25 0z"/>
   <path id="3" class="fil7" d="M22683 19304l24 3c-3,17 -9,30 -20,39 -11,9 -24,14 -40,14 -20,0 -36,-7 -48,-20 -12,-13 -18,-32 -18,-56 0,-16 3,-30 8,-41 5,-12 13,-21 24,-27 11,-6 22,-9 35,-9 16,0 29,4 39,12 10,8 17,19 19,34l-24 4c-2,-10 -6,-17 -12,-22 -6,-5 -13,-7 -21,-7 -13,0 -23,4 -31,13 -8,9 -12,23 -12,42 0,20 4,34 11,43 8,9 17,13 29,13 10,0 18,-3 24,-9 7,-6 11,-15 12,-27z"/>
   <path id="4" class="fil7" d="M22824 19339c-9,8 -18,13 -27,17 -9,3 -18,5 -27,5 -16,0 -28,-4 -37,-12 -9,-8 -13,-18 -13,-30 0,-7 2,-14 5,-20 3,-6 8,-11 13,-14 5,-4 11,-6 18,-8 5,-1 12,-2 22,-4 20,-2 35,-5 44,-9 0,-3 0,-6 0,-6 0,-10 -2,-17 -7,-21 -6,-6 -16,-8 -28,-8 -12,0 -20,2 -26,6 -6,4 -10,11 -12,22l-24 -3c2,-10 6,-19 11,-25 5,-6 12,-11 22,-15 10,-3 21,-5 33,-5 13,0 23,1 31,4 8,3 14,7 17,11 4,4 6,10 8,17 1,4 1,12 1,23l0 33c0,23 1,38 2,44 1,6 3,12 6,18l-26 0c-3,-5 -4,-11 -5,-18zm-2 -55c-9,4 -23,7 -41,9 -10,1 -17,3 -22,5 -4,2 -7,5 -10,8 -2,4 -3,7 -3,12 0,7 2,12 8,16 5,4 12,7 22,7 10,0 18,-2 26,-6 7,-4 13,-10 16,-17 3,-6 4,-14 4,-25l0 -9z"/>
   <path id="5" class="fil7" d="M22939 19336l3 22c-7,1 -13,2 -19,2 -9,0 -16,-1 -21,-4 -5,-3 -8,-7 -10,-11 -2,-5 -3,-14 -3,-29l0 -84 -18 0 0 -19 18 0 0 -36 25 -15 0 51 25 0 0 19 -25 0 0 86c0,7 0,12 1,14 1,2 2,4 4,5 2,1 5,2 8,2 3,0 6,0 11,-1z"/>
   <path id="6" class="fil7" d="M22955 19284c0,-27 8,-47 23,-60 13,-11 28,-16 46,-16 20,0 37,7 49,20 13,13 19,31 19,55 0,19 -3,34 -8,44 -6,11 -14,19 -25,25 -11,6 -23,9 -35,9 -21,0 -37,-7 -50,-20 -13,-13 -19,-32 -19,-57zm25 0c0,19 4,33 12,42 8,9 19,14 31,14 12,0 23,-5 31,-14 8,-9 12,-24 12,-43 0,-18 -4,-32 -12,-41 -8,-9 -18,-14 -31,-14 -12,0 -23,5 -31,14 -8,9 -12,23 -12,42z"/>
   <path id="7" class="fil7" d="M23121 19358l0 -146 22 0 0 22c6,-10 11,-17 16,-21 5,-3 10,-5 16,-5 8,0 17,3 26,8l-9 23c-6,-3 -12,-5 -18,-5 -5,0 -10,2 -15,5 -4,3 -7,8 -9,14 -3,9 -4,18 -4,29l0 77 -25 0z"/>
   <circle class="fil8 str5" cx="21245" cy="19252" r="119"/>
   <rect class="fil8 str5" x="21703" y="19144" width="227" height="227"/>
   <line class="fil6 str6" x1="21419" y1="19251" x2="21639" y2= "19251" />
   <line class="fil6 str6" x1="21636" y1="19252" x2="21572" y2= "19318" />
   <line class="fil6 str6" x1="21637" y1="19251" x2="21573" y2= "19190" />
  </g>
 </g>
</svg>
