<?xml version="1.0" encoding="UTF-8"?>
<!DOCTYPE svg PUBLIC "-//W3C//DTD SVG 1.1//EN" "http://www.w3.org/Graphics/SVG/1.1/DTD/svg11.dtd">
<!-- Creator: CorelDRAW -->
<svg xmlns="http://www.w3.org/2000/svg" xml:space="preserve" width="297mm" height="210mm" version="1.1" style="shape-rendering:geometricPrecision; text-rendering:geometricPrecision; image-rendering:optimizeQuality; fill-rule:evenodd; clip-rule:evenodd"
viewBox="0 0 29700 21000"
 xmlns:xlink="http://www.w3.org/1999/xlink">
 <defs>
  <style type="text/css">
   <![CDATA[
    .str1 {stroke:black;stroke-width:10;stroke-opacity:0.501961}
    .str3 {stroke:black;stroke-width:50}
    .str5 {stroke:#434242;stroke-width:10}
    .str2 {stroke:#3F3E3F;stroke-width:10}
    .str0 {stroke:#000066;stroke-width:10}
    .str6 {stroke:#2B2A29;stroke-width:7.62}
    .str4 {stroke:black;stroke-width:7.62}
    .fil7 {fill:none}
    .fil9 {fill:#D9DADA}
    .fil0 {fill:#A2D9F7}
    .fil1 {fill:white}
    .fil5 {fill:#FEFEFE;fill-rule:nonzero}
    .fil4 {fill:#D9DADA;fill-rule:nonzero}
    .fil8 {fill:#434242;fill-rule:nonzero}
    .fil6 {fill:#2B2A29;fill-rule:nonzero}
    .fil3 {fill:black;fill-rule:nonzero}
    .fil2 {fill:#FEFEFE;fill-rule:nonzero;fill-opacity:0.501961}
   ]]>
  </style>
 </defs>
 <g id="Plan_x0020_1">
  <metadata id="CorelCorpID_0Corel-Layer"/>
  <rect class="fil0" x="1000" y="1000" width="27700" height="17688"/>
  <path class="fil1 str0" d="M1000 18688l0 -4915c65,0 110,58 168,79 62,23 108,10 171,-1 58,-10 162,20 212,-8 77,-43 136,-118 230,-128 31,-9 66,-47 92,-21 157,157 208,-21 338,-98 19,-11 72,-5 95,-5 135,0 172,-140 324,-112 45,26 97,45 150,38 28,-3 95,-29 121,-42 40,-20 125,-110 167,-78 40,30 110,57 178,54 141,4 192,-89 291,-136 75,-35 178,-3 223,66 35,54 100,85 146,124 102,83 222,163 344,66 21,-16 186,64 228,75 0,153 292,62 369,69 58,14 121,20 153,77 48,86 108,94 204,82 147,-18 314,-151 412,-259 96,-106 157,-73 282,-115 47,-2 129,7 170,-4 52,-13 84,-50 131,-70 110,-47 192,-35 291,-124 39,-35 72,-125 109,-148 59,-36 153,-30 216,-57 117,0 206,-34 295,-106 70,-57 168,-90 248,-141 50,-32 90,-99 144,-131l214 -127c58,-15 100,-76 142,-87 77,-19 97,14 146,-72 31,-54 17,-93 30,-143 5,-19 120,-41 143,-61 79,-66 71,-107 93,-201 4,-63 41,-137 69,-193 39,-79 63,-100 136,-145 56,-33 99,-73 145,-119 66,-66 69,-103 91,-191 13,-52 28,-55 53,-98 25,-82 22,-169 9,-253 -11,-76 -4,-149 5,-224 6,-57 -6,-115 -13,-170 -5,-46 -62,-62 -90,-91 -43,-43 -34,-43 -34,-102 0,-82 -86,-125 -98,-216 -9,-65 -8,-83 -39,-142 -15,-29 16,-42 16,-63l-1 -1c-38,-9 -25,-72 -32,-101 0,-109 -39,-312 -111,-393 -22,-25 -56,-68 -67,-100 -23,-69 -38,-118 -44,-191 20,-61 -27,-180 -36,-244 -11,-81 -37,-156 -58,-233 -12,-45 -43,-94 -43,-140 21,-83 -93,-149 -93,-222 -11,-3 -21,8 -33,8 -28,-85 -336,-145 -423,-163 -47,-10 -76,12 -116,12 -20,0 -110,-95 -122,-116 -18,-31 -16,-64 -25,-99 -7,-90 -54,-222 -92,-302 -41,-87 -82,-119 -167,-71 -54,30 -40,34 -78,-12 -43,-52 -108,-107 -143,-166 -58,-160 -287,-85 -418,-104 -47,-7 -93,-40 -138,-38 -74,3 -143,29 -180,-52 -29,-18 -49,-50 -84,-60l-137 -40c-53,-16 -129,-103 -177,-88 -42,13 -66,90 -115,63 -67,-37 -78,-89 -118,-149 -20,-46 -5,-113 -10,-163 -5,-50 -36,-106 -53,-153 -11,-30 -222,-108 -265,-126 -53,-22 -121,-83 -177,-83 -37,0 -66,10 -103,1 -43,-10 -83,-34 -116,-63 -66,-59 -88,-82 -106,-170 -15,-73 -41,-126 -99,-175 -78,-67 -279,-138 -317,-232 -63,-79 -7,-137 -122,-183 -84,-33 -136,-123 -187,-190 -30,-40 -74,-68 -105,-110 -43,-58 -120,-99 -148,-166l-91 -149c-33,-54 -93,-93 -133,-143 -89,-110 -165,-170 -282,-251 -68,-47 -101,-125 -181,-162 -14,-28 -52,-44 -67,-77 -10,-22 -17,-61 -33,-77 -43,-46 -137,-44 -137,-102 0,-31 -11,-77 -26,-104 -36,-61 -122,-69 -183,-81 -132,-27 -158,-82 -232,-175 -37,-65 -127,-186 -203,-203 -113,-27 -214,-67 -313,-127 -67,-41 -128,-43 -200,-64 -109,-14 -279,40 -358,-51 -51,-60 -140,-135 -224,-135l0 -2304 20007 0c-8,94 -13,172 -63,255 -16,26 -46,80 -51,110 -4,22 20,8 20,23 0,28 -5,55 -7,82 -2,27 15,65 7,89 -4,-12 -53,-71 -65,-71 -34,0 -24,212 -19,244 18,109 -1,212 -61,305 -40,51 -63,85 -119,119 -19,12 -30,-31 -41,-40 -25,-20 -52,88 -93,32 -38,-53 -48,-259 -115,-142 -21,37 7,84 -43,111 -58,31 -154,96 -202,140 -41,38 -84,91 -101,146 -44,143 -35,46 -129,40 -87,-5 -34,98 -101,149 -52,38 -152,223 -158,288 -6,63 9,125 9,188 0,49 -17,131 28,163 65,48 62,87 102,144 15,22 110,47 135,56l0 2c-35,9 -115,72 -36,62 43,-6 45,26 69,45 30,24 -17,22 -32,36 -25,26 -37,17 -61,-7 -14,-14 -125,54 -145,80 24,19 107,-22 146,-10 74,23 124,-57 149,-112 9,-19 25,-69 49,-69 26,0 33,38 51,40 4,14 43,31 -7,35 -58,4 -74,49 -10,60 75,13 120,-63 156,-109 48,-61 142,96 166,113 15,38 48,46 59,91 30,126 54,213 212,204 111,-6 123,-36 185,68 46,77 66,96 66,190 -26,56 94,220 124,267 26,41 70,72 95,116 21,36 46,125 46,167 9,40 23,44 45,75 67,93 -14,201 140,201l0 5c-22,7 -10,87 0,103 14,22 85,-14 89,-28l2 0c0,41 15,80 15,124 0,35 -11,71 0,103 74,0 68,-186 77,-247 24,-161 167,-105 255,-188 36,-11 73,-29 113,-29 8,-25 -49,-37 -75,-46 0,-19 15,-38 15,-63l-1 -1c-19,0 -52,25 -56,44l-20 21c-2,0 -2,1 -3,3 -42,10 -59,-75 -43,-110 44,-94 167,-96 256,-85l248 30c0,24 -91,82 -112,97 -79,58 -134,156 -209,223 -77,69 -149,174 -159,284 -102,192 -238,358 -252,591 -44,86 -81,221 -91,317l-20 185c-7,61 -26,130 -26,190 0,36 8,252 42,263 9,-37 37,-75 40,-112 1,-14 -23,-104 0,-112 0,34 95,63 108,105 29,91 -66,199 -92,283 -37,120 -97,270 -97,396 -10,70 -45,338 33,365 28,10 56,-1 83,17 77,51 157,149 214,222 79,70 181,111 185,229l8 212c4,89 23,161 37,244 37,52 75,148 126,186 77,58 219,92 245,198 29,117 71,215 142,314 85,120 143,237 263,332 49,39 87,101 117,155 29,52 87,117 104,168 14,106 153,263 215,350 36,49 52,140 66,200 14,59 66,146 70,201 56,72 102,133 174,196 79,68 119,18 198,38 5,20 113,94 135,113 54,46 82,112 143,153 94,94 194,192 256,310 62,118 153,254 267,328 33,16 65,94 87,126l115 169 132 213c19,62 81,100 111,154 40,73 97,152 121,233 30,103 39,216 51,324l61 221c36,131 32,247 143,347l126 113c34,31 47,84 80,108 90,124 179,244 345,244 36,0 93,114 86,152 -21,101 -44,160 -18,273 19,51 76,180 131,197 59,18 99,34 161,22 40,-8 41,22 65,52 46,59 89,66 160,56 63,-9 121,51 189,25 80,-36 195,-35 285,-71 10,-4 134,14 150,21 87,44 127,136 213,176 74,35 167,36 213,100 34,50 70,109 109,152 29,32 94,42 132,54 10,51 -10,105 32,147 32,63 4,137 20,208 13,54 27,127 27,184 -16,0 -27,-81 -31,-95 -37,-140 -143,-205 -277,-244 -69,-20 -166,-78 -235,-78 -29,0 -55,-20 -75,13 -21,34 -71,31 -128,49 -52,2 -82,6 -112,7 -26,1 -35,-5 -57,-16 -50,-24 -91,-44 -148,-49 -126,0 -136,12 -115,136 18,102 -118,109 -185,119 -179,26 -286,149 -442,227 -37,18 -88,6 -119,36 -23,47 -65,69 -74,126 -7,43 17,59 21,91 29,4 -63,68 -83,81 -50,35 -47,109 -15,155 38,53 154,191 48,223 -90,28 -54,42 -88,111 0,54 13,121 53,158 34,31 -47,59 -59,93l-34 106c-29,89 132,286 -12,314 -88,66 -140,182 -179,281 -30,76 -66,198 -66,280 0,68 45,93 57,147 24,36 53,69 88,91 13,8 79,49 74,65 -16,55 -133,59 -75,124 24,27 51,32 71,64 12,20 85,124 85,138 -2,0 -3,1 -4,-2 -28,0 -80,-47 -97,-70 -28,-38 -90,-77 -137,-87 -134,-28 -159,143 -143,242l-24329 0zm20478 -15440c-22,-28 -36,-38 -65,-57 -15,-9 -1,-27 0,-40 1,-18 1,-37 1,-55 16,-4 86,-55 94,-36 9,20 14,47 22,69l38 104c5,13 3,29 -7,38 -13,13 -49,-3 -64,-7l-20 -15zm-1301 196c2,-11 -2,-24 -9,-32 -8,-8 -13,-17 -23,-22 -17,-8 -30,14 -14,23 8,5 12,11 16,19 4,9 10,22 20,24l10 -13zm7619 11834c1,-18 0,-29 -7,-45 -9,-22 -4,-54 -10,-79 -3,-13 -28,-31 -40,-34 -23,-5 -28,13 -23,32 4,14 13,28 22,39 14,16 15,29 17,49 1,6 4,17 7,23 6,16 7,18 22,27l11 -13zm549 263c-9,-4 -15,-12 -25,-14 -15,-3 -35,-1 -46,10 -8,9 -34,45 -22,54 5,4 16,5 22,5 13,0 23,7 35,7 18,0 31,-14 47,-21l-11 -41zm355 -12814l-202 -17c-44,-16 -70,18 -121,-17 -76,-51 -187,-22 -282,-32 -53,-5 -379,-77 -402,-45 -60,82 -70,231 -116,324 -20,0 -26,-16 -39,-16 -25,101 1,283 9,387 18,83 18,157 74,228 62,77 76,63 168,86 43,11 62,55 117,57l277 11c42,2 81,1 121,8 39,7 85,34 121,36 65,27 140,47 198,88l77 26 0 -1125zm-1126 -971c-31,-52 40,-156 -5,-201 -23,-23 -39,-24 -46,-58 -4,-22 -36,-136 3,-143 64,-12 95,-8 144,-61 25,-27 76,-6 110,-6 20,0 -5,90 -7,104 -14,72 87,93 7,164 -37,32 -23,103 -44,145 -21,42 -139,59 -139,124 0,11 11,70 5,74 -13,7 -21,-26 -22,-33 -4,-23 0,-58 -9,-77l4 -33zm-437 -428c-57,-3 -78,0 -81,65 -2,30 -24,81 -34,112 -20,66 7,172 20,239 13,66 58,97 91,154 58,98 115,92 217,113 17,3 73,40 80,29 8,-12 19,-85 19,-101 -26,0 -66,44 -104,44 -66,0 -175,-80 -207,-133 -16,-27 11,-46 1,-63 -10,-17 -41,-18 -48,-40 -26,-80 -60,-204 -28,-286 14,-36 42,-70 76,-87 17,-8 38,-6 54,-15 27,-15 -6,-28 -23,-29l-34 -2zm683 829c-13,-41 -4,-92 -18,-132 -12,0 -14,49 -14,58 -1,34 0,61 9,92 5,16 8,60 31,60 5,-21 -10,-37 -10,-59l2 -19zm494 -106c-15,2 -20,-38 -22,-48 -2,-6 -15,-40 -20,-40 -15,0 -3,82 0,96 4,19 2,55 -4,73 -2,6 -9,34 0,39 12,7 29,-20 33,-28 11,-23 37,-25 51,-39 11,-11 -23,-28 -25,-41l-12 -12zm257 -396c-35,44 -52,83 -100,25 -21,-26 -74,-63 -74,-98l-2 0c0,103 68,154 165,154 10,39 10,63 -24,89 -26,20 60,4 60,29 0,16 -14,42 -32,48 -24,8 9,76 47,6 23,-43 39,-20 74,-7 2,-8 -47,-49 -55,-63 -25,-45 29,-103 15,-141 -7,-18 -43,-9 -50,-24 -7,-17 3,-42 -14,-59 -3,3 -4,5 -7,9l-4 34z"/>
  <polygon class="fil2 str1" points="1596,16865 4695,16865 4695,18457 1596,18457 "/>
  <path class="fil3" d="M1213 18358c0,-17 4,-34 13,-51 9,-17 22,-30 38,-39 17,-9 34,-14 52,-14 18,0 35,5 52,14 17,9 29,22 39,38 9,17 14,34 14,52 0,18 -5,35 -14,52 -9,17 -22,29 -39,39 -17,9 -34,14 -52,14 -18,0 -35,-5 -52,-14 -17,-9 -30,-22 -38,-39 -9,-17 -13,-34 -13,-51zm17 0c0,15 4,29 11,43 7,14 18,25 32,32 14,8 28,12 43,12 15,0 29,-4 43,-12 14,-8 24,-18 32,-32 8,-14 12,-28 12,-43 0,-15 -4,-29 -12,-43 -8,-14 -18,-25 -32,-32 -14,-8 -28,-11 -43,-11 -15,0 -30,4 -43,12 -14,8 -25,19 -32,32 -7,14 -11,28 -11,43zm104 -33l5 -17c12,3 21,9 28,18 7,9 10,20 10,33 0,16 -5,29 -16,39 -10,10 -25,15 -44,15 -12,0 -23,-2 -32,-7 -9,-5 -16,-11 -20,-20 -5,-9 -7,-18 -7,-29 0,-12 3,-22 9,-30 6,-8 14,-14 24,-17l4 16c-7,3 -12,7 -16,12 -4,5 -6,12 -6,19 0,11 4,19 11,26 8,7 18,10 32,10 14,0 25,-3 32,-10 7,-6 11,-15 11,-25 0,-8 -2,-16 -7,-22 -5,-6 -11,-10 -20,-12z"/>
  <path id="1" class="fil3" d="M1419 18063l-19 0c14,9 22,23 22,41 0,12 -3,22 -10,32 -6,10 -15,17 -27,23 -12,5 -25,8 -40,8 -15,0 -28,-2 -40,-7 -12,-5 -21,-12 -27,-22 -6,-10 -10,-21 -10,-33 0,-9 2,-17 6,-24 4,-7 9,-12 15,-17l-73 0 0 -25 202 0 0 23zm-73 78c19,0 33,-4 42,-12 9,-8 14,-17 14,-28 0,-11 -4,-20 -13,-28 -9,-8 -22,-11 -41,-11 -20,0 -35,4 -44,12 -9,8 -14,17 -14,29 0,11 4,20 13,28 9,7 23,11 42,11z"/>
  <polygon id="2" class="fil3" points="1358,18010 1333,18010 1333,17934 1358,17934 "/>
  <path id="3" class="fil3" d="M1419 17907l-146 0 0 -22 21 0c-7,-5 -13,-11 -17,-18 -4,-8 -7,-16 -7,-26 0,-11 2,-20 7,-27 5,-7 11,-12 19,-15 -17,-12 -26,-27 -26,-45 0,-15 4,-26 12,-34 8,-8 20,-12 37,-12l100 0 0 25 -92 0c-10,0 -17,1 -21,2 -4,2 -8,5 -11,9 -3,4 -4,9 -4,15 0,10 3,19 10,26 7,7 18,10 33,10l85 0 0 25 -95 0c-11,0 -19,2 -25,6 -6,4 -8,11 -8,20 0,7 2,13 6,19 4,6 9,10 16,13 7,3 17,4 31,4l76 0 0 25z"/>
  <path id="4" class="fil3" d="M1400 17576c8,9 13,18 17,27 3,9 5,18 5,27 0,16 -4,28 -12,37 -8,9 -18,13 -30,13 -7,0 -14,-2 -20,-5 -6,-3 -11,-8 -14,-13 -4,-5 -6,-11 -8,-18 -1,-5 -2,-12 -4,-22 -2,-20 -5,-35 -9,-44 -3,0 -6,0 -6,0 -10,0 -17,2 -21,7 -6,6 -8,16 -8,28 0,12 2,20 6,26 4,6 11,10 22,12l-3 24c-10,-2 -19,-6 -25,-11 -6,-5 -11,-12 -15,-22 -3,-10 -5,-21 -5,-33 0,-13 1,-23 4,-31 3,-8 7,-14 11,-17 4,-4 10,-6 17,-8 4,-1 12,-1 23,-1l33 0c23,0 38,-1 44,-2 6,-1 12,-3 18,-6l0 26c-5,3 -11,4 -18,5zm-55 2c4,9 7,23 9,41 1,10 3,17 5,22 2,4 5,7 8,10 4,2 7,3 12,3 7,0 12,-2 16,-8 4,-5 7,-12 7,-22 0,-10 -2,-18 -6,-26 -4,-7 -10,-13 -17,-16 -6,-3 -14,-4 -25,-4l-9 0z"/>
  <path id="5" class="fil3" d="M1475 17515l-203 0 0 -23 19 0c-7,-5 -13,-11 -17,-18 -4,-7 -6,-15 -6,-24 0,-13 3,-24 10,-33 6,-10 15,-17 27,-22 12,-5 25,-7 38,-7 15,0 28,3 40,8 12,5 21,13 28,23 6,10 10,21 10,32 0,8 -2,16 -5,22 -3,7 -8,12 -13,16l71 0 0 25zm-129 -23c19,0 33,-4 42,-11 9,-8 13,-17 13,-28 0,-11 -5,-20 -14,-28 -9,-8 -24,-12 -43,-12 -19,0 -33,4 -42,11 -9,8 -14,17 -14,27 0,11 5,20 15,28 10,8 24,12 43,12z"/>
  <path id="6" class="fil3" d="M1375 17367l-4 -25c10,-1 17,-5 23,-12 5,-6 8,-15 8,-26 0,-11 -2,-20 -7,-25 -5,-6 -10,-8 -16,-8 -6,0 -10,3 -13,7 -2,3 -5,12 -8,25 -5,18 -9,31 -12,38 -3,7 -8,12 -14,16 -6,4 -12,5 -20,5 -7,0 -13,-2 -18,-4 -6,-3 -10,-7 -14,-12 -3,-4 -5,-9 -7,-16 -2,-7 -3,-14 -3,-21 0,-11 2,-22 5,-30 3,-9 8,-15 13,-19 6,-4 13,-7 23,-9l3 24c-8,1 -14,4 -18,10 -4,5 -6,13 -6,22 0,11 2,19 6,24 4,5 8,7 13,7 3,0 6,-1 9,-3 3,-2 5,-5 7,-10 1,-3 3,-10 6,-22 5,-18 9,-30 11,-37 3,-7 7,-12 13,-16 6,-4 13,-6 21,-6 8,0 16,2 23,7 7,5 13,12 17,21 4,9 6,19 6,31 0,19 -4,34 -12,44 -8,10 -20,16 -35,19z"/>
  <polygon id="7" class="fil3" points="1419,17209 1391,17209 1391,17181 1419,17181 "/>
  <path id="8" class="fil3" d="M1365 17042l3 -24c17,3 30,9 39,20 9,11 14,24 14,40 0,20 -7,36 -20,48 -13,12 -32,18 -56,18 -16,0 -30,-3 -41,-8 -12,-5 -21,-13 -27,-24 -6,-11 -9,-22 -9,-35 0,-16 4,-29 12,-39 8,-10 19,-17 34,-19l4 24c-10,2 -17,6 -22,12 -5,6 -7,13 -7,21 0,13 4,23 13,31 9,8 23,12 42,12 20,0 34,-4 43,-11 9,-8 13,-17 13,-29 0,-10 -3,-18 -9,-24 -6,-7 -15,-11 -27,-12z"/>
  <path id="9" class="fil3" d="M1345 17006c-27,0 -47,-8 -60,-23 -11,-13 -16,-28 -16,-46 0,-20 7,-37 20,-49 13,-13 31,-19 55,-19 19,0 34,3 44,8 11,6 19,14 25,25 6,11 9,23 9,35 0,21 -7,37 -20,50 -13,13 -32,19 -57,19zm0 -25c19,0 33,-4 42,-12 9,-8 14,-19 14,-31 0,-12 -5,-23 -14,-31 -9,-8 -24,-12 -43,-12 -18,0 -32,4 -41,12 -9,8 -14,18 -14,31 0,12 5,23 14,31 9,8 23,12 42,12z"/>
  <path id="10" class="fil3" d="M1419 16840l-146 0 0 -22 21 0c-7,-5 -13,-11 -17,-18 -4,-8 -7,-16 -7,-26 0,-11 2,-20 7,-27 5,-7 11,-12 19,-15 -17,-12 -26,-27 -26,-45 0,-15 4,-26 12,-34 8,-8 20,-12 37,-12l100 0 0 25 -92 0c-10,0 -17,1 -21,2 -4,2 -8,5 -11,9 -3,4 -4,9 -4,15 0,10 3,19 10,26 7,7 18,10 33,10l85 0 0 25 -95 0c-11,0 -19,2 -25,6 -6,4 -8,11 -8,20 0,7 2,13 6,19 4,6 9,10 16,13 7,3 17,4 31,4l76 0 0 25z"/>
  <g id="_2759529808800">
   <g>
    <polygon class="fil4 str2" points="1737,17470 2293,17470 2293,17570 1737,17570 "/>
    <polygon class="fil5 str2" points="2293,17470 2850,17470 2850,17570 2293,17570 "/>
    <polygon class="fil4 str2" points="2850,17470 3407,17470 3407,17570 2850,17570 "/>
    <polygon class="fil5 str2" points="3407,17470 3964,17470 3964,17570 3407,17570 "/>
    <polygon class="fil4 str2" points="3964,17470 4520,17470 4520,17570 3964,17570 "/>
    <polygon class="fil5 str2" points="3519,17769 4410,17769 4410,17869 3519,17869 "/>
    <polygon class="fil4 str2" points="2629,17769 3519,17769 3519,17869 2629,17869 "/>
    <polygon class="fil5 str2" points="1739,17769 2629,17769 2629,17869 1739,17869 "/>
   </g>
   <path class="fil6" d="M2642 17085l57 -28 6 0 0 197c0,13 1,21 2,25 1,3 3,6 7,7 3,2 11,3 21,3l0 6 -88 0 0 -6c11,0 18,-1 21,-3 3,-2 5,-4 7,-7 1,-3 2,-11 2,-25l0 -126c0,-17 -1,-28 -2,-33 -1,-4 -2,-6 -4,-8 -2,-2 -5,-3 -8,-3 -4,0 -10,2 -18,5l-3 -5z"/>
   <path id="1" class="fil6" d="M3277 17051l0 157 40 -37c9,-8 13,-13 15,-15 1,-1 1,-3 1,-4 0,-2 -1,-4 -3,-6 -2,-2 -5,-3 -9,-3l0 -6 69 0 0 6c-9,0 -17,2 -23,4 -6,3 -13,7 -21,14l-41 37 40 51c11,14 19,23 23,27 6,5 10,9 15,10 3,1 8,2 15,2l0 6 -77 0 0 -6c4,0 7,-1 9,-2 2,-1 2,-3 2,-5 0,-3 -2,-7 -7,-13l-48 -62 0 52c0,10 1,17 2,20 1,3 3,5 6,7 3,1 8,2 17,2l0 6 -80 0 0 -6c8,0 14,-1 18,-3 2,-1 4,-3 5,-6 2,-4 3,-10 3,-20l0 -144c0,-18 0,-29 -1,-33 -1,-4 -2,-7 -4,-8 -2,-2 -4,-2 -7,-2 -2,0 -6,1 -11,3l-3 -6 47 -19 8 0z"/>
   <path id="2" class="fil6" d="M3453 17167c11,-12 18,-18 20,-20 5,-4 11,-8 17,-10 6,-2 12,-4 18,-4 10,0 18,3 25,9 7,6 12,14 14,25 12,-14 22,-23 30,-27 8,-4 17,-6 25,-6 8,0 16,2 22,6 6,4 12,11 15,21 3,7 4,17 4,31l0 68c0,10 1,17 2,20 1,2 3,5 6,6 3,2 8,3 15,3l0 6 -77 0 0 -6 3 0c7,0 12,-1 16,-4 3,-2 5,-5 6,-9 0,-2 1,-7 1,-17l0 -68c0,-13 -2,-22 -5,-27 -5,-7 -12,-11 -22,-11 -6,0 -12,2 -18,5 -6,3 -14,9 -22,17l0 2 1 7 0 75c0,11 1,17 2,20 1,3 3,5 7,7 3,2 9,3 17,3l0 6 -79 0 0 -6c9,0 15,-1 18,-3 3,-2 5,-5 7,-9 1,-2 1,-8 1,-17l0 -68c0,-13 -2,-22 -6,-28 -5,-7 -12,-11 -21,-11 -6,0 -12,2 -18,5 -9,5 -17,11 -22,17l0 85c0,10 1,17 2,20 1,3 4,5 6,7 3,2 8,2 17,2l0 6 -78 0 0 -6c7,0 12,-1 15,-2 3,-2 5,-4 7,-7 1,-3 2,-10 2,-20l0 -60c0,-17 -1,-28 -2,-34 -1,-4 -2,-6 -4,-8 -2,-1 -4,-2 -7,-2 -3,0 -7,1 -12,3l-3 -6 48 -19 7 0 0 34z"/>
   <path id="3" class="fil6" d="M2790 17180c0,-27 4,-50 12,-69 8,-19 19,-34 32,-43 10,-7 21,-11 32,-11 18,0 34,9 48,27 18,23 27,53 27,92 0,27 -4,50 -12,69 -8,19 -18,33 -30,41 -12,9 -24,13 -35,13 -22,0 -41,-13 -56,-39 -13,-22 -19,-49 -19,-80zm34 4c0,32 4,58 12,79 7,17 16,26 29,26 6,0 13,-3 19,-8 7,-6 12,-15 15,-28 5,-20 8,-48 8,-83 0,-27 -3,-49 -8,-67 -4,-13 -9,-23 -16,-28 -5,-4 -10,-6 -17,-6 -8,0 -15,4 -21,11 -8,10 -14,24 -17,45 -3,20 -4,41 -4,60z"/>
   <path id="4" class="fil6" d="M2967 17180c0,-27 4,-50 12,-69 8,-19 19,-34 32,-43 10,-7 21,-11 32,-11 18,0 34,9 48,27 18,23 27,53 27,92 0,27 -4,50 -12,69 -8,19 -18,33 -30,41 -12,9 -24,13 -35,13 -22,0 -41,-13 -56,-39 -13,-22 -19,-49 -19,-80zm34 4c0,32 4,58 12,79 7,17 16,26 29,26 6,0 13,-3 19,-8 7,-6 12,-15 15,-28 5,-20 8,-48 8,-83 0,-27 -3,-49 -8,-67 -4,-13 -9,-23 -16,-28 -5,-4 -10,-6 -17,-6 -8,0 -15,4 -21,11 -8,10 -14,24 -17,45 -3,20 -4,41 -4,60z"/>
   <path class="fil6" d="M2903 18027l0 7c-15,1 -27,4 -37,9 -10,5 -19,11 -28,21 -9,9 -17,20 -23,31 -6,11 -11,25 -15,41 16,-11 33,-17 50,-17 16,0 30,6 41,19 12,13 18,29 18,50 0,19 -6,37 -18,53 -14,19 -33,29 -56,29 -16,0 -30,-5 -41,-16 -22,-21 -33,-47 -33,-80 0,-21 4,-41 13,-60 8,-19 20,-36 36,-50 16,-15 30,-24 45,-29 14,-5 27,-8 40,-8l10 0zm-107 120c-2,16 -3,28 -3,38 0,11 2,23 6,36 4,13 10,23 18,31 6,5 13,8 21,8 10,0 19,-5 27,-14 8,-9 12,-23 12,-40 0,-20 -4,-37 -12,-51 -8,-14 -19,-22 -33,-22 -4,0 -9,1 -14,3 -5,2 -12,6 -22,12z"/>
   <path id="1" class="fil6" d="M2934 18150c0,-27 4,-50 12,-69 8,-19 19,-34 32,-43 10,-7 21,-11 32,-11 18,0 34,9 48,27 18,23 27,53 27,92 0,27 -4,50 -12,69 -8,19 -18,33 -30,41 -12,9 -24,13 -35,13 -22,0 -41,-13 -56,-39 -13,-22 -19,-49 -19,-80zm34 4c0,32 4,58 12,79 7,17 16,26 29,26 6,0 13,-3 19,-8 7,-6 12,-15 15,-28 5,-20 8,-48 8,-83 0,-27 -3,-49 -8,-67 -4,-13 -9,-23 -16,-28 -5,-4 -10,-6 -17,-6 -8,0 -15,4 -21,11 -8,10 -14,24 -17,45 -3,20 -4,41 -4,60z"/>
   <path id="2" class="fil6" d="M3244 18137c11,-12 18,-18 20,-20 5,-4 11,-8 17,-10 6,-2 12,-4 18,-4 10,0 18,3 25,9 7,6 12,14 14,25 12,-14 22,-23 30,-27 8,-4 17,-6 25,-6 8,0 16,2 22,6 6,4 12,11 15,21 3,7 4,17 4,31l0 68c0,10 1,17 2,20 1,2 3,5 6,6 3,2 8,3 15,3l0 6 -77 0 0 -6 3 0c7,0 12,-1 16,-4 3,-2 5,-5 6,-9 0,-2 1,-7 1,-17l0 -68c0,-13 -2,-22 -5,-27 -5,-7 -12,-11 -22,-11 -6,0 -12,2 -18,5 -6,3 -14,9 -22,17l0 2 1 7 0 75c0,11 1,17 2,20 1,3 3,5 7,7 3,2 9,3 17,3l0 6 -79 0 0 -6c9,0 15,-1 18,-3 3,-2 5,-5 7,-9 1,-2 1,-8 1,-17l0 -68c0,-13 -2,-22 -6,-28 -5,-7 -12,-11 -21,-11 -6,0 -12,2 -18,5 -9,5 -17,11 -22,17l0 85c0,10 1,17 2,20 1,3 4,5 6,7 3,2 8,2 17,2l0 6 -78 0 0 -6c7,0 12,-1 15,-2 3,-2 5,-4 7,-7 1,-3 2,-10 2,-20l0 -60c0,-17 -1,-28 -2,-34 -1,-4 -2,-6 -4,-8 -2,-1 -4,-2 -7,-2 -3,0 -7,1 -12,3l-3 -6 48 -19 7 0 0 34z"/>
   <path id="3" class="fil6" d="M3512 18021c5,0 9,2 12,5 3,3 5,8 5,12 0,5 -2,9 -5,12 -3,3 -8,5 -12,5 -5,0 -9,-2 -12,-5 -3,-3 -5,-8 -5,-12 0,-5 2,-9 5,-12 3,-3 8,-5 13,-5zm14 83l0 127c0,10 1,16 2,20 1,3 4,6 6,7 3,2 8,2 15,2l0 6 -77 0 0 -6c8,0 13,-1 15,-2 3,-1 5,-4 6,-7 2,-3 2,-10 2,-20l0 -61c0,-17 -1,-28 -2,-33 -1,-4 -2,-6 -4,-8 -2,-1 -4,-2 -7,-2 -3,0 -7,1 -12,3l-2 -6 47 -19 8 0z"/>
  </g>
  <rect class="fil7 str3" x="1000" y="1000" width="27700" height="17688"/>
  <g id="_2759529807328">
   <polygon class="fil2 str1" points="4832,16861 5648,16861 5648,18454 4832,18454 "/>
   <path class="fil8" d="M5181 17297c-1,3 -2,6 -2,9 0,3 -1,5 -1,7 0,6 2,10 5,12 3,2 10,3 18,3l4 0 -5 23 -78 0 5 -23 3 0c7,0 13,-2 16,-5 4,-3 6,-8 8,-16l38 -154c1,-3 1,-6 2,-8 0,-3 1,-6 1,-9 0,-5 -2,-9 -6,-11 -4,-2 -11,-3 -20,-3l-3 0 5 -23 72 0 62 184 31 -129c1,-4 2,-8 2,-10 0,-3 1,-5 1,-6 0,-6 -2,-10 -5,-12 -4,-2 -10,-3 -18,-3l-4 0 5 -23 79 0 -6 23 -3 0c-7,0 -13,2 -16,5 -4,3 -6,8 -8,16l-51 208 -22 0 -72 -209 -37 155z"/>
   <line class="fil7 str4" x1="5241" y1="18321" x2="5241" y2= "17552" />
   <line class="fil7 str4" x1="4959" y1="18045" x2="5522" y2= "18045" />
   <line class="fil7 str4" x1="5096" y1="18185" x2="5391" y2= "17898" />
   <line class="fil7 str4" x1="5093" y1="17898" x2="5391" y2= "18187" />
   <line class="fil7 str4" x1="5241" y1="17554" x2="5146" y2= "17672" />
   <line class="fil7 str4" x1="5242" y1="17554" x2="5330" y2= "17672" />
  </g>
  <g id="_2759529801728">
   <polygon class="fil2 str1" points="8716,17981 8716,18454 6406,18454 6406,17981 "/>
   <path class="fil8" d="M7484 18319l0 -202 40 0 48 143c4,13 8,23 10,30 2,-7 6,-18 11,-32l49 -141 36 0 0 202 -26 0 0 -169 -59 169 -24 0 -58 -172 0 172 -26 0z"/>
   <path id="1" class="fil8" d="M7816 18272l26 3c-4,15 -11,27 -22,35 -11,8 -25,12 -42,12 -21,0 -38,-7 -51,-20 -13,-13 -19,-32 -19,-55 0,-25 6,-44 19,-57 13,-14 29,-20 49,-20 20,0 35,7 48,20 12,13 19,32 19,56 0,1 0,4 0,7l-109 0c1,16 5,28 14,37 8,9 18,13 31,13 9,0 17,-2 23,-7 6,-5 12,-12 15,-23zm-81 -40l82 0c-1,-12 -4,-22 -9,-28 -8,-10 -18,-14 -31,-14 -11,0 -21,4 -29,11 -8,8 -12,18 -13,31z"/>
   <path id="2" class="fil8" d="M7873 18319l0 -146 22 0 0 22c6,-10 11,-17 16,-21 5,-3 10,-5 16,-5 8,0 17,3 26,8l-9 23c-6,-3 -12,-5 -18,-5 -5,0 -10,2 -15,5 -4,3 -7,8 -9,14 -3,9 -4,18 -4,29l0 77 -25 0z"/>
   <path id="3" class="fil8" d="M8063 18265l24 3c-3,17 -9,30 -20,39 -11,9 -24,14 -40,14 -20,0 -36,-7 -48,-20 -12,-13 -18,-32 -18,-56 0,-16 3,-30 8,-41 5,-12 13,-21 24,-27 11,-6 22,-9 35,-9 16,0 29,4 39,12 10,8 17,19 19,34l-24 4c-2,-10 -6,-17 -12,-22 -6,-5 -13,-7 -21,-7 -13,0 -23,4 -31,13 -8,9 -12,23 -12,42 0,20 4,34 11,43 8,9 17,13 29,13 10,0 18,-3 24,-9 7,-6 11,-15 12,-27z"/>
   <path id="4" class="fil8" d="M8204 18301c-9,8 -18,13 -27,17 -9,3 -18,5 -27,5 -16,0 -28,-4 -37,-12 -9,-8 -13,-18 -13,-30 0,-7 2,-14 5,-20 3,-6 8,-11 13,-14 5,-4 11,-6 18,-8 5,-1 12,-2 22,-4 20,-2 35,-5 44,-9 0,-3 0,-6 0,-6 0,-10 -2,-17 -7,-21 -6,-6 -16,-8 -28,-8 -12,0 -20,2 -26,6 -6,4 -10,11 -12,22l-24 -3c2,-10 6,-19 11,-25 5,-6 12,-11 22,-15 10,-3 21,-5 33,-5 13,0 23,1 31,4 8,3 14,7 17,11 4,4 6,10 8,17 1,4 1,12 1,23l0 33c0,23 1,38 2,44 1,6 3,12 6,18l-26 0c-3,-5 -4,-11 -5,-18zm-2 -55c-9,4 -23,7 -41,9 -10,1 -17,3 -22,5 -4,2 -7,5 -10,8 -2,4 -3,7 -3,12 0,7 2,12 8,16 5,4 12,7 22,7 10,0 18,-2 26,-6 7,-4 13,-10 16,-17 3,-6 4,-14 4,-25l0 -9z"/>
   <path id="5" class="fil8" d="M8319 18297l3 22c-7,1 -13,2 -19,2 -9,0 -16,-1 -21,-4 -5,-3 -8,-7 -10,-11 -2,-5 -3,-14 -3,-29l0 -84 -18 0 0 -19 18 0 0 -36 25 -15 0 51 25 0 0 19 -25 0 0 86c0,7 0,12 1,14 1,2 2,4 4,5 2,1 5,2 8,2 3,0 6,0 11,-1z"/>
   <path id="6" class="fil8" d="M8334 18246c0,-27 8,-47 23,-60 13,-11 28,-16 46,-16 20,0 37,7 49,20 13,13 19,31 19,55 0,19 -3,34 -8,44 -6,11 -14,19 -25,25 -11,6 -23,9 -35,9 -21,0 -37,-7 -50,-20 -13,-13 -19,-32 -19,-57zm25 0c0,19 4,33 12,42 8,9 19,14 31,14 12,0 23,-5 31,-14 8,-9 12,-24 12,-43 0,-18 -4,-32 -12,-41 -8,-9 -18,-14 -31,-14 -12,0 -23,5 -31,14 -8,9 -12,23 -12,42z"/>
   <path id="7" class="fil8" d="M8500 18319l0 -146 22 0 0 22c6,-10 11,-17 16,-21 5,-3 10,-5 16,-5 8,0 17,3 26,8l-9 23c-6,-3 -12,-5 -18,-5 -5,0 -10,2 -15,5 -4,3 -7,8 -9,14 -3,9 -4,18 -4,29l0 77 -25 0z"/>
   <circle class="fil9 str5" cx="6625" cy="18214" r="119"/>
   <rect class="fil9 str5" x="7083" y="18105" width="227" height="227"/>
   <line class="fil7 str6" x1="6799" y1="18213" x2="7019" y2= "18213" />
   <line class="fil7 str6" x1="7016" y1="18213" x2="6952" y2= "18279" />
   <line class="fil7 str6" x1="7016" y1="18212" x2="6953" y2= "18151" />
  </g>
 </g>
</svg>
