<?xml version="1.0" encoding="UTF-8"?>
<!DOCTYPE svg PUBLIC "-//W3C//DTD SVG 1.1//EN" "http://www.w3.org/Graphics/SVG/1.1/DTD/svg11.dtd">
<!-- Creator: CorelDRAW -->
<svg xmlns="http://www.w3.org/2000/svg" xml:space="preserve" width="297mm" height="210mm" version="1.1" style="shape-rendering:geometricPrecision; text-rendering:geometricPrecision; image-rendering:optimizeQuality; fill-rule:evenodd; clip-rule:evenodd"
viewBox="0 0 29700 21000"
 xmlns:xlink="http://www.w3.org/1999/xlink">
 <defs>
  <style type="text/css">
   <![CDATA[
    .str3 {stroke:black;stroke-width:10;stroke-opacity:0.501961}
    .str5 {stroke:black;stroke-width:50}
    .str2 {stroke:#003399;stroke-width:20}
    .str7 {stroke:#434242;stroke-width:10}
    .str4 {stroke:#3F3E3F;stroke-width:10}
    .str0 {stroke:#000066;stroke-width:10}
    .str1 {stroke:#003399;stroke-width:10}
    .str8 {stroke:#2B2A29;stroke-width:7.62}
    .str6 {stroke:black;stroke-width:7.62}
    .fil2 {fill:none}
    .fil9 {fill:#D9DADA}
    .fil0 {fill:#A2D9F7}
    .fil1 {fill:white}
    .fil5 {fill:#FEFEFE;fill-rule:nonzero}
    .fil4 {fill:#D9DADA;fill-rule:nonzero}
    .fil8 {fill:#434242;fill-rule:nonzero}
    .fil6 {fill:#2B2A29;fill-rule:nonzero}
    .fil7 {fill:black;fill-rule:nonzero}
    .fil3 {fill:#FEFEFE;fill-rule:nonzero;fill-opacity:0.501961}
   ]]>
  </style>
 </defs>
 <g id="Plan_x0020_1">
  <metadata id="CorelCorpID_0Corel-Layer"/>
  <rect class="fil0" x="1000" y="1000" width="23631" height="19000"/>
  <path class="fil1 str0" d="M24631 1000l-23631 0 0 19000 12244 0 20 -71c28,-67 151,-92 211,-106 77,-18 168,-1 242,-22 39,-11 91,-16 131,-20 50,3 104,-24 145,-20 56,6 102,15 157,-1 107,-31 125,-10 221,15 27,7 10,-69 47,-83 73,-28 71,-96 137,-139 71,-46 86,-168 128,-245 21,-67 24,-133 34,-201 9,-57 2,-143 39,-188 25,-29 62,-70 81,-101 30,-47 118,-129 169,-154 84,-22 158,-81 241,-104l238 -64c135,-36 339,-20 481,-25 45,-2 163,-34 197,-60 0,-16 -13,-55 -20,-70 -11,-35 -15,-70 -15,-107 0,-34 -27,-44 -40,-71 -30,-61 -25,-153 -9,-218 14,-59 13,-62 -24,-106 -42,-49 -29,-123 -29,-186 0,-62 36,-76 -21,-102 -31,-14 11,-110 21,-133 52,-110 107,-229 129,-350 11,-60 -4,-129 13,-183 0,-85 175,-159 166,-197 -77,-19 -11,-114 53,-114 114,0 75,-88 75,-164 53,-13 183,-119 213,-27 20,62 -93,227 -69,241 45,25 138,17 189,21 49,4 52,58 112,23 16,-9 89,-59 92,-73 30,-118 20,-189 102,-286 28,-48 129,-97 129,-157 -24,0 -40,41 -61,48 0,-120 137,-191 165,-304 29,-118 162,-294 265,-360 111,-81 233,-224 383,-224 0,-104 60,-156 114,-235 33,-56 31,-111 53,-167 25,-64 61,-82 99,-133 23,-31 6,-68 43,-92 53,-35 52,-54 65,-115 19,-93 51,-133 106,-203 38,-91 96,-106 96,-220 0,-79 2,-175 -20,-248 -20,-65 -63,27 -70,28 0,4 -6,3 -9,3 -71,-106 -196,-77 -291,-132 -35,-20 -53,-60 -85,-84 -29,-17 -79,-76 -97,-105 -24,-39 -71,-49 -97,-96 -43,-78 -59,-201 -146,-230 -46,-15 -99,-85 -121,-128 -39,-49 -49,-176 -102,-208 -16,-10 -44,-24 -45,-45 -7,-125 -135,-112 -160,-235 -17,-80 -68,-105 -145,-123 -29,-20 -65,-49 -84,-79 -24,-37 -62,-21 -101,-27 -78,-11 -146,81 -233,49 -49,-18 -77,-49 -113,-83 -44,-42 -155,-73 -215,-73l-154 4c-60,1 -88,-30 -140,-50 -27,-11 -45,-6 -75,-7 -143,-5 -281,-67 -411,-126 -56,-28 -121,-45 -180,-71 -59,-26 -98,-57 -147,-96 -72,-58 -215,-152 -256,-231 -45,-32 -96,-142 -132,-190 -40,-54 -77,-130 -132,-170 -58,-42 -211,-221 -207,-292 -26,-52 -48,-88 -62,-146 -12,-47 -16,-95 -48,-134 -70,-84 -54,-226 -87,-325 0,-67 -8,-126 9,-191 13,-50 7,-96 -5,-145 -9,-38 3,-73 4,-111 1,-28 -2,-56 -2,-85 0,-34 5,-110 -14,-138 -16,-24 -68,1 -97,-28 -45,-45 59,-206 85,-244 36,-52 43,-96 69,-149 21,-45 20,-25 20,-76 12,-23 25,-62 -9,-68 -37,-6 17,-43 27,-48 86,-43 -60,-34 -86,-40 -18,-4 -50,-64 -51,-82 -4,-63 -47,-48 -94,-70 -21,-10 -31,-56 -46,-41 -15,15 -13,32 -17,49 -8,35 -38,63 -67,85 -103,155 -97,418 -288,514 -59,30 -108,29 -147,87 -27,75 -116,70 -150,144 -25,55 -116,106 -116,11 -2,0 -2,1 -4,1 -25,179 -206,282 -299,420 -19,45 -98,119 -132,159l-107 124c-62,72 -142,102 -218,159 -42,31 -107,99 -161,104 -41,4 -38,28 -64,52 -46,43 -90,91 -79,155 13,81 -31,90 -93,99 0,29 105,54 23,105 -60,38 -92,13 -7,64 0,21 -112,85 -129,79 -36,-12 -92,-39 -115,-71 -22,-31 -68,-17 -68,18 44,11 87,41 132,55 84,26 48,24 19,81 -25,75 -27,143 -124,163 -65,14 -131,48 -187,-5 -14,-13 -70,-95 -82,-93 -6,1 -49,26 -49,28 0,15 41,31 52,38 19,12 38,26 54,43 31,33 40,25 -1,61 -31,27 -74,62 -114,74 -43,13 -139,29 -172,53 -61,14 -111,42 -176,42 -38,0 -86,-12 -122,-7 -122,19 -147,1 -248,-60 -54,-32 -75,-20 -131,-8 -16,3 -70,-8 -73,-7 -28,11 -18,58 -67,34 -36,-18 -55,-68 -88,-78 -25,-8 -48,-23 -74,-23 -27,81 -114,44 -178,44 -103,0 -203,9 -305,-7 -60,-10 -87,-46 -138,-61 -27,-8 -38,97 -96,109l-257 136c-101,54 -187,57 -302,42 -63,-8 -80,-32 -149,-20 -98,18 -114,-4 -174,-74 0,-62 -9,-124 -9,-188 0,-39 5,-88 -4,-124 -3,-12 -47,0 -47,3 -11,4 -17,75 -20,90l-1 1c-22,0 -18,-39 -47,-42 -9,14 -25,57 -43,46 -10,-6 -11,-61 -11,-75 0,-29 3,-131 -42,-131 0,33 -7,69 -7,104 0,28 14,96 -41,62 -41,-26 -116,-109 -161,-109 -25,0 -158,68 -158,25 0,-45 20,-139 46,-177 24,-35 60,-52 88,-83 35,-40 49,-95 115,-95 0,-14 -43,-34 -57,-42 -39,-23 -65,32 -103,29 -27,-2 -13,27 -20,44 -9,20 -34,83 -46,34 -10,-44 4,-103 -44,-127 -20,-10 -69,-20 -20,-41 13,-6 58,-18 72,-13 105,37 140,16 171,-98 28,-101 84,-256 164,-326 33,-28 19,-50 25,-87l-12 -227c-4,-76 -50,-83 -86,-134 -16,-23 -17,-79 -13,-106 7,-55 -10,-97 -39,-142 -4,-38 0,-77 0,-117 0,-42 56,-41 67,-78 9,-28 -8,-52 -4,-70 27,-5 63,3 53,-41 -8,-33 -16,-56 -4,-89 22,-61 -19,-156 -63,-197 -17,-16 -121,-24 -149,-30 -77,-77 -36,-244 -190,-244 -75,0 -233,98 -249,177 -6,32 1,72 -33,91 -55,33 -15,7 -34,59 -7,18 -27,15 -27,36 0,33 -37,90 22,90 0,61 -63,8 -75,9 -12,2 -35,108 -40,124 -11,62 1,130 77,130 5,7 -43,38 -47,48 -12,24 -1,67 -22,89 -43,0 -27,-145 -38,-160 -14,0 -67,32 -67,45 64,36 11,40 31,78 31,62 -29,39 -53,18 -21,-19 -22,37 -22,49 -5,121 7,253 -10,372l14 110c3,25 10,41 20,63 23,47 6,76 21,120 11,34 31,63 43,99 15,45 11,88 -1,133 -5,20 -78,96 -99,96l-74 -204c-31,-85 -121,-150 -150,-236 0,-41 -32,-98 -40,-140 -8,-45 -19,-86 -19,-133 0,-67 -49,-171 -103,-211 0,-18 -60,-64 -73,-80 -30,-38 3,52 6,64 -28,0 -168,-215 -192,-254 -24,-39 -63,-66 -84,-105 -31,-59 43,-8 63,9 16,14 42,55 66,55 0,-15 -51,-74 -61,-92 -25,-42 -71,-72 -93,-113 0,-18 -26,-50 -31,-73 -5,-23 -6,-45 -6,-69 0,-27 15,-69 -21,-71 -19,-1 -35,-19 -51,-16 -41,8 -42,13 -44,-35l-4 -133c-2,-68 7,-145 78,-67 22,24 91,170 101,167 0,-39 8,-90 17,-130 13,-23 53,-47 48,-73 -6,-32 -4,-47 2,-79 6,-32 11,-109 5,-138 -6,-29 -18,-56 -24,-86 -15,-71 -72,8 -101,-67 -17,-43 -20,-3 -53,-11 -29,-7 -41,-55 -47,-82 17,-17 88,-13 71,-42 -20,-34 -39,-28 -73,-33 -68,-9 -8,-76 -35,-131 -41,-83 50,8 67,15 19,7 50,-6 64,3 27,17 48,58 79,65 -11,-34 -51,-75 -75,-104l-113 -133c-95,-112 -337,-79 -423,-230 -37,-73 -54,-77 -114,-124 -43,-34 -59,-84 -120,-84 -35,0 -87,25 -89,-34 -4,-80 -51,-17 -68,-105 -6,-31 -29,-44 -33,-76 -4,-37 3,-71 -46,-57 -43,13 -11,-59 -15,-81 -2,0 -2,0 -3,-2 -20,0 -28,29 -40,40 -13,11 -45,-37 -51,-45 -12,-6 -26,-22 -37,-26 0,-32 106,-39 131,-40 53,-3 3,-70 3,-104 -54,0 -104,-7 -157,-18 -55,-12 -155,-95 -188,-95 -35,0 -56,65 -81,56 -14,-5 -16,-41 -18,-41l0 -2 -1 -1c-17,0 -27,27 -44,12 -17,-15 -12,-52 -16,-73 -9,-52 -61,-77 -60,-123 1,-33 15,-65 19,-97 8,-70 48,-15 74,-24 0,-5 -3,-8 -3,-12 -11,-3 -64,-72 -71,-82 -17,-29 -46,-57 -65,-86 -18,-27 -3,-39 -3,-64l-1 -1c-73,-18 -103,-22 -139,-100 -25,-55 -2,-182 -35,-216 -37,-38 -70,-65 -99,-112 -28,-51 -7,-68 11,-108 14,-32 -47,6 -48,6 0,-1 -1,-1 -3,-2 -11,-46 35,-56 -5,-116 -29,-44 -66,-77 -93,-124 -22,-38 -27,-83 -39,-124 -15,-49 -1,-107 -52,-119 -24,-5 -56,-35 -54,-62 -7,-43 -2,-124 -44,-133 -60,-12 -79,-53 -105,-104 -69,-130 -42,-263 -76,-398 -8,-68 -88,-103 -115,-155 -32,-65 -102,42 -156,57 -67,19 -59,-23 -93,-57 -18,-19 -52,-9 -76,-10 -4,0 -26,-1 -26,-4 -3,-24 92,-85 111,-105l81 -86c31,-33 73,-45 104,-75 48,-4 100,-12 145,4 22,8 103,42 110,63 -19,-75 -62,-151 -81,-230 -23,-97 -97,-167 -110,-272 -8,-83 10,-97 81,-124 39,-15 63,-75 108,-91 48,-18 170,90 214,115 43,24 57,47 109,53 51,7 105,-13 156,-13 32,-7 73,10 88,-21 36,-72 21,-110 125,-110 55,0 106,-3 160,3 42,4 52,12 52,-36 0,-62 20,-117 20,-178 0,-94 -65,-84 -88,-153 0,-68 -6,-129 61,-166 32,-18 77,6 112,-4 40,-12 84,-136 135,-98 47,35 76,61 142,61 -4,13 -25,27 -30,49 -13,55 -14,35 -57,17 -64,-27 -91,-11 -155,-6 -40,4 -101,0 -134,11 2,7 55,44 65,49 31,15 20,69 61,90 42,22 90,44 136,55 29,20 32,33 66,11 44,-28 40,-46 52,20 6,34 -3,77 6,110l1 1c102,0 192,-63 294,1 25,16 35,71 13,94 -24,25 -11,20 10,35 11,8 31,43 39,46 1,5 7,9 8,14 42,11 223,-139 271,-166 106,-85 294,-216 393,-45 32,56 57,140 41,204 -24,96 17,113 76,173 62,81 128,152 179,243 26,47 64,93 102,132 34,34 90,77 117,114 46,55 137,116 152,183 25,115 -2,224 -2,339 0,80 38,50 101,43 64,-7 100,-8 154,32 81,62 67,135 3,196 -63,59 -112,-6 -38,102 20,29 36,78 73,91 26,9 63,-129 133,-29 37,52 77,216 82,280 24,73 3,152 30,230 35,102 125,212 198,290 45,49 16,58 6,113 -14,80 4,60 52,77 3,13 18,24 20,38 13,31 81,235 100,235 12,-50 50,-44 75,-4 24,39 -12,42 53,39 24,-1 31,8 45,24 60,71 237,31 320,38 80,0 258,-31 312,36 32,41 76,72 113,107 47,44 114,53 168,86 55,5 140,20 179,62 31,33 82,102 99,142 32,76 127,58 150,129 14,43 9,37 -41,34 -32,-2 -69,11 -100,11 0,4 42,20 49,25 48,36 104,71 145,118 123,111 295,225 455,275 139,43 281,134 426,134 1,1 4,1 6,2 15,61 28,111 34,176 58,40 103,73 169,104 68,32 70,24 91,90l4 0c17,-51 147,2 189,-7 83,-17 116,-75 206,-42 67,19 106,33 180,33 49,0 101,-8 147,-8l1 1c18,74 52,143 128,168 93,31 162,-44 210,71 52,65 71,27 148,27 52,0 79,38 134,0 71,-49 99,-109 184,-135 63,-19 99,-111 164,-117 82,0 171,-164 245,-105 65,52 100,21 174,21 94,0 112,-154 169,-216 27,-30 58,-62 100,-62 57,0 55,2 111,-31 62,-1 155,-18 202,-59 52,-45 113,-78 171,-114 44,-26 73,-30 122,-36 59,-7 97,-48 153,-57 52,-8 100,55 150,55 50,-7 119,7 171,9 91,4 177,-1 248,64 53,49 60,129 139,129 8,34 9,133 40,151 40,23 114,109 97,160 13,62 44,113 55,174 19,102 5,190 1,291 -2,59 27,181 67,226 -5,74 133,100 92,189 -29,63 -27,110 7,169 22,39 51,59 72,104 27,58 6,182 88,190l264 26c123,58 256,-57 256,136 34,0 78,-44 111,-55 180,-62 165,220 341,158l170 -55c49,-16 81,-12 124,13 66,38 131,-1 206,2 27,1 60,20 82,34 33,20 75,8 111,8 140,-4 248,81 320,192 40,61 153,22 207,12 39,-7 90,-23 128,-36 41,-14 104,-13 140,-34 42,7 71,-11 108,24 62,59 65,67 158,70 49,2 256,-24 284,1 25,23 -8,70 47,37 37,-21 102,-14 144,-14 31,5 65,-9 93,-2 39,9 65,107 116,39 20,-27 63,-48 98,-48 68,0 17,27 25,50 8,24 137,44 162,39 5,-1 -55,-72 -14,-114 43,-43 242,-64 238,22 -2,57 -9,47 20,98 8,14 -16,27 -3,43 9,12 55,9 69,6 138,0 304,59 442,89 47,10 147,27 147,87 0,28 137,67 162,67 58,25 141,49 181,-18 12,-19 9,-34 10,-56 0,-5 82,-80 93,-86 43,-22 85,112 130,26 11,-21 55,-119 74,-125l1 1c0,55 -54,145 20,148 150,7 27,96 -3,169 -7,17 103,40 126,34 36,-9 3,-103 74,-118 66,-12 140,22 209,22 14,-42 -46,-66 26,-115 49,-33 182,-66 230,-18 52,52 17,72 17,121l1 1c16,0 28,12 41,12 22,-65 25,-98 88,-141 71,-48 129,-83 219,-83 48,19 165,23 218,24 77,2 260,65 321,30 36,-21 93,-49 136,-43 38,5 95,42 129,31 88,15 166,26 249,51 85,26 1,-47 1,-81 0,-90 182,-145 250,-153 130,-16 231,50 358,61 33,-8 89,12 116,1 29,-11 -44,-72 -20,-102 38,-49 26,-15 45,27 12,27 11,36 11,65 0,29 107,17 134,18 71,2 113,59 175,69 55,16 86,69 146,21 42,-34 161,-22 165,44 1,17 -10,67 -1,76 11,10 70,1 83,-2l0 -3c-54,-13 -56,-115 -21,-147 51,-47 112,-46 179,-51l71 0 0 -9201zm-19873 3097c-47,-61 -80,-125 -147,-166 -27,-17 -46,-61 -83,-35 -26,18 -55,51 -86,59 0,19 31,43 49,42 29,-1 103,-58 97,-19 -5,35 20,33 20,49 0,16 -41,28 -46,9 -18,0 -32,28 -65,21 -22,-5 -111,-33 -61,21 58,62 53,114 90,185l85 162c14,56 118,-71 135,-91 18,-21 49,-70 55,-97 12,-50 -21,-63 -30,-106l-14 -34zm51 532c-13,-16 -53,-29 -74,-30 -11,-1 -22,-6 -33,0 -30,17 16,29 31,33 25,6 54,30 74,48 7,6 20,14 29,14 27,0 -7,-38 -9,-45l-18 -20zm5961 3562c-39,0 -72,-5 -109,-12 -32,-6 -81,-21 -111,-11 7,2 20,14 28,19 43,27 98,32 147,35 26,1 139,30 74,-26l-30 -4zm396 188c-11,-4 -23,-10 -34,-13 -9,-3 -20,-8 -29,-5 -14,5 -11,23 -7,34 3,7 19,14 26,15 16,2 32,-3 44,-15l0 -16zm435 190c-5,-17 -12,-34 -28,-42 -26,-13 -43,-5 -68,6 -13,6 -56,8 -57,26 -1,15 68,38 84,46 9,5 29,17 38,18 14,2 42,2 45,-19l-14 -35zm605 343c4,-15 0,-27 -13,-36 -7,-5 -25,-11 -34,-9 -9,1 -11,10 -11,18 0,12 11,25 18,35 3,5 4,12 8,16 8,8 24,-4 31,-9l2 -14zm1940 -773c-23,56 -156,112 -186,169 -63,119 -117,-33 -173,-15 -46,15 -73,82 -130,82 -29,0 -33,-37 -64,-7 -21,21 -71,46 -98,62 -108,65 -235,77 -355,111 -41,12 -34,-77 -48,-112 1,-1 2,-1 2,-3 106,0 368,-63 428,-157 38,-58 24,-117 50,-176 46,-105 55,83 71,109 25,40 48,-6 56,-35 11,-36 -22,-73 -33,-107 -24,-80 44,-21 74,-14 30,20 40,42 80,44 39,2 104,-33 136,-54 21,-14 45,-18 69,-23 27,-6 57,-29 86,-37 43,-4 73,-8 114,3l50 13c8,2 29,14 24,25 -5,12 -59,24 -73,29 -25,9 -47,40 -61,63l-20 31zm282 -33c-26,-3 -48,-6 -68,10 -10,8 -10,34 -10,47 0,15 8,27 25,27 19,0 39,-31 54,-41 7,-5 19,-3 23,-10 6,-11 9,-17 -2,-26l-22 -7zm100 -276c-11,3 -24,2 -34,7 -9,5 -13,12 -19,20 -7,11 -6,35 6,44 7,5 27,10 35,8 9,-2 14,-7 21,-12 10,-8 15,-9 22,-21 8,-12 -3,-23 -9,-35l-23 -11zm-79 1103c-17,-17 15,-29 23,-39 6,-8 14,-42 7,-49 -6,-6 -39,6 -48,7 -9,2 -43,-2 -36,16 5,14 42,54 12,64 -17,5 -35,5 -40,28 -8,42 44,-8 61,14 6,7 22,24 32,24 14,0 0,-38 -3,-42l-8 -23zm2683 7912c-37,-46 13,-166 39,-208 29,-46 85,-46 120,-85 53,-58 33,-132 97,-191 39,-36 11,-117 67,-117 0,59 4,166 50,208 26,23 41,20 5,39 -101,54 -180,142 -203,256 -10,53 -113,174 -170,174 0,-18 0,-35 -5,-52l0 -24zm-9797 -7475c-14,-57 22,-108 7,-168 -13,-51 -67,-195 7,-218 43,-14 62,3 105,-26 22,-15 58,-30 86,-30 4,14 -24,70 -47,76 -10,41 7,25 24,61 54,109 -11,246 -11,359 0,20 -16,127 -38,130 -7,1 -34,-72 -42,-85 -16,-24 -43,-38 -65,-59l-24 -39zm-59 -278c-6,-4 -9,-10 -16,-12 -7,-2 -18,-8 -25,-3 -3,2 -10,16 -7,21 2,5 5,7 7,12 2,9 1,22 12,27 15,7 23,5 33,-8l-3 -36zm445 699c10,-11 10,-40 7,-54 -5,-25 2,-59 -10,-81 -18,-32 -40,27 -43,40 -3,15 -5,33 -5,49 0,22 -7,46 -7,68 0,42 29,18 50,4l7 -25zm1854 1493c4,-16 4,-33 -11,-43 -8,-6 -27,-6 -35,0 -7,5 -14,8 -18,17 -6,15 3,28 10,40 4,7 4,12 12,17 8,4 25,-1 34,-3l8 -28zm358 271c7,-13 18,-43 5,-55 -11,-10 -37,-8 -53,-8 -13,0 -23,7 -24,21 -1,10 -1,16 7,21 11,8 12,22 12,35 0,24 32,7 44,2l9 -15zm814 -20c-5,8 -52,20 -63,21 -24,2 -47,2 -70,7 0,17 27,21 40,24 30,7 57,-15 87,-5 30,11 64,-22 33,-46l-26 -1zm650 95c-42,-8 -54,7 -92,11 -50,5 -70,0 -111,38 -18,17 -76,43 -82,60 54,0 101,15 153,30 57,17 63,-10 101,-36 17,-12 41,13 53,23 18,16 95,9 102,-16 18,-66 -49,-59 -85,-91l-39 -20zm489 -90c-9,-11 -20,-16 -30,-24 -3,-2 -22,-20 -22,-22 -19,0 -48,1 -62,18 -3,4 16,13 20,16 12,8 26,24 34,37 10,18 20,26 44,26 11,0 17,7 26,7 17,1 12,-23 7,-32l-15 -26z"/>
  <path class="fil0 str1" d="M4058 2362c29,-39 48,-95 61,-143 10,-36 37,-69 45,-105 6,-30 -21,-39 -32,-63 -3,-7 13,-59 19,-62 41,-20 36,-19 41,20 8,65 20,115 10,182 -10,68 -10,137 -17,204 -2,19 -54,12 -69,20 -26,13 -52,11 -67,-19l8 -34zm-961 350c52,26 79,48 140,48 92,0 146,69 254,69 87,0 145,17 235,4 33,-5 160,0 145,62 -10,44 -121,67 -154,41 -105,-83 -149,-42 -273,-63 -90,-15 -123,-65 -221,-63 -72,2 -102,-50 -166,-52 -48,-2 -70,-10 -107,-32 -11,-7 -157,6 -99,-46 60,-53 137,5 203,17l42 15zm-291 105c-33,4 -114,-8 -137,12 -33,28 -3,52 10,78 15,30 39,30 71,30 21,0 31,-11 39,-28 12,-26 34,-29 57,-37 8,-3 14,-9 16,-18 5,-22 -8,-24 -21,-39l-34 2zm202 -7c-22,0 -47,-9 -69,-4 -16,4 -18,17 -18,32 0,8 5,16 9,22 10,16 50,5 67,5 11,0 23,3 29,-9 3,-6 5,-14 1,-20 -3,-4 -8,-8 -8,-12l-11 -14zm965 -1195c6,-26 -26,-50 -42,-66 -16,-16 -51,-24 -66,-6 -17,20 6,73 13,94 6,17 21,26 34,36 24,18 42,3 57,-18l4 -41z"/>
  <g id="_1475036638080">
   <path class="fil2 str2" d="M1000 1934c15,6 28,0 49,27 21,27 112,75 160,84 48,9 86,-12 142,5 56,16 52,121 119,134 67,14 95,3 141,11 46,8 66,6 122,40 56,34 110,56 202,56 92,0 66,28 128,76 62,48 182,18 234,44 52,26 31,57 60,81 29,24 80,51 131,70 52,19 115,-19 166,-49 51,-29 56,3 122,12 66,9 133,2 216,25 83,24 220,-7 275,-7 55,0 47,0 65,1 18,1 35,7 50,4 16,-3 26,-9 48,-14 23,-5 43,19 67,15 24,-5 42,-31 68,-37 26,-6 121,-53 139,-22 17,31 26,90 53,119 27,28 28,59 64,96 37,37 78,89 142,103 64,14 91,69 88,111 -3,42 12,69 26,100 14,31 70,107 98,128 27,21 39,27 65,37 26,11 62,-1 95,16 33,17 139,33 178,41 39,8 85,6 107,13 23,6 -6,-13 32,15 38,28 107,142 169,161 62,19 73,41 83,61 10,20 11,76 28,91 17,16 53,-5 97,-12 44,-8 20,97 34,121 14,25 38,31 57,44 19,12 34,30 49,45 15,15 25,35 37,52"/>
   <path class="fil2 str2" d="M3023 1000c0,29 41,104 65,131 24,27 36,59 109,74 73,15 110,38 120,125 10,87 54,209 86,251 31,42 21,22 95,104 74,82 187,398 185,509 -2,112 7,92 7,136 0,44 14,120 14,160"/>
   <path class="fil2 str2" d="M4620 3254c25,-22 48,-46 74,-67 26,-21 71,-56 74,-100 2,-44 -36,-140 -8,-174 27,-34 40,-29 69,-48 29,-18 40,-69 47,-105 7,-37 49,-145 0,-163 -49,-19 -88,-15 -88,-68 0,-53 43,-53 43,-108 0,-55 -4,-117 73,-154 76,-37 93,-115 181,-163 87,-49 145,-125 227,-216 82,-91 95,-287 101,-369 7,-82 51,-59 93,-86 42,-27 71,-152 40,-215 -31,-62 -137,-108 -145,-153 -8,-45 -7,-43 -11,-65"/>
  </g>
  <polygon class="fil3 str3" points="21411,18177 24036,18177 24036,19770 21411,19770 "/>
  <g id="_1475036583488">
   <polygon class="fil4 str4" points="21525,18779 22124,18779 22124,18878 21525,18878 "/>
   <polygon class="fil5 str4" points="22124,18779 22724,18779 22724,18878 22124,18878 "/>
   <polygon class="fil4 str4" points="22724,18779 23323,18779 23323,18878 22724,18878 "/>
   <polygon class="fil5 str4" points="23323,18779 23922,18779 23922,18878 23323,18878 "/>
   <polygon class="fil4 str4" points="22486,19078 23444,19078 23444,19177 22486,19177 "/>
   <polygon class="fil5 str4" points="21527,19078 22486,19078 22486,19177 21527,19177 "/>
  </g>
  <path class="fil6" d="M22351 18538l-16 45 -138 0 0 -6c41,-37 69,-67 86,-91 17,-23 25,-45 25,-64 0,-15 -5,-27 -14,-37 -9,-10 -20,-14 -33,-14 -12,0 -22,3 -31,10 -9,7 -16,16 -20,29l-6 0c3,-21 10,-37 22,-49 12,-11 27,-17 45,-17 19,0 35,6 48,18 13,12 19,27 19,43 0,12 -3,24 -8,36 -8,19 -22,38 -41,59 -29,31 -46,50 -53,56l60 0c12,0 21,0 26,-1 5,-1 9,-3 13,-6 4,-3 7,-7 10,-12l7 0z"/>
  <path id="1" class="fil6" d="M22378 18468c0,-27 4,-50 12,-69 8,-19 19,-34 32,-43 10,-7 21,-11 32,-11 18,0 34,9 48,27 18,23 27,53 27,92 0,27 -4,50 -12,69 -8,19 -18,33 -30,41 -12,9 -24,13 -35,13 -22,0 -41,-13 -56,-39 -13,-22 -19,-49 -19,-80zm34 4c0,32 4,58 12,79 7,17 16,26 29,26 6,0 13,-3 19,-8 7,-6 12,-15 15,-28 5,-20 8,-48 8,-83 0,-27 -3,-49 -8,-67 -4,-13 -9,-23 -16,-28 -5,-4 -10,-6 -17,-6 -8,0 -15,4 -21,11 -8,10 -14,24 -17,45 -3,20 -4,41 -4,60z"/>
  <path id="2" class="fil6" d="M22555 18468c0,-27 4,-50 12,-69 8,-19 19,-34 32,-43 10,-7 21,-11 32,-11 18,0 34,9 48,27 18,23 27,53 27,92 0,27 -4,50 -12,69 -8,19 -18,33 -30,41 -12,9 -24,13 -35,13 -22,0 -41,-13 -56,-39 -13,-22 -19,-49 -19,-80zm34 4c0,32 4,58 12,79 7,17 16,26 29,26 6,0 13,-3 19,-8 7,-6 12,-15 15,-28 5,-20 8,-48 8,-83 0,-27 -3,-49 -8,-67 -4,-13 -9,-23 -16,-28 -5,-4 -10,-6 -17,-6 -8,0 -15,4 -21,11 -8,10 -14,24 -17,45 -3,20 -4,41 -4,60z"/>
  <path id="3" class="fil6" d="M22865 18338l0 157 40 -37c9,-8 13,-13 15,-15 1,-1 1,-3 1,-4 0,-2 -1,-4 -3,-6 -2,-2 -5,-3 -9,-3l0 -6 69 0 0 6c-9,0 -17,2 -23,4 -6,3 -13,7 -21,14l-41 37 40 51c11,14 19,23 23,27 6,5 10,9 15,10 3,1 8,2 15,2l0 6 -77 0 0 -6c4,0 7,-1 9,-2 2,-1 2,-3 2,-5 0,-3 -2,-7 -7,-13l-48 -62 0 52c0,10 1,17 2,20 1,3 3,5 6,7 3,1 8,2 17,2l0 6 -80 0 0 -6c8,0 14,-1 18,-3 2,-1 4,-3 5,-6 2,-4 3,-10 3,-20l0 -144c0,-18 0,-29 -1,-33 -1,-4 -2,-7 -4,-8 -2,-2 -4,-2 -7,-2 -2,0 -6,1 -11,3l-3 -6 47 -19 8 0z"/>
  <path id="4" class="fil6" d="M23041 18455c11,-12 18,-18 20,-20 5,-4 11,-8 17,-10 6,-2 12,-4 18,-4 10,0 18,3 25,9 7,6 12,14 14,25 12,-14 22,-23 30,-27 8,-4 17,-6 25,-6 8,0 16,2 22,6 6,4 12,11 15,21 3,7 4,17 4,31l0 68c0,10 1,17 2,20 1,2 3,5 6,6 3,2 8,3 15,3l0 6 -77 0 0 -6 3 0c7,0 12,-1 16,-4 3,-2 5,-5 6,-9 0,-2 1,-7 1,-17l0 -68c0,-13 -2,-22 -5,-27 -5,-7 -12,-11 -22,-11 -6,0 -12,2 -18,5 -6,3 -14,9 -22,17l0 2 1 7 0 75c0,11 1,17 2,20 1,3 3,5 7,7 3,2 9,3 17,3l0 6 -79 0 0 -6c9,0 15,-1 18,-3 3,-2 5,-5 7,-9 1,-2 1,-8 1,-17l0 -68c0,-13 -2,-22 -6,-28 -5,-7 -12,-11 -21,-11 -6,0 -12,2 -18,5 -9,5 -17,11 -22,17l0 85c0,10 1,17 2,20 1,3 4,5 6,7 3,2 8,2 17,2l0 6 -78 0 0 -6c7,0 12,-1 15,-2 3,-2 5,-4 7,-7 1,-3 2,-10 2,-20l0 -60c0,-17 -1,-28 -2,-34 -1,-4 -2,-6 -4,-8 -2,-1 -4,-2 -7,-2 -3,0 -7,1 -12,3l-3 -6 48 -19 7 0 0 34z"/>
  <path class="fil6" d="M22041 19342l57 -28 6 0 0 197c0,13 1,21 2,25 1,3 3,6 7,7 3,2 11,3 21,3l0 6 -88 0 0 -6c11,0 18,-1 21,-3 3,-2 5,-4 7,-7 1,-3 2,-11 2,-25l0 -126c0,-17 -1,-28 -2,-33 -1,-4 -2,-6 -4,-8 -2,-2 -5,-3 -8,-3 -4,0 -10,2 -18,5l-3 -5z"/>
  <path id="1" class="fil6" d="M22676 19424c11,-12 18,-18 20,-20 5,-4 11,-8 17,-10 6,-2 12,-4 18,-4 10,0 18,3 25,9 7,6 12,14 14,25 12,-14 22,-23 30,-27 8,-4 17,-6 25,-6 8,0 16,2 22,6 6,4 12,11 15,21 3,7 4,17 4,31l0 68c0,10 1,17 2,20 1,2 3,5 6,6 3,2 8,3 15,3l0 6 -77 0 0 -6 3 0c7,0 12,-1 16,-4 3,-2 5,-5 6,-9 0,-2 1,-7 1,-17l0 -68c0,-13 -2,-22 -5,-27 -5,-7 -12,-11 -22,-11 -6,0 -12,2 -18,5 -6,3 -14,9 -22,17l0 2 1 7 0 75c0,11 1,17 2,20 1,3 3,5 7,7 3,2 9,3 17,3l0 6 -79 0 0 -6c9,0 15,-1 18,-3 3,-2 5,-5 7,-9 1,-2 1,-8 1,-17l0 -68c0,-13 -2,-22 -6,-28 -5,-7 -12,-11 -21,-11 -6,0 -12,2 -18,5 -9,5 -17,11 -22,17l0 85c0,10 1,17 2,20 1,3 4,5 6,7 3,2 8,2 17,2l0 6 -78 0 0 -6c7,0 12,-1 15,-2 3,-2 5,-4 7,-7 1,-3 2,-10 2,-20l0 -60c0,-17 -1,-28 -2,-34 -1,-4 -2,-6 -4,-8 -2,-1 -4,-2 -7,-2 -3,0 -7,1 -12,3l-3 -6 48 -19 7 0 0 34z"/>
  <path id="2" class="fil6" d="M22943 19308c5,0 9,2 12,5 3,3 5,8 5,12 0,5 -2,9 -5,12 -3,3 -8,5 -12,5 -5,0 -9,-2 -12,-5 -3,-3 -5,-8 -5,-12 0,-5 2,-9 5,-12 3,-3 8,-5 13,-5zm14 83l0 127c0,10 1,16 2,20 1,3 4,6 6,7 3,2 8,2 15,2l0 6 -77 0 0 -6c8,0 13,-1 15,-2 3,-1 5,-4 6,-7 2,-3 2,-10 2,-20l0 -61c0,-17 -1,-28 -2,-33 -1,-4 -2,-6 -4,-8 -2,-1 -4,-2 -7,-2 -3,0 -7,1 -12,3l-2 -6 47 -19 8 0z"/>
  <path id="3" class="fil6" d="M22189 19438c0,-27 4,-50 12,-69 8,-19 19,-34 32,-43 10,-7 21,-11 32,-11 18,0 34,9 48,27 18,23 27,53 27,92 0,27 -4,50 -12,69 -8,19 -18,33 -30,41 -12,9 -24,13 -35,13 -22,0 -41,-13 -56,-39 -13,-22 -19,-49 -19,-80zm34 4c0,32 4,58 12,79 7,17 16,26 29,26 6,0 13,-3 19,-8 7,-6 12,-15 15,-28 5,-20 8,-48 8,-83 0,-27 -3,-49 -8,-67 -4,-13 -9,-23 -16,-28 -5,-4 -10,-6 -17,-6 -8,0 -15,4 -21,11 -8,10 -14,24 -17,45 -3,20 -4,41 -4,60z"/>
  <path id="4" class="fil6" d="M22365 19438c0,-27 4,-50 12,-69 8,-19 19,-34 32,-43 10,-7 21,-11 32,-11 18,0 34,9 48,27 18,23 27,53 27,92 0,27 -4,50 -12,69 -8,19 -18,33 -30,41 -12,9 -24,13 -35,13 -22,0 -41,-13 -56,-39 -13,-22 -19,-49 -19,-80zm34 4c0,32 4,58 12,79 7,17 16,26 29,26 6,0 13,-3 19,-8 7,-6 12,-15 15,-28 5,-20 8,-48 8,-83 0,-27 -3,-49 -8,-67 -4,-13 -9,-23 -16,-28 -5,-4 -10,-6 -17,-6 -8,0 -15,4 -21,11 -8,10 -14,24 -17,45 -3,20 -4,41 -4,60z"/>
  <rect class="fil2 str5" x="1000" y="1000" width="23631" height="19000"/>
  <path class="fil7" d="M24214 19677c0,-17 4,-34 13,-51 9,-17 22,-30 38,-39 17,-9 34,-14 52,-14 18,0 35,5 52,14 17,9 29,22 39,38 9,17 14,34 14,52 0,18 -5,35 -14,52 -9,17 -22,29 -39,39 -17,9 -34,14 -52,14 -18,0 -35,-5 -52,-14 -17,-9 -30,-22 -38,-39 -9,-17 -13,-34 -13,-51zm17 0c0,15 4,29 11,43 7,14 18,25 32,32 14,8 28,12 43,12 15,0 29,-4 43,-12 14,-8 24,-18 32,-32 8,-14 12,-28 12,-43 0,-15 -4,-29 -12,-43 -8,-14 -18,-25 -32,-32 -14,-8 -28,-11 -43,-11 -15,0 -30,4 -43,12 -14,8 -25,19 -32,32 -7,14 -11,28 -11,43zm104 -33l5 -17c12,3 21,9 28,18 7,9 10,20 10,33 0,16 -5,29 -16,39 -10,10 -25,15 -44,15 -12,0 -23,-2 -32,-7 -9,-5 -16,-11 -20,-20 -5,-9 -7,-18 -7,-29 0,-12 3,-22 9,-30 6,-8 14,-14 24,-17l4 16c-7,3 -12,7 -16,12 -4,5 -6,12 -6,19 0,11 4,19 11,26 8,7 18,10 32,10 14,0 25,-3 32,-10 7,-6 11,-15 11,-25 0,-8 -2,-16 -7,-22 -5,-6 -11,-10 -20,-12z"/>
  <path id="1" class="fil7" d="M24420 19382l-19 0c14,9 22,23 22,41 0,12 -3,22 -10,32 -6,10 -15,17 -27,23 -12,5 -25,8 -40,8 -15,0 -28,-2 -40,-7 -12,-5 -21,-12 -27,-22 -6,-10 -10,-21 -10,-33 0,-9 2,-17 6,-24 4,-7 9,-12 15,-17l-73 0 0 -25 202 0 0 23zm-73 78c19,0 33,-4 42,-12 9,-8 14,-17 14,-28 0,-11 -4,-20 -13,-28 -9,-8 -22,-11 -41,-11 -20,0 -35,4 -44,12 -9,8 -14,17 -14,29 0,11 4,20 13,28 9,7 23,11 42,11z"/>
  <polygon id="2" class="fil7" points="24359,19329 24334,19329 24334,19252 24359,19252 "/>
  <path id="3" class="fil7" d="M24420 19225l-146 0 0 -22 21 0c-7,-5 -13,-11 -17,-18 -4,-8 -7,-16 -7,-26 0,-11 2,-20 7,-27 5,-7 11,-12 19,-15 -17,-12 -26,-27 -26,-45 0,-15 4,-26 12,-34 8,-8 20,-12 37,-12l100 0 0 25 -92 0c-10,0 -17,1 -21,2 -4,2 -8,5 -11,9 -3,4 -4,9 -4,15 0,10 3,19 10,26 7,7 18,10 33,10l85 0 0 25 -95 0c-11,0 -19,2 -25,6 -6,4 -8,11 -8,20 0,7 2,13 6,19 4,6 9,10 16,13 7,3 17,4 31,4l76 0 0 25z"/>
  <path id="4" class="fil7" d="M24401 18894c8,9 13,18 17,27 3,9 5,18 5,27 0,16 -4,28 -12,37 -8,9 -18,13 -30,13 -7,0 -14,-2 -20,-5 -6,-3 -11,-8 -14,-13 -4,-5 -6,-11 -8,-18 -1,-5 -2,-12 -4,-22 -2,-20 -5,-35 -9,-44 -3,0 -6,0 -6,0 -10,0 -17,2 -21,7 -6,6 -8,16 -8,28 0,12 2,20 6,26 4,6 11,10 22,12l-3 24c-10,-2 -19,-6 -25,-11 -6,-5 -11,-12 -15,-22 -3,-10 -5,-21 -5,-33 0,-13 1,-23 4,-31 3,-8 7,-14 11,-17 4,-4 10,-6 17,-8 4,-1 12,-1 23,-1l33 0c23,0 38,-1 44,-2 6,-1 12,-3 18,-6l0 26c-5,3 -11,4 -18,5zm-55 2c4,9 7,23 9,41 1,10 3,17 5,22 2,4 5,7 8,10 4,2 7,3 12,3 7,0 12,-2 16,-8 4,-5 7,-12 7,-22 0,-10 -2,-18 -6,-26 -4,-7 -10,-13 -17,-16 -6,-3 -14,-4 -25,-4l-9 0z"/>
  <path id="5" class="fil7" d="M24476 18833l-203 0 0 -23 19 0c-7,-5 -13,-11 -17,-18 -4,-7 -6,-15 -6,-24 0,-13 3,-24 10,-33 6,-10 15,-17 27,-22 12,-5 25,-7 38,-7 15,0 28,3 40,8 12,5 21,13 28,23 6,10 10,21 10,32 0,8 -2,16 -5,22 -3,7 -8,12 -13,16l71 0 0 25zm-129 -23c19,0 33,-4 42,-11 9,-8 13,-17 13,-28 0,-11 -5,-20 -14,-28 -9,-8 -24,-12 -43,-12 -19,0 -33,4 -42,11 -9,8 -14,17 -14,27 0,11 5,20 15,28 10,8 24,12 43,12z"/>
  <path id="6" class="fil7" d="M24376 18686l-4 -25c10,-1 17,-5 23,-12 5,-6 8,-15 8,-26 0,-11 -2,-20 -7,-25 -5,-6 -10,-8 -16,-8 -6,0 -10,3 -13,7 -2,3 -5,12 -8,25 -5,18 -9,31 -12,38 -3,7 -8,12 -14,16 -6,4 -12,5 -20,5 -7,0 -13,-2 -18,-4 -6,-3 -10,-7 -14,-12 -3,-4 -5,-9 -7,-16 -2,-7 -3,-14 -3,-21 0,-11 2,-22 5,-30 3,-9 8,-15 13,-19 6,-4 13,-7 23,-9l3 24c-8,1 -14,4 -18,10 -4,5 -6,13 -6,22 0,11 2,19 6,24 4,5 8,7 13,7 3,0 6,-1 9,-3 3,-2 5,-5 7,-10 1,-3 3,-10 6,-22 5,-18 9,-30 11,-37 3,-7 7,-12 13,-16 6,-4 13,-6 21,-6 8,0 16,2 23,7 7,5 13,12 17,21 4,9 6,19 6,31 0,19 -4,34 -12,44 -8,10 -20,16 -35,19z"/>
  <polygon id="7" class="fil7" points="24420,18528 24392,18528 24392,18500 24420,18500 "/>
  <path id="8" class="fil7" d="M24366 18361l3 -24c17,3 30,9 39,20 9,11 14,24 14,40 0,20 -7,36 -20,48 -13,12 -32,18 -56,18 -16,0 -30,-3 -41,-8 -12,-5 -21,-13 -27,-24 -6,-11 -9,-22 -9,-35 0,-16 4,-29 12,-39 8,-10 19,-17 34,-19l4 24c-10,2 -17,6 -22,12 -5,6 -7,13 -7,21 0,13 4,23 13,31 9,8 23,12 42,12 20,0 34,-4 43,-11 9,-8 13,-17 13,-29 0,-10 -3,-18 -9,-24 -6,-7 -15,-11 -27,-12z"/>
  <path id="9" class="fil7" d="M24347 18325c-27,0 -47,-8 -60,-23 -11,-13 -16,-28 -16,-46 0,-20 7,-37 20,-49 13,-13 31,-19 55,-19 19,0 34,3 44,8 11,6 19,14 25,25 6,11 9,23 9,35 0,21 -7,37 -20,50 -13,13 -32,19 -57,19zm0 -25c19,0 33,-4 42,-12 9,-8 14,-19 14,-31 0,-12 -5,-23 -14,-31 -9,-8 -24,-12 -43,-12 -18,0 -32,4 -41,12 -9,8 -14,18 -14,31 0,12 5,23 14,31 9,8 23,12 42,12z"/>
  <path id="10" class="fil7" d="M24420 18159l-146 0 0 -22 21 0c-7,-5 -13,-11 -17,-18 -4,-8 -7,-16 -7,-26 0,-11 2,-20 7,-27 5,-7 11,-12 19,-15 -17,-12 -26,-27 -26,-45 0,-15 4,-26 12,-34 8,-8 20,-12 37,-12l100 0 0 25 -92 0c-10,0 -17,1 -21,2 -4,2 -8,5 -11,9 -3,4 -4,9 -4,15 0,10 3,19 10,26 7,7 18,10 33,10l85 0 0 25 -95 0c-11,0 -19,2 -25,6 -6,4 -8,11 -8,20 0,7 2,13 6,19 4,6 9,10 16,13 7,3 17,4 31,4l76 0 0 25z"/>
  <g id="_1475036646784">
   <polygon class="fil3 str3" points="20470,18173 21286,18173 21286,19766 20470,19766 "/>
   <path class="fil8" d="M20818 18609c-1,3 -2,6 -2,9 0,3 -1,5 -1,7 0,6 2,10 5,12 3,2 10,3 18,3l4 0 -5 23 -78 0 5 -23 3 0c7,0 13,-2 16,-5 4,-3 6,-8 8,-16l38 -154c1,-3 1,-6 2,-8 0,-3 1,-6 1,-9 0,-5 -2,-9 -6,-11 -4,-2 -11,-3 -20,-3l-3 0 5 -23 72 0 62 184 31 -129c1,-4 2,-8 2,-10 0,-3 1,-5 1,-6 0,-6 -2,-10 -5,-12 -4,-2 -10,-3 -18,-3l-4 0 5 -23 79 0 -6 23 -3 0c-7,0 -13,2 -16,5 -4,3 -6,8 -8,16l-51 208 -22 0 -72 -209 -37 155z"/>
   <line class="fil2 str6" x1="20879" y1="19633" x2="20879" y2= "18864" />
   <line class="fil2 str6" x1="20597" y1="19357" x2="21160" y2= "19357" />
   <line class="fil2 str6" x1="20734" y1="19497" x2="21028" y2= "19210" />
   <line class="fil2 str6" x1="20731" y1="19210" x2="21029" y2= "19499" />
   <line class="fil2 str6" x1="20879" y1="18866" x2="20783" y2= "18984" />
   <line class="fil2 str6" x1="20879" y1="18866" x2="20967" y2= "18984" />
  </g>
  <g id="_1475036638016">
   <polygon class="fil3 str3" points="19708,19292 19708,19766 17398,19766 17398,19292 "/>
   <path class="fil8" d="M18476 19631l0 -202 40 0 48 143c4,13 8,23 10,30 2,-7 6,-18 11,-32l49 -141 36 0 0 202 -26 0 0 -169 -59 169 -24 0 -58 -172 0 172 -26 0z"/>
   <path id="1" class="fil8" d="M18808 19583l26 3c-4,15 -11,27 -22,35 -11,8 -25,12 -42,12 -21,0 -38,-7 -51,-20 -13,-13 -19,-32 -19,-55 0,-25 6,-44 19,-57 13,-14 29,-20 49,-20 20,0 35,7 48,20 12,13 19,32 19,56 0,1 0,4 0,7l-109 0c1,16 5,28 14,37 8,9 18,13 31,13 9,0 17,-2 23,-7 6,-5 12,-12 15,-23zm-81 -40l82 0c-1,-12 -4,-22 -9,-28 -8,-10 -18,-14 -31,-14 -11,0 -21,4 -29,11 -8,8 -12,18 -13,31z"/>
   <path id="2" class="fil8" d="M18865 19631l0 -146 22 0 0 22c6,-10 11,-17 16,-21 5,-3 10,-5 16,-5 8,0 17,3 26,8l-9 23c-6,-3 -12,-5 -18,-5 -5,0 -10,2 -15,5 -4,3 -7,8 -9,14 -3,9 -4,18 -4,29l0 77 -25 0z"/>
   <path id="3" class="fil8" d="M19055 19577l24 3c-3,17 -9,30 -20,39 -11,9 -24,14 -40,14 -20,0 -36,-7 -48,-20 -12,-13 -18,-32 -18,-56 0,-16 3,-30 8,-41 5,-12 13,-21 24,-27 11,-6 22,-9 35,-9 16,0 29,4 39,12 10,8 17,19 19,34l-24 4c-2,-10 -6,-17 -12,-22 -6,-5 -13,-7 -21,-7 -13,0 -23,4 -31,13 -8,9 -12,23 -12,42 0,20 4,34 11,43 8,9 17,13 29,13 10,0 18,-3 24,-9 7,-6 11,-15 12,-27z"/>
   <path id="4" class="fil8" d="M19196 19613c-9,8 -18,13 -27,17 -9,3 -18,5 -27,5 -16,0 -28,-4 -37,-12 -9,-8 -13,-18 -13,-30 0,-7 2,-14 5,-20 3,-6 8,-11 13,-14 5,-4 11,-6 18,-8 5,-1 12,-2 22,-4 20,-2 35,-5 44,-9 0,-3 0,-6 0,-6 0,-10 -2,-17 -7,-21 -6,-6 -16,-8 -28,-8 -12,0 -20,2 -26,6 -6,4 -10,11 -12,22l-24 -3c2,-10 6,-19 11,-25 5,-6 12,-11 22,-15 10,-3 21,-5 33,-5 13,0 23,1 31,4 8,3 14,7 17,11 4,4 6,10 8,17 1,4 1,12 1,23l0 33c0,23 1,38 2,44 1,6 3,12 6,18l-26 0c-3,-5 -4,-11 -5,-18zm-2 -55c-9,4 -23,7 -41,9 -10,1 -17,3 -22,5 -4,2 -7,5 -10,8 -2,4 -3,7 -3,12 0,7 2,12 8,16 5,4 12,7 22,7 10,0 18,-2 26,-6 7,-4 13,-10 16,-17 3,-6 4,-14 4,-25l0 -9z"/>
   <path id="5" class="fil8" d="M19311 19609l3 22c-7,1 -13,2 -19,2 -9,0 -16,-1 -21,-4 -5,-3 -8,-7 -10,-11 -2,-5 -3,-14 -3,-29l0 -84 -18 0 0 -19 18 0 0 -36 25 -15 0 51 25 0 0 19 -25 0 0 86c0,7 0,12 1,14 1,2 2,4 4,5 2,1 5,2 8,2 3,0 6,0 11,-1z"/>
   <path id="6" class="fil8" d="M19326 19558c0,-27 8,-47 23,-60 13,-11 28,-16 46,-16 20,0 37,7 49,20 13,13 19,31 19,55 0,19 -3,34 -8,44 -6,11 -14,19 -25,25 -11,6 -23,9 -35,9 -21,0 -37,-7 -50,-20 -13,-13 -19,-32 -19,-57zm25 0c0,19 4,33 12,42 8,9 19,14 31,14 12,0 23,-5 31,-14 8,-9 12,-24 12,-43 0,-18 -4,-32 -12,-41 -8,-9 -18,-14 -31,-14 -12,0 -23,5 -31,14 -8,9 -12,23 -12,42z"/>
   <path id="7" class="fil8" d="M19492 19631l0 -146 22 0 0 22c6,-10 11,-17 16,-21 5,-3 10,-5 16,-5 8,0 17,3 26,8l-9 23c-6,-3 -12,-5 -18,-5 -5,0 -10,2 -15,5 -4,3 -7,8 -9,14 -3,9 -4,18 -4,29l0 77 -25 0z"/>
   <circle class="fil9 str7" cx="17617" cy="19526" r="119"/>
   <rect class="fil9 str7" x="18075" y="19417" width="227" height="227"/>
   <line class="fil2 str8" x1="17791" y1="19525" x2="18011" y2= "19525" />
   <line class="fil2 str8" x1="18008" y1="19525" x2="17944" y2= "19591" />
   <line class="fil2 str8" x1="18009" y1="19524" x2="17945" y2= "19463" />
  </g>
 </g>
</svg>
