<?xml version="1.0" encoding="UTF-8"?>
<!DOCTYPE svg PUBLIC "-//W3C//DTD SVG 1.1//EN" "http://www.w3.org/Graphics/SVG/1.1/DTD/svg11.dtd">
<!-- Creator: CorelDRAW -->
<svg xmlns="http://www.w3.org/2000/svg" xml:space="preserve" width="297mm" height="210mm" version="1.1" style="shape-rendering:geometricPrecision; text-rendering:geometricPrecision; image-rendering:optimizeQuality; fill-rule:evenodd; clip-rule:evenodd"
viewBox="0 0 29700 21000"
 xmlns:xlink="http://www.w3.org/1999/xlink">
 <defs>
  <style type="text/css">
   <![CDATA[
    .str3 {stroke:black;stroke-width:10;stroke-miterlimit:3.864;stroke-opacity:0.501961}
    .str8 {stroke:black;stroke-width:50;stroke-miterlimit:22.9256}
    .str2 {stroke:#003399;stroke-width:20;stroke-miterlimit:22.9256}
    .str5 {stroke:#434242;stroke-width:10;stroke-miterlimit:22.9256}
    .str7 {stroke:black;stroke-width:10;stroke-miterlimit:3.864}
    .str0 {stroke:#000066;stroke-width:10;stroke-miterlimit:22.9256}
    .str1 {stroke:#003399;stroke-width:10;stroke-miterlimit:22.9256}
    .str6 {stroke:#2B2A29;stroke-width:7.62;stroke-miterlimit:22.9256}
    .str4 {stroke:black;stroke-width:7.62;stroke-miterlimit:22.9256}
    .fil2 {fill:none}
    .fil0 {fill:#FEFEFE}
    .fil5 {fill:#D9DADA}
    .fil1 {fill:white}
    .fil8 {fill:#FEFEFE;fill-rule:nonzero}
    .fil7 {fill:#D9DADA;fill-rule:nonzero}
    .fil4 {fill:#434242;fill-rule:nonzero}
    .fil6 {fill:black;fill-rule:nonzero}
    .fil3 {fill:#FEFEFE;fill-rule:nonzero;fill-opacity:0.501961}
   ]]>
  </style>
 </defs>
 <g id="Plan_x0020_1">
  <metadata id="CorelCorpID_0Corel-Layer"/>
  <rect class="fil0" x="1000" y="1000" width="27700" height="16982.04"/>
  <path class="fil1 str0" d="M1000 17982.04l19898.76 0 0 -42.15c-0.44,-13.31 6.67,-27.35 8.26,-36.38 9.23,-52.56 41.08,-108.51 87.65,-136.82 39.48,-24.01 72.24,-79.96 97.56,-117.84 34.57,-51.52 148.06,-117.12 156.68,-161.63 9.17,-47.39 -26.16,-36.96 -1.66,-123.46 26.2,-92.48 120.31,-67.77 162.05,-177.93 34.48,-90.98 26.93,-88.86 94.69,-163.85 54.9,-60.76 -29.09,-33.66 -46.58,-82.41 -26.84,-74.75 2.63,-154.88 27.98,-226.28 -0.52,-44.49 6.1,-88.32 18.05,-131.11 8.07,-28.91 11.44,-56.86 18.33,-83.22 10.28,-39.38 15.92,-75.66 25.21,-113.5 10.14,-41.33 9.06,-79.29 13.86,-119.27 3.74,-31.1 -0.78,-63.31 0.69,-95.23 2.03,-44.24 7.87,-95.55 8.2,-138.15 9.98,-58.74 2.03,-131.37 17.29,-190.17 10.22,-39.4 79.5,-68.57 114.17,-83.51 21.46,-9.25 57.62,-14.92 74.99,-23.98 29.14,-15.21 44.35,-11.62 71.79,-16.75 52.65,-9.85 130.13,-13.77 183.2,-27.9 84.67,-22.53 56.56,93.2 114.03,85.92 33.95,-4.29 60.39,-21.62 78.55,-49.97 11.46,-17.88 25.15,-83.5 25.64,-105.76 0.61,-28 -68.16,16.06 -99.65,-6.47 -16.69,-11.94 -41.42,-2.83 -63.55,-4.96 -39.59,-3.82 -37.85,-7.31 -64.47,-30.38 -7.29,-6.32 -24.19,-28.6 -28.86,-17.98 -2.09,4.75 -1.4,26.21 -7.51,43.75 -18.14,52.04 50.07,43.89 40.58,58.49 -10.59,16.29 -85.93,17.3 -111.01,20.95 -33.81,4.94 -58.03,14.04 -92.32,18.95 -37.39,5.35 -36.1,8.99 -67.66,21.98 -12.49,5.14 20.88,-45.44 22.25,-47.4 8,-11.41 13.97,-15.31 19.92,-22.6 9.45,-11.59 37.7,-21.08 40.3,-25.71 18.78,-33.53 4.48,-32.1 19.23,-62.01 2.26,-13.03 3.56,-21.75 9.92,-34.09 13.32,-25.85 28.32,-43.8 58.57,-37.63 30.12,6.15 -5.18,-70.99 -9.64,-80.82 -42.45,-93.37 -28.75,-139.92 -35.91,-236.92 -3.9,-52.82 3.68,-141.01 -3.92,-186.02l1.15 -10.53c2.88,-26.19 1.68,-70.32 6.29,-91.31 13.34,-60.74 8.76,-55.96 39.36,-113.56 6.35,-11.94 44.35,-70.71 22.51,-77.51 -31.11,-9.69 -47.79,9.29 -80.75,0.28 -57.9,-15.82 -73.57,-59.72 -62.84,-115.54 21.91,-114.02 66.83,-174.24 66.83,-297.94 -0.38,-30.34 7.21,-33.39 16.4,-57.95 11.43,-30.57 20.96,-40.84 33.43,-66.5 20.24,-41.7 54.63,-67.33 80.41,-103.29 40.14,-55.95 56.04,-73.6 58.35,-145.45 1.31,-40.72 19.55,-75.12 29.42,-114.9 7.24,-29.2 24.96,-37.78 -7.09,-37.78 -19,0 -31.59,-7.23 -40.87,-7.51 -21.64,-0.66 -23.7,-1.58 -48.5,-9.03 -41.6,-9 -82.49,-21.51 -124.5,-28.87 -47.31,-8.29 -65.45,-2.6 -109.71,-33.9 -60.14,-42.52 -133.29,-26.22 -199.33,-51.26 -38.08,-14.43 -52.78,-24.99 -75.58,-56.72 -15.23,-21.19 -59.61,-8.04 -77.13,3.05 -29.66,18.77 -89.64,48.32 -123.15,58.35 -27.01,8.09 -99.01,7.55 -111.86,14.41 -40,21.34 -74.87,123 -104.8,163.57 -7.11,12.47 -14.91,23.97 -18.26,38.11 -7.34,30.98 -19.69,64.75 -44.03,86.81 -48.18,43.66 -69.9,57.42 -129.32,83.92 -41.18,18.36 -120.26,89.06 -154.88,92.75 -51.63,5.5 -73.45,17.28 -120.14,31.98 -46.3,14.58 -68.47,28.32 -110.71,48.03 -52.26,24.37 -53.64,26.64 -108.81,18.31 -45.79,-6.92 -66.93,-2.54 -103.47,25.91 -56.16,28.08 -121.13,50.83 -184.64,51.33 -60.35,0.47 -53.86,-7.74 -103.86,-23.9 -33.46,-10.81 -112.08,25.59 -156.77,15.57 -32.52,-7.29 -65.19,49.06 -82.96,69.88 -17.64,20.66 -26.5,56.33 -50.16,64.2 -30.65,10.21 -74.08,25.77 -105.43,25.5 -47.86,-0.42 -107.7,12.79 -151.31,32.45 -47.64,21.49 -78.19,14.96 -121.19,27.15 -28.35,8.04 -45.68,11.76 -74.39,17.22 -44.66,8.49 -77.39,11.49 -119.42,31.49l-19.89 5.39c-122.93,33.28 -216.88,33.75 -334.75,-18.14 -30.31,-13.35 -62.83,-23.41 -91.09,-37.14 -24.09,-11.72 -40.73,-13.77 -63.67,-24.45 -32.79,-15.27 -85.86,-9.91 -118.28,3.99 -64.17,27.5 -74.17,33.38 -143.52,42.03 -44.3,5.52 -73.54,6.91 -118.05,16.74 -31.89,7.05 -56.07,-0.17 -80.42,24.6 -15.9,16.17 -23.91,19.35 -39.07,31.63 -50.36,40.78 -59.57,14.09 -97.02,39.4 -34.25,23.15 -29.77,45.11 -76.61,74.7 -21.01,10.5 -53.17,26.06 -75.38,32.11 -32.95,8.97 -103.11,8.71 -137.67,6.54 -37.3,-2.35 -68.72,-1.44 -105.47,-1.44 -38.44,0 -74.62,9.93 -110.33,7.23 -30.46,-2.31 -49.38,-1 -78.14,-1.44 -83.08,-1.27 -112.17,68.87 -185.5,22.18 -15.7,-10 -74.5,-56.85 -81.71,-60.22 -57.83,-27.02 -120.19,-53.39 -185.94,-46.92 -52.55,5.17 -75.12,2.06 -126.32,19.64l-12.34 5.03c-38.71,15.78 -78.09,38.74 -115.68,52.02 -19.08,6.74 -30.1,14.4 -45.95,21.28 -33.35,14.49 -96.52,47.25 -114.95,80.09 -16.73,29.81 -12.76,25.37 -35.63,51.4 -47.01,53.53 -66.33,33.36 -105.01,58.5 -42.11,27.36 -40.81,30.44 -91.49,42.36 -61.77,14.52 -76.08,47.13 -124.09,76.82 -22.08,13.65 -36.63,28.13 -57.67,42.45l-9.07 5.15c-50.64,28.76 -97.75,61.21 -148.79,88.21 -57.04,30.18 -134.34,95.18 -198.79,88 -69.7,-7.76 -74.86,6.1 -136.69,29.56 -63.89,24.25 -94.17,31.85 -159.93,13.15 -59.05,-16.78 -62.62,-42.18 -103.48,-78.12 -23.03,-20.25 -46.43,-67.93 -73.94,-71.53 -13.92,-1.82 -67.11,12.39 -84.41,16.46 -62.74,14.79 -82.26,11.93 -146.56,10 -45.72,2.98 -45.9,0.57 -86.81,-13.23 -31.28,-10.55 -59.62,-33.71 -81.67,-39.97 -42.47,-12.07 -38.83,-7.45 -76.8,-32.11 -39.87,-25.9 -51.25,-67.48 -105.91,-24.45 -30.4,23.94 -62.36,45.08 -92.6,68.13 -27.45,20.91 -45.47,23.29 -70.9,39.15 -23.08,14.38 -87.56,41 -99.36,57.12 -18.11,24.73 -34.69,43.93 -67.21,48.99 -37.55,5.86 -61.46,27.19 -95.98,41.56 -56.11,23.34 -75.44,9.42 -127.74,9.42 -21.88,0 -53.68,-10.39 -67.37,6.9 -29.48,37.22 -13.89,52.33 -59.54,95.63 -18.64,11.67 -43.25,31.31 -62.29,44.86 -49.99,35.55 -56.71,31.96 -109.88,54.15 -11.66,4.86 -87.32,20.5 -97.66,17.37 -15.66,-4.75 -36.27,10.47 -46.02,21.09 -27.62,30.08 -47.67,62.45 -88.47,75.85 -13.64,4.48 -107.93,13.72 -119.27,12.2 -34.57,-4.64 -69.03,-5.05 -103.97,-3.93l-2.96 0.07c-33.92,-0.69 -116.69,6.16 -149.27,15.86 -31.75,9.45 -65.75,15.57 -96.88,23.97 -88.3,23.83 -175.1,27.64 -263.65,3.31 -24.87,-6.83 -47.88,-17.81 -69.55,-23.5 -33.94,-8.93 -49.63,-22.83 -79.44,-33.76 -31.1,-11.41 -32.14,-15.91 -56.7,-29.56 -18.64,-10.36 -31.29,-23 -46.59,-32.24 -23.5,-14.19 -45.47,-36.53 -66.97,-51.55 -32.22,-22.51 -60.49,-50.31 -94.88,-69.38 -30.86,-28.44 -50.96,-48.88 -84.97,-75.6 -29.25,-22.99 -54.18,-38.58 -85.14,-58.49 -31.2,-20.07 -58.44,-42.4 -87.79,-63.67 -43.59,-31.58 -78.22,-74.84 -117.48,-107.13 -26.45,-21.75 -44,-54.38 -68.77,-73.12 -33.3,-25.18 -44.44,-46.12 -72.83,-74.48 -17.73,-17.72 -35.28,-48.42 -51.88,-66.01 -20.9,-22.15 -22.62,-32.72 -38.03,-55.33 -21.01,-30.81 -25.91,-50.1 -43.82,-80.2 -6.75,-11.71 -12.93,-24.27 -20.06,-35.62 -25.53,-40.64 -34.47,-79.69 -65.11,-116.31 -57.35,-68.54 -80.9,-93.16 -97.84,-184.4 -6.22,-33.44 7.8,-70.89 6.13,-89.84 -1.47,-16.7 -56.45,-10.51 -71.79,-12.05 -37.78,-3.79 -77.27,-22.57 -105.01,-48.35 -15.97,-14.86 -42.4,-49.33 -50.86,-69.28 -12.53,-29.55 -65.47,-12.16 -105.69,-41.74 -20.73,-15.25 -18.48,-20.46 -46.23,-36.59 -3.53,-7.52 -8.78,-15.68 -15.07,-21.15 -23.65,-20.54 -45.21,-62.49 -47.77,-94.21 -2.15,-26.65 -23.47,-20.31 -38.86,-6.87 -35.84,31.28 -67.08,28.06 -111.41,23.63 -21.51,-2.15 -45.55,1.04 -63.1,-0.83 -45.81,-4.88 -79.48,1.86 -123.72,1.86 -36.77,0 -143.21,8.09 -173.9,23.98 -25.08,12.99 -46.97,16 -73.25,31.63 -19.48,11.59 -40.6,12.59 -57.13,23.43 -10.86,7.13 -19.03,5.84 -19.89,6.34 -11.16,6.53 30.79,24.4 34.31,38.84 7.13,29.31 -25.63,20.15 -38.94,22.34 -19.49,3.23 -45.49,2.27 -65.79,2.27 -29.96,0 -62.99,-37.51 -81.93,-56.22 -5.1,-8.57 -13,-20.19 -19.49,-27.68 -11.68,-13.5 -35.36,-20.25 -30.05,-32.28 19,-43.01 94.1,-4.84 140.07,-21.07 31.46,-11.11 22.33,12.25 53.13,8.88 76.55,-8.38 63.66,-121.99 99.9,-171.96 22.95,-31.63 56.71,-71.8 91.5,-89.93 34.12,-17.79 45.05,-18.07 80.15,-25.36 42.51,-8.82 111.6,-2.8 146.43,-20.19 50.15,-25.04 54.14,-2.64 86.17,-11.51 33.55,-9.29 45.92,-14.56 64.1,-46.3 8.76,-12.35 24.85,-38.67 34.18,-47.48 25.36,-23.96 50.12,-70.09 77.7,-88.59 29.04,-19.48 78.45,-24.42 112.92,-26.81 12.66,-0.88 34.71,-4.08 45.17,-4.21 48.11,-0.6 39.5,-33.88 67.51,-28.25 35.43,7.11 68.14,-27.42 80.82,-56.84 10.81,-25.1 15.6,-48.07 19.71,-74.96 5.37,-35.15 6.2,-59.83 9.3,-94.54l-0.75 -7.84c-7.56,-51.39 -15.1,-103.14 -37.89,-150.28 -23.57,-48.73 -16.8,-80.51 -38.47,-122.61 -30.1,-58.48 -18.45,-86.35 -30.16,-141.57 -8.92,-42.11 -30.51,-20.94 -52.38,-13.66 -15.18,5.06 -47.11,-62.17 -57.19,-72.83 -26.6,-28.15 -36.47,-45.45 -55.18,-79.92 -20.65,-25.3 -39.45,-44.93 -55.12,-74.27 -14.69,-27.52 -30.38,-52.16 -45.21,-80.13 -15.18,-28.6 -54.55,-93.82 -58.22,-122.73 -13.46,-106.16 -54.3,-53.93 -101.98,-110.44 -13.81,-16.37 -12.24,-44.94 -28.32,-30.59 -28.06,25.04 -21.44,62.26 -32.79,84.45 -12.05,23.56 -55.34,12.91 -74.3,5.53 -39.31,-15.31 -56.16,-1.55 -87.98,-48.45 -20.77,-30.63 -36.85,10.65 -52.16,17.64 -24.7,11.27 -39.77,-18.48 -44.91,-37.96 -8.59,-32.6 -9.1,-84.83 -29.98,-111.84 -20.72,-26.82 -22.94,-47.75 -23.22,-83.22l0.97 -3.85c4.29,-14.36 20.38,-43.29 17.84,-57.96 -2.71,-15.65 -53.68,-28.06 -67.37,-30.04 -74.24,-10.72 -68.37,-33.47 -116.73,-76.21 -17.95,-15.86 -18.08,-19.95 -31.9,-35.96 -36.42,-42.21 -70.22,-37.42 -120.12,-37.42 -19.67,0 -66.64,-3.53 -82.55,-10.89 -53.33,-24.67 -55.47,-20.38 -72.47,-77.37 -10.58,-35.44 -9.18,-100 -19.63,-136.43 -16.15,-56.28 -10.34,-69.88 -40.52,-126.71 -17.88,-20.58 -17.9,-23.42 -31.14,-44.99 -29.74,-48.46 4.69,-61.12 -20.12,-100.54 -23.51,-37.35 -43.44,-35.3 -56.77,-63.59 -17.69,-37.56 -46.12,-18.15 -48.93,2.62 -1.68,12.43 22.71,75.51 -24.94,27.9 -7.96,-7.96 -27.56,-34.38 -33.08,-44.03 -28.8,-50.34 -89.87,-65.11 -110.65,-97.9 -25.85,-40.8 -42.24,-58.92 -76.21,-92.89 -35.73,-35.73 -38.78,-67.86 -71.11,-100.87 -13.29,-13.57 -84.45,-42.31 -106.04,-51.27 -31.59,-13.1 -61.24,-32.23 -89.92,-50.43l-4.2 -2.7c-34.75,-19.09 -35.75,-36.65 -79.03,-43.06 -21.21,-3.15 -49.15,1.72 -64.15,-6.27 -48.49,-25.82 -93.62,-64.72 -107.9,-119.41 -8.75,-33.56 -14.17,-43.97 -28.18,-74.2 -18.26,-39.42 -63.91,-53.11 -87.03,-99.22 -20.21,-40.32 -54.01,-68.25 -75.17,-103.29 -11.78,-19.51 -28.19,-29.94 -40.8,-44.03 -40.25,-44.97 -51.53,-62.6 -81.57,-115.55 -4.18,-7.2 -9.04,-13.55 -13.09,-20.67 -14.49,-25.5 -21.99,-29.05 -36.24,-50.22 -30.41,-45.22 -34.46,-54.78 -49.14,-106.14 -6.63,-23.21 -31.22,-56.84 -48.29,-73.64 -29.45,-28.99 -109.3,-84.63 -127.06,-109.28 -10.79,-14.97 -52.54,-42.49 -68.07,-59.8 -18.5,-20.61 -41.1,-33.46 -65.74,-45.76 -29.97,-14.96 -95.15,-21.98 -128.49,-21.49 -31.49,0.46 -45.8,-4.65 -74.09,-9.31 -17.55,-2.9 -46.25,-33.54 -59.6,-37.61 -33.95,-10.35 -52.96,-13.07 -90.05,-9.31 -27.09,0 -57.68,0.68 -84.2,-5.1 -38.65,-8.43 -57.44,-19.56 -64.7,-57.88 -5.45,-28.7 4.45,-67.93 2.34,-82.68 -5.92,-41.3 -49.24,-34.91 -69.32,-61.73 -25.46,-34 -60.88,-15.5 -71.1,-28.19 -25.54,-31.7 40.01,-78.01 -17.18,-80.34 -29.52,-1.21 -25.9,3.33 -55.8,-4.27 -46.91,-11.93 6.08,-77.93 -32.24,-64.22 -34.5,12.34 -54.55,39.25 -70.83,43.76 -12.3,3.41 -41.93,-4.09 -51.4,-13.3 -26.89,-26.17 -13.13,-16.02 -50.23,-6.27 -20.53,5.4 -41.64,39.02 -55.47,30.59 -14.05,-8.55 -28.07,3.81 -31.21,15.43 -6.83,25.35 -22.32,38.52 -47.55,45.76 -30.01,8.62 -50.14,14.2 -75.86,-7.65 -17.7,-15.04 -17.11,-15.47 -40.1,-31.91 -17.48,-15.1 -75.8,-49.84 -80.6,-65.15 -11.69,-37.28 -10.05,-34.11 -31.85,-67.14 -27.28,-41.32 -72.72,-39.76 -79.37,-83.77 -4,-26.5 -42.73,-73.94 -61.19,-92.32 -31.23,-31.1 25.86,-37.57 -4.96,-67 -35.25,-33.67 6.2,-82.98 34.17,-107.48 56.72,-49.71 21.43,-76.7 -35.96,-92.18 -15.38,-4.15 -64.65,-39.96 -74.28,-50.46 -38.01,-41.48 -73.89,-50.26 -116.98,-100.02 -30.18,-34.85 -17.31,-34.13 -20.41,-43.14 -31,-8.03 -91.45,104.82 -115.62,130.49 -21.45,22.8 -10.08,64.66 -3.73,95.63 15.39,75 -53.31,148 29.77,118.64 51.15,-18.07 16.85,80.2 24,106.83 5.79,21.6 -25.64,126.99 -55,131.86 -78.18,12.98 -94.4,-58.85 -115.61,-115.04 -25.02,-66.3 21.28,-110.65 -23.29,-168.53 -34.03,-44.2 -28.13,-90.73 -44.08,-147.18 -13.02,-46.07 -34,-65.45 -44.8,-94.02 -15.03,-39.76 -49.53,-74.59 -72.61,-107.34 -25.49,-36.17 -86.17,65.41 -116.76,23.71 -42.32,-57.71 -10.49,-142.61 -24.8,-165.07 -22.36,-35.13 -28.6,-84.62 -32.65,-126.11 -5.48,-18.22 -8.26,-26.87 -8.26,-46.44 0,-25.36 13.51,-40.06 8.83,-49.47 -17.85,-35.88 -104.56,-57.45 -154.22,-123.89 -42.82,-57.29 -29.92,-103.55 -53.48,-163.04 -31.61,-79.83 -75.99,-192.58 -82.4,-277.53 -4.12,-54.54 -15.04,-106.68 -33.5,-158.75 -8.79,-24.82 -7.22,-60.57 -11.43,-77.58 -8.75,-35.42 -0.39,-98.48 -7.84,-130.08 -11.47,-48.64 -65.61,-114.85 -54.15,-154.35 29.27,-100.87 16.18,-58.87 11.15,-169.9 -3.33,-9.5 -6.69,-18.66 -9.78,-28.21 -33.91,-104.64 -93.76,-213.52 -122.09,-313.1 -35.57,-125.08 -93.9,-309.78 -106.39,-435.91 -3.38,-34.12 -14.47,-67.77 -25.24,-100.3 -7.58,-22.92 -74.03,-164.45 -85.28,-177.65 -17.77,-20.86 -28.5,-64.28 -39.26,-89.29 -24.4,-56.7 -26.68,-89.16 -55.14,-147.04 -11.41,-15.59 -20.27,-33.65 -29.9,-50.46 -23.31,-40.67 -45.25,-64.79 -66.44,-99.31 -34.13,-55.62 -93.6,-116.46 -120.43,-164.42 -34.17,-61.09 -26.33,-108.74 -85.85,-159.74 -25.93,-22.23 -42.1,-56.36 -41.34,-91.48 1.56,-72.75 -28.84,-70.46 -34.72,-89.29 -5.88,-18.84 -34.51,16.96 -38.04,22.44 -22.08,34.3 -50.46,11.33 -75.64,-12.09 -13.67,-12.71 -47.02,-28.36 -51.41,-39.69 -17.22,-44.44 -41.62,-42.56 -41.62,-83.25 0,-49.04 -35.91,-35.46 -54.15,-16.11 -21.34,22.65 -59.44,-5.55 -64.49,-15.73 -13.59,-27.44 -41.27,-17.09 -35.29,-67.38 6.97,-58.64 -17.27,-54.99 -38.46,-11.58 -20.92,42.86 -79.1,30.39 -102.1,3.31 -27.59,-32.48 -79.09,-107.93 -84.34,-150.48 -3.3,-26.69 -15.34,-43.3 -4.25,-66.15 18.81,-38.79 35.19,-22.09 -17.11,-49.61 -6.79,-3.82 -13.45,-7.86 -20.26,-11.57 -137.96,-75.22 -87.19,-98.29 -171.99,-178.03 -47.52,-44.68 -80.16,-38.95 -134.32,-58.01 -86.56,-30.47 -82.2,-96.96 -138.24,-127.76 -92.72,-50.96 -125.66,-9.51 -207,-14.75 -118.71,-7.64 -145.79,-148.44 -189.17,-234.95 -43.9,-87.51 -18.09,-162.45 -46.3,-213.32 -65.23,-117.62 -68.12,-232.71 -91.52,-360.5l0.14 -3.74c-0.72,-14.49 -16.72,-116.51 -16.68,-116.98 0.79,-8.86 -18.58,-101.57 -19.98,-119.06 -2.61,-32.6 -37.08,-110.49 -61.47,-133.51 -24.24,-22.88 -22.53,-58.91 -29.77,-76.5 -10.84,-26.32 1.22,-121.57 16.39,-134.52 32.04,-27.34 13.99,-187.7 -3.31,-224.32 -12.97,-27.47 -8.35,-29.61 -29.19,-69.46 -15.78,-31.42 -54.4,-127.07 -56.09,-161.77 -1.11,-22.94 -0.84,-51.17 21.5,-66.01 41.14,-27.31 21.08,-196.12 -0.71,-236.89 -6.84,-12.81 -8.79,-185.44 -3.16,-198.44 36.45,-84.27 -34.01,-89.73 -20.79,-120.71 14.15,-33.15 45.53,13.66 59.25,-39.69 7.68,-29.88 5.71,-45.41 14.88,-83.52 -1.2,-4.67 -5.35,-28.26 -5.79,-33.14 -1.54,-17.09 -40.1,-132.67 -48.99,-150.2 -8.7,-17.14 -12.75,-34.92 -18.53,-52.52 -14.49,-44.14 -11.03,-110.64 -11.03,-157.5 0,-47.04 -3.31,-73.83 -11.36,-119.21 -3.34,-18.82 -12.28,-58.12 -18.61,-75.38 -10.45,-28.49 -16.39,-21.69 -21.29,-56.79l-2185.51 0 0 16982.04zm5030.78 -16982.04c17.07,36.61 19.03,25.24 28.11,41.19 17.31,30.39 8.7,45.83 49.68,58.16 17.12,5.15 34.7,18.74 40.44,36.52 24.28,75.12 60.11,24.98 80.75,88.59 14.44,44.51 55.27,43.68 71.68,72.22 25.02,43.53 28.98,46.33 34.65,97.85 4.64,42.07 46.51,53.62 63.24,89.98 15.22,33.07 29.22,61.25 54.69,88.04l2.58 3.05c26.26,32.88 25,45.23 44.1,77.19 16.56,27.71 22.59,42.91 43.26,69.99 23.73,31.08 21.33,39.38 54.85,70.21 19.39,17.83 29.3,25.67 46.92,46.44 17.73,20.92 53.51,37.54 75.24,60.08 10.04,10.42 84.84,65.62 99.01,74.49 13.48,8.45 66.85,42.29 79.61,41.55 32.07,-1.85 43.63,-28.45 73.71,7.65 19.68,23.62 46.1,-0.73 78.19,-2.76 58.07,-3.67 86.15,-7.73 126.51,41.06 8.91,10.77 13.12,23.88 27.09,39.64 15.61,17.6 19.18,21.16 38.65,34.23 23.62,4.05 40.35,5.58 62.84,6.54 26.92,1.14 19.5,31.72 38.65,51.88 11.7,12.33 19.1,33.22 38.53,44.93 12.05,7.27 28.05,33.24 47.25,46.99 28.89,20.69 37.47,25.19 71.18,37.21 17.16,6.12 62.63,29.94 75.93,42.31 32.7,30.42 39.03,33.51 78.21,57.26 9.78,5.93 68.69,48.77 71.8,54.5 20.65,38.09 -11.4,51.27 32.53,84.89 37.33,28.55 31.95,33.3 44.72,73.79 1.55,4.92 3.22,8.63 5.57,13.16 28.1,30.32 24.19,30.62 43.5,61.8 38.84,62.76 24.46,-13.47 90.45,4.21 24.92,6.67 52.52,-35.36 92.67,36.52 21.83,39.07 40.02,53.5 50.01,102.17 8.19,39.87 9.97,70.33 -4.18,110.04 -11.1,31.17 9.05,55.52 38.65,64.85 29.68,9.36 55.82,29.92 88.69,41.27 25.74,8.9 71.78,33.94 82.33,61.12 12.24,31.55 -6.03,77.48 -5.03,115.83 -8.81,82.21 5.21,71.38 55.18,120.1 14.8,14.43 22.89,30.37 42.38,45.88 55.24,43.95 21.53,135.87 37.83,194.52 22.34,80.36 110.71,72.01 139.04,130.78 32.27,66.95 -38.84,98.5 -22.25,143.37 2.76,7.46 3.8,9.43 4.13,17.72 12.46,70.82 7.54,104.97 84.95,130.92 23.01,7.72 50.12,-6.35 38.8,31.89 -6.06,20.44 -3.22,41.49 -12.19,69.13 -6.12,18.85 -8.72,34.31 -16.54,55.11 -30.87,82.13 40.13,80.01 50.3,151.43 6.94,48.78 33.02,93.24 87.73,92.35 35.08,-0.57 63.04,22.2 84.67,47.06 7.8,8.96 21.88,22.06 32.04,28.18 25.77,28.15 27.7,47.43 38.86,82.47 14.92,46.85 16.64,116.15 27.49,165.37 13.61,61.67 61.52,67.51 67.59,148.07 3.95,52.48 14.15,59.83 40.84,99.55 21.59,32.11 31.28,47.57 49.71,82.1 9.81,18.36 36.62,52.56 49.94,70.89 4.88,6.72 11.12,16.42 16.61,22.11 37,38.81 26.63,39.91 42.1,84.62 15.72,45.46 76.04,92.09 109.21,127.95 14.95,16.16 42.28,27.75 59.32,50.55 19.63,26.29 63.33,52.99 91.17,75.6 36.05,29.27 83.78,54.44 123.62,80.3 25.08,16.28 82.65,62.91 105.39,83.46 46.8,42.29 80.37,73.42 132.78,109.99 18.97,13.23 30.97,34.68 46.66,51.48 28.72,22.38 52.54,57.6 77.79,78.76 8.71,7.3 30.85,42.31 47.89,55.8 32.25,25.54 33.77,34.86 77.3,49.82 20.56,7.07 17.28,36.33 20.06,55 6.1,41.09 11.48,102.05 13.37,143.44 1.52,33.13 4.37,66.74 5.78,100.26 0.84,19.99 9.47,46.23 14.13,65.94 13.36,40.45 15.48,70.3 18.12,111.62 0.84,13.12 19.09,47.45 19.09,-9.1 0,-26.62 8.09,-52.8 7.44,-77.79 -0.13,-5.08 3.71,-28.1 12.61,-7.65 14.17,32.55 47.06,-17.17 37.21,35.01 -7.86,41.68 -1.61,69.87 22.94,103.97 18.56,25.78 44.93,25.26 68.63,42.16 40.75,29.08 106.78,-1.56 81.1,98.66 -10.36,40.41 20.82,52.21 1.79,84.76 -10.62,18.16 -8.56,56.96 13.64,68.3 48.35,24.69 35.41,39.56 69.16,64.75 33.31,24.85 57.25,17.62 92.14,63.47 16.17,21.27 28.16,49.8 39,74.21 30.99,68.56 25.75,99.18 15.09,169.5 -4.55,30.04 -5.55,82.56 10.47,108.79 15.01,24.55 57.23,48.59 42.57,81.81 -11.39,25.83 -0.29,98.98 13.45,121.66 39.51,65.23 31.55,30.02 44.31,108.34 3.42,20.98 6.47,64.23 7.23,85.42 0.3,39.12 8.1,56.55 16.33,92.54 3.2,13.99 0.11,98.79 0.97,119.96 1.09,26.69 0.81,73.11 5.64,97.5 3.36,16.96 -1.28,116.17 -5.29,133.4 -11.48,49.42 -20.4,83.54 -54.51,123.24 -17.7,20.61 -33.74,48.01 -52.39,70.81 -3.19,3.9 -6.17,7.56 -9.14,11.62 -16.72,24.59 -22.83,41.45 -51.05,53.13 -28.75,11.89 7.94,46.42 7.23,73.09 -0.27,10.14 3.93,19.34 0.21,33.57 -8.11,31.07 17.15,42 17.15,75.64 0,20.73 -15.23,58.2 5.29,61.26 11.14,1.66 38.8,-18.04 46.18,26.2 8.27,49.5 9.69,64.35 30.46,111.77 13.4,30.59 -10.66,79.11 17.9,124.14 11.4,17.97 23.37,48.62 23.37,69.59 -4.78,23.96 -4.22,37.09 -7.65,56.98 -1,5.78 -15.98,65.49 -24.81,51.34 -14.7,-23.55 -14.69,-51.36 -44.65,-50.44 -26.83,0.82 -63.9,-48.8 -80.06,-66.22 -10.02,-10.79 -15.1,1.45 -12.05,15.92 5.55,26.29 9.71,99.78 -35.22,87.72 -6.56,-1.76 -67.6,-7.16 -63.32,2.13 2.97,0.61 24,44.31 26.32,51.4 7.93,24.14 15.92,61.3 38.86,16.33 19.63,-38.46 67.51,-51.49 98.94,-19.35 14.38,14.7 94.61,28.86 130.57,57.93 22.3,18.02 43.12,55.25 47.69,83.74 8.37,52.14 -2.21,77.49 26.25,131.8 21.04,40.13 74.21,72.47 82.69,124.78 8.03,34.37 5.9,28.66 4.06,57.05 -3.01,46.42 -30.68,92.54 -0.76,139.95 9.7,15.36 28.61,51.68 28.87,69.1 0.37,25.23 2.27,48.76 1.73,75.17 -0.65,31.94 35.43,111.9 42.37,151.55 4.7,26.82 10.92,52.33 10.54,80.11 -0.09,6.62 0.3,8.15 0.83,14.12 -0.5,25.79 -4.48,41.5 -4.96,66.76 -0.44,22.99 12.34,112.55 19.84,133.34 9.94,27.51 10.56,50.66 25.42,82.68 27.61,59.47 46.3,126.54 65.82,189.16 12.79,41.04 19.6,68.32 37.35,109.28 3.7,8.54 5.91,16.53 9.49,24.85 12.47,45.04 4.83,46.01 28.73,90.34 20.09,37.27 15.29,41.84 44.93,80.2 14.42,18.67 47.77,47.46 58.57,68.42 13.2,25.63 20.57,39.61 23.84,69.87 5.72,52.96 1.99,56.32 23.64,107.85 9.61,22.87 19.02,50.64 28.73,74.74 20.69,51.35 22.11,92.2 9.02,146.07 -28.66,46.03 -27.04,85.09 -38.31,135.31 -4.65,20.71 -13.34,109.32 -12.95,130.72 0.69,37.55 -15.77,90.29 -14.88,123.55 0.75,27.86 -1.86,24.49 3.92,54.71 11.3,59.11 37.35,138.26 75.02,185.12 15.12,18.8 35,49.73 44.25,71.75 15.24,23.23 21.2,39.42 38.58,63.59 12.77,17.77 71.53,124.44 79.59,144.34 12.16,30.07 28.89,58.74 51.33,82.21 44.61,46.64 49.93,92.65 33.69,152.69 -10.67,39.43 -47.12,105.29 16.42,120.52 38.07,9.13 36.31,-9.87 58.21,-35.29 58.2,-67.56 81.27,-75.09 167.99,-50.01 57.97,16.77 120.39,47.17 177.44,68.22 14.87,5.49 25.23,7.31 40.7,9.36 56.4,6.17 64.19,14.62 106.12,48.78 26.03,21.21 18.18,47.73 75.17,56.44 35.71,5.46 58.95,-7.54 94.9,-11.1 28.12,-2.79 94.58,-25.13 123.22,-35.13 18.41,-6.44 32.94,-13.36 52.85,-17.65 35.29,-7.61 38.14,-18.64 46.94,16.33 6.5,25.88 36.65,4.7 56.98,-0.34 39.79,-9.86 73.13,-13.15 113.03,-24.33 36.71,-10.28 63.75,-25.81 100.24,-37.96 43.13,-14.37 91.22,-94.27 134.71,-124.78 41.72,-29.28 43.34,-24.67 88.54,-44.01 5.85,-2.51 19.39,-5.82 25.96,-7.33 38.75,-2.31 43.31,-0.56 76.07,0.9 48.24,2.15 37.01,-6.03 81.45,20.67 17.91,10.76 12.32,59.72 59.18,25.7 14.49,-10.52 34.53,-17.41 49.76,-5.93 16.96,12.8 23.94,14.23 42.3,31.28 8.05,7.47 53.9,30.78 65.44,27.64 49.68,-13.49 -11.68,-48.09 43.14,-87.43 27.1,-19.45 52.11,-15.94 83.3,-19.44 21.01,-2.36 37.52,-15.69 49.14,-14.13 18.44,2.48 -3.64,38.27 -13.16,47.27 -14.73,13.93 -12.86,23.91 8.81,23.91 29.54,0 22.34,2.97 46.08,8.13 28.23,6.13 21.99,-29.95 16.97,-45.13 -10.1,-30.52 25.51,-64.07 37.82,-87.92 8.86,-17.16 23.32,-36.73 31.78,-56.3 33.54,-77.59 71.61,-116.02 151.43,-147.65 33.04,-13.09 66.06,-14.65 101.55,-28.25 18.07,-6.92 38.71,-13.44 56.18,-20.74 0.16,-0.02 48.47,-3.65 52.31,-5.18 17.33,-6.91 48.61,-39.43 63.8,-52.99 13.56,-12.09 61.78,-73.99 74.53,-91.21 12.97,-17.5 25.74,-31.37 39.2,-50.7 30.73,-44.11 57.39,-70.32 91.52,-109.35 23.44,-26.81 21.06,-26.4 52.16,-47.15 42.98,-28.68 57.72,-56.06 118.78,-65.39 51.25,-7.84 94.91,-14.98 146.04,-26.11 106.29,-23.13 198.51,-33.74 306.73,-42.24 14.11,-1.11 28.23,-2.46 42.17,-4.96 33.5,-9.62 69.83,-18.48 103.95,-27.9 34.15,-9.43 61.65,-10.01 96.08,-4.55 16.34,2.59 43,0.97 63.87,3.3 27.99,3.13 51.46,6.42 78.6,14.96 45.15,14.18 254.03,-9.5 307.11,-18.81 43.79,-7.68 90.89,-15.25 133.19,1.37 46.32,18.19 128.58,-13.32 168.06,-38.65 27.81,-17.84 45.84,-31.99 71.94,-50.44 22.58,-15.96 42.42,-28.45 66.83,-41.55l9.24 -5.58c55.57,-24.49 86.24,-34.76 146.53,-46.3 57.92,-11.09 105.99,-19.21 163.53,-34.73 27.47,-7.4 50.86,-9.14 80.41,-18.19 23.52,-7.19 36.78,-7.5 62.61,-18.51 29.59,-12.63 55.05,-11.46 86.23,-26.82 75.39,-37.15 70.84,-1.11 136.35,-19.3 56.07,-15.56 106.53,-96.2 152.75,-133.81 37.33,-30.36 73.91,-58.5 111.34,-88.26 42.09,-33.45 60.38,-61.33 93.93,-98.6 4.7,-5.23 7.38,-7.63 13.09,-11.58 62.2,-34.35 102.24,-28.78 155.8,-53.95 47.33,-22.25 50.33,-17.03 97.3,-51.69 46.44,-34.26 90.78,-71.01 135.3,-107.68 25.19,-20.76 83.96,-14.36 113.63,-1.58 40.53,17.45 49.93,27.79 96.67,38.72 36.18,8.45 46.87,10.81 73.72,35.41 45.02,41.23 69.63,-2.72 123.82,-3.85 50.58,-1.06 69.51,-20.47 116.47,-29.01 29.63,-5.39 43.34,-7.9 74.53,-9.1 41.96,2.81 26.79,8.16 47.13,10.75 43.44,5.52 49.65,-22.32 101.7,-22.32 31.07,0 65.84,-2.15 94.65,-13.85 42.57,-17.28 78.85,-11.58 111.66,-24.19 28.75,-11.05 30.63,-16.67 54.64,-36.52 29.85,-24.68 32.4,-27.55 57.71,-55.26 10.57,-11.56 86.58,-66.63 99.72,-73.72 35.2,-19.01 40.34,-32.44 54.5,-66.69 9.8,-23.74 24.31,-34.52 45.5,-45.98 19.48,-10.53 51.12,-35.3 54.4,-58.28 6.18,-43.27 39.94,-6.53 48.31,-78.97 1.42,-12.28 7.04,-29.71 14.74,-39.34 17.58,-36 45.91,-66.3 67.19,-100.25 18.73,-29.88 69.8,-105.74 112.03,-70.9 18.52,15.29 30.33,15.65 53.15,2.48 25.51,-14.72 31.87,-25.63 32.98,-52.49 1.32,-32.11 53.75,-50.78 74.55,-67.33 36.07,-28.69 102.41,-65.02 146.28,-78.08 30.12,-8.96 87.63,-23.03 112.61,-34.86 22.73,-10.77 45.87,-17.45 66.82,-27.69 55.76,-11.65 106.11,-47.07 160.82,-63.06 27.22,-7.95 37.41,-14.22 68.47,-17.69 16.68,-1.86 45.79,-10.23 65.96,-13.51 50.57,-8.24 107.17,-34.54 155.16,-38.58 69.31,-5.83 145.76,-45.46 212.35,-68.7 43.45,-15.16 40.1,37.66 94.36,18.05 33.22,-12 63.29,-23.1 99.48,-15.78 64.68,0 40.96,-5.93 78.43,-43.28 20.68,-20.62 49.15,-33.81 77.44,-38.86 49.62,-8.86 98.75,-30.61 132.9,-68.34 22.2,-24.52 84.09,-78.01 113.75,-90.81 60.24,-26.02 87.51,-27.96 150.93,-37 39.22,-5.58 89.25,-22.71 130.67,-31.16 87.79,-17.93 174.21,-35.27 263.24,-46.02 43.88,-5.3 97.47,-20.65 140.75,-31.49 42.53,-19.12 76.3,-21.08 121.47,-39.9 28.21,-11.76 48.92,-16.92 77.16,-26.03 37.77,-12.19 59.31,-22.98 101.51,-25.85 30.51,-2.08 37.47,-0.57 69.48,-6.68 43,-8.21 51.65,-3 92.94,-23.3 22.76,-11.19 41.18,-14.07 67.01,-29.13 15.67,-9.13 56.87,-24.47 76.36,-33.63 40.75,-19.16 76.11,-35.02 116.79,-55.88 53.17,-27.25 92.85,-38.16 151.43,-42.92 35.3,-2.87 48.67,-7.19 52.94,-40.87 7.62,-60.08 83.42,-88.42 132.11,-110.32l8.24 -3.71c23.88,-19.47 56.81,-41.95 88.07,-25.63 29.06,15.17 43.97,-23.71 61.64,-41.39 29.2,-29.22 75.16,-37 112.54,-53.63 37.24,-16.56 71.41,-24.91 108.32,-41.69 18.28,-8.31 37.85,-12.84 57.92,-22.45 54.44,-26.06 103.93,-45.64 162.49,-59.88 98.6,-23.98 25.04,-59.26 11.86,-107.2 -10.32,-37.54 -7.94,-41.3 -8.34,-79.1 -0.2,-19.43 4.91,-36.03 3.09,-59.06 -1.22,-15.41 -1.56,-23.56 -4.75,-39.14 -17.23,-59.15 -23.2,-25.7 -49.61,-49.26 -13.14,-11.72 4.71,-31.77 1.45,-56.32 -2.65,-19.88 -3.08,-29.24 -8.06,-49.4 -7.26,-29.39 -0.85,-96.9 8.2,-126.29 9.26,-30.08 15.4,-33.35 28.25,-57.95 40.26,-77.08 56.75,-162.15 98.6,-234.7 4.52,-7.84 9.39,-22.56 12.95,-28.02 44.31,-44.29 86.4,-87.96 129.68,-132.98 17.2,-17.89 39.48,-29.06 60.71,-50.86 47.57,-48.88 147.99,-86.08 210.63,-112.85 47.28,-20.2 105.87,-35.92 155.6,-55.68 59.53,-23.66 116.52,-52.64 177.07,-75.93 30.13,-11.59 59.86,-24.14 89.01,-38.03 54.88,-21.06 93.7,-43.5 154.06,-60.29 61.01,-16.98 125.42,-28.79 185.56,-47.96 54.68,-17.42 108.28,-37.74 160.55,-61.54 66.96,-30.5 103.29,-19.66 167.28,-34.58 48.11,-11.23 94.86,-27.03 143.75,-34.66 40.81,-6.37 72.17,13.84 139.36,0.14 20.7,-4.22 53.5,-13.44 73.89,-19.91 39.09,-26.16 52.04,-43.8 85.92,-73.59 23.48,-20.64 37.08,-35 58.78,-56.3 34.35,-33.73 94.37,-46.23 141.08,-46.23 49.81,0 144.85,6.04 175.24,-42.29 39.5,-62.83 54.58,-48.02 109.85,-83.89 32.78,-21.27 56.01,-13.11 91.76,-20.78 86.88,-18.64 180.35,-27.65 268.76,-33.79 43.73,-3.03 80.98,-6.09 125.3,-7.15 15.03,-0.37 29.66,-1.15 44.65,-2.27 60.34,5.97 97.06,4.59 157.1,20.46 28.46,7.52 97.04,2.5 110.25,15.71 32.75,32.77 19.36,53.22 72.46,54.71 53.04,1.49 62.68,44.07 138.01,26.81 34.63,-7.93 58.15,-21.45 93.78,-23.43 46.32,-2.58 45.26,-27.78 85.81,-47.06 51.9,-24.68 32.7,12.66 94.26,-18.4 66.65,-33.63 77.1,-104.39 150.69,-151.6 27.24,-17.47 43.81,-33.35 60.15,-61.12 20.89,-35.48 72.19,-51.04 79.59,-100.04 7.51,-49.68 -21.84,-43.82 15.47,-91.4l3.26 -4.16c26.33,-36.3 48.8,-107.94 27.79,-151.71 -12,-24.99 -38.03,-43.24 -60.65,-57.19 -28.39,-17.52 -32.13,-79.09 -20.06,-107.64 16.26,-38.42 67.1,-126 101.16,-148.9 21.4,-14.38 33.62,-18.95 58.7,-25.08 31.71,-7.76 32.14,-81.65 37.76,-100.67 24.54,-28.39 13.35,-21.39 39.62,-37.13 19.5,-11.69 15.12,-42.08 32.24,-67.19 26.49,-38.83 72.79,-52.17 114.15,-70.39 24.48,-10.79 59.24,-23.34 85,-32.28 50.09,-17.38 169.78,-27.48 226.01,-35.27 61.5,-8.51 109.54,-9.19 170.23,3.85 81.65,17.54 123.68,-30.32 203.81,-39.4 9.57,-1.08 19.84,-2.83 29.36,-3.31 40.4,-6.42 36.82,-2.88 71.18,-1.58 36.73,1.39 79.66,-11.65 118.17,-11.65l54.47 0 0 -4329.43 -22669.22 0zm-2685.51 323.35c3.17,-25.56 0.74,-37.79 3.52,-61.37 1.19,-10.11 4.95,-46.3 11.36,-51.97 8.48,-7.5 23.37,0.9 20.88,22.06 -3.32,28.23 -2.55,50.03 4.96,77.08 5.62,20.2 -19.37,51.07 -30.8,37.36l-9.92 -23.16zm3697.56 6706.38c-19.53,-4.41 -28.94,-1.88 -31.35,-22.39 -1.15,-9.86 -1.78,-7.43 0.75,-17.29 3.44,-0.79 -0.45,-5.79 17.44,-5.79 12.03,0 20.76,-11.15 35.55,-9.92 16.02,1.33 29.15,-15.95 23.29,-34.94 -4.29,-13.91 8.84,-48.22 21.08,-27.9 8.86,14.72 69.51,-1.94 41.55,33.21 -22.36,28.12 -35.29,26.14 -18.4,67.52 1.4,3.45 34.92,52.7 10.27,51.48 -14.15,-0.7 -22.26,-17.96 -48.71,-19.02 -6.69,-0.27 -18.12,-5.83 -18.4,-5.86l-33.07 -9.1zm181.07 -34.72c-2.05,-1.68 -31.36,-23.11 -19.01,-33.15 15.71,-12.78 29.46,5.42 44.03,6.62 18.75,1.54 28.66,32.32 -2.15,32.32 -1.56,0 -3.12,0 -4.68,0l-18.19 -5.79zm-15.71 -81.03c-28.46,-30.55 -13.08,-20.52 -10.68,-51.34 0.59,-7.6 -1.21,-10.97 14.06,-7.37 13.37,3.15 9.98,23.59 24.74,37.21 10.44,9.63 -1.39,34.73 -14.89,34.73l-13.23 -13.23zm35.56 -93.43c-7.58,-14.13 -24.63,-42.82 -0.62,-50.23 16.01,-4.93 64.74,39.88 13.02,56.84l-12.4 -6.61zm-382.83 -229.04c-14.53,-7.75 -25.68,-11.37 -23.15,-29.76 4.11,-29.86 93.83,4.46 60.36,30.59 -4.96,3.87 -12.14,3.79 -17.36,6.61l-19.85 -7.44zm348.1 -272.03c-28.22,3.91 -24.92,6.01 -32.86,-11.57 -4.58,-10.14 60.45,-37.79 80.06,-21.43 9.54,7.96 20.21,10.8 -2.83,23.98 -3.51,2.01 -11.11,4.65 -14.6,6.54l-29.77 2.48zm300.97 1210.49c-16.55,0.57 -55.02,-11.15 -55.47,-32.25 -0.89,-41.48 -30.58,-29 -58.02,-24.59 -32.15,5.17 -19.37,-0.72 -37,-2.69 -30.77,-3.43 -32.29,1.18 -33.07,23.98 -0.52,15.14 40.78,2.07 57.34,8.81 12.12,4.93 -27.95,28.53 -29.23,29.01 -7.31,2.73 -6.57,8.1 -11.5,19.27 -10.24,23.17 -47.97,13.22 -60.22,3.55 -25.07,-19.8 -57.97,-9.17 -57.26,-47.96 0.6,-32.7 -10.61,-70.16 -27.98,-97.42 -12.39,-19.46 -15.17,-57.72 -8.12,-78.76 11.48,-34.24 -25.38,-3.1 -30.88,3.3 -23.84,27.77 -41.24,-64.13 -42.99,-74.84 -4.63,-28.39 -44.27,-48.84 -71.32,-47.74 -14.99,0.61 -52.32,-24.05 -64.28,-17.64 -15.39,8.24 9.19,22.01 13.23,25.08 23.71,11 68.53,25.08 82.68,50.83 7.67,13.97 5.7,18.53 -13.92,24.2 -19.83,5.73 -60.36,-1.95 -64.49,27.43 -2.15,15.34 75.29,16.44 7.09,39.21 -16.4,5.48 -48.87,-30.13 -66.07,-5.03 -6.57,9.57 3.59,20.83 -2.62,39.48 -3.7,11.09 -1.9,46.36 12.82,37.2 14.16,-8.81 51.64,-30.59 67.66,-28.94 20.06,2.07 39.71,13.87 43.13,34.33 6.65,39.67 52.81,75.11 44.79,96.31 -7.86,20.79 -44.19,-23.73 -58.96,-27.07 -51.54,-11.63 -32.83,-8.46 -72.36,-38.1 -30.93,-23.21 -10.48,36.18 -7.87,47.38 18.05,77.52 28.49,45.98 79.95,59.96 26.08,7.09 36.62,65.77 88.45,33.43 29.83,-18.62 38.78,-16.71 73.68,-10.89 47.07,7.86 23.15,21.64 91.9,15.71 36.95,-3.19 90.34,4.24 123.67,21.35 35.41,18.19 42.98,-1.86 79.73,4.69 16.58,2.95 61.25,-5.55 61.25,-27.29 0,-14.76 -13.84,-56.91 -25.42,-66.34 -3.76,-3.06 -5.66,-6.03 -9.3,-8.69l-19.02 -8.27zm-246.4 -28.94c-27.77,0.11 -35.97,-1.01 -19.91,-18.05 27.51,-29.19 -6.06,-68.3 44.17,-69.59 20.36,-0.52 5.34,34.12 9.43,53.25 2.59,12.15 -4.87,19.73 -11.36,26.95l-22.33 7.44zm77.72 758.21c-12.53,-19.25 -14.65,-24.25 -10.53,-45.26 3.6,-18.35 33.68,-66.47 53.53,-68.92 10.81,-1.34 6.45,35.65 2.48,44.51 -14.14,31.58 -2.2,28.25 -0.83,60.57 0.33,7.77 -14.13,20.67 -24.8,20.67l-19.85 -11.57zm92.61 180.25c-9.86,7.12 -48.91,38.87 -63.74,19.91 -11.93,-15.25 40.26,-52.87 32.53,-73.73 -1.76,-4.76 11.41,-42.79 38.04,-32.72 30.25,11.45 34.18,4.33 31.27,43.33 -0.77,10.29 -14.94,30.73 -21.56,39.07l-16.54 4.14zm-90.95 -323.29c-27.31,-5.89 -24.97,-1.65 -19.64,-23.37 5.35,-21.77 29.91,-26.33 48.86,-19.91 25.73,8.7 -0.58,45.73 -16.82,44.93l-12.4 -1.65zm1779.73 -2249.39c-5.11,-16.09 -25.3,-63.81 -6.62,-76.28 21.82,-14.58 27.48,34.87 38.93,47.34 3.83,4.16 29.34,58.15 23.7,65.25 -17.71,22.26 -32.43,-10.57 -34.52,-12.34l-21.49 -23.97zm124.85 -80.21c-43.51,-37.14 -18.98,-37.61 -7.16,-78.33 8.66,-29.82 22.01,-16.11 39.47,-4.14 0.12,0.08 10.4,18.24 22.87,27.07 13.38,9.47 15.68,28.49 3.52,39.69 -10.84,9.99 -14.67,22.33 -37.2,22.33l-21.5 -6.62zm112.45 272.03c-23.76,-8.41 -49.31,-18.61 -18.19,-37.21 6.24,-3.73 31.23,-2.25 40.51,-2.48 9.19,-0.23 52.92,22.1 52.92,40.52 0,28.18 -51.59,15.67 -54.57,13.23l-20.67 -14.06zm85.99 -148c-1.21,-0.35 -41.09,-8.32 -44.03,-13.23 -13,-21.7 -8.73,-40.35 -26.04,-64.49 -14.69,-20.5 -23.32,-75.61 32.03,-19.02 46.39,47.42 72.86,8.46 89.51,106.66 6.93,40.88 20.39,42.99 48.03,69.24 7.83,7.43 33.31,17.63 43.96,14.82 37.33,-9.88 51.57,3.07 70.9,-1.59 10.32,-2.49 33.71,-27.07 11.91,-41.13 -38.88,-25.07 -21.93,-26.28 -73.31,-39.07 -15.48,-3.86 -47.49,-23.22 -55.61,-38.03 -1.79,-3.26 -26.1,-45.03 -26.46,-45.27 -10.98,-7.44 -37.12,-33.09 -28.18,-49.33 13.86,-25.17 42.78,-29.7 65.25,-51.26 8.23,-7.9 47.01,-42.2 51.9,-15.59 7.49,40.75 1.75,44.99 34.51,76.56 13.23,12.75 11.25,26.21 -5.24,34.87 -30.78,16.17 -34.15,48.19 3.99,59.04 7.67,2.17 42.03,26.86 46.04,34.11 3.68,6.63 16.55,19.26 17.23,32.64 1.96,38.5 -14.96,41.03 34.44,62.24 11.96,5.13 19.17,33.46 56.32,6.54 14.87,-10.77 3.81,-20.32 -12.61,-20.32 -39.91,0 -27.37,-34.69 -14.34,-57.26 14.03,-24.31 8.26,-86.88 43.61,-24.88 34.44,60.41 -1.51,49.9 66.42,89.3 17.18,9.96 8.03,20.17 39.41,11.86 42.71,-11.31 17.7,11.36 18.19,43.75 0.36,23.4 -4.82,23.76 5.03,48.85 11.77,29.98 -13.26,75.71 -12.47,91.78 -1.98,1.75 -7.84,-24.24 -35.91,-27 -68.06,-6.69 -89.62,7.19 -58.7,-63.31 5.28,-12.04 7.01,-40.59 -17.01,-33.71 -40.19,11.5 -27.67,-55.51 -101.98,-14.27 -11.44,6.35 -59.28,20.36 -70.43,16.6 -12.71,-4.28 -43.66,-30.43 -56.95,-40.63 -25.88,-19.85 -15.44,-15.88 -47.42,-27.85 -18.26,-6.84 -25.06,-12.25 -40.87,-22.04 -25.89,-16.03 -16.77,-1.78 -33.21,-34.11 -3.78,-7.43 -11.68,-23.02 -13.78,-30.67l-4.13 -24.8zm263.76 254.66c-22.19,-1.73 -29.9,0.78 -18.19,-18.58 24.85,-41.08 77.93,-9.74 28.53,18.58 -1.91,1.1 -1.32,1.39 -2.9,1.66l-7.44 -1.66zm50.44 138.08c-19.57,-11.2 -24.48,-12.71 -24.81,-33.9 -0.67,-43.43 69.93,1.99 43.82,28.12 -2.67,2.67 -8.06,4.3 -11.57,4.13l-7.44 1.65zm342.3 337.35c-21.78,-10.61 -24.88,-8.16 -12.4,-26.32 18.97,-27.59 77.17,-10.91 43.82,23.84 -3.99,4.17 -11.81,5.79 -17.36,5.79l-14.06 -3.31zm338.59 1385.34c-72.54,-27.16 9.28,-22.62 -0.61,-77.65 -3.09,-17.22 -13.54,-52.19 -4.35,-66.5 10.69,-16.64 32.8,-26.28 47.96,-54.36 13.71,-25.39 62.44,-34.28 7.23,25.09 -4.14,4.45 -26.71,36.51 -4.13,33.48 8.54,-1.15 34.15,-8.44 36.87,-8.13 12.76,1.47 -14.78,80.89 -15.99,90.62 -2.3,18.54 -13.8,33.81 -14.95,57.24 -0.88,17.8 -18.74,27.67 -37,12.69l-2.62 -0.9 -12.41 -11.58zm-229.03 -592.84c-0.24,-0.14 -38.53,-20.85 -23.98,-28.39 16.26,-8.43 102.17,16.96 125.14,21.99 10.87,2.38 31.32,17.4 -3.59,23.15 -17.54,2.89 -42.51,4.38 -58.71,-4.34l-38.86 -12.41zm426.62 2397.78c-48.16,-22.22 -38.43,-20.62 -14.88,-63.66 7.28,-13.31 66.04,-47.13 84.62,-47.13 16.73,0 19.25,33.36 21.01,45.82 1.27,9.09 -3.88,74.53 -6.62,85.86 -3.46,14.24 18.42,66.5 -4.75,67.58 -12.25,0.57 -22.59,-26.25 -35.01,-36.38 -7.87,-6.41 -24.89,-31.05 -33.62,-39.68l-10.75 -12.41zm55.4 372.91c-10.77,11.94 -20.89,25.18 -34.73,33.28 -18.9,11.07 -35.97,46.85 -65.6,27.07 -29.13,-19.44 38.66,-44.53 45.97,-79.09 3.89,-18.38 74.48,-94.83 79.92,-50.72 3.7,29.99 -4.32,29.52 -14.53,57.34 -0.46,1.26 -0.91,1.58 -1.93,2.19l-9.1 9.93zm202.37 1068.46c-7.6,-7.3 -11.32,-11.98 -11.58,-22.43 -0.41,-16.5 36.36,-1.89 45.06,-3.73 7,-1.47 29.06,1.77 31.7,10.97 2.78,9.71 -0.45,8.75 5.62,20.43 3.92,7.55 8.71,26.67 0.54,33.14 -4.1,3.24 -14.38,-16.21 -18.67,-19.99 -18,-15.88 -8.28,-6.56 -28.28,-14.63 -2.31,-0.94 -5.09,-2.3 -7.44,-3.35l-16.95 -0.41zm12265.91 973.19c-12.87,-10.27 -27.73,-17.7 -9.09,-25.42 18.23,-7.54 44.96,20.46 73.37,20.46 66.57,0 114.66,27.55 175.79,33.83 21.98,2.26 43.18,3.7 64.75,5.93 23.52,2.43 37.87,1.99 61.75,1.58 22.17,-0.38 24.77,38.8 -0.6,41.34 -43.85,4.39 -58.21,20.45 -107.99,4.14 -34.3,-11.24 -12.78,-18.33 -57.46,-24.81 -10.29,-1.49 -13.37,-2.33 -24.61,-3.23 -25.96,-2.07 -77.19,-19.03 -101.28,-30.46 -7.6,-3.61 -25.93,-12.07 -33.07,-12.54l-1.87 -0.9 -39.69 -9.92zm1255.55 103.77c-21.56,-2.4 -28.81,-1.68 -37.49,-19.92 -7.6,-15.95 32.98,-31.3 51.54,-23.29 6.46,2.78 15.28,-10.11 42.17,2.97 10.95,5.33 38.73,20.94 32.86,36.93 -5.36,14.58 -34.69,14.88 -46.92,14.88l-42.16 -11.57zm1184.02 -252.19c-17.53,3.68 -35.97,6.64 -53.1,10.47 -39.57,8.83 -52.33,24.84 -91.27,15.92 -57.78,-13.24 -122.86,30.36 -168.24,13.91 -50.97,-18.47 -58.17,-41.51 -124.57,-49.18 -56.37,-6.51 -60.21,-54.05 -90.41,-89.44 -14.57,-17.07 -41.24,-28.87 -55.61,-41.01 -30.64,-25.89 -84.87,-66.6 -123.24,-78.13 -30.46,-9.15 -51.7,-29.2 -76.45,-39.57 -15.21,-6.37 -19.58,-23.08 -4.47,-28.02 15.75,-5.14 34.56,-0.71 56.7,-5.71 16.85,-3.8 38.61,-20.99 40.26,-37.84 2.26,-22.96 7.5,-56.68 13.98,-78.46 26.37,-88.63 49.37,-40.39 87.24,-73 15.6,-13.43 8.98,-14 34.38,-33.4 35.43,-27.73 28.74,-14.33 62.58,-14.88 9.32,-0.15 38.42,9.22 56.22,10.74 72.01,6.15 154.73,65.95 221.03,98.4 37.91,18.55 109.07,87.04 148.14,23.83 19.04,-30.81 71.68,-38.72 104.87,-38.72 7.72,0 15.43,0 23.15,0 28.59,-2.53 75.02,-5.1 99.43,-22.25 18.6,-13.07 32.24,-21.88 50.23,-37.06 28.37,-23.95 66.12,-14.36 90.38,9.96 35.86,35.96 67.6,22.52 111.15,40.12 16.57,6.7 40.19,7.97 55.82,16.75 30.07,16.89 65.21,28.82 97.03,44.79 21.7,10.88 45.21,21.17 64.87,35.9 14.21,10.66 28.21,18.75 44.74,25.07 17.09,6.53 65.4,10.68 85.3,13.51 10.45,1.49 68.12,-7.94 62.56,12.19 -3.09,11.2 -31.58,17.29 -41.67,18.88 -76.53,12.06 -59.87,20.99 -102.74,70.42 -22.47,25.91 -76.38,28.03 -108.69,35.67 -92.46,21.86 -69.46,36.34 -138.25,73.95 -36.39,19.89 -36.48,27.89 -81.01,40.18 -27.08,7.48 -52.1,15.68 -80.31,23.22 -42.28,11.31 -51.75,12.7 -95.92,13.71 -35.22,0.8 -73.03,10.49 -106.64,14.81l-2.15 0.14 -65.32 4.13zm2755.38 -7140.83c-13.3,-27.11 -10.16,-18.02 1.66,-31.42 1.54,-1.76 43.49,-12.82 57.66,-22.12 39.65,-25.99 27.96,0.06 64.21,6.95 36.98,7.02 40.25,29.73 3.74,41.41 -13.34,4.26 -14.48,9.25 -32.32,12.76 -17.71,3.49 -27.52,7.3 -46.99,7.3l-47.96 -14.88z"/>
  <path class="fil0 str1" d="M3670.96 13725.15c11.27,-13.59 37.32,-57.06 42.57,-74.42 10.42,-34.4 41.04,-56.48 55.57,-89.44 8.58,-19.48 30.31,-82.24 36.89,-94.11 32.03,-57.76 10.41,-83.59 -11.57,-132.29 -0.35,-0.78 -57.4,-89.93 -60.62,-94.26 -18.22,-24.5 -34.76,-101.57 -49.61,-107.07 -10.2,-3.77 -87.05,27.98 -99.36,33.74 -73.73,34.52 -67.53,8.05 -124.31,3.73 -89.39,-6.8 -54.66,55.51 -88.87,86.27 -15.52,13.96 -80.51,-2.7 -88.87,-13.37 -15.77,-20.1 -38.55,-5.32 -43.7,-16.53 -37.85,-82.44 -26.01,-49.32 -82.26,-15.97 -41.83,24.8 -34.82,9.81 -71.11,49.04 -16.59,17.94 -24.79,82.52 -26.74,107.06 -3.26,41 -24.66,83.44 -24.66,109.57 0,47.42 -13.44,39.68 -9.93,100.87 23.28,42.86 34.81,81.08 57.31,124.16 11.7,22.4 58.17,-8.55 76.22,32.51 36.17,82.29 142.14,17.19 218.42,31.99 73.01,14.17 114.38,19.75 114.38,104.18 0,63.27 -33.86,81.39 30.99,142.49 30.08,28.34 12.1,32.94 61.62,11.73 9.84,-4.22 37.95,-37.03 28.11,-59.3 -31.91,-72.23 70.62,-68.7 67.8,-175.57 -0.16,-6.05 5.02,-44.26 6.62,-50.13l-14.89 -14.88z"/>
  <g id="_1795504712816">
   <path class="fil2 str2" d="M1000 7731.5c12.8,78.52 25.44,80.65 59.45,138.91 12.25,21 31.36,33.22 43,63.92 20.32,53.56 90.52,77.49 90.52,158.89 0,52.78 -8.26,103.66 -8.26,161.26 0,45.78 0,90.37 0,135.74 0,121.53 53.53,222.04 130.63,311.69 22.69,26.39 34.08,38.62 41.35,73.04 14.44,68.36 37.74,175.39 69.59,237.7 38.43,75.16 87.42,106.67 146.75,162.34 18.78,17.63 23.93,28.75 37.89,42.71 21.23,21.23 21.5,24.1 38.32,45.22 34.01,42.73 80.34,144.98 10.92,178.45 -61.98,29.88 -87.7,111.3 -64.92,171.55 34.85,92.17 13.83,123.17 -7.04,217.91 -1.42,6.48 0.24,7.84 -1.66,14.03 -20.99,68.08 -1.8,56.83 1.52,110.37 2.26,36.37 16.18,79.7 2.88,119.06 -10.72,31.72 -17.48,76 -32.51,111.22 -29.02,67.98 -10.81,129.13 39.55,179.97 18.99,19.18 40.68,81.21 79.38,101.58 96,50.51 88.48,51.25 184.97,11.15 50.24,-20.88 67.62,-28.14 116.08,-55.8 78.11,-44.57 173.66,-27.44 248.95,11.01 62.6,31.98 133.04,12.64 192.63,-16.4 43.84,-21.37 38.99,-25.28 75.24,-20.81 57.04,7.04 50.37,-10.63 102.53,-24.66 61.47,-16.54 25.18,-18.88 85.42,-2.08 36.88,10.29 98.03,-17.75 139.34,-11.01 34.33,5.6 74.83,4.39 104.32,26.32 49.24,36.64 139.79,98.81 196.21,40.39 16.91,-17.5 23.07,-105.3 56.79,-146.23 22.43,-27.24 24.94,-62.35 61.33,-70.96 35.78,-8.47 44.91,5.73 100.17,-9.5 19.54,-5.39 35.05,-7.12 54.71,-5.39 80.79,7.11 105.89,93.26 141.12,152.57 52.28,88.02 45.23,39.7 87.51,85.42 29.81,32.25 36.94,103.54 104.04,134.08 1.82,0.83 3.81,1.65 5.1,3.17 45.92,53.92 57.45,57.62 102.53,100.87 33.2,31.84 43.17,130.58 100.3,191.12 48.45,51.36 52.82,62.43 130.79,76.35 58.4,10.42 90.64,-59.07 194.84,29.48 36.73,31.22 66.76,77.96 113.16,104.89 40.08,23.25 24.28,18.96 74.41,34.73 69.57,21.9 82.37,88.8 207.94,52.91 19.83,-5.67 63.67,-34.9 96.71,-46.3 14.9,-5.14 51.63,-19.19 65.77,-19.84 85.73,-3.94 75.58,4.44 130.64,51.12 81.66,69.25 114.39,78.04 205.34,125.53 64.39,33.62 59.28,52.13 94.11,104.89 11.37,17.24 31.36,86.74 55.52,122.61 85.64,127.09 94.9,237.97 7.04,369.89 -3.8,5.7 -16.45,27.47 -18.05,34.59 -24.53,108.94 -30.62,143.93 -90.53,236.33 -11.54,17.79 -21.13,53 -7.18,74.13 7.08,10.71 45.85,75.88 47.53,82.97 19.32,81.43 29.69,77.67 -44.08,115.46 -63.78,32.67 -108.72,77.58 -166.03,106.27 -94.01,47.08 7.64,136.87 -30.61,222.11 -47.36,105.57 -48.56,140.96 -20.42,245.73 11.76,43.78 8.48,75.47 3.74,115.9 -8.84,75.34 -5.4,108.37 13.65,178.59 13.59,50.1 61.5,116.91 112.03,132.71 95.76,29.94 129.52,42.07 231.51,49.33 84.44,6.01 124.54,4.74 154.07,102.25 12.21,40.33 89.45,107.06 138.49,105.97 40.27,-0.9 50.88,4.86 98.13,-2.88 105.06,-17.21 212.3,-69.83 313.1,-94.16 4.55,-1.09 9.27,-1.45 13.9,-2.18"/>
   <path class="fil2 str2" d="M6840.22 17982.04c46.44,-36.97 33.59,-25.08 47.53,-67.37 9.17,-27.85 -3.45,-36.73 28.4,-74.84 48.76,-58.33 84.09,-42.91 143.58,-54.15 18.83,-3.55 103.34,-16.6 111.22,-23.29 14.17,-12.05 32.9,-20.2 46.3,-39.12 15.11,-21.35 46.89,-49.79 59.54,-77.72 22.64,-49.96 43.43,-77.18 8.83,-129.27 -10.81,-16.28 -52.17,-84.97 -57.36,-100.35 -12.35,-36.54 -14.88,-42.51 -24.66,-81.69 -4.18,-16.72 -15.3,-40.37 -14.46,-56.23 4.42,-82.81 30.15,-79.17 53.34,-139.47 10.31,-26.83 35,-69.77 39.27,-98.22 2.65,-17.62 23.31,-64.47 38.03,-79.95 21.14,-22.25 76.62,-78.94 90.39,-98.64 45.85,-65.56 81.73,-134.67 4.67,-194.34 -85.6,-66.3 -33.47,-120.32 0.85,-197.73 24.35,-54.93 28.06,-44.13 39.12,-110.08 7.19,-42.91 34.12,-95.25 83.82,-95.25 95.77,0 201.42,65.54 285.8,-38.74 4.39,-5.43 21.98,-25.43 22.87,-30.71 10.13,-59.91 -1.93,-70.39 -11.58,-124.6 -9.76,-54.88 -46.75,-64.18 -34.3,-150.99 14.49,-101.07 10.75,-109.89 -3.31,-208.08 -6.21,-43.36 1.88,-66.01 -14.22,-114.95 -19.86,-60.36 -32.22,-137.88 -71.77,-189.18 -30.2,-39.16 -49.82,-115.89 -51.55,-164.7 -1.54,-43.74 -6.49,-88.11 1.09,-131.73 6.28,-36.17 -7.39,-95.2 5.39,-151.47 7.5,-33.02 19.86,-57.65 34.73,-88.88 28.54,-59.9 47.47,-92.25 110.65,-115.33 84.57,-30.9 197.51,-1.55 262.65,-73.18 41.28,-45.41 119.66,-89.98 146.37,-153.36 14.94,-35.44 112.84,-117.53 110.37,-180.96 -3.73,-95.89 14.88,-205.37 14.88,-306.31 0,-72.33 14.27,-130.44 97.43,-141.12 37.72,-4.84 135.33,33.94 163.71,67.94 86.19,103.29 126.16,-5.54 247.38,88.07 60.91,47.04 154.29,59.45 227.07,40.35 297.65,-78.13 176.68,87.27 74.56,235.38 -29.4,42.63 -65.52,121.24 -47.81,173.07 28.57,83.65 39.91,72.33 125.67,95.91"/>
   <path class="fil2 str2" d="M3103.82 17379.72c-25.52,98.29 -11.73,140.62 55.66,212.9 21.38,22.94 23.03,35.79 53.91,57.5 20.69,14.54 81.46,77.76 93.83,101.25 14.18,26.94 43.12,98.17 18.62,124.54 -3.4,3.65 -13.84,28.28 -16.96,36.29 -9.03,23.19 -17.64,46.56 -26.46,69.84"/>
   <path class="fil2 str2" d="M4479.66 17636.04c78.51,-55.81 79.45,-34.41 163.15,-19.85 39.07,6.79 153.41,63.59 184.12,94.26 42.49,42.45 124.73,110.18 140.99,167.02 3.51,12.27 31.45,50.45 44.22,56.22 29.09,13.15 55.12,32.23 82.68,48.35"/>
   <path class="fil2 str2" d="M1000 16085.74c89.68,13.85 112.92,29.49 176.92,87.93 32.5,29.69 44.81,51.54 82.12,82.12 22.18,18.19 48.98,59.64 87.36,36.52 54.81,-33.01 0.03,-122.7 100.49,-89.16 54,18.02 154.31,0.72 180.92,-57.45 32.48,-70.99 104.74,-84.56 174.15,-83.11 22.48,0.47 95.17,-21.14 138.53,-21.5 22.45,-0.18 61.76,-12.23 95.06,-13.08 54.86,-1.4 120.97,-30.87 136.02,-89.39 7.74,-30.14 34.45,-115.73 55.85,-137.3 60.97,-61.42 65.63,-89.16 101.39,-165.23 49.79,-105.93 91.42,24.85 122.66,56.09 36.87,36.87 53.06,40.94 105.83,39.68 93.73,-2.24 181.19,11.84 268.31,44.79 43.11,16.3 113.6,19.38 164.66,41.2 22.87,9.78 228.12,44.73 261.14,47.96 129.77,12.7 -17.53,134.77 112.21,199.29 52.93,26.33 70.3,119.52 158.14,107.06 72.25,-10.24 222.17,9.61 265.72,80.89 11.31,18.52 88.26,107.57 101.01,118.77 40.9,35.93 77.16,81.56 137.26,54.43 41.91,-18.91 55.4,-17.33 104.18,-44.64 37.11,-20.78 126.96,-59.22 167.44,-70.55 60.88,-17.05 113.16,-43.51 178.74,-58.72 42.89,-9.95 152.82,-60.81 179.26,-91.33 53.3,-61.5 71.15,-84.26 156.95,-97.99 68.15,-10.9 114.16,-6.54 156.58,-75.41 14.34,-23.3 30.81,-74.34 50.69,-109.42 34.59,-61.04 23.72,-123 33.08,-190.98 12.25,-88.99 -11.18,-151.52 -6.48,-241.01 2.17,-41.46 -8.15,-85.44 1.09,-134.36 28.25,-149.49 32.68,-156.95 6.76,-310.09 -7.05,-41.63 -37.54,-167.13 -62.56,-199.24 -58.16,-74.61 -113.34,-106.07 -202.27,-137.25 -62.49,-21.9 -144.1,-14.62 -209.06,-8.69 -19.58,1.79 -94.53,0.88 -112.64,-6.19 -27.89,-10.88 -81.75,-20.49 -119.3,-33.5 -115.87,-40.14 -168.73,-50.56 -264.59,-136.83 -69.04,-62.13 -59.55,-111.83 -112.87,-182.04 -51.35,-67.6 -116.88,-85.35 -196.78,-101.01 -2.48,-0.48 -56.09,-13.14 -56.89,-13.37 -45.09,-13.5 -49.19,4.23 -92.47,-42.86 -6.26,-6.81 -70.15,-95.63 -76.15,-102.52"/>
   <path class="fil2 str2" d="M3282.43 14821.53c-69.69,-36.79 -124.41,-65.81 -158.18,-140.27 -12.61,-27.82 -82.71,-140.41 -84.62,-150.91 -6.6,-36.15 49.78,-56.24 19.42,-179.73 -20.79,-84.59 -28.28,-139.4 44.08,-195.37 90.02,-69.63 -18.2,-102.48 129.69,-191.82 38.59,-23.32 48.62,-60.48 46.17,-102.53 -0.36,-6.17 5.45,-13.38 1.79,-18.33 -18.49,-25.06 -43.97,-44.14 -65.95,-66.21"/>
  </g>
  <g id="_1795504720560">
   <path class="fil3 str3" d="M4432.15 16155.28l815.93 0 0 1592.89 -815.93 0 0 -1592.89z"/>
   <path class="fil4" d="M4780.25 16591.41c-0.92,3.32 -1.63,6.35 -2.07,9.15 -0.44,2.79 -0.65,5.18 -0.65,7.22 0,5.59 1.8,9.56 5.29,11.89 3.49,2.33 9.55,3.49 18.05,3.49l4.15 0 -4.96 22.72 -78.17 0 5.29 -22.72 2.89 0c7.36,0 12.82,-1.51 16.48,-4.54 3.6,-2.97 6.32,-8.39 8.12,-16.14l37.59 -153.79c0.6,-2.74 1.14,-5.54 1.52,-8.45 0.33,-2.91 0.55,-5.77 0.55,-8.62 0,-5.36 -1.96,-9.15 -5.95,-11.36 -3.92,-2.22 -10.69,-3.32 -20.23,-3.32l-3.06 0 5.29 -22.72 72.33 0 62.14 183.5 31.31 -129.03c1.08,-4.2 1.85,-7.63 2.34,-10.31 0.49,-2.68 0.71,-4.72 0.71,-6.06 0,-5.6 -1.8,-9.56 -5.35,-11.89 -3.6,-2.33 -9.71,-3.49 -18.32,-3.49l-4.15 0 4.96 -22.72 78.5 0 -5.62 22.72 -2.84 0c-7.37,0 -12.87,1.51 -16.47,4.54 -3.66,2.97 -6.33,8.33 -8.18,15.96l-50.68 208.44 -21.54 0 -72.06 -209.48 -37.21 155.01z"/>
   <path class="fil2 str4" d="M4840.94 17614.97l0 -769.27"/>
   <path class="fil2 str4" d="M4558.89 17338.92l563.14 0"/>
   <path class="fil2 str4" d="M4696.04 17478.91l294.22 -286.81"/>
   <path class="fil2 str4" d="M4692.9 17191.86l297.98 288.85"/>
   <path class="fil2 str4" d="M4840.8 16848.43l-95.47 118.01"/>
   <path class="fil2 str4" d="M4841.42 16848.39l87.89 118.05"/>
  </g>
  <g id="_1795504718064">
   <path class="fil3 str3" d="M8315.39 17274.47l0 473.7 -2309.37 0 0 -473.7 2309.37 0z"/>
   <path class="fil4" d="M7083.36 17612.94l0 -202.07 40.07 0 47.79 143.04c4.42,13.31 7.62,23.28 9.64,29.91 2.31,-7.33 5.93,-18.15 10.82,-32.4l48.64 -140.55 35.79 0 0 202.07 -25.68 0 0 -169.05 -58.98 169.05 -24.09 0 -58.32 -172.15 0 172.15 -25.68 0z"/>
   <path id="1" class="fil4" d="M7415.81 17565.53l25.68 3.38c-3.99,14.91 -11.47,26.53 -22.39,34.76 -10.91,8.24 -24.83,12.37 -41.81,12.37 -21.36,0 -38.29,-6.58 -50.8,-19.75 -12.51,-13.12 -18.77,-31.61 -18.77,-55.36 0,-24.56 6.31,-43.65 18.96,-57.2 12.65,-13.59 29.07,-20.37 49.25,-20.37 19.52,0 35.46,6.64 47.83,19.95 12.37,13.31 18.58,32.03 18.58,56.16 0,1.46 -0.05,3.67 -0.14,6.58l-109.08 0c0.94,16.04 5.46,28.37 13.64,36.88 8.14,8.51 18.35,12.79 30.53,12.79 9.08,0 16.84,-2.39 23.24,-7.19 6.44,-4.8 11.52,-12.47 15.28,-23zm-81.28 -39.8l81.56 0c-1.08,-12.32 -4.23,-21.54 -9.36,-27.7 -7.85,-9.55 -18.1,-14.35 -30.66,-14.35 -11.39,0 -20.93,3.81 -28.7,11.43 -7.71,7.62 -11.99,17.83 -12.84,30.62z"/>
   <path id="2" class="fil4" d="M7472.58 17612.94l0 -146.47 22.3 0 0 22.43c5.69,-10.39 10.96,-17.26 15.8,-20.55 4.85,-3.34 10.16,-4.99 15.95,-4.99 8.37,0 16.89,2.64 25.54,7.86l-8.84 22.91c-6.02,-3.39 -12.04,-5.08 -18.06,-5.08 -5.41,0 -10.26,1.64 -14.54,4.89 -4.28,3.24 -7.34,7.76 -9.17,13.54 -2.78,8.8 -4.14,18.44 -4.14,28.93l0 76.53 -24.84 0z"/>
   <path id="3" class="fil4" d="M7662.52 17559.32l24.27 3.38c-2.68,16.7 -9.45,29.73 -20.41,39.19 -10.96,9.45 -24.46,14.15 -40.41,14.15 -19.99,0 -36.08,-6.53 -48.21,-19.61 -12.18,-13.08 -18.25,-31.8 -18.25,-56.16 0,-15.81 2.63,-29.59 7.85,-41.44 5.22,-11.81 13.17,-20.7 23.9,-26.58 10.68,-5.92 22.29,-8.89 34.9,-8.89 15.85,0 28.88,4 38.95,12.04 10.11,8.05 16.6,19.48 19.42,34.25l-23.99 3.67c-2.3,-9.83 -6.35,-17.22 -12.23,-22.2 -5.83,-4.94 -12.88,-7.44 -21.16,-7.44 -12.51,0 -22.67,4.47 -30.53,13.41 -7.81,8.98 -11.71,23.09 -11.71,42.47 0,19.66 3.76,33.92 11.29,42.81 7.57,8.89 17.4,13.35 29.49,13.35 9.78,0 17.92,-2.96 24.41,-8.93 6.54,-5.93 10.68,-15.1 12.42,-27.47z"/>
   <path id="4" class="fil4" d="M7803.63 17594.6c-9.22,7.85 -18.11,13.35 -26.62,16.6 -8.52,3.25 -17.64,4.84 -27.43,4.84 -16.08,0 -28.45,-3.9 -37.11,-11.75 -8.65,-7.81 -12.98,-17.83 -12.98,-30.01 0,-7.15 1.65,-13.69 4.89,-19.62 3.29,-5.93 7.57,-10.63 12.84,-14.2 5.32,-3.58 11.24,-6.31 17.88,-8.14 4.89,-1.27 12.27,-2.49 22.1,-3.72 20.04,-2.35 34.86,-5.22 44.31,-8.51 0.1,-3.39 0.14,-5.55 0.14,-6.44 0,-10.07 -2.35,-17.17 -7.05,-21.31 -6.35,-5.6 -15.81,-8.37 -28.32,-8.37 -11.71,0 -20.36,2.07 -25.92,6.16 -5.59,4.09 -9.68,11.33 -12.37,21.78l-24.27 -3.39c2.21,-10.4 5.84,-18.82 10.92,-25.21 5.08,-6.4 12.41,-11.29 22.01,-14.77 9.55,-3.44 20.7,-5.18 33.3,-5.18 12.51,0 22.72,1.46 30.57,4.42 7.81,2.97 13.6,6.64 17.27,11.11 3.67,4.46 6.25,10.11 7.76,16.93 0.8,4.23 1.22,11.85 1.22,22.81l0 32.93c0,23 0.52,37.53 1.55,43.69 0.99,6.17 3.06,12.05 6.07,17.69l-25.96 0c-2.5,-5.22 -4.1,-11.34 -4.8,-18.34zm-1.98 -55.04c-9.03,3.67 -22.57,6.78 -40.64,9.32 -10.25,1.45 -17.49,3.1 -21.73,4.93 -4.23,1.84 -7.48,4.52 -9.78,8 -2.31,3.53 -3.48,7.43 -3.48,11.76 0,6.54 2.49,12.04 7.52,16.42 5.04,4.37 12.38,6.58 22.02,6.58 9.55,0 18.06,-2.07 25.54,-6.25 7.43,-4.14 12.93,-9.84 16.41,-17.03 2.69,-5.6 4,-13.83 4,-24.7l0.14 -9.03z"/>
   <path id="5" class="fil4" d="M7918.82 17590.79l3.39 21.91c-6.96,1.46 -13.22,2.22 -18.68,2.22 -8.98,0 -15.94,-1.42 -20.93,-4.28 -4.94,-2.87 -8.42,-6.59 -10.44,-11.25 -2.02,-4.65 -3.01,-14.44 -3.01,-29.35l0 -84.38 -18.34 0 0 -19.19 18.34 0 0 -36.22 24.84 -14.91 0 51.13 24.83 0 0 19.19 -24.83 0 0 85.79c0,7.11 0.42,11.67 1.31,13.69 0.85,2.02 2.26,3.62 4.24,4.85 1.97,1.17 4.79,1.78 8.46,1.78 2.73,0 6.35,-0.33 10.82,-0.98z"/>
   <path id="6" class="fil4" d="M7934.01 17539.7c0,-27.04 7.53,-47.08 22.63,-60.11 12.56,-10.82 27.94,-16.23 46.05,-16.23 20.08,0 36.54,6.59 49.34,19.76 12.75,13.12 19.14,31.33 19.14,54.51 0,18.82 -2.82,33.59 -8.46,44.36 -5.65,10.77 -13.88,19.14 -24.7,25.12 -10.77,5.97 -22.58,8.93 -35.32,8.93 -20.51,0 -37.07,-6.53 -49.72,-19.66 -12.65,-13.12 -18.96,-32.03 -18.96,-56.68zm25.4 0.05c0,18.72 4.1,32.74 12.28,42 8.23,9.32 18.53,13.97 31,13.97 12.32,0 22.57,-4.65 30.81,-14.01 8.18,-9.36 12.27,-23.61 12.27,-42.76 0,-18.06 -4.14,-31.75 -12.37,-41.01 -8.23,-9.32 -18.48,-13.97 -30.71,-13.97 -12.47,0 -22.77,4.61 -31,13.87 -8.18,9.27 -12.28,23.24 -12.28,41.91z"/>
   <path id="7" class="fil4" d="M8100 17612.94l0 -146.47 22.3 0 0 22.43c5.69,-10.39 10.96,-17.26 15.8,-20.55 4.85,-3.34 10.16,-4.99 15.95,-4.99 8.37,0 16.89,2.64 25.54,7.86l-8.84 22.91c-6.02,-3.39 -12.04,-5.08 -18.06,-5.08 -5.41,0 -10.26,1.64 -14.54,4.89 -4.28,3.24 -7.34,7.76 -9.17,13.54 -2.78,8.8 -4.14,18.44 -4.14,28.93l0 76.53 -24.84 0z"/>
   <circle class="fil5 str5" cx="6224.39" cy="17507.62" r="118.79"/>
   <rect class="fil5 str5" x="6682.32" y="17399.34" width="226.91" height="226.91"/>
   <path class="fil2 str6" d="M6398.29 17506.75l220.31 0"/>
   <path class="fil2 str6" d="M6615.94 17507.41l-64.02 65.38"/>
   <path class="fil2 str6" d="M6616.11 17506.27l-63.42 -61.39"/>
  </g>
  <path class="fil3 str3" d="M1595.62 16158.49l2703.16 0 0 1592.86 -2703.16 0 0 -1592.86z"/>
  <path class="fil6" d="M2564.27 16539.15l-16.34 45.39 -137.82 0 0 -6.47c40.57,-36.98 69.08,-67.14 85.61,-90.54 16.52,-23.41 24.81,-44.81 24.81,-64.21 0,-14.82 -4.53,-26.99 -13.64,-36.51 -9.06,-9.53 -19.88,-14.29 -32.52,-14.29 -11.52,0 -21.81,3.29 -30.92,9.94 -9.18,6.64 -15.88,16.4 -20.29,29.22l-6.35 0c2.88,-21.11 10.29,-37.34 22.17,-48.69 11.87,-11.28 26.75,-16.93 44.62,-16.93 18.94,0 34.81,6.12 47.51,18.29 12.7,12.17 19.05,26.51 19.05,43.09 0,11.82 -2.76,23.7 -8.29,35.52 -8.47,18.58 -22.28,38.27 -41.33,59.09 -28.64,31.16 -46.28,49.86 -53.04,56.03l60.39 0c12.29,0 20.93,-0.47 25.87,-1.35 4.94,-0.94 9.41,-2.82 13.4,-5.65 4,-2.76 7.47,-6.76 10.41,-11.93l6.7 0z"/>
  <path id="1" class="fil6" d="M2591.79 16468.95c0,-26.64 4,-49.51 12.05,-68.74 8.06,-19.22 18.7,-33.57 32.05,-42.98 10.29,-7.47 20.99,-11.17 31.98,-11.17 17.94,0 33.99,9.11 48.22,27.34 17.81,22.64 26.69,53.27 26.69,91.96 0,27.05 -3.88,50.09 -11.7,69.03 -7.82,18.93 -17.76,32.63 -29.87,41.21 -12.11,8.53 -23.81,12.82 -35.04,12.82 -22.29,0 -40.81,-13.11 -55.62,-39.39 -12.53,-22.17 -18.76,-48.86 -18.76,-80.08zm33.87 4.23c0,32.1 3.94,58.33 11.82,78.67 6.52,17.11 16.28,25.63 29.22,25.63 6.17,0 12.58,-2.76 19.22,-8.34 6.65,-5.59 11.65,-14.88 15.11,-27.99 5.24,-19.7 7.88,-47.57 7.88,-83.43 0,-26.64 -2.76,-48.86 -8.23,-66.62 -4.11,-13.23 -9.46,-22.58 -15.99,-28.05 -4.65,-3.82 -10.35,-5.7 -16.99,-5.7 -7.76,0 -14.7,3.53 -20.76,10.52 -8.23,9.53 -13.87,24.46 -16.81,44.92 -3,20.41 -4.47,40.52 -4.47,60.39z"/>
  <path id="2" class="fil6" d="M2768.18 16468.95c0,-26.64 4,-49.51 12.05,-68.74 8.06,-19.22 18.7,-33.57 32.05,-42.98 10.29,-7.47 20.99,-11.17 31.98,-11.17 17.94,0 33.99,9.11 48.22,27.34 17.81,22.64 26.69,53.27 26.69,91.96 0,27.05 -3.88,50.09 -11.7,69.03 -7.82,18.93 -17.76,32.63 -29.87,41.21 -12.11,8.53 -23.81,12.82 -35.04,12.82 -22.29,0 -40.81,-13.11 -55.62,-39.39 -12.53,-22.17 -18.76,-48.86 -18.76,-80.08zm33.87 4.23c0,32.1 3.94,58.33 11.82,78.67 6.52,17.11 16.28,25.63 29.22,25.63 6.17,0 12.58,-2.76 19.22,-8.34 6.65,-5.59 11.65,-14.88 15.11,-27.99 5.24,-19.7 7.88,-47.57 7.88,-83.43 0,-26.64 -2.76,-48.86 -8.23,-66.62 -4.11,-13.23 -9.46,-22.58 -15.99,-28.05 -4.65,-3.82 -10.35,-5.7 -16.99,-5.7 -7.76,0 -14.7,3.53 -20.76,10.52 -8.23,9.53 -13.87,24.46 -16.81,44.92 -3,20.41 -4.47,40.52 -4.47,60.39z"/>
  <path id="3" class="fil6" d="M3077.93 16339.36l0 157.16 39.98 -36.63c8.52,-7.82 13.46,-12.76 14.81,-14.82 0.95,-1.41 1.42,-2.76 1.42,-4.17 0,-2.29 -1,-4.23 -2.89,-5.94 -1.88,-1.65 -4.99,-2.59 -9.4,-2.82l0 -5.65 68.61 0 0 5.65c-9.35,0.23 -17.17,1.7 -23.4,4.35 -6.23,2.7 -13.05,7.47 -20.52,14.29l-40.63 37.22 40.34 51.33c11.29,14.05 18.81,23.04 22.58,26.98 5.58,5.24 10.4,8.65 14.58,10.17 2.94,1.12 7.99,1.71 15.17,1.71l0 6.35 -76.73 0 0 -6.35c4.41,-0.12 7.35,-0.76 8.88,-1.94 1.58,-1.24 2.35,-2.88 2.35,-5.06 0,-2.64 -2.3,-6.88 -6.88,-12.7l-48.27 -61.79 0 52.21c0,10.23 0.7,16.93 2.11,20.17 1.47,3.17 3.47,5.46 6.12,6.88 2.64,1.35 8.35,2.11 17.17,2.23l0 6.35 -80.08 0 0 -6.35c7.99,0 14.05,-1 18.05,-2.94 2.41,-1.23 4.23,-3.17 5.46,-5.76 1.71,-3.76 2.59,-10.29 2.59,-19.52l0 -143.94c0,-18.05 -0.41,-29.1 -1.18,-33.16 -0.82,-4.05 -2.11,-6.82 -3.99,-8.35 -1.83,-1.58 -4.24,-2.35 -7.18,-2.35 -2.41,0 -6.05,1 -10.82,2.94l-2.93 -6.35 46.74 -19.4 7.94 0z"/>
  <path id="4" class="fil6" d="M3254.67 16455.66c11.41,-11.53 18.17,-18.17 20.22,-19.93 5.12,-4.36 10.65,-7.77 16.59,-10.18 5.93,-2.41 11.81,-3.64 17.63,-3.64 9.88,0 18.29,2.88 25.4,8.64 7.06,5.76 11.82,14.11 14.17,25.11 11.88,-13.88 21.88,-22.93 30.05,-27.28 8.17,-4.3 16.58,-6.47 25.22,-6.47 8.35,0 15.82,2.17 22.35,6.47 6.46,4.29 11.64,11.34 15.4,21.16 2.53,6.65 3.82,17.11 3.82,31.4l0 67.97c0,9.82 0.71,16.58 2.18,20.23 1.12,2.46 3.23,4.64 6.23,6.4 3.06,1.77 8,2.65 14.88,2.65l0 6.35 -77.26 0 0 -6.35 3.29 0c6.7,0 11.99,-1.29 15.76,-3.94 2.64,-1.82 4.52,-4.76 5.64,-8.76 0.47,-1.94 0.71,-7.47 0.71,-16.58l0 -67.91c0,-12.88 -1.53,-21.93 -4.65,-27.22 -4.52,-7.35 -11.7,-11.06 -21.63,-11.06 -6.06,0 -12.23,1.53 -18.41,4.59 -6.11,3 -13.58,8.7 -22.34,16.93l-0.35 1.94 0.7 7.41 0 75.32c0,10.7 0.59,17.4 1.77,20.05 1.23,2.59 3.46,4.82 6.76,6.58 3.29,1.77 8.93,2.65 16.87,2.65l0 6.35 -79.37 0 0 -6.35c8.64,0 14.58,-1 17.81,-3.06 3.24,-2.06 5.47,-5.17 6.7,-9.29 0.59,-1.94 0.89,-7.58 0.89,-16.93l0 -67.91c0,-12.88 -1.88,-22.17 -5.65,-27.87 -5.05,-7.41 -12.05,-11.11 -21.11,-11.11 -6.17,0 -12.28,1.7 -18.34,5.05 -9.47,5.06 -16.82,10.82 -21.93,17.17l0 84.67c0,10.29 0.7,16.93 2.12,20.05 1.41,3.06 3.52,5.35 6.35,6.94 2.76,1.53 8.4,2.29 16.93,2.29l0 6.35 -77.97 0 0 -6.35c7.24,0 12.29,-0.76 15.17,-2.29 2.89,-1.59 5.06,-4 6.59,-7.41 1.47,-3.35 2.23,-9.88 2.23,-19.58l0 -60.33c0,-17.28 -0.53,-28.45 -1.53,-33.51 -0.82,-3.82 -2.05,-6.41 -3.82,-7.82 -1.7,-1.47 -4.05,-2.18 -6.99,-2.18 -3.24,0 -7.06,0.89 -11.53,2.59l-2.58 -6.35 47.62 -19.4 7.41 0 0 33.75z"/>
  <path class="fil6" d="M2237.01 17343.37l57.09 -27.52 5.71 0 0 197.2c0,13.12 0.53,21.35 1.64,24.58 1.12,3.18 3.36,5.71 6.82,7.41 3.47,1.71 10.53,2.7 21.17,2.94l0 6.35 -88.19 0 0 -6.35c11.05,-0.24 18.16,-1.18 21.34,-2.88 3.23,-1.65 5.47,-3.88 6.76,-6.7 1.24,-2.83 1.88,-11.29 1.88,-25.35l0 -126.29c0,-16.99 -0.59,-27.93 -1.7,-32.75 -0.83,-3.7 -2.3,-6.41 -4.41,-8.11 -2.18,-1.71 -4.71,-2.59 -7.71,-2.59 -4.29,0 -10.23,1.76 -17.81,5.35l-2.59 -5.29z"/>
  <path id="1" class="fil6" d="M2871.67 17425.45c11.41,-11.53 18.17,-18.17 20.22,-19.93 5.12,-4.36 10.65,-7.77 16.59,-10.18 5.93,-2.41 11.81,-3.64 17.63,-3.64 9.88,0 18.29,2.88 25.4,8.64 7.06,5.76 11.82,14.11 14.17,25.11 11.88,-13.88 21.88,-22.93 30.05,-27.28 8.17,-4.3 16.58,-6.47 25.22,-6.47 8.35,0 15.82,2.17 22.35,6.47 6.46,4.29 11.64,11.34 15.4,21.16 2.53,6.65 3.82,17.11 3.82,31.4l0 67.97c0,9.82 0.71,16.58 2.18,20.23 1.12,2.46 3.23,4.64 6.23,6.4 3.06,1.77 8,2.65 14.88,2.65l0 6.35 -77.26 0 0 -6.35 3.29 0c6.7,0 11.99,-1.29 15.76,-3.94 2.64,-1.82 4.52,-4.76 5.64,-8.76 0.47,-1.94 0.71,-7.47 0.71,-16.58l0 -67.91c0,-12.88 -1.53,-21.93 -4.65,-27.22 -4.52,-7.35 -11.7,-11.06 -21.63,-11.06 -6.06,0 -12.23,1.53 -18.41,4.59 -6.11,3 -13.58,8.7 -22.34,16.93l-0.35 1.94 0.7 7.41 0 75.32c0,10.7 0.59,17.4 1.77,20.05 1.23,2.59 3.46,4.82 6.76,6.58 3.29,1.77 8.93,2.65 16.87,2.65l0 6.35 -79.37 0 0 -6.35c8.64,0 14.58,-1 17.81,-3.06 3.24,-2.06 5.47,-5.17 6.7,-9.29 0.59,-1.94 0.89,-7.58 0.89,-16.93l0 -67.91c0,-12.88 -1.88,-22.17 -5.65,-27.87 -5.05,-7.41 -12.05,-11.11 -21.11,-11.11 -6.17,0 -12.28,1.7 -18.34,5.05 -9.47,5.06 -16.82,10.82 -21.93,17.17l0 84.67c0,10.29 0.7,16.93 2.12,20.05 1.41,3.06 3.52,5.35 6.35,6.94 2.76,1.53 8.4,2.29 16.93,2.29l0 6.35 -77.97 0 0 -6.35c7.24,0 12.29,-0.76 15.17,-2.29 2.89,-1.59 5.06,-4 6.59,-7.41 1.47,-3.35 2.23,-9.88 2.23,-19.58l0 -60.33c0,-17.28 -0.53,-28.45 -1.53,-33.51 -0.82,-3.82 -2.05,-6.41 -3.82,-7.82 -1.7,-1.47 -4.05,-2.18 -6.99,-2.18 -3.24,0 -7.06,0.89 -11.53,2.59l-2.58 -6.35 47.62 -19.4 7.41 0 0 33.75z"/>
  <path id="2" class="fil6" d="M3139.31 17309.15c4.76,0 8.88,1.7 12.29,5.05 3.35,3.41 5.05,7.53 5.05,12.29 0,4.82 -1.7,9 -5.05,12.41 -3.41,3.47 -7.53,5.17 -12.29,5.17 -4.82,0 -9,-1.7 -12.41,-5.17 -3.47,-3.41 -5.17,-7.59 -5.17,-12.41 0,-4.76 1.7,-8.88 5.05,-12.29 3.41,-3.35 7.59,-5.05 12.53,-5.05zm14.17 82.55l0 127c0,9.82 0.7,16.34 2.17,19.58 1.41,3.29 3.53,5.7 6.35,7.29 2.82,1.59 8,2.41 15.47,2.41l0 6.35 -76.56 0 0 -6.35c7.65,0 12.82,-0.76 15.41,-2.23 2.64,-1.47 4.7,-3.94 6.29,-7.35 1.53,-3.41 2.29,-10 2.29,-19.7l0 -61.03c0,-16.99 -0.53,-27.99 -1.53,-33.05 -0.82,-3.64 -2.05,-6.17 -3.82,-7.58 -1.7,-1.47 -4.06,-2.18 -7,-2.18 -3.23,0 -7.11,0.89 -11.7,2.59l-2.41 -6.35 47.45 -19.4 7.59 0z"/>
  <path id="3" class="fil6" d="M2385.18 17438.74c0,-26.64 4,-49.51 12.05,-68.74 8.06,-19.22 18.7,-33.57 32.05,-42.98 10.29,-7.47 20.99,-11.17 31.98,-11.17 17.94,0 33.99,9.11 48.22,27.34 17.81,22.64 26.69,53.27 26.69,91.96 0,27.05 -3.88,50.09 -11.7,69.03 -7.82,18.93 -17.76,32.63 -29.87,41.21 -12.11,8.53 -23.81,12.82 -35.04,12.82 -22.29,0 -40.81,-13.11 -55.62,-39.39 -12.53,-22.17 -18.76,-48.86 -18.76,-80.08zm33.87 4.23c0,32.1 3.94,58.33 11.82,78.67 6.52,17.11 16.28,25.63 29.22,25.63 6.17,0 12.58,-2.76 19.22,-8.34 6.65,-5.59 11.65,-14.88 15.11,-27.99 5.24,-19.7 7.88,-47.57 7.88,-83.43 0,-26.64 -2.76,-48.86 -8.23,-66.62 -4.11,-13.23 -9.46,-22.58 -15.99,-28.05 -4.65,-3.82 -10.35,-5.7 -16.99,-5.7 -7.76,0 -14.7,3.53 -20.76,10.52 -8.23,9.53 -13.87,24.46 -16.81,44.92 -3,20.41 -4.47,40.52 -4.47,60.39z"/>
  <path id="4" class="fil6" d="M2561.57 17438.74c0,-26.64 4,-49.51 12.05,-68.74 8.06,-19.22 18.7,-33.57 32.05,-42.98 10.29,-7.47 20.99,-11.17 31.98,-11.17 17.94,0 33.99,9.11 48.22,27.34 17.81,22.64 26.69,53.27 26.69,91.96 0,27.05 -3.88,50.09 -11.7,69.03 -7.82,18.93 -17.76,32.63 -29.87,41.21 -12.11,8.53 -23.81,12.82 -35.04,12.82 -22.29,0 -40.81,-13.11 -55.62,-39.39 -12.53,-22.17 -18.76,-48.86 -18.76,-80.08zm33.87 4.23c0,32.1 3.94,58.33 11.82,78.67 6.52,17.11 16.28,25.63 29.22,25.63 6.17,0 12.58,-2.76 19.22,-8.34 6.65,-5.59 11.65,-14.88 15.11,-27.99 5.24,-19.7 7.88,-47.57 7.88,-83.43 0,-26.64 -2.76,-48.86 -8.23,-66.62 -4.11,-13.23 -9.46,-22.58 -15.99,-28.05 -4.65,-3.82 -10.35,-5.7 -16.99,-5.7 -7.76,0 -14.7,3.53 -20.76,10.52 -8.23,9.53 -13.87,24.46 -16.81,44.92 -3,20.41 -4.47,40.52 -4.47,60.39z"/>
  <path class="fil6" d="M1213.27 17652.06c0,-17.45 4.47,-34.48 13.46,-51.13 8.93,-16.61 21.77,-29.59 38.43,-38.86 16.69,-9.26 34.1,-13.92 52.16,-13.92 17.92,0 35.18,4.56 51.69,13.74 16.56,9.12 29.4,21.92 38.53,38.43 9.17,16.51 13.73,33.77 13.73,51.74 0,18.01 -4.56,35.27 -13.73,51.78 -9.13,16.51 -21.97,29.35 -38.53,38.53 -16.51,9.17 -33.77,13.78 -51.69,13.78 -18.06,0 -35.47,-4.66 -52.16,-13.97 -16.66,-9.36 -29.5,-22.34 -38.43,-38.95 -8.99,-16.65 -13.46,-33.68 -13.46,-51.17zm17.22 0c0,14.62 3.76,28.88 11.24,42.7 7.48,13.83 18.2,24.65 32.13,32.46 13.92,7.81 28.41,11.71 43.46,11.71 15,0 29.35,-3.85 43.08,-11.52 13.74,-7.67 24.46,-18.39 32.13,-32.17 7.67,-13.79 11.52,-28.18 11.52,-43.18 0,-14.96 -3.85,-29.36 -11.52,-43.14 -7.67,-13.78 -18.39,-24.5 -32.13,-32.12 -13.73,-7.62 -28.08,-11.43 -43.08,-11.43 -15.05,0 -29.54,3.9 -43.46,11.66 -13.93,7.76 -24.65,18.58 -32.13,32.46 -7.48,13.87 -11.24,28.08 -11.24,42.57zm103.57 -33.35l5.08 -16.94c11.53,2.78 20.7,8.61 27.52,17.55 6.87,8.98 10.3,19.85 10.3,32.59 0,16.19 -5.22,29.31 -15.71,39.42 -10.49,10.11 -24.98,15.15 -43.55,15.15 -12.14,0 -22.68,-2.31 -31.61,-6.92 -8.99,-4.56 -15.71,-11.15 -20.28,-19.61 -4.56,-8.52 -6.82,-18.25 -6.82,-29.16 0,-12.23 2.92,-22.39 8.8,-30.48 5.88,-8.09 13.88,-13.6 23.94,-16.56l4.23 16.37c-6.91,2.77 -12.23,6.82 -15.89,12.23 -3.72,5.41 -5.55,11.71 -5.55,19 0,10.58 3.76,19.33 11.28,26.2 7.53,6.87 18.35,10.3 32.37,10.3 14.06,0 24.69,-3.24 31.89,-9.74 7.19,-6.49 10.81,-14.86 10.81,-25.16 0,-8.28 -2.39,-15.57 -7.24,-21.83 -4.8,-6.25 -11.33,-10.39 -19.57,-12.41z"/>
  <path id="1" class="fil6" d="M1418.73 17356.9l-18.58 0c14.44,9.27 21.68,22.91 21.68,40.92 0,11.67 -3.19,22.39 -9.64,32.13 -6.4,9.78 -15.38,17.35 -26.86,22.76 -11.52,5.37 -24.74,8.05 -39.69,8.05 -14.59,0 -27.8,-2.45 -39.7,-7.29 -11.86,-4.9 -20.98,-12.19 -27.29,-21.92 -6.35,-9.69 -9.5,-20.61 -9.5,-32.6 0,-8.84 1.88,-16.7 5.6,-23.56 3.72,-6.87 8.61,-12.47 14.58,-16.8l-72.67 0 0 -24.83 202.07 0 0 23.14zm-73.05 78.46c18.72,0 32.69,-3.95 41.96,-11.9 9.26,-7.91 13.87,-17.27 13.87,-28.04 0,-10.86 -4.42,-20.08 -13.26,-27.7 -8.84,-7.57 -22.34,-11.38 -40.5,-11.38 -19.94,0 -34.62,3.85 -43.98,11.61 -9.36,7.72 -14.01,17.27 -14.01,28.6 0,11.06 4.46,20.27 13.45,27.71 8.98,7.38 23.14,11.1 42.47,11.1z"/>
  <path id="2" class="fil6" d="M1358.05 17304.36l-24.83 0 0 -76.76 24.83 0 0 76.76z"/>
  <path id="3" class="fil6" d="M1418.73 17200.5l-146.47 0 0 -22.29 20.69 0c-7.15,-4.56 -12.93,-10.68 -17.26,-18.3 -4.37,-7.62 -6.54,-16.27 -6.54,-26.01 0,-10.82 2.26,-19.71 6.73,-26.62 4.52,-6.92 10.77,-11.81 18.86,-14.63 -17.07,-11.67 -25.59,-26.77 -25.59,-45.39 0,-14.58 4,-25.83 12.04,-33.63 8.05,-7.86 20.42,-11.81 37.12,-11.81l100.42 0 0 24.84 -92.19 0c-9.88,0 -17.03,0.84 -21.4,2.44 -4.38,1.6 -7.86,4.52 -10.54,8.8 -2.68,4.23 -4,9.22 -4,14.91 0,10.35 3.44,18.91 10.26,25.73 6.86,6.82 17.82,10.2 32.87,10.2l85 0 0 24.84 -95.06 0c-11.01,0 -19.29,2.02 -24.79,6.07 -5.5,4.04 -8.28,10.67 -8.28,19.85 0,6.96 1.84,13.4 5.51,19.33 3.66,5.93 9.03,10.21 16.13,12.89 7.05,2.63 17.26,3.95 30.57,3.95l75.92 0 0 24.83z"/>
  <path id="4" class="fil6" d="M1400.39 16869.74c7.85,9.22 13.35,18.11 16.6,26.62 3.25,8.52 4.84,17.64 4.84,27.43 0,16.08 -3.9,28.45 -11.75,37.11 -7.81,8.65 -17.83,12.98 -30.01,12.98 -7.15,0 -13.69,-1.65 -19.62,-4.89 -5.93,-3.29 -10.63,-7.57 -14.2,-12.84 -3.58,-5.32 -6.31,-11.24 -8.14,-17.88 -1.27,-4.89 -2.49,-12.27 -3.72,-22.1 -2.35,-20.04 -5.22,-34.86 -8.51,-44.31 -3.39,-0.1 -5.55,-0.14 -6.44,-0.14 -10.07,0 -17.17,2.35 -21.31,7.05 -5.6,6.35 -8.37,15.81 -8.37,28.32 0,11.71 2.07,20.36 6.16,25.92 4.09,5.59 11.38,9.68 21.78,12.37l-3.39 24.27c-10.4,-2.21 -18.82,-5.84 -25.21,-10.92 -6.4,-5.08 -11.29,-12.41 -14.77,-22.01 -3.44,-9.55 -5.18,-20.7 -5.18,-33.3 0,-12.51 1.46,-22.72 4.42,-30.57 2.97,-7.81 6.64,-13.6 11.11,-17.27 4.46,-3.67 10.11,-6.25 16.93,-7.76 4.23,-0.8 11.85,-1.22 22.81,-1.22l32.93 0c23,0 37.53,-0.52 43.69,-1.55 6.17,-0.99 12.05,-3.06 17.69,-6.07l0 25.96c-5.22,2.5 -11.34,4.1 -18.34,4.8zm-55.04 1.98c3.67,9.03 6.78,22.57 9.32,40.64 1.45,10.25 3.1,17.49 4.93,21.73 1.84,4.23 4.52,7.48 8,9.78 3.53,2.31 7.43,3.48 11.76,3.48 6.54,0 12.04,-2.49 16.42,-7.52 4.37,-5.04 6.58,-12.38 6.58,-22.02 0,-9.55 -2.07,-18.06 -6.25,-25.54 -4.14,-7.43 -9.84,-12.93 -17.03,-16.41 -5.6,-2.69 -13.83,-4 -24.7,-4l-9.03 -0.14z"/>
  <path id="5" class="fil6" d="M1474.89 16808.45l-202.63 0 0 -22.57 19.24 0c-7.44,-5.32 -13.03,-11.34 -16.75,-18.07 -3.72,-6.68 -5.6,-14.81 -5.6,-24.36 0,-12.51 3.2,-23.52 9.65,-33.07 6.39,-9.55 15.47,-16.74 27.14,-21.63 11.71,-4.85 24.5,-7.3 38.47,-7.3 14.91,0 28.37,2.69 40.36,8.05 11.95,5.36 21.12,13.17 27.52,23.42 6.35,10.21 9.54,20.98 9.54,32.27 0,8.28 -1.74,15.71 -5.22,22.25 -3.48,6.58 -7.85,11.94 -13.17,16.18l71.45 0 0 24.83zm-128.5 -22.57c18.77,0 32.69,-3.81 41.67,-11.39 8.99,-7.62 13.45,-16.84 13.45,-27.65 0,-11.01 -4.65,-20.42 -13.97,-28.23 -9.31,-7.85 -23.7,-11.76 -43.22,-11.76 -18.63,0 -32.55,3.81 -41.82,11.48 -9.26,7.67 -13.87,16.79 -13.87,27.42 0,10.54 4.94,19.85 14.77,27.94 9.87,8.14 24.17,12.19 42.99,12.19z"/>
  <path id="6" class="fil6" d="M1374.99 16661.37l-3.96 -24.55c9.84,-1.37 17.36,-5.22 22.63,-11.53 5.22,-6.3 7.85,-15.14 7.85,-26.43 0,-11.43 -2.3,-19.9 -6.96,-25.45 -4.61,-5.5 -10.06,-8.28 -16.32,-8.28 -5.6,0 -10.02,2.5 -13.22,7.44 -2.21,3.48 -4.98,11.94 -8.42,25.4 -4.56,18.15 -8.51,30.71 -11.85,37.77 -3.39,7 -7.99,12.32 -13.92,15.94 -5.88,3.62 -12.42,5.46 -19.57,5.46 -6.54,0 -12.56,-1.51 -18.11,-4.47 -5.55,-3.01 -10.16,-7.06 -13.83,-12.18 -2.82,-3.86 -5.22,-9.13 -7.19,-15.76 -1.98,-6.68 -2.97,-13.78 -2.97,-21.4 0,-11.48 1.65,-21.54 4.99,-30.2 3.29,-8.7 7.81,-15.1 13.45,-19.24 5.69,-4.09 13.27,-6.96 22.77,-8.51l3.38 24.27c-7.62,1.08 -13.59,4.28 -17.87,9.55 -4.28,5.27 -6.4,12.7 -6.4,22.34 0,11.34 1.88,19.47 5.65,24.32 3.76,4.84 8.18,7.29 13.21,7.29 3.2,0 6.12,-0.99 8.71,-3.01 2.63,-2.02 4.84,-5.18 6.58,-9.5 0.94,-2.5 3.06,-9.74 6.35,-21.87 4.66,-17.5 8.52,-29.73 11.48,-36.69 2.96,-6.96 7.34,-12.42 12.98,-16.37 5.69,-4 12.75,-5.98 21.21,-5.98 8.24,0 16,2.4 23.29,7.25 7.29,4.84 12.93,11.8 16.93,20.88 4,9.13 5.97,19.43 5.97,30.91 0,19 -3.95,33.53 -11.8,43.5 -7.9,9.98 -19.57,16.33 -35.04,19.1z"/>
  <path id="7" class="fil6" d="M1418.73 16503.33l-28.22 0 0 -28.22 28.22 0 0 28.22z"/>
  <path id="8" class="fil6" d="M1365.11 16336.3l3.38 -24.27c16.7,2.68 29.73,9.45 39.19,20.41 9.45,10.96 14.15,24.46 14.15,40.41 0,19.99 -6.53,36.08 -19.61,48.21 -13.08,12.18 -31.8,18.25 -56.16,18.25 -15.81,0 -29.59,-2.63 -41.39,-7.85 -11.86,-5.22 -20.75,-13.17 -26.63,-23.9 -5.92,-10.68 -8.89,-22.29 -8.89,-34.9 0,-15.85 4,-28.88 12.04,-38.95 8.05,-10.11 19.48,-16.6 34.25,-19.42l3.67 23.99c-9.83,2.3 -17.22,6.35 -22.2,12.23 -4.94,5.83 -7.44,12.88 -7.44,21.16 0,12.51 4.47,22.67 13.41,30.53 8.98,7.81 23.09,11.71 42.47,11.71 19.66,0 33.92,-3.76 42.81,-11.29 8.89,-7.57 13.35,-17.4 13.35,-29.49 0,-9.78 -2.96,-17.92 -8.93,-24.41 -5.93,-6.54 -15.1,-10.68 -27.47,-12.42z"/>
  <path id="9" class="fil6" d="M1345.49 16300.18c-27.04,0 -47.08,-7.53 -60.11,-22.63 -10.82,-12.56 -16.23,-27.94 -16.23,-46.05 0,-20.08 6.59,-36.54 19.76,-49.34 13.12,-12.75 31.33,-19.14 54.51,-19.14 18.82,0 33.59,2.82 44.36,8.46 10.77,5.65 19.14,13.88 25.12,24.7 5.97,10.77 8.93,22.58 8.93,35.32 0,20.51 -6.53,37.07 -19.66,49.72 -13.12,12.65 -32.03,18.96 -56.68,18.96zm0.05 -25.4c18.72,0 32.74,-4.1 42,-12.28 9.32,-8.23 13.97,-18.53 13.97,-31 0,-12.32 -4.65,-22.57 -14.01,-30.81 -9.36,-8.18 -23.61,-12.27 -42.76,-12.27 -18.06,0 -31.75,4.14 -41.01,12.37 -9.32,8.23 -13.97,18.48 -13.97,30.71 0,12.47 4.61,22.77 13.87,31 9.27,8.18 23.24,12.28 41.91,12.28z"/>
  <path id="10" class="fil6" d="M1418.73 16133.9l-146.47 0 0 -22.29 20.69 0c-7.15,-4.56 -12.93,-10.68 -17.26,-18.3 -4.37,-7.62 -6.54,-16.27 -6.54,-26.01 0,-10.82 2.26,-19.71 6.73,-26.62 4.52,-6.92 10.77,-11.81 18.86,-14.63 -17.07,-11.67 -25.59,-26.77 -25.59,-45.39 0,-14.58 4,-25.83 12.04,-33.63 8.05,-7.86 20.42,-11.81 37.12,-11.81l100.42 0 0 24.84 -92.19 0c-9.88,0 -17.03,0.84 -21.4,2.44 -4.38,1.6 -7.86,4.52 -10.54,8.8 -2.68,4.23 -4,9.22 -4,14.91 0,10.35 3.44,18.91 10.26,25.73 6.86,6.82 17.82,10.2 32.87,10.2l85 0 0 24.84 -95.06 0c-11.01,0 -19.29,2.02 -24.79,6.07 -5.5,4.04 -8.28,10.67 -8.28,19.85 0,6.96 1.84,13.4 5.51,19.33 3.66,5.93 9.03,10.21 16.13,12.89 7.05,2.63 17.26,3.95 30.57,3.95l75.92 0 0 24.83z"/>
  <g id="_1795504713840">
   <path class="fil7 str7" d="M1732.45 16763.28l604.36 0 0 99.16 -604.36 0 0 -99.16z"/>
   <path class="fil8 str7" d="M2336.81 16763.28l604.37 0 0 99.16 -604.37 0 0 -99.16z"/>
   <path class="fil7 str7" d="M2941.17 16763.28l604.37 0 0 99.16 -604.37 0 0 -99.16z"/>
   <path class="fil8 str7" d="M3545.68 16763.28l604.37 0 0 99.16 -604.37 0 0 -99.16z"/>
   <path class="fil7 str7" d="M2701.18 17062.22l966.62 0 0 99.16 -966.62 0 0 -99.16z"/>
   <path class="fil8 str7" d="M1734.56 17062.22l966.62 0 0 99.16 -966.62 0 0 -99.16z"/>
  </g>
  <rect class="fil2 str8" x="1000" y="1000" width="27700" height="16982.04"/>
 </g>
</svg>
