<?xml version="1.0" encoding="UTF-8"?>
<!DOCTYPE svg PUBLIC "-//W3C//DTD SVG 1.1//EN" "http://www.w3.org/Graphics/SVG/1.1/DTD/svg11.dtd">
<!-- Creator: CorelDRAW -->
<svg xmlns="http://www.w3.org/2000/svg" xml:space="preserve" width="297mm" height="210mm" version="1.1" style="shape-rendering:geometricPrecision; text-rendering:geometricPrecision; image-rendering:optimizeQuality; fill-rule:evenodd; clip-rule:evenodd"
viewBox="0 0 29700 21000"
 xmlns:xlink="http://www.w3.org/1999/xlink">
 <defs>
  <style type="text/css">
   <![CDATA[
    .str1 {stroke:black;stroke-width:10;stroke-opacity:0.501961}
    .str3 {stroke:black;stroke-width:50}
    .str5 {stroke:#434242;stroke-width:10}
    .str2 {stroke:black;stroke-width:10}
    .str0 {stroke:#000066;stroke-width:10}
    .str6 {stroke:#2B2A29;stroke-width:7.62}
    .str4 {stroke:black;stroke-width:7.62}
    .fil7 {fill:none}
    .fil0 {fill:#FEFEFE}
    .fil9 {fill:#D9DADA}
    .fil1 {fill:white}
    .fil5 {fill:#FEFEFE;fill-rule:nonzero}
    .fil4 {fill:#D9DADA;fill-rule:nonzero}
    .fil8 {fill:#434242;fill-rule:nonzero}
    .fil6 {fill:#2B2A29;fill-rule:nonzero}
    .fil3 {fill:black;fill-rule:nonzero}
    .fil2 {fill:#FEFEFE;fill-rule:nonzero;fill-opacity:0.501961}
   ]]>
  </style>
 </defs>
 <g id="Plan_x0020_1">
  <metadata id="CorelCorpID_0Corel-Layer"/>
  <rect class="fil0" x="1000" y="1000" width="27700" height="18717"/>
  <path class="fil1 str0" d="M19199 19717l-13262 0 -161 -155c-43,-54 -126,-100 -177,-149l-160 -153c-91,-87 -149,-256 -187,-374l-118 -163c-44,-60 -113,-113 -169,-165l-356 -330c-28,-39 -73,-62 -106,-102l-100 -121c-75,-91 -214,-131 -294,-211 -69,-69 -70,-80 -70,-179 0,-58 18,-122 1,-178 -17,-56 -65,-88 -100,-132 -64,-81 -144,-185 -88,-290 43,-82 56,-69 36,-164 -50,-133 -102,-242 -250,-272l-31 -77c-12,-29 -56,-32 -74,-71 -37,-83 -113,-140 -195,-178 -57,-33 -116,-89 -175,-113l-182 -75c-32,-13 -5,-59 -59,-37 -12,5 -106,-35 -122,-44 -71,-40 -157,-62 -230,-96 -66,-13 -116,-28 -188,-28 -65,0 -61,-75 -61,-122 0,-56 -1,-34 -45,-49 0,-33 -14,-57 -20,-87 -17,-6 -36,-22 -58,-27 -8,-31 14,-56 -26,-63 -38,-7 -93,-19 -130,-17 -43,0 -62,-22 -100,7 -45,34 -27,-10 -50,-7 -7,1 -111,104 -111,127 -22,0 -43,-35 -77,-35 -38,0 -49,39 -88,32 -112,-22 -92,-155 -142,-169 -51,-14 -63,95 -97,95l0 -2c-13,-3 -41,-69 -49,-82 -11,-17 -76,-69 -59,-74 100,-28 101,-74 74,-169 -5,-61 -11,-113 -74,-126 -52,-11 -89,-36 -133,-47 0,-9 30,-15 34,-29 8,-2 9,-32 10,-39 4,-18 12,-25 24,-37 24,-24 41,-45 41,-81 1,0 1,-1 3,-2 10,6 85,21 88,7 6,-1 5,-5 5,-9 -57,-19 -94,-41 -81,-103 19,-92 -17,-155 -32,-238 -23,-61 -59,-71 -59,-146 0,-75 -48,-51 -92,-51l-1 -1c0,-30 -1,-47 6,-77 8,-35 48,-47 48,-95 0,-100 -33,-172 -73,-258l-58 -37 0 -12514c63,29 112,84 168,125 62,45 128,32 189,63 165,83 325,177 435,328 33,29 59,74 105,79 32,3 80,44 104,64 21,18 46,25 51,55 7,39 61,23 90,43 19,13 28,29 43,47 16,18 40,25 55,40 86,41 189,53 271,92 29,14 51,64 79,90 23,21 86,37 115,44 14,57 104,248 160,273 27,49 117,145 166,173 52,29 82,42 145,42 73,0 151,54 233,62 90,8 162,18 229,85 46,19 72,57 115,80 26,14 87,18 118,18 75,225 166,311 331,476 66,36 123,99 187,138 43,26 72,95 99,137 47,73 188,140 269,174 106,43 94,95 71,188 -7,72 -17,151 5,219 16,49 17,99 25,149 4,27 5,70 -15,91 -12,12 -38,11 -37,32 6,98 10,136 -64,210 -33,11 -74,71 -82,104 -22,93 61,133 148,139 25,2 152,0 88,40 -41,25 -72,60 -62,111 9,49 34,50 73,68 56,26 92,51 9,75 -33,9 -43,56 -43,86 31,0 121,-58 142,-82 59,-64 -60,-100 -88,-132 6,6 -22,-30 -29,-36 -28,-25 38,-26 55,-45 46,-50 -20,-144 -61,-174 -28,-20 -119,-4 -157,-14 36,-27 115,-63 158,-81 46,-19 118,-62 154,-98 5,22 62,80 81,95 48,38 93,77 114,140 13,81 27,152 27,236 0,93 -1,148 36,233 -6,89 166,222 88,300 -38,38 -103,58 -148,86 -41,25 -97,91 -67,146 7,14 23,64 34,67 -21,-7 3,-127 12,-144 46,-87 154,-110 236,-137 9,-3 77,-14 80,-8 13,23 -102,96 -36,157 34,32 109,-27 142,9 32,36 46,146 120,103 23,-14 58,-13 68,12 6,16 -27,42 -36,52 30,3 66,-2 61,-40 -5,-34 -38,-50 -49,-74 -20,0 -24,9 -38,11 -6,12 -46,9 -55,-1 -27,-31 -21,-81 -64,-96 -29,-10 -61,-2 -89,-14 -70,-29 35,-64 35,-114 0,-58 -96,-60 -101,-144 -77,-92 -87,-180 -109,-295 -10,-51 -7,-120 4,-170 6,-27 14,-51 26,-77 6,-14 34,-54 35,-63 3,-2 2,-1 3,-4 16,-13 35,-47 52,-64 69,-35 145,-75 228,-47 129,44 99,149 146,245 17,34 62,55 85,98l62 118c45,44 49,99 113,117 87,24 108,122 125,202 18,85 63,153 83,235 2,27 -2,104 13,123 46,59 47,140 66,209 23,83 73,138 107,215 42,92 106,202 175,275 100,105 185,235 302,323 50,5 146,84 185,117 82,68 146,125 254,154 83,22 156,38 156,138 17,-4 27,-80 79,-82 57,-3 72,23 115,53 76,31 147,77 223,107 37,15 73,36 109,53 37,17 59,48 91,68 48,39 82,75 121,123 31,39 46,76 86,108 91,74 183,230 190,347 10,65 11,104 11,171 0,71 72,58 74,106 3,53 71,253 153,216 59,-26 90,-67 159,-30 110,59 -74,159 39,192 73,21 112,-100 222,-63 -19,-59 -95,-38 -125,-5 -18,20 -108,66 -108,16 0,-38 78,-60 39,-109 -69,-86 -96,-109 -195,-60 -69,34 -135,-19 -94,-92 38,-69 133,-205 -18,-219 -58,-6 -51,-61 -51,-108 0,-57 -49,-112 -64,-172 -37,-146 -31,-334 -151,-437 -57,-49 -63,-94 -143,-106 -31,-5 -152,-137 -157,-166 -7,-52 -12,-132 -25,-182 -8,-31 -88,-223 -82,-236 5,-10 36,-16 47,-30 54,-72 111,-135 182,-191l378 -67c66,-12 156,-24 222,-12 61,11 123,40 189,31 24,-5 73,5 73,-32 -22,-7 -51,-10 -75,-17 -5,-2 -30,-17 -20,-23 5,-3 63,6 74,7 18,3 35,-5 52,-3 10,1 48,54 60,64 16,15 47,20 49,46 9,85 34,228 97,291 120,70 212,185 314,283 98,94 224,158 346,213 81,18 146,29 185,110 26,52 78,48 108,101 37,65 69,153 69,230 0,35 14,73 26,104 16,44 8,112 8,159 -3,52 17,109 36,157 16,39 12,79 26,118 18,49 53,101 61,150 9,60 -28,114 -6,182 69,131 139,331 300,380 61,19 194,-10 229,24 37,37 117,140 172,145 127,30 252,73 381,14 57,-26 127,-69 189,-79 71,-12 155,-12 222,-29 57,-5 158,-2 201,35 19,16 28,38 55,46 56,17 70,22 102,74 43,69 79,87 139,132 30,22 118,110 147,115 89,30 216,162 283,229 86,86 195,191 292,264 63,68 164,109 238,166 97,74 207,137 323,174 120,39 118,142 90,256 -18,79 -38,160 -11,237 25,71 30,177 24,253 0,29 9,72 2,99 -11,39 -46,52 -42,100 3,32 28,80 -2,108 -42,40 -80,1 -124,49 -10,10 -72,83 -72,89 43,0 50,-38 74,-65 46,-52 105,-8 151,-46 31,-26 19,-210 34,-264 9,-32 37,-68 39,-98 2,-29 -2,-60 -2,-89 61,0 130,153 136,202 16,126 -76,258 -45,392 7,51 34,103 45,154 17,81 39,140 74,216 42,89 128,136 180,215 125,61 229,136 318,242 43,51 94,105 128,161 37,62 122,114 151,173 19,29 153,143 188,143 113,0 162,118 273,126 105,8 247,76 349,50 70,-16 129,-47 197,-65 242,-64 406,113 640,90 60,-13 147,-16 209,-16 121,0 182,-12 266,87 25,30 54,74 73,109 20,39 63,71 88,105 58,119 186,171 258,279 57,85 88,281 177,331 68,10 135,85 178,132 35,38 34,105 34,154 -2,2 -2,3 -4,5 -83,0 -222,82 -294,126 -45,27 -84,69 -130,91 -25,12 -53,14 -78,27 -36,18 -67,46 -108,54 -88,35 -113,62 -167,133 -39,52 -102,45 -163,59 -103,23 -263,73 -341,143 -81,72 -169,128 -279,155 -66,14 -115,45 -177,67 -127,45 -229,-2 -333,112 -43,47 -78,123 -101,181 -25,62 -78,22 -111,-9 -73,-68 -159,-34 -195,-150 -20,-64 -75,-202 -149,-119 -107,55 -193,-153 -262,12 -41,99 -147,151 -253,108 -87,-35 -134,-53 -162,-150 -12,-43 -17,-131 -66,-140 -86,-17 -131,-60 -225,-60 -46,0 -68,-3 -88,-49 -21,-47 -81,-25 -121,-49 7,20 55,45 72,63 23,25 23,56 63,56 66,0 276,31 295,92 27,87 104,249 211,261 74,2 160,42 232,4 51,-27 85,-153 128,-136 49,19 56,88 123,49 50,-29 47,-44 92,5 82,89 122,269 270,269 75,-21 100,80 166,55 56,-21 47,-86 62,-130 31,-88 133,-171 228,-171 140,0 243,26 378,-35 51,-26 103,-49 149,-82 58,-42 157,8 230,8 58,0 120,-30 169,-60l196 -121c27,-13 58,-3 88,-18 155,-74 268,-210 415,-292 75,-42 118,-75 207,-75 84,0 149,-17 217,-68 68,-36 109,-151 142,-219 29,-60 12,-94 88,-119l336 -112c103,-34 115,-83 169,-159 2,0 10,-6 12,-7 51,0 101,22 149,22 60,0 135,20 190,44 66,28 165,122 218,173 70,67 120,165 225,188 50,1 94,57 125,90 52,55 153,86 183,154 31,69 62,174 62,249 -4,26 10,90 -24,98 -48,11 -108,-35 -152,-6 -11,7 -66,91 -66,101 38,0 74,-56 117,-60l83 -7c33,-3 48,51 53,77 8,40 -71,53 -99,58 28,-7 128,21 128,-32 0,-55 -43,-72 -14,-125 23,-41 -7,-173 15,-192 9,-8 37,12 48,13 35,2 73,-2 107,4 42,7 58,25 91,45l124 125 99 90c40,37 90,122 115,172 31,63 53,125 53,197 -4,42 15,90 13,137 -3,86 7,192 24,275 21,100 68,181 99,275 84,209 -202,161 -337,184l-219 37c-16,3 -93,-15 -77,11 15,25 44,48 44,77 0,37 -58,-27 -63,-32 -16,-12 -20,-39 -35,-53 -55,-49 -66,-18 -26,34 76,99 60,97 -45,64 -28,-8 -46,-56 -70,-73 -25,-18 -53,-2 -72,-23 -24,-23 -121,-167 -139,-167 0,65 82,131 82,187 -56,0 -126,-195 -191,-211 0,77 99,170 137,237 26,46 127,-8 115,59 -7,40 -59,77 -88,39 -49,-63 -156,33 -208,-65 -13,-25 -124,-152 -148,-152 0,53 132,137 132,211 0,66 134,53 182,53 -7,28 -203,22 -228,9 -46,-23 -72,-98 -126,-128 -80,-45 -115,-118 -187,-166 -8,-5 -87,-42 -74,-26 16,19 75,93 75,118 -21,0 -105,-87 -137,-104 -25,-12 -54,-20 -75,-37 -12,-10 -68,-28 -69,-24 22,4 109,94 142,114 51,30 90,61 128,107 53,65 160,50 189,145 6,21 40,114 -1,84 -11,-8 -73,-44 -61,-7 4,13 84,66 23,77 -21,4 -50,-51 -61,-71 -18,-33 -66,-59 -99,-77l-110 -83 -54 -35c-31,-21 31,54 32,55 33,40 89,85 132,115 26,18 80,73 95,101 41,74 136,50 195,108 43,43 15,71 -18,104 -7,7 -71,49 -78,50 -21,3 -50,-43 -68,-63 -44,-49 -214,-78 -277,-78 20,81 134,65 191,89 28,12 116,87 73,115 -92,46 -162,162 -261,181l-284 55c-63,12 -143,-10 -202,14 -83,33 -114,119 -210,119 -42,0 -85,-23 -133,-25 -60,-2 -102,13 -158,17 -45,13 -164,82 -188,120 -33,52 -51,84 -69,143 -43,142 -72,76 -179,41 -59,-19 -196,-11 -196,76 21,0 77,-30 106,-35 115,-18 212,97 297,-51 57,-99 172,-272 305,-272 40,-9 69,18 102,28 35,11 78,10 115,12 11,1 75,35 75,42 -28,7 -59,-1 -90,1 -62,5 -137,52 -190,83l-98 57c-32,19 -68,63 -102,74 -47,40 -80,98 -124,144 -91,95 -209,142 -311,225 -73,59 -168,163 -258,186 0,4 42,6 48,5 76,-14 160,-117 225,-160 135,-90 259,-101 340,-252 56,-105 261,-200 366,-253 69,-22 132,-55 207,-57 66,-2 75,43 114,80 45,42 129,57 161,107 15,24 -23,65 -32,88 -6,16 -6,34 -6,51 0,28 21,41 23,61 17,32 53,52 68,89 23,56 -100,50 -134,95 -23,30 -39,37 -74,53 -14,7 -77,21 -77,31 61,15 137,5 187,-33 48,-36 51,-52 113,-33 45,14 136,-37 165,7 18,27 17,82 21,114 8,61 25,107 51,163 20,51 89,109 146,109 16,65 -28,238 -89,274 -49,29 -112,3 -162,34 -42,26 -92,76 -128,112 -122,171 -302,146 -496,163 -82,7 -166,-16 -247,5l-157 40c38,28 197,8 248,8 127,0 222,15 342,45 81,20 245,42 326,17 55,-3 110,-15 164,-5 -27,20 -86,21 -120,39 -64,33 -125,63 -199,63 -9,0 -66,-6 -51,1 58,26 95,51 162,29 58,-19 203,-103 243,-43 39,57 165,73 229,77l190 90 -295 0zm-10373 -11113c-21,-32 -44,-40 -78,-47 -11,-2 -65,-29 -54,6 8,27 31,28 49,45 17,16 31,40 38,62 4,11 12,15 22,7 15,-11 16,-20 16,-40l7 -33zm-412 -639c-30,-37 -60,-75 -82,-116 -13,-24 -107,-156 -20,-126 88,31 193,160 248,233 29,38 26,87 33,132 3,22 7,38 13,59 2,6 12,49 4,51 -7,-21 -48,-82 -65,-100 -29,-29 -96,-75 -110,-107l-20 -27zm-409 -641c-22,-44 -46,-103 -50,-153 -5,-54 -10,-133 48,-158 33,-14 45,-17 47,25 2,64 10,100 36,156 19,40 38,60 38,108 0,30 57,225 37,240l-2 -1c-3,-16 -55,-50 -68,-63 -27,-27 -62,-72 -75,-107l-11 -47zm91 -291c0,-50 15,-85 54,-117 8,-6 74,-46 75,-22 2,29 -16,51 -26,77 -12,30 -36,57 -56,82 -8,9 -20,23 -24,35 -2,4 -7,12 -12,12 -9,0 -7,-25 -7,-32l-4 -35zm-462 305c-22,-26 -58,-42 -75,-73 -17,-30 -40,-69 -31,-105 14,0 33,21 46,28 31,19 73,18 100,39 20,16 23,38 37,59 20,29 25,51 37,82 22,58 -74,14 -91,-4l-22 -27zm3621 1951c91,36 276,67 377,75 128,10 115,-7 208,-91 53,-48 104,-66 168,-92 75,-31 106,-112 193,-112l1 -1 34 -325c10,-125 52,-221 121,-321 23,-34 -9,-36 7,-58 107,-146 -24,-213 -78,-336 -6,-36 -90,-125 -129,-125 -67,0 -45,-85 -61,-142 -37,-127 -218,-240 -334,-143 -41,34 -54,26 -98,44 -21,8 -32,24 -53,32 -65,65 -80,138 -181,153 -93,14 -153,-34 -235,-30 -102,5 -440,129 -440,253 0,70 25,290 -26,334 -42,103 29,167 80,250 24,40 39,94 52,139 17,57 38,112 46,171 46,75 57,145 86,224 15,42 34,49 77,54 57,6 106,16 161,33l25 15zm4110 1412c-5,95 -5,243 28,332 23,62 37,153 37,218 -14,0 -147,-102 -163,-118 -75,-70 -170,-120 -250,-183 -53,-41 -115,-86 -145,-148 -70,-106 -203,-173 -281,-271 -58,-73 -163,-101 -255,-82 -238,-15 -501,-17 -681,-194l-126 -124c-81,-40 -270,-351 -270,-446 140,0 244,3 382,35 167,38 274,152 460,152l145 30c81,17 164,6 242,32 35,11 73,34 110,35l166 7c144,-13 232,71 360,93 108,18 103,39 177,113 55,55 133,147 58,216 -68,63 14,30 12,92l-5 176 -1 33zm-102 875c-24,45 -26,120 -42,171 -14,45 -39,89 -54,133 -37,113 -19,159 23,263 20,50 64,110 74,160 19,36 84,178 72,218 -18,59 -123,-37 -169,-15 -42,20 -62,76 -101,108 -64,54 -112,47 -184,12 -85,-41 -124,-152 -203,-196 -38,-44 -85,-57 -132,-87 -51,-32 -75,-90 -105,-139 -68,-108 -111,-235 -129,-361 -6,-43 39,-130 47,-180 0,-85 1,-164 -33,-244 -26,-61 -72,-118 -86,-185 -8,-38 -48,-79 -63,-117 -32,-62 14,-111 49,-151 68,-78 28,-219 -13,-300 -59,-118 6,-98 98,-98 63,0 140,-23 198,-14 56,9 150,143 191,187 30,32 79,52 111,84 34,34 56,88 92,117 29,67 125,78 169,128 22,25 59,38 84,63 38,40 217,178 191,244 -1,3 -167,5 -83,41 60,26 32,98 7,141l-7 16zm1931 1679c52,70 138,111 182,187 22,38 55,139 88,159 33,19 93,3 129,2 71,-3 53,-45 97,-85 27,-25 32,-20 32,-63 0,-38 11,-73 12,-109 18,-111 32,-285 -76,-354 -85,-54 -177,-101 -237,-181 -101,-47 -191,-153 -283,-218 -96,-68 -194,-103 -304,-143 -16,-1 -151,-41 -157,-49l-91 -107c-70,-83 -150,71 -185,123 -19,28 -131,118 -101,160 53,72 136,97 221,69 4,-1 34,-11 36,-4 10,3 -3,24 -4,27 -28,7 -47,1 -71,21 -35,29 -38,10 -76,-3 -48,-16 -147,-53 -177,-97 -27,-107 75,-121 126,-188 18,-24 126,-183 63,-190 -42,-5 -109,-11 -148,3 -87,31 -161,89 -251,114 -83,23 -232,-77 -144,-158 43,-39 0,-101 -39,-123 -53,-47 -97,-108 -151,-153 -44,-37 -95,-58 -122,-105 -23,-40 -81,-33 -119,-38 -43,-6 -91,-52 -104,1 -19,72 -57,126 -92,190 -21,38 2,87 10,124 24,83 85,142 85,230 0,85 18,99 69,162 91,113 -182,204 -203,118 -93,-13 -107,149 -172,187 -48,26 10,113 21,146 43,118 96,118 204,164 105,45 202,117 313,154 113,42 175,56 290,5 58,-26 106,-57 169,-70 60,-12 133,-13 195,-8 52,23 134,8 192,21 123,28 252,-6 375,-17 109,-10 207,41 311,62l90 37zm838 -235c-48,-11 -193,6 -226,-23 -55,-49 -51,-90 -136,-117 -169,-52 -262,-139 -398,-244 -67,-67 -137,-140 -225,-177 -100,-41 -225,-57 -316,-107 -48,-27 -85,-93 -125,-133 0,-1 1,-2 1,-3 27,-7 117,-53 117,-81 -22,-9 -60,13 -81,21 -87,20 -96,87 -173,-3 -49,-58 -192,20 -258,33 -58,11 -126,33 -181,56 -61,26 -121,32 -100,-55 18,-4 33,12 54,6 22,-7 35,-40 47,-58l111 -174c23,-37 33,-95 57,-126 18,-19 33,-38 47,-60 6,-9 13,-15 20,-23 7,-9 13,-21 20,-29 19,-8 33,-27 51,-38 7,-5 15,-12 22,-18 10,-7 20,-14 30,-22 47,-4 92,-19 140,-19 73,0 171,12 238,41 62,27 175,82 239,89 84,6 169,72 243,109 64,32 132,34 194,62 34,15 63,77 83,109 84,138 264,211 359,355 42,84 125,122 172,195 32,50 78,137 140,152 10,40 -5,113 -5,159 0,66 -71,96 -126,113l-37 12zm-176 106c5,-25 -2,-54 2,-79 7,0 18,7 26,8 33,7 68,8 101,15 2,10 -1,14 -10,21 -14,10 -26,20 -44,25 -23,7 -46,19 -70,24l-5 -14zm-12 262c-3,-34 2,-71 13,-102 9,-23 0,-65 24,-80 23,-15 52,-10 78,-20 27,-10 52,-27 44,13 -7,32 -26,80 -9,110 16,30 38,104 11,131 -19,19 -54,18 -77,29 -33,15 -68,-20 -77,-50l-7 -31zm-96 617c-7,-31 -30,-83 -45,-112 -12,-23 -29,-58 -51,-73 -33,-23 -6,-28 2,-53 35,-107 66,14 93,39 28,26 40,84 62,118 18,26 32,49 41,80 7,26 22,23 2,49 -14,20 -26,42 -43,59 -27,27 -59,-60 -62,-75l1 -33zm195 -198c-14,-17 -44,-53 -29,-75 9,-12 25,-43 39,-47 28,-7 28,54 28,71 0,27 -6,55 -28,72l-10 -21zm462 494c47,6 149,-18 204,-23 47,-5 89,-14 132,-26 164,-263 -31,-489 -212,-670 -234,-234 -446,360 -446,525 44,73 51,158 100,230 25,37 45,55 92,35 16,-7 25,-29 37,-42 20,-20 52,-25 79,-32l14 2zm-1490 1076c-35,64 -168,16 -154,-42 3,-1 2,-1 4,-4 72,-9 146,-57 212,-84 57,-23 123,-48 183,-63 18,-5 93,-37 104,-17 6,11 -46,39 -55,45 -71,47 -226,75 -272,146l-22 19zm370 -355c26,-10 59,-19 87,-13 0,16 -48,41 -61,48 -12,6 -26,11 -39,13 -27,5 -20,-13 -3,-24l17 -23zm-8312 -14022l123 125c13,22 59,55 81,68 23,14 38,54 61,72 62,46 126,137 126,219 41,115 68,232 141,335 68,96 172,164 211,283 48,74 131,138 150,224 27,121 115,92 201,113 0,80 88,103 131,158 40,50 109,134 133,191 24,80 30,119 30,206 0,91 0,199 45,275 20,35 4,96 36,124 36,31 67,42 90,94 55,75 57,182 74,270 4,19 -10,56 -1,70 13,22 45,20 69,20 26,0 -6,-111 64,-71 21,12 36,2 2,11 -87,23 82,55 38,114 -23,31 -58,59 -83,92 -29,39 -37,101 -61,132 -43,55 46,142 65,68 9,-33 29,-63 42,-96 45,-113 48,-93 19,8 -14,47 -14,140 -73,148 -61,9 -127,-134 -102,-37 25,96 -70,30 -109,32 -20,1 -157,101 -157,114 0,55 16,116 24,171 12,79 232,82 295,82 33,0 287,-37 192,72 6,21 4,41 17,60 16,24 59,61 80,82 88,88 84,269 205,329 77,50 149,93 243,93 63,0 92,53 153,67 93,21 150,68 253,72 122,5 136,20 210,105 -2,1 31,32 41,38 119,74 130,-21 232,-21 83,0 83,60 133,101 98,80 19,106 38,207 15,80 192,87 203,205 17,61 20,189 51,235 19,29 55,30 85,30 46,0 54,9 90,34 19,13 97,-33 129,-40 68,-15 126,43 147,99 27,74 219,137 219,139 58,14 135,60 188,90 100,54 68,203 178,262 67,36 232,149 201,242l3 44c49,35 111,12 171,21 107,16 210,52 309,96 45,20 92,46 134,72 67,42 151,55 218,98 80,40 125,36 211,50 91,15 251,79 327,130 51,34 114,56 162,93 128,98 90,105 237,68 18,92 -205,114 -39,215 62,38 98,79 153,124 63,52 141,90 169,174 45,41 53,108 104,149 87,71 66,180 203,213 136,32 266,-30 399,-5 53,-4 150,25 193,54 37,25 73,106 123,96l102 -21c7,-1 80,-52 55,-15 -25,37 -121,75 -128,106 -18,79 144,168 181,230 27,46 74,17 121,17 67,0 126,26 189,35 110,41 239,110 340,173 63,39 116,75 173,122 50,42 111,109 171,134 107,74 286,160 408,206l283 106c43,16 140,141 152,185l32 41c132,171 139,359 175,567 0,56 88,57 93,124 3,38 -13,62 21,90l175 137c22,18 95,115 101,138 15,0 131,-135 135,-158 10,-50 3,-97 -6,-146 -8,-44 -48,-81 -24,-130 24,0 110,52 140,64 53,21 140,5 180,-35 106,-62 175,-226 254,-320 20,-24 36,-45 50,-73 9,-17 -8,-48 14,-41 27,8 74,-12 86,-38 28,-63 -80,-47 -9,-131 11,9 35,24 39,40 55,33 83,109 152,119 133,19 181,-182 356,-116 128,49 176,140 288,210 33,1 82,23 116,30 68,13 336,12 342,-84 4,-66 -33,-111 -14,-184 9,-36 31,-64 24,-105 -10,-61 -31,-82 -53,-138 18,-108 -82,-127 -141,-173 -52,-41 4,-110 -20,-159 -33,-66 -165,-91 -154,-183 7,-52 -9,-58 -41,-91 -23,-23 -24,-96 -25,-96 20,80 120,54 120,162 0,79 17,98 93,129 63,25 61,16 82,87 31,105 67,103 142,165 51,42 74,150 92,208 27,54 107,70 162,70 29,0 51,-5 78,-11 25,-6 45,-24 67,-30 0,69 -64,83 -118,91 -42,6 -82,-14 -90,32 -11,62 -15,104 -63,152 -29,29 12,42 36,42 41,0 44,1 44,43 61,15 200,166 215,162 44,-9 72,-36 111,-48 170,-52 57,43 -29,77 -65,26 -58,-31 -92,38 -7,14 -119,114 -61,114 47,0 113,22 143,60 18,22 24,59 60,59 77,0 124,-59 200,-11 44,28 164,-73 201,-103 30,-16 60,1 88,7 36,6 71,-10 106,-14 7,-27 -26,-22 -41,-46 -28,-44 -12,-117 -14,-170 -2,-49 4,-66 55,-66 78,0 25,-51 0,-90 -47,-74 -102,-82 -72,-188 47,-57 75,-69 23,-141 -52,-72 -104,-143 -91,-238 6,-45 28,-67 -1,-109 -21,-31 -61,-98 -54,-135 -23,-88 -43,-114 -94,-188 -28,-40 11,-85 -30,-139 -39,-53 -46,-138 -99,-175 -39,-28 -50,-46 -64,-91 -15,-48 -71,-98 -74,-146 12,-43 18,-100 9,-144 -6,-30 -31,53 -42,63 -63,54 -131,-134 -142,-168 -18,-56 -50,-109 -32,-169 4,-12 1,-37 -9,-46 -5,-5 -46,29 -69,29 -24,0 -22,-8 -51,-3 -20,3 -34,-7 -34,-29 0,-16 61,3 77,0 23,-4 53,-41 60,-60 56,11 80,121 123,121 0,-61 -45,-163 -73,-218 -14,-40 -75,-127 -105,-160 -58,-64 -102,-135 -148,-207 -63,-98 -140,-179 -183,-292 -23,-110 -246,-310 -217,-412 17,-60 93,-63 74,-136 -20,-76 -109,-116 -93,-207 9,-7 15,-8 24,-12 0,-9 1,-27 -10,-29 -5,-22 -78,-84 -105,-94 -76,-29 -186,-169 -240,-235 -36,-45 -59,-95 -92,-138 -40,-51 -89,-57 -118,-133 4,-26 -9,-65 -10,-93 -2,-37 13,-44 17,-67 12,-2 57,-26 68,-35 5,-4 -58,-91 -63,-124 -8,-45 -28,-96 -31,-141 -5,-77 -64,-41 -112,-101 -24,-30 -165,-106 -142,-146 8,-10 45,-51 37,-59 -15,-15 -36,-70 -56,-70 -28,37 12,70 -52,100 -96,44 -169,-82 -252,-105 -94,-27 -244,-18 -297,-130 -19,-41 -113,-94 -149,-131l-224 -230c-27,-27 -129,-187 -158,-187 0,69 -101,44 -101,-24 -21,-7 -90,-2 -59,-49 -7,-26 -17,-75 -45,-85 -23,-8 -66,-36 -73,-62 25,0 83,10 108,16 23,6 34,28 28,50 -8,32 80,101 109,101 0,-25 -28,-47 -41,-61 -31,-34 -51,-87 -70,-128 -11,-24 -18,-44 -24,-70 -11,-43 -43,-90 -45,-134 -8,-60 -22,-121 -22,-182 0,-82 20,-169 10,-250 -13,-107 35,-174 45,-276l9 -328 5 -166c2,-66 -13,-121 -19,-184 -40,-111 -63,-259 -63,-378 0,-143 18,-231 67,-363 3,-98 75,-239 131,-314 -99,-33 -240,92 -315,66 -72,-25 -78,-127 -183,-158 -48,-14 -75,-112 -77,-107 -23,41 0,100 -58,123 -89,36 -137,-63 -203,-85 -47,-16 -100,42 -155,29 24,-24 131,-80 161,-68 45,17 119,91 172,73 66,-22 34,-104 86,-131 56,-29 58,71 63,98 11,63 137,48 177,112 40,66 30,64 96,33l182 -86c54,-26 -157,-193 -186,-248 1,-44 -38,-59 -74,-59 -39,0 -23,-29 -29,-59 -10,-52 -51,-69 -86,-101 -16,-15 -30,-27 -34,-49 -5,-24 -26,-55 -27,-76l-9 -34 -10024 0zm1086 2713c11,-21 34,-37 49,-55 27,-32 97,-45 133,-21 23,16 23,72 1,90 -19,15 -44,36 -65,46 -33,15 -63,21 -95,38 -55,29 -65,-28 -47,-70l23 -28zm-16 188c6,-25 50,-70 75,-77 16,-4 66,-16 66,10 0,15 -37,33 -47,42 -11,9 -24,24 -34,35 -15,15 -29,30 -42,47 -5,7 -8,13 -19,12 -19,-2 -10,-39 -7,-50l7 -19zm367 -307c-3,0 -4,1 -7,1 -4,12 -36,45 -46,63 -24,46 -47,99 -63,148 -26,77 -78,118 -72,204l13 188 1 1c43,11 65,-127 76,-158 19,-49 40,-115 85,-146 66,-45 95,-62 95,-146 0,-57 -13,-105 -25,-156 -15,-2 -21,-7 -40,-7l-18 7zm-226 548c-10,-31 -14,-79 -14,-113 0,-35 -21,-36 -35,-9 -9,17 -33,24 -35,43 -3,31 9,63 9,94 0,24 -4,55 1,77l1 1c59,12 55,-10 73,-62l1 -31zm439 -256c-96,0 -149,49 -209,120 -45,53 -155,201 -117,275 22,45 99,-54 118,-73 41,-41 87,21 129,21 0,-29 -54,-77 -10,-106 24,-16 52,-21 61,-50 16,-55 27,-73 64,-117 14,-16 62,-50 62,-71 -18,-5 -56,-2 -76,-3l-22 3zm10876 7074c-54,54 -198,63 -272,66 -83,3 -113,76 -179,107 -47,22 -88,15 -138,15 -26,-3 -55,-20 -78,-30 -25,-11 -48,-22 -72,-35 -17,-10 -33,-25 -49,-38 -36,-26 -70,-76 -106,-95 -46,-24 -80,-8 -128,-17 -51,-10 -196,5 -228,-33 -31,-36 -56,-108 -20,-149 59,-69 73,-163 137,-230 47,-50 112,-63 167,-98 57,-37 105,28 58,66 -57,47 -44,36 -50,91 -6,48 -30,99 20,30 102,-142 174,-307 380,-307 65,0 163,58 167,129 5,97 -86,102 -86,153 95,0 107,-141 223,-56 13,6 33,31 46,30 51,-4 25,-25 74,12 54,41 110,20 170,11 26,-4 38,2 57,18 26,22 97,4 108,35 19,52 -11,121 -35,166 -34,64 -72,91 -123,142l-42 19zm522 -471c-33,-19 -71,-52 -104,-21 -23,21 -76,9 -76,48 0,12 9,22 9,35 0,12 -13,50 6,50 21,0 43,-7 63,-10 26,-5 54,6 82,-2 28,-7 31,-41 31,-67l-10 -32zm-3105 1682c-12,-26 -74,-211 -70,-227 36,-9 51,-49 59,-82 7,-31 86,-99 115,-99 43,0 101,6 141,16 0,1 2,3 3,3 0,60 -71,84 -31,169 27,58 24,101 94,112 59,10 71,101 109,147 15,17 116,97 114,108 -2,0 -1,2 -4,3 -17,53 -228,48 -270,29 -27,-12 -34,-65 -61,-85 -29,-22 -62,17 -94,-3 -44,-27 -70,-12 -93,-65l-12 -25zm480 446c-10,-21 -20,-45 -34,-64 -11,-14 -34,-44 -34,-60 13,0 27,5 40,7 30,5 70,5 96,21 25,14 40,17 54,44 9,18 46,57 18,75 -28,18 -93,7 -120,-8l-19 -14zm-57 5c-4,-10 -3,-21 -10,-31 -9,-11 -21,-30 -35,-35 -44,-17 -13,48 -13,64 0,11 -3,29 4,38 11,15 38,-5 45,-15l10 -21zm191 86c-58,-36 -94,-48 -160,-35 -47,9 -73,27 -122,27 -12,35 38,69 60,96 28,34 38,45 79,67 44,23 94,42 144,42 39,0 3,-136 3,-159l-4 -39zm52 68c-7,-31 -22,-104 2,-129 33,-33 106,123 117,144 5,10 14,27 14,38 0,12 -56,30 -67,34 -38,14 -54,-23 -64,-53l-2 -34zm7 202c-48,-44 -124,-40 -182,-63 -40,-16 -103,-75 -141,-75 0,122 97,204 214,212 76,5 72,74 121,101 28,16 76,82 98,82 6,-25 11,-128 -16,-137 -48,-17 -81,-41 -86,-99l-9 -21zm139 258c-4,-17 4,-46 16,-58 9,-9 31,-37 46,-37 10,29 8,55 -2,86 -4,12 -6,23 -6,36 0,6 -2,17 -5,22 -2,3 -8,10 -8,12 -16,0 -36,-23 -38,-38l-3 -23zm-120 258c49,-136 51,-150 -22,-273 -75,-126 -191,-92 -278,-179 -59,-59 -99,-143 -85,-230 -32,0 -135,-76 -127,-13 8,57 -42,76 -56,119 -19,56 -43,147 -45,206 -3,108 21,194 34,298l121 177c45,67 79,77 79,167 112,28 178,136 244,-21 23,-54 59,-132 108,-165 34,-23 95,-31 26,-59l1 -27zm-115 340c5,-15 20,-33 29,-47 31,-46 42,-131 83,-167 25,-23 83,-73 49,1 -30,66 -37,131 -53,198 -7,27 1,39 -23,62 -28,26 -80,18 -88,-23l3 -23zm892 69c-14,2 -52,-21 -55,-35 -3,-11 -4,-24 -4,-35 0,-13 2,-21 5,-32 7,0 18,6 24,8 14,7 32,18 47,20 18,2 53,8 53,31 0,28 -27,36 -50,43l-20 1zm-481 823c-16,4 -47,-33 -58,-44 -14,-14 -34,-47 -34,-68 11,-3 50,17 62,21 28,10 62,24 76,54 8,17 39,42 39,62 -26,6 -36,0 -61,-8l-25 -17zm83 -454c-15,-11 -44,-38 -53,-55 -3,-6 -48,-68 -20,-68 20,0 45,38 56,53 26,38 61,67 88,105 10,14 53,35 49,50 -3,13 -31,19 -41,30 -12,12 -39,71 -58,20 -6,-15 -9,-32 -4,-48 7,-21 -6,-39 -10,-59l-7 -28zm534 -724c-18,2 -51,-22 -63,-35 -21,-22 -34,-48 -30,-77 7,-1 11,-7 20,-7 39,-3 78,-25 116,-33 20,-4 76,-12 55,25 -4,8 -17,15 -22,22 -23,31 -6,62 7,93 21,51 -29,36 -62,25l-20 -13zm-92 -321c-39,-39 -74,-96 -96,-146 -7,-16 -21,-35 -24,-52 -11,-53 42,34 50,44 20,24 43,28 74,28 27,0 21,15 23,35 4,30 30,54 51,74 9,9 46,41 46,52 -47,16 -64,60 -105,-2l-19 -33zm-63 164c-15,-3 -33,-7 -46,-16 -12,-8 -26,-19 -41,-19 -3,12 14,25 21,34 15,16 10,38 21,54 4,5 22,9 29,8 10,-1 19,-24 21,-32l-7 -30zm311 -328c-71,-25 -78,-78 -108,-133 -29,-53 -22,-89 10,-134 83,-10 188,13 247,77 40,44 68,91 106,134 22,24 59,38 68,71 12,48 37,238 -32,238 -2,-1 -3,-2 -5,-3 -5,-25 -11,-57 -20,-81 -16,-40 -85,-12 -121,-36 -42,-29 -99,-71 -132,-107l-13 -26zm428 -42c-37,-8 -85,-64 -109,-92 -28,-34 -45,-46 -45,-92 0,-25 -47,-146 -3,-112 24,18 51,28 75,44 24,15 47,15 74,15 37,0 87,45 112,71 56,59 126,57 86,152 -20,48 -66,55 -79,106 -24,6 -75,-51 -94,-66l-18 -25zm249 169c-13,-1 -43,-4 -55,-7 -23,-7 -34,-32 -54,-40 -2,-17 41,-26 54,-47 11,-18 24,-68 27,-88 17,0 73,78 85,92 18,22 28,45 36,71 10,30 -18,79 -34,103 -37,52 -80,-22 -64,-58l6 -26zm719 663c2,-8 2,-16 2,-23 0,-6 -4,-8 -7,-13 -7,-18 -11,-40 -11,-60l1 -1c27,7 80,65 68,92 -3,8 -11,15 -14,23 -4,9 -5,25 -11,32 -5,5 -13,5 -20,4 -10,-3 -11,-16 -12,-25l4 -29zm437 197c-16,-23 -13,-63 14,-74 25,-10 14,-27 20,-48 9,-26 15,6 20,14 17,25 42,32 62,52 9,9 25,54 34,56l0 2c-35,6 -59,12 -86,39 -7,7 -18,18 -27,21 -27,7 -24,-22 -30,-38l-8 -24zm284 -309c-15,-31 -21,-72 -46,-94 -26,-24 -58,-26 -81,-55 -20,-25 -23,-59 -39,-81 -8,-11 -36,-74 0,-50 23,16 49,50 71,70 34,31 55,77 103,83 36,5 70,-2 88,36 34,76 43,151 24,228 -17,0 -21,-36 -58,-36 -30,0 -51,-54 -60,-79l-3 -21zm-318 -978c61,28 106,39 171,39 69,0 52,34 101,55 38,16 54,-9 85,-9 0,29 -19,85 -38,106 -29,32 -61,-16 -61,44 0,71 -121,85 -173,103 0,46 94,57 125,63 49,10 100,-37 111,14l22 108c10,49 29,108 70,135l71 48c-54,14 -81,37 -132,49 -80,20 -62,6 -128,-50 -32,-28 -74,-31 -110,-48 -69,-31 -45,-66 -68,-121 -10,-25 -43,-27 -52,-49 -22,-53 -35,-154 -65,-197 -31,-44 -62,-34 -40,-89 11,-28 -14,-43 -14,-68 -30,-56 -78,-67 -134,-77 -45,-9 -93,-20 -93,-74 0,-87 5,-120 -40,-193 -38,-62 99,-106 123,-142 7,0 37,85 41,98 22,76 57,11 92,64 37,56 34,85 34,146 39,10 54,19 92,34l12 10zm-61 -175c20,-4 41,-29 64,-23 21,5 18,29 28,43 9,12 6,21 -8,28 -8,4 -15,9 -23,12 -6,3 -13,2 -20,2 -11,0 -21,5 -31,-2 -10,-7 -17,-27 -14,-39l4 -21zm-59 -69c-15,-15 -20,-30 -20,-52 0,-25 43,-38 65,-40 13,-1 61,-20 65,-7 6,20 -1,42 7,63 6,14 16,15 -5,20 -24,5 -38,13 -54,31 -5,6 -8,15 -16,18 -13,4 -25,3 -32,-10l-12 -21zm54 -284c18,-5 35,-17 52,-22 10,-3 9,-4 11,6 2,10 4,32 1,42 -3,11 -16,16 -25,22 -12,8 -25,21 -40,20 -10,-1 -19,-4 -18,-16 2,-14 3,-29 12,-41l7 -10zm-461 345c-13,5 -29,-17 -34,-28 -13,-29 8,-44 10,-70 1,-12 3,-25 4,-37 1,-12 18,-21 20,-29l3 0c2,-7 20,14 21,17 7,10 18,19 26,28 16,18 32,12 40,41 4,13 2,39 -1,52 -4,20 5,37 5,56 0,34 -65,13 -74,-5l-20 -25zm-1038 -263c-49,0 -41,13 -30,58 11,41 -20,46 -48,24 -42,-32 -25,-108 -55,-138 -28,-28 -92,-60 -92,-108 17,0 36,13 52,4 14,-7 27,-84 54,-53 9,11 8,19 23,23 82,23 39,15 44,82 1,17 17,21 29,29 16,11 19,36 25,53l-2 26zm243 -71c-35,56 -164,-62 -154,6 4,26 1,109 12,129 26,48 190,119 243,143 43,19 81,49 124,67 26,11 70,55 96,55 6,-10 -41,-100 17,-70 76,39 48,-123 45,-149 -13,-113 -14,-71 -95,-105 -37,-15 -29,-54 -67,-35 -37,19 -124,-14 -153,-41 -36,-33 -7,-85 -17,-125l-1 -1c-3,-1 -4,-1 -7,-1 -9,13 -62,1 -74,25 -14,29 30,55 34,83l-2 19zm-21 -226c-22,5 -40,-19 -65,-9 -22,8 -17,25 -22,43 -12,37 15,44 47,44 20,0 34,-2 48,-15 15,-13 11,-28 11,-47l-19 -16zm211 194c-10,0 -19,0 -26,-7 -15,-15 -8,-29 -31,-35 -12,-3 -39,-3 -44,11 -7,22 29,37 38,52 7,11 9,18 23,19 17,1 33,-6 44,-19l-5 -21zm924 -670c45,99 87,145 81,260 -2,32 -31,35 -45,57 -20,30 12,87 -2,124 -16,42 -6,99 8,140 17,48 -107,-4 -118,-14 -27,-25 -23,-58 -64,-76 -32,-13 -86,-12 -121,-17 0,19 23,33 38,41 9,4 60,9 61,21 2,23 -6,31 7,52 35,58 -30,27 -54,37 -23,10 -4,54 1,71 14,48 31,69 67,103 8,7 -70,11 -87,-25 -14,-30 -23,-13 -42,4 -27,24 -55,46 -87,62 -103,50 -150,-36 -177,-117 -13,-23 -30,-53 -60,-53 -37,0 -51,17 -80,32 -60,31 -126,-20 -165,-61 -28,-13 -82,-98 -82,-130 0,-40 -14,-75 -14,-110 22,0 120,48 132,25 16,-29 -30,-83 -22,-120 9,-43 -50,-144 -4,-134 33,7 59,-1 90,-3 32,-1 22,20 39,29 28,14 158,55 139,-7 -3,-11 -19,-41 -10,-50 14,-14 53,13 52,-16l-4 -119c0,-23 -7,-62 21,-66 89,-14 52,11 66,69 9,37 56,58 88,66 0,53 36,122 100,114 22,-3 35,-24 58,-23 93,4 13,-47 -17,-70 -20,-15 -32,-34 -32,-59 0,-16 15,-17 25,-27 22,-22 20,-123 75,-67 10,10 32,4 45,4 22,-1 41,26 57,37l34 17zm232 544c-15,-12 -19,-37 -34,-51 -5,-5 -12,-12 -20,-12 -14,0 -23,11 -23,25 0,13 7,22 10,34 5,16 -3,40 5,53 4,7 12,12 20,12 18,1 21,-11 32,-23l12 -37zm1171 -587c-91,0 -176,-37 -262,-62 -95,-27 -126,61 -217,76 -24,4 -100,13 -112,35 -10,19 6,109 17,119 29,29 8,37 -24,39 -33,2 -77,11 -107,21 -37,9 -73,29 -111,40 -24,7 -96,2 -109,20 -21,29 -38,56 -64,81 -55,52 -98,60 -47,130l78 107c32,44 -69,53 7,110 42,32 63,83 -10,83 -11,44 -5,76 53,76 37,0 40,-19 64,-42 19,-17 103,-16 105,-21 27,-2 52,-2 77,-8 18,-5 96,-42 106,-56 79,-106 62,-37 147,-8 13,4 130,-68 140,-82 4,-6 4,-119 32,-75 26,43 125,-33 180,-33 71,0 94,147 147,102 27,-3 56,-44 78,-61 0,29 -23,35 15,43 45,9 -69,48 -86,57 -44,24 -84,11 -130,42 -30,20 -87,35 -51,60 16,11 91,51 89,72 -3,34 -160,35 -189,35 -44,0 46,82 60,99 18,22 75,37 82,63 18,64 -69,-26 -69,44 0,104 55,76 126,111 31,36 54,58 89,87 10,8 -47,39 -47,69 0,26 -68,64 -12,64 35,0 85,4 115,21 26,15 31,36 63,41 18,3 135,1 119,31 -36,67 -4,131 -97,165 -80,30 -54,80 -54,145 36,-49 69,-76 125,-104 28,-14 81,-4 114,-9 32,-5 93,-77 88,-18 -2,22 -26,25 -26,51 0,12 -3,54 17,45 39,0 68,-46 97,-67 22,-16 54,-18 74,-36 67,-58 -87,24 -93,-44 -5,-53 -71,-49 -107,-58 27,-34 73,-30 96,-69 59,-99 -4,-286 110,-355 27,0 79,11 96,-3 24,-19 34,-49 34,-80 0,-62 -95,-46 -72,-109 17,-47 -54,-152 -20,-179 40,-32 54,-18 74,-75 20,-56 11,-86 11,-142 -38,-81 -89,-176 -89,-268 -55,0 -149,-84 -181,-126 -36,-49 -108,-194 -51,-251 18,-22 21,-84 15,-112 -11,-47 -139,12 -141,21 -2,14 -29,52 -7,60 21,7 44,-20 61,2 6,7 17,46 16,56 -2,15 -41,-24 -46,-25 -25,-7 -48,31 -63,46 -37,36 -88,63 -141,73 -54,10 -92,-59 -142,-71l-43 6zm1516 886c-35,-35 -77,-20 -86,-77 -2,-16 -4,-31 -10,-46 -7,-15 -65,-4 -67,-28 -2,-26 -11,-71 21,-50 47,30 114,35 167,48 52,13 14,38 42,73 17,21 39,30 21,60 -18,28 -14,61 -46,77 -14,7 -28,14 -46,14 -44,0 -20,-24 -16,-47l19 -22zm-692 561c-52,-28 -24,-143 -33,-194 -4,-27 -25,-19 -47,-15 -20,4 -46,-5 -61,-1 -3,1 -31,83 -31,92 0,38 68,13 66,59 -2,50 27,75 8,126 -15,42 -54,30 -54,90 10,0 35,-18 46,-22 28,-13 47,-20 75,-30 37,-12 35,-43 35,-77l-5 -27zm135 -125c-12,-27 -7,-63 -21,-89 -8,-15 -43,26 -51,32 -14,11 -39,23 -40,45 -1,17 -2,27 9,40 15,16 10,43 22,61 26,37 66,-8 74,-35l7 -54zm108 445c-20,-5 -38,-10 -59,-10 -15,0 -41,-9 -50,-21 -11,-14 -6,-32 -2,-48 4,-16 4,-28 24,-23 29,6 51,12 82,8 26,-3 51,-7 77,-7 11,0 29,-5 34,5 8,13 13,51 15,66 1,6 7,48 1,49 -4,16 -79,-3 -89,-7l-34 -13zm53 177c-7,-16 -25,-32 -38,-45 -18,-16 -14,-15 -13,-40 1,-32 -21,-83 30,-48 23,16 59,20 86,21 17,1 29,-4 39,11 9,13 0,50 -6,63 -11,23 -37,34 -61,42l-37 -5zm-150 -98c-17,-8 -24,-45 -19,-61 7,0 14,2 20,4 17,4 32,1 48,-1 11,-1 14,-2 14,11 0,13 -3,29 -7,40 -5,14 -26,31 -42,26l-15 -20zm-335 41c17,-10 41,-40 61,-40 28,0 55,-9 81,-9 0,13 -24,40 -32,50 -10,14 -24,29 -32,43 -9,16 -24,40 -44,39 -15,-1 -48,-46 -43,-61l8 -22zm13 128c-6,-17 -15,-44 -27,-55 -12,-11 -14,7 -20,14 -7,8 -13,18 -22,23 -8,4 -18,8 -21,17 -6,13 11,16 20,17 24,1 45,-7 68,-7l4 -8zm-383 1345c-5,20 14,40 8,63 -8,32 -31,8 -31,-15 0,-44 -8,-95 -31,-132 -7,-12 -21,-33 -12,-47 23,-34 -1,-60 47,-39 25,10 52,11 78,19 17,5 30,19 4,23 -27,4 -67,-11 -69,32 -1,13 3,18 6,29 2,9 2,40 6,45l-7 23zm-744 418c-11,-19 -24,-46 -40,-61 -11,-10 -30,-12 -45,-14 -18,-2 -23,-9 -18,-26 6,-20 -2,-33 1,-51 3,-16 14,1 22,7 26,16 55,27 84,37 8,3 49,14 53,20 5,8 5,18 10,26 11,16 67,64 67,76 -33,0 -90,50 -119,11l-16 -24zm-200 -167c0,-26 -5,-75 5,-99 5,-12 21,16 24,21 6,9 16,18 25,23 22,14 27,20 14,46 -6,12 -8,28 -7,41 1,17 11,33 -16,33 -11,0 -20,-5 -31,-5 -18,0 -10,-27 -10,-39l-4 -21zm181 -102c-38,-29 -80,-74 -115,-108 -8,-8 -33,-61 -2,-39l152 105c44,31 61,56 118,63 59,8 134,62 175,100 27,25 -46,81 -72,93 -43,20 -71,35 -105,-7 -10,-13 -18,-29 -23,-43 -14,-35 -6,-64 -25,-24 -21,44 -71,-36 -86,-50 -16,-15 -42,-19 -59,-36 -17,-17 30,-30 43,-38l-2 -16zm1140 909c-38,-16 -84,-104 -118,-137 -39,-37 -84,-76 -118,-119 -23,-28 -177,-210 -195,-210 0,13 98,170 20,114 -20,-15 -217,-128 -158,-70 27,27 50,61 79,85 23,19 106,56 101,86 -8,39 -47,6 -72,6 0,34 87,141 112,167 48,51 12,-96 55,-43 23,28 47,61 79,78 2,3 7,12 7,17 2,1 0,6 0,7 -51,13 -48,-20 -88,-20l-1 1c0,45 64,95 94,125 13,13 144,107 152,106 8,-34 75,-24 94,-8 30,25 -50,49 -12,76 60,42 121,99 173,151 34,34 64,50 108,65 38,14 25,-48 25,-69 0,-53 0,-27 -37,-50 -66,-41 -94,-81 -145,-136 -36,-39 -120,-122 -137,-168l-19 -54zm-1728 -183c19,-1 38,-36 45,-52 5,-12 23,-39 34,-45 24,-13 46,47 49,63 6,25 4,43 -6,65 -5,13 -11,36 -23,45 -28,19 -33,-38 -61,-40 -9,-1 -21,0 -30,2 -15,4 -41,-11 -36,-28l29 -9zm484 207c-9,-7 -37,-56 -50,-36 -6,9 7,34 -12,34 -15,0 -36,-14 -42,-28 -12,-28 5,-29 9,-54 4,-21 -7,-48 -7,-72 31,0 57,46 77,65 16,15 23,34 36,49 19,22 39,47 41,77 3,55 -55,28 -59,-14l7 -21zm238 -33c-29,-7 -55,-56 -74,-77 -16,-17 -43,-78 -43,-103 24,7 42,77 67,79 23,2 46,-8 54,20 11,35 34,64 45,97 2,7 16,31 11,36 -11,11 -43,-26 -47,-34l-13 -20zm331 355c-41,-70 43,-21 62,-5 52,42 55,-33 55,-66 0,-25 -19,-31 -25,-52 -12,-40 -7,-63 -34,-100 -10,-14 -85,-138 -85,-99 0,18 111,195 20,110 -23,-21 -49,-47 -68,-71 -34,-43 -50,-75 -99,-107 -10,-7 -52,-57 -58,-55 -35,14 6,125 19,146 16,27 41,25 54,56 6,16 24,73 16,73 -19,0 -49,-33 -65,-44 -23,-15 -67,-43 -94,-43 0,26 38,51 50,75 11,23 44,15 70,21 10,17 23,30 32,48 13,27 17,45 45,63 16,10 60,51 60,70 22,11 40,36 60,52 20,18 45,35 59,58 10,16 37,41 57,36 2,-12 -3,-24 -7,-35 -9,-25 -28,-30 -42,-49 -16,-21 -39,-37 -52,-60l-28 -21zm303 103c-3,13 -3,19 -9,32 -9,19 -27,27 -44,37 -13,8 -21,16 -16,35 3,11 20,15 31,14 18,-2 30,-20 40,-34 5,-7 11,-11 11,-20 0,-13 6,-24 8,-35l-21 -29zm704 625c19,61 68,55 108,86 32,24 21,53 44,83 52,69 0,126 115,153 51,12 122,52 169,52 82,0 33,-122 33,-160 0,-49 12,-57 38,-91 30,-40 26,-11 65,12 46,27 34,44 57,85 25,44 69,71 91,111 60,94 85,157 176,227 52,40 127,124 187,139 45,11 94,-7 136,-7 46,108 -106,95 -156,57 -73,-55 -175,-67 -196,37 -9,46 69,125 29,128 -26,2 -18,-38 -31,-40 -5,-19 -57,-3 -67,4 -37,10 -56,-36 -88,-43 -34,-7 -69,10 -101,4 -26,-5 -38,-25 -59,-41l-277 -198c-27,-19 -50,-49 -78,-65 0,-3 -1,-3 -3,-5 0,-17 31,-58 -4,-66 -33,-53 -300,-84 -359,-73 -71,24 -244,159 -310,146 -30,-6 -42,-10 -74,-4 -43,9 -83,43 -122,63 -47,24 -83,75 -136,54 -6,-13 -16,-50 -8,-63 0,-8 2,-5 0,-17 -5,-33 -92,-53 -120,-57 -47,-7 -147,20 -182,5 -20,-9 -34,-141 -36,-166 -4,-57 -4,-48 42,-69 50,-23 69,-84 124,-115 23,-13 36,-60 48,-57 29,7 88,-24 100,-51 16,-38 28,-108 33,-148 23,-68 -63,-129 -46,-181 14,-40 17,-97 14,-141 -2,-24 -38,-92 -10,-102 17,-6 94,57 120,67 30,12 41,-27 59,-42 27,-23 52,-50 62,-85 13,-43 54,45 76,52 21,17 46,38 61,60 28,40 55,37 92,60 16,10 31,19 47,31 18,13 44,35 64,44 36,42 79,74 102,127 51,116 -158,-4 -162,54 -3,40 64,65 88,86 27,23 50,43 88,52 0,-58 -34,-81 36,-109 47,-19 79,70 111,99l11 20zm244 87c-10,-13 -64,-97 -79,-61 -12,29 17,35 29,57 10,19 25,53 54,45l-4 -41zm424 -369c-10,10 -47,5 -59,-4 -15,-11 -30,-30 -47,-37 -17,-7 -10,7 -12,18 -2,10 -16,17 -20,30 -7,21 7,55 32,55 17,0 37,-10 55,-13 12,-2 27,2 37,7 12,7 24,24 40,12 22,-16 -3,-42 -13,-54l-13 -14zm-385 -444c-7,14 -21,29 -38,32 -19,3 -26,7 -45,-1 -12,-5 -27,-12 -41,-11 -15,1 -10,21 -4,29 22,28 55,20 85,8 19,-7 46,-5 64,2 8,3 24,16 33,13 13,-5 -12,-53 -16,-63 -6,-13 -6,-17 -18,-26 -7,-6 -24,-2 -25,9l5 7zm-1108 2811c0,-73 73,-217 110,-282 46,-81 81,-138 161,-186 37,-22 66,-72 79,-114 28,-70 -60,-68 -97,-117 -40,-54 -40,-143 -89,-189 -41,-38 -70,-57 -70,-119 0,-24 -133,-28 -162,-44 -40,-18 -72,-94 -105,-91 -35,3 -89,36 -121,12 -59,78 -17,174 -94,244 -86,77 -169,60 -266,37 -18,-4 -43,92 -1,107 8,3 -29,42 -40,42 -8,-24 -54,-7 -64,-31 -11,-26 -36,-50 -43,-79 -17,-72 78,-103 74,-157 -1,-19 -18,-128 -34,-132 -11,43 -33,130 -61,163 -38,64 -80,29 -122,58 -31,22 -44,72 -54,108 -13,50 -26,218 -88,230 -4,18 230,259 271,203 22,-30 80,140 87,177 25,153 15,254 79,396 66,147 127,-122 136,-164 25,-116 49,-121 130,-186 61,-49 57,-63 94,3 51,92 259,377 279,127l10 -19zm-385 -1219c-29,-25 -59,-52 -69,-91 -8,-32 -31,-79 21,-55 71,32 125,30 197,1 49,-19 72,1 112,24 25,15 63,21 63,56 0,26 -36,29 -55,21 -31,-14 -70,29 -97,40 -41,16 -103,6 -148,14l-25 -9zm-831 193c-1,3 0,4 -2,5l0 2c-19,5 -39,16 -63,11 -18,-3 -32,-19 -49,-24 -13,-4 -29,-9 -41,-16 -18,-10 -41,-43 -64,-43l-1 1c3,12 18,20 18,36 0,9 -13,28 -2,35 13,8 33,9 42,23 39,60 73,36 136,39 23,1 51,5 64,-20 12,-23 7,-54 -25,-56l-12 7zm-88 120c20,5 36,20 60,17 20,-3 39,-11 60,-11 0,27 -11,51 -7,79 3,20 -4,43 -27,39 -32,-6 -46,-38 -82,-42 -28,-3 -54,-56 -24,-71l20 -11zm-3759 -328l-147 -119c-127,-102 -48,-55 22,-139 32,-38 235,-8 294,-8 10,39 -12,98 14,131 23,28 241,69 283,73 52,5 182,-13 160,63 -38,133 -106,158 -241,158 -120,0 -270,-44 -358,-132l-28 -26zm590 -425c-96,55 -209,166 -331,159 -63,-4 -29,0 -41,52 -21,87 139,84 196,95l206 41c40,8 65,-71 88,-104 55,-78 116,-189 182,-255 30,-30 38,-40 74,-59 17,-9 69,-22 74,-44 -83,-21 -116,-32 -197,8 -76,38 -132,83 -222,89l-28 17zm962 611c-42,16 -248,133 -286,99 -28,-25 -184,-12 -230,-10 -79,2 -65,-9 -96,-73 -11,-22 -36,-34 -43,-48 17,-17 210,-85 239,-92 0,-7 -37,-4 -43,-4l-59 2c-44,1 -71,33 -112,42 -27,6 -46,6 -73,18 -33,15 -39,63 -85,63 -31,0 -102,-42 -109,-73 -24,-103 219,-459 314,-497 79,-32 245,8 332,17 91,9 28,38 75,76 54,43 99,55 167,71 89,-5 152,-3 219,57 47,42 78,71 135,101 29,15 52,76 66,105 37,75 -104,65 -149,75l-240 49 -24 23zm-631 128c-30,-27 -49,-84 -100,-73 -44,10 -111,25 -155,20 -30,-4 -55,-21 -87,-21 -52,0 -96,20 -146,28 -70,11 -128,3 -194,-21 -60,-22 -129,-98 -181,-30 -36,48 71,125 84,167 0,23 -12,70 9,81 18,9 62,-3 85,0 33,4 75,49 83,80 6,23 9,48 16,71 9,31 26,73 28,105 17,134 160,119 255,83 95,-36 174,-13 264,-49 129,-52 207,-112 303,-214 34,-36 44,-111 7,-148 -56,-56 -154,-12 -217,-53l-54 -26zm-981 1263c-7,5 -105,-4 -117,-7 -63,-14 -89,-25 -7,-44 74,-17 253,-27 301,-87 57,-71 58,-15 135,-25 49,-6 85,-23 105,29 30,79 -64,110 -130,118 -35,4 -78,1 -113,-3 -50,-6 -79,11 -125,15l-48 4zm291 -282c35,-2 72,-27 104,-38 30,-10 62,-11 93,-7 0,24 -24,53 -39,70 -30,34 -79,9 -117,15 -16,3 -45,9 -60,5 -11,-3 -19,-8 -29,-13 -14,-7 27,-14 31,-15l17 -17zm4859 -12920c-6,-14 -6,-31 -11,-46 -6,-16 13,-39 15,-58 1,-13 0,-26 0,-39 0,-17 4,-26 7,-40 13,0 57,67 68,78 15,16 101,91 87,117 -10,17 -54,-6 -74,5 -24,14 -51,26 -78,6l-13 -22zm-764 -572c-25,-13 -53,-52 -46,-80 3,-11 33,-55 45,-46 17,13 28,32 40,49 17,24 33,41 44,68 13,36 -37,35 -60,26l-23 -18zm-427 -808c-40,-120 -103,-247 -118,-373 -4,-36 -18,-102 -47,-127 -32,-28 -77,-90 -106,-36 -13,25 -32,160 -22,180 16,32 70,62 48,102 -26,47 -80,43 -112,75 -40,40 -72,73 -61,137 13,46 1,82 46,116 33,25 38,72 70,92 36,23 164,13 210,13 114,0 69,-89 87,-160l5 -18zm-346 1933c-13,0 -30,-21 -39,-30 -17,-17 -48,-24 -71,-10 -19,12 -52,12 -69,26 -33,29 45,42 59,50 16,10 28,16 47,16 26,0 63,-14 80,-34l-7 -19zm-256 400c-15,-29 -31,-51 -50,-77 -10,-14 -60,-25 -44,-5 12,16 25,34 37,51 8,12 15,23 20,36 3,7 13,12 18,18 7,10 18,24 30,29 25,10 -1,-23 -6,-30l-5 -23zm1615 5614c-8,2 -28,-14 -37,-17 -20,-7 -36,1 -55,8 -11,4 -21,9 -33,12 -13,3 -25,5 -34,14 10,10 57,17 72,19 28,3 35,35 69,15 12,-7 17,-17 31,-22 13,-5 22,-22 7,-31l-19 2zm163 3165c-10,-3 -24,-19 -34,-25 -10,-6 -51,-59 -43,-68 11,-11 57,23 68,30 15,11 13,24 23,37 7,9 17,15 24,24 7,10 23,32 23,43 0,11 -15,0 -19,-2 -12,-8 -22,-20 -32,-30l-10 -10zm-4210 1069c-27,-29 -46,-37 -86,-45 -42,-8 -8,-35 -1,-64 10,-40 38,-16 65,-10 58,12 127,-57 195,-57 31,0 110,-35 121,-15 12,22 56,51 51,79 -5,30 -277,118 -315,118l-31 -6zm-8846 -8060c-13,-44 -13,-91 -13,-138 0,-63 20,-27 37,1 21,33 17,87 17,125l-1 68c0,17 5,44 1,59 -24,0 -40,-69 -47,-86l6 -29z"/>
  <polygon class="fil2 str1" points="25836,1231 28114,1231 28114,2824 25836,2824 "/>
  <path class="fil3" d="M28283 2958c0,-17 4,-34 13,-51 9,-17 22,-30 38,-39 17,-9 34,-14 52,-14 18,0 35,5 52,14 17,9 29,22 39,38 9,17 14,34 14,52 0,18 -5,35 -14,52 -9,17 -22,29 -39,39 -17,9 -34,14 -52,14 -18,0 -35,-5 -52,-14 -17,-9 -30,-22 -38,-39 -9,-17 -13,-34 -13,-51zm17 0c0,15 4,29 11,43 7,14 18,25 32,32 14,8 28,12 43,12 15,0 29,-4 43,-12 14,-8 24,-18 32,-32 8,-14 12,-28 12,-43 0,-15 -4,-29 -12,-43 -8,-14 -18,-25 -32,-32 -14,-8 -28,-11 -43,-11 -15,0 -30,4 -43,12 -14,8 -25,19 -32,32 -7,14 -11,28 -11,43zm104 -33l5 -17c12,3 21,9 28,18 7,9 10,20 10,33 0,16 -5,29 -16,39 -10,10 -25,15 -44,15 -12,0 -23,-2 -32,-7 -9,-5 -16,-11 -20,-20 -5,-9 -7,-18 -7,-29 0,-12 3,-22 9,-30 6,-8 14,-14 24,-17l4 16c-7,3 -12,7 -16,12 -4,5 -6,12 -6,19 0,11 4,19 11,26 8,7 18,10 32,10 14,0 25,-3 32,-10 7,-6 11,-15 11,-25 0,-8 -2,-16 -7,-22 -5,-6 -11,-10 -20,-12z"/>
  <path id="1" class="fil3" d="M28489 2663l-19 0c14,9 22,23 22,41 0,12 -3,22 -10,32 -6,10 -15,17 -27,23 -12,5 -25,8 -40,8 -15,0 -28,-2 -40,-7 -12,-5 -21,-12 -27,-22 -6,-10 -10,-21 -10,-33 0,-9 2,-17 6,-24 4,-7 9,-12 15,-17l-73 0 0 -25 202 0 0 23zm-73 78c19,0 33,-4 42,-12 9,-8 14,-17 14,-28 0,-11 -4,-20 -13,-28 -9,-8 -22,-11 -41,-11 -20,0 -35,4 -44,12 -9,8 -14,17 -14,29 0,11 4,20 13,28 9,7 23,11 42,11z"/>
  <polygon id="2" class="fil3" points="28428,2611 28403,2611 28403,2534 28428,2534 "/>
  <path id="3" class="fil3" d="M28489 2507l-146 0 0 -22 21 0c-7,-5 -13,-11 -17,-18 -4,-8 -7,-16 -7,-26 0,-11 2,-20 7,-27 5,-7 11,-12 19,-15 -17,-12 -26,-27 -26,-45 0,-15 4,-26 12,-34 8,-8 20,-12 37,-12l100 0 0 25 -92 0c-10,0 -17,1 -21,2 -4,2 -8,5 -11,9 -3,4 -4,9 -4,15 0,10 3,19 10,26 7,7 18,10 33,10l85 0 0 25 -95 0c-11,0 -19,2 -25,6 -6,4 -8,11 -8,20 0,7 2,13 6,19 4,6 9,10 16,13 7,3 17,4 31,4l76 0 0 25z"/>
  <path id="4" class="fil3" d="M28470 2176c8,9 13,18 17,27 3,9 5,18 5,27 0,16 -4,28 -12,37 -8,9 -18,13 -30,13 -7,0 -14,-2 -20,-5 -6,-3 -11,-8 -14,-13 -4,-5 -6,-11 -8,-18 -1,-5 -2,-12 -4,-22 -2,-20 -5,-35 -9,-44 -3,0 -6,0 -6,0 -10,0 -17,2 -21,7 -6,6 -8,16 -8,28 0,12 2,20 6,26 4,6 11,10 22,12l-3 24c-10,-2 -19,-6 -25,-11 -6,-5 -11,-12 -15,-22 -3,-10 -5,-21 -5,-33 0,-13 1,-23 4,-31 3,-8 7,-14 11,-17 4,-4 10,-6 17,-8 4,-1 12,-1 23,-1l33 0c23,0 38,-1 44,-2 6,-1 12,-3 18,-6l0 26c-5,3 -11,4 -18,5zm-55 2c4,9 7,23 9,41 1,10 3,17 5,22 2,4 5,7 8,10 4,2 7,3 12,3 7,0 12,-2 16,-8 4,-5 7,-12 7,-22 0,-10 -2,-18 -6,-26 -4,-7 -10,-13 -17,-16 -6,-3 -14,-4 -25,-4l-9 0z"/>
  <path id="5" class="fil3" d="M28545 2115l-203 0 0 -23 19 0c-7,-5 -13,-11 -17,-18 -4,-7 -6,-15 -6,-24 0,-13 3,-24 10,-33 6,-10 15,-17 27,-22 12,-5 25,-7 38,-7 15,0 28,3 40,8 12,5 21,13 28,23 6,10 10,21 10,32 0,8 -2,16 -5,22 -3,7 -8,12 -13,16l71 0 0 25zm-129 -23c19,0 33,-4 42,-11 9,-8 13,-17 13,-28 0,-11 -5,-20 -14,-28 -9,-8 -24,-12 -43,-12 -19,0 -33,4 -42,11 -9,8 -14,17 -14,27 0,11 5,20 15,28 10,8 24,12 43,12z"/>
  <path id="6" class="fil3" d="M28445 1968l-4 -25c10,-1 17,-5 23,-12 5,-6 8,-15 8,-26 0,-11 -2,-20 -7,-25 -5,-6 -10,-8 -16,-8 -6,0 -10,3 -13,7 -2,3 -5,12 -8,25 -5,18 -9,31 -12,38 -3,7 -8,12 -14,16 -6,4 -12,5 -20,5 -7,0 -13,-2 -18,-4 -6,-3 -10,-7 -14,-12 -3,-4 -5,-9 -7,-16 -2,-7 -3,-14 -3,-21 0,-11 2,-22 5,-30 3,-9 8,-15 13,-19 6,-4 13,-7 23,-9l3 24c-8,1 -14,4 -18,10 -4,5 -6,13 -6,22 0,11 2,19 6,24 4,5 8,7 13,7 3,0 6,-1 9,-3 3,-2 5,-5 7,-10 1,-3 3,-10 6,-22 5,-18 9,-30 11,-37 3,-7 7,-12 13,-16 6,-4 13,-6 21,-6 8,0 16,2 23,7 7,5 13,12 17,21 4,9 6,19 6,31 0,19 -4,34 -12,44 -8,10 -20,16 -35,19z"/>
  <polygon id="7" class="fil3" points="28489,1809 28460,1809 28460,1781 28489,1781 "/>
  <path id="8" class="fil3" d="M28435 1642l3 -24c17,3 30,9 39,20 9,11 14,24 14,40 0,20 -7,36 -20,48 -13,12 -32,18 -56,18 -16,0 -30,-3 -41,-8 -12,-5 -21,-13 -27,-24 -6,-11 -9,-22 -9,-35 0,-16 4,-29 12,-39 8,-10 19,-17 34,-19l4 24c-10,2 -17,6 -22,12 -5,6 -7,13 -7,21 0,13 4,23 13,31 9,8 23,12 42,12 20,0 34,-4 43,-11 9,-8 13,-17 13,-29 0,-10 -3,-18 -9,-24 -6,-7 -15,-11 -27,-12z"/>
  <path id="9" class="fil3" d="M28415 1606c-27,0 -47,-8 -60,-23 -11,-13 -16,-28 -16,-46 0,-20 7,-37 20,-49 13,-13 31,-19 55,-19 19,0 34,3 44,8 11,6 19,14 25,25 6,11 9,23 9,35 0,21 -7,37 -20,50 -13,13 -32,19 -57,19zm0 -25c19,0 33,-4 42,-12 9,-8 14,-19 14,-31 0,-12 -5,-23 -14,-31 -9,-8 -24,-12 -43,-12 -18,0 -32,4 -41,12 -9,8 -14,18 -14,31 0,12 5,23 14,31 9,8 23,12 42,12z"/>
  <path id="10" class="fil3" d="M28489 1440l-146 0 0 -22 21 0c-7,-5 -13,-11 -17,-18 -4,-8 -7,-16 -7,-26 0,-11 2,-20 7,-27 5,-7 11,-12 19,-15 -17,-12 -26,-27 -26,-45 0,-15 4,-26 12,-34 8,-8 20,-12 37,-12l100 0 0 25 -92 0c-10,0 -17,1 -21,2 -4,2 -8,5 -11,9 -3,4 -4,9 -4,15 0,10 3,19 10,26 7,7 18,10 33,10l85 0 0 25 -95 0c-11,0 -19,2 -25,6 -6,4 -8,11 -8,20 0,7 2,13 6,19 4,6 9,10 16,13 7,3 17,4 31,4l76 0 0 25z"/>
  <g id="_2760374894976">
   <g>
    <polygon class="fil4 str2" points="25988,1831 26489,1831 26489,1930 25988,1930 "/>
    <polygon class="fil5 str2" points="26489,1831 26990,1831 26990,1930 26489,1930 "/>
    <polygon class="fil4 str2" points="26990,1831 27492,1831 27492,1930 26990,1930 "/>
    <polygon class="fil5 str2" points="27492,1831 27993,1831 27993,1930 27492,1930 "/>
    <polygon class="fil4 str2" points="26791,2130 27593,2130 27593,2229 26791,2229 "/>
    <polygon class="fil5 str2" points="25990,2130 26791,2130 26791,2229 25990,2229 "/>
   </g>
   <path class="fil6" d="M26676 1618l-16 45 -138 0 0 -6c41,-37 69,-67 86,-91 17,-23 25,-45 25,-64 0,-15 -5,-27 -14,-37 -9,-10 -20,-14 -33,-14 -12,0 -22,3 -31,10 -9,7 -16,16 -20,29l-6 0c3,-21 10,-37 22,-49 12,-11 27,-17 45,-17 19,0 35,6 48,18 13,12 19,27 19,43 0,12 -3,24 -8,36 -8,19 -22,38 -41,59 -29,31 -46,50 -53,56l60 0c12,0 21,0 26,-1 5,-1 9,-3 13,-6 4,-3 7,-7 10,-12l7 0z"/>
   <path id="1" class="fil6" d="M26703 1548c0,-27 4,-50 12,-69 8,-19 19,-34 32,-43 10,-7 21,-11 32,-11 18,0 34,9 48,27 18,23 27,53 27,92 0,27 -4,50 -12,69 -8,19 -18,33 -30,41 -12,9 -24,13 -35,13 -22,0 -41,-13 -56,-39 -13,-22 -19,-49 -19,-80zm34 4c0,32 4,58 12,79 7,17 16,26 29,26 6,0 13,-3 19,-8 7,-6 12,-15 15,-28 5,-20 8,-48 8,-83 0,-27 -3,-49 -8,-67 -4,-13 -9,-23 -16,-28 -5,-4 -10,-6 -17,-6 -8,0 -15,4 -21,11 -8,10 -14,24 -17,45 -3,20 -4,41 -4,60z"/>
   <path id="2" class="fil6" d="M27013 1419l0 157 40 -37c9,-8 13,-13 15,-15 1,-1 1,-3 1,-4 0,-2 -1,-4 -3,-6 -2,-2 -5,-3 -9,-3l0 -6 69 0 0 6c-9,0 -17,2 -23,4 -6,3 -13,7 -21,14l-41 37 40 51c11,14 19,23 23,27 6,5 10,9 15,10 3,1 8,2 15,2l0 6 -77 0 0 -6c4,0 7,-1 9,-2 2,-1 2,-3 2,-5 0,-3 -2,-7 -7,-13l-48 -62 0 52c0,10 1,17 2,20 1,3 3,5 6,7 3,1 8,2 17,2l0 6 -80 0 0 -6c8,0 14,-1 18,-3 2,-1 4,-3 5,-6 2,-4 3,-10 3,-20l0 -144c0,-18 0,-29 -1,-33 -1,-4 -2,-7 -4,-8 -2,-2 -4,-2 -7,-2 -2,0 -6,1 -11,3l-3 -6 47 -19 8 0z"/>
   <path id="3" class="fil6" d="M27190 1535c11,-12 18,-18 20,-20 5,-4 11,-8 17,-10 6,-2 12,-4 18,-4 10,0 18,3 25,9 7,6 12,14 14,25 12,-14 22,-23 30,-27 8,-4 17,-6 25,-6 8,0 16,2 22,6 6,4 12,11 15,21 3,7 4,17 4,31l0 68c0,10 1,17 2,20 1,2 3,5 6,6 3,2 8,3 15,3l0 6 -77 0 0 -6 3 0c7,0 12,-1 16,-4 3,-2 5,-5 6,-9 0,-2 1,-7 1,-17l0 -68c0,-13 -2,-22 -5,-27 -5,-7 -12,-11 -22,-11 -6,0 -12,2 -18,5 -6,3 -14,9 -22,17l0 2 1 7 0 75c0,11 1,17 2,20 1,3 3,5 7,7 3,2 9,3 17,3l0 6 -79 0 0 -6c9,0 15,-1 18,-3 3,-2 5,-5 7,-9 1,-2 1,-8 1,-17l0 -68c0,-13 -2,-22 -6,-28 -5,-7 -12,-11 -21,-11 -6,0 -12,2 -18,5 -9,5 -17,11 -22,17l0 85c0,10 1,17 2,20 1,3 4,5 6,7 3,2 8,2 17,2l0 6 -78 0 0 -6c7,0 12,-1 15,-2 3,-2 5,-4 7,-7 1,-3 2,-10 2,-20l0 -60c0,-17 -1,-28 -2,-34 -1,-4 -2,-6 -4,-8 -2,-1 -4,-2 -7,-2 -3,0 -7,1 -12,3l-3 -6 48 -19 7 0 0 34z"/>
   <path class="fil6" d="M26434 2422l57 -28 6 0 0 197c0,13 1,21 2,25 1,3 3,6 7,7 3,2 11,3 21,3l0 6 -88 0 0 -6c11,0 18,-1 21,-3 3,-2 5,-4 7,-7 1,-3 2,-11 2,-25l0 -126c0,-17 -1,-28 -2,-33 -1,-4 -2,-6 -4,-8 -2,-2 -5,-3 -8,-3 -4,0 -10,2 -18,5l-3 -5z"/>
   <path id="1" class="fil6" d="M26892 2504c11,-12 18,-18 20,-20 5,-4 11,-8 17,-10 6,-2 12,-4 18,-4 10,0 18,3 25,9 7,6 12,14 14,25 12,-14 22,-23 30,-27 8,-4 17,-6 25,-6 8,0 16,2 22,6 6,4 12,11 15,21 3,7 4,17 4,31l0 68c0,10 1,17 2,20 1,2 3,5 6,6 3,2 8,3 15,3l0 6 -77 0 0 -6 3 0c7,0 12,-1 16,-4 3,-2 5,-5 6,-9 0,-2 1,-7 1,-17l0 -68c0,-13 -2,-22 -5,-27 -5,-7 -12,-11 -22,-11 -6,0 -12,2 -18,5 -6,3 -14,9 -22,17l0 2 1 7 0 75c0,11 1,17 2,20 1,3 3,5 7,7 3,2 9,3 17,3l0 6 -79 0 0 -6c9,0 15,-1 18,-3 3,-2 5,-5 7,-9 1,-2 1,-8 1,-17l0 -68c0,-13 -2,-22 -6,-28 -5,-7 -12,-11 -21,-11 -6,0 -12,2 -18,5 -9,5 -17,11 -22,17l0 85c0,10 1,17 2,20 1,3 4,5 6,7 3,2 8,2 17,2l0 6 -78 0 0 -6c7,0 12,-1 15,-2 3,-2 5,-4 7,-7 1,-3 2,-10 2,-20l0 -60c0,-17 -1,-28 -2,-34 -1,-4 -2,-6 -4,-8 -2,-1 -4,-2 -7,-2 -3,0 -7,1 -12,3l-3 -6 48 -19 7 0 0 34z"/>
   <path id="2" class="fil6" d="M27160 2388c5,0 9,2 12,5 3,3 5,8 5,12 0,5 -2,9 -5,12 -3,3 -8,5 -12,5 -5,0 -9,-2 -12,-5 -3,-3 -5,-8 -5,-12 0,-5 2,-9 5,-12 3,-3 8,-5 13,-5zm14 83l0 127c0,10 1,16 2,20 1,3 4,6 6,7 3,2 8,2 15,2l0 6 -77 0 0 -6c8,0 13,-1 15,-2 3,-1 5,-4 6,-7 2,-3 2,-10 2,-20l0 -61c0,-17 -1,-28 -2,-33 -1,-4 -2,-6 -4,-8 -2,-1 -4,-2 -7,-2 -3,0 -7,1 -12,3l-2 -6 47 -19 8 0z"/>
   <path id="3" class="fil6" d="M26582 2518c0,-27 4,-50 12,-69 8,-19 19,-34 32,-43 10,-7 21,-11 32,-11 18,0 34,9 48,27 18,23 27,53 27,92 0,27 -4,50 -12,69 -8,19 -18,33 -30,41 -12,9 -24,13 -35,13 -22,0 -41,-13 -56,-39 -13,-22 -19,-49 -19,-80zm34 4c0,32 4,58 12,79 7,17 16,26 29,26 6,0 13,-3 19,-8 7,-6 12,-15 15,-28 5,-20 8,-48 8,-83 0,-27 -3,-49 -8,-67 -4,-13 -9,-23 -16,-28 -5,-4 -10,-6 -17,-6 -8,0 -15,4 -21,11 -8,10 -14,24 -17,45 -3,20 -4,41 -4,60z"/>
  </g>
  <rect class="fil7 str3" x="1000" y="1000" width="27700" height="18717"/>
  <g id="_2760374881088">
   <polygon class="fil2 str1" points="24880,1234 25696,1234 25696,2827 24880,2827 "/>
   <path class="fil8" d="M25228 1670c-1,3 -2,6 -2,9 0,3 -1,5 -1,7 0,6 2,10 5,12 3,2 10,3 18,3l4 0 -5 23 -78 0 5 -23 3 0c7,0 13,-2 16,-5 4,-3 6,-8 8,-16l38 -154c1,-3 1,-6 2,-8 0,-3 1,-6 1,-9 0,-5 -2,-9 -6,-11 -4,-2 -11,-3 -20,-3l-3 0 5 -23 72 0 62 184 31 -129c1,-4 2,-8 2,-10 0,-3 1,-5 1,-6 0,-6 -2,-10 -5,-12 -4,-2 -10,-3 -18,-3l-4 0 5 -23 79 0 -6 23 -3 0c-7,0 -13,2 -16,5 -4,3 -6,8 -8,16l-51 208 -22 0 -72 -209 -37 155z"/>
   <line class="fil7 str4" x1="25289" y1="2694" x2="25289" y2= "1924" />
   <line class="fil7 str4" x1="25007" y1="2418" x2="25570" y2= "2418" />
   <line class="fil7 str4" x1="25144" y1="2558" x2="25439" y2= "2271" />
   <line class="fil7 str4" x1="25141" y1="2270" x2="25439" y2= "2559" />
   <line class="fil7 str4" x1="25289" y1="1927" x2="25194" y2= "2045" />
   <line class="fil7 str4" x1="25290" y1="1927" x2="25378" y2= "2045" />
  </g>
  <g id="_2760374872448">
   <polygon class="fil2 str1" points="24114,1234 24114,1708 21805,1708 21805,1234 "/>
   <path class="fil8" d="M22882 1572l0 -202 40 0 48 143c4,13 8,23 10,30 2,-7 6,-18 11,-32l49 -141 36 0 0 202 -26 0 0 -169 -59 169 -24 0 -58 -172 0 172 -26 0z"/>
   <path id="1" class="fil8" d="M23215 1525l26 3c-4,15 -11,27 -22,35 -11,8 -25,12 -42,12 -21,0 -38,-7 -51,-20 -13,-13 -19,-32 -19,-55 0,-25 6,-44 19,-57 13,-14 29,-20 49,-20 20,0 35,7 48,20 12,13 19,32 19,56 0,1 0,4 0,7l-109 0c1,16 5,28 14,37 8,9 18,13 31,13 9,0 17,-2 23,-7 6,-5 12,-12 15,-23zm-81 -40l82 0c-1,-12 -4,-22 -9,-28 -8,-10 -18,-14 -31,-14 -11,0 -21,4 -29,11 -8,8 -12,18 -13,31z"/>
   <path id="2" class="fil8" d="M23271 1572l0 -146 22 0 0 22c6,-10 11,-17 16,-21 5,-3 10,-5 16,-5 8,0 17,3 26,8l-9 23c-6,-3 -12,-5 -18,-5 -5,0 -10,2 -15,5 -4,3 -7,8 -9,14 -3,9 -4,18 -4,29l0 77 -25 0z"/>
   <path id="3" class="fil8" d="M23461 1519l24 3c-3,17 -9,30 -20,39 -11,9 -24,14 -40,14 -20,0 -36,-7 -48,-20 -12,-13 -18,-32 -18,-56 0,-16 3,-30 8,-41 5,-12 13,-21 24,-27 11,-6 22,-9 35,-9 16,0 29,4 39,12 10,8 17,19 19,34l-24 4c-2,-10 -6,-17 -12,-22 -6,-5 -13,-7 -21,-7 -13,0 -23,4 -31,13 -8,9 -12,23 -12,42 0,20 4,34 11,43 8,9 17,13 29,13 10,0 18,-3 24,-9 7,-6 11,-15 12,-27z"/>
   <path id="4" class="fil8" d="M23602 1554c-9,8 -18,13 -27,17 -9,3 -18,5 -27,5 -16,0 -28,-4 -37,-12 -9,-8 -13,-18 -13,-30 0,-7 2,-14 5,-20 3,-6 8,-11 13,-14 5,-4 11,-6 18,-8 5,-1 12,-2 22,-4 20,-2 35,-5 44,-9 0,-3 0,-6 0,-6 0,-10 -2,-17 -7,-21 -6,-6 -16,-8 -28,-8 -12,0 -20,2 -26,6 -6,4 -10,11 -12,22l-24 -3c2,-10 6,-19 11,-25 5,-6 12,-11 22,-15 10,-3 21,-5 33,-5 13,0 23,1 31,4 8,3 14,7 17,11 4,4 6,10 8,17 1,4 1,12 1,23l0 33c0,23 1,38 2,44 1,6 3,12 6,18l-26 0c-3,-5 -4,-11 -5,-18zm-2 -55c-9,4 -23,7 -41,9 -10,1 -17,3 -22,5 -4,2 -7,5 -10,8 -2,4 -3,7 -3,12 0,7 2,12 8,16 5,4 12,7 22,7 10,0 18,-2 26,-6 7,-4 13,-10 16,-17 3,-6 4,-14 4,-25l0 -9z"/>
   <path id="5" class="fil8" d="M23718 1550l3 22c-7,1 -13,2 -19,2 -9,0 -16,-1 -21,-4 -5,-3 -8,-7 -10,-11 -2,-5 -3,-14 -3,-29l0 -84 -18 0 0 -19 18 0 0 -36 25 -15 0 51 25 0 0 19 -25 0 0 86c0,7 0,12 1,14 1,2 2,4 4,5 2,1 5,2 8,2 3,0 6,0 11,-1z"/>
   <path id="6" class="fil8" d="M23733 1499c0,-27 8,-47 23,-60 13,-11 28,-16 46,-16 20,0 37,7 49,20 13,13 19,31 19,55 0,19 -3,34 -8,44 -6,11 -14,19 -25,25 -11,6 -23,9 -35,9 -21,0 -37,-7 -50,-20 -13,-13 -19,-32 -19,-57zm25 0c0,19 4,33 12,42 8,9 19,14 31,14 12,0 23,-5 31,-14 8,-9 12,-24 12,-43 0,-18 -4,-32 -12,-41 -8,-9 -18,-14 -31,-14 -12,0 -23,5 -31,14 -8,9 -12,23 -12,42z"/>
   <path id="7" class="fil8" d="M23899 1572l0 -146 22 0 0 22c6,-10 11,-17 16,-21 5,-3 10,-5 16,-5 8,0 17,3 26,8l-9 23c-6,-3 -12,-5 -18,-5 -5,0 -10,2 -15,5 -4,3 -7,8 -9,14 -3,9 -4,18 -4,29l0 77 -25 0z"/>
   <circle class="fil9 str5" cx="22023" cy="1467" r="119"/>
   <rect class="fil9 str5" x="22481" y="1359" width="227" height="227"/>
   <line class="fil7 str6" x1="22197" y1="1466" x2="22417" y2= "1466" />
   <line class="fil7 str6" x1="22415" y1="1467" x2="22351" y2= "1532" />
   <line class="fil7 str6" x1="22415" y1="1466" x2="22351" y2= "1404" />
  </g>
 </g>
</svg>
