<?xml version="1.0" encoding="UTF-8"?>
<!DOCTYPE svg PUBLIC "-//W3C//DTD SVG 1.1//EN" "http://www.w3.org/Graphics/SVG/1.1/DTD/svg11.dtd">
<!-- Creator: CorelDRAW -->
<svg xmlns="http://www.w3.org/2000/svg" xml:space="preserve" width="297mm" height="210mm" version="1.1" style="shape-rendering:geometricPrecision; text-rendering:geometricPrecision; image-rendering:optimizeQuality; fill-rule:evenodd; clip-rule:evenodd"
viewBox="0 0 29700 21000"
 xmlns:xlink="http://www.w3.org/1999/xlink">
 <defs>
  <style type="text/css">
   <![CDATA[
    .str3 {stroke:black;stroke-width:10;stroke-opacity:0.501961}
    .str5 {stroke:black;stroke-width:50}
    .str2 {stroke:#003399;stroke-width:20}
    .str7 {stroke:#434242;stroke-width:10}
    .str4 {stroke:#3F3E3F;stroke-width:10}
    .str0 {stroke:#000066;stroke-width:10}
    .str1 {stroke:#003399;stroke-width:10}
    .str8 {stroke:#2B2A29;stroke-width:7.62}
    .str6 {stroke:black;stroke-width:7.62}
    .fil2 {fill:none}
    .fil9 {fill:#D9DADA}
    .fil0 {fill:#A2D9F7}
    .fil1 {fill:white}
    .fil6 {fill:#FEFEFE;fill-rule:nonzero}
    .fil5 {fill:#D9DADA;fill-rule:nonzero}
    .fil8 {fill:#434242;fill-rule:nonzero}
    .fil7 {fill:#2B2A29;fill-rule:nonzero}
    .fil4 {fill:black;fill-rule:nonzero}
    .fil3 {fill:#FEFEFE;fill-rule:nonzero;fill-opacity:0.501961}
   ]]>
  </style>
 </defs>
 <g id="Plan_x0020_1">
  <metadata id="CorelCorpID_0Corel-Layer"/>
  <rect class="fil0" x="1000" y="1000" width="22683" height="19000"/>
  <path class="fil1 str0" d="M8599 4320c-4,-3 -5,-3 -6,-6 -6,-1 -20,-6 -26,0 -6,6 -13,16 -17,23 -1,2 1,3 -1,5 -8,7 -28,25 -31,34 -4,13 -3,35 12,40 11,4 19,-3 28,-7 8,-4 15,-8 24,-8 9,0 27,2 30,-9 4,-15 5,-33 5,-49l-18 -23zm12370 1095c19,6 3,20 34,17 27,-3 122,-38 141,-56 56,-53 25,-10 75,11 38,15 41,36 65,-9 53,-101 96,-95 188,-148l178 -103c39,-23 59,-48 107,-45 55,3 90,-60 104,-108 13,-44 -76,-73 -107,-115 53,-81 100,-90 192,-121 65,-22 208,-56 256,-99 44,-4 94,-107 128,-136 35,-31 69,-65 116,-76 64,-15 92,4 137,-56 42,-56 103,-108 111,-183 52,-71 31,-184 91,-249 48,-52 107,-15 118,44 3,2 4,3 6,5l12 0c18,-18 13,-54 18,-78 19,-91 213,-191 300,-195 53,-2 100,-71 154,-87 68,-20 132,2 201,-6l89 -129 0 0 0 -104c-10,-10 -41,-47 -44,-61l-4 -4c-1,-5 -6,-16 -8,-20 -1,-17 -15,-34 -17,-52 -3,-31 4,-59 8,-89 6,-41 -1,-91 -1,-133 0,-24 -7,-47 -8,-70 -1,-32 4,-62 4,-94 7,-27 15,-52 15,-81 0,-15 1,-32 6,-46 4,-11 15,-25 18,-36 5,-4 6,-11 11,-15l21 -20 0 -282 0 0c0,-16 -37,-39 -49,-47 -22,-15 -43,-33 -66,-45 -10,-17 -35,-25 -49,-39 -12,-12 -33,-39 -34,-56 4,-24 0,-47 5,-70 6,-28 17,-53 21,-82 4,-28 1,-53 28,-70l2 -6c24,-17 18,-99 31,-128 8,-19 18,-43 30,-61 15,-23 36,-42 47,-68l34 -45 0 -668 -22683 0 0 19000 7415 0 0 0 0 -22 -1 -1c-8,-40 -34,-101 -24,-142 4,-1 24,-8 27,-11 0,-35 -8,-81 -15,-116 -11,-53 -23,-55 -69,-81 -77,-43 3,-195 -49,-220 -59,-28 -83,-40 -97,-106 2,-35 12,-68 7,-102 -7,-46 -66,-8 -86,-28l0 -4 -2 -2c0,-29 4,-52 0,-82 -3,-19 -23,-48 -32,-68 -10,-22 -11,-117 -34,-120 -17,-30 -13,-80 -13,-116 0,-83 -27,-93 -102,-102 -1,-2 -2,-3 -4,-5l1 -13c13,-32 31,-70 64,-81 6,-41 -47,-117 -59,-160 -20,-71 -43,-147 -77,-212 -19,-35 -13,-63 -24,-99 -16,-51 -55,-101 -66,-151 -12,-47 5,-125 -21,-164 -26,-37 -65,-83 -65,-131 0,-29 18,-70 7,-97 -13,-33 -87,-45 -117,-61l-170 -84c-28,-14 -45,17 -69,17 0,-62 8,-81 -60,-113 -59,-27 -129,-48 -193,-53 -41,-5 -138,-30 -175,-47 -44,-21 -76,2 -72,-53 7,-98 -225,-38 -225,-90 0,-51 -89,-86 -128,-119 -65,-55 -137,-107 -193,-170 -21,-24 40,-61 32,-91 -14,-3 -43,-10 -57,-10 -1,-2 -2,-2 -4,-2 -1,-2 0,0 -1,-2 -2,-1 -4,-1 -5,-4 -2,0 -3,-1 -4,-2 -2,0 -3,-1 -4,-2 -3,-1 -5,-4 -8,-5 -2,-5 -33,-4 -38,-5 -40,0 -46,-20 -75,-39 -26,-18 -40,-16 -58,13 -32,52 -98,29 -125,-18 -13,-22 -40,-61 -59,-75 -1,-11 -20,-37 -27,-47 -13,-18 -32,-3 -45,-13 0,-18 15,-32 7,-50 -7,-17 8,-41 7,-59 79,-119 -38,-259 107,-360 22,-15 74,-22 86,-40 35,-4 81,-47 112,-63 8,-30 12,-46 12,-81 0,-28 -11,-62 -5,-90 5,-20 16,-36 17,-58 0,-60 81,-120 81,-171l-1 -1c-34,-9 -29,-6 -6,-30 29,-29 29,10 46,-1 14,-8 18,-27 31,-37 17,-14 33,-16 51,-34 80,-80 152,-228 195,-332 14,-33 6,-59 14,-90 9,-37 36,-54 36,-99 13,-4 16,5 34,-2 33,-9 57,-1 72,-37 6,-14 28,-46 46,-42 3,10 15,17 24,19 2,7 38,58 44,57 25,-3 16,-45 22,-58 5,-9 19,-21 21,-32l8 0c4,12 19,30 22,45 16,2 31,-6 46,-2 1,2 0,2 2,2 7,50 77,-43 99,-50 31,-10 -37,-48 0,-88 19,-20 37,-44 59,-61 44,-32 -60,2 -45,-52 4,-14 -7,-44 8,-50 48,-18 147,79 155,64 44,-84 16,-149 34,-237 5,-26 21,-24 21,-55 26,-71 114,-76 179,-78 88,-3 42,-37 47,-77 3,-1 2,-1 4,-4 25,-4 43,-11 72,-11 34,0 30,-17 49,-36 40,-40 72,0 72,-76 -2,-1 -1,-3 -4,-4 -1,-2 0,-2 -2,-2 -1,-4 -58,-18 -66,-20 -31,-9 -48,-29 -73,-44 -3,-22 -37,-84 -58,-93 -37,-14 -160,-11 -136,-70 18,-45 40,-96 43,-145 3,-49 84,-29 128,-51 38,-19 117,62 161,62 29,-64 -34,-44 12,-110 36,-52 -8,-106 56,-50 26,23 12,77 27,89 32,26 69,42 59,94 -12,65 -61,142 -110,189 -89,84 81,45 117,40 37,-5 72,9 103,-17 37,-30 71,-60 115,-80 64,-28 165,-22 233,-12 9,1 78,11 82,0 2,-1 3,-2 5,-2 7,-27 -27,-89 -33,-120 -10,-49 -1,-111 -14,-155 -9,-31 -43,-39 -51,-58 -6,-15 20,-94 25,-116 7,-37 83,9 110,9 7,-26 -10,-58 -34,-66 -24,-48 11,-84 -9,-134 -32,-78 51,-9 70,-37 19,-29 -9,-46 44,-46 25,0 113,-27 117,-18 11,24 -5,68 8,89 21,34 32,-3 41,62 8,52 47,-32 57,-42 48,-48 -20,-46 -5,-71 37,-59 56,2 79,-1 40,-5 12,-79 11,-96 -4,-81 81,-77 -14,-95 -40,-7 -29,-18 -47,-42 -19,-24 -59,27 -66,-2 -3,-13 -31,-85 -41,-85 -25,0 -119,73 -120,71 -9,-68 -8,-30 28,-66 13,-13 5,-26 26,-34 15,-6 31,-18 41,-32 48,-64 56,-48 121,-19 82,36 1,215 121,108 45,-40 99,40 99,-32 0,-14 -22,-59 -20,-59 17,-5 65,-23 79,-23 24,0 -13,56 -13,63l111 -87c42,-33 43,-54 86,-66 37,0 87,-11 123,-20 32,-8 46,-34 79,-34 19,0 45,1 60,-9 37,-25 36,7 62,7l1 -1c6,-26 3,-57 27,-74 33,-23 63,-11 96,-21 20,-6 31,-29 57,-25 32,5 58,19 84,34 22,-16 14,-68 53,-62 14,2 93,18 95,9 13,-7 4,-88 30,-112 46,-33 41,14 83,23 38,7 75,-38 98,-63 49,-53 92,-105 162,-128 56,-19 122,-27 167,-68 25,-23 10,-60 23,-81 20,-33 56,3 78,6l39 18c24,24 32,72 30,104 -1,22 -56,56 -7,53 32,-2 120,-68 129,-96 21,-67 43,-2 63,-36 10,-17 17,-57 13,-77 -16,-79 75,6 75,-96 25,42 36,49 -8,83 -35,28 -51,58 -51,110 0,32 25,50 52,59 19,7 79,46 49,56 -53,18 -96,-6 -59,82 17,41 181,32 227,32 69,0 51,14 70,-44 4,-13 37,-5 46,-2 53,13 89,-53 71,-97 -5,-12 -32,-51 -5,-42 69,23 141,-13 169,-77 35,-79 36,-76 -47,-108 -46,-18 -95,4 -143,2 -65,-2 29,-53 38,-59 45,-50 46,-97 12,-145 -27,-38 3,-82 49,-62 43,19 6,-5 41,-20 54,-24 72,35 124,17 22,-8 -10,-37 -20,-45 -29,-24 19,-30 43,-37 24,-7 81,-11 54,-40 -23,-24 -57,-36 -64,-71 -6,-32 -65,-65 -46,-90 27,-36 -20,-108 21,-91 11,4 15,17 20,24 11,-33 27,-6 -1,-43 -22,-28 -45,-28 -4,-52 62,-36 122,-49 185,-78 16,-8 17,-25 -2,-26 -38,-3 -146,-24 -176,-14 -24,7 -39,45 -60,46 -43,3 -31,4 -36,37 -2,12 -39,2 -49,1 -49,-12 -19,-47 -25,-72 -92,0 -230,53 -313,-17 -57,-48 -96,-87 -160,-32 -55,48 -61,-19 -88,-57 -33,-48 -6,-140 -21,-202 -13,0 -154,63 -162,71l-89 93c-43,44 -12,57 -25,87 -9,19 -55,23 -60,1 -6,-23 7,-46 1,-71 -37,-9 -78,0 -116,0 -124,0 -331,85 -381,-65 -67,10 -63,135 -157,90 -52,-25 -142,-53 -161,-112 -18,-57 -2,-47 -62,-71 -28,-11 -74,-101 -37,-107 1,-4 10,-5 14,-5 4,-6 38,-13 47,-15l0 -4 -1 -1c-31,-8 -63,-22 -96,-31 -27,-7 -27,33 -50,50 -28,21 -54,26 -88,34 -160,0 -279,-72 -237,-246 12,-49 12,-41 -37,-49 -43,-7 -123,2 -159,-20 -38,-24 -39,-107 -65,-113 -37,-9 -60,26 -78,-23 -14,-40 18,-51 12,-76 -32,0 -65,10 -96,1 -27,-8 -50,-20 -77,-6 -78,41 -105,53 -175,4 -56,0 -138,78 -195,100 -62,24 -107,52 -175,64 -37,6 -89,-2 -122,12 -52,22 -113,77 -162,109 -22,14 -54,7 -72,21 -8,40 -3,87 -12,126 -12,49 -30,82 -52,128 -27,50 -158,134 -210,173 -47,36 -89,53 -134,90 -33,27 -74,17 -112,17 -26,39 -56,45 -96,59 -37,14 -29,57 -69,59 -15,1 -65,5 -78,10 -30,11 -40,60 -15,80 32,25 70,39 70,83 0,103 -39,129 -107,197 -49,12 -78,60 -117,76 -49,20 -51,1 -92,43 -28,28 -53,21 -92,21 -39,0 -86,5 -120,-12 -28,-14 -78,2 -98,-1 0,-29 -139,-21 -167,-20l-219 8c-2,8 -29,54 -37,30l-2 0c-17,-51 -50,-81 -101,-107 -13,0 -152,-62 -169,-72 -49,-29 -57,-85 -124,-85 -10,-39 -21,-51 -58,-81 -38,-31 -54,-66 -85,-97 -26,-26 -4,-39 -4,-71 0,-51 -14,-107 -20,-159 -11,-87 10,-161 13,-243 4,-20 11,-90 13,-90 0,-2 55,-66 62,-78 16,-30 50,-54 58,-87l1 -1c28,-7 60,-10 66,-45 3,-16 8,-91 2,-103 -6,-15 -156,-88 -176,-88l-1 -1 0 -2c15,-4 32,-3 47,-7 8,-31 26,-58 24,-97 -4,-53 18,-88 23,-139 0,-57 -74,-59 -58,-99 14,-34 -13,-82 -20,-112 -25,0 -58,41 -58,-10 0,-34 12,-61 1,-96 -26,-85 -163,21 -163,4 0,-43 -14,-72 -14,-112 0,-59 61,-158 14,-210 -29,-33 -59,18 -77,18 0,-2 1,-2 -1,-2 0,-10 -6,-25 -8,-34 -21,-5 -114,67 -147,75 -7,35 19,54 -21,72 -28,12 -100,27 -130,21 -21,-4 -42,-15 -62,-15l-1 1c0,52 41,66 -37,66 -74,0 4,78 -81,42 -24,-49 -107,-61 -155,-69 -49,-8 -91,-36 -140,-36 -1,2 -2,2 -4,2 -3,13 -14,27 -17,44 -11,0 -48,-25 -70,-30 -32,-6 -57,-15 -91,-13 -9,1 -22,24 -25,15 -45,-11 -50,-28 -109,-19 -34,5 -97,-16 -107,30 -3,0 -4,-1 -6,-1 -4,-15 -32,-37 -34,-49 -22,0 -36,31 -57,31 -10,-31 -2,-64 -22,-95 -18,-27 -115,-22 -118,-36 -7,-2 -5,-42 -6,-49 -20,-34 -60,-44 -96,-58 -44,-17 -64,2 -102,2l-4 -4c0,-50 -63,-99 -101,-129 -49,-40 -105,-114 -137,-167 -56,-94 -143,-211 -163,-319 -6,-33 -3,-53 -15,-85 -55,-55 -86,-162 -86,-237 0,-69 71,-104 71,-158 -34,-11 -100,-25 -137,-10 -81,33 -132,169 -247,128 -49,-17 -87,-94 -75,-145 6,-25 26,-48 30,-72 5,-35 -24,-51 -24,-75 128,0 200,83 314,107 31,7 50,0 73,24 16,16 38,14 58,18 3,-41 53,-136 76,-171 12,-18 70,-101 70,-116 20,-7 84,-49 96,-72 13,-26 16,-86 -12,-103 -41,-26 35,-21 50,-21 4,0 34,1 34,-1l2 0c9,-26 -19,-212 -45,-218 0,-2 1,-2 -1,-2 0,-5 3,-4 4,-7 6,0 37,-10 38,-14 6,-1 13,-11 18,-12 1,-2 7,-14 8,-15 70,-108 114,-175 244,-209 86,-22 173,-44 262,-18 42,12 91,41 128,49 2,3 1,3 5,4 9,16 29,29 39,47 31,39 62,86 91,128 16,24 31,54 54,71 34,24 94,63 136,69 7,28 90,-3 94,-18 7,-2 20,-21 22,-26 17,-29 105,-70 139,-91 28,-18 80,-106 88,-107l134 -65c31,-15 103,43 139,53 6,10 14,19 21,28 49,10 97,43 153,19 27,-11 58,-48 86,-38 68,23 87,-13 135,-43 12,-7 44,-5 59,-5 29,0 63,-27 84,-45 21,-29 32,-66 56,-95 20,-24 46,-45 64,-66 22,-3 35,-25 49,-37 3,-28 47,-98 73,-106l2 -4c28,-4 88,-49 116,-63 73,-37 118,-64 86,-160 -8,-23 -42,-35 -44,-59 -3,-39 13,-74 13,-109 40,-155 105,-317 167,-464 22,-53 101,-98 140,-148 40,-52 104,-32 161,-32l4 -4c0,-71 -36,-123 36,-177l201 -59c144,-42 254,-132 401,-153 0,-2 2,-4 4,-5 0,-154 186,-197 313,-211 46,-10 166,-50 202,-77l136 -101c54,-40 135,-55 204,-55 68,0 95,-90 134,-139 0,-55 -6,-76 8,-132 27,-19 29,-32 66,-42 14,-4 75,-26 77,-42 7,-6 23,-99 23,-112 6,-45 22,-107 52,-141 29,-33 76,-47 103,-85 72,-10 124,-102 153,-163 23,-48 66,-180 110,-207 47,-19 225,-67 237,-103 -41,0 -120,8 -107,-56 7,-31 24,-39 38,-63 28,-48 18,-79 67,-115 15,-10 56,15 83,11 60,-9 47,2 81,-46 44,-64 114,-125 163,-188 32,-41 148,148 213,18 12,-23 56,26 84,32l135 28c46,67 103,-50 147,21 17,27 36,75 44,107 7,2 33,-7 36,-15l6 0c16,48 104,18 148,12 41,-6 92,6 129,-4 35,-9 76,-124 86,-159 9,-28 0,-54 25,-77 12,-11 28,-44 32,-59 10,-2 63,-57 65,-65l2 0c0,22 -36,86 -19,103 38,38 57,7 98,7 0,55 -96,32 -124,32 -5,15 -2,45 -5,64 -5,41 25,10 47,10 11,43 -6,40 -47,49 -46,9 40,132 57,157 14,21 52,60 78,66 27,7 47,-22 70,-14 0,12 21,19 27,30 54,50 132,61 181,116 20,22 58,130 91,64 17,0 36,58 36,76 0,35 -70,55 -64,81 42,11 101,89 137,118 56,44 87,133 143,176 6,60 0,55 -39,97 -20,22 -45,74 -82,74 -7,30 17,63 -5,97 -18,29 -77,101 -108,104 -41,5 -72,70 -72,108 0,39 27,70 -11,104 -32,29 -86,79 -130,84 -61,7 -10,76 -13,123 -12,48 -46,50 -84,62 -35,11 -79,111 -111,144 -41,41 -61,47 -112,59l0 11c29,7 71,7 97,15l0 4c12,4 -16,37 -19,40 -17,17 -151,86 -152,89 -2,1 -3,2 -5,2 1,5 31,8 33,15 13,3 -31,43 -39,47 -55,28 -75,22 -131,-4 -12,-5 -47,37 -64,46 -29,16 -31,-5 -43,31 -21,63 -180,55 -230,148 -8,18 -19,33 -15,52 11,53 11,66 -34,96 -33,22 19,36 33,75 15,41 55,29 67,61 11,27 -22,56 -19,84 2,25 24,51 43,65 44,32 -5,50 -24,99 -20,54 -22,-72 -24,-89 -6,-56 -62,-9 -99,1 -60,17 -109,33 -173,33 -57,0 -80,-6 -118,36 -20,22 -22,50 -50,69 -11,7 -50,28 -50,40 0,87 67,21 104,58 44,44 41,-10 83,-23 61,-18 90,33 143,4 21,-12 30,-38 53,-38 19,0 41,-13 56,-24 0,48 -41,74 -81,87 -31,10 24,50 32,69 36,81 -78,-36 -99,-32 -32,7 -43,11 -75,2 -54,-14 -26,-11 -60,17 -17,28 -32,32 -56,52 -33,27 -26,56 -45,85 -24,37 -11,46 -2,81 44,0 64,-81 96,-108 27,-23 85,-25 116,-20 7,35 -73,73 -73,112 19,5 35,3 54,12 16,7 29,28 46,28 13,-26 51,-54 62,-81 6,-14 -15,-50 -15,-70 1,0 2,-1 2,-2 11,0 47,-19 50,-27l4 0c3,10 20,36 28,44 18,17 10,104 40,128 19,15 93,0 120,0 57,0 133,33 170,-17 57,-75 24,-83 101,-36 105,33 121,-3 212,-26 29,-7 94,5 127,5 0,7 -76,43 -86,52 -71,61 -141,27 -228,27 -14,41 48,105 -18,132 -21,8 -69,39 -84,55 -22,22 -55,30 -84,32 -10,1 -70,3 -73,9 -2,5 30,31 36,36 36,36 -2,103 -49,103 0,16 118,96 137,113 45,40 25,103 -22,133 -63,53 -190,96 -269,129 -134,57 -129,40 -202,-58 -18,0 -86,74 -81,102 10,45 21,96 -44,96 -72,0 -105,23 -170,33 -34,5 -68,-9 -102,-1 -31,8 -29,26 -51,38 -3,18 -31,26 -31,53 0,21 76,-8 76,50 0,79 -87,29 -28,109 28,39 94,123 -4,123l-1 1c0,15 23,27 28,42 21,51 -27,62 62,62 50,0 69,17 89,-49 41,-135 0,-74 120,-97 74,-14 69,-60 160,-43 57,11 118,13 168,-23 50,-35 130,-171 179,-108 34,43 96,4 141,4 38,-24 66,-73 9,-82 -54,-8 -85,-6 -131,-38 -18,-12 -55,-58 -18,-68 33,-8 70,2 72,-43 3,-77 51,-76 116,-76 19,0 0,-57 -1,-68 -8,-65 102,28 114,47l84 134c21,34 67,14 102,4 34,-11 -129,-139 -112,-204 5,-22 94,2 104,17 7,10 -10,-90 31,-59 61,46 56,161 123,50 39,-65 88,-49 148,-34 0,-47 -77,-80 -54,-148 3,-9 64,41 102,19 28,-68 14,-55 -1,-118 56,0 34,-33 34,-68 0,-28 30,-19 49,-33 43,-34 57,-72 115,-90 27,-8 59,-36 73,-59 15,-24 32,-42 47,-65 29,-44 0,-65 52,-99 35,-23 73,-47 107,-74 52,-44 49,-42 116,-42 56,0 79,-19 120,-53 36,-31 93,-42 136,-69 28,-18 90,-56 99,-95 51,-13 99,-33 149,-57 87,-41 22,-28 47,-74 0,0 75,-10 89,-20 13,-9 26,-33 37,-36l72 -17c33,-8 88,-12 110,-38 89,-8 23,-88 88,-104 1,-5 12,-3 13,1 2,1 2,3 5,4 1,2 0,2 2,2 2,5 12,7 17,7 6,-11 52,-25 58,-8 4,1 7,2 11,2 1,2 1,1 4,1 48,-73 132,59 134,45l59 -43c37,-27 57,16 64,-43 0,-4 31,-1 37,-1 20,0 31,-9 46,-13 0,-51 -66,-77 -56,-120 18,0 97,2 78,-24 -20,-27 -24,-96 -24,-94 35,7 25,-32 44,-32 11,44 -10,94 56,84 38,-6 120,-2 150,8 0,7 7,27 13,28 0,28 -31,34 -9,68 9,14 48,-8 62,-7 56,5 51,-106 139,-106 4,17 -3,31 21,31 25,-25 27,-57 54,-80 26,-21 104,-2 104,-55 0,-20 -14,-35 -12,-57 1,-7 19,-53 26,-53l1 1c0,57 60,40 89,69 36,36 -10,55 65,58 9,0 26,7 34,2 24,-13 22,-32 45,-6 13,15 36,-18 45,-24 26,-16 45,-10 72,-23 8,-4 26,-13 30,0 2,8 -5,24 5,28 2,9 16,12 18,18 7,2 18,35 27,21 23,5 48,-16 71,-25 26,-10 92,21 125,23 71,3 107,-34 165,-59 29,-13 126,-27 160,-27l0 2c5,2 -8,21 -11,24 -18,23 -7,85 26,85 91,0 85,-131 94,-191 6,-40 12,-88 47,-114 12,-9 73,-38 71,-38 3,25 12,34 -2,58 -15,24 -58,44 -25,77 16,16 41,27 59,42 15,12 38,13 56,19 14,4 57,14 57,32 0,29 -21,57 -9,88 28,7 57,-26 88,-36 20,-6 50,15 70,18 18,29 44,96 76,108 40,15 17,49 32,84 33,75 116,65 90,165 -15,57 -16,70 -12,123 4,50 153,-99 169,-121 29,-39 -25,-48 -6,-89l40 -84c0,68 242,40 272,159 22,86 243,28 255,107 26,37 78,-23 98,38 54,162 144,-70 226,-70 0,30 -72,114 -52,142 8,11 28,13 41,19 35,16 39,57 92,46 70,-14 101,-62 161,-81 29,-9 44,-6 67,-30 14,-14 37,-46 56,-52 0,31 -41,107 -57,134 -21,36 -60,11 -60,71 0,90 -99,81 -105,139 -6,51 43,95 43,144 31,8 22,-11 47,-20 5,-2 47,29 47,36 -4,1 -8,4 -13,5 -13,12 -9,6 -19,21 -1,6 -5,23 2,28 1,4 3,7 6,10 11,11 12,27 12,43 -19,54 29,43 63,43 0,34 -80,44 -95,84 -11,30 8,74 8,107 -30,0 -41,-17 -66,19 -28,38 -83,65 -99,108 -15,39 6,91 -15,126 -36,59 -64,128 -103,184 -39,57 -42,117 -76,176 -53,79 -44,177 -64,266 -9,40 -8,49 27,68 40,21 185,262 227,203 30,-42 75,-38 122,-38 20,0 34,18 53,0 12,-11 51,-38 65,-42 0,61 -71,96 -118,117 -23,10 -22,31 -56,31 -13,0 -47,-5 -50,8 -25,-5 -47,-27 -75,-15 -30,13 -47,25 -83,25 -29,0 -53,-47 -71,-43 0,16 4,31 4,47 0,80 -56,-27 -75,-32 -3,-11 -36,4 -43,5 -6,18 42,84 24,97 -16,11 -62,11 -84,20 -23,9 -70,58 -91,51 -24,-8 -63,-29 -63,13 5,2 17,9 25,11 6,26 -27,48 -17,80 4,13 39,61 52,64 7,28 -61,78 -82,94 -47,35 -72,105 -104,154 -53,59 -92,84 -69,164 37,127 -3,234 -128,281 -45,17 -60,68 -102,87 -43,19 -85,32 -130,43 0,11 72,28 84,32 64,22 126,45 198,37 68,-8 93,-50 146,-70 7,-3 100,82 118,91 80,43 102,28 191,28 54,0 135,-56 185,-40 17,6 112,16 112,34 9,3 -14,18 -17,20 -27,20 -52,60 -62,89 -12,0 -27,-53 -45,-53 -12,0 -121,33 -122,40 -1,18 24,109 38,113 38,10 82,-20 37,34 -22,27 -70,20 -103,20 -38,0 -40,-39 -63,-37 -15,1 -52,35 -78,40 -10,2 -75,10 -53,32 12,12 38,10 44,27 24,68 5,45 79,68 71,22 84,78 169,56 51,-13 107,-31 107,-93 2,-1 1,-2 4,-2 0,-13 14,-37 18,-49l11 0c1,4 5,2 8,2 1,2 7,1 9,1l1 1c0,13 -33,63 -14,75 40,25 94,-47 94,36 0,49 -47,69 -47,102 21,0 42,-5 63,-1 29,6 8,18 8,38 52,0 49,-15 57,-58 15,-76 6,-47 69,-38 57,-11 34,-33 59,-70 14,-21 34,-7 58,-12 46,-10 21,75 13,102 -11,36 -80,59 -85,80 -5,1 -18,26 -18,32 -6,1 -11,15 -9,20 30,0 63,-19 63,20 0,50 -81,65 -122,82 -20,8 -58,23 -64,45 -3,14 20,21 26,32 2,3 2,45 11,32 57,-86 83,-89 175,-76 44,6 46,-36 51,-68 5,-34 31,-56 40,-83 6,0 24,65 26,75 13,0 27,-59 51,-62 10,-1 35,19 46,21 3,14 -1,28 2,40 24,6 61,-1 53,-36 -7,-30 -32,-47 -4,-77 49,-52 51,-60 40,-127 -6,-34 -20,-87 -13,-121 29,0 35,117 84,95 31,-14 85,-42 77,-76 -17,0 -79,24 -76,-13 2,-24 40,-29 40,-63 -17,0 -31,14 -47,11 0,-34 26,-68 -25,-26 -38,31 -72,-19 -109,-34 -15,-38 -56,-79 -56,-121 0,-17 69,-2 82,2 16,6 31,14 46,24 62,39 74,-28 97,64 43,0 30,31 49,-28 16,-51 221,64 122,97l0 4c22,6 92,90 110,112 18,23 -18,43 18,76 19,17 41,46 63,58 23,12 55,1 77,13 56,31 30,38 30,-23l0 -97c25,0 83,92 89,115l2 0c2,5 46,-76 56,-71 20,10 14,109 14,132 0,46 63,36 63,99l0 33c2,1 2,2 2,4 25,0 77,13 84,43 11,0 22,-97 19,-114 -6,-31 -19,-48 -19,-81 30,-8 29,42 79,10 51,-33 94,-28 143,-62 41,-28 67,-85 128,-85 84,0 115,92 185,127 27,14 71,28 92,50 22,22 38,54 67,68 -10,10 -8,12 -13,13l-1 1c0,2 -1,2 -1,4 -2,1 0,0 -2,1 -1,2 0,2 -2,2 0,2 -1,2 -1,4 -3,1 -15,32 -15,37l-1 1c-2,1 -5,2 -6,4 -21,0 -46,-44 -57,-59 -36,-51 -93,-95 -157,-74 -63,21 -108,17 -92,93 4,18 5,102 14,112 41,41 81,36 86,107 2,22 3,35 -2,58 -2,9 -19,61 -6,64 3,10 37,-3 43,-5 47,-16 77,0 121,2 27,2 13,-121 12,-145 -2,-42 2,-81 2,-122l1 -1 2 0 1 2c32,16 41,196 53,234 12,35 44,51 78,59 17,4 103,4 103,26 -95,32 -18,60 -12,109l0 0c0,24 31,61 37,88 15,70 -90,-23 -122,-7 -11,6 28,62 34,76 11,24 37,44 46,68 4,11 22,66 40,46 26,-30 27,-10 36,11 10,25 131,-50 79,28 -9,14 -21,26 -30,39 -8,13 17,12 27,17 26,11 22,74 40,94 23,25 81,12 112,37 22,17 42,49 59,72 13,19 -20,36 -33,31 -19,-7 -56,-117 -73,-56 -3,10 -41,90 -49,69 -14,-42 -85,-26 -122,-24 -68,4 -4,76 -34,81 -14,29 -41,74 -22,107 9,17 57,-59 57,-6 0,22 12,65 33,28 24,-41 69,-62 114,-46 32,12 66,0 99,8 0,13 -52,54 -64,65l-53 53c-21,21 14,54 14,80 0,34 -52,31 -52,55 14,5 41,29 52,42 18,18 38,24 58,37 16,10 15,50 28,69 37,52 64,61 114,97 33,24 63,3 102,-7 0,47 -93,59 -125,97 -21,25 -84,93 -84,123 -14,0 -40,-12 -53,-17 13,-54 17,-65 4,-119 -11,-45 18,-62 -32,-93 -26,-16 -32,-88 -54,-69 -52,46 -78,0 -102,-45 -25,-47 -47,10 -47,42 0,9 9,33 -6,33 -12,0 -15,-8 -28,-2 -24,9 -34,31 -44,-2 -11,-37 -55,-34 -71,-63 -16,-28 -7,-44 -38,-69 -8,-12 -91,-103 -81,-62 8,30 40,109 -14,109l0 2c23,6 23,19 62,19 0,52 55,163 43,201 -40,-10 -78,-195 -104,-65 -6,32 -25,61 -32,94 -5,23 -31,61 -31,78 -3,-1 1,-37 1,-43 0,-64 22,-154 8,-212 -2,-10 -40,-14 -51,-26 -7,-8 -15,-54 -18,-66 -18,0 -60,10 -76,18 -12,6 -3,47 -13,63 -10,17 -112,23 -36,46 46,14 190,80 81,120 -24,8 -3,59 -30,74 -19,11 -63,54 -72,57 -4,-14 -11,-36 -27,-36 -5,22 -28,43 -46,23 -45,-49 5,-55 24,-116 6,-21 -14,-6 -26,-17 -11,-10 -25,-45 -28,-59 -13,0 -17,58 -38,69 -16,8 -183,10 -118,53 50,34 -29,57 -17,63 11,5 69,43 32,46 -17,1 -20,22 -28,31 -27,30 -10,-42 -43,-42 -32,0 -48,69 -56,90 1,32 11,67 11,99 1,0 2,1 2,2 25,-6 28,-67 54,-69 48,-4 70,125 78,127l0 4c5,2 7,5 14,5 3,-10 61,-49 78,-49 13,52 -25,111 44,128 7,38 83,50 33,-6 -32,-36 36,-109 65,-109 0,0 41,58 39,87 -1,19 -38,47 -27,59 18,22 12,61 37,34 30,-32 75,-62 77,-107 1,-26 14,-80 49,-80 0,50 10,64 54,64 90,0 -23,83 -34,103 -21,38 102,53 102,104 -139,0 -89,-18 -82,101 3,54 28,21 64,33 7,2 56,41 56,44 -25,0 -47,-5 -71,-5l-32 80c0,81 49,67 92,20 37,-41 59,-33 116,-33l0 2c-6,1 -54,44 -64,51 -39,30 -63,47 -108,62 -102,34 33,93 69,119 18,13 33,22 7,39 -19,13 -33,32 -54,40 -41,17 -65,34 -5,57 67,26 11,75 22,119 6,22 -4,65 5,83 12,23 36,0 52,0l0 2c3,1 12,41 12,49l-1 1c-3,0 -5,-1 -8,-1 -16,-2 -21,-5 -30,6 -7,9 -7,22 -14,31l-2 0c-2,4 -4,7 -8,7 -3,6 -11,11 -17,14 46,34 108,35 148,84 33,42 23,71 44,109 16,30 87,74 59,117 -8,13 -103,80 -114,83 0,2 -1,5 1,6l0 4c2,1 1,4 4,5 9,45 2,92 13,135 38,9 80,3 118,-6 31,-7 60,-6 89,6 48,20 77,-29 118,-37 34,-6 73,-6 108,-6l1 1c0,2 1,2 1,4 -30,23 -138,26 -144,72 -9,66 -138,17 -146,49 -9,2 -2,29 -11,33 -2,9 -8,13 -8,24 24,6 137,40 137,71 0,25 -7,66 -13,89 -2,0 -2,1 -4,2 -30,-8 -26,-82 -72,-81l-134 4c-28,19 -45,31 -59,64 -19,45 -15,88 -60,120 -25,18 -55,26 -82,43 -34,21 -45,69 -81,81 -30,10 -17,55 -17,81 2,1 2,3 5,4 4,18 87,45 104,49 19,4 41,8 60,8 8,0 53,-2 54,2 7,23 2,35 -2,55 -45,11 -94,24 -146,24 -49,0 -111,170 -149,204 -71,64 25,116 25,192 -29,0 -55,-49 -84,-49l-1 1c0,82 1,177 -88,199 -2,8 -1,10 1,15 20,0 44,11 64,11 0,29 -33,28 -14,68 18,38 4,48 -15,78 -4,28 50,111 72,133 30,30 58,37 98,47 10,40 -66,81 -66,125 0,39 41,83 38,128 -1,18 -60,34 -73,51 -13,17 7,33 13,52 12,38 25,192 -27,205 -1,2 -1,3 -4,4 -1,2 0,2 -2,2 -1,2 -58,114 8,75 48,-29 95,-69 153,-69 2,-5 11,67 28,65 8,-1 31,-77 31,-88 0,-19 -18,-20 -22,-38 -5,-21 15,-54 13,-83 -2,-36 -2,-41 6,-74 10,3 13,54 23,65 18,23 52,-34 73,-34 0,0 5,5 6,5 0,61 -17,103 6,159 5,12 4,52 27,33 39,-31 51,-32 54,14 2,26 9,33 -24,33 -15,0 -25,15 -30,23 -12,17 -52,-58 -64,-66 -20,-15 -40,51 -53,66 -1,9 -1,17 -1,26 0,10 -2,20 -2,30 0,6 -5,11 -9,15 -3,0 -4,2 -7,2 -36,9 -70,-33 -102,-25 5,20 55,58 72,74 20,19 46,32 64,50 15,15 -4,27 -7,42 -7,30 39,31 45,69 11,64 -102,24 -125,12 -49,-26 -59,-103 -117,-103 -2,10 -38,28 -38,39 38,10 122,97 127,139 4,38 -92,-29 -110,-30 -40,-2 -95,5 -67,-53 40,-85 -54,-7 -54,-93 0,-20 9,-41 1,-59 -7,-17 -37,-37 -40,-52 -17,0 -24,52 -36,68 -13,17 -45,28 -46,51 -2,27 42,106 54,134 32,73 93,53 137,97 19,19 28,45 59,45 30,0 57,13 82,13 5,-21 -24,-65 -24,-91 16,4 44,37 52,51 15,26 43,-1 66,-1 0,34 28,19 31,28 -8,0 -34,25 -34,34 15,4 28,3 44,4 29,2 -12,31 -50,21 -51,-13 -53,31 -97,53 -46,23 14,68 14,116 31,8 52,-4 83,-4 6,22 11,47 -4,65 -20,25 -48,27 -38,56 6,16 -7,35 17,31 15,-2 31,-7 46,-4 5,22 -1,47 -1,71 0,26 18,53 18,71 19,0 42,-37 70,-39 38,-3 99,1 83,-49 -6,-18 -26,-75 -8,-84 9,-4 46,-64 44,-28 -2,34 -11,114 30,127 19,6 45,12 62,24 7,5 0,40 2,50l2 0c1,3 38,-1 45,0 20,4 41,5 59,0 0,-14 -27,-38 -32,-55 -11,-37 -26,-67 -36,-104 -5,-22 -32,-43 -36,-58 -20,0 -44,19 -65,19 0,-20 8,-46 8,-69l1 -1c51,0 71,-27 97,-65 14,-20 36,-31 45,-55 3,-7 -23,-44 -31,-49 21,-32 36,-217 77,-217l1 1c0,52 25,106 27,160 3,57 -25,100 -25,152 2,1 2,2 2,4 39,0 163,36 176,23 18,-18 31,-24 57,-24 12,0 34,15 43,9 13,-8 46,-53 39,-70 -6,-15 -22,-73 -9,-85 39,-40 32,-20 32,-76 0,-19 15,-39 15,-59 0,-19 -8,-37 -8,-57 42,-10 72,0 111,-37 28,-26 36,-34 70,-51 51,-25 21,-73 90,-56 38,9 94,-11 104,-51l0 0c12,-21 -2,-48 17,-71 6,-8 55,-51 63,-51 9,36 7,64 19,99 18,0 32,-38 57,-38 54,0 58,-24 43,52 -10,50 -34,88 -49,131l-30 -104c-77,0 -69,62 -57,117 11,49 11,84 -23,122 -23,26 -37,28 -63,11 -25,-17 -63,15 -95,23 -34,9 -19,83 -19,114l1 1c89,0 247,-39 247,85 15,5 60,38 65,26 18,-43 32,-42 76,-42 32,0 39,-31 66,-39 43,-13 69,-7 82,30 13,36 61,-13 57,-24 -7,-17 -52,-55 -66,-75 -26,-36 -109,-6 -137,-46 -26,-36 28,-65 57,-72l1 1c0,8 -34,91 8,62 29,-20 39,-27 70,-36 21,-6 31,-13 51,-20 18,-6 15,24 32,24 11,0 36,-18 40,-26 5,-8 -23,-17 -30,-23 -54,-43 -86,-124 -152,-163 -98,-59 -18,-86 -18,-158l-1 -1c-17,0 -29,4 -46,-5 -71,-36 34,-42 53,-74 -5,-43 -64,-35 -72,-69 18,0 53,-7 67,1 33,18 44,-26 91,-17 58,12 52,-136 117,-34 11,18 29,33 21,55 -7,18 -8,31 11,40 41,20 63,54 77,99 11,34 -6,50 -27,77 -23,29 7,101 7,139 0,21 28,16 44,20 25,6 42,29 59,33 7,-30 16,-267 66,-216 59,60 88,18 154,34 0,-11 -26,-52 -31,-65 -13,-36 36,-135 57,-164 -31,-51 -65,-79 -114,-103 -3,-1 -29,78 -41,97 -58,92 -99,-7 -143,-57 -71,-80 -36,-78 -9,-159 2,1 39,71 51,82 23,21 51,-26 64,-39 23,-23 90,28 90,-11 0,-27 -24,-112 32,-90 63,24 89,28 160,28 113,0 103,-24 134,-116 28,0 38,56 63,38 51,-38 82,66 108,-37 8,-33 -12,-52 14,-80 7,-7 55,-49 62,-49 0,63 -50,113 -26,185 8,24 -8,26 -12,49 -3,20 9,24 13,42 -4,1 -16,15 -26,18 0,4 -4,10 1,12 35,25 151,-41 160,4 9,3 14,79 27,74 28,-11 25,-32 65,-32 51,0 38,30 71,-25 29,-49 50,-42 94,-31 4,16 35,36 38,49 2,0 2,-1 2,1 21,-4 21,-66 57,-66 16,0 31,28 32,42 1,8 -80,52 -19,65 30,6 61,2 90,9 13,52 108,-34 75,17 -12,18 -28,83 7,40 19,-24 46,-74 46,-106 -70,-23 -65,-24 -47,-95 8,-32 -16,-60 14,-75 80,-40 49,-51 33,-127 -4,-21 -56,13 -71,17 -26,6 -78,12 -91,38 -2,0 -2,-1 -2,1 -9,-2 -4,-41 5,-46 30,-19 92,-19 128,-38 22,-12 47,-50 71,-50 26,0 134,-17 141,8 19,69 26,49 83,49 37,-35 -33,-81 -47,-115 -15,-37 -35,-69 -41,-108 -5,-34 22,-65 44,-89 2,-3 5,127 63,132 13,1 32,35 39,47 23,43 23,-86 63,-6 12,24 -13,79 17,93 31,14 58,42 88,53 21,8 64,-50 79,-62 30,-24 33,-21 67,-12 79,21 55,19 79,-69 5,-18 19,-117 30,-57l15 89c11,64 19,-53 40,-77 19,-21 23,-43 33,-68 6,-15 31,-50 32,-40 4,48 -26,93 -28,141 -1,24 -13,169 11,172 49,6 54,-143 123,-75 6,6 32,42 40,42 0,-26 -32,-156 41,-96 73,60 38,-4 51,-50 18,-63 36,-47 84,-43 35,3 120,-71 149,-96 32,-27 -37,-88 -28,-128 52,-13 49,-62 66,-96 13,-25 49,-23 65,-55 19,-38 73,-14 70,-72 -3,-50 16,-114 -18,-157 -15,-20 -43,-52 -43,-77 26,0 71,73 96,33 25,-41 -16,-46 -28,-82 -4,-13 13,-41 8,-64 -10,-52 51,52 56,58 13,21 30,60 38,83 38,0 58,-140 62,-167 6,-48 0,-88 -12,-133 -10,-38 -18,-50 12,-70 40,-27 25,-77 37,-116 20,-66 9,-90 9,-158 27,-62 77,-110 77,-182 0,-37 -11,-80 1,-115 11,-32 36,-42 50,-70 39,-79 24,-165 5,-243 -33,-8 -128,138 -169,163 -42,26 -53,13 -85,-19 -33,-33 -43,-14 -79,-14 0,-72 187,-200 52,-234 -5,-22 10,-42 8,-64 -1,-18 -34,-53 -44,-71 -13,-43 -7,-108 -7,-154 0,-50 -1,-102 9,-150 15,-71 56,-135 72,-208 12,-54 43,-113 37,-164 -12,-8 -37,-121 -37,-138 0,-51 -20,-85 8,-134 18,-31 50,-62 72,-90 10,-79 6,-171 -9,-248 -7,-36 -45,-73 -62,-107l-7 -115c-4,-61 -30,-128 -6,-183 24,-55 30,-119 -6,-169 -20,-4 -67,-55 -70,-75 -4,-26 6,-47 -2,-76 -6,-21 -23,-31 -27,-53 -14,-69 6,-152 -51,-209 -11,-40 -64,-126 -92,-158 -3,-26 -31,-58 -34,-90 -34,-39 -62,-79 -81,-128 -18,-47 -14,-79 -59,-110 -59,-40 -57,-99 -57,-158 0,-38 -93,-105 -122,-131 13,-37 6,-76 6,-113 -4,-4 -6,-8 -9,-13 -9,-2 -12,-13 -20,-18 -2,-7 -53,-54 -62,-64 -42,-49 -73,-109 -118,-157 -50,-53 -144,-132 -157,-204 -7,-36 -35,-67 -60,-93 -26,-26 -58,-91 -70,-126 -13,-4 -16,-7 -26,-13 -2,-10 -40,-40 -49,-55 -7,-1 -20,-19 -21,-26 -35,-25 -57,-128 -85,-170 -33,-47 -50,-47 -62,-108 -19,-97 -32,-139 -86,-227 -41,-66 -48,-161 -98,-227 -20,-31 -37,-62 -60,-91 -30,-38 -5,-20 1,-47 6,-25 -35,-95 -49,-119 -26,-44 -26,-59 -38,-108 -12,-51 -72,-75 -83,-138 -8,-49 -11,-120 -11,-169 -34,-17 -96,-52 -127,-83 -3,-15 -17,-66 -27,-76 -2,0 -2,1 -4,1 -4,16 -52,39 -66,40 -36,3 -251,-212 -263,-247 -39,0 -58,20 -98,-6 -66,-42 -109,-131 -168,-186 -69,-65 -98,-141 -157,-208 -57,-58 -93,-111 -112,-190 -15,-3 -22,19 -44,26 -18,6 -98,22 -115,20 -19,-2 -73,-66 -82,-82 -20,-35 -90,-9 -131,-9 -80,0 -65,-102 -103,-112 -1,-2 -2,-3 -5,-4 -17,22 0,149 -75,74 -66,-66 -160,-160 -96,-262 23,-37 152,-4 152,-61 8,-5 13,-48 7,-56 0,0 -126,-66 -52,-66 51,0 102,-39 155,-39l1 2 2 1c0,60 -32,130 -32,195 19,14 89,-3 109,-9l0 -2 -2 -1 -34 -151c-20,-63 -41,-125 -44,-195l-5 -120c-2,-38 17,-55 25,-87 28,-18 59,-48 59,-84 0,-32 -39,-44 -53,-64 -26,-3 -75,-61 -81,-84 -15,-65 8,-139 54,-186 34,-2 41,-49 54,-76 9,-18 104,-102 120,-93 36,22 4,77 57,24 74,-75 83,-67 178,-99 66,-22 124,-55 191,-66l1 -1c0,-45 -24,-143 24,-170 51,-28 59,10 98,-56 33,-55 78,-118 141,-87 25,13 58,-8 85,-8 17,0 78,19 92,26l0 0zm2084 11986c-3,-35 -26,-79 -21,-112 6,-48 36,-62 67,-94 77,-77 101,-166 123,-272 8,-40 22,-123 17,-163l-6 -6c-7,-1 -22,-11 -28,-14 -13,6 -45,-7 -47,-20 -21,-9 -38,55 -47,75 -33,67 -80,63 -141,47 -44,-11 -51,72 -65,100 -16,32 -47,84 -4,104 52,24 5,94 -12,129 -34,68 -23,132 -43,203 2,14 19,44 -2,46 -26,2 -44,8 -67,14 7,30 99,18 124,18 4,17 -22,46 -30,63 -18,43 -83,-19 -122,-26 -38,-7 -17,102 -20,129 -6,56 -20,111 -27,167 -11,92 -43,117 34,178 49,38 69,59 110,-7 24,-38 57,-101 70,-144 24,-80 19,-158 98,-202 81,-45 82,-87 72,-174l-33 -42zm630 1091c-7,-16 -102,-81 -120,-81 -16,16 -15,45 -15,66 0,45 -20,107 -38,147 -10,21 -22,43 -33,64 -11,22 -7,28 4,46 8,2 16,10 27,12 15,3 37,13 51,13 24,0 30,-7 51,-18l74 -14 0 -236zm0 1508l-137 0 -25 -36c-28,-35 -27,-90 -49,-125 -26,-41 -125,49 -150,-84 -13,-68 17,-95 49,-152 17,-31 -27,-118 -70,-6 -38,101 -121,241 -227,280 -72,26 -47,8 -94,-36 -34,-32 49,-66 75,-94 42,-46 64,-136 82,-196 15,-49 -11,-34 -47,-45 -48,-14 -10,-66 1,-95 6,-15 32,-107 43,-101 18,10 23,96 20,116 -6,43 -6,70 45,68 37,-2 73,-65 84,-96 35,-99 9,-66 69,-26 35,23 67,80 115,80 44,0 97,-88 108,-58 14,37 -34,71 -7,97 24,24 89,-5 117,-5l0 514zm-4859 -856c-38,-13 -136,-107 -159,-97 -74,33 -123,30 -206,51l-553 142c-74,19 -197,179 -260,237 -139,130 156,372 178,361 54,-27 55,-100 138,-116 62,-12 99,32 161,32 58,0 102,7 157,-21 39,-19 65,9 102,-8 31,-14 56,-42 89,-55 46,-18 108,-4 157,-32 41,-24 62,-34 112,-38 50,-4 193,-288 178,-349 -13,-7 -17,-26 -30,-34 -2,-14 -15,-38 -23,-51l-42 -23zm548 -1971c-19,19 -80,22 -104,12 -20,-9 -57,-9 -53,22 1,11 3,18 4,29 0,15 -4,39 7,50 18,20 54,21 80,22 27,1 55,12 80,9 12,-17 11,-33 8,-53 -4,-21 1,-43 1,-64l-21 -28zm-232 86c-9,-1 -17,-9 -26,-12 -11,-5 -23,-2 -35,-2l-7 7c0,14 4,25 6,39 1,6 1,13 2,19 1,4 2,11 2,15 4,4 8,6 13,7 12,2 26,4 36,11 5,4 8,10 13,14 4,4 12,7 15,11 15,2 16,-10 13,-24 -4,-21 -11,-37 -11,-59l-22 -27zm-12 163c-23,-7 -36,-27 -63,-16 -18,7 -21,25 -36,33 -9,5 -19,13 -30,13 -22,1 -27,11 -27,31 0,15 5,50 14,62 15,2 25,-4 40,-10 25,-11 57,-22 83,-8 19,10 49,16 69,11 7,-13 -5,-30 -10,-41 -5,-9 -9,-23 -10,-33 -1,-6 0,-17 -4,-22l-26 -21zm3035 -1439c-27,6 -78,-4 -78,38 0,11 1,19 4,28 3,12 6,23 6,36 0,8 2,13 4,21 2,8 3,6 11,6 1,-4 20,-25 23,-27 2,-8 27,-22 34,-27 6,-4 17,-11 21,-17 3,-4 0,-6 6,-8 3,-1 5,-1 6,-4 19,0 45,0 49,-21 2,-10 -1,-25 -9,-30 -6,-3 -28,-4 -30,2l-45 2zm-242 156c8,-44 3,-84 -42,-59 -38,22 -134,44 -116,101 6,18 51,155 -15,122 -53,-26 -17,50 -30,82 -21,52 8,42 8,89 0,40 -34,71 -34,114 0,30 34,43 34,85 0,52 2,39 42,25 25,-9 57,-6 49,-42 -9,-41 1,-118 30,-150 10,-11 56,-1 74,-6 135,-35 63,-75 28,-154 -12,-27 -23,-75 -25,-104 -1,-21 6,-55 0,-72l0 4 -4 -34zm-275 167c-7,0 -7,-1 -11,2 -16,-7 -39,-4 -55,0l-2 2c0,4 -6,18 -8,23 -5,11 -9,23 -21,32 -7,5 -28,19 -36,21 -2,7 -6,9 -2,17 8,16 19,36 27,53 9,22 24,43 45,17 9,-11 17,-28 25,-40 6,-9 16,-23 17,-32 3,-1 2,-5 6,-6 0,-7 8,-15 9,-23 2,-10 4,-18 4,-28l2 -38zm-47 258c-9,-3 -11,-5 -19,-9 -2,-1 -5,-2 -8,-4 -8,-6 -16,-11 -25,-19 -5,-5 -14,-12 -17,-2 -7,19 -13,44 -15,65 -1,5 -4,13 -2,19 4,11 13,9 23,8 8,-1 22,-6 30,-4 7,2 16,6 23,9 4,2 9,3 13,6 17,10 25,-16 25,-28l-4 -2 -25 -38zm-157 -104c-11,5 -19,10 -30,13 -14,5 -40,3 -55,0 -10,-2 -28,-1 -32,8 -4,7 6,19 9,23 7,7 17,14 23,21 4,5 9,15 13,21 8,12 12,21 17,34 2,7 2,9 6,15 2,4 5,8 6,11 8,2 10,5 19,2 16,-6 18,-31 21,-46 2,-11 3,-19 4,-30 1,-15 2,-29 2,-44l-2 -28zm-314 4c-12,-13 -27,-23 -42,-34 -15,-12 -57,-36 -57,0 0,16 7,31 8,47 0,5 3,18 6,23 3,4 6,7 8,11 6,1 12,6 21,6 7,0 13,1 21,2 11,1 21,12 28,19 7,6 18,8 27,8 3,-5 4,-3 6,-9 2,-9 3,-17 2,-27 0,-5 -5,-9 -6,-13l-4 0 -17 -32zm81 418c-20,-8 -38,-20 -57,-30 -15,-8 -31,-17 -47,-17l-2 2c0,18 5,35 6,53 0,7 3,23 9,27 4,3 14,5 19,6 11,1 24,6 34,2 6,-3 8,-8 11,-13 2,-4 3,-5 6,-8 3,-4 4,-3 6,-6l4 0 2 4 9 -19zm-390 -518c-45,7 -64,-42 -93,-51 -5,20 -24,42 -44,47 -3,18 -21,31 -6,55 13,21 37,75 -6,84 -39,8 -96,-42 -100,-82 -7,-58 11,-97 -4,-156 -16,-4 -38,-20 -55,-19 -15,1 -24,53 -30,66 -24,48 -90,68 -78,139 7,43 30,70 44,106 14,36 -16,76 23,106 20,16 54,48 74,15 14,-23 52,-154 78,-57 6,22 32,84 64,76 36,-9 53,9 83,6 32,-4 32,-114 42,-142 9,-28 27,-54 27,-84 0,-14 -14,-56 -27,-61l8 -49zm-464 406c-8,11 -21,18 -32,25 -23,13 -43,27 -66,40 -16,9 -27,20 -27,40 0,39 34,53 66,44 29,-8 42,42 66,46 3,11 15,1 17,-6 5,-18 4,-52 0,-70 -2,-11 -3,-23 -6,-34 -1,-4 -9,-32 -4,-28l-15 -55zm-23 302c-12,-6 -20,-14 -28,-25 -4,-5 -2,-10 -8,-15 -3,-3 -7,-6 -8,-10 -9,-2 -12,-3 -19,6 -8,10 -15,20 -27,27 -13,7 -35,20 -34,36 2,20 46,40 63,46 13,4 53,19 57,34 3,1 20,10 21,11 6,0 22,5 28,8 6,2 25,0 32,0 1,-2 4,-5 6,-6l0 -6c-6,-2 -24,-27 -28,-34 -6,-9 -23,-24 -32,-27l-2 -2 -21 -44zm-494 88c-4,22 -13,21 -27,33 -11,10 -19,24 -19,38 7,8 19,25 30,26 15,15 31,33 47,46 11,8 28,18 39,4 8,-10 15,-18 12,-32 -3,-16 -17,-31 -27,-43 -7,-7 -10,-15 -15,-23 -5,-7 -8,-17 -13,-24 0,-2 0,-2 -1,-4l-26 -21zm-258 907c-12,-4 -23,-8 -34,-13 -7,-3 -17,-5 -25,-8 -16,-4 -28,24 -28,36 0,15 7,27 13,40 5,11 6,16 15,25 10,10 21,7 32,11 11,4 15,-5 19,-11 5,-8 10,-16 15,-25l4 -2 -11 -53zm-678 -254c0,-17 -8,-31 -13,-46 -3,-9 -10,-16 -13,-25 -2,-5 -3,-10 -9,-11 -5,-15 -29,9 -34,13 -16,13 -52,25 -49,49 0,5 5,14 8,19 9,20 23,43 28,63l2 2c3,1 5,1 6,4 8,0 17,-5 23,-9 5,-4 16,-19 23,-19l2 -2 28 -38zm-53 -473c-15,-1 -71,-51 -78,-65 -9,-2 -15,-4 -25,-4 -4,18 -69,43 -87,47 -10,3 -47,4 -34,25 8,13 13,38 13,53 27,7 64,-20 97,-17 19,1 28,4 45,11 13,5 25,18 38,21 5,9 28,14 30,25 4,0 8,3 9,6l8 0c3,9 29,-15 34,-17 16,-7 59,-11 44,-36 -13,-21 -34,-32 -59,-32l-36 -17zm-44 120c-30,7 -67,4 -97,4 0,1 -19,9 -23,9 -27,3 -35,26 -13,46 11,10 27,21 42,21 14,0 23,-1 36,-4 21,-5 41,7 63,-2 17,-8 34,-15 51,-19 1,-2 4,-5 6,-6 0,-11 -1,-13 -8,-23 -2,-3 -14,-18 -17,-9l-40 -17zm-324 317c-10,-2 -22,-5 -32,-4 -16,1 -17,36 -13,47 6,23 -8,49 -6,72 2,19 30,44 49,44 7,-18 19,-30 21,-51 2,-18 -2,-36 -2,-53l-17 -55zm-102 13c-1,-16 -9,-37 -15,-53 -4,-11 -7,-46 -19,-47 -1,4 -12,7 -15,11 -11,12 -24,25 -28,42 -5,19 0,44 -21,55 -7,4 -18,6 -27,8 -9,2 -18,6 -27,8 -1,5 -5,5 -6,11 -2,22 -7,130 25,127 24,-3 46,-54 66,-70 8,-6 34,-34 36,-42 4,-1 6,-3 9,-4l21 -46zm-449 -704c-38,0 -60,-24 -85,-49 -15,-15 -58,-76 -72,-76 0,110 -52,249 -178,249 -34,0 -60,27 -51,63 7,29 -11,59 -11,87 0,46 62,99 106,99 48,0 75,-67 119,-82 34,-11 71,9 104,-2 63,-21 89,-73 93,-135 1,-19 19,-29 19,-49 0,-15 -14,-57 -28,-61l-15 -44zm-475 460c-8,-10 -15,-20 -23,-28 -5,-6 -15,-16 -17,-21 -4,0 -7,-1 -8,-4 -17,-3 -71,-42 -51,11 1,2 4,6 6,8 11,12 19,36 25,51 4,12 9,25 11,36 8,2 16,2 25,2 7,0 18,-5 25,0 9,6 23,10 32,0 10,-11 5,-35 -6,-44l-19 -11zm72 -592c-11,-21 -28,-37 -38,-57 -4,-9 -11,-23 -13,-32 -2,-8 -8,-16 -9,-25 -3,-1 -3,0 -4,-4 -15,-4 -24,11 -38,15 -18,6 -39,5 -53,19 -12,12 -5,24 4,34 19,22 44,40 44,72 0,26 -9,92 15,104 11,6 36,2 44,-6 8,-8 28,-62 27,-63l23 -59zm-165 -224c-55,-48 -32,-140 -47,-203 -6,0 -15,14 -19,19 -21,23 -40,27 -68,32 -41,8 -103,9 -91,68 7,36 40,56 59,85 19,31 23,91 51,112 49,36 58,-51 81,-57l34 -57zm235 -302c-24,-7 -54,-62 -63,-84 -6,-16 -15,-36 -25,-49 -5,-7 -25,-22 -27,-28 -41,0 -92,40 -127,61 -51,29 -58,72 4,91 63,19 66,32 95,85 8,15 25,51 27,66 2,28 -25,40 -32,68 -11,44 64,81 97,91 35,11 51,34 81,47 62,28 4,-141 -2,-160 -7,-24 1,-50 -4,-74 -4,-23 -30,-40 -30,-63l-2 -2 8 -51zm81 433c-8,-7 -14,-15 -21,-21 -7,-6 -13,-9 -19,-15 -7,-7 -18,-8 -28,-8 -14,0 -26,8 -38,11 -5,1 -20,2 -21,8 -1,7 1,16 4,21 10,17 14,31 28,46 8,8 10,17 21,21 3,1 4,2 8,4 6,2 8,4 15,4 6,0 8,0 13,-2 8,-3 14,-3 19,-8 7,-6 13,-18 13,-27l6 -34zm252 -953c-13,-16 -20,-37 -34,-51 -7,-7 -24,-34 -32,-36 0,32 4,54 -27,70 -23,12 -56,18 -81,23 -30,6 -56,-8 -85,-11 -20,-2 -38,37 -38,53 0,16 19,38 30,49 16,16 35,7 53,15 14,6 27,13 32,28 5,15 23,36 42,27 31,-15 21,-79 51,-97 22,-13 60,-20 74,-40l15 -30zm63 68c-16,-8 -40,-20 -53,-2 -23,30 40,86 25,116 -8,17 -52,35 -70,44 -14,7 -28,6 -42,15 -23,16 -55,64 -13,76 32,9 51,22 64,55 20,4 18,-1 27,-23 11,-29 24,-67 47,-87 27,-24 30,-54 21,-89 -5,-19 21,-56 8,-74l-13 -30zm-42 442c-15,-22 -14,-62 -21,-87 -24,0 -33,-13 -51,-27 -13,-10 -32,-29 -49,-23 -13,5 -27,32 -36,44 -22,29 -60,42 -44,85 8,20 30,40 49,47 16,6 27,17 44,23 11,4 22,1 32,4 25,7 59,13 68,-23l8 -44zm-180 -190c-14,-14 -25,-46 -40,-53 -8,-4 -22,4 -30,2 -23,-5 -30,-13 -30,-36 0,-9 1,-19 -2,-27 -3,-6 -10,-17 -11,-21 -37,0 -72,-2 -108,-2 -5,22 -2,29 9,49 15,27 25,82 55,95 31,14 88,-7 108,21 9,13 11,31 19,44 16,25 28,-25 30,-36l0 -36zm-218 -298c-13,-7 -17,-19 -28,-28 -6,-5 -15,-4 -23,-4 -4,14 -76,28 -91,28 -8,0 -25,-1 -25,10 0,24 30,53 45,70 14,15 21,24 40,32 12,5 26,27 38,11 9,-12 23,-65 28,-66l15 -53zm-1152 808c-8,9 -24,9 -36,9 -15,1 -28,0 -43,0 -32,0 -33,13 -33,42 0,25 -2,105 42,94 13,-3 31,-37 40,-48 6,-7 11,-16 17,-23 4,-5 10,-8 15,-12 1,0 2,-1 4,-1 4,-4 10,-8 11,-15 2,-9 6,-29 0,-37l-17 -9zm718 133c-5,1 -8,3 -12,6 -7,4 -19,4 -27,4 -15,0 -32,-6 -38,13 -3,10 -4,22 -6,32 -2,12 -4,24 -4,36 9,7 21,-5 29,-8 10,-3 15,-3 25,0 36,14 30,-29 30,-52l3 -31zm278 -1530c-19,15 -40,23 -55,44 -9,13 -13,26 -13,42 0,14 -3,25 8,34 17,15 36,-15 45,-27 7,-9 11,-19 19,-27 1,-1 4,-7 6,-8 3,-2 6,1 8,-4l6 0c0,-1 5,-4 8,-6 7,-4 8,-10 9,-19 2,-10 -2,-20 -4,-27l-4 2 -32 -6zm445 -518c-9,6 -8,5 -13,13 -4,5 -7,10 -11,13 -1,10 -12,19 -15,28 -5,14 -11,29 -15,44 -2,6 -3,3 -4,9 -1,11 0,22 0,32l4 4c4,0 12,1 15,0 2,-1 4,-3 6,-4 2,-2 3,-4 6,-6 3,-2 7,-2 9,-4 5,-4 9,-14 13,-19 11,-15 23,-35 23,-53 0,-16 2,-33 2,-49l-19 -9zm131 -2047c-3,1 -6,1 -9,2 -1,-4 -1,0 -2,-4 -3,-1 -3,0 -4,-4 -9,-2 -39,-30 -42,-40l-2 -2 -4 0c-1,-3 -4,-2 -8,-2l-4 -2c-2,-6 -27,-9 -34,-9 -38,0 -13,58 -2,76 22,35 49,49 51,95 2,40 45,343 129,302 47,-23 -16,-156 -25,-196 -5,-26 -19,-59 -19,-84 0,-31 2,-58 -9,-85l-17 -47zm413 -1310c4,-28 4,-63 4,-91 3,-1 2,-3 2,0 -5,0 -16,4 -21,2 -21,-11 -71,-61 -83,-15 -3,10 -2,22 -2,32 0,26 -11,51 -11,78 1,0 14,24 15,27 3,1 3,0 4,4 4,0 6,2 11,2 2,7 22,-2 27,-4 9,-5 18,-21 30,-21l25 -13zm-199 -82c-1,-9 -1,-18 -4,-27 -2,-7 -8,-12 -9,-17 -2,-1 -10,-8 -15,-6 -7,3 -21,3 -30,2 -4,-1 -8,-2 -13,-2 -6,0 -10,2 -15,2 -1,4 -4,4 -6,8 -4,6 -7,19 -8,27 -1,7 -3,12 -4,19 0,10 0,18 2,27 3,15 0,26 15,34 8,4 11,0 19,0 16,0 19,-16 28,-27 3,-3 3,-4 6,-8 7,-10 14,-13 25,-13l9 -19zm-114 -292c-7,-2 -6,-1 -11,-2 -2,0 -2,-1 -4,-2 -2,-1 -4,0 -6,0 -2,-1 -4,-2 -6,-2 -5,0 -7,0 -11,2 -4,2 -11,9 -13,13 -2,3 -4,13 -4,17 -1,10 0,22 0,32l0 6c0,5 1,5 2,9 1,5 -2,6 4,8 1,2 3,3 6,4 7,1 11,-2 17,-2 12,0 21,-3 27,-13 4,-7 6,-15 6,-23l0 -8c0,-4 0,1 -2,4l-4 -44zm-456 365c-23,5 -32,-8 -45,-25 -10,-12 -17,-29 -32,-36 -24,-11 -32,37 -28,53 0,2 3,4 4,6 2,6 2,12 6,19 6,13 16,28 19,40 16,0 33,-5 47,0 15,5 31,-6 45,-6 0,-4 0,-9 0,-13 0,-3 -4,-20 -4,-15l-11 -23zm640 -596c-3,-3 -6,-7 -9,-9 -2,-1 -4,-2 -6,-4 -7,-8 -22,-10 -32,-8 -25,6 -23,36 -27,55 -1,7 -3,12 -4,19 -1,10 -2,20 -2,30 0,9 3,12 4,19 5,0 7,2 13,2 15,-1 32,-13 45,-19 15,-7 25,-19 42,-19 12,0 28,-6 28,-19 9,-3 -14,-44 -32,-27l-21 -21zm-178 70c-5,0 -9,0 -13,-2 -5,-2 -15,-7 -21,-4 -13,6 -12,20 -13,32 -1,8 -2,15 -2,23 0,11 0,29 6,38 5,7 35,-13 44,-15 6,-2 17,0 23,2 9,2 13,2 21,0 1,-4 2,-6 2,-10 0,-10 -1,-20 -6,-28 -2,-3 -3,-2 -4,-6 -1,-3 -1,-5 -4,-6l-32 -25zm40 -152c-15,5 -3,2 -9,4 -2,0 -4,1 -6,2 -3,1 -3,1 -6,2 -2,1 -4,3 -6,4 -4,3 -9,3 -13,6 -1,1 -3,3 -4,4 -6,6 -11,6 -11,17 0,6 -2,16 2,21 9,14 36,10 51,10 1,-4 1,0 2,-4 10,-2 9,-25 9,-34 -3,-1 -2,0 -2,-4l-8 -27zm-203 -313c-12,-1 -16,-6 -27,-9 -8,-3 -17,-11 -23,-13 0,-10 -6,-21 -6,-34 0,-8 9,-43 0,-46 -1,-5 -7,-6 -8,-9 -23,0 -25,34 -25,51 0,14 1,27 6,40 2,5 4,10 6,15 2,6 6,8 8,13 4,1 5,2 6,6 4,1 6,3 9,4 4,12 30,25 42,30 15,7 26,17 44,17 1,-3 0,-3 4,-4 0,-6 4,-8 4,-13 10,-3 -7,-34 -15,-36l-25 -11zm-93 -154c11,2 14,-1 21,-9 5,-6 10,-9 15,-15 9,-9 13,-17 23,-25 4,-3 17,-13 21,-13 1,-4 2,-5 2,-10 -25,-6 -54,21 -80,11 -15,-5 -24,-31 -36,-34 -12,-3 -24,-8 -32,4 -4,6 -11,16 -17,23 -20,25 -11,61 -11,89 16,0 20,-5 34,-10 8,-3 19,-2 27,-6 7,-3 12,-8 19,-8l15 2zm-2699 -323c24,4 38,-30 44,-49 3,-10 15,-28 25,-30 5,-1 26,-9 27,-15 2,-20 -25,-59 -45,-51 -4,1 -5,4 -9,6 -9,3 -17,8 -27,11 -16,7 -39,4 -57,8 -25,5 -58,-15 -66,21 -2,10 -5,65 4,68l0 4c6,0 21,7 28,9 9,3 15,10 25,11 7,1 17,1 23,6l30 2zm1006 439c20,-17 36,-35 57,-49 6,-4 18,-6 27,-13 10,-8 9,-22 9,-34 -9,0 -21,-3 -30,-4 -22,-1 -58,-3 -78,4 -18,7 -20,22 -27,38 -4,11 -11,20 -19,28 -13,13 -31,24 -40,42 -6,12 -6,27 -6,42 13,0 23,0 34,-4 11,-4 24,-17 36,-17l36 -32zm-700 -1778l-9 0c-9,-7 -19,-13 -28,-20 -10,-8 -18,-19 -28,-28 -24,0 -46,35 -62,50 -15,14 -40,49 -11,60 11,5 19,-3 28,-7 35,-15 51,-5 81,10 21,11 45,25 68,11 2,-9 8,-11 2,-21 -6,-11 -13,-21 -21,-30l-19 -27zm71 -2318c-10,11 -14,18 -27,25 -17,9 -35,19 -51,28 -27,17 -23,49 -23,78 0,14 5,27 6,40 1,14 -2,28 -2,42 13,10 43,-2 51,-15 6,-10 13,-22 17,-32 2,-4 16,-23 23,-27 13,-8 19,-37 19,-53 0,-19 10,-32 6,-53l-19 -32zm-366 70c-16,8 -35,11 -53,15 -27,7 -68,5 -59,47 4,18 22,13 38,13 11,1 24,6 34,6 5,6 3,15 2,23 -6,33 -10,72 34,72 16,-22 35,-33 32,-65 -2,-24 -29,-55 -8,-76l-21 -36zm-2860 161c9,-15 17,-27 27,-40 6,-8 13,-16 13,-27 -9,0 -21,-8 -28,-13 -20,-13 -30,-42 -57,-25 -10,7 -17,18 -23,28 -3,5 -11,17 -15,19l0 6c5,2 17,26 19,32 6,18 26,20 38,32l27 -13zm-373 537c-9,2 -11,2 -19,0 -8,-2 -16,-5 -25,-6 -5,0 -7,-2 -11,-4 -3,-1 -6,2 -9,2 -1,3 0,3 -4,4 -1,5 -1,3 -6,4 -1,5 -5,9 -8,13 -7,10 -14,17 -25,21 -11,4 -23,4 -32,13 -15,15 -22,43 4,51 35,11 46,-46 78,-49 12,-1 22,1 34,0 21,-2 21,-24 34,-28l-11 -21zm-269 -40c-30,7 -64,0 -91,-10 -16,-5 -26,-9 -42,-19 -11,-7 -21,-9 -34,-9 0,33 66,74 95,74 11,0 20,-6 32,-6 19,0 28,4 45,9 14,5 32,2 45,2l0 -4c11,-4 -12,-28 -25,-28l-27 -9zm949 547c0,-10 -2,-26 2,-34 6,-12 7,-23 2,-36 -4,-8 -19,-20 -19,-28 -5,-1 -9,-5 -13,-6 -10,-2 -6,0 -15,2 -1,2 -1,3 -2,6 -15,2 -12,49 -17,63 -2,6 0,23 0,30 0,5 2,9 2,13 0,7 4,9 4,15 4,1 9,13 11,17 7,12 20,-2 25,-8l21 -34zm-746 -6l-8 -6 -2 0 -2 -4c-3,-5 -4,-6 -9,-10 -2,-2 -4,-4 -6,-6 -3,-2 -10,-6 -13,-6 -5,0 -9,3 -13,4 -2,10 -3,17 4,27 2,2 6,3 6,6l0 4c0,2 5,6 6,8 3,5 7,9 9,13 2,3 5,8 8,10 6,5 10,10 19,9 6,-1 14,-8 9,-13l-8 -36zm-656 -259c-2,-11 8,-34 20,-37 8,-2 17,3 24,-3 12,-11 -1,-41 -6,-53 -7,-18 -13,-39 -13,-58 -14,0 -22,40 -35,50 -20,16 -55,19 -55,51 0,12 14,22 22,28 7,6 8,23 20,26l24 -5zm-2708 2682c-2,-8 -5,-9 -8,-15 -3,-7 -7,-14 -11,-21 -1,-2 -4,-5 -4,-8l0 -4c0,-2 -3,-3 -4,-6 -2,-5 -4,-10 -6,-15 -1,-3 -3,-7 -4,-10 0,-1 -2,-2 -4,-4 -4,-5 -5,-6 -13,-6 -1,3 -4,5 -6,9 -1,2 1,6 0,8 -1,3 -2,4 -2,8 0,11 -2,44 13,44 1,8 -1,1 4,6 3,3 2,2 4,4 4,3 1,5 8,6 5,1 10,6 13,9 2,2 3,8 6,8l2 0c3,0 5,3 8,6l4 -19zm-61 -156c-3,-4 -7,-7 -8,-11l-4 0c-1,-3 0,-3 -4,-4l-2 -4c-1,0 -3,-1 -4,-2 -4,-3 -7,-4 -11,-8l-11 0 -2 2 0 4c-2,1 -3,2 -4,6 -1,2 0,10 0,11 0,5 4,6 4,11 4,1 5,2 6,6 3,1 4,3 8,4l2 4c2,1 3,1 6,2 1,3 3,2 6,4 3,2 3,1 6,2 1,1 2,2 4,2 4,0 9,0 13,0l-4 -28zm177 -712c-3,0 -5,1 -8,2 -4,1 -8,3 -12,3 -1,3 -9,5 -11,8 -4,4 -4,11 -4,16 2,1 2,4 4,7 1,2 4,4 5,6 3,0 4,2 8,0 6,-3 10,-9 16,-12 2,-1 8,-3 10,-3 2,0 4,0 6,0 3,-1 9,0 10,-4 1,-5 0,-14 -7,-14l-17 -8zm-337 764c0,-12 -4,-24 -6,-36 0,-5 -1,-9 -1,-13 0,-3 1,-6 1,-9 -2,0 -5,1 -7,2 -12,6 -28,7 -38,17 -6,7 -1,14 1,20 2,4 7,9 10,12 5,6 5,13 10,19 2,3 6,3 9,3 6,0 10,-4 15,-4l4 -11zm7591 8115c-1,-10 -3,-19 -6,-28 -2,-6 1,-12 -6,-16 -10,-6 -25,-6 -32,6 -6,11 -2,26 3,36 3,6 11,12 15,20 3,6 5,12 9,17 3,5 11,15 15,17 6,3 20,4 22,-5 4,-1 3,-8 2,-11 -1,-5 -4,-10 -8,-14 -1,-1 -5,-5 -6,-6l-9 -15zm7417 1209c10,-6 18,-16 29,-10 11,5 26,32 42,18 9,-8 18,-17 25,-28 5,-8 13,-13 15,-22 -9,0 -20,9 -29,9 -9,0 -6,-43 -16,-52 -9,-8 -19,7 -23,13 -4,7 -15,13 -20,20 -7,9 -14,16 -24,23 -5,3 -8,11 -10,17 -3,10 0,7 5,15l7 -3zm423 15c-7,1 -19,3 -22,9 -5,9 2,21 0,30 -1,7 -8,16 -13,21 -4,4 -10,17 -16,18 -1,5 -6,9 -8,15 -1,4 -3,10 -1,13 2,5 10,10 15,10 10,0 14,-10 21,-16l24 -28 0 -74zm-1143 494c-16,4 -33,0 -47,6 -18,7 -51,-6 -59,17 -8,24 -14,50 -8,74 4,15 10,29 27,28 22,-1 32,-34 55,-40 6,-1 25,2 30,4 8,3 13,4 23,4 1,-4 2,-5 6,-6 4,-21 -8,-33 -8,-53l-19 -34zm89 -167c-13,13 -23,21 -38,28 -26,13 -69,7 -72,46 -1,20 12,53 34,57 9,2 16,-1 23,-4 12,-4 22,-3 34,-6 9,-2 14,0 23,0 7,0 8,-1 9,-8 7,-26 6,-50 2,-76l-4 2 -11 -40z"/>
  <path class="fil0 str1" d="M2142 4306c-4,8 -23,27 -26,7 -14,-1 -31,-34 -47,-43 -20,-10 -56,29 -63,45 -12,26 -28,37 -54,28 0,-15 -13,-32 -20,-44 -12,-19 -17,-27 -24,-50 -13,-42 -32,44 -32,56 0,40 11,42 40,62 22,14 19,17 26,42 5,18 0,32 25,26 41,-11 64,80 99,71 0,-17 -5,-53 4,-66 8,-14 17,-38 17,-53 12,0 22,19 36,1 26,-36 111,-27 98,-90 -12,-3 -22,-19 -40,-8l-38 17zm955 1105c-19,0 -38,4 -58,1 -19,-2 -31,-10 -46,-18 -31,-16 -31,2 -57,11 -8,3 -62,18 -63,21 -9,3 13,19 17,21 26,18 40,16 71,14 20,-1 39,-3 58,2 28,8 51,14 81,8 24,-5 49,-3 49,-33 -6,-3 -14,-16 -19,-21l-32 -7zm3174 7873c-9,-24 6,-49 25,-63 16,-12 70,-47 70,-70 6,-2 5,-39 1,-46 -8,-17 -22,-44 -26,-61 -4,-1 -5,-4 -9,-4 -3,8 -48,34 -59,33 -17,-2 -44,-50 -49,-62 -19,-5 -43,-5 -64,-5 -6,24 15,55 21,80 9,36 30,96 17,132 -16,43 28,38 41,72l32 -7zm-3735 3833c33,-43 27,-101 92,-114 20,-4 42,-12 62,-20 12,-5 61,-41 45,-45 -1,-4 -21,-6 -26,-7 -48,-12 -78,-65 -105,-100 -20,-26 -48,-47 -76,-65 -24,-16 -27,-36 -50,-13 -38,38 -83,-15 -105,7 -14,14 -7,40 -7,57 0,18 -7,34 -7,50 38,9 42,105 50,139 7,30 30,49 41,77 14,35 21,35 53,44l33 -10zm-600 -973c-6,-30 -25,-61 -27,-89 -3,-30 -7,-46 -33,-64 -24,-16 -33,-27 -40,-56 -15,-59 -40,-44 -85,-34 -41,9 -58,2 -58,47 0,22 -16,50 0,69 32,38 79,48 114,82 11,11 55,39 58,51 3,1 1,3 5,4 1,2 2,3 2,5 2,1 2,0 2,2 2,0 16,15 17,17 3,0 3,0 5,1 4,-3 10,-13 14,-14l27 -20zm149 154c-15,-1 -32,-22 -47,-31 -12,-7 -34,-32 -47,-32 -4,14 4,33 7,47 2,11 3,32 8,40 10,17 23,31 41,43 9,6 38,28 40,38 2,1 4,1 5,4 12,0 21,-12 21,-24 0,-18 -9,-33 -9,-52l-19 -33zm2119 1905c12,-9 71,-39 71,-47 -22,-7 -12,-77 -6,-94 6,-16 10,-39 19,-53 7,-10 24,-25 24,-38 5,-2 -50,-14 -53,-15 -25,-14 -31,-31 -58,-24 -3,13 -19,62 -39,37 -10,-13 -25,-69 -43,-69 0,1 -2,3 -4,4 -4,25 -17,59 -37,75 -54,44 -26,68 18,106 20,17 29,20 37,46 10,33 5,33 36,57l36 17zm385 1796c17,-33 26,-77 26,-117 -23,0 -84,-9 -92,26 -17,74 -168,-21 -210,-35 -50,-17 -159,-59 -85,-94 76,-36 193,-118 245,-184 27,-34 47,-73 76,-106 50,-59 41,-19 73,5 23,-70 122,-21 149,2 27,24 97,80 97,-9 -104,0 -191,-177 -219,-262 -15,-44 -32,-102 -9,-146 21,-42 -12,-81 -12,-130 51,0 102,-14 153,-14 66,0 38,26 38,73 0,46 50,61 50,106 0,32 21,60 19,66 -16,42 29,88 61,125 25,28 129,-14 172,-14 63,0 50,66 50,118 0,56 75,7 97,42 18,30 -66,236 -83,281l-68 191c-3,8 -117,16 -123,14 -88,-34 -34,-100 -142,-78 -94,19 -84,-5 -130,87l-12 53 -120 0zm9937 -18872c-10,5 -13,-5 -24,-5 -20,0 -28,15 -45,21 -21,8 -45,10 -67,12 -17,2 -32,12 -47,18 -7,3 -15,3 -21,5 -5,2 -10,5 -13,6 0,15 27,24 31,39 4,1 2,5 1,8 -13,3 -23,23 -27,34 -7,19 8,17 18,8 21,-18 28,-30 58,-24 18,4 18,-23 32,-33 19,-14 62,-6 85,-5 8,1 26,6 18,-8 -1,-1 -27,-24 -27,-24 0,-3 -1,-4 -1,-7 2,-1 1,-1 1,-4 2,-1 14,-12 15,-15 3,0 3,1 4,-2l11 -25zm-9317 15521c9,-7 16,-17 27,-17 21,0 27,-13 43,-20 15,-7 31,-26 31,-43 -3,-1 -6,-5 -11,-7 -12,-5 -25,-6 -37,-13 -11,-7 -45,-30 -53,-23 -15,13 -27,5 -45,5l0 5c9,2 21,29 6,33 -16,4 -32,-1 -49,6 -33,13 -10,21 7,31 9,5 16,9 24,17 9,8 25,18 31,27l26 -1z"/>
  <g id="_1474439559456">
   <path class="fil2 str2" d="M10677 3838c14,-8 45,-35 45,-43 0,-2 0,-3 0,-5 0,-8 10,-8 12,-14 6,-26 35,-66 45,-92 1,-4 3,-2 7,-5 3,-2 -1,-7 2,-7 46,-3 66,-7 85,-26 18,-18 7,-45 9,-76 0,-3 2,-4 5,-5 27,-3 31,23 59,19 4,-1 1,-3 5,-7 3,-3 2,-6 7,-7 21,-4 102,8 109,-26 1,-7 6,-1 9,-7 9,-15 73,-192 78,-198 4,-5 7,-10 12,-14 4,-3 79,-34 85,-40 7,-8 13,-18 21,-21 61,-20 64,-91 64,-144 0,-35 5,-41 38,-38 37,4 32,-1 61,-14 6,-3 2,-5 7,-9 7,-6 10,-11 19,-17 4,-2 9,-6 12,-9 5,-6 5,-7 9,-12 3,-3 6,-8 9,-12 3,-3 3,-1 7,-5 4,-3 -2,-5 2,-5 2,0 3,0 5,0 7,0 41,-10 50,-24 15,-25 13,-42 17,-71 0,-3 5,-19 9,-21 32,-12 43,-2 83,-28 49,-32 124,-249 127,-302 0,-4 3,-12 7,-14 20,-10 14,-67 57,-71 4,0 3,0 7,-2 3,-2 23,-3 28,-5 36,-10 81,-27 109,-47 15,-11 8,-55 28,-64 89,-41 179,-264 224,-264 163,0 198,-240 234,-255 6,-2 180,-106 212,-142 38,-42 92,-14 130,-45 27,-22 76,-87 111,-94 8,-2 39,5 45,7 90,25 121,-40 168,-57 6,-2 7,-9 12,-14 5,-5 20,-16 26,-21 3,-3 21,-17 26,-19 8,-4 14,-6 21,-9 3,-1 9,-6 12,-9 3,-3 4,-4 7,-7 3,-3 1,-2 5,-5 2,-2 0,-5 2,-7 2,-2 5,0 7,-2 3,-3 3,-1 5,-5 9,-17 87,7 113,5 3,0 12,-4 14,-7 5,-7 59,-44 66,-45 33,-2 58,-17 90,-17 93,0 147,-36 229,-50 40,-7 70,-9 106,5 37,14 89,9 109,-17 30,-40 168,32 196,26 39,-8 77,-16 116,-24"/>
   <path class="fil2 str2" d="M14526 1128c27,-16 35,-26 62,-23 22,3 31,-23 38,-40 1,-3 12,-13 14,-14 16,-6 31,-14 50,-14 24,0 54,-4 78,-7 27,-3 55,10 80,0 25,-10 50,-20 76,-29"/>
   <path class="fil2 str2" d="M10357 3255c9,-13 7,-20 16,-29 13,-13 24,-68 9,-69 -115,-14 -167,-92 -36,-92 57,0 79,-52 85,-101 5,-41 48,2 71,-4 16,-4 29,-45 45,-56 97,-67 187,-57 301,-92 94,-29 167,59 268,18 57,-23 98,-69 154,-96 83,-41 167,-82 250,-123 48,-24 87,-40 116,-87 14,-23 53,-99 67,-116 9,-11 15,-25 0,-27 -82,-12 -26,-14 -29,-67 0,-4 0,-3 -2,-7 -2,-3 0,-3 -2,-7 -3,-3 -4,-4 -7,-7 -3,-3 -3,-4 -7,-7 -10,-6 -28,-42 -27,-54 4,-55 -32,-148 20,-148 2,0 4,0 7,0 10,0 38,-18 45,-49 1,-7 3,-4 11,-7 3,-1 44,-31 51,-43 31,-51 -105,-134 -29,-201 72,-64 110,-106 112,-215 0,-2 7,-9 9,-9 40,-2 27,-70 25,-92 -3,-36 19,-38 47,-43 41,-7 63,-53 98,-76 37,-24 51,-99 51,-119 0,-1 -1,-3 0,-4 1,-1 3,0 4,0 6,0 41,-10 51,-34 8,-17 -70,-64 -40,-85 35,-24 48,9 71,-58 6,-17 12,-34 18,-51"/>
   <path class="fil2 str2" d="M16391 8240c29,0 54,11 77,13 3,0 10,5 11,9 10,25 77,32 89,58 3,6 13,32 18,38 5,6 13,15 20,20 3,3 0,6 2,9 2,2 21,30 22,31 2,2 6,0 7,2 6,14 36,16 49,13 4,-1 1,1 4,-2 4,-3 2,-6 2,-11 0,0 -28,-41 -31,-43 -26,-10 12,-53 16,-63 7,-22 5,-29 -4,-49 -2,-5 -16,-11 -20,-13 -9,-6 -19,-8 -22,-16 -10,-25 -28,-33 -11,-67 12,-24 23,-65 2,-65 -1,0 -3,0 -4,0 -3,0 -19,-10 -22,-13 -3,-3 -14,-6 -16,-9 -5,-8 -18,-23 -27,-31 -9,-9 -20,-26 -22,-36 -7,-27 -10,-29 7,-49 12,-15 108,-31 116,-45 4,-6 8,-3 11,-9 9,-17 12,-32 20,-54 5,-12 57,-182 132,-141 71,39 100,-61 132,-139 5,-12 52,3 65,13 10,8 30,4 45,2 53,-8 143,28 163,-58 5,-23 7,-60 71,-60 25,0 76,6 89,-16 18,-29 -85,-25 -69,-92 11,-44 -76,-93 -38,-132 37,-38 138,-15 100,-69 -36,-52 -24,-47 -36,-103 -9,-42 -58,-42 -51,-81 21,-133 -104,-46 -98,-116 2,-28 47,-21 45,-45 -2,-14 -34,-15 -40,-31 -2,-6 121,-154 80,-186 -22,-17 -97,16 -105,-22 -5,-26 -14,-72 -4,-96 5,-12 96,-54 109,-43 40,35 16,48 98,16 87,-34 135,-119 185,-40 27,42 170,-18 210,-34 49,-19 68,7 62,-65 -5,-60 -17,-145 -7,-201 9,-50 1,-80 29,-107 31,-29 81,25 116,9 70,-31 101,-83 183,-96 92,-15 98,-125 98,-179 0,-1 0,-3 0,-4 0,-3 6,1 7,-2 65,-188 189,-99 335,-134 62,-15 223,-14 268,-49 61,-48 23,-131 76,-197 37,-46 -11,-90 -22,-134 -10,-38 15,-78 42,-96 19,-13 36,-292 36,-349"/>
   <path class="fil2 str2" d="M18288 10309c38,-6 152,-48 176,-10 21,35 0,82 0,121 0,95 46,110 116,157 36,24 111,91 138,116 42,38 85,76 127,114 37,33 93,78 158,11 46,-47 111,93 156,2 11,-22 120,-183 154,-110 4,9 33,12 38,20 2,4 3,4 7,7 5,4 4,3 9,7 3,2 8,9 9,11 2,15 69,86 80,96 12,11 47,10 56,4 49,-30 140,-332 183,-378 39,-42 108,11 152,0 46,-12 27,-72 78,-112 28,-21 -50,-144 7,-168 88,-36 160,81 230,-25 57,-87 52,-179 22,-262 -3,-9 -27,-31 -31,-40 -1,-3 -9,-10 -13,-11 -41,-14 16,-85 16,-105 0,-27 0,-148 31,-154 7,-2 19,-2 20,2 22,63 78,22 103,-2 45,-45 168,28 183,-31 4,-16 -18,-155 -33,-190 -11,-24 -84,-82 -85,-90 -4,-41 40,-143 -27,-175 -18,-8 -41,-30 -33,-60 27,-108 108,-253 18,-313 -25,-16 -49,-33 -74,-49 -30,-20 -37,-84 -54,-98 -14,-12 -32,-39 -40,-65 -5,-16 0,-66 -16,-76 -9,-6 -39,-21 -47,-31 -53,-68 -89,-79 -36,-170 18,-31 19,-69 33,-103 14,-31 44,-15 69,-20 42,-9 54,-91 100,-67 39,20 56,60 105,74 4,1 3,1 4,4 14,40 -1,85 36,114 44,34 105,-46 114,-65 23,-50 107,-11 107,38"/>
   <path class="fil2 str2" d="M19540 10821c18,14 39,9 55,21 49,38 27,68 105,63 156,-10 114,79 194,166 48,52 70,109 121,157 55,52 101,58 118,139 12,57 9,49 54,87 40,35 63,102 92,148 16,26 125,102 147,119 17,13 52,30 60,56 11,35 -3,64 -4,98 -1,32 14,137 60,83 127,-148 169,167 304,110 32,-13 20,-139 71,-107 42,25 83,51 125,76 38,23 47,77 116,60 65,-15 87,-31 123,-72 13,-15 13,-44 16,-67 0,-3 2,-4 4,-7 3,-3 6,-6 9,-7 14,-2 26,5 33,-4 13,-16 37,-79 56,-94 22,-17 97,-19 107,-25 19,-11 11,-46 22,-58 13,-13 105,-16 109,-58 3,-24 -142,-52 -132,-89 5,-19 10,-39 16,-58 3,-12 36,-10 45,-22 16,-24 -5,-30 -2,-56 0,-3 2,-4 4,-7 3,-3 1,1 4,-2 3,-4 18,-8 22,-11 4,-3 9,-7 11,-11 8,-17 71,-38 83,-49 8,-9 3,-24 11,-31 12,-11 45,-14 58,-27 1,-1 2,-2 2,-2 16,-16 -33,-37 -33,-72 -1,-31 -2,-61 -2,-92 0,-4 0,-4 4,-4 31,-4 54,0 76,-18 7,-6 -4,-20 4,-25 50,-25 -75,-171 -107,-199 -23,-20 -31,-52 -33,-92 -3,-54 31,-98 13,-148 -11,-32 -26,-85 11,-123 35,-36 -3,-114 9,-161"/>
   <path class="fil2 str2" d="M18457 14060c33,35 78,21 103,-18 43,-65 128,-39 190,-76 48,-30 42,-138 69,-157 6,-4 4,-15 9,-16 34,-4 73,-53 121,-40 19,5 59,4 65,-7 17,-32 -18,-50 -33,-81 -17,-34 -5,-82 -29,-107 -22,-23 -130,-30 -114,-83 10,-34 38,-16 51,-38 7,-12 21,-62 31,-67 1,-1 3,-2 4,-2 71,-36 66,-53 96,-119 10,-22 45,-25 65,-49 68,-81 113,-153 216,-90 102,62 122,-58 185,-76 10,-3 10,-15 18,-18 48,-19 58,-29 109,-25 5,0 5,4 9,7 2,2 5,1 7,4 4,6 6,8 13,13 9,8 26,68 36,78 1,1 1,2 2,2 3,3 4,4 7,4 2,0 4,0 7,0 9,0 54,-16 62,-20 20,-10 40,-14 60,-7 3,1 4,2 4,4 0,1 0,3 0,4 0,7 -3,62 4,69 1,1 2,2 2,2 17,17 105,-69 109,-25 4,37 7,73 11,110 3,33 60,-24 85,-2 19,17 -3,53 11,78 14,26 76,66 89,96 10,23 -79,69 -47,90 15,10 79,44 94,85 10,27 -2,84 4,123 4,27 3,43 2,69 0,1 -12,25 -16,25 -1,0 -3,0 -4,0 -6,0 -11,2 -16,0 -3,-2 -13,-17 -18,-20 -4,-2 -7,-2 -11,-4 -3,-2 -5,-6 -7,-2 -13,28 -103,18 -127,36 -18,13 32,31 36,49 8,35 -38,31 -2,76 24,30 92,10 56,58 -34,45 -137,98 -167,148 -19,30 -55,94 -62,128 -5,22 10,112 25,128 10,10 -2,55 2,67 5,16 21,35 27,43 5,7 3,85 0,96 -26,93 20,228 -42,307"/>
   <path class="fil2 str2" d="M22352 15717c44,-37 52,-32 49,-75 -1,-14 -36,-36 -36,-49 0,-3 0,-6 0,-9 0,-11 -22,-5 -22,-18 0,-3 0,-6 0,-9 0,-15 -2,-56 -13,-71 -13,-17 -91,-52 -120,-80 -28,-27 -92,-124 -103,-58 -2,12 -12,27 -22,27 -3,0 -6,0 -9,0 -70,0 -176,-1 -201,-13 -15,-7 -48,-23 -62,-13 -14,9 -80,3 -98,-9 -36,-24 -78,-26 -116,-4 -28,16 -166,-18 -174,-22 -146,-73 -36,-99 -4,-165 19,-40 -62,-82 -76,-89 -58,-29 -73,-48 -67,-112 1,-7 -4,-6 4,-9 141,-44 17,-94 54,-183 18,-42 87,-43 85,-58 -18,-133 -114,-69 18,-174 100,-79 -33,-127 -89,-169 -22,-17 7,-47 13,-67 2,-7 -3,-3 4,-9 17,-13 24,-136 18,-165 -1,-7 -8,-126 -13,-143 -11,-31 -47,-118 -58,-147 -5,-13 -5,-26 4,-31 26,-16 38,-77 27,-103 -7,-15 -42,-33 -54,-54 -20,-37 -9,-58 -12,-99 0,-4 -7,-20 -9,-25 -3,-9 -7,-24 -13,-27 -72,-35 -74,-70 -49,-136 66,-173 -90,-59 -114,-186 -8,-44 56,-49 56,-112 0,-61 16,-87 27,-130 1,-4 21,-28 25,-31 3,-3 4,2 4,-2 0,-1 0,-3 0,-4 0,-9 10,-8 16,-13 5,-4 4,-8 9,-9 28,-5 71,94 129,98 80,7 102,-47 165,-47 44,0 83,46 112,-11 22,-45 106,-17 145,-9 27,6 63,28 85,-2 28,-39 36,-39 71,-43 30,-3 180,4 196,-16 13,-15 -10,-54 -11,-63 -3,-30 25,-75 9,-90 -47,-43 -34,-57 -18,-103 2,-6 8,-7 13,-9"/>
   <path class="fil2 str2" d="M1000 8939c32,-99 271,-53 278,-201 0,-8 8,0 13,-9 8,-13 71,-171 71,-178 0,-3 0,-6 0,-9 0,-25 59,-28 85,-36 9,-3 -5,-9 4,-9 3,0 6,0 9,0 2,0 71,-35 71,-45 0,-3 0,-6 0,-9 0,-67 107,-39 107,-71 0,-9 0,-18 0,-27 0,-7 20,-106 27,-125 39,-102 17,-356 36,-459 4,-21 43,-58 49,-85 1,-6 27,-26 31,-27 23,-4 141,-37 165,-49 102,-51 145,-56 223,-4 44,29 157,166 196,205 69,69 89,163 178,192 32,10 63,21 95,31"/>
   <path class="fil2 str2" d="M1000 13453c13,-26 10,-36 37,-36 3,0 6,0 9,0 8,0 6,-9 13,-9 3,0 6,0 9,0 8,0 10,-1 18,-4 10,-4 16,-8 27,-4 9,3 9,1 18,4 10,4 11,9 22,9 9,0 18,0 27,0 36,0 76,-58 76,-80 0,-4 -2,-9 0,-13 1,-3 7,-1 9,-4 2,-4 0,-9 0,-13 0,-6 4,-7 9,-13 6,-8 11,-8 18,-18 3,-5 9,0 13,-4 5,-6 1,-6 9,-13 1,-1 3,-3 4,-4 6,-6 3,-3 9,-9 1,-1 3,-3 4,-4 6,-6 16,-3 22,-9 6,-5 9,-13 18,-13 4,0 9,0 13,0 13,0 67,-37 67,-45 0,-3 0,-6 0,-9 0,-8 9,-6 9,-13 0,-3 0,-6 0,-9 0,-11 10,-21 4,-31 -5,-9 -13,-8 -13,-18 0,-6 0,-12 0,-18 0,-11 -8,-16 -4,-27 2,-8 -3,-9 4,-13 3,-1 7,-2 9,-4 2,-2 2,-7 4,-9 2,-2 7,-2 9,-4 2,-2 2,-7 4,-9 2,-2 6,0 9,0 5,0 13,-9 13,-13 0,-7 0,-15 0,-22 0,-9 -13,-8 -13,-18 0,-3 0,-6 0,-9 0,-11 -10,-21 -4,-31 4,-7 12,-13 18,-13 3,0 6,0 9,0 8,0 6,-7 13,-9 15,-3 29,-1 36,-13 1,-3 4,-6 4,-9 1,-3 0,-6 0,-9 0,-8 13,-12 13,-22 0,-3 0,-6 0,-9 0,-11 13,-11 13,-18 0,-3 -2,-6 0,-9 2,-3 7,-2 9,-4 2,-2 0,-6 0,-9 0,-7 -1,-2 4,-9 5,-7 12,-3 18,-9 7,-6 -4,-5 4,-9 3,-1 6,-4 9,-4 4,-1 9,0 13,0 9,0 9,0 18,-4 6,-3 8,-3 13,-9 6,-6 9,0 9,-9 0,-3 0,-6 0,-9 0,-7 13,-9 13,-18 0,-3 0,-6 0,-9 0,-7 1,-1 4,-9 5,-13 12,-23 27,-31 6,-3 0,-9 9,-9 3,0 6,0 9,0 8,0 31,-9 40,-4 6,3 0,9 9,9 10,0 21,0 31,0 20,0 80,10 103,4 7,-2 0,-2 9,-4 8,-3 5,-1 13,-4 3,-1 6,-3 9,-4 8,-4 -5,-9 4,-9 3,0 6,0 9,0 7,0 3,2 9,-4 1,-1 3,-3 4,-4 2,-3 3,-6 4,-9 4,-8 2,-4 9,-9 11,-8 25,-9 36,-18 12,-10 22,-29 31,-40 7,-8 14,-7 22,-13 5,-3 -1,-11 4,-13 15,-8 37,-7 45,-22 1,-3 3,-6 4,-9 7,-14 34,-36 49,-36 3,0 6,0 9,0 18,0 37,-19 49,-31 3,-3 6,-6 9,-9 9,-9 14,-2 22,-9 8,-6 34,-17 40,-27 3,-4 6,-9 9,-13 5,-7 1,-5 9,-9 3,-1 6,-3 9,-4 5,-3 0,-9 4,-13 6,-6 2,-7 9,-13 3,-3 7,-5 9,-9 2,-4 0,-9 0,-13 0,-26 32,-49 36,-76 1,-7 9,-6 9,-13 0,-7 0,-15 0,-22 0,-12 29,-44 36,-54 4,-5 3,-8 9,-13 11,-10 27,-25 27,-40 0,-3 0,-6 0,-9 0,-9 2,-9 4,-18 3,-8 1,-5 4,-13 4,-10 1,-12 4,-22 2,-8 -2,-7 4,-13 3,-3 8,-5 9,-9 2,-7 0,-15 0,-22 0,-10 0,-13 4,-22 10,-21 2,-68 27,-80 3,-1 7,-2 9,-4 2,-2 3,-6 4,-9 3,-7 14,-13 22,-13 22,0 45,0 67,0 10,0 10,-9 18,-9 4,0 9,0 13,0 25,0 69,-17 80,-40 1,-3 2,-7 4,-9 4,-3 10,-2 13,-4 3,-2 3,-6 4,-9 4,-7 12,-3 18,-9 7,-7 27,-21 40,-27 11,-5 24,-13 36,-13 6,0 12,0 18,0 12,0 20,-12 31,-13 65,-6 171,-70 201,-125 9,-16 10,-38 18,-54 21,-40 64,-186 120,-142 148,117 183,-83 315,-4 117,69 142,-138 263,-130 110,8 92,-94 196,-87 150,9 165,-125 239,-233 18,-26 216,-197 237,-206 4,-2 7,-2 11,-4 3,-2 3,2 4,-2 23,-56 114,-69 167,-72 2,0 23,-5 27,-7 4,-2 23,-9 29,-11 3,-1 38,-25 42,-29 5,-5 10,-6 13,-11 2,-3 6,2 9,-4 12,-23 50,-67 65,-101 3,-7 15,-6 22,-9 4,-1 3,-3 4,-7 1,-2 20,-20 25,-25 4,-4 0,-3 4,-7 4,-4 3,-12 9,-13 31,-10 70,-75 56,-103 -1,-1 -2,-3 -2,-4 -20,-39 -98,-107 -36,-128 56,-19 88,-32 114,-92 14,-33 28,-66 42,-98 16,-36 21,-68 40,-103 8,-15 47,-90 47,-98 0,-1 -1,-3 0,-4 13,-32 27,-63 41,-95"/>
   <path class="fil2 str2" d="M4967 10196c5,-55 85,-131 51,-170 -17,-20 -25,-41 -25,-67 0,-14 22,-29 33,-36 22,-12 21,-80 16,-103 -9,-38 -5,-128 25,-152 27,-22 29,-27 29,-63 0,-29 12,-37 29,-47 23,-14 30,-84 36,-105 4,-17 9,-35 13,-52"/>
   <path class="fil2 str2" d="M4820 10592c-2,4 40,-25 49,-29 12,-6 34,-7 42,-16 2,-2 4,-4 7,-7 9,-9 30,-8 42,-11 29,-7 76,-7 107,-7 49,0 84,49 127,65 36,14 95,22 132,29 12,2 35,28 49,31 23,6 46,12 69,18"/>
   <path class="fil2 str2" d="M4344 10876c23,-34 -11,-56 -24,-85 -24,-53 18,-129 18,-188 0,-105 34,-195 36,-302 1,-54 1,-109 2,-163 1,-64 -17,-102 -38,-150 -7,-16 -60,-128 -60,-150 0,-24 14,-41 25,-60 17,-30 9,-82 25,-114 15,-32 30,-63 45,-95"/>
   <path class="fil2 str2" d="M1000 12353c10,-3 24,-8 30,-18 3,-5 14,-10 16,-16 12,-34 46,-61 67,-67 49,-14 161,4 179,-58 1,-3 46,-37 49,-38 10,-3 67,-14 76,-18 39,-17 64,-96 98,-107 6,-2 26,-26 29,-31 8,-13 28,-18 36,-29 4,-5 7,1 13,-4 9,-8 15,6 18,11 1,2 3,8 7,9 43,14 63,-75 132,-51 7,2 5,6 9,11 3,4 8,3 11,7 6,7 27,7 38,2 47,-20 117,23 136,-31 3,-7 88,-56 103,-29 3,5 20,11 25,11 30,4 109,8 123,-31 2,-5 11,-8 13,-13 15,-42 96,-36 112,-67 5,-11 28,-35 40,-43 16,-10 31,-19 47,-29 23,-14 97,-97 116,-114 16,-15 70,-37 92,-38 47,-3 69,-32 87,-54 33,-40 65,-81 98,-121 4,-5 14,-10 16,-16 24,-71 181,-60 225,-36 124,69 142,-62 190,-92 5,-3 1,-4 4,-9 6,-9 10,-12 13,-18 2,-3 5,0 7,-2 3,-5 8,-5 11,-9 5,-7 22,-27 29,-31 26,-18 52,-36 78,-54 5,-4 8,-8 11,-13 9,-15 111,-79 125,-87 6,-4 41,-43 45,-49 8,-15 10,-31 18,-45 3,-5 11,-9 18,-13 4,-2 2,-1 4,-4 42,-56 85,-112 127,-168 3,-4 8,-10 11,-13 4,-6 20,-8 25,-13 10,-11 87,6 107,0 124,-39 315,-249 324,-389 1,-22 46,-143 29,-166 -16,-21 -24,-76 -31,-105 -16,-60 -20,-130 -20,-195 0,-71 22,-143 22,-215 0,-37 0,-74 0,-111"/>
   <path class="fil2 str2" d="M3874 9533c13,70 7,138 7,209 0,23 -5,61 2,83 8,22 20,55 36,74 35,41 51,119 71,166 20,46 33,77 16,128 -30,83 -40,150 -7,233 16,40 -36,131 -60,161 -15,19 -24,43 -45,43 -2,0 -5,-1 -7,0 -2,1 -3,3 -4,4 -36,36 -150,1 -181,43 -9,12 -21,20 -29,34 -20,34 -58,76 -69,114 -11,37 -22,75 -33,112"/>
   <path class="fil2 str2" d="M1000 18550c12,24 -11,4 28,18 41,14 142,-5 174,27 1,1 3,3 4,4 1,1 3,3 4,4 1,1 4,2 4,4 1,3 0,6 0,9 0,6 4,23 9,31 4,6 10,41 18,49 4,4 10,8 13,13 2,3 -2,6 0,9 5,7 12,12 18,18 19,19 55,39 80,49 7,3 1,13 9,13 3,0 6,0 9,0 8,0 8,4 13,9 1,1 3,3 4,4 4,4 0,10 4,13 7,6 9,-5 9,4 0,3 -2,7 0,9 2,2 6,-2 9,0 3,2 3,6 4,9 7,14 30,-1 45,9 13,9 23,27 49,27 3,0 6,-2 9,0 3,2 3,6 4,9 4,8 3,3 9,9 6,6 7,7 13,13 6,6 3,3 9,9 6,7 2,-1 9,4 4,4 0,10 4,13 9,7 20,48 31,54 3,1 6,3 9,4 10,5 17,25 27,31 5,3 12,8 18,13 6,6 6,9 13,13 8,5 19,12 27,13 39,7 87,8 134,13 9,1 16,13 18,18 4,9 -1,14 4,22 4,7 0,6 4,13 4,6 1,1 4,9 4,10 8,14 13,22 4,6 13,3 18,9 9,12 71,25 89,27 2,0 46,8 49,13 1,3 2,7 4,9 2,2 6,0 9,0 8,0 4,11 9,18 4,5 4,7 9,13 3,4 13,16 18,22 3,4 9,12 13,18 4,4 7,14 13,18 3,1 7,2 9,4 2,2 3,6 4,9 4,8 3,3 9,9 5,6 7,9 13,9 3,0 6,0 9,0 9,0 8,12 13,13 16,5 46,3 54,18 1,3 2,7 4,9 2,2 6,-2 9,0 3,2 3,6 4,9 4,8 0,9 9,9 3,0 6,-2 9,0 3,2 3,6 4,9 4,8 3,6 9,9 9,5 19,12 27,13 37,7 75,13 116,18 5,1 97,24 103,36 1,3 3,6 4,9 3,7 15,2 18,9 1,3 2,7 4,9 2,2 6,0 9,0 20,0 53,30 62,49 1,3 3,6 4,9 6,11 6,4 18,9 10,4 15,-1 22,4 6,5 27,10 31,18 1,3 3,6 4,9 4,8 4,2 9,9 4,5 11,-1 13,4 1,3 3,6 4,9 4,8 4,2 9,9 3,4 14,21 18,27 2,3 25,40 31,45 8,7 3,9 13,13 39,17 92,96 147,103 7,1 8,12 18,13 28,5 56,4 85,9 6,1 109,25 125,31 19,7 46,24 62,27 71,12 306,-60 330,-49 112,50 239,136 330,45 3,-3 6,-6 9,-9 6,-6 14,3 18,-4 1,-3 3,-6 4,-9 4,-8 16,-3 22,-9 6,-5 10,-18 18,-18 3,0 6,0 9,0 11,0 45,7 58,4 64,-13 128,-27 192,-41"/>
   <path class="fil2 str2" d="M1000 17774c24,1 41,27 64,27 3,0 6,0 9,0 11,0 12,5 22,9 10,3 17,9 27,9 3,0 6,0 9,0 9,0 5,2 13,4 7,2 6,9 13,9 7,0 15,-1 22,0 3,0 7,2 9,4 2,2 3,6 4,9 4,8 7,7 13,13 6,7 2,-2 9,4 5,5 7,11 9,18 3,8 4,5 4,13 0,6 0,12 0,18 0,8 0,6 4,13 4,6 0,6 4,13 4,6 0,1 4,9 4,6 0,1 4,9 4,6 -4,5 4,9 3,1 6,3 9,4 6,3 0,9 9,9 3,0 6,0 9,0 8,0 8,4 13,9 5,5 9,13 18,13 3,0 6,0 9,0 12,0 14,18 27,18 3,0 6,0 9,0 12,0 30,21 40,27 4,2 13,9 13,13 0,3 0,6 0,9 0,7 9,0 9,9 0,3 0,6 0,9 0,9 7,5 4,13 -3,8 0,13 0,22 0,12 -1,24 0,36 0,3 3,6 4,9 2,5 11,23 18,27 3,1 6,3 9,4 15,7 34,31 49,31 3,0 6,0 9,0 8,0 1,13 9,13 4,0 9,0 13,0 8,0 3,3 9,9 1,1 4,2 4,4 1,3 -1,6 0,9 2,4 7,5 9,9 2,4 0,9 0,13 0,10 1,13 4,22 3,10 1,16 4,27 3,10 1,16 4,27 4,12 9,14 9,27 0,4 0,9 0,13 0,12 -1,20 4,31 3,7 0,6 4,13 4,6 0,1 4,9 4,6 1,0 4,9 4,11 11,22 18,31 5,6 16,32 22,40 3,5 11,-1 13,4 1,3 3,6 4,9 4,8 9,13 18,13 3,0 6,-2 9,0 3,2 2,7 4,9 2,2 6,3 9,4 9,4 21,12 27,18 6,6 12,3 18,9 1,1 3,3 4,4 1,1 3,3 4,4 6,6 3,3 9,9 1,1 3,3 4,4 6,6 9,0 9,9 0,3 -2,6 0,9 2,3 6,3 9,4 5,3 0,9 4,13 5,5 9,0 9,9 0,3 0,6 0,9 0,9 13,9 13,18 0,3 0,6 0,9 0,9 41,83 54,89 3,1 6,3 9,4 10,5 12,22 22,27 10,5 24,18 36,18 4,0 9,0 13,0 21,0 55,22 76,27 12,3 19,5 31,9 11,3 20,0 31,4 17,7 52,4 71,9 12,3 24,-1 36,4 21,10 83,8 107,13 12,3 15,5 27,9 14,4 28,-1 40,4 18,7 33,22 54,22 6,0 12,0 18,0 14,0 21,10 36,13 7,2 6,7 13,9 12,3 24,9 36,9 4,0 9,0 13,0 8,0 6,7 13,9 16,3 19,4 36,9 20,6 42,2 62,9 21,7 45,22 67,22 4,0 9,0 13,0 16,0 27,18 45,18 4,0 9,0 13,0 12,0 26,2 31,13 1,3 2,7 4,9 2,2 6,0 9,0 9,0 11,8 18,13 4,3 17,12 22,18 6,6 2,4 9,9 5,4 -1,11 4,13 3,1 7,2 9,4 2,2 0,6 0,9 0,17 32,44 40,58 4,7 0,9 9,13 3,1 6,3 9,4 14,7 16,28 27,40 8,9 21,7 27,18 1,3 3,6 4,9 4,8 3,3 9,9 6,6 7,8 13,13 9,8 13,15 22,22 7,6 7,7 13,13 5,6 10,9 18,9 4,0 9,0 13,0 9,0 5,2 13,4 7,2 6,9 13,9 4,0 9,0 13,0 9,0 5,2 13,4 8,3 5,1 13,4 13,5 22,18 36,18 4,0 9,0 13,0 14,0 22,18 36,18 4,0 9,-2 13,0 3,1 2,7 4,9 2,2 6,0 9,0 11,0 16,18 22,27 4,5 3,8 9,13 1,1 3,3 4,4 1,1 3,3 4,4 1,1 3,3 4,4 6,6 9,-5 9,4 0,3 -2,6 0,9 2,3 6,3 9,4 8,4 3,3 9,9 6,5 1,6 9,13 1,1 3,3 4,4 8,7 60,45 67,49 12,8 31,17 31,27 0,3 0,6 0,9 0,9 9,2 9,9 0,6 0,12 0,18 0,9 1,9 4,18 6,13 9,43 4,58 -3,12 0,24 -4,36 -4,12 -8,28 -4,40 4,11 10,20 13,31 7,22 15,46 22,69"/>
   <path class="fil2 str2" d="M5266 19451c121,-182 117,-264 173,-460 2,-8 1,-5 9,-9 13,-6 21,-3 36,-9 7,-2 188,-38 210,-45 110,-37 174,-270 254,-277 112,-9 41,146 192,156 298,19 181,-155 308,-317 78,-99 149,-310 272,-330 22,-3 56,-45 71,-80 4,-9 5,-10 13,-13 16,-7 35,-17 49,-27 7,-5 9,-6 13,-13 9,-14 59,-122 71,-134 7,-7 1,-7 9,-13 6,-5 1,-7 9,-13 12,-9 26,0 36,-13 26,-36 96,-123 116,-165 9,-20 13,-16 23,-30 4,-6 7,-12 11,-18 5,-7 9,-15 13,-20 4,-4 8,-14 11,-18 3,-3 11,-6 13,-9 9,-10 19,-17 29,-25 11,-9 22,-18 31,-29 28,-35 57,-70 85,-105"/>
  </g>
  <polygon class="fil3 str3" points="1596,1232 3813,1232 3813,2825 1596,2825 "/>
  <path class="fil4" d="M1198 2963c0,-17 4,-34 13,-51 9,-17 22,-30 38,-39 17,-9 34,-14 52,-14 18,0 35,5 52,14 17,9 29,22 39,38 9,17 14,34 14,52 0,18 -5,35 -14,52 -9,17 -22,29 -39,39 -17,9 -34,14 -52,14 -18,0 -35,-5 -52,-14 -17,-9 -30,-22 -38,-39 -9,-17 -13,-34 -13,-51zm17 0c0,15 4,29 11,43 7,14 18,25 32,32 14,8 28,12 43,12 15,0 29,-4 43,-12 14,-8 24,-18 32,-32 8,-14 12,-28 12,-43 0,-15 -4,-29 -12,-43 -8,-14 -18,-25 -32,-32 -14,-8 -28,-11 -43,-11 -15,0 -30,4 -43,12 -14,8 -25,19 -32,32 -7,14 -11,28 -11,43zm104 -33l5 -17c12,3 21,9 28,18 7,9 10,20 10,33 0,16 -5,29 -16,39 -10,10 -25,15 -44,15 -12,0 -23,-2 -32,-7 -9,-5 -16,-11 -20,-20 -5,-9 -7,-18 -7,-29 0,-12 3,-22 9,-30 6,-8 14,-14 24,-17l4 16c-7,3 -12,7 -16,12 -4,5 -6,12 -6,19 0,11 4,19 11,26 8,7 18,10 32,10 14,0 25,-3 32,-10 7,-6 11,-15 11,-25 0,-8 -2,-16 -7,-22 -5,-6 -11,-10 -20,-12z"/>
  <path id="1" class="fil4" d="M1404 2668l-19 0c14,9 22,23 22,41 0,12 -3,22 -10,32 -6,10 -15,17 -27,23 -12,5 -25,8 -40,8 -15,0 -28,-2 -40,-7 -12,-5 -21,-12 -27,-22 -6,-10 -10,-21 -10,-33 0,-9 2,-17 6,-24 4,-7 9,-12 15,-17l-73 0 0 -25 202 0 0 23zm-73 78c19,0 33,-4 42,-12 9,-8 14,-17 14,-28 0,-11 -4,-20 -13,-28 -9,-8 -22,-11 -41,-11 -20,0 -35,4 -44,12 -9,8 -14,17 -14,29 0,11 4,20 13,28 9,7 23,11 42,11z"/>
  <polygon id="2" class="fil4" points="1343,2616 1318,2616 1318,2539 1343,2539 "/>
  <path id="3" class="fil4" d="M1404 2512l-146 0 0 -22 21 0c-7,-5 -13,-11 -17,-18 -4,-8 -7,-16 -7,-26 0,-11 2,-20 7,-27 5,-7 11,-12 19,-15 -17,-12 -26,-27 -26,-45 0,-15 4,-26 12,-34 8,-8 20,-12 37,-12l100 0 0 25 -92 0c-10,0 -17,1 -21,2 -4,2 -8,5 -11,9 -3,4 -4,9 -4,15 0,10 3,19 10,26 7,7 18,10 33,10l85 0 0 25 -95 0c-11,0 -19,2 -25,6 -6,4 -8,11 -8,20 0,7 2,13 6,19 4,6 9,10 16,13 7,3 17,4 31,4l76 0 0 25z"/>
  <path id="4" class="fil4" d="M1385 2181c8,9 13,18 17,27 3,9 5,18 5,27 0,16 -4,28 -12,37 -8,9 -18,13 -30,13 -7,0 -14,-2 -20,-5 -6,-3 -11,-8 -14,-13 -4,-5 -6,-11 -8,-18 -1,-5 -2,-12 -4,-22 -2,-20 -5,-35 -9,-44 -3,0 -6,0 -6,0 -10,0 -17,2 -21,7 -6,6 -8,16 -8,28 0,12 2,20 6,26 4,6 11,10 22,12l-3 24c-10,-2 -19,-6 -25,-11 -6,-5 -11,-12 -15,-22 -3,-10 -5,-21 -5,-33 0,-13 1,-23 4,-31 3,-8 7,-14 11,-17 4,-4 10,-6 17,-8 4,-1 12,-1 23,-1l33 0c23,0 38,-1 44,-2 6,-1 12,-3 18,-6l0 26c-5,3 -11,4 -18,5zm-55 2c4,9 7,23 9,41 1,10 3,17 5,22 2,4 5,7 8,10 4,2 7,3 12,3 7,0 12,-2 16,-8 4,-5 7,-12 7,-22 0,-10 -2,-18 -6,-26 -4,-7 -10,-13 -17,-16 -6,-3 -14,-4 -25,-4l-9 0z"/>
  <path id="5" class="fil4" d="M1460 2120l-203 0 0 -23 19 0c-7,-5 -13,-11 -17,-18 -4,-7 -6,-15 -6,-24 0,-13 3,-24 10,-33 6,-10 15,-17 27,-22 12,-5 25,-7 38,-7 15,0 28,3 40,8 12,5 21,13 28,23 6,10 10,21 10,32 0,8 -2,16 -5,22 -3,7 -8,12 -13,16l71 0 0 25zm-129 -23c19,0 33,-4 42,-11 9,-8 13,-17 13,-28 0,-11 -5,-20 -14,-28 -9,-8 -24,-12 -43,-12 -19,0 -33,4 -42,11 -9,8 -14,17 -14,27 0,11 5,20 15,28 10,8 24,12 43,12z"/>
  <path id="6" class="fil4" d="M1360 1973l-4 -25c10,-1 17,-5 23,-12 5,-6 8,-15 8,-26 0,-11 -2,-20 -7,-25 -5,-6 -10,-8 -16,-8 -6,0 -10,3 -13,7 -2,3 -5,12 -8,25 -5,18 -9,31 -12,38 -3,7 -8,12 -14,16 -6,4 -12,5 -20,5 -7,0 -13,-2 -18,-4 -6,-3 -10,-7 -14,-12 -3,-4 -5,-9 -7,-16 -2,-7 -3,-14 -3,-21 0,-11 2,-22 5,-30 3,-9 8,-15 13,-19 6,-4 13,-7 23,-9l3 24c-8,1 -14,4 -18,10 -4,5 -6,13 -6,22 0,11 2,19 6,24 4,5 8,7 13,7 3,0 6,-1 9,-3 3,-2 5,-5 7,-10 1,-3 3,-10 6,-22 5,-18 9,-30 11,-37 3,-7 7,-12 13,-16 6,-4 13,-6 21,-6 8,0 16,2 23,7 7,5 13,12 17,21 4,9 6,19 6,31 0,19 -4,34 -12,44 -8,10 -20,16 -35,19z"/>
  <polygon id="7" class="fil4" points="1404,1815 1376,1815 1376,1786 1404,1786 "/>
  <path id="8" class="fil4" d="M1350 1648l3 -24c17,3 30,9 39,20 9,11 14,24 14,40 0,20 -7,36 -20,48 -13,12 -32,18 -56,18 -16,0 -30,-3 -41,-8 -12,-5 -21,-13 -27,-24 -6,-11 -9,-22 -9,-35 0,-16 4,-29 12,-39 8,-10 19,-17 34,-19l4 24c-10,2 -17,6 -22,12 -5,6 -7,13 -7,21 0,13 4,23 13,31 9,8 23,12 42,12 20,0 34,-4 43,-11 9,-8 13,-17 13,-29 0,-10 -3,-18 -9,-24 -6,-7 -15,-11 -27,-12z"/>
  <path id="9" class="fil4" d="M1331 1612c-27,0 -47,-8 -60,-23 -11,-13 -16,-28 -16,-46 0,-20 7,-37 20,-49 13,-13 31,-19 55,-19 19,0 34,3 44,8 11,6 19,14 25,25 6,11 9,23 9,35 0,21 -7,37 -20,50 -13,13 -32,19 -57,19zm0 -25c19,0 33,-4 42,-12 9,-8 14,-19 14,-31 0,-12 -5,-23 -14,-31 -9,-8 -24,-12 -43,-12 -18,0 -32,4 -41,12 -9,8 -14,18 -14,31 0,12 5,23 14,31 9,8 23,12 42,12z"/>
  <path id="10" class="fil4" d="M1404 1445l-146 0 0 -22 21 0c-7,-5 -13,-11 -17,-18 -4,-8 -7,-16 -7,-26 0,-11 2,-20 7,-27 5,-7 11,-12 19,-15 -17,-12 -26,-27 -26,-45 0,-15 4,-26 12,-34 8,-8 20,-12 37,-12l100 0 0 25 -92 0c-10,0 -17,1 -21,2 -4,2 -8,5 -11,9 -3,4 -4,9 -4,15 0,10 3,19 10,26 7,7 18,10 33,10l85 0 0 25 -95 0c-11,0 -19,2 -25,6 -6,4 -8,11 -8,20 0,7 2,13 6,19 4,6 9,10 16,13 7,3 17,4 31,4l76 0 0 25z"/>
  <g id="_1474439564128">
   <g>
    <g>
     <polygon class="fil5 str4" points="1737,1822 2120,1822 2120,1921 1737,1921 "/>
     <polygon class="fil6 str4" points="2120,1822 2504,1822 2504,1921 2120,1921 "/>
     <polygon class="fil5 str4" points="2504,1822 2887,1822 2887,1921 2504,1921 "/>
     <polygon class="fil6 str4" points="2887,1822 3270,1822 3270,1921 2887,1921 "/>
     <polygon class="fil5 str4" points="3270,1822 3654,1822 3654,1921 3270,1921 "/>
     <polygon class="fil6 str4" points="2964,2121 3577,2121 3577,2220 2964,2220 "/>
     <polygon class="fil5 str4" points="2351,2121 2964,2121 2964,2220 2351,2220 "/>
     <polygon class="fil6 str4" points="1739,2121 2351,2121 2351,2220 1739,2220 "/>
    </g>
    <path class="fil7" d="M2198 1445l57 -28 6 0 0 197c0,13 1,21 2,25 1,3 3,6 7,7 3,2 11,3 21,3l0 6 -88 0 0 -6c11,0 18,-1 21,-3 3,-2 5,-4 7,-7 1,-3 2,-11 2,-25l0 -126c0,-17 -1,-28 -2,-33 -1,-4 -2,-6 -4,-8 -2,-2 -5,-3 -8,-3 -4,0 -10,2 -18,5l-3 -5z"/>
    <path id="1" class="fil7" d="M2832 1411l0 157 40 -37c9,-8 13,-13 15,-15 1,-1 1,-3 1,-4 0,-2 -1,-4 -3,-6 -2,-2 -5,-3 -9,-3l0 -6 69 0 0 6c-9,0 -17,2 -23,4 -6,3 -13,7 -21,14l-41 37 40 51c11,14 19,23 23,27 6,5 10,9 15,10 3,1 8,2 15,2l0 6 -77 0 0 -6c4,0 7,-1 9,-2 2,-1 2,-3 2,-5 0,-3 -2,-7 -7,-13l-48 -62 0 52c0,10 1,17 2,20 1,3 3,5 6,7 3,1 8,2 17,2l0 6 -80 0 0 -6c8,0 14,-1 18,-3 2,-1 4,-3 5,-6 2,-4 3,-10 3,-20l0 -144c0,-18 0,-29 -1,-33 -1,-4 -2,-7 -4,-8 -2,-2 -4,-2 -7,-2 -2,0 -6,1 -11,3l-3 -6 47 -19 8 0z"/>
    <path id="2" class="fil7" d="M3009 1527c11,-12 18,-18 20,-20 5,-4 11,-8 17,-10 6,-2 12,-4 18,-4 10,0 18,3 25,9 7,6 12,14 14,25 12,-14 22,-23 30,-27 8,-4 17,-6 25,-6 8,0 16,2 22,6 6,4 12,11 15,21 3,7 4,17 4,31l0 68c0,10 1,17 2,20 1,2 3,5 6,6 3,2 8,3 15,3l0 6 -77 0 0 -6 3 0c7,0 12,-1 16,-4 3,-2 5,-5 6,-9 0,-2 1,-7 1,-17l0 -68c0,-13 -2,-22 -5,-27 -5,-7 -12,-11 -22,-11 -6,0 -12,2 -18,5 -6,3 -14,9 -22,17l0 2 1 7 0 75c0,11 1,17 2,20 1,3 3,5 7,7 3,2 9,3 17,3l0 6 -79 0 0 -6c9,0 15,-1 18,-3 3,-2 5,-5 7,-9 1,-2 1,-8 1,-17l0 -68c0,-13 -2,-22 -6,-28 -5,-7 -12,-11 -21,-11 -6,0 -12,2 -18,5 -9,5 -17,11 -22,17l0 85c0,10 1,17 2,20 1,3 4,5 6,7 3,2 8,2 17,2l0 6 -78 0 0 -6c7,0 12,-1 15,-2 3,-2 5,-4 7,-7 1,-3 2,-10 2,-20l0 -60c0,-17 -1,-28 -2,-34 -1,-4 -2,-6 -4,-8 -2,-1 -4,-2 -7,-2 -3,0 -7,1 -12,3l-3 -6 48 -19 7 0 0 34z"/>
    <path id="3" class="fil7" d="M2346 1540c0,-27 4,-50 12,-69 8,-19 19,-34 32,-43 10,-7 21,-11 32,-11 18,0 34,9 48,27 18,23 27,53 27,92 0,27 -4,50 -12,69 -8,19 -18,33 -30,41 -12,9 -24,13 -35,13 -22,0 -41,-13 -56,-39 -13,-22 -19,-49 -19,-80zm34 4c0,32 4,58 12,79 7,17 16,26 29,26 6,0 13,-3 19,-8 7,-6 12,-15 15,-28 5,-20 8,-48 8,-83 0,-27 -3,-49 -8,-67 -4,-13 -9,-23 -16,-28 -5,-4 -10,-6 -17,-6 -8,0 -15,4 -21,11 -8,10 -14,24 -17,45 -3,20 -4,41 -4,60z"/>
    <path id="4" class="fil7" d="M2522 1540c0,-27 4,-50 12,-69 8,-19 19,-34 32,-43 10,-7 21,-11 32,-11 18,0 34,9 48,27 18,23 27,53 27,92 0,27 -4,50 -12,69 -8,19 -18,33 -30,41 -12,9 -24,13 -35,13 -22,0 -41,-13 -56,-39 -13,-22 -19,-49 -19,-80zm34 4c0,32 4,58 12,79 7,17 16,26 29,26 6,0 13,-3 19,-8 7,-6 12,-15 15,-28 5,-20 8,-48 8,-83 0,-27 -3,-49 -8,-67 -4,-13 -9,-23 -16,-28 -5,-4 -10,-6 -17,-6 -8,0 -15,4 -21,11 -8,10 -14,24 -17,45 -3,20 -4,41 -4,60z"/>
   </g>
   <path class="fil7" d="M2473 2387l0 7c-15,1 -27,4 -37,9 -10,5 -19,11 -28,21 -9,9 -17,20 -23,31 -6,11 -11,25 -15,41 16,-11 33,-17 50,-17 16,0 30,6 41,19 12,13 18,29 18,50 0,19 -6,37 -18,53 -14,19 -33,29 -56,29 -16,0 -30,-5 -41,-16 -22,-21 -33,-47 -33,-80 0,-21 4,-41 13,-60 8,-19 20,-36 36,-50 16,-15 30,-24 45,-29 14,-5 27,-8 40,-8l10 0zm-107 120c-2,16 -3,28 -3,38 0,11 2,23 6,36 4,13 10,23 18,31 6,5 13,8 21,8 10,0 19,-5 27,-14 8,-9 12,-23 12,-40 0,-20 -4,-37 -12,-51 -8,-14 -19,-22 -33,-22 -4,0 -9,1 -14,3 -5,2 -12,6 -22,12z"/>
   <path id="1" class="fil7" d="M2504 2510c0,-27 4,-50 12,-69 8,-19 19,-34 32,-43 10,-7 21,-11 32,-11 18,0 34,9 48,27 18,23 27,53 27,92 0,27 -4,50 -12,69 -8,19 -18,33 -30,41 -12,9 -24,13 -35,13 -22,0 -41,-13 -56,-39 -13,-22 -19,-49 -19,-80zm34 4c0,32 4,58 12,79 7,17 16,26 29,26 6,0 13,-3 19,-8 7,-6 12,-15 15,-28 5,-20 8,-48 8,-83 0,-27 -3,-49 -8,-67 -4,-13 -9,-23 -16,-28 -5,-4 -10,-6 -17,-6 -8,0 -15,4 -21,11 -8,10 -14,24 -17,45 -3,20 -4,41 -4,60z"/>
   <path id="2" class="fil7" d="M2814 2497c11,-12 18,-18 20,-20 5,-4 11,-8 17,-10 6,-2 12,-4 18,-4 10,0 18,3 25,9 7,6 12,14 14,25 12,-14 22,-23 30,-27 8,-4 17,-6 25,-6 8,0 16,2 22,6 6,4 12,11 15,21 3,7 4,17 4,31l0 68c0,10 1,17 2,20 1,2 3,5 6,6 3,2 8,3 15,3l0 6 -77 0 0 -6 3 0c7,0 12,-1 16,-4 3,-2 5,-5 6,-9 0,-2 1,-7 1,-17l0 -68c0,-13 -2,-22 -5,-27 -5,-7 -12,-11 -22,-11 -6,0 -12,2 -18,5 -6,3 -14,9 -22,17l0 2 1 7 0 75c0,11 1,17 2,20 1,3 3,5 7,7 3,2 9,3 17,3l0 6 -79 0 0 -6c9,0 15,-1 18,-3 3,-2 5,-5 7,-9 1,-2 1,-8 1,-17l0 -68c0,-13 -2,-22 -6,-28 -5,-7 -12,-11 -21,-11 -6,0 -12,2 -18,5 -9,5 -17,11 -22,17l0 85c0,10 1,17 2,20 1,3 4,5 6,7 3,2 8,2 17,2l0 6 -78 0 0 -6c7,0 12,-1 15,-2 3,-2 5,-4 7,-7 1,-3 2,-10 2,-20l0 -60c0,-17 -1,-28 -2,-34 -1,-4 -2,-6 -4,-8 -2,-1 -4,-2 -7,-2 -3,0 -7,1 -12,3l-3 -6 48 -19 7 0 0 34z"/>
   <path id="3" class="fil7" d="M3082 2380c5,0 9,2 12,5 3,3 5,8 5,12 0,5 -2,9 -5,12 -3,3 -8,5 -12,5 -5,0 -9,-2 -12,-5 -3,-3 -5,-8 -5,-12 0,-5 2,-9 5,-12 3,-3 8,-5 13,-5zm14 83l0 127c0,10 1,16 2,20 1,3 4,6 6,7 3,2 8,2 15,2l0 6 -77 0 0 -6c8,0 13,-1 15,-2 3,-1 5,-4 6,-7 2,-3 2,-10 2,-20l0 -61c0,-17 -1,-28 -2,-33 -1,-4 -2,-6 -4,-8 -2,-1 -4,-2 -7,-2 -3,0 -7,1 -12,3l-2 -6 47 -19 8 0z"/>
  </g>
  <rect class="fil2 str5" x="1000" y="1000" width="22683" height="19000"/>
  <g id="_1474439562912">
   <polygon class="fil3 str3" points="3937,1239 4752,1239 4752,2832 3937,2832 "/>
   <path class="fil8" d="M4285 1676c-1,3 -2,6 -2,9 0,3 -1,5 -1,7 0,6 2,10 5,12 3,2 10,3 18,3l4 0 -5 23 -78 0 5 -23 3 0c7,0 13,-2 16,-5 4,-3 6,-8 8,-16l38 -154c1,-3 1,-6 2,-8 0,-3 1,-6 1,-9 0,-5 -2,-9 -6,-11 -4,-2 -11,-3 -20,-3l-3 0 5 -23 72 0 62 184 31 -129c1,-4 2,-8 2,-10 0,-3 1,-5 1,-6 0,-6 -2,-10 -5,-12 -4,-2 -10,-3 -18,-3l-4 0 5 -23 79 0 -6 23 -3 0c-7,0 -13,2 -16,5 -4,3 -6,8 -8,16l-51 208 -22 0 -72 -209 -37 155z"/>
   <line class="fil2 str6" x1="4345" y1="2699" x2="4345" y2= "1930" />
   <line class="fil2 str6" x1="4063" y1="2423" x2="4626" y2= "2423" />
   <line class="fil2 str6" x1="4200" y1="2563" x2="4495" y2= "2276" />
   <line class="fil2 str6" x1="4197" y1="2276" x2="4495" y2= "2565" />
   <line class="fil2 str6" x1="4345" y1="1933" x2="4250" y2= "2051" />
   <line class="fil2 str6" x1="4346" y1="1933" x2="4434" y2= "2051" />
  </g>
  <g id="_1474439561152">
   <polygon class="fil3 str3" points="7823,1239 7823,1713 5513,1713 5513,1239 "/>
   <path class="fil8" d="M6590 1578l0 -202 40 0 48 143c4,13 8,23 10,30 2,-7 6,-18 11,-32l49 -141 36 0 0 202 -26 0 0 -169 -59 169 -24 0 -58 -172 0 172 -26 0z"/>
   <path id="1" class="fil8" d="M6923 1531l26 3c-4,15 -11,27 -22,35 -11,8 -25,12 -42,12 -21,0 -38,-7 -51,-20 -13,-13 -19,-32 -19,-55 0,-25 6,-44 19,-57 13,-14 29,-20 49,-20 20,0 35,7 48,20 12,13 19,32 19,56 0,1 0,4 0,7l-109 0c1,16 5,28 14,37 8,9 18,13 31,13 9,0 17,-2 23,-7 6,-5 12,-12 15,-23zm-81 -40l82 0c-1,-12 -4,-22 -9,-28 -8,-10 -18,-14 -31,-14 -11,0 -21,4 -29,11 -8,8 -12,18 -13,31z"/>
   <path id="2" class="fil8" d="M6980 1578l0 -146 22 0 0 22c6,-10 11,-17 16,-21 5,-3 10,-5 16,-5 8,0 17,3 26,8l-9 23c-6,-3 -12,-5 -18,-5 -5,0 -10,2 -15,5 -4,3 -7,8 -9,14 -3,9 -4,18 -4,29l0 77 -25 0z"/>
   <path id="3" class="fil8" d="M7170 1524l24 3c-3,17 -9,30 -20,39 -11,9 -24,14 -40,14 -20,0 -36,-7 -48,-20 -12,-13 -18,-32 -18,-56 0,-16 3,-30 8,-41 5,-12 13,-21 24,-27 11,-6 22,-9 35,-9 16,0 29,4 39,12 10,8 17,19 19,34l-24 4c-2,-10 -6,-17 -12,-22 -6,-5 -13,-7 -21,-7 -13,0 -23,4 -31,13 -8,9 -12,23 -12,42 0,20 4,34 11,43 8,9 17,13 29,13 10,0 18,-3 24,-9 7,-6 11,-15 12,-27z"/>
   <path id="4" class="fil8" d="M7311 1560c-9,8 -18,13 -27,17 -9,3 -18,5 -27,5 -16,0 -28,-4 -37,-12 -9,-8 -13,-18 -13,-30 0,-7 2,-14 5,-20 3,-6 8,-11 13,-14 5,-4 11,-6 18,-8 5,-1 12,-2 22,-4 20,-2 35,-5 44,-9 0,-3 0,-6 0,-6 0,-10 -2,-17 -7,-21 -6,-6 -16,-8 -28,-8 -12,0 -20,2 -26,6 -6,4 -10,11 -12,22l-24 -3c2,-10 6,-19 11,-25 5,-6 12,-11 22,-15 10,-3 21,-5 33,-5 13,0 23,1 31,4 8,3 14,7 17,11 4,4 6,10 8,17 1,4 1,12 1,23l0 33c0,23 1,38 2,44 1,6 3,12 6,18l-26 0c-3,-5 -4,-11 -5,-18zm-2 -55c-9,4 -23,7 -41,9 -10,1 -17,3 -22,5 -4,2 -7,5 -10,8 -2,4 -3,7 -3,12 0,7 2,12 8,16 5,4 12,7 22,7 10,0 18,-2 26,-6 7,-4 13,-10 16,-17 3,-6 4,-14 4,-25l0 -9z"/>
   <path id="5" class="fil8" d="M7426 1556l3 22c-7,1 -13,2 -19,2 -9,0 -16,-1 -21,-4 -5,-3 -8,-7 -10,-11 -2,-5 -3,-14 -3,-29l0 -84 -18 0 0 -19 18 0 0 -36 25 -15 0 51 25 0 0 19 -25 0 0 86c0,7 0,12 1,14 1,2 2,4 4,5 2,1 5,2 8,2 3,0 6,0 11,-1z"/>
   <path id="6" class="fil8" d="M7441 1505c0,-27 8,-47 23,-60 13,-11 28,-16 46,-16 20,0 37,7 49,20 13,13 19,31 19,55 0,19 -3,34 -8,44 -6,11 -14,19 -25,25 -11,6 -23,9 -35,9 -21,0 -37,-7 -50,-20 -13,-13 -19,-32 -19,-57zm25 0c0,19 4,33 12,42 8,9 19,14 31,14 12,0 23,-5 31,-14 8,-9 12,-24 12,-43 0,-18 -4,-32 -12,-41 -8,-9 -18,-14 -31,-14 -12,0 -23,5 -31,14 -8,9 -12,23 -12,42z"/>
   <path id="7" class="fil8" d="M7607 1578l0 -146 22 0 0 22c6,-10 11,-17 16,-21 5,-3 10,-5 16,-5 8,0 17,3 26,8l-9 23c-6,-3 -12,-5 -18,-5 -5,0 -10,2 -15,5 -4,3 -7,8 -9,14 -3,9 -4,18 -4,29l0 77 -25 0z"/>
   <circle class="fil9 str7" cx="5732" cy="1473" r="119"/>
   <rect class="fil9 str7" x="6189" y="1364" width="227" height="227"/>
   <line class="fil2 str8" x1="5905" y1="1472" x2="6126" y2= "1472" />
   <line class="fil2 str8" x1="6123" y1="1472" x2="6059" y2= "1538" />
   <line class="fil2 str8" x1="6123" y1="1471" x2="6060" y2= "1410" />
  </g>
 </g>
</svg>
