<?xml version="1.0" encoding="UTF-8"?>
<!DOCTYPE svg PUBLIC "-//W3C//DTD SVG 1.1//EN" "http://www.w3.org/Graphics/SVG/1.1/DTD/svg11.dtd">
<!-- Creator: CorelDRAW -->
<svg xmlns="http://www.w3.org/2000/svg" xml:space="preserve" width="210mm" height="297mm" version="1.1" style="shape-rendering:geometricPrecision; text-rendering:geometricPrecision; image-rendering:optimizeQuality; fill-rule:evenodd; clip-rule:evenodd"
viewBox="0 0 21000 29700"
 xmlns:xlink="http://www.w3.org/1999/xlink">
 <defs>
  <style type="text/css">
   <![CDATA[
    .str1 {stroke:black;stroke-width:10;stroke-opacity:0.501961}
    .str3 {stroke:black;stroke-width:50}
    .str5 {stroke:#434242;stroke-width:10}
    .str2 {stroke:black;stroke-width:10}
    .str0 {stroke:#000066;stroke-width:10}
    .str6 {stroke:#2B2A29;stroke-width:7.62}
    .str4 {stroke:black;stroke-width:7.62}
    .fil6 {fill:none}
    .fil8 {fill:#D9DADA}
    .fil0 {fill:#A2D9F7}
    .fil1 {fill:white}
    .fil5 {fill:#FEFEFE;fill-rule:nonzero}
    .fil4 {fill:#D9DADA;fill-rule:nonzero}
    .fil7 {fill:#434242;fill-rule:nonzero}
    .fil3 {fill:black;fill-rule:nonzero}
    .fil2 {fill:#FEFEFE;fill-rule:nonzero;fill-opacity:0.501961}
   ]]>
  </style>
 </defs>
 <g id="Plan_x0020_1">
  <metadata id="CorelCorpID_0Corel-Layer"/>
  <rect class="fil0" x="1000" y="1000" width="19000" height="27233"/>
  <path class="fil1 str0" d="M1000 1000l10357 0 11 92c-45,70 60,63 14,105 -53,49 18,44 10,87 -5,27 -22,46 -27,69 -31,124 -108,236 -61,384 24,75 120,133 151,26 14,-48 75,-57 124,-55 26,1 71,133 126,8 33,-75 99,-388 234,-212 79,103 170,37 278,58 10,42 -52,96 -83,112 -72,37 -93,52 -110,137 -8,42 -36,43 -46,76 -18,60 -43,38 -92,51 -45,13 -161,90 -149,147 18,90 194,42 245,21 66,0 91,11 157,-5 51,-12 94,-20 147,-20 61,0 111,-84 164,-115 47,-27 122,-37 147,-92 23,-51 20,-210 51,-241 20,-20 166,-127 166,-91 0,113 6,187 -62,286 -21,31 -144,155 -128,179 41,59 -78,104 -62,171 32,6 49,-19 87,-5 43,16 87,-20 112,-50 100,-121 146,-224 162,-382 9,-87 57,-183 36,-269 0,-28 18,-75 11,-98 -11,-34 -58,24 -75,25 -36,3 33,-101 38,-113 21,-52 -2,-104 -26,-149 -12,-22 -23,-49 13,-42 35,7 58,37 93,42 46,6 55,12 83,50 15,20 57,7 86,26 58,8 -57,106 41,91 67,-11 118,-36 180,-53 64,-17 122,-23 185,-50 30,-13 144,-111 166,-106 34,7 40,57 27,84 -18,36 14,39 38,68 29,35 60,36 89,74 56,56 100,85 179,101 56,11 8,67 29,93 19,24 44,16 63,30 18,13 -17,66 -25,79 -104,171 229,215 207,272 -20,54 22,79 52,113 54,61 204,147 286,147 0,18 -13,34 -30,44 0,40 -35,74 35,72 55,-2 30,30 68,38 83,17 35,75 98,101 39,16 89,46 132,44 11,0 71,-13 76,-2 6,11 -30,49 -38,55 -26,20 -54,25 -7,62 16,13 75,19 67,41 -12,31 -52,39 -57,69 -9,57 -17,59 -81,62 -49,2 17,121 -70,112 -55,-5 -104,-67 -148,-92 -31,-17 -71,-22 -99,-41 -27,-18 -34,-66 -70,-60l-128 21c7,27 56,19 77,20 39,2 50,36 61,67 11,29 70,30 95,42 53,40 5,94 38,129 29,31 68,5 82,31 10,19 36,36 51,50 16,15 57,7 51,31 -12,49 -45,49 0,87 43,37 29,89 60,136 6,10 -24,163 -26,193 -2,23 -100,32 -118,75 -29,69 41,113 82,153 23,38 39,70 74,99 18,15 28,11 43,32 13,19 54,89 76,79 19,-8 66,-23 86,-23 0,63 -15,60 -70,69 -25,4 -56,51 -76,73 -21,23 -14,62 -10,90 3,23 44,93 42,104 -6,32 -49,49 -75,61 -36,26 -110,82 -110,130 0,58 -23,34 -41,86 -4,11 -4,53 -14,58 -35,17 -69,-14 -98,27 -28,40 -76,18 -76,76 0,55 36,134 -26,154 -114,36 10,115 -13,174 -27,68 -76,0 -108,33 -53,55 11,80 -8,98 -17,15 -61,15 -41,49 21,36 19,61 20,103 -4,27 29,110 14,121 -45,31 -58,39 -21,97 17,27 -46,30 -54,37 -27,25 -64,69 -62,105 2,32 -17,125 -37,147 -53,55 50,121 12,155 -102,92 10,166 10,279 73,73 -7,117 13,205 9,38 26,157 45,186 25,37 58,-17 94,-17l1 1 0 2c-14,7 -43,54 -57,68 -19,19 -55,18 -77,37 -14,12 -72,147 -69,166 5,30 19,82 35,106 32,52 38,116 43,181 9,30 19,69 15,100 -2,22 -20,31 -23,61 -5,62 -87,100 -87,171 0,35 44,87 -24,104 -8,2 -72,-8 -70,11 0,2 49,24 57,45 8,23 -17,52 -16,79 2,47 19,81 -33,107 -20,10 6,19 11,33 8,26 -33,27 -37,42 47,23 -18,46 -31,56 60,40 61,-12 107,-12 0,44 -3,94 -32,128 -52,52 -101,132 -104,208 -2,46 13,113 5,154 -10,48 -43,28 -6,74 34,42 -49,112 -70,137 -24,28 -25,61 -44,85 -19,24 -56,40 -83,51 -89,38 -141,163 -206,228 -36,55 -32,64 -82,109 -29,25 -23,72 -49,87 -22,13 -47,11 -70,29 -99,73 -171,245 -209,357 -28,84 -64,118 -75,210 -6,54 -35,57 -46,101 -8,31 10,107 -69,85 -75,30 -87,67 -130,128 -35,49 -94,91 -124,138 -60,93 -52,199 -131,277 -46,45 -90,152 -73,217 28,111 -20,149 -116,196 -32,52 -80,143 -80,204 0,74 1,84 -50,137 -92,96 -247,267 -284,395 -18,65 -86,126 -132,177 -26,28 -74,39 -107,67 -61,45 -52,138 -116,175 -65,38 -40,89 -80,115 -31,19 -64,19 -93,43l-142 119c-57,48 -75,156 -144,211 -38,31 -56,9 -79,61 -22,52 -44,114 -83,156 -34,27 -21,62 -39,86 -40,-10 -50,-26 -73,30 -22,53 -40,53 -76,91 -64,68 -26,186 -147,230 -64,24 -159,46 -181,121 -30,102 -59,121 -132,195 -24,24 -24,88 -36,127 -2,19 -11,46 -15,63 -35,9 -70,20 -50,61 10,19 -62,-17 -60,44 3,81 18,102 -50,169 -32,32 -81,109 -100,74 -4,-7 -54,-44 -56,-43 -6,31 13,59 7,85 -7,32 -20,53 -21,88 -3,78 -190,154 -249,197 -51,37 -59,86 -112,107 -59,24 -106,103 -176,112 -66,54 -134,117 -222,129 -106,15 -59,85 -111,110 -42,20 -68,6 -91,60 -27,63 -53,20 -111,45 -61,27 -96,115 -126,43 -27,-66 -224,96 -271,91 -81,-9 -82,9 -143,67 -34,32 -98,15 -122,-17 51,-68 -70,-152 -112,-88 -55,82 -88,-34 -104,-99 -41,-10 -168,107 -180,29 -10,-63 -93,-93 -133,-37 -31,43 -40,-67 -41,-79 -5,-62 57,-140 14,-195 -56,-70 -8,-88 -8,-159 -56,0 -49,70 -93,90 -68,31 -104,89 -166,122 -154,81 -89,-64 -54,-131 15,-28 46,-41 67,-63 36,-38 -122,-38 -142,-42 -17,-3 -27,-33 -37,-32 -17,2 -26,43 -29,55 -10,43 -17,96 -57,124 -41,28 -43,2 -14,38 10,13 -9,29 -18,36 -28,66 -60,60 -105,94 -51,39 15,69 -20,107 -21,23 -61,-6 -83,12 -41,34 -7,73 -17,112 -18,72 -52,62 -105,97 -58,38 -20,174 -48,168 -33,-6 -44,-64 -58,-88 -18,-31 -46,-93 -85,-99 -78,-12 -59,138 -129,70 -16,-16 -38,-65 -60,-26 -21,38 -10,111 17,143 38,46 -37,33 -60,66 -38,54 85,19 89,19 0,40 -60,84 -92,103 0,59 37,123 -72,123 0,56 -108,-17 -122,-17 -69,4 -90,68 -125,116 -26,36 -73,-10 -82,50 -2,10 -104,108 -120,115 -104,43 -41,138 -118,186 -68,43 -10,51 -38,88 -37,49 -80,23 -89,92 -6,42 -63,140 -88,174 0,32 6,115 36,134 14,9 82,37 85,49 3,1 3,3 5,4 0,57 -58,121 -58,195 0,82 21,146 8,232 -8,56 12,82 12,125 -48,16 -103,14 -156,26 -50,12 -99,75 -137,31 -26,-30 -32,60 -35,67 -10,25 -30,8 -46,19 -55,37 -31,92 -95,103 -45,51 11,112 -79,134 -24,6 -119,55 -119,76 0,35 -71,58 -97,66 -23,7 -156,76 -153,85 8,20 39,49 32,67 -13,35 -176,123 -216,130 -63,12 -18,69 -79,27 -50,-35 -42,35 -92,23 -15,-4 -141,14 -138,38 7,59 -26,20 -52,32 -80,35 -13,146 -163,121 -27,12 -58,56 -82,55 -50,-3 -20,-11 -63,16 -12,8 -61,12 -61,17 0,24 51,30 43,51 -5,12 -26,19 -24,36 6,42 37,71 51,109 22,57 -71,76 -42,137 2,4 44,71 14,51 -7,-5 -15,-18 -24,-18 -14,0 -23,14 -38,13 -75,-4 -53,2 -41,66 10,53 -63,91 4,125 37,19 27,24 51,50 21,23 58,30 88,24 53,-11 115,40 161,70 66,50 97,118 148,178 45,53 103,83 151,134 37,40 37,54 94,58 61,5 80,101 100,147 20,44 53,106 60,154l82 166c23,47 22,100 52,143 69,98 154,195 207,303 18,38 130,138 118,171 -15,40 13,53 41,86 73,179 214,319 253,514 13,65 -18,123 7,191 38,103 49,156 7,260 -2,46 21,83 19,132 -2,38 -26,69 -48,100 -44,64 -34,149 14,209 23,28 70,38 13,84 -47,38 17,88 66,67 110,-50 6,87 42,137 15,22 -34,127 -52,137 -24,57 -35,93 -35,153 0,43 -43,94 -42,115 1,33 17,43 -14,70 -42,36 -47,58 -63,106 -9,26 -42,55 -60,76 -34,40 -33,199 -107,143 -36,-27 -54,-9 -89,-14 -21,-3 5,-97 -39,-55 -34,33 -63,87 -110,25 -18,-23 -51,-18 -76,-23 -38,-7 -38,-28 -64,-51 -36,-32 -31,25 -48,49 12,19 72,75 11,75 -40,0 -39,-31 -70,-43 -19,-7 -23,36 -36,43 -12,7 -30,2 -42,11 -9,7 -25,23 -2,23 10,0 56,-14 62,-8 5,5 -10,35 -15,41 -58,52 15,88 -6,156 -8,25 -40,4 -30,-19 7,-16 -11,-55 -21,-68 -47,-58 -18,-13 -70,-13 -22,0 -23,-7 -52,-1 -24,5 -42,18 -67,23 -81,16 -49,-91 -60,-123 -8,-23 -48,-16 -46,11 3,66 -33,0 -43,0 -9,37 -35,12 -35,67 0,46 56,36 -1,90 -35,33 60,56 81,63 55,18 -28,89 -36,61 -20,-77 -98,-14 -98,-21 0,-40 11,-48 -15,-81 -13,-16 28,-65 32,-81 11,-44 -74,9 -83,13 -28,12 -144,7 -110,55 45,63 83,4 135,4 0,22 -14,37 -16,53 -2,21 9,35 10,55 3,59 -70,-37 -98,-10 -25,25 -23,98 -39,105 -42,18 -31,-86 -25,-100 30,-42 -31,-47 -31,-87 0,-53 -55,-27 -83,-11 -29,17 -69,142 -25,172 89,61 68,72 -24,72 0,51 77,104 -31,104 -53,0 -37,-84 -106,-53 -36,17 -52,-31 -23,-39l79 -23c0,-85 -113,-43 -154,-43 -135,0 -6,189 -148,189 -73,0 -51,-127 -91,-127 -12,49 -36,115 -80,144 -27,18 -95,150 -111,116 -8,-18 -36,-39 -36,-57 0,-63 1,-24 -25,-70 -14,-25 47,-62 17,-110 -10,-16 -43,8 -55,8 -22,0 -144,281 -192,179 -15,-32 -4,-139 17,-78 12,35 26,23 26,-7 0,-27 50,-90 66,-93 11,-2 -15,-218 7,-159 7,19 -1,40 12,56 42,53 102,113 125,19 17,0 49,54 76,26 9,-9 -32,-63 -41,-73 -25,-29 -4,-113 51,-111 61,2 -26,-38 -26,-73 0,-10 4,-60 -6,-62 -14,41 -52,45 -30,100 13,32 -47,9 -62,20 -12,9 -50,43 -64,18 -15,-26 26,-47 45,-47 0,-28 -44,-103 13,-117 0,-32 -72,-45 -31,-67 74,-39 4,-23 8,-69 0,-19 -1,-73 -15,-85 -11,-9 -74,-30 -24,-48 20,-7 81,-83 60,-112 -43,-58 23,-54 26,-98 1,-20 -9,-46 18,-53 25,-7 49,-3 62,-29 12,-25 63,-21 89,-21 0,-2 1,-3 -1,-4 0,-69 -233,11 -130,-84 26,-24 102,-140 126,-141 22,-1 54,13 72,7 -19,-77 -144,-31 -136,-128 4,-42 17,-55 55,-70 32,-13 -25,-46 -32,-56 -12,-18 11,-35 7,-49 -9,-32 -52,-43 -67,-73 -23,-46 16,-77 6,-115 -7,-25 -30,-14 -23,-45 5,-21 41,-32 17,-53 -27,-23 10,-45 18,-70 20,-60 -57,17 -55,-30 1,-33 14,-26 33,-38 -42,-56 -79,-5 -57,-109 7,-29 35,-47 13,-75 -22,-28 -41,-4 -58,19 -13,18 -21,-23 -26,-30 -19,-26 -37,32 -42,29 -28,-16 0,-77 -58,-33 -5,3 -16,-47 -70,-61 -12,-3 21,-104 51,-90 31,14 62,-22 74,-11 31,31 68,18 68,-27 0,-32 15,-133 15,-49 27,7 10,99 50,72 28,-20 11,-66 44,-66 3,-14 -20,-69 4,-69 6,0 27,35 51,35 13,52 28,81 75,12 40,-58 104,112 153,84 16,-9 62,-49 20,-51 -40,-3 -84,-50 -49,-85 27,-27 -53,-9 -54,-10 -4,-2 -19,-62 -15,-69 14,-29 72,-43 37,-62 -34,-18 -108,29 -111,13 -10,-48 27,-62 30,-101 3,-38 52,28 66,21 19,-10 -3,-39 35,-39 0,-36 -40,-50 -68,-64 -53,-28 -9,-42 -25,-66 -16,-23 -49,-1 -67,-26 -28,-41 19,-63 15,-104 30,-82 -65,-64 -92,-134l-51 -135c-7,-2 -7,-21 -23,-24 -13,-52 -131,-30 -172,-36 -5,-19 -34,-3 -42,5 -24,24 -1,58 -33,84 -31,25 -63,-97 -72,-110 -19,-28 -91,18 -122,10 -50,-15 -45,-115 -81,-123 -32,-7 -232,-90 -167,1 13,18 37,18 49,33 46,58 -2,35 -35,35 -11,43 23,93 -7,130 -26,33 -64,-11 -76,-35 -25,-47 -36,-117 -93,-76 -35,25 -58,88 -64,16 -9,-112 -170,60 -186,-19 -12,-61 -54,-43 -70,-87 -21,-56 205,-60 205,-76 0,-41 -160,-6 -186,-6 -41,0 -49,-51 -85,-55 -12,-17 -85,19 -114,13 -10,-2 -123,-12 -61,-27 45,-11 127,-39 141,-81 17,0 25,21 43,21 7,0 29,-11 25,-21 -11,-28 -71,1 -60,-48 14,-61 1,-152 68,-191 53,-31 36,-69 36,-121 25,-8 24,33 48,33 14,-43 91,-27 64,-87 -21,-48 28,15 52,-18 26,-35 48,2 74,-10l85 -38c46,-21 76,1 123,1 0,-112 -273,46 -273,-76 0,-50 -64,-15 -57,-74 7,-59 29,-122 60,-173 18,-25 13,-49 37,-73 13,-13 36,-33 26,-53 -18,-37 23,-90 45,-121 17,-23 47,-28 61,-48 18,-26 -44,-80 -1,-103 22,-12 -28,-28 -37,-32 -61,-31 8,-83 25,-119 17,-36 29,-56 29,-93 -6,0 -80,56 -99,63 -16,6 -43,20 -57,20 -4,-16 3,-40 -19,-45 -2,-8 8,-55 -7,-49 -17,7 -60,60 -79,47 -45,-33 -71,-79 -139,-82 -26,-1 -46,-46 -83,-55 -77,-18 -41,-88 -87,-14 -13,22 -11,142 -83,124 -7,-27 11,-55 -10,-79 -27,-30 -32,-33 -32,-75 0,-78 -129,-66 -132,-74 -14,-41 -21,-84 -75,-94 -6,-26 20,-55 20,-86l-1 -1 -5 0c-46,69 -110,96 -168,154 -81,82 -162,8 -248,8l0 -17239zm10642 290c16,-21 57,-43 66,-62 15,-32 54,-9 80,-17 25,-7 -9,-37 11,-55 13,-11 26,5 44,-17 13,-16 23,-39 45,-44 43,-10 75,17 124,19 25,1 101,-39 107,-35 26,18 -46,68 -58,78 -38,31 -41,141 -102,150 -50,8 -89,-31 -132,23 -10,13 -16,24 -24,38 -9,16 2,60 -33,60 -24,0 -101,45 -101,-11 0,-20 13,-39 13,-56 0,-19 -41,-14 -41,-42l2 -30zm4570 8577c108,67 174,169 157,297 -13,103 62,188 62,292 0,28 -24,49 -24,75 0,33 26,28 41,49 15,22 12,75 31,91 38,32 72,-4 107,5 24,6 46,85 72,8 12,-36 -104,-109 -7,-91 52,10 72,-102 75,-41 2,37 15,75 18,115 0,34 17,64 15,99l-2 79c-2,58 31,76 45,125 9,32 -38,64 -13,73 5,2 44,6 44,12 2,22 -17,45 -26,63 -9,17 -43,45 -43,57 0,70 -41,93 -54,154 -3,16 -14,104 -20,105 -17,2 -14,-67 -14,-80 0,-42 23,-82 16,-123 -14,-81 -67,-133 -60,-223 5,-42 -25,-41 -25,-66 0,-32 42,-30 51,-47 28,-51 -88,-50 -100,-57 3,-17 34,-26 31,-35 -6,-18 -28,-22 -43,-30 -41,-20 -69,43 -76,-18 -15,-6 -37,41 -54,53 -19,14 -56,-14 -73,-23 -54,-27 -186,43 -189,-26 -2,-39 8,-87 -18,-118 -25,-30 -113,25 -143,36 -39,15 -52,73 -104,90 -46,74 -54,195 -91,278 -38,86 -26,147 -48,232 -14,53 -51,92 -49,147 3,81 -42,30 -67,84 -15,32 -9,62 -18,90 -114,0 -152,-370 -163,-458 -12,-94 -39,-185 -49,-279 26,-51 36,-145 51,-204 15,-58 40,-110 63,-164 48,-112 100,-235 86,-359 -6,-49 -99,-151 -72,-168 42,-27 1,-81 2,-119 -15,-83 -30,-200 4,-282 27,-65 70,-137 82,-206 12,-70 28,-58 63,-109 56,-81 -5,-132 10,-211 0,-79 -3,-176 -27,-251 -23,-69 -46,-122 -55,-195 -5,-45 -48,-73 -75,-103 -28,-30 -78,-135 -93,-174 -50,-132 48,-126 80,-224 17,-67 51,-139 54,-208 3,-81 2,-98 31,-173 16,-41 -5,-84 -6,-125 -2,-62 11,-123 31,-181 33,-94 26,-193 41,-290 0,-66 13,-126 -5,-191 -18,-66 -12,-111 0,-177 18,-101 34,-237 6,-338 -19,-67 0,-130 -26,-190 -20,-46 -57,-92 -54,-143 -38,-152 43,-325 43,-480 0,-45 65,-58 79,-100 23,-71 46,-181 21,-253 -19,-56 -51,-81 -43,-144 -15,-63 -38,-112 -76,-164 -33,-45 2,-84 -36,-124 -23,-24 -49,-54 -76,-73 -35,-24 34,-56 -7,-76 -17,-9 -43,26 -55,10 -15,-20 -14,-55 -31,-80 -10,-14 -77,-61 -77,-63l1 -1c166,0 49,-130 -12,-191 -37,-37 -64,1 -45,-60 20,-64 9,-86 -12,-150 -7,-35 -26,-86 -1,-116 27,-33 59,-27 31,-85 -26,-54 -63,-195 -25,-251 37,-55 85,-95 104,-162 24,-83 51,-195 31,-280 -11,-47 15,-84 26,-130 0,-100 46,-188 46,-284 0,-118 -63,-137 -93,-239 -17,-59 31,-139 -18,-180 -31,-26 -22,-36 11,-61 39,-30 104,-116 156,-88 14,7 11,-18 21,-32 20,-9 139,-72 153,-56 40,47 4,147 29,199 13,27 81,8 91,-12 24,0 22,34 61,23 29,-9 49,-38 57,-67 7,-22 58,-148 92,-137 32,10 56,8 42,-38 -6,-20 -33,2 -43,-11 -11,-15 -3,-36 -23,-45 -20,-9 -52,25 -56,10 -9,-34 5,-47 -14,-81 -24,-44 11,-44 43,-44 26,0 48,-20 66,-20 7,28 3,150 60,93 23,-23 59,-98 61,-130 2,-35 -8,-71 -13,-106 -10,-74 -51,-72 -69,-131 0,-100 -46,-175 -120,-240 -83,-73 -60,-145 -108,-226 -11,-19 -85,-85 -83,-91 6,-21 103,40 135,32 31,-8 28,28 46,45 62,59 36,-41 89,-41 21,0 6,-25 4,-38 -7,-35 -32,-21 2,-42 21,-12 30,-40 38,-62l52 0c10,97 60,164 119,238 34,43 73,83 73,141 0,76 -118,159 -88,226 23,53 -32,40 -32,79 0,24 48,26 42,84 -4,72 62,175 87,242 24,63 -61,71 -36,129 15,34 87,-9 87,29 0,30 16,32 -5,55 -43,47 40,51 18,82 -10,14 -24,40 -13,57 4,6 33,-12 43,-12 4,15 -48,127 -57,153 -23,65 37,149 43,220 14,35 -19,96 8,111 34,19 43,35 41,73 -2,39 17,27 26,49 5,13 11,118 41,84 6,-7 30,-91 50,-66 19,24 -4,131 -4,164 0,60 -11,118 -7,178 8,27 21,63 14,91l-1 1c-11,0 -12,-38 -30,-38 -49,0 -52,184 -66,220 -13,34 -29,85 -50,113 -10,13 -19,36 -18,53 1,12 34,-14 43,-14 9,26 -7,67 -12,98 -5,32 -5,66 -5,99 0,51 -63,50 -45,104 6,19 21,29 27,49 9,26 5,56 11,82 -29,84 11,116 27,199 28,5 30,-24 46,-24 0,49 40,86 52,128 10,34 -35,75 -44,112 -7,28 12,51 12,78 0,66 -47,136 66,136 6,-44 2,-97 14,-138 12,0 32,102 37,118 12,41 65,142 52,179 -8,26 -53,16 -73,49 -13,21 48,48 62,66 5,18 11,71 25,81l4 0c9,-8 21,-18 33,-18l2 2c34,309 134,609 153,921 -21,74 42,256 67,331 44,134 138,238 168,375 13,58 32,112 62,164 33,56 23,92 33,153 4,45 -3,103 18,144 15,30 39,53 54,81 26,49 -15,114 13,169 14,27 14,88 33,103 72,55 46,207 80,286 29,28 38,67 74,88 80,47 150,124 170,216 9,40 25,137 15,175 -13,0 -40,-139 -45,-162 -20,-96 -81,-162 -155,-220 -102,-80 -166,-167 -235,-278 -46,-46 -61,-52 -128,-70l-212 -60c-77,-22 -50,-31 -133,-41 -40,-5 -64,-46 -98,-61 -29,-13 -147,-24 -167,7 -8,13 51,55 58,64 11,13 42,49 56,54 0,11 -156,46 -189,74 -82,70 -135,135 -156,245 -11,57 27,91 27,146 0,44 -43,154 -68,190 -43,76 -81,140 -92,228 -14,112 -72,258 -110,366 -49,143 -88,263 -98,415 0,130 35,241 80,364 18,48 23,94 58,132 30,32 26,44 26,87 13,10 43,8 61,18l21 21zm316 -7220c-6,-18 -15,-21 -32,-26 -13,-4 -20,-16 -19,-29 1,-13 7,-20 4,-35 -4,-17 -32,-61 -6,-73 17,-7 33,-2 44,11 21,24 2,61 15,85 13,23 23,43 13,70l-19 -4zm-1739 9632c6,-26 0,-55 1,-81 1,-14 -1,-45 -13,-51 -15,-8 -29,18 -30,31 0,12 -3,31 4,41 6,10 11,14 12,26 1,12 6,21 6,33 0,13 -3,33 11,38l10 -37zm172 106c-13,5 -79,-50 -87,-11 -3,14 -12,29 -14,42 -3,17 2,16 12,30 11,15 74,98 95,62 6,-10 9,-20 15,-30 7,-11 25,-13 26,-25 1,-12 -16,-47 -24,-54l-24 -14zm2662 1476c100,45 219,-39 280,-112 53,-63 111,-109 167,-167 36,-38 64,-82 100,-121 11,-12 29,-72 38,-74 2,7 37,74 31,76 0,17 -38,96 -50,107 -44,41 -33,78 -60,121 -19,31 -46,58 -68,88 -33,47 -15,124 -55,161 -25,102 8,154 75,226 59,64 48,117 72,196 6,22 54,86 46,101 -8,18 -74,19 -62,33 12,14 39,12 41,30 10,99 144,-6 163,72 2,0 71,-81 76,-93 20,-49 95,-62 143,-50 10,50 -101,43 -114,62l-66 95c-28,41 -46,45 -80,45 -77,0 -117,43 -192,45 -49,-16 -88,30 -86,74 3,74 -25,43 -70,37 -2,1 -3,1 -6,2 -10,52 -20,96 -95,36 0,-2 1,-4 1,-6 16,-13 34,1 51,-17 0,-60 -77,-37 -107,-20 -88,49 -43,44 -43,113 -19,19 -124,-6 -151,-6 -67,0 -101,40 -131,-33 -53,-130 -389,99 -441,152 -64,64 -174,223 -248,257 -75,99 -121,196 -174,306 -53,110 18,149 4,246 -8,53 -54,73 -66,121 -3,12 -5,49 -10,57 -28,0 -46,-47 -61,-66 -45,-60 -75,-93 -149,-124 -118,-41 -222,-97 -332,-150 -32,-15 -85,-27 -111,-45 -41,-29 -74,-70 -110,-105 -50,-50 -131,-77 -195,-104 -90,-63 -150,-143 -267,-167 -124,-25 -241,77 -332,146 -63,47 -137,68 -188,129 -58,69 -92,-22 -111,-64 -42,-95 -173,-174 -273,-146 -33,9 -45,-16 -72,-21 -53,-10 -118,150 -141,186 -103,247 47,180 182,323 50,53 124,-25 148,2l149 169c38,43 210,144 210,171 -32,11 -69,55 -93,82 -55,62 -94,-19 -139,-35 -31,-11 -83,5 -100,-29 -32,-63 -94,-4 -110,38 -28,72 -151,36 -151,164 0,150 -100,64 -168,183 -31,54 -36,6 -95,2 -68,-4 -51,-72 -76,-127 -30,-65 39,-122 42,-185 3,-80 80,-120 80,-203 0,-107 -71,-185 -153,-241 -54,-11 -37,-32 -58,-69 -15,-25 -48,-37 -72,-54 -77,-56 -7,-98 21,-153 55,-105 -53,-287 104,-309 55,-8 132,-65 162,-112 4,-6 27,-44 35,-35 8,11 54,111 82,30 19,-55 46,-89 67,-141 45,-45 125,-61 97,-134 -32,-79 -49,-113 -122,-164 -51,-36 -16,-51 -11,-94 2,-14 -10,-51 10,-57 28,-9 107,-44 110,-39 19,33 55,45 85,66 71,48 152,128 245,103 69,-19 44,-64 89,0 111,156 278,-22 321,-136 40,-109 -24,-153 -42,-241 -9,-45 29,-49 8,-95 -59,-133 14,-144 76,-233 64,-21 115,-17 131,-93 10,-46 18,-96 13,-144 -8,-79 -29,-236 17,-302 31,-45 55,-90 63,-144l39 -265c0,-123 -43,-310 -120,-408 -74,-94 -93,-200 -6,-285 53,-52 -12,-134 8,-144 24,-12 30,44 32,56 21,5 28,10 54,6 23,-47 75,-35 93,-106 28,-110 73,20 110,24 41,54 61,108 123,144 38,23 27,51 57,79 43,40 74,86 113,130l66 75c25,29 41,58 64,86 44,58 56,118 91,178 57,99 160,166 226,261 72,102 183,163 273,247 74,32 84,92 141,131 39,27 116,28 145,57 28,28 27,73 68,95 31,17 174,66 198,37 30,-37 83,-44 119,-12 14,13 -29,55 -11,82 28,42 0,75 17,116 16,38 77,-59 77,-67 -16,-4 -58,-2 -51,-29 37,-15 34,-60 36,-92 1,-10 17,-15 23,-5 13,23 -7,63 6,90 18,35 70,33 95,81 26,48 96,13 135,24l51 20zm720 29c40,-53 104,-102 160,-138 60,-40 49,-96 83,-137 39,-47 64,-85 95,-137 33,-56 78,-58 99,-129 10,-35 46,-123 75,-146 32,-24 66,40 94,58 82,55 158,4 230,27 15,5 -7,44 -18,48 -29,10 -64,6 -92,20 -59,31 -42,84 -141,87 -38,1 -99,31 -124,58 -16,17 -12,42 -32,56 -73,50 -105,75 -154,158 -32,55 -33,113 -98,129 -117,29 -109,205 -149,212 -30,6 -78,30 -87,-17 -3,-17 27,-132 36,-141l21 -10zm1115 36c-15,-3 -22,-22 -39,-17 -11,3 -17,13 -27,17 -17,7 -42,-8 -42,18 0,25 -15,16 -36,16 -24,0 -48,2 -70,10 -14,5 -29,15 -27,31 1,11 26,13 35,19 16,12 -14,56 7,56 14,0 30,-21 48,-26 8,-2 17,-1 25,-2 38,-7 61,-34 82,-62 14,-18 47,-26 55,-48l-10 -11zm542 -1081l0 -322c-45,27 -36,69 -42,116 -7,60 -122,115 -169,155 -57,49 -31,119 -113,61 -22,-15 -27,16 -7,27 61,37 58,61 23,123 -9,16 -16,43 -27,56 -26,29 -68,-52 -64,18 2,42 -45,42 -73,27 -31,-16 -10,39 -23,53 -36,39 -92,79 -42,136 21,24 86,-99 101,-115 70,-70 142,-47 198,-138 42,-69 128,-142 198,-183l40 -14zm-1155 1494c-2,-9 -7,-20 -12,-29 -4,-9 -10,-17 -14,-25 -10,-18 9,-16 20,-14 16,3 33,2 49,5 5,1 19,1 19,7 1,7 -3,12 -7,18 -4,5 -7,11 -11,16 -11,12 -13,26 -25,37l-19 -14zm-5357 1506c7,-29 -31,-91 -2,-111 10,-7 24,-5 35,-10 9,-4 56,-34 63,-21 8,14 -22,37 -27,50 -12,27 12,59 -11,86 -8,9 -9,22 -17,33 -14,20 -37,2 -50,-11l10 -17zm-6022 -998c-23,6 -31,-9 -50,-16 -15,-5 -54,14 -64,24 -9,9 -13,28 0,33 14,6 26,1 41,1 22,44 56,18 85,-6l-11 -37zm7659 2582c-20,-64 -87,-224 -85,-285l13 -333c2,-41 71,-193 49,-210 -96,145 -306,-86 -390,-136 -52,-31 -144,323 -147,375 -1,32 178,-19 206,-20 79,-4 65,-92 116,-92 106,0 65,314 45,371 -22,66 -197,45 -212,-25 -8,-37 -70,-18 -76,14 -8,45 11,65 -36,98 -39,27 -67,19 -100,-17 -84,-89 -11,-250 -79,-335 -53,-67 -79,0 -130,-13 -17,-4 -58,-46 -66,-42 -23,14 -38,117 -30,125 12,12 -11,44 8,56 80,51 -17,39 -26,124 -15,130 -4,119 -105,183 -33,22 -39,46 -72,8 -26,-29 -90,119 -118,128 -14,4 -59,23 -57,41 0,3 60,35 69,44 24,23 -9,97 -8,130 2,47 31,54 58,81 43,43 -20,275 -57,317 -19,31 -47,95 -79,111 -32,16 -66,-39 -88,-23l33 98c35,10 85,-34 135,-20 41,12 105,128 111,169 18,129 -12,263 -49,387 -15,52 -88,94 -95,147 -7,53 -12,151 -37,197 -12,26 0,45 -6,69 -6,25 -29,53 -37,86 -23,97 -16,110 -98,166 -56,38 -144,257 -173,327 -31,74 -5,113 -8,186 -3,74 -49,123 -93,178 -72,75 -199,127 -296,166 -72,29 -124,74 -135,154 -9,70 -38,131 -80,186 -32,41 -57,31 -69,95 -14,79 -75,83 -130,123 -58,42 -92,102 -148,148 -64,46 -114,-19 -166,49 -33,43 -99,35 -116,66 -30,54 -258,90 -325,116 -82,31 -67,113 -129,174 -96,96 -188,-23 -261,-62 -67,-36 -20,-59 7,-107 20,-37 8,-89 8,-130 -20,0 -36,25 -57,25 -17,0 -22,-37 -45,-21 -63,41 -38,-7 -24,-48l33 -99c24,-70 63,63 99,-25 22,-54 90,-72 141,-86 39,-19 14,-58 14,-95 0,-44 57,-20 88,-27 2,-6 -24,-69 -31,-70 -5,-10 -106,30 -125,36 -95,31 -144,85 -250,100 -86,13 -66,50 -88,109 -8,22 -60,116 -24,121 54,7 26,39 21,76 -8,67 35,125 30,197 -5,67 -63,152 -99,208 -5,19 -8,28 -5,45 2,15 -27,4 -37,6 -20,4 -36,76 -55,94 -71,67 -121,148 -181,223 -26,33 -130,71 -135,87 -10,39 1,61 -35,93 -45,40 -95,113 -88,177 8,70 85,112 99,187 -8,32 6,60 -6,91 -18,48 -43,-10 -48,-23 -8,-20 13,-26 -5,-53 -35,-52 -16,91 -20,106 -4,15 -171,99 -200,122 -22,18 -70,23 -97,17 -46,-11 -48,-2 -93,0 -52,2 -30,-78 -122,-41 -4,2 32,81 -23,81 -15,0 -1,-54 -21,-68 -24,-16 -102,-21 -111,-49 -6,-19 36,-22 50,-39 23,-28 10,-26 10,-50 66,0 11,-73 -4,-94 -18,-27 -199,67 -223,88 -9,8 -61,109 -75,54 -15,-61 -57,-42 -114,-42l-97 6c-25,2 -34,-15 -55,-16 -51,-2 -39,69 -123,37 -80,-31 -88,108 -174,118 -30,3 -57,-18 -91,-17 -77,2 -148,30 -229,30 -60,0 -96,-2 -151,-25 -93,-38 -32,19 -108,67 -46,29 -98,19 -150,8 -38,7 -139,32 -104,-37 43,-84 -43,-37 -83,-45 -90,-18 52,59 -4,80 -14,5 -95,37 -98,11 -3,-28 59,-36 43,-63 -20,-34 -132,32 -166,44 -16,6 -56,12 -60,31 -6,28 26,28 32,51 5,19 -178,154 -207,177 -47,37 -54,93 -91,130 -40,40 -88,70 -137,98 -157,119 -195,263 -418,297 -84,13 -141,240 -254,270 -32,8 -145,20 -159,-18 -16,-43 -66,-15 -80,17 -22,49 -52,12 -89,36 -16,10 -12,132 -5,147 22,43 -24,36 -42,58 -15,18 30,37 52,67 13,17 6,45 6,60 28,7 48,88 60,14 21,-131 107,-38 145,17 4,6 75,18 85,18 70,0 56,-138 99,-90 37,42 35,-10 69,-10 25,0 35,41 67,35 75,-16 66,-93 176,-35 60,32 81,53 118,103 13,18 73,11 98,25 49,28 52,22 38,-29 -8,-30 59,-32 80,-50 43,-37 -91,-114 4,-146 54,-18 2,-78 39,-93 94,-37 19,-75 126,-95 78,-15 86,41 97,112 38,10 87,1 128,-12 60,-22 38,-79 94,-87l192 -27c23,-3 35,-40 62,-49 26,-9 38,25 60,2 52,-52 54,-60 88,1 31,56 36,-25 62,-37 32,-15 86,-21 122,-30 42,-11 67,-59 111,-78 34,-14 36,20 50,41 12,19 107,48 129,43 36,-8 49,-60 82,-82 31,-21 1,-31 -8,-50 -20,-43 74,10 88,5 45,-17 43,-79 85,-107 94,13 143,-103 235,-88 33,5 62,23 93,32 60,18 132,5 184,49 37,32 85,71 129,82 54,13 133,-33 173,-64 77,-62 82,8 114,33 93,74 9,82 -17,161 -32,99 -69,81 -138,144 -24,30 -70,31 -98,58 -18,18 104,40 77,110 -8,20 -14,39 -6,60 9,25 -42,13 -42,37 30,15 50,19 55,57 1,8 -60,28 -69,55 -19,57 270,230 245,243 -98,55 100,152 135,165 222,83 238,-13 335,-184 23,-40 73,-160 116,-177 44,-17 91,-56 91,-107 -60,-34 4,-70 10,-119 25,-14 78,-62 99,-68 69,-16 97,-2 144,-57 17,-20 116,-80 137,-61 33,29 5,23 52,16 28,-5 54,18 82,18 12,-21 -52,-39 -52,-62 31,-25 61,-14 61,-73 -40,-40 -119,-70 -167,-106 -69,-51 -178,-94 -129,-192 10,-19 5,-40 12,-60 12,-37 45,-33 45,-85 0,-41 3,-68 23,-105 47,-6 157,-89 201,-54 0,2 0,2 1,4 -8,30 -52,45 -54,88 -2,43 32,65 24,111 -4,25 -3,58 0,81 22,13 35,54 63,54 7,-22 0,-39 0,-64 0,-17 13,-120 23,-128 23,-17 32,66 39,78 71,118 186,-45 253,62 11,59 11,47 -39,47 -24,0 -68,65 -119,74 -27,5 -114,4 -63,55 78,0 171,-48 241,-78 55,-23 152,-4 184,-21l0 -6c-59,-59 -21,-102 43,-51 0,82 148,99 216,84 59,-13 238,59 242,56 0,-47 -41,-75 11,-127 27,-27 61,-43 83,-73 20,-27 -34,-80 27,-112 71,-37 92,-13 122,-104 41,-29 70,-142 132,-129 20,4 25,25 42,30 32,8 68,-3 99,8 45,18 -51,82 -61,107 -9,22 -11,41 -5,64 9,31 2,71 2,104 2,21 18,76 1,90 -27,21 -2,30 17,41 18,10 -6,32 -1,50 5,19 41,32 58,30 35,-4 86,-89 106,-117 36,-49 125,-141 100,-206 -11,-30 -27,-48 -33,-82 -7,-33 18,-108 37,-134 24,-28 55,-127 101,-111 63,21 242,-85 269,18 8,32 17,48 27,76 17,49 14,18 29,-4 8,-11 51,-23 37,-42 -22,-29 -45,-53 -55,-90 -9,-36 12,-38 29,-61 15,-20 -2,-42 11,-60 28,-41 93,-21 80,-92 -9,-45 0,-101 60,-99 44,2 53,-38 97,-39 27,-1 31,46 57,61 61,35 -3,107 -37,135 -25,21 -39,70 -48,101 -13,46 -30,19 -67,37 -66,33 50,69 -6,113 -51,40 -16,86 -16,136 6,28 50,89 12,106 -27,12 -51,9 -17,36 99,78 53,-8 116,-55 37,-28 93,-74 118,-109 17,-25 72,-8 98,-16 25,-8 31,-45 58,-57 133,-62 19,-111 62,-223 45,-103 70,-191 174,-253 33,-20 207,-43 211,-57 -72,-54 -65,-66 -97,-149 -13,-34 -58,-32 -68,-78 -13,-62 -54,-120 -63,-178 -11,-71 -8,-202 14,-267 6,-43 -17,-63 -17,-99 60,-38 83,-180 108,-247 19,-50 43,-135 88,-166 32,-21 84,-24 97,-62 10,-33 1,-41 1,-72 0,-24 30,-34 36,-58 26,-100 3,-206 23,-306 14,-104 -19,-241 -30,-347 -6,-63 -39,-117 -56,-177 -21,-73 25,-248 62,-313l63 -111c38,-67 60,-19 110,-44 25,-1 138,-55 160,-35 30,28 7,107 64,99l-24 -103c-3,-11 10,-116 13,-135 3,-15 34,-49 19,-60 -21,-16 -55,-9 -55,-45 29,-18 92,-40 85,-79 -13,-63 -6,-29 25,-84 29,-52 -1,-51 10,-92 4,-14 50,-10 63,-38 13,-27 5,-52 14,-75 11,-27 43,-85 64,-50 11,18 44,37 54,6 4,-14 -22,-48 -11,-57 110,-89 13,-136 79,-242 13,-3 68,-64 76,-81 12,-26 -80,-20 -12,-67 46,-32 20,-76 20,-123 -7,0 -25,24 -37,29 -17,6 1,-101 1,-116 0,-79 21,-150 -18,-216 -30,-50 33,-72 -37,-87 -30,-6 -30,-62 -42,-85 -8,-15 -32,-37 -15,-51 57,-50 -13,-48 -24,-61 -12,-15 13,-45 13,-61 0,-32 -9,-40 -21,-68 -8,-28 -25,-63 -38,-88 -18,-34 -39,-74 -69,-100 -35,-30 -111,-43 -128,-94l-21 -47zm-2582 2693c0,-40 11,-75 30,-109 12,-21 32,-39 45,-61 11,-18 20,-18 33,-30 23,-22 54,-103 89,-103 13,53 -50,122 -50,181 0,25 -15,95 33,78 28,-10 71,-51 61,4 -13,72 -9,87 -66,141 -11,11 -33,45 -48,50 -11,4 -41,-1 -45,14 -4,0 -4,3 -7,4 -4,16 -62,29 -62,-5 0,-8 16,-55 20,-63 7,-14 66,-59 35,-74 -19,-9 -71,25 -74,-12l5 -16zm-4018 1817c-11,-11 -24,-34 -18,-50 3,-7 6,-11 10,-17 8,-13 4,-30 11,-44 6,-11 15,-16 29,-16 12,0 20,0 24,14 6,23 13,34 35,44 38,18 -8,43 -21,57 -9,10 -7,13 -11,24 -6,16 -33,16 -46,8l-11 -21zm4919 1473c-2,-12 -9,-21 -11,-33 -3,-14 -11,-52 11,-54 14,-1 23,5 35,13 12,9 18,8 18,25 0,8 1,16 0,24 -1,11 0,21 0,32 0,23 -30,16 -44,16l-8 -23zm-5746 785c-8,-16 -4,-45 18,-45l38 0 21 0c7,0 9,2 14,4 0,12 -9,28 -18,37 -19,19 -41,25 -68,18l-6 -13zm1678 -381c17,20 90,81 116,88 26,7 55,-4 76,-19 24,-16 72,61 72,82 -1,38 -27,62 -21,103 7,51 60,47 55,109 -3,39 8,26 29,47 28,28 -45,66 -63,73 -65,59 -154,82 -206,158 -51,74 -119,176 -137,264 -2,9 1,63 -8,63 -2,-7 -56,-45 -66,-53 -24,-18 -23,-60 -46,-70 -22,-9 -42,-17 -61,-32 -41,-50 -165,-86 -228,-86 -94,0 -132,89 -216,111 -180,48 -125,225 -226,349 -27,32 -102,40 -108,79 -7,39 22,93 -18,105 -63,18 17,77 17,103 -20,0 -58,-28 -76,-38 -37,-20 -61,35 -85,42 -17,5 -24,-28 -39,-33 -114,-42 42,-165 -100,-142 -93,15 -65,-129 -106,-178 -34,-41 32,-34 41,-68 8,-30 -14,-78 -14,-112 0,-58 -90,48 -82,-48 -29,-25 -25,-51 1,-76 14,-14 -41,-25 -37,-47 5,-25 33,-37 52,-49 32,-20 22,-26 38,-56 18,-34 56,-45 91,-60 28,-12 59,-81 81,-106 24,-29 -1,-46 -1,-73 0,-41 54,-42 62,-74 16,-63 -2,-46 48,-94 22,-10 91,-99 114,-70 10,13 47,55 49,69 10,60 15,97 89,94 34,-1 63,-33 97,-43 35,-10 66,15 101,-2 56,6 114,22 154,-27 48,-59 62,-121 42,-193 -12,-44 17,-19 44,-19 52,0 39,-76 104,-79 40,-2 38,-60 79,-51 16,3 26,24 42,24 31,0 60,-47 101,-39 40,7 60,32 92,53l62 26zm4 -249c-15,5 -30,12 -46,14 -16,2 -31,1 -45,10 -7,4 -8,13 -4,19 9,14 49,15 64,20 12,4 26,9 36,18 8,7 28,27 36,12 10,-20 -6,-54 -6,-76l-35 -17zm552 -37c-26,39 -71,103 -112,125 -21,12 -99,18 -72,61 21,34 -12,33 -33,58 -18,21 -39,24 -20,53 14,22 16,44 29,66 14,23 34,6 50,-6 26,-20 111,-33 126,-56 6,-10 -25,-66 -27,-82 -8,-51 54,-62 60,-109 2,-16 -10,-27 -7,-38 4,-15 12,-37 18,-54l-11 -18zm-2638 1923c27,-55 130,-81 130,-152 0,-75 103,-28 99,-124 -2,-51 -21,-66 -58,-97 -64,-52 74,-58 -15,-91 -23,-9 -67,-17 -67,-45 0,-26 58,-95 44,-100 -48,-17 -78,3 -125,-33 -59,-45 -69,63 -137,-24 -37,-51 -23,-90 39,-87 65,3 45,-53 72,-49 89,15 7,-165 -11,-193 -52,-84 -82,-20 -144,16 -97,56 -157,28 -263,-10 -108,-38 -148,-170 -170,-259 -40,-10 -153,-33 -188,-20 -75,26 -144,45 -164,129l-31 129c-18,77 -127,76 -187,41 -11,-7 -90,98 -116,124 -67,68 -89,-3 -113,-48 -58,-42 -43,23 -74,51 -44,42 31,29 11,76 -7,18 -10,82 -19,85 -28,9 -37,-58 -73,-49 -32,8 -44,19 -76,4 -58,-27 -36,33 -44,72 -8,38 23,59 54,73 34,15 23,22 39,50 48,80 189,44 189,160 -22,36 5,53 5,85 -59,10 -53,129 -91,33 -10,-26 -50,-24 -38,-62 8,-27 12,-42 6,-68 -39,-10 -36,-64 -72,-64 -69,0 3,213 79,245 94,40 7,114 21,172 34,0 71,-122 131,-138 32,-9 47,-43 77,-43 73,0 19,-12 17,-57 -2,-45 124,-45 66,-116 -27,-33 -36,-87 -36,-130 33,-8 43,-34 62,-60 25,-33 30,24 48,38 60,48 108,2 108,111 0,117 74,133 131,216 81,117 -82,103 -68,159 37,7 78,-15 116,-5 57,15 -88,79 -61,113 45,57 -31,93 -51,155 -24,45 -42,97 -70,138 -18,26 -56,64 -64,92 -38,8 -44,-2 -86,11 -56,17 -13,-55 -38,-61 -3,-12 -33,-3 -39,2 0,17 48,85 64,98 31,25 -21,60 -14,94 4,23 30,80 13,100 -56,65 -2,100 46,150 57,60 59,173 24,243 -18,37 -51,42 -89,30 -12,-4 -39,10 -21,21 20,12 47,22 55,44 -5,19 -2,42 4,61 8,29 165,-12 209,36 12,13 21,63 44,57 23,-6 49,-13 68,-19 0,-14 0,-63 -8,-72 -20,-20 -38,-25 -49,-54 -17,-46 -31,-78 -38,-127 -8,-54 20,-73 33,-122 25,-36 31,-71 50,-109 15,-31 28,-43 61,-20 43,30 132,26 95,92 -10,19 -18,74 -32,74 -14,0 -48,-4 -48,16 0,51 -15,58 26,99 31,31 53,100 35,142 0,39 -23,151 -62,167 -36,15 -10,51 -4,47 54,-39 221,-38 234,-113 10,-59 9,-16 44,-51 19,-19 35,-46 35,-74 -83,0 -60,-85 -26,-127 78,-96 120,36 180,36 46,0 55,18 52,-35 -3,-63 31,-84 49,-141 39,-75 64,-142 37,-224 -22,-67 7,-119 31,-180 33,-86 13,-187 74,-260 63,-76 40,-179 78,-267l-1 -7zm-902 2030c-18,-9 -49,-39 -69,-18 -17,17 -21,27 -46,29 -78,6 2,75 10,99 11,37 10,81 64,72 31,-5 57,-19 79,-41 15,-15 18,-25 37,-32 10,-4 55,-16 41,-35 -18,-23 -54,-43 -81,-55l-33 -19zm253 -24c2,-43 34,-62 50,-100 10,-23 5,-45 5,-68 0,-30 40,-49 42,-88 1,-32 22,-74 58,-81 3,4 -20,126 -24,141 -7,27 -20,75 -38,95 -40,48 -44,83 -44,143 0,43 -61,77 -61,14l12 -56zm-138 -1071c-3,-11 -2,-17 -12,-21 -16,-8 -68,-1 -68,20 0,16 3,29 14,41 15,15 52,-4 67,-11l-1 -29zm-566 -745c36,-32 48,-71 60,-113 7,-26 55,-33 77,-33 42,-1 21,40 17,68 -5,28 -5,51 0,79 11,64 -55,31 -63,79 -5,27 -1,27 -17,49 -8,10 -23,27 -38,20 -10,-5 -43,-20 -46,-27 -7,-13 73,-25 73,-51 0,-26 -74,2 -74,-42l12 -27zm238 -93c-9,2 -15,8 -24,11 -9,3 -42,12 -39,26 1,5 33,14 39,18 19,13 54,21 77,21 19,0 19,-6 20,-21 1,-15 47,-34 25,-58 -9,-10 -17,-14 -29,-18 -10,-3 -18,-4 -29,-4 -10,0 -15,8 -21,10l-20 16zm-58 -259c-6,-20 -26,-49 -21,-70 4,-21 63,-37 81,-31 9,3 37,11 39,21 4,19 7,20 26,25 0,17 -18,27 -29,38 -23,25 -14,59 -25,87 -5,13 -34,28 -48,32 -16,4 -25,5 -37,17 -14,14 -41,19 -56,0 -22,-28 39,-56 50,-72l19 -48zm-1146 1c-16,13 -29,20 -50,20 -20,0 -22,-15 -36,-27 -4,-3 -26,-19 -27,-6 -1,13 7,29 7,43 0,11 3,25 0,36 -7,24 -3,46 11,64 34,45 38,-8 57,-29 18,-20 46,-4 70,-4 3,-11 2,-19 0,-31 -2,-11 -12,-31 -8,-41l-24 -26zm508 -479c1,-7 -2,-14 -2,-21 0,-8 15,-20 18,-29 5,-12 3,-19 13,-30 8,-9 47,-20 39,2 -2,8 -11,15 -14,23 -6,14 -13,30 -13,45 0,6 1,16 -2,21 -5,10 -22,21 -29,29 -4,4 -6,10 -13,10 -9,0 -14,-10 -14,-18l16 -33zm208 -484c-2,-5 2,-12 2,-18 0,-9 -5,-17 -4,-27 1,-23 6,-42 33,-42 17,0 12,19 13,32 0,14 7,22 10,34 2,6 5,12 2,19 -3,9 -17,17 -23,26 -9,14 -12,21 -27,2l-6 -24zm-399 -411c4,-21 10,-39 11,-61 1,-19 -1,-42 8,-59 11,-2 15,5 22,12 10,10 58,16 55,30 -3,18 -17,39 -22,58 -7,22 -12,52 -25,72 -16,23 -49,29 -49,-8l-1 -43zm103 -266c-38,-39 8,-37 23,-65 13,-24 -18,-25 -23,-44 -6,-20 12,-30 28,-33 22,-6 27,-27 40,-44 7,-9 39,-23 49,-14 11,9 -3,75 -5,91 -5,51 -77,74 -78,122 0,17 -3,35 -16,47 -19,18 -43,3 -37,-23l19 -37zm-570 -423c-37,-3 -66,-35 -88,7 -22,43 -6,50 38,41 37,-8 42,-3 36,30 -4,18 -5,43 6,58 8,11 23,30 38,20 14,-9 0,-43 6,-58 10,-27 79,-32 42,-73 -19,-22 1,-32 8,-56 7,-24 -15,-110 -42,-57 -17,35 7,71 -36,90l-8 -1zm-692 286c-5,-2 -12,-16 -12,-23 0,-7 0,-10 5,-16 10,-11 18,-29 32,-35 23,-10 19,23 17,36 -2,7 -7,17 -4,24 4,9 0,12 -7,19l-30 -6zm-458 161c-14,9 -43,-10 -43,-26 5,-3 13,-4 18,-6 15,-5 30,-12 46,-17 6,-2 20,-8 26,-5 4,1 0,27 -1,31 -3,15 -23,17 -34,24l-13 0zm-351 94c-4,-17 -5,-38 -24,-46 -15,-6 -36,0 -40,17 -4,17 10,19 20,29 7,8 12,14 17,23 7,15 6,29 26,31 19,2 27,-8 33,-25l-32 -30zm-428 1046c-28,-16 -19,-66 -6,-90 13,-23 44,-36 66,-53 21,-16 29,-43 52,-57 45,-28 103,-36 153,-62 42,-22 97,-59 148,-49 71,14 198,89 148,178 -13,23 -97,111 -120,123 -41,22 -79,-15 -124,12 -79,47 -116,-15 -193,2 -31,7 -46,9 -62,36 -19,32 -35,-5 -58,-19l-2 -21zm125 -3107c-11,-33 -23,-72 -29,-106 -3,-18 15,-52 27,-23 8,17 8,37 14,55 9,24 50,115 -2,121l-11 -47zm118 -1283c-7,-24 -11,-38 -26,-58 -19,-25 -53,-72 -69,-15 -4,13 -5,26 -5,39 1,13 0,16 -3,28 -6,27 42,24 27,54 -7,14 -28,33 -13,50 8,9 23,17 33,25 9,7 43,-5 49,-14 17,-22 3,-56 7,-81l-1 -29zm-817 -109c-14,1 -46,-4 -35,20 4,10 18,21 11,34 -5,10 -21,8 -30,8 -25,0 -37,13 -52,30 -6,7 -23,46 -2,30 17,-13 22,-22 44,-27 18,-5 39,8 54,-4 19,-16 9,-42 17,-62l-6 -28zm-615 -161c-9,9 -23,11 -36,12 -10,1 -21,-2 -30,2 -15,7 -1,38 6,47 6,7 20,16 29,7 7,-8 4,-14 -2,-21 -4,-5 -8,-8 -8,-16 0,-3 26,-6 30,-7 9,-1 19,-9 15,-20l-5 -4zm4886 513c-5,-6 -9,-30 -5,-38 9,-17 27,-17 41,-27 7,-6 29,-17 38,-10 5,4 5,20 6,26 2,14 -1,27 -6,40 -8,20 -28,14 -46,13l-26 -4zm7189 4295c-8,5 -21,-7 -27,-12 -4,-3 -10,-8 -8,-13 5,-11 5,-15 2,-27 -2,-8 -3,-11 7,-11 17,0 21,12 31,23 7,8 15,10 25,13 20,6 17,11 10,27 -7,18 -16,23 -37,13l-3 -13zm-245 -948c0,-6 1,-10 4,-16 3,-8 3,-15 8,-23 2,-3 9,-1 12,0 12,2 37,1 44,13 4,7 4,12 -4,16 -7,4 -13,7 -19,12 -9,7 -7,17 -12,26 -9,16 -27,17 -43,11l10 -39z"/>
  <polygon class="fil2 str1" points="16759,26410 19404,26410 19404,28003 16759,28003 "/>
  <path class="fil3" d="M19583 27910c0,-17 4,-34 13,-51 9,-17 22,-30 38,-39 17,-9 34,-14 52,-14 18,0 35,5 52,14 17,9 29,22 39,38 9,17 14,34 14,52 0,18 -5,35 -14,52 -9,17 -22,29 -39,39 -17,9 -34,14 -52,14 -18,0 -35,-5 -52,-14 -17,-9 -30,-22 -38,-39 -9,-17 -13,-34 -13,-51zm17 0c0,15 4,29 11,43 7,14 18,25 32,32 14,8 28,12 43,12 15,0 29,-4 43,-12 14,-8 24,-18 32,-32 8,-14 12,-28 12,-43 0,-15 -4,-29 -12,-43 -8,-14 -18,-25 -32,-32 -14,-8 -28,-11 -43,-11 -15,0 -30,4 -43,12 -14,8 -25,19 -32,32 -7,14 -11,28 -11,43zm104 -33l5 -17c12,3 21,9 28,18 7,9 10,20 10,33 0,16 -5,29 -16,39 -10,10 -25,15 -44,15 -12,0 -23,-2 -32,-7 -9,-5 -16,-11 -20,-20 -5,-9 -7,-18 -7,-29 0,-12 3,-22 9,-30 6,-8 14,-14 24,-17l4 16c-7,3 -12,7 -16,12 -4,5 -6,12 -6,19 0,11 4,19 11,26 8,7 18,10 32,10 14,0 25,-3 32,-10 7,-6 11,-15 11,-25 0,-8 -2,-16 -7,-22 -5,-6 -11,-10 -20,-12z"/>
  <path id="1" class="fil3" d="M19789 27615l-19 0c14,9 22,23 22,41 0,12 -3,22 -10,32 -6,10 -15,17 -27,23 -12,5 -25,8 -40,8 -15,0 -28,-2 -40,-7 -12,-5 -21,-12 -27,-22 -6,-10 -10,-21 -10,-33 0,-9 2,-17 6,-24 4,-7 9,-12 15,-17l-73 0 0 -25 202 0 0 23zm-73 78c19,0 33,-4 42,-12 9,-8 14,-17 14,-28 0,-11 -4,-20 -13,-28 -9,-8 -22,-11 -41,-11 -20,0 -35,4 -44,12 -9,8 -14,17 -14,29 0,11 4,20 13,28 9,7 23,11 42,11z"/>
  <polygon id="2" class="fil3" points="19728,27562 19703,27562 19703,27486 19728,27486 "/>
  <path id="3" class="fil3" d="M19789 27458l-146 0 0 -22 21 0c-7,-5 -13,-11 -17,-18 -4,-8 -7,-16 -7,-26 0,-11 2,-20 7,-27 5,-7 11,-12 19,-15 -17,-12 -26,-27 -26,-45 0,-15 4,-26 12,-34 8,-8 20,-12 37,-12l100 0 0 25 -92 0c-10,0 -17,1 -21,2 -4,2 -8,5 -11,9 -3,4 -4,9 -4,15 0,10 3,19 10,26 7,7 18,10 33,10l85 0 0 25 -95 0c-11,0 -19,2 -25,6 -6,4 -8,11 -8,20 0,7 2,13 6,19 4,6 9,10 16,13 7,3 17,4 31,4l76 0 0 25z"/>
  <path id="4" class="fil3" d="M19770 27128c8,9 13,18 17,27 3,9 5,18 5,27 0,16 -4,28 -12,37 -8,9 -18,13 -30,13 -7,0 -14,-2 -20,-5 -6,-3 -11,-8 -14,-13 -4,-5 -6,-11 -8,-18 -1,-5 -2,-12 -4,-22 -2,-20 -5,-35 -9,-44 -3,0 -6,0 -6,0 -10,0 -17,2 -21,7 -6,6 -8,16 -8,28 0,12 2,20 6,26 4,6 11,10 22,12l-3 24c-10,-2 -19,-6 -25,-11 -6,-5 -11,-12 -15,-22 -3,-10 -5,-21 -5,-33 0,-13 1,-23 4,-31 3,-8 7,-14 11,-17 4,-4 10,-6 17,-8 4,-1 12,-1 23,-1l33 0c23,0 38,-1 44,-2 6,-1 12,-3 18,-6l0 26c-5,3 -11,4 -18,5zm-55 2c4,9 7,23 9,41 1,10 3,17 5,22 2,4 5,7 8,10 4,2 7,3 12,3 7,0 12,-2 16,-8 4,-5 7,-12 7,-22 0,-10 -2,-18 -6,-26 -4,-7 -10,-13 -17,-16 -6,-3 -14,-4 -25,-4l-9 0z"/>
  <path id="5" class="fil3" d="M19845 27066l-203 0 0 -23 19 0c-7,-5 -13,-11 -17,-18 -4,-7 -6,-15 -6,-24 0,-13 3,-24 10,-33 6,-10 15,-17 27,-22 12,-5 25,-7 38,-7 15,0 28,3 40,8 12,5 21,13 28,23 6,10 10,21 10,32 0,8 -2,16 -5,22 -3,7 -8,12 -13,16l71 0 0 25zm-129 -23c19,0 33,-4 42,-11 9,-8 13,-17 13,-28 0,-11 -5,-20 -14,-28 -9,-8 -24,-12 -43,-12 -19,0 -33,4 -42,11 -9,8 -14,17 -14,27 0,11 5,20 15,28 10,8 24,12 43,12z"/>
  <path id="6" class="fil3" d="M19745 26919l-4 -25c10,-1 17,-5 23,-12 5,-6 8,-15 8,-26 0,-11 -2,-20 -7,-25 -5,-6 -10,-8 -16,-8 -6,0 -10,3 -13,7 -2,3 -5,12 -8,25 -5,18 -9,31 -12,38 -3,7 -8,12 -14,16 -6,4 -12,5 -20,5 -7,0 -13,-2 -18,-4 -6,-3 -10,-7 -14,-12 -3,-4 -5,-9 -7,-16 -2,-7 -3,-14 -3,-21 0,-11 2,-22 5,-30 3,-9 8,-15 13,-19 6,-4 13,-7 23,-9l3 24c-8,1 -14,4 -18,10 -4,5 -6,13 -6,22 0,11 2,19 6,24 4,5 8,7 13,7 3,0 6,-1 9,-3 3,-2 5,-5 7,-10 1,-3 3,-10 6,-22 5,-18 9,-30 11,-37 3,-7 7,-12 13,-16 6,-4 13,-6 21,-6 8,0 16,2 23,7 7,5 13,12 17,21 4,9 6,19 6,31 0,19 -4,34 -12,44 -8,10 -20,16 -35,19z"/>
  <polygon id="7" class="fil3" points="19789,26761 19760,26761 19760,26733 19789,26733 "/>
  <path id="8" class="fil3" d="M19735 26594l3 -24c17,3 30,9 39,20 9,11 14,24 14,40 0,20 -7,36 -20,48 -13,12 -32,18 -56,18 -16,0 -30,-3 -41,-8 -12,-5 -21,-13 -27,-24 -6,-11 -9,-22 -9,-35 0,-16 4,-29 12,-39 8,-10 19,-17 34,-19l4 24c-10,2 -17,6 -22,12 -5,6 -7,13 -7,21 0,13 4,23 13,31 9,8 23,12 42,12 20,0 34,-4 43,-11 9,-8 13,-17 13,-29 0,-10 -3,-18 -9,-24 -6,-7 -15,-11 -27,-12z"/>
  <path id="9" class="fil3" d="M19715 26558c-27,0 -47,-8 -60,-23 -11,-13 -16,-28 -16,-46 0,-20 7,-37 20,-49 13,-13 31,-19 55,-19 19,0 34,3 44,8 11,6 19,14 25,25 6,11 9,23 9,35 0,21 -7,37 -20,50 -13,13 -32,19 -57,19zm0 -25c19,0 33,-4 42,-12 9,-8 14,-19 14,-31 0,-12 -5,-23 -14,-31 -9,-8 -24,-12 -43,-12 -18,0 -32,4 -41,12 -9,8 -14,18 -14,31 0,12 5,23 14,31 9,8 23,12 42,12z"/>
  <path id="10" class="fil3" d="M19789 26392l-146 0 0 -22 21 0c-7,-5 -13,-11 -17,-18 -4,-8 -7,-16 -7,-26 0,-11 2,-20 7,-27 5,-7 11,-12 19,-15 -17,-12 -26,-27 -26,-45 0,-15 4,-26 12,-34 8,-8 20,-12 37,-12l100 0 0 25 -92 0c-10,0 -17,1 -21,2 -4,2 -8,5 -11,9 -3,4 -4,9 -4,15 0,10 3,19 10,26 7,7 18,10 33,10l85 0 0 25 -95 0c-11,0 -19,2 -25,6 -6,4 -8,11 -8,20 0,7 2,13 6,19 4,6 9,10 16,13 7,3 17,4 31,4l76 0 0 25z"/>
  <g id="_2760171376192">
   <g>
    <polygon class="fil4 str2" points="16890,27012 17489,27012 17489,27111 16890,27111 "/>
    <polygon class="fil5 str2" points="17489,27012 18088,27012 18088,27111 17489,27111 "/>
    <polygon class="fil4 str2" points="18088,27012 18688,27012 18688,27111 18088,27111 "/>
    <polygon class="fil5 str2" points="18688,27012 19287,27012 19287,27111 18688,27111 "/>
    <polygon class="fil4 str2" points="17850,27311 18809,27311 18809,27410 17850,27410 "/>
    <polygon class="fil5 str2" points="16892,27311 17850,27311 17850,27410 16892,27410 "/>
   </g>
   <path class="fil3" d="M17695 26770l-16 45 -138 0 0 -6c41,-37 69,-67 86,-91 17,-23 25,-45 25,-64 0,-15 -5,-27 -14,-37 -9,-10 -20,-14 -33,-14 -12,0 -22,3 -31,10 -9,7 -16,16 -20,29l-6 0c3,-21 10,-37 22,-49 12,-11 27,-17 45,-17 19,0 35,6 48,18 13,12 19,27 19,43 0,12 -3,24 -8,36 -8,19 -22,38 -41,59 -29,31 -46,50 -53,56l60 0c12,0 21,0 26,-1 5,-1 9,-3 13,-6 4,-3 7,-7 10,-12l7 0z"/>
   <path id="1" class="fil3" d="M17723 26700c0,-27 4,-50 12,-69 8,-19 19,-34 32,-43 10,-7 21,-11 32,-11 18,0 34,9 48,27 18,23 27,53 27,92 0,27 -4,50 -12,69 -8,19 -18,33 -30,41 -12,9 -24,13 -35,13 -22,0 -41,-13 -56,-39 -13,-22 -19,-49 -19,-80zm34 4c0,32 4,58 12,79 7,17 16,26 29,26 6,0 13,-3 19,-8 7,-6 12,-15 15,-28 5,-20 8,-48 8,-83 0,-27 -3,-49 -8,-67 -4,-13 -9,-23 -16,-28 -5,-4 -10,-6 -17,-6 -8,0 -15,4 -21,11 -8,10 -14,24 -17,45 -3,20 -4,41 -4,60z"/>
   <path id="2" class="fil3" d="M17899 26700c0,-27 4,-50 12,-69 8,-19 19,-34 32,-43 10,-7 21,-11 32,-11 18,0 34,9 48,27 18,23 27,53 27,92 0,27 -4,50 -12,69 -8,19 -18,33 -30,41 -12,9 -24,13 -35,13 -22,0 -41,-13 -56,-39 -13,-22 -19,-49 -19,-80zm34 4c0,32 4,58 12,79 7,17 16,26 29,26 6,0 13,-3 19,-8 7,-6 12,-15 15,-28 5,-20 8,-48 8,-83 0,-27 -3,-49 -8,-67 -4,-13 -9,-23 -16,-28 -5,-4 -10,-6 -17,-6 -8,0 -15,4 -21,11 -8,10 -14,24 -17,45 -3,20 -4,41 -4,60z"/>
   <path id="3" class="fil3" d="M18209 26571l0 157 40 -37c9,-8 13,-13 15,-15 1,-1 1,-3 1,-4 0,-2 -1,-4 -3,-6 -2,-2 -5,-3 -9,-3l0 -6 69 0 0 6c-9,0 -17,2 -23,4 -6,3 -13,7 -21,14l-41 37 40 51c11,14 19,23 23,27 6,5 10,9 15,10 3,1 8,2 15,2l0 6 -77 0 0 -6c4,0 7,-1 9,-2 2,-1 2,-3 2,-5 0,-3 -2,-7 -7,-13l-48 -62 0 52c0,10 1,17 2,20 1,3 3,5 6,7 3,1 8,2 17,2l0 6 -80 0 0 -6c8,0 14,-1 18,-3 2,-1 4,-3 5,-6 2,-4 3,-10 3,-20l0 -144c0,-18 0,-29 -1,-33 -1,-4 -2,-7 -4,-8 -2,-2 -4,-2 -7,-2 -2,0 -6,1 -11,3l-3 -6 47 -19 8 0z"/>
   <path id="4" class="fil3" d="M18385 26687c11,-12 18,-18 20,-20 5,-4 11,-8 17,-10 6,-2 12,-4 18,-4 10,0 18,3 25,9 7,6 12,14 14,25 12,-14 22,-23 30,-27 8,-4 17,-6 25,-6 8,0 16,2 22,6 6,4 12,11 15,21 3,7 4,17 4,31l0 68c0,10 1,17 2,20 1,2 3,5 6,6 3,2 8,3 15,3l0 6 -77 0 0 -6 3 0c7,0 12,-1 16,-4 3,-2 5,-5 6,-9 0,-2 1,-7 1,-17l0 -68c0,-13 -2,-22 -5,-27 -5,-7 -12,-11 -22,-11 -6,0 -12,2 -18,5 -6,3 -14,9 -22,17l0 2 1 7 0 75c0,11 1,17 2,20 1,3 3,5 7,7 3,2 9,3 17,3l0 6 -79 0 0 -6c9,0 15,-1 18,-3 3,-2 5,-5 7,-9 1,-2 1,-8 1,-17l0 -68c0,-13 -2,-22 -6,-28 -5,-7 -12,-11 -21,-11 -6,0 -12,2 -18,5 -9,5 -17,11 -22,17l0 85c0,10 1,17 2,20 1,3 4,5 6,7 3,2 8,2 17,2l0 6 -78 0 0 -6c7,0 12,-1 15,-2 3,-2 5,-4 7,-7 1,-3 2,-10 2,-20l0 -60c0,-17 -1,-28 -2,-34 -1,-4 -2,-6 -4,-8 -2,-1 -4,-2 -7,-2 -3,0 -7,1 -12,3l-3 -6 48 -19 7 0 0 34z"/>
   <path class="fil3" d="M17405 27575l57 -28 6 0 0 197c0,13 1,21 2,25 1,3 3,6 7,7 3,2 11,3 21,3l0 6 -88 0 0 -6c11,0 18,-1 21,-3 3,-2 5,-4 7,-7 1,-3 2,-11 2,-25l0 -126c0,-17 -1,-28 -2,-33 -1,-4 -2,-6 -4,-8 -2,-2 -5,-3 -8,-3 -4,0 -10,2 -18,5l-3 -5z"/>
   <path id="1" class="fil3" d="M18040 27657c11,-12 18,-18 20,-20 5,-4 11,-8 17,-10 6,-2 12,-4 18,-4 10,0 18,3 25,9 7,6 12,14 14,25 12,-14 22,-23 30,-27 8,-4 17,-6 25,-6 8,0 16,2 22,6 6,4 12,11 15,21 3,7 4,17 4,31l0 68c0,10 1,17 2,20 1,2 3,5 6,6 3,2 8,3 15,3l0 6 -77 0 0 -6 3 0c7,0 12,-1 16,-4 3,-2 5,-5 6,-9 0,-2 1,-7 1,-17l0 -68c0,-13 -2,-22 -5,-27 -5,-7 -12,-11 -22,-11 -6,0 -12,2 -18,5 -6,3 -14,9 -22,17l0 2 1 7 0 75c0,11 1,17 2,20 1,3 3,5 7,7 3,2 9,3 17,3l0 6 -79 0 0 -6c9,0 15,-1 18,-3 3,-2 5,-5 7,-9 1,-2 1,-8 1,-17l0 -68c0,-13 -2,-22 -6,-28 -5,-7 -12,-11 -21,-11 -6,0 -12,2 -18,5 -9,5 -17,11 -22,17l0 85c0,10 1,17 2,20 1,3 4,5 6,7 3,2 8,2 17,2l0 6 -78 0 0 -6c7,0 12,-1 15,-2 3,-2 5,-4 7,-7 1,-3 2,-10 2,-20l0 -60c0,-17 -1,-28 -2,-34 -1,-4 -2,-6 -4,-8 -2,-1 -4,-2 -7,-2 -3,0 -7,1 -12,3l-3 -6 48 -19 7 0 0 34z"/>
   <path id="2" class="fil3" d="M18307 27541c5,0 9,2 12,5 3,3 5,8 5,12 0,5 -2,9 -5,12 -3,3 -8,5 -12,5 -5,0 -9,-2 -12,-5 -3,-3 -5,-8 -5,-12 0,-5 2,-9 5,-12 3,-3 8,-5 13,-5zm14 83l0 127c0,10 1,16 2,20 1,3 4,6 6,7 3,2 8,2 15,2l0 6 -77 0 0 -6c8,0 13,-1 15,-2 3,-1 5,-4 6,-7 2,-3 2,-10 2,-20l0 -61c0,-17 -1,-28 -2,-33 -1,-4 -2,-6 -4,-8 -2,-1 -4,-2 -7,-2 -3,0 -7,1 -12,3l-2 -6 47 -19 8 0z"/>
   <path id="3" class="fil3" d="M17553 27670c0,-27 4,-50 12,-69 8,-19 19,-34 32,-43 10,-7 21,-11 32,-11 18,0 34,9 48,27 18,23 27,53 27,92 0,27 -4,50 -12,69 -8,19 -18,33 -30,41 -12,9 -24,13 -35,13 -22,0 -41,-13 -56,-39 -13,-22 -19,-49 -19,-80zm34 4c0,32 4,58 12,79 7,17 16,26 29,26 6,0 13,-3 19,-8 7,-6 12,-15 15,-28 5,-20 8,-48 8,-83 0,-27 -3,-49 -8,-67 -4,-13 -9,-23 -16,-28 -5,-4 -10,-6 -17,-6 -8,0 -15,4 -21,11 -8,10 -14,24 -17,45 -3,20 -4,41 -4,60z"/>
   <path id="4" class="fil3" d="M17730 27670c0,-27 4,-50 12,-69 8,-19 19,-34 32,-43 10,-7 21,-11 32,-11 18,0 34,9 48,27 18,23 27,53 27,92 0,27 -4,50 -12,69 -8,19 -18,33 -30,41 -12,9 -24,13 -35,13 -22,0 -41,-13 -56,-39 -13,-22 -19,-49 -19,-80zm34 4c0,32 4,58 12,79 7,17 16,26 29,26 6,0 13,-3 19,-8 7,-6 12,-15 15,-28 5,-20 8,-48 8,-83 0,-27 -3,-49 -8,-67 -4,-13 -9,-23 -16,-28 -5,-4 -10,-6 -17,-6 -8,0 -15,4 -21,11 -8,10 -14,24 -17,45 -3,20 -4,41 -4,60z"/>
  </g>
  <rect class="fil6 str3" x="1000" y="1000" width="19000" height="27233"/>
  <g id="_2760171372864">
   <polygon class="fil2 str1" points="15803,26407 16619,26407 16619,27999 15803,27999 "/>
   <path class="fil7" d="M16151 26843c-1,3 -2,6 -2,9 0,3 -1,5 -1,7 0,6 2,10 5,12 3,2 10,3 18,3l4 0 -5 23 -78 0 5 -23 3 0c7,0 13,-2 16,-5 4,-3 6,-8 8,-16l38 -154c1,-3 1,-6 2,-8 0,-3 1,-6 1,-9 0,-5 -2,-9 -6,-11 -4,-2 -11,-3 -20,-3l-3 0 5 -23 72 0 62 184 31 -129c1,-4 2,-8 2,-10 0,-3 1,-5 1,-6 0,-6 -2,-10 -5,-12 -4,-2 -10,-3 -18,-3l-4 0 5 -23 79 0 -6 23 -3 0c-7,0 -13,2 -16,5 -4,3 -6,8 -8,16l-51 208 -22 0 -72 -209 -37 155z"/>
   <line class="fil6 str4" x1="16212" y1="27866" x2="16212" y2= "27097" />
   <line class="fil6 str4" x1="15930" y1="27590" x2="16493" y2= "27590" />
   <line class="fil6 str4" x1="16067" y1="27730" x2="16361" y2= "27443" />
   <line class="fil6 str4" x1="16064" y1="27443" x2="16362" y2= "27732" />
   <line class="fil6 str4" x1="16212" y1="27100" x2="16116" y2= "27218" />
   <line class="fil6 str4" x1="16213" y1="27100" x2="16300" y2= "27218" />
  </g>
  <g id="_2760171367648">
   <polygon class="fil2 str1" points="15041,27526 15041,27999 12732,27999 12732,27526 "/>
   <path class="fil7" d="M13809 27864l0 -202 40 0 48 143c4,13 8,23 10,30 2,-7 6,-18 11,-32l49 -141 36 0 0 202 -26 0 0 -169 -59 169 -24 0 -58 -172 0 172 -26 0z"/>
   <path id="1" class="fil7" d="M14142 27817l26 3c-4,15 -11,27 -22,35 -11,8 -25,12 -42,12 -21,0 -38,-7 -51,-20 -13,-13 -19,-32 -19,-55 0,-25 6,-44 19,-57 13,-14 29,-20 49,-20 20,0 35,7 48,20 12,13 19,32 19,56 0,1 0,4 0,7l-109 0c1,16 5,28 14,37 8,9 18,13 31,13 9,0 17,-2 23,-7 6,-5 12,-12 15,-23zm-81 -40l82 0c-1,-12 -4,-22 -9,-28 -8,-10 -18,-14 -31,-14 -11,0 -21,4 -29,11 -8,8 -12,18 -13,31z"/>
   <path id="2" class="fil7" d="M14198 27864l0 -146 22 0 0 22c6,-10 11,-17 16,-21 5,-3 10,-5 16,-5 8,0 17,3 26,8l-9 23c-6,-3 -12,-5 -18,-5 -5,0 -10,2 -15,5 -4,3 -7,8 -9,14 -3,9 -4,18 -4,29l0 77 -25 0z"/>
   <path id="3" class="fil7" d="M14388 27811l24 3c-3,17 -9,30 -20,39 -11,9 -24,14 -40,14 -20,0 -36,-7 -48,-20 -12,-13 -18,-32 -18,-56 0,-16 3,-30 8,-41 5,-12 13,-21 24,-27 11,-6 22,-9 35,-9 16,0 29,4 39,12 10,8 17,19 19,34l-24 4c-2,-10 -6,-17 -12,-22 -6,-5 -13,-7 -21,-7 -13,0 -23,4 -31,13 -8,9 -12,23 -12,42 0,20 4,34 11,43 8,9 17,13 29,13 10,0 18,-3 24,-9 7,-6 11,-15 12,-27z"/>
   <path id="4" class="fil7" d="M14529 27846c-9,8 -18,13 -27,17 -9,3 -18,5 -27,5 -16,0 -28,-4 -37,-12 -9,-8 -13,-18 -13,-30 0,-7 2,-14 5,-20 3,-6 8,-11 13,-14 5,-4 11,-6 18,-8 5,-1 12,-2 22,-4 20,-2 35,-5 44,-9 0,-3 0,-6 0,-6 0,-10 -2,-17 -7,-21 -6,-6 -16,-8 -28,-8 -12,0 -20,2 -26,6 -6,4 -10,11 -12,22l-24 -3c2,-10 6,-19 11,-25 5,-6 12,-11 22,-15 10,-3 21,-5 33,-5 13,0 23,1 31,4 8,3 14,7 17,11 4,4 6,10 8,17 1,4 1,12 1,23l0 33c0,23 1,38 2,44 1,6 3,12 6,18l-26 0c-3,-5 -4,-11 -5,-18zm-2 -55c-9,4 -23,7 -41,9 -10,1 -17,3 -22,5 -4,2 -7,5 -10,8 -2,4 -3,7 -3,12 0,7 2,12 8,16 5,4 12,7 22,7 10,0 18,-2 26,-6 7,-4 13,-10 16,-17 3,-6 4,-14 4,-25l0 -9z"/>
   <path id="5" class="fil7" d="M14645 27842l3 22c-7,1 -13,2 -19,2 -9,0 -16,-1 -21,-4 -5,-3 -8,-7 -10,-11 -2,-5 -3,-14 -3,-29l0 -84 -18 0 0 -19 18 0 0 -36 25 -15 0 51 25 0 0 19 -25 0 0 86c0,7 0,12 1,14 1,2 2,4 4,5 2,1 5,2 8,2 3,0 6,0 11,-1z"/>
   <path id="6" class="fil7" d="M14660 27791c0,-27 8,-47 23,-60 13,-11 28,-16 46,-16 20,0 37,7 49,20 13,13 19,31 19,55 0,19 -3,34 -8,44 -6,11 -14,19 -25,25 -11,6 -23,9 -35,9 -21,0 -37,-7 -50,-20 -13,-13 -19,-32 -19,-57zm25 0c0,19 4,33 12,42 8,9 19,14 31,14 12,0 23,-5 31,-14 8,-9 12,-24 12,-43 0,-18 -4,-32 -12,-41 -8,-9 -18,-14 -31,-14 -12,0 -23,5 -31,14 -8,9 -12,23 -12,42z"/>
   <path id="7" class="fil7" d="M14826 27864l0 -146 22 0 0 22c6,-10 11,-17 16,-21 5,-3 10,-5 16,-5 8,0 17,3 26,8l-9 23c-6,-3 -12,-5 -18,-5 -5,0 -10,2 -15,5 -4,3 -7,8 -9,14 -3,9 -4,18 -4,29l0 77 -25 0z"/>
   <circle class="fil8 str5" cx="12950" cy="27759" r="119"/>
   <rect class="fil8 str5" x="13408" y="27651" width="227" height="227"/>
   <line class="fil6 str6" x1="13124" y1="27758" x2="13344" y2= "27758" />
   <line class="fil6 str6" x1="13342" y1="27759" x2="13278" y2= "27824" />
   <line class="fil6 str6" x1="13342" y1="27758" x2="13279" y2= "27696" />
  </g>
 </g>
</svg>
